<?xml version="1.0" encoding="UTF-8" standalone="no"?>
<!DOCTYPE svg PUBLIC "-//W3C//DTD SVG 1.1//EN"
 "http://www.w3.org/Graphics/SVG/1.1/DTD/svg11.dtd">
<!-- Generated by graphviz version 2.40.1 (20161225.0304)
 -->
<!-- Title: Nasa9PolyMultiTempRegion.h Pages: 1 -->
<svg width="328pt" height="84pt"
 viewBox="0.00 0.00 327.50 84.00" xmlns="http://www.w3.org/2000/svg" xmlns:xlink="http://www.w3.org/1999/xlink">
<g id="graph0" class="graph" transform="scale(1 1) rotate(0) translate(4 80)">
<title>Nasa9PolyMultiTempRegion.h</title>
<polygon fill="#ffffff" stroke="transparent" points="-4,4 -4,-80 323.5,-80 323.5,4 -4,4"/>
<!-- Node19 -->
<g id="node1" class="node">
<title>Node19</title>
<polygon fill="#bfbfbf" stroke="#000000" points="89,-56.5 89,-75.5 241,-75.5 241,-56.5 89,-56.5"/>
<text text-anchor="middle" x="165" y="-63.5" font-family="Helvetica,sans-Serif" font-size="10.00" fill="#000000">Nasa9PolyMultiTempRegion.h</text>
</g>
<!-- Node20 -->
<g id="node2" class="node">
<title>Node20</title>
<g id="a_node2"><a xlink:href="../../d2/d49/Nasa9PolyMultiTempRegion_8cpp.html" target="_top" xlink:title="Definitions for a single&#45;species standard state object derived from SpeciesThermoInterpType based on ...">
<polygon fill="#ffffff" stroke="#000000" points="0,-.5 0,-19.5 162,-19.5 162,-.5 0,-.5"/>
<text text-anchor="middle" x="81" y="-7.5" font-family="Helvetica,sans-Serif" font-size="10.00" fill="#000000">Nasa9PolyMultiTempRegion.cpp</text>
</a>
</g>
</g>
<!-- Node19&#45;&gt;Node20 -->
<g id="edge1" class="edge">
<title>Node19&#45;&gt;Node20</title>
<path fill="none" stroke="#191970" d="M141.7351,-50.49C126.9144,-40.6096 108.1791,-28.1194 95.464,-19.6427"/>
<polygon fill="#191970" stroke="#191970" points="140.1063,-53.6107 150.3683,-56.2455 143.9893,-47.7863 140.1063,-53.6107"/>
</g>
<!-- Node21 -->
<g id="node3" class="node">
<title>Node21</title>
<g id="a_node3"><a xlink:href="../../da/d47/SpeciesThermoFactory_8cpp.html" target="_top" xlink:title="Definitions for factory functions to build instances of classes that manage the standard&#45;state thermo...">
<polygon fill="#ffffff" stroke="#000000" points="180.5,-.5 180.5,-19.5 319.5,-19.5 319.5,-.5 180.5,-.5"/>
<text text-anchor="middle" x="250" y="-7.5" font-family="Helvetica,sans-Serif" font-size="10.00" fill="#000000">SpeciesThermoFactory.cpp</text>
</a>
</g>
</g>
<!-- Node19&#45;&gt;Node21 -->
<g id="edge2" class="edge">
<title>Node19&#45;&gt;Node21</title>
<path fill="none" stroke="#191970" d="M188.5419,-50.49C203.539,-40.6096 222.4973,-28.1194 235.3638,-19.6427"/>
<polygon fill="#191970" stroke="#191970" points="186.2309,-47.8212 179.8059,-56.2455 190.0821,-53.6666 186.2309,-47.8212"/>
</g>
</g>
</svg>
