<?xml version="1.0" encoding="UTF-8" standalone="no"?>
<!DOCTYPE svg PUBLIC "-//W3C//DTD SVG 1.1//EN"
 "http://www.w3.org/Graphics/SVG/1.1/DTD/svg11.dtd">
<!-- Generated by graphviz version 2.43.0 (0)
 -->
<!-- Title: refine.cpp Pages: 1 -->
<!--zoomable 476 -->
<svg id="main" version="1.1" xmlns="http://www.w3.org/2000/svg" xmlns:xlink="http://www.w3.org/1999/xlink" xml:space="preserve" onload="init(evt)">
<style type="text/css"><![CDATA[
.edge:hover path { stroke: red; }
.edge:hover polygon { stroke: red; fill: red; }
]]></style>
<script type="text/javascript"><![CDATA[
var edges = document.getElementsByTagName('g');
if (edges && edges.length) {
  for (var i=0;i<edges.length;i++) {
    if (edges[i].id.substr(0,4)=='edge') {
      edges[i].setAttribute('class','edge');
    }
  }
}
]]></script>
        <defs>
                <circle id="rim" cx="0" cy="0" r="7"/>
                <circle id="rim2" cx="0" cy="0" r="3.5"/>
                <g id="zoomPlus">
                        <use xlink:href="#rim" fill="#404040">
                                <set attributeName="fill" to="#808080" begin="zoomplus.mouseover" end="zoomplus.mouseout"/>
                        </use>
                        <path d="M-4,0h8M0,-4v8" fill="none" stroke="white" stroke-width="1.5" pointer-events="none"/>
                </g>
                <g id="zoomMin">
                        <use xlink:href="#rim" fill="#404040">
                                <set attributeName="fill" to="#808080" begin="zoomminus.mouseover" end="zoomminus.mouseout"/>
                        </use>
                        <path d="M-4,0h8" fill="none" stroke="white" stroke-width="1.5" pointer-events="none"/>
                </g>
                <g id="dirArrow">
                        <path fill="none" stroke="white" stroke-width="1.5" d="M0,-3.0v7 M-2.5,-0.5L0,-3.0L2.5,-0.5"/>
                </g>
               <g id="resetDef">
                       <use xlink:href="#rim2" fill="#404040">
                               <set attributeName="fill" to="#808080" begin="reset.mouseover" end="reset.mouseout"/>
                       </use>
               </g>
        </defs>

<script type="text/javascript">
var viewWidth = 1186;
var viewHeight = 476;
var sectionId = 'dynsection-0';
</script>
<script xlink:href="../../svgpan.js"/>
<svg id="graph" class="graph">
<g id="viewport">
<title>refine.cpp</title>
<polygon fill="white" stroke="transparent" points="-4,4 -4,-472 1181.5,-472 1181.5,4 -4,4"/>
<!-- Node1 -->
<g id="node1" class="node">
<title>Node1</title>
<g id="a_node1"><a xlink:title=" ">
<polygon fill="#bfbfbf" stroke="black" points="839,-448.5 839,-467.5 904,-467.5 904,-448.5 839,-448.5"/>
<text text-anchor="middle" x="871.5" y="-455.5" font-family="Helvetica,sans-Serif" font-size="10.00">refine.cpp</text>
</a>
</g>
</g>
<!-- Node2 -->
<g id="node2" class="node">
<title>Node2</title>
<g id="a_node2"><a xlink:href="../../da/dbc/refine_8h_source.html" target="_top" xlink:title=" ">
<polygon fill="white" stroke="black" points="1055.5,-168.5 1055.5,-187.5 1177.5,-187.5 1177.5,-168.5 1055.5,-168.5"/>
<text text-anchor="middle" x="1116.5" y="-175.5" font-family="Helvetica,sans-Serif" font-size="10.00">cantera/oneD/refine.h</text>
</a>
</g>
</g>
<!-- Node1&#45;&gt;Node2 -->
<g id="edge1" class="edge">
<title>Node1&#45;&gt;Node2</title>
<path fill="none" stroke="midnightblue" d="M904.21,-452.25C982.56,-439.95 1174.5,-404.01 1174.5,-347 1174.5,-347 1174.5,-347 1174.5,-289 1174.5,-252.16 1148.73,-215.57 1131.55,-195.25"/>
<polygon fill="midnightblue" stroke="midnightblue" points="1134.04,-192.79 1124.81,-187.59 1128.79,-197.41 1134.04,-192.79"/>
</g>
<!-- Node12 -->
<g id="node12" class="node">
<title>Node12</title>
<g id="a_node12"><a xlink:href="../../d7/d7c/StFlow_8h.html" target="_top" xlink:title=" ">
<polygon fill="white" stroke="black" points="594.5,-392.5 594.5,-411.5 720.5,-411.5 720.5,-392.5 594.5,-392.5"/>
<text text-anchor="middle" x="657.5" y="-399.5" font-family="Helvetica,sans-Serif" font-size="10.00">cantera/oneD/StFlow.h</text>
</a>
</g>
</g>
<!-- Node1&#45;&gt;Node12 -->
<g id="edge11" class="edge">
<title>Node1&#45;&gt;Node12</title>
<path fill="none" stroke="midnightblue" d="M839,-448.8C802.24,-439.52 742.2,-424.37 701.32,-414.06"/>
<polygon fill="midnightblue" stroke="midnightblue" points="701.92,-410.6 691.37,-411.55 700.21,-417.39 701.92,-410.6"/>
</g>
<!-- Node3 -->
<g id="node3" class="node">
<title>Node3</title>
<g id="a_node3"><a xlink:href="../../d9/ddc/ct__defs_8h.html" target="_top" xlink:title="This file contains definitions of terms that are used in internal routines and are unlikely to need m...">
<polygon fill="white" stroke="black" points="492,-56.5 492,-75.5 619,-75.5 619,-56.5 492,-56.5"/>
<text text-anchor="middle" x="555.5" y="-63.5" font-family="Helvetica,sans-Serif" font-size="10.00">cantera/base/ct_defs.h</text>
</a>
</g>
</g>
<!-- Node2&#45;&gt;Node3 -->
<g id="edge2" class="edge">
<title>Node2&#45;&gt;Node3</title>
<path fill="none" stroke="midnightblue" d="M1089.3,-168.48C1044.93,-154.85 954.05,-128.05 875.5,-112 791.76,-94.89 694.36,-82.21 629.21,-74.74"/>
<polygon fill="midnightblue" stroke="midnightblue" points="629.37,-71.24 619.04,-73.59 628.58,-78.19 629.37,-71.24"/>
</g>
<!-- Node4 -->
<g id="node4" class="node">
<title>Node4</title>
<g id="a_node4"><a xlink:href="../../db/d16/config_8h_source.html" target="_top" xlink:title=" ">
<polygon fill="white" stroke="black" points="567,-0.5 567,-19.5 622,-19.5 622,-0.5 567,-0.5"/>
<text text-anchor="middle" x="594.5" y="-7.5" font-family="Helvetica,sans-Serif" font-size="10.00">config.h</text>
</a>
</g>
</g>
<!-- Node3&#45;&gt;Node4 -->
<g id="edge3" class="edge">
<title>Node3&#45;&gt;Node4</title>
<path fill="none" stroke="midnightblue" d="M561.94,-56.08C567.45,-48.46 575.53,-37.26 582.26,-27.94"/>
<polygon fill="midnightblue" stroke="midnightblue" points="585.16,-29.91 588.18,-19.75 579.49,-25.81 585.16,-29.91"/>
</g>
<!-- Node5 -->
<g id="node5" class="node">
<title>Node5</title>
<g id="a_node5"><a xlink:title=" ">
<polygon fill="white" stroke="#bfbfbf" points="640,-0.5 640,-19.5 687,-19.5 687,-0.5 640,-0.5"/>
<text text-anchor="middle" x="663.5" y="-7.5" font-family="Helvetica,sans-Serif" font-size="10.00">cmath</text>
</a>
</g>
</g>
<!-- Node3&#45;&gt;Node5 -->
<g id="edge4" class="edge">
<title>Node3&#45;&gt;Node5</title>
<path fill="none" stroke="midnightblue" d="M572.85,-56.32C590.17,-47.66 617.02,-34.24 637,-24.25"/>
<polygon fill="midnightblue" stroke="midnightblue" points="638.81,-27.26 646.19,-19.65 635.68,-21 638.81,-27.26"/>
</g>
<!-- Node6 -->
<g id="node6" class="node">
<title>Node6</title>
<g id="a_node6"><a xlink:title=" ">
<polygon fill="white" stroke="#bfbfbf" points="705,-0.5 705,-19.5 754,-19.5 754,-0.5 705,-0.5"/>
<text text-anchor="middle" x="729.5" y="-7.5" font-family="Helvetica,sans-Serif" font-size="10.00">cstdlib</text>
</a>
</g>
</g>
<!-- Node3&#45;&gt;Node6 -->
<g id="edge5" class="edge">
<title>Node3&#45;&gt;Node6</title>
<path fill="none" stroke="midnightblue" d="M583.07,-56.44C613.47,-47.01 662.4,-31.82 695.24,-21.63"/>
<polygon fill="midnightblue" stroke="midnightblue" points="696.36,-24.95 704.87,-18.64 694.28,-18.26 696.36,-24.95"/>
</g>
<!-- Node7 -->
<g id="node7" class="node">
<title>Node7</title>
<g id="a_node7"><a xlink:title=" ">
<polygon fill="white" stroke="#bfbfbf" points="167,-0.5 167,-19.5 214,-19.5 214,-0.5 167,-0.5"/>
<text text-anchor="middle" x="190.5" y="-7.5" font-family="Helvetica,sans-Serif" font-size="10.00">vector</text>
</a>
</g>
</g>
<!-- Node3&#45;&gt;Node7 -->
<g id="edge6" class="edge">
<title>Node3&#45;&gt;Node7</title>
<path fill="none" stroke="midnightblue" d="M497.66,-56.44C420.52,-45.03 286.43,-25.19 224.12,-15.97"/>
<polygon fill="midnightblue" stroke="midnightblue" points="224.46,-12.49 214.05,-14.48 223.43,-19.41 224.46,-12.49"/>
</g>
<!-- Node8 -->
<g id="node8" class="node">
<title>Node8</title>
<g id="a_node8"><a xlink:title=" ">
<polygon fill="white" stroke="#bfbfbf" points="428.5,-0.5 428.5,-19.5 466.5,-19.5 466.5,-0.5 428.5,-0.5"/>
<text text-anchor="middle" x="447.5" y="-7.5" font-family="Helvetica,sans-Serif" font-size="10.00">map</text>
</a>
</g>
</g>
<!-- Node3&#45;&gt;Node8 -->
<g id="edge7" class="edge">
<title>Node3&#45;&gt;Node8</title>
<path fill="none" stroke="midnightblue" d="M538.15,-56.32C520.83,-47.66 493.98,-34.24 474,-24.25"/>
<polygon fill="midnightblue" stroke="midnightblue" points="475.32,-21 464.81,-19.65 472.19,-27.26 475.32,-21"/>
</g>
<!-- Node9 -->
<g id="node9" class="node">
<title>Node9</title>
<g id="a_node9"><a xlink:title=" ">
<polygon fill="white" stroke="#bfbfbf" points="290.5,-0.5 290.5,-19.5 334.5,-19.5 334.5,-0.5 290.5,-0.5"/>
<text text-anchor="middle" x="312.5" y="-7.5" font-family="Helvetica,sans-Serif" font-size="10.00">string</text>
</a>
</g>
</g>
<!-- Node3&#45;&gt;Node9 -->
<g id="edge8" class="edge">
<title>Node3&#45;&gt;Node9</title>
<path fill="none" stroke="midnightblue" d="M510.61,-56.47C469.74,-48.47 407.51,-35.75 344.85,-20.2"/>
<polygon fill="midnightblue" stroke="midnightblue" points="345.35,-16.72 334.8,-17.69 343.65,-23.51 345.35,-16.72"/>
</g>
<!-- Node10 -->
<g id="node10" class="node">
<title>Node10</title>
<g id="a_node10"><a xlink:title=" ">
<polygon fill="white" stroke="#bfbfbf" points="484.5,-0.5 484.5,-19.5 548.5,-19.5 548.5,-0.5 484.5,-0.5"/>
<text text-anchor="middle" x="516.5" y="-7.5" font-family="Helvetica,sans-Serif" font-size="10.00">algorithm</text>
</a>
</g>
</g>
<!-- Node3&#45;&gt;Node10 -->
<g id="edge9" class="edge">
<title>Node3&#45;&gt;Node10</title>
<path fill="none" stroke="midnightblue" d="M549.06,-56.08C543.55,-48.46 535.47,-37.26 528.74,-27.94"/>
<polygon fill="midnightblue" stroke="midnightblue" points="531.51,-25.81 522.82,-19.75 525.84,-29.91 531.51,-25.81"/>
</g>
<!-- Node11 -->
<g id="node11" class="node">
<title>Node11</title>
<g id="a_node11"><a xlink:title=" ">
<polygon fill="white" stroke="#bfbfbf" points="352.5,-0.5 352.5,-19.5 410.5,-19.5 410.5,-0.5 352.5,-0.5"/>
<text text-anchor="middle" x="381.5" y="-7.5" font-family="Helvetica,sans-Serif" font-size="10.00">memory</text>
</a>
</g>
</g>
<!-- Node3&#45;&gt;Node11 -->
<g id="edge10" class="edge">
<title>Node3&#45;&gt;Node11</title>
<path fill="none" stroke="midnightblue" d="M527.93,-56.44C498.4,-47.28 451.38,-32.69 418.62,-22.52"/>
<polygon fill="midnightblue" stroke="midnightblue" points="419.53,-19.14 408.94,-19.52 417.46,-25.82 419.53,-19.14"/>
</g>
<!-- Node13 -->
<g id="node13" class="node">
<title>Node13</title>
<g id="a_node13"><a xlink:href="../../db/dce/Domain1D_8h.html" target="_top" xlink:title=" ">
<polygon fill="white" stroke="black" points="482,-224.5 482,-243.5 559,-243.5 559,-224.5 482,-224.5"/>
<text text-anchor="middle" x="520.5" y="-231.5" font-family="Helvetica,sans-Serif" font-size="10.00">Domain1D.h</text>
</a>
</g>
</g>
<!-- Node12&#45;&gt;Node13 -->
<g id="edge12" class="edge">
<title>Node12&#45;&gt;Node13</title>
<path fill="none" stroke="midnightblue" d="M656.57,-392.35C654.82,-379.24 650.11,-353.97 638.5,-336 613.89,-297.91 570.69,-266.28 543.95,-249.06"/>
<polygon fill="midnightblue" stroke="midnightblue" points="545.56,-245.94 535.23,-243.58 541.84,-251.86 545.56,-245.94"/>
</g>
<!-- Node21 -->
<g id="node19" class="node">
<title>Node21</title>
<g id="a_node19"><a xlink:href="../../df/dd0/Array_8h.html" target="_top" xlink:title="Header file for class Cantera::Array2D.">
<polygon fill="white" stroke="black" points="1002.5,-280.5 1002.5,-299.5 1118.5,-299.5 1118.5,-280.5 1002.5,-280.5"/>
<text text-anchor="middle" x="1060.5" y="-287.5" font-family="Helvetica,sans-Serif" font-size="10.00">cantera/base/Array.h</text>
</a>
</g>
</g>
<!-- Node12&#45;&gt;Node21 -->
<g id="edge25" class="edge">
<title>Node12&#45;&gt;Node21</title>
<path fill="none" stroke="midnightblue" d="M688.79,-392.46C760.88,-372.78 938.67,-324.25 1019.42,-302.21"/>
<polygon fill="midnightblue" stroke="midnightblue" points="1020.51,-305.54 1029.23,-299.53 1018.66,-298.79 1020.51,-305.54"/>
</g>
<!-- Node27 -->
<g id="node25" class="node">
<title>Node27</title>
<g id="a_node25"><a xlink:href="../../de/dbd/IdealGasPhase_8h.html" target="_top" xlink:title="ThermoPhase object for the ideal gas equation of state &#45; workhorse for Cantera (see Thermodynamic Pro...">
<polygon fill="white" stroke="black" points="289.5,-336.5 289.5,-355.5 465.5,-355.5 465.5,-336.5 289.5,-336.5"/>
<text text-anchor="middle" x="377.5" y="-343.5" font-family="Helvetica,sans-Serif" font-size="10.00">cantera/thermo/IdealGasPhase.h</text>
</a>
</g>
</g>
<!-- Node12&#45;&gt;Node27 -->
<g id="edge33" class="edge">
<title>Node12&#45;&gt;Node27</title>
<path fill="none" stroke="midnightblue" d="M613.13,-392.44C563.88,-382.94 484.37,-367.61 431.53,-357.42"/>
<polygon fill="midnightblue" stroke="midnightblue" points="432.14,-353.97 421.66,-355.52 430.82,-360.85 432.14,-353.97"/>
</g>
<!-- Node45 -->
<g id="node29" class="node">
<title>Node45</title>
<g id="a_node29"><a xlink:href="../../d5/db4/Kinetics_8h.html" target="_top" xlink:title="Base class for kinetics managers and also contains the kineticsmgr module documentation (see Kinetics...">
<polygon fill="white" stroke="black" points="483.5,-336.5 483.5,-355.5 629.5,-355.5 629.5,-336.5 483.5,-336.5"/>
<text text-anchor="middle" x="556.5" y="-343.5" font-family="Helvetica,sans-Serif" font-size="10.00">cantera/kinetics/Kinetics.h</text>
</a>
</g>
</g>
<!-- Node12&#45;&gt;Node45 -->
<g id="edge39" class="edge">
<title>Node12&#45;&gt;Node45</title>
<path fill="none" stroke="midnightblue" d="M641.27,-392.32C625.15,-383.7 600.2,-370.36 581.54,-360.39"/>
<polygon fill="midnightblue" stroke="midnightblue" points="583.16,-357.28 572.69,-355.65 579.86,-363.46 583.16,-357.28"/>
</g>
<!-- Node13&#45;&gt;Node2 -->
<g id="edge24" class="edge">
<title>Node13&#45;&gt;Node2</title>
<path fill="none" stroke="midnightblue" d="M559.21,-225.36C562.35,-224.86 565.47,-224.4 568.5,-224 776.44,-196.76 832.8,-209.19 1045.2,-188.07"/>
<polygon fill="midnightblue" stroke="midnightblue" points="1045.84,-191.53 1055.44,-187.04 1045.14,-184.56 1045.84,-191.53"/>
</g>
<!-- Node14 -->
<g id="node14" class="node">
<title>Node14</title>
<g id="a_node14"><a xlink:href="../../dd/dc3/stringUtils_8h.html" target="_top" xlink:title="Contains declarations for string manipulation functions within Cantera.">
<polygon fill="white" stroke="black" points="449.5,-168.5 449.5,-187.5 591.5,-187.5 591.5,-168.5 449.5,-168.5"/>
<text text-anchor="middle" x="520.5" y="-175.5" font-family="Helvetica,sans-Serif" font-size="10.00">cantera/base/stringUtils.h</text>
</a>
</g>
</g>
<!-- Node13&#45;&gt;Node14 -->
<g id="edge13" class="edge">
<title>Node13&#45;&gt;Node14</title>
<path fill="none" stroke="midnightblue" d="M520.5,-224.08C520.5,-217.01 520.5,-206.86 520.5,-197.99"/>
<polygon fill="midnightblue" stroke="midnightblue" points="524,-197.75 520.5,-187.75 517,-197.75 524,-197.75"/>
</g>
<!-- Node18 -->
<g id="node16" class="node">
<title>Node18</title>
<g id="a_node16"><a xlink:href="../../db/d98/ctexceptions_8h.html" target="_top" xlink:title="Definitions for the classes that are thrown when Cantera experiences an error condition (also contain...">
<polygon fill="white" stroke="black" points="277.5,-168.5 277.5,-187.5 431.5,-187.5 431.5,-168.5 277.5,-168.5"/>
<text text-anchor="middle" x="354.5" y="-175.5" font-family="Helvetica,sans-Serif" font-size="10.00">cantera/base/ctexceptions.h</text>
</a>
</g>
</g>
<!-- Node13&#45;&gt;Node18 -->
<g id="edge18" class="edge">
<title>Node13&#45;&gt;Node18</title>
<path fill="none" stroke="midnightblue" d="M494.2,-224.44C466.15,-215.32 421.56,-200.81 390.32,-190.65"/>
<polygon fill="midnightblue" stroke="midnightblue" points="391.27,-187.28 380.68,-187.52 389.11,-193.94 391.27,-187.28"/>
</g>
<!-- Node20 -->
<g id="node18" class="node">
<title>Node20</title>
<g id="a_node18"><a xlink:href="../../d2/d49/global_8h.html" target="_top" xlink:title="This file contains definitions for utility functions and text for modules, inputfiles,...">
<polygon fill="white" stroke="black" points="609.5,-168.5 609.5,-187.5 731.5,-187.5 731.5,-168.5 609.5,-168.5"/>
<text text-anchor="middle" x="670.5" y="-175.5" font-family="Helvetica,sans-Serif" font-size="10.00">cantera/base/global.h</text>
</a>
</g>
</g>
<!-- Node13&#45;&gt;Node20 -->
<g id="edge21" class="edge">
<title>Node13&#45;&gt;Node20</title>
<path fill="none" stroke="midnightblue" d="M544.27,-224.44C569.39,-215.4 609.21,-201.06 637.4,-190.92"/>
<polygon fill="midnightblue" stroke="midnightblue" points="638.62,-194.2 646.84,-187.52 636.25,-187.61 638.62,-194.2"/>
</g>
<!-- Node14&#45;&gt;Node3 -->
<g id="edge14" class="edge">
<title>Node14&#45;&gt;Node3</title>
<path fill="none" stroke="midnightblue" d="M538.89,-168.47C552.6,-161 570.31,-148.71 578.5,-132 586.2,-116.28 577.6,-97.31 568.8,-83.93"/>
<polygon fill="midnightblue" stroke="midnightblue" points="571.55,-81.76 562.88,-75.67 565.86,-85.84 571.55,-81.76"/>
</g>
<!-- Node14&#45;&gt;Node9 -->
<g id="edge17" class="edge">
<title>Node14&#45;&gt;Node9</title>
<path fill="none" stroke="midnightblue" d="M506.1,-168.42C491.87,-159.75 469.64,-145.71 451.5,-132 404.97,-96.84 354.23,-50.41 328.87,-26.58"/>
<polygon fill="midnightblue" stroke="midnightblue" points="331.24,-24 321.56,-19.68 326.43,-29.09 331.24,-24"/>
</g>
<!-- Node15 -->
<g id="node15" class="node">
<title>Node15</title>
<g id="a_node15"><a xlink:href="../../db/def/fmt_8h.html" target="_top" xlink:title="Wrapper for either system&#45;installed or local headers for fmt.">
<polygon fill="white" stroke="red" points="460,-112.5 460,-131.5 569,-131.5 569,-112.5 460,-112.5"/>
<text text-anchor="middle" x="514.5" y="-119.5" font-family="Helvetica,sans-Serif" font-size="10.00">cantera/base/fmt.h</text>
</a>
</g>
</g>
<!-- Node14&#45;&gt;Node15 -->
<g id="edge15" class="edge">
<title>Node14&#45;&gt;Node15</title>
<path fill="none" stroke="midnightblue" d="M519.51,-168.08C518.71,-160.93 517.57,-150.64 516.58,-141.69"/>
<polygon fill="midnightblue" stroke="midnightblue" points="520.06,-141.3 515.47,-131.75 513.1,-142.08 520.06,-141.3"/>
</g>
<!-- Node15&#45;&gt;Node3 -->
<g id="edge16" class="edge">
<title>Node15&#45;&gt;Node3</title>
<path fill="none" stroke="midnightblue" d="M521.27,-112.08C527.06,-104.46 535.56,-93.26 542.64,-83.94"/>
<polygon fill="midnightblue" stroke="midnightblue" points="545.6,-85.83 548.86,-75.75 540.02,-81.6 545.6,-85.83"/>
</g>
<!-- Node18&#45;&gt;Node15 -->
<g id="edge19" class="edge">
<title>Node18&#45;&gt;Node15</title>
<path fill="none" stroke="midnightblue" d="M379.85,-168.44C406.77,-159.36 449.5,-144.94 479.59,-134.78"/>
<polygon fill="midnightblue" stroke="midnightblue" points="480.91,-138.03 489.27,-131.52 478.67,-131.4 480.91,-138.03"/>
</g>
<!-- Node19 -->
<g id="node17" class="node">
<title>Node19</title>
<g id="a_node17"><a xlink:title=" ">
<polygon fill="white" stroke="#bfbfbf" points="322,-112.5 322,-131.5 387,-131.5 387,-112.5 322,-112.5"/>
<text text-anchor="middle" x="354.5" y="-119.5" font-family="Helvetica,sans-Serif" font-size="10.00">exception</text>
</a>
</g>
</g>
<!-- Node18&#45;&gt;Node19 -->
<g id="edge20" class="edge">
<title>Node18&#45;&gt;Node19</title>
<path fill="none" stroke="midnightblue" d="M354.5,-168.08C354.5,-161.01 354.5,-150.86 354.5,-141.99"/>
<polygon fill="midnightblue" stroke="midnightblue" points="358,-141.75 354.5,-131.75 351,-141.75 358,-141.75"/>
</g>
<!-- Node20&#45;&gt;Node3 -->
<g id="edge22" class="edge">
<title>Node20&#45;&gt;Node3</title>
<path fill="none" stroke="midnightblue" d="M661.48,-168.37C642.16,-149.89 596.58,-106.29 571.96,-82.74"/>
<polygon fill="midnightblue" stroke="midnightblue" points="574.13,-79.97 564.48,-75.59 569.29,-85.03 574.13,-79.97"/>
</g>
<!-- Node20&#45;&gt;Node15 -->
<g id="edge23" class="edge">
<title>Node20&#45;&gt;Node15</title>
<path fill="none" stroke="midnightblue" d="M645.78,-168.44C619.65,-159.4 578.24,-145.06 548.92,-134.92"/>
<polygon fill="midnightblue" stroke="midnightblue" points="549.7,-131.48 539.1,-131.52 547.41,-138.1 549.7,-131.48"/>
</g>
<!-- Node22 -->
<g id="node20" class="node">
<title>Node22</title>
<g id="a_node20"><a xlink:href="../../de/df0/utilities_8h.html" target="_top" xlink:title="Various templated functions that carry out common vector operations (see Templated Utility Functions)...">
<polygon fill="white" stroke="black" points="978.5,-224.5 978.5,-243.5 1040.5,-243.5 1040.5,-224.5 978.5,-224.5"/>
<text text-anchor="middle" x="1009.5" y="-231.5" font-family="Helvetica,sans-Serif" font-size="10.00">utilities.h</text>
</a>
</g>
</g>
<!-- Node21&#45;&gt;Node22 -->
<g id="edge26" class="edge">
<title>Node21&#45;&gt;Node22</title>
<path fill="none" stroke="midnightblue" d="M1052.08,-280.08C1044.65,-272.22 1033.65,-260.57 1024.69,-251.08"/>
<polygon fill="midnightblue" stroke="midnightblue" points="1027.18,-248.62 1017.76,-243.75 1022.09,-253.42 1027.18,-248.62"/>
</g>
<!-- Node25 -->
<g id="node23" class="node">
<title>Node25</title>
<g id="a_node23"><a xlink:title=" ">
<polygon fill="white" stroke="#bfbfbf" points="757.5,-168.5 757.5,-187.5 817.5,-187.5 817.5,-168.5 757.5,-168.5"/>
<text text-anchor="middle" x="787.5" y="-175.5" font-family="Helvetica,sans-Serif" font-size="10.00">iostream</text>
</a>
</g>
</g>
<!-- Node21&#45;&gt;Node25 -->
<g id="edge31" class="edge">
<title>Node21&#45;&gt;Node25</title>
<path fill="none" stroke="midnightblue" d="M1077.66,-280.39C1100.26,-267.95 1135.17,-244.24 1117.5,-224 1108.04,-213.17 913.97,-191.99 827.95,-183.09"/>
<polygon fill="midnightblue" stroke="midnightblue" points="828.08,-179.59 817.77,-182.05 827.36,-186.55 828.08,-179.59"/>
</g>
<!-- Node26 -->
<g id="node24" class="node">
<title>Node26</title>
<g id="a_node24"><a xlink:title=" ">
<polygon fill="white" stroke="#bfbfbf" points="1058.5,-224.5 1058.5,-243.5 1108.5,-243.5 1108.5,-224.5 1058.5,-224.5"/>
<text text-anchor="middle" x="1083.5" y="-231.5" font-family="Helvetica,sans-Serif" font-size="10.00">cstring</text>
</a>
</g>
</g>
<!-- Node21&#45;&gt;Node26 -->
<g id="edge32" class="edge">
<title>Node21&#45;&gt;Node26</title>
<path fill="none" stroke="midnightblue" d="M1064.3,-280.08C1067.41,-272.77 1071.92,-262.18 1075.79,-253.1"/>
<polygon fill="midnightblue" stroke="midnightblue" points="1079.07,-254.32 1079.77,-243.75 1072.63,-251.58 1079.07,-254.32"/>
</g>
<!-- Node22&#45;&gt;Node3 -->
<g id="edge27" class="edge">
<title>Node22&#45;&gt;Node3</title>
<path fill="none" stroke="midnightblue" d="M986.05,-224.42C910.86,-196.93 675.65,-110.93 588.45,-79.05"/>
<polygon fill="midnightblue" stroke="midnightblue" points="589.41,-75.67 578.81,-75.52 587,-82.25 589.41,-75.67"/>
</g>
<!-- Node22&#45;&gt;Node20 -->
<g id="edge28" class="edge">
<title>Node22&#45;&gt;Node20</title>
<path fill="none" stroke="midnightblue" d="M978.06,-226.52C973.52,-225.64 968.89,-224.78 964.5,-224 888.55,-210.6 801.15,-197.52 741.51,-188.94"/>
<polygon fill="midnightblue" stroke="midnightblue" points="741.84,-185.46 731.44,-187.5 740.85,-192.39 741.84,-185.46"/>
</g>
<!-- Node23 -->
<g id="node21" class="node">
<title>Node23</title>
<g id="a_node21"><a xlink:title=" ">
<polygon fill="white" stroke="#bfbfbf" points="898,-168.5 898,-187.5 963,-187.5 963,-168.5 898,-168.5"/>
<text text-anchor="middle" x="930.5" y="-175.5" font-family="Helvetica,sans-Serif" font-size="10.00">stdexcept</text>
</a>
</g>
</g>
<!-- Node22&#45;&gt;Node23 -->
<g id="edge29" class="edge">
<title>Node22&#45;&gt;Node23</title>
<path fill="none" stroke="midnightblue" d="M996.81,-224.32C984.6,-215.98 965.92,-203.21 951.5,-193.35"/>
<polygon fill="midnightblue" stroke="midnightblue" points="953.39,-190.41 943.16,-187.65 949.44,-196.19 953.39,-190.41"/>
</g>
<!-- Node24 -->
<g id="node22" class="node">
<title>Node24</title>
<g id="a_node22"><a xlink:title=" ">
<polygon fill="white" stroke="#bfbfbf" points="981.5,-168.5 981.5,-187.5 1037.5,-187.5 1037.5,-168.5 981.5,-168.5"/>
<text text-anchor="middle" x="1009.5" y="-175.5" font-family="Helvetica,sans-Serif" font-size="10.00">numeric</text>
</a>
</g>
</g>
<!-- Node22&#45;&gt;Node24 -->
<g id="edge30" class="edge">
<title>Node22&#45;&gt;Node24</title>
<path fill="none" stroke="midnightblue" d="M1009.5,-224.08C1009.5,-217.01 1009.5,-206.86 1009.5,-197.99"/>
<polygon fill="midnightblue" stroke="midnightblue" points="1013,-197.75 1009.5,-187.75 1006,-197.75 1013,-197.75"/>
</g>
<!-- Node28 -->
<g id="node26" class="node">
<title>Node28</title>
<g id="a_node26"><a xlink:href="../../d7/d01/ThermoPhase_8h.html" target="_top" xlink:title="Header file for class ThermoPhase, the base class for phases with thermodynamic properties,...">
<polygon fill="white" stroke="black" points="331.5,-280.5 331.5,-299.5 423.5,-299.5 423.5,-280.5 331.5,-280.5"/>
<text text-anchor="middle" x="377.5" y="-287.5" font-family="Helvetica,sans-Serif" font-size="10.00">ThermoPhase.h</text>
</a>
</g>
</g>
<!-- Node27&#45;&gt;Node28 -->
<g id="edge34" class="edge">
<title>Node27&#45;&gt;Node28</title>
<path fill="none" stroke="midnightblue" d="M377.5,-336.08C377.5,-329.01 377.5,-318.86 377.5,-309.99"/>
<polygon fill="midnightblue" stroke="midnightblue" points="381,-309.75 377.5,-299.75 374,-309.75 381,-309.75"/>
</g>
<!-- Node28&#45;&gt;Node20 -->
<g id="edge38" class="edge">
<title>Node28&#45;&gt;Node20</title>
<path fill="none" stroke="midnightblue" d="M423.74,-286.62C516.64,-281.35 718.9,-267.32 739.5,-244 756.68,-224.56 726.53,-204.41 700.84,-191.8"/>
<polygon fill="midnightblue" stroke="midnightblue" points="702.21,-188.58 691.67,-187.51 699.24,-194.92 702.21,-188.58"/>
</g>
<!-- Node29 -->
<g id="node27" class="node">
<title>Node29</title>
<g id="a_node27"><a xlink:href="../../da/d84/Phase_8h.html" target="_top" xlink:title="Header file for class Phase.">
<polygon fill="white" stroke="red" points="149,-224.5 149,-243.5 204,-243.5 204,-224.5 149,-224.5"/>
<text text-anchor="middle" x="176.5" y="-231.5" font-family="Helvetica,sans-Serif" font-size="10.00">Phase.h</text>
</a>
</g>
</g>
<!-- Node28&#45;&gt;Node29 -->
<g id="edge35" class="edge">
<title>Node28&#45;&gt;Node29</title>
<path fill="none" stroke="midnightblue" d="M345.65,-280.44C309.93,-270.85 252.06,-255.3 214.13,-245.11"/>
<polygon fill="midnightblue" stroke="midnightblue" points="214.57,-241.6 204,-242.39 212.75,-248.36 214.57,-241.6"/>
</g>
<!-- Node42 -->
<g id="node28" class="node">
<title>Node42</title>
<g id="a_node28"><a xlink:href="../../d6/d7a/MultiSpeciesThermo_8h.html" target="_top" xlink:title="Header for a general species thermodynamic property manager for a phase (see MultiSpeciesThermo).">
<polygon fill="white" stroke="red" points="222,-224.5 222,-243.5 347,-243.5 347,-224.5 222,-224.5"/>
<text text-anchor="middle" x="284.5" y="-231.5" font-family="Helvetica,sans-Serif" font-size="10.00">MultiSpeciesThermo.h</text>
</a>
</g>
</g>
<!-- Node28&#45;&gt;Node42 -->
<g id="edge37" class="edge">
<title>Node28&#45;&gt;Node42</title>
<path fill="none" stroke="midnightblue" d="M362.56,-280.32C347.91,-271.82 325.37,-258.73 308.26,-248.8"/>
<polygon fill="midnightblue" stroke="midnightblue" points="309.81,-245.65 299.4,-243.65 306.3,-251.7 309.81,-245.65"/>
</g>
<!-- Node29&#45;&gt;Node18 -->
<g id="edge36" class="edge">
<title>Node29&#45;&gt;Node18</title>
<path fill="none" stroke="midnightblue" d="M204.31,-224.56C234.44,-215.42 282.7,-200.78 316.36,-190.57"/>
<polygon fill="midnightblue" stroke="midnightblue" points="317.74,-193.81 326.3,-187.56 315.71,-187.11 317.74,-193.81"/>
</g>
<!-- Node45&#45;&gt;Node20 -->
<g id="edge60" class="edge">
<title>Node45&#45;&gt;Node20</title>
<path fill="none" stroke="midnightblue" d="M629.66,-341.79C688.95,-337.26 773.79,-326.33 843.5,-300 886.87,-283.62 909.19,-284.64 931.5,-244 935.78,-236.21 937.23,-230.8 931.5,-224 925.33,-216.68 816.75,-199.84 741.61,-188.97"/>
<polygon fill="midnightblue" stroke="midnightblue" points="742.09,-185.5 731.7,-187.54 741.1,-192.43 742.09,-185.5"/>
</g>
<!-- Node45&#45;&gt;Node28 -->
<g id="edge40" class="edge">
<title>Node45&#45;&gt;Node28</title>
<path fill="none" stroke="midnightblue" d="M528.14,-336.44C497.76,-327.28 449.39,-312.69 415.68,-302.52"/>
<polygon fill="midnightblue" stroke="midnightblue" points="416.32,-299.05 405.73,-299.52 414.29,-305.76 416.32,-299.05"/>
</g>
<!-- Node46 -->
<g id="node30" class="node">
<title>Node46</title>
<g id="a_node30"><a xlink:href="../../dd/dfd/StoichManager_8h.html" target="_top" xlink:title=" ">
<polygon fill="white" stroke="black" points="365.5,-224.5 365.5,-243.5 463.5,-243.5 463.5,-224.5 365.5,-224.5"/>
<text text-anchor="middle" x="414.5" y="-231.5" font-family="Helvetica,sans-Serif" font-size="10.00">StoichManager.h</text>
</a>
</g>
</g>
<!-- Node45&#45;&gt;Node46 -->
<g id="edge41" class="edge">
<title>Node45&#45;&gt;Node46</title>
<path fill="none" stroke="midnightblue" d="M545.36,-336.37C521.2,-317.65 463.75,-273.15 433.65,-249.83"/>
<polygon fill="midnightblue" stroke="midnightblue" points="435.64,-246.95 425.59,-243.59 431.35,-252.48 435.64,-246.95"/>
</g>
<!-- Node47 -->
<g id="node31" class="node">
<title>Node47</title>
<g id="a_node31"><a xlink:href="../../d8/d5d/Reaction_8h.html" target="_top" xlink:title=" ">
<polygon fill="white" stroke="black" points="685,-280.5 685,-299.5 834,-299.5 834,-280.5 685,-280.5"/>
<text text-anchor="middle" x="759.5" y="-287.5" font-family="Helvetica,sans-Serif" font-size="10.00">cantera/kinetics/Reaction.h</text>
</a>
</g>
</g>
<!-- Node45&#45;&gt;Node47 -->
<g id="edge44" class="edge">
<title>Node45&#45;&gt;Node47</title>
<path fill="none" stroke="midnightblue" d="M588.67,-336.44C623.56,-327.16 679.39,-312.31 717.67,-302.13"/>
<polygon fill="midnightblue" stroke="midnightblue" points="718.72,-305.47 727.48,-299.52 716.92,-298.7 718.72,-305.47"/>
</g>
<!-- Node46&#45;&gt;Node14 -->
<g id="edge42" class="edge">
<title>Node46&#45;&gt;Node14</title>
<path fill="none" stroke="midnightblue" d="M431.53,-224.32C448.53,-215.66 474.88,-202.24 494.49,-192.25"/>
<polygon fill="midnightblue" stroke="midnightblue" points="496.19,-195.31 503.51,-187.65 493.01,-189.08 496.19,-195.31"/>
</g>
<!-- Node46&#45;&gt;Node18 -->
<g id="edge43" class="edge">
<title>Node46&#45;&gt;Node18</title>
<path fill="none" stroke="midnightblue" d="M404.86,-224.32C395.99,-216.34 382.63,-204.31 371.89,-194.65"/>
<polygon fill="midnightblue" stroke="midnightblue" points="374.09,-191.92 364.32,-187.83 369.41,-197.13 374.09,-191.92"/>
</g>
<!-- Node47&#45;&gt;Node22 -->
<g id="edge45" class="edge">
<title>Node47&#45;&gt;Node22</title>
<path fill="none" stroke="midnightblue" d="M799.11,-280.44C845.42,-270.44 921.67,-253.97 968.54,-243.85"/>
<polygon fill="midnightblue" stroke="midnightblue" points="969.33,-247.26 978.37,-241.73 967.85,-240.42 969.33,-247.26"/>
</g>
<!-- Node33 -->
<g id="node32" class="node">
<title>Node33</title>
<g id="a_node32"><a xlink:href="../../dd/d2a/AnyMap_8h.html" target="_top" xlink:title=" ">
<polygon fill="white" stroke="red" points="0,-224.5 0,-243.5 131,-243.5 131,-224.5 0,-224.5"/>
<text text-anchor="middle" x="65.5" y="-231.5" font-family="Helvetica,sans-Serif" font-size="10.00">cantera/base/AnyMap.h</text>
</a>
</g>
</g>
<!-- Node47&#45;&gt;Node33 -->
<g id="edge46" class="edge">
<title>Node47&#45;&gt;Node33</title>
<path fill="none" stroke="midnightblue" d="M684.96,-284.76C570.36,-277.99 343.76,-263.57 141.47,-244.15"/>
<polygon fill="midnightblue" stroke="midnightblue" points="141.54,-240.64 131.25,-243.16 140.87,-247.61 141.54,-240.64"/>
</g>
<!-- Node48 -->
<g id="node33" class="node">
<title>Node48</title>
<g id="a_node33"><a xlink:href="../../da/d70/RxnRates_8h.html" target="_top" xlink:title=" ">
<polygon fill="white" stroke="red" points="577,-224.5 577,-243.5 730,-243.5 730,-224.5 577,-224.5"/>
<text text-anchor="middle" x="653.5" y="-231.5" font-family="Helvetica,sans-Serif" font-size="10.00">cantera/kinetics/RxnRates.h</text>
</a>
</g>
</g>
<!-- Node47&#45;&gt;Node48 -->
<g id="edge53" class="edge">
<title>Node47&#45;&gt;Node48</title>
<path fill="none" stroke="midnightblue" d="M742.47,-280.32C725.47,-271.66 699.12,-258.24 679.51,-248.25"/>
<polygon fill="midnightblue" stroke="midnightblue" points="680.99,-245.08 670.49,-243.65 677.81,-251.31 680.99,-245.08"/>
</g>
<!-- Node50 -->
<g id="node34" class="node">
<title>Node50</title>
<g id="a_node34"><a xlink:href="../../de/d72/Falloff_8h_source.html" target="_top" xlink:title=" ">
<polygon fill="white" stroke="red" points="786.5,-224.5 786.5,-243.5 922.5,-243.5 922.5,-224.5 786.5,-224.5"/>
<text text-anchor="middle" x="854.5" y="-231.5" font-family="Helvetica,sans-Serif" font-size="10.00">cantera/kinetics/Falloff.h</text>
</a>
</g>
</g>
<!-- Node47&#45;&gt;Node50 -->
<g id="edge58" class="edge">
<title>Node47&#45;&gt;Node50</title>
<path fill="none" stroke="midnightblue" d="M774.76,-280.32C789.72,-271.82 812.75,-258.73 830.23,-248.8"/>
<polygon fill="midnightblue" stroke="midnightblue" points="832.31,-251.64 839.27,-243.65 828.85,-245.55 832.31,-251.64"/>
</g>
<!-- Node33&#45;&gt;Node3 -->
<g id="edge47" class="edge">
<title>Node33&#45;&gt;Node3</title>
<path fill="none" stroke="midnightblue" d="M106.58,-224.49C136.9,-217.25 178.61,-205.26 212.5,-188 262.56,-162.5 262.08,-134.62 313.5,-112 367.02,-88.45 432.46,-77.22 481.79,-71.87"/>
<polygon fill="midnightblue" stroke="midnightblue" points="482.16,-75.35 491.75,-70.84 481.44,-68.39 482.16,-75.35"/>
</g>
<!-- Node33&#45;&gt;Node7 -->
<g id="edge51" class="edge">
<title>Node33&#45;&gt;Node7</title>
<path fill="none" stroke="midnightblue" d="M66.79,-224.42C71.21,-197.27 87.87,-111.78 129.5,-56 138.91,-43.39 152.83,-32.75 165,-24.98"/>
<polygon fill="midnightblue" stroke="midnightblue" points="167.12,-27.79 173.86,-19.62 163.49,-21.8 167.12,-27.79"/>
</g>
<!-- Node33&#45;&gt;Node9 -->
<g id="edge50" class="edge">
<title>Node33&#45;&gt;Node9</title>
<path fill="none" stroke="midnightblue" d="M70.48,-224.09C88.73,-191.69 152.58,-80.7 184.5,-56 212.75,-34.14 252.44,-22.39 280.11,-16.44"/>
<polygon fill="midnightblue" stroke="midnightblue" points="280.96,-19.84 290.07,-14.44 279.58,-12.98 280.96,-19.84"/>
</g>
<!-- Node33&#45;&gt;Node11 -->
<g id="edge52" class="edge">
<title>Node33&#45;&gt;Node11</title>
<path fill="none" stroke="midnightblue" d="M77.89,-224.3C125.97,-190.52 300.55,-67.87 360.85,-25.51"/>
<polygon fill="midnightblue" stroke="midnightblue" points="363.03,-28.25 369.2,-19.64 359,-22.53 363.03,-28.25"/>
</g>
<!-- Node33&#45;&gt;Node18 -->
<g id="edge49" class="edge">
<title>Node33&#45;&gt;Node18</title>
<path fill="none" stroke="midnightblue" d="M111.29,-224.44C162.24,-214.92 244.53,-199.55 299.07,-189.36"/>
<polygon fill="midnightblue" stroke="midnightblue" points="299.73,-192.79 308.92,-187.52 298.45,-185.91 299.73,-192.79"/>
</g>
<!-- Node33&#45;&gt;Node20 -->
<g id="edge48" class="edge">
<title>Node33&#45;&gt;Node20</title>
<path fill="none" stroke="midnightblue" d="M131.25,-224.85C134.04,-224.56 136.8,-224.27 139.5,-224 340.7,-203.92 394.36,-208.94 599.25,-188.08"/>
<polygon fill="midnightblue" stroke="midnightblue" points="599.85,-191.54 609.44,-187.03 599.13,-184.57 599.85,-191.54"/>
</g>
<!-- Node48&#45;&gt;Node14 -->
<g id="edge55" class="edge">
<title>Node48&#45;&gt;Node14</title>
<path fill="none" stroke="midnightblue" d="M632.43,-224.44C610.44,-215.52 575.77,-201.44 550.84,-191.32"/>
<polygon fill="midnightblue" stroke="midnightblue" points="552.06,-188.04 541.48,-187.52 549.42,-194.52 552.06,-188.04"/>
</g>
<!-- Node48&#45;&gt;Node18 -->
<g id="edge54" class="edge">
<title>Node48&#45;&gt;Node18</title>
<path fill="none" stroke="midnightblue" d="M606.12,-224.44C553.42,-214.92 468.27,-199.55 411.84,-189.36"/>
<polygon fill="midnightblue" stroke="midnightblue" points="412.12,-185.85 401.66,-187.52 410.87,-192.74 412.12,-185.85"/>
</g>
<!-- Node48&#45;&gt;Node20 -->
<g id="edge56" class="edge">
<title>Node48&#45;&gt;Node20</title>
<path fill="none" stroke="midnightblue" d="M656.31,-224.08C658.58,-216.85 661.87,-206.41 664.71,-197.4"/>
<polygon fill="midnightblue" stroke="midnightblue" points="668.08,-198.34 667.75,-187.75 661.4,-196.24 668.08,-198.34"/>
</g>
<!-- Node48&#45;&gt;Node25 -->
<g id="edge57" class="edge">
<title>Node48&#45;&gt;Node25</title>
<path fill="none" stroke="midnightblue" d="M674.73,-224.44C696.88,-215.52 731.82,-201.44 756.94,-191.32"/>
<polygon fill="midnightblue" stroke="midnightblue" points="758.4,-194.5 766.37,-187.52 755.78,-188.01 758.4,-194.5"/>
</g>
<!-- Node50&#45;&gt;Node20 -->
<g id="edge59" class="edge">
<title>Node50&#45;&gt;Node20</title>
<path fill="none" stroke="midnightblue" d="M825.34,-224.44C793.99,-215.24 743.97,-200.56 709.3,-190.39"/>
<polygon fill="midnightblue" stroke="midnightblue" points="710.1,-186.97 699.52,-187.52 708.13,-193.69 710.1,-186.97"/>
</g>
</g>
</svg>
        <g id="navigator" transform="translate(0 0)" fill="#404254">
                <rect fill="#f2f5e9" fill-opacity="0.5" stroke="#606060" stroke-width=".5" x="0" y="0" width="60" height="60"/>
                <use id="zoomplus" xlink:href="#zoomPlus" x="17" y="9" onmousedown="handleZoom(evt,'in')"/>
                <use id="zoomminus" xlink:href="#zoomMin" x="42" y="9" onmousedown="handleZoom(evt,'out')"/>
                <use id="reset" xlink:href="#resetDef" x="30" y="36" onmousedown="handleReset()"/>
                <g id="arrowUp" xlink:href="#dirArrow" transform="translate(30 24)" onmousedown="handlePan(0,-1)">
                  <use xlink:href="#rim" fill="#404040">
                        <set attributeName="fill" to="#808080" begin="arrowUp.mouseover" end="arrowUp.mouseout"/>
                  </use>
                  <path fill="none" stroke="white" stroke-width="1.5" d="M0,-3.0v7 M-2.5,-0.5L0,-3.0L2.5,-0.5"/>
                </g>
                <g id="arrowRight" xlink:href="#dirArrow" transform="rotate(90) translate(36 -43)" onmousedown="handlePan(1,0)">
                  <use xlink:href="#rim" fill="#404040">
                        <set attributeName="fill" to="#808080" begin="arrowRight.mouseover" end="arrowRight.mouseout"/>
                  </use>
                  <path fill="none" stroke="white" stroke-width="1.5" d="M0,-3.0v7 M-2.5,-0.5L0,-3.0L2.5,-0.5"/>
                </g>
                <g id="arrowDown" xlink:href="#dirArrow" transform="rotate(180) translate(-30 -48)" onmousedown="handlePan(0,1)">
                  <use xlink:href="#rim" fill="#404040">
                        <set attributeName="fill" to="#808080" begin="arrowDown.mouseover" end="arrowDown.mouseout"/>
                  </use>
                  <path fill="none" stroke="white" stroke-width="1.5" d="M0,-3.0v7 M-2.5,-0.5L0,-3.0L2.5,-0.5"/>
                </g>
                <g id="arrowLeft" xlink:href="#dirArrow" transform="rotate(270) translate(-36 17)" onmousedown="handlePan(-1,0)">
                  <use xlink:href="#rim" fill="#404040">
                        <set attributeName="fill" to="#808080" begin="arrowLeft.mouseover" end="arrowLeft.mouseout"/>
                  </use>
                  <path fill="none" stroke="white" stroke-width="1.5" d="M0,-3.0v7 M-2.5,-0.5L0,-3.0L2.5,-0.5"/>
                </g>
        </g>
        <svg viewBox="0 0 15 15" width="100%" height="30px" preserveAspectRatio="xMaxYMin meet">
         <g id="arrow_out" transform="scale(0.3 0.3)">
          <a xlink:href="refine_8cpp__incl_org.svg" target="_base">
           <rect id="button" ry="5" rx="5" y="6" x="6" height="38" width="38"
                fill="#f2f5e9" fill-opacity="0.5" stroke="#606060" stroke-width="1.0"/>
           <path id="arrow"
             d="M 11.500037,31.436501 C 11.940474,20.09759 22.043105,11.32322 32.158766,21.979434 L 37.068811,17.246167 C 37.068811,17.246167 37.088388,32 37.088388,32 L 22.160133,31.978069 C 22.160133,31.978069 26.997745,27.140456 26.997745,27.140456 C 18.528582,18.264221 13.291696,25.230495 11.500037,31.436501 z"
             style="fill:#404040;"/>
          </a>
         </g>
        </svg>
</svg>
