<?xml version="1.0" encoding="UTF-8" standalone="no"?>
<!DOCTYPE svg PUBLIC "-//W3C//DTD SVG 1.1//EN"
 "http://www.w3.org/Graphics/SVG/1.1/DTD/svg11.dtd">
<!-- Generated by graphviz version 2.40.1 (20161225.0304)
 -->
<!-- Title: ReactingSurf1D Pages: 1 -->
<svg width="1217pt" height="447pt"
 viewBox="0.00 0.00 1217.00 447.00" xmlns="http://www.w3.org/2000/svg" xmlns:xlink="http://www.w3.org/1999/xlink">
<g id="graph0" class="graph" transform="scale(1 1) rotate(0) translate(4 443)">
<title>ReactingSurf1D</title>
<polygon fill="#ffffff" stroke="transparent" points="-4,4 -4,-443 1213,-443 1213,4 -4,4"/>
<!-- Node3 -->
<g id="node1" class="node">
<title>Node3</title>
<polygon fill="#bfbfbf" stroke="#000000" points="1122,-157.5 1122,-176.5 1209,-176.5 1209,-157.5 1122,-157.5"/>
<text text-anchor="middle" x="1165.5" y="-164.5" font-family="Helvetica,sans-Serif" font-size="10.00" fill="#000000">ReactingSurf1D</text>
</g>
<!-- Node4 -->
<g id="node2" class="node">
<title>Node4</title>
<g id="a_node2"><a xlink:href="../../d5/dd8/classCantera_1_1Bdry1D.html" target="_top" xlink:title="The base class for boundaries between one&#45;dimensional spatial domains. ">
<polygon fill="#ffffff" stroke="#000000" points="1035,-234.5 1035,-253.5 1085,-253.5 1085,-234.5 1035,-234.5"/>
<text text-anchor="middle" x="1060" y="-241.5" font-family="Helvetica,sans-Serif" font-size="10.00" fill="#000000">Bdry1D</text>
</a>
</g>
</g>
<!-- Node4&#45;&gt;Node3 -->
<g id="edge1" class="edge">
<title>Node4&#45;&gt;Node3</title>
<path fill="none" stroke="#191970" d="M1081.4645,-228.334C1102.6802,-212.8495 1134.4676,-189.6492 1152.2468,-176.6729"/>
<polygon fill="#191970" stroke="#191970" points="1079.3757,-225.5254 1073.3616,-234.2479 1083.5025,-231.1796 1079.3757,-225.5254"/>
</g>
<!-- Node5 -->
<g id="node3" class="node">
<title>Node5</title>
<g id="a_node3"><a xlink:href="../../d9/dfd/classCantera_1_1Domain1D.html" target="_top" xlink:title="Base class for one&#45;dimensional domains. ">
<polygon fill="#ffffff" stroke="#000000" points="627.5,-368.5 627.5,-387.5 691.5,-387.5 691.5,-368.5 627.5,-368.5"/>
<text text-anchor="middle" x="659.5" y="-375.5" font-family="Helvetica,sans-Serif" font-size="10.00" fill="#000000">Domain1D</text>
</a>
</g>
</g>
<!-- Node5&#45;&gt;Node4 -->
<g id="edge2" class="edge">
<title>Node5&#45;&gt;Node4</title>
<path fill="none" stroke="#191970" d="M701.5773,-379.3618C737.2992,-379.5697 789.6693,-377.6251 834,-367 920.1485,-346.3521 943.9955,-338.1822 1017,-288 1031.0833,-278.3194 1044.3593,-263.552 1052.3359,-253.8379"/>
<polygon fill="#191970" stroke="#191970" points="701.5496,-375.8614 691.5092,-379.2436 701.4674,-382.8609 701.5496,-375.8614"/>
</g>
<!-- Node5&#45;&gt;Node5 -->
<g id="edge3" class="edge">
<title>Node5&#45;&gt;Node5</title>
<path fill="none" stroke="#9a32cd" stroke-dasharray="5,2" d="M634.2025,-397.0292C635.5824,-402.128 644.0149,-406 659.5,-406 683.6719,-406 690.6591,-396.5653 680.4615,-387.7571"/>
<polygon fill="#9a32cd" stroke="#9a32cd" points="637.4728,-398.2982 638.5385,-387.7571 631.1319,-395.3329 637.4728,-398.2982"/>
<text text-anchor="middle" x="659.5" y="-420" font-family="Helvetica,sans-Serif" font-size="10.00" fill="#000000"> m_left</text>
<text text-anchor="middle" x="659.5" y="-409" font-family="Helvetica,sans-Serif" font-size="10.00" fill="#000000">m_right</text>
</g>
<!-- Node13 -->
<g id="node11" class="node">
<title>Node13</title>
<g id="a_node11"><a xlink:href="../../d9/d1a/classCantera_1_1StFlow.html" target="_top" xlink:title="This class represents 1D flow domains that satisfy the one&#45;dimensional similarity solution for chemic...">
<polygon fill="#ffffff" stroke="#000000" points="873.5,-264.5 873.5,-283.5 920.5,-283.5 920.5,-264.5 873.5,-264.5"/>
<text text-anchor="middle" x="897" y="-271.5" font-family="Helvetica,sans-Serif" font-size="10.00" fill="#000000">StFlow</text>
</a>
</g>
</g>
<!-- Node5&#45;&gt;Node13 -->
<g id="edge14" class="edge">
<title>Node5&#45;&gt;Node13</title>
<path fill="none" stroke="#191970" d="M702.1899,-376.0713C739.1531,-372.7995 792.9776,-364.0837 834,-341 859.325,-326.7494 880.4832,-298.8974 890.5993,-283.9862"/>
<polygon fill="#191970" stroke="#191970" points="701.4606,-372.6177 691.7652,-376.8897 702.0085,-379.5963 701.4606,-372.6177"/>
</g>
<!-- Node6 -->
<g id="node4" class="node">
<title>Node6</title>
<g id="a_node4"><a xlink:href="../../d5/d41/classCantera_1_1OneDim.html" target="_top" xlink:title="Container class for multiple&#45;domain 1D problems. ">
<polygon fill="#ffffff" stroke="#000000" points="410,-368.5 410,-387.5 463,-387.5 463,-368.5 410,-368.5"/>
<text text-anchor="middle" x="436.5" y="-375.5" font-family="Helvetica,sans-Serif" font-size="10.00" fill="#000000">OneDim</text>
</a>
</g>
</g>
<!-- Node6&#45;&gt;Node5 -->
<g id="edge4" class="edge">
<title>Node6&#45;&gt;Node5</title>
<path fill="none" stroke="#9a32cd" stroke-dasharray="5,2" d="M473.4431,-378C516.4273,-378 586.6977,-378 627.4643,-378"/>
<polygon fill="#9a32cd" stroke="#9a32cd" points="473.399,-374.5001 463.399,-378 473.399,-381.5001 473.399,-374.5001"/>
<text text-anchor="middle" x="523" y="-381" font-family="Helvetica,sans-Serif" font-size="10.00" fill="#000000"> m_container</text>
</g>
<!-- Node7 -->
<g id="node5" class="node">
<title>Node7</title>
<g id="a_node5"><a xlink:href="../../d2/d3f/classCantera_1_1Func1.html" target="_top" xlink:title="Base class for &#39;functor&#39; classes that evaluate a function of one variable. ">
<polygon fill="#ffffff" stroke="#000000" points="183,-368.5 183,-387.5 227,-387.5 227,-368.5 183,-368.5"/>
<text text-anchor="middle" x="205" y="-375.5" font-family="Helvetica,sans-Serif" font-size="10.00" fill="#000000">Func1</text>
</a>
</g>
</g>
<!-- Node7&#45;&gt;Node6 -->
<g id="edge5" class="edge">
<title>Node7&#45;&gt;Node6</title>
<path fill="none" stroke="#9a32cd" stroke-dasharray="5,2" d="M237.2319,-378C283.2686,-378 367.0036,-378 409.7851,-378"/>
<polygon fill="#9a32cd" stroke="#9a32cd" points="237.1972,-374.5001 227.1972,-378 237.1972,-381.5001 237.1972,-374.5001"/>
<text text-anchor="middle" x="328" y="-392" font-family="Helvetica,sans-Serif" font-size="10.00" fill="#000000"> m_time_step_callback</text>
<text text-anchor="middle" x="328" y="-381" font-family="Helvetica,sans-Serif" font-size="10.00" fill="#000000">m_interrupt</text>
</g>
<!-- Node7&#45;&gt;Node7 -->
<g id="edge6" class="edge">
<title>Node7&#45;&gt;Node7</title>
<path fill="none" stroke="#9a32cd" stroke-dasharray="5,2" d="M187.5934,-397.4C188.7559,-402.3146 194.5581,-406 205,-406 221.707,-406 226.5364,-396.5653 219.4881,-387.7571"/>
<polygon fill="#9a32cd" stroke="#9a32cd" points="190.965,-398.3422 190.5119,-387.7571 184.2651,-396.3144 190.965,-398.3422"/>
<text text-anchor="middle" x="205" y="-431" font-family="Helvetica,sans-Serif" font-size="10.00" fill="#000000"> m_f1</text>
<text text-anchor="middle" x="205" y="-420" font-family="Helvetica,sans-Serif" font-size="10.00" fill="#000000">m_f2</text>
<text text-anchor="middle" x="205" y="-409" font-family="Helvetica,sans-Serif" font-size="10.00" fill="#000000">m_parent</text>
</g>
<!-- Node8 -->
<g id="node6" class="node">
<title>Node8</title>
<g id="a_node6"><a xlink:href="../../dc/d38/classCantera_1_1ThermoPhase.html" target="_top" xlink:title="Base class for a phase with thermodynamic properties. ">
<polygon fill="#ffffff" stroke="#000000" points="397,-195.5 397,-214.5 476,-214.5 476,-195.5 397,-195.5"/>
<text text-anchor="middle" x="436.5" y="-202.5" font-family="Helvetica,sans-Serif" font-size="10.00" fill="#000000">ThermoPhase</text>
</a>
</g>
</g>
<!-- Node8&#45;&gt;Node4 -->
<g id="edge7" class="edge">
<title>Node8&#45;&gt;Node4</title>
<path fill="none" stroke="#9a32cd" stroke-dasharray="5,2" d="M486.145,-207.1965C561.4065,-210.6227 708.8698,-217.7131 834,-226 907.0503,-230.8378 993.2532,-238.1478 1034.9336,-241.7837"/>
<polygon fill="#9a32cd" stroke="#9a32cd" points="486.1624,-203.6938 476.0143,-206.7376 485.8456,-210.6866 486.1624,-203.6938"/>
<text text-anchor="middle" x="800.5" y="-240" font-family="Helvetica,sans-Serif" font-size="10.00" fill="#000000"> m_phase_left</text>
<text text-anchor="middle" x="800.5" y="-229" font-family="Helvetica,sans-Serif" font-size="10.00" fill="#000000">m_phase_right</text>
</g>
<!-- Node14 -->
<g id="node12" class="node">
<title>Node14</title>
<g id="a_node12"><a xlink:href="../../d2/dfb/classCantera_1_1Transport.html" target="_top" xlink:title="Base class for transport property managers. ">
<polygon fill="#ffffff" stroke="#000000" points="630,-271.5 630,-290.5 689,-290.5 689,-271.5 630,-271.5"/>
<text text-anchor="middle" x="659.5" y="-278.5" font-family="Helvetica,sans-Serif" font-size="10.00" fill="#000000">Transport</text>
</a>
</g>
</g>
<!-- Node8&#45;&gt;Node14 -->
<g id="edge16" class="edge">
<title>Node8&#45;&gt;Node14</title>
<path fill="none" stroke="#9a32cd" stroke-dasharray="5,2" d="M459.8919,-219.9524C470.1036,-226.0742 482.3796,-232.9017 494,-238 539.3994,-257.9184 595.9957,-270.1482 629.8606,-276.2444"/>
<polygon fill="#9a32cd" stroke="#9a32cd" points="461.5254,-216.8483 451.1722,-214.5986 457.8628,-222.8137 461.5254,-216.8483"/>
<text text-anchor="middle" x="523" y="-262" font-family="Helvetica,sans-Serif" font-size="10.00" fill="#000000"> m_thermo</text>
</g>
<!-- Node17 -->
<g id="node15" class="node">
<title>Node17</title>
<g id="a_node15"><a xlink:href="../../d7/dfa/classCantera_1_1IdealGasPhase.html" target="_top" xlink:title="Class IdealGasPhase represents low&#45;density gases that obey the ideal gas equation of state...">
<polygon fill="#ffffff" stroke="#000000" points="617,-233.5 617,-252.5 702,-252.5 702,-233.5 617,-233.5"/>
<text text-anchor="middle" x="659.5" y="-240.5" font-family="Helvetica,sans-Serif" font-size="10.00" fill="#000000">IdealGasPhase</text>
</a>
</g>
</g>
<!-- Node8&#45;&gt;Node17 -->
<g id="edge21" class="edge">
<title>Node8&#45;&gt;Node17</title>
<path fill="none" stroke="#191970" d="M483.4799,-216.8232C487.0313,-217.599 490.5674,-218.3348 494,-219 535.4717,-227.037 583.2636,-233.6909 616.7947,-237.9378"/>
<polygon fill="#191970" stroke="#191970" points="484.0309,-213.3593 473.5039,-214.5562 482.4797,-220.1853 484.0309,-213.3593"/>
</g>
<!-- Node18 -->
<g id="node16" class="node">
<title>Node18</title>
<g id="a_node16"><a xlink:href="../../d2/d95/classCantera_1_1SurfPhase.html" target="_top" xlink:title="A simple thermodynamic model for a surface phase, assuming an ideal solution model. ">
<polygon fill="#ffffff" stroke="#000000" points="628,-157.5 628,-176.5 691,-176.5 691,-157.5 628,-157.5"/>
<text text-anchor="middle" x="659.5" y="-164.5" font-family="Helvetica,sans-Serif" font-size="10.00" fill="#000000">SurfPhase</text>
</a>
</g>
</g>
<!-- Node8&#45;&gt;Node18 -->
<g id="edge23" class="edge">
<title>Node8&#45;&gt;Node18</title>
<path fill="none" stroke="#191970" d="M483.4799,-193.1768C487.0313,-192.401 490.5674,-191.6652 494,-191 540.3172,-182.024 594.5177,-174.7731 627.931,-170.6738"/>
<polygon fill="#191970" stroke="#191970" points="482.4797,-189.8147 473.5039,-195.4438 484.0309,-196.6407 482.4797,-189.8147"/>
</g>
<!-- Node9 -->
<g id="node7" class="node">
<title>Node9</title>
<g id="a_node7"><a xlink:href="../../d6/d0e/classCantera_1_1Phase.html" target="_top" xlink:title="Class Phase is the base class for phases of matter, managing the species and elements in a phase...">
<polygon fill="#ffffff" stroke="#000000" points="182.5,-195.5 182.5,-214.5 227.5,-214.5 227.5,-195.5 182.5,-195.5"/>
<text text-anchor="middle" x="205" y="-202.5" font-family="Helvetica,sans-Serif" font-size="10.00" fill="#000000">Phase</text>
</a>
</g>
</g>
<!-- Node9&#45;&gt;Node8 -->
<g id="edge8" class="edge">
<title>Node9&#45;&gt;Node8</title>
<path fill="none" stroke="#191970" d="M237.817,-205C279.6663,-205 351.9726,-205 396.8569,-205"/>
<polygon fill="#191970" stroke="#191970" points="237.6187,-201.5001 227.6187,-205 237.6187,-208.5001 237.6187,-201.5001"/>
</g>
<!-- Node10 -->
<g id="node8" class="node">
<title>Node10</title>
<g id="a_node8"><a xlink:href="../../d1/d98/classCantera_1_1XML__Node.html" target="_top" xlink:title="Class XML_Node is a tree&#45;based representation of the contents of an XML file. ">
<polygon fill="#ffffff" stroke="#000000" points="2,-195.5 2,-214.5 69,-214.5 69,-195.5 2,-195.5"/>
<text text-anchor="middle" x="35.5" y="-202.5" font-family="Helvetica,sans-Serif" font-size="10.00" fill="#000000">XML_Node</text>
</a>
</g>
</g>
<!-- Node10&#45;&gt;Node9 -->
<g id="edge9" class="edge">
<title>Node10&#45;&gt;Node9</title>
<path fill="none" stroke="#9a32cd" stroke-dasharray="5,2" d="M79.6613,-205C112.5513,-205 156.1183,-205 182.2717,-205"/>
<polygon fill="#9a32cd" stroke="#9a32cd" points="79.3935,-201.5001 69.3935,-205 79.3934,-208.5001 79.3935,-201.5001"/>
<text text-anchor="middle" x="111" y="-208" font-family="Helvetica,sans-Serif" font-size="10.00" fill="#000000"> m_xml</text>
</g>
<!-- Node10&#45;&gt;Node10 -->
<g id="edge10" class="edge">
<title>Node10&#45;&gt;Node10</title>
<path fill="none" stroke="#9a32cd" stroke-dasharray="5,2" d="M21.8725,-224.7663C22.9428,-229.4965 27.4853,-233 35.5,-233 48.6523,-233 52.4542,-223.5653 46.9055,-214.7571"/>
<polygon fill="#9a32cd" stroke="#9a32cd" points="25.344,-225.2779 24.0945,-214.7571 18.5104,-223.7609 25.344,-225.2779"/>
<text text-anchor="middle" x="35.5" y="-247" font-family="Helvetica,sans-Serif" font-size="10.00" fill="#000000"> m_root</text>
<text text-anchor="middle" x="35.5" y="-236" font-family="Helvetica,sans-Serif" font-size="10.00" fill="#000000">m_parent</text>
</g>
<!-- Node11 -->
<g id="node9" class="node">
<title>Node11</title>
<g id="a_node9"><a xlink:href="../../d8/d89/classCantera_1_1ValueCache.html" target="_top" xlink:title="ValueCache">
<polygon fill="#ffffff" stroke="#000000" points="0,-138.5 0,-157.5 71,-157.5 71,-138.5 0,-138.5"/>
<text text-anchor="middle" x="35.5" y="-145.5" font-family="Helvetica,sans-Serif" font-size="10.00" fill="#000000">ValueCache</text>
</a>
</g>
</g>
<!-- Node11&#45;&gt;Node9 -->
<g id="edge11" class="edge">
<title>Node11&#45;&gt;Node9</title>
<path fill="none" stroke="#9a32cd" stroke-dasharray="5,2" d="M73.7492,-160.8626C107.1437,-172.0926 154.4897,-188.0142 182.247,-197.3486"/>
<polygon fill="#9a32cd" stroke="#9a32cd" points="74.4645,-157.4106 63.8705,-157.5405 72.2333,-164.0455 74.4645,-157.4106"/>
<text text-anchor="middle" x="111" y="-183" font-family="Helvetica,sans-Serif" font-size="10.00" fill="#000000"> m_cache</text>
</g>
<!-- Node15 -->
<g id="node13" class="node">
<title>Node15</title>
<g id="a_node13"><a xlink:href="../../d4/dc4/classCantera_1_1Kinetics.html" target="_top" xlink:title="Public interface for kinetics managers. ">
<polygon fill="#ffffff" stroke="#000000" points="633.5,-119.5 633.5,-138.5 685.5,-138.5 685.5,-119.5 633.5,-119.5"/>
<text text-anchor="middle" x="659.5" y="-126.5" font-family="Helvetica,sans-Serif" font-size="10.00" fill="#000000">Kinetics</text>
</a>
</g>
</g>
<!-- Node11&#45;&gt;Node15 -->
<g id="edge18" class="edge">
<title>Node11&#45;&gt;Node15</title>
<path fill="none" stroke="#9a32cd" stroke-dasharray="5,2" d="M81.4849,-146.5998C204.3315,-142.8593 537.3424,-132.7195 633.2983,-129.7978"/>
<polygon fill="#9a32cd" stroke="#9a32cd" points="81.179,-143.1074 71.2902,-146.9102 81.3921,-150.1042 81.179,-143.1074"/>
<text text-anchor="middle" x="328" y="-144" font-family="Helvetica,sans-Serif" font-size="10.00" fill="#000000"> m_cache</text>
</g>
<!-- Node12 -->
<g id="node10" class="node">
<title>Node12</title>
<g id="a_node10"><a xlink:href="../../d5/dda/classCantera_1_1MultiSpeciesThermo.html" target="_top" xlink:title="A species thermodynamic property manager for a phase. ">
<polygon fill="#ffffff" stroke="#000000" points="151,-157.5 151,-176.5 259,-176.5 259,-157.5 151,-157.5"/>
<text text-anchor="middle" x="205" y="-164.5" font-family="Helvetica,sans-Serif" font-size="10.00" fill="#000000">MultiSpeciesThermo</text>
</a>
</g>
</g>
<!-- Node12&#45;&gt;Node8 -->
<g id="edge12" class="edge">
<title>Node12&#45;&gt;Node8</title>
<path fill="none" stroke="#9a32cd" stroke-dasharray="5,2" d="M269.3269,-173.5784C302.282,-177.4345 342.9568,-182.9447 379,-190 386.7959,-191.526 395.1041,-193.4911 402.9111,-195.493"/>
<polygon fill="#9a32cd" stroke="#9a32cd" points="269.6948,-170.0977 259.361,-172.4349 268.8968,-177.0521 269.6948,-170.0977"/>
<text text-anchor="middle" x="328" y="-193" font-family="Helvetica,sans-Serif" font-size="10.00" fill="#000000"> m_spthermo</text>
</g>
<!-- Node13&#45;&gt;Node4 -->
<g id="edge13" class="edge">
<title>Node13&#45;&gt;Node4</title>
<path fill="none" stroke="#9a32cd" stroke-dasharray="5,2" d="M930.624,-267.8115C961.6375,-262.1035 1006.9807,-253.7582 1034.9309,-248.6139"/>
<polygon fill="#9a32cd" stroke="#9a32cd" points="929.9029,-264.3854 920.7016,-269.6377 931.17,-271.2698 929.9029,-264.3854"/>
<text text-anchor="middle" x="988.5" y="-276" font-family="Helvetica,sans-Serif" font-size="10.00" fill="#000000"> m_flow_left</text>
<text text-anchor="middle" x="988.5" y="-265" font-family="Helvetica,sans-Serif" font-size="10.00" fill="#000000">m_flow_right</text>
</g>
<!-- Node14&#45;&gt;Node13 -->
<g id="edge15" class="edge">
<title>Node14&#45;&gt;Node13</title>
<path fill="none" stroke="#9a32cd" stroke-dasharray="5,2" d="M699.1837,-279.8304C748.9913,-278.3624 832.8102,-275.8919 873.4686,-274.6936"/>
<polygon fill="#9a32cd" stroke="#9a32cd" points="698.9918,-276.3344 689.0993,-280.1276 699.1981,-283.3314 698.9918,-276.3344"/>
<text text-anchor="middle" x="800.5" y="-280" font-family="Helvetica,sans-Serif" font-size="10.00" fill="#000000"> m_trans</text>
</g>
<!-- Node15&#45;&gt;Node13 -->
<g id="edge17" class="edge">
<title>Node15&#45;&gt;Node13</title>
<path fill="none" stroke="#9a32cd" stroke-dasharray="5,2" d="M695.6697,-129.7667C733.6404,-132.2945 793.3605,-141.3393 834,-172 866.8986,-196.8205 886.5941,-244.2637 893.83,-264.4874"/>
<polygon fill="#9a32cd" stroke="#9a32cd" points="695.747,-126.2658 685.5707,-129.214 695.3644,-133.2553 695.747,-126.2658"/>
<text text-anchor="middle" x="800.5" y="-175" font-family="Helvetica,sans-Serif" font-size="10.00" fill="#000000"> m_kin</text>
</g>
<!-- Node19 -->
<g id="node17" class="node">
<title>Node19</title>
<g id="a_node17"><a xlink:href="../../d1/d72/classCantera_1_1InterfaceKinetics.html" target="_top" xlink:title="A kinetics manager for heterogeneous reaction mechanisms. ">
<polygon fill="#ffffff" stroke="#000000" points="852,-64.5 852,-83.5 942,-83.5 942,-64.5 852,-64.5"/>
<text text-anchor="middle" x="897" y="-71.5" font-family="Helvetica,sans-Serif" font-size="10.00" fill="#000000">InterfaceKinetics</text>
</a>
</g>
</g>
<!-- Node15&#45;&gt;Node19 -->
<g id="edge25" class="edge">
<title>Node15&#45;&gt;Node19</title>
<path fill="none" stroke="#191970" d="M689.4271,-115.1987C710.6362,-106.015 740.0061,-94.4864 767,-88 794.8103,-81.3174 826.7371,-77.8215 851.9913,-75.9942"/>
<polygon fill="#191970" stroke="#191970" points="687.7418,-112.1167 680.0062,-119.3562 690.5681,-118.5208 687.7418,-112.1167"/>
</g>
<!-- Node16 -->
<g id="node14" class="node">
<title>Node16</title>
<g id="a_node14"><a xlink:href="../../d1/dcf/classCantera_1_1Array2D.html" target="_top" xlink:title="A class for 2D arrays stored in column&#45;major (Fortran&#45;compatible) form. ">
<polygon fill="#ffffff" stroke="#000000" points="633,-309.5 633,-328.5 686,-328.5 686,-309.5 633,-309.5"/>
<text text-anchor="middle" x="659.5" y="-316.5" font-family="Helvetica,sans-Serif" font-size="10.00" fill="#000000">Array2D</text>
</a>
</g>
</g>
<!-- Node16&#45;&gt;Node13 -->
<g id="edge19" class="edge">
<title>Node16&#45;&gt;Node13</title>
<path fill="none" stroke="#9a32cd" stroke-dasharray="5,2" d="M696.355,-314.6555C731.8432,-310.1532 786.9179,-302.3262 834,-292 847.1111,-289.1244 861.5206,-285.0754 873.2459,-281.5457"/>
<polygon fill="#9a32cd" stroke="#9a32cd" points="695.4916,-311.236 686.0008,-315.9452 696.3568,-318.1823 695.4916,-311.236"/>
<text text-anchor="middle" x="800.5" y="-329" font-family="Helvetica,sans-Serif" font-size="10.00" fill="#000000"> m_dthermal</text>
<text text-anchor="middle" x="800.5" y="-318" font-family="Helvetica,sans-Serif" font-size="10.00" fill="#000000">m_wdot</text>
<text text-anchor="middle" x="800.5" y="-307" font-family="Helvetica,sans-Serif" font-size="10.00" fill="#000000">m_flux</text>
</g>
<!-- Node17&#45;&gt;Node13 -->
<g id="edge20" class="edge">
<title>Node17&#45;&gt;Node13</title>
<path fill="none" stroke="#9a32cd" stroke-dasharray="5,2" d="M712.7278,-246.4984C747.4008,-249.192 793.5459,-253.559 834,-260 847.1673,-262.0965 861.7061,-265.269 873.4962,-268.0642"/>
<polygon fill="#9a32cd" stroke="#9a32cd" points="712.5896,-242.9781 702.3546,-245.7157 712.0629,-249.9582 712.5896,-242.9781"/>
<text text-anchor="middle" x="800.5" y="-263" font-family="Helvetica,sans-Serif" font-size="10.00" fill="#000000"> m_thermo</text>
</g>
<!-- Node18&#45;&gt;Node3 -->
<g id="edge22" class="edge">
<title>Node18&#45;&gt;Node3</title>
<path fill="none" stroke="#9a32cd" stroke-dasharray="5,2" d="M701.1902,-167C795.6332,-167 1025.1671,-167 1121.641,-167"/>
<polygon fill="#9a32cd" stroke="#9a32cd" points="701.1526,-163.5001 691.1526,-167 701.1525,-170.5001 701.1526,-163.5001"/>
<text text-anchor="middle" x="988.5" y="-170" font-family="Helvetica,sans-Serif" font-size="10.00" fill="#000000"> m_sphase</text>
</g>
<!-- Node18&#45;&gt;Node19 -->
<g id="edge26" class="edge">
<title>Node18&#45;&gt;Node19</title>
<path fill="none" stroke="#9a32cd" stroke-dasharray="5,2" d="M701.042,-166.1186C717.4676,-163.8773 735.5852,-158.8162 749,-148 764.1763,-135.7636 752.1131,-120.5869 767,-108 779.871,-97.1176 819.6308,-87.6878 851.8236,-81.5379"/>
<polygon fill="#9a32cd" stroke="#9a32cd" points="700.6648,-162.6389 691.0906,-167.1759 701.4045,-169.5997 700.6648,-162.6389"/>
<text text-anchor="middle" x="800.5" y="-111" font-family="Helvetica,sans-Serif" font-size="10.00" fill="#000000"> m_surf</text>
</g>
<!-- Node19&#45;&gt;Node3 -->
<g id="edge24" class="edge">
<title>Node19&#45;&gt;Node3</title>
<path fill="none" stroke="#9a32cd" stroke-dasharray="5,2" d="M934.1006,-86.8505C988.6603,-105.7482 1089.3075,-140.6093 1137.8657,-157.4284"/>
<polygon fill="#9a32cd" stroke="#9a32cd" points="935.0672,-83.4813 924.4724,-83.5156 932.7761,-90.0958 935.0672,-83.4813"/>
<text text-anchor="middle" x="1060" y="-142" font-family="Helvetica,sans-Serif" font-size="10.00" fill="#000000"> m_kin</text>
</g>
<!-- Node20 -->
<g id="node18" class="node">
<title>Node20</title>
<g id="a_node18"><a xlink:href="../../d5/d4e/classCantera_1_1Rate1.html" target="_top" xlink:title="Rate1\&lt; Cantera::SurfaceArrhenius \&gt;">
<polygon fill="#ffffff" stroke="#000000" points="570,-38.5 570,-57.5 749,-57.5 749,-38.5 570,-38.5"/>
<text text-anchor="middle" x="659.5" y="-45.5" font-family="Helvetica,sans-Serif" font-size="10.00" fill="#000000">Rate1&lt; Cantera::SurfaceArrhenius &gt;</text>
</a>
</g>
</g>
<!-- Node20&#45;&gt;Node19 -->
<g id="edge27" class="edge">
<title>Node20&#45;&gt;Node19</title>
<path fill="none" stroke="#9a32cd" stroke-dasharray="5,2" d="M759.4059,-42.2135C783.9719,-42.5322 810.0828,-44.3569 834,-49 849.4791,-52.005 866.0146,-58.7138 878.2597,-64.4257"/>
<polygon fill="#9a32cd" stroke="#9a32cd" points="759.3668,-38.7134 749.3497,-42.1641 759.3323,-45.7133 759.3668,-38.7134"/>
<text text-anchor="middle" x="800.5" y="-52" font-family="Helvetica,sans-Serif" font-size="10.00" fill="#000000"> m_rates</text>
</g>
<!-- Node21 -->
<g id="node19" class="node">
<title>Node21</title>
<g id="a_node19"><a xlink:href="../../d6/d12/classCantera_1_1ImplicitSurfChem.html" target="_top" xlink:title="Advances the surface coverages of the associated set of SurfacePhase objects in time. ">
<polygon fill="#ffffff" stroke="#000000" points="613,-.5 613,-19.5 706,-19.5 706,-.5 613,-.5"/>
<text text-anchor="middle" x="659.5" y="-7.5" font-family="Helvetica,sans-Serif" font-size="10.00" fill="#000000">ImplicitSurfChem</text>
</a>
</g>
</g>
<!-- Node21&#45;&gt;Node19 -->
<g id="edge28" class="edge">
<title>Node21&#45;&gt;Node19</title>
<path fill="none" stroke="#9a32cd" stroke-dasharray="5,2" d="M716.2685,-8.4326C751.2689,-9.2515 796.4793,-13.5879 834,-28 855.2389,-36.1581 875.7336,-53.4193 887.314,-64.3223"/>
<polygon fill="#9a32cd" stroke="#9a32cd" points="716.2692,-4.9323 706.2193,-8.2866 716.1674,-11.9316 716.2692,-4.9323"/>
<text text-anchor="middle" x="800.5" y="-31" font-family="Helvetica,sans-Serif" font-size="10.00" fill="#000000"> m_integrator</text>
</g>
<!-- Node22 -->
<g id="node20" class="node">
<title>Node22</title>
<g id="a_node20"><a xlink:href="../../d1/dd1/classCantera_1_1FuncEval.html" target="_top" xlink:title="Virtual base class for ODE right&#45;hand&#45;side function evaluators. ">
<polygon fill="#ffffff" stroke="#000000" points="407.5,-.5 407.5,-19.5 465.5,-19.5 465.5,-.5 407.5,-.5"/>
<text text-anchor="middle" x="436.5" y="-7.5" font-family="Helvetica,sans-Serif" font-size="10.00" fill="#000000">FuncEval</text>
</a>
</g>
</g>
<!-- Node22&#45;&gt;Node21 -->
<g id="edge29" class="edge">
<title>Node22&#45;&gt;Node21</title>
<path fill="none" stroke="#191970" d="M475.8905,-10C514.1623,-10 572.2829,-10 612.8495,-10"/>
<polygon fill="#191970" stroke="#191970" points="475.6534,-6.5001 465.6534,-10 475.6533,-13.5001 475.6534,-6.5001"/>
</g>
</g>
</svg>
