<?xml version="1.0" encoding="UTF-8" standalone="no"?>
<!DOCTYPE svg PUBLIC "-//W3C//DTD SVG 1.1//EN"
 "http://www.w3.org/Graphics/SVG/1.1/DTD/svg11.dtd">
<!-- Generated by graphviz version 2.40.1 (20161225.0304)
 -->
<!-- Title: MixTransport Pages: 1 -->
<svg width="228pt" height="374pt"
 viewBox="0.00 0.00 227.50 374.00" xmlns="http://www.w3.org/2000/svg" xmlns:xlink="http://www.w3.org/1999/xlink">
<g id="graph0" class="graph" transform="scale(1 1) rotate(0) translate(4 370)">
<title>MixTransport</title>
<polygon fill="#ffffff" stroke="transparent" points="-4,4 -4,-370 223.5,-370 223.5,4 -4,4"/>
<!-- Node5 -->
<g id="node1" class="node">
<title>Node5</title>
<polygon fill="#bfbfbf" stroke="#000000" points="73,-.5 73,-19.5 148,-19.5 148,-.5 73,-.5"/>
<text text-anchor="middle" x="110.5" y="-7.5" font-family="Helvetica,sans-Serif" font-size="10.00" fill="#000000">MixTransport</text>
</g>
<!-- Node6 -->
<g id="node2" class="node">
<title>Node6</title>
<g id="a_node2"><a xlink:href="../../d8/d58/classCantera_1_1GasTransport.html" target="_top" xlink:title="Class GasTransport implements some functions and properties that are shared by the MixTransport and M...">
<polygon fill="#ffffff" stroke="#000000" points="71.5,-57.5 71.5,-76.5 149.5,-76.5 149.5,-57.5 71.5,-57.5"/>
<text text-anchor="middle" x="110.5" y="-64.5" font-family="Helvetica,sans-Serif" font-size="10.00" fill="#000000">GasTransport</text>
</a>
</g>
</g>
<!-- Node6&#45;&gt;Node5 -->
<g id="edge1" class="edge">
<title>Node6&#45;&gt;Node5</title>
<path fill="none" stroke="#191970" d="M110.5,-47.2342C110.5,-37.8491 110.5,-27.0651 110.5,-19.5265"/>
<polygon fill="#191970" stroke="#191970" points="107.0001,-47.3307 110.5,-57.3307 114.0001,-47.3308 107.0001,-47.3307"/>
</g>
<!-- Node7 -->
<g id="node3" class="node">
<title>Node7</title>
<g id="a_node3"><a xlink:href="../../d2/dfb/classCantera_1_1Transport.html" target="_top" xlink:title="Base class for transport property managers. ">
<polygon fill="#ffffff" stroke="#000000" points="40,-212.5 40,-231.5 99,-231.5 99,-212.5 40,-212.5"/>
<text text-anchor="middle" x="69.5" y="-219.5" font-family="Helvetica,sans-Serif" font-size="10.00" fill="#000000">Transport</text>
</a>
</g>
</g>
<!-- Node7&#45;&gt;Node6 -->
<g id="edge2" class="edge">
<title>Node7&#45;&gt;Node6</title>
<path fill="none" stroke="#191970" d="M74.7058,-202.3195C83.581,-168.767 101.3221,-101.697 107.9362,-76.6923"/>
<polygon fill="#191970" stroke="#191970" points="71.2384,-201.7415 72.0647,-212.3041 78.0056,-203.5316 71.2384,-201.7415"/>
</g>
<!-- Node8 -->
<g id="node4" class="node">
<title>Node8</title>
<g id="a_node4"><a xlink:href="../../dc/d38/classCantera_1_1ThermoPhase.html" target="_top" xlink:title="Base class for a phase with thermodynamic properties. ">
<polygon fill="#ffffff" stroke="#000000" points="30,-279.5 30,-298.5 109,-298.5 109,-279.5 30,-279.5"/>
<text text-anchor="middle" x="69.5" y="-286.5" font-family="Helvetica,sans-Serif" font-size="10.00" fill="#000000">ThermoPhase</text>
</a>
</g>
</g>
<!-- Node8&#45;&gt;Node7 -->
<g id="edge3" class="edge">
<title>Node8&#45;&gt;Node7</title>
<path fill="none" stroke="#9a32cd" stroke-dasharray="5,2" d="M69.5,-269.1079C69.5,-256.714 69.5,-241.3263 69.5,-231.5817"/>
<polygon fill="#9a32cd" stroke="#9a32cd" points="66.0001,-269.4005 69.5,-279.4005 73.0001,-269.4006 66.0001,-269.4005"/>
<text text-anchor="middle" x="93.5" y="-253" font-family="Helvetica,sans-Serif" font-size="10.00" fill="#000000"> m_thermo</text>
</g>
<!-- Node9 -->
<g id="node5" class="node">
<title>Node9</title>
<g id="a_node5"><a xlink:href="../../d6/d0e/classCantera_1_1Phase.html" target="_top" xlink:title="Class Phase is the base class for phases of matter, managing the species and elements in a phase...">
<polygon fill="#ffffff" stroke="#ff0000" points="0,-346.5 0,-365.5 45,-365.5 45,-346.5 0,-346.5"/>
<text text-anchor="middle" x="22.5" y="-353.5" font-family="Helvetica,sans-Serif" font-size="10.00" fill="#000000">Phase</text>
</a>
</g>
</g>
<!-- Node9&#45;&gt;Node8 -->
<g id="edge4" class="edge">
<title>Node9&#45;&gt;Node8</title>
<path fill="none" stroke="#191970" d="M35.1407,-337.9803C44.0366,-325.2989 55.594,-308.8235 62.7785,-298.5817"/>
<polygon fill="#191970" stroke="#191970" points="32.1115,-336.2039 29.234,-346.4005 37.8421,-340.2239 32.1115,-336.2039"/>
</g>
<!-- Node12 -->
<g id="node6" class="node">
<title>Node12</title>
<g id="a_node6"><a xlink:href="../../d5/dda/classCantera_1_1MultiSpeciesThermo.html" target="_top" xlink:title="A species thermodynamic property manager for a phase. ">
<polygon fill="#ffffff" stroke="#000000" points="63.5,-346.5 63.5,-365.5 171.5,-365.5 171.5,-346.5 63.5,-346.5"/>
<text text-anchor="middle" x="117.5" y="-353.5" font-family="Helvetica,sans-Serif" font-size="10.00" fill="#000000">MultiSpeciesThermo</text>
</a>
</g>
</g>
<!-- Node12&#45;&gt;Node8 -->
<g id="edge5" class="edge">
<title>Node12&#45;&gt;Node8</title>
<path fill="none" stroke="#9a32cd" stroke-dasharray="5,2" d="M104.5904,-337.9803C95.5052,-325.2989 83.7019,-308.8235 76.3645,-298.5817"/>
<polygon fill="#9a32cd" stroke="#9a32cd" points="101.9537,-340.3097 110.6228,-346.4005 107.6441,-336.233 101.9537,-340.3097"/>
<text text-anchor="middle" x="126" y="-320" font-family="Helvetica,sans-Serif" font-size="10.00" fill="#000000"> m_spthermo</text>
</g>
<!-- Node13 -->
<g id="node7" class="node">
<title>Node13</title>
<g id="a_node7"><a xlink:href="../../dd/d8f/classCantera_1_1DenseMatrix.html" target="_top" xlink:title="A class for full (non&#45;sparse) matrices with Fortran&#45;compatible data storage, which adds matrix operat...">
<polygon fill="#ffffff" stroke="#000000" points="117,-212.5 117,-231.5 190,-231.5 190,-212.5 117,-212.5"/>
<text text-anchor="middle" x="153.5" y="-219.5" font-family="Helvetica,sans-Serif" font-size="10.00" fill="#000000">DenseMatrix</text>
</a>
</g>
</g>
<!-- Node13&#45;&gt;Node6 -->
<g id="edge6" class="edge">
<title>Node13&#45;&gt;Node6</title>
<path fill="none" stroke="#9a32cd" stroke-dasharray="5,2" d="M148.0402,-202.3195C138.7321,-168.767 120.1256,-101.697 113.1888,-76.6923"/>
<polygon fill="#9a32cd" stroke="#9a32cd" points="144.7642,-203.6036 150.8102,-212.3041 151.5095,-201.7323 144.7642,-203.6036"/>
<text text-anchor="middle" x="182.5" y="-186" font-family="Helvetica,sans-Serif" font-size="10.00" fill="#000000"> m_diam</text>
<text text-anchor="middle" x="182.5" y="-175" font-family="Helvetica,sans-Serif" font-size="10.00" fill="#000000">m_delta</text>
<text text-anchor="middle" x="182.5" y="-164" font-family="Helvetica,sans-Serif" font-size="10.00" fill="#000000">m_epsilon</text>
<text text-anchor="middle" x="182.5" y="-153" font-family="Helvetica,sans-Serif" font-size="10.00" fill="#000000">m_bdiff</text>
<text text-anchor="middle" x="182.5" y="-142" font-family="Helvetica,sans-Serif" font-size="10.00" fill="#000000">m_reducedMass</text>
<text text-anchor="middle" x="182.5" y="-131" font-family="Helvetica,sans-Serif" font-size="10.00" fill="#000000">m_phi</text>
<text text-anchor="middle" x="182.5" y="-120" font-family="Helvetica,sans-Serif" font-size="10.00" fill="#000000">m_wratkj1</text>
<text text-anchor="middle" x="182.5" y="-109" font-family="Helvetica,sans-Serif" font-size="10.00" fill="#000000">m_dipole</text>
<text text-anchor="middle" x="182.5" y="-98" font-family="Helvetica,sans-Serif" font-size="10.00" fill="#000000">m_wratjk</text>
</g>
<!-- Node14 -->
<g id="node8" class="node">
<title>Node14</title>
<g id="a_node8"><a xlink:href="../../d1/dcf/classCantera_1_1Array2D.html" target="_top" xlink:title="A class for 2D arrays stored in column&#45;major (Fortran&#45;compatible) form. ">
<polygon fill="#ffffff" stroke="#000000" points="127,-279.5 127,-298.5 180,-298.5 180,-279.5 127,-279.5"/>
<text text-anchor="middle" x="153.5" y="-286.5" font-family="Helvetica,sans-Serif" font-size="10.00" fill="#000000">Array2D</text>
</a>
</g>
</g>
<!-- Node14&#45;&gt;Node13 -->
<g id="edge7" class="edge">
<title>Node14&#45;&gt;Node13</title>
<path fill="none" stroke="#191970" d="M153.5,-269.1079C153.5,-256.714 153.5,-241.3263 153.5,-231.5817"/>
<polygon fill="#191970" stroke="#191970" points="150.0001,-269.4005 153.5,-279.4005 157.0001,-269.4006 150.0001,-269.4005"/>
</g>
</g>
</svg>
