<?xml version="1.0" encoding="UTF-8" standalone="no"?>
<!DOCTYPE svg PUBLIC "-//W3C//DTD SVG 1.1//EN"
 "http://www.w3.org/Graphics/SVG/1.1/DTD/svg11.dtd">
<!-- Generated by graphviz version 2.40.1 (20161225.0304)
 -->
<!-- Title: AnyMap.h Pages: 1 -->
<svg width="929pt" height="252pt"
 viewBox="0.00 0.00 929.00 252.00" xmlns="http://www.w3.org/2000/svg" xmlns:xlink="http://www.w3.org/1999/xlink">
<g id="graph0" class="graph" transform="scale(1 1) rotate(0) translate(4 248)">
<title>AnyMap.h</title>
<polygon fill="#ffffff" stroke="transparent" points="-4,4 -4,-248 925,-248 925,4 -4,4"/>
<!-- Node0 -->
<g id="node1" class="node">
<title>Node0</title>
<polygon fill="#bfbfbf" stroke="#000000" points="547.5,-224.5 547.5,-243.5 608.5,-243.5 608.5,-224.5 547.5,-224.5"/>
<text text-anchor="middle" x="578" y="-231.5" font-family="Helvetica,sans-Serif" font-size="10.00" fill="#000000">AnyMap.h</text>
</g>
<!-- Node1 -->
<g id="node2" class="node">
<title>Node1</title>
<g id="a_node2"><a xlink:href="ct__defs_8h.html" target="_top" xlink:title="This file contains definitions of terms that are used in internal routines and are unlikely to need m...">
<polygon fill="#ffffff" stroke="#000000" points="108,-56.5 108,-75.5 224,-75.5 224,-56.5 108,-56.5"/>
<text text-anchor="middle" x="166" y="-63.5" font-family="Helvetica,sans-Serif" font-size="10.00" fill="#000000">cantera/base/ct_defs.h</text>
</a>
</g>
</g>
<!-- Node0&#45;&gt;Node1 -->
<g id="edge1" class="edge">
<title>Node0&#45;&gt;Node1</title>
<path fill="none" stroke="#191970" d="M547.3032,-233.3191C472.9707,-231.1371 285.7,-222.2923 235,-188 198.7006,-163.4479 179.3257,-113.0624 171.0274,-85.3414"/>
<polygon fill="#191970" stroke="#191970" points="174.3688,-84.2944 168.2947,-75.6137 167.6297,-86.1876 174.3688,-84.2944"/>
</g>
<!-- Node5 -->
<g id="node6" class="node">
<title>Node5</title>
<polygon fill="#ffffff" stroke="#bfbfbf" points="395,-.5 395,-19.5 439,-19.5 439,-.5 395,-.5"/>
<text text-anchor="middle" x="417" y="-7.5" font-family="Helvetica,sans-Serif" font-size="10.00" fill="#000000">vector</text>
</g>
<!-- Node0&#45;&gt;Node5 -->
<g id="edge20" class="edge">
<title>Node0&#45;&gt;Node5</title>
<path fill="none" stroke="#191970" d="M577.5066,-224.1584C575.5314,-194.8415 565.8804,-106.9713 520,-56 501.3663,-35.2987 471.6476,-23.4015 448.9112,-16.9152"/>
<polygon fill="#191970" stroke="#191970" points="449.5831,-13.4727 439.0209,-14.3036 447.7959,-20.2407 449.5831,-13.4727"/>
</g>
<!-- Node7 -->
<g id="node8" class="node">
<title>Node7</title>
<polygon fill="#ffffff" stroke="#bfbfbf" points="493.5,-.5 493.5,-19.5 534.5,-19.5 534.5,-.5 493.5,-.5"/>
<text text-anchor="middle" x="514" y="-7.5" font-family="Helvetica,sans-Serif" font-size="10.00" fill="#000000">string</text>
</g>
<!-- Node0&#45;&gt;Node7 -->
<g id="edge19" class="edge">
<title>Node0&#45;&gt;Node7</title>
<path fill="none" stroke="#191970" d="M578.5867,-224.2079C579.8608,-196.4428 580.8645,-115.3767 554,-56 549.0922,-45.1526 540.7731,-34.9555 532.9887,-26.9321"/>
<polygon fill="#191970" stroke="#191970" points="535.1417,-24.1441 525.5288,-19.6896 530.2657,-29.1666 535.1417,-24.1441"/>
</g>
<!-- Node9 -->
<g id="node10" class="node">
<title>Node9</title>
<polygon fill="#ffffff" stroke="#bfbfbf" points="571,-.5 571,-19.5 623,-19.5 623,-.5 571,-.5"/>
<text text-anchor="middle" x="597" y="-7.5" font-family="Helvetica,sans-Serif" font-size="10.00" fill="#000000">memory</text>
</g>
<!-- Node0&#45;&gt;Node9 -->
<g id="edge21" class="edge">
<title>Node0&#45;&gt;Node9</title>
<path fill="none" stroke="#191970" d="M581.7797,-224.3099C585.1627,-215.1226 589.9026,-200.8525 592,-188 601.2642,-131.2298 599.7031,-62.9534 598.1587,-29.8851"/>
<polygon fill="#191970" stroke="#191970" points="601.6454,-29.5381 597.6309,-19.7333 594.6549,-29.9016 601.6454,-29.5381"/>
</g>
<!-- Node10 -->
<g id="node11" class="node">
<title>Node10</title>
<g id="a_node11"><a xlink:href="global_8h.html" target="_top" xlink:title="This file contains definitions for utility functions and text for modules, inputfiles, logs, textlogs, (see Input File Handling, Diagnostic Output, and Writing messages to the screen). ">
<polygon fill="#ffffff" stroke="#000000" points="244,-168.5 244,-187.5 354,-187.5 354,-168.5 244,-168.5"/>
<text text-anchor="middle" x="299" y="-175.5" font-family="Helvetica,sans-Serif" font-size="10.00" fill="#000000">cantera/base/global.h</text>
</a>
</g>
</g>
<!-- Node0&#45;&gt;Node10 -->
<g id="edge10" class="edge">
<title>Node0&#45;&gt;Node10</title>
<path fill="none" stroke="#191970" d="M547.344,-227.8468C501.5405,-218.6533 414.4431,-201.1714 356.5392,-189.5491"/>
<polygon fill="#191970" stroke="#191970" points="356.9335,-186.0585 346.4403,-187.5221 355.5559,-192.9216 356.9335,-186.0585"/>
</g>
<!-- Node14 -->
<g id="node15" class="node">
<title>Node14</title>
<g id="a_node15"><a xlink:href="ctexceptions_8h.html" target="_top" xlink:title="Definitions for the classes that are thrown when Cantera experiences an error condition (also contain...">
<polygon fill="#ffffff" stroke="#000000" points="372,-168.5 372,-187.5 512,-187.5 512,-168.5 372,-168.5"/>
<text text-anchor="middle" x="442" y="-175.5" font-family="Helvetica,sans-Serif" font-size="10.00" fill="#000000">cantera/base/ctexceptions.h</text>
</a>
</g>
</g>
<!-- Node0&#45;&gt;Node14 -->
<g id="edge16" class="edge">
<title>Node0&#45;&gt;Node14</title>
<path fill="none" stroke="#191970" d="M554.6208,-224.3733C532.4955,-215.2629 499.0866,-201.5062 474.3981,-191.3404"/>
<polygon fill="#191970" stroke="#191970" points="475.6536,-188.0723 465.0742,-187.5011 472.9883,-194.5451 475.6536,-188.0723"/>
</g>
<!-- Node16 -->
<g id="node17" class="node">
<title>Node16</title>
<polygon fill="#ffffff" stroke="#bfbfbf" points="644.5,-168.5 644.5,-187.5 727.5,-187.5 727.5,-168.5 644.5,-168.5"/>
<text text-anchor="middle" x="686" y="-175.5" font-family="Helvetica,sans-Serif" font-size="10.00" fill="#000000">unordered_map</text>
</g>
<!-- Node0&#45;&gt;Node16 -->
<g id="edge22" class="edge">
<title>Node0&#45;&gt;Node16</title>
<path fill="none" stroke="#191970" d="M596.8122,-224.2455C613.8473,-215.4125 639.1575,-202.2887 658.4681,-192.2758"/>
<polygon fill="#191970" stroke="#191970" points="660.137,-195.353 667.4034,-187.6427 656.9147,-189.1388 660.137,-195.353"/>
</g>
<!-- Node17 -->
<g id="node18" class="node">
<title>Node17</title>
<g id="a_node18"><a xlink:href="AnyMap_8inl_8h.html" target="_top" xlink:title="cantera/base/AnyMap.inl.h">
<polygon fill="#ffffff" stroke="#000000" points="745.5,-168.5 745.5,-187.5 878.5,-187.5 878.5,-168.5 745.5,-168.5"/>
<text text-anchor="middle" x="812" y="-175.5" font-family="Helvetica,sans-Serif" font-size="10.00" fill="#000000">cantera/base/AnyMap.inl.h</text>
</a>
</g>
</g>
<!-- Node0&#45;&gt;Node17 -->
<g id="edge23" class="edge">
<title>Node0&#45;&gt;Node17</title>
<path fill="none" stroke="#191970" d="M608.5302,-225.4948C646.2199,-215.9739 710.7452,-200.483 757.0895,-189.7952"/>
<polygon fill="#191970" stroke="#191970" points="758.0165,-193.1735 766.9797,-187.5244 756.45,-186.3511 758.0165,-193.1735"/>
</g>
<!-- Node2 -->
<g id="node3" class="node">
<title>Node2</title>
<g id="a_node3"><a xlink:href="config_8h_source.html" target="_top" xlink:title="config.h">
<polygon fill="#ffffff" stroke="#000000" points="74.5,-.5 74.5,-19.5 125.5,-19.5 125.5,-.5 74.5,-.5"/>
<text text-anchor="middle" x="100" y="-7.5" font-family="Helvetica,sans-Serif" font-size="10.00" fill="#000000">config.h</text>
</a>
</g>
</g>
<!-- Node1&#45;&gt;Node2 -->
<g id="edge2" class="edge">
<title>Node1&#45;&gt;Node2</title>
<path fill="none" stroke="#191970" d="M154.5037,-56.2455C144.7558,-47.9746 130.5741,-35.9416 119.1202,-26.2232"/>
<polygon fill="#191970" stroke="#191970" points="121.2541,-23.4437 111.3646,-19.6427 116.7253,-28.7813 121.2541,-23.4437"/>
</g>
<!-- Node3 -->
<g id="node4" class="node">
<title>Node3</title>
<polygon fill="#ffffff" stroke="#bfbfbf" points="144,-.5 144,-19.5 188,-19.5 188,-.5 144,-.5"/>
<text text-anchor="middle" x="166" y="-7.5" font-family="Helvetica,sans-Serif" font-size="10.00" fill="#000000">cmath</text>
</g>
<!-- Node1&#45;&gt;Node3 -->
<g id="edge3" class="edge">
<title>Node1&#45;&gt;Node3</title>
<path fill="none" stroke="#191970" d="M166,-56.2455C166,-48.9382 166,-38.6944 166,-29.7046"/>
<polygon fill="#191970" stroke="#191970" points="169.5001,-29.6426 166,-19.6427 162.5001,-29.6427 169.5001,-29.6426"/>
</g>
<!-- Node4 -->
<g id="node5" class="node">
<title>Node4</title>
<polygon fill="#ffffff" stroke="#bfbfbf" points="206.5,-.5 206.5,-19.5 251.5,-19.5 251.5,-.5 206.5,-.5"/>
<text text-anchor="middle" x="229" y="-7.5" font-family="Helvetica,sans-Serif" font-size="10.00" fill="#000000">cstdlib</text>
</g>
<!-- Node1&#45;&gt;Node4 -->
<g id="edge4" class="edge">
<title>Node1&#45;&gt;Node4</title>
<path fill="none" stroke="#191970" d="M176.9738,-56.2455C186.1882,-48.0549 199.5532,-36.1749 210.4297,-26.5069"/>
<polygon fill="#191970" stroke="#191970" points="213.0032,-28.9023 218.152,-19.6427 208.3526,-23.6704 213.0032,-28.9023"/>
</g>
<!-- Node1&#45;&gt;Node5 -->
<g id="edge5" class="edge">
<title>Node1&#45;&gt;Node5</title>
<path fill="none" stroke="#191970" d="M208.8632,-56.4369C258.7688,-45.3026 340.058,-27.1663 384.8507,-17.1728"/>
<polygon fill="#191970" stroke="#191970" points="385.887,-20.5277 394.8849,-14.934 384.3627,-13.6956 385.887,-20.5277"/>
</g>
<!-- Node6 -->
<g id="node7" class="node">
<title>Node6</title>
<polygon fill="#ffffff" stroke="#bfbfbf" points="269.5,-.5 269.5,-19.5 304.5,-19.5 304.5,-.5 269.5,-.5"/>
<text text-anchor="middle" x="287" y="-7.5" font-family="Helvetica,sans-Serif" font-size="10.00" fill="#000000">map</text>
</g>
<!-- Node1&#45;&gt;Node6 -->
<g id="edge6" class="edge">
<title>Node1&#45;&gt;Node6</title>
<path fill="none" stroke="#191970" d="M186.8006,-56.3733C207.0483,-47.0024 237.9174,-32.7159 260.0396,-22.4776"/>
<polygon fill="#191970" stroke="#191970" points="261.6181,-25.6037 269.2232,-18.2273 258.678,-19.2511 261.6181,-25.6037"/>
</g>
<!-- Node1&#45;&gt;Node7 -->
<g id="edge7" class="edge">
<title>Node1&#45;&gt;Node7</title>
<path fill="none" stroke="#191970" d="M224.2474,-56.6269C298.748,-44.6383 425.0622,-24.3118 483.1273,-14.968"/>
<polygon fill="#191970" stroke="#191970" points="483.8303,-18.4 493.1472,-13.3556 482.7181,-11.4889 483.8303,-18.4"/>
</g>
<!-- Node8 -->
<g id="node9" class="node">
<title>Node8</title>
<polygon fill="#ffffff" stroke="#bfbfbf" points="0,-.5 0,-19.5 56,-19.5 56,-.5 0,-.5"/>
<text text-anchor="middle" x="28" y="-7.5" font-family="Helvetica,sans-Serif" font-size="10.00" fill="#000000">algorithm</text>
</g>
<!-- Node1&#45;&gt;Node8 -->
<g id="edge8" class="edge">
<title>Node1&#45;&gt;Node8</title>
<path fill="none" stroke="#191970" d="M142.277,-56.3733C119.8263,-47.2629 85.9261,-33.5062 60.8745,-23.3404"/>
<polygon fill="#191970" stroke="#191970" points="61.9957,-20.0182 51.4135,-19.5011 59.3635,-26.5045 61.9957,-20.0182"/>
</g>
<!-- Node1&#45;&gt;Node9 -->
<g id="edge9" class="edge">
<title>Node1&#45;&gt;Node9</title>
<path fill="none" stroke="#191970" d="M224.0883,-57.2119C227.101,-56.7931 230.0853,-56.3866 233,-56 370.4992,-37.76 405.8406,-40.64 543,-20 548.8588,-19.1184 555.055,-18.0755 561.0797,-17.0017"/>
<polygon fill="#191970" stroke="#191970" points="561.7624,-20.4349 570.9669,-15.1882 560.4995,-13.5498 561.7624,-20.4349"/>
</g>
<!-- Node10&#45;&gt;Node1 -->
<g id="edge11" class="edge">
<title>Node10&#45;&gt;Node1</title>
<path fill="none" stroke="#191970" d="M287.6605,-168.4509C264.8888,-149.2747 213.3768,-105.8962 185.2361,-82.1988"/>
<polygon fill="#191970" stroke="#191970" points="187.2144,-79.2891 177.3108,-75.5249 182.7055,-84.6435 187.2144,-79.2891"/>
</g>
<!-- Node11 -->
<g id="node12" class="node">
<title>Node11</title>
<g id="a_node12"><a xlink:href="fmt_8h.html" target="_top" xlink:title="Wrapper for either system&#45;installed or local headers for fmt. ">
<polygon fill="#ffffff" stroke="#000000" points="254,-112.5 254,-131.5 352,-131.5 352,-112.5 254,-112.5"/>
<text text-anchor="middle" x="303" y="-119.5" font-family="Helvetica,sans-Serif" font-size="10.00" fill="#000000">cantera/base/fmt.h</text>
</a>
</g>
</g>
<!-- Node10&#45;&gt;Node11 -->
<g id="edge12" class="edge">
<title>Node10&#45;&gt;Node11</title>
<path fill="none" stroke="#191970" d="M299.6967,-168.2455C300.2187,-160.9382 300.9504,-150.6944 301.5925,-141.7046"/>
<polygon fill="#191970" stroke="#191970" points="305.0898,-141.8667 302.3112,-131.6427 298.1076,-141.3679 305.0898,-141.8667"/>
</g>
<!-- Node11&#45;&gt;Node1 -->
<g id="edge13" class="edge">
<title>Node11&#45;&gt;Node1</title>
<path fill="none" stroke="#191970" d="M279.4489,-112.3733C257.1609,-103.2629 223.5063,-89.5062 198.6363,-79.3404"/>
<polygon fill="#191970" stroke="#191970" points="199.8247,-76.0451 189.2438,-75.5011 197.1761,-82.5247 199.8247,-76.0451"/>
</g>
<!-- Node12 -->
<g id="node13" class="node">
<title>Node12</title>
<polygon fill="#ffffff" stroke="#bfbfbf" points="242,-56.5 242,-75.5 364,-75.5 364,-56.5 242,-56.5"/>
<text text-anchor="middle" x="303" y="-63.5" font-family="Helvetica,sans-Serif" font-size="10.00" fill="#000000">cantera/ext/fmt/format.h</text>
</g>
<!-- Node11&#45;&gt;Node12 -->
<g id="edge14" class="edge">
<title>Node11&#45;&gt;Node12</title>
<path fill="none" stroke="#191970" d="M303,-112.2455C303,-104.9382 303,-94.6944 303,-85.7046"/>
<polygon fill="#191970" stroke="#191970" points="306.5001,-85.6426 303,-75.6427 299.5001,-85.6427 306.5001,-85.6426"/>
</g>
<!-- Node13 -->
<g id="node14" class="node">
<title>Node13</title>
<polygon fill="#ffffff" stroke="#bfbfbf" points="382.5,-56.5 382.5,-75.5 511.5,-75.5 511.5,-56.5 382.5,-56.5"/>
<text text-anchor="middle" x="447" y="-63.5" font-family="Helvetica,sans-Serif" font-size="10.00" fill="#000000">cantera/ext/fmt/ostream.h</text>
</g>
<!-- Node11&#45;&gt;Node13 -->
<g id="edge15" class="edge">
<title>Node11&#45;&gt;Node13</title>
<path fill="none" stroke="#191970" d="M327.7545,-112.3733C351.2849,-103.2226 386.8687,-89.3844 413.0426,-79.2057"/>
<polygon fill="#191970" stroke="#191970" points="414.5171,-82.3877 422.5685,-75.5011 411.9799,-75.8636 414.5171,-82.3877"/>
</g>
<!-- Node14&#45;&gt;Node11 -->
<g id="edge17" class="edge">
<title>Node14&#45;&gt;Node11</title>
<path fill="none" stroke="#191970" d="M418.105,-168.3733C395.4918,-159.2629 361.3458,-145.5062 336.1127,-135.3404"/>
<polygon fill="#191970" stroke="#191970" points="337.1666,-131.9917 326.5831,-131.5011 334.5507,-138.4845 337.1666,-131.9917"/>
</g>
<!-- Node15 -->
<g id="node16" class="node">
<title>Node15</title>
<polygon fill="#ffffff" stroke="#bfbfbf" points="412.5,-112.5 412.5,-131.5 471.5,-131.5 471.5,-112.5 412.5,-112.5"/>
<text text-anchor="middle" x="442" y="-119.5" font-family="Helvetica,sans-Serif" font-size="10.00" fill="#000000">exception</text>
</g>
<!-- Node14&#45;&gt;Node15 -->
<g id="edge18" class="edge">
<title>Node14&#45;&gt;Node15</title>
<path fill="none" stroke="#191970" d="M442,-168.2455C442,-160.9382 442,-150.6944 442,-141.7046"/>
<polygon fill="#191970" stroke="#191970" points="445.5001,-141.6426 442,-131.6427 438.5001,-141.6427 445.5001,-141.6426"/>
</g>
<!-- Node17&#45;&gt;Node0 -->
<g id="edge24" class="edge">
<title>Node17&#45;&gt;Node0</title>
<path fill="none" stroke="#191970" d="M777.2832,-187.5596C734.9499,-198.1919 663.7621,-215.212 618.8438,-225.4278"/>
<polygon fill="#191970" stroke="#191970" points="617.8343,-222.0675 608.8513,-227.6849 619.3767,-228.8955 617.8343,-222.0675"/>
</g>
<!-- Node18 -->
<g id="node19" class="node">
<title>Node18</title>
<polygon fill="#ffffff" stroke="#bfbfbf" points="843,-112.5 843,-131.5 921,-131.5 921,-112.5 843,-112.5"/>
<text text-anchor="middle" x="882" y="-119.5" font-family="Helvetica,sans-Serif" font-size="10.00" fill="#000000">boost/any.hpp</text>
</g>
<!-- Node17&#45;&gt;Node18 -->
<g id="edge25" class="edge">
<title>Node17&#45;&gt;Node18</title>
<path fill="none" stroke="#191970" d="M824.1931,-168.2455C834.6321,-159.8943 849.8655,-147.7076 862.074,-137.9408"/>
<polygon fill="#191970" stroke="#191970" points="864.3244,-140.6227 869.9467,-131.6427 859.9515,-135.1566 864.3244,-140.6227"/>
</g>
<!-- Node19 -->
<g id="node20" class="node">
<title>Node19</title>
<polygon fill="#ffffff" stroke="#bfbfbf" points="695.5,-112.5 695.5,-131.5 824.5,-131.5 824.5,-112.5 695.5,-112.5"/>
<text text-anchor="middle" x="760" y="-119.5" font-family="Helvetica,sans-Serif" font-size="10.00" fill="#000000">boost/algorithm/string.hpp</text>
</g>
<!-- Node17&#45;&gt;Node19 -->
<g id="edge26" class="edge">
<title>Node17&#45;&gt;Node19</title>
<path fill="none" stroke="#191970" d="M802.9423,-168.2455C795.4858,-160.2155 784.7366,-148.6394 775.8583,-139.0781"/>
<polygon fill="#191970" stroke="#191970" points="778.3232,-136.589 768.9539,-131.6427 773.1937,-141.3522 778.3232,-136.589"/>
</g>
</g>
</svg>
