<?xml version="1.0" encoding="UTF-8" standalone="no"?>
<!DOCTYPE svg PUBLIC "-//W3C//DTD SVG 1.1//EN"
 "http://www.w3.org/Graphics/SVG/1.1/DTD/svg11.dtd">
<!-- Generated by graphviz version 2.40.1 (20161225.0304)
 -->
<!-- Title: Transport Pages: 1 -->
<svg width="490pt" height="237pt"
 viewBox="0.00 0.00 490.00 237.00" xmlns="http://www.w3.org/2000/svg" xmlns:xlink="http://www.w3.org/1999/xlink">
<g id="graph0" class="graph" transform="scale(1 1) rotate(0) translate(4 233)">
<title>Transport</title>
<polygon fill="#ffffff" stroke="transparent" points="-4,4 -4,-233 486,-233 486,4 -4,4"/>
<!-- Node0 -->
<g id="node1" class="node">
<title>Node0</title>
<polygon fill="#bfbfbf" stroke="#000000" points="0,-95.5 0,-114.5 58,-114.5 58,-95.5 0,-95.5"/>
<text text-anchor="middle" x="29" y="-102.5" font-family="Helvetica,sans-Serif" font-size="10.00" fill="#000000">Transport</text>
</g>
<!-- Node1 -->
<g id="node2" class="node">
<title>Node1</title>
<g id="a_node2"><a xlink:href="classCantera_1_1DustyGasTransport.html" target="_top" xlink:title="Class DustyGasTransport implements the Dusty Gas model for transport in porous media. ">
<polygon fill="#ffffff" stroke="#000000" points="94,-190.5 94,-209.5 196,-209.5 196,-190.5 94,-190.5"/>
<text text-anchor="middle" x="145" y="-197.5" font-family="Helvetica,sans-Serif" font-size="10.00" fill="#000000">DustyGasTransport</text>
</a>
</g>
</g>
<!-- Node0&#45;&gt;Node1 -->
<g id="edge1" class="edge">
<title>Node0&#45;&gt;Node1</title>
<path fill="none" stroke="#191970" d="M40.4463,-123.0479C52.0787,-140.0894 71.5456,-165.3083 94,-181 99.4214,-184.7886 105.6912,-187.926 111.94,-190.4849"/>
<polygon fill="#191970" stroke="#191970" points="43.2537,-120.9478 34.8207,-114.5341 37.4135,-124.8068 43.2537,-120.9478"/>
</g>
<!-- Node2 -->
<g id="node3" class="node">
<title>Node2</title>
<g id="a_node3"><a xlink:href="classCantera_1_1GasTransport.html" target="_top" xlink:title="Class GasTransport implements some functions and properties that are shared by the MixTransport and M...">
<polygon fill="#ffffff" stroke="#000000" points="107,-152.5 107,-171.5 183,-171.5 183,-152.5 107,-152.5"/>
<text text-anchor="middle" x="145" y="-159.5" font-family="Helvetica,sans-Serif" font-size="10.00" fill="#000000">GasTransport</text>
</a>
</g>
</g>
<!-- Node0&#45;&gt;Node2 -->
<g id="edge2" class="edge">
<title>Node0&#45;&gt;Node2</title>
<path fill="none" stroke="#191970" d="M52.203,-119.8797C64.3745,-127.3443 79.6941,-136.2156 94,-143 101.2567,-146.4414 109.317,-149.6921 116.8472,-152.4994"/>
<polygon fill="#191970" stroke="#191970" points="53.9157,-116.8231 43.5779,-114.5036 50.2129,-122.7636 53.9157,-116.8231"/>
</g>
<!-- Node8 -->
<g id="node9" class="node">
<title>Node8</title>
<g id="a_node9"><a xlink:href="classCantera_1_1LiquidTransport.html" target="_top" xlink:title="Class LiquidTransport implements models for transport properties for liquid phases. ">
<polygon fill="#ffffff" stroke="#000000" points="103.5,-114.5 103.5,-133.5 186.5,-133.5 186.5,-114.5 103.5,-114.5"/>
<text text-anchor="middle" x="145" y="-121.5" font-family="Helvetica,sans-Serif" font-size="10.00" fill="#000000">LiquidTransport</text>
</a>
</g>
</g>
<!-- Node0&#45;&gt;Node8 -->
<g id="edge8" class="edge">
<title>Node0&#45;&gt;Node8</title>
<path fill="none" stroke="#191970" d="M68.3124,-111.4391C79.6337,-113.2934 92.0185,-115.322 103.4694,-117.1976"/>
<polygon fill="#191970" stroke="#191970" points="68.706,-107.957 58.2717,-109.7945 67.5744,-114.865 68.706,-107.957"/>
</g>
<!-- Node9 -->
<g id="node10" class="node">
<title>Node9</title>
<g id="a_node10"><a xlink:href="classCantera_1_1SimpleTransport.html" target="_top" xlink:title="Class SimpleTransport implements mixture&#45;averaged transport properties for liquid phases...">
<polygon fill="#ffffff" stroke="#000000" points="101,-76.5 101,-95.5 189,-95.5 189,-76.5 101,-76.5"/>
<text text-anchor="middle" x="145" y="-83.5" font-family="Helvetica,sans-Serif" font-size="10.00" fill="#000000">SimpleTransport</text>
</a>
</g>
</g>
<!-- Node0&#45;&gt;Node9 -->
<g id="edge9" class="edge">
<title>Node0&#45;&gt;Node9</title>
<path fill="none" stroke="#191970" d="M68.3532,-98.5542C78.7934,-96.8442 90.1356,-94.9864 100.8145,-93.2373"/>
<polygon fill="#191970" stroke="#191970" points="67.5744,-95.135 58.2717,-100.2055 68.706,-102.043 67.5744,-95.135"/>
</g>
<!-- Node10 -->
<g id="node11" class="node">
<title>Node10</title>
<g id="a_node11"><a xlink:href="classCantera_1_1SolidTransport.html" target="_top" xlink:title="Class SolidTransport implements transport properties for solids. ">
<polygon fill="#ffffff" stroke="#000000" points="105,-38.5 105,-57.5 185,-57.5 185,-38.5 105,-38.5"/>
<text text-anchor="middle" x="145" y="-45.5" font-family="Helvetica,sans-Serif" font-size="10.00" fill="#000000">SolidTransport</text>
</a>
</g>
</g>
<!-- Node0&#45;&gt;Node10 -->
<g id="edge10" class="edge">
<title>Node0&#45;&gt;Node10</title>
<path fill="none" stroke="#191970" d="M52.203,-90.1203C64.3745,-82.6557 79.6941,-73.7844 94,-67 101.2567,-63.5586 109.317,-60.3079 116.8472,-57.5006"/>
<polygon fill="#191970" stroke="#191970" points="50.2129,-87.2364 43.5779,-95.4964 53.9157,-93.1769 50.2129,-87.2364"/>
</g>
<!-- Node11 -->
<g id="node12" class="node">
<title>Node11</title>
<g id="a_node12"><a xlink:href="classCantera_1_1WaterTransport.html" target="_top" xlink:title="Transport Parameters for pure water. ">
<polygon fill="#ffffff" stroke="#000000" points="103,-.5 103,-19.5 187,-19.5 187,-.5 103,-.5"/>
<text text-anchor="middle" x="145" y="-7.5" font-family="Helvetica,sans-Serif" font-size="10.00" fill="#000000">WaterTransport</text>
</a>
</g>
</g>
<!-- Node0&#45;&gt;Node11 -->
<g id="edge11" class="edge">
<title>Node0&#45;&gt;Node11</title>
<path fill="none" stroke="#191970" d="M40.4463,-86.9521C52.0787,-69.9106 71.5456,-44.6917 94,-29 99.4214,-25.2114 105.6912,-22.074 111.94,-19.5151"/>
<polygon fill="#191970" stroke="#191970" points="37.4135,-85.1932 34.8207,-95.4659 43.2537,-89.0522 37.4135,-85.1932"/>
</g>
<!-- Node3 -->
<g id="node4" class="node">
<title>Node3</title>
<g id="a_node4"><a xlink:href="classCantera_1_1MixTransport.html" target="_top" xlink:title="Class MixTransport implements mixture&#45;averaged transport properties for ideal gas mixtures...">
<polygon fill="#ffffff" stroke="#000000" points="234.5,-171.5 234.5,-190.5 308.5,-190.5 308.5,-171.5 234.5,-171.5"/>
<text text-anchor="middle" x="271.5" y="-178.5" font-family="Helvetica,sans-Serif" font-size="10.00" fill="#000000">MixTransport</text>
</a>
</g>
</g>
<!-- Node2&#45;&gt;Node3 -->
<g id="edge3" class="edge">
<title>Node2&#45;&gt;Node3</title>
<path fill="none" stroke="#191970" d="M193.4105,-169.2711C206.9377,-171.3029 221.4246,-173.4788 234.202,-175.3979"/>
<polygon fill="#191970" stroke="#191970" points="193.7064,-165.7764 183.2975,-167.7522 192.6666,-172.6988 193.7064,-165.7764"/>
</g>
<!-- Node6 -->
<g id="node7" class="node">
<title>Node6</title>
<g id="a_node7"><a xlink:href="classCantera_1_1MultiTransport.html" target="_top" xlink:title="Class MultiTransport implements multicomponent transport properties for ideal gas mixtures...">
<polygon fill="#ffffff" stroke="#000000" points="232,-133.5 232,-152.5 311,-152.5 311,-133.5 232,-133.5"/>
<text text-anchor="middle" x="271.5" y="-140.5" font-family="Helvetica,sans-Serif" font-size="10.00" fill="#000000">MultiTransport</text>
</a>
</g>
</g>
<!-- Node2&#45;&gt;Node6 -->
<g id="edge6" class="edge">
<title>Node2&#45;&gt;Node6</title>
<path fill="none" stroke="#191970" d="M193.2278,-154.7563C205.8901,-152.8544 219.4051,-150.8245 231.5791,-148.996"/>
<polygon fill="#191970" stroke="#191970" points="192.6666,-151.3012 183.2975,-156.2478 193.7064,-158.2236 192.6666,-151.3012"/>
</g>
<!-- Node4 -->
<g id="node5" class="node">
<title>Node4</title>
<g id="a_node5"><a xlink:href="classCantera_1_1IonGasTransport.html" target="_top" xlink:title="Class IonGasTransport implements Stockmayer&#45;(n,6,4) model for transport of ions. ">
<polygon fill="#ffffff" stroke="#000000" points="370,-209.5 370,-228.5 459,-228.5 459,-209.5 370,-209.5"/>
<text text-anchor="middle" x="414.5" y="-216.5" font-family="Helvetica,sans-Serif" font-size="10.00" fill="#000000">IonGasTransport</text>
</a>
</g>
</g>
<!-- Node3&#45;&gt;Node4 -->
<g id="edge4" class="edge">
<title>Node3&#45;&gt;Node4</title>
<path fill="none" stroke="#191970" d="M317.3133,-193.1742C337.0871,-198.4287 359.8838,-204.4866 378.4266,-209.4141"/>
<polygon fill="#191970" stroke="#191970" points="318.1484,-189.7747 307.5849,-190.589 316.3506,-196.5399 318.1484,-189.7747"/>
</g>
<!-- Node5 -->
<g id="node6" class="node">
<title>Node5</title>
<g id="a_node6"><a xlink:href="classCantera_1_1UnityLewisTransport.html" target="_top" xlink:title="Class UnityLewisTransport implements the unity Lewis number approximation for the mixture&#45;averaged sp...">
<polygon fill="#ffffff" stroke="#000000" points="361,-171.5 361,-190.5 468,-190.5 468,-171.5 361,-171.5"/>
<text text-anchor="middle" x="414.5" y="-178.5" font-family="Helvetica,sans-Serif" font-size="10.00" fill="#000000">UnityLewisTransport</text>
</a>
</g>
</g>
<!-- Node3&#45;&gt;Node5 -->
<g id="edge5" class="edge">
<title>Node3&#45;&gt;Node5</title>
<path fill="none" stroke="#191970" d="M318.7098,-181C332.1835,-181 346.9633,-181 360.7943,-181"/>
<polygon fill="#191970" stroke="#191970" points="318.6983,-177.5001 308.6983,-181 318.6982,-184.5001 318.6983,-177.5001"/>
</g>
<!-- Node7 -->
<g id="node8" class="node">
<title>Node7</title>
<g id="a_node8"><a xlink:href="classCantera_1_1HighPressureGasTransport.html" target="_top" xlink:title="Class MultiTransport implements transport properties for high pressure gas mixtures. ">
<polygon fill="#ffffff" stroke="#000000" points="347,-133.5 347,-152.5 482,-152.5 482,-133.5 347,-133.5"/>
<text text-anchor="middle" x="414.5" y="-140.5" font-family="Helvetica,sans-Serif" font-size="10.00" fill="#000000">HighPressureGasTransport</text>
</a>
</g>
</g>
<!-- Node6&#45;&gt;Node7 -->
<g id="edge7" class="edge">
<title>Node6&#45;&gt;Node7</title>
<path fill="none" stroke="#191970" d="M321.4948,-143C329.7232,-143 338.3706,-143 346.9422,-143"/>
<polygon fill="#191970" stroke="#191970" points="321.3335,-139.5001 311.3335,-143 321.3334,-146.5001 321.3335,-139.5001"/>
</g>
</g>
</svg>
