<?xml version="1.0" encoding="UTF-8" standalone="no"?>
<!DOCTYPE svg PUBLIC "-//W3C//DTD SVG 1.1//EN"
 "http://www.w3.org/Graphics/SVG/1.1/DTD/svg11.dtd">
<!-- Generated by graphviz version 2.40.1 (20161225.0304)
 -->
<!-- Title: ThermoFactory Pages: 1 -->
<svg width="176pt" height="142pt"
 viewBox="0.00 0.00 175.50 142.00" xmlns="http://www.w3.org/2000/svg" xmlns:xlink="http://www.w3.org/1999/xlink">
<g id="graph0" class="graph" transform="scale(1 1) rotate(0) translate(4 138)">
<title>ThermoFactory</title>
<polygon fill="#ffffff" stroke="transparent" points="-4,4 -4,-138 171.5,-138 171.5,4 -4,4"/>
<!-- Node3 -->
<g id="node1" class="node">
<title>Node3</title>
<polygon fill="#bfbfbf" stroke="#000000" points="22.5,-.5 22.5,-19.5 105.5,-19.5 105.5,-.5 22.5,-.5"/>
<text text-anchor="middle" x="64" y="-7.5" font-family="Helvetica,sans-Serif" font-size="10.00" fill="#000000">ThermoFactory</text>
</g>
<!-- Node3&#45;&gt;Node3 -->
<g id="edge3" class="edge">
<title>Node3&#45;&gt;Node3</title>
<path fill="none" stroke="#9a32cd" stroke-dasharray="5,2" d="M115.819,-14.1721C120.5342,-13.3047 123.5,-11.9141 123.5,-10 123.5,-6.9375 115.9076,-5.2148 105.7052,-4.832"/>
<polygon fill="#9a32cd" stroke="#9a32cd" points="115.3141,-10.7048 105.7052,-15.168 116.0001,-17.6711 115.3141,-10.7048"/>
<text text-anchor="middle" x="145.5" y="-7.5" font-family="Helvetica,sans-Serif" font-size="10.00" fill="#000000"> s_factory</text>
</g>
<!-- Node4 -->
<g id="node2" class="node">
<title>Node4</title>
<g id="a_node2"><a xlink:href="classCantera_1_1Factory.html" target="_top" xlink:title="Factory\&lt; ThermoPhase \&gt;">
<polygon fill="#ffffff" stroke="#000000" points="0,-57.5 0,-76.5 128,-76.5 128,-57.5 0,-57.5"/>
<text text-anchor="middle" x="64" y="-64.5" font-family="Helvetica,sans-Serif" font-size="10.00" fill="#000000">Factory&lt; ThermoPhase &gt;</text>
</a>
</g>
</g>
<!-- Node4&#45;&gt;Node3 -->
<g id="edge1" class="edge">
<title>Node4&#45;&gt;Node3</title>
<path fill="none" stroke="#191970" d="M64,-47.2342C64,-37.8491 64,-27.0651 64,-19.5265"/>
<polygon fill="#191970" stroke="#191970" points="60.5001,-47.3307 64,-57.3307 67.5001,-47.3308 60.5001,-47.3307"/>
</g>
<!-- Node5 -->
<g id="node3" class="node">
<title>Node5</title>
<g id="a_node3"><a xlink:href="classCantera_1_1FactoryBase.html" target="_top" xlink:title="Base class for factories. ">
<polygon fill="#ffffff" stroke="#000000" points="28,-114.5 28,-133.5 100,-133.5 100,-114.5 28,-114.5"/>
<text text-anchor="middle" x="64" y="-121.5" font-family="Helvetica,sans-Serif" font-size="10.00" fill="#000000">FactoryBase</text>
</a>
</g>
</g>
<!-- Node5&#45;&gt;Node4 -->
<g id="edge2" class="edge">
<title>Node5&#45;&gt;Node4</title>
<path fill="none" stroke="#191970" d="M64,-104.2342C64,-94.8491 64,-84.0651 64,-76.5265"/>
<polygon fill="#191970" stroke="#191970" points="60.5001,-104.3307 64,-114.3307 67.5001,-104.3308 60.5001,-104.3307"/>
</g>
</g>
</svg>
