<?xml version="1.0" encoding="UTF-8" standalone="no"?>
<!DOCTYPE svg PUBLIC "-//W3C//DTD SVG 1.1//EN"
 "http://www.w3.org/Graphics/SVG/1.1/DTD/svg11.dtd">
<!-- Generated by graphviz version 2.40.1 (20161225.0304)
 -->
<!-- Title: Symm1D Pages: 1 -->
<svg width="461pt" height="481pt"
 viewBox="0.00 0.00 460.72 481.00" xmlns="http://www.w3.org/2000/svg" xmlns:xlink="http://www.w3.org/1999/xlink">
<g id="graph0" class="graph" transform="scale(1 1) rotate(0) translate(4 477)">
<title>Symm1D</title>
<polygon fill="#ffffff" stroke="transparent" points="-4,4 -4,-477 456.7189,-477 456.7189,4 -4,4"/>
<!-- Node3 -->
<g id="node1" class="node">
<title>Node3</title>
<polygon fill="#bfbfbf" stroke="#000000" points="196.7189,-.5 196.7189,-19.5 254.7189,-19.5 254.7189,-.5 196.7189,-.5"/>
<text text-anchor="middle" x="225.7189" y="-7.5" font-family="Helvetica,sans-Serif" font-size="10.00" fill="#000000">Symm1D</text>
</g>
<!-- Node4 -->
<g id="node2" class="node">
<title>Node4</title>
<g id="a_node2"><a xlink:href="classCantera_1_1Bdry1D.html" target="_top" xlink:title="The base class for boundaries between one&#45;dimensional spatial domains. ">
<polygon fill="#ffffff" stroke="#000000" points="200.7189,-57.5 200.7189,-76.5 250.7189,-76.5 250.7189,-57.5 200.7189,-57.5"/>
<text text-anchor="middle" x="225.7189" y="-64.5" font-family="Helvetica,sans-Serif" font-size="10.00" fill="#000000">Bdry1D</text>
</a>
</g>
</g>
<!-- Node4&#45;&gt;Node3 -->
<g id="edge1" class="edge">
<title>Node4&#45;&gt;Node3</title>
<path fill="none" stroke="#191970" d="M225.7189,-47.2342C225.7189,-37.8491 225.7189,-27.0651 225.7189,-19.5265"/>
<polygon fill="#191970" stroke="#191970" points="222.219,-47.3307 225.7189,-57.3307 229.219,-47.3308 222.219,-47.3307"/>
</g>
<!-- Node5 -->
<g id="node3" class="node">
<title>Node5</title>
<g id="a_node3"><a xlink:href="classCantera_1_1Domain1D.html" target="_top" xlink:title="Base class for one&#45;dimensional domains. ">
<polygon fill="#ffffff" stroke="#000000" points="320.2189,-225.5 320.2189,-244.5 383.2189,-244.5 383.2189,-225.5 320.2189,-225.5"/>
<text text-anchor="middle" x="351.7189" y="-232.5" font-family="Helvetica,sans-Serif" font-size="10.00" fill="#000000">Domain1D</text>
</a>
</g>
</g>
<!-- Node5&#45;&gt;Node4 -->
<g id="edge2" class="edge">
<title>Node5&#45;&gt;Node4</title>
<path fill="none" stroke="#191970" d="M347.5951,-215.1549C340.3167,-184.9871 322.364,-127.655 285.7189,-95 275.7637,-86.1288 262.5111,-79.5481 250.9933,-75.0036"/>
<polygon fill="#191970" stroke="#191970" points="344.2641,-216.2942 349.8787,-225.2789 351.0925,-214.7539 344.2641,-216.2942"/>
</g>
<!-- Node5&#45;&gt;Node5 -->
<g id="edge3" class="edge">
<title>Node5&#45;&gt;Node5</title>
<path fill="none" stroke="#9a32cd" stroke-dasharray="5,2" d="M393.8667,-240.3051C398.3438,-239.2773 401.2189,-237.5089 401.2189,-235 401.2189,-230.8828 393.4765,-228.7599 383.617,-228.6312"/>
<polygon fill="#9a32cd" stroke="#9a32cd" points="393.2022,-236.8552 383.617,-241.3688 393.9249,-243.8178 393.2022,-236.8552"/>
<text text-anchor="middle" x="417.7189" y="-238" font-family="Helvetica,sans-Serif" font-size="10.00" fill="#000000"> m_left</text>
<text text-anchor="middle" x="417.7189" y="-227" font-family="Helvetica,sans-Serif" font-size="10.00" fill="#000000">m_right</text>
</g>
<!-- Node13 -->
<g id="node11" class="node">
<title>Node13</title>
<g id="a_node11"><a xlink:href="classCantera_1_1StFlow.html" target="_top" xlink:title="This class represents 1D flow domains that satisfy the one&#45;dimensional similarity solution for chemic...">
<polygon fill="#ffffff" stroke="#000000" points="202.2189,-135.5 202.2189,-154.5 249.2189,-154.5 249.2189,-135.5 202.2189,-135.5"/>
<text text-anchor="middle" x="225.7189" y="-142.5" font-family="Helvetica,sans-Serif" font-size="10.00" fill="#000000">StFlow</text>
</a>
</g>
</g>
<!-- Node5&#45;&gt;Node13 -->
<g id="edge14" class="edge">
<title>Node5&#45;&gt;Node13</title>
<path fill="none" stroke="#191970" d="M341.805,-216.1331C333.7395,-202.4356 321.1792,-184.3811 305.7189,-173 289.0099,-160.6997 266.4381,-153.4549 249.5306,-149.428"/>
<polygon fill="#191970" stroke="#191970" points="338.9269,-218.1576 346.8608,-225.1792 345.0373,-214.7424 338.9269,-218.1576"/>
</g>
<!-- Node6 -->
<g id="node4" class="node">
<title>Node6</title>
<g id="a_node4"><a xlink:href="classCantera_1_1OneDim.html" target="_top" xlink:title="Container class for multiple&#45;domain 1D problems. ">
<polygon fill="#ffffff" stroke="#000000" points="325.2189,-293.5 325.2189,-312.5 378.2189,-312.5 378.2189,-293.5 325.2189,-293.5"/>
<text text-anchor="middle" x="351.7189" y="-300.5" font-family="Helvetica,sans-Serif" font-size="10.00" fill="#000000">OneDim</text>
</a>
</g>
</g>
<!-- Node6&#45;&gt;Node5 -->
<g id="edge4" class="edge">
<title>Node6&#45;&gt;Node5</title>
<path fill="none" stroke="#9a32cd" stroke-dasharray="5,2" d="M351.7189,-283.1951C351.7189,-270.5514 351.7189,-254.7157 351.7189,-244.7247"/>
<polygon fill="#9a32cd" stroke="#9a32cd" points="348.219,-283.2572 351.7189,-293.2573 355.219,-283.2573 348.219,-283.2572"/>
<text text-anchor="middle" x="380.2189" y="-267" font-family="Helvetica,sans-Serif" font-size="10.00" fill="#000000"> m_container</text>
</g>
<!-- Node7 -->
<g id="node5" class="node">
<title>Node7</title>
<g id="a_node5"><a xlink:href="classCantera_1_1Func1.html" target="_top" xlink:title="Base class for &#39;functor&#39; classes that evaluate a function of one variable. ">
<polygon fill="#ffffff" stroke="#000000" points="329.7189,-378 329.7189,-397 373.7189,-397 373.7189,-378 329.7189,-378"/>
<text text-anchor="middle" x="351.7189" y="-385" font-family="Helvetica,sans-Serif" font-size="10.00" fill="#000000">Func1</text>
</a>
</g>
</g>
<!-- Node7&#45;&gt;Node6 -->
<g id="edge5" class="edge">
<title>Node7&#45;&gt;Node6</title>
<path fill="none" stroke="#9a32cd" stroke-dasharray="5,2" d="M351.7189,-367.6221C351.7189,-350.2864 351.7189,-325.8886 351.7189,-312.5802"/>
<polygon fill="#9a32cd" stroke="#9a32cd" points="348.219,-367.8067 351.7189,-377.8068 355.219,-367.8068 348.219,-367.8067"/>
<text text-anchor="middle" x="402.2189" y="-345" font-family="Helvetica,sans-Serif" font-size="10.00" fill="#000000"> m_time_step_callback</text>
<text text-anchor="middle" x="402.2189" y="-334" font-family="Helvetica,sans-Serif" font-size="10.00" fill="#000000">m_interrupt</text>
</g>
<!-- Node7&#45;&gt;Node7 -->
<g id="edge6" class="edge">
<title>Node7&#45;&gt;Node7</title>
<path fill="none" stroke="#9a32cd" stroke-dasharray="5,2" d="M384.1235,-394.2128C388.6722,-393.1177 391.7189,-390.8801 391.7189,-387.5 391.7189,-381.9531 383.5142,-379.483 373.9313,-380.0897"/>
<polygon fill="#9a32cd" stroke="#9a32cd" points="383.6689,-390.7356 373.9313,-394.9103 384.1469,-397.7193 383.6689,-390.7356"/>
<text text-anchor="middle" x="412.2189" y="-396" font-family="Helvetica,sans-Serif" font-size="10.00" fill="#000000"> m_f1</text>
<text text-anchor="middle" x="412.2189" y="-385" font-family="Helvetica,sans-Serif" font-size="10.00" fill="#000000">m_f2</text>
<text text-anchor="middle" x="412.2189" y="-374" font-family="Helvetica,sans-Serif" font-size="10.00" fill="#000000">m_parent</text>
</g>
<!-- Node8 -->
<g id="node6" class="node">
<title>Node8</title>
<g id="a_node6"><a xlink:href="classCantera_1_1ThermoPhase.html" target="_top" xlink:title="Base class for a phase with thermodynamic properties. ">
<polygon fill="#ffffff" stroke="#000000" points="23.2189,-293.5 23.2189,-312.5 100.2189,-312.5 100.2189,-293.5 23.2189,-293.5"/>
<text text-anchor="middle" x="61.7189" y="-300.5" font-family="Helvetica,sans-Serif" font-size="10.00" fill="#000000">ThermoPhase</text>
</a>
</g>
</g>
<!-- Node8&#45;&gt;Node4 -->
<g id="edge7" class="edge">
<title>Node8&#45;&gt;Node4</title>
<path fill="none" stroke="#9a32cd" stroke-dasharray="5,2" d="M44.6329,-285.8778C21.1158,-260.1611 -15.7927,-210.576 7.7189,-173 50.8018,-104.1455 152.8294,-78.863 200.437,-70.5892"/>
<polygon fill="#9a32cd" stroke="#9a32cd" points="42.2863,-288.49 51.7043,-293.3432 47.3684,-283.6762 42.2863,-288.49"/>
<text text-anchor="middle" x="39.7189" y="-192.5" font-family="Helvetica,sans-Serif" font-size="10.00" fill="#000000"> m_phase_left</text>
<text text-anchor="middle" x="39.7189" y="-181.5" font-family="Helvetica,sans-Serif" font-size="10.00" fill="#000000">m_phase_right</text>
</g>
<!-- Node14 -->
<g id="node12" class="node">
<title>Node14</title>
<g id="a_node12"><a xlink:href="classCantera_1_1Transport.html" target="_top" xlink:title="Base class for transport property managers. ">
<polygon fill="#ffffff" stroke="#000000" points="32.7189,-225.5 32.7189,-244.5 90.7189,-244.5 90.7189,-225.5 32.7189,-225.5"/>
<text text-anchor="middle" x="61.7189" y="-232.5" font-family="Helvetica,sans-Serif" font-size="10.00" fill="#000000">Transport</text>
</a>
</g>
</g>
<!-- Node8&#45;&gt;Node14 -->
<g id="edge16" class="edge">
<title>Node8&#45;&gt;Node14</title>
<path fill="none" stroke="#9a32cd" stroke-dasharray="5,2" d="M61.7189,-283.1951C61.7189,-270.5514 61.7189,-254.7157 61.7189,-244.7247"/>
<polygon fill="#9a32cd" stroke="#9a32cd" points="58.219,-283.2572 61.7189,-293.2573 65.219,-283.2573 58.219,-283.2572"/>
<text text-anchor="middle" x="85.2189" y="-267" font-family="Helvetica,sans-Serif" font-size="10.00" fill="#000000"> m_thermo</text>
</g>
<!-- Node17 -->
<g id="node15" class="node">
<title>Node17</title>
<g id="a_node15"><a xlink:href="classCantera_1_1IdealGasPhase.html" target="_top" xlink:title="Class IdealGasPhase represents low&#45;density gases that obey the ideal gas equation of state...">
<polygon fill="#ffffff" stroke="#000000" points="180.2189,-225.5 180.2189,-244.5 263.2189,-244.5 263.2189,-225.5 180.2189,-225.5"/>
<text text-anchor="middle" x="221.7189" y="-232.5" font-family="Helvetica,sans-Serif" font-size="10.00" fill="#000000">IdealGasPhase</text>
</a>
</g>
</g>
<!-- Node8&#45;&gt;Node17 -->
<g id="edge21" class="edge">
<title>Node8&#45;&gt;Node17</title>
<path fill="none" stroke="#191970" d="M93.8665,-289.3373C125.1228,-276.0534 171.7866,-256.2213 199.2491,-244.5497"/>
<polygon fill="#191970" stroke="#191970" points="92.138,-286.2689 84.3036,-293.4015 94.876,-292.7112 92.138,-286.2689"/>
</g>
<!-- Node9 -->
<g id="node7" class="node">
<title>Node9</title>
<g id="a_node7"><a xlink:href="classCantera_1_1Phase.html" target="_top" xlink:title="Class Phase is the base class for phases of matter, managing the species and elements in a phase...">
<polygon fill="#ffffff" stroke="#000000" points="128.7189,-378 128.7189,-397 172.7189,-397 172.7189,-378 128.7189,-378"/>
<text text-anchor="middle" x="150.7189" y="-385" font-family="Helvetica,sans-Serif" font-size="10.00" fill="#000000">Phase</text>
</a>
</g>
</g>
<!-- Node9&#45;&gt;Node8 -->
<g id="edge8" class="edge">
<title>Node9&#45;&gt;Node8</title>
<path fill="none" stroke="#191970" d="M144.9319,-368.3512C140.4853,-356.3483 133.2906,-341.2615 122.7189,-331 114.4411,-322.9651 103.443,-316.9572 93.0666,-312.6103"/>
<polygon fill="#191970" stroke="#191970" points="141.6409,-369.5455 148.148,-377.9066 148.2752,-367.3126 141.6409,-369.5455"/>
</g>
<!-- Node10 -->
<g id="node8" class="node">
<title>Node10</title>
<g id="a_node8"><a xlink:href="classCantera_1_1XML__Node.html" target="_top" xlink:title="Class XML_Node is a tree&#45;based representation of the contents of an XML file. ">
<polygon fill="#ffffff" stroke="#000000" points="114.2189,-452.5 114.2189,-471.5 179.2189,-471.5 179.2189,-452.5 114.2189,-452.5"/>
<text text-anchor="middle" x="146.7189" y="-459.5" font-family="Helvetica,sans-Serif" font-size="10.00" fill="#000000">XML_Node</text>
</a>
</g>
</g>
<!-- Node10&#45;&gt;Node9 -->
<g id="edge9" class="edge">
<title>Node10&#45;&gt;Node9</title>
<path fill="none" stroke="#9a32cd" stroke-dasharray="5,2" d="M147.7823,-442.1946C148.5669,-427.5807 149.6,-408.3396 150.2085,-397.0064"/>
<polygon fill="#9a32cd" stroke="#9a32cd" points="144.2831,-442.0871 147.2418,-452.2604 151.273,-442.4625 144.2831,-442.0871"/>
<text text-anchor="middle" x="166.2189" y="-425" font-family="Helvetica,sans-Serif" font-size="10.00" fill="#000000"> m_xml</text>
</g>
<!-- Node10&#45;&gt;Node10 -->
<g id="edge10" class="edge">
<title>Node10&#45;&gt;Node10</title>
<path fill="none" stroke="#9a32cd" stroke-dasharray="5,2" d="M189.3636,-467.3827C194.1334,-466.3675 197.2189,-464.5732 197.2189,-462 197.2189,-457.8828 189.3201,-455.7599 179.2614,-455.6312"/>
<polygon fill="#9a32cd" stroke="#9a32cd" points="188.874,-463.9138 179.2614,-468.3688 189.5541,-470.8806 188.874,-463.9138"/>
<text text-anchor="middle" x="217.7189" y="-465" font-family="Helvetica,sans-Serif" font-size="10.00" fill="#000000"> m_root</text>
<text text-anchor="middle" x="217.7189" y="-454" font-family="Helvetica,sans-Serif" font-size="10.00" fill="#000000">m_parent</text>
</g>
<!-- Node11 -->
<g id="node9" class="node">
<title>Node11</title>
<g id="a_node9"><a xlink:href="classCantera_1_1ValueCache.html" target="_top" xlink:title="ValueCache">
<polygon fill="#ffffff" stroke="#000000" points="256.7189,-452.5 256.7189,-471.5 326.7189,-471.5 326.7189,-452.5 256.7189,-452.5"/>
<text text-anchor="middle" x="291.7189" y="-459.5" font-family="Helvetica,sans-Serif" font-size="10.00" fill="#000000">ValueCache</text>
</a>
</g>
</g>
<!-- Node11&#45;&gt;Node9 -->
<g id="edge11" class="edge">
<title>Node11&#45;&gt;Node9</title>
<path fill="none" stroke="#9a32cd" stroke-dasharray="5,2" d="M259.2663,-448.4343C248.7548,-443.7991 237.127,-438.4126 226.7189,-433 204.889,-421.6476 180.659,-406.7123 165.5563,-397.1072"/>
<polygon fill="#9a32cd" stroke="#9a32cd" points="257.9721,-451.688 268.5388,-452.4593 260.7593,-445.2669 257.9721,-451.688"/>
<text text-anchor="middle" x="248.2189" y="-425" font-family="Helvetica,sans-Serif" font-size="10.00" fill="#000000"> m_cache</text>
</g>
<!-- Node15 -->
<g id="node13" class="node">
<title>Node15</title>
<g id="a_node13"><a xlink:href="classCantera_1_1Kinetics.html" target="_top" xlink:title="Public interface for kinetics managers. ">
<polygon fill="#ffffff" stroke="#000000" points="265.7189,-332.5 265.7189,-351.5 317.7189,-351.5 317.7189,-332.5 265.7189,-332.5"/>
<text text-anchor="middle" x="291.7189" y="-339.5" font-family="Helvetica,sans-Serif" font-size="10.00" fill="#000000">Kinetics</text>
</a>
</g>
</g>
<!-- Node11&#45;&gt;Node15 -->
<g id="edge18" class="edge">
<title>Node11&#45;&gt;Node15</title>
<path fill="none" stroke="#9a32cd" stroke-dasharray="5,2" d="M291.7189,-441.9353C291.7189,-415.8005 291.7189,-371.1494 291.7189,-351.6204"/>
<polygon fill="#9a32cd" stroke="#9a32cd" points="288.219,-442.1799 291.7189,-452.1799 295.219,-442.1799 288.219,-442.1799"/>
<text text-anchor="middle" x="313.2189" y="-425" font-family="Helvetica,sans-Serif" font-size="10.00" fill="#000000"> m_cache</text>
</g>
<!-- Node12 -->
<g id="node10" class="node">
<title>Node12</title>
<g id="a_node10"><a xlink:href="classCantera_1_1MultiSpeciesThermo.html" target="_top" xlink:title="A species thermodynamic property manager for a phase. ">
<polygon fill="#ffffff" stroke="#000000" points="4.7189,-378 4.7189,-397 110.7189,-397 110.7189,-378 4.7189,-378"/>
<text text-anchor="middle" x="57.7189" y="-385" font-family="Helvetica,sans-Serif" font-size="10.00" fill="#000000">MultiSpeciesThermo</text>
</a>
</g>
</g>
<!-- Node12&#45;&gt;Node8 -->
<g id="edge12" class="edge">
<title>Node12&#45;&gt;Node8</title>
<path fill="none" stroke="#9a32cd" stroke-dasharray="5,2" d="M58.6599,-367.6221C59.4805,-350.2864 60.6354,-325.8886 61.2654,-312.5802"/>
<polygon fill="#9a32cd" stroke="#9a32cd" points="55.1546,-367.6524 58.1778,-377.8068 62.1468,-367.9835 55.1546,-367.6524"/>
<text text-anchor="middle" x="89.7189" y="-339.5" font-family="Helvetica,sans-Serif" font-size="10.00" fill="#000000"> m_spthermo</text>
</g>
<!-- Node13&#45;&gt;Node4 -->
<g id="edge13" class="edge">
<title>Node13&#45;&gt;Node4</title>
<path fill="none" stroke="#9a32cd" stroke-dasharray="5,2" d="M225.7189,-125.2866C225.7189,-109.7395 225.7189,-88.7276 225.7189,-76.6426"/>
<polygon fill="#9a32cd" stroke="#9a32cd" points="222.219,-125.4356 225.7189,-135.4357 229.219,-125.4357 222.219,-125.4356"/>
<text text-anchor="middle" x="253.7189" y="-109" font-family="Helvetica,sans-Serif" font-size="10.00" fill="#000000"> m_flow_left</text>
<text text-anchor="middle" x="253.7189" y="-98" font-family="Helvetica,sans-Serif" font-size="10.00" fill="#000000">m_flow_right</text>
</g>
<!-- Node14&#45;&gt;Node13 -->
<g id="edge15" class="edge">
<title>Node14&#45;&gt;Node13</title>
<path fill="none" stroke="#9a32cd" stroke-dasharray="5,2" d="M69.1922,-216.0951C75.707,-202.0774 86.5107,-183.6283 101.7189,-173 117.7286,-161.8116 170.8772,-152.7095 202.1552,-148.1572"/>
<polygon fill="#9a32cd" stroke="#9a32cd" points="65.9499,-214.775 65.2048,-225.3436 72.378,-217.5464 65.9499,-214.775"/>
<text text-anchor="middle" x="121.2189" y="-187" font-family="Helvetica,sans-Serif" font-size="10.00" fill="#000000"> m_trans</text>
</g>
<!-- Node15&#45;&gt;Node13 -->
<g id="edge17" class="edge">
<title>Node15&#45;&gt;Node13</title>
<path fill="none" stroke="#9a32cd" stroke-dasharray="5,2" d="M295.3514,-322.2678C300.4267,-288.6393 305.9236,-219.3697 275.7189,-173 269.5828,-163.5799 259.1217,-157.0205 249.3494,-152.6317"/>
<polygon fill="#9a32cd" stroke="#9a32cd" points="291.8841,-321.783 293.6986,-332.2213 298.7895,-322.9298 291.8841,-321.783"/>
<text text-anchor="middle" x="314.7189" y="-267" font-family="Helvetica,sans-Serif" font-size="10.00" fill="#000000"> m_kin</text>
</g>
<!-- Node16 -->
<g id="node14" class="node">
<title>Node16</title>
<g id="a_node14"><a xlink:href="classCantera_1_1Array2D.html" target="_top" xlink:title="A class for 2D arrays stored in column&#45;major (Fortran&#45;compatible) form. ">
<polygon fill="#ffffff" stroke="#000000" points="109.2189,-225.5 109.2189,-244.5 162.2189,-244.5 162.2189,-225.5 109.2189,-225.5"/>
<text text-anchor="middle" x="135.7189" y="-232.5" font-family="Helvetica,sans-Serif" font-size="10.00" fill="#000000">Array2D</text>
</a>
</g>
</g>
<!-- Node16&#45;&gt;Node13 -->
<g id="edge19" class="edge">
<title>Node16&#45;&gt;Node13</title>
<path fill="none" stroke="#9a32cd" stroke-dasharray="5,2" d="M140.8708,-215.6966C145.2978,-202.278 152.8748,-184.7593 164.7189,-173 174.9727,-162.8196 189.6049,-155.9321 201.9682,-151.536"/>
<polygon fill="#9a32cd" stroke="#9a32cd" points="137.4837,-214.8072 137.9745,-225.3907 144.1908,-216.8112 137.4837,-214.8072"/>
<text text-anchor="middle" x="192.2189" y="-198" font-family="Helvetica,sans-Serif" font-size="10.00" fill="#000000"> m_dthermal</text>
<text text-anchor="middle" x="192.2189" y="-187" font-family="Helvetica,sans-Serif" font-size="10.00" fill="#000000">m_wdot</text>
<text text-anchor="middle" x="192.2189" y="-176" font-family="Helvetica,sans-Serif" font-size="10.00" fill="#000000">m_flux</text>
</g>
<!-- Node17&#45;&gt;Node13 -->
<g id="edge20" class="edge">
<title>Node17&#45;&gt;Node13</title>
<path fill="none" stroke="#9a32cd" stroke-dasharray="5,2" d="M222.598,-215.22C223.4338,-196.4155 224.6552,-168.9332 225.2939,-154.5623"/>
<polygon fill="#9a32cd" stroke="#9a32cd" points="219.0945,-215.2229 222.147,-225.3684 226.0876,-215.5337 219.0945,-215.2229"/>
<text text-anchor="middle" x="248.2189" y="-187" font-family="Helvetica,sans-Serif" font-size="10.00" fill="#000000"> m_thermo</text>
</g>
</g>
</svg>
