<?xml version="1.0" encoding="UTF-8" standalone="no"?>
<!DOCTYPE svg PUBLIC "-//W3C//DTD SVG 1.1//EN"
 "http://www.w3.org/Graphics/SVG/1.1/DTD/svg11.dtd">
<!-- Generated by graphviz version 2.40.1 (20161225.0304)
 -->
<!-- Title: InterfaceReaction Pages: 1 -->
<svg width="133pt" height="196pt"
 viewBox="0.00 0.00 133.00 196.00" xmlns="http://www.w3.org/2000/svg" xmlns:xlink="http://www.w3.org/1999/xlink">
<g id="graph0" class="graph" transform="scale(1 1) rotate(0) translate(4 192)">
<title>InterfaceReaction</title>
<polygon fill="#ffffff" stroke="transparent" points="-4,4 -4,-192 129,-192 129,4 -4,4"/>
<!-- Node0 -->
<g id="node1" class="node">
<title>Node0</title>
<polygon fill="#bfbfbf" stroke="#000000" points="15.5,-56.5 15.5,-75.5 109.5,-75.5 109.5,-56.5 15.5,-56.5"/>
<text text-anchor="middle" x="62.5" y="-63.5" font-family="Helvetica,sans-Serif" font-size="10.00" fill="#000000">InterfaceReaction</text>
</g>
<!-- Node3 -->
<g id="node4" class="node">
<title>Node3</title>
<g id="a_node4"><a xlink:href="classCantera_1_1ElectrochemicalReaction.html" target="_top" xlink:title="An interface reaction which involves charged species. ">
<polygon fill="#ffffff" stroke="#000000" points="0,-.5 0,-19.5 125,-19.5 125,-.5 0,-.5"/>
<text text-anchor="middle" x="62.5" y="-7.5" font-family="Helvetica,sans-Serif" font-size="10.00" fill="#000000">ElectrochemicalReaction</text>
</a>
</g>
</g>
<!-- Node0&#45;&gt;Node3 -->
<g id="edge3" class="edge">
<title>Node0&#45;&gt;Node3</title>
<path fill="none" stroke="#191970" d="M62.5,-46.1575C62.5,-37.155 62.5,-26.9199 62.5,-19.6427"/>
<polygon fill="#191970" stroke="#191970" points="59.0001,-46.2455 62.5,-56.2455 66.0001,-46.2456 59.0001,-46.2455"/>
</g>
<!-- Node1 -->
<g id="node2" class="node">
<title>Node1</title>
<g id="a_node2"><a xlink:href="classCantera_1_1ElementaryReaction.html" target="_top" xlink:title="A reaction which follows mass&#45;action kinetics with a modified Arrhenius reaction rate. ">
<polygon fill="#ffffff" stroke="#000000" points="10,-112.5 10,-131.5 115,-131.5 115,-112.5 10,-112.5"/>
<text text-anchor="middle" x="62.5" y="-119.5" font-family="Helvetica,sans-Serif" font-size="10.00" fill="#000000">ElementaryReaction</text>
</a>
</g>
</g>
<!-- Node1&#45;&gt;Node0 -->
<g id="edge1" class="edge">
<title>Node1&#45;&gt;Node0</title>
<path fill="none" stroke="#191970" d="M62.5,-102.1575C62.5,-93.155 62.5,-82.9199 62.5,-75.6427"/>
<polygon fill="#191970" stroke="#191970" points="59.0001,-102.2455 62.5,-112.2455 66.0001,-102.2456 59.0001,-102.2455"/>
</g>
<!-- Node2 -->
<g id="node3" class="node">
<title>Node2</title>
<g id="a_node3"><a xlink:href="classCantera_1_1Reaction.html" target="_top" xlink:title="Intermediate class which stores data about a reaction and its rate parameterization so that it can be...">
<polygon fill="#ffffff" stroke="#000000" points="34.5,-168.5 34.5,-187.5 90.5,-187.5 90.5,-168.5 34.5,-168.5"/>
<text text-anchor="middle" x="62.5" y="-175.5" font-family="Helvetica,sans-Serif" font-size="10.00" fill="#000000">Reaction</text>
</a>
</g>
</g>
<!-- Node2&#45;&gt;Node1 -->
<g id="edge2" class="edge">
<title>Node2&#45;&gt;Node1</title>
<path fill="none" stroke="#191970" d="M62.5,-158.1575C62.5,-149.155 62.5,-138.9199 62.5,-131.6427"/>
<polygon fill="#191970" stroke="#191970" points="59.0001,-158.2455 62.5,-168.2455 66.0001,-158.2456 59.0001,-158.2455"/>
</g>
</g>
</svg>
