<?xml version="1.0" encoding="UTF-8" standalone="no"?>
<!DOCTYPE svg PUBLIC "-//W3C//DTD SVG 1.1//EN"
 "http://www.w3.org/Graphics/SVG/1.1/DTD/svg11.dtd">
<!-- Generated by graphviz version 2.40.1 (20161225.0304)
 -->
<!-- Title: ReactingSurf1D Pages: 1 -->
<svg width="1201pt" height="447pt"
 viewBox="0.00 0.00 1201.00 447.00" xmlns="http://www.w3.org/2000/svg" xmlns:xlink="http://www.w3.org/1999/xlink">
<g id="graph0" class="graph" transform="scale(1 1) rotate(0) translate(4 443)">
<title>ReactingSurf1D</title>
<polygon fill="#ffffff" stroke="transparent" points="-4,4 -4,-443 1197,-443 1197,4 -4,4"/>
<!-- Node3 -->
<g id="node1" class="node">
<title>Node3</title>
<polygon fill="#bfbfbf" stroke="#000000" points="1107,-157.5 1107,-176.5 1193,-176.5 1193,-157.5 1107,-157.5"/>
<text text-anchor="middle" x="1150" y="-164.5" font-family="Helvetica,sans-Serif" font-size="10.00" fill="#000000">ReactingSurf1D</text>
</g>
<!-- Node4 -->
<g id="node2" class="node">
<title>Node4</title>
<g id="a_node2"><a xlink:href="classCantera_1_1Bdry1D.html" target="_top" xlink:title="The base class for boundaries between one&#45;dimensional spatial domains. ">
<polygon fill="#ffffff" stroke="#000000" points="1020,-234.5 1020,-253.5 1070,-253.5 1070,-234.5 1020,-234.5"/>
<text text-anchor="middle" x="1045" y="-241.5" font-family="Helvetica,sans-Serif" font-size="10.00" fill="#000000">Bdry1D</text>
</a>
</g>
</g>
<!-- Node4&#45;&gt;Node3 -->
<g id="edge1" class="edge">
<title>Node4&#45;&gt;Node3</title>
<path fill="none" stroke="#191970" d="M1066.3627,-228.334C1087.4779,-212.8495 1119.1147,-189.6492 1136.8097,-176.6729"/>
<polygon fill="#191970" stroke="#191970" points="1064.2926,-225.5118 1058.2983,-234.2479 1068.4322,-231.1566 1064.2926,-225.5118"/>
</g>
<!-- Node5 -->
<g id="node3" class="node">
<title>Node5</title>
<g id="a_node3"><a xlink:href="classCantera_1_1Domain1D.html" target="_top" xlink:title="Base class for one&#45;dimensional domains. ">
<polygon fill="#ffffff" stroke="#000000" points="618.5,-368.5 618.5,-387.5 681.5,-387.5 681.5,-368.5 618.5,-368.5"/>
<text text-anchor="middle" x="650" y="-375.5" font-family="Helvetica,sans-Serif" font-size="10.00" fill="#000000">Domain1D</text>
</a>
</g>
</g>
<!-- Node5&#45;&gt;Node4 -->
<g id="edge2" class="edge">
<title>Node5&#45;&gt;Node4</title>
<path fill="none" stroke="#191970" d="M692.071,-378.5378C726.8386,-378.0924 777.2499,-375.3838 820,-365 905.3487,-344.2691 929.4394,-337.4888 1002,-288 1016.1184,-278.3708 1029.3857,-263.5906 1037.3507,-253.8595"/>
<polygon fill="#191970" stroke="#191970" points="691.7844,-375.0396 681.8091,-378.6093 691.8333,-382.0394 691.7844,-375.0396"/>
</g>
<!-- Node5&#45;&gt;Node5 -->
<g id="edge3" class="edge">
<title>Node5&#45;&gt;Node5</title>
<path fill="none" stroke="#9a32cd" stroke-dasharray="5,2" d="M625.0745,-397.0292C626.4341,-402.128 634.7426,-406 650,-406 673.8164,-406 680.7008,-396.5653 670.6533,-387.7571"/>
<polygon fill="#9a32cd" stroke="#9a32cd" points="628.3407,-398.304 629.3467,-387.7571 621.9831,-395.3747 628.3407,-398.304"/>
<text text-anchor="middle" x="650" y="-420" font-family="Helvetica,sans-Serif" font-size="10.00" fill="#000000"> m_left</text>
<text text-anchor="middle" x="650" y="-409" font-family="Helvetica,sans-Serif" font-size="10.00" fill="#000000">m_right</text>
</g>
<!-- Node13 -->
<g id="node11" class="node">
<title>Node13</title>
<g id="a_node11"><a xlink:href="classCantera_1_1StFlow.html" target="_top" xlink:title="This class represents 1D flow domains that satisfy the one&#45;dimensional similarity solution for chemic...">
<polygon fill="#ffffff" stroke="#000000" points="859.5,-264.5 859.5,-283.5 906.5,-283.5 906.5,-264.5 859.5,-264.5"/>
<text text-anchor="middle" x="883" y="-271.5" font-family="Helvetica,sans-Serif" font-size="10.00" fill="#000000">StFlow</text>
</a>
</g>
</g>
<!-- Node5&#45;&gt;Node13 -->
<g id="edge14" class="edge">
<title>Node5&#45;&gt;Node13</title>
<path fill="none" stroke="#191970" d="M691.8848,-375.4431C727.867,-371.7135 780.0988,-362.5439 820,-340 845.1005,-325.8184 866.3535,-298.4427 876.543,-283.8012"/>
<polygon fill="#191970" stroke="#191970" points="691.3607,-371.9768 681.7316,-376.3962 692.015,-378.9462 691.3607,-371.9768"/>
</g>
<!-- Node6 -->
<g id="node4" class="node">
<title>Node6</title>
<g id="a_node4"><a xlink:href="classCantera_1_1OneDim.html" target="_top" xlink:title="Container class for multiple&#45;domain 1D problems. ">
<polygon fill="#ffffff" stroke="#000000" points="404,-368.5 404,-387.5 457,-387.5 457,-368.5 404,-368.5"/>
<text text-anchor="middle" x="430.5" y="-375.5" font-family="Helvetica,sans-Serif" font-size="10.00" fill="#000000">OneDim</text>
</a>
</g>
</g>
<!-- Node6&#45;&gt;Node5 -->
<g id="edge4" class="edge">
<title>Node6&#45;&gt;Node5</title>
<path fill="none" stroke="#9a32cd" stroke-dasharray="5,2" d="M467.57,-378C509.8607,-378 578.3077,-378 618.244,-378"/>
<polygon fill="#9a32cd" stroke="#9a32cd" points="467.415,-374.5001 457.415,-378 467.415,-381.5001 467.415,-374.5001"/>
<text text-anchor="middle" x="515.5" y="-381" font-family="Helvetica,sans-Serif" font-size="10.00" fill="#000000"> m_container</text>
</g>
<!-- Node7 -->
<g id="node5" class="node">
<title>Node7</title>
<g id="a_node5"><a xlink:href="classCantera_1_1Func1.html" target="_top" xlink:title="Base class for &#39;functor&#39; classes that evaluate a function of one variable. ">
<polygon fill="#ffffff" stroke="#000000" points="180,-368.5 180,-387.5 224,-387.5 224,-368.5 180,-368.5"/>
<text text-anchor="middle" x="202" y="-375.5" font-family="Helvetica,sans-Serif" font-size="10.00" fill="#000000">Func1</text>
</a>
</g>
</g>
<!-- Node7&#45;&gt;Node6 -->
<g id="edge5" class="edge">
<title>Node7&#45;&gt;Node6</title>
<path fill="none" stroke="#9a32cd" stroke-dasharray="5,2" d="M234.5298,-378C280.0293,-378 361.8083,-378 403.8874,-378"/>
<polygon fill="#9a32cd" stroke="#9a32cd" points="234.3256,-374.5001 224.3256,-378 234.3255,-381.5001 234.3256,-374.5001"/>
<text text-anchor="middle" x="323.5" y="-392" font-family="Helvetica,sans-Serif" font-size="10.00" fill="#000000"> m_time_step_callback</text>
<text text-anchor="middle" x="323.5" y="-381" font-family="Helvetica,sans-Serif" font-size="10.00" fill="#000000">m_interrupt</text>
</g>
<!-- Node7&#45;&gt;Node7 -->
<g id="edge6" class="edge">
<title>Node7&#45;&gt;Node7</title>
<path fill="none" stroke="#9a32cd" stroke-dasharray="5,2" d="M184.9638,-397.4C186.1015,-402.3146 191.7803,-406 202,-406 218.3516,-406 223.0782,-396.5653 216.1799,-387.7571"/>
<polygon fill="#9a32cd" stroke="#9a32cd" points="188.3358,-398.3393 187.8201,-387.7571 181.6241,-396.3512 188.3358,-398.3393"/>
<text text-anchor="middle" x="202" y="-431" font-family="Helvetica,sans-Serif" font-size="10.00" fill="#000000"> m_f1</text>
<text text-anchor="middle" x="202" y="-420" font-family="Helvetica,sans-Serif" font-size="10.00" fill="#000000">m_f2</text>
<text text-anchor="middle" x="202" y="-409" font-family="Helvetica,sans-Serif" font-size="10.00" fill="#000000">m_parent</text>
</g>
<!-- Node8 -->
<g id="node6" class="node">
<title>Node8</title>
<g id="a_node6"><a xlink:href="classCantera_1_1ThermoPhase.html" target="_top" xlink:title="Base class for a phase with thermodynamic properties. ">
<polygon fill="#ffffff" stroke="#000000" points="392,-195.5 392,-214.5 469,-214.5 469,-195.5 392,-195.5"/>
<text text-anchor="middle" x="430.5" y="-202.5" font-family="Helvetica,sans-Serif" font-size="10.00" fill="#000000">ThermoPhase</text>
</a>
</g>
</g>
<!-- Node8&#45;&gt;Node4 -->
<g id="edge7" class="edge">
<title>Node8&#45;&gt;Node4</title>
<path fill="none" stroke="#9a32cd" stroke-dasharray="5,2" d="M479.5925,-207.4733C553.4683,-211.263 697.6128,-218.9208 820,-227 892.5097,-231.7866 978.0752,-238.5624 1019.7039,-241.9313"/>
<polygon fill="#9a32cd" stroke="#9a32cd" points="479.3793,-203.9579 469.2136,-206.9426 479.0218,-210.9488 479.3793,-203.9579"/>
<text text-anchor="middle" x="788" y="-241" font-family="Helvetica,sans-Serif" font-size="10.00" fill="#000000"> m_phase_left</text>
<text text-anchor="middle" x="788" y="-230" font-family="Helvetica,sans-Serif" font-size="10.00" fill="#000000">m_phase_right</text>
</g>
<!-- Node14 -->
<g id="node12" class="node">
<title>Node14</title>
<g id="a_node12"><a xlink:href="classCantera_1_1Transport.html" target="_top" xlink:title="Base class for transport property managers. ">
<polygon fill="#ffffff" stroke="#000000" points="621,-271.5 621,-290.5 679,-290.5 679,-271.5 621,-271.5"/>
<text text-anchor="middle" x="650" y="-278.5" font-family="Helvetica,sans-Serif" font-size="10.00" fill="#000000">Transport</text>
</a>
</g>
</g>
<!-- Node8&#45;&gt;Node14 -->
<g id="edge16" class="edge">
<title>Node8&#45;&gt;Node14</title>
<path fill="none" stroke="#9a32cd" stroke-dasharray="5,2" d="M453.4642,-219.9535C463.4947,-226.0754 475.5603,-232.9028 487,-238 531.6443,-257.8921 587.4068,-270.13 620.7832,-276.2349"/>
<polygon fill="#9a32cd" stroke="#9a32cd" points="455.2355,-216.9332 444.9009,-214.5995 451.5245,-222.8686 455.2355,-216.9332"/>
<text text-anchor="middle" x="515.5" y="-262" font-family="Helvetica,sans-Serif" font-size="10.00" fill="#000000"> m_thermo</text>
</g>
<!-- Node17 -->
<g id="node15" class="node">
<title>Node17</title>
<g id="a_node15"><a xlink:href="classCantera_1_1IdealGasPhase.html" target="_top" xlink:title="Class IdealGasPhase represents low&#45;density gases that obey the ideal gas equation of state...">
<polygon fill="#ffffff" stroke="#000000" points="608.5,-233.5 608.5,-252.5 691.5,-252.5 691.5,-233.5 608.5,-233.5"/>
<text text-anchor="middle" x="650" y="-240.5" font-family="Helvetica,sans-Serif" font-size="10.00" fill="#000000">IdealGasPhase</text>
</a>
</g>
</g>
<!-- Node8&#45;&gt;Node17 -->
<g id="edge21" class="edge">
<title>Node8&#45;&gt;Node17</title>
<path fill="none" stroke="#191970" d="M476.6599,-216.8241C480.1502,-217.5997 483.6258,-218.3352 487,-219 527.9736,-227.0732 575.2285,-233.7441 608.2731,-237.9863"/>
<polygon fill="#191970" stroke="#191970" points="477.3876,-213.4001 466.8562,-214.5575 475.8107,-220.2202 477.3876,-213.4001"/>
</g>
<!-- Node18 -->
<g id="node16" class="node">
<title>Node18</title>
<g id="a_node16"><a xlink:href="classCantera_1_1SurfPhase.html" target="_top" xlink:title="A simple thermodynamic model for a surface phase, assuming an ideal solution model. ">
<polygon fill="#ffffff" stroke="#000000" points="619,-157.5 619,-176.5 681,-176.5 681,-157.5 619,-157.5"/>
<text text-anchor="middle" x="650" y="-164.5" font-family="Helvetica,sans-Serif" font-size="10.00" fill="#000000">SurfPhase</text>
</a>
</g>
</g>
<!-- Node8&#45;&gt;Node18 -->
<g id="edge23" class="edge">
<title>Node8&#45;&gt;Node18</title>
<path fill="none" stroke="#191970" d="M476.6599,-193.1759C480.1502,-192.4003 483.6258,-191.6648 487,-191 532.6042,-182.0144 585.9896,-174.7661 618.9026,-170.67"/>
<polygon fill="#191970" stroke="#191970" points="475.8107,-189.7798 466.8562,-195.4425 477.3876,-196.5999 475.8107,-189.7798"/>
</g>
<!-- Node9 -->
<g id="node7" class="node">
<title>Node9</title>
<g id="a_node7"><a xlink:href="classCantera_1_1Phase.html" target="_top" xlink:title="Class Phase is the base class for phases of matter, managing the species and elements in a phase...">
<polygon fill="#ffffff" stroke="#000000" points="180,-195.5 180,-214.5 224,-214.5 224,-195.5 180,-195.5"/>
<text text-anchor="middle" x="202" y="-202.5" font-family="Helvetica,sans-Serif" font-size="10.00" fill="#000000">Phase</text>
</a>
</g>
</g>
<!-- Node9&#45;&gt;Node8 -->
<g id="edge8" class="edge">
<title>Node9&#45;&gt;Node8</title>
<path fill="none" stroke="#191970" d="M234.423,-205C275.8649,-205 347.5292,-205 391.7886,-205"/>
<polygon fill="#191970" stroke="#191970" points="234.3256,-201.5001 224.3256,-205 234.3255,-208.5001 234.3256,-201.5001"/>
</g>
<!-- Node10 -->
<g id="node8" class="node">
<title>Node10</title>
<g id="a_node8"><a xlink:href="classCantera_1_1XML__Node.html" target="_top" xlink:title="Class XML_Node is a tree&#45;based representation of the contents of an XML file. ">
<polygon fill="#ffffff" stroke="#000000" points="2.5,-195.5 2.5,-214.5 67.5,-214.5 67.5,-195.5 2.5,-195.5"/>
<text text-anchor="middle" x="35" y="-202.5" font-family="Helvetica,sans-Serif" font-size="10.00" fill="#000000">XML_Node</text>
</a>
</g>
</g>
<!-- Node10&#45;&gt;Node9 -->
<g id="edge9" class="edge">
<title>Node10&#45;&gt;Node9</title>
<path fill="none" stroke="#9a32cd" stroke-dasharray="5,2" d="M77.7291,-205C110.2328,-205 153.6597,-205 179.632,-205"/>
<polygon fill="#9a32cd" stroke="#9a32cd" points="77.5958,-201.5001 67.5957,-205 77.5957,-208.5001 77.5958,-201.5001"/>
<text text-anchor="middle" x="109.5" y="-208" font-family="Helvetica,sans-Serif" font-size="10.00" fill="#000000"> m_xml</text>
</g>
<!-- Node10&#45;&gt;Node10 -->
<g id="edge10" class="edge">
<title>Node10&#45;&gt;Node10</title>
<path fill="none" stroke="#9a32cd" stroke-dasharray="5,2" d="M21.3725,-224.7663C22.4428,-229.4965 26.9853,-233 35,-233 48.1523,-233 51.9542,-223.5653 46.4055,-214.7571"/>
<polygon fill="#9a32cd" stroke="#9a32cd" points="24.844,-225.2779 23.5945,-214.7571 18.0104,-223.7609 24.844,-225.2779"/>
<text text-anchor="middle" x="35" y="-247" font-family="Helvetica,sans-Serif" font-size="10.00" fill="#000000"> m_root</text>
<text text-anchor="middle" x="35" y="-236" font-family="Helvetica,sans-Serif" font-size="10.00" fill="#000000">m_parent</text>
</g>
<!-- Node11 -->
<g id="node9" class="node">
<title>Node11</title>
<g id="a_node9"><a xlink:href="classCantera_1_1ValueCache.html" target="_top" xlink:title="ValueCache">
<polygon fill="#ffffff" stroke="#000000" points="0,-138.5 0,-157.5 70,-157.5 70,-138.5 0,-138.5"/>
<text text-anchor="middle" x="35" y="-145.5" font-family="Helvetica,sans-Serif" font-size="10.00" fill="#000000">ValueCache</text>
</a>
</g>
</g>
<!-- Node11&#45;&gt;Node9 -->
<g id="edge11" class="edge">
<title>Node11&#45;&gt;Node9</title>
<path fill="none" stroke="#9a32cd" stroke-dasharray="5,2" d="M72.714,-160.8725C105.7172,-172.137 152.5344,-188.1165 179.8385,-197.4359"/>
<polygon fill="#9a32cd" stroke="#9a32cd" points="73.5466,-157.4584 62.952,-157.5405 71.2854,-164.0832 73.5466,-157.4584"/>
<text text-anchor="middle" x="109.5" y="-183" font-family="Helvetica,sans-Serif" font-size="10.00" fill="#000000"> m_cache</text>
</g>
<!-- Node15 -->
<g id="node13" class="node">
<title>Node15</title>
<g id="a_node13"><a xlink:href="classCantera_1_1Kinetics.html" target="_top" xlink:title="Public interface for kinetics managers. ">
<polygon fill="#ffffff" stroke="#000000" points="624,-119.5 624,-138.5 676,-138.5 676,-119.5 624,-119.5"/>
<text text-anchor="middle" x="650" y="-126.5" font-family="Helvetica,sans-Serif" font-size="10.00" fill="#000000">Kinetics</text>
</a>
</g>
</g>
<!-- Node11&#45;&gt;Node15 -->
<g id="edge18" class="edge">
<title>Node11&#45;&gt;Node15</title>
<path fill="none" stroke="#9a32cd" stroke-dasharray="5,2" d="M80.3095,-146.6002C201.2323,-142.8644 528.8303,-132.7435 623.8419,-129.8081"/>
<polygon fill="#9a32cd" stroke="#9a32cd" points="80.1611,-143.103 70.274,-146.9102 80.3773,-150.0997 80.1611,-143.103"/>
<text text-anchor="middle" x="323.5" y="-144" font-family="Helvetica,sans-Serif" font-size="10.00" fill="#000000"> m_cache</text>
</g>
<!-- Node12 -->
<g id="node10" class="node">
<title>Node12</title>
<g id="a_node10"><a xlink:href="classCantera_1_1MultiSpeciesThermo.html" target="_top" xlink:title="A species thermodynamic property manager for a phase. ">
<polygon fill="#ffffff" stroke="#000000" points="149,-157.5 149,-176.5 255,-176.5 255,-157.5 149,-157.5"/>
<text text-anchor="middle" x="202" y="-164.5" font-family="Helvetica,sans-Serif" font-size="10.00" fill="#000000">MultiSpeciesThermo</text>
</a>
</g>
</g>
<!-- Node12&#45;&gt;Node8 -->
<g id="edge12" class="edge">
<title>Node12&#45;&gt;Node8</title>
<path fill="none" stroke="#9a32cd" stroke-dasharray="5,2" d="M265.6542,-173.5647C298.2236,-177.4152 338.4047,-182.9246 374,-190 381.6646,-191.5235 389.83,-193.4876 397.5016,-195.4894"/>
<polygon fill="#9a32cd" stroke="#9a32cd" points="265.6989,-170.0465 255.3626,-172.3729 264.8936,-177.0001 265.6989,-170.0465"/>
<text text-anchor="middle" x="323.5" y="-193" font-family="Helvetica,sans-Serif" font-size="10.00" fill="#000000"> m_spthermo</text>
</g>
<!-- Node13&#45;&gt;Node4 -->
<g id="edge13" class="edge">
<title>Node13&#45;&gt;Node4</title>
<path fill="none" stroke="#9a32cd" stroke-dasharray="5,2" d="M916.789,-267.7428C947.5021,-262.0552 992.1271,-253.7913 1019.8153,-248.6638"/>
<polygon fill="#9a32cd" stroke="#9a32cd" points="915.7517,-264.3753 906.5562,-269.6377 917.0264,-271.2583 915.7517,-264.3753"/>
<text text-anchor="middle" x="974" y="-276" font-family="Helvetica,sans-Serif" font-size="10.00" fill="#000000"> m_flow_left</text>
<text text-anchor="middle" x="974" y="-265" font-family="Helvetica,sans-Serif" font-size="10.00" fill="#000000">m_flow_right</text>
</g>
<!-- Node14&#45;&gt;Node13 -->
<g id="edge15" class="edge">
<title>Node14&#45;&gt;Node13</title>
<path fill="none" stroke="#9a32cd" stroke-dasharray="5,2" d="M689.1829,-279.8228C737.8036,-278.3621 819.1791,-275.9174 859.2429,-274.7137"/>
<polygon fill="#9a32cd" stroke="#9a32cd" points="688.9289,-276.3288 679.0385,-280.1276 689.1391,-283.3256 688.9289,-276.3288"/>
<text text-anchor="middle" x="788" y="-280" font-family="Helvetica,sans-Serif" font-size="10.00" fill="#000000"> m_trans</text>
</g>
<!-- Node15&#45;&gt;Node13 -->
<g id="edge17" class="edge">
<title>Node15&#45;&gt;Node13</title>
<path fill="none" stroke="#9a32cd" stroke-dasharray="5,2" d="M686.3697,-130.0681C723.4333,-132.8811 780.8802,-142.192 820,-172 852.6142,-196.851 872.3404,-243.8569 879.7005,-264.2038"/>
<polygon fill="#9a32cd" stroke="#9a32cd" points="686.2285,-126.5522 676.0269,-129.4116 685.785,-133.5382 686.2285,-126.5522"/>
<text text-anchor="middle" x="788" y="-175" font-family="Helvetica,sans-Serif" font-size="10.00" fill="#000000"> m_kin</text>
</g>
<!-- Node19 -->
<g id="node17" class="node">
<title>Node19</title>
<g id="a_node17"><a xlink:href="classCantera_1_1InterfaceKinetics.html" target="_top" xlink:title="A kinetics manager for heterogeneous reaction mechanisms. ">
<polygon fill="#ffffff" stroke="#000000" points="838,-64.5 838,-83.5 928,-83.5 928,-64.5 838,-64.5"/>
<text text-anchor="middle" x="883" y="-71.5" font-family="Helvetica,sans-Serif" font-size="10.00" fill="#000000">InterfaceKinetics</text>
</a>
</g>
</g>
<!-- Node15&#45;&gt;Node19 -->
<g id="edge25" class="edge">
<title>Node15&#45;&gt;Node19</title>
<path fill="none" stroke="#191970" d="M679.4939,-115.2095C700.4,-106.0307 729.358,-94.5037 756,-88 782.7212,-81.477 813.3529,-77.9885 837.8375,-76.1252"/>
<polygon fill="#191970" stroke="#191970" points="677.9065,-112.0853 670.2082,-119.3645 680.7656,-118.4748 677.9065,-112.0853"/>
</g>
<!-- Node16 -->
<g id="node14" class="node">
<title>Node16</title>
<g id="a_node14"><a xlink:href="classCantera_1_1Array2D.html" target="_top" xlink:title="A class for 2D arrays stored in column&#45;major (Fortran&#45;compatible) form. ">
<polygon fill="#ffffff" stroke="#000000" points="623.5,-309.5 623.5,-328.5 676.5,-328.5 676.5,-309.5 623.5,-309.5"/>
<text text-anchor="middle" x="650" y="-316.5" font-family="Helvetica,sans-Serif" font-size="10.00" fill="#000000">Array2D</text>
</a>
</g>
</g>
<!-- Node16&#45;&gt;Node13 -->
<g id="edge19" class="edge">
<title>Node16&#45;&gt;Node13</title>
<path fill="none" stroke="#9a32cd" stroke-dasharray="5,2" d="M686.8017,-314.4615C721.3981,-309.8872 774.5201,-302.0701 820,-292 833.1053,-289.0982 847.5143,-285.0472 859.2408,-281.5229"/>
<polygon fill="#9a32cd" stroke="#9a32cd" points="686.1541,-311.0161 676.6886,-315.7759 687.0563,-317.9577 686.1541,-311.0161"/>
<text text-anchor="middle" x="788" y="-328" font-family="Helvetica,sans-Serif" font-size="10.00" fill="#000000"> m_dthermal</text>
<text text-anchor="middle" x="788" y="-317" font-family="Helvetica,sans-Serif" font-size="10.00" fill="#000000">m_wdot</text>
<text text-anchor="middle" x="788" y="-306" font-family="Helvetica,sans-Serif" font-size="10.00" fill="#000000">m_flux</text>
</g>
<!-- Node17&#45;&gt;Node13 -->
<g id="edge20" class="edge">
<title>Node17&#45;&gt;Node13</title>
<path fill="none" stroke="#9a32cd" stroke-dasharray="5,2" d="M701.8183,-247.1589C735.5821,-250.1954 780.5344,-254.8539 820,-261 833.1316,-263.045 847.6679,-265.9978 859.4655,-268.5726"/>
<polygon fill="#9a32cd" stroke="#9a32cd" points="701.9862,-243.6602 691.7175,-246.2688 701.3716,-250.6332 701.9862,-243.6602"/>
<text text-anchor="middle" x="788" y="-264" font-family="Helvetica,sans-Serif" font-size="10.00" fill="#000000"> m_thermo</text>
</g>
<!-- Node18&#45;&gt;Node3 -->
<g id="edge22" class="edge">
<title>Node18&#45;&gt;Node3</title>
<path fill="none" stroke="#9a32cd" stroke-dasharray="5,2" d="M691.4799,-167C784.9785,-167 1011.4277,-167 1106.661,-167"/>
<polygon fill="#9a32cd" stroke="#9a32cd" points="691.2773,-163.5001 681.2772,-167 691.2772,-170.5001 691.2773,-163.5001"/>
<text text-anchor="middle" x="974" y="-170" font-family="Helvetica,sans-Serif" font-size="10.00" fill="#000000"> m_sphase</text>
</g>
<!-- Node18&#45;&gt;Node19 -->
<g id="edge26" class="edge">
<title>Node18&#45;&gt;Node19</title>
<path fill="none" stroke="#9a32cd" stroke-dasharray="5,2" d="M691.312,-165.9037C707.3417,-163.6082 724.943,-158.565 738,-148 753.1551,-135.7373 741.1495,-120.6298 756,-108 768.432,-97.4271 806.6025,-88.0572 837.8777,-81.8453"/>
<polygon fill="#9a32cd" stroke="#9a32cd" points="690.6192,-162.4592 681.0686,-167.0459 691.3949,-169.4161 690.6192,-162.4592"/>
<text text-anchor="middle" x="788" y="-111" font-family="Helvetica,sans-Serif" font-size="10.00" fill="#000000"> m_surf</text>
</g>
<!-- Node19&#45;&gt;Node3 -->
<g id="edge24" class="edge">
<title>Node19&#45;&gt;Node3</title>
<path fill="none" stroke="#9a32cd" stroke-dasharray="5,2" d="M920.1614,-86.9439C974.5005,-105.871 1074.3979,-140.6667 1122.5819,-157.4499"/>
<polygon fill="#9a32cd" stroke="#9a32cd" points="921.1629,-83.5865 910.568,-83.6024 918.8603,-90.197 921.1629,-83.5865"/>
<text text-anchor="middle" x="1045" y="-142" font-family="Helvetica,sans-Serif" font-size="10.00" fill="#000000"> m_kin</text>
</g>
<!-- Node20 -->
<g id="node18" class="node">
<title>Node20</title>
<g id="a_node18"><a xlink:href="classCantera_1_1Rate1.html" target="_top" xlink:title="Rate1\&lt; Cantera::SurfaceArrhenius \&gt;">
<polygon fill="#ffffff" stroke="#000000" points="562,-38.5 562,-57.5 738,-57.5 738,-38.5 562,-38.5"/>
<text text-anchor="middle" x="650" y="-45.5" font-family="Helvetica,sans-Serif" font-size="10.00" fill="#000000">Rate1&lt; Cantera::SurfaceArrhenius &gt;</text>
</a>
</g>
</g>
<!-- Node20&#45;&gt;Node19 -->
<g id="edge27" class="edge">
<title>Node20&#45;&gt;Node19</title>
<path fill="none" stroke="#9a32cd" stroke-dasharray="5,2" d="M748.4313,-42.3955C772.0416,-42.7493 797.057,-44.5442 820,-49 835.4788,-52.0062 852.0144,-58.7149 864.2595,-64.4265"/>
<polygon fill="#9a32cd" stroke="#9a32cd" points="748.4319,-38.8955 738.4087,-42.3285 748.3851,-45.8953 748.4319,-38.8955"/>
<text text-anchor="middle" x="788" y="-52" font-family="Helvetica,sans-Serif" font-size="10.00" fill="#000000"> m_rates</text>
</g>
<!-- Node21 -->
<g id="node19" class="node">
<title>Node21</title>
<g id="a_node19"><a xlink:href="classCantera_1_1ImplicitSurfChem.html" target="_top" xlink:title="Advances the surface coverages of the associated set of SurfacePhase objects in time. ">
<polygon fill="#ffffff" stroke="#000000" points="604,-.5 604,-19.5 696,-19.5 696,-.5 604,-.5"/>
<text text-anchor="middle" x="650" y="-7.5" font-family="Helvetica,sans-Serif" font-size="10.00" fill="#000000">ImplicitSurfChem</text>
</a>
</g>
</g>
<!-- Node21&#45;&gt;Node19 -->
<g id="edge28" class="edge">
<title>Node21&#45;&gt;Node19</title>
<path fill="none" stroke="#9a32cd" stroke-dasharray="5,2" d="M706.4559,-8.6883C740.3928,-9.6582 783.8633,-14.0635 820,-28 841.2279,-36.1868 861.726,-53.439 873.3101,-64.3325"/>
<polygon fill="#9a32cd" stroke="#9a32cd" points="706.3144,-5.185 696.2486,-8.4908 706.179,-12.1837 706.3144,-5.185"/>
<text text-anchor="middle" x="788" y="-31" font-family="Helvetica,sans-Serif" font-size="10.00" fill="#000000"> m_integrator</text>
</g>
<!-- Node22 -->
<g id="node20" class="node">
<title>Node22</title>
<g id="a_node20"><a xlink:href="classCantera_1_1FuncEval.html" target="_top" xlink:title="Virtual base class for ODE right&#45;hand&#45;side function evaluators. ">
<polygon fill="#ffffff" stroke="#000000" points="401.5,-.5 401.5,-19.5 459.5,-19.5 459.5,-.5 401.5,-.5"/>
<text text-anchor="middle" x="430.5" y="-7.5" font-family="Helvetica,sans-Serif" font-size="10.00" fill="#000000">FuncEval</text>
</a>
</g>
</g>
<!-- Node22&#45;&gt;Node21 -->
<g id="edge29" class="edge">
<title>Node22&#45;&gt;Node21</title>
<path fill="none" stroke="#191970" d="M469.7172,-10C507.3267,-10 564.1095,-10 603.8727,-10"/>
<polygon fill="#191970" stroke="#191970" points="469.6479,-6.5001 459.6479,-10 469.6479,-13.5001 469.6479,-6.5001"/>
</g>
</g>
</svg>
