<?xml version="1.0" encoding="UTF-8" standalone="no"?>
<!DOCTYPE svg PUBLIC "-//W3C//DTD SVG 1.1//EN"
 "http://www.w3.org/Graphics/SVG/1.1/DTD/svg11.dtd">
<!-- Generated by graphviz version 2.40.1 (20161225.0304)
 -->
<!-- Title: GasKinetics Pages: 1 -->
<svg width="841pt" height="260pt"
 viewBox="0.00 0.00 841.00 260.00" xmlns="http://www.w3.org/2000/svg" xmlns:xlink="http://www.w3.org/1999/xlink">
<g id="graph0" class="graph" transform="scale(1 1) rotate(0) translate(4 256)">
<title>GasKinetics</title>
<polygon fill="#ffffff" stroke="transparent" points="-4,4 -4,-256 837,-256 837,4 -4,4"/>
<!-- Node4 -->
<g id="node1" class="node">
<title>Node4</title>
<polygon fill="#bfbfbf" stroke="#000000" points="763,-109.5 763,-128.5 833,-128.5 833,-109.5 763,-109.5"/>
<text text-anchor="middle" x="798" y="-116.5" font-family="Helvetica,sans-Serif" font-size="10.00" fill="#000000">GasKinetics</text>
</g>
<!-- Node5 -->
<g id="node2" class="node">
<title>Node5</title>
<g id="a_node2"><a xlink:href="classCantera_1_1BulkKinetics.html" target="_top" xlink:title="Partial specialization of Kinetics for chemistry in a single bulk phase. ">
<polygon fill="#ffffff" stroke="#000000" points="544.5,-222.5 544.5,-241.5 615.5,-241.5 615.5,-222.5 544.5,-222.5"/>
<text text-anchor="middle" x="580" y="-229.5" font-family="Helvetica,sans-Serif" font-size="10.00" fill="#000000">BulkKinetics</text>
</a>
</g>
</g>
<!-- Node5&#45;&gt;Node4 -->
<g id="edge1" class="edge">
<title>Node5&#45;&gt;Node4</title>
<path fill="none" stroke="#191970" d="M625.8007,-230.9692C661.0432,-228.1755 709.5544,-219.804 745,-196 770.4631,-178.8998 787.2165,-145.0796 794.2417,-128.5481"/>
<polygon fill="#191970" stroke="#191970" points="625.52,-227.4801 615.7773,-231.643 625.9896,-234.4644 625.52,-227.4801"/>
</g>
<!-- Node6 -->
<g id="node3" class="node">
<title>Node6</title>
<g id="a_node3"><a xlink:href="classCantera_1_1Kinetics.html" target="_top" xlink:title="Public interface for kinetics managers. ">
<polygon fill="#ffffff" stroke="#000000" points="328.5,-231.5 328.5,-250.5 380.5,-250.5 380.5,-231.5 328.5,-231.5"/>
<text text-anchor="middle" x="354.5" y="-238.5" font-family="Helvetica,sans-Serif" font-size="10.00" fill="#000000">Kinetics</text>
</a>
</g>
</g>
<!-- Node6&#45;&gt;Node5 -->
<g id="edge2" class="edge">
<title>Node6&#45;&gt;Node5</title>
<path fill="none" stroke="#191970" d="M390.9307,-239.546C433.1526,-237.8609 502.2856,-235.1017 544.226,-233.4278"/>
<polygon fill="#191970" stroke="#191970" points="390.6615,-236.0539 380.809,-239.95 390.9407,-243.0483 390.6615,-236.0539"/>
</g>
<!-- Node7 -->
<g id="node4" class="node">
<title>Node7</title>
<g id="a_node4"><a xlink:href="classCantera_1_1ValueCache.html" target="_top" xlink:title="ValueCache">
<polygon fill="#ffffff" stroke="#000000" points="121.5,-231.5 121.5,-250.5 191.5,-250.5 191.5,-231.5 121.5,-231.5"/>
<text text-anchor="middle" x="156.5" y="-238.5" font-family="Helvetica,sans-Serif" font-size="10.00" fill="#000000">ValueCache</text>
</a>
</g>
</g>
<!-- Node7&#45;&gt;Node6 -->
<g id="edge3" class="edge">
<title>Node7&#45;&gt;Node6</title>
<path fill="none" stroke="#9a32cd" stroke-dasharray="5,2" d="M201.9711,-241C241.0702,-241 296.0984,-241 328.2582,-241"/>
<polygon fill="#9a32cd" stroke="#9a32cd" points="201.8985,-237.5001 191.8984,-241 201.8984,-244.5001 201.8985,-237.5001"/>
<text text-anchor="middle" x="243.5" y="-244" font-family="Helvetica,sans-Serif" font-size="10.00" fill="#000000"> m_cache</text>
</g>
<!-- Node8 -->
<g id="node5" class="node">
<title>Node8</title>
<g id="a_node5"><a xlink:href="classCantera_1_1Rate1.html" target="_top" xlink:title="Rate1\&lt; Cantera::Arrhenius \&gt;">
<polygon fill="#ffffff" stroke="#000000" points="283,-183.5 283,-202.5 426,-202.5 426,-183.5 283,-183.5"/>
<text text-anchor="middle" x="354.5" y="-190.5" font-family="Helvetica,sans-Serif" font-size="10.00" fill="#000000">Rate1&lt; Cantera::Arrhenius &gt;</text>
</a>
</g>
</g>
<!-- Node8&#45;&gt;Node4 -->
<g id="edge5" class="edge">
<title>Node8&#45;&gt;Node4</title>
<path fill="none" stroke="#9a32cd" stroke-dasharray="5,2" d="M436.0711,-190.2389C516.1355,-185.7977 641.0218,-174.2136 745,-144 757.7005,-140.3095 771.1693,-133.9204 781.351,-128.525"/>
<polygon fill="#9a32cd" stroke="#9a32cd" points="435.8497,-186.7456 426.0492,-190.7704 436.2205,-193.7358 435.8497,-186.7456"/>
<text text-anchor="middle" x="580" y="-198" font-family="Helvetica,sans-Serif" font-size="10.00" fill="#000000"> m_falloff_low_rates</text>
<text text-anchor="middle" x="580" y="-187" font-family="Helvetica,sans-Serif" font-size="10.00" fill="#000000">m_falloff_high_rates</text>
</g>
<!-- Node8&#45;&gt;Node5 -->
<g id="edge4" class="edge">
<title>Node8&#45;&gt;Node5</title>
<path fill="none" stroke="#9a32cd" stroke-dasharray="5,2" d="M419.7538,-204.2856C460.3599,-211.3084 511.0235,-220.0706 544.3836,-225.8402"/>
<polygon fill="#9a32cd" stroke="#9a32cd" points="420.1137,-200.7959 409.6635,-202.5405 418.9207,-207.6935 420.1137,-200.7959"/>
<text text-anchor="middle" x="467.5" y="-218" font-family="Helvetica,sans-Serif" font-size="10.00" fill="#000000"> m_rates</text>
</g>
<!-- Node9 -->
<g id="node6" class="node">
<title>Node9</title>
<g id="a_node6"><a xlink:href="classCantera_1_1Rate1.html" target="_top" xlink:title="Rate1\&lt; Cantera::Plog \&gt;">
<polygon fill="#ffffff" stroke="#000000" points="519.5,-126.5 519.5,-145.5 640.5,-145.5 640.5,-126.5 519.5,-126.5"/>
<text text-anchor="middle" x="580" y="-133.5" font-family="Helvetica,sans-Serif" font-size="10.00" fill="#000000">Rate1&lt; Cantera::Plog &gt;</text>
</a>
</g>
</g>
<!-- Node9&#45;&gt;Node4 -->
<g id="edge6" class="edge">
<title>Node9&#45;&gt;Node4</title>
<path fill="none" stroke="#9a32cd" stroke-dasharray="5,2" d="M651.0743,-130.4575C688.4678,-127.5415 732.6645,-124.095 762.7474,-121.7491"/>
<polygon fill="#9a32cd" stroke="#9a32cd" points="650.4227,-126.9976 640.7252,-131.2646 650.967,-133.9764 650.4227,-126.9976"/>
<text text-anchor="middle" x="707" y="-132" font-family="Helvetica,sans-Serif" font-size="10.00" fill="#000000"> m_plog_rates</text>
</g>
<!-- Node10 -->
<g id="node7" class="node">
<title>Node10</title>
<g id="a_node7"><a xlink:href="classCantera_1_1FalloffMgr.html" target="_top" xlink:title="A falloff manager that implements any set of falloff functions. ">
<polygon fill="#ffffff" stroke="#000000" points="550,-88.5 550,-107.5 610,-107.5 610,-88.5 550,-88.5"/>
<text text-anchor="middle" x="580" y="-95.5" font-family="Helvetica,sans-Serif" font-size="10.00" fill="#000000">FalloffMgr</text>
</a>
</g>
</g>
<!-- Node10&#45;&gt;Node4 -->
<g id="edge7" class="edge">
<title>Node10&#45;&gt;Node4</title>
<path fill="none" stroke="#9a32cd" stroke-dasharray="5,2" d="M620.547,-98.8301C654.0438,-99.9056 702.7753,-102.3685 745,-108 750.7753,-108.7702 756.8619,-109.8126 762.7702,-110.9501"/>
<polygon fill="#9a32cd" stroke="#9a32cd" points="620.3327,-95.3224 610.2343,-98.5274 620.1273,-102.3194 620.3327,-95.3224"/>
<text text-anchor="middle" x="707" y="-111" font-family="Helvetica,sans-Serif" font-size="10.00" fill="#000000"> m_falloffn</text>
</g>
<!-- Node11 -->
<g id="node8" class="node">
<title>Node11</title>
<g id="a_node8"><a xlink:href="classCantera_1_1FalloffFactory.html" target="_top" xlink:title="Factory class to construct falloff function calculators. ">
<polygon fill="#ffffff" stroke="#000000" points="316,-88.5 316,-107.5 393,-107.5 393,-88.5 316,-88.5"/>
<text text-anchor="middle" x="354.5" y="-95.5" font-family="Helvetica,sans-Serif" font-size="10.00" fill="#000000">FalloffFactory</text>
</a>
</g>
</g>
<!-- Node11&#45;&gt;Node10 -->
<g id="edge8" class="edge">
<title>Node11&#45;&gt;Node10</title>
<path fill="none" stroke="#9a32cd" stroke-dasharray="5,2" d="M403.0463,-98C447.6632,-98 512.3984,-98 549.9474,-98"/>
<polygon fill="#9a32cd" stroke="#9a32cd" points="403.0086,-94.5001 393.0086,-98 403.0086,-101.5001 403.0086,-94.5001"/>
<text text-anchor="middle" x="467.5" y="-101" font-family="Helvetica,sans-Serif" font-size="10.00" fill="#000000"> m_factory</text>
</g>
<!-- Node11&#45;&gt;Node11 -->
<g id="edge11" class="edge">
<title>Node11&#45;&gt;Node11</title>
<path fill="none" stroke="#9a32cd" stroke-dasharray="5,2" d="M334.1306,-117.4C335.491,-122.3146 342.2808,-126 354.5,-126 374.0508,-126 379.7022,-116.5653 371.4542,-107.7571"/>
<polygon fill="#9a32cd" stroke="#9a32cd" points="337.5065,-118.3518 337.5458,-107.7571 330.9081,-116.0149 337.5065,-118.3518"/>
<text text-anchor="middle" x="354.5" y="-129" font-family="Helvetica,sans-Serif" font-size="10.00" fill="#000000"> s_factory</text>
</g>
<!-- Node12 -->
<g id="node9" class="node">
<title>Node12</title>
<g id="a_node9"><a xlink:href="classCantera_1_1Factory.html" target="_top" xlink:title="Factory\&lt; Falloff \&gt;">
<polygon fill="#ffffff" stroke="#000000" points="109,-88.5 109,-107.5 204,-107.5 204,-88.5 109,-88.5"/>
<text text-anchor="middle" x="156.5" y="-95.5" font-family="Helvetica,sans-Serif" font-size="10.00" fill="#000000">Factory&lt; Falloff &gt;</text>
</a>
</g>
</g>
<!-- Node12&#45;&gt;Node11 -->
<g id="edge9" class="edge">
<title>Node12&#45;&gt;Node11</title>
<path fill="none" stroke="#191970" d="M214.5019,-98C247.1533,-98 287.0312,-98 315.8623,-98"/>
<polygon fill="#191970" stroke="#191970" points="214.1779,-94.5001 204.1779,-98 214.1779,-101.5001 214.1779,-94.5001"/>
</g>
<!-- Node13 -->
<g id="node10" class="node">
<title>Node13</title>
<g id="a_node10"><a xlink:href="classCantera_1_1FactoryBase.html" target="_top" xlink:title="Base class for factories. ">
<polygon fill="#ffffff" stroke="#000000" points="0,-88.5 0,-107.5 72,-107.5 72,-88.5 0,-88.5"/>
<text text-anchor="middle" x="36" y="-95.5" font-family="Helvetica,sans-Serif" font-size="10.00" fill="#000000">FactoryBase</text>
</a>
</g>
</g>
<!-- Node13&#45;&gt;Node12 -->
<g id="edge10" class="edge">
<title>Node13&#45;&gt;Node12</title>
<path fill="none" stroke="#191970" d="M82.4342,-98C91.0667,-98 100.0992,-98 108.7698,-98"/>
<polygon fill="#191970" stroke="#191970" points="82.154,-94.5001 72.154,-98 82.1539,-101.5001 82.154,-94.5001"/>
</g>
<!-- Node14 -->
<g id="node11" class="node">
<title>Node14</title>
<g id="a_node11"><a xlink:href="classCantera_1_1Rate1.html" target="_top" xlink:title="Rate1\&lt; Cantera::Chebyshev\lRate \&gt;">
<polygon fill="#ffffff" stroke="#000000" points="509,-39 509,-69 651,-69 651,-39 509,-39"/>
<text text-anchor="start" x="517" y="-57" font-family="Helvetica,sans-Serif" font-size="10.00" fill="#000000">Rate1&lt; Cantera::Chebyshev</text>
<text text-anchor="middle" x="580" y="-46" font-family="Helvetica,sans-Serif" font-size="10.00" fill="#000000">Rate &gt;</text>
</a>
</g>
</g>
<!-- Node14&#45;&gt;Node4 -->
<g id="edge12" class="edge">
<title>Node14&#45;&gt;Node4</title>
<path fill="none" stroke="#9a32cd" stroke-dasharray="5,2" d="M660.9562,-63.6468C688.2606,-68.4766 718.5126,-75.5974 745,-86 759.9318,-91.8643 775.3128,-101.9775 785.633,-109.4669"/>
<polygon fill="#9a32cd" stroke="#9a32cd" points="661.4863,-60.1868 651.0425,-61.9693 660.3184,-67.0887 661.4863,-60.1868"/>
<text text-anchor="middle" x="707" y="-89" font-family="Helvetica,sans-Serif" font-size="10.00" fill="#000000"> m_cheb_rates</text>
</g>
<!-- Node15 -->
<g id="node12" class="node">
<title>Node15</title>
<g id="a_node12"><a xlink:href="classCantera_1_1ThirdBodyCalc.html" target="_top" xlink:title="Calculate and apply third&#45;body effects on reaction rates, including non&#45; unity third&#45;body efficiencie...">
<polygon fill="#ffffff" stroke="#000000" points="539.5,-.5 539.5,-19.5 620.5,-19.5 620.5,-.5 539.5,-.5"/>
<text text-anchor="middle" x="580" y="-7.5" font-family="Helvetica,sans-Serif" font-size="10.00" fill="#000000">ThirdBodyCalc</text>
</a>
</g>
</g>
<!-- Node15&#45;&gt;Node4 -->
<g id="edge13" class="edge">
<title>Node15&#45;&gt;Node4</title>
<path fill="none" stroke="#9a32cd" stroke-dasharray="5,2" d="M630.9565,-8.7665C665.6678,-10.237 711.2634,-16.9049 745,-39 771.4808,-56.3431 787.8488,-92.0099 794.5285,-109.2479"/>
<polygon fill="#9a32cd" stroke="#9a32cd" points="630.6557,-5.2564 620.5586,-8.4657 630.4532,-12.2535 630.6557,-5.2564"/>
<text text-anchor="middle" x="707" y="-53" font-family="Helvetica,sans-Serif" font-size="10.00" fill="#000000"> m_falloff_concm</text>
<text text-anchor="middle" x="707" y="-42" font-family="Helvetica,sans-Serif" font-size="10.00" fill="#000000">m_3b_concm</text>
</g>
</g>
</svg>
