<?xml version="1.0" encoding="UTF-8" standalone="no"?>
<!DOCTYPE svg PUBLIC "-//W3C//DTD SVG 1.1//EN"
 "http://www.w3.org/Graphics/SVG/1.1/DTD/svg11.dtd">
<!-- Generated by graphviz version 2.40.1 (20161225.0304)
 -->
<!-- Title: EdgeKinetics.h Pages: 1 -->
<svg width="821pt" height="308pt"
 viewBox="0.00 0.00 820.50 308.00" xmlns="http://www.w3.org/2000/svg" xmlns:xlink="http://www.w3.org/1999/xlink">
<g id="graph0" class="graph" transform="scale(1 1) rotate(0) translate(4 304)">
<title>EdgeKinetics.h</title>
<polygon fill="#ffffff" stroke="transparent" points="-4,4 -4,-304 816.5,-304 816.5,4 -4,4"/>
<!-- Node0 -->
<g id="node1" class="node">
<title>Node0</title>
<polygon fill="#bfbfbf" stroke="#000000" points="430.5,-280.5 430.5,-299.5 513.5,-299.5 513.5,-280.5 430.5,-280.5"/>
<text text-anchor="middle" x="472" y="-287.5" font-family="Helvetica,sans-Serif" font-size="10.00" fill="#000000">EdgeKinetics.h</text>
</g>
<!-- Node1 -->
<g id="node2" class="node">
<title>Node1</title>
<g id="a_node2"><a xlink:href="InterfaceKinetics_8h.html" target="_top" xlink:title="InterfaceKinetics.h">
<polygon fill="#ffffff" stroke="#000000" points="423,-224.5 423,-243.5 521,-243.5 521,-224.5 423,-224.5"/>
<text text-anchor="middle" x="472" y="-231.5" font-family="Helvetica,sans-Serif" font-size="10.00" fill="#000000">InterfaceKinetics.h</text>
</a>
</g>
</g>
<!-- Node0&#45;&gt;Node1 -->
<g id="edge1" class="edge">
<title>Node0&#45;&gt;Node1</title>
<path fill="none" stroke="#191970" d="M472,-280.2455C472,-272.9382 472,-262.6944 472,-253.7046"/>
<polygon fill="#191970" stroke="#191970" points="475.5001,-253.6426 472,-243.6427 468.5001,-253.6427 475.5001,-253.6426"/>
</g>
<!-- Node2 -->
<g id="node3" class="node">
<title>Node2</title>
<g id="a_node3"><a xlink:href="Kinetics_8h.html" target="_top" xlink:title="Base class for kinetics managers and also contains the kineticsmgr module documentation (see Kinetics...">
<polygon fill="#ffffff" stroke="#000000" points="302,-168.5 302,-187.5 362,-187.5 362,-168.5 302,-168.5"/>
<text text-anchor="middle" x="332" y="-175.5" font-family="Helvetica,sans-Serif" font-size="10.00" fill="#000000">Kinetics.h</text>
</a>
</g>
</g>
<!-- Node1&#45;&gt;Node2 -->
<g id="edge2" class="edge">
<title>Node1&#45;&gt;Node2</title>
<path fill="none" stroke="#191970" d="M447.9331,-224.3733C425.1572,-215.2629 390.7656,-201.5062 365.351,-191.3404"/>
<polygon fill="#191970" stroke="#191970" points="366.3375,-187.9654 355.7528,-187.5011 363.7377,-194.4648 366.3375,-187.9654"/>
</g>
<!-- Node34 -->
<g id="node11" class="node">
<title>Node34</title>
<g id="a_node11"><a xlink:href="Reaction_8h.html" target="_top" xlink:title="cantera/kinetics/Reaction.h">
<polygon fill="#ffffff" stroke="#000000" points="481,-112.5 481,-131.5 617,-131.5 617,-112.5 481,-112.5"/>
<text text-anchor="middle" x="549" y="-119.5" font-family="Helvetica,sans-Serif" font-size="10.00" fill="#000000">cantera/kinetics/Reaction.h</text>
</a>
</g>
</g>
<!-- Node1&#45;&gt;Node34 -->
<g id="edge19" class="edge">
<title>Node1&#45;&gt;Node34</title>
<path fill="none" stroke="#191970" d="M478.565,-224.4509C491.4077,-205.7707 520.0399,-164.1238 536.5726,-140.0761"/>
<polygon fill="#191970" stroke="#191970" points="539.6705,-141.7482 542.4516,-131.5249 533.9022,-137.7825 539.6705,-141.7482"/>
</g>
<!-- Node35 -->
<g id="node12" class="node">
<title>Node35</title>
<g id="a_node12"><a xlink:href="utilities_8h.html" target="_top" xlink:title="Various templated functions that carry out common vector operations (see Templated Utility Functions)...">
<polygon fill="#ffffff" stroke="#ff0000" points="395.5,-56.5 395.5,-75.5 510.5,-75.5 510.5,-56.5 395.5,-56.5"/>
<text text-anchor="middle" x="453" y="-63.5" font-family="Helvetica,sans-Serif" font-size="10.00" fill="#000000">cantera/base/utilities.h</text>
</a>
</g>
</g>
<!-- Node1&#45;&gt;Node35 -->
<g id="edge20" class="edge">
<title>Node1&#45;&gt;Node35</title>
<path fill="none" stroke="#191970" d="M470.924,-224.4862C467.9206,-197.9293 459.3972,-122.5651 455.2806,-86.1655"/>
<polygon fill="#191970" stroke="#191970" points="458.7132,-85.3712 454.1115,-75.8279 451.7575,-86.1579 458.7132,-85.3712"/>
</g>
<!-- Node42 -->
<g id="node15" class="node">
<title>Node42</title>
<g id="a_node15"><a xlink:href="RateCoeffMgr_8h.html" target="_top" xlink:title="RateCoeffMgr.h">
<polygon fill="#ffffff" stroke="#000000" points="575,-168.5 575,-187.5 661,-187.5 661,-168.5 575,-168.5"/>
<text text-anchor="middle" x="618" y="-175.5" font-family="Helvetica,sans-Serif" font-size="10.00" fill="#000000">RateCoeffMgr.h</text>
</a>
</g>
</g>
<!-- Node1&#45;&gt;Node42 -->
<g id="edge21" class="edge">
<title>Node1&#45;&gt;Node42</title>
<path fill="none" stroke="#191970" d="M497.0983,-224.3733C520.9555,-215.2226 557.0335,-201.3844 583.571,-191.2057"/>
<polygon fill="#191970" stroke="#191970" points="585.1459,-194.3503 593.2292,-187.5011 582.639,-187.8145 585.1459,-194.3503"/>
</g>
<!-- Node3 -->
<g id="node4" class="node">
<title>Node3</title>
<g id="a_node4"><a xlink:href="ThermoPhase_8h.html" target="_top" xlink:title="Header file for class ThermoPhase, the base class for phases with thermodynamic properties, and the text for the Module thermoprops (see Thermodynamic Properties and class ThermoPhase). ">
<polygon fill="#ffffff" stroke="#000000" points="90,-112.5 90,-131.5 244,-131.5 244,-112.5 90,-112.5"/>
<text text-anchor="middle" x="167" y="-119.5" font-family="Helvetica,sans-Serif" font-size="10.00" fill="#000000">cantera/thermo/ThermoPhase.h</text>
</a>
</g>
</g>
<!-- Node2&#45;&gt;Node3 -->
<g id="edge3" class="edge">
<title>Node2&#45;&gt;Node3</title>
<path fill="none" stroke="#191970" d="M303.6355,-168.3733C276.3173,-159.1016 234.8204,-145.0178 204.7262,-134.804"/>
<polygon fill="#191970" stroke="#191970" points="205.5887,-131.4008 194.9944,-131.5011 203.339,-138.0294 205.5887,-131.4008"/>
</g>
<!-- Node22 -->
<g id="node8" class="node">
<title>Node22</title>
<g id="a_node8"><a xlink:href="global_8h.html" target="_top" xlink:title="This file contains definitions for utility functions and text for modules, inputfiles, logs, textlogs, (see Input File Handling, Diagnostic Output, and Writing messages to the screen). ">
<polygon fill="#ffffff" stroke="#ff0000" points="0,-.5 0,-19.5 110,-19.5 110,-.5 0,-.5"/>
<text text-anchor="middle" x="55" y="-7.5" font-family="Helvetica,sans-Serif" font-size="10.00" fill="#000000">cantera/base/global.h</text>
</a>
</g>
</g>
<!-- Node2&#45;&gt;Node22 -->
<g id="edge18" class="edge">
<title>Node2&#45;&gt;Node22</title>
<path fill="none" stroke="#191970" d="M301.681,-176.1302C242.4228,-171.8981 114.1303,-159.7156 81,-132 51.2182,-107.0856 50.3997,-57.2256 52.5828,-29.5839"/>
<polygon fill="#191970" stroke="#191970" points="56.0739,-29.8465 53.5882,-19.5474 49.1088,-29.1487 56.0739,-29.8465"/>
</g>
<!-- Node32 -->
<g id="node9" class="node">
<title>Node32</title>
<g id="a_node9"><a xlink:href="StoichManager_8h.html" target="_top" xlink:title="StoichManager.h">
<polygon fill="#ffffff" stroke="#000000" points="287,-56.5 287,-75.5 377,-75.5 377,-56.5 287,-56.5"/>
<text text-anchor="middle" x="332" y="-63.5" font-family="Helvetica,sans-Serif" font-size="10.00" fill="#000000">StoichManager.h</text>
</a>
</g>
</g>
<!-- Node2&#45;&gt;Node32 -->
<g id="edge8" class="edge">
<title>Node2&#45;&gt;Node32</title>
<path fill="none" stroke="#191970" d="M332,-168.4509C332,-150.184 332,-109.9553 332,-85.6976"/>
<polygon fill="#191970" stroke="#191970" points="335.5001,-85.5249 332,-75.5249 328.5001,-85.5249 335.5001,-85.5249"/>
</g>
<!-- Node2&#45;&gt;Node34 -->
<g id="edge11" class="edge">
<title>Node2&#45;&gt;Node34</title>
<path fill="none" stroke="#191970" d="M362.1729,-170.2134C398.3981,-160.865 459.5662,-145.0797 501.9983,-134.1295"/>
<polygon fill="#191970" stroke="#191970" points="503.0115,-137.4827 511.8197,-131.5949 501.2624,-130.7048 503.0115,-137.4827"/>
</g>
<!-- Node4 -->
<g id="node5" class="node">
<title>Node4</title>
<g id="a_node5"><a xlink:href="Phase_8h.html" target="_top" xlink:title="Header file for class Phase. ">
<polygon fill="#ffffff" stroke="#ff0000" points="83.5,-56.5 83.5,-75.5 136.5,-75.5 136.5,-56.5 83.5,-56.5"/>
<text text-anchor="middle" x="110" y="-63.5" font-family="Helvetica,sans-Serif" font-size="10.00" fill="#000000">Phase.h</text>
</a>
</g>
</g>
<!-- Node3&#45;&gt;Node4 -->
<g id="edge4" class="edge">
<title>Node3&#45;&gt;Node4</title>
<path fill="none" stroke="#191970" d="M157.0714,-112.2455C148.8162,-104.1352 136.8791,-92.4075 127.0918,-82.7919"/>
<polygon fill="#191970" stroke="#191970" points="129.4011,-80.1542 119.8149,-75.6427 124.4954,-85.1476 129.4011,-80.1542"/>
</g>
<!-- Node29 -->
<g id="node7" class="node">
<title>Node29</title>
<g id="a_node7"><a xlink:href="MultiSpeciesThermo_8h.html" target="_top" xlink:title="Header for a general species thermodynamic property manager for a phase (see MultiSpeciesThermo). ">
<polygon fill="#ffffff" stroke="#ff0000" points="155,-56.5 155,-75.5 269,-75.5 269,-56.5 155,-56.5"/>
<text text-anchor="middle" x="212" y="-63.5" font-family="Helvetica,sans-Serif" font-size="10.00" fill="#000000">MultiSpeciesThermo.h</text>
</a>
</g>
</g>
<!-- Node3&#45;&gt;Node29 -->
<g id="edge6" class="edge">
<title>Node3&#45;&gt;Node29</title>
<path fill="none" stroke="#191970" d="M174.8384,-112.2455C181.162,-104.3761 190.2224,-93.101 197.8136,-83.6542"/>
<polygon fill="#191970" stroke="#191970" points="200.7158,-85.6302 204.2514,-75.6427 195.2592,-81.2454 200.7158,-85.6302"/>
</g>
<!-- Node3&#45;&gt;Node22 -->
<g id="edge7" class="edge">
<title>Node3&#45;&gt;Node22</title>
<path fill="none" stroke="#191970" d="M132.0431,-112.4368C112.3944,-105.375 88.8961,-93.8339 74,-76 63.1434,-63.0023 58.485,-44.1114 56.489,-29.8674"/>
<polygon fill="#191970" stroke="#191970" points="59.9388,-29.2109 55.3915,-19.6415 52.9787,-29.958 59.9388,-29.2109"/>
</g>
<!-- Node5 -->
<g id="node6" class="node">
<title>Node5</title>
<g id="a_node6"><a xlink:href="ctexceptions_8h.html" target="_top" xlink:title="Definitions for the classes that are thrown when Cantera experiences an error condition (also contain...">
<polygon fill="#ffffff" stroke="#ff0000" points="262,-.5 262,-19.5 402,-19.5 402,-.5 262,-.5"/>
<text text-anchor="middle" x="332" y="-7.5" font-family="Helvetica,sans-Serif" font-size="10.00" fill="#000000">cantera/base/ctexceptions.h</text>
</a>
</g>
</g>
<!-- Node4&#45;&gt;Node5 -->
<g id="edge5" class="edge">
<title>Node4&#45;&gt;Node5</title>
<path fill="none" stroke="#191970" d="M136.7134,-58.4884C139.8406,-57.6361 142.9884,-56.7905 146,-56 191.879,-43.9573 244.3559,-31.0586 281.8463,-21.9937"/>
<polygon fill="#191970" stroke="#191970" points="283.1051,-25.2905 292.0051,-19.5425 281.4631,-18.4858 283.1051,-25.2905"/>
</g>
<!-- Node32&#45;&gt;Node5 -->
<g id="edge10" class="edge">
<title>Node32&#45;&gt;Node5</title>
<path fill="none" stroke="#191970" d="M332,-56.2455C332,-48.9382 332,-38.6944 332,-29.7046"/>
<polygon fill="#191970" stroke="#191970" points="335.5001,-29.6426 332,-19.6427 328.5001,-29.6427 335.5001,-29.6426"/>
</g>
<!-- Node33 -->
<g id="node10" class="node">
<title>Node33</title>
<g id="a_node10"><a xlink:href="stringUtils_8h.html" target="_top" xlink:title="Contains declarations for string manipulation functions within Cantera. ">
<polygon fill="#ffffff" stroke="#ff0000" points="549,-.5 549,-19.5 677,-19.5 677,-.5 549,-.5"/>
<text text-anchor="middle" x="613" y="-7.5" font-family="Helvetica,sans-Serif" font-size="10.00" fill="#000000">cantera/base/stringUtils.h</text>
</a>
</g>
</g>
<!-- Node32&#45;&gt;Node33 -->
<g id="edge9" class="edge">
<title>Node32&#45;&gt;Node33</title>
<path fill="none" stroke="#191970" d="M377.1475,-57.0026C425.5357,-47.3594 502.494,-32.0226 555.2572,-21.5075"/>
<polygon fill="#191970" stroke="#191970" points="556.0201,-24.9243 565.1432,-19.5373 554.6519,-18.0593 556.0201,-24.9243"/>
</g>
<!-- Node34&#45;&gt;Node35 -->
<g id="edge12" class="edge">
<title>Node34&#45;&gt;Node35</title>
<path fill="none" stroke="#191970" d="M532.2781,-112.2455C517.4111,-103.5731 495.4534,-90.7645 478.4142,-80.825"/>
<polygon fill="#191970" stroke="#191970" points="479.9317,-77.6582 469.5303,-75.6427 476.4045,-83.7047 479.9317,-77.6582"/>
</g>
<!-- Node38 -->
<g id="node13" class="node">
<title>Node38</title>
<g id="a_node13"><a xlink:href="RxnRates_8h.html" target="_top" xlink:title="cantera/kinetics/RxnRates.h">
<polygon fill="#ffffff" stroke="#ff0000" points="671.5,-56.5 671.5,-75.5 812.5,-75.5 812.5,-56.5 671.5,-56.5"/>
<text text-anchor="middle" x="742" y="-63.5" font-family="Helvetica,sans-Serif" font-size="10.00" fill="#000000">cantera/kinetics/RxnRates.h</text>
</a>
</g>
</g>
<!-- Node34&#45;&gt;Node38 -->
<g id="edge14" class="edge">
<title>Node34&#45;&gt;Node38</title>
<path fill="none" stroke="#191970" d="M582.1779,-112.3733C614.5487,-102.9807 663.9398,-88.6496 699.2424,-78.4064"/>
<polygon fill="#191970" stroke="#191970" points="700.6265,-81.6492 709.2551,-75.5011 698.6758,-74.9264 700.6265,-81.6492"/>
</g>
<!-- Node41 -->
<g id="node14" class="node">
<title>Node41</title>
<g id="a_node14"><a xlink:href="Falloff_8h_source.html" target="_top" xlink:title="cantera/kinetics/Falloff.h">
<polygon fill="#ffffff" stroke="#ff0000" points="529,-56.5 529,-75.5 653,-75.5 653,-56.5 529,-56.5"/>
<text text-anchor="middle" x="591" y="-63.5" font-family="Helvetica,sans-Serif" font-size="10.00" fill="#000000">cantera/kinetics/Falloff.h</text>
</a>
</g>
</g>
<!-- Node34&#45;&gt;Node41 -->
<g id="edge17" class="edge">
<title>Node34&#45;&gt;Node41</title>
<path fill="none" stroke="#191970" d="M556.3158,-112.2455C562.2179,-104.3761 570.6742,-93.101 577.7594,-83.6542"/>
<polygon fill="#191970" stroke="#191970" points="580.568,-85.7427 583.768,-75.6427 574.9679,-81.5427 580.568,-85.7427"/>
</g>
<!-- Node35&#45;&gt;Node22 -->
<g id="edge13" class="edge">
<title>Node35&#45;&gt;Node22</title>
<path fill="none" stroke="#191970" d="M395.2619,-57.3447C392.1294,-56.8869 389.0265,-56.4362 386,-56 293.6915,-42.6975 186.7994,-27.9637 120.0344,-18.8411"/>
<polygon fill="#191970" stroke="#191970" points="120.4585,-15.3666 110.0769,-17.4815 119.5114,-22.3022 120.4585,-15.3666"/>
</g>
<!-- Node38&#45;&gt;Node5 -->
<g id="edge15" class="edge">
<title>Node38&#45;&gt;Node5</title>
<path fill="none" stroke="#191970" d="M671.9843,-56.4369C599.7522,-46.571 487.2712,-31.2078 411.6787,-20.8829"/>
<polygon fill="#191970" stroke="#191970" points="412.1086,-17.4092 401.7269,-19.5237 411.1612,-24.3448 412.1086,-17.4092"/>
</g>
<!-- Node38&#45;&gt;Node33 -->
<g id="edge16" class="edge">
<title>Node38&#45;&gt;Node33</title>
<path fill="none" stroke="#191970" d="M719.8241,-56.3733C699.0234,-47.3435 667.7083,-33.7494 644.3542,-23.6111"/>
<polygon fill="#191970" stroke="#191970" points="645.4532,-20.2727 634.8865,-19.5011 642.6657,-26.6938 645.4532,-20.2727"/>
</g>
<!-- Node42&#45;&gt;Node38 -->
<g id="edge22" class="edge">
<title>Node42&#45;&gt;Node38</title>
<path fill="none" stroke="#191970" d="M628.5722,-168.4509C649.7115,-149.3574 697.4156,-106.2697 723.7251,-82.5063"/>
<polygon fill="#191970" stroke="#191970" points="726.3796,-84.8251 731.4546,-75.5249 721.6875,-79.6304 726.3796,-84.8251"/>
</g>
</g>
</svg>
