<?xml version="1.0" encoding="UTF-8" standalone="no"?>
<!DOCTYPE svg PUBLIC "-//W3C//DTD SVG 1.1//EN"
 "http://www.w3.org/Graphics/SVG/1.1/DTD/svg11.dtd">
<!-- Generated by graphviz version 2.40.1 (20161225.0304)
 -->
<!-- Title: FuncEval.h Pages: 1 -->
<svg width="1169pt" height="196pt"
 viewBox="0.00 0.00 1169.00 196.00" xmlns="http://www.w3.org/2000/svg" xmlns:xlink="http://www.w3.org/1999/xlink">
<g id="graph0" class="graph" transform="scale(1 1) rotate(0) translate(4 192)">
<title>FuncEval.h</title>
<polygon fill="#ffffff" stroke="transparent" points="-4,4 -4,-192 1165,-192 1165,4 -4,4"/>
<!-- Node16 -->
<g id="node1" class="node">
<title>Node16</title>
<polygon fill="#bfbfbf" stroke="#000000" points="529.5,-168.5 529.5,-187.5 595.5,-187.5 595.5,-168.5 529.5,-168.5"/>
<text text-anchor="middle" x="562.5" y="-175.5" font-family="Helvetica,sans-Serif" font-size="10.00" fill="#000000">FuncEval.h</text>
</g>
<!-- Node17 -->
<g id="node2" class="node">
<title>Node17</title>
<g id="a_node2"><a xlink:href="FuncEval_8cpp_source.html" target="_top" xlink:title="FuncEval.cpp">
<polygon fill="#ffffff" stroke="#000000" points="434,-112.5 434,-131.5 511,-131.5 511,-112.5 434,-112.5"/>
<text text-anchor="middle" x="472.5" y="-119.5" font-family="Helvetica,sans-Serif" font-size="10.00" fill="#000000">FuncEval.cpp</text>
</a>
</g>
</g>
<!-- Node16&#45;&gt;Node17 -->
<g id="edge1" class="edge">
<title>Node16&#45;&gt;Node17</title>
<path fill="none" stroke="#191970" d="M538.0216,-162.769C522.0734,-152.8456 501.749,-140.1994 487.9972,-131.6427"/>
<polygon fill="#191970" stroke="#191970" points="536.4835,-165.9342 546.8232,-168.2455 540.1817,-159.9908 536.4835,-165.9342"/>
</g>
<!-- Node18 -->
<g id="node3" class="node">
<title>Node18</title>
<g id="a_node3"><a xlink:href="Integrator_8h.html" target="_top" xlink:title="Integrator.h">
<polygon fill="#ffffff" stroke="#000000" points="529.5,-112.5 529.5,-131.5 595.5,-131.5 595.5,-112.5 529.5,-112.5"/>
<text text-anchor="middle" x="562.5" y="-119.5" font-family="Helvetica,sans-Serif" font-size="10.00" fill="#000000">Integrator.h</text>
</a>
</g>
</g>
<!-- Node16&#45;&gt;Node18 -->
<g id="edge2" class="edge">
<title>Node16&#45;&gt;Node18</title>
<path fill="none" stroke="#191970" d="M562.5,-158.1575C562.5,-149.155 562.5,-138.9199 562.5,-131.6427"/>
<polygon fill="#191970" stroke="#191970" points="559.0001,-158.2455 562.5,-168.2455 566.0001,-158.2456 559.0001,-158.2455"/>
</g>
<!-- Node26 -->
<g id="node11" class="node">
<title>Node26</title>
<g id="a_node11"><a xlink:href="ReactorNet_8h.html" target="_top" xlink:title="ReactorNet.h">
<polygon fill="#ffffff" stroke="#000000" points="728,-56.5 728,-75.5 803,-75.5 803,-56.5 728,-56.5"/>
<text text-anchor="middle" x="765.5" y="-63.5" font-family="Helvetica,sans-Serif" font-size="10.00" fill="#000000">ReactorNet.h</text>
</a>
</g>
</g>
<!-- Node16&#45;&gt;Node26 -->
<g id="edge18" class="edge">
<title>Node16&#45;&gt;Node26</title>
<path fill="none" stroke="#191970" d="M588.6527,-163.5709C630.8002,-140.3171 712.6182,-95.1761 748.2361,-75.5249"/>
<polygon fill="#191970" stroke="#191970" points="586.8727,-160.5556 579.8077,-168.4509 590.2542,-166.6846 586.8727,-160.5556"/>
</g>
<!-- Node19 -->
<g id="node4" class="node">
<title>Node19</title>
<g id="a_node4"><a xlink:href="ODE__integrators_8cpp.html" target="_top" xlink:title="ODE_integrators.cpp">
<polygon fill="#ffffff" stroke="#000000" points="477.5,-.5 477.5,-19.5 585.5,-19.5 585.5,-.5 477.5,-.5"/>
<text text-anchor="middle" x="531.5" y="-7.5" font-family="Helvetica,sans-Serif" font-size="10.00" fill="#000000">ODE_integrators.cpp</text>
</a>
</g>
</g>
<!-- Node18&#45;&gt;Node19 -->
<g id="edge3" class="edge">
<title>Node18&#45;&gt;Node19</title>
<path fill="none" stroke="#191970" d="M557.13,-102.5987C550.4219,-78.363 539.2099,-37.8551 534.1364,-19.5249"/>
<polygon fill="#191970" stroke="#191970" points="553.8161,-103.747 559.857,-112.4509 560.5625,-101.8796 553.8161,-103.747"/>
</g>
<!-- Node20 -->
<g id="node5" class="node">
<title>Node20</title>
<g id="a_node5"><a xlink:href="ImplicitSurfChem_8h.html" target="_top" xlink:title="Declarations for the implicit integration of surface site density equations (see Kinetics Managers an...">
<polygon fill="#ffffff" stroke="#000000" points="168,-56.5 168,-75.5 269,-75.5 269,-56.5 168,-56.5"/>
<text text-anchor="middle" x="218.5" y="-63.5" font-family="Helvetica,sans-Serif" font-size="10.00" fill="#000000">ImplicitSurfChem.h</text>
</a>
</g>
</g>
<!-- Node18&#45;&gt;Node20 -->
<g id="edge4" class="edge">
<title>Node18&#45;&gt;Node20</title>
<path fill="none" stroke="#191970" d="M519.2226,-112.0764C424.9151,-94.1541 326.9482,-80.25 269.0317,-72.5144"/>
<polygon fill="#191970" stroke="#191970" points="518.739,-115.5474 529.2193,-113.9942 520.0579,-108.6727 518.739,-115.5474"/>
</g>
<!-- Node24 -->
<g id="node9" class="node">
<title>Node24</title>
<g id="a_node9"><a xlink:href="CVodesIntegrator_8h.html" target="_top" xlink:title="CVodesIntegrator.h">
<polygon fill="#ffffff" stroke="#000000" points="433,-56.5 433,-75.5 534,-75.5 534,-56.5 433,-56.5"/>
<text text-anchor="middle" x="483.5" y="-63.5" font-family="Helvetica,sans-Serif" font-size="10.00" fill="#000000">CVodesIntegrator.h</text>
</a>
</g>
</g>
<!-- Node18&#45;&gt;Node24 -->
<g id="edge8" class="edge">
<title>Node18&#45;&gt;Node24</title>
<path fill="none" stroke="#191970" d="M540.2244,-106.2097C526.3495,-96.3743 508.9485,-84.0394 497.1031,-75.6427"/>
<polygon fill="#191970" stroke="#191970" points="538.5569,-109.3178 548.7393,-112.2455 542.6051,-103.6071 538.5569,-109.3178"/>
</g>
<!-- Node18&#45;&gt;Node26 -->
<g id="edge11" class="edge">
<title>Node18&#45;&gt;Node26</title>
<path fill="none" stroke="#191970" d="M605.6342,-110.1009C642.9246,-99.8139 696.1359,-85.1349 730.7464,-75.5872"/>
<polygon fill="#191970" stroke="#191970" points="604.2764,-106.8447 595.5673,-112.878 606.138,-113.5926 604.2764,-106.8447"/>
</g>
<!-- Node21 -->
<g id="node6" class="node">
<title>Node21</title>
<g id="a_node6"><a xlink:href="ImplicitSurfChem_8cpp.html" target="_top" xlink:title="Definitions for the implicit integration of surface site density equations (see Kinetics Managers and...">
<polygon fill="#ffffff" stroke="#000000" points="218,-.5 218,-19.5 329,-19.5 329,-.5 218,-.5"/>
<text text-anchor="middle" x="273.5" y="-7.5" font-family="Helvetica,sans-Serif" font-size="10.00" fill="#000000">ImplicitSurfChem.cpp</text>
</a>
</g>
</g>
<!-- Node20&#45;&gt;Node21 -->
<g id="edge5" class="edge">
<title>Node20&#45;&gt;Node21</title>
<path fill="none" stroke="#191970" d="M235.1226,-49.0751C244.5855,-39.4402 256.0969,-27.7196 264.0295,-19.6427"/>
<polygon fill="#191970" stroke="#191970" points="232.5903,-46.6585 228.0803,-56.2455 237.5845,-51.5635 232.5903,-46.6585"/>
</g>
<!-- Node22 -->
<g id="node7" class="node">
<title>Node22</title>
<g id="a_node7"><a xlink:href="InterfaceKinetics_8cpp.html" target="_top" xlink:title="InterfaceKinetics.cpp">
<polygon fill="#ffffff" stroke="#000000" points="0,-.5 0,-19.5 109,-19.5 109,-.5 0,-.5"/>
<text text-anchor="middle" x="54.5" y="-7.5" font-family="Helvetica,sans-Serif" font-size="10.00" fill="#000000">InterfaceKinetics.cpp</text>
</a>
</g>
</g>
<!-- Node20&#45;&gt;Node22 -->
<g id="edge6" class="edge">
<title>Node20&#45;&gt;Node22</title>
<path fill="none" stroke="#191970" d="M180.5956,-53.057C150.5816,-42.8084 109.3493,-28.729 82.3247,-19.5011"/>
<polygon fill="#191970" stroke="#191970" points="179.7129,-56.454 190.3074,-56.3733 181.9749,-49.8295 179.7129,-56.454"/>
</g>
<!-- Node23 -->
<g id="node8" class="node">
<title>Node23</title>
<g id="a_node8"><a xlink:href="solveSP_8cpp_source.html" target="_top" xlink:title="solveSP.cpp">
<polygon fill="#ffffff" stroke="#000000" points="127.5,-.5 127.5,-19.5 199.5,-19.5 199.5,-.5 127.5,-.5"/>
<text text-anchor="middle" x="163.5" y="-7.5" font-family="Helvetica,sans-Serif" font-size="10.00" fill="#000000">solveSP.cpp</text>
</a>
</g>
</g>
<!-- Node20&#45;&gt;Node23 -->
<g id="edge7" class="edge">
<title>Node20&#45;&gt;Node23</title>
<path fill="none" stroke="#191970" d="M201.8774,-49.0751C192.4145,-39.4402 180.9031,-27.7196 172.9705,-19.6427"/>
<polygon fill="#191970" stroke="#191970" points="199.4155,-51.5635 208.9197,-56.2455 204.4097,-46.6585 199.4155,-51.5635"/>
</g>
<!-- Node24&#45;&gt;Node19 -->
<g id="edge10" class="edge">
<title>Node24&#45;&gt;Node19</title>
<path fill="none" stroke="#191970" d="M498.4997,-48.5004C506.6622,-38.9775 516.4489,-27.5596 523.2349,-19.6427"/>
<polygon fill="#191970" stroke="#191970" points="495.7115,-46.3752 491.861,-56.2455 501.0263,-50.9307 495.7115,-46.3752"/>
</g>
<!-- Node25 -->
<g id="node10" class="node">
<title>Node25</title>
<g id="a_node10"><a xlink:href="CVodesIntegrator_8cpp.html" target="_top" xlink:title="CVodesIntegrator.cpp">
<polygon fill="#ffffff" stroke="#000000" points="347.5,-.5 347.5,-19.5 459.5,-19.5 459.5,-.5 347.5,-.5"/>
<text text-anchor="middle" x="403.5" y="-7.5" font-family="Helvetica,sans-Serif" font-size="10.00" fill="#000000">CVodesIntegrator.cpp</text>
</a>
</g>
</g>
<!-- Node24&#45;&gt;Node25 -->
<g id="edge9" class="edge">
<title>Node24&#45;&gt;Node25</title>
<path fill="none" stroke="#191970" d="M461.3429,-50.49C447.228,-40.6096 429.3849,-28.1194 417.2752,-19.6427"/>
<polygon fill="#191970" stroke="#191970" points="459.3656,-53.3782 469.5651,-56.2455 463.3799,-47.6436 459.3656,-53.3782"/>
</g>
<!-- Node27 -->
<g id="node12" class="node">
<title>Node27</title>
<g id="a_node12"><a xlink:href="Reactor_8cpp.html" target="_top" xlink:title="A zero&#45;dimensional reactor. ">
<polygon fill="#ffffff" stroke="#000000" points="681.5,-.5 681.5,-19.5 751.5,-19.5 751.5,-.5 681.5,-.5"/>
<text text-anchor="middle" x="716.5" y="-7.5" font-family="Helvetica,sans-Serif" font-size="10.00" fill="#000000">Reactor.cpp</text>
</a>
</g>
</g>
<!-- Node26&#45;&gt;Node27 -->
<g id="edge12" class="edge">
<title>Node26&#45;&gt;Node27</title>
<path fill="none" stroke="#191970" d="M750.1878,-48.5004C741.8553,-38.9775 731.8647,-27.5596 724.9373,-19.6427"/>
<polygon fill="#191970" stroke="#191970" points="747.7457,-51.0245 756.9649,-56.2455 753.0138,-46.415 747.7457,-51.0245"/>
</g>
<!-- Node28 -->
<g id="node13" class="node">
<title>Node28</title>
<g id="a_node13"><a xlink:href="ReactorBase_8cpp.html" target="_top" xlink:title="ReactorBase.cpp">
<polygon fill="#ffffff" stroke="#000000" points="769.5,-.5 769.5,-19.5 861.5,-19.5 861.5,-.5 769.5,-.5"/>
<text text-anchor="middle" x="815.5" y="-7.5" font-family="Helvetica,sans-Serif" font-size="10.00" fill="#000000">ReactorBase.cpp</text>
</a>
</g>
</g>
<!-- Node26&#45;&gt;Node28 -->
<g id="edge13" class="edge">
<title>Node26&#45;&gt;Node28</title>
<path fill="none" stroke="#191970" d="M781.1247,-48.5004C789.6273,-38.9775 799.8218,-27.5596 806.8905,-19.6427"/>
<polygon fill="#191970" stroke="#191970" points="778.2587,-46.4551 774.2093,-56.2455 783.4803,-51.1172 778.2587,-46.4551"/>
</g>
<!-- Node29 -->
<g id="node14" class="node">
<title>Node29</title>
<g id="a_node14"><a xlink:href="ReactorNet_8cpp.html" target="_top" xlink:title="ReactorNet.cpp">
<polygon fill="#ffffff" stroke="#000000" points="879.5,-.5 879.5,-19.5 965.5,-19.5 965.5,-.5 879.5,-.5"/>
<text text-anchor="middle" x="922.5" y="-7.5" font-family="Helvetica,sans-Serif" font-size="10.00" fill="#000000">ReactorNet.cpp</text>
</a>
</g>
</g>
<!-- Node26&#45;&gt;Node29 -->
<g id="edge14" class="edge">
<title>Node26&#45;&gt;Node29</title>
<path fill="none" stroke="#191970" d="M802.1619,-52.9231C830.8624,-42.686 870.1044,-28.6889 895.8629,-19.5011"/>
<polygon fill="#191970" stroke="#191970" points="800.7322,-49.7171 792.4893,-56.3733 803.0839,-56.3102 800.7322,-49.7171"/>
</g>
<!-- Node30 -->
<g id="node15" class="node">
<title>Node30</title>
<g id="a_node15"><a xlink:href="ReactorSurface_8cpp.html" target="_top" xlink:title="ReactorSurface.cpp">
<polygon fill="#ffffff" stroke="#000000" points="983.5,-.5 983.5,-19.5 1087.5,-19.5 1087.5,-.5 983.5,-.5"/>
<text text-anchor="middle" x="1035.5" y="-7.5" font-family="Helvetica,sans-Serif" font-size="10.00" fill="#000000">ReactorSurface.cpp</text>
</a>
</g>
</g>
<!-- Node26&#45;&gt;Node30 -->
<g id="edge15" class="edge">
<title>Node26&#45;&gt;Node30</title>
<path fill="none" stroke="#191970" d="M812.8892,-56.1711C862.5382,-45.8736 940.0164,-29.804 989.2388,-19.5949"/>
<polygon fill="#191970" stroke="#191970" points="812.1231,-52.7554 803.0423,-58.2134 813.5448,-59.6096 812.1231,-52.7554"/>
</g>
<!-- Node31 -->
<g id="node16" class="node">
<title>Node31</title>
<g id="a_node16"><a xlink:href="Wall_8cpp.html" target="_top" xlink:title="Wall.cpp">
<polygon fill="#ffffff" stroke="#000000" points="1106,-.5 1106,-19.5 1161,-19.5 1161,-.5 1106,-.5"/>
<text text-anchor="middle" x="1133.5" y="-7.5" font-family="Helvetica,sans-Serif" font-size="10.00" fill="#000000">Wall.cpp</text>
</a>
</g>
</g>
<!-- Node26&#45;&gt;Node31 -->
<g id="edge16" class="edge">
<title>Node26&#45;&gt;Node31</title>
<path fill="none" stroke="#191970" d="M813.7919,-61.2161C878.5378,-54.3641 996.8751,-40.3014 1096.5,-20 1099.4992,-19.3888 1102.6153,-18.6744 1105.7093,-17.9136"/>
<polygon fill="#191970" stroke="#191970" points="813.0713,-57.7723 803.4894,-62.2933 813.7992,-64.7344 813.0713,-57.7723"/>
</g>
<!-- Node32 -->
<g id="node17" class="node">
<title>Node32</title>
<g id="a_node17"><a xlink:href="zerodim_8h_source.html" target="_top" xlink:title="zerodim.h">
<polygon fill="#ffffff" stroke="#000000" points="604,-.5 604,-19.5 663,-19.5 663,-.5 604,-.5"/>
<text text-anchor="middle" x="633.5" y="-7.5" font-family="Helvetica,sans-Serif" font-size="10.00" fill="#000000">zerodim.h</text>
</a>
</g>
</g>
<!-- Node26&#45;&gt;Node32 -->
<g id="edge17" class="edge">
<title>Node26&#45;&gt;Node32</title>
<path fill="none" stroke="#191970" d="M733.4035,-52.3833C709.3965,-42.1985 677.1741,-28.5284 655.8955,-19.5011"/>
<polygon fill="#191970" stroke="#191970" points="732.2356,-55.6897 742.8084,-56.3733 734.9695,-49.2457 732.2356,-55.6897"/>
</g>
</g>
</svg>
