<?xml version="1.0" encoding="UTF-8" standalone="no"?>
<!DOCTYPE svg PUBLIC "-//W3C//DTD SVG 1.1//EN"
 "http://www.w3.org/Graphics/SVG/1.1/DTD/svg11.dtd">
<!-- Generated by graphviz version 2.40.1 (20161225.0304)
 -->
<!-- Title: funcs.h Pages: 1 -->
<svg width="324pt" height="84pt"
 viewBox="0.00 0.00 323.50 84.00" xmlns="http://www.w3.org/2000/svg" xmlns:xlink="http://www.w3.org/1999/xlink">
<g id="graph0" class="graph" transform="scale(1 1) rotate(0) translate(4 80)">
<title>funcs.h</title>
<polygon fill="#ffffff" stroke="transparent" points="-4,4 -4,-80 319.5,-80 319.5,4 -4,4"/>
<!-- Node10 -->
<g id="node1" class="node">
<title>Node10</title>
<polygon fill="#bfbfbf" stroke="#000000" points="131,-56.5 131,-75.5 180,-75.5 180,-56.5 131,-56.5"/>
<text text-anchor="middle" x="155.5" y="-63.5" font-family="Helvetica,sans-Serif" font-size="10.00" fill="#000000">funcs.h</text>
</g>
<!-- Node11 -->
<g id="node2" class="node">
<title>Node11</title>
<g id="a_node2"><a xlink:href="funcs_8cpp.html" target="_top" xlink:title="file containing miscellaneous numerical functions. ">
<polygon fill="#ffffff" stroke="#000000" points="0,-.5 0,-19.5 59,-19.5 59,-.5 0,-.5"/>
<text text-anchor="middle" x="29.5" y="-7.5" font-family="Helvetica,sans-Serif" font-size="10.00" fill="#000000">funcs.cpp</text>
</a>
</g>
</g>
<!-- Node10&#45;&gt;Node11 -->
<g id="edge1" class="edge">
<title>Node10&#45;&gt;Node11</title>
<path fill="none" stroke="#191970" d="M124.5564,-52.2473C101.6735,-42.0771 71.0986,-28.4883 50.8775,-19.5011"/>
<polygon fill="#191970" stroke="#191970" points="123.2802,-55.5102 133.8398,-56.3733 126.1232,-49.1135 123.2802,-55.5102"/>
</g>
<!-- Node12 -->
<g id="node3" class="node">
<title>Node12</title>
<g id="a_node3"><a xlink:href="IonFlow_8cpp.html" target="_top" xlink:title="IonFlow.cpp">
<polygon fill="#ffffff" stroke="#000000" points="77.5,-.5 77.5,-19.5 147.5,-19.5 147.5,-.5 77.5,-.5"/>
<text text-anchor="middle" x="112.5" y="-7.5" font-family="Helvetica,sans-Serif" font-size="10.00" fill="#000000">IonFlow.cpp</text>
</a>
</g>
</g>
<!-- Node10&#45;&gt;Node12 -->
<g id="edge2" class="edge">
<title>Node10&#45;&gt;Node12</title>
<path fill="none" stroke="#191970" d="M141.8408,-48.2112C134.5737,-38.7472 125.9219,-27.4797 119.9042,-19.6427"/>
<polygon fill="#191970" stroke="#191970" points="139.1436,-50.4456 148.01,-56.2455 144.6957,-46.1824 139.1436,-50.4456"/>
</g>
<!-- Node13 -->
<g id="node4" class="node">
<title>Node13</title>
<g id="a_node4"><a xlink:href="Sim1D_8cpp.html" target="_top" xlink:title="Sim1D.cpp">
<polygon fill="#ffffff" stroke="#000000" points="166,-.5 166,-19.5 231,-19.5 231,-.5 166,-.5"/>
<text text-anchor="middle" x="198.5" y="-7.5" font-family="Helvetica,sans-Serif" font-size="10.00" fill="#000000">Sim1D.cpp</text>
</a>
</g>
</g>
<!-- Node10&#45;&gt;Node13 -->
<g id="edge3" class="edge">
<title>Node10&#45;&gt;Node13</title>
<path fill="none" stroke="#191970" d="M169.1592,-48.2112C176.4263,-38.7472 185.0781,-27.4797 191.0958,-19.6427"/>
<polygon fill="#191970" stroke="#191970" points="166.3043,-46.1824 162.99,-56.2455 171.8564,-50.4456 166.3043,-46.1824"/>
</g>
<!-- Node14 -->
<g id="node5" class="node">
<title>Node14</title>
<g id="a_node5"><a xlink:href="StFlow_8cpp.html" target="_top" xlink:title="StFlow.cpp">
<polygon fill="#ffffff" stroke="#000000" points="249.5,-.5 249.5,-19.5 315.5,-19.5 315.5,-.5 249.5,-.5"/>
<text text-anchor="middle" x="282.5" y="-7.5" font-family="Helvetica,sans-Serif" font-size="10.00" fill="#000000">StFlow.cpp</text>
</a>
</g>
</g>
<!-- Node10&#45;&gt;Node14 -->
<g id="edge4" class="edge">
<title>Node10&#45;&gt;Node14</title>
<path fill="none" stroke="#191970" d="M186.6892,-52.2473C209.7537,-42.0771 240.5712,-28.4883 260.9528,-19.5011"/>
<polygon fill="#191970" stroke="#191970" points="185.0699,-49.1361 177.3321,-56.3733 187.8942,-55.5411 185.0699,-49.1361"/>
</g>
</g>
</svg>
