<?xml version="1.0" encoding="UTF-8" standalone="no"?>
<!DOCTYPE svg PUBLIC "-//W3C//DTD SVG 1.1//EN"
 "http://www.w3.org/Graphics/SVG/1.1/DTD/svg11.dtd">
<!-- Generated by graphviz version 2.40.1 (20161225.0304)
 -->
<!-- Title: Group.h Pages: 1 -->
<svg width="225pt" height="140pt"
 viewBox="0.00 0.00 224.50 140.00" xmlns="http://www.w3.org/2000/svg" xmlns:xlink="http://www.w3.org/1999/xlink">
<g id="graph0" class="graph" transform="scale(1 1) rotate(0) translate(4 136)">
<title>Group.h</title>
<polygon fill="#ffffff" stroke="transparent" points="-4,4 -4,-136 220.5,-136 220.5,4 -4,4"/>
<!-- Node10 -->
<g id="node1" class="node">
<title>Node10</title>
<polygon fill="#bfbfbf" stroke="#000000" points="50.5,-112.5 50.5,-131.5 101.5,-131.5 101.5,-112.5 50.5,-112.5"/>
<text text-anchor="middle" x="76" y="-119.5" font-family="Helvetica,sans-Serif" font-size="10.00" fill="#000000">Group.h</text>
</g>
<!-- Node11 -->
<g id="node2" class="node">
<title>Node11</title>
<g id="a_node2"><a xlink:href="Group_8cpp.html" target="_top" xlink:title="Implementation file for the Group class used in reaction path analysis. ">
<polygon fill="#ffffff" stroke="#000000" points="0,-56.5 0,-75.5 62,-75.5 62,-56.5 0,-56.5"/>
<text text-anchor="middle" x="31" y="-63.5" font-family="Helvetica,sans-Serif" font-size="10.00" fill="#000000">Group.cpp</text>
</a>
</g>
</g>
<!-- Node10&#45;&gt;Node11 -->
<g id="edge1" class="edge">
<title>Node10&#45;&gt;Node11</title>
<path fill="none" stroke="#191970" d="M61.7054,-104.2112C54.1004,-94.7472 45.0462,-83.4797 38.7486,-75.6427"/>
<polygon fill="#191970" stroke="#191970" points="59.1694,-106.6428 68.1616,-112.2455 64.6259,-102.2581 59.1694,-106.6428"/>
</g>
<!-- Node12 -->
<g id="node3" class="node">
<title>Node12</title>
<g id="a_node3"><a xlink:href="ReactionPath_8h.html" target="_top" xlink:title="Classes for reaction path analysis. ">
<polygon fill="#ffffff" stroke="#000000" points="80,-56.5 80,-75.5 164,-75.5 164,-56.5 80,-56.5"/>
<text text-anchor="middle" x="122" y="-63.5" font-family="Helvetica,sans-Serif" font-size="10.00" fill="#000000">ReactionPath.h</text>
</a>
</g>
</g>
<!-- Node10&#45;&gt;Node12 -->
<g id="edge2" class="edge">
<title>Node10&#45;&gt;Node12</title>
<path fill="none" stroke="#191970" d="M90.3747,-104.5004C98.1971,-94.9775 107.576,-83.5596 114.0792,-75.6427"/>
<polygon fill="#191970" stroke="#191970" points="87.6555,-102.2967 84.0126,-112.2455 93.0646,-106.7399 87.6555,-102.2967"/>
</g>
<!-- Node13 -->
<g id="node4" class="node">
<title>Node13</title>
<g id="a_node4"><a xlink:href="ReactionPath_8cpp.html" target="_top" xlink:title="Implementation file for classes used in reaction path analysis. ">
<polygon fill="#ffffff" stroke="#000000" points="20.5,-.5 20.5,-19.5 115.5,-19.5 115.5,-.5 20.5,-.5"/>
<text text-anchor="middle" x="68" y="-7.5" font-family="Helvetica,sans-Serif" font-size="10.00" fill="#000000">ReactionPath.cpp</text>
</a>
</g>
</g>
<!-- Node12&#45;&gt;Node13 -->
<g id="edge3" class="edge">
<title>Node12&#45;&gt;Node13</title>
<path fill="none" stroke="#191970" d="M105.4031,-48.7884C96.1653,-39.2085 85.0096,-27.6396 77.2983,-19.6427"/>
<polygon fill="#191970" stroke="#191970" points="103.1331,-51.4766 112.5939,-56.2455 108.172,-46.6176 103.1331,-51.4766"/>
</g>
<!-- Node14 -->
<g id="node5" class="node">
<title>Node14</title>
<g id="a_node5"><a xlink:href="reactionpaths_8h_source.html" target="_top" xlink:title="reactionpaths.h">
<polygon fill="#ffffff" stroke="#000000" points="133.5,-.5 133.5,-19.5 216.5,-19.5 216.5,-.5 133.5,-.5"/>
<text text-anchor="middle" x="175" y="-7.5" font-family="Helvetica,sans-Serif" font-size="10.00" fill="#000000">reactionpaths.h</text>
</a>
</g>
</g>
<!-- Node12&#45;&gt;Node14 -->
<g id="edge4" class="edge">
<title>Node12&#45;&gt;Node14</title>
<path fill="none" stroke="#191970" d="M138.2896,-48.7884C147.3562,-39.2085 158.3054,-27.6396 165.8739,-19.6427"/>
<polygon fill="#191970" stroke="#191970" points="135.5637,-46.5767 131.2319,-56.2455 140.6478,-51.3884 135.5637,-46.5767"/>
</g>
</g>
</svg>
