<?xml version="1.0" encoding="UTF-8" standalone="no"?>
<!DOCTYPE svg PUBLIC "-//W3C//DTD SVG 1.1//EN"
 "http://www.w3.org/Graphics/SVG/1.1/DTD/svg11.dtd">
<!-- Generated by graphviz version 2.40.1 (20161225.0304)
 -->
<!-- Title: HMWSoln.cpp Pages: 1 -->
<svg width="1040pt" height="487pt"
 viewBox="0.00 0.00 1040.41 487.00" xmlns="http://www.w3.org/2000/svg" xmlns:xlink="http://www.w3.org/1999/xlink">
<g id="graph0" class="graph" transform="scale(1 1) rotate(0) translate(4 483)">
<title>HMWSoln.cpp</title>
<polygon fill="#ffffff" stroke="transparent" points="-4,4 -4,-483 1036.4135,-483 1036.4135,4 -4,4"/>
<!-- Node0 -->
<g id="node1" class="node">
<title>Node0</title>
<polygon fill="#bfbfbf" stroke="#000000" points="356.5,-459.5 356.5,-478.5 436.5,-478.5 436.5,-459.5 356.5,-459.5"/>
<text text-anchor="middle" x="396.5" y="-466.5" font-family="Helvetica,sans-Serif" font-size="10.00" fill="#000000">HMWSoln.cpp</text>
</g>
<!-- Node1 -->
<g id="node2" class="node">
<title>Node1</title>
<g id="a_node2"><a xlink:href="HMWSoln_8h.html" target="_top" xlink:title="Headers for the HMWSoln ThermoPhase object, which models concentrated electrolyte solutions (see Ther...">
<polygon fill="#ffffff" stroke="#000000" points="248.5,-403.5 248.5,-422.5 386.5,-422.5 386.5,-403.5 248.5,-403.5"/>
<text text-anchor="middle" x="317.5" y="-410.5" font-family="Helvetica,sans-Serif" font-size="10.00" fill="#000000">cantera/thermo/HMWSoln.h</text>
</a>
</g>
</g>
<!-- Node0&#45;&gt;Node1 -->
<g id="edge1" class="edge">
<title>Node0&#45;&gt;Node1</title>
<path fill="none" stroke="#191970" d="M382.7393,-459.2455C370.8448,-450.814 353.435,-438.4729 339.5915,-428.6598"/>
<polygon fill="#191970" stroke="#191970" points="341.2854,-425.5704 331.1031,-422.6427 337.2372,-431.2811 341.2854,-425.5704"/>
</g>
<!-- Node40 -->
<g id="node19" class="node">
<title>Node40</title>
<g id="a_node19"><a xlink:href="ThermoFactory_8h.html" target="_top" xlink:title="Headers for the factory class that can create known ThermoPhase objects (see Thermodynamic Properties...">
<polygon fill="#ffffff" stroke="#000000" points="511,-291.5 511,-310.5 670,-310.5 670,-291.5 511,-291.5"/>
<text text-anchor="middle" x="590.5" y="-298.5" font-family="Helvetica,sans-Serif" font-size="10.00" fill="#000000">cantera/thermo/ThermoFactory.h</text>
</a>
</g>
</g>
<!-- Node0&#45;&gt;Node40 -->
<g id="edge22" class="edge">
<title>Node0&#45;&gt;Node40</title>
<path fill="none" stroke="#191970" d="M436.685,-462.1686C478.6465,-454.2505 540.6619,-440.0777 557.5,-423 584.7286,-395.3839 590.0892,-347.7452 590.7988,-320.8967"/>
<polygon fill="#191970" stroke="#191970" points="594.2994,-320.8059 590.8683,-310.782 587.2995,-320.7577 594.2994,-320.8059"/>
</g>
<!-- Node45 -->
<g id="node26" class="node">
<title>Node45</title>
<g id="a_node26"><a xlink:href="PDSS__Water_8h.html" target="_top" xlink:title="Implementation of a pressure dependent standard state virtual function for a Pure Water Phase (see Sp...">
<polygon fill="#ffffff" stroke="#000000" points="0,-168.5 0,-198.5 113,-198.5 113,-168.5 0,-168.5"/>
<text text-anchor="start" x="8" y="-186.5" font-family="Helvetica,sans-Serif" font-size="10.00" fill="#000000">cantera/thermo/PDSS</text>
<text text-anchor="middle" x="56.5" y="-175.5" font-family="Helvetica,sans-Serif" font-size="10.00" fill="#000000">_Water.h</text>
</a>
</g>
</g>
<!-- Node0&#45;&gt;Node45 -->
<g id="edge35" class="edge">
<title>Node0&#45;&gt;Node45</title>
<path fill="none" stroke="#191970" d="M356.237,-462.3585C275.7178,-447.9332 102.5,-410.6641 102.5,-357 102.5,-357 102.5,-357 102.5,-301 102.5,-266.7278 85.3208,-230.4624 71.9593,-207.4393"/>
<polygon fill="#191970" stroke="#191970" points="74.8649,-205.4795 66.7089,-198.717 68.8676,-209.0896 74.8649,-205.4795"/>
</g>
<!-- Node49 -->
<g id="node30" class="node">
<title>Node49</title>
<g id="a_node30"><a xlink:href="electrolytes_8h.html" target="_top" xlink:title="Header file for a common definitions used in electrolytes thermodynamics. ">
<polygon fill="#ffffff" stroke="#000000" points="405,-403.5 405,-422.5 548,-422.5 548,-403.5 405,-403.5"/>
<text text-anchor="middle" x="476.5" y="-410.5" font-family="Helvetica,sans-Serif" font-size="10.00" fill="#000000">cantera/thermo/electrolytes.h</text>
</a>
</g>
</g>
<!-- Node0&#45;&gt;Node49 -->
<g id="edge42" class="edge">
<title>Node0&#45;&gt;Node49</title>
<path fill="none" stroke="#191970" d="M410.4349,-459.2455C422.5947,-450.7337 440.4464,-438.2375 454.5285,-428.3801"/>
<polygon fill="#191970" stroke="#191970" points="456.5395,-431.2447 462.7248,-422.6427 452.5253,-425.51 456.5395,-431.2447"/>
</g>
<!-- Node50 -->
<g id="node31" class="node">
<title>Node50</title>
<g id="a_node31"><a xlink:href="stringUtils_8h.html" target="_top" xlink:title="Contains declarations for string manipulation functions within Cantera. ">
<polygon fill="#ffffff" stroke="#000000" points="131.5,-174 131.5,-193 259.5,-193 259.5,-174 131.5,-174"/>
<text text-anchor="middle" x="195.5" y="-181" font-family="Helvetica,sans-Serif" font-size="10.00" fill="#000000">cantera/base/stringUtils.h</text>
</a>
</g>
</g>
<!-- Node0&#45;&gt;Node50 -->
<g id="edge43" class="edge">
<title>Node0&#45;&gt;Node50</title>
<path fill="none" stroke="#191970" d="M356.2027,-465.3802C295.4697,-457.4665 187.5,-432.7461 187.5,-357 187.5,-357 187.5,-357 187.5,-301 187.5,-266.5604 190.9633,-226.5735 193.3324,-203.2484"/>
<polygon fill="#191970" stroke="#191970" points="196.8204,-203.5454 194.3876,-193.2337 189.859,-202.8119 196.8204,-203.5454"/>
</g>
<!-- Node51 -->
<g id="node32" class="node">
<title>Node51</title>
<g id="a_node32"><a xlink:href="ctml_8h.html" target="_top" xlink:title="CTML (&quot;Cantera Markup Language&quot;) is the variant of XML that Cantera uses to store data...">
<polygon fill="#ffffff" stroke="#000000" points="688,-291.5 688,-310.5 791,-310.5 791,-291.5 688,-291.5"/>
<text text-anchor="middle" x="739.5" y="-298.5" font-family="Helvetica,sans-Serif" font-size="10.00" fill="#000000">cantera/base/ctml.h</text>
</a>
</g>
</g>
<!-- Node0&#45;&gt;Node51 -->
<g id="edge47" class="edge">
<title>Node0&#45;&gt;Node51</title>
<path fill="none" stroke="#191970" d="M436.7757,-463.5675C474.7472,-457.3656 532.5289,-445.0937 578.5,-423 636.9012,-394.9324 694.866,-343.8307 722.6039,-317.5636"/>
<polygon fill="#191970" stroke="#191970" points="725.1137,-320.006 729.9059,-310.5569 720.2671,-314.9552 725.1137,-320.006"/>
</g>
<!-- Node2 -->
<g id="node3" class="node">
<title>Node2</title>
<g id="a_node3"><a xlink:href="MolalityVPSSTP_8h.html" target="_top" xlink:title="Header for intermediate ThermoPhase object for phases which employ molality based activity coefficien...">
<polygon fill="#ffffff" stroke="#000000" points="362.5,-347.5 362.5,-366.5 460.5,-366.5 460.5,-347.5 362.5,-347.5"/>
<text text-anchor="middle" x="411.5" y="-354.5" font-family="Helvetica,sans-Serif" font-size="10.00" fill="#000000">MolalityVPSSTP.h</text>
</a>
</g>
</g>
<!-- Node1&#45;&gt;Node2 -->
<g id="edge2" class="edge">
<title>Node1&#45;&gt;Node2</title>
<path fill="none" stroke="#191970" d="M333.8736,-403.2455C348.4308,-394.5731 369.931,-381.7645 386.6152,-371.825"/>
<polygon fill="#191970" stroke="#191970" points="388.5144,-374.7676 395.3141,-366.6427 384.9317,-368.7539 388.5144,-374.7676"/>
</g>
<!-- Node34 -->
<g id="node13" class="node">
<title>Node34</title>
<g id="a_node13"><a xlink:href="Array_8h.html" target="_top" xlink:title="Header file for class Cantera::Array2D. ">
<polygon fill="#ffffff" stroke="#000000" points="255,-291.5 255,-310.5 362,-310.5 362,-291.5 255,-291.5"/>
<text text-anchor="middle" x="308.5" y="-298.5" font-family="Helvetica,sans-Serif" font-size="10.00" fill="#000000">cantera/base/Array.h</text>
</a>
</g>
</g>
<!-- Node1&#45;&gt;Node34 -->
<g id="edge14" class="edge">
<title>Node1&#45;&gt;Node34</title>
<path fill="none" stroke="#191970" d="M316.7327,-403.4509C315.2648,-385.184 312.0321,-344.9553 310.0828,-320.6976"/>
<polygon fill="#191970" stroke="#191970" points="313.5552,-320.2124 309.2654,-310.5249 306.5777,-320.7731 313.5552,-320.2124"/>
</g>
<!-- Node3 -->
<g id="node4" class="node">
<title>Node3</title>
<g id="a_node4"><a xlink:href="VPStandardStateTP_8h.html" target="_top" xlink:title="Header file for a derived class of ThermoPhase that handles variable pressure standard state methods ...">
<polygon fill="#ffffff" stroke="#000000" points="380,-291.5 380,-310.5 493,-310.5 493,-291.5 380,-291.5"/>
<text text-anchor="middle" x="436.5" y="-298.5" font-family="Helvetica,sans-Serif" font-size="10.00" fill="#000000">VPStandardStateTP.h</text>
</a>
</g>
</g>
<!-- Node2&#45;&gt;Node3 -->
<g id="edge3" class="edge">
<title>Node2&#45;&gt;Node3</title>
<path fill="none" stroke="#191970" d="M415.8547,-347.2455C419.2244,-339.6973 423.993,-329.0158 428.0983,-319.8197"/>
<polygon fill="#191970" stroke="#191970" points="431.3147,-321.2009 432.1952,-310.6427 424.9227,-318.3473 431.3147,-321.2009"/>
</g>
<!-- Node4 -->
<g id="node5" class="node">
<title>Node4</title>
<g id="a_node5"><a xlink:href="ThermoPhase_8h.html" target="_top" xlink:title="Header file for class ThermoPhase, the base class for phases with thermodynamic properties, and the text for the Module thermoprops (see Thermodynamic Properties and class ThermoPhase). ">
<polygon fill="#ffffff" stroke="#ff0000" points="512.5,-235.5 512.5,-254.5 598.5,-254.5 598.5,-235.5 512.5,-235.5"/>
<text text-anchor="middle" x="555.5" y="-242.5" font-family="Helvetica,sans-Serif" font-size="10.00" fill="#000000">ThermoPhase.h</text>
</a>
</g>
</g>
<!-- Node3&#45;&gt;Node4 -->
<g id="edge4" class="edge">
<title>Node3&#45;&gt;Node4</title>
<path fill="none" stroke="#191970" d="M456.9568,-291.3733C475.9738,-282.4241 504.5175,-268.9917 525.9976,-258.8835"/>
<polygon fill="#191970" stroke="#191970" points="527.7522,-261.926 535.3101,-254.5011 524.7716,-255.5923 527.7522,-261.926"/>
</g>
<!-- Node33 -->
<g id="node12" class="node">
<title>Node33</title>
<g id="a_node12"><a xlink:href="PDSS_8h.html" target="_top" xlink:title="Declarations for the virtual base class PDSS (pressure dependent standard state) which handles calcul...">
<polygon fill="#ffffff" stroke="#000000" points="353,-112.5 353,-131.5 406,-131.5 406,-112.5 353,-112.5"/>
<text text-anchor="middle" x="379.5" y="-119.5" font-family="Helvetica,sans-Serif" font-size="10.00" fill="#000000">PDSS.h</text>
</a>
</g>
</g>
<!-- Node3&#45;&gt;Node33 -->
<g id="edge12" class="edge">
<title>Node3&#45;&gt;Node33</title>
<path fill="none" stroke="#191970" d="M436.604,-291.1872C436.4996,-268.5041 434.2432,-211.0862 415.5,-168 410.9364,-157.5093 403.4039,-147.3317 396.4054,-139.2284"/>
<polygon fill="#191970" stroke="#191970" points="398.7784,-136.6363 389.4524,-131.6087 393.6076,-141.3547 398.7784,-136.6363"/>
</g>
<!-- Node23 -->
<g id="node6" class="node">
<title>Node23</title>
<g id="a_node6"><a xlink:href="global_8h.html" target="_top" xlink:title="This file contains definitions for utility functions and text for modules, inputfiles, logs, textlogs, (see Input File Handling, Diagnostic Output, and Writing messages to the screen). ">
<polygon fill="#ffffff" stroke="#000000" points="500.5,-174 500.5,-193 610.5,-193 610.5,-174 500.5,-174"/>
<text text-anchor="middle" x="555.5" y="-181" font-family="Helvetica,sans-Serif" font-size="10.00" fill="#000000">cantera/base/global.h</text>
</a>
</g>
</g>
<!-- Node4&#45;&gt;Node23 -->
<g id="edge5" class="edge">
<title>Node4&#45;&gt;Node23</title>
<path fill="none" stroke="#191970" d="M555.5,-235.3906C555.5,-226.8657 555.5,-214.1392 555.5,-203.4235"/>
<polygon fill="#191970" stroke="#191970" points="559.0001,-203.2448 555.5,-193.2449 552.0001,-203.2449 559.0001,-203.2448"/>
</g>
<!-- Node8 -->
<g id="node7" class="node">
<title>Node8</title>
<g id="a_node7"><a xlink:href="ct__defs_8h.html" target="_top" xlink:title="This file contains definitions of terms that are used in internal routines and are unlikely to need m...">
<polygon fill="#ffffff" stroke="#ff0000" points="425,-56.5 425,-75.5 482,-75.5 482,-56.5 425,-56.5"/>
<text text-anchor="middle" x="453.5" y="-63.5" font-family="Helvetica,sans-Serif" font-size="10.00" fill="#000000">ct_defs.h</text>
</a>
</g>
</g>
<!-- Node23&#45;&gt;Node8 -->
<g id="edge6" class="edge">
<title>Node23&#45;&gt;Node8</title>
<path fill="none" stroke="#191970" d="M571.238,-173.9654C591.9506,-160.211 623.9135,-134.0328 607.5,-112 593.6694,-93.4343 533.0648,-79.6098 492.1344,-72.1806"/>
<polygon fill="#191970" stroke="#191970" points="492.648,-68.7172 482.1927,-70.4306 491.4344,-75.6113 492.648,-68.7172"/>
</g>
<!-- Node7 -->
<g id="node11" class="node">
<title>Node7</title>
<g id="a_node11"><a xlink:href="fmt_8h.html" target="_top" xlink:title="Wrapper for either system&#45;installed or local headers for fmt. ">
<polygon fill="#ffffff" stroke="#ff0000" points="500.5,-112.5 500.5,-131.5 598.5,-131.5 598.5,-112.5 500.5,-112.5"/>
<text text-anchor="middle" x="549.5" y="-119.5" font-family="Helvetica,sans-Serif" font-size="10.00" fill="#000000">cantera/base/fmt.h</text>
</a>
</g>
</g>
<!-- Node23&#45;&gt;Node7 -->
<g id="edge10" class="edge">
<title>Node23&#45;&gt;Node7</title>
<path fill="none" stroke="#191970" d="M554.5625,-173.8906C553.7308,-165.3657 552.4892,-152.6392 551.4438,-141.9235"/>
<polygon fill="#191970" stroke="#191970" points="554.9053,-141.3577 550.4507,-131.7449 547.9383,-142.0375 554.9053,-141.3577"/>
</g>
<!-- Node9 -->
<g id="node8" class="node">
<title>Node9</title>
<g id="a_node8"><a xlink:href="config_8h_source.html" target="_top" xlink:title="config.h">
<polygon fill="#ffffff" stroke="#000000" points="228,-.5 228,-19.5 279,-19.5 279,-.5 228,-.5"/>
<text text-anchor="middle" x="253.5" y="-7.5" font-family="Helvetica,sans-Serif" font-size="10.00" fill="#000000">config.h</text>
</a>
</g>
</g>
<!-- Node8&#45;&gt;Node9 -->
<g id="edge7" class="edge">
<title>Node8&#45;&gt;Node9</title>
<path fill="none" stroke="#191970" d="M424.8449,-57.9766C389.0514,-47.9544 327.8122,-30.8074 289.0608,-19.957"/>
<polygon fill="#191970" stroke="#191970" points="289.8184,-16.5346 279.245,-17.2086 287.9309,-23.2754 289.8184,-16.5346"/>
</g>
<!-- Node12 -->
<g id="node9" class="node">
<title>Node12</title>
<polygon fill="#ffffff" stroke="#bfbfbf" points="482.5,-.5 482.5,-19.5 526.5,-19.5 526.5,-.5 482.5,-.5"/>
<text text-anchor="middle" x="504.5" y="-7.5" font-family="Helvetica,sans-Serif" font-size="10.00" fill="#000000">vector</text>
</g>
<!-- Node8&#45;&gt;Node12 -->
<g id="edge8" class="edge">
<title>Node8&#45;&gt;Node12</title>
<path fill="none" stroke="#191970" d="M462.3835,-56.2455C469.6966,-48.2155 480.2391,-36.6394 488.9467,-27.0781"/>
<polygon fill="#191970" stroke="#191970" points="491.5727,-29.3928 495.7183,-19.6427 486.3972,-24.6795 491.5727,-29.3928"/>
</g>
<!-- Node14 -->
<g id="node10" class="node">
<title>Node14</title>
<polygon fill="#ffffff" stroke="#bfbfbf" points="381,-.5 381,-19.5 422,-19.5 422,-.5 381,-.5"/>
<text text-anchor="middle" x="401.5" y="-7.5" font-family="Helvetica,sans-Serif" font-size="10.00" fill="#000000">string</text>
</g>
<!-- Node8&#45;&gt;Node14 -->
<g id="edge9" class="edge">
<title>Node8&#45;&gt;Node14</title>
<path fill="none" stroke="#191970" d="M444.4423,-56.2455C436.9858,-48.2155 426.2366,-36.6394 417.3583,-27.0781"/>
<polygon fill="#191970" stroke="#191970" points="419.8232,-24.589 410.4539,-19.6427 414.6937,-29.3522 419.8232,-24.589"/>
</g>
<!-- Node7&#45;&gt;Node8 -->
<g id="edge11" class="edge">
<title>Node7&#45;&gt;Node8</title>
<path fill="none" stroke="#191970" d="M532.7781,-112.2455C517.9111,-103.5731 495.9534,-90.7645 478.9142,-80.825"/>
<polygon fill="#191970" stroke="#191970" points="480.4317,-77.6582 470.0303,-75.6427 476.9045,-83.7047 480.4317,-77.6582"/>
</g>
<!-- Node33&#45;&gt;Node8 -->
<g id="edge13" class="edge">
<title>Node33&#45;&gt;Node8</title>
<path fill="none" stroke="#191970" d="M392.3898,-112.2455C403.4254,-103.8943 419.5292,-91.7076 432.4353,-81.9408"/>
<polygon fill="#191970" stroke="#191970" points="434.8959,-84.4681 440.7579,-75.6427 430.6717,-78.8862 434.8959,-84.4681"/>
</g>
<!-- Node35 -->
<g id="node14" class="node">
<title>Node35</title>
<g id="a_node14"><a xlink:href="utilities_8h.html" target="_top" xlink:title="Various templated functions that carry out common vector operations (see Templated Utility Functions)...">
<polygon fill="#ffffff" stroke="#000000" points="351.5,-235.5 351.5,-254.5 407.5,-254.5 407.5,-235.5 351.5,-235.5"/>
<text text-anchor="middle" x="379.5" y="-242.5" font-family="Helvetica,sans-Serif" font-size="10.00" fill="#000000">utilities.h</text>
</a>
</g>
</g>
<!-- Node34&#45;&gt;Node35 -->
<g id="edge15" class="edge">
<title>Node34&#45;&gt;Node35</title>
<path fill="none" stroke="#191970" d="M320.8673,-291.2455C331.4554,-282.8943 346.9064,-270.7076 359.2893,-260.9408"/>
<polygon fill="#191970" stroke="#191970" points="361.5903,-263.5837 367.2745,-254.6427 357.2553,-258.0875 361.5903,-263.5837"/>
</g>
<!-- Node38 -->
<g id="node17" class="node">
<title>Node38</title>
<polygon fill="#ffffff" stroke="#bfbfbf" points="215.5,-235.5 215.5,-254.5 269.5,-254.5 269.5,-235.5 215.5,-235.5"/>
<text text-anchor="middle" x="242.5" y="-242.5" font-family="Helvetica,sans-Serif" font-size="10.00" fill="#000000">iostream</text>
</g>
<!-- Node34&#45;&gt;Node38 -->
<g id="edge20" class="edge">
<title>Node34&#45;&gt;Node38</title>
<path fill="none" stroke="#191970" d="M297.0037,-291.2455C287.2558,-282.9746 273.0741,-270.9416 261.6202,-261.2232"/>
<polygon fill="#191970" stroke="#191970" points="263.7541,-258.4437 253.8646,-254.6427 259.2253,-263.7813 263.7541,-258.4437"/>
</g>
<!-- Node39 -->
<g id="node18" class="node">
<title>Node39</title>
<polygon fill="#ffffff" stroke="#bfbfbf" points="287.5,-235.5 287.5,-254.5 333.5,-254.5 333.5,-235.5 287.5,-235.5"/>
<text text-anchor="middle" x="310.5" y="-242.5" font-family="Helvetica,sans-Serif" font-size="10.00" fill="#000000">cstring</text>
</g>
<!-- Node34&#45;&gt;Node39 -->
<g id="edge21" class="edge">
<title>Node34&#45;&gt;Node39</title>
<path fill="none" stroke="#191970" d="M308.8484,-291.2455C309.1093,-283.9382 309.4752,-273.6944 309.7963,-264.7046"/>
<polygon fill="#191970" stroke="#191970" points="313.2964,-264.7613 310.1556,-254.6427 306.3008,-264.5113 313.2964,-264.7613"/>
</g>
<!-- Node35&#45;&gt;Node23 -->
<g id="edge17" class="edge">
<title>Node35&#45;&gt;Node23</title>
<path fill="none" stroke="#191970" d="M407,-235.3906C436.9647,-224.92 485.0683,-208.1111 518.3698,-196.4745"/>
<polygon fill="#191970" stroke="#191970" points="519.9074,-199.6448 528.1931,-193.0419 517.5983,-193.0366 519.9074,-199.6448"/>
</g>
<!-- Node35&#45;&gt;Node8 -->
<g id="edge16" class="edge">
<title>Node35&#45;&gt;Node8</title>
<path fill="none" stroke="#191970" d="M388.5863,-235.4717C396.6083,-226.6231 408.1411,-212.7747 415.5,-199 435.5004,-161.5623 445.9974,-112.4206 450.5798,-85.5828"/>
<polygon fill="#191970" stroke="#191970" points="454.0617,-85.9741 452.192,-75.5456 447.1503,-84.8639 454.0617,-85.9741"/>
</g>
<!-- Node36 -->
<g id="node15" class="node">
<title>Node36</title>
<polygon fill="#ffffff" stroke="#bfbfbf" points="278,-174 278,-193 337,-193 337,-174 278,-174"/>
<text text-anchor="middle" x="307.5" y="-181" font-family="Helvetica,sans-Serif" font-size="10.00" fill="#000000">stdexcept</text>
</g>
<!-- Node35&#45;&gt;Node36 -->
<g id="edge18" class="edge">
<title>Node35&#45;&gt;Node36</title>
<path fill="none" stroke="#191970" d="M368.25,-235.3906C357.114,-225.8786 339.854,-211.1357 326.5732,-199.7917"/>
<polygon fill="#191970" stroke="#191970" points="328.7856,-197.0784 318.9086,-193.2449 324.2392,-202.4011 328.7856,-197.0784"/>
</g>
<!-- Node37 -->
<g id="node16" class="node">
<title>Node37</title>
<polygon fill="#ffffff" stroke="#bfbfbf" points="355,-174 355,-193 406,-193 406,-174 355,-174"/>
<text text-anchor="middle" x="380.5" y="-181" font-family="Helvetica,sans-Serif" font-size="10.00" fill="#000000">numeric</text>
</g>
<!-- Node35&#45;&gt;Node37 -->
<g id="edge19" class="edge">
<title>Node35&#45;&gt;Node37</title>
<path fill="none" stroke="#191970" d="M379.6563,-235.3906C379.7949,-226.8657 380.0018,-214.1392 380.176,-203.4235"/>
<polygon fill="#191970" stroke="#191970" points="383.6784,-203.3005 380.3415,-193.2449 376.6793,-203.1866 383.6784,-203.3005"/>
</g>
<!-- Node40&#45;&gt;Node4 -->
<g id="edge23" class="edge">
<title>Node40&#45;&gt;Node4</title>
<path fill="none" stroke="#191970" d="M584.4035,-291.2455C579.5855,-283.5367 572.7249,-272.5598 566.8968,-263.2348"/>
<polygon fill="#191970" stroke="#191970" points="569.7947,-261.2677 561.5267,-254.6427 563.8587,-264.9777 569.7947,-261.2677"/>
</g>
<!-- Node41 -->
<g id="node20" class="node">
<title>Node41</title>
<g id="a_node20"><a xlink:href="xml_8h.html" target="_top" xlink:title="Classes providing support for XML data files. ">
<polygon fill="#ffffff" stroke="#000000" points="618.5,-235.5 618.5,-254.5 718.5,-254.5 718.5,-235.5 618.5,-235.5"/>
<text text-anchor="middle" x="668.5" y="-242.5" font-family="Helvetica,sans-Serif" font-size="10.00" fill="#000000">cantera/base/xml.h</text>
</a>
</g>
</g>
<!-- Node40&#45;&gt;Node41 -->
<g id="edge24" class="edge">
<title>Node40&#45;&gt;Node41</title>
<path fill="none" stroke="#191970" d="M604.0866,-291.2455C615.8305,-282.814 633.0199,-270.4729 646.6882,-260.6598"/>
<polygon fill="#191970" stroke="#191970" points="648.9871,-263.3179 655.0691,-254.6427 644.9046,-257.6316 648.9871,-263.3179"/>
</g>
<!-- Node42 -->
<g id="node22" class="node">
<title>Node42</title>
<g id="a_node22"><a xlink:href="FactoryBase_8h.html" target="_top" xlink:title="File contains the FactoryBase class declarations. ">
<polygon fill="#ffffff" stroke="#000000" points="738.5,-235.5 738.5,-254.5 878.5,-254.5 878.5,-235.5 738.5,-235.5"/>
<text text-anchor="middle" x="808.5" y="-242.5" font-family="Helvetica,sans-Serif" font-size="10.00" fill="#000000">cantera/base/FactoryBase.h</text>
</a>
</g>
</g>
<!-- Node40&#45;&gt;Node42 -->
<g id="edge28" class="edge">
<title>Node40&#45;&gt;Node42</title>
<path fill="none" stroke="#191970" d="M627.9755,-291.3733C665.0103,-281.8598 721.7682,-267.2797 761.7361,-257.0127"/>
<polygon fill="#191970" stroke="#191970" points="762.6988,-260.3792 771.5135,-254.5011 760.9571,-253.5993 762.6988,-260.3792"/>
</g>
<!-- Node41&#45;&gt;Node23 -->
<g id="edge27" class="edge">
<title>Node41&#45;&gt;Node23</title>
<path fill="none" stroke="#191970" d="M650.8438,-235.3906C632.3514,-225.3262 603.099,-209.4057 581.8692,-197.8514"/>
<polygon fill="#191970" stroke="#191970" points="583.4888,-194.7481 573.0323,-193.0419 580.1425,-200.8965 583.4888,-194.7481"/>
</g>
<!-- Node6 -->
<g id="node21" class="node">
<title>Node6</title>
<g id="a_node21"><a xlink:href="ctexceptions_8h.html" target="_top" xlink:title="Definitions for the classes that are thrown when Cantera experiences an error condition (also contain...">
<polygon fill="#ffffff" stroke="#ff0000" points="628.5,-174 628.5,-193 768.5,-193 768.5,-174 628.5,-174"/>
<text text-anchor="middle" x="698.5" y="-181" font-family="Helvetica,sans-Serif" font-size="10.00" fill="#000000">cantera/base/ctexceptions.h</text>
</a>
</g>
</g>
<!-- Node41&#45;&gt;Node6 -->
<g id="edge25" class="edge">
<title>Node41&#45;&gt;Node6</title>
<path fill="none" stroke="#191970" d="M673.1875,-235.3906C677.4773,-226.5965 683.9482,-213.3312 689.2734,-202.4145"/>
<polygon fill="#191970" stroke="#191970" points="692.5078,-203.7671 693.7464,-193.2449 686.2164,-200.6981 692.5078,-203.7671"/>
</g>
<!-- Node6&#45;&gt;Node7 -->
<g id="edge26" class="edge">
<title>Node6&#45;&gt;Node7</title>
<path fill="none" stroke="#191970" d="M675.2188,-173.8906C650.179,-163.5554 610.1775,-147.0447 582.034,-135.4284"/>
<polygon fill="#191970" stroke="#191970" points="583.1967,-132.122 572.6178,-131.5419 580.526,-138.5925 583.1967,-132.122"/>
</g>
<!-- Node42&#45;&gt;Node23 -->
<g id="edge34" class="edge">
<title>Node42&#45;&gt;Node23</title>
<path fill="none" stroke="#191970" d="M769.2463,-235.4581C724.9306,-224.6857 652.7624,-207.1428 604.714,-195.4631"/>
<polygon fill="#191970" stroke="#191970" points="605.3895,-192.0254 594.8457,-193.0643 603.736,-198.8274 605.3895,-192.0254"/>
</g>
<!-- Node42&#45;&gt;Node12 -->
<g id="edge29" class="edge">
<title>Node42&#45;&gt;Node12</title>
<path fill="none" stroke="#191970" d="M878.7563,-238.9628C932.7887,-232.6919 1001.0686,-220.6631 1018.5,-199 1027.1374,-188.2658 1026.6869,-179.0816 1018.5,-168 959.1627,-87.6826 640.0559,-31.2654 536.775,-14.8915"/>
<polygon fill="#191970" stroke="#191970" points="537.0631,-11.394 526.6419,-13.3043 535.9798,-18.3097 537.0631,-11.394"/>
</g>
<!-- Node42&#45;&gt;Node6 -->
<g id="edge33" class="edge">
<title>Node42&#45;&gt;Node6</title>
<path fill="none" stroke="#191970" d="M791.3125,-235.3906C773.3918,-225.3713 745.0905,-209.5483 724.4477,-198.0071"/>
<polygon fill="#191970" stroke="#191970" points="726.0033,-194.867 715.5668,-193.0419 722.5872,-200.9769 726.0033,-194.867"/>
</g>
<!-- Node43 -->
<g id="node23" class="node">
<title>Node43</title>
<polygon fill="#ffffff" stroke="#bfbfbf" points="786.5,-174 786.5,-193 830.5,-193 830.5,-174 786.5,-174"/>
<text text-anchor="middle" x="808.5" y="-181" font-family="Helvetica,sans-Serif" font-size="10.00" fill="#000000">mutex</text>
</g>
<!-- Node42&#45;&gt;Node43 -->
<g id="edge30" class="edge">
<title>Node42&#45;&gt;Node43</title>
<path fill="none" stroke="#191970" d="M808.5,-235.3906C808.5,-226.8657 808.5,-214.1392 808.5,-203.4235"/>
<polygon fill="#191970" stroke="#191970" points="812.0001,-203.2448 808.5,-193.2449 805.0001,-203.2449 812.0001,-203.2448"/>
</g>
<!-- Node24 -->
<g id="node24" class="node">
<title>Node24</title>
<polygon fill="#ffffff" stroke="#bfbfbf" points="849,-174 849,-193 932,-193 932,-174 849,-174"/>
<text text-anchor="middle" x="890.5" y="-181" font-family="Helvetica,sans-Serif" font-size="10.00" fill="#000000">unordered_map</text>
</g>
<!-- Node42&#45;&gt;Node24 -->
<g id="edge31" class="edge">
<title>Node42&#45;&gt;Node24</title>
<path fill="none" stroke="#191970" d="M821.3125,-235.3906C834.1901,-225.7324 854.2584,-210.6812 869.472,-199.271"/>
<polygon fill="#191970" stroke="#191970" points="871.8775,-201.8419 877.7775,-193.0419 867.6774,-196.2419 871.8775,-201.8419"/>
</g>
<!-- Node44 -->
<g id="node25" class="node">
<title>Node44</title>
<polygon fill="#ffffff" stroke="#bfbfbf" points="950,-174 950,-193 1009,-193 1009,-174 950,-174"/>
<text text-anchor="middle" x="979.5" y="-181" font-family="Helvetica,sans-Serif" font-size="10.00" fill="#000000">functional</text>
</g>
<!-- Node42&#45;&gt;Node44 -->
<g id="edge32" class="edge">
<title>Node42&#45;&gt;Node44</title>
<path fill="none" stroke="#191970" d="M837.4601,-235.4884C864.5119,-226.4844 905.945,-212.3887 941.5,-199 943.3503,-198.3032 945.246,-197.5754 947.1555,-196.8314"/>
<polygon fill="#191970" stroke="#191970" points="948.6734,-199.9944 956.6716,-193.046 946.0861,-193.4901 948.6734,-199.9944"/>
</g>
<!-- Node45&#45;&gt;Node33 -->
<g id="edge36" class="edge">
<title>Node45&#45;&gt;Node33</title>
<path fill="none" stroke="#191970" d="M113.33,-169.9042C116.4277,-169.2411 119.4995,-168.6017 122.5,-168 217.9244,-148.8642 243.1584,-151.5442 338.5,-132 339.9355,-131.7057 341.3969,-131.3964 342.8715,-131.0762"/>
<polygon fill="#191970" stroke="#191970" points="343.6842,-134.4808 352.6579,-128.8485 342.1305,-127.6554 343.6842,-134.4808"/>
</g>
<!-- Node46 -->
<g id="node27" class="node">
<title>Node46</title>
<g id="a_node27"><a xlink:href="WaterPropsIAPWS_8h.html" target="_top" xlink:title="Headers for a class for calculating the equation of state of water from the IAPWS 1995 Formulation ba...">
<polygon fill="#ffffff" stroke="#000000" points="7.5,-112.5 7.5,-131.5 117.5,-131.5 117.5,-112.5 7.5,-112.5"/>
<text text-anchor="middle" x="62.5" y="-119.5" font-family="Helvetica,sans-Serif" font-size="10.00" fill="#000000">WaterPropsIAPWS.h</text>
</a>
</g>
</g>
<!-- Node45&#45;&gt;Node46 -->
<g id="edge37" class="edge">
<title>Node45&#45;&gt;Node46</title>
<path fill="none" stroke="#191970" d="M57.9831,-168.2977C58.7553,-160.3834 59.7093,-150.6043 60.5414,-142.0759"/>
<polygon fill="#191970" stroke="#191970" points="64.0517,-142.1396 61.5393,-131.8469 57.0848,-141.4598 64.0517,-142.1396"/>
</g>
<!-- Node48 -->
<g id="node29" class="node">
<title>Node48</title>
<g id="a_node29"><a xlink:href="WaterProps_8h.html" target="_top" xlink:title="Header for a class used to house several approximation routines for properties of water...">
<polygon fill="#ffffff" stroke="#000000" points="253,-112.5 253,-131.5 330,-131.5 330,-112.5 253,-112.5"/>
<text text-anchor="middle" x="291.5" y="-119.5" font-family="Helvetica,sans-Serif" font-size="10.00" fill="#000000">WaterProps.h</text>
</a>
</g>
</g>
<!-- Node45&#45;&gt;Node48 -->
<g id="edge40" class="edge">
<title>Node45&#45;&gt;Node48</title>
<path fill="none" stroke="#191970" d="M113.0874,-168.691C153.6058,-158.0872 207.4815,-143.9878 245.3907,-134.0669"/>
<polygon fill="#191970" stroke="#191970" points="246.3621,-137.4306 255.1502,-131.5128 244.5898,-130.6587 246.3621,-137.4306"/>
</g>
<!-- Node47 -->
<g id="node28" class="node">
<title>Node47</title>
<g id="a_node28"><a xlink:href="WaterPropsIAPWSphi_8h.html" target="_top" xlink:title="Header for Lowest level of the classes which support a real water model (see class WaterPropsIAPWS an...">
<polygon fill="#ffffff" stroke="#000000" points="43.5,-56.5 43.5,-75.5 165.5,-75.5 165.5,-56.5 43.5,-56.5"/>
<text text-anchor="middle" x="104.5" y="-63.5" font-family="Helvetica,sans-Serif" font-size="10.00" fill="#000000">WaterPropsIAPWSphi.h</text>
</a>
</g>
</g>
<!-- Node46&#45;&gt;Node47 -->
<g id="edge38" class="edge">
<title>Node46&#45;&gt;Node47</title>
<path fill="none" stroke="#191970" d="M69.8158,-112.2455C75.7179,-104.3761 84.1742,-93.101 91.2594,-83.6542"/>
<polygon fill="#191970" stroke="#191970" points="94.068,-85.7427 97.268,-75.6427 88.4679,-81.5427 94.068,-85.7427"/>
</g>
<!-- Node47&#45;&gt;Node9 -->
<g id="edge39" class="edge">
<title>Node47&#45;&gt;Node9</title>
<path fill="none" stroke="#191970" d="M130.114,-56.3733C154.5687,-47.1822 191.6054,-33.2624 218.7209,-23.0713"/>
<polygon fill="#191970" stroke="#191970" points="220.0909,-26.2956 228.2202,-19.5011 217.6281,-19.7431 220.0909,-26.2956"/>
</g>
<!-- Node48&#45;&gt;Node8 -->
<g id="edge41" class="edge">
<title>Node48&#45;&gt;Node8</title>
<path fill="none" stroke="#191970" d="M319.3488,-112.3733C346.1703,-103.1016 386.9127,-89.0178 416.4598,-78.804"/>
<polygon fill="#191970" stroke="#191970" points="417.7069,-82.0762 426.0146,-75.5011 415.4198,-75.4603 417.7069,-82.0762"/>
</g>
<!-- Node50&#45;&gt;Node8 -->
<g id="edge44" class="edge">
<title>Node50&#45;&gt;Node8</title>
<path fill="none" stroke="#191970" d="M240.2834,-173.9703C302.5294,-160.5869 408.4163,-137.265 415.5,-132 431.0412,-120.4489 441.2373,-100.5138 447.1176,-85.5678"/>
<polygon fill="#191970" stroke="#191970" points="450.5552,-86.3522 450.6514,-75.7578 443.9694,-83.9798 450.5552,-86.3522"/>
</g>
<!-- Node50&#45;&gt;Node14 -->
<g id="edge46" class="edge">
<title>Node50&#45;&gt;Node14</title>
<path fill="none" stroke="#191970" d="M200.3472,-173.8105C208.0161,-159.1617 224.087,-131.0673 243.5,-112 282.6153,-73.5813 338.3983,-41.6764 372.1523,-24.2703"/>
<polygon fill="#191970" stroke="#191970" points="374.1308,-27.1914 381.4669,-19.5472 370.9651,-20.9481 374.1308,-27.1914"/>
</g>
<!-- Node50&#45;&gt;Node7 -->
<g id="edge45" class="edge">
<title>Node50&#45;&gt;Node7</title>
<path fill="none" stroke="#191970" d="M238.6656,-173.9842C248.4575,-171.9233 258.8227,-169.8184 268.5,-168 344.9248,-153.6392 433.5269,-139.5585 490.4847,-130.836"/>
<polygon fill="#191970" stroke="#191970" points="491.035,-134.2926 500.3925,-129.3239 489.9789,-127.3727 491.035,-134.2926"/>
</g>
<!-- Node51&#45;&gt;Node8 -->
<g id="edge48" class="edge">
<title>Node51&#45;&gt;Node8</title>
<path fill="none" stroke="#191970" d="M791.2788,-295.5739C889.0998,-283.343 1085.5094,-248.1899 1018.5,-168 950.8645,-87.0609 608.8942,-70.2361 492.4182,-66.8357"/>
<polygon fill="#191970" stroke="#191970" points="492.2763,-63.3306 482.1841,-66.5549 492.0843,-70.3279 492.2763,-63.3306"/>
</g>
<!-- Node51&#45;&gt;Node41 -->
<g id="edge49" class="edge">
<title>Node51&#45;&gt;Node41</title>
<path fill="none" stroke="#191970" d="M727.1327,-291.2455C716.5446,-282.8943 701.0936,-270.7076 688.7107,-260.9408"/>
<polygon fill="#191970" stroke="#191970" points="690.7447,-258.0875 680.7255,-254.6427 686.4097,-263.5837 690.7447,-258.0875"/>
</g>
</g>
</svg>
