<?xml version="1.0" encoding="UTF-8" standalone="no"?>
<!DOCTYPE svg PUBLIC "-//W3C//DTD SVG 1.1//EN"
 "http://www.w3.org/Graphics/SVG/1.1/DTD/svg11.dtd">
<!-- Generated by graphviz version 2.40.1 (20161225.0304)
 -->
<!-- Title: IDA_Solver.cpp Pages: 1 -->
<svg width="1177pt" height="375pt"
 viewBox="0.00 0.00 1176.50 375.00" xmlns="http://www.w3.org/2000/svg" xmlns:xlink="http://www.w3.org/1999/xlink">
<g id="graph0" class="graph" transform="scale(1 1) rotate(0) translate(4 371)">
<title>IDA_Solver.cpp</title>
<polygon fill="#ffffff" stroke="transparent" points="-4,4 -4,-371 1172.5,-371 1172.5,4 -4,4"/>
<!-- Node0 -->
<g id="node1" class="node">
<title>Node0</title>
<polygon fill="#bfbfbf" stroke="#000000" points="654,-347.5 654,-366.5 740,-366.5 740,-347.5 654,-347.5"/>
<text text-anchor="middle" x="697" y="-354.5" font-family="Helvetica,sans-Serif" font-size="10.00" fill="#000000">IDA_Solver.cpp</text>
</g>
<!-- Node1 -->
<g id="node2" class="node">
<title>Node1</title>
<g id="a_node2"><a xlink:href="IDA__Solver_8h.html" target="_top" xlink:title="Header file for class IDA_Solver. ">
<polygon fill="#ffffff" stroke="#000000" points="197,-280.5 197,-310.5 309,-310.5 309,-280.5 197,-280.5"/>
<text text-anchor="start" x="205" y="-298.5" font-family="Helvetica,sans-Serif" font-size="10.00" fill="#000000">cantera/numerics/IDA</text>
<text text-anchor="middle" x="253" y="-287.5" font-family="Helvetica,sans-Serif" font-size="10.00" fill="#000000">_Solver.h</text>
</a>
</g>
</g>
<!-- Node0&#45;&gt;Node1 -->
<g id="edge1" class="edge">
<title>Node0&#45;&gt;Node1</title>
<path fill="none" stroke="#191970" d="M653.8196,-352.316C585.9837,-344.7733 450.3778,-328.9517 336,-311 330.5694,-310.1477 324.9488,-309.2124 319.3105,-308.2369"/>
<polygon fill="#191970" stroke="#191970" points="319.6358,-304.7403 309.1793,-306.4466 318.4177,-311.6335 319.6358,-304.7403"/>
</g>
<!-- Node29 -->
<g id="node12" class="node">
<title>Node29</title>
<g id="a_node12"><a xlink:href="stringUtils_8h.html" target="_top" xlink:title="Contains declarations for string manipulation functions within Cantera. ">
<polygon fill="#ffffff" stroke="#000000" points="286,-168.5 286,-187.5 414,-187.5 414,-168.5 286,-168.5"/>
<text text-anchor="middle" x="350" y="-175.5" font-family="Helvetica,sans-Serif" font-size="10.00" fill="#000000">cantera/base/stringUtils.h</text>
</a>
</g>
</g>
<!-- Node0&#45;&gt;Node29 -->
<g id="edge14" class="edge">
<title>Node0&#45;&gt;Node29</title>
<path fill="none" stroke="#191970" d="M653.8549,-353.7852C569.6532,-347.1051 389.8815,-330.6935 370,-311 339.9776,-281.2615 342.408,-227.1011 346.4109,-197.9106"/>
<polygon fill="#191970" stroke="#191970" points="349.9172,-198.1444 348.0159,-187.7216 343.0024,-197.0551 349.9172,-198.1444"/>
</g>
<!-- Node30 -->
<g id="node13" class="node">
<title>Node30</title>
<polygon fill="#ffffff" stroke="#bfbfbf" points="378.5,-286 378.5,-305 507.5,-305 507.5,-286 378.5,-286"/>
<text text-anchor="middle" x="443" y="-293" font-family="Helvetica,sans-Serif" font-size="10.00" fill="#000000">sundials/sundials_types.h</text>
</g>
<!-- Node0&#45;&gt;Node30 -->
<g id="edge18" class="edge">
<title>Node0&#45;&gt;Node30</title>
<path fill="none" stroke="#191970" d="M657.5912,-347.4581C613.1003,-336.6857 540.6469,-319.1428 492.4085,-307.4631"/>
<polygon fill="#191970" stroke="#191970" points="493.0441,-304.0159 482.5013,-305.0643 491.3968,-310.8193 493.0441,-304.0159"/>
</g>
<!-- Node31 -->
<g id="node14" class="node">
<title>Node31</title>
<polygon fill="#ffffff" stroke="#bfbfbf" points="525.5,-286 525.5,-305 652.5,-305 652.5,-286 525.5,-286"/>
<text text-anchor="middle" x="589" y="-293" font-family="Helvetica,sans-Serif" font-size="10.00" fill="#000000">sundials/sundials_math.h</text>
</g>
<!-- Node0&#45;&gt;Node31 -->
<g id="edge19" class="edge">
<title>Node0&#45;&gt;Node31</title>
<path fill="none" stroke="#191970" d="M680.125,-347.3906C662.5302,-337.3713 634.7434,-321.5483 614.4759,-310.0071"/>
<polygon fill="#191970" stroke="#191970" points="616.1783,-306.9489 605.7565,-305.0419 612.7144,-313.0318 616.1783,-306.9489"/>
</g>
<!-- Node32 -->
<g id="node15" class="node">
<title>Node32</title>
<polygon fill="#ffffff" stroke="#bfbfbf" points="670.5,-286 670.5,-305 723.5,-305 723.5,-286 670.5,-286"/>
<text text-anchor="middle" x="697" y="-293" font-family="Helvetica,sans-Serif" font-size="10.00" fill="#000000">ida/ida.h</text>
</g>
<!-- Node0&#45;&gt;Node32 -->
<g id="edge20" class="edge">
<title>Node0&#45;&gt;Node32</title>
<path fill="none" stroke="#191970" d="M697,-347.3906C697,-338.8657 697,-326.1392 697,-315.4235"/>
<polygon fill="#191970" stroke="#191970" points="700.5001,-315.2448 697,-305.2449 693.5001,-315.2449 700.5001,-315.2448"/>
</g>
<!-- Node33 -->
<g id="node16" class="node">
<title>Node33</title>
<polygon fill="#ffffff" stroke="#bfbfbf" points="741.5,-286 741.5,-305 826.5,-305 826.5,-286 741.5,-286"/>
<text text-anchor="middle" x="784" y="-293" font-family="Helvetica,sans-Serif" font-size="10.00" fill="#000000">ida/ida_dense.h</text>
</g>
<!-- Node0&#45;&gt;Node33 -->
<g id="edge21" class="edge">
<title>Node0&#45;&gt;Node33</title>
<path fill="none" stroke="#191970" d="M710.5938,-347.3906C724.3843,-337.6421 745.9472,-322.3994 762.141,-310.9521"/>
<polygon fill="#191970" stroke="#191970" points="764.3563,-313.6723 770.5017,-305.0419 760.3156,-307.9563 764.3563,-313.6723"/>
</g>
<!-- Node34 -->
<g id="node17" class="node">
<title>Node34</title>
<polygon fill="#ffffff" stroke="#bfbfbf" points="845,-286 845,-305 931,-305 931,-286 845,-286"/>
<text text-anchor="middle" x="888" y="-293" font-family="Helvetica,sans-Serif" font-size="10.00" fill="#000000">ida/ida_spgmr.h</text>
</g>
<!-- Node0&#45;&gt;Node34 -->
<g id="edge22" class="edge">
<title>Node0&#45;&gt;Node34</title>
<path fill="none" stroke="#191970" d="M726.8438,-347.3906C759.6425,-336.8298 812.4672,-319.8208 848.6364,-308.1747"/>
<polygon fill="#191970" stroke="#191970" points="849.9198,-311.4385 858.3658,-305.0419 847.7743,-304.7753 849.9198,-311.4385"/>
</g>
<!-- Node35 -->
<g id="node18" class="node">
<title>Node35</title>
<polygon fill="#ffffff" stroke="#bfbfbf" points="949,-286 949,-305 1029,-305 1029,-286 949,-286"/>
<text text-anchor="middle" x="989" y="-293" font-family="Helvetica,sans-Serif" font-size="10.00" fill="#000000">ida/ida_band.h</text>
</g>
<!-- Node0&#45;&gt;Node35 -->
<g id="edge23" class="edge">
<title>Node0&#45;&gt;Node35</title>
<path fill="none" stroke="#191970" d="M740.3564,-350.3958C789.2279,-342.5814 870.8834,-328.4076 940,-311 943.6312,-310.0854 947.3888,-309.0542 951.1337,-307.969"/>
<polygon fill="#191970" stroke="#191970" points="952.3599,-311.2549 960.9215,-305.0139 950.3366,-304.5537 952.3599,-311.2549"/>
</g>
<!-- Node36 -->
<g id="node19" class="node">
<title>Node36</title>
<polygon fill="#ffffff" stroke="#bfbfbf" points="1047.5,-286 1047.5,-305 1168.5,-305 1168.5,-286 1047.5,-286"/>
<text text-anchor="middle" x="1108" y="-293" font-family="Helvetica,sans-Serif" font-size="10.00" fill="#000000">nvector/nvector_serial.h</text>
</g>
<!-- Node0&#45;&gt;Node36 -->
<g id="edge24" class="edge">
<title>Node0&#45;&gt;Node36</title>
<path fill="none" stroke="#191970" d="M740.2442,-352.3436C805.1606,-345.088 931.5452,-329.9319 1038,-311 1044.3534,-309.8701 1051.0043,-308.5622 1057.5717,-307.1946"/>
<polygon fill="#191970" stroke="#191970" points="1058.7216,-310.5279 1067.7684,-305.0136 1057.2575,-303.6828 1058.7216,-310.5279"/>
</g>
<!-- Node2 -->
<g id="node3" class="node">
<title>Node2</title>
<g id="a_node3"><a xlink:href="DAE__Solver_8h.html" target="_top" xlink:title="Header file for class DAE_Solver. ">
<polygon fill="#ffffff" stroke="#000000" points="87.5,-224.5 87.5,-243.5 166.5,-243.5 166.5,-224.5 87.5,-224.5"/>
<text text-anchor="middle" x="127" y="-231.5" font-family="Helvetica,sans-Serif" font-size="10.00" fill="#000000">DAE_Solver.h</text>
</a>
</g>
</g>
<!-- Node1&#45;&gt;Node2 -->
<g id="edge2" class="edge">
<title>Node1&#45;&gt;Node2</title>
<path fill="none" stroke="#191970" d="M222.1769,-280.4554C201.8912,-270.554 175.5212,-257.683 155.6838,-248.0004"/>
<polygon fill="#191970" stroke="#191970" points="157.0474,-244.7714 146.5255,-243.5303 153.977,-251.062 157.0474,-244.7714"/>
</g>
<!-- Node28 -->
<g id="node11" class="node">
<title>Node28</title>
<polygon fill="#ffffff" stroke="#bfbfbf" points="184.5,-224.5 184.5,-243.5 321.5,-243.5 321.5,-224.5 184.5,-224.5"/>
<text text-anchor="middle" x="253" y="-231.5" font-family="Helvetica,sans-Serif" font-size="10.00" fill="#000000">sundials/sundials_nvector.h</text>
</g>
<!-- Node1&#45;&gt;Node28 -->
<g id="edge13" class="edge">
<title>Node1&#45;&gt;Node28</title>
<path fill="none" stroke="#191970" d="M253,-280.2977C253,-272.3834 253,-262.6043 253,-254.0759"/>
<polygon fill="#191970" stroke="#191970" points="256.5001,-253.8469 253,-243.8469 249.5001,-253.847 256.5001,-253.8469"/>
</g>
<!-- Node3 -->
<g id="node4" class="node">
<title>Node3</title>
<g id="a_node4"><a xlink:href="ResidJacEval_8h.html" target="_top" xlink:title="Dense, Square (not sparse) matrices. ">
<polygon fill="#ffffff" stroke="#000000" points="75,-168.5 75,-187.5 161,-187.5 161,-168.5 75,-168.5"/>
<text text-anchor="middle" x="118" y="-175.5" font-family="Helvetica,sans-Serif" font-size="10.00" fill="#000000">ResidJacEval.h</text>
</a>
</g>
</g>
<!-- Node2&#45;&gt;Node3 -->
<g id="edge3" class="edge">
<title>Node2&#45;&gt;Node3</title>
<path fill="none" stroke="#191970" d="M125.4323,-224.2455C124.2579,-216.9382 122.6116,-206.6944 121.1668,-197.7046"/>
<polygon fill="#191970" stroke="#191970" points="124.5922,-196.9606 119.5497,-187.6427 117.6809,-198.0714 124.5922,-196.9606"/>
</g>
<!-- Node20 -->
<g id="node9" class="node">
<title>Node20</title>
<g id="a_node9"><a xlink:href="global_8h.html" target="_top" xlink:title="This file contains definitions for utility functions and text for modules, inputfiles, logs, textlogs, (see Input File Handling, Diagnostic Output, and Writing messages to the screen). ">
<polygon fill="#ffffff" stroke="#000000" points="179,-168.5 179,-187.5 229,-187.5 229,-168.5 179,-168.5"/>
<text text-anchor="middle" x="204" y="-175.5" font-family="Helvetica,sans-Serif" font-size="10.00" fill="#000000">global.h</text>
</a>
</g>
</g>
<!-- Node2&#45;&gt;Node20 -->
<g id="edge9" class="edge">
<title>Node2&#45;&gt;Node20</title>
<path fill="none" stroke="#191970" d="M140.4124,-224.2455C152.0057,-215.814 168.9748,-203.4729 182.4678,-193.6598"/>
<polygon fill="#191970" stroke="#191970" points="184.7126,-196.355 190.7413,-187.6427 180.5953,-190.6938 184.7126,-196.355"/>
</g>
<!-- Node4 -->
<g id="node5" class="node">
<title>Node4</title>
<g id="a_node5"><a xlink:href="ResidEval_8h.html" target="_top" xlink:title="ResidEval.h">
<polygon fill="#ffffff" stroke="#ff0000" points="0,-112.5 0,-131.5 70,-131.5 70,-112.5 0,-112.5"/>
<text text-anchor="middle" x="35" y="-119.5" font-family="Helvetica,sans-Serif" font-size="10.00" fill="#000000">ResidEval.h</text>
</a>
</g>
</g>
<!-- Node3&#45;&gt;Node4 -->
<g id="edge4" class="edge">
<title>Node3&#45;&gt;Node4</title>
<path fill="none" stroke="#191970" d="M103.5425,-168.2455C90.9268,-159.7337 72.4056,-147.2375 57.7955,-137.3801"/>
<polygon fill="#191970" stroke="#191970" points="59.5391,-134.3343 49.2918,-131.6427 55.6239,-140.1371 59.5391,-134.3343"/>
</g>
<!-- Node24 -->
<g id="node8" class="node">
<title>Node24</title>
<g id="a_node8"><a xlink:href="DenseMatrix_8h.html" target="_top" xlink:title="Headers for the DenseMatrix object, which deals with dense rectangular matrices and description of th...">
<polygon fill="#ffffff" stroke="#ff0000" points="88,-112.5 88,-131.5 168,-131.5 168,-112.5 88,-112.5"/>
<text text-anchor="middle" x="128" y="-119.5" font-family="Helvetica,sans-Serif" font-size="10.00" fill="#000000">DenseMatrix.h</text>
</a>
</g>
</g>
<!-- Node3&#45;&gt;Node24 -->
<g id="edge7" class="edge">
<title>Node3&#45;&gt;Node24</title>
<path fill="none" stroke="#191970" d="M119.7419,-168.2455C121.0467,-160.9382 122.876,-150.6944 124.4813,-141.7046"/>
<polygon fill="#191970" stroke="#191970" points="127.9656,-142.1022 126.2781,-131.6427 121.0746,-140.8717 127.9656,-142.1022"/>
</g>
<!-- Node5 -->
<g id="node6" class="node">
<title>Node5</title>
<g id="a_node6"><a xlink:href="ct__defs_8h.html" target="_top" xlink:title="This file contains definitions of terms that are used in internal routines and are unlikely to need m...">
<polygon fill="#ffffff" stroke="#ff0000" points="177,-56.5 177,-75.5 293,-75.5 293,-56.5 177,-56.5"/>
<text text-anchor="middle" x="235" y="-63.5" font-family="Helvetica,sans-Serif" font-size="10.00" fill="#000000">cantera/base/ct_defs.h</text>
</a>
</g>
</g>
<!-- Node4&#45;&gt;Node5 -->
<g id="edge5" class="edge">
<title>Node4&#45;&gt;Node5</title>
<path fill="none" stroke="#191970" d="M69.3812,-112.3733C103.0701,-102.9404 154.5482,-88.5265 191.1618,-78.2747"/>
<polygon fill="#191970" stroke="#191970" points="192.3815,-81.5679 201.0674,-75.5011 190.494,-74.8271 192.3815,-81.5679"/>
</g>
<!-- Node11 -->
<g id="node7" class="node">
<title>Node11</title>
<polygon fill="#ffffff" stroke="#bfbfbf" points="271.5,-.5 271.5,-19.5 312.5,-19.5 312.5,-.5 271.5,-.5"/>
<text text-anchor="middle" x="292" y="-7.5" font-family="Helvetica,sans-Serif" font-size="10.00" fill="#000000">string</text>
</g>
<!-- Node5&#45;&gt;Node11 -->
<g id="edge6" class="edge">
<title>Node5&#45;&gt;Node11</title>
<path fill="none" stroke="#191970" d="M244.9286,-56.2455C253.1838,-48.1352 265.1209,-36.4075 274.9082,-26.7919"/>
<polygon fill="#191970" stroke="#191970" points="277.5046,-29.1476 282.1851,-19.6427 272.5989,-24.1542 277.5046,-29.1476"/>
</g>
<!-- Node24&#45;&gt;Node5 -->
<g id="edge8" class="edge">
<title>Node24&#45;&gt;Node5</title>
<path fill="none" stroke="#191970" d="M146.638,-112.2455C163.4386,-103.4527 188.3634,-90.4079 207.4618,-80.4125"/>
<polygon fill="#191970" stroke="#191970" points="209.3386,-83.3807 216.5756,-75.6427 206.0927,-77.1787 209.3386,-83.3807"/>
</g>
<!-- Node20&#45;&gt;Node5 -->
<g id="edge10" class="edge">
<title>Node20&#45;&gt;Node5</title>
<path fill="none" stroke="#191970" d="M204.8521,-168.436C206.1758,-155.4484 209.2,-131.6049 215,-112 217.7399,-102.7387 221.8595,-92.8684 225.6491,-84.6549"/>
<polygon fill="#191970" stroke="#191970" points="228.8186,-86.1398 229.9931,-75.6103 222.5087,-83.1093 228.8186,-86.1398"/>
</g>
<!-- Node15 -->
<g id="node10" class="node">
<title>Node15</title>
<g id="a_node10"><a xlink:href="fmt_8h.html" target="_top" xlink:title="Wrapper for either system&#45;installed or local headers for fmt. ">
<polygon fill="#ffffff" stroke="#ff0000" points="224,-112.5 224,-131.5 322,-131.5 322,-112.5 224,-112.5"/>
<text text-anchor="middle" x="273" y="-119.5" font-family="Helvetica,sans-Serif" font-size="10.00" fill="#000000">cantera/base/fmt.h</text>
</a>
</g>
</g>
<!-- Node20&#45;&gt;Node15 -->
<g id="edge11" class="edge">
<title>Node20&#45;&gt;Node15</title>
<path fill="none" stroke="#191970" d="M216.0189,-168.2455C226.2098,-159.9746 241.0362,-147.9416 253.0107,-138.2232"/>
<polygon fill="#191970" stroke="#191970" points="255.5598,-140.662 261.1188,-131.6427 251.1486,-135.2268 255.5598,-140.662"/>
</g>
<!-- Node15&#45;&gt;Node5 -->
<g id="edge12" class="edge">
<title>Node15&#45;&gt;Node5</title>
<path fill="none" stroke="#191970" d="M266.3809,-112.2455C261.0954,-104.4564 253.5459,-93.3308 247.1762,-83.9439"/>
<polygon fill="#191970" stroke="#191970" points="250.0545,-81.9522 241.5432,-75.6427 244.2621,-85.8827 250.0545,-81.9522"/>
</g>
<!-- Node29&#45;&gt;Node5 -->
<g id="edge15" class="edge">
<title>Node29&#45;&gt;Node5</title>
<path fill="none" stroke="#191970" d="M349.6356,-168.3356C348.6236,-154.3586 344.8615,-128.3861 331,-112 318.2099,-96.8804 299.3071,-86.3587 281.6498,-79.2348"/>
<polygon fill="#191970" stroke="#191970" points="282.6073,-75.8559 272.0151,-75.6191 280.1478,-82.4095 282.6073,-75.8559"/>
</g>
<!-- Node29&#45;&gt;Node11 -->
<g id="edge17" class="edge">
<title>Node29&#45;&gt;Node11</title>
<path fill="none" stroke="#191970" d="M351.5104,-168.4043C353.2222,-155.3806 355.1555,-131.4965 350,-112 341.503,-79.8671 320.277,-47.2604 305.999,-27.8365"/>
<polygon fill="#191970" stroke="#191970" points="308.6375,-25.5226 299.8163,-19.6542 303.0525,-29.7427 308.6375,-25.5226"/>
</g>
<!-- Node29&#45;&gt;Node15 -->
<g id="edge16" class="edge">
<title>Node29&#45;&gt;Node15</title>
<path fill="none" stroke="#191970" d="M336.5876,-168.2455C324.9943,-159.814 308.0252,-147.4729 294.5322,-137.6598"/>
<polygon fill="#191970" stroke="#191970" points="296.4047,-134.6938 286.2587,-131.6427 292.2874,-140.355 296.4047,-134.6938"/>
</g>
</g>
</svg>
