<?xml version="1.0" encoding="UTF-8" standalone="no"?>
<!DOCTYPE svg PUBLIC "-//W3C//DTD SVG 1.1//EN"
 "http://www.w3.org/Graphics/SVG/1.1/DTD/svg11.dtd">
<!-- Generated by graphviz version 2.40.1 (20161225.0304)
 -->
<!-- Title: IncompressibleSolid.h Pages: 1 -->
<svg width="1099pt" height="420pt"
 viewBox="0.00 0.00 1098.50 420.00" xmlns="http://www.w3.org/2000/svg" xmlns:xlink="http://www.w3.org/1999/xlink">
<g id="graph0" class="graph" transform="scale(1 1) rotate(0) translate(4 416)">
<title>IncompressibleSolid.h</title>
<polygon fill="#ffffff" stroke="transparent" points="-4,4 -4,-416 1094.5,-416 1094.5,4 -4,4"/>
<!-- Node0 -->
<g id="node1" class="node">
<title>Node0</title>
<polygon fill="#bfbfbf" stroke="#000000" points="230.5,-392.5 230.5,-411.5 343.5,-411.5 343.5,-392.5 230.5,-392.5"/>
<text text-anchor="middle" x="287" y="-399.5" font-family="Helvetica,sans-Serif" font-size="10.00" fill="#000000">IncompressibleSolid.h</text>
</g>
<!-- Node1 -->
<g id="node2" class="node">
<title>Node1</title>
<g id="a_node2"><a xlink:href="ConstDensityThermo_8h.html" target="_top" xlink:title="Header for a Thermo manager for incompressible ThermoPhases (see Thermodynamic Properties and ConstDe...">
<polygon fill="#ffffff" stroke="#000000" points="149.5,-280.5 149.5,-299.5 300.5,-299.5 300.5,-280.5 149.5,-280.5"/>
<text text-anchor="middle" x="225" y="-287.5" font-family="Helvetica,sans-Serif" font-size="10.00" fill="#000000">thermo/ConstDensityThermo.h</text>
</a>
</g>
</g>
<!-- Node0&#45;&gt;Node1 -->
<g id="edge1" class="edge">
<title>Node0&#45;&gt;Node1</title>
<path fill="none" stroke="#191970" d="M281.7139,-392.4509C271.4188,-373.8533 248.5223,-332.4919 235.1837,-308.3964"/>
<polygon fill="#191970" stroke="#191970" points="238.178,-306.5787 230.2727,-299.5249 232.0538,-309.969 238.178,-306.5787"/>
</g>
<!-- Node34 -->
<g id="node16" class="node">
<title>Node34</title>
<g id="a_node16"><a xlink:href="importKinetics_8h.html" target="_top" xlink:title="Definitions of global routines for the importing of data from XML files (see Input File Handling)...">
<polygon fill="#ffffff" stroke="#000000" points="278,-336.5 278,-355.5 402,-355.5 402,-336.5 278,-336.5"/>
<text text-anchor="middle" x="340" y="-343.5" font-family="Helvetica,sans-Serif" font-size="10.00" fill="#000000">kinetics/importKinetics.h</text>
</a>
</g>
</g>
<!-- Node0&#45;&gt;Node34 -->
<g id="edge23" class="edge">
<title>Node0&#45;&gt;Node34</title>
<path fill="none" stroke="#191970" d="M296.2319,-392.2455C303.8317,-384.2155 314.7877,-372.6394 323.8368,-363.0781"/>
<polygon fill="#191970" stroke="#191970" points="326.5421,-365.3115 330.8739,-355.6427 321.458,-360.4998 326.5421,-365.3115"/>
</g>
<!-- Node2 -->
<g id="node3" class="node">
<title>Node2</title>
<g id="a_node3"><a xlink:href="ThermoPhase_8h.html" target="_top" xlink:title="Header file for class ThermoPhase, the base class for phases with thermodynamic properties, and the text for the Module thermoprops (see Thermodynamic Properties and class ThermoPhase). ">
<polygon fill="#ffffff" stroke="#000000" points="244,-224.5 244,-243.5 330,-243.5 330,-224.5 244,-224.5"/>
<text text-anchor="middle" x="287" y="-231.5" font-family="Helvetica,sans-Serif" font-size="10.00" fill="#000000">ThermoPhase.h</text>
</a>
</g>
</g>
<!-- Node1&#45;&gt;Node2 -->
<g id="edge2" class="edge">
<title>Node1&#45;&gt;Node2</title>
<path fill="none" stroke="#191970" d="M235.7996,-280.2455C244.8678,-272.0549 258.0206,-260.1749 268.7245,-250.5069"/>
<polygon fill="#191970" stroke="#191970" points="271.2491,-252.9429 276.3242,-243.6427 266.5571,-247.7482 271.2491,-252.9429"/>
</g>
<!-- Node31 -->
<g id="node13" class="node">
<title>Node31</title>
<g id="a_node13"><a xlink:href="utilities_8h.html" target="_top" xlink:title="Various templated functions that carry out common vector operations (see Templated Utility Functions)...">
<polygon fill="#ffffff" stroke="#000000" points="83.5,-112.5 83.5,-131.5 198.5,-131.5 198.5,-112.5 83.5,-112.5"/>
<text text-anchor="middle" x="141" y="-119.5" font-family="Helvetica,sans-Serif" font-size="10.00" fill="#000000">cantera/base/utilities.h</text>
</a>
</g>
</g>
<!-- Node1&#45;&gt;Node31 -->
<g id="edge18" class="edge">
<title>Node1&#45;&gt;Node31</title>
<path fill="none" stroke="#191970" d="M220.2431,-280.4862C206.8497,-253.6994 168.6282,-177.2565 150.6145,-141.2289"/>
<polygon fill="#191970" stroke="#191970" points="153.5166,-139.2069 145.9139,-131.8279 147.2556,-142.3374 153.5166,-139.2069"/>
</g>
<!-- Node3 -->
<g id="node4" class="node">
<title>Node3</title>
<g id="a_node4"><a xlink:href="Phase_8h.html" target="_top" xlink:title="Header file for class Phase. ">
<polygon fill="#ffffff" stroke="#000000" points="785.5,-112.5 785.5,-131.5 838.5,-131.5 838.5,-112.5 785.5,-112.5"/>
<text text-anchor="middle" x="812" y="-119.5" font-family="Helvetica,sans-Serif" font-size="10.00" fill="#000000">Phase.h</text>
</a>
</g>
</g>
<!-- Node2&#45;&gt;Node3 -->
<g id="edge3" class="edge">
<title>Node2&#45;&gt;Node3</title>
<path fill="none" stroke="#191970" d="M330.075,-226.0814C413.9086,-210.4398 604.9571,-173.6672 775.4077,-132.0345"/>
<polygon fill="#191970" stroke="#191970" points="776.4325,-135.3869 785.3102,-129.6045 774.7642,-128.5886 776.4325,-135.3869"/>
</g>
<!-- Node28 -->
<g id="node10" class="node">
<title>Node28</title>
<g id="a_node10"><a xlink:href="MultiSpeciesThermo_8h.html" target="_top" xlink:title="Header for a general species thermodynamic property manager for a phase (see MultiSpeciesThermo). ">
<polygon fill="#ffffff" stroke="#000000" points="230,-168.5 230,-187.5 344,-187.5 344,-168.5 230,-168.5"/>
<text text-anchor="middle" x="287" y="-175.5" font-family="Helvetica,sans-Serif" font-size="10.00" fill="#000000">MultiSpeciesThermo.h</text>
</a>
</g>
</g>
<!-- Node2&#45;&gt;Node28 -->
<g id="edge11" class="edge">
<title>Node2&#45;&gt;Node28</title>
<path fill="none" stroke="#191970" d="M287,-224.2455C287,-216.9382 287,-206.6944 287,-197.7046"/>
<polygon fill="#191970" stroke="#191970" points="290.5001,-197.6426 287,-187.6427 283.5001,-197.6427 290.5001,-197.6426"/>
</g>
<!-- Node21 -->
<g id="node12" class="node">
<title>Node21</title>
<g id="a_node12"><a xlink:href="global_8h.html" target="_top" xlink:title="This file contains definitions for utility functions and text for modules, inputfiles, logs, textlogs, (see Input File Handling, Diagnostic Output, and Writing messages to the screen). ">
<polygon fill="#ffffff" stroke="#ff0000" points="0,-56.5 0,-75.5 110,-75.5 110,-56.5 0,-56.5"/>
<text text-anchor="middle" x="55" y="-63.5" font-family="Helvetica,sans-Serif" font-size="10.00" fill="#000000">cantera/base/global.h</text>
</a>
</g>
</g>
<!-- Node2&#45;&gt;Node21 -->
<g id="edge17" class="edge">
<title>Node2&#45;&gt;Node21</title>
<path fill="none" stroke="#191970" d="M243.7043,-224.5402C195.3947,-211.7505 118.2277,-184.2702 74,-132 63.0609,-119.0717 58.4116,-100.1732 56.44,-85.9086"/>
<polygon fill="#191970" stroke="#191970" points="59.8895,-85.2444 55.3639,-75.6648 52.9278,-85.9758 59.8895,-85.2444"/>
</g>
<!-- Node4 -->
<g id="node5" class="node">
<title>Node4</title>
<g id="a_node5"><a xlink:href="ctexceptions_8h.html" target="_top" xlink:title="Definitions for the classes that are thrown when Cantera experiences an error condition (also contain...">
<polygon fill="#ffffff" stroke="#ff0000" points="497,-56.5 497,-75.5 637,-75.5 637,-56.5 497,-56.5"/>
<text text-anchor="middle" x="567" y="-63.5" font-family="Helvetica,sans-Serif" font-size="10.00" fill="#000000">cantera/base/ctexceptions.h</text>
</a>
</g>
</g>
<!-- Node3&#45;&gt;Node4 -->
<g id="edge4" class="edge">
<title>Node3&#45;&gt;Node4</title>
<path fill="none" stroke="#191970" d="M785.3063,-114.4113C782.1756,-113.5729 779.0215,-112.7516 776,-112 724.5969,-99.2139 665.6259,-86.4022 623.4592,-77.5592"/>
<polygon fill="#191970" stroke="#191970" points="624.1588,-74.1298 613.6544,-75.5109 622.7273,-80.9819 624.1588,-74.1298"/>
</g>
<!-- Node18 -->
<g id="node6" class="node">
<title>Node18</title>
<g id="a_node6"><a xlink:href="Elements_8h.html" target="_top" xlink:title="Contains the getElementWeight function and the definitions of element constraint types. ">
<polygon fill="#ffffff" stroke="#000000" points="655,-56.5 655,-75.5 789,-75.5 789,-56.5 655,-56.5"/>
<text text-anchor="middle" x="722" y="-63.5" font-family="Helvetica,sans-Serif" font-size="10.00" fill="#000000">cantera/thermo/Elements.h</text>
</a>
</g>
</g>
<!-- Node3&#45;&gt;Node18 -->
<g id="edge5" class="edge">
<title>Node3&#45;&gt;Node18</title>
<path fill="none" stroke="#191970" d="M796.3232,-112.2455C782.5144,-103.6534 762.1807,-91.0014 746.2708,-81.1018"/>
<polygon fill="#191970" stroke="#191970" points="747.8368,-77.954 737.4972,-75.6427 744.1387,-83.8974 747.8368,-77.954"/>
</g>
<!-- Node19 -->
<g id="node8" class="node">
<title>Node19</title>
<g id="a_node8"><a xlink:href="Species_8h.html" target="_top" xlink:title="Declaration for class Cantera::Species. ">
<polygon fill="#ffffff" stroke="#ff0000" points="807,-56.5 807,-75.5 935,-75.5 935,-56.5 807,-56.5"/>
<text text-anchor="middle" x="871" y="-63.5" font-family="Helvetica,sans-Serif" font-size="10.00" fill="#000000">cantera/thermo/Species.h</text>
</a>
</g>
</g>
<!-- Node3&#45;&gt;Node19 -->
<g id="edge7" class="edge">
<title>Node3&#45;&gt;Node19</title>
<path fill="none" stroke="#191970" d="M822.277,-112.2455C830.8218,-104.1352 843.1778,-92.4075 853.3085,-82.7919"/>
<polygon fill="#191970" stroke="#191970" points="855.9972,-85.0655 860.8408,-75.6427 851.1782,-79.9884 855.9972,-85.0655"/>
</g>
<!-- Node26 -->
<g id="node9" class="node">
<title>Node26</title>
<g id="a_node9"><a xlink:href="ValueCache_8h.html" target="_top" xlink:title="cantera/base/ValueCache.h">
<polygon fill="#ffffff" stroke="#ff0000" points="953.5,-56.5 953.5,-75.5 1090.5,-75.5 1090.5,-56.5 953.5,-56.5"/>
<text text-anchor="middle" x="1022" y="-63.5" font-family="Helvetica,sans-Serif" font-size="10.00" fill="#000000">cantera/base/ValueCache.h</text>
</a>
</g>
</g>
<!-- Node3&#45;&gt;Node26 -->
<g id="edge9" class="edge">
<title>Node3&#45;&gt;Node26</title>
<path fill="none" stroke="#191970" d="M838.5966,-114.9076C873.2343,-105.6709 934.3186,-89.3817 976.4132,-78.1565"/>
<polygon fill="#191970" stroke="#191970" points="977.3871,-81.5192 986.1476,-75.5606 975.5834,-74.7555 977.3871,-81.5192"/>
</g>
<!-- Node6 -->
<g id="node7" class="node">
<title>Node6</title>
<g id="a_node7"><a xlink:href="ct__defs_8h.html" target="_top" xlink:title="This file contains definitions of terms that are used in internal routines and are unlikely to need m...">
<polygon fill="#ffffff" stroke="#ff0000" points="386.5,-.5 386.5,-19.5 443.5,-19.5 443.5,-.5 386.5,-.5"/>
<text text-anchor="middle" x="415" y="-7.5" font-family="Helvetica,sans-Serif" font-size="10.00" fill="#000000">ct_defs.h</text>
</a>
</g>
</g>
<!-- Node18&#45;&gt;Node6 -->
<g id="edge6" class="edge">
<title>Node18&#45;&gt;Node6</title>
<path fill="none" stroke="#191970" d="M669.5736,-56.4369C608.2759,-45.2555 508.2676,-27.013 453.6301,-17.0465"/>
<polygon fill="#191970" stroke="#191970" points="454.1197,-13.5782 443.654,-15.2268 452.8635,-20.4645 454.1197,-13.5782"/>
</g>
<!-- Node19&#45;&gt;Node6 -->
<g id="edge8" class="edge">
<title>Node19&#45;&gt;Node6</title>
<path fill="none" stroke="#191970" d="M806.9139,-57.1598C803.9012,-56.7635 800.9181,-56.3751 798,-56 672.2697,-39.8391 523.0825,-22.4286 453.8618,-14.4515"/>
<polygon fill="#191970" stroke="#191970" points="454.1824,-10.9653 443.8477,-13.299 453.382,-17.9194 454.1824,-10.9653"/>
</g>
<!-- Node26&#45;&gt;Node6 -->
<g id="edge10" class="edge">
<title>Node26&#45;&gt;Node6</title>
<path fill="none" stroke="#191970" d="M953.1145,-57.0138C950.0354,-56.6609 946.9863,-56.3211 944,-56 760.7978,-36.2992 541.1976,-19.3206 453.7138,-12.8228"/>
<polygon fill="#191970" stroke="#191970" points="453.9423,-9.3302 443.7113,-12.0828 453.4258,-16.3111 453.9423,-9.3302"/>
</g>
<!-- Node29 -->
<g id="node11" class="node">
<title>Node29</title>
<g id="a_node11"><a xlink:href="SpeciesThermoInterpType_8h.html" target="_top" xlink:title="Pure Virtual Base class for individual species reference state thermodynamic managers and text for th...">
<polygon fill="#ffffff" stroke="#ff0000" points="217,-112.5 217,-131.5 357,-131.5 357,-112.5 217,-112.5"/>
<text text-anchor="middle" x="287" y="-119.5" font-family="Helvetica,sans-Serif" font-size="10.00" fill="#000000">SpeciesThermoInterpType.h</text>
</a>
</g>
</g>
<!-- Node28&#45;&gt;Node29 -->
<g id="edge12" class="edge">
<title>Node28&#45;&gt;Node29</title>
<path fill="none" stroke="#191970" d="M287,-168.2455C287,-160.9382 287,-150.6944 287,-141.7046"/>
<polygon fill="#191970" stroke="#191970" points="290.5001,-141.6426 287,-131.6427 283.5001,-141.6427 290.5001,-141.6426"/>
</g>
<!-- Node29&#45;&gt;Node4 -->
<g id="edge14" class="edge">
<title>Node29&#45;&gt;Node4</title>
<path fill="none" stroke="#191970" d="M334.8156,-112.4369C383.1381,-102.7724 457.8372,-87.8326 509.3936,-77.5213"/>
<polygon fill="#191970" stroke="#191970" points="510.2623,-80.9169 519.3816,-75.5237 508.8894,-74.0529 510.2623,-80.9169"/>
</g>
<!-- Node29&#45;&gt;Node6 -->
<g id="edge13" class="edge">
<title>Node29&#45;&gt;Node6</title>
<path fill="none" stroke="#191970" d="M293.6433,-112.2234C303.2378,-98.5661 322.0255,-73.4897 342,-56 355.8676,-43.8575 373.2691,-32.7604 387.6036,-24.509"/>
<polygon fill="#191970" stroke="#191970" points="389.5009,-27.458 396.5126,-19.5152 386.0782,-21.3518 389.5009,-27.458"/>
</g>
<!-- Node29&#45;&gt;Node21 -->
<g id="edge15" class="edge">
<title>Node29&#45;&gt;Node21</title>
<path fill="none" stroke="#191970" d="M247.3814,-112.4369C207.8432,-102.8932 146.9931,-88.2052 104.3418,-77.9101"/>
<polygon fill="#191970" stroke="#191970" points="104.9973,-74.4679 94.4552,-75.5237 103.3548,-81.2724 104.9973,-74.4679"/>
</g>
<!-- Node21&#45;&gt;Node6 -->
<g id="edge16" class="edge">
<title>Node21&#45;&gt;Node6</title>
<path fill="none" stroke="#191970" d="M110.0681,-57.4338C183.5804,-45.9986 311.9504,-26.0299 376.1388,-16.0451"/>
<polygon fill="#191970" stroke="#191970" points="376.8985,-19.4691 386.2417,-14.4735 375.8225,-12.5523 376.8985,-19.4691"/>
</g>
<!-- Node31&#45;&gt;Node6 -->
<g id="edge19" class="edge">
<title>Node31&#45;&gt;Node6</title>
<path fill="none" stroke="#191970" d="M140.3194,-112.3289C139.8759,-97.8572 141.3682,-70.7004 157,-56 188.0825,-26.7696 312.1082,-15.6788 376.203,-11.8378"/>
<polygon fill="#191970" stroke="#191970" points="376.5389,-15.3245 386.3239,-11.2619 376.1412,-8.3358 376.5389,-15.3245"/>
</g>
<!-- Node31&#45;&gt;Node21 -->
<g id="edge20" class="edge">
<title>Node31&#45;&gt;Node21</title>
<path fill="none" stroke="#191970" d="M126.0199,-112.2455C112.8249,-103.6534 93.3949,-91.0014 78.1921,-81.1018"/>
<polygon fill="#191970" stroke="#191970" points="80.0983,-78.1665 69.8084,-75.6427 76.2785,-84.0325 80.0983,-78.1665"/>
</g>
<!-- Node32 -->
<g id="node14" class="node">
<title>Node32</title>
<polygon fill="#ffffff" stroke="#bfbfbf" points="235.5,-56.5 235.5,-75.5 294.5,-75.5 294.5,-56.5 235.5,-56.5"/>
<text text-anchor="middle" x="265" y="-63.5" font-family="Helvetica,sans-Serif" font-size="10.00" fill="#000000">stdexcept</text>
</g>
<!-- Node31&#45;&gt;Node32 -->
<g id="edge21" class="edge">
<title>Node31&#45;&gt;Node32</title>
<path fill="none" stroke="#191970" d="M162.3164,-112.3733C182.2216,-103.3838 212.1436,-89.8706 234.56,-79.7471"/>
<polygon fill="#191970" stroke="#191970" points="236.2887,-82.8068 243.9618,-75.5011 233.4075,-76.4272 236.2887,-82.8068"/>
</g>
<!-- Node33 -->
<g id="node15" class="node">
<title>Node33</title>
<polygon fill="#ffffff" stroke="#bfbfbf" points="166.5,-56.5 166.5,-75.5 217.5,-75.5 217.5,-56.5 166.5,-56.5"/>
<text text-anchor="middle" x="192" y="-63.5" font-family="Helvetica,sans-Serif" font-size="10.00" fill="#000000">numeric</text>
</g>
<!-- Node31&#45;&gt;Node33 -->
<g id="edge22" class="edge">
<title>Node31&#45;&gt;Node33</title>
<path fill="none" stroke="#191970" d="M149.8835,-112.2455C157.1966,-104.2155 167.7391,-92.6394 176.4467,-83.0781"/>
<polygon fill="#191970" stroke="#191970" points="179.0727,-85.3928 183.2183,-75.6427 173.8972,-80.6795 179.0727,-85.3928"/>
</g>
<!-- Node35 -->
<g id="node17" class="node">
<title>Node35</title>
<g id="a_node17"><a xlink:href="Kinetics_8h.html" target="_top" xlink:title="Base class for kinetics managers and also contains the kineticsmgr module documentation (see Kinetics...">
<polygon fill="#ffffff" stroke="#000000" points="319,-280.5 319,-299.5 379,-299.5 379,-280.5 319,-280.5"/>
<text text-anchor="middle" x="349" y="-287.5" font-family="Helvetica,sans-Serif" font-size="10.00" fill="#000000">Kinetics.h</text>
</a>
</g>
</g>
<!-- Node34&#45;&gt;Node35 -->
<g id="edge24" class="edge">
<title>Node34&#45;&gt;Node35</title>
<path fill="none" stroke="#191970" d="M341.5677,-336.2455C342.7421,-328.9382 344.3884,-318.6944 345.8332,-309.7046"/>
<polygon fill="#191970" stroke="#191970" points="349.3191,-310.0714 347.4503,-299.6427 342.4078,-308.9606 349.3191,-310.0714"/>
</g>
<!-- Node35&#45;&gt;Node2 -->
<g id="edge25" class="edge">
<title>Node35&#45;&gt;Node2</title>
<path fill="none" stroke="#191970" d="M338.2004,-280.2455C329.1322,-272.0549 315.9794,-260.1749 305.2755,-250.5069"/>
<polygon fill="#191970" stroke="#191970" points="307.4429,-247.7482 297.6758,-243.6427 302.7509,-252.9429 307.4429,-247.7482"/>
</g>
<!-- Node35&#45;&gt;Node21 -->
<g id="edge36" class="edge">
<title>Node35&#45;&gt;Node21</title>
<path fill="none" stroke="#191970" d="M318.925,-281.8334C261.4114,-264.5605 136.0492,-218.6127 74,-132 64.2469,-118.3859 59.4765,-99.8436 57.1572,-85.8789"/>
<polygon fill="#191970" stroke="#191970" points="60.6066,-85.271 55.7743,-75.8424 53.6721,-86.2265 60.6066,-85.271"/>
</g>
<!-- Node36 -->
<g id="node18" class="node">
<title>Node36</title>
<g id="a_node18"><a xlink:href="StoichManager_8h.html" target="_top" xlink:title="StoichManager.h">
<polygon fill="#ffffff" stroke="#000000" points="677,-112.5 677,-131.5 767,-131.5 767,-112.5 677,-112.5"/>
<text text-anchor="middle" x="722" y="-119.5" font-family="Helvetica,sans-Serif" font-size="10.00" fill="#000000">StoichManager.h</text>
</a>
</g>
</g>
<!-- Node35&#45;&gt;Node36 -->
<g id="edge26" class="edge">
<title>Node35&#45;&gt;Node36</title>
<path fill="none" stroke="#191970" d="M370.1228,-280.4862C432.8064,-252.2534 617.9626,-168.8587 691.4454,-135.7619"/>
<polygon fill="#191970" stroke="#191970" points="692.966,-138.9157 700.6465,-131.6177 690.0913,-132.5332 692.966,-138.9157"/>
</g>
<!-- Node38 -->
<g id="node20" class="node">
<title>Node38</title>
<g id="a_node20"><a xlink:href="Reaction_8h.html" target="_top" xlink:title="cantera/kinetics/Reaction.h">
<polygon fill="#ffffff" stroke="#000000" points="370,-168.5 370,-187.5 506,-187.5 506,-168.5 370,-168.5"/>
<text text-anchor="middle" x="438" y="-175.5" font-family="Helvetica,sans-Serif" font-size="10.00" fill="#000000">cantera/kinetics/Reaction.h</text>
</a>
</g>
</g>
<!-- Node35&#45;&gt;Node38 -->
<g id="edge30" class="edge">
<title>Node35&#45;&gt;Node38</title>
<path fill="none" stroke="#191970" d="M356.5881,-280.4509C371.5636,-261.6054 405.1138,-219.3849 424.1399,-195.4419"/>
<polygon fill="#191970" stroke="#191970" points="426.9499,-197.5315 430.4311,-187.5249 421.4695,-193.1765 426.9499,-197.5315"/>
</g>
<!-- Node36&#45;&gt;Node4 -->
<g id="edge29" class="edge">
<title>Node36&#45;&gt;Node4</title>
<path fill="none" stroke="#191970" d="M695.3546,-112.3733C669.8036,-103.1419 631.0488,-89.1402 602.8091,-78.9375"/>
<polygon fill="#191970" stroke="#191970" points="603.8921,-75.6074 593.2978,-75.5011 601.5135,-82.1909 603.8921,-75.6074"/>
</g>
<!-- Node37 -->
<g id="node19" class="node">
<title>Node37</title>
<g id="a_node19"><a xlink:href="stringUtils_8h.html" target="_top" xlink:title="Contains declarations for string manipulation functions within Cantera. ">
<polygon fill="#ffffff" stroke="#ff0000" points="351,-56.5 351,-75.5 479,-75.5 479,-56.5 351,-56.5"/>
<text text-anchor="middle" x="415" y="-63.5" font-family="Helvetica,sans-Serif" font-size="10.00" fill="#000000">cantera/base/stringUtils.h</text>
</a>
</g>
</g>
<!-- Node36&#45;&gt;Node37 -->
<g id="edge27" class="edge">
<title>Node36&#45;&gt;Node37</title>
<path fill="none" stroke="#191970" d="M676.9208,-113.6407C673.902,-113.0844 670.9071,-112.5335 668,-112 603.1633,-100.1024 528.9525,-86.6263 477.7509,-77.3506"/>
<polygon fill="#191970" stroke="#191970" points="478.2906,-73.8915 467.8269,-75.5532 477.043,-80.7794 478.2906,-73.8915"/>
</g>
<!-- Node37&#45;&gt;Node6 -->
<g id="edge28" class="edge">
<title>Node37&#45;&gt;Node6</title>
<path fill="none" stroke="#191970" d="M415,-56.2455C415,-48.9382 415,-38.6944 415,-29.7046"/>
<polygon fill="#191970" stroke="#191970" points="418.5001,-29.6426 415,-19.6427 411.5001,-29.6427 418.5001,-29.6426"/>
</g>
<!-- Node38&#45;&gt;Node31 -->
<g id="edge31" class="edge">
<title>Node38&#45;&gt;Node31</title>
<path fill="none" stroke="#191970" d="M387.2813,-168.4369C335.8114,-158.7321 256.1298,-143.708 201.4216,-133.3926"/>
<polygon fill="#191970" stroke="#191970" points="201.9848,-129.9372 191.5095,-131.5237 200.6878,-136.816 201.9848,-129.9372"/>
</g>
<!-- Node39 -->
<g id="node21" class="node">
<title>Node39</title>
<g id="a_node21"><a xlink:href="RxnRates_8h.html" target="_top" xlink:title="cantera/kinetics/RxnRates.h">
<polygon fill="#ffffff" stroke="#ff0000" points="375.5,-112.5 375.5,-131.5 516.5,-131.5 516.5,-112.5 375.5,-112.5"/>
<text text-anchor="middle" x="446" y="-119.5" font-family="Helvetica,sans-Serif" font-size="10.00" fill="#000000">cantera/kinetics/RxnRates.h</text>
</a>
</g>
</g>
<!-- Node38&#45;&gt;Node39 -->
<g id="edge32" class="edge">
<title>Node38&#45;&gt;Node39</title>
<path fill="none" stroke="#191970" d="M439.3935,-168.2455C440.4374,-160.9382 441.9008,-150.6944 443.1851,-141.7046"/>
<polygon fill="#191970" stroke="#191970" points="446.673,-142.0372 444.6225,-131.6427 439.7434,-141.0472 446.673,-142.0372"/>
</g>
<!-- Node42 -->
<g id="node22" class="node">
<title>Node42</title>
<g id="a_node22"><a xlink:href="Falloff_8h_source.html" target="_top" xlink:title="cantera/kinetics/Falloff.h">
<polygon fill="#ffffff" stroke="#ff0000" points="535,-112.5 535,-131.5 659,-131.5 659,-112.5 535,-112.5"/>
<text text-anchor="middle" x="597" y="-119.5" font-family="Helvetica,sans-Serif" font-size="10.00" fill="#000000">cantera/kinetics/Falloff.h</text>
</a>
</g>
</g>
<!-- Node38&#45;&gt;Node42 -->
<g id="edge35" class="edge">
<title>Node38&#45;&gt;Node42</title>
<path fill="none" stroke="#191970" d="M465.3331,-168.3733C491.5434,-159.1419 531.2984,-145.1402 560.2668,-134.9375"/>
<polygon fill="#191970" stroke="#191970" points="561.7542,-138.1244 570.0236,-131.5011 559.4288,-131.5219 561.7542,-138.1244"/>
</g>
<!-- Node39&#45;&gt;Node4 -->
<g id="edge33" class="edge">
<title>Node39&#45;&gt;Node4</title>
<path fill="none" stroke="#191970" d="M466.8006,-112.3733C486.2243,-103.3838 515.4224,-89.8706 537.2964,-79.7471"/>
<polygon fill="#191970" stroke="#191970" points="538.8656,-82.8776 546.4708,-75.5011 535.9255,-76.5249 538.8656,-82.8776"/>
</g>
<!-- Node39&#45;&gt;Node37 -->
<g id="edge34" class="edge">
<title>Node39&#45;&gt;Node37</title>
<path fill="none" stroke="#191970" d="M440.6002,-112.2455C436.3773,-104.617 430.3827,-93.7881 425.2559,-84.5267"/>
<polygon fill="#191970" stroke="#191970" points="428.2432,-82.6965 420.3379,-75.6427 422.119,-86.0867 428.2432,-82.6965"/>
</g>
</g>
</svg>
