<?xml version="1.0" encoding="UTF-8" standalone="no"?>
<!DOCTYPE svg PUBLIC "-//W3C//DTD SVG 1.1//EN"
 "http://www.w3.org/Graphics/SVG/1.1/DTD/svg11.dtd">
<!-- Generated by graphviz version 2.40.1 (20161225.0304)
 -->
<!-- Title: Kinetics.h Pages: 1 -->
<svg width="1332pt" height="487pt"
 viewBox="0.00 0.00 1332.00 487.00" xmlns="http://www.w3.org/2000/svg" xmlns:xlink="http://www.w3.org/1999/xlink">
<g id="graph0" class="graph" transform="scale(1 1) rotate(0) translate(4 483)">
<title>Kinetics.h</title>
<polygon fill="#ffffff" stroke="transparent" points="-4,4 -4,-483 1328,-483 1328,4 -4,4"/>
<!-- Node0 -->
<g id="node1" class="node">
<title>Node0</title>
<polygon fill="#bfbfbf" stroke="#000000" points="519.5,-459.5 519.5,-478.5 579.5,-478.5 579.5,-459.5 519.5,-459.5"/>
<text text-anchor="middle" x="549.5" y="-466.5" font-family="Helvetica,sans-Serif" font-size="10.00" fill="#000000">Kinetics.h</text>
</g>
<!-- Node1 -->
<g id="node2" class="node">
<title>Node1</title>
<g id="a_node2"><a xlink:href="ThermoPhase_8h.html" target="_top" xlink:title="Header file for class ThermoPhase, the base class for phases with thermodynamic properties, and the text for the Module thermoprops (see Thermodynamic Properties and class ThermoPhase). ">
<polygon fill="#ffffff" stroke="#000000" points="420.5,-403.5 420.5,-422.5 574.5,-422.5 574.5,-403.5 420.5,-403.5"/>
<text text-anchor="middle" x="497.5" y="-410.5" font-family="Helvetica,sans-Serif" font-size="10.00" fill="#000000">cantera/thermo/ThermoPhase.h</text>
</a>
</g>
</g>
<!-- Node0&#45;&gt;Node1 -->
<g id="edge1" class="edge">
<title>Node0&#45;&gt;Node1</title>
<path fill="none" stroke="#191970" d="M540.4423,-459.2455C532.9858,-451.2155 522.2366,-439.6394 513.3583,-430.0781"/>
<polygon fill="#191970" stroke="#191970" points="515.8232,-427.589 506.4539,-422.6427 510.6937,-432.3522 515.8232,-427.589"/>
</g>
<!-- Node20 -->
<g id="node12" class="node">
<title>Node20</title>
<g id="a_node12"><a xlink:href="global_8h.html" target="_top" xlink:title="This file contains definitions for utility functions and text for modules, inputfiles, logs, textlogs, (see Input File Handling, Diagnostic Output, and Writing messages to the screen). ">
<polygon fill="#ffffff" stroke="#000000" points="335.5,-174 335.5,-193 445.5,-193 445.5,-174 335.5,-174"/>
<text text-anchor="middle" x="390.5" y="-181" font-family="Helvetica,sans-Serif" font-size="10.00" fill="#000000">cantera/base/global.h</text>
</a>
</g>
</g>
<!-- Node0&#45;&gt;Node20 -->
<g id="edge49" class="edge">
<title>Node0&#45;&gt;Node20</title>
<path fill="none" stroke="#191970" d="M519.4982,-465.8239C489.0487,-461.1746 442.1482,-449.9102 411.5,-423 387.0034,-401.4911 379.5,-389.5993 379.5,-357 379.5,-357 379.5,-357 379.5,-301 379.5,-266.4897 384.262,-226.5252 387.5196,-203.2236"/>
<polygon fill="#191970" stroke="#191970" points="390.9988,-203.619 388.9705,-193.2201 384.0713,-202.6142 390.9988,-203.619"/>
</g>
<!-- Node30 -->
<g id="node18" class="node">
<title>Node30</title>
<g id="a_node18"><a xlink:href="StoichManager_8h.html" target="_top" xlink:title="StoichManager.h">
<polygon fill="#ffffff" stroke="#000000" points="641.5,-235.5 641.5,-254.5 731.5,-254.5 731.5,-235.5 641.5,-235.5"/>
<text text-anchor="middle" x="686.5" y="-242.5" font-family="Helvetica,sans-Serif" font-size="10.00" fill="#000000">StoichManager.h</text>
</a>
</g>
</g>
<!-- Node0&#45;&gt;Node30 -->
<g id="edge29" class="edge">
<title>Node0&#45;&gt;Node30</title>
<path fill="none" stroke="#191970" d="M557.1212,-459.3563C564.2362,-450.2018 575.003,-435.9539 583.5,-423 620.4132,-366.725 658.8104,-296.8158 676.4926,-263.8621"/>
<polygon fill="#191970" stroke="#191970" points="679.6673,-265.3473 681.2906,-254.8775 673.4925,-262.0498 679.6673,-265.3473"/>
</g>
<!-- Node32 -->
<g id="node20" class="node">
<title>Node32</title>
<g id="a_node20"><a xlink:href="Reaction_8h.html" target="_top" xlink:title="cantera/kinetics/Reaction.h">
<polygon fill="#ffffff" stroke="#000000" points="909.5,-291.5 909.5,-310.5 1045.5,-310.5 1045.5,-291.5 909.5,-291.5"/>
<text text-anchor="middle" x="977.5" y="-298.5" font-family="Helvetica,sans-Serif" font-size="10.00" fill="#000000">cantera/kinetics/Reaction.h</text>
</a>
</g>
</g>
<!-- Node0&#45;&gt;Node32 -->
<g id="edge35" class="edge">
<title>Node0&#45;&gt;Node32</title>
<path fill="none" stroke="#191970" d="M573.7374,-459.4862C646.0425,-431.1048 860.3621,-346.9794 943.7606,-314.2435"/>
<polygon fill="#191970" stroke="#191970" points="945.2341,-317.4252 953.2638,-310.5133 942.6763,-310.9092 945.2341,-317.4252"/>
</g>
<!-- Node2 -->
<g id="node3" class="node">
<title>Node2</title>
<g id="a_node3"><a xlink:href="Phase_8h.html" target="_top" xlink:title="Header file for class Phase. ">
<polygon fill="#ffffff" stroke="#000000" points="285,-347.5 285,-366.5 338,-366.5 338,-347.5 285,-347.5"/>
<text text-anchor="middle" x="311.5" y="-354.5" font-family="Helvetica,sans-Serif" font-size="10.00" fill="#000000">Phase.h</text>
</a>
</g>
</g>
<!-- Node1&#45;&gt;Node2 -->
<g id="edge2" class="edge">
<title>Node1&#45;&gt;Node2</title>
<path fill="none" stroke="#191970" d="M465.5255,-403.3733C432.8161,-393.5253 382.0747,-378.2483 347.8573,-367.9463"/>
<polygon fill="#191970" stroke="#191970" points="348.825,-364.5825 338.2405,-365.0509 346.8069,-371.2853 348.825,-364.5825"/>
</g>
<!-- Node1&#45;&gt;Node20 -->
<g id="edge28" class="edge">
<title>Node1&#45;&gt;Node20</title>
<path fill="none" stroke="#191970" d="M486.8141,-403.3123C477.7086,-394.5716 464.8132,-380.9751 456.5,-367 423.702,-311.8639 403.2969,-237.8117 394.9082,-203.0562"/>
<polygon fill="#191970" stroke="#191970" points="398.2943,-202.165 392.6064,-193.2265 391.4787,-203.7611 398.2943,-202.165"/>
</g>
<!-- Node27 -->
<g id="node15" class="node">
<title>Node27</title>
<g id="a_node15"><a xlink:href="MultiSpeciesThermo_8h.html" target="_top" xlink:title="Header for a general species thermodynamic property manager for a phase (see MultiSpeciesThermo). ">
<polygon fill="#ffffff" stroke="#000000" points="465.5,-347.5 465.5,-366.5 579.5,-366.5 579.5,-347.5 465.5,-347.5"/>
<text text-anchor="middle" x="522.5" y="-354.5" font-family="Helvetica,sans-Serif" font-size="10.00" fill="#000000">MultiSpeciesThermo.h</text>
</a>
</g>
</g>
<!-- Node1&#45;&gt;Node27 -->
<g id="edge22" class="edge">
<title>Node1&#45;&gt;Node27</title>
<path fill="none" stroke="#191970" d="M501.8547,-403.2455C505.2244,-395.6973 509.993,-385.0158 514.0983,-375.8197"/>
<polygon fill="#191970" stroke="#191970" points="517.3147,-377.2009 518.1952,-366.6427 510.9227,-374.3473 517.3147,-377.2009"/>
</g>
<!-- Node3 -->
<g id="node4" class="node">
<title>Node3</title>
<g id="a_node4"><a xlink:href="ctexceptions_8h.html" target="_top" xlink:title="Definitions for the classes that are thrown when Cantera experiences an error condition (also contain...">
<polygon fill="#ffffff" stroke="#000000" points="463.5,-174 463.5,-193 603.5,-193 603.5,-174 463.5,-174"/>
<text text-anchor="middle" x="533.5" y="-181" font-family="Helvetica,sans-Serif" font-size="10.00" fill="#000000">cantera/base/ctexceptions.h</text>
</a>
</g>
</g>
<!-- Node2&#45;&gt;Node3 -->
<g id="edge3" class="edge">
<title>Node2&#45;&gt;Node3</title>
<path fill="none" stroke="#191970" d="M323.7519,-347.4248C360.2154,-318.9274 468.2964,-234.4587 513.3885,-199.2178"/>
<polygon fill="#191970" stroke="#191970" points="515.562,-201.9612 521.286,-193.0457 511.2515,-196.4458 515.562,-201.9612"/>
</g>
<!-- Node17 -->
<g id="node9" class="node">
<title>Node17</title>
<g id="a_node9"><a xlink:href="Elements_8h.html" target="_top" xlink:title="Contains the getElementWeight function and the definitions of element constraint types. ">
<polygon fill="#ffffff" stroke="#000000" points="239.5,-112.5 239.5,-131.5 373.5,-131.5 373.5,-112.5 239.5,-112.5"/>
<text text-anchor="middle" x="306.5" y="-119.5" font-family="Helvetica,sans-Serif" font-size="10.00" fill="#000000">cantera/thermo/Elements.h</text>
</a>
</g>
</g>
<!-- Node2&#45;&gt;Node17 -->
<g id="edge8" class="edge">
<title>Node2&#45;&gt;Node17</title>
<path fill="none" stroke="#191970" d="M311.2978,-347.4967C310.5519,-312.4391 307.9449,-189.9096 306.9191,-141.7"/>
<polygon fill="#191970" stroke="#191970" points="310.4167,-141.5448 306.7047,-131.6216 303.4183,-141.6938 310.4167,-141.5448"/>
</g>
<!-- Node18 -->
<g id="node10" class="node">
<title>Node18</title>
<g id="a_node10"><a xlink:href="Species_8h.html" target="_top" xlink:title="Declaration for class Cantera::Species. ">
<polygon fill="#ffffff" stroke="#000000" points="155.5,-291.5 155.5,-310.5 283.5,-310.5 283.5,-291.5 155.5,-291.5"/>
<text text-anchor="middle" x="219.5" y="-298.5" font-family="Helvetica,sans-Serif" font-size="10.00" fill="#000000">cantera/thermo/Species.h</text>
</a>
</g>
</g>
<!-- Node2&#45;&gt;Node18 -->
<g id="edge10" class="edge">
<title>Node2&#45;&gt;Node18</title>
<path fill="none" stroke="#191970" d="M295.4748,-347.2455C281.3592,-338.6534 260.5737,-326.0014 244.3101,-316.1018"/>
<polygon fill="#191970" stroke="#191970" points="245.7034,-312.8525 235.3415,-310.6427 242.0637,-318.8319 245.7034,-312.8525"/>
</g>
<!-- Node25 -->
<g id="node13" class="node">
<title>Node25</title>
<g id="a_node13"><a xlink:href="ValueCache_8h.html" target="_top" xlink:title="cantera/base/ValueCache.h">
<polygon fill="#ffffff" stroke="#000000" points="0,-291.5 0,-310.5 137,-310.5 137,-291.5 0,-291.5"/>
<text text-anchor="middle" x="68.5" y="-298.5" font-family="Helvetica,sans-Serif" font-size="10.00" fill="#000000">cantera/base/ValueCache.h</text>
</a>
</g>
</g>
<!-- Node2&#45;&gt;Node25 -->
<g id="edge19" class="edge">
<title>Node2&#45;&gt;Node25</title>
<path fill="none" stroke="#191970" d="M284.5663,-350.7931C244.9135,-341.655 170.0925,-324.4123 119.7622,-312.8135"/>
<polygon fill="#191970" stroke="#191970" points="120.2587,-309.3363 109.7281,-310.5011 118.6867,-316.1575 120.2587,-309.3363"/>
</g>
<!-- Node4 -->
<g id="node5" class="node">
<title>Node4</title>
<g id="a_node5"><a xlink:href="fmt_8h.html" target="_top" xlink:title="Wrapper for either system&#45;installed or local headers for fmt. ">
<polygon fill="#ffffff" stroke="#ff0000" points="507.5,-112.5 507.5,-131.5 605.5,-131.5 605.5,-112.5 507.5,-112.5"/>
<text text-anchor="middle" x="556.5" y="-119.5" font-family="Helvetica,sans-Serif" font-size="10.00" fill="#000000">cantera/base/fmt.h</text>
</a>
</g>
</g>
<!-- Node3&#45;&gt;Node4 -->
<g id="edge4" class="edge">
<title>Node3&#45;&gt;Node4</title>
<path fill="none" stroke="#191970" d="M537.0938,-173.8906C540.3491,-165.1862 545.2425,-152.1015 549.301,-141.2494"/>
<polygon fill="#191970" stroke="#191970" points="552.6309,-142.3373 552.8556,-131.7449 546.0744,-139.8852 552.6309,-142.3373"/>
</g>
<!-- Node16 -->
<g id="node8" class="node">
<title>Node16</title>
<polygon fill="#ffffff" stroke="#bfbfbf" points="430,-112.5 430,-131.5 489,-131.5 489,-112.5 430,-112.5"/>
<text text-anchor="middle" x="459.5" y="-119.5" font-family="Helvetica,sans-Serif" font-size="10.00" fill="#000000">exception</text>
</g>
<!-- Node3&#45;&gt;Node16 -->
<g id="edge7" class="edge">
<title>Node3&#45;&gt;Node16</title>
<path fill="none" stroke="#191970" d="M521.9375,-173.8906C510.4921,-164.3786 492.7527,-149.6357 479.103,-138.2917"/>
<polygon fill="#191970" stroke="#191970" points="481.1533,-135.4447 471.2255,-131.7449 476.6792,-140.8283 481.1533,-135.4447"/>
</g>
<!-- Node5 -->
<g id="node6" class="node">
<title>Node5</title>
<g id="a_node6"><a xlink:href="ct__defs_8h.html" target="_top" xlink:title="This file contains definitions of terms that are used in internal routines and are unlikely to need m...">
<polygon fill="#ffffff" stroke="#ff0000" points="450,-56.5 450,-75.5 507,-75.5 507,-56.5 450,-56.5"/>
<text text-anchor="middle" x="478.5" y="-63.5" font-family="Helvetica,sans-Serif" font-size="10.00" fill="#000000">ct_defs.h</text>
</a>
</g>
</g>
<!-- Node4&#45;&gt;Node5 -->
<g id="edge5" class="edge">
<title>Node4&#45;&gt;Node5</title>
<path fill="none" stroke="#191970" d="M542.9134,-112.2455C531.1695,-103.814 513.9801,-91.4729 500.3118,-81.6598"/>
<polygon fill="#191970" stroke="#191970" points="502.0954,-78.6316 491.9309,-75.6427 498.0129,-84.3179 502.0954,-78.6316"/>
</g>
<!-- Node11 -->
<g id="node7" class="node">
<title>Node11</title>
<polygon fill="#ffffff" stroke="#bfbfbf" points="458,-.5 458,-19.5 499,-19.5 499,-.5 458,-.5"/>
<text text-anchor="middle" x="478.5" y="-7.5" font-family="Helvetica,sans-Serif" font-size="10.00" fill="#000000">string</text>
</g>
<!-- Node5&#45;&gt;Node11 -->
<g id="edge6" class="edge">
<title>Node5&#45;&gt;Node11</title>
<path fill="none" stroke="#191970" d="M478.5,-56.2455C478.5,-48.9382 478.5,-38.6944 478.5,-29.7046"/>
<polygon fill="#191970" stroke="#191970" points="482.0001,-29.6426 478.5,-19.6427 475.0001,-29.6427 482.0001,-29.6426"/>
</g>
<!-- Node17&#45;&gt;Node5 -->
<g id="edge9" class="edge">
<title>Node17&#45;&gt;Node5</title>
<path fill="none" stroke="#191970" d="M336.0679,-112.3733C364.8422,-103.0049 408.7068,-88.7234 440.1515,-78.4856"/>
<polygon fill="#191970" stroke="#191970" points="441.4644,-81.739 449.8895,-75.315 439.2972,-75.0829 441.4644,-81.739"/>
</g>
<!-- Node18&#45;&gt;Node5 -->
<g id="edge11" class="edge">
<title>Node18&#45;&gt;Node5</title>
<path fill="none" stroke="#191970" d="M196.3888,-291.4901C181.4702,-283.9878 163.2669,-271.9445 154.5,-255 127.8396,-203.4714 115.9681,-186.0885 214.5,-112 249.3716,-85.7792 374.8549,-73.288 439.4582,-68.4832"/>
<polygon fill="#191970" stroke="#191970" points="439.9318,-71.9583 449.6555,-67.7511 439.4305,-64.9762 439.9318,-71.9583"/>
</g>
<!-- Node19 -->
<g id="node11" class="node">
<title>Node19</title>
<g id="a_node11"><a xlink:href="AnyMap_8h.html" target="_top" xlink:title="cantera/base/AnyMap.h">
<polygon fill="#ffffff" stroke="#ff0000" points="163.5,-235.5 163.5,-254.5 283.5,-254.5 283.5,-235.5 163.5,-235.5"/>
<text text-anchor="middle" x="223.5" y="-242.5" font-family="Helvetica,sans-Serif" font-size="10.00" fill="#000000">cantera/base/AnyMap.h</text>
</a>
</g>
</g>
<!-- Node18&#45;&gt;Node19 -->
<g id="edge12" class="edge">
<title>Node18&#45;&gt;Node19</title>
<path fill="none" stroke="#191970" d="M220.1967,-291.2455C220.7187,-283.9382 221.4504,-273.6944 222.0925,-264.7046"/>
<polygon fill="#191970" stroke="#191970" points="225.5898,-264.8667 222.8112,-254.6427 218.6076,-264.3679 225.5898,-264.8667"/>
</g>
<!-- Node19&#45;&gt;Node3 -->
<g id="edge17" class="edge">
<title>Node19&#45;&gt;Node3</title>
<path fill="none" stroke="#191970" d="M271.5974,-235.4581C326.6592,-224.5345 416.8132,-206.6492 475.6591,-194.9749"/>
<polygon fill="#191970" stroke="#191970" points="476.4171,-198.3928 485.5449,-193.0137 475.0549,-191.5266 476.4171,-198.3928"/>
</g>
<!-- Node19&#45;&gt;Node5 -->
<g id="edge13" class="edge">
<title>Node19&#45;&gt;Node5</title>
<path fill="none" stroke="#191970" d="M220.3993,-235.1562C213.4196,-210.8629 199.3976,-147.4625 230.5,-112 257.3856,-81.3454 376.3921,-70.9478 439.2659,-67.5571"/>
<polygon fill="#191970" stroke="#191970" points="439.7747,-71.036 449.5856,-67.0364 439.4219,-64.0449 439.7747,-71.036"/>
</g>
<!-- Node19&#45;&gt;Node11 -->
<g id="edge18" class="edge">
<title>Node19&#45;&gt;Node11</title>
<path fill="none" stroke="#191970" d="M218.8987,-235.3399C208.2747,-211.466 185.1082,-148.947 214.5,-112 273.1238,-38.3068 391.9296,-17.7859 447.9545,-12.1257"/>
<polygon fill="#191970" stroke="#191970" points="448.3333,-15.6057 457.9715,-11.2062 447.6934,-8.635 448.3333,-15.6057"/>
</g>
<!-- Node19&#45;&gt;Node20 -->
<g id="edge14" class="edge">
<title>Node19&#45;&gt;Node20</title>
<path fill="none" stroke="#191970" d="M249.5938,-235.3906C277.9036,-224.9652 323.2768,-208.2559 354.8592,-196.6252"/>
<polygon fill="#191970" stroke="#191970" points="356.4151,-199.7821 364.5895,-193.0419 353.996,-193.2133 356.4151,-199.7821"/>
</g>
<!-- Node20&#45;&gt;Node4 -->
<g id="edge16" class="edge">
<title>Node20&#45;&gt;Node4</title>
<path fill="none" stroke="#191970" d="M416.4375,-173.8906C444.5778,-163.4652 489.6793,-146.7559 521.0726,-135.1252"/>
<polygon fill="#191970" stroke="#191970" points="522.5834,-138.298 530.7446,-131.5419 520.1515,-131.734 522.5834,-138.298"/>
</g>
<!-- Node20&#45;&gt;Node5 -->
<g id="edge15" class="edge">
<title>Node20&#45;&gt;Node5</title>
<path fill="none" stroke="#191970" d="M393.0356,-173.9431C397.2112,-159.4674 406.5891,-131.5961 421.5,-112 430.4925,-100.1819 443.1422,-89.5736 454.2411,-81.5307"/>
<polygon fill="#191970" stroke="#191970" points="456.4882,-84.2317 462.7103,-75.6563 452.4986,-78.4798 456.4882,-84.2317"/>
</g>
<!-- Node25&#45;&gt;Node5 -->
<g id="edge20" class="edge">
<title>Node25&#45;&gt;Node5</title>
<path fill="none" stroke="#191970" d="M63.839,-291.1901C58.2311,-277.9238 50.5072,-253.7656 58.5,-235 89.4171,-162.4127 115.8342,-147.0875 186.5,-112 230.3303,-90.2371 370.9071,-75.3708 439.7614,-69.2033"/>
<polygon fill="#191970" stroke="#191970" points="440.1206,-72.6853 449.7754,-68.3225 439.5072,-65.7123 440.1206,-72.6853"/>
</g>
<!-- Node26 -->
<g id="node14" class="node">
<title>Node26</title>
<polygon fill="#ffffff" stroke="#bfbfbf" points="67.5,-235.5 67.5,-254.5 107.5,-254.5 107.5,-235.5 67.5,-235.5"/>
<text text-anchor="middle" x="87.5" y="-242.5" font-family="Helvetica,sans-Serif" font-size="10.00" fill="#000000">limits</text>
</g>
<!-- Node25&#45;&gt;Node26 -->
<g id="edge21" class="edge">
<title>Node25&#45;&gt;Node26</title>
<path fill="none" stroke="#191970" d="M71.8095,-291.2455C74.3433,-283.7776 77.9177,-273.2427 81.015,-264.1137"/>
<polygon fill="#191970" stroke="#191970" points="84.3298,-265.237 84.2284,-254.6427 77.7009,-262.9879 84.3298,-265.237"/>
</g>
<!-- Node28 -->
<g id="node16" class="node">
<title>Node28</title>
<g id="a_node16"><a xlink:href="SpeciesThermoInterpType_8h.html" target="_top" xlink:title="Pure Virtual Base class for individual species reference state thermodynamic managers and text for th...">
<polygon fill="#ffffff" stroke="#000000" points="483.5,-235.5 483.5,-254.5 623.5,-254.5 623.5,-235.5 483.5,-235.5"/>
<text text-anchor="middle" x="553.5" y="-242.5" font-family="Helvetica,sans-Serif" font-size="10.00" fill="#000000">SpeciesThermoInterpType.h</text>
</a>
</g>
</g>
<!-- Node27&#45;&gt;Node28 -->
<g id="edge23" class="edge">
<title>Node27&#45;&gt;Node28</title>
<path fill="none" stroke="#191970" d="M525.143,-347.4509C530.222,-329.1013 541.4347,-288.5908 548.1388,-264.3693"/>
<polygon fill="#191970" stroke="#191970" points="551.5692,-265.0962 550.8636,-254.5249 544.8228,-263.2289 551.5692,-265.0962"/>
</g>
<!-- Node28&#45;&gt;Node3 -->
<g id="edge26" class="edge">
<title>Node28&#45;&gt;Node3</title>
<path fill="none" stroke="#191970" d="M550.375,-235.3906C547.5735,-226.776 543.3767,-213.8708 539.8694,-203.0858"/>
<polygon fill="#191970" stroke="#191970" points="543.0902,-201.6722 536.6691,-193.2449 536.4333,-203.8371 543.0902,-201.6722"/>
</g>
<!-- Node28&#45;&gt;Node5 -->
<g id="edge24" class="edge">
<title>Node28&#45;&gt;Node5</title>
<path fill="none" stroke="#191970" d="M573.508,-235.3806C587.1617,-227.63 604.2189,-215.3344 612.5,-199 629.989,-164.5031 637.0456,-143.4261 614.5,-112 602.962,-95.9174 553.3946,-82.0848 517.4255,-73.9006"/>
<polygon fill="#191970" stroke="#191970" points="517.7406,-70.3859 507.2209,-71.6454 516.2299,-77.221 517.7406,-70.3859"/>
</g>
<!-- Node28&#45;&gt;Node20 -->
<g id="edge27" class="edge">
<title>Node28&#45;&gt;Node20</title>
<path fill="none" stroke="#191970" d="M528.0313,-235.3906C500.3995,-224.9652 456.1131,-208.2559 425.2872,-196.6252"/>
<polygon fill="#191970" stroke="#191970" points="426.3817,-193.2974 415.7899,-193.0419 423.9106,-199.8467 426.3817,-193.2974"/>
</g>
<!-- Node29 -->
<g id="node17" class="node">
<title>Node29</title>
<g id="a_node17"><a xlink:href="speciesThermoTypes_8h.html" target="_top" xlink:title="Contains const definitions for types of species reference&#45;state thermodynamics managers (see Species ...">
<polygon fill="#ffffff" stroke="#000000" points="660,-174 660,-193 779,-193 779,-174 660,-174"/>
<text text-anchor="middle" x="719.5" y="-181" font-family="Helvetica,sans-Serif" font-size="10.00" fill="#000000">speciesThermoTypes.h</text>
</a>
</g>
</g>
<!-- Node28&#45;&gt;Node29 -->
<g id="edge25" class="edge">
<title>Node28&#45;&gt;Node29</title>
<path fill="none" stroke="#191970" d="M579.4375,-235.3906C607.5778,-224.9652 652.6793,-208.2559 684.0726,-196.6252"/>
<polygon fill="#191970" stroke="#191970" points="685.5834,-199.798 693.7446,-193.0419 683.1515,-193.234 685.5834,-199.798"/>
</g>
<!-- Node30&#45;&gt;Node3 -->
<g id="edge34" class="edge">
<title>Node30&#45;&gt;Node3</title>
<path fill="none" stroke="#191970" d="M662.5938,-235.3906C636.7695,-225.0103 595.4473,-208.4004 566.5295,-196.7766"/>
<polygon fill="#191970" stroke="#191970" points="567.8222,-193.5241 557.2384,-193.0419 565.2115,-200.019 567.8222,-193.5241"/>
</g>
<!-- Node31 -->
<g id="node19" class="node">
<title>Node31</title>
<g id="a_node19"><a xlink:href="stringUtils_8h.html" target="_top" xlink:title="Contains declarations for string manipulation functions within Cantera. ">
<polygon fill="#ffffff" stroke="#000000" points="797.5,-174 797.5,-193 925.5,-193 925.5,-174 797.5,-174"/>
<text text-anchor="middle" x="861.5" y="-181" font-family="Helvetica,sans-Serif" font-size="10.00" fill="#000000">cantera/base/stringUtils.h</text>
</a>
</g>
</g>
<!-- Node30&#45;&gt;Node31 -->
<g id="edge30" class="edge">
<title>Node30&#45;&gt;Node31</title>
<path fill="none" stroke="#191970" d="M713.8438,-235.3906C743.6382,-224.92 791.4685,-208.1111 824.5808,-196.4745"/>
<polygon fill="#191970" stroke="#191970" points="826.0743,-199.6595 834.3483,-193.0419 823.7534,-193.0554 826.0743,-199.6595"/>
</g>
<!-- Node31&#45;&gt;Node4 -->
<g id="edge32" class="edge">
<title>Node31&#45;&gt;Node4</title>
<path fill="none" stroke="#191970" d="M817.1254,-173.9781C807.6817,-171.9796 797.7648,-169.902 788.5,-168 729.6668,-155.922 662.3269,-142.629 615.4071,-133.4523"/>
<polygon fill="#191970" stroke="#191970" points="615.9057,-129.9836 605.4201,-131.5009 614.5632,-136.8537 615.9057,-129.9836"/>
</g>
<!-- Node31&#45;&gt;Node5 -->
<g id="edge31" class="edge">
<title>Node31&#45;&gt;Node5</title>
<path fill="none" stroke="#191970" d="M834.6315,-173.9773C794.2367,-159.7849 715.3564,-132.5527 647.5,-112 603.0602,-98.5398 551.5052,-84.7704 517.1354,-75.8499"/>
<polygon fill="#191970" stroke="#191970" points="517.6052,-72.3564 507.0476,-73.2428 515.8537,-79.1337 517.6052,-72.3564"/>
</g>
<!-- Node31&#45;&gt;Node11 -->
<g id="edge33" class="edge">
<title>Node31&#45;&gt;Node11</title>
<path fill="none" stroke="#191970" d="M840.3627,-173.9248C776.1279,-144.8262 583.0684,-57.3698 508.4206,-23.5541"/>
<polygon fill="#191970" stroke="#191970" points="509.6577,-20.2722 499.1045,-19.3339 506.7692,-26.6484 509.6577,-20.2722"/>
</g>
<!-- Node33 -->
<g id="node21" class="node">
<title>Node33</title>
<g id="a_node21"><a xlink:href="utilities_8h.html" target="_top" xlink:title="Various templated functions that carry out common vector operations (see Templated Utility Functions)...">
<polygon fill="#ffffff" stroke="#000000" points="1134,-235.5 1134,-254.5 1249,-254.5 1249,-235.5 1134,-235.5"/>
<text text-anchor="middle" x="1191.5" y="-242.5" font-family="Helvetica,sans-Serif" font-size="10.00" fill="#000000">cantera/base/utilities.h</text>
</a>
</g>
</g>
<!-- Node32&#45;&gt;Node33 -->
<g id="edge36" class="edge">
<title>Node32&#45;&gt;Node33</title>
<path fill="none" stroke="#191970" d="M1014.2879,-291.3733C1050.5661,-281.8799 1106.1236,-267.3415 1145.3446,-257.0781"/>
<polygon fill="#191970" stroke="#191970" points="1146.404,-260.4188 1155.1921,-254.5011 1144.6318,-253.6468 1146.404,-260.4188"/>
</g>
<!-- Node36 -->
<g id="node24" class="node">
<title>Node36</title>
<g id="a_node24"><a xlink:href="RxnRates_8h.html" target="_top" xlink:title="cantera/kinetics/RxnRates.h">
<polygon fill="#ffffff" stroke="#000000" points="832,-235.5 832,-254.5 973,-254.5 973,-235.5 832,-235.5"/>
<text text-anchor="middle" x="902.5" y="-242.5" font-family="Helvetica,sans-Serif" font-size="10.00" fill="#000000">cantera/kinetics/RxnRates.h</text>
</a>
</g>
</g>
<!-- Node32&#45;&gt;Node36 -->
<g id="edge41" class="edge">
<title>Node32&#45;&gt;Node36</title>
<path fill="none" stroke="#191970" d="M964.436,-291.2455C953.1438,-282.814 936.6155,-270.4729 923.4729,-260.6598"/>
<polygon fill="#191970" stroke="#191970" points="925.5211,-257.8211 915.4143,-254.6427 921.3331,-263.4301 925.5211,-257.8211"/>
</g>
<!-- Node39 -->
<g id="node27" class="node">
<title>Node39</title>
<g id="a_node27"><a xlink:href="Falloff_8h_source.html" target="_top" xlink:title="cantera/kinetics/Falloff.h">
<polygon fill="#ffffff" stroke="#000000" points="991.5,-235.5 991.5,-254.5 1115.5,-254.5 1115.5,-235.5 991.5,-235.5"/>
<text text-anchor="middle" x="1053.5" y="-242.5" font-family="Helvetica,sans-Serif" font-size="10.00" fill="#000000">cantera/kinetics/Falloff.h</text>
</a>
</g>
</g>
<!-- Node32&#45;&gt;Node39 -->
<g id="edge47" class="edge">
<title>Node32&#45;&gt;Node39</title>
<path fill="none" stroke="#191970" d="M990.7382,-291.2455C1002.181,-282.814 1018.9296,-270.4729 1032.2475,-260.6598"/>
<polygon fill="#191970" stroke="#191970" points="1034.4391,-263.3924 1040.4135,-254.6427 1030.2867,-257.757 1034.4391,-263.3924"/>
</g>
<!-- Node33&#45;&gt;Node5 -->
<g id="edge37" class="edge">
<title>Node33&#45;&gt;Node5</title>
<path fill="none" stroke="#191970" d="M1189.0861,-235.3354C1184.3694,-218.6236 1172.2504,-184.5332 1148.5,-168 1044.8295,-95.8327 643.7422,-72.9695 517.0687,-67.4721"/>
<polygon fill="#191970" stroke="#191970" points="517.1875,-63.9741 507.0487,-67.0489 516.8921,-70.9678 517.1875,-63.9741"/>
</g>
<!-- Node33&#45;&gt;Node20 -->
<g id="edge38" class="edge">
<title>Node33&#45;&gt;Node20</title>
<path fill="none" stroke="#191970" d="M1133.7999,-236.0345C1130.6576,-235.6567 1127.5422,-235.3081 1124.5,-235 827.81,-204.956 749.55,-242.2793 454.5,-199 448.1162,-198.0636 441.4366,-196.7867 434.9019,-195.365"/>
<polygon fill="#191970" stroke="#191970" points="435.3463,-191.8758 424.8156,-193.0399 433.7738,-198.6969 435.3463,-191.8758"/>
</g>
<!-- Node34 -->
<g id="node22" class="node">
<title>Node34</title>
<polygon fill="#ffffff" stroke="#bfbfbf" points="1196,-174 1196,-193 1255,-193 1255,-174 1196,-174"/>
<text text-anchor="middle" x="1225.5" y="-181" font-family="Helvetica,sans-Serif" font-size="10.00" fill="#000000">stdexcept</text>
</g>
<!-- Node33&#45;&gt;Node34 -->
<g id="edge39" class="edge">
<title>Node33&#45;&gt;Node34</title>
<path fill="none" stroke="#191970" d="M1196.8125,-235.3906C1201.7239,-226.5068 1209.1579,-213.0601 1215.2275,-202.0811"/>
<polygon fill="#191970" stroke="#191970" points="1218.3373,-203.6899 1220.1126,-193.2449 1212.2112,-200.3031 1218.3373,-203.6899"/>
</g>
<!-- Node35 -->
<g id="node23" class="node">
<title>Node35</title>
<polygon fill="#ffffff" stroke="#bfbfbf" points="1273,-174 1273,-193 1324,-193 1324,-174 1273,-174"/>
<text text-anchor="middle" x="1298.5" y="-181" font-family="Helvetica,sans-Serif" font-size="10.00" fill="#000000">numeric</text>
</g>
<!-- Node33&#45;&gt;Node35 -->
<g id="edge40" class="edge">
<title>Node33&#45;&gt;Node35</title>
<path fill="none" stroke="#191970" d="M1208.2188,-235.3906C1225.5722,-225.4165 1252.9323,-209.6908 1272.9882,-198.1633"/>
<polygon fill="#191970" stroke="#191970" points="1274.9728,-201.0596 1281.8987,-193.0419 1271.4846,-194.9907 1274.9728,-201.0596"/>
</g>
<!-- Node36&#45;&gt;Node3 -->
<g id="edge44" class="edge">
<title>Node36&#45;&gt;Node3</title>
<path fill="none" stroke="#191970" d="M845.2486,-235.4581C779.1656,-224.4443 670.6184,-206.3531 600.6203,-194.6867"/>
<polygon fill="#191970" stroke="#191970" points="601.0214,-191.2054 590.5821,-193.0137 599.8706,-198.1101 601.0214,-191.2054"/>
</g>
<!-- Node36&#45;&gt;Node31 -->
<g id="edge45" class="edge">
<title>Node36&#45;&gt;Node31</title>
<path fill="none" stroke="#191970" d="M896.0938,-235.3906C890.1114,-226.417 881.0253,-212.7879 873.6661,-201.7491"/>
<polygon fill="#191970" stroke="#191970" points="876.4558,-199.6239 867.9966,-193.2449 870.6314,-203.5068 876.4558,-199.6239"/>
</g>
<!-- Node37 -->
<g id="node25" class="node">
<title>Node37</title>
<g id="a_node25"><a xlink:href="reaction__defs_8h.html" target="_top" xlink:title="This file defines some constants used to specify reaction types. ">
<polygon fill="#ffffff" stroke="#000000" points="1016,-168.5 1016,-198.5 1139,-198.5 1139,-168.5 1016,-168.5"/>
<text text-anchor="start" x="1024" y="-186.5" font-family="Helvetica,sans-Serif" font-size="10.00" fill="#000000">cantera/kinetics/reaction</text>
<text text-anchor="middle" x="1077.5" y="-175.5" font-family="Helvetica,sans-Serif" font-size="10.00" fill="#000000">_defs.h</text>
</a>
</g>
</g>
<!-- Node36&#45;&gt;Node37 -->
<g id="edge42" class="edge">
<title>Node36&#45;&gt;Node37</title>
<path fill="none" stroke="#191970" d="M929.8438,-235.3906C955.2822,-226.4508 993.8685,-212.8905 1025.2165,-201.8739"/>
<polygon fill="#191970" stroke="#191970" points="1026.4163,-205.1622 1034.6902,-198.5446 1024.0954,-198.5581 1026.4163,-205.1622"/>
</g>
<!-- Node38 -->
<g id="node26" class="node">
<title>Node38</title>
<polygon fill="#ffffff" stroke="#bfbfbf" points="943.5,-174 943.5,-193 997.5,-193 997.5,-174 943.5,-174"/>
<text text-anchor="middle" x="970.5" y="-181" font-family="Helvetica,sans-Serif" font-size="10.00" fill="#000000">iostream</text>
</g>
<!-- Node36&#45;&gt;Node38 -->
<g id="edge46" class="edge">
<title>Node36&#45;&gt;Node38</title>
<path fill="none" stroke="#191970" d="M913.125,-235.3906C923.5431,-225.9683 939.6364,-211.4134 952.1304,-200.1137"/>
<polygon fill="#191970" stroke="#191970" points="954.6562,-202.5484 959.7252,-193.2449 949.9608,-197.3568 954.6562,-202.5484"/>
</g>
<!-- Node37&#45;&gt;Node5 -->
<g id="edge43" class="edge">
<title>Node37&#45;&gt;Node5</title>
<path fill="none" stroke="#191970" d="M1015.9457,-169.967C1012.7527,-169.2948 1009.5895,-168.6356 1006.5,-168 823.7212,-130.3997 604.4928,-89.3351 517.1517,-73.1365"/>
<polygon fill="#191970" stroke="#191970" points="517.6358,-69.6667 507.1655,-71.2862 516.3605,-76.5495 517.6358,-69.6667"/>
</g>
<!-- Node39&#45;&gt;Node37 -->
<g id="edge48" class="edge">
<title>Node39&#45;&gt;Node37</title>
<path fill="none" stroke="#191970" d="M1057.25,-235.3906C1060.1071,-228.0692 1064.1736,-217.6488 1067.9138,-208.0647"/>
<polygon fill="#191970" stroke="#191970" points="1071.254,-209.1328 1071.6289,-198.5446 1064.7329,-206.588 1071.254,-209.1328"/>
</g>
</g>
</svg>
