<?xml version="1.0" encoding="UTF-8" standalone="no"?>
<!DOCTYPE svg PUBLIC "-//W3C//DTD SVG 1.1//EN"
 "http://www.w3.org/Graphics/SVG/1.1/DTD/svg11.dtd">
<!-- Generated by graphviz version 2.40.1 (20161225.0304)
 -->
<!-- Title: LatticePhase.h Pages: 1 -->
<svg width="776pt" height="420pt"
 viewBox="0.00 0.00 775.50 420.00" xmlns="http://www.w3.org/2000/svg" xmlns:xlink="http://www.w3.org/1999/xlink">
<g id="graph0" class="graph" transform="scale(1 1) rotate(0) translate(4 416)">
<title>LatticePhase.h</title>
<polygon fill="#ffffff" stroke="transparent" points="-4,4 -4,-416 771.5,-416 771.5,4 -4,4"/>
<!-- Node0 -->
<g id="node1" class="node">
<title>Node0</title>
<polygon fill="#bfbfbf" stroke="#000000" points="456,-392.5 456,-411.5 538,-411.5 538,-392.5 456,-392.5"/>
<text text-anchor="middle" x="497" y="-399.5" font-family="Helvetica,sans-Serif" font-size="10.00" fill="#000000">LatticePhase.h</text>
</g>
<!-- Node1 -->
<g id="node2" class="node">
<title>Node1</title>
<g id="a_node2"><a xlink:href="ThermoPhase_8h.html" target="_top" xlink:title="Header file for class ThermoPhase, the base class for phases with thermodynamic properties, and the text for the Module thermoprops (see Thermodynamic Properties and class ThermoPhase). ">
<polygon fill="#ffffff" stroke="#000000" points="454,-336.5 454,-355.5 540,-355.5 540,-336.5 454,-336.5"/>
<text text-anchor="middle" x="497" y="-343.5" font-family="Helvetica,sans-Serif" font-size="10.00" fill="#000000">ThermoPhase.h</text>
</a>
</g>
</g>
<!-- Node0&#45;&gt;Node1 -->
<g id="edge1" class="edge">
<title>Node0&#45;&gt;Node1</title>
<path fill="none" stroke="#191970" d="M497,-392.2455C497,-384.9382 497,-374.6944 497,-365.7046"/>
<polygon fill="#191970" stroke="#191970" points="500.5001,-365.6426 497,-355.6427 493.5001,-365.6427 500.5001,-365.6426"/>
</g>
<!-- Node2 -->
<g id="node3" class="node">
<title>Node2</title>
<g id="a_node3"><a xlink:href="Phase_8h.html" target="_top" xlink:title="Header file for class Phase. ">
<polygon fill="#ffffff" stroke="#000000" points="315.5,-280.5 315.5,-299.5 368.5,-299.5 368.5,-280.5 315.5,-280.5"/>
<text text-anchor="middle" x="342" y="-287.5" font-family="Helvetica,sans-Serif" font-size="10.00" fill="#000000">Phase.h</text>
</a>
</g>
</g>
<!-- Node1&#45;&gt;Node2 -->
<g id="edge2" class="edge">
<title>Node1&#45;&gt;Node2</title>
<path fill="none" stroke="#191970" d="M470.3546,-336.3733C444.8036,-327.1419 406.0488,-313.1402 377.8091,-302.9375"/>
<polygon fill="#191970" stroke="#191970" points="378.8921,-299.6074 368.2978,-299.5011 376.5135,-306.1909 378.8921,-299.6074"/>
</g>
<!-- Node20 -->
<g id="node11" class="node">
<title>Node20</title>
<g id="a_node11"><a xlink:href="global_8h.html" target="_top" xlink:title="This file contains definitions for utility functions and text for modules, inputfiles, logs, textlogs, (see Input File Handling, Diagnostic Output, and Writing messages to the screen). ">
<polygon fill="#ffffff" stroke="#000000" points="482,-112.5 482,-131.5 592,-131.5 592,-112.5 482,-112.5"/>
<text text-anchor="middle" x="537" y="-119.5" font-family="Helvetica,sans-Serif" font-size="10.00" fill="#000000">cantera/base/global.h</text>
</a>
</g>
</g>
<!-- Node1&#45;&gt;Node20 -->
<g id="edge26" class="edge">
<title>Node1&#45;&gt;Node20</title>
<path fill="none" stroke="#191970" d="M496.9526,-336.1489C497.0542,-308.888 498.9259,-230.3473 516,-168 518.5717,-158.6094 522.8565,-148.7217 526.8875,-140.5302"/>
<polygon fill="#191970" stroke="#191970" points="530.059,-142.0169 531.5462,-131.527 523.842,-138.7999 530.059,-142.0169"/>
</g>
<!-- Node27 -->
<g id="node14" class="node">
<title>Node27</title>
<g id="a_node14"><a xlink:href="MultiSpeciesThermo_8h.html" target="_top" xlink:title="Header for a general species thermodynamic property manager for a phase (see MultiSpeciesThermo). ">
<polygon fill="#ffffff" stroke="#000000" points="528,-280.5 528,-299.5 642,-299.5 642,-280.5 528,-280.5"/>
<text text-anchor="middle" x="585" y="-287.5" font-family="Helvetica,sans-Serif" font-size="10.00" fill="#000000">MultiSpeciesThermo.h</text>
</a>
</g>
</g>
<!-- Node1&#45;&gt;Node27 -->
<g id="edge20" class="edge">
<title>Node1&#45;&gt;Node27</title>
<path fill="none" stroke="#191970" d="M512.3284,-336.2455C525.8303,-327.6534 545.7122,-315.0014 561.2686,-305.1018"/>
<polygon fill="#191970" stroke="#191970" points="563.2897,-307.9643 569.8472,-299.6427 559.5315,-302.0587 563.2897,-307.9643"/>
</g>
<!-- Node3 -->
<g id="node4" class="node">
<title>Node3</title>
<g id="a_node4"><a xlink:href="ctexceptions_8h.html" target="_top" xlink:title="Definitions for the classes that are thrown when Cantera experiences an error condition (also contain...">
<polygon fill="#ffffff" stroke="#000000" points="324,-112.5 324,-131.5 464,-131.5 464,-112.5 324,-112.5"/>
<text text-anchor="middle" x="394" y="-119.5" font-family="Helvetica,sans-Serif" font-size="10.00" fill="#000000">cantera/base/ctexceptions.h</text>
</a>
</g>
</g>
<!-- Node2&#45;&gt;Node3 -->
<g id="edge3" class="edge">
<title>Node2&#45;&gt;Node3</title>
<path fill="none" stroke="#191970" d="M368.5941,-280.9112C385.1695,-273.7046 405.1568,-261.837 415,-244 433.2531,-210.9232 416.5383,-165.7497 404.2706,-140.6868"/>
<polygon fill="#191970" stroke="#191970" points="407.2544,-138.8366 399.5564,-131.5571 401.0346,-142.0483 407.2544,-138.8366"/>
</g>
<!-- Node17 -->
<g id="node8" class="node">
<title>Node17</title>
<g id="a_node8"><a xlink:href="Elements_8h.html" target="_top" xlink:title="Contains the getElementWeight function and the definitions of element constraint types. ">
<polygon fill="#ffffff" stroke="#000000" points="0,-56.5 0,-75.5 134,-75.5 134,-56.5 0,-56.5"/>
<text text-anchor="middle" x="67" y="-63.5" font-family="Helvetica,sans-Serif" font-size="10.00" fill="#000000">cantera/thermo/Elements.h</text>
</a>
</g>
</g>
<!-- Node2&#45;&gt;Node17 -->
<g id="edge7" class="edge">
<title>Node2&#45;&gt;Node17</title>
<path fill="none" stroke="#191970" d="M315.3273,-288.1395C261.37,-283.835 141.9315,-271.3918 113,-244 68.4697,-201.8395 64.8697,-122.7055 65.8454,-85.8405"/>
<polygon fill="#191970" stroke="#191970" points="69.3426,-85.9794 66.2549,-75.8445 62.3484,-85.6928 69.3426,-85.9794"/>
</g>
<!-- Node18 -->
<g id="node9" class="node">
<title>Node18</title>
<g id="a_node9"><a xlink:href="Species_8h.html" target="_top" xlink:title="Declaration for class Cantera::Species. ">
<polygon fill="#ffffff" stroke="#000000" points="278,-224.5 278,-243.5 406,-243.5 406,-224.5 278,-224.5"/>
<text text-anchor="middle" x="342" y="-231.5" font-family="Helvetica,sans-Serif" font-size="10.00" fill="#000000">cantera/thermo/Species.h</text>
</a>
</g>
</g>
<!-- Node2&#45;&gt;Node18 -->
<g id="edge9" class="edge">
<title>Node2&#45;&gt;Node18</title>
<path fill="none" stroke="#191970" d="M342,-280.2455C342,-272.9382 342,-262.6944 342,-253.7046"/>
<polygon fill="#191970" stroke="#191970" points="345.5001,-253.6426 342,-243.6427 338.5001,-253.6427 345.5001,-253.6426"/>
</g>
<!-- Node25 -->
<g id="node12" class="node">
<title>Node25</title>
<g id="a_node12"><a xlink:href="ValueCache_8h.html" target="_top" xlink:title="cantera/base/ValueCache.h">
<polygon fill="#ffffff" stroke="#000000" points="122.5,-224.5 122.5,-243.5 259.5,-243.5 259.5,-224.5 122.5,-224.5"/>
<text text-anchor="middle" x="191" y="-231.5" font-family="Helvetica,sans-Serif" font-size="10.00" fill="#000000">cantera/base/ValueCache.h</text>
</a>
</g>
</g>
<!-- Node2&#45;&gt;Node25 -->
<g id="edge17" class="edge">
<title>Node2&#45;&gt;Node25</title>
<path fill="none" stroke="#191970" d="M316.0422,-280.3733C291.2593,-271.1822 253.7254,-257.2624 226.246,-247.0713"/>
<polygon fill="#191970" stroke="#191970" points="227.2121,-243.6968 216.6191,-243.5011 224.7781,-250.26 227.2121,-243.6968"/>
</g>
<!-- Node4 -->
<g id="node5" class="node">
<title>Node4</title>
<g id="a_node5"><a xlink:href="fmt_8h.html" target="_top" xlink:title="Wrapper for either system&#45;installed or local headers for fmt. ">
<polygon fill="#ffffff" stroke="#ff0000" points="405,-56.5 405,-75.5 503,-75.5 503,-56.5 405,-56.5"/>
<text text-anchor="middle" x="454" y="-63.5" font-family="Helvetica,sans-Serif" font-size="10.00" fill="#000000">cantera/base/fmt.h</text>
</a>
</g>
</g>
<!-- Node3&#45;&gt;Node4 -->
<g id="edge4" class="edge">
<title>Node3&#45;&gt;Node4</title>
<path fill="none" stroke="#191970" d="M404.4512,-112.2455C413.2269,-104.0549 425.9554,-92.1749 436.314,-82.5069"/>
<polygon fill="#191970" stroke="#191970" points="438.7461,-85.0246 443.6686,-75.6427 433.9699,-79.9072 438.7461,-85.0246"/>
</g>
<!-- Node16 -->
<g id="node7" class="node">
<title>Node16</title>
<polygon fill="#ffffff" stroke="#bfbfbf" points="327.5,-56.5 327.5,-75.5 386.5,-75.5 386.5,-56.5 327.5,-56.5"/>
<text text-anchor="middle" x="357" y="-63.5" font-family="Helvetica,sans-Serif" font-size="10.00" fill="#000000">exception</text>
</g>
<!-- Node3&#45;&gt;Node16 -->
<g id="edge6" class="edge">
<title>Node3&#45;&gt;Node16</title>
<path fill="none" stroke="#191970" d="M387.5551,-112.2455C382.4618,-104.5367 375.2092,-93.5598 369.048,-84.2348"/>
<polygon fill="#191970" stroke="#191970" points="371.8038,-82.0566 363.3711,-75.6427 365.9635,-85.9155 371.8038,-82.0566"/>
</g>
<!-- Node5 -->
<g id="node6" class="node">
<title>Node5</title>
<g id="a_node6"><a xlink:href="ct__defs_8h.html" target="_top" xlink:title="This file contains definitions of terms that are used in internal routines and are unlikely to need m...">
<polygon fill="#ffffff" stroke="#ff0000" points="267.5,-.5 267.5,-19.5 324.5,-19.5 324.5,-.5 267.5,-.5"/>
<text text-anchor="middle" x="296" y="-7.5" font-family="Helvetica,sans-Serif" font-size="10.00" fill="#000000">ct_defs.h</text>
</a>
</g>
</g>
<!-- Node4&#45;&gt;Node5 -->
<g id="edge5" class="edge">
<title>Node4&#45;&gt;Node5</title>
<path fill="none" stroke="#191970" d="M426.8388,-56.3733C400.7933,-47.1419 361.2884,-33.1402 332.5021,-22.9375"/>
<polygon fill="#191970" stroke="#191970" points="333.4015,-19.5429 322.8067,-19.5011 331.063,-26.1408 333.4015,-19.5429"/>
</g>
<!-- Node17&#45;&gt;Node5 -->
<g id="edge8" class="edge">
<title>Node17&#45;&gt;Node5</title>
<path fill="none" stroke="#191970" d="M106.1063,-56.4369C148.3553,-46.1053 215.2575,-29.7449 257.3342,-19.4554"/>
<polygon fill="#191970" stroke="#191970" points="258.3257,-22.8161 267.2081,-17.0408 256.6629,-16.0165 258.3257,-22.8161"/>
</g>
<!-- Node18&#45;&gt;Node5 -->
<g id="edge10" class="edge">
<title>Node18&#45;&gt;Node5</title>
<path fill="none" stroke="#191970" d="M318.8888,-224.4901C303.9702,-216.9878 285.7669,-204.9445 277,-188 249.8208,-135.4687 273.5525,-62.6691 287.5207,-28.7681"/>
<polygon fill="#191970" stroke="#191970" points="290.7445,-30.1311 291.4751,-19.5615 284.3126,-27.3685 290.7445,-30.1311"/>
</g>
<!-- Node19 -->
<g id="node10" class="node">
<title>Node19</title>
<g id="a_node10"><a xlink:href="AnyMap_8h.html" target="_top" xlink:title="cantera/base/AnyMap.h">
<polygon fill="#ffffff" stroke="#ff0000" points="286,-168.5 286,-187.5 406,-187.5 406,-168.5 286,-168.5"/>
<text text-anchor="middle" x="346" y="-175.5" font-family="Helvetica,sans-Serif" font-size="10.00" fill="#000000">cantera/base/AnyMap.h</text>
</a>
</g>
</g>
<!-- Node18&#45;&gt;Node19 -->
<g id="edge11" class="edge">
<title>Node18&#45;&gt;Node19</title>
<path fill="none" stroke="#191970" d="M342.6967,-224.2455C343.2187,-216.9382 343.9504,-206.6944 344.5925,-197.7046"/>
<polygon fill="#191970" stroke="#191970" points="348.0898,-197.8667 345.3112,-187.6427 341.1076,-197.3679 348.0898,-197.8667"/>
</g>
<!-- Node19&#45;&gt;Node3 -->
<g id="edge16" class="edge">
<title>Node19&#45;&gt;Node3</title>
<path fill="none" stroke="#191970" d="M354.361,-168.2455C361.175,-160.2958 370.9681,-148.8706 379.1152,-139.3656"/>
<polygon fill="#191970" stroke="#191970" points="381.8843,-141.513 385.7349,-131.6427 376.5695,-136.9575 381.8843,-141.513"/>
</g>
<!-- Node19&#45;&gt;Node5 -->
<g id="edge12" class="edge">
<title>Node19&#45;&gt;Node5</title>
<path fill="none" stroke="#191970" d="M337.7366,-168.4871C330.5331,-159.6487 320.4148,-145.8069 315,-132 301.5548,-97.7169 297.5985,-54.506 296.4506,-29.7883"/>
<polygon fill="#191970" stroke="#191970" points="299.9398,-29.4157 296.09,-19.545 292.9441,-29.662 299.9398,-29.4157"/>
</g>
<!-- Node19&#45;&gt;Node20 -->
<g id="edge13" class="edge">
<title>Node19&#45;&gt;Node20</title>
<path fill="none" stroke="#191970" d="M378.8341,-168.3733C410.8695,-158.9807 459.7487,-144.6496 494.6855,-134.4064"/>
<polygon fill="#191970" stroke="#191970" points="495.9831,-137.6733 504.5944,-131.5011 494.0136,-130.9561 495.9831,-137.6733"/>
</g>
<!-- Node20&#45;&gt;Node4 -->
<g id="edge15" class="edge">
<title>Node20&#45;&gt;Node4</title>
<path fill="none" stroke="#191970" d="M522.5425,-112.2455C509.9268,-103.7337 491.4056,-91.2375 476.7955,-81.3801"/>
<polygon fill="#191970" stroke="#191970" points="478.5391,-78.3343 468.2918,-75.6427 474.6239,-84.1371 478.5391,-78.3343"/>
</g>
<!-- Node20&#45;&gt;Node5 -->
<g id="edge14" class="edge">
<title>Node20&#45;&gt;Node5</title>
<path fill="none" stroke="#191970" d="M536.1828,-112.2846C534.4189,-97.755 528.9222,-70.5236 512,-56 485.7603,-33.4796 389.2645,-19.8579 334.5427,-13.7753"/>
<polygon fill="#191970" stroke="#191970" points="334.8308,-10.2861 324.513,-12.6928 334.0796,-17.2457 334.8308,-10.2861"/>
</g>
<!-- Node25&#45;&gt;Node5 -->
<g id="edge18" class="edge">
<title>Node25&#45;&gt;Node5</title>
<path fill="none" stroke="#191970" d="M186.8317,-224.3748C181.782,-211.3177 174.6887,-187.3958 181,-168 200.2049,-108.9793 250.6891,-53.6262 277.9399,-26.8392"/>
<polygon fill="#191970" stroke="#191970" points="280.5075,-29.2255 285.2783,-19.7656 275.6495,-24.1857 280.5075,-29.2255"/>
</g>
<!-- Node26 -->
<g id="node13" class="node">
<title>Node26</title>
<polygon fill="#ffffff" stroke="#bfbfbf" points="190,-168.5 190,-187.5 230,-187.5 230,-168.5 190,-168.5"/>
<text text-anchor="middle" x="210" y="-175.5" font-family="Helvetica,sans-Serif" font-size="10.00" fill="#000000">limits</text>
</g>
<!-- Node25&#45;&gt;Node26 -->
<g id="edge19" class="edge">
<title>Node25&#45;&gt;Node26</title>
<path fill="none" stroke="#191970" d="M194.3095,-224.2455C196.8433,-216.7776 200.4177,-206.2427 203.515,-197.1137"/>
<polygon fill="#191970" stroke="#191970" points="206.8298,-198.237 206.7284,-187.6427 200.2009,-195.9879 206.8298,-198.237"/>
</g>
<!-- Node28 -->
<g id="node15" class="node">
<title>Node28</title>
<g id="a_node15"><a xlink:href="SpeciesThermoInterpType_8h.html" target="_top" xlink:title="Pure Virtual Base class for individual species reference state thermodynamic managers and text for th...">
<polygon fill="#ffffff" stroke="#000000" points="525,-168.5 525,-187.5 665,-187.5 665,-168.5 525,-168.5"/>
<text text-anchor="middle" x="595" y="-175.5" font-family="Helvetica,sans-Serif" font-size="10.00" fill="#000000">SpeciesThermoInterpType.h</text>
</a>
</g>
</g>
<!-- Node27&#45;&gt;Node28 -->
<g id="edge21" class="edge">
<title>Node27&#45;&gt;Node28</title>
<path fill="none" stroke="#191970" d="M585.8526,-280.4509C587.4836,-262.184 591.0754,-221.9553 593.2413,-197.6976"/>
<polygon fill="#191970" stroke="#191970" points="596.7463,-197.7966 594.1496,-187.5249 589.774,-197.174 596.7463,-197.7966"/>
</g>
<!-- Node28&#45;&gt;Node3 -->
<g id="edge24" class="edge">
<title>Node28&#45;&gt;Node3</title>
<path fill="none" stroke="#191970" d="M560.4469,-168.3733C526.5896,-158.9404 474.854,-144.5265 438.0574,-134.2747"/>
<polygon fill="#191970" stroke="#191970" points="438.6747,-130.8135 428.1022,-131.5011 436.796,-137.5566 438.6747,-130.8135"/>
</g>
<!-- Node28&#45;&gt;Node5 -->
<g id="edge22" class="edge">
<title>Node28&#45;&gt;Node5</title>
<path fill="none" stroke="#191970" d="M598.9235,-168.0575C603.5655,-154.6409 609.6423,-130.313 601,-112 584.2907,-76.5932 568.4171,-72.6874 533,-56 467.8274,-25.2928 383.3273,-15.0834 334.8357,-11.6895"/>
<polygon fill="#191970" stroke="#191970" points="334.9675,-8.1909 324.7649,-11.0471 334.5218,-15.1767 334.9675,-8.1909"/>
</g>
<!-- Node28&#45;&gt;Node20 -->
<g id="edge25" class="edge">
<title>Node28&#45;&gt;Node20</title>
<path fill="none" stroke="#191970" d="M584.8972,-168.2455C576.4972,-160.1352 564.3506,-148.4075 554.3916,-138.7919"/>
<polygon fill="#191970" stroke="#191970" points="556.6122,-136.0707 546.9871,-131.6427 551.75,-141.1066 556.6122,-136.0707"/>
</g>
<!-- Node29 -->
<g id="node16" class="node">
<title>Node29</title>
<g id="a_node16"><a xlink:href="speciesThermoTypes_8h.html" target="_top" xlink:title="Contains const definitions for types of species reference&#45;state thermodynamics managers (see Species ...">
<polygon fill="#ffffff" stroke="#000000" points="648.5,-112.5 648.5,-131.5 767.5,-131.5 767.5,-112.5 648.5,-112.5"/>
<text text-anchor="middle" x="708" y="-119.5" font-family="Helvetica,sans-Serif" font-size="10.00" fill="#000000">speciesThermoTypes.h</text>
</a>
</g>
</g>
<!-- Node28&#45;&gt;Node29 -->
<g id="edge23" class="edge">
<title>Node28&#45;&gt;Node29</title>
<path fill="none" stroke="#191970" d="M614.4254,-168.3733C632.4021,-159.4644 659.3441,-146.1127 679.709,-136.0203"/>
<polygon fill="#191970" stroke="#191970" points="681.4222,-139.0776 688.8281,-131.5011 678.3139,-132.8055 681.4222,-139.0776"/>
</g>
</g>
</svg>
