<?xml version="1.0" encoding="UTF-8" standalone="no"?>
<!DOCTYPE svg PUBLIC "-//W3C//DTD SVG 1.1//EN"
 "http://www.w3.org/Graphics/SVG/1.1/DTD/svg11.dtd">
<!-- Generated by graphviz version 2.40.1 (20161225.0304)
 -->
<!-- Title: LatticeSolidPhase.cpp Pages: 1 -->
<svg width="1243pt" height="498pt"
 viewBox="0.00 0.00 1243.00 498.00" xmlns="http://www.w3.org/2000/svg" xmlns:xlink="http://www.w3.org/1999/xlink">
<g id="graph0" class="graph" transform="scale(1 1) rotate(0) translate(4 494)">
<title>LatticeSolidPhase.cpp</title>
<polygon fill="#ffffff" stroke="transparent" points="-4,4 -4,-494 1239,-494 1239,4 -4,4"/>
<!-- Node0 -->
<g id="node1" class="node">
<title>Node0</title>
<polygon fill="#bfbfbf" stroke="#000000" points="820,-470.5 820,-489.5 934,-489.5 934,-470.5 820,-470.5"/>
<text text-anchor="middle" x="877" y="-477.5" font-family="Helvetica,sans-Serif" font-size="10.00" fill="#000000">LatticeSolidPhase.cpp</text>
</g>
<!-- Node1 -->
<g id="node2" class="node">
<title>Node1</title>
<g id="a_node2"><a xlink:href="LatticeSolidPhase_8h.html" target="_top" xlink:title="Header for a simple thermodynamics model of a bulk solid phase derived from ThermoPhase, assuming an ideal solution model based on a lattice of solid atoms (see Thermodynamic Properties and class LatticeSolidPhase). ">
<polygon fill="#ffffff" stroke="#000000" points="675,-403.5 675,-433.5 811,-433.5 811,-403.5 675,-403.5"/>
<text text-anchor="start" x="683" y="-421.5" font-family="Helvetica,sans-Serif" font-size="10.00" fill="#000000">cantera/thermo/LatticeSolid</text>
<text text-anchor="middle" x="743" y="-410.5" font-family="Helvetica,sans-Serif" font-size="10.00" fill="#000000">Phase.h</text>
</a>
</g>
</g>
<!-- Node0&#45;&gt;Node1 -->
<g id="edge1" class="edge">
<title>Node0&#45;&gt;Node1</title>
<path fill="none" stroke="#191970" d="M856.0625,-470.3906C837.0876,-461.682 808.5593,-448.5888 784.9074,-437.7336"/>
<polygon fill="#191970" stroke="#191970" points="786.3285,-434.5349 775.7801,-433.5446 783.4087,-440.8968 786.3285,-434.5349"/>
</g>
<!-- Node28 -->
<g id="node13" class="node">
<title>Node28</title>
<g id="a_node13"><a xlink:href="MultiSpeciesThermo_8h.html" target="_top" xlink:title="Header for a general species thermodynamic property manager for a phase (see MultiSpeciesThermo). ">
<polygon fill="#ffffff" stroke="#000000" points="718,-280.5 718,-299.5 832,-299.5 832,-280.5 718,-280.5"/>
<text text-anchor="middle" x="775" y="-287.5" font-family="Helvetica,sans-Serif" font-size="10.00" fill="#000000">MultiSpeciesThermo.h</text>
</a>
</g>
</g>
<!-- Node0&#45;&gt;Node28 -->
<g id="edge37" class="edge">
<title>Node0&#45;&gt;Node28</title>
<path fill="none" stroke="#191970" d="M871.8016,-470.3167C855.7087,-440.3398 806.5089,-348.6931 785.1136,-308.8391"/>
<polygon fill="#191970" stroke="#191970" points="788.124,-307.0469 780.3103,-299.8917 781.9565,-310.3579 788.124,-307.0469"/>
</g>
<!-- Node31 -->
<g id="node16" class="node">
<title>Node31</title>
<g id="a_node16"><a xlink:href="ThermoFactory_8h.html" target="_top" xlink:title="Headers for the factory class that can create known ThermoPhase objects (see Thermodynamic Properties...">
<polygon fill="#ffffff" stroke="#000000" points="497.5,-409 497.5,-428 656.5,-428 656.5,-409 497.5,-409"/>
<text text-anchor="middle" x="577" y="-416" font-family="Helvetica,sans-Serif" font-size="10.00" fill="#000000">cantera/thermo/ThermoFactory.h</text>
</a>
</g>
</g>
<!-- Node0&#45;&gt;Node31 -->
<g id="edge23" class="edge">
<title>Node0&#45;&gt;Node31</title>
<path fill="none" stroke="#191970" d="M830.4542,-470.4581C777.3562,-459.573 690.537,-441.7751 633.578,-430.0985"/>
<polygon fill="#191970" stroke="#191970" points="634.1542,-426.6439 623.655,-428.0643 632.7484,-433.5013 634.1542,-426.6439"/>
</g>
<!-- Node36 -->
<g id="node22" class="node">
<title>Node36</title>
<g id="a_node22"><a xlink:href="SpeciesThermoFactory_8h.html" target="_top" xlink:title="Header for factory functions to build instances of classes that manage the standard&#45;state thermodynam...">
<polygon fill="#ffffff" stroke="#000000" points="905.5,-336.5 905.5,-366.5 1058.5,-366.5 1058.5,-336.5 905.5,-336.5"/>
<text text-anchor="start" x="913.5" y="-354.5" font-family="Helvetica,sans-Serif" font-size="10.00" fill="#000000">cantera/thermo/SpeciesThermo</text>
<text text-anchor="middle" x="982" y="-343.5" font-family="Helvetica,sans-Serif" font-size="10.00" fill="#000000">Factory.h</text>
</a>
</g>
</g>
<!-- Node0&#45;&gt;Node36 -->
<g id="edge35" class="edge">
<title>Node0&#45;&gt;Node36</title>
<path fill="none" stroke="#191970" d="M884.8921,-470.3416C901.3872,-450.1547 939.9084,-403.012 963.1713,-374.5427"/>
<polygon fill="#191970" stroke="#191970" points="965.9612,-376.6599 969.5784,-366.7016 960.5407,-372.2306 965.9612,-376.6599"/>
</g>
<!-- Node37 -->
<g id="node23" class="node">
<title>Node37</title>
<g id="a_node23"><a xlink:href="ctml_8h.html" target="_top" xlink:title="CTML (&quot;Cantera Markup Language&quot;) is the variant of XML that Cantera uses to store data...">
<polygon fill="#ffffff" stroke="#000000" points="850.5,-280.5 850.5,-299.5 953.5,-299.5 953.5,-280.5 850.5,-280.5"/>
<text text-anchor="middle" x="902" y="-287.5" font-family="Helvetica,sans-Serif" font-size="10.00" fill="#000000">cantera/base/ctml.h</text>
</a>
</g>
</g>
<!-- Node0&#45;&gt;Node37 -->
<g id="edge38" class="edge">
<title>Node0&#45;&gt;Node37</title>
<path fill="none" stroke="#191970" d="M878.2741,-470.3167C882.185,-440.5938 894.0734,-350.242 899.3864,-309.8634"/>
<polygon fill="#191970" stroke="#191970" points="902.8639,-310.2628 900.6985,-299.8917 895.9237,-309.3496 902.8639,-310.2628"/>
</g>
<!-- Node38 -->
<g id="node24" class="node">
<title>Node38</title>
<g id="a_node24"><a xlink:href="stringUtils_8h.html" target="_top" xlink:title="Contains declarations for string manipulation functions within Cantera. ">
<polygon fill="#ffffff" stroke="#000000" points="1107,-168.5 1107,-187.5 1235,-187.5 1235,-168.5 1107,-168.5"/>
<text text-anchor="middle" x="1171" y="-175.5" font-family="Helvetica,sans-Serif" font-size="10.00" fill="#000000">cantera/base/stringUtils.h</text>
</a>
</g>
</g>
<!-- Node0&#45;&gt;Node38 -->
<g id="edge41" class="edge">
<title>Node0&#45;&gt;Node38</title>
<path fill="none" stroke="#191970" d="M915.8175,-470.4927C991.6214,-450.7882 1152,-403.0124 1152,-351.5 1152,-351.5 1152,-351.5 1152,-290 1152,-257.2688 1159.9852,-219.9052 1165.6022,-197.6716"/>
<polygon fill="#191970" stroke="#191970" points="1169.0415,-198.3545 1168.1965,-187.7934 1162.2711,-196.5763 1169.0415,-198.3545"/>
</g>
<!-- Node39 -->
<g id="node25" class="node">
<title>Node39</title>
<g id="a_node25"><a xlink:href="utilities_8h.html" target="_top" xlink:title="Various templated functions that carry out common vector operations (see Templated Utility Functions)...">
<polygon fill="#ffffff" stroke="#000000" points="928.5,-224.5 928.5,-243.5 1043.5,-243.5 1043.5,-224.5 928.5,-224.5"/>
<text text-anchor="middle" x="986" y="-231.5" font-family="Helvetica,sans-Serif" font-size="10.00" fill="#000000">cantera/base/utilities.h</text>
</a>
</g>
</g>
<!-- Node0&#45;&gt;Node39 -->
<g id="edge45" class="edge">
<title>Node0&#45;&gt;Node39</title>
<path fill="none" stroke="#191970" d="M913.4064,-470.449C958.9255,-456.3302 1034.885,-425.0679 1068,-367 1092.5662,-323.9225 1040.2301,-274.5453 1008.2976,-249.8333"/>
<polygon fill="#191970" stroke="#191970" points="1010.0126,-246.7444 999.913,-243.543 1005.8118,-252.3439 1010.0126,-246.7444"/>
</g>
<!-- Node2 -->
<g id="node3" class="node">
<title>Node2</title>
<g id="a_node3"><a xlink:href="ThermoPhase_8h.html" target="_top" xlink:title="Header file for class ThermoPhase, the base class for phases with thermodynamic properties, and the text for the Module thermoprops (see Thermodynamic Properties and class ThermoPhase). ">
<polygon fill="#ffffff" stroke="#000000" points="647,-342 647,-361 733,-361 733,-342 647,-342"/>
<text text-anchor="middle" x="690" y="-349" font-family="Helvetica,sans-Serif" font-size="10.00" fill="#000000">ThermoPhase.h</text>
</a>
</g>
</g>
<!-- Node1&#45;&gt;Node2 -->
<g id="edge2" class="edge">
<title>Node1&#45;&gt;Node2</title>
<path fill="none" stroke="#191970" d="M730.9735,-403.2967C722.9563,-393.1618 712.3898,-379.804 703.9953,-369.1921"/>
<polygon fill="#191970" stroke="#191970" points="706.5075,-366.7264 697.5584,-361.055 701.0175,-371.0692 706.5075,-366.7264"/>
</g>
<!-- Node3 -->
<g id="node4" class="node">
<title>Node3</title>
<g id="a_node4"><a xlink:href="Phase_8h.html" target="_top" xlink:title="Header file for class Phase. ">
<polygon fill="#ffffff" stroke="#000000" points="226.5,-224.5 226.5,-243.5 279.5,-243.5 279.5,-224.5 226.5,-224.5"/>
<text text-anchor="middle" x="253" y="-231.5" font-family="Helvetica,sans-Serif" font-size="10.00" fill="#000000">Phase.h</text>
</a>
</g>
</g>
<!-- Node2&#45;&gt;Node3 -->
<g id="edge3" class="edge">
<title>Node2&#45;&gt;Node3</title>
<path fill="none" stroke="#191970" d="M654.6086,-341.984C572.8797,-320.0089 371.7068,-265.9177 289.1981,-243.7329"/>
<polygon fill="#191970" stroke="#191970" points="290.0765,-240.3448 279.5107,-241.1281 288.2588,-247.1047 290.0765,-240.3448"/>
</g>
<!-- Node2&#45;&gt;Node28 -->
<g id="edge15" class="edge">
<title>Node2&#45;&gt;Node28</title>
<path fill="none" stroke="#191970" d="M703.2813,-341.8906C716.7548,-332.1421 737.822,-316.8994 753.6435,-305.4521"/>
<polygon fill="#191970" stroke="#191970" points="755.7619,-308.2394 761.812,-299.5419 751.6586,-302.5682 755.7619,-308.2394"/>
</g>
<!-- Node21 -->
<g id="node15" class="node">
<title>Node21</title>
<g id="a_node15"><a xlink:href="global_8h.html" target="_top" xlink:title="This file contains definitions for utility functions and text for modules, inputfiles, logs, textlogs, (see Input File Handling, Diagnostic Output, and Writing messages to the screen). ">
<polygon fill="#ffffff" stroke="#000000" points="718,-168.5 718,-187.5 828,-187.5 828,-168.5 718,-168.5"/>
<text text-anchor="middle" x="773" y="-175.5" font-family="Helvetica,sans-Serif" font-size="10.00" fill="#000000">cantera/base/global.h</text>
</a>
</g>
</g>
<!-- Node2&#45;&gt;Node21 -->
<g id="edge22" class="edge">
<title>Node2&#45;&gt;Node21</title>
<path fill="none" stroke="#191970" d="M689.0102,-341.6911C687.221,-319.1008 685.5735,-262.402 709,-224 717.0853,-210.7462 730.5753,-200.2049 743.091,-192.5751"/>
<polygon fill="#191970" stroke="#191970" points="744.9822,-195.526 751.941,-187.5369 741.519,-189.4427 744.9822,-195.526"/>
</g>
<!-- Node4 -->
<g id="node5" class="node">
<title>Node4</title>
<g id="a_node5"><a xlink:href="ctexceptions_8h.html" target="_top" xlink:title="Definitions for the classes that are thrown when Cantera experiences an error condition (also contain...">
<polygon fill="#ffffff" stroke="#ff0000" points="560,-168.5 560,-187.5 700,-187.5 700,-168.5 560,-168.5"/>
<text text-anchor="middle" x="630" y="-175.5" font-family="Helvetica,sans-Serif" font-size="10.00" fill="#000000">cantera/base/ctexceptions.h</text>
</a>
</g>
</g>
<!-- Node3&#45;&gt;Node4 -->
<g id="edge4" class="edge">
<title>Node3&#45;&gt;Node4</title>
<path fill="none" stroke="#191970" d="M279.5099,-230.0622C336.2019,-221.6411 470.9592,-201.6241 555.8917,-189.0081"/>
<polygon fill="#191970" stroke="#191970" points="556.6165,-192.439 565.9937,-187.5076 555.588,-185.5149 556.6165,-192.439"/>
</g>
<!-- Node18 -->
<g id="node10" class="node">
<title>Node18</title>
<g id="a_node10"><a xlink:href="Elements_8h.html" target="_top" xlink:title="Contains the getElementWeight function and the definitions of element constraint types. ">
<polygon fill="#ffffff" stroke="#000000" points="440,-112.5 440,-131.5 574,-131.5 574,-112.5 440,-112.5"/>
<text text-anchor="middle" x="507" y="-119.5" font-family="Helvetica,sans-Serif" font-size="10.00" fill="#000000">cantera/thermo/Elements.h</text>
</a>
</g>
</g>
<!-- Node3&#45;&gt;Node18 -->
<g id="edge9" class="edge">
<title>Node3&#45;&gt;Node18</title>
<path fill="none" stroke="#191970" d="M258.6244,-224.2183C267.5591,-209.6022 286.4216,-182.2594 310,-168 331.534,-154.977 390.6921,-142.1195 438.603,-133.3231"/>
<polygon fill="#191970" stroke="#191970" points="439.4204,-136.7322 448.6383,-131.5091 438.1752,-129.8438 439.4204,-136.7322"/>
</g>
<!-- Node19 -->
<g id="node11" class="node">
<title>Node19</title>
<g id="a_node11"><a xlink:href="Species_8h.html" target="_top" xlink:title="Declaration for class Cantera::Species. ">
<polygon fill="#ffffff" stroke="#ff0000" points="0,-112.5 0,-131.5 128,-131.5 128,-112.5 0,-112.5"/>
<text text-anchor="middle" x="64" y="-119.5" font-family="Helvetica,sans-Serif" font-size="10.00" fill="#000000">cantera/thermo/Species.h</text>
</a>
</g>
</g>
<!-- Node3&#45;&gt;Node19 -->
<g id="edge11" class="edge">
<title>Node3&#45;&gt;Node19</title>
<path fill="none" stroke="#191970" d="M236.886,-224.4509C203.8287,-204.8615 128.1507,-160.0152 88.797,-136.6945"/>
<polygon fill="#191970" stroke="#191970" points="90.4605,-133.6119 80.0732,-131.5249 86.8919,-139.634 90.4605,-133.6119"/>
</g>
<!-- Node26 -->
<g id="node12" class="node">
<title>Node26</title>
<g id="a_node12"><a xlink:href="ValueCache_8h.html" target="_top" xlink:title="cantera/base/ValueCache.h">
<polygon fill="#ffffff" stroke="#ff0000" points="146.5,-112.5 146.5,-131.5 283.5,-131.5 283.5,-112.5 146.5,-112.5"/>
<text text-anchor="middle" x="215" y="-119.5" font-family="Helvetica,sans-Serif" font-size="10.00" fill="#000000">cantera/base/ValueCache.h</text>
</a>
</g>
</g>
<!-- Node3&#45;&gt;Node26 -->
<g id="edge13" class="edge">
<title>Node3&#45;&gt;Node26</title>
<path fill="none" stroke="#191970" d="M249.7601,-224.4509C243.5063,-206.0186 229.6658,-165.2254 221.461,-141.043"/>
<polygon fill="#191970" stroke="#191970" points="224.7591,-139.8701 218.2317,-131.5249 218.1303,-142.1192 224.7591,-139.8701"/>
</g>
<!-- Node5 -->
<g id="node6" class="node">
<title>Node5</title>
<g id="a_node6"><a xlink:href="fmt_8h.html" target="_top" xlink:title="Wrapper for either system&#45;installed or local headers for fmt. ">
<polygon fill="#ffffff" stroke="#ff0000" points="692,-112.5 692,-131.5 790,-131.5 790,-112.5 692,-112.5"/>
<text text-anchor="middle" x="741" y="-119.5" font-family="Helvetica,sans-Serif" font-size="10.00" fill="#000000">cantera/base/fmt.h</text>
</a>
</g>
</g>
<!-- Node4&#45;&gt;Node5 -->
<g id="edge5" class="edge">
<title>Node4&#45;&gt;Node5</title>
<path fill="none" stroke="#191970" d="M649.0816,-168.3733C666.7402,-159.4644 693.2053,-146.1127 713.2098,-136.0203"/>
<polygon fill="#191970" stroke="#191970" points="714.8158,-139.1303 722.1674,-131.5011 711.6628,-132.8806 714.8158,-139.1303"/>
</g>
<!-- Node6 -->
<g id="node7" class="node">
<title>Node6</title>
<g id="a_node7"><a xlink:href="ct__defs_8h.html" target="_top" xlink:title="This file contains definitions of terms that are used in internal routines and are unlikely to need m...">
<polygon fill="#ffffff" stroke="#ff0000" points="789.5,-56.5 789.5,-75.5 846.5,-75.5 846.5,-56.5 789.5,-56.5"/>
<text text-anchor="middle" x="818" y="-63.5" font-family="Helvetica,sans-Serif" font-size="10.00" fill="#000000">ct_defs.h</text>
</a>
</g>
</g>
<!-- Node5&#45;&gt;Node6 -->
<g id="edge6" class="edge">
<title>Node5&#45;&gt;Node6</title>
<path fill="none" stroke="#191970" d="M754.4124,-112.2455C766.0057,-103.814 782.9748,-91.4729 796.4678,-81.6598"/>
<polygon fill="#191970" stroke="#191970" points="798.7126,-84.355 804.7413,-75.6427 794.5953,-78.6938 798.7126,-84.355"/>
</g>
<!-- Node10 -->
<g id="node8" class="node">
<title>Node10</title>
<polygon fill="#ffffff" stroke="#bfbfbf" points="654,-.5 654,-19.5 698,-19.5 698,-.5 654,-.5"/>
<text text-anchor="middle" x="676" y="-7.5" font-family="Helvetica,sans-Serif" font-size="10.00" fill="#000000">vector</text>
</g>
<!-- Node6&#45;&gt;Node10 -->
<g id="edge7" class="edge">
<title>Node6&#45;&gt;Node10</title>
<path fill="none" stroke="#191970" d="M793.5893,-56.3733C769.8232,-47.0007 733.5879,-32.7107 707.6253,-22.472"/>
<polygon fill="#191970" stroke="#191970" points="708.8121,-19.1777 698.2253,-18.7649 706.244,-25.6896 708.8121,-19.1777"/>
</g>
<!-- Node12 -->
<g id="node9" class="node">
<title>Node12</title>
<polygon fill="#ffffff" stroke="#bfbfbf" points="938.5,-.5 938.5,-19.5 979.5,-19.5 979.5,-.5 938.5,-.5"/>
<text text-anchor="middle" x="959" y="-7.5" font-family="Helvetica,sans-Serif" font-size="10.00" fill="#000000">string</text>
</g>
<!-- Node6&#45;&gt;Node12 -->
<g id="edge8" class="edge">
<title>Node6&#45;&gt;Node12</title>
<path fill="none" stroke="#191970" d="M842.2388,-56.3733C866.2564,-46.8343 903.099,-32.2018 928.9605,-21.9306"/>
<polygon fill="#191970" stroke="#191970" points="930.283,-25.1713 938.2849,-18.2273 927.6992,-18.6657 930.283,-25.1713"/>
</g>
<!-- Node18&#45;&gt;Node6 -->
<g id="edge10" class="edge">
<title>Node18&#45;&gt;Node6</title>
<path fill="none" stroke="#191970" d="M560.1094,-112.4369C622.3689,-101.2262 724.0493,-82.9172 779.3015,-72.9682"/>
<polygon fill="#191970" stroke="#191970" points="780.1613,-76.3698 789.3828,-71.1529 778.9208,-69.4806 780.1613,-76.3698"/>
</g>
<!-- Node19&#45;&gt;Node6 -->
<g id="edge12" class="edge">
<title>Node19&#45;&gt;Node6</title>
<path fill="none" stroke="#191970" d="M128.0643,-112.9706C131.0828,-112.6249 134.0731,-112.299 137,-112 380.898,-87.087 675.3686,-72.3972 779.3642,-67.6783"/>
<polygon fill="#191970" stroke="#191970" points="779.5625,-71.173 789.3952,-67.2274 779.2481,-64.1801 779.5625,-71.173"/>
</g>
<!-- Node26&#45;&gt;Node6 -->
<g id="edge14" class="edge">
<title>Node26&#45;&gt;Node6</title>
<path fill="none" stroke="#191970" d="M283.5847,-115.6306C410.7382,-103.822 679.2078,-78.8895 779.3022,-69.5938"/>
<polygon fill="#191970" stroke="#191970" points="779.6491,-73.0768 789.2826,-68.667 779.0018,-66.1068 779.6491,-73.0768"/>
</g>
<!-- Node29 -->
<g id="node14" class="node">
<title>Node29</title>
<g id="a_node14"><a xlink:href="SpeciesThermoInterpType_8h.html" target="_top" xlink:title="Pure Virtual Base class for individual species reference state thermodynamic managers and text for th...">
<polygon fill="#ffffff" stroke="#ff0000" points="718,-224.5 718,-243.5 858,-243.5 858,-224.5 718,-224.5"/>
<text text-anchor="middle" x="788" y="-231.5" font-family="Helvetica,sans-Serif" font-size="10.00" fill="#000000">SpeciesThermoInterpType.h</text>
</a>
</g>
</g>
<!-- Node28&#45;&gt;Node29 -->
<g id="edge16" class="edge">
<title>Node28&#45;&gt;Node29</title>
<path fill="none" stroke="#191970" d="M777.2644,-280.2455C778.9794,-272.8579 781.3912,-262.4689 783.4944,-253.4087"/>
<polygon fill="#191970" stroke="#191970" points="786.9095,-254.1751 785.7615,-243.6427 780.0908,-252.5922 786.9095,-254.1751"/>
</g>
<!-- Node29&#45;&gt;Node4 -->
<g id="edge18" class="edge">
<title>Node29&#45;&gt;Node4</title>
<path fill="none" stroke="#191970" d="M760.8388,-224.3733C734.7933,-215.1419 695.2884,-201.1402 666.5021,-190.9375"/>
<polygon fill="#191970" stroke="#191970" points="667.4015,-187.5429 656.8067,-187.5011 665.063,-194.1408 667.4015,-187.5429"/>
</g>
<!-- Node29&#45;&gt;Node6 -->
<g id="edge17" class="edge">
<title>Node29&#45;&gt;Node6</title>
<path fill="none" stroke="#191970" d="M803.618,-224.4791C815.2472,-216.3972 830.2332,-203.6339 837,-188 851.8262,-153.7457 837.6934,-109.6473 827.1369,-84.9437"/>
<polygon fill="#191970" stroke="#191970" points="830.2348,-83.2997 822.9264,-75.629 823.8562,-86.183 830.2348,-83.2997"/>
</g>
<!-- Node29&#45;&gt;Node21 -->
<g id="edge19" class="edge">
<title>Node29&#45;&gt;Node21</title>
<path fill="none" stroke="#191970" d="M785.3872,-224.2455C783.4084,-216.8579 780.6256,-206.4689 778.1988,-197.4087"/>
<polygon fill="#191970" stroke="#191970" points="781.5511,-196.3966 775.5829,-187.6427 774.7895,-198.2078 781.5511,-196.3966"/>
</g>
<!-- Node21&#45;&gt;Node5 -->
<g id="edge21" class="edge">
<title>Node21&#45;&gt;Node5</title>
<path fill="none" stroke="#191970" d="M767.426,-168.2455C763.0669,-160.617 756.8789,-149.7881 751.5867,-140.5267"/>
<polygon fill="#191970" stroke="#191970" points="754.5104,-138.5886 746.5101,-131.6427 748.4327,-142.0616 754.5104,-138.5886"/>
</g>
<!-- Node21&#45;&gt;Node6 -->
<g id="edge20" class="edge">
<title>Node21&#45;&gt;Node6</title>
<path fill="none" stroke="#191970" d="M779.2672,-168.467C785.0185,-159.3906 793.4618,-145.1956 799,-132 805.3449,-116.8824 810.3552,-98.9643 813.6342,-85.6153"/>
<polygon fill="#191970" stroke="#191970" points="817.0982,-86.1734 815.9726,-75.6385 810.2829,-84.5759 817.0982,-86.1734"/>
</g>
<!-- Node31&#45;&gt;Node2 -->
<g id="edge24" class="edge">
<title>Node31&#45;&gt;Node2</title>
<path fill="none" stroke="#191970" d="M593.1901,-408.9005C611.9863,-397.7559 643.2016,-379.2477 665.0924,-366.2682"/>
<polygon fill="#191970" stroke="#191970" points="667.0233,-369.1924 673.8399,-361.0817 663.4531,-363.1712 667.0233,-369.1924"/>
</g>
<!-- Node32 -->
<g id="node17" class="node">
<title>Node32</title>
<g id="a_node17"><a xlink:href="xml_8h.html" target="_top" xlink:title="Classes providing support for XML data files. ">
<polygon fill="#ffffff" stroke="#000000" points="562,-224.5 562,-243.5 662,-243.5 662,-224.5 562,-224.5"/>
<text text-anchor="middle" x="612" y="-231.5" font-family="Helvetica,sans-Serif" font-size="10.00" fill="#000000">cantera/base/xml.h</text>
</a>
</g>
</g>
<!-- Node31&#45;&gt;Node32 -->
<g id="edge25" class="edge">
<title>Node31&#45;&gt;Node32</title>
<path fill="none" stroke="#191970" d="M578.8325,-408.8402C584.349,-379.76 600.8766,-292.636 608.3086,-253.459"/>
<polygon fill="#191970" stroke="#191970" points="611.7605,-254.0413 610.1857,-243.5641 604.8831,-252.7366 611.7605,-254.0413"/>
</g>
<!-- Node33 -->
<g id="node18" class="node">
<title>Node33</title>
<g id="a_node18"><a xlink:href="FactoryBase_8h.html" target="_top" xlink:title="File contains the FactoryBase class declarations. ">
<polygon fill="#ffffff" stroke="#000000" points="404,-224.5 404,-243.5 544,-243.5 544,-224.5 404,-224.5"/>
<text text-anchor="middle" x="474" y="-231.5" font-family="Helvetica,sans-Serif" font-size="10.00" fill="#000000">cantera/base/FactoryBase.h</text>
</a>
</g>
</g>
<!-- Node31&#45;&gt;Node33 -->
<g id="edge28" class="edge">
<title>Node31&#45;&gt;Node33</title>
<path fill="none" stroke="#191970" d="M571.6073,-408.8402C555.2685,-379.5732 506.1082,-291.5142 484.4451,-252.7099"/>
<polygon fill="#191970" stroke="#191970" points="487.2699,-250.5896 479.3393,-243.5641 481.1578,-254.0017 487.2699,-250.5896"/>
</g>
<!-- Node32&#45;&gt;Node4 -->
<g id="edge26" class="edge">
<title>Node32&#45;&gt;Node4</title>
<path fill="none" stroke="#191970" d="M615.1354,-224.2455C617.51,-216.8579 620.8493,-206.4689 623.7615,-197.4087"/>
<polygon fill="#191970" stroke="#191970" points="627.1725,-198.234 626.9006,-187.6427 620.5083,-196.0919 627.1725,-198.234"/>
</g>
<!-- Node32&#45;&gt;Node21 -->
<g id="edge27" class="edge">
<title>Node32&#45;&gt;Node21</title>
<path fill="none" stroke="#191970" d="M639.6769,-224.3733C666.3328,-215.1016 706.8238,-201.0178 736.1884,-190.804"/>
<polygon fill="#191970" stroke="#191970" points="737.3891,-194.0921 745.6843,-187.5011 735.0895,-187.4807 737.3891,-194.0921"/>
</g>
<!-- Node33&#45;&gt;Node4 -->
<g id="edge33" class="edge">
<title>Node33&#45;&gt;Node4</title>
<path fill="none" stroke="#191970" d="M500.8174,-224.3733C526.5332,-215.1419 565.538,-201.1402 593.9599,-190.9375"/>
<polygon fill="#191970" stroke="#191970" points="595.3032,-194.174 603.5326,-187.5011 592.9381,-187.5857 595.3032,-194.174"/>
</g>
<!-- Node33&#45;&gt;Node10 -->
<g id="edge29" class="edge">
<title>Node33&#45;&gt;Node10</title>
<path fill="none" stroke="#191970" d="M411.6373,-224.4676C370.7231,-216.7934 322.5499,-204.5543 310,-188 304.63,-180.9165 305.2132,-175.4899 310,-168 385.1316,-50.4405 568.8847,-20.0533 643.6055,-12.4467"/>
<polygon fill="#191970" stroke="#191970" points="644.1866,-15.9074 653.8129,-11.482 643.5279,-8.9385 644.1866,-15.9074"/>
</g>
<!-- Node33&#45;&gt;Node21 -->
<g id="edge34" class="edge">
<title>Node33&#45;&gt;Node21</title>
<path fill="none" stroke="#191970" d="M525.0602,-224.4369C576.8768,-214.7321 657.095,-199.708 712.1715,-189.3926"/>
<polygon fill="#191970" stroke="#191970" points="712.9656,-192.8048 722.1504,-187.5237 711.677,-185.9245 712.9656,-192.8048"/>
</g>
<!-- Node34 -->
<g id="node19" class="node">
<title>Node34</title>
<polygon fill="#ffffff" stroke="#bfbfbf" points="319,-168.5 319,-187.5 363,-187.5 363,-168.5 319,-168.5"/>
<text text-anchor="middle" x="341" y="-175.5" font-family="Helvetica,sans-Serif" font-size="10.00" fill="#000000">mutex</text>
</g>
<!-- Node33&#45;&gt;Node34 -->
<g id="edge30" class="edge">
<title>Node33&#45;&gt;Node34</title>
<path fill="none" stroke="#191970" d="M451.1365,-224.3733C429.4645,-215.2482 396.7221,-201.462 372.5669,-191.2913"/>
<polygon fill="#191970" stroke="#191970" points="373.6978,-187.9699 363.1232,-187.315 370.9814,-194.4214 373.6978,-187.9699"/>
</g>
<!-- Node22 -->
<g id="node20" class="node">
<title>Node22</title>
<polygon fill="#ffffff" stroke="#bfbfbf" points="381.5,-168.5 381.5,-187.5 464.5,-187.5 464.5,-168.5 381.5,-168.5"/>
<text text-anchor="middle" x="423" y="-175.5" font-family="Helvetica,sans-Serif" font-size="10.00" fill="#000000">unordered_map</text>
</g>
<!-- Node33&#45;&gt;Node22 -->
<g id="edge31" class="edge">
<title>Node33&#45;&gt;Node22</title>
<path fill="none" stroke="#191970" d="M465.1165,-224.2455C457.8034,-216.2155 447.2609,-204.6394 438.5533,-195.0781"/>
<polygon fill="#191970" stroke="#191970" points="441.1028,-192.6795 431.7817,-187.6427 435.9273,-197.3928 441.1028,-192.6795"/>
</g>
<!-- Node35 -->
<g id="node21" class="node">
<title>Node35</title>
<polygon fill="#ffffff" stroke="#bfbfbf" points="482.5,-168.5 482.5,-187.5 541.5,-187.5 541.5,-168.5 482.5,-168.5"/>
<text text-anchor="middle" x="512" y="-175.5" font-family="Helvetica,sans-Serif" font-size="10.00" fill="#000000">functional</text>
</g>
<!-- Node33&#45;&gt;Node35 -->
<g id="edge32" class="edge">
<title>Node33&#45;&gt;Node35</title>
<path fill="none" stroke="#191970" d="M480.6191,-224.2455C485.9046,-216.4564 493.4541,-205.3308 499.8238,-195.9439"/>
<polygon fill="#191970" stroke="#191970" points="502.7379,-197.8827 505.4568,-187.6427 496.9455,-193.9522 502.7379,-197.8827"/>
</g>
<!-- Node36&#45;&gt;Node29 -->
<g id="edge36" class="edge">
<title>Node36&#45;&gt;Node29</title>
<path fill="none" stroke="#191970" d="M982.1926,-336.4922C981.561,-320.3419 978.0056,-294.9653 963,-280 948.1737,-265.2135 901.3321,-253.3528 859.8399,-245.3805"/>
<polygon fill="#191970" stroke="#191970" points="860.4559,-241.9351 849.9831,-243.5386 859.17,-248.816 860.4559,-241.9351"/>
</g>
<!-- Node37&#45;&gt;Node6 -->
<g id="edge39" class="edge">
<title>Node37&#45;&gt;Node6</title>
<path fill="none" stroke="#191970" d="M900.656,-280.2749C896.569,-252.6864 882.7112,-172.0401 853,-112 847.979,-101.8537 840.5865,-91.7169 833.8876,-83.5516"/>
<polygon fill="#191970" stroke="#191970" points="836.4477,-81.16 827.2863,-75.8384 831.1295,-85.7116 836.4477,-81.16"/>
</g>
<!-- Node37&#45;&gt;Node32 -->
<g id="edge40" class="edge">
<title>Node37&#45;&gt;Node32</title>
<path fill="none" stroke="#191970" d="M852.4767,-280.4369C802.3241,-270.7522 724.739,-255.7703 671.3303,-245.4569"/>
<polygon fill="#191970" stroke="#191970" points="671.8013,-241.9832 661.319,-243.5237 670.474,-248.8563 671.8013,-241.9832"/>
</g>
<!-- Node38&#45;&gt;Node5 -->
<g id="edge43" class="edge">
<title>Node38&#45;&gt;Node5</title>
<path fill="none" stroke="#191970" d="M1106.9098,-169.191C1103.8982,-168.7864 1100.9165,-168.3877 1098,-168 993.1987,-154.0701 871.0011,-138.4619 800.1705,-129.4772"/>
<polygon fill="#191970" stroke="#191970" points="800.4617,-125.9862 790.1009,-128.2006 799.5813,-132.9306 800.4617,-125.9862"/>
</g>
<!-- Node38&#45;&gt;Node6 -->
<g id="edge42" class="edge">
<title>Node38&#45;&gt;Node6</title>
<path fill="none" stroke="#191970" d="M1140.9034,-168.4509C1076.8612,-148.1316 927.173,-100.6385 856.3887,-78.18"/>
<polygon fill="#191970" stroke="#191970" points="857.1274,-74.7425 846.5372,-75.0543 855.0104,-81.4147 857.1274,-74.7425"/>
</g>
<!-- Node38&#45;&gt;Node12 -->
<g id="edge44" class="edge">
<title>Node38&#45;&gt;Node12</title>
<path fill="none" stroke="#191970" d="M1158.9945,-168.4862C1124.0945,-140.8296 1022.3976,-60.2396 979.0014,-25.8502"/>
<polygon fill="#191970" stroke="#191970" points="981.1478,-23.0854 971.1366,-19.6177 976.8002,-28.5716 981.1478,-23.0854"/>
</g>
<!-- Node39&#45;&gt;Node6 -->
<g id="edge46" class="edge">
<title>Node39&#45;&gt;Node6</title>
<path fill="none" stroke="#191970" d="M978.3794,-224.3559C971.2649,-215.2011 960.4985,-200.953 952,-188 930.5892,-155.3666 936.3107,-138.8675 908,-112 893.0722,-97.8332 872.9327,-86.9922 855.4898,-79.4032"/>
<polygon fill="#191970" stroke="#191970" points="856.705,-76.1181 846.127,-75.5211 854.0239,-82.5843 856.705,-76.1181"/>
</g>
<!-- Node39&#45;&gt;Node21 -->
<g id="edge47" class="edge">
<title>Node39&#45;&gt;Node21</title>
<path fill="none" stroke="#191970" d="M949.384,-224.3733C913.352,-214.9001 858.2122,-200.4032 819.1886,-190.1435"/>
<polygon fill="#191970" stroke="#191970" points="819.6995,-186.6589 809.1382,-187.5011 817.9196,-193.4289 819.6995,-186.6589"/>
</g>
<!-- Node40 -->
<g id="node26" class="node">
<title>Node40</title>
<polygon fill="#ffffff" stroke="#bfbfbf" points="1029.5,-168.5 1029.5,-187.5 1088.5,-187.5 1088.5,-168.5 1029.5,-168.5"/>
<text text-anchor="middle" x="1059" y="-175.5" font-family="Helvetica,sans-Serif" font-size="10.00" fill="#000000">stdexcept</text>
</g>
<!-- Node39&#45;&gt;Node40 -->
<g id="edge48" class="edge">
<title>Node39&#45;&gt;Node40</title>
<path fill="none" stroke="#191970" d="M998.7156,-224.2455C1009.602,-215.8943 1025.4883,-203.7076 1038.22,-193.9408"/>
<polygon fill="#191970" stroke="#191970" points="1040.6261,-196.5063 1046.4301,-187.6427 1036.3654,-190.9523 1040.6261,-196.5063"/>
</g>
<!-- Node41 -->
<g id="node27" class="node">
<title>Node41</title>
<polygon fill="#ffffff" stroke="#bfbfbf" points="960.5,-168.5 960.5,-187.5 1011.5,-187.5 1011.5,-168.5 960.5,-168.5"/>
<text text-anchor="middle" x="986" y="-175.5" font-family="Helvetica,sans-Serif" font-size="10.00" fill="#000000">numeric</text>
</g>
<!-- Node39&#45;&gt;Node41 -->
<g id="edge49" class="edge">
<title>Node39&#45;&gt;Node41</title>
<path fill="none" stroke="#191970" d="M986,-224.2455C986,-216.9382 986,-206.6944 986,-197.7046"/>
<polygon fill="#191970" stroke="#191970" points="989.5001,-197.6426 986,-187.6427 982.5001,-197.6427 989.5001,-197.6426"/>
</g>
</g>
</svg>
