<?xml version="1.0" encoding="UTF-8" standalone="no"?>
<!DOCTYPE svg PUBLIC "-//W3C//DTD SVG 1.1//EN"
 "http://www.w3.org/Graphics/SVG/1.1/DTD/svg11.dtd">
<!-- Generated by graphviz version 2.40.1 (20161225.0304)
 -->
<!-- Title: MetalSHEelectrons.cpp Pages: 1 -->
<svg width="584pt" height="476pt"
 viewBox="0.00 0.00 584.00 476.00" xmlns="http://www.w3.org/2000/svg" xmlns:xlink="http://www.w3.org/1999/xlink">
<g id="graph0" class="graph" transform="scale(1 1) rotate(0) translate(4 472)">
<title>MetalSHEelectrons.cpp</title>
<polygon fill="#ffffff" stroke="transparent" points="-4,4 -4,-472 580,-472 580,4 -4,4"/>
<!-- Node0 -->
<g id="node1" class="node">
<title>Node0</title>
<polygon fill="#bfbfbf" stroke="#000000" points="164,-448.5 164,-467.5 284,-467.5 284,-448.5 164,-448.5"/>
<text text-anchor="middle" x="224" y="-455.5" font-family="Helvetica,sans-Serif" font-size="10.00" fill="#000000">MetalSHEelectrons.cpp</text>
</g>
<!-- Node1 -->
<g id="node2" class="node">
<title>Node1</title>
<g id="a_node2"><a xlink:href="ctml_8h.html" target="_top" xlink:title="CTML (&quot;Cantera Markup Language&quot;) is the variant of XML that Cantera uses to store data...">
<polygon fill="#ffffff" stroke="#000000" points="55.5,-280.5 55.5,-299.5 158.5,-299.5 158.5,-280.5 55.5,-280.5"/>
<text text-anchor="middle" x="107" y="-287.5" font-family="Helvetica,sans-Serif" font-size="10.00" fill="#000000">cantera/base/ctml.h</text>
</a>
</g>
</g>
<!-- Node0&#45;&gt;Node1 -->
<g id="edge1" class="edge">
<title>Node0&#45;&gt;Node1</title>
<path fill="none" stroke="#191970" d="M182.8614,-448.4652C162.6543,-441.655 139.7527,-430.3478 126,-412 103.4893,-381.968 102.8829,-335.9472 104.7482,-309.857"/>
<polygon fill="#191970" stroke="#191970" points="108.2518,-309.9769 105.6757,-299.7 101.2808,-309.3403 108.2518,-309.9769"/>
</g>
<!-- Node18 -->
<g id="node17" class="node">
<title>Node18</title>
<g id="a_node17"><a xlink:href="MetalSHEelectrons_8h.html" target="_top" xlink:title="Header file for the MetalSHEElectrons class, which represents the electrons in a metal that are consi...">
<polygon fill="#ffffff" stroke="#000000" points="135,-392.5 135,-411.5 313,-411.5 313,-392.5 135,-392.5"/>
<text text-anchor="middle" x="224" y="-399.5" font-family="Helvetica,sans-Serif" font-size="10.00" fill="#000000">cantera/thermo/MetalSHEelectrons.h</text>
</a>
</g>
</g>
<!-- Node0&#45;&gt;Node18 -->
<g id="edge19" class="edge">
<title>Node0&#45;&gt;Node18</title>
<path fill="none" stroke="#191970" d="M224,-448.2455C224,-440.9382 224,-430.6944 224,-421.7046"/>
<polygon fill="#191970" stroke="#191970" points="227.5001,-421.6426 224,-411.6427 220.5001,-421.6427 227.5001,-421.6426"/>
</g>
<!-- Node34 -->
<g id="node22" class="node">
<title>Node34</title>
<g id="a_node22"><a xlink:href="ThermoFactory_8h.html" target="_top" xlink:title="Headers for the factory class that can create known ThermoPhase objects (see Thermodynamic Properties...">
<polygon fill="#ffffff" stroke="#000000" points="284.5,-336.5 284.5,-355.5 443.5,-355.5 443.5,-336.5 284.5,-336.5"/>
<text text-anchor="middle" x="364" y="-343.5" font-family="Helvetica,sans-Serif" font-size="10.00" fill="#000000">cantera/thermo/ThermoFactory.h</text>
</a>
</g>
</g>
<!-- Node0&#45;&gt;Node34 -->
<g id="edge26" class="edge">
<title>Node0&#45;&gt;Node34</title>
<path fill="none" stroke="#191970" d="M255.3078,-448.4463C275.9595,-440.9851 302.6666,-429.0069 322,-412 336.7707,-399.0068 348.2722,-379.5884 355.4755,-365.1749"/>
<polygon fill="#191970" stroke="#191970" points="358.8323,-366.2637 359.9462,-355.7276 352.505,-363.2694 358.8323,-366.2637"/>
</g>
<!-- Node2 -->
<g id="node3" class="node">
<title>Node2</title>
<g id="a_node3"><a xlink:href="ct__defs_8h.html" target="_top" xlink:title="This file contains definitions of terms that are used in internal routines and are unlikely to need m...">
<polygon fill="#ffffff" stroke="#000000" points="170.5,-56.5 170.5,-75.5 227.5,-75.5 227.5,-56.5 170.5,-56.5"/>
<text text-anchor="middle" x="199" y="-63.5" font-family="Helvetica,sans-Serif" font-size="10.00" fill="#000000">ct_defs.h</text>
</a>
</g>
</g>
<!-- Node1&#45;&gt;Node2 -->
<g id="edge2" class="edge">
<title>Node1&#45;&gt;Node2</title>
<path fill="none" stroke="#191970" d="M109.5964,-280.1356C113.0195,-267.2119 119.2792,-243.8581 125,-224 132.2004,-199.0061 132.0325,-192.0248 142,-168 152.8201,-141.9201 158.1843,-136.6244 172,-112 177.1356,-102.8465 183.0164,-92.7811 187.9758,-84.4057"/>
<polygon fill="#191970" stroke="#191970" points="190.9871,-86.1895 193.0947,-75.8064 184.9721,-82.6089 190.9871,-86.1895"/>
</g>
<!-- Node11 -->
<g id="node12" class="node">
<title>Node11</title>
<g id="a_node12"><a xlink:href="xml_8h.html" target="_top" xlink:title="Classes providing support for XML data files. ">
<polygon fill="#ffffff" stroke="#000000" points="134.5,-224.5 134.5,-243.5 175.5,-243.5 175.5,-224.5 134.5,-224.5"/>
<text text-anchor="middle" x="155" y="-231.5" font-family="Helvetica,sans-Serif" font-size="10.00" fill="#000000">xml.h</text>
</a>
</g>
</g>
<!-- Node1&#45;&gt;Node11 -->
<g id="edge11" class="edge">
<title>Node1&#45;&gt;Node11</title>
<path fill="none" stroke="#191970" d="M115.361,-280.2455C122.175,-272.2958 131.9681,-260.8706 140.1152,-251.3656"/>
<polygon fill="#191970" stroke="#191970" points="142.8843,-253.513 146.7349,-243.6427 137.5695,-248.9575 142.8843,-253.513"/>
</g>
<!-- Node3 -->
<g id="node4" class="node">
<title>Node3</title>
<g id="a_node4"><a xlink:href="config_8h_source.html" target="_top" xlink:title="config.h">
<polygon fill="#ffffff" stroke="#000000" points="382.5,-.5 382.5,-19.5 433.5,-19.5 433.5,-.5 382.5,-.5"/>
<text text-anchor="middle" x="408" y="-7.5" font-family="Helvetica,sans-Serif" font-size="10.00" fill="#000000">config.h</text>
</a>
</g>
</g>
<!-- Node2&#45;&gt;Node3 -->
<g id="edge3" class="edge">
<title>Node2&#45;&gt;Node3</title>
<path fill="none" stroke="#191970" d="M227.6813,-58.6038C260.3224,-50.1458 315.4769,-35.7315 372.4923,-20.101"/>
<polygon fill="#191970" stroke="#191970" points="373.6876,-23.4024 382.4022,-17.377 371.8322,-16.6527 373.6876,-23.4024"/>
</g>
<!-- Node4 -->
<g id="node5" class="node">
<title>Node4</title>
<polygon fill="#ffffff" stroke="#bfbfbf" points="0,-.5 0,-19.5 44,-19.5 44,-.5 0,-.5"/>
<text text-anchor="middle" x="22" y="-7.5" font-family="Helvetica,sans-Serif" font-size="10.00" fill="#000000">cmath</text>
</g>
<!-- Node2&#45;&gt;Node4 -->
<g id="edge4" class="edge">
<title>Node2&#45;&gt;Node4</title>
<path fill="none" stroke="#191970" d="M170.4463,-57.0668C142.8994,-48.4347 99.7801,-34.8868 53.5947,-20.176"/>
<polygon fill="#191970" stroke="#191970" points="54.6002,-16.8231 44.0095,-17.1203 52.474,-23.4924 54.6002,-16.8231"/>
</g>
<!-- Node5 -->
<g id="node6" class="node">
<title>Node5</title>
<polygon fill="#ffffff" stroke="#bfbfbf" points="62.5,-.5 62.5,-19.5 107.5,-19.5 107.5,-.5 62.5,-.5"/>
<text text-anchor="middle" x="85" y="-7.5" font-family="Helvetica,sans-Serif" font-size="10.00" fill="#000000">cstdlib</text>
</g>
<!-- Node2&#45;&gt;Node5 -->
<g id="edge5" class="edge">
<title>Node2&#45;&gt;Node5</title>
<path fill="none" stroke="#191970" d="M179.4027,-56.3733C161.2669,-47.4644 134.0865,-34.1127 113.5413,-24.0203"/>
<polygon fill="#191970" stroke="#191970" points="114.8603,-20.7688 104.3416,-19.5011 111.7739,-27.0517 114.8603,-20.7688"/>
</g>
<!-- Node6 -->
<g id="node7" class="node">
<title>Node6</title>
<polygon fill="#ffffff" stroke="#bfbfbf" points="499,-.5 499,-19.5 543,-19.5 543,-.5 499,-.5"/>
<text text-anchor="middle" x="521" y="-7.5" font-family="Helvetica,sans-Serif" font-size="10.00" fill="#000000">vector</text>
</g>
<!-- Node2&#45;&gt;Node6 -->
<g id="edge6" class="edge">
<title>Node2&#45;&gt;Node6</title>
<path fill="none" stroke="#191970" d="M227.5754,-61.0304C287.3757,-50.6303 425.3817,-26.6293 488.4681,-15.6577"/>
<polygon fill="#191970" stroke="#191970" points="489.3827,-19.0513 498.6351,-13.8895 488.1833,-12.1548 489.3827,-19.0513"/>
</g>
<!-- Node7 -->
<g id="node8" class="node">
<title>Node7</title>
<polygon fill="#ffffff" stroke="#bfbfbf" points="125.5,-.5 125.5,-19.5 160.5,-19.5 160.5,-.5 125.5,-.5"/>
<text text-anchor="middle" x="143" y="-7.5" font-family="Helvetica,sans-Serif" font-size="10.00" fill="#000000">map</text>
</g>
<!-- Node2&#45;&gt;Node7 -->
<g id="edge7" class="edge">
<title>Node2&#45;&gt;Node7</title>
<path fill="none" stroke="#191970" d="M189.2455,-56.2455C181.1352,-48.1352 169.4075,-36.4075 159.7919,-26.7919"/>
<polygon fill="#191970" stroke="#191970" points="162.1887,-24.2389 152.6427,-19.6427 157.2389,-29.1887 162.1887,-24.2389"/>
</g>
<!-- Node8 -->
<g id="node9" class="node">
<title>Node8</title>
<polygon fill="#ffffff" stroke="#bfbfbf" points="178.5,-.5 178.5,-19.5 219.5,-19.5 219.5,-.5 178.5,-.5"/>
<text text-anchor="middle" x="199" y="-7.5" font-family="Helvetica,sans-Serif" font-size="10.00" fill="#000000">string</text>
</g>
<!-- Node2&#45;&gt;Node8 -->
<g id="edge8" class="edge">
<title>Node2&#45;&gt;Node8</title>
<path fill="none" stroke="#191970" d="M199,-56.2455C199,-48.9382 199,-38.6944 199,-29.7046"/>
<polygon fill="#191970" stroke="#191970" points="202.5001,-29.6426 199,-19.6427 195.5001,-29.6427 202.5001,-29.6426"/>
</g>
<!-- Node9 -->
<g id="node10" class="node">
<title>Node9</title>
<polygon fill="#ffffff" stroke="#bfbfbf" points="238,-.5 238,-19.5 294,-19.5 294,-.5 238,-.5"/>
<text text-anchor="middle" x="266" y="-7.5" font-family="Helvetica,sans-Serif" font-size="10.00" fill="#000000">algorithm</text>
</g>
<!-- Node2&#45;&gt;Node9 -->
<g id="edge9" class="edge">
<title>Node2&#45;&gt;Node9</title>
<path fill="none" stroke="#191970" d="M210.6705,-56.2455C220.5661,-47.9746 234.9627,-35.9416 246.5901,-26.2232"/>
<polygon fill="#191970" stroke="#191970" points="249.035,-28.7413 254.4632,-19.6427 244.5458,-23.3703 249.035,-28.7413"/>
</g>
<!-- Node10 -->
<g id="node11" class="node">
<title>Node10</title>
<polygon fill="#ffffff" stroke="#bfbfbf" points="312,-.5 312,-19.5 364,-19.5 364,-.5 312,-.5"/>
<text text-anchor="middle" x="338" y="-7.5" font-family="Helvetica,sans-Serif" font-size="10.00" fill="#000000">memory</text>
</g>
<!-- Node2&#45;&gt;Node10 -->
<g id="edge10" class="edge">
<title>Node2&#45;&gt;Node10</title>
<path fill="none" stroke="#191970" d="M222.895,-56.3733C245.5082,-47.2629 279.6542,-33.5062 304.8873,-23.3404"/>
<polygon fill="#191970" stroke="#191970" points="306.4493,-26.4845 314.4169,-19.5011 303.8334,-19.9917 306.4493,-26.4845"/>
</g>
<!-- Node12 -->
<g id="node13" class="node">
<title>Node12</title>
<g id="a_node13"><a xlink:href="ctexceptions_8h.html" target="_top" xlink:title="Definitions for the classes that are thrown when Cantera experiences an error condition (also contain...">
<polygon fill="#ffffff" stroke="#000000" points="219,-168.5 219,-187.5 299,-187.5 299,-168.5 219,-168.5"/>
<text text-anchor="middle" x="259" y="-175.5" font-family="Helvetica,sans-Serif" font-size="10.00" fill="#000000">ctexceptions.h</text>
</a>
</g>
</g>
<!-- Node11&#45;&gt;Node12 -->
<g id="edge12" class="edge">
<title>Node11&#45;&gt;Node12</title>
<path fill="none" stroke="#191970" d="M173.1154,-224.2455C189.445,-215.4527 213.671,-202.4079 232.2339,-192.4125"/>
<polygon fill="#191970" stroke="#191970" points="233.9468,-195.4654 241.0922,-187.6427 230.6281,-189.3021 233.9468,-195.4654"/>
</g>
<!-- Node17 -->
<g id="node16" class="node">
<title>Node17</title>
<g id="a_node16"><a xlink:href="global_8h.html" target="_top" xlink:title="This file contains definitions for utility functions and text for modules, inputfiles, logs, textlogs, (see Input File Handling, Diagnostic Output, and Writing messages to the screen). ">
<polygon fill="#ffffff" stroke="#000000" points="151,-168.5 151,-187.5 201,-187.5 201,-168.5 151,-168.5"/>
<text text-anchor="middle" x="176" y="-175.5" font-family="Helvetica,sans-Serif" font-size="10.00" fill="#000000">global.h</text>
</a>
</g>
</g>
<!-- Node11&#45;&gt;Node17 -->
<g id="edge16" class="edge">
<title>Node11&#45;&gt;Node17</title>
<path fill="none" stroke="#191970" d="M158.6579,-224.2455C161.4584,-216.7776 165.409,-206.2427 168.8324,-197.1137"/>
<polygon fill="#191970" stroke="#191970" points="172.1499,-198.2349 172.384,-187.6427 165.5955,-195.777 172.1499,-198.2349"/>
</g>
<!-- Node13 -->
<g id="node14" class="node">
<title>Node13</title>
<g id="a_node14"><a xlink:href="fmt_8h.html" target="_top" xlink:title="Wrapper for either system&#45;installed or local headers for fmt. ">
<polygon fill="#ffffff" stroke="#ff0000" points="188,-112.5 188,-131.5 286,-131.5 286,-112.5 188,-112.5"/>
<text text-anchor="middle" x="237" y="-119.5" font-family="Helvetica,sans-Serif" font-size="10.00" fill="#000000">cantera/base/fmt.h</text>
</a>
</g>
</g>
<!-- Node12&#45;&gt;Node13 -->
<g id="edge13" class="edge">
<title>Node12&#45;&gt;Node13</title>
<path fill="none" stroke="#191970" d="M255.1679,-168.2455C252.2341,-160.7776 248.0953,-150.2427 244.509,-141.1137"/>
<polygon fill="#191970" stroke="#191970" points="247.7024,-139.6704 240.7882,-131.6427 241.1871,-142.23 247.7024,-139.6704"/>
</g>
<!-- Node16 -->
<g id="node15" class="node">
<title>Node16</title>
<polygon fill="#ffffff" stroke="#bfbfbf" points="304.5,-112.5 304.5,-131.5 363.5,-131.5 363.5,-112.5 304.5,-112.5"/>
<text text-anchor="middle" x="334" y="-119.5" font-family="Helvetica,sans-Serif" font-size="10.00" fill="#000000">exception</text>
</g>
<!-- Node12&#45;&gt;Node16 -->
<g id="edge15" class="edge">
<title>Node12&#45;&gt;Node16</title>
<path fill="none" stroke="#191970" d="M272.064,-168.2455C283.3562,-159.814 299.8845,-147.4729 313.0271,-137.6598"/>
<polygon fill="#191970" stroke="#191970" points="315.1669,-140.4301 321.0857,-131.6427 310.9789,-134.8211 315.1669,-140.4301"/>
</g>
<!-- Node13&#45;&gt;Node2 -->
<g id="edge14" class="edge">
<title>Node13&#45;&gt;Node2</title>
<path fill="none" stroke="#191970" d="M230.3809,-112.2455C225.0954,-104.4564 217.5459,-93.3308 211.1762,-83.9439"/>
<polygon fill="#191970" stroke="#191970" points="214.0545,-81.9522 205.5432,-75.6427 208.2621,-85.8827 214.0545,-81.9522"/>
</g>
<!-- Node17&#45;&gt;Node2 -->
<g id="edge17" class="edge">
<title>Node17&#45;&gt;Node2</title>
<path fill="none" stroke="#191970" d="M175.3603,-168.4539C174.7329,-155.4866 174.4414,-131.6661 179,-112 181.1809,-102.5914 185.2259,-92.7014 189.1104,-84.5129"/>
<polygon fill="#191970" stroke="#191970" points="192.2691,-86.0221 193.6332,-75.5154 186.0148,-82.8782 192.2691,-86.0221"/>
</g>
<!-- Node17&#45;&gt;Node13 -->
<g id="edge18" class="edge">
<title>Node17&#45;&gt;Node13</title>
<path fill="none" stroke="#191970" d="M186.6254,-168.2455C195.5473,-160.0549 208.488,-148.1749 219.0192,-138.5069"/>
<polygon fill="#191970" stroke="#191970" points="221.4968,-140.9837 226.4964,-131.6427 216.7629,-135.8271 221.4968,-140.9837"/>
</g>
<!-- Node19 -->
<g id="node18" class="node">
<title>Node19</title>
<g id="a_node18"><a xlink:href="SingleSpeciesTP_8h.html" target="_top" xlink:title="Header for the SingleSpeciesTP class, which is a filter class for ThermoPhase, that eases the constru...">
<polygon fill="#ffffff" stroke="#000000" points="166,-336.5 166,-355.5 266,-355.5 266,-336.5 166,-336.5"/>
<text text-anchor="middle" x="216" y="-343.5" font-family="Helvetica,sans-Serif" font-size="10.00" fill="#000000">SingleSpeciesTP.h</text>
</a>
</g>
</g>
<!-- Node18&#45;&gt;Node19 -->
<g id="edge20" class="edge">
<title>Node18&#45;&gt;Node19</title>
<path fill="none" stroke="#191970" d="M222.6065,-392.2455C221.5626,-384.9382 220.0992,-374.6944 218.8149,-365.7046"/>
<polygon fill="#191970" stroke="#191970" points="222.2566,-365.0472 217.3775,-355.6427 215.327,-366.0372 222.2566,-365.0472"/>
</g>
<!-- Node20 -->
<g id="node19" class="node">
<title>Node20</title>
<g id="a_node19"><a xlink:href="ThermoPhase_8h.html" target="_top" xlink:title="Header file for class ThermoPhase, the base class for phases with thermodynamic properties, and the text for the Module thermoprops (see Thermodynamic Properties and class ThermoPhase). ">
<polygon fill="#ffffff" stroke="#000000" points="216,-280.5 216,-299.5 302,-299.5 302,-280.5 216,-280.5"/>
<text text-anchor="middle" x="259" y="-287.5" font-family="Helvetica,sans-Serif" font-size="10.00" fill="#000000">ThermoPhase.h</text>
</a>
</g>
</g>
<!-- Node19&#45;&gt;Node20 -->
<g id="edge21" class="edge">
<title>Node19&#45;&gt;Node20</title>
<path fill="none" stroke="#191970" d="M223.49,-336.2455C229.5326,-328.3761 238.1903,-317.101 245.4441,-307.6542"/>
<polygon fill="#191970" stroke="#191970" points="248.2815,-309.7058 251.5958,-299.6427 242.7295,-305.4426 248.2815,-309.7058"/>
</g>
<!-- Node20&#45;&gt;Node17 -->
<g id="edge25" class="edge">
<title>Node20&#45;&gt;Node17</title>
<path fill="none" stroke="#191970" d="M251.1451,-280.2289C243.7633,-270.9844 232.4658,-256.6756 223,-244 211.1008,-228.0658 198.0103,-209.6024 188.6733,-196.2628"/>
<polygon fill="#191970" stroke="#191970" points="191.4606,-194.1409 182.8696,-187.9404 185.7188,-198.1449 191.4606,-194.1409"/>
</g>
<!-- Node21 -->
<g id="node20" class="node">
<title>Node21</title>
<g id="a_node20"><a xlink:href="Phase_8h.html" target="_top" xlink:title="Header file for class Phase. ">
<polygon fill="#ffffff" stroke="#ff0000" points="232.5,-224.5 232.5,-243.5 285.5,-243.5 285.5,-224.5 232.5,-224.5"/>
<text text-anchor="middle" x="259" y="-231.5" font-family="Helvetica,sans-Serif" font-size="10.00" fill="#000000">Phase.h</text>
</a>
</g>
</g>
<!-- Node20&#45;&gt;Node21 -->
<g id="edge22" class="edge">
<title>Node20&#45;&gt;Node21</title>
<path fill="none" stroke="#191970" d="M259,-280.2455C259,-272.9382 259,-262.6944 259,-253.7046"/>
<polygon fill="#191970" stroke="#191970" points="262.5001,-253.6426 259,-243.6427 255.5001,-253.6427 262.5001,-253.6426"/>
</g>
<!-- Node31 -->
<g id="node21" class="node">
<title>Node31</title>
<g id="a_node21"><a xlink:href="MultiSpeciesThermo_8h.html" target="_top" xlink:title="Header for a general species thermodynamic property manager for a phase (see MultiSpeciesThermo). ">
<polygon fill="#ffffff" stroke="#ff0000" points="304,-224.5 304,-243.5 418,-243.5 418,-224.5 304,-224.5"/>
<text text-anchor="middle" x="361" y="-231.5" font-family="Helvetica,sans-Serif" font-size="10.00" fill="#000000">MultiSpeciesThermo.h</text>
</a>
</g>
</g>
<!-- Node20&#45;&gt;Node31 -->
<g id="edge24" class="edge">
<title>Node20&#45;&gt;Node31</title>
<path fill="none" stroke="#191970" d="M276.767,-280.2455C292.7095,-271.4928 316.3259,-258.527 334.4989,-248.5496"/>
<polygon fill="#191970" stroke="#191970" points="336.3552,-251.5233 343.4366,-243.6427 332.9863,-245.3873 336.3552,-251.5233"/>
</g>
<!-- Node21&#45;&gt;Node12 -->
<g id="edge23" class="edge">
<title>Node21&#45;&gt;Node12</title>
<path fill="none" stroke="#191970" d="M259,-224.2455C259,-216.9382 259,-206.6944 259,-197.7046"/>
<polygon fill="#191970" stroke="#191970" points="262.5001,-197.6426 259,-187.6427 255.5001,-197.6427 262.5001,-197.6426"/>
</g>
<!-- Node34&#45;&gt;Node11 -->
<g id="edge28" class="edge">
<title>Node34&#45;&gt;Node11</title>
<path fill="none" stroke="#191970" d="M299.7584,-336.4983C269.6943,-329.8132 234.5343,-318.6059 207,-300 188.955,-287.8064 174.2715,-267.3878 165.1661,-252.4849"/>
<polygon fill="#191970" stroke="#191970" points="168.0661,-250.5097 160.0088,-243.6299 162.0172,-254.0327 168.0661,-250.5097"/>
</g>
<!-- Node34&#45;&gt;Node20 -->
<g id="edge27" class="edge">
<title>Node34&#45;&gt;Node20</title>
<path fill="none" stroke="#191970" d="M345.7104,-336.2455C329.2238,-327.4527 304.7648,-314.4079 286.0235,-304.4125"/>
<polygon fill="#191970" stroke="#191970" points="287.5506,-301.2604 277.08,-299.6427 284.2565,-307.4368 287.5506,-301.2604"/>
</g>
<!-- Node35 -->
<g id="node23" class="node">
<title>Node35</title>
<g id="a_node23"><a xlink:href="FactoryBase_8h.html" target="_top" xlink:title="File contains the FactoryBase class declarations. ">
<polygon fill="#ffffff" stroke="#000000" points="436,-224.5 436,-243.5 576,-243.5 576,-224.5 436,-224.5"/>
<text text-anchor="middle" x="506" y="-231.5" font-family="Helvetica,sans-Serif" font-size="10.00" fill="#000000">cantera/base/FactoryBase.h</text>
</a>
</g>
</g>
<!-- Node34&#45;&gt;Node35 -->
<g id="edge29" class="edge">
<title>Node34&#45;&gt;Node35</title>
<path fill="none" stroke="#191970" d="M376.1068,-336.4509C400.5243,-317.1921 455.892,-273.5218 485.8493,-249.8935"/>
<polygon fill="#191970" stroke="#191970" points="488.2396,-252.4659 493.9238,-243.5249 483.9046,-246.9697 488.2396,-252.4659"/>
</g>
<!-- Node35&#45;&gt;Node6 -->
<g id="edge30" class="edge">
<title>Node35&#45;&gt;Node6</title>
<path fill="none" stroke="#191970" d="M519.331,-224.3825C529.6173,-216.0729 543.0611,-203.0499 549,-188 570.6554,-133.1221 545.2092,-62.4991 530.3066,-29.1112"/>
<polygon fill="#191970" stroke="#191970" points="533.2977,-27.2423 525.9116,-19.6465 526.9488,-30.1904 533.2977,-27.2423"/>
</g>
<!-- Node35&#45;&gt;Node12 -->
<g id="edge34" class="edge">
<title>Node35&#45;&gt;Node12</title>
<path fill="none" stroke="#191970" d="M463.8198,-224.4369C421.0353,-214.7367 354.811,-199.7223 309.3149,-189.4074"/>
<polygon fill="#191970" stroke="#191970" points="309.8934,-185.9498 299.367,-187.152 308.3456,-192.7766 309.8934,-185.9498"/>
</g>
<!-- Node35&#45;&gt;Node17 -->
<g id="edge35" class="edge">
<title>Node35&#45;&gt;Node17</title>
<path fill="none" stroke="#191970" d="M437.9208,-224.4831C368.8654,-214.6518 265.6349,-199.424 211.0748,-187.966"/>
<polygon fill="#191970" stroke="#191970" points="211.6709,-184.5138 201.1544,-185.8001 210.1777,-191.3527 211.6709,-184.5138"/>
</g>
<!-- Node36 -->
<g id="node24" class="node">
<title>Node36</title>
<polygon fill="#ffffff" stroke="#bfbfbf" points="317,-168.5 317,-187.5 361,-187.5 361,-168.5 317,-168.5"/>
<text text-anchor="middle" x="339" y="-175.5" font-family="Helvetica,sans-Serif" font-size="10.00" fill="#000000">mutex</text>
</g>
<!-- Node35&#45;&gt;Node36 -->
<g id="edge31" class="edge">
<title>Node35&#45;&gt;Node36</title>
<path fill="none" stroke="#191970" d="M477.2917,-224.3733C447.7153,-214.4554 401.7182,-199.0313 370.9917,-188.7278"/>
<polygon fill="#191970" stroke="#191970" points="371.7965,-185.3062 361.2026,-185.4452 369.571,-191.943 371.7965,-185.3062"/>
</g>
<!-- Node25 -->
<g id="node25" class="node">
<title>Node25</title>
<polygon fill="#ffffff" stroke="#bfbfbf" points="379.5,-168.5 379.5,-187.5 462.5,-187.5 462.5,-168.5 379.5,-168.5"/>
<text text-anchor="middle" x="421" y="-175.5" font-family="Helvetica,sans-Serif" font-size="10.00" fill="#000000">unordered_map</text>
</g>
<!-- Node35&#45;&gt;Node25 -->
<g id="edge32" class="edge">
<title>Node35&#45;&gt;Node25</title>
<path fill="none" stroke="#191970" d="M491.1941,-224.2455C478.2744,-215.7337 459.3069,-203.2375 444.3448,-193.3801"/>
<polygon fill="#191970" stroke="#191970" points="445.9124,-190.2216 435.6362,-187.6427 442.0613,-196.067 445.9124,-190.2216"/>
</g>
<!-- Node37 -->
<g id="node26" class="node">
<title>Node37</title>
<polygon fill="#ffffff" stroke="#bfbfbf" points="480.5,-168.5 480.5,-187.5 539.5,-187.5 539.5,-168.5 480.5,-168.5"/>
<text text-anchor="middle" x="510" y="-175.5" font-family="Helvetica,sans-Serif" font-size="10.00" fill="#000000">functional</text>
</g>
<!-- Node35&#45;&gt;Node37 -->
<g id="edge33" class="edge">
<title>Node35&#45;&gt;Node37</title>
<path fill="none" stroke="#191970" d="M506.6967,-224.2455C507.2187,-216.9382 507.9504,-206.6944 508.5925,-197.7046"/>
<polygon fill="#191970" stroke="#191970" points="512.0898,-197.8667 509.3112,-187.6427 505.1076,-197.3679 512.0898,-197.8667"/>
</g>
</g>
</svg>
