<?xml version="1.0" encoding="UTF-8" standalone="no"?>
<!DOCTYPE svg PUBLIC "-//W3C//DTD SVG 1.1//EN"
 "http://www.w3.org/Graphics/SVG/1.1/DTD/svg11.dtd">
<!-- Generated by graphviz version 2.40.1 (20161225.0304)
 -->
<!-- Title: MixedSolventElectrolyte.cpp Pages: 1 -->
<svg width="739pt" height="543pt"
 viewBox="0.00 0.00 739.00 543.00" xmlns="http://www.w3.org/2000/svg" xmlns:xlink="http://www.w3.org/1999/xlink">
<g id="graph0" class="graph" transform="scale(1 1) rotate(0) translate(4 539)">
<title>MixedSolventElectrolyte.cpp</title>
<polygon fill="#ffffff" stroke="transparent" points="-4,4 -4,-539 735,-539 735,4 -4,4"/>
<!-- Node0 -->
<g id="node1" class="node">
<title>Node0</title>
<polygon fill="#bfbfbf" stroke="#000000" points="448.5,-515.5 448.5,-534.5 589.5,-534.5 589.5,-515.5 448.5,-515.5"/>
<text text-anchor="middle" x="519" y="-522.5" font-family="Helvetica,sans-Serif" font-size="10.00" fill="#000000">MixedSolventElectrolyte.cpp</text>
</g>
<!-- Node1 -->
<g id="node2" class="node">
<title>Node1</title>
<g id="a_node2"><a xlink:href="MixedSolventElectrolyte_8h.html" target="_top" xlink:title="(see Thermodynamic Properties and class MixedSolventElectrolyte ). ">
<polygon fill="#ffffff" stroke="#000000" points="260,-448.5 260,-478.5 404,-478.5 404,-448.5 260,-448.5"/>
<text text-anchor="start" x="268" y="-466.5" font-family="Helvetica,sans-Serif" font-size="10.00" fill="#000000">cantera/thermo/MixedSolvent</text>
<text text-anchor="middle" x="332" y="-455.5" font-family="Helvetica,sans-Serif" font-size="10.00" fill="#000000">Electrolyte.h</text>
</a>
</g>
</g>
<!-- Node0&#45;&gt;Node1 -->
<g id="edge1" class="edge">
<title>Node0&#45;&gt;Node1</title>
<path fill="none" stroke="#191970" d="M489.7813,-515.3906C462.4812,-506.4123 421.0105,-492.7735 387.436,-481.7316"/>
<polygon fill="#191970" stroke="#191970" points="388.3383,-478.344 377.7453,-478.5446 386.1513,-484.9936 388.3383,-478.344"/>
</g>
<!-- Node41 -->
<g id="node13" class="node">
<title>Node41</title>
<g id="a_node13"><a xlink:href="ThermoFactory_8h.html" target="_top" xlink:title="Headers for the factory class that can create known ThermoPhase objects (see Thermodynamic Properties...">
<polygon fill="#ffffff" stroke="#000000" points="346.5,-280.5 346.5,-299.5 505.5,-299.5 505.5,-280.5 346.5,-280.5"/>
<text text-anchor="middle" x="426" y="-287.5" font-family="Helvetica,sans-Serif" font-size="10.00" fill="#000000">cantera/thermo/ThermoFactory.h</text>
</a>
</g>
</g>
<!-- Node0&#45;&gt;Node41 -->
<g id="edge13" class="edge">
<title>Node0&#45;&gt;Node41</title>
<path fill="none" stroke="#191970" d="M515.2391,-515.4967C501.3067,-480.2912 452.465,-356.874 433.5562,-309.0937"/>
<polygon fill="#191970" stroke="#191970" points="436.742,-307.632 429.8077,-299.6216 430.2331,-310.2079 436.742,-307.632"/>
</g>
<!-- Node46 -->
<g id="node20" class="node">
<title>Node46</title>
<g id="a_node20"><a xlink:href="stringUtils_8h.html" target="_top" xlink:title="Contains declarations for string manipulation functions within Cantera. ">
<polygon fill="#ffffff" stroke="#000000" points="603,-168.5 603,-187.5 731,-187.5 731,-168.5 603,-168.5"/>
<text text-anchor="middle" x="667" y="-175.5" font-family="Helvetica,sans-Serif" font-size="10.00" fill="#000000">cantera/base/stringUtils.h</text>
</a>
</g>
</g>
<!-- Node0&#45;&gt;Node46 -->
<g id="edge26" class="edge">
<title>Node0&#45;&gt;Node46</title>
<path fill="none" stroke="#191970" d="M546.7161,-515.3928C588.0407,-499.096 661,-461.8491 661,-402 661,-402 661,-402 661,-290 661,-257.6653 663.5245,-220.1547 665.2984,-197.7876"/>
<polygon fill="#191970" stroke="#191970" points="668.8065,-197.833 666.1403,-187.5791 661.8302,-197.2576 668.8065,-197.833"/>
</g>
<!-- Node47 -->
<g id="node21" class="node">
<title>Node47</title>
<g id="a_node21"><a xlink:href="ctml_8h.html" target="_top" xlink:title="CTML (&quot;Cantera Markup Language&quot;) is the variant of XML that Cantera uses to store data...">
<polygon fill="#ffffff" stroke="#000000" points="523.5,-280.5 523.5,-299.5 626.5,-299.5 626.5,-280.5 523.5,-280.5"/>
<text text-anchor="middle" x="575" y="-287.5" font-family="Helvetica,sans-Serif" font-size="10.00" fill="#000000">cantera/base/ctml.h</text>
</a>
</g>
</g>
<!-- Node0&#45;&gt;Node47 -->
<g id="edge30" class="edge">
<title>Node0&#45;&gt;Node47</title>
<path fill="none" stroke="#191970" d="M521.2646,-515.4967C529.6364,-480.3651 558.9406,-357.3922 570.378,-309.3958"/>
<polygon fill="#191970" stroke="#191970" points="573.7937,-310.1606 572.7072,-299.6216 566.9844,-308.5379 573.7937,-310.1606"/>
</g>
<!-- Node2 -->
<g id="node3" class="node">
<title>Node2</title>
<g id="a_node3"><a xlink:href="MolarityIonicVPSSTP_8h.html" target="_top" xlink:title="(see Thermodynamic Properties and class MolarityIonicVPSSTP). ">
<polygon fill="#ffffff" stroke="#000000" points="245,-392.5 245,-411.5 365,-411.5 365,-392.5 245,-392.5"/>
<text text-anchor="middle" x="305" y="-399.5" font-family="Helvetica,sans-Serif" font-size="10.00" fill="#000000">MolarityIonicVPSSTP.h</text>
</a>
</g>
</g>
<!-- Node1&#45;&gt;Node2 -->
<g id="edge2" class="edge">
<title>Node1&#45;&gt;Node2</title>
<path fill="none" stroke="#191970" d="M325.3258,-448.2977C321.7341,-440.1166 317.2676,-429.943 313.4371,-421.2179"/>
<polygon fill="#191970" stroke="#191970" points="316.5478,-419.5964 309.323,-411.8469 310.1382,-422.4104 316.5478,-419.5964"/>
</g>
<!-- Node3 -->
<g id="node4" class="node">
<title>Node3</title>
<g id="a_node4"><a xlink:href="GibbsExcessVPSSTP_8h.html" target="_top" xlink:title="Header for intermediate ThermoPhase object for phases which employ Gibbs excess free energy based for...">
<polygon fill="#ffffff" stroke="#000000" points="210.5,-336.5 210.5,-355.5 333.5,-355.5 333.5,-336.5 210.5,-336.5"/>
<text text-anchor="middle" x="272" y="-343.5" font-family="Helvetica,sans-Serif" font-size="10.00" fill="#000000">GibbsExcessVPSSTP.h</text>
</a>
</g>
</g>
<!-- Node2&#45;&gt;Node3 -->
<g id="edge3" class="edge">
<title>Node2&#45;&gt;Node3</title>
<path fill="none" stroke="#191970" d="M299.2518,-392.2455C294.7565,-384.617 288.3752,-373.7881 282.9175,-364.5267"/>
<polygon fill="#191970" stroke="#191970" points="285.7747,-362.4811 277.6823,-355.6427 279.7439,-366.035 285.7747,-362.4811"/>
</g>
<!-- Node4 -->
<g id="node5" class="node">
<title>Node4</title>
<g id="a_node5"><a xlink:href="VPStandardStateTP_8h.html" target="_top" xlink:title="Header file for a derived class of ThermoPhase that handles variable pressure standard state methods ...">
<polygon fill="#ffffff" stroke="#ff0000" points="215.5,-280.5 215.5,-299.5 328.5,-299.5 328.5,-280.5 215.5,-280.5"/>
<text text-anchor="middle" x="272" y="-287.5" font-family="Helvetica,sans-Serif" font-size="10.00" fill="#000000">VPStandardStateTP.h</text>
</a>
</g>
</g>
<!-- Node3&#45;&gt;Node4 -->
<g id="edge4" class="edge">
<title>Node3&#45;&gt;Node4</title>
<path fill="none" stroke="#191970" d="M272,-336.2455C272,-328.9382 272,-318.6944 272,-309.7046"/>
<polygon fill="#191970" stroke="#191970" points="275.5001,-309.6426 272,-299.6427 268.5001,-309.6427 275.5001,-309.6426"/>
</g>
<!-- Node35 -->
<g id="node12" class="node">
<title>Node35</title>
<g id="a_node12"><a xlink:href="Array_8h.html" target="_top" xlink:title="Header file for class Cantera::Array2D. ">
<polygon fill="#ffffff" stroke="#ff0000" points="90.5,-280.5 90.5,-299.5 197.5,-299.5 197.5,-280.5 90.5,-280.5"/>
<text text-anchor="middle" x="144" y="-287.5" font-family="Helvetica,sans-Serif" font-size="10.00" fill="#000000">cantera/base/Array.h</text>
</a>
</g>
</g>
<!-- Node3&#45;&gt;Node35 -->
<g id="edge12" class="edge">
<title>Node3&#45;&gt;Node35</title>
<path fill="none" stroke="#191970" d="M249.996,-336.3733C229.3565,-327.3435 198.2842,-313.7494 175.1111,-303.6111"/>
<polygon fill="#191970" stroke="#191970" points="176.2813,-300.3028 165.7169,-299.5011 173.4755,-306.7159 176.2813,-300.3028"/>
</g>
<!-- Node5 -->
<g id="node6" class="node">
<title>Node5</title>
<g id="a_node6"><a xlink:href="ThermoPhase_8h.html" target="_top" xlink:title="Header file for class ThermoPhase, the base class for phases with thermodynamic properties, and the text for the Module thermoprops (see Thermodynamic Properties and class ThermoPhase). ">
<polygon fill="#ffffff" stroke="#ff0000" points="299,-224.5 299,-243.5 385,-243.5 385,-224.5 299,-224.5"/>
<text text-anchor="middle" x="342" y="-231.5" font-family="Helvetica,sans-Serif" font-size="10.00" fill="#000000">ThermoPhase.h</text>
</a>
</g>
</g>
<!-- Node4&#45;&gt;Node5 -->
<g id="edge5" class="edge">
<title>Node4&#45;&gt;Node5</title>
<path fill="none" stroke="#191970" d="M284.1931,-280.2455C294.6321,-271.8943 309.8655,-259.7076 322.074,-249.9408"/>
<polygon fill="#191970" stroke="#191970" points="324.3244,-252.6227 329.9467,-243.6427 319.9515,-247.1566 324.3244,-252.6227"/>
</g>
<!-- Node24 -->
<g id="node7" class="node">
<title>Node24</title>
<g id="a_node7"><a xlink:href="global_8h.html" target="_top" xlink:title="This file contains definitions for utility functions and text for modules, inputfiles, logs, textlogs, (see Input File Handling, Diagnostic Output, and Writing messages to the screen). ">
<polygon fill="#ffffff" stroke="#000000" points="279,-168.5 279,-187.5 389,-187.5 389,-168.5 279,-168.5"/>
<text text-anchor="middle" x="334" y="-175.5" font-family="Helvetica,sans-Serif" font-size="10.00" fill="#000000">cantera/base/global.h</text>
</a>
</g>
</g>
<!-- Node5&#45;&gt;Node24 -->
<g id="edge6" class="edge">
<title>Node5&#45;&gt;Node24</title>
<path fill="none" stroke="#191970" d="M340.6065,-224.2455C339.5626,-216.9382 338.0992,-206.6944 336.8149,-197.7046"/>
<polygon fill="#191970" stroke="#191970" points="340.2566,-197.0472 335.3775,-187.6427 333.327,-198.0372 340.2566,-197.0472"/>
</g>
<!-- Node9 -->
<g id="node8" class="node">
<title>Node9</title>
<g id="a_node8"><a xlink:href="ct__defs_8h.html" target="_top" xlink:title="This file contains definitions of terms that are used in internal routines and are unlikely to need m...">
<polygon fill="#ffffff" stroke="#ff0000" points="507.5,-56.5 507.5,-75.5 564.5,-75.5 564.5,-56.5 507.5,-56.5"/>
<text text-anchor="middle" x="536" y="-63.5" font-family="Helvetica,sans-Serif" font-size="10.00" fill="#000000">ct_defs.h</text>
</a>
</g>
</g>
<!-- Node24&#45;&gt;Node9 -->
<g id="edge7" class="edge">
<title>Node24&#45;&gt;Node9</title>
<path fill="none" stroke="#191970" d="M346.0824,-168.413C363.645,-154.7605 397.5671,-129.4423 429,-112 451.895,-99.2954 479.0054,-87.6739 500.2087,-79.2903"/>
<polygon fill="#191970" stroke="#191970" points="501.7476,-82.4472 509.798,-75.5593 499.2094,-75.9235 501.7476,-82.4472"/>
</g>
<!-- Node8 -->
<g id="node11" class="node">
<title>Node8</title>
<g id="a_node11"><a xlink:href="fmt_8h.html" target="_top" xlink:title="Wrapper for either system&#45;installed or local headers for fmt. ">
<polygon fill="#ffffff" stroke="#ff0000" points="438,-112.5 438,-131.5 536,-131.5 536,-112.5 438,-112.5"/>
<text text-anchor="middle" x="487" y="-119.5" font-family="Helvetica,sans-Serif" font-size="10.00" fill="#000000">cantera/base/fmt.h</text>
</a>
</g>
</g>
<!-- Node24&#45;&gt;Node8 -->
<g id="edge10" class="edge">
<title>Node24&#45;&gt;Node8</title>
<path fill="none" stroke="#191970" d="M360.3016,-168.3733C385.4128,-159.1822 423.4438,-145.2624 451.2872,-135.0713"/>
<polygon fill="#191970" stroke="#191970" points="452.8538,-138.2251 461.0416,-131.5011 450.4478,-131.6516 452.8538,-138.2251"/>
</g>
<!-- Node13 -->
<g id="node9" class="node">
<title>Node13</title>
<polygon fill="#ffffff" stroke="#bfbfbf" points="442,-.5 442,-19.5 486,-19.5 486,-.5 442,-.5"/>
<text text-anchor="middle" x="464" y="-7.5" font-family="Helvetica,sans-Serif" font-size="10.00" fill="#000000">vector</text>
</g>
<!-- Node9&#45;&gt;Node13 -->
<g id="edge8" class="edge">
<title>Node9&#45;&gt;Node13</title>
<path fill="none" stroke="#191970" d="M523.4586,-56.2455C512.7213,-47.8943 497.0527,-35.7076 484.4953,-25.9408"/>
<polygon fill="#191970" stroke="#191970" points="486.4401,-23.0194 476.3977,-19.6427 482.1425,-28.5449 486.4401,-23.0194"/>
</g>
<!-- Node15 -->
<g id="node10" class="node">
<title>Node15</title>
<polygon fill="#ffffff" stroke="#bfbfbf" points="586.5,-.5 586.5,-19.5 627.5,-19.5 627.5,-.5 586.5,-.5"/>
<text text-anchor="middle" x="607" y="-7.5" font-family="Helvetica,sans-Serif" font-size="10.00" fill="#000000">string</text>
</g>
<!-- Node9&#45;&gt;Node15 -->
<g id="edge9" class="edge">
<title>Node9&#45;&gt;Node15</title>
<path fill="none" stroke="#191970" d="M548.3673,-56.2455C558.9554,-47.8943 574.4064,-35.7076 586.7893,-25.9408"/>
<polygon fill="#191970" stroke="#191970" points="589.0903,-28.5837 594.7745,-19.6427 584.7553,-23.0875 589.0903,-28.5837"/>
</g>
<!-- Node8&#45;&gt;Node9 -->
<g id="edge11" class="edge">
<title>Node8&#45;&gt;Node9</title>
<path fill="none" stroke="#191970" d="M495.5351,-112.2455C502.4912,-104.2958 512.4883,-92.8706 520.8051,-83.3656"/>
<polygon fill="#191970" stroke="#191970" points="523.6116,-85.4732 527.5627,-75.6427 518.3436,-80.8637 523.6116,-85.4732"/>
</g>
<!-- Node41&#45;&gt;Node5 -->
<g id="edge14" class="edge">
<title>Node41&#45;&gt;Node5</title>
<path fill="none" stroke="#191970" d="M411.3683,-280.2455C398.6006,-271.7337 379.8562,-259.2375 365.0701,-249.3801"/>
<polygon fill="#191970" stroke="#191970" points="366.726,-246.2775 356.464,-243.6427 362.8431,-252.1019 366.726,-246.2775"/>
</g>
<!-- Node42 -->
<g id="node14" class="node">
<title>Node42</title>
<g id="a_node14"><a xlink:href="xml_8h.html" target="_top" xlink:title="Classes providing support for XML data files. ">
<polygon fill="#ffffff" stroke="#000000" points="419,-224.5 419,-243.5 519,-243.5 519,-224.5 419,-224.5"/>
<text text-anchor="middle" x="469" y="-231.5" font-family="Helvetica,sans-Serif" font-size="10.00" fill="#000000">cantera/base/xml.h</text>
</a>
</g>
</g>
<!-- Node41&#45;&gt;Node42 -->
<g id="edge15" class="edge">
<title>Node41&#45;&gt;Node42</title>
<path fill="none" stroke="#191970" d="M433.49,-280.2455C439.5326,-272.3761 448.1903,-261.101 455.4441,-251.6542"/>
<polygon fill="#191970" stroke="#191970" points="458.2815,-253.7058 461.5958,-243.6427 452.7295,-249.4426 458.2815,-253.7058"/>
</g>
<!-- Node43 -->
<g id="node16" class="node">
<title>Node43</title>
<g id="a_node16"><a xlink:href="FactoryBase_8h.html" target="_top" xlink:title="File contains the FactoryBase class declarations. ">
<polygon fill="#ffffff" stroke="#000000" points="141,-224.5 141,-243.5 281,-243.5 281,-224.5 141,-224.5"/>
<text text-anchor="middle" x="211" y="-231.5" font-family="Helvetica,sans-Serif" font-size="10.00" fill="#000000">cantera/base/FactoryBase.h</text>
</a>
</g>
</g>
<!-- Node41&#45;&gt;Node43 -->
<g id="edge19" class="edge">
<title>Node41&#45;&gt;Node43</title>
<path fill="none" stroke="#191970" d="M389.0402,-280.3733C352.5925,-270.8799 296.7754,-256.3415 257.3711,-246.0781"/>
<polygon fill="#191970" stroke="#191970" points="258.0369,-242.6348 247.4775,-243.5011 256.2724,-249.4087 258.0369,-242.6348"/>
</g>
<!-- Node42&#45;&gt;Node24 -->
<g id="edge18" class="edge">
<title>Node42&#45;&gt;Node24</title>
<path fill="none" stroke="#191970" d="M445.7927,-224.3733C423.8301,-215.2629 390.6668,-201.5062 366.1599,-191.3404"/>
<polygon fill="#191970" stroke="#191970" points="367.4824,-188.0999 356.9045,-187.5011 364.8003,-194.5657 367.4824,-188.0999"/>
</g>
<!-- Node7 -->
<g id="node15" class="node">
<title>Node7</title>
<g id="a_node15"><a xlink:href="ctexceptions_8h.html" target="_top" xlink:title="Definitions for the classes that are thrown when Cantera experiences an error condition (also contain...">
<polygon fill="#ffffff" stroke="#ff0000" points="407,-168.5 407,-187.5 547,-187.5 547,-168.5 407,-168.5"/>
<text text-anchor="middle" x="477" y="-175.5" font-family="Helvetica,sans-Serif" font-size="10.00" fill="#000000">cantera/base/ctexceptions.h</text>
</a>
</g>
</g>
<!-- Node42&#45;&gt;Node7 -->
<g id="edge16" class="edge">
<title>Node42&#45;&gt;Node7</title>
<path fill="none" stroke="#191970" d="M470.3935,-224.2455C471.4374,-216.9382 472.9008,-206.6944 474.1851,-197.7046"/>
<polygon fill="#191970" stroke="#191970" points="477.673,-198.0372 475.6225,-187.6427 470.7434,-197.0472 477.673,-198.0372"/>
</g>
<!-- Node7&#45;&gt;Node8 -->
<g id="edge17" class="edge">
<title>Node7&#45;&gt;Node8</title>
<path fill="none" stroke="#191970" d="M478.7419,-168.2455C480.0467,-160.9382 481.876,-150.6944 483.4813,-141.7046"/>
<polygon fill="#191970" stroke="#191970" points="486.9656,-142.1022 485.2781,-131.6427 480.0746,-140.8717 486.9656,-142.1022"/>
</g>
<!-- Node43&#45;&gt;Node24 -->
<g id="edge25" class="edge">
<title>Node43&#45;&gt;Node24</title>
<path fill="none" stroke="#191970" d="M232.1445,-224.3733C251.8892,-215.3838 281.5698,-201.8706 303.8055,-191.7471"/>
<polygon fill="#191970" stroke="#191970" points="305.4806,-194.8302 313.1315,-187.5011 302.58,-188.4594 305.4806,-194.8302"/>
</g>
<!-- Node43&#45;&gt;Node13 -->
<g id="edge20" class="edge">
<title>Node43&#45;&gt;Node13</title>
<path fill="none" stroke="#191970" d="M218.9531,-224.1657C229.8872,-210.8718 250.4382,-186.6824 270,-168 328.7862,-111.8563 405.296,-53.3635 442.2023,-25.9586"/>
<polygon fill="#191970" stroke="#191970" points="444.7346,-28.4392 450.697,-19.6814 440.5745,-22.8095 444.7346,-28.4392"/>
</g>
<!-- Node43&#45;&gt;Node7 -->
<g id="edge24" class="edge">
<title>Node43&#45;&gt;Node7</title>
<path fill="none" stroke="#191970" d="M256.4248,-224.4369C302.2355,-214.7925 372.9998,-199.8948 421.9675,-189.5858"/>
<polygon fill="#191970" stroke="#191970" points="422.6981,-193.0088 431.7626,-187.5237 421.256,-186.1589 422.6981,-193.0088"/>
</g>
<!-- Node44 -->
<g id="node17" class="node">
<title>Node44</title>
<polygon fill="#ffffff" stroke="#bfbfbf" points="0,-168.5 0,-187.5 44,-187.5 44,-168.5 0,-168.5"/>
<text text-anchor="middle" x="22" y="-175.5" font-family="Helvetica,sans-Serif" font-size="10.00" fill="#000000">mutex</text>
</g>
<!-- Node43&#45;&gt;Node44 -->
<g id="edge21" class="edge">
<title>Node43&#45;&gt;Node44</title>
<path fill="none" stroke="#191970" d="M177.3206,-224.4978C147.2783,-215.9546 101.8679,-202.8775 53.9418,-188.2352"/>
<polygon fill="#191970" stroke="#191970" points="54.9136,-184.8724 44.3269,-185.2868 52.8613,-191.5648 54.9136,-184.8724"/>
</g>
<!-- Node25 -->
<g id="node18" class="node">
<title>Node25</title>
<polygon fill="#ffffff" stroke="#bfbfbf" points="62.5,-168.5 62.5,-187.5 145.5,-187.5 145.5,-168.5 62.5,-168.5"/>
<text text-anchor="middle" x="104" y="-175.5" font-family="Helvetica,sans-Serif" font-size="10.00" fill="#000000">unordered_map</text>
</g>
<!-- Node43&#45;&gt;Node25 -->
<g id="edge22" class="edge">
<title>Node43&#45;&gt;Node25</title>
<path fill="none" stroke="#191970" d="M192.362,-224.2455C175.5614,-215.4527 150.6366,-202.4079 131.5382,-192.4125"/>
<polygon fill="#191970" stroke="#191970" points="132.9073,-189.1787 122.4244,-187.6427 129.6614,-195.3807 132.9073,-189.1787"/>
</g>
<!-- Node45 -->
<g id="node19" class="node">
<title>Node45</title>
<polygon fill="#ffffff" stroke="#bfbfbf" points="163.5,-168.5 163.5,-187.5 222.5,-187.5 222.5,-168.5 163.5,-168.5"/>
<text text-anchor="middle" x="193" y="-175.5" font-family="Helvetica,sans-Serif" font-size="10.00" fill="#000000">functional</text>
</g>
<!-- Node43&#45;&gt;Node45 -->
<g id="edge23" class="edge">
<title>Node43&#45;&gt;Node45</title>
<path fill="none" stroke="#191970" d="M207.8646,-224.2455C205.49,-216.8579 202.1507,-206.4689 199.2385,-197.4087"/>
<polygon fill="#191970" stroke="#191970" points="202.4917,-196.0919 196.0994,-187.6427 195.8275,-198.234 202.4917,-196.0919"/>
</g>
<!-- Node46&#45;&gt;Node9 -->
<g id="edge27" class="edge">
<title>Node46&#45;&gt;Node9</title>
<path fill="none" stroke="#191970" d="M655.831,-168.4509C633.4017,-149.2747 582.6643,-105.8962 554.9468,-82.1988"/>
<polygon fill="#191970" stroke="#191970" points="557.0159,-79.363 547.1407,-75.5249 552.4671,-84.6835 557.0159,-79.363"/>
</g>
<!-- Node46&#45;&gt;Node15 -->
<g id="edge29" class="edge">
<title>Node46&#45;&gt;Node15</title>
<path fill="none" stroke="#191970" d="M663.6022,-168.4862C654.0766,-141.8144 626.9685,-65.9117 614.0339,-29.695"/>
<polygon fill="#191970" stroke="#191970" points="617.1695,-28.0681 610.51,-19.8279 610.5773,-30.4225 617.1695,-28.0681"/>
</g>
<!-- Node46&#45;&gt;Node8 -->
<g id="edge28" class="edge">
<title>Node46&#45;&gt;Node8</title>
<path fill="none" stroke="#191970" d="M636.0569,-168.3733C605.9961,-159.021 560.1974,-144.7725 527.3022,-134.5385"/>
<polygon fill="#191970" stroke="#191970" points="528.1277,-131.1299 517.5393,-131.5011 526.0481,-137.8139 528.1277,-131.1299"/>
</g>
<!-- Node47&#45;&gt;Node9 -->
<g id="edge31" class="edge">
<title>Node47&#45;&gt;Node9</title>
<path fill="none" stroke="#191970" d="M573.648,-280.4877C570.6965,-259.9225 563.3504,-209.8017 556,-168 550.9372,-139.208 544.273,-106.0098 540.0616,-85.5118"/>
<polygon fill="#191970" stroke="#191970" points="543.452,-84.6236 537.9999,-75.5393 536.597,-86.0408 543.452,-84.6236"/>
</g>
<!-- Node47&#45;&gt;Node42 -->
<g id="edge32" class="edge">
<title>Node47&#45;&gt;Node42</title>
<path fill="none" stroke="#191970" d="M556.5362,-280.2455C539.8926,-271.4527 515.2007,-258.4079 496.2808,-248.4125"/>
<polygon fill="#191970" stroke="#191970" points="497.7291,-245.2193 487.2522,-243.6427 494.4592,-251.4086 497.7291,-245.2193"/>
</g>
</g>
</svg>
