<?xml version="1.0" encoding="UTF-8" standalone="no"?>
<!DOCTYPE svg PUBLIC "-//W3C//DTD SVG 1.1//EN"
 "http://www.w3.org/Graphics/SVG/1.1/DTD/svg11.dtd">
<!-- Generated by graphviz version 2.40.1 (20161225.0304)
 -->
<!-- Title: PDSS_Water.h Pages: 1 -->
<svg width="538pt" height="196pt"
 viewBox="0.00 0.00 538.00 196.00" xmlns="http://www.w3.org/2000/svg" xmlns:xlink="http://www.w3.org/1999/xlink">
<g id="graph0" class="graph" transform="scale(1 1) rotate(0) translate(4 192)">
<title>PDSS_Water.h</title>
<polygon fill="#ffffff" stroke="transparent" points="-4,4 -4,-192 534,-192 534,4 -4,4"/>
<!-- Node0 -->
<g id="node1" class="node">
<title>Node0</title>
<polygon fill="#bfbfbf" stroke="#000000" points="126,-168.5 126,-187.5 210,-187.5 210,-168.5 126,-168.5"/>
<text text-anchor="middle" x="168" y="-175.5" font-family="Helvetica,sans-Serif" font-size="10.00" fill="#000000">PDSS_Water.h</text>
</g>
<!-- Node1 -->
<g id="node2" class="node">
<title>Node1</title>
<g id="a_node2"><a xlink:href="PDSS_8h.html" target="_top" xlink:title="Declarations for the virtual base class PDSS (pressure dependent standard state) which handles calcul...">
<polygon fill="#ffffff" stroke="#000000" points="141.5,-112.5 141.5,-131.5 194.5,-131.5 194.5,-112.5 141.5,-112.5"/>
<text text-anchor="middle" x="168" y="-119.5" font-family="Helvetica,sans-Serif" font-size="10.00" fill="#000000">PDSS.h</text>
</a>
</g>
</g>
<!-- Node0&#45;&gt;Node1 -->
<g id="edge1" class="edge">
<title>Node0&#45;&gt;Node1</title>
<path fill="none" stroke="#191970" d="M168,-168.2455C168,-160.9382 168,-150.6944 168,-141.7046"/>
<polygon fill="#191970" stroke="#191970" points="171.5001,-141.6426 168,-131.6427 164.5001,-141.6427 171.5001,-141.6426"/>
</g>
<!-- Node11 -->
<g id="node12" class="node">
<title>Node11</title>
<g id="a_node12"><a xlink:href="WaterPropsIAPWS_8h.html" target="_top" xlink:title="Headers for a class for calculating the equation of state of water from the IAPWS 1995 Formulation ba...">
<polygon fill="#ffffff" stroke="#000000" points="9,-112.5 9,-131.5 119,-131.5 119,-112.5 9,-112.5"/>
<text text-anchor="middle" x="64" y="-119.5" font-family="Helvetica,sans-Serif" font-size="10.00" fill="#000000">WaterPropsIAPWS.h</text>
</a>
</g>
</g>
<!-- Node0&#45;&gt;Node11 -->
<g id="edge11" class="edge">
<title>Node0&#45;&gt;Node11</title>
<path fill="none" stroke="#191970" d="M149.8846,-168.2455C133.555,-159.4527 109.329,-146.4079 90.7661,-136.4125"/>
<polygon fill="#191970" stroke="#191970" points="92.3719,-133.3021 81.9078,-131.6427 89.0532,-139.4654 92.3719,-133.3021"/>
</g>
<!-- Node13 -->
<g id="node14" class="node">
<title>Node13</title>
<g id="a_node14"><a xlink:href="WaterProps_8h.html" target="_top" xlink:title="Header for a class used to house several approximation routines for properties of water...">
<polygon fill="#ffffff" stroke="#000000" points="212.5,-112.5 212.5,-131.5 289.5,-131.5 289.5,-112.5 212.5,-112.5"/>
<text text-anchor="middle" x="251" y="-119.5" font-family="Helvetica,sans-Serif" font-size="10.00" fill="#000000">WaterProps.h</text>
</a>
</g>
</g>
<!-- Node0&#45;&gt;Node13 -->
<g id="edge14" class="edge">
<title>Node0&#45;&gt;Node13</title>
<path fill="none" stroke="#191970" d="M182.4575,-168.2455C195.0732,-159.7337 213.5944,-147.2375 228.2045,-137.3801"/>
<polygon fill="#191970" stroke="#191970" points="230.3761,-140.1371 236.7082,-131.6427 226.4609,-134.3343 230.3761,-140.1371"/>
</g>
<!-- Node2 -->
<g id="node3" class="node">
<title>Node2</title>
<g id="a_node3"><a xlink:href="ct__defs_8h.html" target="_top" xlink:title="This file contains definitions of terms that are used in internal routines and are unlikely to need m...">
<polygon fill="#ffffff" stroke="#000000" points="193,-56.5 193,-75.5 309,-75.5 309,-56.5 193,-56.5"/>
<text text-anchor="middle" x="251" y="-63.5" font-family="Helvetica,sans-Serif" font-size="10.00" fill="#000000">cantera/base/ct_defs.h</text>
</a>
</g>
</g>
<!-- Node1&#45;&gt;Node2 -->
<g id="edge2" class="edge">
<title>Node1&#45;&gt;Node2</title>
<path fill="none" stroke="#191970" d="M182.4575,-112.2455C195.0732,-103.7337 213.5944,-91.2375 228.2045,-81.3801"/>
<polygon fill="#191970" stroke="#191970" points="230.3761,-84.1371 236.7082,-75.6427 226.4609,-78.3343 230.3761,-84.1371"/>
</g>
<!-- Node3 -->
<g id="node4" class="node">
<title>Node3</title>
<g id="a_node4"><a xlink:href="config_8h_source.html" target="_top" xlink:title="config.h">
<polygon fill="#ffffff" stroke="#000000" points="33.5,-.5 33.5,-19.5 84.5,-19.5 84.5,-.5 33.5,-.5"/>
<text text-anchor="middle" x="59" y="-7.5" font-family="Helvetica,sans-Serif" font-size="10.00" fill="#000000">config.h</text>
</a>
</g>
</g>
<!-- Node2&#45;&gt;Node3 -->
<g id="edge3" class="edge">
<title>Node2&#45;&gt;Node3</title>
<path fill="none" stroke="#191970" d="M217.994,-56.3733C183.5465,-46.3261 129.7244,-30.6279 94.4076,-20.3272"/>
<polygon fill="#191970" stroke="#191970" points="95.1064,-16.8853 84.5263,-17.4452 93.1463,-23.6053 95.1064,-16.8853"/>
</g>
<!-- Node4 -->
<g id="node5" class="node">
<title>Node4</title>
<polygon fill="#ffffff" stroke="#bfbfbf" points="103,-.5 103,-19.5 147,-19.5 147,-.5 103,-.5"/>
<text text-anchor="middle" x="125" y="-7.5" font-family="Helvetica,sans-Serif" font-size="10.00" fill="#000000">cmath</text>
</g>
<!-- Node2&#45;&gt;Node4 -->
<g id="edge4" class="edge">
<title>Node2&#45;&gt;Node4</title>
<path fill="none" stroke="#191970" d="M229.3398,-56.3733C209.0228,-47.3435 178.436,-33.7494 155.625,-23.6111"/>
<polygon fill="#191970" stroke="#191970" points="156.9372,-20.3642 146.3775,-19.5011 154.0941,-26.7609 156.9372,-20.3642"/>
</g>
<!-- Node5 -->
<g id="node6" class="node">
<title>Node5</title>
<polygon fill="#ffffff" stroke="#bfbfbf" points="165.5,-.5 165.5,-19.5 210.5,-19.5 210.5,-.5 165.5,-.5"/>
<text text-anchor="middle" x="188" y="-7.5" font-family="Helvetica,sans-Serif" font-size="10.00" fill="#000000">cstdlib</text>
</g>
<!-- Node2&#45;&gt;Node5 -->
<g id="edge5" class="edge">
<title>Node2&#45;&gt;Node5</title>
<path fill="none" stroke="#191970" d="M240.0262,-56.2455C230.8118,-48.0549 217.4468,-36.1749 206.5703,-26.5069"/>
<polygon fill="#191970" stroke="#191970" points="208.6474,-23.6704 198.848,-19.6427 203.9968,-28.9023 208.6474,-23.6704"/>
</g>
<!-- Node6 -->
<g id="node7" class="node">
<title>Node6</title>
<polygon fill="#ffffff" stroke="#bfbfbf" points="229,-.5 229,-19.5 273,-19.5 273,-.5 229,-.5"/>
<text text-anchor="middle" x="251" y="-7.5" font-family="Helvetica,sans-Serif" font-size="10.00" fill="#000000">vector</text>
</g>
<!-- Node2&#45;&gt;Node6 -->
<g id="edge6" class="edge">
<title>Node2&#45;&gt;Node6</title>
<path fill="none" stroke="#191970" d="M251,-56.2455C251,-48.9382 251,-38.6944 251,-29.7046"/>
<polygon fill="#191970" stroke="#191970" points="254.5001,-29.6426 251,-19.6427 247.5001,-29.6427 254.5001,-29.6426"/>
</g>
<!-- Node7 -->
<g id="node8" class="node">
<title>Node7</title>
<polygon fill="#ffffff" stroke="#bfbfbf" points="291.5,-.5 291.5,-19.5 326.5,-19.5 326.5,-.5 291.5,-.5"/>
<text text-anchor="middle" x="309" y="-7.5" font-family="Helvetica,sans-Serif" font-size="10.00" fill="#000000">map</text>
</g>
<!-- Node2&#45;&gt;Node7 -->
<g id="edge7" class="edge">
<title>Node2&#45;&gt;Node7</title>
<path fill="none" stroke="#191970" d="M261.1028,-56.2455C269.5028,-48.1352 281.6494,-36.4075 291.6084,-26.7919"/>
<polygon fill="#191970" stroke="#191970" points="294.25,-29.1066 299.0129,-19.6427 289.3878,-24.0707 294.25,-29.1066"/>
</g>
<!-- Node8 -->
<g id="node9" class="node">
<title>Node8</title>
<polygon fill="#ffffff" stroke="#bfbfbf" points="344.5,-.5 344.5,-19.5 385.5,-19.5 385.5,-.5 344.5,-.5"/>
<text text-anchor="middle" x="365" y="-7.5" font-family="Helvetica,sans-Serif" font-size="10.00" fill="#000000">string</text>
</g>
<!-- Node2&#45;&gt;Node8 -->
<g id="edge8" class="edge">
<title>Node2&#45;&gt;Node8</title>
<path fill="none" stroke="#191970" d="M270.5973,-56.3733C288.7331,-47.4644 315.9135,-34.1127 336.4587,-24.0203"/>
<polygon fill="#191970" stroke="#191970" points="338.2261,-27.0517 345.6584,-19.5011 335.1397,-20.7688 338.2261,-27.0517"/>
</g>
<!-- Node9 -->
<g id="node10" class="node">
<title>Node9</title>
<polygon fill="#ffffff" stroke="#bfbfbf" points="404,-.5 404,-19.5 460,-19.5 460,-.5 404,-.5"/>
<text text-anchor="middle" x="432" y="-7.5" font-family="Helvetica,sans-Serif" font-size="10.00" fill="#000000">algorithm</text>
</g>
<!-- Node2&#45;&gt;Node9 -->
<g id="edge9" class="edge">
<title>Node2&#45;&gt;Node9</title>
<path fill="none" stroke="#191970" d="M282.115,-56.3733C313.1672,-46.7659 360.9197,-31.9917 394.1507,-21.7103"/>
<polygon fill="#191970" stroke="#191970" points="395.4443,-24.9738 403.963,-18.6744 393.3753,-18.2866 395.4443,-24.9738"/>
</g>
<!-- Node10 -->
<g id="node11" class="node">
<title>Node10</title>
<polygon fill="#ffffff" stroke="#bfbfbf" points="478,-.5 478,-19.5 530,-19.5 530,-.5 478,-.5"/>
<text text-anchor="middle" x="504" y="-7.5" font-family="Helvetica,sans-Serif" font-size="10.00" fill="#000000">memory</text>
</g>
<!-- Node2&#45;&gt;Node10 -->
<g id="edge10" class="edge">
<title>Node2&#45;&gt;Node10</title>
<path fill="none" stroke="#191970" d="M301.0122,-56.4865C343.0943,-48.2471 405.0599,-35.5699 467.6348,-20.2207"/>
<polygon fill="#191970" stroke="#191970" points="468.8137,-23.5347 477.6799,-17.7346 467.1319,-16.7397 468.8137,-23.5347"/>
</g>
<!-- Node12 -->
<g id="node13" class="node">
<title>Node12</title>
<g id="a_node13"><a xlink:href="WaterPropsIAPWSphi_8h.html" target="_top" xlink:title="Header for Lowest level of the classes which support a real water model (see class WaterPropsIAPWS an...">
<polygon fill="#ffffff" stroke="#000000" points="0,-56.5 0,-75.5 122,-75.5 122,-56.5 0,-56.5"/>
<text text-anchor="middle" x="61" y="-63.5" font-family="Helvetica,sans-Serif" font-size="10.00" fill="#000000">WaterPropsIAPWSphi.h</text>
</a>
</g>
</g>
<!-- Node11&#45;&gt;Node12 -->
<g id="edge12" class="edge">
<title>Node11&#45;&gt;Node12</title>
<path fill="none" stroke="#191970" d="M63.4774,-112.2455C63.086,-104.9382 62.5372,-94.6944 62.0556,-85.7046"/>
<polygon fill="#191970" stroke="#191970" points="65.5466,-85.4411 61.5166,-75.6427 58.5566,-85.8156 65.5466,-85.4411"/>
</g>
<!-- Node12&#45;&gt;Node3 -->
<g id="edge13" class="edge">
<title>Node12&#45;&gt;Node3</title>
<path fill="none" stroke="#191970" d="M60.6516,-56.2455C60.3907,-48.9382 60.0248,-38.6944 59.7037,-29.7046"/>
<polygon fill="#191970" stroke="#191970" points="63.1992,-29.5113 59.3444,-19.6427 56.2036,-29.7613 63.1992,-29.5113"/>
</g>
<!-- Node13&#45;&gt;Node2 -->
<g id="edge15" class="edge">
<title>Node13&#45;&gt;Node2</title>
<path fill="none" stroke="#191970" d="M251,-112.2455C251,-104.9382 251,-94.6944 251,-85.7046"/>
<polygon fill="#191970" stroke="#191970" points="254.5001,-85.6426 251,-75.6427 247.5001,-85.6427 254.5001,-85.6426"/>
</g>
</g>
</svg>
