<?xml version="1.0" encoding="UTF-8" standalone="no"?>
<!DOCTYPE svg PUBLIC "-//W3C//DTD SVG 1.1//EN"
 "http://www.w3.org/Graphics/SVG/1.1/DTD/svg11.dtd">
<!-- Generated by graphviz version 2.40.1 (20161225.0304)
 -->
<!-- Title: ReactionPath.h Pages: 1 -->
<svg width="1224pt" height="487pt"
 viewBox="0.00 0.00 1223.51 487.00" xmlns="http://www.w3.org/2000/svg" xmlns:xlink="http://www.w3.org/1999/xlink">
<g id="graph0" class="graph" transform="scale(1 1) rotate(0) translate(4 483)">
<title>ReactionPath.h</title>
<polygon fill="#ffffff" stroke="transparent" points="-4,4 -4,-483 1219.5051,-483 1219.5051,4 -4,4"/>
<!-- Node0 -->
<g id="node1" class="node">
<title>Node0</title>
<polygon fill="#bfbfbf" stroke="#000000" points="877.5051,-459.5 877.5051,-478.5 961.5051,-478.5 961.5051,-459.5 877.5051,-459.5"/>
<text text-anchor="middle" x="919.5051" y="-466.5" font-family="Helvetica,sans-Serif" font-size="10.00" fill="#000000">ReactionPath.h</text>
</g>
<!-- Node1 -->
<g id="node2" class="node">
<title>Node1</title>
<g id="a_node2"><a xlink:href="DenseMatrix_8h.html" target="_top" xlink:title="Headers for the DenseMatrix object, which deals with dense rectangular matrices and description of th...">
<polygon fill="#ffffff" stroke="#000000" points="840.5051,-347.5 840.5051,-366.5 998.5051,-366.5 998.5051,-347.5 840.5051,-347.5"/>
<text text-anchor="middle" x="919.5051" y="-354.5" font-family="Helvetica,sans-Serif" font-size="10.00" fill="#000000">cantera/numerics/DenseMatrix.h</text>
</a>
</g>
</g>
<!-- Node0&#45;&gt;Node1 -->
<g id="edge1" class="edge">
<title>Node0&#45;&gt;Node1</title>
<path fill="none" stroke="#191970" d="M919.5051,-459.4509C919.5051,-441.184 919.5051,-400.9553 919.5051,-376.6976"/>
<polygon fill="#191970" stroke="#191970" points="923.0052,-376.5249 919.5051,-366.5249 916.0052,-376.5249 923.0052,-376.5249"/>
</g>
<!-- Node23 -->
<g id="node24" class="node">
<title>Node23</title>
<g id="a_node24"><a xlink:href="Group_8h.html" target="_top" xlink:title="Group.h">
<polygon fill="#ffffff" stroke="#000000" points="1048.0051,-403.5 1048.0051,-422.5 1099.0051,-422.5 1099.0051,-403.5 1048.0051,-403.5"/>
<text text-anchor="middle" x="1073.5051" y="-410.5" font-family="Helvetica,sans-Serif" font-size="10.00" fill="#000000">Group.h</text>
</a>
</g>
</g>
<!-- Node0&#45;&gt;Node23 -->
<g id="edge27" class="edge">
<title>Node0&#45;&gt;Node23</title>
<path fill="none" stroke="#191970" d="M945.9787,-459.3733C971.5187,-450.086 1010.3368,-435.9703 1038.4361,-425.7524"/>
<polygon fill="#191970" stroke="#191970" points="1039.6869,-429.0218 1047.8888,-422.315 1037.2947,-422.4433 1039.6869,-429.0218"/>
</g>
<!-- Node24 -->
<g id="node25" class="node">
<title>Node24</title>
<g id="a_node25"><a xlink:href="Kinetics_8h.html" target="_top" xlink:title="Base class for kinetics managers and also contains the kineticsmgr module documentation (see Kinetics...">
<polygon fill="#ffffff" stroke="#000000" points="610.5051,-403.5 610.5051,-422.5 670.5051,-422.5 670.5051,-403.5 610.5051,-403.5"/>
<text text-anchor="middle" x="640.5051" y="-410.5" font-family="Helvetica,sans-Serif" font-size="10.00" fill="#000000">Kinetics.h</text>
</a>
</g>
</g>
<!-- Node0&#45;&gt;Node24 -->
<g id="edge29" class="edge">
<title>Node0&#45;&gt;Node24</title>
<path fill="none" stroke="#191970" d="M877.4339,-460.5556C824.2014,-449.8709 733.1634,-431.5981 680.7922,-421.0863"/>
<polygon fill="#191970" stroke="#191970" points="681.3494,-417.6284 670.8561,-419.092 679.9718,-424.4915 681.3494,-417.6284"/>
</g>
<!-- Node2 -->
<g id="node3" class="node">
<title>Node2</title>
<g id="a_node3"><a xlink:href="ct__defs_8h.html" target="_top" xlink:title="This file contains definitions of terms that are used in internal routines and are unlikely to need m...">
<polygon fill="#ffffff" stroke="#000000" points="613.5051,-56.5 613.5051,-75.5 729.5051,-75.5 729.5051,-56.5 613.5051,-56.5"/>
<text text-anchor="middle" x="671.5051" y="-63.5" font-family="Helvetica,sans-Serif" font-size="10.00" fill="#000000">cantera/base/ct_defs.h</text>
</a>
</g>
</g>
<!-- Node1&#45;&gt;Node2 -->
<g id="edge2" class="edge">
<title>Node1&#45;&gt;Node2</title>
<path fill="none" stroke="#191970" d="M963.2713,-347.483C1036.8798,-330.2004 1177.5051,-291.1445 1177.5051,-245 1177.5051,-245 1177.5051,-245 1177.5051,-183.5 1177.5051,-150.6194 1183.598,-133.2481 1158.5051,-112 1127.2617,-85.5438 866.7773,-72.8443 740.1248,-68.1878"/>
<polygon fill="#191970" stroke="#191970" points="739.8884,-64.6771 729.7687,-67.814 739.6359,-71.6725 739.8884,-64.6771"/>
</g>
<!-- Node11 -->
<g id="node12" class="node">
<title>Node11</title>
<g id="a_node12"><a xlink:href="ctexceptions_8h.html" target="_top" xlink:title="Definitions for the classes that are thrown when Cantera experiences an error condition (also contain...">
<polygon fill="#ffffff" stroke="#000000" points="589.5051,-174 589.5051,-193 729.5051,-193 729.5051,-174 589.5051,-174"/>
<text text-anchor="middle" x="659.5051" y="-181" font-family="Helvetica,sans-Serif" font-size="10.00" fill="#000000">cantera/base/ctexceptions.h</text>
</a>
</g>
</g>
<!-- Node1&#45;&gt;Node11 -->
<g id="edge11" class="edge">
<title>Node1&#45;&gt;Node11</title>
<path fill="none" stroke="#191970" d="M913.9702,-347.1761C900.4994,-324.1423 863.6966,-266.2479 817.5051,-235 789.1653,-215.8285 753.1748,-203.3674 722.704,-195.5138"/>
<polygon fill="#191970" stroke="#191970" points="723.1481,-192.0186 712.6011,-193.024 721.473,-198.8152 723.1481,-192.0186"/>
</g>
<!-- Node16 -->
<g id="node17" class="node">
<title>Node16</title>
<g id="a_node17"><a xlink:href="Array_8h.html" target="_top" xlink:title="Header file for class Cantera::Array2D. ">
<polygon fill="#ffffff" stroke="#000000" points="372.0051,-291.5 372.0051,-310.5 479.0051,-310.5 479.0051,-291.5 372.0051,-291.5"/>
<text text-anchor="middle" x="425.5051" y="-298.5" font-family="Helvetica,sans-Serif" font-size="10.00" fill="#000000">cantera/base/Array.h</text>
</a>
</g>
</g>
<!-- Node1&#45;&gt;Node16 -->
<g id="edge17" class="edge">
<title>Node1&#45;&gt;Node16</title>
<path fill="none" stroke="#191970" d="M840.3512,-348.004C837.3646,-347.665 834.408,-347.3294 831.5051,-347 710.59,-333.2799 569.4148,-317.2916 489.429,-308.236"/>
<polygon fill="#191970" stroke="#191970" points="489.363,-304.7062 479.0328,-307.059 488.5755,-311.6618 489.363,-304.7062"/>
</g>
<!-- Node3 -->
<g id="node4" class="node">
<title>Node3</title>
<g id="a_node4"><a xlink:href="config_8h_source.html" target="_top" xlink:title="config.h">
<polygon fill="#ffffff" stroke="#000000" points="852.0051,-.5 852.0051,-19.5 903.0051,-19.5 903.0051,-.5 852.0051,-.5"/>
<text text-anchor="middle" x="877.5051" y="-7.5" font-family="Helvetica,sans-Serif" font-size="10.00" fill="#000000">config.h</text>
</a>
</g>
</g>
<!-- Node2&#45;&gt;Node3 -->
<g id="edge3" class="edge">
<title>Node2&#45;&gt;Node3</title>
<path fill="none" stroke="#191970" d="M707.5784,-56.47C740.1869,-47.8167 789.758,-34.5666 842.1014,-20.0823"/>
<polygon fill="#191970" stroke="#191970" points="843.2026,-23.409 851.9038,-17.3642 841.3322,-16.6635 843.2026,-23.409"/>
</g>
<!-- Node4 -->
<g id="node5" class="node">
<title>Node4</title>
<polygon fill="#ffffff" stroke="#bfbfbf" points="465.5051,-.5 465.5051,-19.5 509.5051,-19.5 509.5051,-.5 465.5051,-.5"/>
<text text-anchor="middle" x="487.5051" y="-7.5" font-family="Helvetica,sans-Serif" font-size="10.00" fill="#000000">cmath</text>
</g>
<!-- Node2&#45;&gt;Node4 -->
<g id="edge4" class="edge">
<title>Node2&#45;&gt;Node4</title>
<path fill="none" stroke="#191970" d="M639.2115,-56.4947C610.2051,-47.9119 566.2135,-34.7846 519.5235,-20.2798"/>
<polygon fill="#191970" stroke="#191970" points="520.4277,-16.8956 509.8392,-17.2634 518.3459,-23.5789 520.4277,-16.8956"/>
</g>
<!-- Node5 -->
<g id="node6" class="node">
<title>Node5</title>
<polygon fill="#ffffff" stroke="#bfbfbf" points="528.0051,-.5 528.0051,-19.5 573.0051,-19.5 573.0051,-.5 528.0051,-.5"/>
<text text-anchor="middle" x="550.5051" y="-7.5" font-family="Helvetica,sans-Serif" font-size="10.00" fill="#000000">cstdlib</text>
</g>
<!-- Node2&#45;&gt;Node5 -->
<g id="edge5" class="edge">
<title>Node2&#45;&gt;Node5</title>
<path fill="none" stroke="#191970" d="M650.7045,-56.3733C631.2808,-47.3838 602.0828,-33.8706 580.2087,-23.7471"/>
<polygon fill="#191970" stroke="#191970" points="581.5796,-20.5249 571.0343,-19.5011 578.6395,-26.8776 581.5796,-20.5249"/>
</g>
<!-- Node6 -->
<g id="node7" class="node">
<title>Node6</title>
<polygon fill="#ffffff" stroke="#bfbfbf" points="591.5051,-.5 591.5051,-19.5 635.5051,-19.5 635.5051,-.5 591.5051,-.5"/>
<text text-anchor="middle" x="613.5051" y="-7.5" font-family="Helvetica,sans-Serif" font-size="10.00" fill="#000000">vector</text>
</g>
<!-- Node2&#45;&gt;Node6 -->
<g id="edge6" class="edge">
<title>Node2&#45;&gt;Node6</title>
<path fill="none" stroke="#191970" d="M661.4023,-56.2455C653.0023,-48.1352 640.8558,-36.4075 630.8967,-26.7919"/>
<polygon fill="#191970" stroke="#191970" points="633.1173,-24.0707 623.4922,-19.6427 628.2551,-29.1066 633.1173,-24.0707"/>
</g>
<!-- Node7 -->
<g id="node8" class="node">
<title>Node7</title>
<polygon fill="#ffffff" stroke="#bfbfbf" points="654.0051,-.5 654.0051,-19.5 689.0051,-19.5 689.0051,-.5 654.0051,-.5"/>
<text text-anchor="middle" x="671.5051" y="-7.5" font-family="Helvetica,sans-Serif" font-size="10.00" fill="#000000">map</text>
</g>
<!-- Node2&#45;&gt;Node7 -->
<g id="edge7" class="edge">
<title>Node2&#45;&gt;Node7</title>
<path fill="none" stroke="#191970" d="M671.5051,-56.2455C671.5051,-48.9382 671.5051,-38.6944 671.5051,-29.7046"/>
<polygon fill="#191970" stroke="#191970" points="675.0052,-29.6426 671.5051,-19.6427 668.0052,-29.6427 675.0052,-29.6426"/>
</g>
<!-- Node8 -->
<g id="node9" class="node">
<title>Node8</title>
<polygon fill="#ffffff" stroke="#bfbfbf" points="200.0051,-.5 200.0051,-19.5 241.0051,-19.5 241.0051,-.5 200.0051,-.5"/>
<text text-anchor="middle" x="220.5051" y="-7.5" font-family="Helvetica,sans-Serif" font-size="10.00" fill="#000000">string</text>
</g>
<!-- Node2&#45;&gt;Node8 -->
<g id="edge8" class="edge">
<title>Node2&#45;&gt;Node8</title>
<path fill="none" stroke="#191970" d="M613.468,-58.7936C516.8707,-46.7993 326.3496,-23.1426 251.6231,-13.8639"/>
<polygon fill="#191970" stroke="#191970" points="251.8182,-10.3613 241.4631,-12.6023 250.9555,-17.308 251.8182,-10.3613"/>
</g>
<!-- Node9 -->
<g id="node10" class="node">
<title>Node9</title>
<polygon fill="#ffffff" stroke="#bfbfbf" points="707.5051,-.5 707.5051,-19.5 763.5051,-19.5 763.5051,-.5 707.5051,-.5"/>
<text text-anchor="middle" x="735.5051" y="-7.5" font-family="Helvetica,sans-Serif" font-size="10.00" fill="#000000">algorithm</text>
</g>
<!-- Node2&#45;&gt;Node9 -->
<g id="edge9" class="edge">
<title>Node2&#45;&gt;Node9</title>
<path fill="none" stroke="#191970" d="M682.6531,-56.2455C692.0138,-48.0549 705.5909,-36.1749 716.6401,-26.5069"/>
<polygon fill="#191970" stroke="#191970" points="719.2639,-28.8618 724.4849,-19.6427 714.6544,-23.5937 719.2639,-28.8618"/>
</g>
<!-- Node10 -->
<g id="node11" class="node">
<title>Node10</title>
<polygon fill="#ffffff" stroke="#bfbfbf" points="781.5051,-.5 781.5051,-19.5 833.5051,-19.5 833.5051,-.5 781.5051,-.5"/>
<text text-anchor="middle" x="807.5051" y="-7.5" font-family="Helvetica,sans-Serif" font-size="10.00" fill="#000000">memory</text>
</g>
<!-- Node2&#45;&gt;Node10 -->
<g id="edge10" class="edge">
<title>Node2&#45;&gt;Node10</title>
<path fill="none" stroke="#191970" d="M694.8844,-56.3733C717.0096,-47.2629 750.4185,-33.5062 775.107,-23.3404"/>
<polygon fill="#191970" stroke="#191970" points="776.5168,-26.5451 784.431,-19.5011 773.8515,-20.0723 776.5168,-26.5451"/>
</g>
<!-- Node12 -->
<g id="node13" class="node">
<title>Node12</title>
<g id="a_node13"><a xlink:href="fmt_8h.html" target="_top" xlink:title="Wrapper for either system&#45;installed or local headers for fmt. ">
<polygon fill="#ffffff" stroke="#000000" points="443.5051,-112.5 443.5051,-131.5 541.5051,-131.5 541.5051,-112.5 443.5051,-112.5"/>
<text text-anchor="middle" x="492.5051" y="-119.5" font-family="Helvetica,sans-Serif" font-size="10.00" fill="#000000">cantera/base/fmt.h</text>
</a>
</g>
</g>
<!-- Node11&#45;&gt;Node12 -->
<g id="edge12" class="edge">
<title>Node11&#45;&gt;Node12</title>
<path fill="none" stroke="#191970" d="M633.4114,-173.8906C605.1015,-163.4652 559.7283,-146.7559 528.146,-135.1252"/>
<polygon fill="#191970" stroke="#191970" points="529.0091,-131.7133 518.4156,-131.5419 526.59,-138.2821 529.0091,-131.7133"/>
</g>
<!-- Node15 -->
<g id="node16" class="node">
<title>Node15</title>
<polygon fill="#ffffff" stroke="#bfbfbf" points="598.0051,-112.5 598.0051,-131.5 657.0051,-131.5 657.0051,-112.5 598.0051,-112.5"/>
<text text-anchor="middle" x="627.5051" y="-119.5" font-family="Helvetica,sans-Serif" font-size="10.00" fill="#000000">exception</text>
</g>
<!-- Node11&#45;&gt;Node15 -->
<g id="edge16" class="edge">
<title>Node11&#45;&gt;Node15</title>
<path fill="none" stroke="#191970" d="M654.5051,-173.8906C649.9293,-165.0965 643.0271,-151.8312 637.3468,-140.9145"/>
<polygon fill="#191970" stroke="#191970" points="640.2963,-139.0003 632.5756,-131.7449 634.0866,-142.2314 640.2963,-139.0003"/>
</g>
<!-- Node12&#45;&gt;Node2 -->
<g id="edge13" class="edge">
<title>Node12&#45;&gt;Node2</title>
<path fill="none" stroke="#191970" d="M523.2763,-112.3733C553.1702,-103.021 598.7144,-88.7725 631.4268,-78.5385"/>
<polygon fill="#191970" stroke="#191970" points="632.6367,-81.8273 641.1355,-75.5011 630.5466,-75.1466 632.6367,-81.8273"/>
</g>
<!-- Node13 -->
<g id="node14" class="node">
<title>Node13</title>
<polygon fill="#ffffff" stroke="#bfbfbf" points="445.5051,-56.5 445.5051,-75.5 567.5051,-75.5 567.5051,-56.5 445.5051,-56.5"/>
<text text-anchor="middle" x="506.5051" y="-63.5" font-family="Helvetica,sans-Serif" font-size="10.00" fill="#000000">cantera/ext/fmt/format.h</text>
</g>
<!-- Node12&#45;&gt;Node13 -->
<g id="edge14" class="edge">
<title>Node12&#45;&gt;Node13</title>
<path fill="none" stroke="#191970" d="M494.9437,-112.2455C496.7906,-104.8579 499.3879,-94.4689 501.653,-85.4087"/>
<polygon fill="#191970" stroke="#191970" points="505.0645,-86.193 504.0945,-75.6427 498.2735,-84.4952 505.0645,-86.193"/>
</g>
<!-- Node14 -->
<g id="node15" class="node">
<title>Node14</title>
<polygon fill="#ffffff" stroke="#bfbfbf" points="298.0051,-56.5 298.0051,-75.5 427.0051,-75.5 427.0051,-56.5 298.0051,-56.5"/>
<text text-anchor="middle" x="362.5051" y="-63.5" font-family="Helvetica,sans-Serif" font-size="10.00" fill="#000000">cantera/ext/fmt/ostream.h</text>
</g>
<!-- Node12&#45;&gt;Node14 -->
<g id="edge15" class="edge">
<title>Node12&#45;&gt;Node14</title>
<path fill="none" stroke="#191970" d="M470.1573,-112.3733C449.1018,-103.3032 417.3556,-89.6279 393.7876,-79.4755"/>
<polygon fill="#191970" stroke="#191970" points="395.1301,-76.243 384.5613,-75.5011 392.3607,-82.6719 395.1301,-76.243"/>
</g>
<!-- Node17 -->
<g id="node18" class="node">
<title>Node17</title>
<g id="a_node18"><a xlink:href="utilities_8h.html" target="_top" xlink:title="Various templated functions that carry out common vector operations (see Templated Utility Functions)...">
<polygon fill="#ffffff" stroke="#000000" points="148.5051,-235.5 148.5051,-254.5 204.5051,-254.5 204.5051,-235.5 148.5051,-235.5"/>
<text text-anchor="middle" x="176.5051" y="-242.5" font-family="Helvetica,sans-Serif" font-size="10.00" fill="#000000">utilities.h</text>
</a>
</g>
</g>
<!-- Node16&#45;&gt;Node17 -->
<g id="edge18" class="edge">
<title>Node16&#45;&gt;Node17</title>
<path fill="none" stroke="#191970" d="M378.1965,-291.4457C337.3167,-283.0297 276.4304,-270.1147 214.6665,-255.2008"/>
<polygon fill="#191970" stroke="#191970" points="215.2929,-251.7512 204.7492,-252.7904 213.6397,-258.5532 215.2929,-251.7512"/>
</g>
<!-- Node21 -->
<g id="node22" class="node">
<title>Node21</title>
<polygon fill="#ffffff" stroke="#bfbfbf" points="303.5051,-174 303.5051,-193 357.5051,-193 357.5051,-174 303.5051,-174"/>
<text text-anchor="middle" x="330.5051" y="-181" font-family="Helvetica,sans-Serif" font-size="10.00" fill="#000000">iostream</text>
</g>
<!-- Node16&#45;&gt;Node21 -->
<g id="edge25" class="edge">
<title>Node16&#45;&gt;Node21</title>
<path fill="none" stroke="#191970" d="M431.2405,-291.2406C438.4256,-277.6038 448.5362,-252.5516 437.5051,-235 435.2593,-231.4266 392.0943,-211.3476 361.2853,-197.3443"/>
<polygon fill="#191970" stroke="#191970" points="362.3372,-193.9785 351.784,-193.0399 359.4485,-200.3547 362.3372,-193.9785"/>
</g>
<!-- Node22 -->
<g id="node23" class="node">
<title>Node22</title>
<polygon fill="#ffffff" stroke="#bfbfbf" points="382.5051,-235.5 382.5051,-254.5 428.5051,-254.5 428.5051,-235.5 382.5051,-235.5"/>
<text text-anchor="middle" x="405.5051" y="-242.5" font-family="Helvetica,sans-Serif" font-size="10.00" fill="#000000">cstring</text>
</g>
<!-- Node16&#45;&gt;Node22 -->
<g id="edge26" class="edge">
<title>Node16&#45;&gt;Node22</title>
<path fill="none" stroke="#191970" d="M422.0214,-291.2455C419.3543,-283.7776 415.5918,-273.2427 412.3314,-264.1137"/>
<polygon fill="#191970" stroke="#191970" points="415.6085,-262.8829 408.9489,-254.6427 409.0163,-265.2373 415.6085,-262.8829"/>
</g>
<!-- Node17&#45;&gt;Node2 -->
<g id="edge19" class="edge">
<title>Node17&#45;&gt;Node2</title>
<path fill="none" stroke="#191970" d="M148.4468,-237.422C100.1839,-224.3852 6.5741,-199.0901 6.5051,-199 -1.8688,-188.059 -2.3824,-178.5281 6.5051,-168 25.7389,-145.2157 437.495,-93.8704 603.2632,-74.0332"/>
<polygon fill="#191970" stroke="#191970" points="603.8316,-77.4903 613.346,-72.8292 603.0016,-70.5397 603.8316,-77.4903"/>
</g>
<!-- Node18 -->
<g id="node19" class="node">
<title>Node18</title>
<g id="a_node19"><a xlink:href="global_8h.html" target="_top" xlink:title="This file contains definitions for utility functions and text for modules, inputfiles, logs, textlogs, (see Input File Handling, Diagnostic Output, and Writing messages to the screen). ">
<polygon fill="#ffffff" stroke="#000000" points="521.5051,-174 521.5051,-193 571.5051,-193 571.5051,-174 521.5051,-174"/>
<text text-anchor="middle" x="546.5051" y="-181" font-family="Helvetica,sans-Serif" font-size="10.00" fill="#000000">global.h</text>
</a>
</g>
</g>
<!-- Node17&#45;&gt;Node18 -->
<g id="edge20" class="edge">
<title>Node17&#45;&gt;Node18</title>
<path fill="none" stroke="#191970" d="M204.6888,-236.9335C207.6519,-236.2202 210.6311,-235.5584 213.5051,-235 344.8969,-209.4726 383.6416,-235.189 512.5051,-199 514.4725,-198.4475 516.4705,-197.7963 518.4618,-197.079"/>
<polygon fill="#191970" stroke="#191970" points="520.2631,-200.1235 528.1896,-193.0934 517.6092,-193.646 520.2631,-200.1235"/>
</g>
<!-- Node19 -->
<g id="node20" class="node">
<title>Node19</title>
<polygon fill="#ffffff" stroke="#bfbfbf" points="226.0051,-174 226.0051,-193 285.0051,-193 285.0051,-174 226.0051,-174"/>
<text text-anchor="middle" x="255.5051" y="-181" font-family="Helvetica,sans-Serif" font-size="10.00" fill="#000000">stdexcept</text>
</g>
<!-- Node17&#45;&gt;Node19 -->
<g id="edge23" class="edge">
<title>Node17&#45;&gt;Node19</title>
<path fill="none" stroke="#191970" d="M188.8489,-235.3906C201.2554,-225.7324 220.5894,-210.6812 235.2464,-199.271"/>
<polygon fill="#191970" stroke="#191970" points="237.5072,-201.9466 243.248,-193.0419 233.2072,-196.423 237.5072,-201.9466"/>
</g>
<!-- Node20 -->
<g id="node21" class="node">
<title>Node20</title>
<polygon fill="#ffffff" stroke="#bfbfbf" points="16.0051,-174 16.0051,-193 67.0051,-193 67.0051,-174 16.0051,-174"/>
<text text-anchor="middle" x="41.5051" y="-181" font-family="Helvetica,sans-Serif" font-size="10.00" fill="#000000">numeric</text>
</g>
<!-- Node17&#45;&gt;Node20 -->
<g id="edge24" class="edge">
<title>Node17&#45;&gt;Node20</title>
<path fill="none" stroke="#191970" d="M155.4114,-235.3906C132.9225,-225.1457 97.1134,-208.8326 71.6527,-197.2339"/>
<polygon fill="#191970" stroke="#191970" points="73.002,-194.0025 62.4507,-193.0419 70.1,-200.3727 73.002,-194.0025"/>
</g>
<!-- Node18&#45;&gt;Node2 -->
<g id="edge21" class="edge">
<title>Node18&#45;&gt;Node2</title>
<path fill="none" stroke="#191970" d="M550.3024,-173.6166C556.4327,-158.7145 569.7474,-130.2938 588.5051,-112 602.5054,-98.346 621.3675,-87.4641 637.5726,-79.7193"/>
<polygon fill="#191970" stroke="#191970" points="639.1101,-82.8649 646.7501,-75.5245 636.2001,-76.4984 639.1101,-82.8649"/>
</g>
<!-- Node18&#45;&gt;Node12 -->
<g id="edge22" class="edge">
<title>Node18&#45;&gt;Node12</title>
<path fill="none" stroke="#191970" d="M538.0676,-173.8906C529.952,-164.6478 517.4997,-150.466 507.6627,-139.2628"/>
<polygon fill="#191970" stroke="#191970" points="510.2897,-136.95 501.0616,-131.7449 505.0296,-141.5686 510.2897,-136.95"/>
</g>
<!-- Node23&#45;&gt;Node2 -->
<g id="edge28" class="edge">
<title>Node23&#45;&gt;Node2</title>
<path fill="none" stroke="#191970" d="M1099.2202,-405.6654C1140.1407,-392.2373 1215.5051,-359.5576 1215.5051,-301 1215.5051,-301 1215.5051,-301 1215.5051,-183.5 1215.5051,-148.1192 1209.6491,-132.0607 1180.5051,-112 1145.0139,-87.5703 870.3492,-73.7304 739.8886,-68.4745"/>
<polygon fill="#191970" stroke="#191970" points="739.7455,-64.9662 729.6144,-68.0663 739.4676,-71.9606 739.7455,-64.9662"/>
</g>
<!-- Node24&#45;&gt;Node18 -->
<g id="edge61" class="edge">
<title>Node24&#45;&gt;Node18</title>
<path fill="none" stroke="#191970" d="M638.5308,-403.3288C632.6955,-375.8819 614.0041,-295.5725 583.5051,-235 577.44,-222.9544 568.7073,-210.6445 561.2486,-201.0814"/>
<polygon fill="#191970" stroke="#191970" points="563.8672,-198.7526 554.8702,-193.1576 558.4143,-203.142 563.8672,-198.7526"/>
</g>
<!-- Node25 -->
<g id="node26" class="node">
<title>Node25</title>
<g id="a_node26"><a xlink:href="ThermoPhase_8h.html" target="_top" xlink:title="Header file for class ThermoPhase, the base class for phases with thermodynamic properties, and the text for the Module thermoprops (see Thermodynamic Properties and class ThermoPhase). ">
<polygon fill="#ffffff" stroke="#000000" points="668.5051,-347.5 668.5051,-366.5 822.5051,-366.5 822.5051,-347.5 668.5051,-347.5"/>
<text text-anchor="middle" x="745.5051" y="-354.5" font-family="Helvetica,sans-Serif" font-size="10.00" fill="#000000">cantera/thermo/ThermoPhase.h</text>
</a>
</g>
</g>
<!-- Node24&#45;&gt;Node25 -->
<g id="edge30" class="edge">
<title>Node24&#45;&gt;Node25</title>
<path fill="none" stroke="#191970" d="M658.7947,-403.2455C675.2814,-394.4527 699.7403,-381.4079 718.4817,-371.4125"/>
<polygon fill="#191970" stroke="#191970" points="720.2486,-374.4368 727.4251,-366.6427 716.9545,-368.2604 720.2486,-374.4368"/>
</g>
<!-- Node39 -->
<g id="node33" class="node">
<title>Node39</title>
<g id="a_node33"><a xlink:href="StoichManager_8h.html" target="_top" xlink:title="StoichManager.h">
<polygon fill="#ffffff" stroke="#000000" points="484.5051,-235.5 484.5051,-254.5 574.5051,-254.5 574.5051,-235.5 484.5051,-235.5"/>
<text text-anchor="middle" x="529.5051" y="-242.5" font-family="Helvetica,sans-Serif" font-size="10.00" fill="#000000">StoichManager.h</text>
</a>
</g>
</g>
<!-- Node24&#45;&gt;Node39 -->
<g id="edge45" class="edge">
<title>Node24&#45;&gt;Node39</title>
<path fill="none" stroke="#191970" d="M634.2192,-403.4862C616.3689,-376.4695 565.1444,-298.9405 541.6029,-263.3102"/>
<polygon fill="#191970" stroke="#191970" points="544.4313,-261.2418 535.9985,-254.8279 538.591,-265.1007 544.4313,-261.2418"/>
</g>
<!-- Node41 -->
<g id="node35" class="node">
<title>Node41</title>
<g id="a_node35"><a xlink:href="Reaction_8h.html" target="_top" xlink:title="cantera/kinetics/Reaction.h">
<polygon fill="#ffffff" stroke="#000000" points="206.5051,-291.5 206.5051,-310.5 342.5051,-310.5 342.5051,-291.5 206.5051,-291.5"/>
<text text-anchor="middle" x="274.5051" y="-298.5" font-family="Helvetica,sans-Serif" font-size="10.00" fill="#000000">cantera/kinetics/Reaction.h</text>
</a>
</g>
</g>
<!-- Node24&#45;&gt;Node41 -->
<g id="edge51" class="edge">
<title>Node24&#45;&gt;Node41</title>
<path fill="none" stroke="#191970" d="M610.2424,-403.7393C544.7311,-383.6921 389.7168,-336.256 315.4972,-313.544"/>
<polygon fill="#191970" stroke="#191970" points="316.1649,-310.0882 305.5784,-310.5088 314.1165,-316.7818 316.1649,-310.0882"/>
</g>
<!-- Node25&#45;&gt;Node18 -->
<g id="edge44" class="edge">
<title>Node25&#45;&gt;Node18</title>
<path fill="none" stroke="#191970" d="M729.0272,-347.4507C714.4248,-338.695 692.799,-324.9982 675.5051,-311 631.3055,-275.2234 585.2724,-226.4763 561.9867,-200.8606"/>
<polygon fill="#191970" stroke="#191970" points="564.2943,-198.1935 554.9973,-193.1125 559.0966,-202.8822 564.2943,-198.1935"/>
</g>
<!-- Node26 -->
<g id="node27" class="node">
<title>Node26</title>
<g id="a_node27"><a xlink:href="Phase_8h.html" target="_top" xlink:title="Header file for class Phase. ">
<polygon fill="#ffffff" stroke="#000000" points="865.0051,-235.5 865.0051,-254.5 918.0051,-254.5 918.0051,-235.5 865.0051,-235.5"/>
<text text-anchor="middle" x="891.5051" y="-242.5" font-family="Helvetica,sans-Serif" font-size="10.00" fill="#000000">Phase.h</text>
</a>
</g>
</g>
<!-- Node25&#45;&gt;Node26 -->
<g id="edge31" class="edge">
<title>Node25&#45;&gt;Node26</title>
<path fill="none" stroke="#191970" d="M758.8885,-347.2352C771.4995,-337.995 790.8873,-323.6893 807.5051,-311 829.5972,-294.1306 854.6128,-274.392 871.5566,-260.9258"/>
<polygon fill="#191970" stroke="#191970" points="873.9796,-263.4706 879.6232,-254.5039 869.6197,-257.9941 873.9796,-263.4706"/>
</g>
<!-- Node36 -->
<g id="node31" class="node">
<title>Node36</title>
<g id="a_node31"><a xlink:href="MultiSpeciesThermo_8h.html" target="_top" xlink:title="Header for a general species thermodynamic property manager for a phase (see MultiSpeciesThermo). ">
<polygon fill="#ffffff" stroke="#000000" points="684.5051,-291.5 684.5051,-310.5 798.5051,-310.5 798.5051,-291.5 684.5051,-291.5"/>
<text text-anchor="middle" x="741.5051" y="-298.5" font-family="Helvetica,sans-Serif" font-size="10.00" fill="#000000">MultiSpeciesThermo.h</text>
</a>
</g>
</g>
<!-- Node25&#45;&gt;Node36 -->
<g id="edge39" class="edge">
<title>Node25&#45;&gt;Node36</title>
<path fill="none" stroke="#191970" d="M744.8084,-347.2455C744.2864,-339.9382 743.5547,-329.6944 742.9126,-320.7046"/>
<polygon fill="#191970" stroke="#191970" points="746.3976,-320.3679 742.1939,-310.6427 739.4153,-320.8667 746.3976,-320.3679"/>
</g>
<!-- Node26&#45;&gt;Node11 -->
<g id="edge32" class="edge">
<title>Node26&#45;&gt;Node11</title>
<path fill="none" stroke="#191970" d="M864.8918,-237.9452C826.0006,-227.6357 753.0965,-208.3098 705.4338,-195.6751"/>
<polygon fill="#191970" stroke="#191970" points="706.2305,-192.2654 695.6675,-193.0862 704.4368,-199.0317 706.2305,-192.2654"/>
</g>
<!-- Node27 -->
<g id="node28" class="node">
<title>Node27</title>
<g id="a_node28"><a xlink:href="Elements_8h.html" target="_top" xlink:title="Contains the getElementWeight function and the definitions of element constraint types. ">
<polygon fill="#ffffff" stroke="#000000" points="869.5051,-112.5 869.5051,-131.5 1003.5051,-131.5 1003.5051,-112.5 869.5051,-112.5"/>
<text text-anchor="middle" x="936.5051" y="-119.5" font-family="Helvetica,sans-Serif" font-size="10.00" fill="#000000">cantera/thermo/Elements.h</text>
</a>
</g>
</g>
<!-- Node26&#45;&gt;Node27 -->
<g id="edge33" class="edge">
<title>Node26&#45;&gt;Node27</title>
<path fill="none" stroke="#191970" d="M895.0362,-235.3484C902.4625,-215.0499 919.8136,-167.6235 929.5546,-140.9981"/>
<polygon fill="#191970" stroke="#191970" points="932.8415,-142.2006 932.9904,-131.6068 926.2676,-139.7954 932.8415,-142.2006"/>
</g>
<!-- Node28 -->
<g id="node29" class="node">
<title>Node28</title>
<g id="a_node29"><a xlink:href="Species_8h.html" target="_top" xlink:title="Declaration for class Cantera::Species. ">
<polygon fill="#ffffff" stroke="#ff0000" points="1021.5051,-112.5 1021.5051,-131.5 1149.5051,-131.5 1149.5051,-112.5 1021.5051,-112.5"/>
<text text-anchor="middle" x="1085.5051" y="-119.5" font-family="Helvetica,sans-Serif" font-size="10.00" fill="#000000">cantera/thermo/Species.h</text>
</a>
</g>
</g>
<!-- Node26&#45;&gt;Node28 -->
<g id="edge35" class="edge">
<title>Node26&#45;&gt;Node28</title>
<path fill="none" stroke="#191970" d="M906.728,-235.3484C940.3726,-214.017 1021.2695,-162.7267 1061.6865,-137.1015"/>
<polygon fill="#191970" stroke="#191970" points="1063.7815,-139.9174 1070.353,-131.6068 1060.0333,-134.0055 1063.7815,-139.9174"/>
</g>
<!-- Node34 -->
<g id="node30" class="node">
<title>Node34</title>
<g id="a_node30"><a xlink:href="ValueCache_8h.html" target="_top" xlink:title="cantera/base/ValueCache.h">
<polygon fill="#ffffff" stroke="#ff0000" points="714.0051,-112.5 714.0051,-131.5 851.0051,-131.5 851.0051,-112.5 714.0051,-112.5"/>
<text text-anchor="middle" x="782.5051" y="-119.5" font-family="Helvetica,sans-Serif" font-size="10.00" fill="#000000">cantera/base/ValueCache.h</text>
</a>
</g>
</g>
<!-- Node26&#45;&gt;Node34 -->
<g id="edge37" class="edge">
<title>Node26&#45;&gt;Node34</title>
<path fill="none" stroke="#191970" d="M882.9521,-235.3484C864.566,-214.6008 821.0643,-165.5117 797.8023,-139.262"/>
<polygon fill="#191970" stroke="#191970" points="800.2702,-136.7696 791.0184,-131.6068 795.0313,-141.4123 800.2702,-136.7696"/>
</g>
<!-- Node27&#45;&gt;Node2 -->
<g id="edge34" class="edge">
<title>Node27&#45;&gt;Node2</title>
<path fill="none" stroke="#191970" d="M891.2511,-112.4369C845.7078,-102.8127 775.4086,-87.957 726.6365,-77.6504"/>
<polygon fill="#191970" stroke="#191970" points="727.0801,-74.1669 716.5725,-75.5237 725.6328,-81.0157 727.0801,-74.1669"/>
</g>
<!-- Node28&#45;&gt;Node2 -->
<g id="edge36" class="edge">
<title>Node28&#45;&gt;Node2</title>
<path fill="none" stroke="#191970" d="M1021.412,-113.2126C1018.4012,-112.8021 1015.4205,-112.3963 1012.5051,-112 918.057,-99.1606 808.8737,-84.4563 740.0142,-75.1997"/>
<polygon fill="#191970" stroke="#191970" points="740.1129,-71.6816 729.7358,-73.8182 739.1804,-78.6192 740.1129,-71.6816"/>
</g>
<!-- Node34&#45;&gt;Node2 -->
<g id="edge38" class="edge">
<title>Node34&#45;&gt;Node2</title>
<path fill="none" stroke="#191970" d="M763.4235,-112.3733C745.765,-103.4644 719.2999,-90.1127 699.2953,-80.0203"/>
<polygon fill="#191970" stroke="#191970" points="700.8424,-76.8806 690.3377,-75.5011 697.6893,-83.1303 700.8424,-76.8806"/>
</g>
<!-- Node37 -->
<g id="node32" class="node">
<title>Node37</title>
<g id="a_node32"><a xlink:href="SpeciesThermoInterpType_8h.html" target="_top" xlink:title="Pure Virtual Base class for individual species reference state thermodynamic managers and text for th...">
<polygon fill="#ffffff" stroke="#ff0000" points="668.5051,-235.5 668.5051,-254.5 808.5051,-254.5 808.5051,-235.5 668.5051,-235.5"/>
<text text-anchor="middle" x="738.5051" y="-242.5" font-family="Helvetica,sans-Serif" font-size="10.00" fill="#000000">SpeciesThermoInterpType.h</text>
</a>
</g>
</g>
<!-- Node36&#45;&gt;Node37 -->
<g id="edge40" class="edge">
<title>Node36&#45;&gt;Node37</title>
<path fill="none" stroke="#191970" d="M740.9826,-291.2455C740.5911,-283.9382 740.0423,-273.6944 739.5607,-264.7046"/>
<polygon fill="#191970" stroke="#191970" points="743.0517,-264.4411 739.0217,-254.6427 736.0617,-264.8156 743.0517,-264.4411"/>
</g>
<!-- Node37&#45;&gt;Node2 -->
<g id="edge41" class="edge">
<title>Node37&#45;&gt;Node2</title>
<path fill="none" stroke="#191970" d="M740.7099,-235.3328C743.6596,-220.3119 747.5432,-190.7328 738.5051,-168 730.3743,-147.5492 717.1171,-150.0357 704.5051,-132 694.2088,-117.2757 685.2895,-98.8756 679.3288,-85.2466"/>
<polygon fill="#191970" stroke="#191970" points="682.4923,-83.7411 675.3735,-75.8943 676.0452,-86.4678 682.4923,-83.7411"/>
</g>
<!-- Node37&#45;&gt;Node11 -->
<g id="edge42" class="edge">
<title>Node37&#45;&gt;Node11</title>
<path fill="none" stroke="#191970" d="M726.1614,-235.3906C713.7549,-225.7324 694.4208,-210.6812 679.7638,-199.271"/>
<polygon fill="#191970" stroke="#191970" points="681.8031,-196.423 671.7622,-193.0419 677.503,-201.9466 681.8031,-196.423"/>
</g>
<!-- Node37&#45;&gt;Node18 -->
<g id="edge43" class="edge">
<title>Node37&#45;&gt;Node18</title>
<path fill="none" stroke="#191970" d="M700.0115,-235.4594C667.7039,-227.0575 620.5455,-213.8669 580.5051,-199 578.8745,-198.3946 577.2125,-197.7459 575.5435,-197.0697"/>
<polygon fill="#191970" stroke="#191970" points="576.6491,-193.7355 566.0794,-193.0055 573.8869,-200.1675 576.6491,-193.7355"/>
</g>
<!-- Node39&#45;&gt;Node11 -->
<g id="edge50" class="edge">
<title>Node39&#45;&gt;Node11</title>
<path fill="none" stroke="#191970" d="M549.8176,-235.3906C571.3782,-225.1908 605.6529,-208.9763 630.1495,-197.3875"/>
<polygon fill="#191970" stroke="#191970" points="631.7925,-200.4822 639.3353,-193.0419 628.799,-194.1545 631.7925,-200.4822"/>
</g>
<!-- Node40 -->
<g id="node34" class="node">
<title>Node40</title>
<g id="a_node34"><a xlink:href="stringUtils_8h.html" target="_top" xlink:title="Contains declarations for string manipulation functions within Cantera. ">
<polygon fill="#ffffff" stroke="#000000" points="375.5051,-174 375.5051,-193 503.5051,-193 503.5051,-174 375.5051,-174"/>
<text text-anchor="middle" x="439.5051" y="-181" font-family="Helvetica,sans-Serif" font-size="10.00" fill="#000000">cantera/base/stringUtils.h</text>
</a>
</g>
</g>
<!-- Node39&#45;&gt;Node40 -->
<g id="edge46" class="edge">
<title>Node39&#45;&gt;Node40</title>
<path fill="none" stroke="#191970" d="M515.4426,-235.3906C501.1765,-225.6421 478.8701,-210.3994 462.1179,-198.9521"/>
<polygon fill="#191970" stroke="#191970" points="463.7,-195.7941 453.4689,-193.0419 459.7507,-201.5736 463.7,-195.7941"/>
</g>
<!-- Node40&#45;&gt;Node2 -->
<g id="edge47" class="edge">
<title>Node40&#45;&gt;Node2</title>
<path fill="none" stroke="#191970" d="M435.0845,-173.9061C428.8947,-158.8737 419.939,-129.6651 434.5051,-112 445.3002,-98.9082 537.2713,-83.9728 603.4005,-74.7648"/>
<polygon fill="#191970" stroke="#191970" points="603.9366,-78.2241 613.3658,-73.393 602.9819,-71.2895 603.9366,-78.2241"/>
</g>
<!-- Node40&#45;&gt;Node8 -->
<g id="edge49" class="edge">
<title>Node40&#45;&gt;Node8</title>
<path fill="none" stroke="#191970" d="M424.3778,-173.8369C396.5412,-155.8182 335.7293,-115.3406 288.5051,-76 269.908,-60.5074 250.227,-41.0232 236.8505,-27.2524"/>
<polygon fill="#191970" stroke="#191970" points="239.2132,-24.6599 229.7589,-19.878 234.1676,-29.512 239.2132,-24.6599"/>
</g>
<!-- Node40&#45;&gt;Node12 -->
<g id="edge48" class="edge">
<title>Node40&#45;&gt;Node12</title>
<path fill="none" stroke="#191970" d="M447.7864,-173.8906C455.6744,-164.7376 467.7365,-150.7409 477.3463,-139.59"/>
<polygon fill="#191970" stroke="#191970" points="480.2302,-141.6049 484.1071,-131.7449 474.9276,-137.0352 480.2302,-141.6049"/>
</g>
<!-- Node41&#45;&gt;Node17 -->
<g id="edge52" class="edge">
<title>Node41&#45;&gt;Node17</title>
<path fill="none" stroke="#191970" d="M257.4348,-291.2455C242.2581,-282.5731 219.843,-269.7645 202.4488,-259.825"/>
<polygon fill="#191970" stroke="#191970" points="203.7987,-256.5653 193.3798,-254.6427 200.3257,-262.643 203.7987,-256.5653"/>
</g>
<!-- Node42 -->
<g id="node36" class="node">
<title>Node42</title>
<g id="a_node36"><a xlink:href="RxnRates_8h.html" target="_top" xlink:title="cantera/kinetics/RxnRates.h">
<polygon fill="#ffffff" stroke="#000000" points="223.0051,-235.5 223.0051,-254.5 364.0051,-254.5 364.0051,-235.5 223.0051,-235.5"/>
<text text-anchor="middle" x="293.5051" y="-242.5" font-family="Helvetica,sans-Serif" font-size="10.00" fill="#000000">cantera/kinetics/RxnRates.h</text>
</a>
</g>
</g>
<!-- Node41&#45;&gt;Node42 -->
<g id="edge53" class="edge">
<title>Node41&#45;&gt;Node42</title>
<path fill="none" stroke="#191970" d="M277.8147,-291.2455C280.3484,-283.7776 283.9228,-273.2427 287.0201,-264.1137"/>
<polygon fill="#191970" stroke="#191970" points="290.3349,-265.237 290.2335,-254.6427 283.706,-262.9879 290.3349,-265.237"/>
</g>
<!-- Node44 -->
<g id="node38" class="node">
<title>Node44</title>
<g id="a_node38"><a xlink:href="Falloff_8h_source.html" target="_top" xlink:title="cantera/kinetics/Falloff.h">
<polygon fill="#ffffff" stroke="#000000" points="6.5051,-235.5 6.5051,-254.5 130.5051,-254.5 130.5051,-235.5 6.5051,-235.5"/>
<text text-anchor="middle" x="68.5051" y="-242.5" font-family="Helvetica,sans-Serif" font-size="10.00" fill="#000000">cantera/kinetics/Falloff.h</text>
</a>
</g>
</g>
<!-- Node41&#45;&gt;Node44 -->
<g id="edge59" class="edge">
<title>Node41&#45;&gt;Node44</title>
<path fill="none" stroke="#191970" d="M239.0925,-291.3733C204.2446,-281.9001 150.9169,-267.4032 113.1758,-257.1435"/>
<polygon fill="#191970" stroke="#191970" points="114.0236,-253.747 103.4557,-254.5011 112.1873,-260.5019 114.0236,-253.747"/>
</g>
<!-- Node42&#45;&gt;Node11 -->
<g id="edge56" class="edge">
<title>Node42&#45;&gt;Node11</title>
<path fill="none" stroke="#191970" d="M356.8806,-235.4904C415.1062,-226.5998 503.7498,-212.6766 580.5051,-199 587.6001,-197.7358 595.042,-196.352 602.4031,-194.9481"/>
<polygon fill="#191970" stroke="#191970" points="603.1939,-198.3602 612.3507,-193.0307 601.869,-191.4867 603.1939,-198.3602"/>
</g>
<!-- Node42&#45;&gt;Node21 -->
<g id="edge58" class="edge">
<title>Node42&#45;&gt;Node21</title>
<path fill="none" stroke="#191970" d="M299.2864,-235.3906C304.6311,-226.5068 312.721,-213.0601 319.3263,-202.0811"/>
<polygon fill="#191970" stroke="#191970" points="322.4862,-203.618 324.6424,-193.2449 316.488,-200.0093 322.4862,-203.618"/>
</g>
<!-- Node42&#45;&gt;Node40 -->
<g id="edge57" class="edge">
<title>Node42&#45;&gt;Node40</title>
<path fill="none" stroke="#191970" d="M316.3176,-235.3906C340.8532,-225.0554 380.0494,-208.5447 407.6262,-196.9284"/>
<polygon fill="#191970" stroke="#191970" points="408.9958,-200.1495 416.8528,-193.0419 406.2783,-193.6984 408.9958,-200.1495"/>
</g>
<!-- Node43 -->
<g id="node37" class="node">
<title>Node43</title>
<g id="a_node37"><a xlink:href="reaction__defs_8h.html" target="_top" xlink:title="This file defines some constants used to specify reaction types. ">
<polygon fill="#ffffff" stroke="#000000" points="85.0051,-168.5 85.0051,-198.5 208.0051,-198.5 208.0051,-168.5 85.0051,-168.5"/>
<text text-anchor="start" x="93.0051" y="-186.5" font-family="Helvetica,sans-Serif" font-size="10.00" fill="#000000">cantera/kinetics/reaction</text>
<text text-anchor="middle" x="146.5051" y="-175.5" font-family="Helvetica,sans-Serif" font-size="10.00" fill="#000000">_defs.h</text>
</a>
</g>
</g>
<!-- Node42&#45;&gt;Node43 -->
<g id="edge54" class="edge">
<title>Node42&#45;&gt;Node43</title>
<path fill="none" stroke="#191970" d="M270.5364,-235.3906C249.5365,-226.6049 217.8699,-213.3567 191.7906,-202.446"/>
<polygon fill="#191970" stroke="#191970" points="193.0414,-199.1754 182.4654,-198.5446 190.3397,-205.633 193.0414,-199.1754"/>
</g>
<!-- Node43&#45;&gt;Node2 -->
<g id="edge55" class="edge">
<title>Node43&#45;&gt;Node2</title>
<path fill="none" stroke="#191970" d="M200.119,-168.485C255.7246,-153.1897 345.3135,-129.3214 423.5051,-112 484.1019,-98.5763 553.6195,-85.9163 603.6049,-77.2891"/>
<polygon fill="#191970" stroke="#191970" points="604.3851,-80.7064 613.6485,-75.5645 603.2004,-73.8074 604.3851,-80.7064"/>
</g>
<!-- Node44&#45;&gt;Node43 -->
<g id="edge60" class="edge">
<title>Node44&#45;&gt;Node43</title>
<path fill="none" stroke="#191970" d="M80.6926,-235.3906C91.0535,-227.2215 106.3077,-215.1941 119.522,-204.7752"/>
<polygon fill="#191970" stroke="#191970" points="121.7385,-207.4846 127.4242,-198.5446 117.4044,-201.9877 121.7385,-207.4846"/>
</g>
</g>
</svg>
