<?xml version="1.0" encoding="UTF-8" standalone="no"?>
<!DOCTYPE svg PUBLIC "-//W3C//DTD SVG 1.1//EN"
 "http://www.w3.org/Graphics/SVG/1.1/DTD/svg11.dtd">
<!-- Generated by graphviz version 2.40.1 (20161225.0304)
 -->
<!-- Title: SingleSpeciesTP.cpp Pages: 1 -->
<svg width="756pt" height="476pt"
 viewBox="0.00 0.00 755.50 476.00" xmlns="http://www.w3.org/2000/svg" xmlns:xlink="http://www.w3.org/1999/xlink">
<g id="graph0" class="graph" transform="scale(1 1) rotate(0) translate(4 472)">
<title>SingleSpeciesTP.cpp</title>
<polygon fill="#ffffff" stroke="transparent" points="-4,4 -4,-472 751.5,-472 751.5,4 -4,4"/>
<!-- Node0 -->
<g id="node1" class="node">
<title>Node0</title>
<polygon fill="#bfbfbf" stroke="#000000" points="529.5,-448.5 529.5,-467.5 639.5,-467.5 639.5,-448.5 529.5,-448.5"/>
<text text-anchor="middle" x="584.5" y="-455.5" font-family="Helvetica,sans-Serif" font-size="10.00" fill="#000000">SingleSpeciesTP.cpp</text>
</g>
<!-- Node1 -->
<g id="node2" class="node">
<title>Node1</title>
<g id="a_node2"><a xlink:href="SingleSpeciesTP_8h.html" target="_top" xlink:title="Header for the SingleSpeciesTP class, which is a filter class for ThermoPhase, that eases the constru...">
<polygon fill="#ffffff" stroke="#000000" points="383.5,-392.5 383.5,-411.5 551.5,-411.5 551.5,-392.5 383.5,-392.5"/>
<text text-anchor="middle" x="467.5" y="-399.5" font-family="Helvetica,sans-Serif" font-size="10.00" fill="#000000">cantera/thermo/SingleSpeciesTP.h</text>
</a>
</g>
</g>
<!-- Node0&#45;&gt;Node1 -->
<g id="edge1" class="edge">
<title>Node0&#45;&gt;Node1</title>
<path fill="none" stroke="#191970" d="M564.387,-448.3733C545.6897,-439.4241 517.6256,-425.9917 496.5066,-415.8835"/>
<polygon fill="#191970" stroke="#191970" points="497.8817,-412.6614 487.3506,-411.5011 494.8595,-418.9755 497.8817,-412.6614"/>
</g>
<!-- Node21 -->
<g id="node14" class="node">
<title>Node21</title>
<g id="a_node14"><a xlink:href="global_8h.html" target="_top" xlink:title="This file contains definitions for utility functions and text for modules, inputfiles, logs, textlogs, (see Input File Handling, Diagnostic Output, and Writing messages to the screen). ">
<polygon fill="#ffffff" stroke="#000000" points="491.5,-168.5 491.5,-187.5 601.5,-187.5 601.5,-168.5 491.5,-168.5"/>
<text text-anchor="middle" x="546.5" y="-175.5" font-family="Helvetica,sans-Serif" font-size="10.00" fill="#000000">cantera/base/global.h</text>
</a>
</g>
</g>
<!-- Node0&#45;&gt;Node21 -->
<g id="edge26" class="edge">
<title>Node0&#45;&gt;Node21</title>
<path fill="none" stroke="#191970" d="M584.5,-448.4116C584.5,-429.0538 584.5,-383.9167 584.5,-346 584.5,-346 584.5,-346 584.5,-290 584.5,-255.6118 568.2366,-218.2832 556.989,-196.5791"/>
<polygon fill="#191970" stroke="#191970" points="559.931,-194.6605 552.107,-187.5166 553.7683,-197.9804 559.931,-194.6605"/>
</g>
<!-- Node31 -->
<g id="node15" class="node">
<title>Node31</title>
<g id="a_node15"><a xlink:href="stringUtils_8h.html" target="_top" xlink:title="Contains declarations for string manipulation functions within Cantera. ">
<polygon fill="#ffffff" stroke="#000000" points="619.5,-168.5 619.5,-187.5 747.5,-187.5 747.5,-168.5 619.5,-168.5"/>
<text text-anchor="middle" x="683.5" y="-175.5" font-family="Helvetica,sans-Serif" font-size="10.00" fill="#000000">cantera/base/stringUtils.h</text>
</a>
</g>
</g>
<!-- Node0&#45;&gt;Node31 -->
<g id="edge22" class="edge">
<title>Node0&#45;&gt;Node31</title>
<path fill="none" stroke="#191970" d="M595.4254,-448.4083C614.6474,-430.4089 652.5,-389.4481 652.5,-346 652.5,-346 652.5,-346 652.5,-290 652.5,-256.3636 665.6477,-219.0368 674.8184,-197.0922"/>
<polygon fill="#191970" stroke="#191970" points="678.1509,-198.2051 678.9258,-187.6387 671.7307,-195.4156 678.1509,-198.2051"/>
</g>
<!-- Node2 -->
<g id="node3" class="node">
<title>Node2</title>
<g id="a_node3"><a xlink:href="ThermoPhase_8h.html" target="_top" xlink:title="Header file for class ThermoPhase, the base class for phases with thermodynamic properties, and the text for the Module thermoprops (see Thermodynamic Properties and class ThermoPhase). ">
<polygon fill="#ffffff" stroke="#000000" points="415.5,-336.5 415.5,-355.5 501.5,-355.5 501.5,-336.5 415.5,-336.5"/>
<text text-anchor="middle" x="458.5" y="-343.5" font-family="Helvetica,sans-Serif" font-size="10.00" fill="#000000">ThermoPhase.h</text>
</a>
</g>
</g>
<!-- Node1&#45;&gt;Node2 -->
<g id="edge2" class="edge">
<title>Node1&#45;&gt;Node2</title>
<path fill="none" stroke="#191970" d="M465.9323,-392.2455C464.7579,-384.9382 463.1116,-374.6944 461.6668,-365.7046"/>
<polygon fill="#191970" stroke="#191970" points="465.0922,-364.9606 460.0497,-355.6427 458.1809,-366.0714 465.0922,-364.9606"/>
</g>
<!-- Node3 -->
<g id="node4" class="node">
<title>Node3</title>
<g id="a_node4"><a xlink:href="Phase_8h.html" target="_top" xlink:title="Header file for class Phase. ">
<polygon fill="#ffffff" stroke="#000000" points="241,-224.5 241,-243.5 294,-243.5 294,-224.5 241,-224.5"/>
<text text-anchor="middle" x="267.5" y="-231.5" font-family="Helvetica,sans-Serif" font-size="10.00" fill="#000000">Phase.h</text>
</a>
</g>
</g>
<!-- Node2&#45;&gt;Node3 -->
<g id="edge3" class="edge">
<title>Node2&#45;&gt;Node3</title>
<path fill="none" stroke="#191970" d="M442.2154,-336.4509C408.8084,-316.8615 332.3295,-272.0152 292.5594,-248.6945"/>
<polygon fill="#191970" stroke="#191970" points="294.1401,-245.5641 283.7433,-243.5249 290.5992,-251.6025 294.1401,-245.5641"/>
</g>
<!-- Node28 -->
<g id="node12" class="node">
<title>Node28</title>
<g id="a_node12"><a xlink:href="MultiSpeciesThermo_8h.html" target="_top" xlink:title="Header for a general species thermodynamic property manager for a phase (see MultiSpeciesThermo). ">
<polygon fill="#ffffff" stroke="#000000" points="398.5,-280.5 398.5,-299.5 512.5,-299.5 512.5,-280.5 398.5,-280.5"/>
<text text-anchor="middle" x="455.5" y="-287.5" font-family="Helvetica,sans-Serif" font-size="10.00" fill="#000000">MultiSpeciesThermo.h</text>
</a>
</g>
</g>
<!-- Node2&#45;&gt;Node28 -->
<g id="edge14" class="edge">
<title>Node2&#45;&gt;Node28</title>
<path fill="none" stroke="#191970" d="M457.9774,-336.2455C457.586,-328.9382 457.0372,-318.6944 456.5556,-309.7046"/>
<polygon fill="#191970" stroke="#191970" points="460.0466,-309.4411 456.0166,-299.6427 453.0566,-309.8156 460.0466,-309.4411"/>
</g>
<!-- Node2&#45;&gt;Node21 -->
<g id="edge21" class="edge">
<title>Node2&#45;&gt;Node21</title>
<path fill="none" stroke="#191970" d="M478.6682,-336.3833C492.8577,-328.5624 511.1044,-316.1788 521.5,-300 541.7706,-268.4527 546.0498,-223.6542 546.7015,-198.0397"/>
<polygon fill="#191970" stroke="#191970" points="550.2039,-197.767 546.7901,-187.7372 543.2041,-197.7067 550.2039,-197.767"/>
</g>
<!-- Node4 -->
<g id="node5" class="node">
<title>Node4</title>
<g id="a_node5"><a xlink:href="ctexceptions_8h.html" target="_top" xlink:title="Definitions for the classes that are thrown when Cantera experiences an error condition (also contain...">
<polygon fill="#ffffff" stroke="#ff0000" points="295.5,-168.5 295.5,-187.5 435.5,-187.5 435.5,-168.5 295.5,-168.5"/>
<text text-anchor="middle" x="365.5" y="-175.5" font-family="Helvetica,sans-Serif" font-size="10.00" fill="#000000">cantera/base/ctexceptions.h</text>
</a>
</g>
</g>
<!-- Node3&#45;&gt;Node4 -->
<g id="edge4" class="edge">
<title>Node3&#45;&gt;Node4</title>
<path fill="none" stroke="#191970" d="M284.5703,-224.2455C299.747,-215.5731 322.1621,-202.7645 339.5563,-192.825"/>
<polygon fill="#191970" stroke="#191970" points="341.6794,-195.643 348.6253,-187.6427 338.2064,-189.5653 341.6794,-195.643"/>
</g>
<!-- Node18 -->
<g id="node9" class="node">
<title>Node18</title>
<g id="a_node9"><a xlink:href="Elements_8h.html" target="_top" xlink:title="Contains the getElementWeight function and the definitions of element constraint types. ">
<polygon fill="#ffffff" stroke="#000000" points="155.5,-112.5 155.5,-131.5 289.5,-131.5 289.5,-112.5 155.5,-112.5"/>
<text text-anchor="middle" x="222.5" y="-119.5" font-family="Helvetica,sans-Serif" font-size="10.00" fill="#000000">cantera/thermo/Elements.h</text>
</a>
</g>
</g>
<!-- Node3&#45;&gt;Node18 -->
<g id="edge8" class="edge">
<title>Node3&#45;&gt;Node18</title>
<path fill="none" stroke="#191970" d="M263.6633,-224.4509C256.2575,-206.0186 239.8673,-165.2254 230.1512,-141.043"/>
<polygon fill="#191970" stroke="#191970" points="233.3029,-139.499 226.327,-131.5249 226.8075,-142.1088 233.3029,-139.499"/>
</g>
<!-- Node19 -->
<g id="node10" class="node">
<title>Node19</title>
<g id="a_node10"><a xlink:href="Species_8h.html" target="_top" xlink:title="Declaration for class Cantera::Species. ">
<polygon fill="#ffffff" stroke="#ff0000" points="307.5,-112.5 307.5,-131.5 435.5,-131.5 435.5,-112.5 307.5,-112.5"/>
<text text-anchor="middle" x="371.5" y="-119.5" font-family="Helvetica,sans-Serif" font-size="10.00" fill="#000000">cantera/thermo/Species.h</text>
</a>
</g>
</g>
<!-- Node3&#45;&gt;Node19 -->
<g id="edge10" class="edge">
<title>Node3&#45;&gt;Node19</title>
<path fill="none" stroke="#191970" d="M267.9721,-224.4245C269.1182,-210.5581 273.0458,-184.7221 286.5,-168 298.1943,-153.4653 315.7631,-142.8791 331.8982,-135.5532"/>
<polygon fill="#191970" stroke="#191970" points="333.3419,-138.7427 341.1774,-131.6114 330.6049,-132.2999 333.3419,-138.7427"/>
</g>
<!-- Node26 -->
<g id="node11" class="node">
<title>Node26</title>
<g id="a_node11"><a xlink:href="ValueCache_8h.html" target="_top" xlink:title="cantera/base/ValueCache.h">
<polygon fill="#ffffff" stroke="#ff0000" points="0,-112.5 0,-131.5 137,-131.5 137,-112.5 0,-112.5"/>
<text text-anchor="middle" x="68.5" y="-119.5" font-family="Helvetica,sans-Serif" font-size="10.00" fill="#000000">cantera/base/ValueCache.h</text>
</a>
</g>
</g>
<!-- Node3&#45;&gt;Node26 -->
<g id="edge12" class="edge">
<title>Node3&#45;&gt;Node26</title>
<path fill="none" stroke="#191970" d="M250.5334,-224.4509C215.6536,-204.8201 135.7085,-159.8259 94.3473,-136.5472"/>
<polygon fill="#191970" stroke="#191970" points="95.8549,-133.3795 85.4237,-131.5249 92.4216,-139.4797 95.8549,-133.3795"/>
</g>
<!-- Node5 -->
<g id="node6" class="node">
<title>Node5</title>
<g id="a_node6"><a xlink:href="fmt_8h.html" target="_top" xlink:title="Wrapper for either system&#45;installed or local headers for fmt. ">
<polygon fill="#ffffff" stroke="#ff0000" points="529.5,-112.5 529.5,-131.5 627.5,-131.5 627.5,-112.5 529.5,-112.5"/>
<text text-anchor="middle" x="578.5" y="-119.5" font-family="Helvetica,sans-Serif" font-size="10.00" fill="#000000">cantera/base/fmt.h</text>
</a>
</g>
</g>
<!-- Node4&#45;&gt;Node5 -->
<g id="edge5" class="edge">
<title>Node4&#45;&gt;Node5</title>
<path fill="none" stroke="#191970" d="M402.116,-168.3733C438.148,-158.9001 493.2878,-144.4032 532.3114,-134.1435"/>
<polygon fill="#191970" stroke="#191970" points="533.5804,-137.4289 542.3618,-131.5011 531.8005,-130.6589 533.5804,-137.4289"/>
</g>
<!-- Node6 -->
<g id="node7" class="node">
<title>Node6</title>
<g id="a_node7"><a xlink:href="ct__defs_8h.html" target="_top" xlink:title="This file contains definitions of terms that are used in internal routines and are unlikely to need m...">
<polygon fill="#ffffff" stroke="#ff0000" points="454,-56.5 454,-75.5 511,-75.5 511,-56.5 454,-56.5"/>
<text text-anchor="middle" x="482.5" y="-63.5" font-family="Helvetica,sans-Serif" font-size="10.00" fill="#000000">ct_defs.h</text>
</a>
</g>
</g>
<!-- Node5&#45;&gt;Node6 -->
<g id="edge6" class="edge">
<title>Node5&#45;&gt;Node6</title>
<path fill="none" stroke="#191970" d="M561.7781,-112.2455C546.9111,-103.5731 524.9534,-90.7645 507.9142,-80.825"/>
<polygon fill="#191970" stroke="#191970" points="509.4317,-77.6582 499.0303,-75.6427 505.9045,-83.7047 509.4317,-77.6582"/>
</g>
<!-- Node12 -->
<g id="node8" class="node">
<title>Node12</title>
<polygon fill="#ffffff" stroke="#bfbfbf" points="558,-.5 558,-19.5 599,-19.5 599,-.5 558,-.5"/>
<text text-anchor="middle" x="578.5" y="-7.5" font-family="Helvetica,sans-Serif" font-size="10.00" fill="#000000">string</text>
</g>
<!-- Node6&#45;&gt;Node12 -->
<g id="edge7" class="edge">
<title>Node6&#45;&gt;Node12</title>
<path fill="none" stroke="#191970" d="M499.2219,-56.2455C514.0889,-47.5731 536.0466,-34.7645 553.0858,-24.825"/>
<polygon fill="#191970" stroke="#191970" points="555.0955,-27.7047 561.9697,-19.6427 551.5683,-21.6582 555.0955,-27.7047"/>
</g>
<!-- Node18&#45;&gt;Node6 -->
<g id="edge9" class="edge">
<title>Node18&#45;&gt;Node6</title>
<path fill="none" stroke="#191970" d="M266.9002,-112.4369C316.7604,-101.6978 396.8629,-84.4449 444.1178,-74.2669"/>
<polygon fill="#191970" stroke="#191970" points="444.9255,-77.6733 453.9643,-72.1461 443.4515,-70.8302 444.9255,-77.6733"/>
</g>
<!-- Node19&#45;&gt;Node6 -->
<g id="edge11" class="edge">
<title>Node19&#45;&gt;Node6</title>
<path fill="none" stroke="#191970" d="M390.5816,-112.3733C408.2402,-103.4644 434.7053,-90.1127 454.7098,-80.0203"/>
<polygon fill="#191970" stroke="#191970" points="456.3158,-83.1303 463.6674,-75.5011 453.1628,-76.8806 456.3158,-83.1303"/>
</g>
<!-- Node26&#45;&gt;Node6 -->
<g id="edge13" class="edge">
<title>Node26&#45;&gt;Node6</title>
<path fill="none" stroke="#191970" d="M137.3284,-112.6899C225.0271,-100.8272 373.6203,-80.7277 443.7102,-71.2469"/>
<polygon fill="#191970" stroke="#191970" points="444.4242,-74.6823 453.8648,-69.8734 443.4858,-67.7455 444.4242,-74.6823"/>
</g>
<!-- Node29 -->
<g id="node13" class="node">
<title>Node29</title>
<g id="a_node13"><a xlink:href="SpeciesThermoInterpType_8h.html" target="_top" xlink:title="Pure Virtual Base class for individual species reference state thermodynamic managers and text for th...">
<polygon fill="#ffffff" stroke="#ff0000" points="378.5,-224.5 378.5,-243.5 518.5,-243.5 518.5,-224.5 378.5,-224.5"/>
<text text-anchor="middle" x="448.5" y="-231.5" font-family="Helvetica,sans-Serif" font-size="10.00" fill="#000000">SpeciesThermoInterpType.h</text>
</a>
</g>
</g>
<!-- Node28&#45;&gt;Node29 -->
<g id="edge15" class="edge">
<title>Node28&#45;&gt;Node29</title>
<path fill="none" stroke="#191970" d="M454.2807,-280.2455C453.3673,-272.9382 452.0868,-262.6944 450.9631,-253.7046"/>
<polygon fill="#191970" stroke="#191970" points="454.4187,-253.1313 449.7053,-243.6427 447.4728,-253.9996 454.4187,-253.1313"/>
</g>
<!-- Node29&#45;&gt;Node4 -->
<g id="edge17" class="edge">
<title>Node29&#45;&gt;Node4</title>
<path fill="none" stroke="#191970" d="M434.0425,-224.2455C421.4268,-215.7337 402.9056,-203.2375 388.2955,-193.3801"/>
<polygon fill="#191970" stroke="#191970" points="390.0391,-190.3343 379.7918,-187.6427 386.1239,-196.1371 390.0391,-190.3343"/>
</g>
<!-- Node29&#45;&gt;Node6 -->
<g id="edge16" class="edge">
<title>Node29&#45;&gt;Node6</title>
<path fill="none" stroke="#191970" d="M450.4254,-224.4862C455.8233,-197.8144 471.1845,-121.9117 478.5141,-85.695"/>
<polygon fill="#191970" stroke="#191970" points="481.9578,-86.3235 480.511,-75.8279 475.0969,-84.9349 481.9578,-86.3235"/>
</g>
<!-- Node29&#45;&gt;Node21 -->
<g id="edge18" class="edge">
<title>Node29&#45;&gt;Node21</title>
<path fill="none" stroke="#191970" d="M465.5703,-224.2455C480.747,-215.5731 503.1621,-202.7645 520.5563,-192.825"/>
<polygon fill="#191970" stroke="#191970" points="522.6794,-195.643 529.6253,-187.6427 519.2064,-189.5653 522.6794,-195.643"/>
</g>
<!-- Node21&#45;&gt;Node5 -->
<g id="edge20" class="edge">
<title>Node21&#45;&gt;Node5</title>
<path fill="none" stroke="#191970" d="M552.074,-168.2455C556.4331,-160.617 562.6211,-149.7881 567.9133,-140.5267"/>
<polygon fill="#191970" stroke="#191970" points="571.0673,-142.0616 572.9899,-131.6427 564.9896,-138.5886 571.0673,-142.0616"/>
</g>
<!-- Node21&#45;&gt;Node6 -->
<g id="edge19" class="edge">
<title>Node21&#45;&gt;Node6</title>
<path fill="none" stroke="#191970" d="M541.0434,-168.4509C530.4162,-149.8533 506.7811,-108.4919 493.0122,-84.3964"/>
<polygon fill="#191970" stroke="#191970" points="495.9431,-82.4708 487.9428,-75.5249 489.8654,-85.9438 495.9431,-82.4708"/>
</g>
<!-- Node31&#45;&gt;Node5 -->
<g id="edge24" class="edge">
<title>Node31&#45;&gt;Node5</title>
<path fill="none" stroke="#191970" d="M665.2104,-168.2455C648.7238,-159.4527 624.2648,-146.4079 605.5235,-136.4125"/>
<polygon fill="#191970" stroke="#191970" points="607.0506,-133.2604 596.58,-131.6427 603.7565,-139.4368 607.0506,-133.2604"/>
</g>
<!-- Node31&#45;&gt;Node6 -->
<g id="edge23" class="edge">
<title>Node31&#45;&gt;Node6</title>
<path fill="none" stroke="#191970" d="M679.2078,-168.3786C672.2918,-153.9719 657.3198,-126.8988 636.5,-112 602.1008,-87.3837 554.4403,-75.7909 521.2865,-70.4294"/>
<polygon fill="#191970" stroke="#191970" points="521.4753,-66.9187 511.0672,-68.899 520.4385,-73.8415 521.4753,-66.9187"/>
</g>
<!-- Node31&#45;&gt;Node12 -->
<g id="edge25" class="edge">
<title>Node31&#45;&gt;Node12</title>
<path fill="none" stroke="#191970" d="M681.0024,-168.1792C677.3905,-154.9005 669.9748,-130.7283 659.5,-112 641.2455,-79.3621 612.7735,-46.3264 594.9027,-27.027"/>
<polygon fill="#191970" stroke="#191970" points="597.3541,-24.5248 587.9536,-19.638 592.2549,-29.3205 597.3541,-24.5248"/>
</g>
</g>
</svg>
