<?xml version="1.0" encoding="UTF-8" standalone="no"?>
<!DOCTYPE svg PUBLIC "-//W3C//DTD SVG 1.1//EN"
 "http://www.w3.org/Graphics/SVG/1.1/DTD/svg11.dtd">
<!-- Generated by graphviz version 2.40.1 (20161225.0304)
 -->
<!-- Title: TransportData.h Pages: 1 -->
<svg width="785pt" height="252pt"
 viewBox="0.00 0.00 784.50 252.00" xmlns="http://www.w3.org/2000/svg" xmlns:xlink="http://www.w3.org/1999/xlink">
<g id="graph0" class="graph" transform="scale(1 1) rotate(0) translate(4 248)">
<title>TransportData.h</title>
<polygon fill="#ffffff" stroke="transparent" points="-4,4 -4,-248 780.5,-248 780.5,4 -4,4"/>
<!-- Node10 -->
<g id="node1" class="node">
<title>Node10</title>
<polygon fill="#bfbfbf" stroke="#000000" points="150,-224.5 150,-243.5 237,-243.5 237,-224.5 150,-224.5"/>
<text text-anchor="middle" x="193.5" y="-231.5" font-family="Helvetica,sans-Serif" font-size="10.00" fill="#000000">TransportData.h</text>
</g>
<!-- Node11 -->
<g id="node2" class="node">
<title>Node11</title>
<g id="a_node2"><a xlink:href="Species_8cpp_source.html" target="_top" xlink:title="Species.cpp">
<polygon fill="#ffffff" stroke="#000000" points="0,-168.5 0,-187.5 71,-187.5 71,-168.5 0,-168.5"/>
<text text-anchor="middle" x="35.5" y="-175.5" font-family="Helvetica,sans-Serif" font-size="10.00" fill="#000000">Species.cpp</text>
</a>
</g>
</g>
<!-- Node10&#45;&gt;Node11 -->
<g id="edge1" class="edge">
<title>Node10&#45;&gt;Node11</title>
<path fill="none" stroke="#191970" d="M156.6045,-220.9231C127.7213,-210.686 88.2294,-196.6889 62.3067,-187.5011"/>
<polygon fill="#191970" stroke="#191970" points="155.7441,-224.3314 166.3388,-224.3733 158.0826,-217.7336 155.7441,-224.3314"/>
</g>
<!-- Node12 -->
<g id="node3" class="node">
<title>Node12</title>
<g id="a_node3"><a xlink:href="GasTransport_8cpp.html" target="_top" xlink:title="GasTransport.cpp">
<polygon fill="#ffffff" stroke="#000000" points="89,-168.5 89,-187.5 184,-187.5 184,-168.5 89,-168.5"/>
<text text-anchor="middle" x="136.5" y="-175.5" font-family="Helvetica,sans-Serif" font-size="10.00" fill="#000000">GasTransport.cpp</text>
</a>
</g>
</g>
<!-- Node10&#45;&gt;Node12 -->
<g id="edge2" class="edge">
<title>Node10&#45;&gt;Node12</title>
<path fill="none" stroke="#191970" d="M176.2729,-217.0751C166.4659,-207.4402 154.536,-195.7196 146.3149,-187.6427"/>
<polygon fill="#191970" stroke="#191970" points="173.9851,-219.734 183.5714,-224.2455 178.8909,-214.7406 173.9851,-219.734"/>
</g>
<!-- Node13 -->
<g id="node4" class="node">
<title>Node13</title>
<g id="a_node4"><a xlink:href="TransportData_8cpp.html" target="_top" xlink:title="TransportData.cpp">
<polygon fill="#ffffff" stroke="#000000" points="202.5,-168.5 202.5,-187.5 300.5,-187.5 300.5,-168.5 202.5,-168.5"/>
<text text-anchor="middle" x="251.5" y="-175.5" font-family="Helvetica,sans-Serif" font-size="10.00" fill="#000000">TransportData.cpp</text>
</a>
</g>
</g>
<!-- Node10&#45;&gt;Node13 -->
<g id="edge3" class="edge">
<title>Node10&#45;&gt;Node13</title>
<path fill="none" stroke="#191970" d="M211.0293,-217.0751C221.0083,-207.4402 233.1476,-195.7196 241.5129,-187.6427"/>
<polygon fill="#191970" stroke="#191970" points="208.3658,-214.7817 203.6028,-224.2455 213.228,-219.8175 208.3658,-214.7817"/>
</g>
<!-- Node14 -->
<g id="node5" class="node">
<title>Node14</title>
<g id="a_node5"><a xlink:href="LiquidTransportData_8h.html" target="_top" xlink:title="Header file defining class LiquidTransportData. ">
<polygon fill="#ffffff" stroke="#000000" points="319,-168.5 319,-187.5 432,-187.5 432,-168.5 319,-168.5"/>
<text text-anchor="middle" x="375.5" y="-175.5" font-family="Helvetica,sans-Serif" font-size="10.00" fill="#000000">LiquidTransportData.h</text>
</a>
</g>
</g>
<!-- Node10&#45;&gt;Node14 -->
<g id="edge4" class="edge">
<title>Node10&#45;&gt;Node14</title>
<path fill="none" stroke="#191970" d="M234.6986,-221.3235C268.0758,-211.0536 314.3699,-196.8093 344.6214,-187.5011"/>
<polygon fill="#191970" stroke="#191970" points="233.3154,-218.0871 224.7869,-224.3733 235.374,-224.7776 233.3154,-218.0871"/>
</g>
<!-- Node15 -->
<g id="node6" class="node">
<title>Node15</title>
<g id="a_node6"><a xlink:href="LiquidTransportData_8cpp.html" target="_top" xlink:title="Source code for liquid transport property evaluations. ">
<polygon fill="#ffffff" stroke="#000000" points="245,-112.5 245,-131.5 368,-131.5 368,-112.5 245,-112.5"/>
<text text-anchor="middle" x="306.5" y="-119.5" font-family="Helvetica,sans-Serif" font-size="10.00" fill="#000000">LiquidTransportData.cpp</text>
</a>
</g>
</g>
<!-- Node14&#45;&gt;Node15 -->
<g id="edge5" class="edge">
<title>Node14&#45;&gt;Node15</title>
<path fill="none" stroke="#191970" d="M355.697,-161.928C343.6364,-152.1397 328.6286,-139.9595 318.3812,-131.6427"/>
<polygon fill="#191970" stroke="#191970" points="353.5109,-164.6614 363.4811,-168.2455 357.9221,-159.2262 353.5109,-164.6614"/>
</g>
<!-- Node16 -->
<g id="node7" class="node">
<title>Node16</title>
<g id="a_node7"><a xlink:href="LiquidTranInteraction_8h.html" target="_top" xlink:title="Header file defining the class LiquidTranInteraction and classes which derive from LiquidTranInteract...">
<polygon fill="#ffffff" stroke="#000000" points="386.5,-112.5 386.5,-131.5 502.5,-131.5 502.5,-112.5 386.5,-112.5"/>
<text text-anchor="middle" x="444.5" y="-119.5" font-family="Helvetica,sans-Serif" font-size="10.00" fill="#000000">LiquidTranInteraction.h</text>
</a>
</g>
</g>
<!-- Node14&#45;&gt;Node16 -->
<g id="edge6" class="edge">
<title>Node14&#45;&gt;Node16</title>
<path fill="none" stroke="#191970" d="M395.303,-161.928C407.3636,-152.1397 422.3714,-139.9595 432.6188,-131.6427"/>
<polygon fill="#191970" stroke="#191970" points="393.0779,-159.2262 387.5189,-168.2455 397.4891,-164.6614 393.0779,-159.2262"/>
</g>
<!-- Node17 -->
<g id="node8" class="node">
<title>Node17</title>
<g id="a_node8"><a xlink:href="LiquidTransportParams_8h.html" target="_top" xlink:title="Header file defining class LiquidTransportParams. ">
<polygon fill="#ffffff" stroke="#000000" points="382,-56.5 382,-75.5 507,-75.5 507,-56.5 382,-56.5"/>
<text text-anchor="middle" x="444.5" y="-63.5" font-family="Helvetica,sans-Serif" font-size="10.00" fill="#000000">LiquidTransportParams.h</text>
</a>
</g>
</g>
<!-- Node16&#45;&gt;Node17 -->
<g id="edge7" class="edge">
<title>Node16&#45;&gt;Node17</title>
<path fill="none" stroke="#191970" d="M444.5,-102.1575C444.5,-93.155 444.5,-82.9199 444.5,-75.6427"/>
<polygon fill="#191970" stroke="#191970" points="441.0001,-102.2455 444.5,-112.2455 448.0001,-102.2456 441.0001,-102.2455"/>
</g>
<!-- Node18 -->
<g id="node9" class="node">
<title>Node18</title>
<g id="a_node9"><a xlink:href="LiquidTranInteraction_8cpp.html" target="_top" xlink:title="Source code for liquid mixture transport property evaluations. ">
<polygon fill="#ffffff" stroke="#000000" points="44.5,-.5 44.5,-19.5 170.5,-19.5 170.5,-.5 44.5,-.5"/>
<text text-anchor="middle" x="107.5" y="-7.5" font-family="Helvetica,sans-Serif" font-size="10.00" fill="#000000">LiquidTranInteraction.cpp</text>
</a>
</g>
</g>
<!-- Node17&#45;&gt;Node18 -->
<g id="edge8" class="edge">
<title>Node17&#45;&gt;Node18</title>
<path fill="none" stroke="#191970" d="M376.8454,-54.7577C314.6618,-44.4245 223.4901,-29.2743 164.8121,-19.5237"/>
<polygon fill="#191970" stroke="#191970" points="376.5121,-58.2502 386.9505,-56.4369 377.6596,-51.3449 376.5121,-58.2502"/>
</g>
<!-- Node19 -->
<g id="node10" class="node">
<title>Node19</title>
<g id="a_node10"><a xlink:href="LiquidTransportParams_8cpp.html" target="_top" xlink:title="Source code for liquid mixture transport property evaluations. ">
<polygon fill="#ffffff" stroke="#000000" points="188.5,-.5 188.5,-19.5 324.5,-19.5 324.5,-.5 188.5,-.5"/>
<text text-anchor="middle" x="256.5" y="-7.5" font-family="Helvetica,sans-Serif" font-size="10.00" fill="#000000">LiquidTransportParams.cpp</text>
</a>
</g>
</g>
<!-- Node17&#45;&gt;Node19 -->
<g id="edge9" class="edge">
<title>Node17&#45;&gt;Node19</title>
<path fill="none" stroke="#191970" d="M402.3883,-53.4561C367.8782,-43.1765 319.7801,-28.8494 288.3966,-19.5011"/>
<polygon fill="#191970" stroke="#191970" points="401.5986,-56.8728 412.1816,-56.3733 403.597,-50.1641 401.5986,-56.8728"/>
</g>
<!-- Node20 -->
<g id="node11" class="node">
<title>Node20</title>
<g id="a_node11"><a xlink:href="LiquidTransport_8h.html" target="_top" xlink:title="Header file defining class LiquidTransport. ">
<polygon fill="#ffffff" stroke="#ff0000" points="342.5,-.5 342.5,-19.5 434.5,-19.5 434.5,-.5 342.5,-.5"/>
<text text-anchor="middle" x="388.5" y="-7.5" font-family="Helvetica,sans-Serif" font-size="10.00" fill="#000000">LiquidTransport.h</text>
</a>
</g>
</g>
<!-- Node17&#45;&gt;Node20 -->
<g id="edge10" class="edge">
<title>Node17&#45;&gt;Node20</title>
<path fill="none" stroke="#191970" d="M427.5751,-49.0751C417.9402,-39.4402 406.2196,-27.7196 398.1427,-19.6427"/>
<polygon fill="#191970" stroke="#191970" points="425.1996,-51.6493 434.7455,-56.2455 430.1493,-46.6996 425.1996,-51.6493"/>
</g>
<!-- Node23 -->
<g id="node12" class="node">
<title>Node23</title>
<g id="a_node12"><a xlink:href="SimpleTransport_8h.html" target="_top" xlink:title="Header file for the class SimpleTransport which provides simple transport properties for liquids and ...">
<polygon fill="#ffffff" stroke="#ff0000" points="452.5,-.5 452.5,-19.5 548.5,-19.5 548.5,-.5 452.5,-.5"/>
<text text-anchor="middle" x="500.5" y="-7.5" font-family="Helvetica,sans-Serif" font-size="10.00" fill="#000000">SimpleTransport.h</text>
</a>
</g>
</g>
<!-- Node17&#45;&gt;Node23 -->
<g id="edge11" class="edge">
<title>Node17&#45;&gt;Node23</title>
<path fill="none" stroke="#191970" d="M461.4249,-49.0751C471.0598,-39.4402 482.7804,-27.7196 490.8573,-19.6427"/>
<polygon fill="#191970" stroke="#191970" points="458.8507,-46.6996 454.2545,-56.2455 463.8004,-51.6493 458.8507,-46.6996"/>
</g>
<!-- Node25 -->
<g id="node13" class="node">
<title>Node25</title>
<g id="a_node13"><a xlink:href="TransportFactory_8h.html" target="_top" xlink:title="Header file defining class TransportFactory (see TransportFactory) ">
<polygon fill="#ffffff" stroke="#ff0000" points="567,-.5 567,-19.5 666,-19.5 666,-.5 567,-.5"/>
<text text-anchor="middle" x="616.5" y="-7.5" font-family="Helvetica,sans-Serif" font-size="10.00" fill="#000000">TransportFactory.h</text>
</a>
</g>
</g>
<!-- Node17&#45;&gt;Node25 -->
<g id="edge12" class="edge">
<title>Node17&#45;&gt;Node25</title>
<path fill="none" stroke="#191970" d="M483.8435,-53.1905C515.3551,-42.9309 558.8519,-28.7691 587.318,-19.5011"/>
<polygon fill="#191970" stroke="#191970" points="482.493,-49.9493 474.0679,-56.3733 484.6601,-56.6054 482.493,-49.9493"/>
</g>
<!-- Node28 -->
<g id="node14" class="node">
<title>Node28</title>
<g id="a_node14"><a xlink:href="WaterTransport_8h.html" target="_top" xlink:title="Header file defining class WaterTransport. ">
<polygon fill="#ffffff" stroke="#ff0000" points="684.5,-.5 684.5,-19.5 776.5,-19.5 776.5,-.5 684.5,-.5"/>
<text text-anchor="middle" x="730.5" y="-7.5" font-family="Helvetica,sans-Serif" font-size="10.00" fill="#000000">WaterTransport.h</text>
</a>
</g>
</g>
<!-- Node17&#45;&gt;Node28 -->
<g id="edge13" class="edge">
<title>Node17&#45;&gt;Node28</title>
<path fill="none" stroke="#191970" d="M503.3814,-54.4708C556.9641,-43.979 634.9955,-28.7002 684.2294,-19.06"/>
<polygon fill="#191970" stroke="#191970" points="502.4813,-51.0805 493.3402,-56.4369 503.8264,-57.95 502.4813,-51.0805"/>
</g>
</g>
</svg>
