<?xml version="1.0" encoding="UTF-8" standalone="no"?>
<!DOCTYPE svg PUBLIC "-//W3C//DTD SVG 1.1//EN"
 "http://www.w3.org/Graphics/SVG/1.1/DTD/svg11.dtd">
<!-- Generated by graphviz version 2.40.1 (20161225.0304)
 -->
<!-- Title: TransportBase.h Pages: 1 -->
<svg width="1632pt" height="364pt"
 viewBox="0.00 0.00 1632.20 364.00" xmlns="http://www.w3.org/2000/svg" xmlns:xlink="http://www.w3.org/1999/xlink">
<g id="graph0" class="graph" transform="scale(1 1) rotate(0) translate(4 360)">
<title>TransportBase.h</title>
<polygon fill="#ffffff" stroke="transparent" points="-4,4 -4,-360 1628.2032,-360 1628.2032,4 -4,4"/>
<!-- Node30 -->
<g id="node1" class="node">
<title>Node30</title>
<polygon fill="#bfbfbf" stroke="#000000" points="714.5339,-336.5 714.5339,-355.5 803.5339,-355.5 803.5339,-336.5 714.5339,-336.5"/>
<text text-anchor="middle" x="759.0339" y="-343.5" font-family="Helvetica,sans-Serif" font-size="10.00" fill="#000000">TransportBase.h</text>
</g>
<!-- Node31 -->
<g id="node2" class="node">
<title>Node31</title>
<g id="a_node2"><a xlink:href="IonFlow_8cpp.html" target="_top" xlink:title="IonFlow.cpp">
<polygon fill="#ffffff" stroke="#000000" points="297.0339,-280.5 297.0339,-299.5 367.0339,-299.5 367.0339,-280.5 297.0339,-280.5"/>
<text text-anchor="middle" x="332.0339" y="-287.5" font-family="Helvetica,sans-Serif" font-size="10.00" fill="#000000">IonFlow.cpp</text>
</a>
</g>
</g>
<!-- Node30&#45;&gt;Node31 -->
<g id="edge1" class="edge">
<title>Node30&#45;&gt;Node31</title>
<path fill="none" stroke="#191970" d="M704.1944,-341.2213C629.6065,-334.3104 492.1557,-320.113 376.0339,-300 373.2551,-299.5187 370.3878,-298.975 367.5117,-298.396"/>
<polygon fill="#191970" stroke="#191970" points="704.0151,-344.7194 714.2931,-342.1479 704.6548,-337.7487 704.0151,-344.7194"/>
</g>
<!-- Node32 -->
<g id="node3" class="node">
<title>Node32</title>
<g id="a_node3"><a xlink:href="StFlow_8cpp.html" target="_top" xlink:title="StFlow.cpp">
<polygon fill="#ffffff" stroke="#000000" points="385.0339,-280.5 385.0339,-299.5 451.0339,-299.5 451.0339,-280.5 385.0339,-280.5"/>
<text text-anchor="middle" x="418.0339" y="-287.5" font-family="Helvetica,sans-Serif" font-size="10.00" fill="#000000">StFlow.cpp</text>
</a>
</g>
</g>
<!-- Node30&#45;&gt;Node32 -->
<g id="edge2" class="edge">
<title>Node30&#45;&gt;Node32</title>
<path fill="none" stroke="#191970" d="M704.4842,-338.961C644.3701,-330.8896 544.9364,-316.61 460.0339,-300 457.2386,-299.4531 454.3477,-298.8483 451.4512,-298.2147"/>
<polygon fill="#191970" stroke="#191970" points="704.1369,-342.4456 714.512,-340.2987 705.0626,-335.5071 704.1369,-342.4456"/>
</g>
<!-- Node33 -->
<g id="node4" class="node">
<title>Node33</title>
<g id="a_node4"><a xlink:href="TransportBase_8cpp.html" target="_top" xlink:title="Mixture&#45;averaged transport properties for ideal gas mixtures. ">
<polygon fill="#ffffff" stroke="#000000" points="469.5339,-280.5 469.5339,-299.5 568.5339,-299.5 568.5339,-280.5 469.5339,-280.5"/>
<text text-anchor="middle" x="519.0339" y="-287.5" font-family="Helvetica,sans-Serif" font-size="10.00" fill="#000000">TransportBase.cpp</text>
</a>
</g>
</g>
<!-- Node30&#45;&gt;Node33 -->
<g id="edge3" class="edge">
<title>Node30&#45;&gt;Node33</title>
<path fill="none" stroke="#191970" d="M708.0873,-334.1125C663.8999,-323.8021 600.7765,-309.0733 559.8496,-299.5237"/>
<polygon fill="#191970" stroke="#191970" points="707.5153,-337.573 718.0491,-336.4369 709.106,-330.7561 707.5153,-337.573"/>
</g>
<!-- Node34 -->
<g id="node5" class="node">
<title>Node34</title>
<g id="a_node5"><a xlink:href="wrappers_8h_source.html" target="_top" xlink:title="wrappers.h">
<polygon fill="#ffffff" stroke="#000000" points="586.5339,-280.5 586.5339,-299.5 651.5339,-299.5 651.5339,-280.5 586.5339,-280.5"/>
<text text-anchor="middle" x="619.0339" y="-287.5" font-family="Helvetica,sans-Serif" font-size="10.00" fill="#000000">wrappers.h</text>
</a>
</g>
</g>
<!-- Node30&#45;&gt;Node34 -->
<g id="edge4" class="edge">
<title>Node30&#45;&gt;Node34</title>
<path fill="none" stroke="#191970" d="M725.669,-332.6541C700.1386,-322.4419 665.5555,-308.6086 642.7867,-299.5011"/>
<polygon fill="#191970" stroke="#191970" points="724.3823,-335.909 734.967,-336.3733 726.9821,-329.4096 724.3823,-335.909"/>
</g>
<!-- Node35 -->
<g id="node6" class="node">
<title>Node35</title>
<g id="a_node6"><a xlink:href="DustyGasTransport_8h.html" target="_top" xlink:title="Headers for the DustyGasTransport object, which models transport properties in porous media using the...">
<polygon fill="#ffffff" stroke="#000000" points="746.0339,-280.5 746.0339,-299.5 856.0339,-299.5 856.0339,-280.5 746.0339,-280.5"/>
<text text-anchor="middle" x="801.0339" y="-287.5" font-family="Helvetica,sans-Serif" font-size="10.00" fill="#000000">DustyGasTransport.h</text>
</a>
</g>
</g>
<!-- Node30&#45;&gt;Node35 -->
<g id="edge5" class="edge">
<title>Node30&#45;&gt;Node35</title>
<path fill="none" stroke="#191970" d="M772.3754,-328.2112C779.4735,-318.7472 787.9241,-307.4797 793.8019,-299.6427"/>
<polygon fill="#191970" stroke="#191970" points="769.5497,-326.1455 766.3497,-336.2455 775.1498,-330.3455 769.5497,-326.1455"/>
</g>
<!-- Node38 -->
<g id="node9" class="node">
<title>Node38</title>
<g id="a_node9"><a xlink:href="GasTransport_8h.html" target="_top" xlink:title="GasTransport.h">
<polygon fill="#ffffff" stroke="#000000" points="444.0339,-168.5 444.0339,-187.5 528.0339,-187.5 528.0339,-168.5 444.0339,-168.5"/>
<text text-anchor="middle" x="486.0339" y="-175.5" font-family="Helvetica,sans-Serif" font-size="10.00" fill="#000000">GasTransport.h</text>
</a>
</g>
</g>
<!-- Node30&#45;&gt;Node38 -->
<g id="edge8" class="edge">
<title>Node30&#45;&gt;Node38</title>
<path fill="none" stroke="#191970" d="M736.7163,-330.5862C716.8078,-316.9652 686.7606,-296.7231 660.0339,-280 603.3372,-244.5243 534.3844,-205.2061 503.0245,-187.5269"/>
<polygon fill="#191970" stroke="#191970" points="734.8764,-333.5684 745.1017,-336.3421 738.8379,-327.7972 734.8764,-333.5684"/>
</g>
<!-- Node49 -->
<g id="node20" class="node">
<title>Node49</title>
<g id="a_node20"><a xlink:href="TransportParams_8h.html" target="_top" xlink:title="Class that holds the data that is read in from the XML file, and which is used for processing of the ...">
<polygon fill="#ffffff" stroke="#000000" points="1011.0339,-224.5 1011.0339,-243.5 1111.0339,-243.5 1111.0339,-224.5 1011.0339,-224.5"/>
<text text-anchor="middle" x="1061.0339" y="-231.5" font-family="Helvetica,sans-Serif" font-size="10.00" fill="#000000">TransportParams.h</text>
</a>
</g>
</g>
<!-- Node30&#45;&gt;Node49 -->
<g id="edge26" class="edge">
<title>Node30&#45;&gt;Node49</title>
<path fill="none" stroke="#191970" d="M814.0954,-340.303C857.8508,-334.3082 919.8244,-322.4866 970.0339,-300 1002.4511,-285.4817 1034.7694,-258.2481 1050.7447,-243.7168"/>
<polygon fill="#191970" stroke="#191970" points="813.3986,-336.8643 803.9386,-341.6349 814.3089,-343.8049 813.3986,-336.8643"/>
</g>
<!-- Node55 -->
<g id="node26" class="node">
<title>Node55</title>
<g id="a_node26"><a xlink:href="LiquidTransport_8h.html" target="_top" xlink:title="Header file defining class LiquidTransport. ">
<polygon fill="#ffffff" stroke="#ff0000" points="890.0339,-56.5 890.0339,-75.5 982.0339,-75.5 982.0339,-56.5 890.0339,-56.5"/>
<text text-anchor="middle" x="936.0339" y="-63.5" font-family="Helvetica,sans-Serif" font-size="10.00" fill="#000000">LiquidTransport.h</text>
</a>
</g>
</g>
<!-- Node30&#45;&gt;Node55 -->
<g id="edge56" class="edge">
<title>Node30&#45;&gt;Node55</title>
<path fill="none" stroke="#191970" d="M813.9359,-338.6197C872.2255,-327.3367 956.0339,-299.6918 956.0339,-234 956.0339,-234 956.0339,-234 956.0339,-178 956.0339,-139.6811 944.5483,-95.1199 938.9849,-75.7832"/>
<polygon fill="#191970" stroke="#191970" points="812.946,-335.2424 803.7362,-340.4798 814.2019,-342.1289 812.946,-335.2424"/>
</g>
<!-- Node59 -->
<g id="node28" class="node">
<title>Node59</title>
<g id="a_node28"><a xlink:href="TransportFactory_8h.html" target="_top" xlink:title="Header file defining class TransportFactory (see TransportFactory) ">
<polygon fill="#ffffff" stroke="#ff0000" points="336.5339,-56.5 336.5339,-75.5 435.5339,-75.5 435.5339,-56.5 336.5339,-56.5"/>
<text text-anchor="middle" x="386.0339" y="-63.5" font-family="Helvetica,sans-Serif" font-size="10.00" fill="#000000">TransportFactory.h</text>
</a>
</g>
</g>
<!-- Node30&#45;&gt;Node59 -->
<g id="edge58" class="edge">
<title>Node30&#45;&gt;Node59</title>
<path fill="none" stroke="#191970" d="M742.9166,-328.9777C702.8801,-287.4416 594.3647,-179.3761 487.0339,-112 462.882,-96.8389 432.8986,-83.8333 411.8987,-75.5582"/>
<polygon fill="#191970" stroke="#191970" points="740.5465,-331.5632 749.9902,-336.3661 745.6029,-326.7224 740.5465,-331.5632"/>
</g>
<!-- Node66 -->
<g id="node33" class="node">
<title>Node66</title>
<g id="a_node33"><a xlink:href="LiquidTransportData_8h.html" target="_top" xlink:title="Header file defining class LiquidTransportData. ">
<polygon fill="#ffffff" stroke="#000000" points="1162.5339,-224.5 1162.5339,-243.5 1275.5339,-243.5 1275.5339,-224.5 1162.5339,-224.5"/>
<text text-anchor="middle" x="1219.0339" y="-231.5" font-family="Helvetica,sans-Serif" font-size="10.00" fill="#000000">LiquidTransportData.h</text>
</a>
</g>
</g>
<!-- Node30&#45;&gt;Node66 -->
<g id="edge46" class="edge">
<title>Node30&#45;&gt;Node66</title>
<path fill="none" stroke="#191970" d="M813.8527,-337.365C863.3433,-329.1572 938.0017,-315.7493 1002.0339,-300 1070.8622,-283.071 1150.1822,-257.319 1191.2122,-243.5208"/>
<polygon fill="#191970" stroke="#191970" points="812.9864,-333.9604 803.6868,-339.0365 814.1222,-340.8676 812.9864,-333.9604"/>
</g>
<!-- Node68 -->
<g id="node35" class="node">
<title>Node68</title>
<g id="a_node35"><a xlink:href="LTPspecies_8h.html" target="_top" xlink:title="Header file defining class LTPspecies and its child classes. ">
<polygon fill="#ffffff" stroke="#000000" points="1288.5339,-280.5 1288.5339,-299.5 1365.5339,-299.5 1365.5339,-280.5 1288.5339,-280.5"/>
<text text-anchor="middle" x="1327.0339" y="-287.5" font-family="Helvetica,sans-Serif" font-size="10.00" fill="#000000">LTPspecies.h</text>
</a>
</g>
</g>
<!-- Node30&#45;&gt;Node68 -->
<g id="edge49" class="edge">
<title>Node30&#45;&gt;Node68</title>
<path fill="none" stroke="#191970" d="M813.8742,-340.5932C928.2284,-329.3188 1189.6981,-303.5401 1288.3768,-293.8113"/>
<polygon fill="#191970" stroke="#191970" points="813.2122,-337.1414 803.6039,-341.6058 813.8991,-344.1076 813.2122,-337.1414"/>
</g>
<!-- Node70 -->
<g id="node37" class="node">
<title>Node70</title>
<g id="a_node37"><a xlink:href="SolidTransport_8h.html" target="_top" xlink:title="Header file for defining the class SolidTransport, which handles transport of ions within solid phase...">
<polygon fill="#ffffff" stroke="#000000" points="1495.0339,-224.5 1495.0339,-243.5 1583.0339,-243.5 1583.0339,-224.5 1495.0339,-224.5"/>
<text text-anchor="middle" x="1539.0339" y="-231.5" font-family="Helvetica,sans-Serif" font-size="10.00" fill="#000000">SolidTransport.h</text>
</a>
</g>
</g>
<!-- Node30&#45;&gt;Node70 -->
<g id="edge57" class="edge">
<title>Node30&#45;&gt;Node70</title>
<path fill="none" stroke="#191970" d="M813.6729,-344.0731C943.7868,-339.1376 1269.0129,-324.6645 1375.0339,-300 1430.0372,-287.2041 1490.6959,-258.7066 1520.4656,-243.6889"/>
<polygon fill="#191970" stroke="#191970" points="813.4013,-340.5807 803.5395,-344.4531 813.6637,-347.5758 813.4013,-340.5807"/>
</g>
<!-- Node36 -->
<g id="node7" class="node">
<title>Node36</title>
<g id="a_node7"><a xlink:href="DustyGasTransport_8cpp.html" target="_top" xlink:title="Implementation file for class DustyGasTransport. ">
<polygon fill="#ffffff" stroke="#000000" points="806.5339,-224.5 806.5339,-243.5 927.5339,-243.5 927.5339,-224.5 806.5339,-224.5"/>
<text text-anchor="middle" x="867.0339" y="-231.5" font-family="Helvetica,sans-Serif" font-size="10.00" fill="#000000">DustyGasTransport.cpp</text>
</a>
</g>
</g>
<!-- Node35&#45;&gt;Node36 -->
<g id="edge6" class="edge">
<title>Node35&#45;&gt;Node36</title>
<path fill="none" stroke="#191970" d="M820.3094,-273.645C831.7877,-263.9058 845.9616,-251.8795 855.6693,-243.6427"/>
<polygon fill="#191970" stroke="#191970" points="817.8909,-271.1069 812.5302,-280.2455 822.4197,-276.4445 817.8909,-271.1069"/>
</g>
<!-- Node37 -->
<g id="node8" class="node">
<title>Node37</title>
<g id="a_node8"><a xlink:href="TransportFactory_8cpp.html" target="_top" xlink:title="Implementation file for class TransportFactory. ">
<polygon fill="#ffffff" stroke="#000000" points="769.0339,-.5 769.0339,-19.5 879.0339,-19.5 879.0339,-.5 769.0339,-.5"/>
<text text-anchor="middle" x="824.0339" y="-7.5" font-family="Helvetica,sans-Serif" font-size="10.00" fill="#000000">TransportFactory.cpp</text>
</a>
</g>
</g>
<!-- Node35&#45;&gt;Node37 -->
<g id="edge7" class="edge">
<title>Node35&#45;&gt;Node37</title>
<path fill="none" stroke="#191970" d="M798.2825,-269.9285C796.8667,-256.8389 795.6923,-239.3903 797.0339,-224 802.8336,-157.4672 816.7303,-142.4869 823.0339,-76 824.9159,-56.1492 824.7015,-32.7927 824.3711,-19.8667"/>
<polygon fill="#191970" stroke="#191970" points="794.8441,-270.6466 799.5317,-280.148 801.7924,-269.7972 794.8441,-270.6466"/>
</g>
<!-- Node39 -->
<g id="node10" class="node">
<title>Node39</title>
<g id="a_node10"><a xlink:href="GasTransport_8cpp.html" target="_top" xlink:title="GasTransport.cpp">
<polygon fill="#ffffff" stroke="#000000" points="362.5339,-112.5 362.5339,-131.5 457.5339,-131.5 457.5339,-112.5 362.5339,-112.5"/>
<text text-anchor="middle" x="410.0339" y="-119.5" font-family="Helvetica,sans-Serif" font-size="10.00" fill="#000000">GasTransport.cpp</text>
</a>
</g>
</g>
<!-- Node38&#45;&gt;Node39 -->
<g id="edge9" class="edge">
<title>Node38&#45;&gt;Node39</title>
<path fill="none" stroke="#191970" d="M464.6042,-162.2097C451.2561,-152.3743 434.516,-140.0394 423.1203,-131.6427"/>
<polygon fill="#191970" stroke="#191970" points="462.6689,-165.1312 472.7957,-168.2455 466.8213,-159.4958 462.6689,-165.1312"/>
</g>
<!-- Node40 -->
<g id="node11" class="node">
<title>Node40</title>
<g id="a_node11"><a xlink:href="HighPressureGasTransport_8h.html" target="_top" xlink:title="Interface for class HighPressureGasTransport. ">
<polygon fill="#ffffff" stroke="#000000" points="175.5339,-56.5 175.5339,-75.5 318.5339,-75.5 318.5339,-56.5 175.5339,-56.5"/>
<text text-anchor="middle" x="247.0339" y="-63.5" font-family="Helvetica,sans-Serif" font-size="10.00" fill="#000000">HighPressureGasTransport.h</text>
</a>
</g>
</g>
<!-- Node38&#45;&gt;Node40 -->
<g id="edge10" class="edge">
<title>Node38&#45;&gt;Node40</title>
<path fill="none" stroke="#191970" d="M485.2343,-158.1605C483.5515,-143.3537 478.8359,-123.7317 466.0339,-112 454.3441,-101.2875 368.5058,-85.5315 307.8411,-75.5207"/>
<polygon fill="#191970" stroke="#191970" points="481.76,-158.6309 486.0137,-168.3343 488.7396,-158.0962 481.76,-158.6309"/>
</g>
<!-- Node42 -->
<g id="node13" class="node">
<title>Node42</title>
<g id="a_node13"><a xlink:href="MixTransport_8h.html" target="_top" xlink:title="Headers for the MixTransport object, which models transport properties in ideal gas solutions using a...">
<polygon fill="#ffffff" stroke="#000000" points="715.0339,-112.5 715.0339,-131.5 797.0339,-131.5 797.0339,-112.5 715.0339,-112.5"/>
<text text-anchor="middle" x="756.0339" y="-119.5" font-family="Helvetica,sans-Serif" font-size="10.00" fill="#000000">MixTransport.h</text>
</a>
</g>
</g>
<!-- Node38&#45;&gt;Node42 -->
<g id="edge13" class="edge">
<title>Node38&#45;&gt;Node42</title>
<path fill="none" stroke="#191970" d="M538.1726,-167.186C589.7684,-156.4847 667.6971,-140.3217 715.0267,-130.5052"/>
<polygon fill="#191970" stroke="#191970" points="537.3022,-163.792 528.2214,-169.25 538.7238,-170.6461 537.3022,-163.792"/>
</g>
<!-- Node47 -->
<g id="node18" class="node">
<title>Node47</title>
<g id="a_node18"><a xlink:href="MultiTransport_8h.html" target="_top" xlink:title="Interface for class MultiTransport. ">
<polygon fill="#ffffff" stroke="#000000" points="103.5339,-112.5 103.5339,-131.5 190.5339,-131.5 190.5339,-112.5 103.5339,-112.5"/>
<text text-anchor="middle" x="147.0339" y="-119.5" font-family="Helvetica,sans-Serif" font-size="10.00" fill="#000000">MultiTransport.h</text>
</a>
</g>
</g>
<!-- Node38&#45;&gt;Node47 -->
<g id="edge21" class="edge">
<title>Node38&#45;&gt;Node47</title>
<path fill="none" stroke="#191970" d="M433.9045,-169.3887C367.2169,-158.3724 252.9118,-139.4902 190.621,-129.2002"/>
<polygon fill="#191970" stroke="#191970" points="433.348,-172.8441 443.7847,-171.0208 434.4889,-165.9377 433.348,-172.8441"/>
</g>
<!-- Node40&#45;&gt;Node37 -->
<g id="edge12" class="edge">
<title>Node40&#45;&gt;Node37</title>
<path fill="none" stroke="#191970" d="M328.9554,-55.8176C495.0066,-37.9065 678.9054,-22.0305 768.8169,-14.5286"/>
<polygon fill="#191970" stroke="#191970" points="328.1146,-52.3881 318.5499,-56.9452 328.8688,-59.3473 328.1146,-52.3881"/>
</g>
<!-- Node41 -->
<g id="node12" class="node">
<title>Node41</title>
<g id="a_node12"><a xlink:href="HighPressureGasTransport_8cpp.html" target="_top" xlink:title="Implementation file for class HighPressureGasTransport. ">
<polygon fill="#ffffff" stroke="#000000" points="43.0339,-.5 43.0339,-19.5 197.0339,-19.5 197.0339,-.5 43.0339,-.5"/>
<text text-anchor="middle" x="120.0339" y="-7.5" font-family="Helvetica,sans-Serif" font-size="10.00" fill="#000000">HighPressureGasTransport.cpp</text>
</a>
</g>
</g>
<!-- Node40&#45;&gt;Node41 -->
<g id="edge11" class="edge">
<title>Node40&#45;&gt;Node41</title>
<path fill="none" stroke="#191970" d="M215.8447,-52.2473C192.7801,-42.0771 161.9627,-28.4883 141.5811,-19.5011"/>
<polygon fill="#191970" stroke="#191970" points="214.6397,-55.5411 225.2018,-56.3733 217.464,-49.1361 214.6397,-55.5411"/>
</g>
<!-- Node42&#45;&gt;Node37 -->
<g id="edge15" class="edge">
<title>Node42&#45;&gt;Node37</title>
<path fill="none" stroke="#191970" d="M777.1116,-106.0167C786.5156,-97.9287 797.0295,-87.4128 804.0339,-76 815.1815,-57.8363 820.4961,-33.0232 822.6999,-19.5889"/>
<polygon fill="#191970" stroke="#191970" points="774.7647,-103.4148 769.2493,-112.4609 779.2021,-108.8287 774.7647,-103.4148"/>
</g>
<!-- Node43 -->
<g id="node14" class="node">
<title>Node43</title>
<g id="a_node14"><a xlink:href="MixTransport_8cpp.html" target="_top" xlink:title="Mixture&#45;averaged transport properties for ideal gas mixtures. ">
<polygon fill="#ffffff" stroke="#000000" points="454.0339,-56.5 454.0339,-75.5 546.0339,-75.5 546.0339,-56.5 454.0339,-56.5"/>
<text text-anchor="middle" x="500.0339" y="-63.5" font-family="Helvetica,sans-Serif" font-size="10.00" fill="#000000">MixTransport.cpp</text>
</a>
</g>
</g>
<!-- Node42&#45;&gt;Node43 -->
<g id="edge14" class="edge">
<title>Node42&#45;&gt;Node43</title>
<path fill="none" stroke="#191970" d="M704.885,-110.8112C657.6643,-100.4817 588.2866,-85.3053 543.633,-75.5373"/>
<polygon fill="#191970" stroke="#191970" points="704.3861,-114.2847 714.903,-113.0026 705.882,-107.4464 704.3861,-114.2847"/>
</g>
<!-- Node44 -->
<g id="node15" class="node">
<title>Node44</title>
<g id="a_node15"><a xlink:href="IonGasTransport_8h.html" target="_top" xlink:title="IonGasTransport.h">
<polygon fill="#ffffff" stroke="#000000" points="564.0339,-56.5 564.0339,-75.5 662.0339,-75.5 662.0339,-56.5 564.0339,-56.5"/>
<text text-anchor="middle" x="613.0339" y="-63.5" font-family="Helvetica,sans-Serif" font-size="10.00" fill="#000000">IonGasTransport.h</text>
</a>
</g>
</g>
<!-- Node42&#45;&gt;Node44 -->
<g id="edge16" class="edge">
<title>Node42&#45;&gt;Node44</title>
<path fill="none" stroke="#191970" d="M721.954,-108.6541C695.8766,-98.4419 660.5524,-84.6086 637.2957,-75.5011"/>
<polygon fill="#191970" stroke="#191970" points="720.8635,-111.9858 731.4513,-112.3733 723.4161,-105.4677 720.8635,-111.9858"/>
</g>
<!-- Node46 -->
<g id="node17" class="node">
<title>Node46</title>
<g id="a_node17"><a xlink:href="UnityLewisTransport_8h.html" target="_top" xlink:title="Headers for the UnityLewisTransport object, which models transport properties in ideal gas solutions ...">
<polygon fill="#ffffff" stroke="#000000" points="680.5339,-56.5 680.5339,-75.5 795.5339,-75.5 795.5339,-56.5 680.5339,-56.5"/>
<text text-anchor="middle" x="738.0339" y="-63.5" font-family="Helvetica,sans-Serif" font-size="10.00" fill="#000000">UnityLewisTransport.h</text>
</a>
</g>
</g>
<!-- Node42&#45;&gt;Node46 -->
<g id="edge19" class="edge">
<title>Node42&#45;&gt;Node46</title>
<path fill="none" stroke="#191970" d="M749.7512,-102.4538C746.8347,-93.3803 743.4981,-82.9998 741.1333,-75.6427"/>
<polygon fill="#191970" stroke="#191970" points="746.5062,-103.7963 752.8985,-112.2455 753.1704,-101.6542 746.5062,-103.7963"/>
</g>
<!-- Node44&#45;&gt;Node37 -->
<g id="edge18" class="edge">
<title>Node44&#45;&gt;Node37</title>
<path fill="none" stroke="#191970" d="M659.3036,-53.7199C698.1015,-43.4228 752.7098,-28.9296 788.235,-19.5011"/>
<polygon fill="#191970" stroke="#191970" points="658.0736,-50.4251 649.3061,-56.3733 659.8693,-57.1909 658.0736,-50.4251"/>
</g>
<!-- Node45 -->
<g id="node16" class="node">
<title>Node45</title>
<g id="a_node16"><a xlink:href="IonGasTransport_8cpp.html" target="_top" xlink:title="IonGasTransport.cpp">
<polygon fill="#ffffff" stroke="#000000" points="559.0339,-.5 559.0339,-19.5 667.0339,-19.5 667.0339,-.5 559.0339,-.5"/>
<text text-anchor="middle" x="613.0339" y="-7.5" font-family="Helvetica,sans-Serif" font-size="10.00" fill="#000000">IonGasTransport.cpp</text>
</a>
</g>
</g>
<!-- Node44&#45;&gt;Node45 -->
<g id="edge17" class="edge">
<title>Node44&#45;&gt;Node45</title>
<path fill="none" stroke="#191970" d="M613.0339,-46.1575C613.0339,-37.155 613.0339,-26.9199 613.0339,-19.6427"/>
<polygon fill="#191970" stroke="#191970" points="609.534,-46.2455 613.0339,-56.2455 616.534,-46.2456 609.534,-46.2455"/>
</g>
<!-- Node46&#45;&gt;Node37 -->
<g id="edge20" class="edge">
<title>Node46&#45;&gt;Node37</title>
<path fill="none" stroke="#191970" d="M761.4244,-50.769C776.6638,-40.8456 796.0848,-28.1994 809.2255,-19.6427"/>
<polygon fill="#191970" stroke="#191970" points="759.484,-47.8558 753.0139,-56.2455 763.3038,-53.7218 759.484,-47.8558"/>
</g>
<!-- Node47&#45;&gt;Node37 -->
<g id="edge24" class="edge">
<title>Node47&#45;&gt;Node37</title>
<path fill="none" stroke="#191970" d="M147.0701,-101.678C148.2797,-86.6116 152.5888,-66.8757 166.0339,-56 167.4972,-54.8163 610.9147,-24.5135 768.9223,-13.7497"/>
<polygon fill="#191970" stroke="#191970" points="143.5571,-101.9316 146.6494,-112.0651 150.5513,-102.2149 143.5571,-101.9316"/>
</g>
<!-- Node47&#45;&gt;Node40 -->
<g id="edge25" class="edge">
<title>Node47&#45;&gt;Node40</title>
<path fill="none" stroke="#191970" d="M173.2436,-107.3225C191.1056,-97.3198 214.2494,-84.3593 229.8148,-75.6427"/>
<polygon fill="#191970" stroke="#191970" points="171.4675,-104.3057 164.4525,-112.2455 174.8877,-110.4132 171.4675,-104.3057"/>
</g>
<!-- Node47&#45;&gt;Node41 -->
<g id="edge22" class="edge">
<title>Node47&#45;&gt;Node41</title>
<path fill="none" stroke="#191970" d="M93.2559,-110.4169C60.0389,-102.0496 21.9268,-89.8224 12.0339,-76 -7.9171,-48.1246 36.5517,-29.714 74.3372,-19.5842"/>
<polygon fill="#191970" stroke="#191970" points="92.8259,-113.9147 103.3708,-112.8873 94.4868,-107.1146 92.8259,-113.9147"/>
</g>
<!-- Node48 -->
<g id="node19" class="node">
<title>Node48</title>
<g id="a_node19"><a xlink:href="MultiTransport_8cpp.html" target="_top" xlink:title="Implementation file for class MultiTransport. ">
<polygon fill="#ffffff" stroke="#000000" points="21.0339,-56.5 21.0339,-75.5 119.0339,-75.5 119.0339,-56.5 21.0339,-56.5"/>
<text text-anchor="middle" x="70.0339" y="-63.5" font-family="Helvetica,sans-Serif" font-size="10.00" fill="#000000">MultiTransport.cpp</text>
</a>
</g>
</g>
<!-- Node47&#45;&gt;Node48 -->
<g id="edge23" class="edge">
<title>Node47&#45;&gt;Node48</title>
<path fill="none" stroke="#191970" d="M125.3222,-106.2097C111.7985,-96.3743 94.8381,-84.0394 83.2925,-75.6427"/>
<polygon fill="#191970" stroke="#191970" points="123.4755,-109.1944 133.6215,-112.2455 127.5927,-103.5332 123.4755,-109.1944"/>
</g>
<!-- Node49&#45;&gt;Node41 -->
<g id="edge27" class="edge">
<title>Node49&#45;&gt;Node41</title>
<path fill="none" stroke="#191970" d="M1000.7021,-229.0742C980.1823,-227.4253 957.1116,-225.6004 936.0339,-224 726.9295,-208.1234 105.8762,-259.3162 4.0339,-76 -12.5074,-46.2258 28.1963,-28.8834 65.8568,-19.513"/>
<polygon fill="#191970" stroke="#191970" points="1000.6133,-232.5783 1010.8621,-229.893 1001.1756,-225.6009 1000.6133,-232.5783"/>
</g>
<!-- Node50 -->
<g id="node21" class="node">
<title>Node50</title>
<g id="a_node21"><a xlink:href="TransportParams_8cpp.html" target="_top" xlink:title="Class that holds the data that is read in from the XML file, and which is used for processing of the ...">
<polygon fill="#ffffff" stroke="#000000" points="984.0339,-168.5 984.0339,-187.5 1094.0339,-187.5 1094.0339,-168.5 984.0339,-168.5"/>
<text text-anchor="middle" x="1039.0339" y="-175.5" font-family="Helvetica,sans-Serif" font-size="10.00" fill="#000000">TransportParams.cpp</text>
</a>
</g>
</g>
<!-- Node49&#45;&gt;Node50 -->
<g id="edge28" class="edge">
<title>Node49&#45;&gt;Node50</title>
<path fill="none" stroke="#191970" d="M1053.4711,-214.7493C1049.8792,-205.6064 1045.7438,-195.0798 1042.8221,-187.6427"/>
<polygon fill="#191970" stroke="#191970" points="1050.2875,-216.2178 1057.2018,-224.2455 1056.8028,-213.6582 1050.2875,-216.2178"/>
</g>
<!-- Node51 -->
<g id="node22" class="node">
<title>Node51</title>
<g id="a_node22"><a xlink:href="LiquidTranInteraction_8h.html" target="_top" xlink:title="Header file defining the class LiquidTranInteraction and classes which derive from LiquidTranInteract...">
<polygon fill="#ffffff" stroke="#000000" points="1150.0339,-168.5 1150.0339,-187.5 1266.0339,-187.5 1266.0339,-168.5 1150.0339,-168.5"/>
<text text-anchor="middle" x="1208.0339" y="-175.5" font-family="Helvetica,sans-Serif" font-size="10.00" fill="#000000">LiquidTranInteraction.h</text>
</a>
</g>
</g>
<!-- Node49&#45;&gt;Node51 -->
<g id="edge29" class="edge">
<title>Node49&#45;&gt;Node51</title>
<path fill="none" stroke="#191970" d="M1095.7133,-220.7888C1122.5537,-210.5639 1159.0808,-196.6488 1183.0934,-187.5011"/>
<polygon fill="#191970" stroke="#191970" points="1094.4029,-217.5425 1086.3041,-224.3733 1096.895,-224.0839 1094.4029,-217.5425"/>
</g>
<!-- Node52 -->
<g id="node23" class="node">
<title>Node52</title>
<g id="a_node23"><a xlink:href="LiquidTransportParams_8h.html" target="_top" xlink:title="Header file defining class LiquidTransportParams. ">
<polygon fill="#ffffff" stroke="#000000" points="1097.5339,-112.5 1097.5339,-131.5 1222.5339,-131.5 1222.5339,-112.5 1097.5339,-112.5"/>
<text text-anchor="middle" x="1160.0339" y="-119.5" font-family="Helvetica,sans-Serif" font-size="10.00" fill="#000000">LiquidTransportParams.h</text>
</a>
</g>
</g>
<!-- Node49&#45;&gt;Node52 -->
<g id="edge41" class="edge">
<title>Node49&#45;&gt;Node52</title>
<path fill="none" stroke="#191970" d="M1077.0594,-216.6758C1084.9397,-208.0993 1094.5449,-197.5592 1103.0339,-188 1120.5263,-168.3022 1140.5725,-144.8907 1151.6199,-131.9138"/>
<polygon fill="#191970" stroke="#191970" points="1074.3278,-214.4751 1070.1253,-224.2008 1079.4756,-219.2186 1074.3278,-214.4751"/>
</g>
<!-- Node63 -->
<g id="node30" class="node">
<title>Node63</title>
<g id="a_node30"><a xlink:href="SolidTransportData_8h.html" target="_top" xlink:title="Header file defining class SolidTransportData. ">
<polygon fill="#ffffff" stroke="#000000" points="1284.5339,-168.5 1284.5339,-187.5 1393.5339,-187.5 1393.5339,-168.5 1284.5339,-168.5"/>
<text text-anchor="middle" x="1339.0339" y="-175.5" font-family="Helvetica,sans-Serif" font-size="10.00" fill="#000000">SolidTransportData.h</text>
</a>
</g>
</g>
<!-- Node49&#45;&gt;Node63 -->
<g id="edge42" class="edge">
<title>Node49&#45;&gt;Node63</title>
<path fill="none" stroke="#191970" d="M1118.438,-222.4366C1169.6886,-212.1127 1243.8497,-197.1738 1291.7556,-187.5237"/>
<polygon fill="#191970" stroke="#191970" points="1117.6198,-219.031 1108.5079,-224.4369 1119.0022,-225.8932 1117.6198,-219.031"/>
</g>
<!-- Node51&#45;&gt;Node52 -->
<g id="edge30" class="edge">
<title>Node51&#45;&gt;Node52</title>
<path fill="none" stroke="#191970" d="M1193.0342,-160.5004C1184.8717,-150.9775 1175.085,-139.5596 1168.299,-131.6427"/>
<polygon fill="#191970" stroke="#191970" points="1190.5075,-162.9307 1199.6729,-168.2455 1195.8224,-158.3752 1190.5075,-162.9307"/>
</g>
<!-- Node53 -->
<g id="node24" class="node">
<title>Node53</title>
<g id="a_node24"><a xlink:href="LiquidTranInteraction_8cpp.html" target="_top" xlink:title="Source code for liquid mixture transport property evaluations. ">
<polygon fill="#ffffff" stroke="#000000" points="1378.0339,-56.5 1378.0339,-75.5 1504.0339,-75.5 1504.0339,-56.5 1378.0339,-56.5"/>
<text text-anchor="middle" x="1441.0339" y="-63.5" font-family="Helvetica,sans-Serif" font-size="10.00" fill="#000000">LiquidTranInteraction.cpp</text>
</a>
</g>
</g>
<!-- Node52&#45;&gt;Node53 -->
<g id="edge31" class="edge">
<title>Node52&#45;&gt;Node53</title>
<path fill="none" stroke="#191970" d="M1218.0574,-110.4366C1269.8611,-100.1127 1344.8225,-85.1738 1393.2454,-75.5237"/>
<polygon fill="#191970" stroke="#191970" points="1217.1433,-107.0499 1208.0202,-112.4369 1218.5114,-113.9149 1217.1433,-107.0499"/>
</g>
<!-- Node54 -->
<g id="node25" class="node">
<title>Node54</title>
<g id="a_node25"><a xlink:href="LiquidTransportParams_8cpp.html" target="_top" xlink:title="Source code for liquid mixture transport property evaluations. ">
<polygon fill="#ffffff" stroke="#000000" points="1114.0339,-56.5 1114.0339,-75.5 1250.0339,-75.5 1250.0339,-56.5 1114.0339,-56.5"/>
<text text-anchor="middle" x="1182.0339" y="-63.5" font-family="Helvetica,sans-Serif" font-size="10.00" fill="#000000">LiquidTransportParams.cpp</text>
</a>
</g>
</g>
<!-- Node52&#45;&gt;Node54 -->
<g id="edge32" class="edge">
<title>Node52&#45;&gt;Node54</title>
<path fill="none" stroke="#191970" d="M1167.5967,-102.7493C1171.1885,-93.6064 1175.3239,-83.0798 1178.2457,-75.6427"/>
<polygon fill="#191970" stroke="#191970" points="1164.2649,-101.6582 1163.866,-112.2455 1170.7802,-104.2178 1164.2649,-101.6582"/>
</g>
<!-- Node52&#45;&gt;Node55 -->
<g id="edge33" class="edge">
<title>Node52&#45;&gt;Node55</title>
<path fill="none" stroke="#191970" d="M1111.9619,-109.982C1070.7464,-99.6781 1012.1661,-85.0331 974.1285,-75.5237"/>
<polygon fill="#191970" stroke="#191970" points="1111.2311,-113.407 1121.7814,-112.4369 1112.9289,-106.616 1111.2311,-113.407"/>
</g>
<!-- Node57 -->
<g id="node27" class="node">
<title>Node57</title>
<g id="a_node27"><a xlink:href="SimpleTransport_8h.html" target="_top" xlink:title="Header file for the class SimpleTransport which provides simple transport properties for liquids and ...">
<polygon fill="#ffffff" stroke="#ff0000" points="1000.0339,-56.5 1000.0339,-75.5 1096.0339,-75.5 1096.0339,-56.5 1000.0339,-56.5"/>
<text text-anchor="middle" x="1048.0339" y="-63.5" font-family="Helvetica,sans-Serif" font-size="10.00" fill="#000000">SimpleTransport.h</text>
</a>
</g>
</g>
<!-- Node52&#45;&gt;Node57 -->
<g id="edge35" class="edge">
<title>Node52&#45;&gt;Node57</title>
<path fill="none" stroke="#191970" d="M1131.7076,-107.8368C1111.4617,-97.7139 1084.7697,-84.3679 1067.0361,-75.5011"/>
<polygon fill="#191970" stroke="#191970" points="1130.2708,-111.0316 1140.7804,-112.3733 1133.4014,-104.7706 1130.2708,-111.0316"/>
</g>
<!-- Node52&#45;&gt;Node59 -->
<g id="edge37" class="edge">
<title>Node52&#45;&gt;Node59</title>
<path fill="none" stroke="#191970" d="M1086.9921,-119.8006C957.3581,-115.3405 678.7047,-103.245 445.0339,-76 441.9381,-75.639 438.7577,-75.2254 435.5549,-74.7763"/>
<polygon fill="#191970" stroke="#191970" points="1087.0795,-123.3055 1097.1924,-120.1463 1087.3167,-116.3095 1087.0795,-123.3055"/>
</g>
<!-- Node61 -->
<g id="node29" class="node">
<title>Node61</title>
<g id="a_node29"><a xlink:href="WaterTransport_8h.html" target="_top" xlink:title="Header file defining class WaterTransport. ">
<polygon fill="#ffffff" stroke="#ff0000" points="1268.0339,-56.5 1268.0339,-75.5 1360.0339,-75.5 1360.0339,-56.5 1268.0339,-56.5"/>
<text text-anchor="middle" x="1314.0339" y="-63.5" font-family="Helvetica,sans-Serif" font-size="10.00" fill="#000000">WaterTransport.h</text>
</a>
</g>
</g>
<!-- Node52&#45;&gt;Node61 -->
<g id="edge40" class="edge">
<title>Node52&#45;&gt;Node61</title>
<path fill="none" stroke="#191970" d="M1195.9953,-108.9231C1224.1473,-98.686 1262.6394,-84.6889 1287.9058,-75.5011"/>
<polygon fill="#191970" stroke="#191970" points="1194.7092,-105.6665 1186.5074,-112.3733 1197.1015,-112.245 1194.7092,-105.6665"/>
</g>
<!-- Node55&#45;&gt;Node37 -->
<g id="edge34" class="edge">
<title>Node55&#45;&gt;Node37</title>
<path fill="none" stroke="#191970" d="M907.7076,-51.8368C887.4617,-41.7139 860.7697,-28.3679 843.0361,-19.5011"/>
<polygon fill="#191970" stroke="#191970" points="906.2708,-55.0316 916.7804,-56.3733 909.4014,-48.7706 906.2708,-55.0316"/>
</g>
<!-- Node57&#45;&gt;Node37 -->
<g id="edge36" class="edge">
<title>Node57&#45;&gt;Node37</title>
<path fill="none" stroke="#191970" d="M999.9619,-53.982C958.7464,-43.6781 900.1661,-29.0331 862.1285,-19.5237"/>
<polygon fill="#191970" stroke="#191970" points="999.2311,-57.407 1009.7814,-56.4369 1000.9289,-50.616 999.2311,-57.407"/>
</g>
<!-- Node59&#45;&gt;Node37 -->
<g id="edge39" class="edge">
<title>Node59&#45;&gt;Node37</title>
<path fill="none" stroke="#191970" d="M445.8092,-55.9465C567.3311,-38.4559 697.1838,-23.6823 769.0074,-15.856"/>
<polygon fill="#191970" stroke="#191970" points="444.9766,-52.5305 435.5816,-57.428 445.9801,-59.4582 444.9766,-52.5305"/>
</g>
<!-- Node59&#45;&gt;Node41 -->
<g id="edge38" class="edge">
<title>Node59&#45;&gt;Node41</title>
<path fill="none" stroke="#191970" d="M330.8009,-54.372C281.7737,-44.0505 211.0139,-29.1537 165.2713,-19.5237"/>
<polygon fill="#191970" stroke="#191970" points="330.1025,-57.8016 340.6091,-56.4369 331.5446,-50.9518 330.1025,-57.8016"/>
</g>
<!-- Node63&#45;&gt;Node37 -->
<g id="edge45" class="edge">
<title>Node63&#45;&gt;Node37</title>
<path fill="none" stroke="#191970" d="M1385.5819,-165.6516C1451.4318,-146.0789 1558.9428,-105.0762 1513.0339,-56 1491.4714,-32.95 1038.9895,-16.6904 879.2656,-11.6507"/>
<polygon fill="#191970" stroke="#191970" points="1384.4228,-162.3435 1375.7965,-168.4946 1386.3759,-169.0656 1384.4228,-162.3435"/>
</g>
<!-- Node64 -->
<g id="node31" class="node">
<title>Node64</title>
<g id="a_node31"><a xlink:href="SolidTransport_8cpp.html" target="_top" xlink:title="Definition file for the class SolidTransport, which handles transport of ions within solid phases (se...">
<polygon fill="#ffffff" stroke="#000000" points="1514.0339,-112.5 1514.0339,-131.5 1612.0339,-131.5 1612.0339,-112.5 1514.0339,-112.5"/>
<text text-anchor="middle" x="1563.0339" y="-119.5" font-family="Helvetica,sans-Serif" font-size="10.00" fill="#000000">SolidTransport.cpp</text>
</a>
</g>
</g>
<!-- Node63&#45;&gt;Node64 -->
<g id="edge43" class="edge">
<title>Node63&#45;&gt;Node64</title>
<path fill="none" stroke="#191970" d="M1387.1059,-165.982C1428.3214,-155.6781 1486.9016,-141.0331 1524.9392,-131.5237"/>
<polygon fill="#191970" stroke="#191970" points="1386.1388,-162.616 1377.2863,-168.4369 1387.8366,-169.407 1386.1388,-162.616"/>
</g>
<!-- Node65 -->
<g id="node32" class="node">
<title>Node65</title>
<g id="a_node32"><a xlink:href="SolidTransportData_8cpp.html" target="_top" xlink:title="Source code for solid transport property evaluations. ">
<polygon fill="#ffffff" stroke="#000000" points="1279.5339,-112.5 1279.5339,-131.5 1398.5339,-131.5 1398.5339,-112.5 1279.5339,-112.5"/>
<text text-anchor="middle" x="1339.0339" y="-119.5" font-family="Helvetica,sans-Serif" font-size="10.00" fill="#000000">SolidTransportData.cpp</text>
</a>
</g>
</g>
<!-- Node63&#45;&gt;Node65 -->
<g id="edge44" class="edge">
<title>Node63&#45;&gt;Node65</title>
<path fill="none" stroke="#191970" d="M1339.0339,-158.1575C1339.0339,-149.155 1339.0339,-138.9199 1339.0339,-131.6427"/>
<polygon fill="#191970" stroke="#191970" points="1335.534,-158.2455 1339.0339,-168.2455 1342.534,-158.2456 1335.534,-158.2455"/>
</g>
<!-- Node66&#45;&gt;Node51 -->
<g id="edge48" class="edge">
<title>Node66&#45;&gt;Node51</title>
<path fill="none" stroke="#191970" d="M1215.1362,-214.1575C1213.3679,-205.155 1211.3574,-194.9199 1209.928,-187.6427"/>
<polygon fill="#191970" stroke="#191970" points="1211.7559,-215.1077 1217.1178,-224.2455 1218.6246,-213.7584 1211.7559,-215.1077"/>
</g>
<!-- Node67 -->
<g id="node34" class="node">
<title>Node67</title>
<g id="a_node34"><a xlink:href="LiquidTransportData_8cpp.html" target="_top" xlink:title="Source code for liquid transport property evaluations. ">
<polygon fill="#ffffff" stroke="#000000" points="1411.5339,-168.5 1411.5339,-187.5 1534.5339,-187.5 1534.5339,-168.5 1411.5339,-168.5"/>
<text text-anchor="middle" x="1473.0339" y="-175.5" font-family="Helvetica,sans-Serif" font-size="10.00" fill="#000000">LiquidTransportData.cpp</text>
</a>
</g>
</g>
<!-- Node66&#45;&gt;Node67 -->
<g id="edge47" class="edge">
<title>Node66&#45;&gt;Node67</title>
<path fill="none" stroke="#191970" d="M1272.3627,-222.2425C1319.1544,-211.9262 1386.3406,-197.1135 1429.8372,-187.5237"/>
<polygon fill="#191970" stroke="#191970" points="1271.4213,-218.8659 1262.4094,-224.4369 1272.9285,-225.7017 1271.4213,-218.8659"/>
</g>
<!-- Node68&#45;&gt;Node63 -->
<g id="edge55" class="edge">
<title>Node68&#45;&gt;Node63</title>
<path fill="none" stroke="#191970" d="M1329.1478,-270.2702C1331.7483,-245.9985 1336.0582,-205.7725 1338.0133,-187.5249"/>
<polygon fill="#191970" stroke="#191970" points="1325.6423,-270.135 1328.057,-280.4509 1332.6025,-270.8807 1325.6423,-270.135"/>
</g>
<!-- Node68&#45;&gt;Node66 -->
<g id="edge51" class="edge">
<title>Node68&#45;&gt;Node66</title>
<path fill="none" stroke="#191970" d="M1299.2568,-275.5971C1279.8957,-265.558 1254.5954,-252.4393 1237.6304,-243.6427"/>
<polygon fill="#191970" stroke="#191970" points="1297.733,-278.7495 1308.2217,-280.2455 1300.9553,-272.5352 1297.733,-278.7495"/>
</g>
<!-- Node69 -->
<g id="node36" class="node">
<title>Node69</title>
<g id="a_node36"><a xlink:href="LTPspecies_8cpp.html" target="_top" xlink:title=" definitions for the LTPspecies objects and its children, which is the virtual base class for descri...">
<polygon fill="#ffffff" stroke="#000000" points="1355.5339,-224.5 1355.5339,-243.5 1442.5339,-243.5 1442.5339,-224.5 1355.5339,-224.5"/>
<text text-anchor="middle" x="1399.0339" y="-231.5" font-family="Helvetica,sans-Serif" font-size="10.00" fill="#000000">LTPspecies.cpp</text>
</a>
</g>
</g>
<!-- Node68&#45;&gt;Node69 -->
<g id="edge50" class="edge">
<title>Node68&#45;&gt;Node69</title>
<path fill="none" stroke="#191970" d="M1347.6978,-273.928C1360.2828,-264.1397 1375.9431,-251.9595 1386.6361,-243.6427"/>
<polygon fill="#191970" stroke="#191970" points="1345.32,-271.3434 1339.5753,-280.2455 1349.6177,-276.8688 1345.32,-271.3434"/>
</g>
<!-- Node68&#45;&gt;Node70 -->
<g id="edge52" class="edge">
<title>Node68&#45;&gt;Node70</title>
<path fill="none" stroke="#191970" d="M1373.5228,-277.7199C1412.5047,-267.4228 1467.3717,-252.9296 1503.0653,-243.5011"/>
<polygon fill="#191970" stroke="#191970" points="1372.2525,-274.4353 1363.478,-280.3733 1374.0402,-281.2032 1372.2525,-274.4353"/>
</g>
<!-- Node70&#45;&gt;Node37 -->
<g id="edge54" class="edge">
<title>Node70&#45;&gt;Node37</title>
<path fill="none" stroke="#191970" d="M1558.2674,-217.686C1578.3548,-199.2617 1608.6309,-167.2236 1621.0339,-132 1638.3098,-82.9376 1581.5178,-72.0287 1532.0339,-56 1470.6234,-36.1081 1035.0624,-17.9495 879.2719,-12.0234"/>
<polygon fill="#191970" stroke="#191970" points="1555.7579,-215.2341 1550.6183,-224.4988 1560.4137,-220.4614 1555.7579,-215.2341"/>
</g>
<!-- Node70&#45;&gt;Node64 -->
<g id="edge53" class="edge">
<title>Node70&#45;&gt;Node64</title>
<path fill="none" stroke="#191970" d="M1543.1913,-214.5987C1548.3847,-190.363 1557.0649,-149.8551 1560.9928,-131.5249"/>
<polygon fill="#191970" stroke="#191970" points="1539.7531,-213.9395 1541.0801,-224.4509 1546.5978,-215.4063 1539.7531,-213.9395"/>
</g>
</g>
</svg>
