<?xml version="1.0" encoding="UTF-8" standalone="no"?>
<!DOCTYPE svg PUBLIC "-//W3C//DTD SVG 1.1//EN"
 "http://www.w3.org/Graphics/SVG/1.1/DTD/svg11.dtd">
<!-- Generated by graphviz version 2.40.1 (20161225.0304)
 -->
<!-- Title: VPStandardStateTP.cpp Pages: 1 -->
<svg width="1331pt" height="554pt"
 viewBox="0.00 0.00 1331.31 554.00" xmlns="http://www.w3.org/2000/svg" xmlns:xlink="http://www.w3.org/1999/xlink">
<g id="graph0" class="graph" transform="scale(1 1) rotate(0) translate(4 550)">
<title>VPStandardStateTP.cpp</title>
<polygon fill="#ffffff" stroke="transparent" points="-4,4 -4,-550 1327.3087,-550 1327.3087,4 -4,4"/>
<!-- Node0 -->
<g id="node1" class="node">
<title>Node0</title>
<polygon fill="#bfbfbf" stroke="#000000" points="631,-526.5 631,-545.5 755,-545.5 755,-526.5 631,-526.5"/>
<text text-anchor="middle" x="693" y="-533.5" font-family="Helvetica,sans-Serif" font-size="10.00" fill="#000000">VPStandardStateTP.cpp</text>
</g>
<!-- Node1 -->
<g id="node2" class="node">
<title>Node1</title>
<g id="a_node2"><a xlink:href="VPStandardStateTP_8h.html" target="_top" xlink:title="Header file for a derived class of ThermoPhase that handles variable pressure standard state methods ...">
<polygon fill="#ffffff" stroke="#000000" points="710.5,-336.5 710.5,-366.5 847.5,-366.5 847.5,-336.5 710.5,-336.5"/>
<text text-anchor="start" x="718.5" y="-354.5" font-family="Helvetica,sans-Serif" font-size="10.00" fill="#000000">cantera/thermo/VPStandard</text>
<text text-anchor="middle" x="779" y="-343.5" font-family="Helvetica,sans-Serif" font-size="10.00" fill="#000000">StateTP.h</text>
</a>
</g>
</g>
<!-- Node0&#45;&gt;Node1 -->
<g id="edge1" class="edge">
<title>Node0&#45;&gt;Node1</title>
<path fill="none" stroke="#191970" d="M689.9301,-526.1598C683.2977,-502.9274 670.002,-443.5783 693,-403 700.6725,-389.4624 713.4767,-379.0988 726.8919,-371.3436"/>
<polygon fill="#191970" stroke="#191970" points="728.574,-374.4132 735.7481,-366.6168 725.278,-368.2377 728.574,-374.4132"/>
</g>
<!-- Node31 -->
<g id="node15" class="node">
<title>Node31</title>
<g id="a_node15"><a xlink:href="PDSS_8h.html" target="_top" xlink:title="Declarations for the virtual base class PDSS (pressure dependent standard state) which handles calcul...">
<polygon fill="#ffffff" stroke="#000000" points="554.5,-280.5 554.5,-299.5 607.5,-299.5 607.5,-280.5 554.5,-280.5"/>
<text text-anchor="middle" x="581" y="-287.5" font-family="Helvetica,sans-Serif" font-size="10.00" fill="#000000">PDSS.h</text>
</a>
</g>
</g>
<!-- Node0&#45;&gt;Node31 -->
<g id="edge22" class="edge">
<title>Node0&#45;&gt;Node31</title>
<path fill="none" stroke="#191970" d="M668.9362,-526.3592C653.1675,-518.7985 633.4286,-506.7392 622,-490 583.4214,-433.4951 579.7106,-348.4911 580.2192,-310.0925"/>
<polygon fill="#191970" stroke="#191970" points="583.7265,-309.8398 580.4786,-299.7552 576.7287,-309.6642 583.7265,-309.8398"/>
</g>
<!-- Node32 -->
<g id="node16" class="node">
<title>Node32</title>
<g id="a_node16"><a xlink:href="PDSS__Water_8h.html" target="_top" xlink:title="Implementation of a pressure dependent standard state virtual function for a Pure Water Phase (see Sp...">
<polygon fill="#ffffff" stroke="#000000" points="271.5,-336.5 271.5,-366.5 384.5,-366.5 384.5,-336.5 271.5,-336.5"/>
<text text-anchor="start" x="279.5" y="-354.5" font-family="Helvetica,sans-Serif" font-size="10.00" fill="#000000">cantera/thermo/PDSS</text>
<text text-anchor="middle" x="328" y="-343.5" font-family="Helvetica,sans-Serif" font-size="10.00" fill="#000000">_Water.h</text>
</a>
</g>
</g>
<!-- Node0&#45;&gt;Node32 -->
<g id="edge23" class="edge">
<title>Node0&#45;&gt;Node32</title>
<path fill="none" stroke="#191970" d="M665.6078,-526.4184C641.6122,-517.7458 605.9879,-504.1896 576,-490 496.8072,-452.5278 408.0939,-400.364 361.2128,-371.946"/>
<polygon fill="#191970" stroke="#191970" points="362.7719,-368.7977 352.4095,-366.5904 359.1337,-374.778 362.7719,-368.7977"/>
</g>
<!-- Node36 -->
<g id="node20" class="node">
<title>Node36</title>
<g id="a_node20"><a xlink:href="IonsFromNeutralVPSSTP_8h.html" target="_top" xlink:title="Header for intermediate ThermoPhase object for phases which consist of ions whose thermodynamics is c...">
<polygon fill="#ffffff" stroke="#000000" points="813,-459.5 813,-489.5 971,-489.5 971,-459.5 813,-459.5"/>
<text text-anchor="start" x="821" y="-477.5" font-family="Helvetica,sans-Serif" font-size="10.00" fill="#000000">cantera/thermo/IonsFromNeutral</text>
<text text-anchor="middle" x="892" y="-466.5" font-family="Helvetica,sans-Serif" font-size="10.00" fill="#000000">VPSSTP.h</text>
</a>
</g>
</g>
<!-- Node0&#45;&gt;Node36 -->
<g id="edge30" class="edge">
<title>Node0&#45;&gt;Node36</title>
<path fill="none" stroke="#191970" d="M724.0938,-526.3906C753.2703,-517.3737 797.6567,-503.6563 833.4662,-492.5896"/>
<polygon fill="#191970" stroke="#191970" points="834.7984,-495.8413 843.3191,-489.5446 832.7315,-489.1534 834.7984,-495.8413"/>
</g>
<!-- Node39 -->
<g id="node23" class="node">
<title>Node39</title>
<g id="a_node23"><a xlink:href="utilities_8h.html" target="_top" xlink:title="Various templated functions that carry out common vector operations (see Templated Utility Functions)...">
<polygon fill="#ffffff" stroke="#ff0000" points="1001,-224.5 1001,-243.5 1057,-243.5 1057,-224.5 1001,-224.5"/>
<text text-anchor="middle" x="1029" y="-231.5" font-family="Helvetica,sans-Serif" font-size="10.00" fill="#000000">utilities.h</text>
</a>
</g>
</g>
<!-- Node0&#45;&gt;Node39 -->
<g id="edge51" class="edge">
<title>Node0&#45;&gt;Node39</title>
<path fill="none" stroke="#191970" d="M755.0706,-531.0219C827.5704,-524.3529 942.3889,-510.8818 980,-490 1019.661,-467.9801 1047,-458.3638 1047,-413 1047,-413 1047,-413 1047,-351.5 1047,-316.7391 1039.2076,-276.8538 1033.877,-253.6357"/>
<polygon fill="#191970" stroke="#191970" points="1037.2255,-252.5884 1031.5028,-243.6721 1030.4162,-254.211 1037.2255,-252.5884"/>
</g>
<!-- Node44 -->
<g id="node26" class="node">
<title>Node44</title>
<g id="a_node26"><a xlink:href="SpeciesThermoFactory_8h.html" target="_top" xlink:title="Header for factory functions to build instances of classes that manage the standard&#45;state thermodynam...">
<polygon fill="#ffffff" stroke="#000000" points="1075.5,-459.5 1075.5,-489.5 1228.5,-489.5 1228.5,-459.5 1075.5,-459.5"/>
<text text-anchor="start" x="1083.5" y="-477.5" font-family="Helvetica,sans-Serif" font-size="10.00" fill="#000000">cantera/thermo/SpeciesThermo</text>
<text text-anchor="middle" x="1152" y="-466.5" font-family="Helvetica,sans-Serif" font-size="10.00" fill="#000000">Factory.h</text>
</a>
</g>
</g>
<!-- Node0&#45;&gt;Node44 -->
<g id="edge39" class="edge">
<title>Node0&#45;&gt;Node44</title>
<path fill="none" stroke="#191970" d="M755.2966,-529.0663C828.5745,-520.7129 953.8313,-505.8171 1061,-490 1062.2931,-489.8091 1063.5962,-489.6147 1064.9073,-489.4171"/>
<polygon fill="#191970" stroke="#191970" points="1065.7344,-492.8311 1075.084,-487.8477 1064.6674,-485.9129 1065.7344,-492.8311"/>
</g>
<!-- Node45 -->
<g id="node27" class="node">
<title>Node45</title>
<g id="a_node27"><a xlink:href="PDSSFactory_8h.html" target="_top" xlink:title="cantera/thermo/PDSSFactory.h">
<polygon fill="#ffffff" stroke="#000000" points="702,-403.5 702,-422.5 856,-422.5 856,-403.5 702,-403.5"/>
<text text-anchor="middle" x="779" y="-410.5" font-family="Helvetica,sans-Serif" font-size="10.00" fill="#000000">cantera/thermo/PDSSFactory.h</text>
</a>
</g>
</g>
<!-- Node0&#45;&gt;Node45 -->
<g id="edge41" class="edge">
<title>Node0&#45;&gt;Node45</title>
<path fill="none" stroke="#191970" d="M699.7483,-526.3484C714.1291,-505.7804 747.9843,-457.3596 766.4503,-430.9489"/>
<polygon fill="#191970" stroke="#191970" points="769.4213,-432.8078 772.2831,-422.6068 763.6845,-428.7967 769.4213,-432.8078"/>
</g>
<!-- Node49 -->
<g id="node32" class="node">
<title>Node49</title>
<g id="a_node32"><a xlink:href="ctml_8h.html" target="_top" xlink:title="CTML (&quot;Cantera Markup Language&quot;) is the variant of XML that Cantera uses to store data...">
<polygon fill="#ffffff" stroke="#000000" points="584.5,-224.5 584.5,-243.5 687.5,-243.5 687.5,-224.5 584.5,-224.5"/>
<text text-anchor="middle" x="636" y="-231.5" font-family="Helvetica,sans-Serif" font-size="10.00" fill="#000000">cantera/base/ctml.h</text>
</a>
</g>
</g>
<!-- Node0&#45;&gt;Node49 -->
<g id="edge52" class="edge">
<title>Node0&#45;&gt;Node49</title>
<path fill="none" stroke="#191970" d="M685.0744,-526.4994C669.4124,-506.7237 636,-459.1299 636,-413 636,-413 636,-413 636,-351.5 636,-317.1399 636,-277.128 636,-253.7764"/>
<polygon fill="#191970" stroke="#191970" points="639.5001,-253.7489 636,-243.7489 632.5001,-253.749 639.5001,-253.7489"/>
</g>
<!-- Node2 -->
<g id="node3" class="node">
<title>Node2</title>
<g id="a_node3"><a xlink:href="ThermoPhase_8h.html" target="_top" xlink:title="Header file for class ThermoPhase, the base class for phases with thermodynamic properties, and the text for the Module thermoprops (see Thermodynamic Properties and class ThermoPhase). ">
<polygon fill="#ffffff" stroke="#000000" points="742,-280.5 742,-299.5 828,-299.5 828,-280.5 742,-280.5"/>
<text text-anchor="middle" x="785" y="-287.5" font-family="Helvetica,sans-Serif" font-size="10.00" fill="#000000">ThermoPhase.h</text>
</a>
</g>
</g>
<!-- Node1&#45;&gt;Node2 -->
<g id="edge2" class="edge">
<title>Node1&#45;&gt;Node2</title>
<path fill="none" stroke="#191970" d="M780.4831,-336.2977C781.2553,-328.3834 782.2093,-318.6043 783.0414,-310.0759"/>
<polygon fill="#191970" stroke="#191970" points="786.5517,-310.1396 784.0393,-299.8469 779.5848,-309.4598 786.5517,-310.1396"/>
</g>
<!-- Node1&#45;&gt;Node31 -->
<g id="edge20" class="edge">
<title>Node1&#45;&gt;Node31</title>
<path fill="none" stroke="#191970" d="M730.5638,-336.4554C695.6459,-325.6097 649.2566,-311.2009 617.4529,-301.3225"/>
<polygon fill="#191970" stroke="#191970" points="618.2608,-297.9085 607.6726,-298.2847 616.1843,-304.5935 618.2608,-297.9085"/>
</g>
<!-- Node3 -->
<g id="node4" class="node">
<title>Node3</title>
<g id="a_node4"><a xlink:href="Phase_8h.html" target="_top" xlink:title="Header file for class Phase. ">
<polygon fill="#ffffff" stroke="#000000" points="613.5,-168.5 613.5,-187.5 666.5,-187.5 666.5,-168.5 613.5,-168.5"/>
<text text-anchor="middle" x="640" y="-175.5" font-family="Helvetica,sans-Serif" font-size="10.00" fill="#000000">Phase.h</text>
</a>
</g>
</g>
<!-- Node2&#45;&gt;Node3 -->
<g id="edge3" class="edge">
<title>Node2&#45;&gt;Node3</title>
<path fill="none" stroke="#191970" d="M772.6374,-280.4509C747.704,-261.1921 691.1667,-217.5218 660.5764,-193.8935"/>
<polygon fill="#191970" stroke="#191970" points="662.3849,-190.8679 652.3313,-187.5249 658.1059,-196.4078 662.3849,-190.8679"/>
</g>
<!-- Node28 -->
<g id="node12" class="node">
<title>Node28</title>
<g id="a_node12"><a xlink:href="MultiSpeciesThermo_8h.html" target="_top" xlink:title="Header for a general species thermodynamic property manager for a phase (see MultiSpeciesThermo). ">
<polygon fill="#ffffff" stroke="#000000" points="823,-224.5 823,-243.5 937,-243.5 937,-224.5 823,-224.5"/>
<text text-anchor="middle" x="880" y="-231.5" font-family="Helvetica,sans-Serif" font-size="10.00" fill="#000000">MultiSpeciesThermo.h</text>
</a>
</g>
</g>
<!-- Node2&#45;&gt;Node28 -->
<g id="edge13" class="edge">
<title>Node2&#45;&gt;Node28</title>
<path fill="none" stroke="#191970" d="M801.5477,-280.2455C816.2599,-271.5731 837.9888,-258.7645 854.8505,-248.825"/>
<polygon fill="#191970" stroke="#191970" points="856.8046,-251.736 863.6419,-243.6427 853.2498,-245.7057 856.8046,-251.736"/>
</g>
<!-- Node21 -->
<g id="node14" class="node">
<title>Node21</title>
<g id="a_node14"><a xlink:href="global_8h.html" target="_top" xlink:title="This file contains definitions for utility functions and text for modules, inputfiles, logs, textlogs, (see Input File Handling, Diagnostic Output, and Writing messages to the screen). ">
<polygon fill="#ffffff" stroke="#ff0000" points="959,-112.5 959,-131.5 1069,-131.5 1069,-112.5 959,-112.5"/>
<text text-anchor="middle" x="1014" y="-119.5" font-family="Helvetica,sans-Serif" font-size="10.00" fill="#000000">cantera/base/global.h</text>
</a>
</g>
</g>
<!-- Node2&#45;&gt;Node21 -->
<g id="edge19" class="edge">
<title>Node2&#45;&gt;Node21</title>
<path fill="none" stroke="#191970" d="M828.2531,-281.5402C869.4413,-272.8041 927.7759,-258.4471 946,-244 979.9028,-217.1236 999.5786,-168.4506 1008.3906,-141.4178"/>
<polygon fill="#191970" stroke="#191970" points="1011.8189,-142.1776 1011.423,-131.5902 1005.1301,-140.1137 1011.8189,-142.1776"/>
</g>
<!-- Node4 -->
<g id="node5" class="node">
<title>Node4</title>
<g id="a_node5"><a xlink:href="ctexceptions_8h.html" target="_top" xlink:title="Definitions for the classes that are thrown when Cantera experiences an error condition (also contain...">
<polygon fill="#ffffff" stroke="#ff0000" points="763,-112.5 763,-131.5 903,-131.5 903,-112.5 763,-112.5"/>
<text text-anchor="middle" x="833" y="-119.5" font-family="Helvetica,sans-Serif" font-size="10.00" fill="#000000">cantera/base/ctexceptions.h</text>
</a>
</g>
</g>
<!-- Node3&#45;&gt;Node4 -->
<g id="edge4" class="edge">
<title>Node3&#45;&gt;Node4</title>
<path fill="none" stroke="#191970" d="M666.8358,-170.2134C698.7827,-160.9439 752.5409,-145.3456 790.2377,-134.4077"/>
<polygon fill="#191970" stroke="#191970" points="791.3033,-137.743 799.9318,-131.5949 789.3526,-131.0202 791.3033,-137.743"/>
</g>
<!-- Node18 -->
<g id="node6" class="node">
<title>Node18</title>
<g id="a_node6"><a xlink:href="Elements_8h.html" target="_top" xlink:title="Contains the getElementWeight function and the definitions of element constraint types. ">
<polygon fill="#ffffff" stroke="#000000" points="573,-112.5 573,-131.5 707,-131.5 707,-112.5 573,-112.5"/>
<text text-anchor="middle" x="640" y="-119.5" font-family="Helvetica,sans-Serif" font-size="10.00" fill="#000000">cantera/thermo/Elements.h</text>
</a>
</g>
</g>
<!-- Node3&#45;&gt;Node18 -->
<g id="edge5" class="edge">
<title>Node3&#45;&gt;Node18</title>
<path fill="none" stroke="#191970" d="M640,-168.2455C640,-160.9382 640,-150.6944 640,-141.7046"/>
<polygon fill="#191970" stroke="#191970" points="643.5001,-141.6426 640,-131.6427 636.5001,-141.6427 643.5001,-141.6426"/>
</g>
<!-- Node19 -->
<g id="node10" class="node">
<title>Node19</title>
<g id="a_node10"><a xlink:href="Species_8h.html" target="_top" xlink:title="Declaration for class Cantera::Species. ">
<polygon fill="#ffffff" stroke="#ff0000" points="271,-112.5 271,-131.5 399,-131.5 399,-112.5 271,-112.5"/>
<text text-anchor="middle" x="335" y="-119.5" font-family="Helvetica,sans-Serif" font-size="10.00" fill="#000000">cantera/thermo/Species.h</text>
</a>
</g>
</g>
<!-- Node3&#45;&gt;Node19 -->
<g id="edge9" class="edge">
<title>Node3&#45;&gt;Node19</title>
<path fill="none" stroke="#191970" d="M613.4668,-173.1283C565.4935,-164.3201 463.1612,-145.5312 396.807,-133.3482"/>
<polygon fill="#191970" stroke="#191970" points="397.3525,-129.8899 386.8848,-131.5264 396.0883,-136.7748 397.3525,-129.8899"/>
</g>
<!-- Node26 -->
<g id="node11" class="node">
<title>Node26</title>
<g id="a_node11"><a xlink:href="ValueCache_8h.html" target="_top" xlink:title="cantera/base/ValueCache.h">
<polygon fill="#ffffff" stroke="#ff0000" points="417.5,-112.5 417.5,-131.5 554.5,-131.5 554.5,-112.5 417.5,-112.5"/>
<text text-anchor="middle" x="486" y="-119.5" font-family="Helvetica,sans-Serif" font-size="10.00" fill="#000000">cantera/base/ValueCache.h</text>
</a>
</g>
</g>
<!-- Node3&#45;&gt;Node26 -->
<g id="edge11" class="edge">
<title>Node3&#45;&gt;Node26</title>
<path fill="none" stroke="#191970" d="M613.5265,-168.3733C588.1403,-159.1419 549.6355,-145.1402 521.578,-134.9375"/>
<polygon fill="#191970" stroke="#191970" points="522.7222,-131.6293 512.1281,-131.5011 520.3299,-138.2079 522.7222,-131.6293"/>
</g>
<!-- Node6 -->
<g id="node7" class="node">
<title>Node6</title>
<g id="a_node7"><a xlink:href="ct__defs_8h.html" target="_top" xlink:title="This file contains definitions of terms that are used in internal routines and are unlikely to need m...">
<polygon fill="#ffffff" stroke="#ff0000" points="457.5,-56.5 457.5,-75.5 514.5,-75.5 514.5,-56.5 457.5,-56.5"/>
<text text-anchor="middle" x="486" y="-63.5" font-family="Helvetica,sans-Serif" font-size="10.00" fill="#000000">ct_defs.h</text>
</a>
</g>
</g>
<!-- Node18&#45;&gt;Node6 -->
<g id="edge6" class="edge">
<title>Node18&#45;&gt;Node6</title>
<path fill="none" stroke="#191970" d="M613.5265,-112.3733C588.1403,-103.1419 549.6355,-89.1402 521.578,-78.9375"/>
<polygon fill="#191970" stroke="#191970" points="522.7222,-75.6293 512.1281,-75.5011 520.3299,-82.2079 522.7222,-75.6293"/>
</g>
<!-- Node7 -->
<g id="node8" class="node">
<title>Node7</title>
<g id="a_node8"><a xlink:href="config_8h_source.html" target="_top" xlink:title="config.h">
<polygon fill="#ffffff" stroke="#000000" points="416.5,-.5 416.5,-19.5 467.5,-19.5 467.5,-.5 416.5,-.5"/>
<text text-anchor="middle" x="442" y="-7.5" font-family="Helvetica,sans-Serif" font-size="10.00" fill="#000000">config.h</text>
</a>
</g>
</g>
<!-- Node6&#45;&gt;Node7 -->
<g id="edge7" class="edge">
<title>Node6&#45;&gt;Node7</title>
<path fill="none" stroke="#191970" d="M478.3358,-56.2455C472.1527,-48.3761 463.2937,-37.101 455.8711,-27.6542"/>
<polygon fill="#191970" stroke="#191970" points="458.5068,-25.3435 449.5764,-19.6427 453.0025,-29.6683 458.5068,-25.3435"/>
</g>
<!-- Node10 -->
<g id="node9" class="node">
<title>Node10</title>
<polygon fill="#ffffff" stroke="#bfbfbf" points="507,-.5 507,-19.5 551,-19.5 551,-.5 507,-.5"/>
<text text-anchor="middle" x="529" y="-7.5" font-family="Helvetica,sans-Serif" font-size="10.00" fill="#000000">vector</text>
</g>
<!-- Node6&#45;&gt;Node10 -->
<g id="edge8" class="edge">
<title>Node6&#45;&gt;Node10</title>
<path fill="none" stroke="#191970" d="M493.49,-56.2455C499.5326,-48.3761 508.1903,-37.101 515.4441,-27.6542"/>
<polygon fill="#191970" stroke="#191970" points="518.2815,-29.7058 521.5958,-19.6427 512.7295,-25.4426 518.2815,-29.7058"/>
</g>
<!-- Node19&#45;&gt;Node6 -->
<g id="edge10" class="edge">
<title>Node19&#45;&gt;Node6</title>
<path fill="none" stroke="#191970" d="M360.9578,-112.3733C385.7407,-103.1822 423.2746,-89.2624 450.754,-79.0713"/>
<polygon fill="#191970" stroke="#191970" points="452.2219,-82.26 460.3809,-75.5011 449.7879,-75.6968 452.2219,-82.26"/>
</g>
<!-- Node26&#45;&gt;Node6 -->
<g id="edge12" class="edge">
<title>Node26&#45;&gt;Node6</title>
<path fill="none" stroke="#191970" d="M486,-112.2455C486,-104.9382 486,-94.6944 486,-85.7046"/>
<polygon fill="#191970" stroke="#191970" points="489.5001,-85.6426 486,-75.6427 482.5001,-85.6427 489.5001,-85.6426"/>
</g>
<!-- Node29 -->
<g id="node13" class="node">
<title>Node29</title>
<g id="a_node13"><a xlink:href="SpeciesThermoInterpType_8h.html" target="_top" xlink:title="Pure Virtual Base class for individual species reference state thermodynamic managers and text for th...">
<polygon fill="#ffffff" stroke="#ff0000" points="823,-168.5 823,-187.5 963,-187.5 963,-168.5 823,-168.5"/>
<text text-anchor="middle" x="893" y="-175.5" font-family="Helvetica,sans-Serif" font-size="10.00" fill="#000000">SpeciesThermoInterpType.h</text>
</a>
</g>
</g>
<!-- Node28&#45;&gt;Node29 -->
<g id="edge14" class="edge">
<title>Node28&#45;&gt;Node29</title>
<path fill="none" stroke="#191970" d="M882.2644,-224.2455C883.9794,-216.8579 886.3912,-206.4689 888.4944,-197.4087"/>
<polygon fill="#191970" stroke="#191970" points="891.9095,-198.1751 890.7615,-187.6427 885.0908,-196.5922 891.9095,-198.1751"/>
</g>
<!-- Node29&#45;&gt;Node4 -->
<g id="edge16" class="edge">
<title>Node29&#45;&gt;Node4</title>
<path fill="none" stroke="#191970" d="M882.5488,-168.2455C873.7731,-160.0549 861.0446,-148.1749 850.686,-138.5069"/>
<polygon fill="#191970" stroke="#191970" points="853.0301,-135.9072 843.3314,-131.6427 848.2539,-141.0246 853.0301,-135.9072"/>
</g>
<!-- Node29&#45;&gt;Node6 -->
<g id="edge15" class="edge">
<title>Node29&#45;&gt;Node6</title>
<path fill="none" stroke="#191970" d="M900.8206,-168.2257C911.1202,-154.1117 926.3386,-127.9703 912,-112 886.351,-83.4323 625.0349,-71.0253 524.826,-67.2923"/>
<polygon fill="#191970" stroke="#191970" points="524.9305,-63.7939 514.81,-66.9283 524.6762,-70.7893 524.9305,-63.7939"/>
</g>
<!-- Node29&#45;&gt;Node21 -->
<g id="edge17" class="edge">
<title>Node29&#45;&gt;Node21</title>
<path fill="none" stroke="#191970" d="M913.8006,-168.3733C933.2243,-159.3838 962.4224,-145.8706 984.2964,-135.7471"/>
<polygon fill="#191970" stroke="#191970" points="985.8656,-138.8776 993.4708,-131.5011 982.9255,-132.5249 985.8656,-138.8776"/>
</g>
<!-- Node21&#45;&gt;Node6 -->
<g id="edge18" class="edge">
<title>Node21&#45;&gt;Node6</title>
<path fill="none" stroke="#191970" d="M958.6671,-113.762C954.0471,-113.1407 949.4454,-112.5446 945,-112 789.4233,-92.9399 603.4547,-76.1374 524.4929,-69.2806"/>
<polygon fill="#191970" stroke="#191970" points="524.7812,-65.7926 514.5168,-68.4179 524.178,-72.7665 524.7812,-65.7926"/>
</g>
<!-- Node31&#45;&gt;Node6 -->
<g id="edge21" class="edge">
<title>Node31&#45;&gt;Node6</title>
<path fill="none" stroke="#191970" d="M554.2915,-287.8058C486.0889,-280.5186 307.1432,-250.3416 254,-132 250.3586,-123.8912 248.3588,-118.8695 254,-112 277.9685,-82.8125 387.2837,-71.8197 446.9136,-67.9441"/>
<polygon fill="#191970" stroke="#191970" points="447.3207,-71.4258 457.0878,-67.3206 446.8924,-64.4389 447.3207,-71.4258"/>
</g>
<!-- Node32&#45;&gt;Node31 -->
<g id="edge24" class="edge">
<title>Node32&#45;&gt;Node31</title>
<path fill="none" stroke="#191970" d="M384.7781,-337.6982C433.6349,-325.8219 502.6702,-309.0407 544.4914,-298.8746"/>
<polygon fill="#191970" stroke="#191970" points="545.3643,-302.2644 554.2546,-296.5013 543.7108,-295.4625 545.3643,-302.2644"/>
</g>
<!-- Node33 -->
<g id="node17" class="node">
<title>Node33</title>
<g id="a_node17"><a xlink:href="WaterPropsIAPWS_8h.html" target="_top" xlink:title="Headers for a class for calculating the equation of state of water from the IAPWS 1995 Formulation ba...">
<polygon fill="#ffffff" stroke="#000000" points="0,-224.5 0,-243.5 110,-243.5 110,-224.5 0,-224.5"/>
<text text-anchor="middle" x="55" y="-231.5" font-family="Helvetica,sans-Serif" font-size="10.00" fill="#000000">WaterPropsIAPWS.h</text>
</a>
</g>
</g>
<!-- Node32&#45;&gt;Node33 -->
<g id="edge25" class="edge">
<title>Node32&#45;&gt;Node33</title>
<path fill="none" stroke="#191970" d="M293.1471,-336.4992C239.6706,-313.4828 138.175,-269.7988 86.6759,-247.6334"/>
<polygon fill="#191970" stroke="#191970" points="87.937,-244.3658 77.3679,-243.6272 85.1695,-250.7955 87.937,-244.3658"/>
</g>
<!-- Node35 -->
<g id="node19" class="node">
<title>Node35</title>
<g id="a_node19"><a xlink:href="WaterProps_8h.html" target="_top" xlink:title="Header for a class used to house several approximation routines for properties of water...">
<polygon fill="#ffffff" stroke="#000000" points="128.5,-224.5 128.5,-243.5 205.5,-243.5 205.5,-224.5 128.5,-224.5"/>
<text text-anchor="middle" x="167" y="-231.5" font-family="Helvetica,sans-Serif" font-size="10.00" fill="#000000">WaterProps.h</text>
</a>
</g>
</g>
<!-- Node32&#45;&gt;Node35 -->
<g id="edge28" class="edge">
<title>Node32&#45;&gt;Node35</title>
<path fill="none" stroke="#191970" d="M307.2817,-336.3795C276.6715,-314.0397 219.6415,-272.4185 188.5569,-249.7325"/>
<polygon fill="#191970" stroke="#191970" points="190.3013,-246.6726 180.1604,-243.6046 186.1747,-252.3269 190.3013,-246.6726"/>
</g>
<!-- Node34 -->
<g id="node18" class="node">
<title>Node34</title>
<g id="a_node18"><a xlink:href="WaterPropsIAPWSphi_8h.html" target="_top" xlink:title="Header for Lowest level of the classes which support a real water model (see class WaterPropsIAPWS an...">
<polygon fill="#ffffff" stroke="#000000" points="193,-56.5 193,-75.5 315,-75.5 315,-56.5 193,-56.5"/>
<text text-anchor="middle" x="254" y="-63.5" font-family="Helvetica,sans-Serif" font-size="10.00" fill="#000000">WaterPropsIAPWSphi.h</text>
</a>
</g>
</g>
<!-- Node33&#45;&gt;Node34 -->
<g id="edge26" class="edge">
<title>Node33&#45;&gt;Node34</title>
<path fill="none" stroke="#191970" d="M60.6564,-224.1664C74.0598,-201.6089 109.8847,-145.5115 153,-112 171.2198,-97.8386 194.4977,-86.8596 214.1132,-79.1848"/>
<polygon fill="#191970" stroke="#191970" points="215.5724,-82.3754 223.6996,-75.5784 213.1076,-75.8237 215.5724,-82.3754"/>
</g>
<!-- Node34&#45;&gt;Node7 -->
<g id="edge27" class="edge">
<title>Node34&#45;&gt;Node7</title>
<path fill="none" stroke="#191970" d="M286.3184,-56.3733C319.8572,-46.383 372.1525,-30.8056 406.7406,-20.5028"/>
<polygon fill="#191970" stroke="#191970" points="407.846,-23.8256 416.4307,-17.6164 405.8476,-17.1169 407.846,-23.8256"/>
</g>
<!-- Node35&#45;&gt;Node6 -->
<g id="edge29" class="edge">
<title>Node35&#45;&gt;Node6</title>
<path fill="none" stroke="#191970" d="M165.5978,-224.3825C162.8275,-201.2874 159.4074,-142.367 191,-112 209.2471,-94.4607 371.3655,-76.9086 447.2026,-69.5725"/>
<polygon fill="#191970" stroke="#191970" points="447.6856,-73.0424 457.307,-68.6063 447.0192,-66.0742 447.6856,-73.0424"/>
</g>
<!-- Node37 -->
<g id="node21" class="node">
<title>Node37</title>
<g id="a_node21"><a xlink:href="GibbsExcessVPSSTP_8h.html" target="_top" xlink:title="Header for intermediate ThermoPhase object for phases which employ Gibbs excess free energy based for...">
<polygon fill="#ffffff" stroke="#000000" points="874.5,-403.5 874.5,-422.5 997.5,-422.5 997.5,-403.5 874.5,-403.5"/>
<text text-anchor="middle" x="936" y="-410.5" font-family="Helvetica,sans-Serif" font-size="10.00" fill="#000000">GibbsExcessVPSSTP.h</text>
</a>
</g>
</g>
<!-- Node36&#45;&gt;Node37 -->
<g id="edge31" class="edge">
<title>Node36&#45;&gt;Node37</title>
<path fill="none" stroke="#191970" d="M902.8764,-459.2977C908.9841,-450.7609 916.6439,-440.0545 923.0588,-431.0883"/>
<polygon fill="#191970" stroke="#191970" points="925.9829,-433.0163 928.955,-422.8469 920.2899,-428.9433 925.9829,-433.0163"/>
</g>
<!-- Node37&#45;&gt;Node1 -->
<g id="edge32" class="edge">
<title>Node37&#45;&gt;Node1</title>
<path fill="none" stroke="#191970" d="M911.4688,-403.3906C888.9419,-394.5664 854.9227,-381.2404 827,-370.3026"/>
<polygon fill="#191970" stroke="#191970" points="827.9942,-366.9331 817.4065,-366.5446 825.441,-373.4509 827.9942,-366.9331"/>
</g>
<!-- Node38 -->
<g id="node22" class="node">
<title>Node38</title>
<g id="a_node22"><a xlink:href="Array_8h.html" target="_top" xlink:title="Header file for class Cantera::Array2D. ">
<polygon fill="#ffffff" stroke="#000000" points="873.5,-342 873.5,-361 980.5,-361 980.5,-342 873.5,-342"/>
<text text-anchor="middle" x="927" y="-349" font-family="Helvetica,sans-Serif" font-size="10.00" fill="#000000">cantera/base/Array.h</text>
</a>
</g>
</g>
<!-- Node37&#45;&gt;Node38 -->
<g id="edge33" class="edge">
<title>Node37&#45;&gt;Node38</title>
<path fill="none" stroke="#191970" d="M934.5938,-403.3906C933.3462,-394.8657 931.4838,-382.1392 929.9156,-371.4235"/>
<polygon fill="#191970" stroke="#191970" points="933.3373,-370.6326 928.4261,-361.2449 926.411,-371.6463 933.3373,-370.6326"/>
</g>
<!-- Node38&#45;&gt;Node39 -->
<g id="edge34" class="edge">
<title>Node38&#45;&gt;Node39</title>
<path fill="none" stroke="#191970" d="M938.0644,-341.7205C949.1544,-331.7001 966.4767,-315.4439 980,-300 993.444,-284.6466 1007.1579,-265.8521 1016.6452,-252.2515"/>
<polygon fill="#191970" stroke="#191970" points="1019.6954,-253.9931 1022.4829,-243.7716 1013.9295,-250.0238 1019.6954,-253.9931"/>
</g>
<!-- Node42 -->
<g id="node24" class="node">
<title>Node42</title>
<polygon fill="#ffffff" stroke="#bfbfbf" points="917,-280.5 917,-299.5 971,-299.5 971,-280.5 917,-280.5"/>
<text text-anchor="middle" x="944" y="-287.5" font-family="Helvetica,sans-Serif" font-size="10.00" fill="#000000">iostream</text>
</g>
<!-- Node38&#45;&gt;Node42 -->
<g id="edge37" class="edge">
<title>Node38&#45;&gt;Node42</title>
<path fill="none" stroke="#191970" d="M929.6563,-341.8906C932.0375,-333.276 935.6048,-320.3708 938.586,-309.5858"/>
<polygon fill="#191970" stroke="#191970" points="942.0154,-310.3159 941.3063,-299.7449 935.2684,-308.4509 942.0154,-310.3159"/>
</g>
<!-- Node43 -->
<g id="node25" class="node">
<title>Node43</title>
<polygon fill="#ffffff" stroke="#bfbfbf" points="853,-280.5 853,-299.5 899,-299.5 899,-280.5 853,-280.5"/>
<text text-anchor="middle" x="876" y="-287.5" font-family="Helvetica,sans-Serif" font-size="10.00" fill="#000000">cstring</text>
</g>
<!-- Node38&#45;&gt;Node43 -->
<g id="edge38" class="edge">
<title>Node38&#45;&gt;Node43</title>
<path fill="none" stroke="#191970" d="M919.0313,-341.8906C911.4409,-332.7376 899.8339,-318.7409 890.5868,-307.59"/>
<polygon fill="#191970" stroke="#191970" points="893.1587,-305.2083 884.0811,-299.7449 887.7703,-309.6766 893.1587,-305.2083"/>
</g>
<!-- Node39&#45;&gt;Node6 -->
<g id="edge35" class="edge">
<title>Node39&#45;&gt;Node6</title>
<path fill="none" stroke="#191970" d="M1000.5708,-230.721C934.3063,-222.8701 773.7079,-202.5647 754,-188 723.6291,-165.555 746.0119,-134.9229 716,-112 686.5248,-89.487 582.5404,-75.7218 525.0082,-69.6542"/>
<polygon fill="#191970" stroke="#191970" points="525.1397,-66.1494 514.8347,-68.6105 524.4252,-73.1129 525.1397,-66.1494"/>
</g>
<!-- Node39&#45;&gt;Node21 -->
<g id="edge36" class="edge">
<title>Node39&#45;&gt;Node21</title>
<path fill="none" stroke="#191970" d="M1027.7211,-224.4509C1025.2746,-206.184 1019.8869,-165.9553 1016.6381,-141.6976"/>
<polygon fill="#191970" stroke="#191970" points="1020.0722,-140.9718 1015.2757,-131.5249 1013.1341,-141.901 1020.0722,-140.9718"/>
</g>
<!-- Node44&#45;&gt;Node29 -->
<g id="edge40" class="edge">
<title>Node44&#45;&gt;Node29</title>
<path fill="none" stroke="#191970" d="M1137.1305,-459.257C1117.3918,-437.3416 1085,-394.7838 1085,-351.5 1085,-351.5 1085,-351.5 1085,-290 1085,-259.4754 1087.8034,-245.3627 1066,-224 1051.1317,-209.4322 1004.4555,-197.515 963.3301,-189.4632"/>
<polygon fill="#191970" stroke="#191970" points="963.7699,-185.9842 953.2916,-187.5511 962.46,-192.8605 963.7699,-185.9842"/>
</g>
<!-- Node45&#45;&gt;Node1 -->
<g id="edge50" class="edge">
<title>Node45&#45;&gt;Node1</title>
<path fill="none" stroke="#191970" d="M779,-403.3906C779,-396.2234 779,-386.0862 779,-376.671"/>
<polygon fill="#191970" stroke="#191970" points="782.5001,-376.5446 779,-366.5446 775.5001,-376.5446 782.5001,-376.5446"/>
</g>
<!-- Node45&#45;&gt;Node31 -->
<g id="edge42" class="edge">
<title>Node45&#45;&gt;Node31</title>
<path fill="none" stroke="#191970" d="M762.4581,-403.4865C746.595,-394.3066 722.0206,-379.9362 701,-367 666.9784,-346.063 628.1626,-320.9231 604.1175,-305.1999"/>
<polygon fill="#191970" stroke="#191970" points="605.9489,-302.2155 595.666,-299.6633 602.113,-308.0709 605.9489,-302.2155"/>
</g>
<!-- Node46 -->
<g id="node28" class="node">
<title>Node46</title>
<g id="a_node28"><a xlink:href="FactoryBase_8h.html" target="_top" xlink:title="File contains the FactoryBase class declarations. ">
<polygon fill="#ffffff" stroke="#000000" points="1059,-168.5 1059,-187.5 1199,-187.5 1199,-168.5 1059,-168.5"/>
<text text-anchor="middle" x="1129" y="-175.5" font-family="Helvetica,sans-Serif" font-size="10.00" fill="#000000">cantera/base/FactoryBase.h</text>
</a>
</g>
</g>
<!-- Node45&#45;&gt;Node46 -->
<g id="edge43" class="edge">
<title>Node45&#45;&gt;Node46</title>
<path fill="none" stroke="#191970" d="M846.4212,-403.4858C898.5732,-395.1689 965.6966,-382.0833 989,-367 1056.0548,-323.5983 1102.3752,-236.1758 1120.4977,-197.345"/>
<polygon fill="#191970" stroke="#191970" points="1123.9035,-198.3103 1124.8553,-187.7582 1117.5309,-195.4137 1123.9035,-198.3103"/>
</g>
<!-- Node46&#45;&gt;Node4 -->
<g id="edge48" class="edge">
<title>Node46&#45;&gt;Node4</title>
<path fill="none" stroke="#191970" d="M1078.4521,-168.4369C1027.1555,-158.7321 947.7421,-143.708 893.2182,-133.3926"/>
<polygon fill="#191970" stroke="#191970" points="893.8158,-129.9437 883.3394,-131.5237 892.5145,-136.8217 893.8158,-129.9437"/>
</g>
<!-- Node46&#45;&gt;Node10 -->
<g id="edge44" class="edge">
<title>Node46&#45;&gt;Node10</title>
<path fill="none" stroke="#191970" d="M1199.109,-170.0985C1246.8701,-163.1047 1304.0475,-151.0045 1319,-132 1324.4964,-125.0141 1324.8692,-118.6757 1319,-112 1267.9959,-53.9872 704.2564,-19.5418 561.6332,-11.716"/>
<polygon fill="#191970" stroke="#191970" points="561.5352,-8.2056 551.3603,-11.1586 561.1559,-15.1953 561.5352,-8.2056"/>
</g>
<!-- Node46&#45;&gt;Node21 -->
<g id="edge49" class="edge">
<title>Node46&#45;&gt;Node21</title>
<path fill="none" stroke="#191970" d="M1109.2308,-168.3733C1090.8531,-159.4241 1063.2688,-145.9917 1042.5107,-135.8835"/>
<polygon fill="#191970" stroke="#191970" points="1044.0343,-132.7325 1033.5112,-131.5011 1040.9696,-139.026 1044.0343,-132.7325"/>
</g>
<!-- Node47 -->
<g id="node29" class="node">
<title>Node47</title>
<polygon fill="#ffffff" stroke="#bfbfbf" points="1266,-112.5 1266,-131.5 1310,-131.5 1310,-112.5 1266,-112.5"/>
<text text-anchor="middle" x="1288" y="-119.5" font-family="Helvetica,sans-Serif" font-size="10.00" fill="#000000">mutex</text>
</g>
<!-- Node46&#45;&gt;Node47 -->
<g id="edge45" class="edge">
<title>Node46&#45;&gt;Node47</title>
<path fill="none" stroke="#191970" d="M1156.3331,-168.3733C1183.9731,-158.6384 1226.6756,-143.5985 1255.9069,-133.3032"/>
<polygon fill="#191970" stroke="#191970" points="1257.3684,-136.4993 1265.6378,-129.876 1255.043,-129.8968 1257.3684,-136.4993"/>
</g>
<!-- Node22 -->
<g id="node30" class="node">
<title>Node22</title>
<polygon fill="#ffffff" stroke="#bfbfbf" points="1087.5,-112.5 1087.5,-131.5 1170.5,-131.5 1170.5,-112.5 1087.5,-112.5"/>
<text text-anchor="middle" x="1129" y="-119.5" font-family="Helvetica,sans-Serif" font-size="10.00" fill="#000000">unordered_map</text>
</g>
<!-- Node46&#45;&gt;Node22 -->
<g id="edge46" class="edge">
<title>Node46&#45;&gt;Node22</title>
<path fill="none" stroke="#191970" d="M1129,-168.2455C1129,-160.9382 1129,-150.6944 1129,-141.7046"/>
<polygon fill="#191970" stroke="#191970" points="1132.5001,-141.6426 1129,-131.6427 1125.5001,-141.6427 1132.5001,-141.6426"/>
</g>
<!-- Node48 -->
<g id="node31" class="node">
<title>Node48</title>
<polygon fill="#ffffff" stroke="#bfbfbf" points="1188.5,-112.5 1188.5,-131.5 1247.5,-131.5 1247.5,-112.5 1188.5,-112.5"/>
<text text-anchor="middle" x="1218" y="-119.5" font-family="Helvetica,sans-Serif" font-size="10.00" fill="#000000">functional</text>
</g>
<!-- Node46&#45;&gt;Node48 -->
<g id="edge47" class="edge">
<title>Node46&#45;&gt;Node48</title>
<path fill="none" stroke="#191970" d="M1144.5026,-168.2455C1158.158,-159.6534 1178.2657,-147.0014 1193.9989,-137.1018"/>
<polygon fill="#191970" stroke="#191970" points="1196.0751,-139.9307 1202.675,-131.6427 1192.3471,-134.006 1196.0751,-139.9307"/>
</g>
<!-- Node49&#45;&gt;Node6 -->
<g id="edge53" class="edge">
<title>Node49&#45;&gt;Node6</title>
<path fill="none" stroke="#191970" d="M584.1878,-227.5907C490.9914,-214.8827 301.1157,-183.2122 262,-132 256.6045,-124.9359 256.3822,-118.8886 262,-112 284.9118,-83.905 389.1381,-72.4846 446.9968,-68.2463"/>
<polygon fill="#191970" stroke="#191970" points="447.497,-71.7201 457.2306,-67.536 447.0123,-64.7369 447.497,-71.7201"/>
</g>
<!-- Node50 -->
<g id="node33" class="node">
<title>Node50</title>
<g id="a_node33"><a xlink:href="xml_8h.html" target="_top" xlink:title="Classes providing support for XML data files. ">
<polygon fill="#ffffff" stroke="#000000" points="763.5,-168.5 763.5,-187.5 804.5,-187.5 804.5,-168.5 763.5,-168.5"/>
<text text-anchor="middle" x="784" y="-175.5" font-family="Helvetica,sans-Serif" font-size="10.00" fill="#000000">xml.h</text>
</a>
</g>
</g>
<!-- Node49&#45;&gt;Node50 -->
<g id="edge54" class="edge">
<title>Node49&#45;&gt;Node50</title>
<path fill="none" stroke="#191970" d="M661.4421,-224.3733C687.0576,-214.6809 726.5713,-199.7298 753.77,-189.4384"/>
<polygon fill="#191970" stroke="#191970" points="755.0706,-192.6885 763.1849,-185.876 752.5934,-186.1415 755.0706,-192.6885"/>
</g>
<!-- Node50&#45;&gt;Node4 -->
<g id="edge55" class="edge">
<title>Node50&#45;&gt;Node4</title>
<path fill="none" stroke="#191970" d="M792.5351,-168.2455C799.4912,-160.2958 809.4883,-148.8706 817.8051,-139.3656"/>
<polygon fill="#191970" stroke="#191970" points="820.6116,-141.4732 824.5627,-131.6427 815.3436,-136.8637 820.6116,-141.4732"/>
</g>
<!-- Node50&#45;&gt;Node21 -->
<g id="edge56" class="edge">
<title>Node50&#45;&gt;Node21</title>
<path fill="none" stroke="#191970" d="M804.5766,-170.8531C807.7181,-169.8457 810.9345,-168.8613 814,-168 861.7475,-154.5843 916.7039,-142.1574 956.9115,-133.6106"/>
<polygon fill="#191970" stroke="#191970" points="957.7409,-137.0127 966.8026,-131.523 956.2954,-130.1636 957.7409,-137.0127"/>
</g>
</g>
</svg>
