<?xml version="1.0" encoding="UTF-8" standalone="no"?>
<!DOCTYPE svg PUBLIC "-//W3C//DTD SVG 1.1//EN"
 "http://www.w3.org/Graphics/SVG/1.1/DTD/svg11.dtd">
<!-- Generated by graphviz version 2.40.1 (20161225.0304)
 -->
<!-- Title: VPStandardStateTP.h Pages: 1 -->
<svg width="2789pt" height="252pt"
 viewBox="0.00 0.00 2789.00 252.00" xmlns="http://www.w3.org/2000/svg" xmlns:xlink="http://www.w3.org/1999/xlink">
<g id="graph0" class="graph" transform="scale(1 1) rotate(0) translate(4 248)">
<title>VPStandardStateTP.h</title>
<polygon fill="#ffffff" stroke="transparent" points="-4,4 -4,-248 2785,-248 2785,4 -4,4"/>
<!-- Node31 -->
<g id="node1" class="node">
<title>Node31</title>
<polygon fill="#bfbfbf" stroke="#000000" points="670,-224.5 670,-243.5 783,-243.5 783,-224.5 670,-224.5"/>
<text text-anchor="middle" x="726.5" y="-231.5" font-family="Helvetica,sans-Serif" font-size="10.00" fill="#000000">VPStandardStateTP.h</text>
</g>
<!-- Node32 -->
<g id="node2" class="node">
<title>Node32</title>
<g id="a_node2"><a xlink:href="PDSS_8cpp.html" target="_top" xlink:title="Implementation of a pressure dependent standard state virtual function (see class PDSS)...">
<polygon fill="#ffffff" stroke="#000000" points="0,-168.5 0,-187.5 63,-187.5 63,-168.5 0,-168.5"/>
<text text-anchor="middle" x="31.5" y="-175.5" font-family="Helvetica,sans-Serif" font-size="10.00" fill="#000000">PDSS.cpp</text>
</a>
</g>
</g>
<!-- Node31&#45;&gt;Node32 -->
<g id="edge1" class="edge">
<title>Node31&#45;&gt;Node32</title>
<path fill="none" stroke="#191970" d="M659.5563,-233.1518C540.527,-230.7889 284.5471,-221.8453 71.5,-188 68.8136,-187.5732 66.0433,-187.0528 63.2734,-186.476"/>
<polygon fill="#191970" stroke="#191970" points="659.546,-236.6521 669.6105,-233.3421 659.6785,-229.6534 659.546,-236.6521"/>
</g>
<!-- Node33 -->
<g id="node3" class="node">
<title>Node33</title>
<g id="a_node3"><a xlink:href="PDSS__ConstVol_8cpp.html" target="_top" xlink:title="Implementation of a pressure dependent standard state virtual function. ">
<polygon fill="#ffffff" stroke="#000000" points="81,-168.5 81,-187.5 190,-187.5 190,-168.5 81,-168.5"/>
<text text-anchor="middle" x="135.5" y="-175.5" font-family="Helvetica,sans-Serif" font-size="10.00" fill="#000000">PDSS_ConstVol.cpp</text>
</a>
</g>
</g>
<!-- Node31&#45;&gt;Node33 -->
<g id="edge2" class="edge">
<title>Node31&#45;&gt;Node33</title>
<path fill="none" stroke="#191970" d="M659.7169,-229.6981C559.3721,-222.8917 363.8339,-208.2981 198.5,-188 195.752,-187.6626 192.9399,-187.2958 190.1025,-186.9084"/>
<polygon fill="#191970" stroke="#191970" points="659.5009,-233.1914 669.7136,-230.3718 659.9716,-226.2073 659.5009,-233.1914"/>
</g>
<!-- Node34 -->
<g id="node4" class="node">
<title>Node34</title>
<g id="a_node4"><a xlink:href="PDSS__HKFT_8cpp.html" target="_top" xlink:title="Definitions for the class PDSS_HKFT (pressure dependent standard state) which handles calculations fo...">
<polygon fill="#ffffff" stroke="#000000" points="208,-168.5 208,-187.5 303,-187.5 303,-168.5 208,-168.5"/>
<text text-anchor="middle" x="255.5" y="-175.5" font-family="Helvetica,sans-Serif" font-size="10.00" fill="#000000">PDSS_HKFT.cpp</text>
</a>
</g>
</g>
<!-- Node31&#45;&gt;Node34 -->
<g id="edge3" class="edge">
<title>Node31&#45;&gt;Node34</title>
<path fill="none" stroke="#191970" d="M659.7689,-227.978C577.6283,-220.2491 433.9669,-205.702 311.5,-188 308.7632,-187.6044 305.9551,-187.1757 303.1241,-186.7259"/>
<polygon fill="#191970" stroke="#191970" points="659.6816,-231.4851 669.9643,-228.932 660.3339,-224.5155 659.6816,-231.4851"/>
</g>
<!-- Node35 -->
<g id="node5" class="node">
<title>Node35</title>
<g id="a_node5"><a xlink:href="PDSS__IdealGas_8cpp.html" target="_top" xlink:title="Implementation of a pressure dependent standard state virtual function. ">
<polygon fill="#ffffff" stroke="#000000" points="321,-168.5 321,-187.5 428,-187.5 428,-168.5 321,-168.5"/>
<text text-anchor="middle" x="374.5" y="-175.5" font-family="Helvetica,sans-Serif" font-size="10.00" fill="#000000">PDSS_IdealGas.cpp</text>
</a>
</g>
</g>
<!-- Node31&#45;&gt;Node35 -->
<g id="edge4" class="edge">
<title>Node31&#45;&gt;Node35</title>
<path fill="none" stroke="#191970" d="M659.8813,-223.4016C592.6564,-212.7067 490.1563,-196.3999 428.03,-186.5161"/>
<polygon fill="#191970" stroke="#191970" points="659.5194,-226.8879 669.9451,-225.0026 660.6192,-219.9749 659.5194,-226.8879"/>
</g>
<!-- Node36 -->
<g id="node6" class="node">
<title>Node36</title>
<g id="a_node6"><a xlink:href="PDSS__SSVol_8cpp.html" target="_top" xlink:title="Implementation of a pressure dependent standard state virtual function. ">
<polygon fill="#ffffff" stroke="#000000" points="446.5,-168.5 446.5,-187.5 542.5,-187.5 542.5,-168.5 446.5,-168.5"/>
<text text-anchor="middle" x="494.5" y="-175.5" font-family="Helvetica,sans-Serif" font-size="10.00" fill="#000000">PDSS_SSVol.cpp</text>
</a>
</g>
</g>
<!-- Node31&#45;&gt;Node36 -->
<g id="edge5" class="edge">
<title>Node31&#45;&gt;Node36</title>
<path fill="none" stroke="#191970" d="M676.9816,-222.0473C634.2803,-211.7401 573.4345,-197.0532 533.9552,-187.5237"/>
<polygon fill="#191970" stroke="#191970" points="676.3393,-225.4927 686.8814,-224.4369 677.9818,-218.6881 676.3393,-225.4927"/>
</g>
<!-- Node37 -->
<g id="node7" class="node">
<title>Node37</title>
<g id="a_node7"><a xlink:href="SpeciesThermoFactory_8cpp.html" target="_top" xlink:title="Definitions for factory functions to build instances of classes that manage the standard&#45;state thermo...">
<polygon fill="#ffffff" stroke="#000000" points="561,-168.5 561,-187.5 698,-187.5 698,-168.5 561,-168.5"/>
<text text-anchor="middle" x="629.5" y="-175.5" font-family="Helvetica,sans-Serif" font-size="10.00" fill="#000000">SpeciesThermoFactory.cpp</text>
</a>
</g>
</g>
<!-- Node31&#45;&gt;Node37 -->
<g id="edge6" class="edge">
<title>Node31&#45;&gt;Node37</title>
<path fill="none" stroke="#191970" d="M700.5984,-219.0465C683.3391,-209.0824 661.1624,-196.2794 646.2025,-187.6427"/>
<polygon fill="#191970" stroke="#191970" points="699.1936,-222.2768 709.6039,-224.2455 702.6935,-216.2146 699.1936,-222.2768"/>
</g>
<!-- Node38 -->
<g id="node8" class="node">
<title>Node38</title>
<g id="a_node8"><a xlink:href="VPStandardStateTP_8cpp.html" target="_top" xlink:title="Definition file for a derived class of ThermoPhase that handles variable pressure standard state meth...">
<polygon fill="#ffffff" stroke="#000000" points="562.5,-56.5 562.5,-75.5 686.5,-75.5 686.5,-56.5 562.5,-56.5"/>
<text text-anchor="middle" x="624.5" y="-63.5" font-family="Helvetica,sans-Serif" font-size="10.00" fill="#000000">VPStandardStateTP.cpp</text>
</a>
</g>
</g>
<!-- Node31&#45;&gt;Node38 -->
<g id="edge7" class="edge">
<title>Node31&#45;&gt;Node38</title>
<path fill="none" stroke="#191970" d="M725.2049,-214.1203C723.2475,-199.6052 718.4044,-180.3781 706.5,-168 672.5943,-132.7452 630.8715,-171.8441 602.5,-132 590.0297,-114.4871 605.537,-89.4197 616.1445,-75.7701"/>
<polygon fill="#191970" stroke="#191970" points="721.7263,-214.5101 726.2084,-224.1102 728.6913,-213.8104 721.7263,-214.5101"/>
</g>
<!-- Node39 -->
<g id="node9" class="node">
<title>Node39</title>
<g id="a_node9"><a xlink:href="WaterTransport_8cpp.html" target="_top" xlink:title="WaterTransport.cpp">
<polygon fill="#ffffff" stroke="#000000" points="2104,-168.5 2104,-187.5 2207,-187.5 2207,-168.5 2104,-168.5"/>
<text text-anchor="middle" x="2155.5" y="-175.5" font-family="Helvetica,sans-Serif" font-size="10.00" fill="#000000">WaterTransport.cpp</text>
</a>
</g>
</g>
<!-- Node31&#45;&gt;Node39 -->
<g id="edge8" class="edge">
<title>Node31&#45;&gt;Node39</title>
<path fill="none" stroke="#191970" d="M793.3699,-232.9198C1031.6119,-228.889 1838.4319,-213.6289 2095.5,-188 2098.2321,-187.7276 2101.0282,-187.4074 2103.8471,-187.0519"/>
<polygon fill="#191970" stroke="#191970" points="793.0649,-229.4243 783.1252,-233.0921 793.1827,-236.4233 793.0649,-229.4243"/>
</g>
<!-- Node40 -->
<g id="node10" class="node">
<title>Node40</title>
<g id="a_node10"><a xlink:href="MolalityVPSSTP_8h.html" target="_top" xlink:title="Header for intermediate ThermoPhase object for phases which employ molality based activity coefficien...">
<polygon fill="#ffffff" stroke="#000000" points="901.5,-168.5 901.5,-187.5 999.5,-187.5 999.5,-168.5 901.5,-168.5"/>
<text text-anchor="middle" x="950.5" y="-175.5" font-family="Helvetica,sans-Serif" font-size="10.00" fill="#000000">MolalityVPSSTP.h</text>
</a>
</g>
</g>
<!-- Node31&#45;&gt;Node40 -->
<g id="edge9" class="edge">
<title>Node31&#45;&gt;Node40</title>
<path fill="none" stroke="#191970" d="M774.572,-221.982C815.7875,-211.6781 874.3678,-197.0331 912.4053,-187.5237"/>
<polygon fill="#191970" stroke="#191970" points="773.605,-218.616 764.7525,-224.4369 775.3028,-225.407 773.605,-218.616"/>
</g>
<!-- Node52 -->
<g id="node22" class="node">
<title>Node52</title>
<g id="a_node22"><a xlink:href="GibbsExcessVPSSTP_8h.html" target="_top" xlink:title="Header for intermediate ThermoPhase object for phases which employ Gibbs excess free energy based for...">
<polygon fill="#ffffff" stroke="#000000" points="1963,-168.5 1963,-187.5 2086,-187.5 2086,-168.5 1963,-168.5"/>
<text text-anchor="middle" x="2024.5" y="-175.5" font-family="Helvetica,sans-Serif" font-size="10.00" fill="#000000">GibbsExcessVPSSTP.h</text>
</a>
</g>
</g>
<!-- Node31&#45;&gt;Node52 -->
<g id="edge23" class="edge">
<title>Node31&#45;&gt;Node52</title>
<path fill="none" stroke="#191970" d="M793.105,-231.1264C1017.7336,-221.4352 1745.5116,-190.0365 1962.7361,-180.6647"/>
<polygon fill="#191970" stroke="#191970" points="792.9479,-227.6299 783.1081,-231.5577 793.2497,-234.6234 792.9479,-227.6299"/>
</g>
<!-- Node68 -->
<g id="node38" class="node">
<title>Node68</title>
<g id="a_node38"><a xlink:href="IdealSolnGasVPSS_8h.html" target="_top" xlink:title="Definition file for a derived class of ThermoPhase that assumes either an ideal gas or ideal solution...">
<polygon fill="#ffffff" stroke="#000000" points="1312.5,-168.5 1312.5,-187.5 1422.5,-187.5 1422.5,-168.5 1312.5,-168.5"/>
<text text-anchor="middle" x="1367.5" y="-175.5" font-family="Helvetica,sans-Serif" font-size="10.00" fill="#000000">IdealSolnGasVPSS.h</text>
</a>
</g>
</g>
<!-- Node31&#45;&gt;Node68 -->
<g id="edge46" class="edge">
<title>Node31&#45;&gt;Node68</title>
<path fill="none" stroke="#191970" d="M793.0839,-228.183C919.9997,-217.0952 1194.3627,-193.1259 1312.0518,-182.8441"/>
<polygon fill="#191970" stroke="#191970" points="792.7607,-224.6978 783.1033,-229.0549 793.37,-231.6712 792.7607,-224.6978"/>
</g>
<!-- Node70 -->
<g id="node40" class="node">
<title>Node70</title>
<g id="a_node40"><a xlink:href="MaskellSolidSolnPhase_8h.html" target="_top" xlink:title="Header file for a solid solution model following Maskell, Shaw, and Tye. ">
<polygon fill="#ffffff" stroke="#000000" points="1481.5,-168.5 1481.5,-187.5 1609.5,-187.5 1609.5,-168.5 1481.5,-168.5"/>
<text text-anchor="middle" x="1545.5" y="-175.5" font-family="Helvetica,sans-Serif" font-size="10.00" fill="#000000">MaskellSolidSolnPhase.h</text>
</a>
</g>
</g>
<!-- Node31&#45;&gt;Node70 -->
<g id="edge49" class="edge">
<title>Node31&#45;&gt;Node70</title>
<path fill="none" stroke="#191970" d="M793.3852,-230.1351C918.6548,-222.7855 1197.1589,-205.921 1431.5,-188 1447.645,-186.7653 1465.0644,-185.3033 1481.3104,-183.8837"/>
<polygon fill="#191970" stroke="#191970" points="792.9663,-226.6535 783.188,-230.7322 793.3755,-233.6416 792.9663,-226.6535"/>
</g>
<!-- Node72 -->
<g id="node42" class="node">
<title>Node72</title>
<g id="a_node42"><a xlink:href="PDSSFactory_8h.html" target="_top" xlink:title="PDSSFactory.h">
<polygon fill="#ffffff" stroke="#000000" points="611.5,-112.5 611.5,-131.5 697.5,-131.5 697.5,-112.5 611.5,-112.5"/>
<text text-anchor="middle" x="654.5" y="-119.5" font-family="Helvetica,sans-Serif" font-size="10.00" fill="#000000">PDSSFactory.h</text>
</a>
</g>
</g>
<!-- Node31&#45;&gt;Node72 -->
<g id="edge52" class="edge">
<title>Node31&#45;&gt;Node72</title>
<path fill="none" stroke="#191970" d="M737.2758,-215.241C743.7142,-201.3402 749.1232,-182.3917 740.5,-168 729.6215,-149.8444 708.8626,-138.4516 690.4657,-131.546"/>
<polygon fill="#191970" stroke="#191970" points="734.0599,-213.8409 732.5916,-224.3335 740.2827,-217.0467 734.0599,-213.8409"/>
</g>
<!-- Node41 -->
<g id="node11" class="node">
<title>Node41</title>
<g id="a_node11"><a xlink:href="MultiPhaseEquil_8cpp.html" target="_top" xlink:title="MultiPhaseEquil.cpp">
<polygon fill="#ffffff" stroke="#000000" points="1012.5,-112.5 1012.5,-131.5 1118.5,-131.5 1118.5,-112.5 1012.5,-112.5"/>
<text text-anchor="middle" x="1065.5" y="-119.5" font-family="Helvetica,sans-Serif" font-size="10.00" fill="#000000">MultiPhaseEquil.cpp</text>
</a>
</g>
</g>
<!-- Node40&#45;&gt;Node41 -->
<g id="edge10" class="edge">
<title>Node40&#45;&gt;Node41</title>
<path fill="none" stroke="#191970" d="M979.3033,-163.9741C1000.125,-153.8348 1027.6978,-140.408 1045.9888,-131.5011"/>
<polygon fill="#191970" stroke="#191970" points="977.7276,-160.8484 970.2692,-168.3733 980.7922,-167.1419 977.7276,-160.8484"/>
</g>
<!-- Node42 -->
<g id="node12" class="node">
<title>Node42</title>
<g id="a_node12"><a xlink:href="vcs__prob_8cpp.html" target="_top" xlink:title="Implementation for the Interface class for the vcs thermo equilibrium solver package,. ">
<polygon fill="#ffffff" stroke="#000000" points="1137,-112.5 1137,-131.5 1212,-131.5 1212,-112.5 1137,-112.5"/>
<text text-anchor="middle" x="1174.5" y="-119.5" font-family="Helvetica,sans-Serif" font-size="10.00" fill="#000000">vcs_prob.cpp</text>
</a>
</g>
</g>
<!-- Node40&#45;&gt;Node42 -->
<g id="edge11" class="edge">
<title>Node40&#45;&gt;Node42</title>
<path fill="none" stroke="#191970" d="M998.6029,-165.9743C1039.952,-155.637 1098.7617,-140.9346 1136.779,-131.4303"/>
<polygon fill="#191970" stroke="#191970" points="997.605,-162.616 988.7525,-168.4369 999.3028,-169.407 997.605,-162.616"/>
</g>
<!-- Node43 -->
<g id="node13" class="node">
<title>Node43</title>
<g id="a_node13"><a xlink:href="MolalityVPSSTP_8cpp.html" target="_top" xlink:title="Definitions for intermediate ThermoPhase object for phases which employ molality based activity coeff...">
<polygon fill="#ffffff" stroke="#000000" points="1230,-112.5 1230,-131.5 1339,-131.5 1339,-112.5 1230,-112.5"/>
<text text-anchor="middle" x="1284.5" y="-119.5" font-family="Helvetica,sans-Serif" font-size="10.00" fill="#000000">MolalityVPSSTP.cpp</text>
</a>
</g>
</g>
<!-- Node40&#45;&gt;Node43 -->
<g id="edge12" class="edge">
<title>Node40&#45;&gt;Node43</title>
<path fill="none" stroke="#191970" d="M1009.8487,-168.0493C1072.1315,-157.6067 1169.2295,-141.3268 1229.7353,-131.1821"/>
<polygon fill="#191970" stroke="#191970" points="1009.0664,-164.6315 999.7829,-169.737 1010.224,-171.5352 1009.0664,-164.6315"/>
</g>
<!-- Node44 -->
<g id="node14" class="node">
<title>Node44</title>
<g id="a_node14"><a xlink:href="DebyeHuckel_8h.html" target="_top" xlink:title="Headers for the DebyeHuckel ThermoPhase object, which models dilute electrolyte solutions (see Thermo...">
<polygon fill="#ffffff" stroke="#000000" points="715.5,-112.5 715.5,-131.5 799.5,-131.5 799.5,-112.5 715.5,-112.5"/>
<text text-anchor="middle" x="757.5" y="-119.5" font-family="Helvetica,sans-Serif" font-size="10.00" fill="#000000">DebyeHuckel.h</text>
</a>
</g>
</g>
<!-- Node40&#45;&gt;Node44 -->
<g id="edge13" class="edge">
<title>Node40&#45;&gt;Node44</title>
<path fill="none" stroke="#191970" d="M907.2683,-165.4561C871.8404,-155.1765 822.463,-140.8494 790.2449,-131.5011"/>
<polygon fill="#191970" stroke="#191970" points="906.7429,-168.9479 917.3221,-168.3733 908.6936,-162.2252 906.7429,-168.9479"/>
</g>
<!-- Node47 -->
<g id="node17" class="node">
<title>Node47</title>
<g id="a_node17"><a xlink:href="HMWSoln_8h.html" target="_top" xlink:title="Headers for the HMWSoln ThermoPhase object, which models concentrated electrolyte solutions (see Ther...">
<polygon fill="#ffffff" stroke="#000000" points="817.5,-112.5 817.5,-131.5 887.5,-131.5 887.5,-112.5 817.5,-112.5"/>
<text text-anchor="middle" x="852.5" y="-119.5" font-family="Helvetica,sans-Serif" font-size="10.00" fill="#000000">HMWSoln.h</text>
</a>
</g>
</g>
<!-- Node40&#45;&gt;Node47 -->
<g id="edge16" class="edge">
<title>Node40&#45;&gt;Node47</title>
<path fill="none" stroke="#191970" d="M924.3314,-163.0465C906.8942,-153.0824 884.4889,-140.2794 869.3747,-131.6427"/>
<polygon fill="#191970" stroke="#191970" points="923.0108,-166.323 933.4297,-168.2455 926.4838,-160.2453 923.0108,-166.323"/>
</g>
<!-- Node49 -->
<g id="node19" class="node">
<title>Node49</title>
<g id="a_node19"><a xlink:href="IdealMolalSoln_8h.html" target="_top" xlink:title="ThermoPhase object for the ideal molal equation of state (see Thermodynamic Properties and class Idea...">
<polygon fill="#ffffff" stroke="#000000" points="906,-112.5 906,-131.5 995,-131.5 995,-112.5 906,-112.5"/>
<text text-anchor="middle" x="950.5" y="-119.5" font-family="Helvetica,sans-Serif" font-size="10.00" fill="#000000">IdealMolalSoln.h</text>
</a>
</g>
</g>
<!-- Node40&#45;&gt;Node49 -->
<g id="edge19" class="edge">
<title>Node40&#45;&gt;Node49</title>
<path fill="none" stroke="#191970" d="M950.5,-158.1575C950.5,-149.155 950.5,-138.9199 950.5,-131.6427"/>
<polygon fill="#191970" stroke="#191970" points="947.0001,-158.2455 950.5,-168.2455 954.0001,-158.2456 947.0001,-158.2455"/>
</g>
<!-- Node45 -->
<g id="node15" class="node">
<title>Node45</title>
<g id="a_node15"><a xlink:href="DebyeHuckel_8cpp.html" target="_top" xlink:title="Declarations for the DebyeHuckel ThermoPhase object, which models dilute electrolyte solutions (see T...">
<polygon fill="#ffffff" stroke="#000000" points="705,-56.5 705,-75.5 800,-75.5 800,-56.5 705,-56.5"/>
<text text-anchor="middle" x="752.5" y="-63.5" font-family="Helvetica,sans-Serif" font-size="10.00" fill="#000000">DebyeHuckel.cpp</text>
</a>
</g>
</g>
<!-- Node44&#45;&gt;Node45 -->
<g id="edge14" class="edge">
<title>Node44&#45;&gt;Node45</title>
<path fill="none" stroke="#191970" d="M755.7283,-102.1575C754.9246,-93.155 754.0107,-82.9199 753.361,-75.6427"/>
<polygon fill="#191970" stroke="#191970" points="752.2535,-102.5965 756.6291,-112.2455 759.2258,-101.9739 752.2535,-102.5965"/>
</g>
<!-- Node46 -->
<g id="node16" class="node">
<title>Node46</title>
<g id="a_node16"><a xlink:href="ThermoFactory_8cpp.html" target="_top" xlink:title="Definitions for the factory class that can create known ThermoPhase objects (see Thermodynamic Proper...">
<polygon fill="#ffffff" stroke="#000000" points="1463,-56.5 1463,-75.5 1564,-75.5 1564,-56.5 1463,-56.5"/>
<text text-anchor="middle" x="1513.5" y="-63.5" font-family="Helvetica,sans-Serif" font-size="10.00" fill="#000000">ThermoFactory.cpp</text>
</a>
</g>
</g>
<!-- Node44&#45;&gt;Node46 -->
<g id="edge15" class="edge">
<title>Node44&#45;&gt;Node46</title>
<path fill="none" stroke="#191970" d="M809.7455,-111.9914C1060.0993,-79.9998 1348.2238,-69.9859 1462.8468,-67.0745"/>
<polygon fill="#191970" stroke="#191970" points="809.2012,-108.5325 799.7323,-113.2854 810.0984,-115.4748 809.2012,-108.5325"/>
</g>
<!-- Node47&#45;&gt;Node46 -->
<g id="edge18" class="edge">
<title>Node47&#45;&gt;Node46</title>
<path fill="none" stroke="#191970" d="M898.1649,-111.9443C1113.0678,-80.3564 1358.7033,-70.2893 1462.8299,-67.2236"/>
<polygon fill="#191970" stroke="#191970" points="897.3307,-108.5299 887.9553,-113.4649 898.3618,-115.4535 897.3307,-108.5299"/>
</g>
<!-- Node48 -->
<g id="node18" class="node">
<title>Node48</title>
<g id="a_node18"><a xlink:href="HMWSoln_8cpp.html" target="_top" xlink:title="Definitions for the HMWSoln ThermoPhase object, which models concentrated electrolyte solutions (see ...">
<polygon fill="#ffffff" stroke="#000000" points="818.5,-56.5 818.5,-75.5 898.5,-75.5 898.5,-56.5 818.5,-56.5"/>
<text text-anchor="middle" x="858.5" y="-63.5" font-family="Helvetica,sans-Serif" font-size="10.00" fill="#000000">HMWSoln.cpp</text>
</a>
</g>
</g>
<!-- Node47&#45;&gt;Node48 -->
<g id="edge17" class="edge">
<title>Node47&#45;&gt;Node48</title>
<path fill="none" stroke="#191970" d="M854.626,-102.1575C855.5905,-93.155 856.6872,-82.9199 857.4669,-75.6427"/>
<polygon fill="#191970" stroke="#191970" points="851.1305,-101.9296 853.5451,-112.2455 858.0906,-102.6753 851.1305,-101.9296"/>
</g>
<!-- Node49&#45;&gt;Node46 -->
<g id="edge22" class="edge">
<title>Node49&#45;&gt;Node46</title>
<path fill="none" stroke="#191970" d="M1005.323,-111.8495C1178.3751,-88.1946 1372.4452,-74.5526 1462.644,-68.9553"/>
<polygon fill="#191970" stroke="#191970" points="1004.6964,-108.4027 995.2695,-113.2384 1005.6544,-115.3369 1004.6964,-108.4027"/>
</g>
<!-- Node50 -->
<g id="node20" class="node">
<title>Node50</title>
<g id="a_node20"><a xlink:href="vcs__MultiPhaseEquil_8cpp.html" target="_top" xlink:title="Driver routine for the VCSnonideal equilibrium solver package. ">
<polygon fill="#ffffff" stroke="#000000" points="1034,-56.5 1034,-75.5 1161,-75.5 1161,-56.5 1034,-56.5"/>
<text text-anchor="middle" x="1097.5" y="-63.5" font-family="Helvetica,sans-Serif" font-size="10.00" fill="#000000">vcs_MultiPhaseEquil.cpp</text>
</a>
</g>
</g>
<!-- Node49&#45;&gt;Node50 -->
<g id="edge20" class="edge">
<title>Node49&#45;&gt;Node50</title>
<path fill="none" stroke="#191970" d="M985.1794,-108.7888C1012.0198,-98.5639 1048.547,-84.6488 1072.5596,-75.5011"/>
<polygon fill="#191970" stroke="#191970" points="983.8691,-105.5425 975.7702,-112.3733 986.3611,-112.0839 983.8691,-105.5425"/>
</g>
<!-- Node51 -->
<g id="node21" class="node">
<title>Node51</title>
<g id="a_node21"><a xlink:href="IdealMolalSoln_8cpp.html" target="_top" xlink:title="ThermoPhase object for the ideal molal equation of state (see Thermodynamic Properties and class Idea...">
<polygon fill="#ffffff" stroke="#000000" points="917,-56.5 917,-75.5 1016,-75.5 1016,-56.5 917,-56.5"/>
<text text-anchor="middle" x="966.5" y="-63.5" font-family="Helvetica,sans-Serif" font-size="10.00" fill="#000000">IdealMolalSoln.cpp</text>
</a>
</g>
</g>
<!-- Node49&#45;&gt;Node51 -->
<g id="edge21" class="edge">
<title>Node49&#45;&gt;Node51</title>
<path fill="none" stroke="#191970" d="M956.0846,-102.4538C958.677,-93.3803 961.6429,-82.9998 963.745,-75.6427"/>
<polygon fill="#191970" stroke="#191970" points="952.6689,-101.6688 953.287,-112.2455 959.3996,-103.5919 952.6689,-101.6688"/>
</g>
<!-- Node53 -->
<g id="node23" class="node">
<title>Node53</title>
<g id="a_node23"><a xlink:href="GibbsExcessVPSSTP_8cpp.html" target="_top" xlink:title="Definitions for intermediate ThermoPhase object for phases which employ excess Gibbs free energy form...">
<polygon fill="#ffffff" stroke="#000000" points="1729.5,-112.5 1729.5,-131.5 1863.5,-131.5 1863.5,-112.5 1729.5,-112.5"/>
<text text-anchor="middle" x="1796.5" y="-119.5" font-family="Helvetica,sans-Serif" font-size="10.00" fill="#000000">GibbsExcessVPSSTP.cpp</text>
</a>
</g>
</g>
<!-- Node52&#45;&gt;Node53 -->
<g id="edge24" class="edge">
<title>Node52&#45;&gt;Node53</title>
<path fill="none" stroke="#191970" d="M1975.8354,-166.0473C1933.8703,-155.7401 1874.0736,-141.0532 1835.2749,-131.5237"/>
<polygon fill="#191970" stroke="#191970" points="1975.0182,-169.4505 1985.5645,-168.4369 1976.688,-162.6526 1975.0182,-169.4505"/>
</g>
<!-- Node54 -->
<g id="node24" class="node">
<title>Node54</title>
<g id="a_node24"><a xlink:href="IonsFromNeutralVPSSTP_8h.html" target="_top" xlink:title="Header for intermediate ThermoPhase object for phases which consist of ions whose thermodynamics is c...">
<polygon fill="#ffffff" stroke="#000000" points="1882,-112.5 1882,-131.5 2019,-131.5 2019,-112.5 1882,-112.5"/>
<text text-anchor="middle" x="1950.5" y="-119.5" font-family="Helvetica,sans-Serif" font-size="10.00" fill="#000000">IonsFromNeutralVPSSTP.h</text>
</a>
</g>
</g>
<!-- Node52&#45;&gt;Node54 -->
<g id="edge25" class="edge">
<title>Node52&#45;&gt;Node54</title>
<path fill="none" stroke="#191970" d="M2003.6343,-162.2097C1990.6375,-152.3743 1974.3378,-140.0394 1963.2421,-131.6427"/>
<polygon fill="#191970" stroke="#191970" points="2001.524,-165.002 2011.6102,-168.2455 2005.7482,-159.4201 2001.524,-165.002"/>
</g>
<!-- Node58 -->
<g id="node28" class="node">
<title>Node58</title>
<g id="a_node28"><a xlink:href="MargulesVPSSTP_8h.html" target="_top" xlink:title="(see Thermodynamic Properties and class MargulesVPSSTP). ">
<polygon fill="#ffffff" stroke="#000000" points="2331.5,-112.5 2331.5,-131.5 2435.5,-131.5 2435.5,-112.5 2331.5,-112.5"/>
<text text-anchor="middle" x="2383.5" y="-119.5" font-family="Helvetica,sans-Serif" font-size="10.00" fill="#000000">MargulesVPSSTP.h</text>
</a>
</g>
</g>
<!-- Node52&#45;&gt;Node58 -->
<g id="edge31" class="edge">
<title>Node52&#45;&gt;Node58</title>
<path fill="none" stroke="#191970" d="M2096.3536,-167.1008C2156.7307,-157.8962 2245.2838,-144.2886 2322.5,-132 2325.3615,-131.5446 2328.298,-131.074 2331.2618,-130.5965"/>
<polygon fill="#191970" stroke="#191970" points="2095.5242,-163.6866 2086.1654,-168.6529 2096.5785,-170.6068 2095.5242,-163.6866"/>
</g>
<!-- Node60 -->
<g id="node30" class="node">
<title>Node60</title>
<g id="a_node30"><a xlink:href="MolarityIonicVPSSTP_8h.html" target="_top" xlink:title="(see Thermodynamic Properties and class MolarityIonicVPSSTP). ">
<polygon fill="#ffffff" stroke="#000000" points="2495.5,-112.5 2495.5,-131.5 2615.5,-131.5 2615.5,-112.5 2495.5,-112.5"/>
<text text-anchor="middle" x="2555.5" y="-119.5" font-family="Helvetica,sans-Serif" font-size="10.00" fill="#000000">MolarityIonicVPSSTP.h</text>
</a>
</g>
</g>
<!-- Node52&#45;&gt;Node60 -->
<g id="edge35" class="edge">
<title>Node52&#45;&gt;Node60</title>
<path fill="none" stroke="#191970" d="M2096.0893,-167.9848C2187.4007,-157.3193 2393.0108,-137.4757 2495.4753,-127.6988"/>
<polygon fill="#191970" stroke="#191970" points="2095.5715,-164.5216 2086.0538,-169.1759 2096.3966,-171.4728 2095.5715,-164.5216"/>
</g>
<!-- Node64 -->
<g id="node34" class="node">
<title>Node64</title>
<g id="a_node34"><a xlink:href="PhaseCombo__Interaction_8h.html" target="_top" xlink:title="Header for intermediate ThermoPhase object for phases which employ the Margules Gibbs free energy for...">
<polygon fill="#ffffff" stroke="#000000" points="2178,-112.5 2178,-131.5 2313,-131.5 2313,-112.5 2178,-112.5"/>
<text text-anchor="middle" x="2245.5" y="-119.5" font-family="Helvetica,sans-Serif" font-size="10.00" fill="#000000">PhaseCombo_Interaction.h</text>
</a>
</g>
</g>
<!-- Node52&#45;&gt;Node64 -->
<g id="edge40" class="edge">
<title>Node52&#45;&gt;Node64</title>
<path fill="none" stroke="#191970" d="M2072.1863,-165.9166C2112.836,-155.6162 2170.4667,-141.013 2207.9155,-131.5237"/>
<polygon fill="#191970" stroke="#191970" points="2071.0741,-162.5877 2062.2401,-168.4369 2072.7935,-169.3733 2071.0741,-162.5877"/>
</g>
<!-- Node66 -->
<g id="node36" class="node">
<title>Node66</title>
<g id="a_node36"><a xlink:href="RedlichKisterVPSSTP_8h.html" target="_top" xlink:title="(see Thermodynamic Properties and class RedlichKisterVPSSTP). ">
<polygon fill="#ffffff" stroke="#000000" points="2037,-112.5 2037,-131.5 2160,-131.5 2160,-112.5 2037,-112.5"/>
<text text-anchor="middle" x="2098.5" y="-119.5" font-family="Helvetica,sans-Serif" font-size="10.00" fill="#000000">RedlichKisterVPSSTP.h</text>
</a>
</g>
</g>
<!-- Node52&#45;&gt;Node66 -->
<g id="edge43" class="edge">
<title>Node52&#45;&gt;Node66</title>
<path fill="none" stroke="#191970" d="M2045.3657,-162.2097C2058.3625,-152.3743 2074.6622,-140.0394 2085.7579,-131.6427"/>
<polygon fill="#191970" stroke="#191970" points="2043.2518,-159.4201 2037.3898,-168.2455 2047.476,-165.002 2043.2518,-159.4201"/>
</g>
<!-- Node54&#45;&gt;Node38 -->
<g id="edge29" class="edge">
<title>Node54&#45;&gt;Node38</title>
<path fill="none" stroke="#191970" d="M1871.5728,-112.0122C1349.0638,-71.3049 1213.6451,-120.2795 695.5,-76 692.6473,-75.7562 689.7342,-75.4755 686.7944,-75.1665"/>
<polygon fill="#191970" stroke="#191970" points="1871.3905,-115.5085 1881.6341,-112.8033 1871.9393,-108.5301 1871.3905,-115.5085"/>
</g>
<!-- Node54&#45;&gt;Node46 -->
<g id="edge28" class="edge">
<title>Node54&#45;&gt;Node46</title>
<path fill="none" stroke="#191970" d="M1871.364,-111.8722C1737.5217,-95.4386 1702.1617,-94.7567 1572.5,-76 1569.7238,-75.5984 1566.877,-75.1703 1564.0052,-74.7257"/>
<polygon fill="#191970" stroke="#191970" points="1871.2468,-115.3842 1881.6003,-113.136 1872.1046,-108.4369 1871.2468,-115.3842"/>
</g>
<!-- Node55 -->
<g id="node25" class="node">
<title>Node55</title>
<g id="a_node25"><a xlink:href="IonsFromNeutralVPSSTP_8cpp.html" target="_top" xlink:title="Definitions for the object which treats ionic liquids as made of ions as species even though the ther...">
<polygon fill="#ffffff" stroke="#000000" points="1741.5,-56.5 1741.5,-75.5 1889.5,-75.5 1889.5,-56.5 1741.5,-56.5"/>
<text text-anchor="middle" x="1815.5" y="-63.5" font-family="Helvetica,sans-Serif" font-size="10.00" fill="#000000">IonsFromNeutralVPSSTP.cpp</text>
</a>
</g>
</g>
<!-- Node54&#45;&gt;Node55 -->
<g id="edge26" class="edge">
<title>Node54&#45;&gt;Node55</title>
<path fill="none" stroke="#191970" d="M1918.0009,-108.5189C1893.4146,-98.3201 1860.2634,-84.5685 1838.4045,-75.5011"/>
<polygon fill="#191970" stroke="#191970" points="1916.7148,-111.7745 1927.2927,-112.3733 1919.3969,-105.3087 1916.7148,-111.7745"/>
</g>
<!-- Node56 -->
<g id="node26" class="node">
<title>Node56</title>
<g id="a_node26"><a xlink:href="PDSS__IonsFromNeutral_8cpp.html" target="_top" xlink:title="Implementation of a pressure dependent standard state virtual function. ">
<polygon fill="#ffffff" stroke="#000000" points="1582,-56.5 1582,-75.5 1723,-75.5 1723,-56.5 1582,-56.5"/>
<text text-anchor="middle" x="1652.5" y="-63.5" font-family="Helvetica,sans-Serif" font-size="10.00" fill="#000000">PDSS_IonsFromNeutral.cpp</text>
</a>
</g>
</g>
<!-- Node54&#45;&gt;Node56 -->
<g id="edge27" class="edge">
<title>Node54&#45;&gt;Node56</title>
<path fill="none" stroke="#191970" d="M1889.6515,-110.5654C1834.6914,-100.2373 1754.7459,-85.214 1703.1795,-75.5237"/>
<polygon fill="#191970" stroke="#191970" points="1889.1362,-114.0297 1899.6106,-112.4369 1890.429,-107.1501 1889.1362,-114.0297"/>
</g>
<!-- Node57 -->
<g id="node27" class="node">
<title>Node57</title>
<g id="a_node27"><a xlink:href="LiquidTranInteraction_8cpp.html" target="_top" xlink:title="Source code for liquid mixture transport property evaluations. ">
<polygon fill="#ffffff" stroke="#000000" points="2059.5,-56.5 2059.5,-75.5 2185.5,-75.5 2185.5,-56.5 2059.5,-56.5"/>
<text text-anchor="middle" x="2122.5" y="-63.5" font-family="Helvetica,sans-Serif" font-size="10.00" fill="#000000">LiquidTranInteraction.cpp</text>
</a>
</g>
</g>
<!-- Node54&#45;&gt;Node57 -->
<g id="edge30" class="edge">
<title>Node54&#45;&gt;Node57</title>
<path fill="none" stroke="#191970" d="M1989.8435,-109.1905C2021.3551,-98.9309 2064.8519,-84.7691 2093.318,-75.5011"/>
<polygon fill="#191970" stroke="#191970" points="1988.493,-105.9493 1980.0679,-112.3733 1990.6601,-112.6054 1988.493,-105.9493"/>
</g>
<!-- Node58&#45;&gt;Node46 -->
<g id="edge33" class="edge">
<title>Node58&#45;&gt;Node46</title>
<path fill="none" stroke="#191970" d="M2320.9095,-111.9528C1988.832,-77.6593 1900.8733,-111.5794 1572.5,-76 1569.8145,-75.709 1567.066,-75.374 1564.2948,-75.0069"/>
<polygon fill="#191970" stroke="#191970" points="2320.9998,-115.4813 2331.3097,-113.0408 2321.7282,-108.5193 2320.9998,-115.4813"/>
</g>
<!-- Node58&#45;&gt;Node57 -->
<g id="edge34" class="edge">
<title>Node58&#45;&gt;Node57</title>
<path fill="none" stroke="#191970" d="M2329.0036,-110.3073C2280.9098,-99.9883 2211.6762,-85.1336 2166.8871,-75.5237"/>
<polygon fill="#191970" stroke="#191970" points="2328.4173,-113.7611 2338.9291,-112.4369 2329.8859,-106.9168 2328.4173,-113.7611"/>
</g>
<!-- Node59 -->
<g id="node29" class="node">
<title>Node59</title>
<g id="a_node29"><a xlink:href="MargulesVPSSTP_8cpp.html" target="_top" xlink:title="Definitions for ThermoPhase object for phases which employ excess Gibbs free energy formulations rela...">
<polygon fill="#ffffff" stroke="#000000" points="2368,-56.5 2368,-75.5 2483,-75.5 2483,-56.5 2368,-56.5"/>
<text text-anchor="middle" x="2425.5" y="-63.5" font-family="Helvetica,sans-Serif" font-size="10.00" fill="#000000">MargulesVPSSTP.cpp</text>
</a>
</g>
</g>
<!-- Node58&#45;&gt;Node59 -->
<g id="edge32" class="edge">
<title>Node58&#45;&gt;Node59</title>
<path fill="none" stroke="#191970" d="M2396.8416,-104.2112C2403.9396,-94.7472 2412.3903,-83.4797 2418.268,-75.6427"/>
<polygon fill="#191970" stroke="#191970" points="2394.0159,-102.1455 2390.8158,-112.2455 2399.6159,-106.3455 2394.0159,-102.1455"/>
</g>
<!-- Node60&#45;&gt;Node46 -->
<g id="edge37" class="edge">
<title>Node60&#45;&gt;Node46</title>
<path fill="none" stroke="#191970" d="M2485.1552,-115.1432C2471.6696,-113.9758 2457.6546,-112.8636 2444.5,-112 2057.4475,-86.5907 1958.2665,-116.4906 1572.5,-76 1569.8136,-75.718 1567.0643,-75.3902 1564.2925,-75.0287"/>
<polygon fill="#191970" stroke="#191970" points="2485.0722,-118.6494 2495.3416,-116.0434 2485.6885,-111.6766 2485.0722,-118.6494"/>
</g>
<!-- Node61 -->
<g id="node31" class="node">
<title>Node61</title>
<g id="a_node31"><a xlink:href="MolarityIonicVPSSTP_8cpp.html" target="_top" xlink:title="Definitions for intermediate ThermoPhase object for phases which employ excess Gibbs free energy form...">
<polygon fill="#ffffff" stroke="#000000" points="2650,-56.5 2650,-75.5 2781,-75.5 2781,-56.5 2650,-56.5"/>
<text text-anchor="middle" x="2715.5" y="-63.5" font-family="Helvetica,sans-Serif" font-size="10.00" fill="#000000">MolarityIonicVPSSTP.cpp</text>
</a>
</g>
</g>
<!-- Node60&#45;&gt;Node61 -->
<g id="edge36" class="edge">
<title>Node60&#45;&gt;Node61</title>
<path fill="none" stroke="#191970" d="M2592.4799,-109.057C2621.7618,-98.8084 2661.9885,-84.729 2688.3539,-75.5011"/>
<polygon fill="#191970" stroke="#191970" points="2591.2873,-105.7662 2583.005,-112.3733 2593.5998,-112.3732 2591.2873,-105.7662"/>
</g>
<!-- Node62 -->
<g id="node32" class="node">
<title>Node62</title>
<g id="a_node32"><a xlink:href="MixedSolventElectrolyte_8h.html" target="_top" xlink:title="(see Thermodynamic Properties and class MixedSolventElectrolyte ). ">
<polygon fill="#ffffff" stroke="#000000" points="2501,-56.5 2501,-75.5 2632,-75.5 2632,-56.5 2501,-56.5"/>
<text text-anchor="middle" x="2566.5" y="-63.5" font-family="Helvetica,sans-Serif" font-size="10.00" fill="#000000">MixedSolventElectrolyte.h</text>
</a>
</g>
</g>
<!-- Node60&#45;&gt;Node62 -->
<g id="edge38" class="edge">
<title>Node60&#45;&gt;Node62</title>
<path fill="none" stroke="#191970" d="M2559.3976,-102.1575C2561.166,-93.155 2563.1765,-82.9199 2564.6059,-75.6427"/>
<polygon fill="#191970" stroke="#191970" points="2555.9092,-101.7584 2557.4161,-112.2455 2562.778,-103.1077 2555.9092,-101.7584"/>
</g>
<!-- Node63 -->
<g id="node33" class="node">
<title>Node63</title>
<g id="a_node33"><a xlink:href="MixedSolventElectrolyte_8cpp.html" target="_top" xlink:title="see Thermodynamic Properties and class MixedSolventElectrolyte ). ">
<polygon fill="#ffffff" stroke="#000000" points="2496,-.5 2496,-19.5 2637,-19.5 2637,-.5 2496,-.5"/>
<text text-anchor="middle" x="2566.5" y="-7.5" font-family="Helvetica,sans-Serif" font-size="10.00" fill="#000000">MixedSolventElectrolyte.cpp</text>
</a>
</g>
</g>
<!-- Node62&#45;&gt;Node63 -->
<g id="edge39" class="edge">
<title>Node62&#45;&gt;Node63</title>
<path fill="none" stroke="#191970" d="M2566.5,-46.1575C2566.5,-37.155 2566.5,-26.9199 2566.5,-19.6427"/>
<polygon fill="#191970" stroke="#191970" points="2563.0001,-46.2455 2566.5,-56.2455 2570.0001,-46.2456 2563.0001,-46.2455"/>
</g>
<!-- Node64&#45;&gt;Node46 -->
<g id="edge42" class="edge">
<title>Node64&#45;&gt;Node46</title>
<path fill="none" stroke="#191970" d="M2167.6806,-111.8881C1903.1307,-87.1356 1833.2353,-105.8697 1572.5,-76 1569.8164,-75.6926 1567.0693,-75.3444 1564.2993,-74.967"/>
<polygon fill="#191970" stroke="#191970" points="2167.6975,-115.4053 2177.9832,-112.8647 2168.3581,-108.4366 2167.6975,-115.4053"/>
</g>
<!-- Node65 -->
<g id="node35" class="node">
<title>Node65</title>
<g id="a_node35"><a xlink:href="PhaseCombo__Interaction_8cpp.html" target="_top" xlink:title="PhaseCombo_Interaction.cpp">
<polygon fill="#ffffff" stroke="#000000" points="2203.5,-56.5 2203.5,-75.5 2349.5,-75.5 2349.5,-56.5 2203.5,-56.5"/>
<text text-anchor="middle" x="2276.5" y="-63.5" font-family="Helvetica,sans-Serif" font-size="10.00" fill="#000000">PhaseCombo_Interaction.cpp</text>
</a>
</g>
</g>
<!-- Node64&#45;&gt;Node65 -->
<g id="edge41" class="edge">
<title>Node64&#45;&gt;Node65</title>
<path fill="none" stroke="#191970" d="M2255.8312,-103.3372C2260.9665,-94.0605 2266.9566,-83.2398 2271.1621,-75.6427"/>
<polygon fill="#191970" stroke="#191970" points="2252.6809,-101.8015 2250.8998,-112.2455 2258.8051,-105.1917 2252.6809,-101.8015"/>
</g>
<!-- Node66&#45;&gt;Node46 -->
<g id="edge45" class="edge">
<title>Node66&#45;&gt;Node46</title>
<path fill="none" stroke="#191970" d="M2026.6487,-111.8528C1824.7184,-89.9714 1771.002,-100.6081 1572.5,-76 1569.8193,-75.6677 1567.0746,-75.2997 1564.3065,-74.9068"/>
<polygon fill="#191970" stroke="#191970" points="2026.3684,-115.3429 2036.6904,-112.9543 2027.1317,-108.3847 2026.3684,-115.3429"/>
</g>
<!-- Node67 -->
<g id="node37" class="node">
<title>Node67</title>
<g id="a_node37"><a xlink:href="RedlichKisterVPSSTP_8cpp.html" target="_top" xlink:title="Definitions for ThermoPhase object for phases which employ excess Gibbs free energy formulations rela...">
<polygon fill="#ffffff" stroke="#000000" points="1907.5,-56.5 1907.5,-75.5 2041.5,-75.5 2041.5,-56.5 1907.5,-56.5"/>
<text text-anchor="middle" x="1974.5" y="-63.5" font-family="Helvetica,sans-Serif" font-size="10.00" fill="#000000">RedlichKisterVPSSTP.cpp</text>
</a>
</g>
</g>
<!-- Node66&#45;&gt;Node67 -->
<g id="edge44" class="edge">
<title>Node66&#45;&gt;Node67</title>
<path fill="none" stroke="#191970" d="M2068.0476,-108.2473C2045.5278,-98.0771 2015.4383,-84.4883 1995.5382,-75.5011"/>
<polygon fill="#191970" stroke="#191970" points="2066.6294,-111.4471 2077.1836,-112.3733 2069.5105,-105.0675 2066.6294,-111.4471"/>
</g>
<!-- Node68&#45;&gt;Node46 -->
<g id="edge48" class="edge">
<title>Node68&#45;&gt;Node46</title>
<path fill="none" stroke="#191970" d="M1368.5672,-157.7598C1370.3534,-143.3303 1374.934,-124.3707 1386.5,-112 1406.3592,-90.7592 1436.7764,-79.303 1462.8642,-73.136"/>
<polygon fill="#191970" stroke="#191970" points="1365.0432,-157.8802 1367.6538,-168.1483 1372.0163,-158.4934 1365.0432,-157.8802"/>
</g>
<!-- Node69 -->
<g id="node39" class="node">
<title>Node69</title>
<g id="a_node39"><a xlink:href="IdealSolnGasVPSS_8cpp.html" target="_top" xlink:title="Definition file for a derived class of ThermoPhase that assumes either an ideal gas or ideal solution...">
<polygon fill="#ffffff" stroke="#000000" points="1396,-112.5 1396,-131.5 1517,-131.5 1517,-112.5 1396,-112.5"/>
<text text-anchor="middle" x="1456.5" y="-119.5" font-family="Helvetica,sans-Serif" font-size="10.00" fill="#000000">IdealSolnGasVPSS.cpp</text>
</a>
</g>
</g>
<!-- Node68&#45;&gt;Node69 -->
<g id="edge47" class="edge">
<title>Node68&#45;&gt;Node69</title>
<path fill="none" stroke="#191970" d="M1391.7064,-162.769C1407.4775,-152.8456 1427.576,-140.1994 1441.175,-131.6427"/>
<polygon fill="#191970" stroke="#191970" points="1389.6026,-159.9575 1383.0026,-168.2455 1393.3305,-165.8823 1389.6026,-159.9575"/>
</g>
<!-- Node70&#45;&gt;Node46 -->
<g id="edge51" class="edge">
<title>Node70&#45;&gt;Node46</title>
<path fill="none" stroke="#191970" d="M1539.9568,-158.5987C1533.0323,-134.363 1521.4586,-93.8551 1516.2214,-75.5249"/>
<polygon fill="#191970" stroke="#191970" points="1536.6591,-159.7972 1542.7717,-168.4509 1543.3898,-157.8742 1536.6591,-159.7972"/>
</g>
<!-- Node71 -->
<g id="node41" class="node">
<title>Node71</title>
<g id="a_node41"><a xlink:href="MaskellSolidSolnPhase_8cpp.html" target="_top" xlink:title="Implementation file for an ideal solid solution model with incompressible thermodynamics (see Thermod...">
<polygon fill="#ffffff" stroke="#000000" points="1573.5,-112.5 1573.5,-131.5 1711.5,-131.5 1711.5,-112.5 1573.5,-112.5"/>
<text text-anchor="middle" x="1642.5" y="-119.5" font-family="Helvetica,sans-Serif" font-size="10.00" fill="#000000">MaskellSolidSolnPhase.cpp</text>
</a>
</g>
</g>
<!-- Node70&#45;&gt;Node71 -->
<g id="edge50" class="edge">
<title>Node70&#45;&gt;Node71</title>
<path fill="none" stroke="#191970" d="M1571.4016,-163.0465C1588.6609,-153.0824 1610.8376,-140.2794 1625.7975,-131.6427"/>
<polygon fill="#191970" stroke="#191970" points="1569.3065,-160.2146 1562.3961,-168.2455 1572.8064,-166.2768 1569.3065,-160.2146"/>
</g>
<!-- Node72&#45;&gt;Node38 -->
<g id="edge55" class="edge">
<title>Node72&#45;&gt;Node38</title>
<path fill="none" stroke="#191970" d="M644.502,-103.3372C639.5324,-94.0605 633.7356,-83.2398 629.6657,-75.6427"/>
<polygon fill="#191970" stroke="#191970" points="641.4669,-105.0835 649.2744,-112.2455 647.6373,-101.7779 641.4669,-105.0835"/>
</g>
<!-- Node72&#45;&gt;Node46 -->
<g id="edge54" class="edge">
<title>Node72&#45;&gt;Node46</title>
<path fill="none" stroke="#191970" d="M707.5596,-112.058C872.6121,-92.8973 1313.2738,-74.0528 1462.9883,-67.997"/>
<polygon fill="#191970" stroke="#191970" points="707.07,-108.5916 697.5601,-113.2618 707.9067,-115.5414 707.07,-108.5916"/>
</g>
<!-- Node73 -->
<g id="node43" class="node">
<title>Node73</title>
<g id="a_node43"><a xlink:href="PDSSFactory_8cpp.html" target="_top" xlink:title="PDSSFactory.cpp">
<polygon fill="#ffffff" stroke="#000000" points="448.5,-56.5 448.5,-75.5 544.5,-75.5 544.5,-56.5 448.5,-56.5"/>
<text text-anchor="middle" x="496.5" y="-63.5" font-family="Helvetica,sans-Serif" font-size="10.00" fill="#000000">PDSSFactory.cpp</text>
</a>
</g>
</g>
<!-- Node72&#45;&gt;Node73 -->
<g id="edge53" class="edge">
<title>Node72&#45;&gt;Node73</title>
<path fill="none" stroke="#191970" d="M617.6045,-108.9231C588.7213,-98.686 549.2294,-84.6889 523.3067,-75.5011"/>
<polygon fill="#191970" stroke="#191970" points="616.7441,-112.3314 627.3388,-112.3733 619.0826,-105.7336 616.7441,-112.3314"/>
</g>
</g>
</svg>
