<?xml version="1.0" encoding="UTF-8" standalone="no"?>
<!DOCTYPE svg PUBLIC "-//W3C//DTD SVG 1.1//EN"
 "http://www.w3.org/Graphics/SVG/1.1/DTD/svg11.dtd">
<!-- Generated by graphviz version 2.40.1 (20161225.0304)
 -->
<!-- Title: WaterProps.cpp Pages: 1 -->
<svg width="713pt" height="375pt"
 viewBox="0.00 0.00 712.50 375.00" xmlns="http://www.w3.org/2000/svg" xmlns:xlink="http://www.w3.org/1999/xlink">
<g id="graph0" class="graph" transform="scale(1 1) rotate(0) translate(4 371)">
<title>WaterProps.cpp</title>
<polygon fill="#ffffff" stroke="transparent" points="-4,4 -4,-371 708.5,-371 708.5,4 -4,4"/>
<!-- Node0 -->
<g id="node1" class="node">
<title>Node0</title>
<polygon fill="#bfbfbf" stroke="#000000" points="273,-347.5 273,-366.5 361,-366.5 361,-347.5 273,-347.5"/>
<text text-anchor="middle" x="317" y="-354.5" font-family="Helvetica,sans-Serif" font-size="10.00" fill="#000000">WaterProps.cpp</text>
</g>
<!-- Node1 -->
<g id="node2" class="node">
<title>Node1</title>
<g id="a_node2"><a xlink:href="../../db/d4b/WaterProps_8h.html" target="_top" xlink:title="Header for a class used to house several approximation routines for properties of water...">
<polygon fill="#ffffff" stroke="#000000" points="0,-112.5 0,-131.5 148,-131.5 148,-112.5 0,-112.5"/>
<text text-anchor="middle" x="74" y="-119.5" font-family="Helvetica,sans-Serif" font-size="10.00" fill="#000000">cantera/thermo/WaterProps.h</text>
</a>
</g>
</g>
<!-- Node0&#45;&gt;Node1 -->
<g id="edge1" class="edge">
<title>Node0&#45;&gt;Node1</title>
<path fill="none" stroke="#191970" d="M307.1731,-347.4967C270.1573,-311.6995 138.8351,-184.7007 91.3197,-138.7495"/>
<polygon fill="#191970" stroke="#191970" points="93.5707,-136.0574 83.9491,-131.6216 88.7044,-141.0893 93.5707,-136.0574"/>
</g>
<!-- Node11 -->
<g id="node12" class="node">
<title>Node11</title>
<g id="a_node12"><a xlink:href="../../dc/deb/ctml_8h.html" target="_top" xlink:title="CTML (&quot;Cantera Markup Language&quot;) is the variant of XML that Cantera uses to store data...">
<polygon fill="#ffffff" stroke="#000000" points="322,-291.5 322,-310.5 426,-310.5 426,-291.5 322,-291.5"/>
<text text-anchor="middle" x="374" y="-298.5" font-family="Helvetica,sans-Serif" font-size="10.00" fill="#000000">cantera/base/ctml.h</text>
</a>
</g>
</g>
<!-- Node0&#45;&gt;Node11 -->
<g id="edge11" class="edge">
<title>Node0&#45;&gt;Node11</title>
<path fill="none" stroke="#191970" d="M326.9286,-347.2455C335.1838,-339.1352 347.1209,-327.4075 356.9082,-317.7919"/>
<polygon fill="#191970" stroke="#191970" points="359.5046,-320.1476 364.1851,-310.6427 354.5989,-315.1542 359.5046,-320.1476"/>
</g>
<!-- Node19 -->
<g id="node18" class="node">
<title>Node19</title>
<g id="a_node18"><a xlink:href="../../d8/d6d/PDSS__Water_8h.html" target="_top" xlink:title="Implementation of a pressure dependent standard state virtual function for a Pure Water Phase (see Sp...">
<polygon fill="#ffffff" stroke="#000000" points="200,-168.5 200,-198.5 314,-198.5 314,-168.5 200,-168.5"/>
<text text-anchor="start" x="208" y="-186.5" font-family="Helvetica,sans-Serif" font-size="10.00" fill="#000000">cantera/thermo/PDSS</text>
<text text-anchor="middle" x="257" y="-175.5" font-family="Helvetica,sans-Serif" font-size="10.00" fill="#000000">_Water.h</text>
</a>
</g>
</g>
<!-- Node0&#45;&gt;Node19 -->
<g id="edge21" class="edge">
<title>Node0&#45;&gt;Node19</title>
<path fill="none" stroke="#191970" d="M313.6887,-347.4248C304.6003,-321.1442 279.0501,-247.2616 265.5716,-208.2861"/>
<polygon fill="#191970" stroke="#191970" points="268.8439,-207.0394 262.2677,-198.7325 262.2283,-209.3272 268.8439,-207.0394"/>
</g>
<!-- Node23 -->
<g id="node22" class="node">
<title>Node23</title>
<g id="a_node22"><a xlink:href="../../dd/dc3/stringUtils_8h.html" target="_top" xlink:title="Contains declarations for string manipulation functions within Cantera. ">
<polygon fill="#ffffff" stroke="#000000" points="575.5,-174 575.5,-193 704.5,-193 704.5,-174 575.5,-174"/>
<text text-anchor="middle" x="640" y="-181" font-family="Helvetica,sans-Serif" font-size="10.00" fill="#000000">cantera/base/stringUtils.h</text>
</a>
</g>
</g>
<!-- Node0&#45;&gt;Node23 -->
<g id="edge28" class="edge">
<title>Node0&#45;&gt;Node23</title>
<path fill="none" stroke="#191970" d="M345.769,-347.464C370.0636,-339.0175 405.5064,-325.7619 435,-311 504.7946,-276.067 581.5224,-224.491 618.166,-198.969"/>
<polygon fill="#191970" stroke="#191970" points="620.4078,-201.6719 626.5899,-193.0677 616.3914,-195.9388 620.4078,-201.6719"/>
</g>
<!-- Node2 -->
<g id="node3" class="node">
<title>Node2</title>
<g id="a_node3"><a xlink:href="../../d9/ddc/ct__defs_8h.html" target="_top" xlink:title="This file contains definitions of terms that are used in internal routines and are unlikely to need m...">
<polygon fill="#ffffff" stroke="#000000" points="353,-56.5 353,-75.5 471,-75.5 471,-56.5 353,-56.5"/>
<text text-anchor="middle" x="412" y="-63.5" font-family="Helvetica,sans-Serif" font-size="10.00" fill="#000000">cantera/base/ct_defs.h</text>
</a>
</g>
</g>
<!-- Node1&#45;&gt;Node2 -->
<g id="edge2" class="edge">
<title>Node1&#45;&gt;Node2</title>
<path fill="none" stroke="#191970" d="M131.7202,-112.4369C190.66,-102.6717 282.107,-87.5207 344.3966,-77.2006"/>
<polygon fill="#191970" stroke="#191970" points="345.2244,-80.6112 354.5178,-75.5237 344.0802,-73.7053 345.2244,-80.6112"/>
</g>
<!-- Node3 -->
<g id="node4" class="node">
<title>Node3</title>
<g id="a_node4"><a xlink:href="../../db/d16/config_8h_source.html" target="_top" xlink:title="config.h">
<polygon fill="#ffffff" stroke="#000000" points="195,-.5 195,-19.5 247,-19.5 247,-.5 195,-.5"/>
<text text-anchor="middle" x="221" y="-7.5" font-family="Helvetica,sans-Serif" font-size="10.00" fill="#000000">config.h</text>
</a>
</g>
</g>
<!-- Node2&#45;&gt;Node3 -->
<g id="edge3" class="edge">
<title>Node2&#45;&gt;Node3</title>
<path fill="none" stroke="#191970" d="M379.1659,-56.3733C345.189,-46.4114 292.2647,-30.8944 257.1229,-20.591"/>
<polygon fill="#191970" stroke="#191970" points="257.852,-17.1575 247.2712,-17.7026 255.8825,-23.8747 257.852,-17.1575"/>
</g>
<!-- Node4 -->
<g id="node5" class="node">
<title>Node4</title>
<polygon fill="#ffffff" stroke="#bfbfbf" points="265,-.5 265,-19.5 309,-19.5 309,-.5 265,-.5"/>
<text text-anchor="middle" x="287" y="-7.5" font-family="Helvetica,sans-Serif" font-size="10.00" fill="#000000">cmath</text>
</g>
<!-- Node2&#45;&gt;Node4 -->
<g id="edge4" class="edge">
<title>Node2&#45;&gt;Node4</title>
<path fill="none" stroke="#191970" d="M390.5117,-56.3733C370.356,-47.3435 340.012,-33.7494 317.382,-23.6111"/>
<polygon fill="#191970" stroke="#191970" points="318.7649,-20.3955 308.2079,-19.5011 315.9029,-26.7838 318.7649,-20.3955"/>
</g>
<!-- Node5 -->
<g id="node6" class="node">
<title>Node5</title>
<polygon fill="#ffffff" stroke="#bfbfbf" points="327.5,-.5 327.5,-19.5 372.5,-19.5 372.5,-.5 327.5,-.5"/>
<text text-anchor="middle" x="350" y="-7.5" font-family="Helvetica,sans-Serif" font-size="10.00" fill="#000000">cstdlib</text>
</g>
<!-- Node2&#45;&gt;Node5 -->
<g id="edge5" class="edge">
<title>Node2&#45;&gt;Node5</title>
<path fill="none" stroke="#191970" d="M401.2004,-56.2455C392.1322,-48.0549 378.9794,-36.1749 368.2755,-26.5069"/>
<polygon fill="#191970" stroke="#191970" points="370.4429,-23.7482 360.6758,-19.6427 365.7509,-28.9429 370.4429,-23.7482"/>
</g>
<!-- Node6 -->
<g id="node7" class="node">
<title>Node6</title>
<polygon fill="#ffffff" stroke="#bfbfbf" points="391,-.5 391,-19.5 435,-19.5 435,-.5 391,-.5"/>
<text text-anchor="middle" x="413" y="-7.5" font-family="Helvetica,sans-Serif" font-size="10.00" fill="#000000">vector</text>
</g>
<!-- Node2&#45;&gt;Node6 -->
<g id="edge6" class="edge">
<title>Node2&#45;&gt;Node6</title>
<path fill="none" stroke="#191970" d="M412.1742,-56.2455C412.3047,-48.9382 412.4876,-38.6944 412.6481,-29.7046"/>
<polygon fill="#191970" stroke="#191970" points="416.1486,-29.7036 412.8278,-19.6427 409.1497,-29.5786 416.1486,-29.7036"/>
</g>
<!-- Node7 -->
<g id="node8" class="node">
<title>Node7</title>
<polygon fill="#ffffff" stroke="#bfbfbf" points="453,-.5 453,-19.5 489,-19.5 489,-.5 453,-.5"/>
<text text-anchor="middle" x="471" y="-7.5" font-family="Helvetica,sans-Serif" font-size="10.00" fill="#000000">map</text>
</g>
<!-- Node2&#45;&gt;Node7 -->
<g id="edge7" class="edge">
<title>Node2&#45;&gt;Node7</title>
<path fill="none" stroke="#191970" d="M422.277,-56.2455C430.8218,-48.1352 443.1778,-36.4075 453.3085,-26.7919"/>
<polygon fill="#191970" stroke="#191970" points="455.9972,-29.0655 460.8408,-19.6427 451.1782,-23.9884 455.9972,-29.0655"/>
</g>
<!-- Node8 -->
<g id="node9" class="node">
<title>Node8</title>
<polygon fill="#ffffff" stroke="#bfbfbf" points="658.5,-.5 658.5,-19.5 699.5,-19.5 699.5,-.5 658.5,-.5"/>
<text text-anchor="middle" x="679" y="-7.5" font-family="Helvetica,sans-Serif" font-size="10.00" fill="#000000">string</text>
</g>
<!-- Node2&#45;&gt;Node8 -->
<g id="edge8" class="edge">
<title>Node2&#45;&gt;Node8</title>
<path fill="none" stroke="#191970" d="M469.0932,-56.4255C516.6909,-48.0498 586.1401,-34.9136 646,-20 646.8895,-19.7784 647.7906,-19.5475 648.6988,-19.3093"/>
<polygon fill="#191970" stroke="#191970" points="649.8096,-22.6329 658.4923,-16.5615 647.9185,-15.8931 649.8096,-22.6329"/>
</g>
<!-- Node9 -->
<g id="node10" class="node">
<title>Node9</title>
<polygon fill="#ffffff" stroke="#bfbfbf" points="507,-.5 507,-19.5 565,-19.5 565,-.5 507,-.5"/>
<text text-anchor="middle" x="536" y="-7.5" font-family="Helvetica,sans-Serif" font-size="10.00" fill="#000000">algorithm</text>
</g>
<!-- Node2&#45;&gt;Node9 -->
<g id="edge9" class="edge">
<title>Node2&#45;&gt;Node9</title>
<path fill="none" stroke="#191970" d="M433.3164,-56.3733C453.2216,-47.3838 483.1436,-33.8706 505.56,-23.7471"/>
<polygon fill="#191970" stroke="#191970" points="507.2887,-26.8068 514.9618,-19.5011 504.4075,-20.4272 507.2887,-26.8068"/>
</g>
<!-- Node10 -->
<g id="node11" class="node">
<title>Node10</title>
<polygon fill="#ffffff" stroke="#bfbfbf" points="583.5,-.5 583.5,-19.5 636.5,-19.5 636.5,-.5 583.5,-.5"/>
<text text-anchor="middle" x="610" y="-7.5" font-family="Helvetica,sans-Serif" font-size="10.00" fill="#000000">memory</text>
</g>
<!-- Node2&#45;&gt;Node10 -->
<g id="edge10" class="edge">
<title>Node2&#45;&gt;Node10</title>
<path fill="none" stroke="#191970" d="M446.0374,-56.3733C481.6129,-46.3115 537.2261,-30.5825 573.6439,-20.2825"/>
<polygon fill="#191970" stroke="#191970" points="574.704,-23.6201 583.374,-17.5306 572.7989,-16.8843 574.704,-23.6201"/>
</g>
<!-- Node11&#45;&gt;Node2 -->
<g id="edge12" class="edge">
<title>Node11&#45;&gt;Node2</title>
<path fill="none" stroke="#191970" d="M375.2428,-291.2995C378.0907,-269.3152 385.4284,-214.0308 393,-168 397.7363,-139.206 404.0868,-106.0083 408.1119,-85.511"/>
<polygon fill="#191970" stroke="#191970" points="411.5774,-86.0278 410.0838,-75.5388 404.7103,-84.6699 411.5774,-86.0278"/>
</g>
<!-- Node12 -->
<g id="node13" class="node">
<title>Node12</title>
<g id="a_node13"><a xlink:href="../../d0/d62/xml_8h.html" target="_top" xlink:title="Classes providing support for XML data files. ">
<polygon fill="#ffffff" stroke="#000000" points="408,-235.5 408,-254.5 448,-254.5 448,-235.5 408,-235.5"/>
<text text-anchor="middle" x="428" y="-242.5" font-family="Helvetica,sans-Serif" font-size="10.00" fill="#000000">xml.h</text>
</a>
</g>
</g>
<!-- Node11&#45;&gt;Node12 -->
<g id="edge13" class="edge">
<title>Node11&#45;&gt;Node12</title>
<path fill="none" stroke="#191970" d="M383.4061,-291.2455C391.1493,-283.2155 402.312,-271.6394 411.5318,-262.0781"/>
<polygon fill="#191970" stroke="#191970" points="414.2798,-264.2706 418.7017,-254.6427 409.2409,-259.4117 414.2798,-264.2706"/>
</g>
<!-- Node13 -->
<g id="node14" class="node">
<title>Node13</title>
<g id="a_node14"><a xlink:href="../../db/d98/ctexceptions_8h.html" target="_top" xlink:title="Definitions for the classes that are thrown when Cantera experiences an error condition (also contain...">
<polygon fill="#ffffff" stroke="#000000" points="472,-174 472,-193 552,-193 552,-174 472,-174"/>
<text text-anchor="middle" x="512" y="-181" font-family="Helvetica,sans-Serif" font-size="10.00" fill="#000000">ctexceptions.h</text>
</a>
</g>
</g>
<!-- Node12&#45;&gt;Node13 -->
<g id="edge14" class="edge">
<title>Node12&#45;&gt;Node13</title>
<path fill="none" stroke="#191970" d="M441.125,-235.3906C454.44,-225.6421 475.2594,-210.3994 490.8947,-198.9521"/>
<polygon fill="#191970" stroke="#191970" points="492.9661,-201.7734 498.9672,-193.0419 488.8309,-196.1253 492.9661,-201.7734"/>
</g>
<!-- Node18 -->
<g id="node17" class="node">
<title>Node18</title>
<g id="a_node17"><a xlink:href="../../d2/d49/global_8h.html" target="_top" xlink:title="This file contains definitions for utility functions and text for modules, inputfiles, logs, textlogs, (see Input File Handling, Diagnostic Output, and Writing messages to the screen). ">
<polygon fill="#ffffff" stroke="#000000" points="402,-174 402,-193 454,-193 454,-174 402,-174"/>
<text text-anchor="middle" x="428" y="-181" font-family="Helvetica,sans-Serif" font-size="10.00" fill="#000000">global.h</text>
</a>
</g>
</g>
<!-- Node12&#45;&gt;Node18 -->
<g id="edge18" class="edge">
<title>Node12&#45;&gt;Node18</title>
<path fill="none" stroke="#191970" d="M428,-235.3906C428,-226.8657 428,-214.1392 428,-203.4235"/>
<polygon fill="#191970" stroke="#191970" points="431.5001,-203.2448 428,-193.2449 424.5001,-203.2449 431.5001,-203.2448"/>
</g>
<!-- Node14 -->
<g id="node15" class="node">
<title>Node14</title>
<g id="a_node15"><a xlink:href="../../db/def/fmt_8h.html" target="_top" xlink:title="Wrapper for either system&#45;installed or local headers for fmt. ">
<polygon fill="#ffffff" stroke="#ff0000" points="440.5,-112.5 440.5,-131.5 539.5,-131.5 539.5,-112.5 440.5,-112.5"/>
<text text-anchor="middle" x="490" y="-119.5" font-family="Helvetica,sans-Serif" font-size="10.00" fill="#000000">cantera/base/fmt.h</text>
</a>
</g>
</g>
<!-- Node13&#45;&gt;Node14 -->
<g id="edge15" class="edge">
<title>Node13&#45;&gt;Node14</title>
<path fill="none" stroke="#191970" d="M508.5625,-173.8906C505.4487,-165.1862 500.768,-152.1015 496.886,-141.2494"/>
<polygon fill="#191970" stroke="#191970" points="500.1497,-139.9817 493.486,-131.7449 493.5588,-142.3394 500.1497,-139.9817"/>
</g>
<!-- Node17 -->
<g id="node16" class="node">
<title>Node17</title>
<polygon fill="#ffffff" stroke="#bfbfbf" points="557.5,-112.5 557.5,-131.5 616.5,-131.5 616.5,-112.5 557.5,-112.5"/>
<text text-anchor="middle" x="587" y="-119.5" font-family="Helvetica,sans-Serif" font-size="10.00" fill="#000000">exception</text>
</g>
<!-- Node13&#45;&gt;Node17 -->
<g id="edge17" class="edge">
<title>Node13&#45;&gt;Node17</title>
<path fill="none" stroke="#191970" d="M523.7188,-173.8906C535.3188,-164.3786 553.2979,-149.6357 567.1321,-138.2917"/>
<polygon fill="#191970" stroke="#191970" points="569.6026,-140.7921 575.116,-131.7449 565.164,-135.3792 569.6026,-140.7921"/>
</g>
<!-- Node14&#45;&gt;Node2 -->
<g id="edge16" class="edge">
<title>Node14&#45;&gt;Node2</title>
<path fill="none" stroke="#191970" d="M476.4134,-112.2455C464.6695,-103.814 447.4801,-91.4729 433.8118,-81.6598"/>
<polygon fill="#191970" stroke="#191970" points="435.5954,-78.6316 425.4309,-75.6427 431.5129,-84.3179 435.5954,-78.6316"/>
</g>
<!-- Node18&#45;&gt;Node2 -->
<g id="edge19" class="edge">
<title>Node18&#45;&gt;Node2</title>
<path fill="none" stroke="#191970" d="M426.6907,-173.8845C424.0771,-154.6913 418.1666,-111.286 414.6916,-85.7663"/>
<polygon fill="#191970" stroke="#191970" points="418.1448,-85.1847 413.3274,-75.7484 411.2088,-86.1292 418.1448,-85.1847"/>
</g>
<!-- Node18&#45;&gt;Node14 -->
<g id="edge20" class="edge">
<title>Node18&#45;&gt;Node14</title>
<path fill="none" stroke="#191970" d="M437.6875,-173.8906C447.0959,-164.5581 461.5807,-150.1902 472.9249,-138.9374"/>
<polygon fill="#191970" stroke="#191970" points="475.5411,-141.2722 480.1759,-131.7449 470.6114,-136.3024 475.5411,-141.2722"/>
</g>
<!-- Node19&#45;&gt;Node1 -->
<g id="edge27" class="edge">
<title>Node19&#45;&gt;Node1</title>
<path fill="none" stroke="#191970" d="M212.2332,-168.4554C181.5652,-158.149 141.3229,-144.6249 112.1728,-134.8286"/>
<polygon fill="#191970" stroke="#191970" points="112.9525,-131.3983 102.3585,-131.5303 110.7226,-138.0336 112.9525,-131.3983"/>
</g>
<!-- Node20 -->
<g id="node19" class="node">
<title>Node20</title>
<g id="a_node19"><a xlink:href="../../d7/dfa/PDSS_8h.html" target="_top" xlink:title="Declarations for the virtual base class PDSS (pressure dependent standard state) which handles calcul...">
<polygon fill="#ffffff" stroke="#000000" points="294,-112.5 294,-131.5 346,-131.5 346,-112.5 294,-112.5"/>
<text text-anchor="middle" x="320" y="-119.5" font-family="Helvetica,sans-Serif" font-size="10.00" fill="#000000">PDSS.h</text>
</a>
</g>
</g>
<!-- Node19&#45;&gt;Node20 -->
<g id="edge22" class="edge">
<title>Node19&#45;&gt;Node20</title>
<path fill="none" stroke="#191970" d="M272.573,-168.2977C281.6825,-159.4052 293.2034,-148.1586 302.6091,-138.9769"/>
<polygon fill="#191970" stroke="#191970" points="305.202,-141.3368 309.9129,-131.8469 300.3122,-136.3278 305.202,-141.3368"/>
</g>
<!-- Node21 -->
<g id="node20" class="node">
<title>Node21</title>
<g id="a_node20"><a xlink:href="../../d2/d86/WaterPropsIAPWS_8h.html" target="_top" xlink:title="Headers for a class for calculating the equation of state of water from the IAPWS 1995 Formulation ba...">
<polygon fill="#ffffff" stroke="#000000" points="166,-112.5 166,-131.5 276,-131.5 276,-112.5 166,-112.5"/>
<text text-anchor="middle" x="221" y="-119.5" font-family="Helvetica,sans-Serif" font-size="10.00" fill="#000000">WaterPropsIAPWS.h</text>
</a>
</g>
</g>
<!-- Node19&#45;&gt;Node21 -->
<g id="edge24" class="edge">
<title>Node19&#45;&gt;Node21</title>
<path fill="none" stroke="#191970" d="M248.1011,-168.2977C243.2081,-159.9388 237.0974,-149.4997 231.9176,-140.6509"/>
<polygon fill="#191970" stroke="#191970" points="234.8365,-138.7089 226.7641,-131.8469 228.7953,-142.2452 234.8365,-138.7089"/>
</g>
<!-- Node20&#45;&gt;Node2 -->
<g id="edge23" class="edge">
<title>Node20&#45;&gt;Node2</title>
<path fill="none" stroke="#191970" d="M336.0252,-112.2455C350.1408,-103.6534 370.9263,-91.0014 387.1899,-81.1018"/>
<polygon fill="#191970" stroke="#191970" points="389.4363,-83.8319 396.1585,-75.6427 385.7966,-77.8525 389.4363,-83.8319"/>
</g>
<!-- Node22 -->
<g id="node21" class="node">
<title>Node22</title>
<g id="a_node21"><a xlink:href="../../da/d59/WaterPropsIAPWSphi_8h.html" target="_top" xlink:title="Header for Lowest level of the classes which support a real water model (see class WaterPropsIAPWS an...">
<polygon fill="#ffffff" stroke="#000000" points="159.5,-56.5 159.5,-75.5 282.5,-75.5 282.5,-56.5 159.5,-56.5"/>
<text text-anchor="middle" x="221" y="-63.5" font-family="Helvetica,sans-Serif" font-size="10.00" fill="#000000">WaterPropsIAPWSphi.h</text>
</a>
</g>
</g>
<!-- Node21&#45;&gt;Node22 -->
<g id="edge25" class="edge">
<title>Node21&#45;&gt;Node22</title>
<path fill="none" stroke="#191970" d="M221,-112.2455C221,-104.9382 221,-94.6944 221,-85.7046"/>
<polygon fill="#191970" stroke="#191970" points="224.5001,-85.6426 221,-75.6427 217.5001,-85.6427 224.5001,-85.6426"/>
</g>
<!-- Node22&#45;&gt;Node3 -->
<g id="edge26" class="edge">
<title>Node22&#45;&gt;Node3</title>
<path fill="none" stroke="#191970" d="M221,-56.2455C221,-48.9382 221,-38.6944 221,-29.7046"/>
<polygon fill="#191970" stroke="#191970" points="224.5001,-29.6426 221,-19.6427 217.5001,-29.6427 224.5001,-29.6426"/>
</g>
<!-- Node23&#45;&gt;Node2 -->
<g id="edge29" class="edge">
<title>Node23&#45;&gt;Node2</title>
<path fill="none" stroke="#191970" d="M641.17,-173.6552C642.4042,-158.2788 642.3053,-128.6077 626,-112 606.0122,-91.6415 535.8494,-79.3398 481.2473,-72.6476"/>
<polygon fill="#191970" stroke="#191970" points="481.591,-69.1639 471.2486,-71.4626 480.7671,-76.1152 481.591,-69.1639"/>
</g>
<!-- Node23&#45;&gt;Node8 -->
<g id="edge31" class="edge">
<title>Node23&#45;&gt;Node8</title>
<path fill="none" stroke="#191970" d="M642.1524,-173.9248C648.3172,-146.499 666.1352,-67.232 674.5276,-29.8964"/>
<polygon fill="#191970" stroke="#191970" points="678.0278,-30.2837 676.8062,-19.7595 671.1982,-28.7485 678.0278,-30.2837"/>
</g>
<!-- Node23&#45;&gt;Node14 -->
<g id="edge30" class="edge">
<title>Node23&#45;&gt;Node14</title>
<path fill="none" stroke="#191970" d="M616.5625,-173.8906C591.3547,-163.5554 551.0847,-147.0447 522.7523,-135.4284"/>
<polygon fill="#191970" stroke="#191970" points="523.8532,-132.0971 513.2729,-131.5419 521.1977,-138.5739 523.8532,-132.0971"/>
</g>
</g>
</svg>
