<?xml version="1.0" encoding="UTF-8" standalone="no"?>
<!DOCTYPE svg PUBLIC "-//W3C//DTD SVG 1.1//EN"
 "http://www.w3.org/Graphics/SVG/1.1/DTD/svg11.dtd">
<!-- Generated by graphviz version 2.40.1 (20161225.0304)
 -->
<!-- Title: STITbyPDSS Pages: 1 -->
<svg width="220pt" height="95pt"
 viewBox="0.00 0.00 220.00 95.00" xmlns="http://www.w3.org/2000/svg" xmlns:xlink="http://www.w3.org/1999/xlink">
<g id="graph0" class="graph" transform="scale(1 1) rotate(0) translate(4 91)">
<title>STITbyPDSS</title>
<polygon fill="#ffffff" stroke="transparent" points="-4,4 -4,-91 216,-91 216,4 -4,4"/>
<!-- Node2 -->
<g id="node1" class="node">
<title>Node2</title>
<polygon fill="#bfbfbf" stroke="#000000" points="82,-.5 82,-19.5 158,-19.5 158,-.5 82,-.5"/>
<text text-anchor="middle" x="120" y="-7.5" font-family="Helvetica,sans-Serif" font-size="10.00" fill="#000000">STITbyPDSS</text>
</g>
<!-- Node3 -->
<g id="node2" class="node">
<title>Node3</title>
<g id="a_node2"><a xlink:href="../../dc/de2/classCantera_1_1SpeciesThermoInterpType.html" target="_top" xlink:title="Abstract Base class for the thermodynamic manager for an individual species&#39; reference state...">
<polygon fill="#ffffff" stroke="#000000" points="0,-67.5 0,-86.5 134,-86.5 134,-67.5 0,-67.5"/>
<text text-anchor="middle" x="67" y="-74.5" font-family="Helvetica,sans-Serif" font-size="10.00" fill="#000000">SpeciesThermoInterpType</text>
</a>
</g>
</g>
<!-- Node3&#45;&gt;Node2 -->
<g id="edge1" class="edge">
<title>Node3&#45;&gt;Node2</title>
<path fill="none" stroke="#191970" d="M80.963,-59.3486C91.0324,-46.6194 104.2401,-29.9229 112.4205,-19.5817"/>
<polygon fill="#191970" stroke="#191970" points="78.0527,-57.3863 74.5936,-67.4005 83.5427,-61.7291 78.0527,-57.3863"/>
</g>
<!-- Node4 -->
<g id="node3" class="node">
<title>Node4</title>
<g id="a_node3"><a xlink:href="../../de/dbe/classCantera_1_1PDSS.html" target="_top" xlink:title="Virtual base class for a species with a pressure dependent standard state. ">
<polygon fill="#ffffff" stroke="#000000" points="152,-67.5 152,-86.5 196,-86.5 196,-67.5 152,-67.5"/>
<text text-anchor="middle" x="174" y="-74.5" font-family="Helvetica,sans-Serif" font-size="10.00" fill="#000000">PDSS</text>
</a>
</g>
</g>
<!-- Node4&#45;&gt;Node2 -->
<g id="edge2" class="edge">
<title>Node4&#45;&gt;Node2</title>
<path fill="none" stroke="#9a32cd" stroke-dasharray="5,2" d="M159.7735,-59.3486C149.5141,-46.6194 136.0573,-29.9229 127.7225,-19.5817"/>
<polygon fill="#9a32cd" stroke="#9a32cd" points="157.2627,-61.8109 166.2631,-67.4005 162.7129,-57.4182 157.2627,-61.8109"/>
<text text-anchor="middle" x="181" y="-41" font-family="Helvetica,sans-Serif" font-size="10.00" fill="#000000"> m_PDSS_ptr</text>
</g>
</g>
</svg>
