<?xml version="1.0" encoding="UTF-8" standalone="no"?>
<!DOCTYPE svg PUBLIC "-//W3C//DTD SVG 1.1//EN"
 "http://www.w3.org/Graphics/SVG/1.1/DTD/svg11.dtd">
<!-- Generated by graphviz version 2.43.0 (0)
 -->
<!-- Title: IdealGasMix Pages: 1 -->
<svg width="930pt" height="419pt"
 viewBox="0.00 0.00 930.00 419.00" xmlns="http://www.w3.org/2000/svg" xmlns:xlink="http://www.w3.org/1999/xlink">
<g id="graph0" class="graph" transform="scale(1 1) rotate(0) translate(4 415)">
<title>IdealGasMix</title>
<polygon fill="white" stroke="transparent" points="-4,4 -4,-415 926,-415 926,4 -4,4"/>
<!-- Node1 -->
<g id="node1" class="node">
<title>Node1</title>
<g id="a_node1"><a xlink:title="Convenience class which inherits from both IdealGasPhase and GasKinetics.">
<polygon fill="#bfbfbf" stroke="black" points="845,-300.5 845,-319.5 922,-319.5 922,-300.5 845,-300.5"/>
<text text-anchor="middle" x="883.5" y="-307.5" font-family="Helvetica,sans-Serif" font-size="10.00">IdealGasMix</text>
</a>
</g>
</g>
<!-- Node2 -->
<g id="node2" class="node">
<title>Node2</title>
<g id="a_node2"><a xlink:href="../../d7/dfa/classCantera_1_1IdealGasPhase.html" target="_top" xlink:title="Class IdealGasPhase represents low&#45;density gases that obey the ideal gas equation of state.">
<polygon fill="white" stroke="black" points="719,-300.5 719,-319.5 808,-319.5 808,-300.5 719,-300.5"/>
<text text-anchor="middle" x="763.5" y="-307.5" font-family="Helvetica,sans-Serif" font-size="10.00">IdealGasPhase</text>
</a>
</g>
</g>
<!-- Node2&#45;&gt;Node1 -->
<g id="edge1" class="edge">
<title>Node2&#45;&gt;Node1</title>
<path fill="none" stroke="midnightblue" d="M818.18,-310C827.2,-310 836.39,-310 844.9,-310"/>
<polygon fill="midnightblue" stroke="midnightblue" points="818.1,-306.5 808.1,-310 818.1,-313.5 818.1,-306.5"/>
</g>
<!-- Node3 -->
<g id="node3" class="node">
<title>Node3</title>
<g id="a_node3"><a xlink:href="../../dc/d38/classCantera_1_1ThermoPhase.html" target="_top" xlink:title="Base class for a phase with thermodynamic properties.">
<polygon fill="white" stroke="black" points="482,-300.5 482,-319.5 565,-319.5 565,-300.5 482,-300.5"/>
<text text-anchor="middle" x="523.5" y="-307.5" font-family="Helvetica,sans-Serif" font-size="10.00">ThermoPhase</text>
</a>
</g>
</g>
<!-- Node3&#45;&gt;Node2 -->
<g id="edge2" class="edge">
<title>Node3&#45;&gt;Node2</title>
<path fill="none" stroke="midnightblue" d="M575.31,-310C617.97,-310 678.27,-310 718.8,-310"/>
<polygon fill="midnightblue" stroke="midnightblue" points="575.14,-306.5 565.14,-310 575.14,-313.5 575.14,-306.5"/>
</g>
<!-- Node4 -->
<g id="node4" class="node">
<title>Node4</title>
<g id="a_node4"><a xlink:href="../../d6/d0e/classCantera_1_1Phase.html" target="_top" xlink:title="Class Phase is the base class for phases of matter, managing the species and elements in a phase,...">
<polygon fill="white" stroke="black" points="243,-338.5 243,-357.5 289,-357.5 289,-338.5 243,-338.5"/>
<text text-anchor="middle" x="266" y="-345.5" font-family="Helvetica,sans-Serif" font-size="10.00">Phase</text>
</a>
</g>
</g>
<!-- Node4&#45;&gt;Node3 -->
<g id="edge3" class="edge">
<title>Node4&#45;&gt;Node3</title>
<path fill="none" stroke="midnightblue" d="M299.42,-343.52C331.95,-338.99 383.48,-331.71 428,-325 445.58,-322.35 464.97,-319.29 481.59,-316.64"/>
<polygon fill="midnightblue" stroke="midnightblue" points="298.58,-340.1 289.15,-344.95 299.54,-347.04 298.58,-340.1"/>
</g>
<!-- Node5 -->
<g id="node5" class="node">
<title>Node5</title>
<g id="a_node5"><a xlink:href="../../d1/d98/classCantera_1_1XML__Node.html" target="_top" xlink:title="Class XML_Node is a tree&#45;based representation of the contents of an XML file.">
<polygon fill="white" stroke="black" points="18,-351.5 18,-370.5 86,-370.5 86,-351.5 18,-351.5"/>
<text text-anchor="middle" x="52" y="-358.5" font-family="Helvetica,sans-Serif" font-size="10.00">XML_Node</text>
</a>
</g>
</g>
<!-- Node5&#45;&gt;Node1 -->
<g id="edge24" class="edge">
<title>Node5&#45;&gt;Node1</title>
<path fill="none" stroke="#9a32cd" stroke-dasharray="5,2" d="M96.32,-369.13C139.04,-376.42 206.28,-386 265,-386 265,-386 265,-386 764.5,-386 812.99,-386 857.4,-340.08 874.77,-319.63"/>
<polygon fill="#9a32cd" stroke="#9a32cd" points="96.72,-365.64 86.27,-367.37 95.52,-372.54 96.72,-365.64"/>
<text text-anchor="middle" x="523.5" y="-389" font-family="Helvetica,sans-Serif" font-size="10.00"> m_r</text>
</g>
<!-- Node5&#45;&gt;Node4 -->
<g id="edge4" class="edge">
<title>Node5&#45;&gt;Node4</title>
<path fill="none" stroke="#9a32cd" stroke-dasharray="5,2" d="M96.35,-358.34C140.81,-355.62 208.22,-351.48 242.81,-349.36"/>
<polygon fill="#9a32cd" stroke="#9a32cd" points="95.89,-354.86 86.12,-358.97 96.32,-361.85 95.89,-354.86"/>
<text text-anchor="middle" x="145.5" y="-359" font-family="Helvetica,sans-Serif" font-size="10.00"> m_xml</text>
</g>
<!-- Node5&#45;&gt;Node5 -->
<g id="edge5" class="edge">
<title>Node5&#45;&gt;Node5</title>
<path fill="none" stroke="#9a32cd" stroke-dasharray="5,2" d="M34.96,-380.4C36.1,-385.31 41.78,-389 52,-389 68.35,-389 73.08,-379.57 66.18,-370.76"/>
<polygon fill="#9a32cd" stroke="#9a32cd" points="38.34,-381.34 37.82,-370.76 31.62,-379.35 38.34,-381.34"/>
<text text-anchor="middle" x="52" y="-403" font-family="Helvetica,sans-Serif" font-size="10.00"> m_parent</text>
<text text-anchor="middle" x="52" y="-392" font-family="Helvetica,sans-Serif" font-size="10.00">m_root</text>
</g>
<!-- Node6 -->
<g id="node6" class="node">
<title>Node6</title>
<g id="a_node6"><a xlink:href="../../d8/d89/classCantera_1_1ValueCache.html" target="_top" xlink:title=" ">
<polygon fill="white" stroke="black" points="15,-301.5 15,-320.5 89,-320.5 89,-301.5 15,-301.5"/>
<text text-anchor="middle" x="52" y="-308.5" font-family="Helvetica,sans-Serif" font-size="10.00">ValueCache</text>
</a>
</g>
</g>
<!-- Node6&#45;&gt;Node4 -->
<g id="edge6" class="edge">
<title>Node6&#45;&gt;Node4</title>
<path fill="none" stroke="#9a32cd" stroke-dasharray="5,2" d="M99.44,-319.11C143.96,-326.88 209.22,-338.27 242.97,-344.16"/>
<polygon fill="#9a32cd" stroke="#9a32cd" points="99.9,-315.63 89.44,-317.36 98.69,-322.53 99.9,-315.63"/>
<text text-anchor="middle" x="145.5" y="-333" font-family="Helvetica,sans-Serif" font-size="10.00"> m_cache</text>
</g>
<!-- Node13 -->
<g id="node13" class="node">
<title>Node13</title>
<g id="a_node13"><a xlink:href="../../d4/dc4/classCantera_1_1Kinetics.html" target="_top" xlink:title="Public interface for kinetics managers.">
<polygon fill="white" stroke="black" points="238,-262.5 238,-281.5 294,-281.5 294,-262.5 238,-262.5"/>
<text text-anchor="middle" x="266" y="-269.5" font-family="Helvetica,sans-Serif" font-size="10.00">Kinetics</text>
</a>
</g>
</g>
<!-- Node6&#45;&gt;Node13 -->
<g id="edge14" class="edge">
<title>Node6&#45;&gt;Node13</title>
<path fill="none" stroke="#9a32cd" stroke-dasharray="5,2" d="M99.51,-302.44C141.83,-294.66 202.88,-283.43 237.78,-277.01"/>
<polygon fill="#9a32cd" stroke="#9a32cd" points="98.65,-299.04 89.44,-304.3 99.91,-305.93 98.65,-299.04"/>
<text text-anchor="middle" x="145.5" y="-301" font-family="Helvetica,sans-Serif" font-size="10.00"> m_cache</text>
</g>
<!-- Node7 -->
<g id="node7" class="node">
<title>Node7</title>
<g id="a_node7"><a xlink:href="../../db/d74/classCantera_1_1AnyMap.html" target="_top" xlink:title="A map of string keys to values whose type can vary at runtime.">
<polygon fill="white" stroke="black" points="238,-224.5 238,-243.5 294,-243.5 294,-224.5 238,-224.5"/>
<text text-anchor="middle" x="266" y="-231.5" font-family="Helvetica,sans-Serif" font-size="10.00">AnyMap</text>
</a>
</g>
</g>
<!-- Node7&#45;&gt;Node3 -->
<g id="edge7" class="edge">
<title>Node7&#45;&gt;Node3</title>
<path fill="none" stroke="#9a32cd" stroke-dasharray="5,2" d="M304.19,-242.48C317.15,-245.59 331.77,-249.27 345,-253 398.58,-268.11 460.29,-288.65 495.02,-300.5"/>
<polygon fill="#9a32cd" stroke="#9a32cd" points="304.74,-239.02 294.2,-240.12 303.12,-245.83 304.74,-239.02"/>
<text text-anchor="middle" x="395.5" y="-280" font-family="Helvetica,sans-Serif" font-size="10.00"> m_input</text>
</g>
<!-- Node8 -->
<g id="node8" class="node">
<title>Node8</title>
<g id="a_node8"><a xlink:href="../../d9/d23/classCantera_1_1AnyBase.html" target="_top" xlink:title="Base class defining common data possessed by both AnyMap and AnyValue objects.">
<polygon fill="white" stroke="black" points="22.5,-232.5 22.5,-251.5 81.5,-251.5 81.5,-232.5 22.5,-232.5"/>
<text text-anchor="middle" x="52" y="-239.5" font-family="Helvetica,sans-Serif" font-size="10.00">AnyBase</text>
</a>
</g>
</g>
<!-- Node8&#45;&gt;Node7 -->
<g id="edge8" class="edge">
<title>Node8&#45;&gt;Node7</title>
<path fill="none" stroke="midnightblue" d="M91.8,-240.54C134.13,-238.94 200.8,-236.42 237.87,-235.02"/>
<polygon fill="midnightblue" stroke="midnightblue" points="91.45,-237.05 81.59,-240.92 91.72,-244.04 91.45,-237.05"/>
</g>
<!-- Node9 -->
<g id="node9" class="node">
<title>Node9</title>
<g id="a_node9"><a xlink:href="../../d1/df0/classCantera_1_1UnitSystem.html" target="_top" xlink:title="Unit conversion utility.">
<polygon fill="white" stroke="black" points="15,-194.5 15,-213.5 89,-213.5 89,-194.5 15,-194.5"/>
<text text-anchor="middle" x="52" y="-201.5" font-family="Helvetica,sans-Serif" font-size="10.00">UnitSystem</text>
</a>
</g>
</g>
<!-- Node9&#45;&gt;Node7 -->
<g id="edge9" class="edge">
<title>Node9&#45;&gt;Node7</title>
<path fill="none" stroke="#9a32cd" stroke-dasharray="5,2" d="M99.51,-210.58C141.83,-216.57 202.88,-225.21 237.78,-230.15"/>
<polygon fill="#9a32cd" stroke="#9a32cd" points="99.84,-207.09 89.44,-209.16 98.86,-214.02 99.84,-207.09"/>
<text text-anchor="middle" x="145.5" y="-223" font-family="Helvetica,sans-Serif" font-size="10.00"> m_units</text>
</g>
<!-- Node10 -->
<g id="node10" class="node">
<title>Node10</title>
<g id="a_node10"><a xlink:href="../../d5/dda/classCantera_1_1MultiSpeciesThermo.html" target="_top" xlink:title="A species thermodynamic property manager for a phase.">
<polygon fill="white" stroke="black" points="208,-300.5 208,-319.5 324,-319.5 324,-300.5 208,-300.5"/>
<text text-anchor="middle" x="266" y="-307.5" font-family="Helvetica,sans-Serif" font-size="10.00">MultiSpeciesThermo</text>
</a>
</g>
</g>
<!-- Node10&#45;&gt;Node3 -->
<g id="edge10" class="edge">
<title>Node10&#45;&gt;Node3</title>
<path fill="none" stroke="#9a32cd" stroke-dasharray="5,2" d="M334.11,-310C381.06,-310 442.24,-310 481.93,-310"/>
<polygon fill="#9a32cd" stroke="#9a32cd" points="334.02,-306.5 324.02,-310 334.02,-313.5 334.02,-306.5"/>
<text text-anchor="middle" x="395.5" y="-313" font-family="Helvetica,sans-Serif" font-size="10.00"> m_spthermo</text>
</g>
<!-- Node11 -->
<g id="node11" class="node">
<title>Node11</title>
<g id="a_node11"><a xlink:href="../../de/dae/classCantera_1_1GasKinetics.html" target="_top" xlink:title="Kinetics manager for elementary gas&#45;phase chemistry.">
<polygon fill="white" stroke="black" points="726.5,-126.5 726.5,-145.5 800.5,-145.5 800.5,-126.5 726.5,-126.5"/>
<text text-anchor="middle" x="763.5" y="-133.5" font-family="Helvetica,sans-Serif" font-size="10.00">GasKinetics</text>
</a>
</g>
</g>
<!-- Node11&#45;&gt;Node1 -->
<g id="edge11" class="edge">
<title>Node11&#45;&gt;Node1</title>
<path fill="none" stroke="midnightblue" d="M776.9,-154.28C801.73,-190.89 856.81,-272.12 875.86,-300.21"/>
<polygon fill="midnightblue" stroke="midnightblue" points="779.52,-151.91 771.01,-145.6 773.73,-155.84 779.52,-151.91"/>
</g>
<!-- Node12 -->
<g id="node12" class="node">
<title>Node12</title>
<g id="a_node12"><a xlink:href="../../d5/d0f/classCantera_1_1BulkKinetics.html" target="_top" xlink:title="Partial specialization of Kinetics for chemistry in a single bulk phase.">
<polygon fill="white" stroke="black" points="485,-222.5 485,-241.5 562,-241.5 562,-222.5 485,-222.5"/>
<text text-anchor="middle" x="523.5" y="-229.5" font-family="Helvetica,sans-Serif" font-size="10.00">BulkKinetics</text>
</a>
</g>
</g>
<!-- Node12&#45;&gt;Node11 -->
<g id="edge12" class="edge">
<title>Node12&#45;&gt;Node11</title>
<path fill="none" stroke="midnightblue" d="M572.07,-229.59C609.06,-226.05 660.71,-217.34 701,-196 724.46,-183.57 745.03,-159.42 755.39,-145.85"/>
<polygon fill="midnightblue" stroke="midnightblue" points="571.7,-226.11 562.04,-230.46 572.31,-233.09 571.7,-226.11"/>
</g>
<!-- Node13&#45;&gt;Node12 -->
<g id="edge13" class="edge">
<title>Node13&#45;&gt;Node12</title>
<path fill="none" stroke="midnightblue" d="M304.07,-271.87C336.9,-271.19 385.99,-268.77 428,-261 451.79,-256.6 478.04,-248.25 496.83,-241.63"/>
<polygon fill="midnightblue" stroke="midnightblue" points="303.95,-268.37 294.01,-272.04 304.07,-275.37 303.95,-268.37"/>
</g>
<!-- Node14 -->
<g id="node14" class="node">
<title>Node14</title>
<g id="a_node14"><a xlink:href="../../d5/d4e/classCantera_1_1Rate1.html" target="_top" xlink:title=" ">
<polygon fill="white" stroke="black" points="187,-179.5 187,-198.5 345,-198.5 345,-179.5 187,-179.5"/>
<text text-anchor="middle" x="266" y="-186.5" font-family="Helvetica,sans-Serif" font-size="10.00">Rate1&lt; Cantera::Arrhenius &gt;</text>
</a>
</g>
</g>
<!-- Node14&#45;&gt;Node11 -->
<g id="edge16" class="edge">
<title>Node14&#45;&gt;Node11</title>
<path fill="none" stroke="#9a32cd" stroke-dasharray="5,2" d="M355.27,-185.2C443.32,-180.5 582.19,-170.57 701,-151 709.57,-149.59 718.7,-147.62 727.24,-145.57"/>
<polygon fill="#9a32cd" stroke="#9a32cd" points="354.86,-181.72 345.06,-185.74 355.23,-188.71 354.86,-181.72"/>
<text text-anchor="middle" x="523.5" y="-194" font-family="Helvetica,sans-Serif" font-size="10.00"> m_falloff_high_rates</text>
<text text-anchor="middle" x="523.5" y="-183" font-family="Helvetica,sans-Serif" font-size="10.00">m_falloff_low_rates</text>
</g>
<!-- Node14&#45;&gt;Node12 -->
<g id="edge15" class="edge">
<title>Node14&#45;&gt;Node12</title>
<path fill="none" stroke="#9a32cd" stroke-dasharray="5,2" d="M334,-200.21C362.91,-205.06 397.12,-210.8 428,-216 446.71,-219.15 467.49,-222.67 484.79,-225.6"/>
<polygon fill="#9a32cd" stroke="#9a32cd" points="334.45,-196.74 324,-198.54 333.29,-203.64 334.45,-196.74"/>
<text text-anchor="middle" x="395.5" y="-219" font-family="Helvetica,sans-Serif" font-size="10.00"> m_rates</text>
</g>
<!-- Node15 -->
<g id="node15" class="node">
<title>Node15</title>
<g id="a_node15"><a xlink:href="../../d5/d4e/classCantera_1_1Rate1.html" target="_top" xlink:title=" ">
<polygon fill="white" stroke="black" points="457,-126.5 457,-145.5 590,-145.5 590,-126.5 457,-126.5"/>
<text text-anchor="middle" x="523.5" y="-133.5" font-family="Helvetica,sans-Serif" font-size="10.00">Rate1&lt; Cantera::Plog &gt;</text>
</a>
</g>
</g>
<!-- Node15&#45;&gt;Node11 -->
<g id="edge17" class="edge">
<title>Node15&#45;&gt;Node11</title>
<path fill="none" stroke="#9a32cd" stroke-dasharray="5,2" d="M600.39,-136C642.49,-136 692.9,-136 726.21,-136"/>
<polygon fill="#9a32cd" stroke="#9a32cd" points="600.16,-132.5 590.16,-136 600.16,-139.5 600.16,-132.5"/>
<text text-anchor="middle" x="660" y="-139" font-family="Helvetica,sans-Serif" font-size="10.00"> m_plog_rates</text>
</g>
<!-- Node16 -->
<g id="node16" class="node">
<title>Node16</title>
<g id="a_node16"><a xlink:href="../../d2/d68/classCantera_1_1FalloffMgr.html" target="_top" xlink:title="A falloff manager that implements any set of falloff functions.">
<polygon fill="white" stroke="black" points="491,-88.5 491,-107.5 556,-107.5 556,-88.5 491,-88.5"/>
<text text-anchor="middle" x="523.5" y="-95.5" font-family="Helvetica,sans-Serif" font-size="10.00">FalloffMgr</text>
</a>
</g>
</g>
<!-- Node16&#45;&gt;Node11 -->
<g id="edge18" class="edge">
<title>Node16&#45;&gt;Node11</title>
<path fill="none" stroke="#9a32cd" stroke-dasharray="5,2" d="M566.33,-102.14C602.23,-106.01 655.24,-112.46 701,-121 709.21,-122.53 717.97,-124.48 726.22,-126.45"/>
<polygon fill="#9a32cd" stroke="#9a32cd" points="566.54,-98.65 556.23,-101.08 565.81,-105.61 566.54,-98.65"/>
<text text-anchor="middle" x="660" y="-124" font-family="Helvetica,sans-Serif" font-size="10.00"> m_falloffn</text>
</g>
<!-- Node17 -->
<g id="node17" class="node">
<title>Node17</title>
<g id="a_node17"><a xlink:href="../../d1/d00/classCantera_1_1FalloffFactory.html" target="_top" xlink:title="Factory class to construct falloff function calculators.">
<polygon fill="white" stroke="black" points="225.5,-88.5 225.5,-107.5 306.5,-107.5 306.5,-88.5 225.5,-88.5"/>
<text text-anchor="middle" x="266" y="-95.5" font-family="Helvetica,sans-Serif" font-size="10.00">FalloffFactory</text>
</a>
</g>
</g>
<!-- Node17&#45;&gt;Node16 -->
<g id="edge19" class="edge">
<title>Node17&#45;&gt;Node16</title>
<path fill="none" stroke="#9a32cd" stroke-dasharray="5,2" d="M316.88,-98C368.42,-98 447.28,-98 490.84,-98"/>
<polygon fill="#9a32cd" stroke="#9a32cd" points="316.64,-94.5 306.64,-98 316.64,-101.5 316.64,-94.5"/>
<text text-anchor="middle" x="395.5" y="-101" font-family="Helvetica,sans-Serif" font-size="10.00"> m_factory</text>
</g>
<!-- Node17&#45;&gt;Node17 -->
<g id="edge21" class="edge">
<title>Node17&#45;&gt;Node17</title>
<path fill="none" stroke="#9a32cd" stroke-dasharray="5,2" d="M243.68,-117.03C244.9,-122.13 252.34,-126 266,-126 287.33,-126 293.49,-116.57 284.5,-107.76"/>
<polygon fill="#9a32cd" stroke="#9a32cd" points="246.93,-118.34 247.5,-107.76 240.45,-115.67 246.93,-118.34"/>
<text text-anchor="middle" x="266" y="-129" font-family="Helvetica,sans-Serif" font-size="10.00"> s_factory</text>
</g>
<!-- Node18 -->
<g id="node18" class="node">
<title>Node18</title>
<g id="a_node18"><a xlink:href="../../dc/dd4/classCantera_1_1Factory.html" target="_top" xlink:title=" ">
<polygon fill="white" stroke="red" points="0,-88.5 0,-107.5 104,-107.5 104,-88.5 0,-88.5"/>
<text text-anchor="middle" x="52" y="-95.5" font-family="Helvetica,sans-Serif" font-size="10.00">Factory&lt; Falloff &gt;</text>
</a>
</g>
</g>
<!-- Node18&#45;&gt;Node17 -->
<g id="edge20" class="edge">
<title>Node18&#45;&gt;Node17</title>
<path fill="none" stroke="midnightblue" d="M114.37,-98C150.11,-98 194.13,-98 225.33,-98"/>
<polygon fill="midnightblue" stroke="midnightblue" points="114.05,-94.5 104.05,-98 114.05,-101.5 114.05,-94.5"/>
</g>
<!-- Node20 -->
<g id="node19" class="node">
<title>Node20</title>
<g id="a_node19"><a xlink:href="../../d5/d4e/classCantera_1_1Rate1.html" target="_top" xlink:title=" ">
<polygon fill="white" stroke="black" points="446,-39 446,-69 601,-69 601,-39 446,-39"/>
<text text-anchor="start" x="454" y="-57" font-family="Helvetica,sans-Serif" font-size="10.00">Rate1&lt; Cantera::Chebyshev</text>
<text text-anchor="middle" x="523.5" y="-46" font-family="Helvetica,sans-Serif" font-size="10.00">Rate &gt;</text>
</a>
</g>
</g>
<!-- Node20&#45;&gt;Node11 -->
<g id="edge22" class="edge">
<title>Node20&#45;&gt;Node11</title>
<path fill="none" stroke="#9a32cd" stroke-dasharray="5,2" d="M611.01,-66.86C640.34,-72.96 672.79,-81.71 701,-94 719.96,-102.27 739.25,-116.61 751.04,-126.2"/>
<polygon fill="#9a32cd" stroke="#9a32cd" points="611.69,-63.42 601.2,-64.89 610.31,-70.29 611.69,-63.42"/>
<text text-anchor="middle" x="660" y="-97" font-family="Helvetica,sans-Serif" font-size="10.00"> m_cheb_rates</text>
</g>
<!-- Node21 -->
<g id="node20" class="node">
<title>Node21</title>
<g id="a_node20"><a xlink:href="../../d9/d96/classCantera_1_1ThirdBodyCalc.html" target="_top" xlink:title="Calculate and apply third&#45;body effects on reaction rates, including non&#45; unity third&#45;body efficiencie...">
<polygon fill="white" stroke="black" points="480,-0.5 480,-19.5 567,-19.5 567,-0.5 480,-0.5"/>
<text text-anchor="middle" x="523.5" y="-7.5" font-family="Helvetica,sans-Serif" font-size="10.00">ThirdBodyCalc</text>
</a>
</g>
</g>
<!-- Node21&#45;&gt;Node11 -->
<g id="edge23" class="edge">
<title>Node21&#45;&gt;Node11</title>
<path fill="none" stroke="#9a32cd" stroke-dasharray="5,2" d="M577.36,-9.3C614.71,-11.19 664.43,-18.74 701,-43 732.46,-63.86 751.67,-106.9 759.05,-126.23"/>
<polygon fill="#9a32cd" stroke="#9a32cd" points="577.31,-5.79 567.18,-8.9 577.04,-12.79 577.31,-5.79"/>
<text text-anchor="middle" x="660" y="-57" font-family="Helvetica,sans-Serif" font-size="10.00"> m_3b_concm</text>
<text text-anchor="middle" x="660" y="-46" font-family="Helvetica,sans-Serif" font-size="10.00">m_falloff_concm</text>
</g>
</g>
</svg>
