<?xml version="1.0" encoding="UTF-8" standalone="no"?>
<!DOCTYPE svg PUBLIC "-//W3C//DTD SVG 1.1//EN"
 "http://www.w3.org/Graphics/SVG/1.1/DTD/svg11.dtd">
<!-- Generated by graphviz version 2.43.0 (0)
 -->
<!-- Title: MargulesVPSSTP Pages: 1 -->
<svg width="277pt" height="276pt"
 viewBox="0.00 0.00 277.00 276.00" xmlns="http://www.w3.org/2000/svg" xmlns:xlink="http://www.w3.org/1999/xlink">
<g id="graph0" class="graph" transform="scale(1 1) rotate(0) translate(4 272)">
<title>MargulesVPSSTP</title>
<polygon fill="white" stroke="transparent" points="-4,4 -4,-272 273,-272 273,4 -4,4"/>
<!-- Node1 -->
<g id="node1" class="node">
<title>Node1</title>
<g id="a_node1"><a xlink:title="MargulesVPSSTP is a derived class of GibbsExcessVPSSTP that employs the Margules approximation for th...">
<polygon fill="#bfbfbf" stroke="black" points="118,-0.5 118,-19.5 216,-19.5 216,-0.5 118,-0.5"/>
<text text-anchor="middle" x="167" y="-7.5" font-family="Helvetica,sans-Serif" font-size="10.00">MargulesVPSSTP</text>
</a>
</g>
</g>
<!-- Node2 -->
<g id="node2" class="node">
<title>Node2</title>
<g id="a_node2"><a xlink:href="../../d8/d1a/classCantera_1_1GibbsExcessVPSSTP.html" target="_top" xlink:title=" ">
<polygon fill="white" stroke="black" points="109.5,-57.5 109.5,-76.5 224.5,-76.5 224.5,-57.5 109.5,-57.5"/>
<text text-anchor="middle" x="167" y="-64.5" font-family="Helvetica,sans-Serif" font-size="10.00">GibbsExcessVPSSTP</text>
</a>
</g>
</g>
<!-- Node2&#45;&gt;Node1 -->
<g id="edge1" class="edge">
<title>Node2&#45;&gt;Node1</title>
<path fill="none" stroke="midnightblue" d="M167,-47.12C167,-37.82 167,-27.06 167,-19.71"/>
<polygon fill="midnightblue" stroke="midnightblue" points="163.5,-47.41 167,-57.41 170.5,-47.41 163.5,-47.41"/>
</g>
<!-- Node3 -->
<g id="node3" class="node">
<title>Node3</title>
<g id="a_node3"><a xlink:href="../../d8/deb/classCantera_1_1VPStandardStateTP.html" target="_top" xlink:title="This is a filter class for ThermoPhase that implements some preparatory steps for efficiently handlin...">
<polygon fill="white" stroke="black" points="37,-124.5 37,-143.5 147,-143.5 147,-124.5 37,-124.5"/>
<text text-anchor="middle" x="92" y="-131.5" font-family="Helvetica,sans-Serif" font-size="10.00">VPStandardStateTP</text>
</a>
</g>
</g>
<!-- Node3&#45;&gt;Node2 -->
<g id="edge2" class="edge">
<title>Node3&#45;&gt;Node2</title>
<path fill="none" stroke="midnightblue" d="M110.05,-117.36C124.79,-104.58 145.09,-86.99 157.05,-76.63"/>
<polygon fill="midnightblue" stroke="midnightblue" points="107.38,-115.04 102.11,-124.23 111.96,-120.33 107.38,-115.04"/>
</g>
<!-- Node4 -->
<g id="node4" class="node">
<title>Node4</title>
<g id="a_node4"><a xlink:href="../../dc/d38/classCantera_1_1ThermoPhase.html" target="_top" xlink:title="Base class for a phase with thermodynamic properties.">
<polygon fill="white" stroke="black" points="50.5,-181.5 50.5,-200.5 133.5,-200.5 133.5,-181.5 50.5,-181.5"/>
<text text-anchor="middle" x="92" y="-188.5" font-family="Helvetica,sans-Serif" font-size="10.00">ThermoPhase</text>
</a>
</g>
</g>
<!-- Node4&#45;&gt;Node3 -->
<g id="edge3" class="edge">
<title>Node4&#45;&gt;Node3</title>
<path fill="none" stroke="midnightblue" d="M92,-171.12C92,-161.82 92,-151.06 92,-143.71"/>
<polygon fill="midnightblue" stroke="midnightblue" points="88.5,-171.41 92,-181.41 95.5,-171.41 88.5,-171.41"/>
</g>
<!-- Node5 -->
<g id="node5" class="node">
<title>Node5</title>
<g id="a_node5"><a xlink:href="../../d6/d0e/classCantera_1_1Phase.html" target="_top" xlink:title="Class Phase is the base class for phases of matter, managing the species and elements in a phase,...">
<polygon fill="white" stroke="red" points="0,-248.5 0,-267.5 46,-267.5 46,-248.5 0,-248.5"/>
<text text-anchor="middle" x="23" y="-255.5" font-family="Helvetica,sans-Serif" font-size="10.00">Phase</text>
</a>
</g>
</g>
<!-- Node5&#45;&gt;Node4 -->
<g id="edge4" class="edge">
<title>Node5&#45;&gt;Node4</title>
<path fill="none" stroke="midnightblue" d="M39.61,-241.36C53.17,-228.58 71.84,-210.99 82.84,-200.63"/>
<polygon fill="midnightblue" stroke="midnightblue" points="37.18,-238.83 32.31,-248.23 41.98,-243.92 37.18,-238.83"/>
</g>
<!-- Node8 -->
<g id="node6" class="node">
<title>Node8</title>
<g id="a_node6"><a xlink:href="../../db/d74/classCantera_1_1AnyMap.html" target="_top" xlink:title="A map of string keys to values whose type can vary at runtime.">
<polygon fill="white" stroke="red" points="64,-248.5 64,-267.5 120,-267.5 120,-248.5 64,-248.5"/>
<text text-anchor="middle" x="92" y="-255.5" font-family="Helvetica,sans-Serif" font-size="10.00">AnyMap</text>
</a>
</g>
</g>
<!-- Node8&#45;&gt;Node4 -->
<g id="edge5" class="edge">
<title>Node8&#45;&gt;Node4</title>
<path fill="none" stroke="#9a32cd" stroke-dasharray="5,2" d="M92,-238.04C92,-225.67 92,-210.12 92,-200.63"/>
<polygon fill="#9a32cd" stroke="#9a32cd" points="88.5,-238.23 92,-248.23 95.5,-238.23 88.5,-238.23"/>
<text text-anchor="middle" x="113.5" y="-222" font-family="Helvetica,sans-Serif" font-size="10.00"> m_input</text>
</g>
<!-- Node11 -->
<g id="node7" class="node">
<title>Node11</title>
<g id="a_node7"><a xlink:href="../../d5/dda/classCantera_1_1MultiSpeciesThermo.html" target="_top" xlink:title="A species thermodynamic property manager for a phase.">
<polygon fill="white" stroke="black" points="138,-248.5 138,-267.5 254,-267.5 254,-248.5 138,-248.5"/>
<text text-anchor="middle" x="196" y="-255.5" font-family="Helvetica,sans-Serif" font-size="10.00">MultiSpeciesThermo</text>
</a>
</g>
</g>
<!-- Node11&#45;&gt;Node4 -->
<g id="edge6" class="edge">
<title>Node11&#45;&gt;Node4</title>
<path fill="none" stroke="#9a32cd" stroke-dasharray="5,2" d="M175.19,-242.64C164.48,-235.38 151.16,-226.54 139,-219 128.6,-212.56 116.64,-205.69 107.39,-200.5"/>
<polygon fill="#9a32cd" stroke="#9a32cd" points="173.25,-245.56 183.48,-248.3 177.19,-239.77 173.25,-245.56"/>
<text text-anchor="middle" x="187.5" y="-222" font-family="Helvetica,sans-Serif" font-size="10.00"> m_spthermo</text>
</g>
<!-- Node12 -->
<g id="node8" class="node">
<title>Node12</title>
<g id="a_node8"><a xlink:href="../../d1/dcf/classCantera_1_1Array2D.html" target="_top" xlink:title="A class for 2D arrays stored in column&#45;major (Fortran&#45;compatible) form.">
<polygon fill="white" stroke="black" points="165,-124.5 165,-143.5 221,-143.5 221,-124.5 165,-124.5"/>
<text text-anchor="middle" x="193" y="-131.5" font-family="Helvetica,sans-Serif" font-size="10.00">Array2D</text>
</a>
</g>
</g>
<!-- Node12&#45;&gt;Node2 -->
<g id="edge7" class="edge">
<title>Node12&#45;&gt;Node2</title>
<path fill="none" stroke="#9a32cd" stroke-dasharray="5,2" d="M185.72,-114.79C180.72,-102.31 174.33,-86.31 170.45,-76.63"/>
<polygon fill="#9a32cd" stroke="#9a32cd" points="182.53,-116.25 189.49,-124.23 189.03,-113.65 182.53,-116.25"/>
<text text-anchor="middle" x="225" y="-98" font-family="Helvetica,sans-Serif" font-size="10.00"> dlnActCoeffdlnN_</text>
</g>
</g>
</svg>
