<?xml version="1.0" encoding="UTF-8" standalone="no"?>
<!DOCTYPE svg PUBLIC "-//W3C//DTD SVG 1.1//EN"
 "http://www.w3.org/Graphics/SVG/1.1/DTD/svg11.dtd">
<!-- Generated by graphviz version 2.43.0 (0)
 -->
<!-- Title: cython Pages: 1 -->
<svg width="308pt" height="383pt"
 viewBox="0.00 0.00 308.00 383.00" xmlns="http://www.w3.org/2000/svg" xmlns:xlink="http://www.w3.org/1999/xlink">
<g id="graph0" class="graph" transform="scale(1 1) rotate(0) translate(4 379)">
<title>cython</title>
<polygon fill="white" stroke="transparent" points="-4,4 -4,-379 304,-379 304,4 -4,4"/>
<g id="clust1" class="cluster">
<title>clusterdir_6fbe91f1050ba110875dc8b0702a61ee</title>
<g id="a_clust1"><a xlink:href="dir_6fbe91f1050ba110875dc8b0702a61ee.html" target="_top" xlink:title="cantera">
<polygon fill="#ddddee" stroke="black" points="8,-8 8,-367 292,-367 292,-8 8,-8"/>
<text text-anchor="middle" x="150" y="-355" font-family="Helvetica,sans-Serif" font-size="10.00">cantera</text>
</a>
</g>
</g>
<!-- dir_28819bef72f6570b005694d295d15d08 -->
<g id="node1" class="node">
<title>dir_28819bef72f6570b005694d295d15d08</title>
<g id="a_node1"><a xlink:href="dir_28819bef72f6570b005694d295d15d08.html" target="_top" xlink:title="kinetics">
<polygon fill="none" stroke="black" points="71.5,-268 16.5,-268 16.5,-232 71.5,-232 71.5,-268"/>
<text text-anchor="middle" x="44" y="-247.5" font-family="Helvetica,sans-Serif" font-size="10.00">kinetics</text>
</a>
</g>
</g>
<!-- dir_3cc50e07c07b6e5dfebd896073e0298f -->
<g id="node2" class="node">
<title>dir_3cc50e07c07b6e5dfebd896073e0298f</title>
<g id="a_node2"><a xlink:href="dir_3cc50e07c07b6e5dfebd896073e0298f.html" target="_top" xlink:title="thermo">
<polygon fill="none" stroke="black" points="160,-196 106,-196 106,-160 160,-160 160,-196"/>
<text text-anchor="middle" x="133" y="-175.5" font-family="Helvetica,sans-Serif" font-size="10.00">thermo</text>
</a>
</g>
</g>
<!-- dir_28819bef72f6570b005694d295d15d08&#45;&gt;dir_3cc50e07c07b6e5dfebd896073e0298f -->
<g id="edge10" class="edge">
<title>dir_28819bef72f6570b005694d295d15d08&#45;&gt;dir_3cc50e07c07b6e5dfebd896073e0298f</title>
<path fill="none" stroke="black" d="M66,-231.7C77.21,-222.88 91,-212.03 103.15,-202.47"/>
<polygon fill="black" stroke="black" points="105.56,-205.04 111.25,-196.1 101.23,-199.54 105.56,-205.04"/>
<g id="a_edge10&#45;headlabel"><a xlink:href="dir_000013_000009.html" target="_top" xlink:title="1">
<text text-anchor="middle" x="104.49" y="-206.99" font-family="Helvetica,sans-Serif" font-size="10.00">1</text>
</a>
</g>
</g>
<!-- dir_8bf842952c463ead18ee9fb35e4c5251 -->
<g id="node4" class="node">
<title>dir_8bf842952c463ead18ee9fb35e4c5251</title>
<g id="a_node4"><a xlink:href="dir_8bf842952c463ead18ee9fb35e4c5251.html" target="_top" xlink:title="numerics">
<polygon fill="none" stroke="black" points="214,-124 152,-124 152,-88 214,-88 214,-124"/>
<text text-anchor="middle" x="183" y="-103.5" font-family="Helvetica,sans-Serif" font-size="10.00">numerics</text>
</a>
</g>
</g>
<!-- dir_28819bef72f6570b005694d295d15d08&#45;&gt;dir_8bf842952c463ead18ee9fb35e4c5251 -->
<g id="edge11" class="edge">
<title>dir_28819bef72f6570b005694d295d15d08&#45;&gt;dir_8bf842952c463ead18ee9fb35e4c5251</title>
<path fill="none" stroke="black" d="M51.12,-231.97C59.79,-212.75 75.93,-181.4 97,-160 110.17,-146.63 127.35,-135.18 142.9,-126.38"/>
<polygon fill="black" stroke="black" points="144.72,-129.37 151.81,-121.5 141.36,-123.23 144.72,-129.37"/>
<g id="a_edge11&#45;headlabel"><a xlink:href="dir_000013_000006.html" target="_top" xlink:title="3">
<text text-anchor="middle" x="142.92" y="-131.08" font-family="Helvetica,sans-Serif" font-size="10.00">3</text>
</a>
</g>
</g>
<!-- dir_a54d9e5dfc2a2dbb65ec20bef473969d -->
<g id="node5" class="node">
<title>dir_a54d9e5dfc2a2dbb65ec20bef473969d</title>
<g id="a_node5"><a xlink:href="dir_a54d9e5dfc2a2dbb65ec20bef473969d.html" target="_top" xlink:title="base">
<polygon fill="none" stroke="black" points="210,-52 156,-52 156,-16 210,-16 210,-52"/>
<text text-anchor="middle" x="183" y="-31.5" font-family="Helvetica,sans-Serif" font-size="10.00">base</text>
</a>
</g>
</g>
<!-- dir_28819bef72f6570b005694d295d15d08&#45;&gt;dir_a54d9e5dfc2a2dbb65ec20bef473969d -->
<g id="edge12" class="edge">
<title>dir_28819bef72f6570b005694d295d15d08&#45;&gt;dir_a54d9e5dfc2a2dbb65ec20bef473969d</title>
<path fill="none" stroke="black" d="M46.04,-231.75C48.78,-213.16 54.78,-183.14 67,-160 88.42,-119.43 126.42,-82.17 153.07,-59.08"/>
<polygon fill="black" stroke="black" points="155.6,-61.53 160.95,-52.38 151.06,-56.2 155.6,-61.53"/>
<g id="a_edge12&#45;headlabel"><a xlink:href="dir_000013_000004.html" target="_top" xlink:title="15">
<text text-anchor="middle" x="154.7" y="-63.52" font-family="Helvetica,sans-Serif" font-size="10.00">15</text>
</a>
</g>
</g>
<!-- dir_3cc50e07c07b6e5dfebd896073e0298f&#45;&gt;dir_8bf842952c463ead18ee9fb35e4c5251 -->
<g id="edge14" class="edge">
<title>dir_3cc50e07c07b6e5dfebd896073e0298f&#45;&gt;dir_8bf842952c463ead18ee9fb35e4c5251</title>
<path fill="none" stroke="black" d="M145.36,-159.7C151.23,-151.47 158.37,-141.48 164.84,-132.42"/>
<polygon fill="black" stroke="black" points="167.82,-134.28 170.78,-124.1 162.12,-130.21 167.82,-134.28"/>
<g id="a_edge14&#45;headlabel"><a xlink:href="dir_000009_000006.html" target="_top" xlink:title="1">
<text text-anchor="middle" x="168.04" y="-136.35" font-family="Helvetica,sans-Serif" font-size="10.00">1</text>
</a>
</g>
</g>
<!-- dir_3cc50e07c07b6e5dfebd896073e0298f&#45;&gt;dir_a54d9e5dfc2a2dbb65ec20bef473969d -->
<g id="edge15" class="edge">
<title>dir_3cc50e07c07b6e5dfebd896073e0298f&#45;&gt;dir_a54d9e5dfc2a2dbb65ec20bef473969d</title>
<path fill="none" stroke="black" d="M132.29,-159.96C132.11,-141.55 133.56,-111.69 143,-88 146.97,-78.04 153.33,-68.32 159.83,-59.99"/>
<polygon fill="black" stroke="black" points="162.63,-62.09 166.28,-52.15 157.22,-57.64 162.63,-62.09"/>
<g id="a_edge15&#45;headlabel"><a xlink:href="dir_000009_000004.html" target="_top" xlink:title="23">
<text text-anchor="middle" x="162.53" y="-64.17" font-family="Helvetica,sans-Serif" font-size="10.00">23</text>
</a>
</g>
</g>
<!-- dir_690289abfa5e09db35ec6757548a6dfc -->
<g id="node3" class="node">
<title>dir_690289abfa5e09db35ec6757548a6dfc</title>
<g id="a_node3"><a xlink:href="dir_690289abfa5e09db35ec6757548a6dfc.html" target="_top" xlink:title="clib">
<polygon fill="none" stroke="black" points="164,-268 110,-268 110,-232 164,-232 164,-268"/>
<text text-anchor="middle" x="137" y="-247.5" font-family="Helvetica,sans-Serif" font-size="10.00">clib</text>
</a>
</g>
</g>
<!-- dir_8bf842952c463ead18ee9fb35e4c5251&#45;&gt;dir_a54d9e5dfc2a2dbb65ec20bef473969d -->
<g id="edge13" class="edge">
<title>dir_8bf842952c463ead18ee9fb35e4c5251&#45;&gt;dir_a54d9e5dfc2a2dbb65ec20bef473969d</title>
<path fill="none" stroke="black" d="M183,-87.7C183,-79.98 183,-70.71 183,-62.11"/>
<polygon fill="black" stroke="black" points="186.5,-62.1 183,-52.1 179.5,-62.1 186.5,-62.1"/>
<g id="a_edge13&#45;headlabel"><a xlink:href="dir_000006_000004.html" target="_top" xlink:title="21">
<text text-anchor="middle" x="189.34" y="-63.2" font-family="Helvetica,sans-Serif" font-size="10.00">21</text>
</a>
</g>
</g>
<!-- dir_e06e40b6a3c4e04950e39aba62791861 -->
<g id="node6" class="node">
<title>dir_e06e40b6a3c4e04950e39aba62791861</title>
<g id="a_node6"><a xlink:href="dir_e06e40b6a3c4e04950e39aba62791861.html" target="_top" xlink:title="transport">
<polygon fill="none" stroke="black" points="263.5,-268 202.5,-268 202.5,-232 263.5,-232 263.5,-268"/>
<text text-anchor="middle" x="233" y="-247.5" font-family="Helvetica,sans-Serif" font-size="10.00">transport</text>
</a>
</g>
</g>
<!-- dir_e06e40b6a3c4e04950e39aba62791861&#45;&gt;dir_3cc50e07c07b6e5dfebd896073e0298f -->
<g id="edge1" class="edge">
<title>dir_e06e40b6a3c4e04950e39aba62791861&#45;&gt;dir_3cc50e07c07b6e5dfebd896073e0298f</title>
<path fill="none" stroke="black" d="M208.54,-231.88C195.7,-222.89 179.8,-211.76 165.91,-202.03"/>
<polygon fill="black" stroke="black" points="167.76,-199.06 157.56,-196.19 163.74,-204.79 167.76,-199.06"/>
<g id="a_edge1&#45;headlabel"><a xlink:href="dir_000022_000009.html" target="_top" xlink:title="2">
<text text-anchor="middle" x="172.33" y="-196.29" font-family="Helvetica,sans-Serif" font-size="10.00">2</text>
</a>
</g>
</g>
<!-- dir_e06e40b6a3c4e04950e39aba62791861&#45;&gt;dir_8bf842952c463ead18ee9fb35e4c5251 -->
<g id="edge2" class="edge">
<title>dir_e06e40b6a3c4e04950e39aba62791861&#45;&gt;dir_8bf842952c463ead18ee9fb35e4c5251</title>
<path fill="none" stroke="black" d="M226.97,-231.87C218.37,-207.46 202.52,-162.43 192.38,-133.64"/>
<polygon fill="black" stroke="black" points="195.68,-132.46 189.05,-124.19 189.07,-134.78 195.68,-132.46"/>
<g id="a_edge2&#45;headlabel"><a xlink:href="dir_000022_000006.html" target="_top" xlink:title="5">
<text text-anchor="middle" x="199.55" y="-132.41" font-family="Helvetica,sans-Serif" font-size="10.00">5</text>
</a>
</g>
</g>
<!-- dir_e06e40b6a3c4e04950e39aba62791861&#45;&gt;dir_a54d9e5dfc2a2dbb65ec20bef473969d -->
<g id="edge3" class="edge">
<title>dir_e06e40b6a3c4e04950e39aba62791861&#45;&gt;dir_a54d9e5dfc2a2dbb65ec20bef473969d</title>
<path fill="none" stroke="black" d="M235.08,-231.89C238.06,-201.74 241.36,-137.64 223,-88 219.28,-77.94 212.98,-68.2 206.48,-59.87"/>
<polygon fill="black" stroke="black" points="209.06,-57.51 199.98,-52.05 203.68,-61.98 209.06,-57.51"/>
<g id="a_edge3&#45;headlabel"><a xlink:href="dir_000022_000004.html" target="_top" xlink:title="3">
<text text-anchor="middle" x="213.54" y="-55.96" font-family="Helvetica,sans-Serif" font-size="10.00">3</text>
</a>
</g>
</g>
<!-- dir_5490827e5992e1ca34b709b90d1ef656 -->
<g id="node7" class="node">
<title>dir_5490827e5992e1ca34b709b90d1ef656</title>
<g id="a_node7"><a xlink:href="dir_5490827e5992e1ca34b709b90d1ef656.html" target="_top" xlink:title="cython">
<polygon fill="#eeeeff" stroke="black" points="187,-340 133,-340 133,-304 187,-304 187,-340"/>
<text text-anchor="middle" x="160" y="-319.5" font-family="Helvetica,sans-Serif" font-size="10.00">cython</text>
</a>
</g>
</g>
<!-- dir_5490827e5992e1ca34b709b90d1ef656&#45;&gt;dir_28819bef72f6570b005694d295d15d08 -->
<g id="edge4" class="edge">
<title>dir_5490827e5992e1ca34b709b90d1ef656&#45;&gt;dir_28819bef72f6570b005694d295d15d08</title>
<path fill="none" stroke="black" d="M132.8,-304.59C117.18,-295.16 97.35,-283.2 80.4,-272.96"/>
<polygon fill="black" stroke="black" points="82.2,-269.97 71.83,-267.8 78.59,-275.96 82.2,-269.97"/>
<g id="a_edge4&#45;headlabel"><a xlink:href="dir_000023_000013.html" target="_top" xlink:title="1">
<text text-anchor="middle" x="86.75" y="-266.89" font-family="Helvetica,sans-Serif" font-size="10.00">1</text>
</a>
</g>
</g>
<!-- dir_5490827e5992e1ca34b709b90d1ef656&#45;&gt;dir_3cc50e07c07b6e5dfebd896073e0298f -->
<g id="edge5" class="edge">
<title>dir_5490827e5992e1ca34b709b90d1ef656&#45;&gt;dir_3cc50e07c07b6e5dfebd896073e0298f</title>
<path fill="none" stroke="black" d="M132.82,-304.34C120.67,-295.26 107.62,-282.84 101,-268 91.72,-247.18 101.91,-222.78 113.19,-204.79"/>
<polygon fill="black" stroke="black" points="116.4,-206.28 119.08,-196.03 110.6,-202.37 116.4,-206.28"/>
<g id="a_edge5&#45;headlabel"><a xlink:href="dir_000023_000009.html" target="_top" xlink:title="1">
<text text-anchor="middle" x="116.75" y="-208.34" font-family="Helvetica,sans-Serif" font-size="10.00">1</text>
</a>
</g>
</g>
<!-- dir_5490827e5992e1ca34b709b90d1ef656&#45;&gt;dir_690289abfa5e09db35ec6757548a6dfc -->
<g id="edge6" class="edge">
<title>dir_5490827e5992e1ca34b709b90d1ef656&#45;&gt;dir_690289abfa5e09db35ec6757548a6dfc</title>
<path fill="none" stroke="black" d="M154.31,-303.7C151.75,-295.9 148.67,-286.51 145.82,-277.83"/>
<polygon fill="black" stroke="black" points="149.07,-276.51 142.62,-268.1 142.42,-278.7 149.07,-276.51"/>
<g id="a_edge6&#45;headlabel"><a xlink:href="dir_000023_000018.html" target="_top" xlink:title="1">
<text text-anchor="middle" x="152.89" y="-276.54" font-family="Helvetica,sans-Serif" font-size="10.00">1</text>
</a>
</g>
</g>
<!-- dir_5490827e5992e1ca34b709b90d1ef656&#45;&gt;dir_8bf842952c463ead18ee9fb35e4c5251 -->
<g id="edge7" class="edge">
<title>dir_5490827e5992e1ca34b709b90d1ef656&#45;&gt;dir_8bf842952c463ead18ee9fb35e4c5251</title>
<path fill="none" stroke="black" d="M165,-303.97C167.82,-293.65 171.14,-280.18 173,-268 180.1,-221.44 182.19,-166.57 182.78,-134.41"/>
<polygon fill="black" stroke="black" points="186.29,-134.08 182.94,-124.03 179.29,-133.97 186.29,-134.08"/>
<g id="a_edge7&#45;headlabel"><a xlink:href="dir_000023_000006.html" target="_top" xlink:title="1">
<text text-anchor="middle" x="189.07" y="-135.21" font-family="Helvetica,sans-Serif" font-size="10.00">1</text>
</a>
</g>
</g>
<!-- dir_5490827e5992e1ca34b709b90d1ef656&#45;&gt;dir_a54d9e5dfc2a2dbb65ec20bef473969d -->
<g id="edge8" class="edge">
<title>dir_5490827e5992e1ca34b709b90d1ef656&#45;&gt;dir_a54d9e5dfc2a2dbb65ec20bef473969d</title>
<path fill="none" stroke="black" d="M187.15,-316.74C214.17,-310.9 254.23,-297.54 273,-268 299.82,-225.8 284.5,-181.47 232,-88 226.27,-77.79 218.19,-67.98 210.25,-59.63"/>
<polygon fill="black" stroke="black" points="212.6,-57.03 203.07,-52.41 207.64,-61.96 212.6,-57.03"/>
<g id="a_edge8&#45;headlabel"><a xlink:href="dir_000023_000004.html" target="_top" xlink:title="2">
<text text-anchor="middle" x="217.15" y="-55.07" font-family="Helvetica,sans-Serif" font-size="10.00">2</text>
</a>
</g>
</g>
<!-- dir_5490827e5992e1ca34b709b90d1ef656&#45;&gt;dir_e06e40b6a3c4e04950e39aba62791861 -->
<g id="edge9" class="edge">
<title>dir_5490827e5992e1ca34b709b90d1ef656&#45;&gt;dir_e06e40b6a3c4e04950e39aba62791861</title>
<path fill="none" stroke="black" d="M178.04,-303.7C187.06,-295.05 198.12,-284.45 207.94,-275.03"/>
<polygon fill="black" stroke="black" points="210.37,-277.55 215.16,-268.1 205.52,-272.5 210.37,-277.55"/>
<g id="a_edge9&#45;headlabel"><a xlink:href="dir_000023_000022.html" target="_top" xlink:title="1">
<text text-anchor="middle" x="209.74" y="-279.59" font-family="Helvetica,sans-Serif" font-size="10.00">1</text>
</a>
</g>
</g>
</g>
</svg>
