<?xml version="1.0" encoding="UTF-8" standalone="no"?>
<!DOCTYPE svg PUBLIC "-//W3C//DTD SVG 1.1//EN"
 "http://www.w3.org/Graphics/SVG/1.1/DTD/svg11.dtd">
<!-- Generated by graphviz version 2.43.0 (0)
 -->
<!-- Title: transport Pages: 1 -->
<svg width="142pt" height="311pt"
 viewBox="0.00 0.00 142.00 311.00" xmlns="http://www.w3.org/2000/svg" xmlns:xlink="http://www.w3.org/1999/xlink">
<g id="graph0" class="graph" transform="scale(1 1) rotate(0) translate(4 307)">
<title>transport</title>
<polygon fill="white" stroke="transparent" points="-4,4 -4,-307 138,-307 138,4 -4,4"/>
<g id="clust1" class="cluster">
<title>clusterdir_6fbe91f1050ba110875dc8b0702a61ee</title>
<g id="a_clust1"><a xlink:href="dir_6fbe91f1050ba110875dc8b0702a61ee.html" target="_top" xlink:title="cantera">
<polygon fill="#ddddee" stroke="black" points="8,-8 8,-295 126,-295 126,-8 8,-8"/>
<text text-anchor="middle" x="67" y="-283" font-family="Helvetica,sans-Serif" font-size="10.00">cantera</text>
</a>
</g>
</g>
<!-- dir_3cc50e07c07b6e5dfebd896073e0298f -->
<g id="node1" class="node">
<title>dir_3cc50e07c07b6e5dfebd896073e0298f</title>
<g id="a_node1"><a xlink:href="dir_3cc50e07c07b6e5dfebd896073e0298f.html" target="_top" xlink:title="thermo">
<polygon fill="none" stroke="black" points="70,-196 16,-196 16,-160 70,-160 70,-196"/>
<text text-anchor="middle" x="43" y="-175.5" font-family="Helvetica,sans-Serif" font-size="10.00">thermo</text>
</a>
</g>
</g>
<!-- dir_8bf842952c463ead18ee9fb35e4c5251 -->
<g id="node2" class="node">
<title>dir_8bf842952c463ead18ee9fb35e4c5251</title>
<g id="a_node2"><a xlink:href="dir_8bf842952c463ead18ee9fb35e4c5251.html" target="_top" xlink:title="numerics">
<polygon fill="none" stroke="black" points="98,-124 36,-124 36,-88 98,-88 98,-124"/>
<text text-anchor="middle" x="67" y="-103.5" font-family="Helvetica,sans-Serif" font-size="10.00">numerics</text>
</a>
</g>
</g>
<!-- dir_3cc50e07c07b6e5dfebd896073e0298f&#45;&gt;dir_8bf842952c463ead18ee9fb35e4c5251 -->
<g id="edge5" class="edge">
<title>dir_3cc50e07c07b6e5dfebd896073e0298f&#45;&gt;dir_8bf842952c463ead18ee9fb35e4c5251</title>
<path fill="none" stroke="black" d="M48.93,-159.7C51.61,-151.9 54.83,-142.51 57.8,-133.83"/>
<polygon fill="black" stroke="black" points="61.2,-134.7 61.14,-124.1 54.58,-132.43 61.2,-134.7"/>
<g id="a_edge5&#45;headlabel"><a xlink:href="dir_000009_000006.html" target="_top" xlink:title="1">
<text text-anchor="middle" x="62.72" y="-136.52" font-family="Helvetica,sans-Serif" font-size="10.00">1</text>
</a>
</g>
</g>
<!-- dir_a54d9e5dfc2a2dbb65ec20bef473969d -->
<g id="node3" class="node">
<title>dir_a54d9e5dfc2a2dbb65ec20bef473969d</title>
<g id="a_node3"><a xlink:href="dir_a54d9e5dfc2a2dbb65ec20bef473969d.html" target="_top" xlink:title="base">
<polygon fill="none" stroke="black" points="94,-52 40,-52 40,-16 94,-16 94,-52"/>
<text text-anchor="middle" x="67" y="-31.5" font-family="Helvetica,sans-Serif" font-size="10.00">base</text>
</a>
</g>
</g>
<!-- dir_3cc50e07c07b6e5dfebd896073e0298f&#45;&gt;dir_a54d9e5dfc2a2dbb65ec20bef473969d -->
<g id="edge6" class="edge">
<title>dir_3cc50e07c07b6e5dfebd896073e0298f&#45;&gt;dir_a54d9e5dfc2a2dbb65ec20bef473969d</title>
<path fill="none" stroke="black" d="M34.98,-159.9C27.58,-141.71 18.87,-112.26 27,-88 30.35,-78 36.42,-68.38 42.83,-60.14"/>
<polygon fill="black" stroke="black" points="45.56,-62.33 49.27,-52.4 40.18,-57.85 45.56,-62.33"/>
<g id="a_edge6&#45;headlabel"><a xlink:href="dir_000009_000004.html" target="_top" xlink:title="23">
<text text-anchor="middle" x="45.44" y="-64.41" font-family="Helvetica,sans-Serif" font-size="10.00">23</text>
</a>
</g>
</g>
<!-- dir_8bf842952c463ead18ee9fb35e4c5251&#45;&gt;dir_a54d9e5dfc2a2dbb65ec20bef473969d -->
<g id="edge4" class="edge">
<title>dir_8bf842952c463ead18ee9fb35e4c5251&#45;&gt;dir_a54d9e5dfc2a2dbb65ec20bef473969d</title>
<path fill="none" stroke="black" d="M67,-87.7C67,-79.98 67,-70.71 67,-62.11"/>
<polygon fill="black" stroke="black" points="70.5,-62.1 67,-52.1 63.5,-62.1 70.5,-62.1"/>
<g id="a_edge4&#45;headlabel"><a xlink:href="dir_000006_000004.html" target="_top" xlink:title="21">
<text text-anchor="middle" x="73.34" y="-63.2" font-family="Helvetica,sans-Serif" font-size="10.00">21</text>
</a>
</g>
</g>
<!-- dir_e06e40b6a3c4e04950e39aba62791861 -->
<g id="node4" class="node">
<title>dir_e06e40b6a3c4e04950e39aba62791861</title>
<g id="a_node4"><a xlink:href="dir_e06e40b6a3c4e04950e39aba62791861.html" target="_top" xlink:title="transport">
<polygon fill="#eeeeff" stroke="black" points="117.5,-268 56.5,-268 56.5,-232 117.5,-232 117.5,-268"/>
<text text-anchor="middle" x="87" y="-247.5" font-family="Helvetica,sans-Serif" font-size="10.00">transport</text>
</a>
</g>
</g>
<!-- dir_e06e40b6a3c4e04950e39aba62791861&#45;&gt;dir_3cc50e07c07b6e5dfebd896073e0298f -->
<g id="edge1" class="edge">
<title>dir_e06e40b6a3c4e04950e39aba62791861&#45;&gt;dir_3cc50e07c07b6e5dfebd896073e0298f</title>
<path fill="none" stroke="black" d="M76.12,-231.7C71.01,-223.56 64.8,-213.69 59.16,-204.7"/>
<polygon fill="black" stroke="black" points="62.04,-202.71 53.75,-196.1 56.11,-206.43 62.04,-202.71"/>
<g id="a_edge1&#45;headlabel"><a xlink:href="dir_000022_000009.html" target="_top" xlink:title="2">
<text text-anchor="middle" x="66.35" y="-201.74" font-family="Helvetica,sans-Serif" font-size="10.00">2</text>
</a>
</g>
</g>
<!-- dir_e06e40b6a3c4e04950e39aba62791861&#45;&gt;dir_8bf842952c463ead18ee9fb35e4c5251 -->
<g id="edge2" class="edge">
<title>dir_e06e40b6a3c4e04950e39aba62791861&#45;&gt;dir_8bf842952c463ead18ee9fb35e4c5251</title>
<path fill="none" stroke="black" d="M86.14,-231.86C85.07,-213.87 82.91,-184.83 79,-160 77.66,-151.48 75.75,-142.29 73.84,-133.99"/>
<polygon fill="black" stroke="black" points="77.2,-132.99 71.47,-124.07 70.39,-134.61 77.2,-132.99"/>
<g id="a_edge2&#45;headlabel"><a xlink:href="dir_000022_000006.html" target="_top" xlink:title="5">
<text text-anchor="middle" x="80.8" y="-133.33" font-family="Helvetica,sans-Serif" font-size="10.00">5</text>
</a>
</g>
</g>
<!-- dir_e06e40b6a3c4e04950e39aba62791861&#45;&gt;dir_a54d9e5dfc2a2dbb65ec20bef473969d -->
<g id="edge3" class="edge">
<title>dir_e06e40b6a3c4e04950e39aba62791861&#45;&gt;dir_a54d9e5dfc2a2dbb65ec20bef473969d</title>
<path fill="none" stroke="black" d="M94.04,-231.58C105.15,-201.5 123.82,-138.21 107,-88 103.65,-78 97.58,-68.38 91.17,-60.14"/>
<polygon fill="black" stroke="black" points="93.82,-57.85 84.73,-52.4 88.44,-62.33 93.82,-57.85"/>
<g id="a_edge3&#45;headlabel"><a xlink:href="dir_000022_000004.html" target="_top" xlink:title="3">
<text text-anchor="middle" x="98.3" y="-56.3" font-family="Helvetica,sans-Serif" font-size="10.00">3</text>
</a>
</g>
</g>
</g>
</svg>
