<?xml version="1.0" encoding="UTF-8" standalone="no"?>
<!DOCTYPE svg PUBLIC "-//W3C//DTD SVG 1.1//EN"
 "http://www.w3.org/Graphics/SVG/1.1/DTD/svg11.dtd">
<!-- Generated by graphviz version 2.28.0 (20120425.2022)
 -->
<!-- Title: Array.h Pages: 1 -->
<svg width="3895pt" height="196pt"
 viewBox="0.00 0.00 3895.00 196.00" xmlns="http://www.w3.org/2000/svg" xmlns:xlink="http://www.w3.org/1999/xlink">
<g id="graph1" class="graph" transform="scale(1 1) rotate(0) translate(4 192)">
<title>Array.h</title>
<polygon fill="white" stroke="white" points="-4,5 -4,-192 3892,-192 3892,5 -4,5"/>
<!-- Node1 -->
<g id="node1" class="node"><title>Node1</title>
<polygon fill="#bfbfbf" stroke="black" points="3136,-168.5 3136,-187.5 3184,-187.5 3184,-168.5 3136,-168.5"/>
<text text-anchor="middle" x="3160" y="-175.5" font-family="FreeSans" font-size="10.00">Array.h</text>
</g>
<!-- Node2 -->
<g id="node3" class="node"><title>Node2</title>
<a xlink:href="solveSP_8h.html" target="_top" xlink:title=" &#160;Header file for implicit surface problem solver &#160;(see Chemical Kinetics and class solveSP)...">
<polygon fill="white" stroke="black" points="70,-112.5 70,-131.5 132,-131.5 132,-112.5 70,-112.5"/>
<text text-anchor="middle" x="101" y="-119.5" font-family="FreeSans" font-size="10.00">solveSP.h</text>
</a>
</g>
<!-- Node1&#45;&gt;Node2 -->
<g id="edge2" class="edge"><title>Node1&#45;&gt;Node2</title>
<path fill="none" stroke="midnightblue" d="M3125.86,-176.91C2887.72,-176.191 1450.25,-170.358 281,-132 228.775,-130.287 168.088,-126.979 132.204,-124.886"/>
<polygon fill="midnightblue" stroke="midnightblue" points="3125.97,-180.41 3135.98,-176.94 3125.99,-173.41 3125.97,-180.41"/>
</g>
<!-- Node5 -->
<g id="node10" class="node"><title>Node5</title>
<a xlink:href="ctml_8h.html" target="_top" xlink:title="CTML (&quot;Cantera Markup Language&quot;) is the variant of XML that Cantera uses to store data...">
<polygon fill="white" stroke="black" points="1380,-112.5 1380,-131.5 1422,-131.5 1422,-112.5 1380,-112.5"/>
<text text-anchor="middle" x="1401" y="-119.5" font-family="FreeSans" font-size="10.00">ctml.h</text>
</a>
</g>
<!-- Node1&#45;&gt;Node5 -->
<g id="edge10" class="edge"><title>Node1&#45;&gt;Node5</title>
<path fill="none" stroke="midnightblue" d="M3125.76,-175.949C2897.8,-168.951 1603.09,-129.204 1422.03,-123.646"/>
<polygon fill="midnightblue" stroke="midnightblue" points="3125.7,-179.449 3135.8,-176.257 3125.92,-172.452 3125.7,-179.449"/>
</g>
<!-- Node32 -->
<g id="node64" class="node"><title>Node32</title>
<a xlink:href="plots_8h.html" target="_top" xlink:title=" Contains declarations for utility functions for &#160;outputing to plotting programs.">
<polygon fill="white" stroke="black" points="3007.5,-112.5 3007.5,-131.5 3052.5,-131.5 3052.5,-112.5 3007.5,-112.5"/>
<text text-anchor="middle" x="3030" y="-119.5" font-family="FreeSans" font-size="10.00">plots.h</text>
</a>
</g>
<!-- Node1&#45;&gt;Node32 -->
<g id="edge64" class="edge"><title>Node1&#45;&gt;Node32</title>
<path fill="none" stroke="midnightblue" d="M3129.91,-164.503C3105.54,-154.38 3071.86,-140.388 3050.5,-131.516"/>
<polygon fill="midnightblue" stroke="midnightblue" points="3128.82,-167.84 3139.4,-168.444 3131.51,-161.375 3128.82,-167.84"/>
</g>
<!-- Node34 -->
<g id="node68" class="node"><title>Node34</title>
<a xlink:href="DebyeHuckel_8h.html" target="_top" xlink:title="Headers for the DebyeHuckel ThermoPhase object, which models dilute electrolyte solutions (see Thermo...">
<polygon fill="white" stroke="red" points="3117.5,-112.5 3117.5,-131.5 3202.5,-131.5 3202.5,-112.5 3117.5,-112.5"/>
<text text-anchor="middle" x="3160" y="-119.5" font-family="FreeSans" font-size="10.00">DebyeHuckel.h</text>
</a>
</g>
<!-- Node1&#45;&gt;Node34 -->
<g id="edge68" class="edge"><title>Node1&#45;&gt;Node34</title>
<path fill="none" stroke="midnightblue" d="M3160,-157.805C3160,-148.91 3160,-138.78 3160,-131.751"/>
<polygon fill="midnightblue" stroke="midnightblue" points="3156.5,-158.083 3160,-168.083 3163.5,-158.083 3156.5,-158.083"/>
</g>
<!-- Node35 -->
<g id="node70" class="node"><title>Node35</title>
<a xlink:href="DenseMatrix_8h.html" target="_top" xlink:title="Headers for the DenseMatrix object, which deals with dense rectangular matrices and description of th...">
<polygon fill="white" stroke="red" points="3244.5,-112.5 3244.5,-131.5 3325.5,-131.5 3325.5,-112.5 3244.5,-112.5"/>
<text text-anchor="middle" x="3285" y="-119.5" font-family="FreeSans" font-size="10.00">DenseMatrix.h</text>
</a>
</g>
<!-- Node1&#45;&gt;Node35 -->
<g id="edge70" class="edge"><title>Node1&#45;&gt;Node35</title>
<path fill="none" stroke="midnightblue" d="M3189.24,-164.368C3212.65,-154.255 3244.84,-140.349 3265.29,-131.516"/>
<polygon fill="midnightblue" stroke="midnightblue" points="3187.6,-161.265 3179.81,-168.444 3190.37,-167.691 3187.6,-161.265"/>
</g>
<!-- Node47 -->
<g id="node99" class="node"><title>Node47</title>
<a xlink:href="solveProb_8h.html" target="_top" xlink:title=" &#160;Header file for implicit nonlinear solver with the option of a pseudotransient &#160;(see Numerical Util...">
<polygon fill="white" stroke="red" points="3344,-112.5 3344,-131.5 3414,-131.5 3414,-112.5 3344,-112.5"/>
<text text-anchor="middle" x="3379" y="-119.5" font-family="FreeSans" font-size="10.00">solveProb.h</text>
</a>
</g>
<!-- Node1&#45;&gt;Node47 -->
<g id="edge104" class="edge"><title>Node1&#45;&gt;Node47</title>
<path fill="none" stroke="midnightblue" d="M3194.04,-168.607C3234.88,-158.537 3302.99,-141.743 3344.18,-131.587"/>
<polygon fill="midnightblue" stroke="midnightblue" points="3193.14,-165.222 3184.27,-171.015 3194.82,-172.019 3193.14,-165.222"/>
</g>
<!-- Node48 -->
<g id="node101" class="node"><title>Node48</title>
<a xlink:href="StFlow_8h.html" target="_top" xlink:title="StFlow.h">
<polygon fill="white" stroke="red" points="290.5,-112.5 290.5,-131.5 345.5,-131.5 345.5,-112.5 290.5,-112.5"/>
<text text-anchor="middle" x="318" y="-119.5" font-family="FreeSans" font-size="10.00">StFlow.h</text>
</a>
</g>
<!-- Node1&#45;&gt;Node48 -->
<g id="edge106" class="edge"><title>Node1&#45;&gt;Node48</title>
<path fill="none" stroke="midnightblue" d="M3125.5,-176.345C2822.48,-170.587 618.865,-128.717 345.749,-123.527"/>
<polygon fill="midnightblue" stroke="midnightblue" points="3125.79,-179.851 3135.86,-176.541 3125.93,-172.852 3125.79,-179.851"/>
</g>
<!-- Node49 -->
<g id="node105" class="node"><title>Node49</title>
<a xlink:href="RedlichKisterVPSSTP_8h.html" target="_top" xlink:title="Header for intermediate ThermoPhase object for phases which employ gibbs excess free energy based for...">
<polygon fill="white" stroke="red" points="3432,-112.5 3432,-131.5 3556,-131.5 3556,-112.5 3432,-112.5"/>
<text text-anchor="middle" x="3494" y="-119.5" font-family="FreeSans" font-size="10.00">RedlichKisterVPSSTP.h</text>
</a>
</g>
<!-- Node1&#45;&gt;Node49 -->
<g id="edge112" class="edge"><title>Node1&#45;&gt;Node49</title>
<path fill="none" stroke="midnightblue" d="M3194.2,-171.471C3252.63,-162.023 3372.09,-142.71 3441.27,-131.525"/>
<polygon fill="midnightblue" stroke="midnightblue" points="3193.33,-168.065 3184.02,-173.116 3194.45,-174.975 3193.33,-168.065"/>
</g>
<!-- Node50 -->
<g id="node107" class="node"><title>Node50</title>
<a xlink:href="ReactorNet_8h.html" target="_top" xlink:title="ReactorNet.h">
<polygon fill="white" stroke="red" points="3574,-112.5 3574,-131.5 3648,-131.5 3648,-112.5 3574,-112.5"/>
<text text-anchor="middle" x="3611" y="-119.5" font-family="FreeSans" font-size="10.00">ReactorNet.h</text>
</a>
</g>
<!-- Node1&#45;&gt;Node50 -->
<g id="edge114" class="edge"><title>Node1&#45;&gt;Node50</title>
<path fill="none" stroke="midnightblue" d="M3194.21,-174.101C3263.97,-167.988 3427.6,-152.623 3564,-132 3567.2,-131.516 3570.52,-130.97 3573.85,-130.393"/>
<polygon fill="midnightblue" stroke="midnightblue" points="3193.88,-170.616 3184.22,-174.969 3194.49,-177.59 3193.88,-170.616"/>
</g>
<!-- Node3 -->
<g id="node5" class="node"><title>Node3</title>
<a xlink:href="ImplicitSurfChem_8h.html" target="_top" xlink:title="Declarations for the implicit integration of surface site density equations (see Kinetics Managers an...">
<polygon fill="white" stroke="red" points="0,-56.5 0,-75.5 98,-75.5 98,-56.5 0,-56.5"/>
<text text-anchor="middle" x="49" y="-63.5" font-family="FreeSans" font-size="10.00">ImplicitSurfChem.h</text>
</a>
</g>
<!-- Node2&#45;&gt;Node3 -->
<g id="edge4" class="edge"><title>Node2&#45;&gt;Node3</title>
<path fill="none" stroke="midnightblue" d="M79.9405,-105.537C69.6388,-95.9087 58.3855,-83.8694 52.358,-75.8339"/>
<polygon fill="midnightblue" stroke="midnightblue" points="77.743,-108.267 87.5305,-112.324 82.4089,-103.049 77.743,-108.267"/>
</g>
<!-- Node4 -->
<g id="node8" class="node"><title>Node4</title>
<a xlink:href="solveSP_8cpp_source.html" target="_top" xlink:title="solveSP.cpp">
<polygon fill="white" stroke="black" points="116.5,-56.5 116.5,-75.5 189.5,-75.5 189.5,-56.5 116.5,-56.5"/>
<text text-anchor="middle" x="153" y="-63.5" font-family="FreeSans" font-size="10.00">solveSP.cpp</text>
</a>
</g>
<!-- Node2&#45;&gt;Node4 -->
<g id="edge8" class="edge"><title>Node2&#45;&gt;Node4</title>
<path fill="none" stroke="midnightblue" d="M116.679,-104.718C125.845,-95.1997 137.053,-83.5608 144.573,-75.7511"/>
<polygon fill="midnightblue" stroke="midnightblue" points="114.002,-102.452 109.587,-112.083 119.044,-107.308 114.002,-102.452"/>
</g>
<!-- Node3&#45;&gt;Node2 -->
<g id="edge6" class="edge"><title>Node3&#45;&gt;Node2</title>
<path fill="none" stroke="midnightblue" d="M70.115,-82.5146C80.3661,-92.1013 91.5479,-104.062 97.5796,-112.083"/>
<polygon fill="midnightblue" stroke="midnightblue" points="72.3436,-79.8122 62.558,-75.7511 67.6752,-85.0282 72.3436,-79.8122"/>
</g>
<!-- Node6 -->
<g id="node12" class="node"><title>Node6</title>
<a xlink:href="cti2ctml_8cpp.html" target="_top" xlink:title="cti2ctml.cpp">
<polygon fill="white" stroke="black" points="364,-56.5 364,-75.5 432,-75.5 432,-56.5 364,-56.5"/>
<text text-anchor="middle" x="398" y="-63.5" font-family="FreeSans" font-size="10.00">cti2ctml.cpp</text>
</a>
</g>
<!-- Node5&#45;&gt;Node6 -->
<g id="edge12" class="edge"><title>Node5&#45;&gt;Node6</title>
<path fill="none" stroke="midnightblue" d="M1369.61,-121.341C1248.98,-122.267 803.739,-122.163 441,-76 438.125,-75.6341 435.156,-75.1785 432.184,-74.668"/>
<polygon fill="midnightblue" stroke="midnightblue" points="1369.98,-124.838 1379.95,-121.252 1369.92,-117.838 1369.98,-124.838"/>
</g>
<!-- Node7 -->
<g id="node14" class="node"><title>Node7</title>
<a xlink:href="application_8cpp_source.html" target="_top" xlink:title="application.cpp">
<polygon fill="white" stroke="black" points="450.5,-56.5 450.5,-75.5 533.5,-75.5 533.5,-56.5 450.5,-56.5"/>
<text text-anchor="middle" x="492" y="-63.5" font-family="FreeSans" font-size="10.00">application.cpp</text>
</a>
</g>
<!-- Node5&#45;&gt;Node7 -->
<g id="edge14" class="edge"><title>Node5&#45;&gt;Node7</title>
<path fill="none" stroke="midnightblue" d="M1369.72,-120.779C1257.38,-119.686 863.946,-113.258 542,-76 539.284,-75.6857 536.492,-75.3155 533.684,-74.9076"/>
<polygon fill="midnightblue" stroke="midnightblue" points="1369.96,-124.281 1379.99,-120.872 1370.02,-117.282 1369.96,-124.281"/>
</g>
<!-- Node8 -->
<g id="node16" class="node"><title>Node8</title>
<a xlink:href="ct2ctml_8cpp.html" target="_top" xlink:title="Driver for the system call to the python executable that converts cti files to ctml files (see Input ...">
<polygon fill="white" stroke="black" points="551.5,-56.5 551.5,-75.5 616.5,-75.5 616.5,-56.5 551.5,-56.5"/>
<text text-anchor="middle" x="584" y="-63.5" font-family="FreeSans" font-size="10.00">ct2ctml.cpp</text>
</a>
</g>
<!-- Node5&#45;&gt;Node8 -->
<g id="edge16" class="edge"><title>Node5&#45;&gt;Node8</title>
<path fill="none" stroke="midnightblue" d="M1369.67,-120.897C1264.27,-120.185 913.008,-114.851 626,-76 623.044,-75.5999 619.986,-75.1051 616.931,-74.5549"/>
<polygon fill="midnightblue" stroke="midnightblue" points="1369.91,-124.398 1379.93,-120.956 1369.95,-117.398 1369.91,-124.398"/>
</g>
<!-- Node9 -->
<g id="node18" class="node"><title>Node9</title>
<a xlink:href="ctml_8cpp.html" target="_top" xlink:title="Definitions for functions to read and write CTML.">
<polygon fill="white" stroke="black" points="634.5,-56.5 634.5,-75.5 687.5,-75.5 687.5,-56.5 634.5,-56.5"/>
<text text-anchor="middle" x="661" y="-63.5" font-family="FreeSans" font-size="10.00">ctml.cpp</text>
</a>
</g>
<!-- Node5&#45;&gt;Node9 -->
<g id="edge18" class="edge"><title>Node5&#45;&gt;Node9</title>
<path fill="none" stroke="midnightblue" d="M1369.59,-121.012C1270.28,-120.62 954.487,-116.077 697,-76 693.944,-75.5244 690.769,-74.9108 687.626,-74.2276"/>
<polygon fill="midnightblue" stroke="midnightblue" points="1369.82,-124.513 1379.83,-121.04 1369.84,-117.513 1369.82,-124.513"/>
</g>
<!-- Node10 -->
<g id="node20" class="node"><title>Node10</title>
<a xlink:href="stringUtils_8cpp.html" target="_top" xlink:title="Contains definitions for string manipulation functions within Cantera.">
<polygon fill="white" stroke="black" points="705.5,-56.5 705.5,-75.5 782.5,-75.5 782.5,-56.5 705.5,-56.5"/>
<text text-anchor="middle" x="744" y="-63.5" font-family="FreeSans" font-size="10.00">stringUtils.cpp</text>
</a>
</g>
<!-- Node5&#45;&gt;Node10 -->
<g id="edge20" class="edge"><title>Node5&#45;&gt;Node10</title>
<path fill="none" stroke="midnightblue" d="M1369.8,-119.925C1279.83,-116.559 1012.23,-104.692 792,-76 788.973,-75.6057 785.849,-75.1443 782.713,-74.6425"/>
<polygon fill="midnightblue" stroke="midnightblue" points="1369.76,-123.425 1379.88,-120.293 1370.01,-116.43 1369.76,-123.425"/>
</g>
<!-- Node11 -->
<g id="node22" class="node"><title>Node11</title>
<a xlink:href="ck2ct_8cpp.html" target="_top" xlink:title="Convert CK&#45;format reaction mechanism files to Cantera input format.">
<polygon fill="white" stroke="black" points="801,-56.5 801,-75.5 859,-75.5 859,-56.5 801,-56.5"/>
<text text-anchor="middle" x="830" y="-63.5" font-family="FreeSans" font-size="10.00">ck2ct.cpp</text>
</a>
</g>
<!-- Node5&#45;&gt;Node11 -->
<g id="edge22" class="edge"><title>Node5&#45;&gt;Node11</title>
<path fill="none" stroke="midnightblue" d="M1369.56,-119.974C1286.92,-116.925 1056.91,-106.174 868,-76 865.188,-75.5509 862.276,-75.0069 859.372,-74.4112"/>
<polygon fill="midnightblue" stroke="midnightblue" points="1369.67,-123.48 1379.79,-120.339 1369.92,-116.484 1369.67,-123.48"/>
</g>
<!-- Node12 -->
<g id="node24" class="node"><title>Node12</title>
<a xlink:href="importKinetics_8cpp.html" target="_top" xlink:title="Declarations of global routines for the importing of kinetics data from XML files (see Input File Han...">
<polygon fill="white" stroke="black" points="876.5,-56.5 876.5,-75.5 973.5,-75.5 973.5,-56.5 876.5,-56.5"/>
<text text-anchor="middle" x="925" y="-63.5" font-family="FreeSans" font-size="10.00">importKinetics.cpp</text>
</a>
</g>
<!-- Node5&#45;&gt;Node12 -->
<g id="edge24" class="edge"><title>Node5&#45;&gt;Node12</title>
<path fill="none" stroke="midnightblue" d="M1369.33,-118.1C1299.47,-111.591 1126.91,-94.9014 983,-76 979.969,-75.6019 976.852,-75.1735 973.711,-74.7274"/>
<polygon fill="midnightblue" stroke="midnightblue" points="1369.36,-121.618 1379.64,-119.056 1370.01,-114.648 1369.36,-121.618"/>
</g>
<!-- Node13 -->
<g id="node26" class="node"><title>Node13</title>
<a xlink:href="OneDim_8cpp_source.html" target="_top" xlink:title="OneDim.cpp">
<polygon fill="white" stroke="black" points="991.5,-56.5 991.5,-75.5 1062.5,-75.5 1062.5,-56.5 991.5,-56.5"/>
<text text-anchor="middle" x="1027" y="-63.5" font-family="FreeSans" font-size="10.00">OneDim.cpp</text>
</a>
</g>
<!-- Node5&#45;&gt;Node13 -->
<g id="edge26" class="edge"><title>Node5&#45;&gt;Node13</title>
<path fill="none" stroke="midnightblue" d="M1369.67,-117.366C1311.06,-110.423 1180.91,-94.322 1072,-76 1069.01,-75.4977 1065.92,-74.9463 1062.82,-74.3713"/>
<polygon fill="midnightblue" stroke="midnightblue" points="1369.42,-120.86 1379.76,-118.554 1370.24,-113.908 1369.42,-120.86"/>
</g>
<!-- Node14 -->
<g id="node28" class="node"><title>Node14</title>
<a xlink:href="StFlow_8cpp.html" target="_top" xlink:title="StFlow.cpp">
<polygon fill="white" stroke="black" points="207.5,-56.5 207.5,-75.5 272.5,-75.5 272.5,-56.5 207.5,-56.5"/>
<text text-anchor="middle" x="240" y="-63.5" font-family="FreeSans" font-size="10.00">StFlow.cpp</text>
</a>
</g>
<!-- Node5&#45;&gt;Node14 -->
<g id="edge28" class="edge"><title>Node5&#45;&gt;Node14</title>
<path fill="none" stroke="midnightblue" d="M1369.64,-120.486C1211.46,-117.78 500.094,-104.225 281,-76 278.253,-75.6462 275.419,-75.1991 272.583,-74.6942"/>
<polygon fill="midnightblue" stroke="midnightblue" points="1369.6,-123.986 1379.66,-120.655 1369.72,-116.987 1369.6,-123.986"/>
</g>
<!-- Node15 -->
<g id="node30" class="node"><title>Node15</title>
<a xlink:href="Elements_8cpp.html" target="_top" xlink:title="This file contains a database of atomic weights.">
<polygon fill="white" stroke="black" points="1081,-56.5 1081,-75.5 1157,-75.5 1157,-56.5 1081,-56.5"/>
<text text-anchor="middle" x="1119" y="-63.5" font-family="FreeSans" font-size="10.00">Elements.cpp</text>
</a>
</g>
<!-- Node5&#45;&gt;Node15 -->
<g id="edge30" class="edge"><title>Node5&#45;&gt;Node15</title>
<path fill="none" stroke="midnightblue" d="M1369.83,-115.031C1317.8,-105.069 1213.44,-85.0834 1157.12,-74.2993"/>
<polygon fill="midnightblue" stroke="midnightblue" points="1369.32,-118.498 1379.8,-116.941 1370.64,-111.623 1369.32,-118.498"/>
</g>
<!-- Node16 -->
<g id="node32" class="node"><title>Node16</title>
<a xlink:href="Mu0Poly_8cpp.html" target="_top" xlink:title="Definitions for a single&#45;species standard state object derived from SpeciesThermoInterpType based on ...">
<polygon fill="white" stroke="black" points="1175.5,-56.5 1175.5,-75.5 1248.5,-75.5 1248.5,-56.5 1175.5,-56.5"/>
<text text-anchor="middle" x="1212" y="-63.5" font-family="FreeSans" font-size="10.00">Mu0Poly.cpp</text>
</a>
</g>
<!-- Node5&#45;&gt;Node16 -->
<g id="edge32" class="edge"><title>Node5&#45;&gt;Node16</title>
<path fill="none" stroke="midnightblue" d="M1369.87,-112.107C1334.41,-101.975 1276.87,-85.5346 1241.92,-75.5488"/>
<polygon fill="midnightblue" stroke="midnightblue" points="1369.11,-115.529 1379.69,-114.91 1371.03,-108.798 1369.11,-115.529"/>
</g>
<!-- Node17 -->
<g id="node34" class="node"><title>Node17</title>
<a xlink:href="PDSS_8cpp.html" target="_top" xlink:title="Implementation of a pressure dependent standard state virtual function (see class PDSS)...">
<polygon fill="white" stroke="black" points="1267,-56.5 1267,-75.5 1329,-75.5 1329,-56.5 1267,-56.5"/>
<text text-anchor="middle" x="1298" y="-63.5" font-family="FreeSans" font-size="10.00">PDSS.cpp</text>
</a>
</g>
<!-- Node5&#45;&gt;Node17 -->
<g id="edge34" class="edge"><title>Node5&#45;&gt;Node17</title>
<path fill="none" stroke="midnightblue" d="M1375.42,-107.59C1356.38,-97.6052 1330.94,-84.2672 1314.51,-75.6545"/>
<polygon fill="midnightblue" stroke="midnightblue" points="1373.97,-110.78 1384.45,-112.324 1377.22,-104.581 1373.97,-110.78"/>
</g>
<!-- Node18 -->
<g id="node36" class="node"><title>Node18</title>
<a xlink:href="PDSS__ConstVol_8cpp.html" target="_top" xlink:title="Implementation of a pressure dependent standard state virtual function.">
<polygon fill="white" stroke="black" points="1347,-56.5 1347,-75.5 1455,-75.5 1455,-56.5 1347,-56.5"/>
<text text-anchor="middle" x="1401" y="-63.5" font-family="FreeSans" font-size="10.00">PDSS_ConstVol.cpp</text>
</a>
</g>
<!-- Node5&#45;&gt;Node18 -->
<g id="edge36" class="edge"><title>Node5&#45;&gt;Node18</title>
<path fill="none" stroke="midnightblue" d="M1401,-101.805C1401,-92.9102 1401,-82.7798 1401,-75.7511"/>
<polygon fill="midnightblue" stroke="midnightblue" points="1397.5,-102.083 1401,-112.083 1404.5,-102.083 1397.5,-102.083"/>
</g>
<!-- Node19 -->
<g id="node38" class="node"><title>Node19</title>
<a xlink:href="PDSS__HKFT_8cpp.html" target="_top" xlink:title="Definitions for the class PDSS_HKFT (pressure dependent standard state) which handles calculations fo...">
<polygon fill="white" stroke="black" points="1473.5,-56.5 1473.5,-75.5 1568.5,-75.5 1568.5,-56.5 1473.5,-56.5"/>
<text text-anchor="middle" x="1521" y="-63.5" font-family="FreeSans" font-size="10.00">PDSS_HKFT.cpp</text>
</a>
</g>
<!-- Node5&#45;&gt;Node19 -->
<g id="edge38" class="edge"><title>Node5&#45;&gt;Node19</title>
<path fill="none" stroke="midnightblue" d="M1429.37,-108.232C1451.82,-98.1312 1482.54,-84.3091 1502.07,-75.5164"/>
<polygon fill="midnightblue" stroke="midnightblue" points="1427.7,-105.148 1420.01,-112.444 1430.57,-111.532 1427.7,-105.148"/>
</g>
<!-- Node20 -->
<g id="node40" class="node"><title>Node20</title>
<a xlink:href="PDSS__IdealGas_8cpp.html" target="_top" xlink:title="Implementation of a pressure dependent standard state virtual function.">
<polygon fill="white" stroke="black" points="1587,-56.5 1587,-75.5 1697,-75.5 1697,-56.5 1587,-56.5"/>
<text text-anchor="middle" x="1642" y="-63.5" font-family="FreeSans" font-size="10.00">PDSS_IdealGas.cpp</text>
</a>
</g>
<!-- Node5&#45;&gt;Node20 -->
<g id="edge40" class="edge"><title>Node5&#45;&gt;Node20</title>
<path fill="none" stroke="midnightblue" d="M1432.23,-114.001C1476.22,-104.145 1556.35,-86.1921 1603.82,-75.5555"/>
<polygon fill="midnightblue" stroke="midnightblue" points="1431.38,-110.606 1422.39,-116.208 1432.91,-117.437 1431.38,-110.606"/>
</g>
<!-- Node21 -->
<g id="node42" class="node"><title>Node21</title>
<a xlink:href="PDSS__IonsFromNeutral_8cpp.html" target="_top" xlink:title="Implementation of a pressure dependent standard state virtual function.">
<polygon fill="white" stroke="black" points="1715,-56.5 1715,-75.5 1855,-75.5 1855,-56.5 1715,-56.5"/>
<text text-anchor="middle" x="1785" y="-63.5" font-family="FreeSans" font-size="10.00">PDSS_IonsFromNeutral.cpp</text>
</a>
</g>
<!-- Node5&#45;&gt;Node21 -->
<g id="edge42" class="edge"><title>Node5&#45;&gt;Node21</title>
<path fill="none" stroke="midnightblue" d="M1432.41,-116.583C1496.16,-107.618 1641.7,-87.1521 1724.48,-75.5104"/>
<polygon fill="midnightblue" stroke="midnightblue" points="1431.61,-113.161 1422.19,-118.02 1432.58,-120.093 1431.61,-113.161"/>
</g>
<!-- Node22 -->
<g id="node44" class="node"><title>Node22</title>
<a xlink:href="PDSS__SSVol_8cpp.html" target="_top" xlink:title="Implementation of a pressure dependent standard state virtual function.">
<polygon fill="white" stroke="black" points="1873.5,-56.5 1873.5,-75.5 1968.5,-75.5 1968.5,-56.5 1873.5,-56.5"/>
<text text-anchor="middle" x="1921" y="-63.5" font-family="FreeSans" font-size="10.00">PDSS_SSVol.cpp</text>
</a>
</g>
<!-- Node5&#45;&gt;Node22 -->
<g id="edge44" class="edge"><title>Node5&#45;&gt;Node22</title>
<path fill="none" stroke="midnightblue" d="M1432.44,-118.596C1507.34,-112.728 1702.12,-96.6278 1864,-76 1867.08,-75.6074 1870.25,-75.1779 1873.44,-74.7263"/>
<polygon fill="midnightblue" stroke="midnightblue" points="1431.98,-115.121 1422.28,-119.387 1432.52,-122.1 1431.98,-115.121"/>
</g>
<!-- Node23 -->
<g id="node46" class="node"><title>Node23</title>
<a xlink:href="PDSS__Water_8cpp.html" target="_top" xlink:title="PDSS_Water.cpp">
<polygon fill="white" stroke="black" points="1987,-56.5 1987,-75.5 2081,-75.5 2081,-56.5 1987,-56.5"/>
<text text-anchor="middle" x="2034" y="-63.5" font-family="FreeSans" font-size="10.00">PDSS_Water.cpp</text>
</a>
</g>
<!-- Node5&#45;&gt;Node23 -->
<g id="edge46" class="edge"><title>Node5&#45;&gt;Node23</title>
<path fill="none" stroke="midnightblue" d="M1432.48,-119.413C1519.39,-114.843 1769.94,-100.397 1977,-76 1980.18,-75.6249 1983.46,-75.2029 1986.76,-74.7516"/>
<polygon fill="midnightblue" stroke="midnightblue" points="1432.05,-115.93 1422.24,-119.945 1432.41,-122.921 1432.05,-115.93"/>
</g>
<!-- Node24 -->
<g id="node48" class="node"><title>Node24</title>
<a xlink:href="SpeciesThermoFactory_8cpp.html" target="_top" xlink:title="Definitions for factory to build instances of classes that manage the standard&#45;state thermodynamic pr...">
<polygon fill="white" stroke="black" points="2099.5,-56.5 2099.5,-75.5 2240.5,-75.5 2240.5,-56.5 2099.5,-56.5"/>
<text text-anchor="middle" x="2170" y="-63.5" font-family="FreeSans" font-size="10.00">SpeciesThermoFactory.cpp</text>
</a>
</g>
<!-- Node5&#45;&gt;Node24 -->
<g id="edge48" class="edge"><title>Node5&#45;&gt;Node24</title>
<path fill="none" stroke="midnightblue" d="M1432.23,-119.482C1529.63,-114.637 1836.52,-98.5236 2090,-76 2093.06,-75.7279 2096.19,-75.436 2099.35,-75.1299"/>
<polygon fill="midnightblue" stroke="midnightblue" points="1431.99,-115.99 1422.17,-119.98 1432.33,-122.981 1431.99,-115.99"/>
</g>
<!-- Node25 -->
<g id="node50" class="node"><title>Node25</title>
<a xlink:href="VPSSMgr__General_8cpp.html" target="_top" xlink:title="Definition file for a derived class that handles the calculation of standard state thermo properties ...">
<polygon fill="white" stroke="black" points="2258.5,-56.5 2258.5,-75.5 2379.5,-75.5 2379.5,-56.5 2258.5,-56.5"/>
<text text-anchor="middle" x="2319" y="-63.5" font-family="FreeSans" font-size="10.00">VPSSMgr_General.cpp</text>
</a>
</g>
<!-- Node5&#45;&gt;Node25 -->
<g id="edge50" class="edge"><title>Node5&#45;&gt;Node25</title>
<path fill="none" stroke="midnightblue" d="M1432.2,-120.188C1543.4,-117.113 1930.71,-104.866 2249,-76 2252.05,-75.7233 2255.17,-75.4149 2258.32,-75.0835"/>
<polygon fill="midnightblue" stroke="midnightblue" points="1431.92,-116.694 1422.02,-120.465 1432.11,-123.691 1431.92,-116.694"/>
</g>
<!-- Node26 -->
<g id="node52" class="node"><title>Node26</title>
<a xlink:href="VPSSMgr__IdealGas_8cpp.html" target="_top" xlink:title="Definition file for a derived class that handles the calculation of standard state thermo properties ...">
<polygon fill="white" stroke="black" points="2398,-56.5 2398,-75.5 2524,-75.5 2524,-56.5 2398,-56.5"/>
<text text-anchor="middle" x="2461" y="-63.5" font-family="FreeSans" font-size="10.00">VPSSMgr_IdealGas.cpp</text>
</a>
</g>
<!-- Node5&#45;&gt;Node26 -->
<g id="edge52" class="edge"><title>Node5&#45;&gt;Node26</title>
<path fill="none" stroke="midnightblue" d="M1432.39,-120.45C1554.89,-118.115 2012.61,-107.651 2388,-76 2391.18,-75.7318 2394.44,-75.4301 2397.72,-75.1041"/>
<polygon fill="midnightblue" stroke="midnightblue" points="1432.16,-116.953 1422.22,-120.639 1432.29,-123.952 1432.16,-116.953"/>
</g>
<!-- Node27 -->
<g id="node54" class="node"><title>Node27</title>
<a xlink:href="VPSSMgrFactory_8cpp.html" target="_top" xlink:title="Definitions for factory to build instances of classes that manage the calculation of standard state p...">
<polygon fill="white" stroke="black" points="2542.5,-56.5 2542.5,-75.5 2655.5,-75.5 2655.5,-56.5 2542.5,-56.5"/>
<text text-anchor="middle" x="2599" y="-63.5" font-family="FreeSans" font-size="10.00">VPSSMgrFactory.cpp</text>
</a>
</g>
<!-- Node5&#45;&gt;Node27 -->
<g id="edge54" class="edge"><title>Node5&#45;&gt;Node27</title>
<path fill="none" stroke="midnightblue" d="M1432.57,-120.852C1566.14,-119.992 2098.02,-114.215 2533,-76 2536,-75.7369 2539.06,-75.4343 2542.16,-75.1031"/>
<polygon fill="midnightblue" stroke="midnightblue" points="1432.23,-117.354 1422.26,-120.913 1432.28,-124.354 1432.23,-117.354"/>
</g>
<!-- Node28 -->
<g id="node56" class="node"><title>Node28</title>
<a xlink:href="WaterProps_8cpp.html" target="_top" xlink:title="WaterProps.cpp">
<polygon fill="white" stroke="black" points="2673.5,-56.5 2673.5,-75.5 2760.5,-75.5 2760.5,-56.5 2673.5,-56.5"/>
<text text-anchor="middle" x="2717" y="-63.5" font-family="FreeSans" font-size="10.00">WaterProps.cpp</text>
</a>
</g>
<!-- Node5&#45;&gt;Node28 -->
<g id="edge56" class="edge"><title>Node5&#45;&gt;Node28</title>
<path fill="none" stroke="midnightblue" d="M1432.19,-120.45C1601.77,-117.378 2414.25,-101.541 2664,-76 2667.06,-75.6867 2670.22,-75.3046 2673.39,-74.8766"/>
<polygon fill="midnightblue" stroke="midnightblue" points="1432.12,-116.951 1422.18,-120.631 1432.24,-123.95 1432.12,-116.951"/>
</g>
<!-- Node29 -->
<g id="node58" class="node"><title>Node29</title>
<a xlink:href="TransportFactory_8cpp.html" target="_top" xlink:title="Implementation file for class TransportFactory.">
<polygon fill="white" stroke="black" points="2778.5,-56.5 2778.5,-75.5 2889.5,-75.5 2889.5,-56.5 2778.5,-56.5"/>
<text text-anchor="middle" x="2834" y="-63.5" font-family="FreeSans" font-size="10.00">TransportFactory.cpp</text>
</a>
</g>
<!-- Node5&#45;&gt;Node29 -->
<g id="edge58" class="edge"><title>Node5&#45;&gt;Node29</title>
<path fill="none" stroke="midnightblue" d="M1432.65,-121.182C1582.56,-121.785 2236,-121.54 2769,-76 2772.06,-75.7381 2775.21,-75.4314 2778.37,-75.0922"/>
<polygon fill="midnightblue" stroke="midnightblue" points="1432.37,-117.68 1422.36,-121.135 1432.34,-124.68 1432.37,-117.68"/>
</g>
<!-- Node30 -->
<g id="node60" class="node"><title>Node30</title>
<a xlink:href="Phase_8h.html" target="_top" xlink:title="Header file for class Phase.">
<polygon fill="white" stroke="red" points="2907.5,-56.5 2907.5,-75.5 2960.5,-75.5 2960.5,-56.5 2907.5,-56.5"/>
<text text-anchor="middle" x="2934" y="-63.5" font-family="FreeSans" font-size="10.00">Phase.h</text>
</a>
</g>
<!-- Node5&#45;&gt;Node30 -->
<g id="edge60" class="edge"><title>Node5&#45;&gt;Node30</title>
<path fill="none" stroke="midnightblue" d="M1432.19,-120.975C1619.83,-120.685 2600.34,-117.192 2898,-76 2901.06,-75.5761 2904.24,-74.9948 2907.39,-74.3299"/>
<polygon fill="midnightblue" stroke="midnightblue" points="1432.17,-117.475 1422.17,-120.988 1432.18,-124.475 1432.17,-117.475"/>
</g>
<!-- Node31 -->
<g id="node62" class="node"><title>Node31</title>
<a xlink:href="Inlet1D_8h.html" target="_top" xlink:title="Boundary objects for one&#45;dimensional simulations.">
<polygon fill="white" stroke="red" points="290.5,-56.5 290.5,-75.5 345.5,-75.5 345.5,-56.5 290.5,-56.5"/>
<text text-anchor="middle" x="318" y="-63.5" font-family="FreeSans" font-size="10.00">Inlet1D.h</text>
</a>
</g>
<!-- Node5&#45;&gt;Node31 -->
<g id="edge62" class="edge"><title>Node5&#45;&gt;Node31</title>
<path fill="none" stroke="midnightblue" d="M1369.8,-120.481C1218.3,-117.835 558.429,-104.834 355,-76 351.989,-75.5732 348.866,-75.0092 345.767,-74.3711"/>
<polygon fill="midnightblue" stroke="midnightblue" points="1369.76,-123.981 1379.82,-120.654 1369.88,-116.982 1369.76,-123.981"/>
</g>
<!-- Node33 -->
<g id="node66" class="node"><title>Node33</title>
<a xlink:href="plots_8cpp.html" target="_top" xlink:title="plots.cpp">
<polygon fill="white" stroke="black" points="2979,-56.5 2979,-75.5 3035,-75.5 3035,-56.5 2979,-56.5"/>
<text text-anchor="middle" x="3007" y="-63.5" font-family="FreeSans" font-size="10.00">plots.cpp</text>
</a>
</g>
<!-- Node32&#45;&gt;Node33 -->
<g id="edge66" class="edge"><title>Node32&#45;&gt;Node33</title>
<path fill="none" stroke="midnightblue" d="M3022.2,-102.69C3018.32,-93.589 3013.82,-83.0141 3010.73,-75.7511"/>
<polygon fill="midnightblue" stroke="midnightblue" points="3019.06,-104.254 3026.2,-112.083 3025.5,-101.511 3019.06,-104.254"/>
</g>
<!-- Node36 -->
<g id="node72" class="node"><title>Node36</title>
<a xlink:href="ChemEquil_8cpp.html" target="_top" xlink:title="Chemical equilibrium.">
<polygon fill="white" stroke="black" points="3086.5,-0.5 3086.5,-19.5 3169.5,-19.5 3169.5,-0.5 3086.5,-0.5"/>
<text text-anchor="middle" x="3128" y="-7.5" font-family="FreeSans" font-size="10.00">ChemEquil.cpp</text>
</a>
</g>
<!-- Node35&#45;&gt;Node36 -->
<g id="edge72" class="edge"><title>Node35&#45;&gt;Node36</title>
<path fill="none" stroke="midnightblue" d="M3234.49,-113.1C3177.82,-103.724 3092.51,-87.8669 3083,-76 3067.55,-56.7248 3096.07,-32.4203 3114.37,-19.6884"/>
<polygon fill="midnightblue" stroke="midnightblue" points="3233.93,-116.555 3244.37,-114.716 3235.06,-109.647 3233.93,-116.555"/>
</g>
<!-- Node37 -->
<g id="node74" class="node"><title>Node37</title>
<a xlink:href="MultiPhase_8cpp.html" target="_top" xlink:title="Definitions for the MultiPhase object that is used to set up multiphase equilibrium problems (see Equ...">
<polygon fill="white" stroke="black" points="3215,-0.5 3215,-19.5 3299,-19.5 3299,-0.5 3215,-0.5"/>
<text text-anchor="middle" x="3257" y="-7.5" font-family="FreeSans" font-size="10.00">MultiPhase.cpp</text>
</a>
</g>
<!-- Node35&#45;&gt;Node37 -->
<g id="edge74" class="edge"><title>Node35&#45;&gt;Node37</title>
<path fill="none" stroke="midnightblue" d="M3280.34,-102.674C3274.21,-78.6248 3263.72,-37.3881 3259.19,-19.5914"/>
<polygon fill="midnightblue" stroke="midnightblue" points="3276.94,-103.541 3282.8,-112.368 3283.73,-101.814 3276.94,-103.541"/>
</g>
<!-- Node38 -->
<g id="node76" class="node"><title>Node38</title>
<a xlink:href="DenseMatrix_8cpp.html" target="_top" xlink:title="DenseMatrix.cpp">
<polygon fill="white" stroke="black" points="3351,-56.5 3351,-75.5 3443,-75.5 3443,-56.5 3351,-56.5"/>
<text text-anchor="middle" x="3397" y="-63.5" font-family="FreeSans" font-size="10.00">DenseMatrix.cpp</text>
</a>
</g>
<!-- Node35&#45;&gt;Node38 -->
<g id="edge76" class="edge"><title>Node35&#45;&gt;Node38</title>
<path fill="none" stroke="midnightblue" d="M3312.25,-107.862C3333.02,-97.8492 3361.02,-84.3458 3379.05,-75.6545"/>
<polygon fill="midnightblue" stroke="midnightblue" points="3310.48,-104.828 3302.99,-112.324 3313.52,-111.134 3310.48,-104.828"/>
</g>
<!-- Node39 -->
<g id="node78" class="node"><title>Node39</title>
<a xlink:href="L__matrix_8h.html" target="_top" xlink:title="Functions to evaluate portions of the L matrix needed for multicomponent transport properties...">
<polygon fill="white" stroke="black" points="3461,-56.5 3461,-75.5 3523,-75.5 3523,-56.5 3461,-56.5"/>
<text text-anchor="middle" x="3492" y="-63.5" font-family="FreeSans" font-size="10.00">L_matrix.h</text>
</a>
</g>
<!-- Node35&#45;&gt;Node39 -->
<g id="edge78" class="edge"><title>Node35&#45;&gt;Node39</title>
<path fill="none" stroke="midnightblue" d="M3327.69,-109.863C3367.28,-99.5355 3425.26,-84.4109 3460.71,-75.1629"/>
<polygon fill="midnightblue" stroke="midnightblue" points="3326.59,-106.533 3317.8,-112.444 3328.36,-113.306 3326.59,-106.533"/>
</g>
<!-- Node40 -->
<g id="node80" class="node"><title>Node40</title>
<a xlink:href="MultiTransport_8cpp.html" target="_top" xlink:title="Implementation file for class MultiTransport.">
<polygon fill="white" stroke="black" points="3393,-0.5 3393,-19.5 3491,-19.5 3491,-0.5 3393,-0.5"/>
<text text-anchor="middle" x="3442" y="-7.5" font-family="FreeSans" font-size="10.00">MultiTransport.cpp</text>
</a>
</g>
<!-- Node35&#45;&gt;Node40 -->
<g id="edge82" class="edge"><title>Node35&#45;&gt;Node40</title>
<path fill="none" stroke="midnightblue" d="M3296.72,-103.95C3307.24,-89.6537 3323.79,-69.472 3342,-56 3364.35,-39.4707 3393.73,-27.1586 3414.85,-19.6297"/>
<polygon fill="midnightblue" stroke="midnightblue" points="3293.67,-102.19 3290.72,-112.365 3299.38,-106.252 3293.67,-102.19"/>
</g>
<!-- Node41 -->
<g id="node83" class="node"><title>Node41</title>
<a xlink:href="WaterTransport_8cpp_source.html" target="_top" xlink:title="WaterTransport.cpp">
<polygon fill="white" stroke="black" points="3579,-56.5 3579,-75.5 3683,-75.5 3683,-56.5 3579,-56.5"/>
<text text-anchor="middle" x="3631" y="-63.5" font-family="FreeSans" font-size="10.00">WaterTransport.cpp</text>
</a>
</g>
<!-- Node35&#45;&gt;Node41 -->
<g id="edge84" class="edge"><title>Node35&#45;&gt;Node41</title>
<path fill="none" stroke="midnightblue" d="M3335.64,-111.933C3427.19,-96.8206 3521.69,-82.7978 3578.8,-74.4973"/>
<polygon fill="midnightblue" stroke="midnightblue" points="3334.94,-108.501 3325.64,-113.589 3336.08,-115.407 3334.94,-108.501"/>
</g>
<!-- Node42 -->
<g id="node85" class="node"><title>Node42</title>
<a xlink:href="ChemEquil_8h.html" target="_top" xlink:title="Chemical equilibrium.">
<polygon fill="white" stroke="red" points="3091.5,-56.5 3091.5,-75.5 3164.5,-75.5 3164.5,-56.5 3091.5,-56.5"/>
<text text-anchor="middle" x="3128" y="-63.5" font-family="FreeSans" font-size="10.00">ChemEquil.h</text>
</a>
</g>
<!-- Node35&#45;&gt;Node42 -->
<g id="edge86" class="edge"><title>Node35&#45;&gt;Node42</title>
<path fill="none" stroke="midnightblue" d="M3250.61,-109.172C3221.05,-99.0039 3179.13,-84.5852 3152.76,-75.5164"/>
<polygon fill="midnightblue" stroke="midnightblue" points="3249.53,-112.501 3260.12,-112.444 3251.8,-105.881 3249.53,-112.501"/>
</g>
<!-- Node43 -->
<g id="node88" class="node"><title>Node43</title>
<a xlink:href="MultiPhase_8h.html" target="_top" xlink:title="Headers for the MultiPhase object that is used to set up multiphase equilibrium problems (see Equilib...">
<polygon fill="white" stroke="red" points="3183,-56.5 3183,-75.5 3257,-75.5 3257,-56.5 3183,-56.5"/>
<text text-anchor="middle" x="3220" y="-63.5" font-family="FreeSans" font-size="10.00">MultiPhase.h</text>
</a>
</g>
<!-- Node35&#45;&gt;Node43 -->
<g id="edge90" class="edge"><title>Node35&#45;&gt;Node43</title>
<path fill="none" stroke="midnightblue" d="M3266.73,-105.82C3255.08,-96.1452 3240.4,-83.9481 3230.63,-75.8339"/>
<polygon fill="midnightblue" stroke="midnightblue" points="3264.63,-108.626 3274.56,-112.324 3269.1,-103.242 3264.63,-108.626"/>
</g>
<!-- Node44 -->
<g id="node92" class="node"><title>Node44</title>
<a xlink:href="ReactionPath_8h.html" target="_top" xlink:title="Classes for reaction path analysis.">
<polygon fill="white" stroke="red" points="3701.5,-56.5 3701.5,-75.5 3784.5,-75.5 3784.5,-56.5 3701.5,-56.5"/>
<text text-anchor="middle" x="3743" y="-63.5" font-family="FreeSans" font-size="10.00">ReactionPath.h</text>
</a>
</g>
<!-- Node35&#45;&gt;Node44 -->
<g id="edge96" class="edge"><title>Node35&#45;&gt;Node44</title>
<path fill="none" stroke="midnightblue" d="M3335.75,-112.007C3494.66,-90.1741 3537.28,-97.4234 3692,-76 3695.03,-75.5807 3698.15,-75.1141 3701.29,-74.62"/>
<polygon fill="midnightblue" stroke="midnightblue" points="3335.04,-108.572 3325.62,-113.417 3336,-115.506 3335.04,-108.572"/>
</g>
<!-- Node45 -->
<g id="node94" class="node"><title>Node45</title>
<a xlink:href="SquareMatrix_8h.html" target="_top" xlink:title="Dense, Square (not sparse) matrices.">
<polygon fill="white" stroke="red" points="3803,-56.5 3803,-75.5 3887,-75.5 3887,-56.5 3803,-56.5"/>
<text text-anchor="middle" x="3845" y="-63.5" font-family="FreeSans" font-size="10.00">SquareMatrix.h</text>
</a>
</g>
<!-- Node35&#45;&gt;Node45 -->
<g id="edge98" class="edge"><title>Node35&#45;&gt;Node45</title>
<path fill="none" stroke="midnightblue" d="M3335.73,-112.047C3539.25,-86.3724 3593.67,-101.028 3793,-76 3796.18,-75.6005 3799.47,-75.142 3802.76,-74.6481"/>
<polygon fill="midnightblue" stroke="midnightblue" points="3335.08,-108.601 3325.61,-113.342 3335.97,-115.545 3335.08,-108.601"/>
</g>
<!-- Node46 -->
<g id="node96" class="node"><title>Node46</title>
<a xlink:href="numerics_8h_source.html" target="_top" xlink:title="numerics.h">
<polygon fill="white" stroke="black" points="3665.5,-0.5 3665.5,-19.5 3730.5,-19.5 3730.5,-0.5 3665.5,-0.5"/>
<text text-anchor="middle" x="3698" y="-7.5" font-family="FreeSans" font-size="10.00">numerics.h</text>
</a>
</g>
<!-- Node35&#45;&gt;Node46 -->
<g id="edge102" class="edge"><title>Node35&#45;&gt;Node46</title>
<path fill="none" stroke="midnightblue" d="M3335.83,-111.797C3407.18,-98.8642 3528.68,-76.788 3531,-76 3549.44,-69.7359 3552.1,-63.6925 3570,-56 3603.76,-41.4888 3643.91,-27.9529 3670.12,-19.5922"/>
<polygon fill="midnightblue" stroke="midnightblue" points="3334.9,-108.408 3325.68,-113.635 3336.15,-115.296 3334.9,-108.408"/>
</g>
<!-- Node39&#45;&gt;Node40 -->
<g id="edge80" class="edge"><title>Node39&#45;&gt;Node40</title>
<path fill="none" stroke="midnightblue" d="M3476.92,-48.7175C3468.11,-39.1997 3457.33,-27.5608 3450.1,-19.7511"/>
<polygon fill="midnightblue" stroke="midnightblue" points="3474.38,-51.1233 3483.74,-56.083 3479.52,-46.3674 3474.38,-51.1233"/>
</g>
<!-- Node42&#45;&gt;Node36 -->
<g id="edge88" class="edge"><title>Node42&#45;&gt;Node36</title>
<path fill="none" stroke="midnightblue" d="M3128,-45.8045C3128,-36.9102 3128,-26.7798 3128,-19.7511"/>
<polygon fill="midnightblue" stroke="midnightblue" points="3124.5,-46.083 3128,-56.083 3131.5,-46.083 3124.5,-46.083"/>
</g>
<!-- Node43&#45;&gt;Node36 -->
<g id="edge92" class="edge"><title>Node43&#45;&gt;Node36</title>
<path fill="none" stroke="midnightblue" d="M3196.45,-51.1774C3179.52,-41.2407 3157.22,-28.1492 3142.74,-19.6545"/>
<polygon fill="midnightblue" stroke="midnightblue" points="3194.82,-54.2804 3205.22,-56.324 3198.37,-48.2435 3194.82,-54.2804"/>
</g>
<!-- Node43&#45;&gt;Node37 -->
<g id="edge94" class="edge"><title>Node43&#45;&gt;Node37</title>
<path fill="none" stroke="midnightblue" d="M3231.95,-47.5656C3238.31,-38.2747 3245.87,-27.2484 3251,-19.7511"/>
<polygon fill="midnightblue" stroke="midnightblue" points="3228.87,-45.8553 3226.11,-56.083 3234.65,-49.812 3228.87,-45.8553"/>
</g>
<!-- Node45&#45;&gt;Node46 -->
<g id="edge100" class="edge"><title>Node45&#45;&gt;Node46</title>
<path fill="none" stroke="midnightblue" d="M3812.08,-52.9058C3784.44,-42.7536 3745.66,-28.5063 3721.18,-19.5164"/>
<polygon fill="midnightblue" stroke="midnightblue" points="3811.11,-56.2806 3821.71,-56.4435 3813.53,-49.71 3811.11,-56.2806"/>
</g>
<!-- Node48&#45;&gt;Node14 -->
<g id="edge108" class="edge"><title>Node48&#45;&gt;Node14</title>
<path fill="none" stroke="midnightblue" d="M297.232,-106.622C282.983,-96.7574 264.544,-83.9919 252.501,-75.6545"/>
<polygon fill="midnightblue" stroke="midnightblue" points="295.254,-109.51 305.468,-112.324 299.238,-103.754 295.254,-109.51"/>
</g>
<!-- Node48&#45;&gt;Node31 -->
<g id="edge110" class="edge"><title>Node48&#45;&gt;Node31</title>
<path fill="none" stroke="midnightblue" d="M318,-101.805C318,-92.9102 318,-82.7798 318,-75.7511"/>
<polygon fill="midnightblue" stroke="midnightblue" points="314.5,-102.083 318,-112.083 321.5,-102.083 314.5,-102.083"/>
</g>
</g>
</svg>
