<?xml version="1.0" encoding="UTF-8" standalone="no"?>
<!DOCTYPE svg PUBLIC "-//W3C//DTD SVG 1.1//EN"
 "http://www.w3.org/Graphics/SVG/1.1/DTD/svg11.dtd">
<!-- Generated by graphviz version 2.28.0 (20120425.2022)
 -->
<!-- Title: LTI_StefanMaxwell_PPN Pages: 1 -->
<svg width="292pt" height="242pt"
 viewBox="0.00 0.00 292.00 242.00" xmlns="http://www.w3.org/2000/svg" xmlns:xlink="http://www.w3.org/1999/xlink">
<g id="graph1" class="graph" transform="scale(1 1) rotate(0) translate(4 238)">
<title>LTI_StefanMaxwell_PPN</title>
<polygon fill="white" stroke="white" points="-4,5 -4,-238 289,-238 289,5 -4,5"/>
<!-- Node1 -->
<g id="node1" class="node"><title>Node1</title>
<polygon fill="#bfbfbf" stroke="black" points="37,-0.5 37,-19.5 165,-19.5 165,-0.5 37,-0.5"/>
<text text-anchor="middle" x="101" y="-7.5" font-family="FreeSans" font-size="10.00">LTI_StefanMaxwell_PPN</text>
</g>
<!-- Node2 -->
<g id="node2" class="node"><title>Node2</title>
<a xlink:href="classCantera_1_1LiquidTranInteraction.html" target="_top" xlink:title="Base class to handle transport property evaluation in a mixture.">
<polygon fill="white" stroke="black" points="46,-68.5 46,-87.5 156,-87.5 156,-68.5 46,-68.5"/>
<text text-anchor="middle" x="101" y="-75.5" font-family="FreeSans" font-size="10.00">LiquidTranInteraction</text>
</a>
</g>
<!-- Node2&#45;&gt;Node1 -->
<g id="edge2" class="edge"><title>Node2&#45;&gt;Node1</title>
<path fill="none" stroke="midnightblue" d="M86.4173,-60.0739C82.3543,-53.3796 79.6245,-45.5035 82,-38 84.1452,-31.224 88.67,-24.6776 92.7658,-19.728"/>
<polygon fill="midnightblue" stroke="midnightblue" points="83.7115,-62.3037 92.4298,-68.3239 89.3686,-58.1809 83.7115,-62.3037"/>
</g>
<!-- Node2&#45;&gt;Node1 -->
<g id="edge14" class="edge"><title>Node2&#45;&gt;Node1</title>
<path fill="none" stroke="#9a32cd" stroke-dasharray="5,2" d="M101,-58.0413C101,-45.4724 101,-29.5631 101,-19.8411"/>
<polygon fill="#9a32cd" stroke="#9a32cd" points="97.5001,-58.3716 101,-68.3717 104.5,-58.3717 97.5001,-58.3716"/>
<text text-anchor="middle" x="151" y="-41.5" font-family="FreeSans" font-size="10.00"> m_ionCondMixModel</text>
</g>
<!-- Node3 -->
<g id="node4" class="node"><title>Node3</title>
<a xlink:href="classCantera_1_1ThermoPhase.html" target="_top" xlink:title="Base class for a phase with thermodynamic properties.">
<polygon fill="white" stroke="black" points="60,-146.5 60,-165.5 142,-165.5 142,-146.5 60,-146.5"/>
<text text-anchor="middle" x="101" y="-153.5" font-family="FreeSans" font-size="10.00">ThermoPhase</text>
</a>
</g>
<!-- Node3&#45;&gt;Node2 -->
<g id="edge4" class="edge"><title>Node3&#45;&gt;Node2</title>
<path fill="none" stroke="#9a32cd" stroke-dasharray="5,2" d="M101,-136.224C101,-120.697 101,-99.3582 101,-87.6165"/>
<polygon fill="#9a32cd" stroke="#9a32cd" points="97.5001,-136.282 101,-146.282 104.5,-136.282 97.5001,-136.282"/>
<text text-anchor="middle" x="125" y="-114.5" font-family="FreeSans" font-size="10.00"> m_thermo</text>
</g>
<!-- Node4 -->
<g id="node6" class="node"><title>Node4</title>
<a xlink:href="classCantera_1_1Phase.html" target="_top" xlink:title="Base class for phases of matter.">
<polygon fill="white" stroke="red" points="0,-214.5 0,-233.5 46,-233.5 46,-214.5 0,-214.5"/>
<text text-anchor="middle" x="23" y="-221.5" font-family="FreeSans" font-size="10.00">Phase</text>
</a>
</g>
<!-- Node4&#45;&gt;Node3 -->
<g id="edge6" class="edge"><title>Node4&#45;&gt;Node3</title>
<path fill="none" stroke="midnightblue" d="M40.9939,-207.774C56.3466,-194.784 77.8894,-176.555 90.5514,-165.841"/>
<polygon fill="midnightblue" stroke="midnightblue" points="38.5702,-205.24 33.1971,-214.372 43.0918,-210.584 38.5702,-205.24"/>
</g>
<!-- Node5 -->
<g id="node8" class="node"><title>Node5</title>
<a xlink:href="classCantera_1_1SpeciesThermo.html" target="_top" xlink:title="Pure Virtual base class for the species thermo manager classes.">
<polygon fill="white" stroke="black" points="64.5,-214.5 64.5,-233.5 153.5,-233.5 153.5,-214.5 64.5,-214.5"/>
<text text-anchor="middle" x="109" y="-221.5" font-family="FreeSans" font-size="10.00">SpeciesThermo</text>
</a>
</g>
<!-- Node5&#45;&gt;Node3 -->
<g id="edge8" class="edge"><title>Node5&#45;&gt;Node3</title>
<path fill="none" stroke="#9a32cd" stroke-dasharray="5,2" d="M106.748,-204.425C105.218,-191.798 103.262,-175.662 102.072,-165.841"/>
<polygon fill="#9a32cd" stroke="#9a32cd" points="103.276,-204.866 107.954,-214.372 110.225,-204.023 103.276,-204.866"/>
<text text-anchor="middle" x="135" y="-187.5" font-family="FreeSans" font-size="10.00"> m_spthermo</text>
</g>
<!-- Node6 -->
<g id="node10" class="node"><title>Node6</title>
<a xlink:href="classCantera_1_1DenseMatrix.html" target="_top" xlink:title="A class for full (non&#45;sparse) matrices with Fortran&#45;compatible data storage, which adds matrix operat...">
<polygon fill="white" stroke="black" points="169,-146.5 169,-165.5 243,-165.5 243,-146.5 169,-146.5"/>
<text text-anchor="middle" x="206" y="-153.5" font-family="FreeSans" font-size="10.00">DenseMatrix</text>
</a>
</g>
<!-- Node6&#45;&gt;Node1 -->
<g id="edge16" class="edge"><title>Node6&#45;&gt;Node1</title>
<path fill="none" stroke="#9a32cd" stroke-dasharray="5,2" d="M211.415,-136.794C217.679,-111.667 224.481,-66.2672 202,-38 195.701,-30.0804 175.73,-23.9376 155.19,-19.5262"/>
<polygon fill="#9a32cd" stroke="#9a32cd" points="208.024,-135.927 208.766,-146.496 214.777,-137.771 208.024,-135.927"/>
<text text-anchor="middle" x="250.5" y="-75.5" font-family="FreeSans" font-size="10.00"> m_mobRatMix</text>
</g>
<!-- Node6&#45;&gt;Node2 -->
<g id="edge10" class="edge"><title>Node6&#45;&gt;Node2</title>
<path fill="none" stroke="#9a32cd" stroke-dasharray="5,2" d="M187.159,-140.005C182.473,-136.162 177.504,-131.986 173,-128 162.407,-118.625 161.402,-114.373 150,-106 140.449,-98.9862 128.873,-92.5254 119.371,-87.6835"/>
<polygon fill="#9a32cd" stroke="#9a32cd" points="185.149,-142.881 195.124,-146.451 189.552,-137.44 185.149,-142.881"/>
<text text-anchor="middle" x="187.5" y="-120" font-family="FreeSans" font-size="10.00"> m_Dij</text>
<text text-anchor="middle" x="187.5" y="-109" font-family="FreeSans" font-size="10.00">m_Eij</text>
</g>
<!-- Node7 -->
<g id="node12" class="node"><title>Node7</title>
<a xlink:href="classCantera_1_1Array2D.html" target="_top" xlink:title="A class for 2D arrays stored in column&#45;major (Fortran&#45;compatible) form.">
<polygon fill="white" stroke="black" points="179.5,-214.5 179.5,-233.5 232.5,-233.5 232.5,-214.5 179.5,-214.5"/>
<text text-anchor="middle" x="206" y="-221.5" font-family="FreeSans" font-size="10.00">Array2D</text>
</a>
</g>
<!-- Node7&#45;&gt;Node6 -->
<g id="edge12" class="edge"><title>Node7&#45;&gt;Node6</title>
<path fill="none" stroke="midnightblue" d="M206,-204.041C206,-191.472 206,-175.563 206,-165.841"/>
<polygon fill="midnightblue" stroke="midnightblue" points="202.5,-204.372 206,-214.372 209.5,-204.372 202.5,-204.372"/>
</g>
</g>
</svg>
