<?xml version="1.0" encoding="UTF-8" standalone="no"?>
<!DOCTYPE svg PUBLIC "-//W3C//DTD SVG 1.1//EN"
 "http://www.w3.org/Graphics/SVG/1.1/DTD/svg11.dtd">
<!-- Generated by graphviz version 2.28.0 (20120425.2022)
 -->
<!-- Title: FactoryBase Pages: 1 -->
<svg width="242pt" height="218pt"
 viewBox="0.00 0.00 242.00 218.00" xmlns="http://www.w3.org/2000/svg" xmlns:xlink="http://www.w3.org/1999/xlink">
<g id="graph1" class="graph" transform="scale(1 1) rotate(0) translate(4 214)">
<title>FactoryBase</title>
<polygon fill="white" stroke="white" points="-4,5 -4,-214 239,-214 239,5 -4,5"/>
<!-- Node1 -->
<g id="node1" class="node"><title>Node1</title>
<polygon fill="#bfbfbf" stroke="black" points="0,-95.5 0,-114.5 74,-114.5 74,-95.5 0,-95.5"/>
<text text-anchor="middle" x="37" y="-102.5" font-family="FreeSans" font-size="10.00">FactoryBase</text>
</g>
<!-- Node2 -->
<g id="node3" class="node"><title>Node2</title>
<a xlink:href="classCantera_1_1FalloffFactory.html" target="_top" xlink:title="Factory class to construct falloff function calculators.">
<polygon fill="white" stroke="black" points="133.5,-190.5 133.5,-209.5 210.5,-209.5 210.5,-190.5 133.5,-190.5"/>
<text text-anchor="middle" x="172" y="-197.5" font-family="FreeSans" font-size="10.00">FalloffFactory</text>
</a>
</g>
<!-- Node1&#45;&gt;Node2 -->
<g id="edge2" class="edge"><title>Node1&#45;&gt;Node2</title>
<path fill="none" stroke="midnightblue" d="M50.5538,-122.805C63.5715,-140.024 85.4349,-165.695 110,-181 117.061,-185.399 125.22,-188.851 133.228,-191.534"/>
<polygon fill="midnightblue" stroke="midnightblue" points="53.3229,-120.662 44.5852,-114.67 47.6792,-124.803 53.3229,-120.662"/>
</g>
<!-- Node3 -->
<g id="node5" class="node"><title>Node3</title>
<a xlink:href="classCantera_1_1KineticsFactory.html" target="_top" xlink:title="Factory for kinetics managers.">
<polygon fill="white" stroke="black" points="129,-152.5 129,-171.5 215,-171.5 215,-152.5 129,-152.5"/>
<text text-anchor="middle" x="172" y="-159.5" font-family="FreeSans" font-size="10.00">KineticsFactory</text>
</a>
</g>
<!-- Node1&#45;&gt;Node3 -->
<g id="edge4" class="edge"><title>Node1&#45;&gt;Node3</title>
<path fill="none" stroke="midnightblue" d="M62.9429,-119.619C76.557,-127.223 93.8804,-136.302 110,-143 118.399,-146.49 127.677,-149.693 136.407,-152.436"/>
<polygon fill="midnightblue" stroke="midnightblue" points="64.5948,-116.532 54.1708,-114.638 61.1382,-122.619 64.5948,-116.532"/>
</g>
<!-- Node4 -->
<g id="node7" class="node"><title>Node4</title>
<a xlink:href="classCantera_1_1SpeciesThermoFactory.html" target="_top" xlink:title="Factory to build instances of classes that manage the standard&#45;state thermodynamic properties of a se...">
<polygon fill="white" stroke="black" points="110.5,-114.5 110.5,-133.5 233.5,-133.5 233.5,-114.5 110.5,-114.5"/>
<text text-anchor="middle" x="172" y="-121.5" font-family="FreeSans" font-size="10.00">SpeciesThermoFactory</text>
</a>
</g>
<!-- Node1&#45;&gt;Node4 -->
<g id="edge6" class="edge"><title>Node1&#45;&gt;Node4</title>
<path fill="none" stroke="midnightblue" d="M84.3325,-111.619C92.7497,-112.821 101.643,-114.092 110.399,-115.343"/>
<polygon fill="midnightblue" stroke="midnightblue" points="84.7373,-108.141 74.3428,-110.192 83.7473,-115.071 84.7373,-108.141"/>
</g>
<!-- Node5 -->
<g id="node9" class="node"><title>Node5</title>
<a xlink:href="classCantera_1_1ThermoFactory.html" target="_top" xlink:title="Factory class for thermodynamic property managers.">
<polygon fill="white" stroke="black" points="129,-76.5 129,-95.5 215,-95.5 215,-76.5 129,-76.5"/>
<text text-anchor="middle" x="172" y="-83.5" font-family="FreeSans" font-size="10.00">ThermoFactory</text>
</a>
</g>
<!-- Node1&#45;&gt;Node5 -->
<g id="edge8" class="edge"><title>Node1&#45;&gt;Node5</title>
<path fill="none" stroke="midnightblue" d="M84.4952,-98.3578C98.8291,-96.3101 114.53,-94.0671 128.575,-92.0607"/>
<polygon fill="midnightblue" stroke="midnightblue" points="83.7473,-94.929 74.3428,-99.8082 84.7373,-101.859 83.7473,-94.929"/>
</g>
<!-- Node6 -->
<g id="node11" class="node"><title>Node6</title>
<a xlink:href="classCantera_1_1TransportFactory.html" target="_top" xlink:title="The purpose of the TransportFactory class is to create new instances of &#39;transport managers&#39;...">
<polygon fill="white" stroke="black" points="125.5,-38.5 125.5,-57.5 218.5,-57.5 218.5,-38.5 125.5,-38.5"/>
<text text-anchor="middle" x="172" y="-45.5" font-family="FreeSans" font-size="10.00">TransportFactory</text>
</a>
</g>
<!-- Node1&#45;&gt;Node6 -->
<g id="edge10" class="edge"><title>Node1&#45;&gt;Node6</title>
<path fill="none" stroke="midnightblue" d="M62.9429,-90.381C76.557,-82.7768 93.8804,-73.6975 110,-67 118.399,-63.5102 127.677,-60.3066 136.407,-57.564"/>
<polygon fill="midnightblue" stroke="midnightblue" points="61.1382,-87.3808 54.1708,-95.3624 64.5948,-93.4679 61.1382,-87.3808"/>
</g>
<!-- Node7 -->
<g id="node13" class="node"><title>Node7</title>
<a xlink:href="classCantera_1_1VPSSMgrFactory.html" target="_top" xlink:title="Factory to build instances of classes that manage the standard&#45;state thermodynamic properties of a se...">
<polygon fill="white" stroke="black" points="124.5,-0.5 124.5,-19.5 219.5,-19.5 219.5,-0.5 124.5,-0.5"/>
<text text-anchor="middle" x="172" y="-7.5" font-family="FreeSans" font-size="10.00">VPSSMgrFactory</text>
</a>
</g>
<!-- Node1&#45;&gt;Node7 -->
<g id="edge12" class="edge"><title>Node1&#45;&gt;Node7</title>
<path fill="none" stroke="midnightblue" d="M50.5538,-87.1954C63.5715,-69.9763 85.4349,-44.3049 110,-29 116.119,-25.1874 123.064,-22.086 130.02,-19.5805"/>
<polygon fill="midnightblue" stroke="midnightblue" points="47.6792,-85.1967 44.5852,-95.3297 53.3229,-89.3378 47.6792,-85.1967"/>
</g>
</g>
</svg>
