<?xml version="1.0" encoding="UTF-8" standalone="no"?>
<!DOCTYPE svg PUBLIC "-//W3C//DTD SVG 1.1//EN"
 "http://www.w3.org/Graphics/SVG/1.1/DTD/svg11.dtd">
<!-- Generated by graphviz version 2.28.0 (20120425.2022)
 -->
<!-- Title: HMWSoln Pages: 1 -->
<svg width="531pt" height="486pt"
 viewBox="0.00 0.00 531.00 486.00" xmlns="http://www.w3.org/2000/svg" xmlns:xlink="http://www.w3.org/1999/xlink">
<g id="graph1" class="graph" transform="scale(1 1) rotate(0) translate(4 482)">
<title>HMWSoln</title>
<polygon fill="white" stroke="white" points="-4,5 -4,-482 528,-482 528,5 -4,5"/>
<!-- Node1 -->
<g id="node1" class="node"><title>Node1</title>
<polygon fill="#bfbfbf" stroke="black" points="271.5,-0.5 271.5,-19.5 332.5,-19.5 332.5,-0.5 271.5,-0.5"/>
<text text-anchor="middle" x="302" y="-7.5" font-family="FreeSans" font-size="10.00">HMWSoln</text>
</g>
<!-- Node2 -->
<g id="node2" class="node"><title>Node2</title>
<a xlink:href="classCantera_1_1MolalityVPSSTP.html" target="_top" xlink:title="MolalityVPSSTP">
<polygon fill="white" stroke="black" points="431,-216.5 431,-235.5 523,-235.5 523,-216.5 431,-216.5"/>
<text text-anchor="middle" x="477" y="-223.5" font-family="FreeSans" font-size="10.00">MolalityVPSSTP</text>
</a>
</g>
<!-- Node2&#45;&gt;Node1 -->
<g id="edge2" class="edge"><title>Node2&#45;&gt;Node1</title>
<path fill="none" stroke="midnightblue" d="M423.72,-214.455C392.457,-208.044 358.563,-200.604 356,-198 305.075,-146.246 353.415,-103.931 323,-38 319.915,-31.3135 314.892,-24.7699 310.532,-19.7994"/>
<polygon fill="midnightblue" stroke="midnightblue" points="423.238,-217.929 433.735,-216.493 424.634,-211.069 423.238,-217.929"/>
</g>
<!-- Node3 -->
<g id="node4" class="node"><title>Node3</title>
<a xlink:href="classCantera_1_1VPStandardStateTP.html" target="_top" xlink:title="This is a filter class for ThermoPhase that implements some prepatory steps for efficiently handling ...">
<polygon fill="white" stroke="black" points="286.5,-322.5 286.5,-341.5 395.5,-341.5 395.5,-322.5 286.5,-322.5"/>
<text text-anchor="middle" x="341" y="-329.5" font-family="FreeSans" font-size="10.00">VPStandardStateTP</text>
</a>
</g>
<!-- Node3&#45;&gt;Node2 -->
<g id="edge4" class="edge"><title>Node3&#45;&gt;Node2</title>
<path fill="none" stroke="midnightblue" d="M401.409,-319.225C411.596,-315.466 421.581,-310.516 430,-304 453.78,-285.595 468.327,-251.485 474.115,-235.58"/>
<polygon fill="midnightblue" stroke="midnightblue" points="400.011,-316.002 391.625,-322.477 402.219,-322.644 400.011,-316.002"/>
</g>
<!-- Node6 -->
<g id="node10" class="node"><title>Node6</title>
<a xlink:href="classCantera_1_1VPSSMgr.html" target="_top" xlink:title="Virtual base class for the classes that manage the calculation of standard state properties for all t...">
<polygon fill="white" stroke="black" points="236.5,-254.5 236.5,-273.5 297.5,-273.5 297.5,-254.5 236.5,-254.5"/>
<text text-anchor="middle" x="267" y="-261.5" font-family="FreeSans" font-size="10.00">VPSSMgr</text>
</a>
</g>
<!-- Node3&#45;&gt;Node6 -->
<g id="edge14" class="edge"><title>Node3&#45;&gt;Node6</title>
<path fill="none" stroke="#9a32cd" stroke-dasharray="5,2" d="M279.52,-317.851C273.47,-314.278 268.074,-309.745 264,-304 257.715,-295.137 260.458,-282.118 263.399,-273.601"/>
<polygon fill="#9a32cd" stroke="#9a32cd" points="278.261,-321.133 288.776,-322.43 281.365,-314.859 278.261,-321.133"/>
<text text-anchor="middle" x="289.5" y="-295.5" font-family="FreeSans" font-size="10.00"> m_vptp_ptr</text>
</g>
<!-- Node10 -->
<g id="node20" class="node"><title>Node10</title>
<a xlink:href="classCantera_1_1PDSS.html" target="_top" xlink:title="Virtual base class for a species with a pressure dependent standard state.">
<polygon fill="white" stroke="black" points="245,-178.5 245,-197.5 289,-197.5 289,-178.5 245,-178.5"/>
<text text-anchor="middle" x="267" y="-185.5" font-family="FreeSans" font-size="10.00">PDSS</text>
</a>
</g>
<!-- Node3&#45;&gt;Node10 -->
<g id="edge28" class="edge"><title>Node3&#45;&gt;Node10</title>
<path fill="none" stroke="#9a32cd" stroke-dasharray="5,2" d="M379.26,-317.55C384.733,-313.985 389.638,-309.534 393,-304 395.769,-299.442 394.553,-297.102 393,-292 381.153,-253.085 374.069,-241.026 342,-216 326.508,-203.91 305.126,-196.925 289.156,-193.102"/>
<polygon fill="#9a32cd" stroke="#9a32cd" points="377.414,-314.571 370.332,-322.451 380.782,-320.707 377.414,-314.571"/>
<text text-anchor="middle" x="399.5" y="-261.5" font-family="FreeSans" font-size="10.00"> m_tp</text>
</g>
<!-- Node4 -->
<g id="node6" class="node"><title>Node4</title>
<a xlink:href="classCantera_1_1ThermoPhase.html" target="_top" xlink:title="Base class for a phase with thermodynamic properties.">
<polygon fill="white" stroke="red" points="272,-390.5 272,-409.5 354,-409.5 354,-390.5 272,-390.5"/>
<text text-anchor="middle" x="313" y="-397.5" font-family="FreeSans" font-size="10.00">ThermoPhase</text>
</a>
</g>
<!-- Node4&#45;&gt;Node3 -->
<g id="edge6" class="edge"><title>Node4&#45;&gt;Node3</title>
<path fill="none" stroke="midnightblue" d="M320.718,-380.807C326.099,-368.124 333.041,-351.762 337.249,-341.841"/>
<polygon fill="midnightblue" stroke="midnightblue" points="317.344,-379.799 316.661,-390.372 323.788,-382.533 317.344,-379.799"/>
</g>
<!-- Node5 -->
<g id="node8" class="node"><title>Node5</title>
<a xlink:href="classCantera_1_1SpeciesThermo.html" target="_top" xlink:title="Pure Virtual base class for the species thermo manager classes.">
<polygon fill="white" stroke="black" points="189.5,-458.5 189.5,-477.5 278.5,-477.5 278.5,-458.5 189.5,-458.5"/>
<text text-anchor="middle" x="234" y="-465.5" font-family="FreeSans" font-size="10.00">SpeciesThermo</text>
</a>
</g>
<!-- Node5&#45;&gt;Node4 -->
<g id="edge8" class="edge"><title>Node5&#45;&gt;Node4</title>
<path fill="none" stroke="#9a32cd" stroke-dasharray="5,2" d="M252.273,-451.734C267.921,-438.661 289.894,-420.304 302.67,-409.63"/>
<polygon fill="#9a32cd" stroke="#9a32cd" points="249.758,-449.274 244.328,-458.372 254.246,-454.646 249.758,-449.274"/>
<text text-anchor="middle" x="310" y="-431.5" font-family="FreeSans" font-size="10.00"> m_spthermo</text>
</g>
<!-- Node5&#45;&gt;Node6 -->
<g id="edge12" class="edge"><title>Node5&#45;&gt;Node6</title>
<path fill="none" stroke="#9a32cd" stroke-dasharray="5,2" d="M235.079,-448.314C237.246,-416.03 243.161,-347.898 257,-292 258.538,-285.789 261.038,-279.039 263.153,-273.842"/>
<polygon fill="#9a32cd" stroke="#9a32cd" points="231.573,-448.298 234.442,-458.497 238.559,-448.735 231.573,-448.298"/>
<text text-anchor="middle" x="273" y="-363.5" font-family="FreeSans" font-size="10.00"> m_spthermo</text>
</g>
<!-- Node5&#45;&gt;Node10 -->
<g id="edge24" class="edge"><title>Node5&#45;&gt;Node10</title>
<path fill="none" stroke="#9a32cd" stroke-dasharray="5,2" d="M196.463,-454.607C173.306,-444.337 148,-427.136 148,-401 148,-401 148,-401 148,-263 148,-217.871 210.482,-199.289 244.896,-192.478"/>
<polygon fill="#9a32cd" stroke="#9a32cd" points="195.261,-457.897 205.84,-458.462 197.922,-451.423 195.261,-457.897"/>
<text text-anchor="middle" x="177" y="-329.5" font-family="FreeSans" font-size="10.00"> m_spthermo</text>
</g>
<!-- Node6&#45;&gt;Node3 -->
<g id="edge10" class="edge"><title>Node6&#45;&gt;Node3</title>
<path fill="none" stroke="#9a32cd" stroke-dasharray="5,2" d="M299.454,-278.16C306.417,-281.948 313.366,-286.558 319,-292 327.946,-300.641 334.303,-313.715 337.813,-322.306"/>
<polygon fill="#9a32cd" stroke="#9a32cd" points="300.585,-274.814 290.071,-273.505 297.474,-281.085 300.585,-274.814"/>
<text text-anchor="middle" x="359" y="-295.5" font-family="FreeSans" font-size="10.00"> m_VPSS_ptr</text>
</g>
<!-- Node6&#45;&gt;Node10 -->
<g id="edge26" class="edge"><title>Node6&#45;&gt;Node10</title>
<path fill="none" stroke="#9a32cd" stroke-dasharray="5,2" d="M267,-244.072C267,-229.18 267,-209.111 267,-197.768"/>
<polygon fill="#9a32cd" stroke="#9a32cd" points="263.5,-244.221 267,-254.221 270.5,-244.221 263.5,-244.221"/>
<text text-anchor="middle" x="302.5" y="-223.5" font-family="FreeSans" font-size="10.00"> m_vpssmgr_ptr</text>
</g>
<!-- Node7 -->
<g id="node14" class="node"><title>Node7</title>
<a xlink:href="classCantera_1_1WaterProps.html" target="_top" xlink:title="The WaterProps class is used to house several approximation routines for properties of water...">
<polygon fill="white" stroke="black" points="54.5,-178.5 54.5,-197.5 123.5,-197.5 123.5,-178.5 54.5,-178.5"/>
<text text-anchor="middle" x="89" y="-185.5" font-family="FreeSans" font-size="10.00">WaterProps</text>
</a>
</g>
<!-- Node7&#45;&gt;Node1 -->
<g id="edge16" class="edge"><title>Node7&#45;&gt;Node1</title>
<path fill="none" stroke="#9a32cd" stroke-dasharray="5,2" d="M95.2951,-168.454C107.137,-136.51 135.867,-71.3332 183,-38 209.031,-19.5904 245.584,-13.4949 271.29,-11.5974"/>
<polygon fill="#9a32cd" stroke="#9a32cd" points="91.8607,-167.666 91.8081,-178.261 98.4561,-170.011 91.8607,-167.666"/>
<text text-anchor="middle" x="217" y="-96.5" font-family="FreeSans" font-size="10.00"> m_waterProps</text>
</g>
<!-- Node8 -->
<g id="node16" class="node"><title>Node8</title>
<a xlink:href="classCantera_1_1WaterPropsIAPWS.html" target="_top" xlink:title="Class for calculating the equation of state of water.">
<polygon fill="white" stroke="black" points="7.5,-254.5 7.5,-273.5 106.5,-273.5 106.5,-254.5 7.5,-254.5"/>
<text text-anchor="middle" x="57" y="-261.5" font-family="FreeSans" font-size="10.00">WaterPropsIAPWS</text>
</a>
</g>
<!-- Node8&#45;&gt;Node7 -->
<g id="edge18" class="edge"><title>Node8&#45;&gt;Node7</title>
<path fill="none" stroke="#9a32cd" stroke-dasharray="5,2" d="M56.1632,-244.076C56.468,-235.174 57.8712,-224.642 62,-216 65.4292,-208.822 71.5762,-202.441 77.1395,-197.687"/>
<polygon fill="#9a32cd" stroke="#9a32cd" points="52.6643,-244.242 56.2422,-254.215 59.6641,-244.188 52.6643,-244.242"/>
<text text-anchor="middle" x="98" y="-223.5" font-family="FreeSans" font-size="10.00"> m_waterIAPWS</text>
</g>
<!-- Node9 -->
<g id="node18" class="node"><title>Node9</title>
<a xlink:href="classWaterPropsIAPWSphi.html" target="_top" xlink:title="WaterPropsIAPWSphi">
<polygon fill="white" stroke="black" points="0,-322.5 0,-341.5 112,-341.5 112,-322.5 0,-322.5"/>
<text text-anchor="middle" x="56" y="-329.5" font-family="FreeSans" font-size="10.00">WaterPropsIAPWSphi</text>
</a>
</g>
<!-- Node9&#45;&gt;Node8 -->
<g id="edge20" class="edge"><title>Node9&#45;&gt;Node8</title>
<path fill="none" stroke="#9a32cd" stroke-dasharray="5,2" d="M56.2873,-312.041C56.4777,-299.472 56.7187,-283.563 56.866,-273.841"/>
<polygon fill="#9a32cd" stroke="#9a32cd" points="52.7827,-312.32 56.1307,-322.372 59.7819,-312.426 52.7827,-312.32"/>
<text text-anchor="middle" x="72" y="-295.5" font-family="FreeSans" font-size="10.00"> m_phi</text>
</g>
<!-- Node10&#45;&gt;Node1 -->
<g id="edge22" class="edge"><title>Node10&#45;&gt;Node1</title>
<path fill="none" stroke="#9a32cd" stroke-dasharray="5,2" d="M262.208,-168.246C255.726,-138.808 247.203,-80.7064 268,-38 271.762,-30.2745 278.916,-24.0753 285.695,-19.5751"/>
<polygon fill="#9a32cd" stroke="#9a32cd" points="258.892,-169.431 264.608,-178.352 265.702,-167.813 258.892,-169.431"/>
<text text-anchor="middle" x="295.5" y="-96.5" font-family="FreeSans" font-size="10.00"> m_waterSS</text>
</g>
<!-- Node11 -->
<g id="node25" class="node"><title>Node11</title>
<a xlink:href="classCantera_1_1Array2D.html" target="_top" xlink:title="A class for 2D arrays stored in column&#45;major (Fortran&#45;compatible) form.">
<polygon fill="white" stroke="black" points="365.5,-178.5 365.5,-197.5 418.5,-197.5 418.5,-178.5 365.5,-178.5"/>
<text text-anchor="middle" x="392" y="-185.5" font-family="FreeSans" font-size="10.00">Array2D</text>
</a>
</g>
<!-- Node11&#45;&gt;Node1 -->
<g id="edge30" class="edge"><title>Node11&#45;&gt;Node1</title>
<path fill="none" stroke="#9a32cd" stroke-dasharray="5,2" d="M391.391,-168.127C389.489,-137.641 381.792,-77.0393 351,-38 344.624,-29.9163 335.127,-23.8978 326.187,-19.6202"/>
<polygon fill="#9a32cd" stroke="#9a32cd" points="387.901,-168.407 391.873,-178.229 394.893,-168.074 387.901,-168.407"/>
<text text-anchor="middle" x="437" y="-151.5" font-family="FreeSans" font-size="10.00"> m_Lambda_nj</text>
<text text-anchor="middle" x="437" y="-140.5" font-family="FreeSans" font-size="10.00">m_Theta_ij_coeff</text>
<text text-anchor="middle" x="437" y="-129.5" font-family="FreeSans" font-size="10.00">m_Lambda_nj_P</text>
<text text-anchor="middle" x="437" y="-118.5" font-family="FreeSans" font-size="10.00">m_Beta0MX_ij_coeff</text>
<text text-anchor="middle" x="437" y="-107.5" font-family="FreeSans" font-size="10.00">m_Mu_nnn_coeff</text>
<text text-anchor="middle" x="437" y="-96.5" font-family="FreeSans" font-size="10.00">m_Lambda_nj_coeff</text>
<text text-anchor="middle" x="437" y="-85.5" font-family="FreeSans" font-size="10.00">m_CphiMX_ij_coeff</text>
<text text-anchor="middle" x="437" y="-74.5" font-family="FreeSans" font-size="10.00">m_Lambda_nj_LL</text>
<text text-anchor="middle" x="437" y="-63.5" font-family="FreeSans" font-size="10.00">m_Lambda_nj_L</text>
<text text-anchor="middle" x="437" y="-52.5" font-family="FreeSans" font-size="10.00">m_Beta2MX_ij_coeff</text>
<text text-anchor="middle" x="437" y="-41.5" font-family="FreeSans" font-size="10.00">...</text>
</g>
</g>
</svg>
