<?xml version="1.0" encoding="UTF-8" standalone="no"?>
<!DOCTYPE svg PUBLIC "-//W3C//DTD SVG 1.1//EN"
 "http://www.w3.org/Graphics/SVG/1.1/DTD/svg11.dtd">
<!-- Generated by graphviz version 2.28.0 (20120425.2022)
 -->
<!-- Title: EdgeKinetics Pages: 1 -->
<svg width="98pt" height="140pt"
 viewBox="0.00 0.00 98.00 140.00" xmlns="http://www.w3.org/2000/svg" xmlns:xlink="http://www.w3.org/1999/xlink">
<g id="graph1" class="graph" transform="scale(1 1) rotate(0) translate(4 136)">
<title>EdgeKinetics</title>
<polygon fill="white" stroke="white" points="-4,5 -4,-136 95,-136 95,5 -4,5"/>
<!-- Node1 -->
<g id="node1" class="node"><title>Node1</title>
<polygon fill="#bfbfbf" stroke="black" points="7,-0.5 7,-19.5 83,-19.5 83,-0.5 7,-0.5"/>
<text text-anchor="middle" x="45" y="-7.5" font-family="FreeSans" font-size="10.00">EdgeKinetics</text>
</g>
<!-- Node2 -->
<g id="node2" class="node"><title>Node2</title>
<a xlink:href="classCantera_1_1InterfaceKinetics.html" target="_top" xlink:title="A kinetics manager for heterogeneous reaction mechanisms.">
<polygon fill="white" stroke="black" points="0,-56.5 0,-75.5 90,-75.5 90,-56.5 0,-56.5"/>
<text text-anchor="middle" x="45" y="-63.5" font-family="FreeSans" font-size="10.00">InterfaceKinetics</text>
</a>
</g>
<!-- Node2&#45;&gt;Node1 -->
<g id="edge2" class="edge"><title>Node2&#45;&gt;Node1</title>
<path fill="none" stroke="midnightblue" d="M45,-45.8045C45,-36.9102 45,-26.7798 45,-19.7511"/>
<polygon fill="midnightblue" stroke="midnightblue" points="41.5001,-46.083 45,-56.083 48.5001,-46.083 41.5001,-46.083"/>
</g>
<!-- Node3 -->
<g id="node4" class="node"><title>Node3</title>
<a xlink:href="classCantera_1_1Kinetics.html" target="_top" xlink:title="Public interface for kinetics managers.">
<polygon fill="white" stroke="black" points="19,-112.5 19,-131.5 71,-131.5 71,-112.5 19,-112.5"/>
<text text-anchor="middle" x="45" y="-119.5" font-family="FreeSans" font-size="10.00">Kinetics</text>
</a>
</g>
<!-- Node3&#45;&gt;Node2 -->
<g id="edge4" class="edge"><title>Node3&#45;&gt;Node2</title>
<path fill="none" stroke="midnightblue" d="M45,-101.805C45,-92.9102 45,-82.7798 45,-75.7511"/>
<polygon fill="midnightblue" stroke="midnightblue" points="41.5001,-102.083 45,-112.083 48.5001,-102.083 41.5001,-102.083"/>
</g>
</g>
</svg>
