<?xml version="1.0" encoding="UTF-8" standalone="no"?>
<!DOCTYPE svg PUBLIC "-//W3C//DTD SVG 1.1//EN"
 "http://www.w3.org/Graphics/SVG/1.1/DTD/svg11.dtd">
<!-- Generated by graphviz version 2.28.0 (20120425.2022)
 -->
<!-- Title: Integrator Pages: 1 -->
<svg width="137pt" height="84pt"
 viewBox="0.00 0.00 137.00 84.00" xmlns="http://www.w3.org/2000/svg" xmlns:xlink="http://www.w3.org/1999/xlink">
<g id="graph1" class="graph" transform="scale(1 1) rotate(0) translate(4 80)">
<title>Integrator</title>
<polygon fill="white" stroke="white" points="-4,5 -4,-80 134,-80 134,5 -4,5"/>
<!-- Node1 -->
<g id="node1" class="node"><title>Node1</title>
<polygon fill="#bfbfbf" stroke="black" points="34.5,-56.5 34.5,-75.5 93.5,-75.5 93.5,-56.5 34.5,-56.5"/>
<text text-anchor="middle" x="64" y="-63.5" font-family="FreeSans" font-size="10.00">Integrator</text>
</g>
<!-- Node2 -->
<g id="node3" class="node"><title>Node2</title>
<a xlink:href="classCantera_1_1BEulerInt.html" target="_top" xlink:title="Wrapper class for &#39;beuler&#39; integrator We derive the class from the class Integrator.">
<polygon fill="white" stroke="black" points="-0.5,-0.5 -0.5,-19.5 54.5,-19.5 54.5,-0.5 -0.5,-0.5"/>
<text text-anchor="middle" x="27" y="-7.5" font-family="FreeSans" font-size="10.00">BEulerInt</text>
</a>
</g>
<!-- Node1&#45;&gt;Node2 -->
<g id="edge2" class="edge"><title>Node1&#45;&gt;Node2</title>
<path fill="none" stroke="midnightblue" d="M52.0542,-47.5656C45.6883,-38.2747 38.1332,-27.2484 32.9961,-19.7511"/>
<polygon fill="midnightblue" stroke="midnightblue" points="49.3506,-49.812 57.8902,-56.083 55.1251,-45.8553 49.3506,-49.812"/>
</g>
<!-- Node3 -->
<g id="node5" class="node"><title>Node3</title>
<a xlink:href="classCantera_1_1CVodeInt.html" target="_top" xlink:title="Wrapper class for &#39;cvode&#39; integrator from LLNL.">
<polygon fill="white" stroke="black" points="72.5,-0.5 72.5,-19.5 129.5,-19.5 129.5,-0.5 72.5,-0.5"/>
<text text-anchor="middle" x="101" y="-7.5" font-family="FreeSans" font-size="10.00">CVodeInt</text>
</a>
</g>
<!-- Node1&#45;&gt;Node3 -->
<g id="edge4" class="edge"><title>Node1&#45;&gt;Node3</title>
<path fill="none" stroke="midnightblue" d="M75.9458,-47.5656C82.3117,-38.2747 89.8668,-27.2484 95.0039,-19.7511"/>
<polygon fill="midnightblue" stroke="midnightblue" points="72.8749,-45.8553 70.1098,-56.083 78.6494,-49.812 72.8749,-45.8553"/>
</g>
</g>
</svg>
