<?xml version="1.0" encoding="UTF-8" standalone="no"?>
<!DOCTYPE svg PUBLIC "-//W3C//DTD SVG 1.1//EN"
 "http://www.w3.org/Graphics/SVG/1.1/DTD/svg11.dtd">
<!-- Generated by graphviz version 2.28.0 (20120425.2022)
 -->
<!-- Title: SemiconductorPhase Pages: 1 -->
<svg width="120pt" height="140pt"
 viewBox="0.00 0.00 120.00 140.00" xmlns="http://www.w3.org/2000/svg" xmlns:xlink="http://www.w3.org/1999/xlink">
<g id="graph1" class="graph" transform="scale(1 1) rotate(0) translate(4 136)">
<title>SemiconductorPhase</title>
<polygon fill="white" stroke="white" points="-4,5 -4,-136 117,-136 117,5 -4,5"/>
<!-- Node1 -->
<g id="node1" class="node"><title>Node1</title>
<polygon fill="#bfbfbf" stroke="black" points="-0.5,-0.5 -0.5,-19.5 112.5,-19.5 112.5,-0.5 -0.5,-0.5"/>
<text text-anchor="middle" x="56" y="-7.5" font-family="FreeSans" font-size="10.00">SemiconductorPhase</text>
</g>
<!-- Node2 -->
<g id="node2" class="node"><title>Node2</title>
<a xlink:href="classCantera_1_1ThermoPhase.html" target="_top" xlink:title="Base class for a phase with thermodynamic properties.">
<polygon fill="white" stroke="black" points="15,-56.5 15,-75.5 97,-75.5 97,-56.5 15,-56.5"/>
<text text-anchor="middle" x="56" y="-63.5" font-family="FreeSans" font-size="10.00">ThermoPhase</text>
</a>
</g>
<!-- Node2&#45;&gt;Node1 -->
<g id="edge2" class="edge"><title>Node2&#45;&gt;Node1</title>
<path fill="none" stroke="midnightblue" d="M56,-45.8045C56,-36.9102 56,-26.7798 56,-19.7511"/>
<polygon fill="midnightblue" stroke="midnightblue" points="52.5001,-46.083 56,-56.083 59.5001,-46.083 52.5001,-46.083"/>
</g>
<!-- Node3 -->
<g id="node4" class="node"><title>Node3</title>
<a xlink:href="classCantera_1_1Phase.html" target="_top" xlink:title="Base class for phases of matter.">
<polygon fill="white" stroke="black" points="33,-112.5 33,-131.5 79,-131.5 79,-112.5 33,-112.5"/>
<text text-anchor="middle" x="56" y="-119.5" font-family="FreeSans" font-size="10.00">Phase</text>
</a>
</g>
<!-- Node3&#45;&gt;Node2 -->
<g id="edge4" class="edge"><title>Node3&#45;&gt;Node2</title>
<path fill="none" stroke="midnightblue" d="M56,-101.805C56,-92.9102 56,-82.7798 56,-75.7511"/>
<polygon fill="midnightblue" stroke="midnightblue" points="52.5001,-102.083 56,-112.083 59.5001,-102.083 52.5001,-102.083"/>
</g>
</g>
</svg>
