<?xml version="1.0" encoding="UTF-8" standalone="no"?>
<!DOCTYPE svg PUBLIC "-//W3C//DTD SVG 1.1//EN"
 "http://www.w3.org/Graphics/SVG/1.1/DTD/svg11.dtd">
<!-- Generated by graphviz version 2.28.0 (20120425.2022)
 -->
<!-- Title: NasaPoly2 Pages: 1 -->
<svg width="148pt" height="164pt"
 viewBox="0.00 0.00 148.00 164.00" xmlns="http://www.w3.org/2000/svg" xmlns:xlink="http://www.w3.org/1999/xlink">
<g id="graph1" class="graph" transform="scale(1 1) rotate(0) translate(4 160)">
<title>NasaPoly2</title>
<polygon fill="white" stroke="white" points="-4,5 -4,-160 145,-160 145,5 -4,5"/>
<!-- Node1 -->
<g id="node1" class="node"><title>Node1</title>
<polygon fill="#bfbfbf" stroke="black" points="30.5,-0.5 30.5,-19.5 95.5,-19.5 95.5,-0.5 30.5,-0.5"/>
<text text-anchor="middle" x="63" y="-7.5" font-family="FreeSans" font-size="10.00">NasaPoly2</text>
</g>
<!-- Node2 -->
<g id="node2" class="node"><title>Node2</title>
<a xlink:href="classCantera_1_1SpeciesThermoInterpType.html" target="_top" xlink:title="Pure Virtual Base class for the thermodynamic manager for an individual species&#39; reference state...">
<polygon fill="white" stroke="black" points="-0.5,-136.5 -0.5,-155.5 136.5,-155.5 136.5,-136.5 -0.5,-136.5"/>
<text text-anchor="middle" x="68" y="-143.5" font-family="FreeSans" font-size="10.00">SpeciesThermoInterpType</text>
</a>
</g>
<!-- Node2&#45;&gt;Node1 -->
<g id="edge2" class="edge"><title>Node2&#45;&gt;Node1</title>
<path fill="none" stroke="midnightblue" d="M67.1677,-126.255C66.7944,-117.647 66.3584,-107.306 66,-98 64.8948,-69.3063 63.7776,-35.2815 63.275,-19.6447"/>
<polygon fill="midnightblue" stroke="midnightblue" points="63.675,-126.502 67.6105,-136.338 70.6683,-126.194 63.675,-126.502"/>
</g>
<!-- Node3 -->
<g id="node4" class="node"><title>Node3</title>
<a xlink:href="classCantera_1_1NasaPoly1.html" target="_top" xlink:title="The NASA polynomial parameterization for one temperature range.">
<polygon fill="white" stroke="black" points="75.5,-78.5 75.5,-97.5 140.5,-97.5 140.5,-78.5 75.5,-78.5"/>
<text text-anchor="middle" x="108" y="-85.5" font-family="FreeSans" font-size="10.00">NasaPoly1</text>
</a>
</g>
<!-- Node2&#45;&gt;Node3 -->
<g id="edge6" class="edge"><title>Node2&#45;&gt;Node3</title>
<path fill="none" stroke="midnightblue" d="M80.2697,-127.822C87.4489,-117.772 96.1986,-105.522 101.925,-97.5052"/>
<polygon fill="midnightblue" stroke="midnightblue" points="77.2143,-126.078 74.25,-136.25 82.9105,-130.147 77.2143,-126.078"/>
</g>
<!-- Node3&#45;&gt;Node1 -->
<g id="edge4" class="edge"><title>Node3&#45;&gt;Node1</title>
<path fill="none" stroke="#9a32cd" stroke-dasharray="5,2" d="M97.6769,-69.5654C88.4301,-53.9486 75.2567,-31.7002 68.1019,-19.6165"/>
<polygon fill="#9a32cd" stroke="#9a32cd" points="94.7313,-71.4603 102.838,-78.2818 100.755,-67.8938 94.7313,-71.4603"/>
<text text-anchor="middle" x="112.5" y="-52" font-family="FreeSans" font-size="10.00"> mnp_low</text>
<text text-anchor="middle" x="112.5" y="-41" font-family="FreeSans" font-size="10.00">mnp_high</text>
</g>
</g>
</svg>
