<?xml version="1.0" encoding="UTF-8" standalone="no"?>
<!DOCTYPE svg PUBLIC "-//W3C//DTD SVG 1.1//EN"
 "http://www.w3.org/Graphics/SVG/1.1/DTD/svg11.dtd">
<!-- Generated by graphviz version 2.28.0 (20120425.2022)
 -->
<!-- Title: MultiPhaseEquil Pages: 1 -->
<svg width="137pt" height="224pt"
 viewBox="0.00 0.00 137.00 224.00" xmlns="http://www.w3.org/2000/svg" xmlns:xlink="http://www.w3.org/1999/xlink">
<g id="graph1" class="graph" transform="scale(1 1) rotate(0) translate(4 220)">
<title>MultiPhaseEquil</title>
<polygon fill="white" stroke="white" points="-4,5 -4,-220 134,-220 134,5 -4,5"/>
<!-- Node1 -->
<g id="node1" class="node"><title>Node1</title>
<polygon fill="#bfbfbf" stroke="black" points="4,-0.5 4,-19.5 92,-19.5 92,-0.5 4,-0.5"/>
<text text-anchor="middle" x="48" y="-7.5" font-family="FreeSans" font-size="10.00">MultiPhaseEquil</text>
</g>
<!-- Node2 -->
<g id="node2" class="node"><title>Node2</title>
<a xlink:href="classCantera_1_1MultiPhase.html" target="_top" xlink:title="A class for multiphase mixtures.">
<polygon fill="white" stroke="black" points="63,-69.5 63,-88.5 129,-88.5 129,-69.5 63,-69.5"/>
<text text-anchor="middle" x="96" y="-76.5" font-family="FreeSans" font-size="10.00">MultiPhase</text>
</a>
</g>
<!-- Node2&#45;&gt;Node1 -->
<g id="edge2" class="edge"><title>Node2&#45;&gt;Node1</title>
<path fill="none" stroke="#9a32cd" stroke-dasharray="5,2" d="M83.7898,-60.9567C74.3119,-47.727 61.57,-29.9415 54.1249,-19.5494"/>
<polygon fill="#9a32cd" stroke="#9a32cd" points="81.0557,-63.1501 89.7248,-69.2409 86.7461,-59.0734 81.0557,-63.1501"/>
<text text-anchor="middle" x="90.5" y="-41.5" font-family="FreeSans" font-size="10.00"> m_mix</text>
</g>
<!-- Node3 -->
<g id="node4" class="node"><title>Node3</title>
<a xlink:href="classCantera_1_1DenseMatrix.html" target="_top" xlink:title="A class for full (non&#45;sparse) matrices with Fortran&#45;compatible data storage, which adds matrix operat...">
<polygon fill="white" stroke="black" points="0,-138.5 0,-157.5 74,-157.5 74,-138.5 0,-138.5"/>
<text text-anchor="middle" x="37" y="-145.5" font-family="FreeSans" font-size="10.00">DenseMatrix</text>
</a>
</g>
<!-- Node3&#45;&gt;Node1 -->
<g id="edge8" class="edge"><title>Node3&#45;&gt;Node1</title>
<path fill="none" stroke="#9a32cd" stroke-dasharray="5,2" d="M32.7556,-127.977C29.7848,-111.923 26.8604,-88.3678 30,-68 32.7192,-50.359 39.91,-30.6924 44.3361,-19.6855"/>
<polygon fill="#9a32cd" stroke="#9a32cd" points="29.4106,-129.09 34.841,-138.188 36.2691,-127.69 29.4106,-129.09"/>
<text text-anchor="middle" x="42" y="-82" font-family="FreeSans" font-size="10.00"> m_N</text>
<text text-anchor="middle" x="42" y="-71" font-family="FreeSans" font-size="10.00">m_A</text>
</g>
<!-- Node3&#45;&gt;Node2 -->
<g id="edge4" class="edge"><title>Node3&#45;&gt;Node2</title>
<path fill="none" stroke="#9a32cd" stroke-dasharray="5,2" d="M51.3407,-130.715C63.0535,-117.414 79.1442,-99.1413 88.4714,-88.5494"/>
<polygon fill="#9a32cd" stroke="#9a32cd" points="48.6953,-128.423 44.7132,-138.241 53.9488,-133.049 48.6953,-128.423"/>
<text text-anchor="middle" x="92.5" y="-111.5" font-family="FreeSans" font-size="10.00"> m_atoms</text>
</g>
<!-- Node4 -->
<g id="node6" class="node"><title>Node4</title>
<a xlink:href="classCantera_1_1Array2D.html" target="_top" xlink:title="A class for 2D arrays stored in column&#45;major (Fortran&#45;compatible) form.">
<polygon fill="white" stroke="black" points="10.5,-196.5 10.5,-215.5 63.5,-215.5 63.5,-196.5 10.5,-196.5"/>
<text text-anchor="middle" x="37" y="-203.5" font-family="FreeSans" font-size="10.00">Array2D</text>
</a>
</g>
<!-- Node4&#45;&gt;Node3 -->
<g id="edge6" class="edge"><title>Node4&#45;&gt;Node3</title>
<path fill="none" stroke="midnightblue" d="M37,-185.953C37,-176.287 37,-165.031 37,-157.505"/>
<polygon fill="midnightblue" stroke="midnightblue" points="33.5001,-186.25 37,-196.25 40.5001,-186.25 33.5001,-186.25"/>
</g>
</g>
</svg>
