<?xml version="1.0" encoding="UTF-8" standalone="no"?>
<!DOCTYPE svg PUBLIC "-//W3C//DTD SVG 1.1//EN"
 "http://www.w3.org/Graphics/SVG/1.1/DTD/svg11.dtd">
<!-- Generated by graphviz version 2.28.0 (20120425.2022)
 -->
<!-- Title: InterfaceKinetics Pages: 1 -->
<svg width="157pt" height="140pt"
 viewBox="0.00 0.00 157.00 140.00" xmlns="http://www.w3.org/2000/svg" xmlns:xlink="http://www.w3.org/1999/xlink">
<g id="graph1" class="graph" transform="scale(1 1) rotate(0) translate(4 136)">
<title>InterfaceKinetics</title>
<polygon fill="white" stroke="white" points="-4,5 -4,-136 154,-136 154,5 -4,5"/>
<!-- Node1 -->
<g id="node1" class="node"><title>Node1</title>
<polygon fill="#bfbfbf" stroke="black" points="35,-56.5 35,-75.5 125,-75.5 125,-56.5 35,-56.5"/>
<text text-anchor="middle" x="80" y="-63.5" font-family="FreeSans" font-size="10.00">InterfaceKinetics</text>
</g>
<!-- Node3 -->
<g id="node5" class="node"><title>Node3</title>
<a xlink:href="classCantera_1_1EdgeKinetics.html" target="_top" xlink:title="Heterogeneous reactions at one&#45;dimensional interfaces between multiple adjacent two&#45;dimensional surfa...">
<polygon fill="white" stroke="black" points="0,-0.5 0,-19.5 76,-19.5 76,-0.5 0,-0.5"/>
<text text-anchor="middle" x="38" y="-7.5" font-family="FreeSans" font-size="10.00">EdgeKinetics</text>
</a>
</g>
<!-- Node1&#45;&gt;Node3 -->
<g id="edge4" class="edge"><title>Node1&#45;&gt;Node3</title>
<path fill="none" stroke="midnightblue" d="M66.8898,-48.144C59.5722,-38.7357 50.7591,-27.4046 44.8064,-19.7511"/>
<polygon fill="midnightblue" stroke="midnightblue" points="64.1624,-50.3383 73.0646,-56.083 69.6878,-46.0406 64.1624,-50.3383"/>
</g>
<!-- Node4 -->
<g id="node7" class="node"><title>Node4</title>
<a xlink:href="classCantera_1_1Interface.html" target="_top" xlink:title="An interface between multiple bulk phases.">
<polygon fill="white" stroke="black" points="94.5,-0.5 94.5,-19.5 149.5,-19.5 149.5,-0.5 94.5,-0.5"/>
<text text-anchor="middle" x="122" y="-7.5" font-family="FreeSans" font-size="10.00">Interface</text>
</a>
</g>
<!-- Node1&#45;&gt;Node4 -->
<g id="edge6" class="edge"><title>Node1&#45;&gt;Node4</title>
<path fill="none" stroke="midnightblue" d="M93.1102,-48.144C100.428,-38.7357 109.241,-27.4046 115.194,-19.7511"/>
<polygon fill="midnightblue" stroke="midnightblue" points="90.3122,-46.0406 86.9354,-56.083 95.8376,-50.3383 90.3122,-46.0406"/>
</g>
<!-- Node2 -->
<g id="node2" class="node"><title>Node2</title>
<a xlink:href="classCantera_1_1Kinetics.html" target="_top" xlink:title="Public interface for kinetics managers.">
<polygon fill="white" stroke="black" points="54,-112.5 54,-131.5 106,-131.5 106,-112.5 54,-112.5"/>
<text text-anchor="middle" x="80" y="-119.5" font-family="FreeSans" font-size="10.00">Kinetics</text>
</a>
</g>
<!-- Node2&#45;&gt;Node1 -->
<g id="edge2" class="edge"><title>Node2&#45;&gt;Node1</title>
<path fill="none" stroke="midnightblue" d="M80,-101.805C80,-92.9102 80,-82.7798 80,-75.7511"/>
<polygon fill="midnightblue" stroke="midnightblue" points="76.5001,-102.083 80,-112.083 83.5001,-102.083 76.5001,-102.083"/>
</g>
</g>
</svg>
