<?xml version="1.0" encoding="UTF-8" standalone="no"?>
<!DOCTYPE svg PUBLIC "-//W3C//DTD SVG 1.1//EN"
 "http://www.w3.org/Graphics/SVG/1.1/DTD/svg11.dtd">
<!-- Generated by graphviz version 2.28.0 (20120425.2022)
 -->
<!-- Title: ctexceptions.h Pages: 1 -->
<svg width="3645pt" height="196pt"
 viewBox="0.00 0.00 3644.53 196.00" xmlns="http://www.w3.org/2000/svg" xmlns:xlink="http://www.w3.org/1999/xlink">
<g id="graph1" class="graph" transform="scale(1 1) rotate(0) translate(4 192)">
<title>ctexceptions.h</title>
<polygon fill="white" stroke="white" points="-4,5 -4,-192 3641.53,-192 3641.53,5 -4,5"/>
<!-- Node1 -->
<g id="node1" class="node"><title>Node1</title>
<polygon fill="#bfbfbf" stroke="black" points="1384.53,-168.5 1384.53,-187.5 1464.53,-187.5 1464.53,-168.5 1384.53,-168.5"/>
<text text-anchor="middle" x="1424.53" y="-175.5" font-family="FreeSans" font-size="10.00">ctexceptions.h</text>
</g>
<!-- Node2 -->
<g id="node3" class="node"><title>Node2</title>
<a xlink:href="application_8cpp_source.html" target="_top" xlink:title="application.cpp">
<polygon fill="white" stroke="black" points="23.0288,-0.5 23.0288,-19.5 106.029,-19.5 106.029,-0.5 23.0288,-0.5"/>
<text text-anchor="middle" x="64.5288" y="-7.5" font-family="FreeSans" font-size="10.00">application.cpp</text>
</a>
</g>
<!-- Node1&#45;&gt;Node2 -->
<g id="edge2" class="edge"><title>Node1&#45;&gt;Node2</title>
<path fill="none" stroke="midnightblue" d="M1374.44,-177.335C1128.54,-178.738 58.9109,-181.946 10.5288,-132 -22.1223,-98.2932 31.5548,-41.4704 54.7084,-19.7769"/>
<polygon fill="midnightblue" stroke="midnightblue" points="1374.55,-180.834 1384.52,-177.276 1374.5,-173.835 1374.55,-180.834"/>
</g>
<!-- Node3 -->
<g id="node5" class="node"><title>Node3</title>
<a xlink:href="units_8h.html" target="_top" xlink:title="Header for units conversion utilities, which are used to translate user input from input files (See I...">
<polygon fill="white" stroke="black" points="19.5288,-112.5 19.5288,-131.5 63.5288,-131.5 63.5288,-112.5 19.5288,-112.5"/>
<text text-anchor="middle" x="41.5288" y="-119.5" font-family="FreeSans" font-size="10.00">units.h</text>
</a>
</g>
<!-- Node1&#45;&gt;Node3 -->
<g id="edge4" class="edge"><title>Node1&#45;&gt;Node3</title>
<path fill="none" stroke="midnightblue" d="M1374.24,-176.743C1161.57,-175.437 335.17,-168.094 77.5288,-132 73.0628,-131.374 68.3475,-130.418 63.8531,-129.358"/>
<polygon fill="midnightblue" stroke="midnightblue" points="1374.46,-180.244 1384.48,-176.804 1374.5,-173.244 1374.46,-180.244"/>
</g>
<!-- Node4 -->
<g id="node8" class="node"><title>Node4</title>
<a xlink:href="global_8cpp_source.html" target="_top" xlink:title="global.cpp">
<polygon fill="white" stroke="black" points="39.5288,-56.5 39.5288,-75.5 101.529,-75.5 101.529,-56.5 39.5288,-56.5"/>
<text text-anchor="middle" x="70.5288" y="-63.5" font-family="FreeSans" font-size="10.00">global.cpp</text>
</a>
</g>
<!-- Node1&#45;&gt;Node4 -->
<g id="edge14" class="edge"><title>Node1&#45;&gt;Node4</title>
<path fill="none" stroke="midnightblue" d="M1374.19,-176.53C1140.65,-174.189 171.67,-162.656 115.529,-132 92.8819,-119.634 79.2289,-90.3754 73.5736,-75.7045"/>
<polygon fill="midnightblue" stroke="midnightblue" points="1374.4,-180.032 1384.43,-176.631 1374.47,-173.032 1374.4,-180.032"/>
</g>
<!-- Node5 -->
<g id="node10" class="node"><title>Node5</title>
<a xlink:href="ct2ctml_8cpp.html" target="_top" xlink:title="Driver for the system call to the python executable that converts cti files to ctml files (see Input ...">
<polygon fill="white" stroke="black" points="468.029,-0.5 468.029,-19.5 533.029,-19.5 533.029,-0.5 468.029,-0.5"/>
<text text-anchor="middle" x="500.529" y="-7.5" font-family="FreeSans" font-size="10.00">ct2ctml.cpp</text>
</a>
</g>
<!-- Node1&#45;&gt;Node5 -->
<g id="edge10" class="edge"><title>Node1&#45;&gt;Node5</title>
<path fill="none" stroke="midnightblue" d="M1373.85,-177.296C1228.55,-177.615 812.758,-174.668 684.529,-132 609.072,-106.892 534.764,-42.7057 509.551,-19.5184"/>
<polygon fill="midnightblue" stroke="midnightblue" points="1374.25,-180.795 1384.24,-177.267 1374.23,-173.795 1374.25,-180.795"/>
</g>
<!-- Node6 -->
<g id="node12" class="node"><title>Node6</title>
<a xlink:href="ctexceptions_8cpp_source.html" target="_top" xlink:title="ctexceptions.cpp">
<polygon fill="white" stroke="black" points="892.029,-112.5 892.029,-131.5 983.029,-131.5 983.029,-112.5 892.029,-112.5"/>
<text text-anchor="middle" x="937.529" y="-119.5" font-family="FreeSans" font-size="10.00">ctexceptions.cpp</text>
</a>
</g>
<!-- Node1&#45;&gt;Node6 -->
<g id="edge12" class="edge"><title>Node1&#45;&gt;Node6</title>
<path fill="none" stroke="midnightblue" d="M1374.16,-172.414C1294.21,-164.972 1133.4,-149.341 997.529,-132 992.827,-131.4 987.924,-130.733 983.036,-130.04"/>
<polygon fill="midnightblue" stroke="midnightblue" points="1374.15,-175.928 1384.43,-173.366 1374.8,-168.958 1374.15,-175.928"/>
</g>
<!-- Node7 -->
<g id="node15" class="node"><title>Node7</title>
<a xlink:href="stringUtils_8cpp.html" target="_top" xlink:title="Contains definitions for string manipulation functions within Cantera.">
<polygon fill="white" stroke="black" points="553.029,-0.5 553.029,-19.5 630.029,-19.5 630.029,-0.5 553.029,-0.5"/>
<text text-anchor="middle" x="591.529" y="-7.5" font-family="FreeSans" font-size="10.00">stringUtils.cpp</text>
</a>
</g>
<!-- Node1&#45;&gt;Node7 -->
<g id="edge16" class="edge"><title>Node1&#45;&gt;Node7</title>
<path fill="none" stroke="midnightblue" d="M1373.97,-176.853C1235.56,-175.954 852.845,-170.002 733.529,-132 688.279,-117.588 677.961,-107.619 642.529,-76 623.051,-58.6187 605.491,-33.0983 596.967,-19.7967"/>
<polygon fill="midnightblue" stroke="midnightblue" points="1374.26,-180.355 1384.28,-176.914 1374.3,-173.355 1374.26,-180.355"/>
</g>
<!-- Node8 -->
<g id="node17" class="node"><title>Node8</title>
<a xlink:href="ChemEquil_8cpp.html" target="_top" xlink:title="Chemical equilibrium.">
<polygon fill="white" stroke="black" points="1300.03,-56.5 1300.03,-75.5 1383.03,-75.5 1383.03,-56.5 1300.03,-56.5"/>
<text text-anchor="middle" x="1341.53" y="-63.5" font-family="FreeSans" font-size="10.00">ChemEquil.cpp</text>
</a>
</g>
<!-- Node1&#45;&gt;Node8 -->
<g id="edge18" class="edge"><title>Node1&#45;&gt;Node8</title>
<path fill="none" stroke="midnightblue" d="M1373.92,-174.913C1272.69,-170.218 1053.02,-157.21 1030.53,-132 1002.39,-100.469 1010.16,-120.133 1290.53,-76 1293.55,-75.5247 1296.67,-75.0168 1299.8,-74.4935"/>
<polygon fill="midnightblue" stroke="midnightblue" points="1374.06,-178.423 1384.2,-175.38 1374.37,-171.43 1374.06,-178.423"/>
</g>
<!-- Node9 -->
<g id="node19" class="node"><title>Node9</title>
<a xlink:href="FalloffFactory_8cpp.html" target="_top" xlink:title="FalloffFactory.cpp">
<polygon fill="white" stroke="black" points="1131.03,-112.5 1131.03,-131.5 1226.03,-131.5 1226.03,-112.5 1131.03,-112.5"/>
<text text-anchor="middle" x="1178.53" y="-119.5" font-family="FreeSans" font-size="10.00">FalloffFactory.cpp</text>
</a>
</g>
<!-- Node1&#45;&gt;Node9 -->
<g id="edge20" class="edge"><title>Node1&#45;&gt;Node9</title>
<path fill="none" stroke="midnightblue" d="M1375.7,-166.281C1329.21,-156.077 1260.17,-140.92 1217.33,-131.516"/>
<polygon fill="midnightblue" stroke="midnightblue" points="1375.03,-169.718 1385.55,-168.444 1376.53,-162.881 1375.03,-169.718"/>
</g>
<!-- Node10 -->
<g id="node21" class="node"><title>Node10</title>
<a xlink:href="ReactionStoichMgr_8cpp.html" target="_top" xlink:title="ReactionStoichMgr.cpp">
<polygon fill="white" stroke="black" points="1244.03,-112.5 1244.03,-131.5 1363.03,-131.5 1363.03,-112.5 1244.03,-112.5"/>
<text text-anchor="middle" x="1303.53" y="-119.5" font-family="FreeSans" font-size="10.00">ReactionStoichMgr.cpp</text>
</a>
</g>
<!-- Node1&#45;&gt;Node10 -->
<g id="edge22" class="edge"><title>Node1&#45;&gt;Node10</title>
<path fill="none" stroke="midnightblue" d="M1396.22,-164.368C1373.56,-154.255 1342.4,-140.349 1322.61,-131.516"/>
<polygon fill="midnightblue" stroke="midnightblue" points="1394.8,-167.564 1405.36,-168.444 1397.65,-161.172 1394.8,-167.564"/>
</g>
<!-- Node11 -->
<g id="node23" class="node"><title>Node11</title>
<a xlink:href="BandMatrix_8cpp.html" target="_top" xlink:title="Banded matrices.">
<polygon fill="white" stroke="black" points="1401.53,-56.5 1401.53,-75.5 1487.53,-75.5 1487.53,-56.5 1401.53,-56.5"/>
<text text-anchor="middle" x="1444.53" y="-63.5" font-family="FreeSans" font-size="10.00">BandMatrix.cpp</text>
</a>
</g>
<!-- Node1&#45;&gt;Node11 -->
<g id="edge24" class="edge"><title>Node1&#45;&gt;Node11</title>
<path fill="none" stroke="midnightblue" d="M1415.58,-159.065C1410.2,-145.849 1405.32,-127.545 1410.53,-112 1415.38,-97.5174 1426.95,-83.9752 1435.24,-75.6053"/>
<polygon fill="midnightblue" stroke="midnightblue" points="1412.5,-160.758 1419.81,-168.424 1418.88,-157.871 1412.5,-160.758"/>
</g>
<!-- Node12 -->
<g id="node25" class="node"><title>Node12</title>
<a xlink:href="CVodeInt_8h.html" target="_top" xlink:title="CVodeInt.h">
<polygon fill="white" stroke="black" points="1513.03,-112.5 1513.03,-131.5 1578.03,-131.5 1578.03,-112.5 1513.03,-112.5"/>
<text text-anchor="middle" x="1545.53" y="-119.5" font-family="FreeSans" font-size="10.00">CVodeInt.h</text>
</a>
</g>
<!-- Node1&#45;&gt;Node12 -->
<g id="edge26" class="edge"><title>Node1&#45;&gt;Node12</title>
<path fill="none" stroke="midnightblue" d="M1452.83,-164.368C1475.49,-154.255 1506.66,-140.349 1526.45,-131.516"/>
<polygon fill="midnightblue" stroke="midnightblue" points="1451.41,-161.172 1443.7,-168.444 1454.26,-167.564 1451.41,-161.172"/>
</g>
<!-- Node15 -->
<g id="node31" class="node"><title>Node15</title>
<a xlink:href="funcs_8cpp.html" target="_top" xlink:title="file containing miscellaneous numerical functions.">
<polygon fill="white" stroke="black" points="1596.53,-112.5 1596.53,-131.5 1654.53,-131.5 1654.53,-112.5 1596.53,-112.5"/>
<text text-anchor="middle" x="1625.53" y="-119.5" font-family="FreeSans" font-size="10.00">funcs.cpp</text>
</a>
</g>
<!-- Node1&#45;&gt;Node15 -->
<g id="edge32" class="edge"><title>Node1&#45;&gt;Node15</title>
<path fill="none" stroke="midnightblue" d="M1466.35,-165.765C1505.27,-155.309 1562.25,-139.999 1596.44,-130.815"/>
<polygon fill="midnightblue" stroke="midnightblue" points="1465.13,-162.469 1456.38,-168.444 1466.94,-169.229 1465.13,-162.469"/>
</g>
<!-- Node16 -->
<g id="node33" class="node"><title>Node16</title>
<a xlink:href="MultiNewton_8cpp.html" target="_top" xlink:title="Damped Newton solver for 1D multi&#45;domain problems.">
<polygon fill="white" stroke="black" points="1672.03,-112.5 1672.03,-131.5 1761.03,-131.5 1761.03,-112.5 1672.03,-112.5"/>
<text text-anchor="middle" x="1716.53" y="-119.5" font-family="FreeSans" font-size="10.00">MultiNewton.cpp</text>
</a>
</g>
<!-- Node1&#45;&gt;Node16 -->
<g id="edge34" class="edge"><title>Node1&#45;&gt;Node16</title>
<path fill="none" stroke="midnightblue" d="M1474.78,-167.706C1530.26,-157.447 1618.74,-141.085 1671.87,-131.259"/>
<polygon fill="midnightblue" stroke="midnightblue" points="1474.02,-164.288 1464.82,-169.548 1475.29,-171.171 1474.02,-164.288"/>
</g>
<!-- Node17 -->
<g id="node35" class="node"><title>Node17</title>
<a xlink:href="Elements_8cpp.html" target="_top" xlink:title="This file contains a database of atomic weights.">
<polygon fill="white" stroke="black" points="177.529,-0.5 177.529,-19.5 253.529,-19.5 253.529,-0.5 177.529,-0.5"/>
<text text-anchor="middle" x="215.529" y="-7.5" font-family="FreeSans" font-size="10.00">Elements.cpp</text>
</a>
</g>
<!-- Node1&#45;&gt;Node17 -->
<g id="edge36" class="edge"><title>Node1&#45;&gt;Node17</title>
<path fill="none" stroke="midnightblue" d="M1374.12,-176.313C1160.41,-173.231 337.896,-159.613 290.529,-132 246.33,-106.234 224.572,-43.0239 217.862,-19.7701"/>
<polygon fill="midnightblue" stroke="midnightblue" points="1374.37,-179.816 1384.42,-176.46 1374.47,-172.817 1374.37,-179.816"/>
</g>
<!-- Node18 -->
<g id="node37" class="node"><title>Node18</title>
<a xlink:href="Mu0Poly_8cpp.html" target="_top" xlink:title="Definitions for a single&#45;species standard state object derived from SpeciesThermoInterpType based on ...">
<polygon fill="white" stroke="black" points="272.029,-0.5 272.029,-19.5 345.029,-19.5 345.029,-0.5 272.029,-0.5"/>
<text text-anchor="middle" x="308.529" y="-7.5" font-family="FreeSans" font-size="10.00">Mu0Poly.cpp</text>
</a>
</g>
<!-- Node1&#45;&gt;Node18 -->
<g id="edge38" class="edge"><title>Node1&#45;&gt;Node18</title>
<path fill="none" stroke="midnightblue" d="M1374.11,-176.578C1162.26,-174.601 353.091,-164.912 310.529,-132 283.147,-110.827 287.985,-90.1656 293.529,-56 295.639,-42.994 300.971,-28.6674 304.673,-19.7514"/>
<polygon fill="midnightblue" stroke="midnightblue" points="1374.29,-180.08 1384.32,-176.672 1374.36,-173.08 1374.29,-180.08"/>
</g>
<!-- Node19 -->
<g id="node39" class="node"><title>Node19</title>
<a xlink:href="Nasa9PolyMultiTempRegion_8cpp.html" target="_top" xlink:title="Definitions for a single&#45;species standard state object derived from SpeciesThermoInterpType based on ...">
<polygon fill="white" stroke="black" points="1779.53,-112.5 1779.53,-131.5 1941.53,-131.5 1941.53,-112.5 1779.53,-112.5"/>
<text text-anchor="middle" x="1860.53" y="-119.5" font-family="FreeSans" font-size="10.00">Nasa9PolyMultiTempRegion.cpp</text>
</a>
</g>
<!-- Node1&#45;&gt;Node19 -->
<g id="edge40" class="edge"><title>Node1&#45;&gt;Node19</title>
<path fill="none" stroke="midnightblue" d="M1474.83,-170.77C1552.93,-161.097 1703.52,-142.446 1791.65,-131.53"/>
<polygon fill="midnightblue" stroke="midnightblue" points="1474.26,-167.314 1464.77,-172.017 1475.12,-174.261 1474.26,-167.314"/>
</g>
<!-- Node20 -->
<g id="node41" class="node"><title>Node20</title>
<a xlink:href="Phase_8cpp.html" target="_top" xlink:title="Definition file for class Phase.">
<polygon fill="white" stroke="black" points="1959.53,-112.5 1959.53,-131.5 2023.53,-131.5 2023.53,-112.5 1959.53,-112.5"/>
<text text-anchor="middle" x="1991.53" y="-119.5" font-family="FreeSans" font-size="10.00">Phase.cpp</text>
</a>
</g>
<!-- Node1&#45;&gt;Node20 -->
<g id="edge42" class="edge"><title>Node1&#45;&gt;Node20</title>
<path fill="none" stroke="midnightblue" d="M1474.73,-174.893C1568.6,-170.469 1776.94,-158.362 1950.53,-132 1953.41,-131.562 1956.39,-131.042 1959.37,-130.475"/>
<polygon fill="midnightblue" stroke="midnightblue" points="1474.49,-171.4 1464.66,-175.359 1474.81,-178.393 1474.49,-171.4"/>
</g>
<!-- Node21 -->
<g id="node43" class="node"><title>Node21</title>
<a xlink:href="SpeciesThermoInterpType_8cpp.html" target="_top" xlink:title="Definitions for a.">
<polygon fill="white" stroke="black" points="2042.03,-112.5 2042.03,-131.5 2197.03,-131.5 2197.03,-112.5 2042.03,-112.5"/>
<text text-anchor="middle" x="2119.53" y="-119.5" font-family="FreeSans" font-size="10.00">SpeciesThermoInterpType.cpp</text>
</a>
</g>
<!-- Node1&#45;&gt;Node21 -->
<g id="edge44" class="edge"><title>Node1&#45;&gt;Node21</title>
<path fill="none" stroke="midnightblue" d="M1474.99,-173.766C1579.22,-166.974 1825.87,-150.333 2032.53,-132 2035.55,-131.732 2038.64,-131.45 2041.75,-131.16"/>
<polygon fill="midnightblue" stroke="midnightblue" points="1474.51,-170.289 1464.76,-174.43 1474.96,-177.275 1474.51,-170.289"/>
</g>
<!-- Node22 -->
<g id="node45" class="node"><title>Node22</title>
<a xlink:href="VPSSMgrFactory_8h.html" target="_top" xlink:title="Header for factory to build instances of classes that manage the standard&#45;state thermodynamic propert...">
<polygon fill="white" stroke="black" points="933.529,-56.5 933.529,-75.5 1035.53,-75.5 1035.53,-56.5 933.529,-56.5"/>
<text text-anchor="middle" x="984.529" y="-63.5" font-family="FreeSans" font-size="10.00">VPSSMgrFactory.h</text>
</a>
</g>
<!-- Node1&#45;&gt;Node22 -->
<g id="edge46" class="edge"><title>Node1&#45;&gt;Node22</title>
<path fill="none" stroke="midnightblue" d="M1373.85,-177.343C1228.63,-177.798 818.834,-175.21 778.529,-132 772.466,-125.5 772.954,-118.924 778.529,-112 788.271,-99.8994 875.668,-84.0606 933.453,-74.7614"/>
<polygon fill="midnightblue" stroke="midnightblue" points="1374.26,-180.841 1384.24,-177.303 1374.23,-173.841 1374.26,-180.841"/>
</g>
<!-- Node25 -->
<g id="node51" class="node"><title>Node25</title>
<a xlink:href="WaterPropsIAPWS_8cpp.html" target="_top" xlink:title="Definitions for a class for calculating the equation of state of water from the IAPWS 1995 Formulatio...">
<polygon fill="white" stroke="black" points="2215.03,-112.5 2215.03,-131.5 2332.03,-131.5 2332.03,-112.5 2215.03,-112.5"/>
<text text-anchor="middle" x="2273.53" y="-119.5" font-family="FreeSans" font-size="10.00">WaterPropsIAPWS.cpp</text>
</a>
</g>
<!-- Node1&#45;&gt;Node25 -->
<g id="edge52" class="edge"><title>Node1&#45;&gt;Node25</title>
<path fill="none" stroke="midnightblue" d="M1475.2,-175.38C1599.73,-171.118 1930.62,-158.077 2205.53,-132 2208.61,-131.708 2211.77,-131.382 2214.95,-131.032"/>
<polygon fill="midnightblue" stroke="midnightblue" points="1474.72,-171.895 1464.85,-175.731 1474.96,-178.891 1474.72,-171.895"/>
</g>
<!-- Node26 -->
<g id="node53" class="node"><title>Node26</title>
<a xlink:href="TortuosityBase_8cpp.html" target="_top" xlink:title="Base class to compute the increase in diffusive path length associated with tortuous path diffusion t...">
<polygon fill="white" stroke="black" points="2350.03,-112.5 2350.03,-131.5 2453.03,-131.5 2453.03,-112.5 2350.03,-112.5"/>
<text text-anchor="middle" x="2401.53" y="-119.5" font-family="FreeSans" font-size="10.00">TortuosityBase.cpp</text>
</a>
</g>
<!-- Node1&#45;&gt;Node26 -->
<g id="edge54" class="edge"><title>Node1&#45;&gt;Node26</title>
<path fill="none" stroke="midnightblue" d="M1475.12,-176.243C1613.79,-173.794 2011.58,-164.269 2340.53,-132 2343.62,-131.697 2346.79,-131.347 2349.99,-130.965"/>
<polygon fill="midnightblue" stroke="midnightblue" points="1474.75,-172.749 1464.81,-176.42 1474.87,-179.748 1474.75,-172.749"/>
</g>
<!-- Node27 -->
<g id="node55" class="node"><title>Node27</title>
<a xlink:href="TortuosityBruggeman_8cpp_source.html" target="_top" xlink:title="TortuosityBruggeman.cpp">
<polygon fill="white" stroke="black" points="2471.03,-112.5 2471.03,-131.5 2602.03,-131.5 2602.03,-112.5 2471.03,-112.5"/>
<text text-anchor="middle" x="2536.53" y="-119.5" font-family="FreeSans" font-size="10.00">TortuosityBruggeman.cpp</text>
</a>
</g>
<!-- Node1&#45;&gt;Node27 -->
<g id="edge56" class="edge"><title>Node1&#45;&gt;Node27</title>
<path fill="none" stroke="midnightblue" d="M1474.92,-176.171C1625.16,-173.408 2083.11,-162.871 2461.53,-132 2464.54,-131.755 2467.61,-131.481 2470.71,-131.186"/>
<polygon fill="midnightblue" stroke="midnightblue" points="1474.57,-172.677 1464.63,-176.357 1474.7,-179.676 1474.57,-172.677"/>
</g>
<!-- Node28 -->
<g id="node57" class="node"><title>Node28</title>
<a xlink:href="TortuosityMaxwell_8cpp_source.html" target="_top" xlink:title="TortuosityMaxwell.cpp">
<polygon fill="white" stroke="black" points="2620.53,-112.5 2620.53,-131.5 2736.53,-131.5 2736.53,-112.5 2620.53,-112.5"/>
<text text-anchor="middle" x="2678.53" y="-119.5" font-family="FreeSans" font-size="10.00">TortuosityMaxwell.cpp</text>
</a>
</g>
<!-- Node1&#45;&gt;Node28 -->
<g id="edge58" class="edge"><title>Node1&#45;&gt;Node28</title>
<path fill="none" stroke="midnightblue" d="M1474.79,-176.775C1638.56,-175.682 2171.56,-169.295 2610.53,-132 2613.73,-131.728 2617.02,-131.413 2620.33,-131.067"/>
<polygon fill="midnightblue" stroke="midnightblue" points="1474.52,-173.277 1464.54,-176.84 1474.56,-180.276 1474.52,-173.277"/>
</g>
<!-- Node29 -->
<g id="node59" class="node"><title>Node29</title>
<a xlink:href="TortuosityPercolation_8cpp.html" target="_top" xlink:title="Base class to compute the increase in diffusive path length associated with tortuous path diffusion t...">
<polygon fill="white" stroke="black" points="2755.03,-112.5 2755.03,-131.5 2884.03,-131.5 2884.03,-112.5 2755.03,-112.5"/>
<text text-anchor="middle" x="2819.53" y="-119.5" font-family="FreeSans" font-size="10.00">TortuosityPercolation.cpp</text>
</a>
</g>
<!-- Node1&#45;&gt;Node29 -->
<g id="edge60" class="edge"><title>Node1&#45;&gt;Node29</title>
<path fill="none" stroke="midnightblue" d="M1474.76,-176.83C1650,-175.909 2250.5,-169.993 2744.53,-132 2747.93,-131.739 2751.41,-131.437 2754.93,-131.107"/>
<polygon fill="midnightblue" stroke="midnightblue" points="1474.54,-173.331 1464.56,-176.881 1474.57,-180.331 1474.54,-173.331"/>
</g>
<!-- Node30 -->
<g id="node61" class="node"><title>Node30</title>
<a xlink:href="TransportBase_8cpp.html" target="_top" xlink:title="Mixture&#45;averaged transport properties for ideal gas mixtures.">
<polygon fill="white" stroke="black" points="2902.03,-112.5 2902.03,-131.5 3003.03,-131.5 3003.03,-112.5 2902.03,-112.5"/>
<text text-anchor="middle" x="2952.53" y="-119.5" font-family="FreeSans" font-size="10.00">TransportBase.cpp</text>
</a>
</g>
<!-- Node1&#45;&gt;Node30 -->
<g id="edge62" class="edge"><title>Node1&#45;&gt;Node30</title>
<path fill="none" stroke="midnightblue" d="M1474.81,-176.258C1698.93,-172.829 2608.33,-157.581 2892.53,-132 2895.57,-131.726 2898.69,-131.399 2901.84,-131.034"/>
<polygon fill="midnightblue" stroke="midnightblue" points="1474.6,-172.761 1464.66,-176.413 1474.71,-179.76 1474.6,-172.761"/>
</g>
<!-- Node31 -->
<g id="node63" class="node"><title>Node31</title>
<a xlink:href="Array_8h.html" target="_top" xlink:title="Header file for class Array2D.">
<polygon fill="white" stroke="red" points="787.529,-112.5 787.529,-131.5 835.529,-131.5 835.529,-112.5 787.529,-112.5"/>
<text text-anchor="middle" x="811.529" y="-119.5" font-family="FreeSans" font-size="10.00">Array.h</text>
</a>
</g>
<!-- Node1&#45;&gt;Node31 -->
<g id="edge64" class="edge"><title>Node1&#45;&gt;Node31</title>
<path fill="none" stroke="midnightblue" d="M1374.03,-175.667C1273.58,-172.439 1041.81,-162.11 849.529,-132 844.974,-131.287 840.158,-130.317 835.541,-129.278"/>
<polygon fill="midnightblue" stroke="midnightblue" points="1374.09,-179.17 1384.2,-175.983 1374.31,-172.174 1374.09,-179.17"/>
</g>
<!-- Node34 -->
<g id="node75" class="node"><title>Node34</title>
<a xlink:href="plots_8h.html" target="_top" xlink:title=" Contains declarations for utility functions for &#160;outputing to plotting programs.">
<polygon fill="white" stroke="red" points="1237.03,-56.5 1237.03,-75.5 1282.03,-75.5 1282.03,-56.5 1237.03,-56.5"/>
<text text-anchor="middle" x="1259.53" y="-63.5" font-family="FreeSans" font-size="10.00">plots.h</text>
</a>
</g>
<!-- Node1&#45;&gt;Node34 -->
<g id="edge106" class="edge"><title>Node1&#45;&gt;Node34</title>
<path fill="none" stroke="midnightblue" d="M1373.82,-176.609C1245.44,-175.094 915.415,-167.729 882.529,-132 876.509,-125.46 876.579,-118.604 882.529,-112 934.129,-54.7355 1151.82,-90.4874 1227.53,-76 1230.59,-75.4143 1233.78,-74.6752 1236.92,-73.8736"/>
<polygon fill="midnightblue" stroke="midnightblue" points="1374.12,-180.112 1384.16,-176.723 1374.2,-173.113 1374.12,-180.112"/>
</g>
<!-- Node36 -->
<g id="node80" class="node"><title>Node36</title>
<a xlink:href="xml_8h.html" target="_top" xlink:title="Classes providing support for XML data files.">
<polygon fill="white" stroke="red" points="319.529,-112.5 319.529,-131.5 359.529,-131.5 359.529,-112.5 319.529,-112.5"/>
<text text-anchor="middle" x="339.529" y="-119.5" font-family="FreeSans" font-size="10.00">xml.h</text>
</a>
</g>
<!-- Node1&#45;&gt;Node36 -->
<g id="edge88" class="edge"><title>Node1&#45;&gt;Node36</title>
<path fill="none" stroke="midnightblue" d="M1373.89,-176.909C1223.94,-176.184 769.218,-170.704 394.529,-132 382.883,-130.797 369.959,-128.721 359.567,-126.865"/>
<polygon fill="midnightblue" stroke="midnightblue" points="1374.14,-180.41 1384.16,-176.953 1374.17,-173.41 1374.14,-180.41"/>
</g>
<!-- Node37 -->
<g id="node88" class="node"><title>Node37</title>
<a xlink:href="Cantera_8h_source.html" target="_top" xlink:title="Cantera.h">
<polygon fill="white" stroke="black" points="309.529,-56.5 309.529,-75.5 369.529,-75.5 369.529,-56.5 309.529,-56.5"/>
<text text-anchor="middle" x="339.529" y="-63.5" font-family="FreeSans" font-size="10.00">Cantera.h</text>
</a>
</g>
<!-- Node1&#45;&gt;Node37 -->
<g id="edge108" class="edge"><title>Node1&#45;&gt;Node37</title>
<path fill="none" stroke="midnightblue" d="M1374.28,-177.031C1205,-176.755 656.609,-172.666 485.529,-132 434.511,-119.873 379.245,-90.2233 353.812,-75.5343"/>
<polygon fill="midnightblue" stroke="midnightblue" points="1374.4,-180.531 1384.41,-177.044 1374.41,-173.531 1374.4,-180.531"/>
</g>
<!-- Node38 -->
<g id="node90" class="node"><title>Node38</title>
<a xlink:href="Domain1D_8h.html" target="_top" xlink:title="Domain1D.h">
<polygon fill="white" stroke="red" points="387.529,-56.5 387.529,-75.5 459.529,-75.5 459.529,-56.5 387.529,-56.5"/>
<text text-anchor="middle" x="423.529" y="-63.5" font-family="FreeSans" font-size="10.00">Domain1D.h</text>
</a>
</g>
<!-- Node1&#45;&gt;Node38 -->
<g id="edge132" class="edge"><title>Node1&#45;&gt;Node38</title>
<path fill="none" stroke="midnightblue" d="M1374.22,-175.866C1197.86,-171.695 613.968,-156.187 533.529,-132 493.38,-119.928 452.557,-90.2522 433.939,-75.5457"/>
<polygon fill="midnightblue" stroke="midnightblue" points="1374.19,-179.366 1384.27,-176.101 1374.35,-172.368 1374.19,-179.366"/>
</g>
<!-- Node39 -->
<g id="node94" class="node"><title>Node39</title>
<a xlink:href="Kinetics_8h.html" target="_top" xlink:title="Base class for kinetics managers and also contains the kineticsmgr module documentation (see Kinetics...">
<polygon fill="white" stroke="red" points="3021.03,-112.5 3021.03,-131.5 3080.03,-131.5 3080.03,-112.5 3021.03,-112.5"/>
<text text-anchor="middle" x="3050.53" y="-119.5" font-family="FreeSans" font-size="10.00">Kinetics.h</text>
</a>
</g>
<!-- Node1&#45;&gt;Node39 -->
<g id="edge110" class="edge"><title>Node1&#45;&gt;Node39</title>
<path fill="none" stroke="midnightblue" d="M1475.05,-176.916C1710.76,-176.318 2703.91,-171.459 3011.53,-132 3014.56,-131.611 3017.7,-131.09 3020.83,-130.493"/>
<polygon fill="midnightblue" stroke="midnightblue" points="1474.71,-173.417 1464.72,-176.941 1474.73,-180.417 1474.71,-173.417"/>
</g>
<!-- Node40 -->
<g id="node96" class="node"><title>Node40</title>
<a xlink:href="RxnRates_8h.html" target="_top" xlink:title="RxnRates.h">
<polygon fill="white" stroke="black" points="3136.53,-112.5 3136.53,-131.5 3204.53,-131.5 3204.53,-112.5 3136.53,-112.5"/>
<text text-anchor="middle" x="3170.53" y="-119.5" font-family="FreeSans" font-size="10.00">RxnRates.h</text>
</a>
</g>
<!-- Node1&#45;&gt;Node40 -->
<g id="edge112" class="edge"><title>Node1&#45;&gt;Node40</title>
<path fill="none" stroke="midnightblue" d="M1474.55,-176.747C1719.15,-175.346 2790.8,-167.27 3122.53,-132 3127,-131.525 3131.67,-130.861 3136.28,-130.106"/>
<polygon fill="midnightblue" stroke="midnightblue" points="1474.51,-173.247 1464.53,-176.803 1474.55,-180.247 1474.51,-173.247"/>
</g>
<!-- Node41 -->
<g id="node98" class="node"><title>Node41</title>
<a xlink:href="RateCoeffMgr_8h.html" target="_top" xlink:title="RateCoeffMgr.h">
<polygon fill="white" stroke="red" points="3096.53,-56.5 3096.53,-75.5 3182.53,-75.5 3182.53,-56.5 3096.53,-56.5"/>
<text text-anchor="middle" x="3139.53" y="-63.5" font-family="FreeSans" font-size="10.00">RateCoeffMgr.h</text>
</a>
</g>
<!-- Node1&#45;&gt;Node41 -->
<g id="edge116" class="edge"><title>Node1&#45;&gt;Node41</title>
<path fill="none" stroke="midnightblue" d="M1475.2,-176.839C1746.19,-175.828 3014.77,-169.12 3088.53,-132 3112.62,-119.877 3128.83,-90.5048 3135.74,-75.7561"/>
<polygon fill="midnightblue" stroke="midnightblue" points="1474.87,-173.34 1464.88,-176.877 1474.89,-180.34 1474.87,-173.34"/>
</g>
<!-- Node42 -->
<g id="node101" class="node"><title>Node42</title>
<a xlink:href="ChemEquil_8h.html" target="_top" xlink:title="Chemical equilibrium.">
<polygon fill="white" stroke="red" points="1040.03,-112.5 1040.03,-131.5 1113.03,-131.5 1113.03,-112.5 1040.03,-112.5"/>
<text text-anchor="middle" x="1076.53" y="-119.5" font-family="FreeSans" font-size="10.00">ChemEquil.h</text>
</a>
</g>
<!-- Node1&#45;&gt;Node42 -->
<g id="edge118" class="edge"><title>Node1&#45;&gt;Node42</title>
<path fill="none" stroke="midnightblue" d="M1374.23,-170.314C1314.02,-162.128 1210.18,-147.439 1121.53,-132 1118.86,-131.535 1116.11,-131.035 1113.34,-130.517"/>
<polygon fill="midnightblue" stroke="midnightblue" points="1373.86,-173.795 1384.24,-171.668 1374.8,-166.858 1373.86,-173.795"/>
</g>
<!-- Node43 -->
<g id="node104" class="node"><title>Node43</title>
<a xlink:href="ResidEval_8h.html" target="_top" xlink:title="ResidEval.h">
<polygon fill="white" stroke="red" points="3223.03,-112.5 3223.03,-131.5 3292.03,-131.5 3292.03,-112.5 3223.03,-112.5"/>
<text text-anchor="middle" x="3257.53" y="-119.5" font-family="FreeSans" font-size="10.00">ResidEval.h</text>
</a>
</g>
<!-- Node1&#45;&gt;Node43 -->
<g id="edge122" class="edge"><title>Node1&#45;&gt;Node43</title>
<path fill="none" stroke="midnightblue" d="M1474.78,-176.935C1727.72,-176.426 2863.2,-171.918 3213.53,-132 3216.47,-131.665 3219.51,-131.23 3222.55,-130.734"/>
<polygon fill="midnightblue" stroke="midnightblue" points="1474.77,-173.435 1464.78,-176.954 1474.78,-180.435 1474.77,-173.435"/>
</g>
<!-- Node44 -->
<g id="node106" class="node"><title>Node44</title>
<a xlink:href="IDA__Solver_8h.html" target="_top" xlink:title="Header file for class IDA_Solver.">
<polygon fill="white" stroke="red" points="3310.53,-112.5 3310.53,-131.5 3384.53,-131.5 3384.53,-112.5 3310.53,-112.5"/>
<text text-anchor="middle" x="3347.53" y="-119.5" font-family="FreeSans" font-size="10.00">IDA_Solver.h</text>
</a>
</g>
<!-- Node1&#45;&gt;Node44 -->
<g id="edge124" class="edge"><title>Node1&#45;&gt;Node44</title>
<path fill="none" stroke="midnightblue" d="M1475.08,-176.918C1735.94,-176.321 2931.89,-171.443 3300.53,-132 3303.75,-131.655 3307.08,-131.207 3310.41,-130.694"/>
<polygon fill="midnightblue" stroke="midnightblue" points="1474.76,-173.418 1464.77,-176.94 1474.78,-180.418 1474.76,-173.418"/>
</g>
<!-- Node45 -->
<g id="node108" class="node"><title>Node45</title>
<a xlink:href="BandMatrix_8h.html" target="_top" xlink:title="Declarations for the class BandMatrix which is a child class of GeneralMatrix for banded matrices han...">
<polygon fill="white" stroke="red" points="1420.03,-112.5 1420.03,-131.5 1495.03,-131.5 1495.03,-112.5 1420.03,-112.5"/>
<text text-anchor="middle" x="1457.53" y="-119.5" font-family="FreeSans" font-size="10.00">BandMatrix.h</text>
</a>
</g>
<!-- Node1&#45;&gt;Node45 -->
<g id="edge126" class="edge"><title>Node1&#45;&gt;Node45</title>
<path fill="none" stroke="midnightblue" d="M1435.36,-159.275C1441,-150.045 1447.65,-139.17 1452.18,-131.751"/>
<polygon fill="midnightblue" stroke="midnightblue" points="1432.21,-157.725 1429.98,-168.083 1438.18,-161.375 1432.21,-157.725"/>
</g>
<!-- Node46 -->
<g id="node111" class="node"><title>Node46</title>
<a xlink:href="BEulerInt_8h.html" target="_top" xlink:title="BEulerInt.h">
<polygon fill="white" stroke="red" points="3402.53,-112.5 3402.53,-131.5 3464.53,-131.5 3464.53,-112.5 3402.53,-112.5"/>
<text text-anchor="middle" x="3433.53" y="-119.5" font-family="FreeSans" font-size="10.00">BEulerInt.h</text>
</a>
</g>
<!-- Node1&#45;&gt;Node46 -->
<g id="edge130" class="edge"><title>Node1&#45;&gt;Node46</title>
<path fill="none" stroke="midnightblue" d="M1475,-177.203C1743.47,-178.074 3006.08,-179.537 3393.53,-132 3396.35,-131.653 3399.27,-131.195 3402.19,-130.669"/>
<polygon fill="midnightblue" stroke="midnightblue" points="1474.79,-173.702 1464.78,-177.168 1474.77,-180.702 1474.79,-173.702"/>
</g>
<!-- Node47 -->
<g id="node114" class="node"><title>Node47</title>
<a xlink:href="LineBroadener_8h.html" target="_top" xlink:title="Header file for class LineBroadener.">
<polygon fill="white" stroke="red" points="3483.03,-112.5 3483.03,-131.5 3574.03,-131.5 3574.03,-112.5 3483.03,-112.5"/>
<text text-anchor="middle" x="3528.53" y="-119.5" font-family="FreeSans" font-size="10.00">LineBroadener.h</text>
</a>
</g>
<!-- Node1&#45;&gt;Node47 -->
<g id="edge134" class="edge"><title>Node1&#45;&gt;Node47</title>
<path fill="none" stroke="midnightblue" d="M1474.78,-176.833C1749,-175.781 3067.11,-168.856 3472.53,-132 3475.86,-131.697 3479.3,-131.316 3482.75,-130.882"/>
<polygon fill="midnightblue" stroke="midnightblue" points="1474.71,-173.333 1464.72,-176.871 1474.74,-180.333 1474.71,-173.333"/>
</g>
<!-- Node48 -->
<g id="node116" class="node"><title>Node48</title>
<a xlink:href="SpeciesThermoMgr_8h.html" target="_top" xlink:title="This file contains descriptions of templated subclasses of the virtual base class, SpeciesThermo, which includes SpeciesThermoDuo (see Managers for Calculating Reference&#45;State Thermodynamics and class SpeciesThermoDuo)">
<polygon fill="white" stroke="red" points="651.529,-56.5 651.529,-75.5 765.529,-75.5 765.529,-56.5 651.529,-56.5"/>
<text text-anchor="middle" x="708.529" y="-63.5" font-family="FreeSans" font-size="10.00">SpeciesThermoMgr.h</text>
</a>
</g>
<!-- Node1&#45;&gt;Node48 -->
<g id="edge136" class="edge"><title>Node1&#45;&gt;Node48</title>
<path fill="none" stroke="midnightblue" d="M1373.71,-175.87C1227.94,-172.308 815.391,-159.854 761.529,-132 737.214,-119.426 720.028,-90.2651 712.614,-75.6606"/>
<polygon fill="midnightblue" stroke="midnightblue" points="1374.06,-179.38 1384.14,-176.121 1374.23,-172.382 1374.06,-179.38"/>
</g>
<!-- Node49 -->
<g id="node119" class="node"><title>Node49</title>
<a xlink:href="SpeciesThermoFactory_8h.html" target="_top" xlink:title="Header for factory to build instances of classes that manage the standard&#45;state thermodynamic propert...">
<polygon fill="white" stroke="red" points="784.029,-56.5 784.029,-75.5 915.029,-75.5 915.029,-56.5 784.029,-56.5"/>
<text text-anchor="middle" x="849.529" y="-63.5" font-family="FreeSans" font-size="10.00">SpeciesThermoFactory.h</text>
</a>
</g>
<!-- Node1&#45;&gt;Node49 -->
<g id="edge140" class="edge"><title>Node1&#45;&gt;Node49</title>
<path fill="none" stroke="midnightblue" d="M1374.17,-177.388C1228,-177.992 811.437,-175.82 770.529,-132 749.318,-109.28 794.023,-87.248 824.437,-75.5804"/>
<polygon fill="midnightblue" stroke="midnightblue" points="1374.23,-180.888 1384.22,-177.34 1374.2,-173.888 1374.23,-180.888"/>
</g>
<!-- Node50 -->
<g id="node123" class="node"><title>Node50</title>
<a xlink:href="Wall_8h.html" target="_top" xlink:title="Header file for class Wall.">
<polygon fill="white" stroke="red" points="3592.53,-112.5 3592.53,-131.5 3636.53,-131.5 3636.53,-112.5 3592.53,-112.5"/>
<text text-anchor="middle" x="3614.53" y="-119.5" font-family="FreeSans" font-size="10.00">Wall.h</text>
</a>
</g>
<!-- Node1&#45;&gt;Node50 -->
<g id="edge146" class="edge"><title>Node1&#45;&gt;Node50</title>
<path fill="none" stroke="midnightblue" d="M1475.1,-176.713C1780.09,-174.877 3368.23,-163.842 3582.53,-132 3585.73,-131.525 3589.05,-130.827 3592.31,-130.027"/>
<polygon fill="midnightblue" stroke="midnightblue" points="1474.78,-173.214 1464.8,-176.774 1474.82,-180.214 1474.78,-173.214"/>
</g>
<!-- Node3&#45;&gt;Node2 -->
<g id="edge6" class="edge"><title>Node3&#45;&gt;Node2</title>
<path fill="none" stroke="midnightblue" d="M33.8569,-102.986C29.3134,-89.7308 25.361,-71.4124 30.5288,-56 35.3849,-41.5174 46.9481,-27.9752 55.2409,-19.6053"/>
<polygon fill="midnightblue" stroke="midnightblue" points="30.6117,-104.299 37.4643,-112.38 37.1464,-101.79 30.6117,-104.299"/>
</g>
<!-- Node3&#45;&gt;Node4 -->
<g id="edge8" class="edge"><title>Node3&#45;&gt;Node4</title>
<path fill="none" stroke="midnightblue" d="M51.2048,-102.983C56.1272,-93.8168 61.8867,-83.0922 65.8292,-75.7511"/>
<polygon fill="midnightblue" stroke="midnightblue" points="47.9654,-101.617 46.3176,-112.083 54.1324,-104.929 47.9654,-101.617"/>
</g>
<!-- Node13 -->
<g id="node27" class="node"><title>Node13</title>
<a xlink:href="CVodeInt_8cpp.html" target="_top" xlink:title="CVodeInt.cpp">
<polygon fill="white" stroke="black" points="1632.03,-56.5 1632.03,-75.5 1707.03,-75.5 1707.03,-56.5 1632.03,-56.5"/>
<text text-anchor="middle" x="1669.53" y="-63.5" font-family="FreeSans" font-size="10.00">CVodeInt.cpp</text>
</a>
</g>
<!-- Node12&#45;&gt;Node13 -->
<g id="edge28" class="edge"><title>Node12&#45;&gt;Node13</title>
<path fill="none" stroke="midnightblue" d="M1574.54,-108.368C1597.76,-98.2553 1629.69,-84.3486 1649.97,-75.5164"/>
<polygon fill="midnightblue" stroke="midnightblue" points="1572.95,-105.242 1565.18,-112.444 1575.74,-111.66 1572.95,-105.242"/>
</g>
<!-- Node14 -->
<g id="node29" class="node"><title>Node14</title>
<a xlink:href="ODE__integrators_8cpp_source.html" target="_top" xlink:title="ODE_integrators.cpp">
<polygon fill="white" stroke="black" points="1505.53,-56.5 1505.53,-75.5 1613.53,-75.5 1613.53,-56.5 1505.53,-56.5"/>
<text text-anchor="middle" x="1559.53" y="-63.5" font-family="FreeSans" font-size="10.00">ODE_integrators.cpp</text>
</a>
</g>
<!-- Node12&#45;&gt;Node14 -->
<g id="edge30" class="edge"><title>Node12&#45;&gt;Node14</title>
<path fill="none" stroke="midnightblue" d="M1550.35,-102.396C1552.69,-93.362 1555.4,-82.936 1557.26,-75.7511"/>
<polygon fill="midnightblue" stroke="midnightblue" points="1546.96,-101.525 1547.84,-112.083 1553.74,-103.281 1546.96,-101.525"/>
</g>
<!-- Node23 -->
<g id="node47" class="node"><title>Node23</title>
<a xlink:href="ThermoFactory_8cpp.html" target="_top" xlink:title="Definitions for the factory class that can create known ThermoPhase objects (see Thermodynamic Proper...">
<polygon fill="white" stroke="black" points="932.529,-0.5 932.529,-19.5 1036.53,-19.5 1036.53,-0.5 932.529,-0.5"/>
<text text-anchor="middle" x="984.529" y="-7.5" font-family="FreeSans" font-size="10.00">ThermoFactory.cpp</text>
</a>
</g>
<!-- Node22&#45;&gt;Node23 -->
<g id="edge48" class="edge"><title>Node22&#45;&gt;Node23</title>
<path fill="none" stroke="midnightblue" d="M984.529,-45.8045C984.529,-36.9102 984.529,-26.7798 984.529,-19.7511"/>
<polygon fill="midnightblue" stroke="midnightblue" points="981.029,-46.083 984.529,-56.083 988.029,-46.083 981.029,-46.083"/>
</g>
<!-- Node24 -->
<g id="node49" class="node"><title>Node24</title>
<a xlink:href="VPSSMgrFactory_8cpp.html" target="_top" xlink:title="Definitions for factory to build instances of classes that manage the calculation of standard state p...">
<polygon fill="white" stroke="black" points="652.029,-0.5 652.029,-19.5 765.029,-19.5 765.029,-0.5 652.029,-0.5"/>
<text text-anchor="middle" x="708.529" y="-7.5" font-family="FreeSans" font-size="10.00">VPSSMgrFactory.cpp</text>
</a>
</g>
<!-- Node22&#45;&gt;Node24 -->
<g id="edge50" class="edge"><title>Node22&#45;&gt;Node24</title>
<path fill="none" stroke="midnightblue" d="M930.726,-54.4734C878.564,-44.2678 800.424,-28.9794 752.057,-19.5164"/>
<polygon fill="midnightblue" stroke="midnightblue" points="930.31,-57.9582 940.796,-56.4435 931.654,-51.0885 930.31,-57.9582"/>
</g>
<!-- Node32 -->
<g id="node65" class="node"><title>Node32</title>
<a xlink:href="solveSP_8h.html" target="_top" xlink:title=" &#160;Header file for implicit surface problem solver &#160;(see Chemical Kinetics and class solveSP)...">
<polygon fill="white" stroke="red" points="1053.53,-56.5 1053.53,-75.5 1115.53,-75.5 1115.53,-56.5 1053.53,-56.5"/>
<text text-anchor="middle" x="1084.53" y="-63.5" font-family="FreeSans" font-size="10.00">solveSP.h</text>
</a>
</g>
<!-- Node31&#45;&gt;Node32 -->
<g id="edge66" class="edge"><title>Node31&#45;&gt;Node32</title>
<path fill="none" stroke="midnightblue" d="M845.666,-112.831C846.969,-112.546 848.26,-112.268 849.529,-112 935.333,-93.8893 957.579,-93.4035 1043.53,-76 1046.67,-75.3636 1049.95,-74.6802 1053.21,-73.9846"/>
<polygon fill="midnightblue" stroke="midnightblue" points="844.591,-109.486 835.612,-115.108 846.138,-116.313 844.591,-109.486"/>
</g>
<!-- Node33 -->
<g id="node67" class="node"><title>Node33</title>
<a xlink:href="ctml_8h.html" target="_top" xlink:title="CTML (&quot;Cantera Markup Language&quot;) is the variant of XML that Cantera uses to store data...">
<polygon fill="white" stroke="red" points="477.529,-56.5 477.529,-75.5 519.529,-75.5 519.529,-56.5 477.529,-56.5"/>
<text text-anchor="middle" x="498.529" y="-63.5" font-family="FreeSans" font-size="10.00">ctml.h</text>
</a>
</g>
<!-- Node31&#45;&gt;Node33 -->
<g id="edge68" class="edge"><title>Node31&#45;&gt;Node33</title>
<path fill="none" stroke="midnightblue" d="M777.363,-115.106C712.423,-103.902 572.911,-79.8328 519.722,-70.6563"/>
<polygon fill="midnightblue" stroke="midnightblue" points="777.038,-118.601 787.488,-116.852 778.229,-111.703 777.038,-118.601"/>
</g>
<!-- Node31&#45;&gt;Node34 -->
<g id="edge82" class="edge"><title>Node31&#45;&gt;Node34</title>
<path fill="none" stroke="midnightblue" d="M845.638,-112.686C846.949,-112.441 848.25,-112.211 849.529,-112 1016.03,-84.4881 1061.63,-106.97 1227.53,-76 1230.59,-75.4281 1233.79,-74.697 1236.92,-73.8994"/>
<polygon fill="midnightblue" stroke="midnightblue" points="844.629,-109.321 835.551,-114.784 846.054,-116.175 844.629,-109.321"/>
</g>
<!-- Node35 -->
<g id="node77" class="node"><title>Node35</title>
<a xlink:href="DebyeHuckel_8h.html" target="_top" xlink:title="Headers for the DebyeHuckel ThermoPhase object, which models dilute electrolyte solutions (see Thermo...">
<polygon fill="white" stroke="red" points="1134.03,-56.5 1134.03,-75.5 1219.03,-75.5 1219.03,-56.5 1134.03,-56.5"/>
<text text-anchor="middle" x="1176.53" y="-63.5" font-family="FreeSans" font-size="10.00">DebyeHuckel.h</text>
</a>
</g>
<!-- Node31&#45;&gt;Node35 -->
<g id="edge84" class="edge"><title>Node31&#45;&gt;Node35</title>
<path fill="none" stroke="midnightblue" d="M845.649,-112.745C846.957,-112.484 848.254,-112.234 849.529,-112 970.334,-89.8178 1002.07,-94.2845 1123.53,-76 1126.94,-75.4859 1130.48,-74.9324 1134.03,-74.3617"/>
<polygon fill="midnightblue" stroke="midnightblue" points="844.612,-109.388 835.573,-114.915 846.086,-116.231 844.612,-109.388"/>
</g>
<!-- Node33&#45;&gt;Node2 -->
<g id="edge70" class="edge"><title>Node33&#45;&gt;Node2</title>
<path fill="none" stroke="midnightblue" d="M467.443,-56.1769C383.661,-40.4717 191.251,-22.3371 106.131,-14.6724"/>
<polygon fill="midnightblue" stroke="midnightblue" points="466.856,-59.6284 477.344,-58.1285 468.21,-52.7606 466.856,-59.6284"/>
</g>
<!-- Node33&#45;&gt;Node5 -->
<g id="edge72" class="edge"><title>Node33&#45;&gt;Node5</title>
<path fill="none" stroke="midnightblue" d="M499.24,-45.8045C499.569,-36.9102 499.944,-26.7798 500.205,-19.7511"/>
<polygon fill="midnightblue" stroke="midnightblue" points="495.732,-45.9603 498.859,-56.083 502.727,-46.2194 495.732,-45.9603"/>
</g>
<!-- Node33&#45;&gt;Node7 -->
<g id="edge74" class="edge"><title>Node33&#45;&gt;Node7</title>
<path fill="none" stroke="midnightblue" d="M522.334,-51.1774C539.448,-41.2407 561.994,-28.1492 576.624,-19.6545"/>
<polygon fill="midnightblue" stroke="midnightblue" points="520.361,-48.2758 513.471,-56.324 523.876,-54.3293 520.361,-48.2758"/>
</g>
<!-- Node33&#45;&gt;Node17 -->
<g id="edge76" class="edge"><title>Node33&#45;&gt;Node17</title>
<path fill="none" stroke="midnightblue" d="M467.391,-55.9547C376.353,-34.7327 350.827,-36.1684 262.529,-20 259.669,-19.4763 256.712,-18.9275 253.739,-18.3704"/>
<polygon fill="midnightblue" stroke="midnightblue" points="466.771,-59.4046 477.308,-58.2947 468.379,-52.5917 466.771,-59.4046"/>
</g>
<!-- Node33&#45;&gt;Node18 -->
<g id="edge78" class="edge"><title>Node33&#45;&gt;Node18</title>
<path fill="none" stroke="midnightblue" d="M467.547,-55.7479C417.558,-41.2593 369.859,-27.9486 339.546,-19.5525"/>
<polygon fill="midnightblue" stroke="midnightblue" points="466.658,-59.1341 477.237,-58.5629 468.61,-52.412 466.658,-59.1341"/>
</g>
<!-- Node33&#45;&gt;Node24 -->
<g id="edge80" class="edge"><title>Node33&#45;&gt;Node24</title>
<path fill="none" stroke="midnightblue" d="M529.566,-57.019C568.531,-46.9995 635.104,-29.8806 675.142,-19.5851"/>
<polygon fill="midnightblue" stroke="midnightblue" points="528.634,-53.6448 519.82,-59.525 530.377,-60.4243 528.634,-53.6448"/>
</g>
<!-- Node35&#45;&gt;Node23 -->
<g id="edge86" class="edge"><title>Node35&#45;&gt;Node23</title>
<path fill="none" stroke="midnightblue" d="M1136.35,-53.6986C1100.11,-43.507 1047.61,-28.7429 1014.81,-19.5164"/>
<polygon fill="midnightblue" stroke="midnightblue" points="1135.53,-57.1053 1146.11,-56.4435 1137.43,-50.3667 1135.53,-57.1053"/>
</g>
<!-- Node36&#45;&gt;Node2 -->
<g id="edge90" class="edge"><title>Node36&#45;&gt;Node2</title>
<path fill="none" stroke="midnightblue" d="M309.981,-109.181C254.214,-86.8742 134.678,-39.0598 85.91,-19.5525"/>
<polygon fill="midnightblue" stroke="midnightblue" points="308.723,-112.447 319.307,-112.911 311.323,-105.948 308.723,-112.447"/>
</g>
<!-- Node36&#45;&gt;Node4 -->
<g id="edge92" class="edge"><title>Node36&#45;&gt;Node4</title>
<path fill="none" stroke="midnightblue" d="M309.489,-114.97C258.175,-104.669 154.129,-83.7822 101.911,-73.2998"/>
<polygon fill="midnightblue" stroke="midnightblue" points="308.817,-118.405 319.31,-116.941 310.195,-111.541 308.817,-118.405"/>
</g>
<!-- Node36&#45;&gt;Node17 -->
<g id="edge94" class="edge"><title>Node36&#45;&gt;Node17</title>
<path fill="none" stroke="midnightblue" d="M322.069,-105.512C295.573,-82.0068 246.089,-38.1096 225.214,-19.5914"/>
<polygon fill="midnightblue" stroke="midnightblue" points="319.995,-108.351 329.799,-112.368 324.641,-103.114 319.995,-108.351"/>
</g>
<!-- Node36&#45;&gt;Node18 -->
<g id="edge96" class="edge"><title>Node36&#45;&gt;Node18</title>
<path fill="none" stroke="midnightblue" d="M320.953,-105.324C313.048,-97.4402 304.702,-87.1876 300.529,-76 293.376,-56.8249 300.237,-32.4798 304.941,-19.7149"/>
<polygon fill="midnightblue" stroke="midnightblue" points="318.828,-108.128 328.539,-112.365 323.59,-102.997 318.828,-108.128"/>
</g>
<!-- Node36&#45;&gt;Node24 -->
<g id="edge98" class="edge"><title>Node36&#45;&gt;Node24</title>
<path fill="none" stroke="midnightblue" d="M369.982,-114.789C407.391,-106.912 472.645,-92.3695 527.529,-76 586.081,-58.5364 653.413,-32.8252 687.052,-19.5818"/>
<polygon fill="midnightblue" stroke="midnightblue" points="368.829,-111.454 359.754,-116.922 370.258,-118.306 368.829,-111.454"/>
</g>
<!-- Node36&#45;&gt;Node33 -->
<g id="edge100" class="edge"><title>Node36&#45;&gt;Node33</title>
<path fill="none" stroke="midnightblue" d="M369.213,-110.918C400.653,-100.241 449.501,-83.651 477.29,-74.2131"/>
<polygon fill="midnightblue" stroke="midnightblue" points="368.01,-107.631 359.666,-114.161 370.261,-114.259 368.01,-107.631"/>
</g>
<!-- Node36&#45;&gt;Node37 -->
<g id="edge102" class="edge"><title>Node36&#45;&gt;Node37</title>
<path fill="none" stroke="midnightblue" d="M339.529,-101.805C339.529,-92.9102 339.529,-82.7798 339.529,-75.7511"/>
<polygon fill="midnightblue" stroke="midnightblue" points="336.029,-102.083 339.529,-112.083 343.029,-102.083 336.029,-102.083"/>
</g>
<!-- Node36&#45;&gt;Node38 -->
<g id="edge104" class="edge"><title>Node36&#45;&gt;Node38</title>
<path fill="none" stroke="midnightblue" d="M361.461,-106.901C376.864,-96.9986 396.975,-84.0705 410.066,-75.6545"/>
<polygon fill="midnightblue" stroke="midnightblue" points="359.544,-103.972 353.025,-112.324 363.329,-109.86 359.544,-103.972"/>
</g>
<!-- Node40&#45;&gt;Node41 -->
<g id="edge114" class="edge"><title>Node40&#45;&gt;Node41</title>
<path fill="none" stroke="midnightblue" d="M3160.35,-103.275C3155.05,-94.0454 3148.81,-83.1703 3144.55,-75.7511"/>
<polygon fill="midnightblue" stroke="midnightblue" points="3157.4,-105.153 3165.41,-112.083 3163.47,-101.668 3157.4,-105.153"/>
</g>
<!-- Node42&#45;&gt;Node8 -->
<g id="edge120" class="edge"><title>Node42&#45;&gt;Node8</title>
<path fill="none" stroke="midnightblue" d="M1122.99,-111.532C1172.92,-101.357 1251.58,-85.329 1299.66,-75.5313"/>
<polygon fill="midnightblue" stroke="midnightblue" points="1122.2,-108.122 1113.1,-113.548 1123.6,-114.981 1122.2,-108.122"/>
</g>
<!-- Node45&#45;&gt;Node11 -->
<g id="edge128" class="edge"><title>Node45&#45;&gt;Node11</title>
<path fill="none" stroke="midnightblue" d="M1452.98,-102.101C1450.82,-93.1357 1448.35,-82.8579 1446.64,-75.7511"/>
<polygon fill="midnightblue" stroke="midnightblue" points="1449.64,-103.18 1455.38,-112.083 1456.44,-101.542 1449.64,-103.18"/>
</g>
<!-- Node48&#45;&gt;Node24 -->
<g id="edge138" class="edge"><title>Node48&#45;&gt;Node24</title>
<path fill="none" stroke="midnightblue" d="M708.529,-45.8045C708.529,-36.9102 708.529,-26.7798 708.529,-19.7511"/>
<polygon fill="midnightblue" stroke="midnightblue" points="705.029,-46.083 708.529,-56.083 712.029,-46.083 705.029,-46.083"/>
</g>
<!-- Node49&#45;&gt;Node23 -->
<g id="edge142" class="edge"><title>Node49&#45;&gt;Node23</title>
<path fill="none" stroke="midnightblue" d="M880.435,-52.6377C905.769,-42.504 940.96,-28.4274 963.238,-19.5164"/>
<polygon fill="midnightblue" stroke="midnightblue" points="878.905,-49.4799 870.92,-56.4435 881.505,-55.9792 878.905,-49.4799"/>
</g>
<!-- Node49&#45;&gt;Node24 -->
<g id="edge144" class="edge"><title>Node49&#45;&gt;Node24</title>
<path fill="none" stroke="midnightblue" d="M817.6,-52.772C791.115,-42.6287 754.137,-28.4669 730.766,-19.5164"/>
<polygon fill="midnightblue" stroke="midnightblue" points="816.597,-56.1355 827.187,-56.4435 819.1,-49.5985 816.597,-56.1355"/>
</g>
</g>
</svg>
