<?xml version="1.0" encoding="UTF-8" standalone="no"?>
<!DOCTYPE svg PUBLIC "-//W3C//DTD SVG 1.1//EN"
 "http://www.w3.org/Graphics/SVG/1.1/DTD/svg11.dtd">
<!-- Generated by graphviz version 2.28.0 (20120425.2022)
 -->
<!-- Title: cantera Pages: 1 -->
<svg width="456pt" height="471pt"
 viewBox="0.00 0.00 456.00 471.00" xmlns="http://www.w3.org/2000/svg" xmlns:xlink="http://www.w3.org/1999/xlink">
<g id="graph1" class="graph" transform="scale(1 1) rotate(0) translate(4 467)">
<title>cantera</title>
<polygon fill="white" stroke="white" points="-4,5 -4,-467 453,-467 453,5 -4,5"/>
<g id="graph2" class="cluster"><title>clusterdir_d44c64559bbebec7f509842c48db8b23</title>
<a xlink:href="dir_d44c64559bbebec7f509842c48db8b23.html" target="_top" xlink:title="include">
<polygon fill="#ddddee" stroke="black" points="8,-8 8,-455 440,-455 440,-8 8,-8"/>
<text text-anchor="middle" x="224" y="-443" font-family="FreeSans" font-size="10.00">include</text>
</a>
</g>
<g id="graph3" class="cluster"><title>clusterdir_6fbe91f1050ba110875dc8b0702a61ee</title>
<a xlink:href="dir_6fbe91f1050ba110875dc8b0702a61ee.html" target="_top">
<polygon fill="#eeeeff" stroke="black" points="16,-16 16,-428 432,-428 432,-16 16,-16"/>
</a>
</g>
<!-- dir_6fbe91f1050ba110875dc8b0702a61ee -->
<g id="node3" class="node"><title>dir_6fbe91f1050ba110875dc8b0702a61ee</title>
<text text-anchor="middle" x="231" y="-399.5" font-family="FreeSans" font-size="10.00">cantera</text>
</g>
<!-- dir_a54d9e5dfc2a2dbb65ec20bef473969d -->
<g id="node4" class="node"><title>dir_a54d9e5dfc2a2dbb65ec20bef473969d</title>
<a xlink:href="dir_a54d9e5dfc2a2dbb65ec20bef473969d.html" target="_top" xlink:title="base">
<polygon fill="white" stroke="black" points="224,-60 170,-60 170,-24 224,-24 224,-60"/>
<text text-anchor="middle" x="197" y="-39.5" font-family="FreeSans" font-size="10.00">base</text>
</a>
</g>
<!-- dir_6fbe91f1050ba110875dc8b0702a61ee&#45;&gt;dir_a54d9e5dfc2a2dbb65ec20bef473969d -->
<g id="edge6" class="edge"><title>dir_6fbe91f1050ba110875dc8b0702a61ee&#45;&gt;dir_a54d9e5dfc2a2dbb65ec20bef473969d</title>
<path fill="none" stroke="black" d="M203.645,-395.583C147.609,-382.725 25,-344.789 25,-259 25,-259 25,-259 25,-185 25,-115.481 109.592,-73.6309 160.128,-54.8321"/>
<polygon fill="black" stroke="black" points="161.517,-58.0521 169.746,-51.3784 159.152,-51.464 161.517,-58.0521"/>
<a xlink:href="dir_000001_000009.html" target="_top" xlink:title="127">
<text text-anchor="middle" x="159.094" y="-59.4391" font-family="FreeSans" font-size="10.00">127</text>
</a>
</g>
<!-- dir_b6602fa85e55c10ff974e6d590939819 -->
<g id="node5" class="node"><title>dir_b6602fa85e55c10ff974e6d590939819</title>
<a xlink:href="dir_b6602fa85e55c10ff974e6d590939819.html" target="_top" xlink:title="equil">
<polygon fill="white" stroke="black" points="212,-276 158,-276 158,-240 212,-240 212,-276"/>
<text text-anchor="middle" x="185" y="-255.5" font-family="FreeSans" font-size="10.00">equil</text>
</a>
</g>
<!-- dir_6fbe91f1050ba110875dc8b0702a61ee&#45;&gt;dir_b6602fa85e55c10ff974e6d590939819 -->
<g id="edge8" class="edge"><title>dir_6fbe91f1050ba110875dc8b0702a61ee&#45;&gt;dir_b6602fa85e55c10ff974e6d590939819</title>
<path fill="none" stroke="black" d="M225.451,-383.871C217.577,-359.564 203.082,-314.819 193.751,-286.013"/>
<polygon fill="black" stroke="black" points="196.98,-284.624 190.568,-276.189 190.321,-286.781 196.98,-284.624"/>
<a xlink:href="dir_000001_000016.html" target="_top" xlink:title="4">
<text text-anchor="middle" x="200.789" y="-284.669" font-family="FreeSans" font-size="10.00">4</text>
</a>
</g>
<!-- dir_28819bef72f6570b005694d295d15d08 -->
<g id="node6" class="node"><title>dir_28819bef72f6570b005694d295d15d08</title>
<a xlink:href="dir_28819bef72f6570b005694d295d15d08.html" target="_top" xlink:title="kinetics">
<polygon fill="white" stroke="black" points="364,-276 310,-276 310,-240 364,-240 364,-276"/>
<text text-anchor="middle" x="337" y="-255.5" font-family="FreeSans" font-size="10.00">kinetics</text>
</a>
</g>
<!-- dir_6fbe91f1050ba110875dc8b0702a61ee&#45;&gt;dir_28819bef72f6570b005694d295d15d08 -->
<g id="edge12" class="edge"><title>dir_6fbe91f1050ba110875dc8b0702a61ee&#45;&gt;dir_28819bef72f6570b005694d295d15d08</title>
<path fill="none" stroke="black" d="M246.465,-383.708C255.37,-373.527 266.62,-360.277 276,-348 280.558,-342.034 303.329,-308.639 319.714,-284.507"/>
<polygon fill="black" stroke="black" points="322.698,-286.344 325.417,-276.104 316.905,-282.413 322.698,-286.344"/>
<a xlink:href="dir_000001_000006.html" target="_top" xlink:title="17">
<text text-anchor="middle" x="323.029" y="-288.412" font-family="FreeSans" font-size="10.00">17</text>
</a>
</g>
<!-- dir_8bf842952c463ead18ee9fb35e4c5251 -->
<g id="node7" class="node"><title>dir_8bf842952c463ead18ee9fb35e4c5251</title>
<a xlink:href="dir_8bf842952c463ead18ee9fb35e4c5251.html" target="_top" xlink:title="numerics">
<polygon fill="white" stroke="black" points="225.25,-132 168.75,-132 168.75,-96 225.25,-96 225.25,-132"/>
<text text-anchor="middle" x="197" y="-111.5" font-family="FreeSans" font-size="10.00">numerics</text>
</a>
</g>
<!-- dir_6fbe91f1050ba110875dc8b0702a61ee&#45;&gt;dir_8bf842952c463ead18ee9fb35e4c5251 -->
<g id="edge14" class="edge"><title>dir_6fbe91f1050ba110875dc8b0702a61ee&#45;&gt;dir_8bf842952c463ead18ee9fb35e4c5251</title>
<path fill="none" stroke="black" d="M231.384,-383.896C231.727,-354.285 231.041,-291.684 221,-240 217.783,-223.444 212.81,-220.429 209,-204 204.275,-183.624 201.206,-160.162 199.356,-142.445"/>
<polygon fill="black" stroke="black" points="202.814,-141.846 198.358,-132.234 195.848,-142.528 202.814,-141.846"/>
<a xlink:href="dir_000001_000012.html" target="_top" xlink:title="30">
<text text-anchor="middle" x="205.99" y="-142.647" font-family="FreeSans" font-size="10.00">30</text>
</a>
</g>
<!-- dir_f46b18a6c00d0db8bc9244fc17f43dd7 -->
<g id="node8" class="node"><title>dir_f46b18a6c00d0db8bc9244fc17f43dd7</title>
<a xlink:href="dir_f46b18a6c00d0db8bc9244fc17f43dd7.html" target="_top" xlink:title="oneD">
<polygon fill="white" stroke="black" points="173,-348 119,-348 119,-312 173,-312 173,-348"/>
<text text-anchor="middle" x="146" y="-327.5" font-family="FreeSans" font-size="10.00">oneD</text>
</a>
</g>
<!-- dir_6fbe91f1050ba110875dc8b0702a61ee&#45;&gt;dir_f46b18a6c00d0db8bc9244fc17f43dd7 -->
<g id="edge10" class="edge"><title>dir_6fbe91f1050ba110875dc8b0702a61ee&#45;&gt;dir_f46b18a6c00d0db8bc9244fc17f43dd7</title>
<path fill="none" stroke="black" d="M209.989,-383.697C199.284,-374.881 186.11,-364.032 174.504,-354.474"/>
<polygon fill="black" stroke="black" points="176.714,-351.76 166.77,-348.104 172.264,-357.163 176.714,-351.76"/>
<a xlink:href="dir_000001_000022.html" target="_top" xlink:title="7">
<text text-anchor="middle" x="181.294" y="-349.353" font-family="FreeSans" font-size="10.00">7</text>
</a>
</g>
<!-- dir_20976ed89c5a0b583d16a4cc919b8652 -->
<g id="node9" class="node"><title>dir_20976ed89c5a0b583d16a4cc919b8652</title>
<a xlink:href="dir_20976ed89c5a0b583d16a4cc919b8652.html" target="_top" xlink:title="spectra">
<polygon fill="white" stroke="black" points="424,-204 370,-204 370,-168 424,-168 424,-204"/>
<text text-anchor="middle" x="397" y="-183.5" font-family="FreeSans" font-size="10.00">spectra</text>
</a>
</g>
<!-- dir_6fbe91f1050ba110875dc8b0702a61ee&#45;&gt;dir_20976ed89c5a0b583d16a4cc919b8652 -->
<g id="edge18" class="edge"><title>dir_6fbe91f1050ba110875dc8b0702a61ee&#45;&gt;dir_20976ed89c5a0b583d16a4cc919b8652</title>
<path fill="none" stroke="black" d="M258.206,-397.059C289.356,-391.269 340.288,-377.736 373,-348 410.337,-314.06 413.154,-290.194 408,-240 407.123,-231.455 405.469,-222.255 403.706,-213.958"/>
<polygon fill="black" stroke="black" points="407.085,-213.028 401.464,-204.047 400.257,-214.573 407.085,-213.028"/>
<a xlink:href="dir_000001_000023.html" target="_top" xlink:title="4">
<text text-anchor="middle" x="410.647" y="-213.408" font-family="FreeSans" font-size="10.00">4</text>
</a>
</g>
<!-- dir_3cc50e07c07b6e5dfebd896073e0298f -->
<g id="node10" class="node"><title>dir_3cc50e07c07b6e5dfebd896073e0298f</title>
<a xlink:href="dir_3cc50e07c07b6e5dfebd896073e0298f.html" target="_top" xlink:title="thermo">
<polygon fill="white" stroke="black" points="272,-204 218,-204 218,-168 272,-168 272,-204"/>
<text text-anchor="middle" x="245" y="-183.5" font-family="FreeSans" font-size="10.00">thermo</text>
</a>
</g>
<!-- dir_6fbe91f1050ba110875dc8b0702a61ee&#45;&gt;dir_3cc50e07c07b6e5dfebd896073e0298f -->
<g id="edge16" class="edge"><title>dir_6fbe91f1050ba110875dc8b0702a61ee&#45;&gt;dir_3cc50e07c07b6e5dfebd896073e0298f</title>
<path fill="none" stroke="black" d="M232.788,-383.828C233.825,-373.461 235.1,-359.981 236,-348 239.507,-301.302 242.273,-246.89 243.77,-214.783"/>
<polygon fill="black" stroke="black" points="247.284,-214.556 244.245,-204.406 240.291,-214.236 247.284,-214.556"/>
<a xlink:href="dir_000001_000002.html" target="_top" xlink:title="36">
<text text-anchor="middle" x="249.956" y="-215.777" font-family="FreeSans" font-size="10.00">36</text>
</a>
</g>
<!-- dir_e06e40b6a3c4e04950e39aba62791861 -->
<g id="node12" class="node"><title>dir_e06e40b6a3c4e04950e39aba62791861</title>
<a xlink:href="dir_e06e40b6a3c4e04950e39aba62791861.html" target="_top" xlink:title="transport">
<polygon fill="white" stroke="black" points="119.25,-276 64.75,-276 64.75,-240 119.25,-240 119.25,-276"/>
<text text-anchor="middle" x="92" y="-255.5" font-family="FreeSans" font-size="10.00">transport</text>
</a>
</g>
<!-- dir_6fbe91f1050ba110875dc8b0702a61ee&#45;&gt;dir_e06e40b6a3c4e04950e39aba62791861 -->
<g id="edge4" class="edge"><title>dir_6fbe91f1050ba110875dc8b0702a61ee&#45;&gt;dir_e06e40b6a3c4e04950e39aba62791861</title>
<path fill="none" stroke="black" d="M203.988,-396.618C176.107,-390.627 133.469,-377.097 110,-348 96.0357,-330.688 91.9965,-305.424 91.1837,-286.232"/>
<polygon fill="black" stroke="black" points="94.68,-285.956 91.0244,-276.012 87.6808,-286.066 94.68,-285.956"/>
<a xlink:href="dir_000001_000008.html" target="_top" xlink:title="6">
<text text-anchor="middle" x="97.5749" y="-287.006" font-family="FreeSans" font-size="10.00">6</text>
</a>
</g>
<!-- dir_c2f88de04d55f3b00cc7dddcabb0c3f5 -->
<g id="node13" class="node"><title>dir_c2f88de04d55f3b00cc7dddcabb0c3f5</title>
<a xlink:href="dir_c2f88de04d55f3b00cc7dddcabb0c3f5.html" target="_top" xlink:title="zeroD">
<polygon fill="white" stroke="black" points="364,-348 310,-348 310,-312 364,-312 364,-348"/>
<text text-anchor="middle" x="337" y="-327.5" font-family="FreeSans" font-size="10.00">zeroD</text>
</a>
</g>
<!-- dir_6fbe91f1050ba110875dc8b0702a61ee&#45;&gt;dir_c2f88de04d55f3b00cc7dddcabb0c3f5 -->
<g id="edge20" class="edge"><title>dir_6fbe91f1050ba110875dc8b0702a61ee&#45;&gt;dir_c2f88de04d55f3b00cc7dddcabb0c3f5</title>
<path fill="none" stroke="black" d="M256.931,-383.876C270.662,-374.808 287.706,-363.552 302.536,-353.759"/>
<polygon fill="black" stroke="black" points="304.554,-356.621 310.97,-348.19 300.696,-350.78 304.554,-356.621"/>
<a xlink:href="dir_000001_000020.html" target="_top" xlink:title="6">
<text text-anchor="middle" x="303.119" y="-358.471" font-family="FreeSans" font-size="10.00">6</text>
</a>
</g>
<!-- dir_b6602fa85e55c10ff974e6d590939819&#45;&gt;dir_a54d9e5dfc2a2dbb65ec20bef473969d -->
<g id="edge28" class="edge"><title>dir_b6602fa85e55c10ff974e6d590939819&#45;&gt;dir_a54d9e5dfc2a2dbb65ec20bef473969d</title>
<path fill="none" stroke="black" d="M177.023,-239.682C164.368,-209.75 142.71,-146.676 159,-96 162.189,-86.0801 167.996,-76.4429 174.127,-68.1672"/>
<polygon fill="black" stroke="black" points="177.067,-70.0919 180.537,-60.0811 171.582,-65.7434 177.067,-70.0919"/>
<a xlink:href="dir_000016_000009.html" target="_top" xlink:title="8">
<text text-anchor="middle" x="177.059" y="-72.1725" font-family="FreeSans" font-size="10.00">8</text>
</a>
</g>
<!-- dir_b6602fa85e55c10ff974e6d590939819&#45;&gt;dir_8bf842952c463ead18ee9fb35e4c5251 -->
<g id="edge30" class="edge"><title>dir_b6602fa85e55c10ff974e6d590939819&#45;&gt;dir_8bf842952c463ead18ee9fb35e4c5251</title>
<path fill="none" stroke="black" d="M186.447,-239.871C188.493,-215.67 192.25,-171.211 194.685,-142.393"/>
<polygon fill="black" stroke="black" points="198.193,-142.449 195.547,-132.189 191.218,-141.859 198.193,-142.449"/>
<a xlink:href="dir_000016_000012.html" target="_top" xlink:title="2">
<text text-anchor="middle" x="200.719" y="-143.769" font-family="FreeSans" font-size="10.00">2</text>
</a>
</g>
<!-- dir_b6602fa85e55c10ff974e6d590939819&#45;&gt;dir_3cc50e07c07b6e5dfebd896073e0298f -->
<g id="edge32" class="edge"><title>dir_b6602fa85e55c10ff974e6d590939819&#45;&gt;dir_3cc50e07c07b6e5dfebd896073e0298f</title>
<path fill="none" stroke="black" d="M193.916,-239.697C200.307,-231.22 208.997,-220.864 217.452,-211.583"/>
<polygon fill="black" stroke="black" points="220.171,-213.799 224.444,-204.104 215.058,-209.019 220.171,-213.799"/>
<a xlink:href="dir_000016_000002.html" target="_top" xlink:title="2">
<text text-anchor="middle" x="219.79" y="-215.864" font-family="FreeSans" font-size="10.00">2</text>
</a>
</g>
<!-- dir_28819bef72f6570b005694d295d15d08&#45;&gt;dir_a54d9e5dfc2a2dbb65ec20bef473969d -->
<g id="edge44" class="edge"><title>dir_28819bef72f6570b005694d295d15d08&#45;&gt;dir_a54d9e5dfc2a2dbb65ec20bef473969d</title>
<path fill="none" stroke="black" d="M330.786,-239.7C323.881,-221.337 311.859,-191.75 298,-168 277.839,-133.452 269.291,-126.99 244,-96 236.38,-86.6626 227.706,-76.7072 219.902,-67.9754"/>
<polygon fill="black" stroke="black" points="222.329,-65.44 213.035,-60.3531 217.128,-70.1254 222.329,-65.44"/>
<a xlink:href="dir_000006_000009.html" target="_top" xlink:title="23">
<text text-anchor="middle" x="226.844" y="-63.7102" font-family="FreeSans" font-size="10.00">23</text>
</a>
</g>
<!-- dir_28819bef72f6570b005694d295d15d08&#45;&gt;dir_8bf842952c463ead18ee9fb35e4c5251 -->
<g id="edge46" class="edge"><title>dir_28819bef72f6570b005694d295d15d08&#45;&gt;dir_8bf842952c463ead18ee9fb35e4c5251</title>
<path fill="none" stroke="black" d="M326.659,-239.662C312.132,-215.451 286.805,-173.813 281,-168 267.452,-154.435 249.829,-142.656 234.224,-133.671"/>
<polygon fill="black" stroke="black" points="235.756,-130.517 225.316,-128.71 232.35,-136.633 235.756,-130.517"/>
<a xlink:href="dir_000006_000012.html" target="_top" xlink:title="1">
<text text-anchor="middle" x="240.278" y="-127.286" font-family="FreeSans" font-size="10.00">1</text>
</a>
</g>
<!-- dir_28819bef72f6570b005694d295d15d08&#45;&gt;dir_3cc50e07c07b6e5dfebd896073e0298f -->
<g id="edge48" class="edge"><title>dir_28819bef72f6570b005694d295d15d08&#45;&gt;dir_3cc50e07c07b6e5dfebd896073e0298f</title>
<path fill="none" stroke="black" d="M314.258,-239.697C302.56,-230.796 288.139,-219.823 275.49,-210.199"/>
<polygon fill="black" stroke="black" points="277.558,-207.374 267.48,-204.104 273.319,-212.945 277.558,-207.374"/>
<a xlink:href="dir_000006_000002.html" target="_top" xlink:title="2">
<text text-anchor="middle" x="282.138" y="-204.791" font-family="FreeSans" font-size="10.00">2</text>
</a>
</g>
<!-- dir_8bf842952c463ead18ee9fb35e4c5251&#45;&gt;dir_a54d9e5dfc2a2dbb65ec20bef473969d -->
<g id="edge50" class="edge"><title>dir_8bf842952c463ead18ee9fb35e4c5251&#45;&gt;dir_a54d9e5dfc2a2dbb65ec20bef473969d</title>
<path fill="none" stroke="black" d="M197,-95.6966C197,-87.9827 197,-78.7125 197,-70.1124"/>
<polygon fill="black" stroke="black" points="200.5,-70.1043 197,-60.1043 193.5,-70.1044 200.5,-70.1043"/>
<a xlink:href="dir_000012_000009.html" target="_top" xlink:title="22">
<text text-anchor="middle" x="203.339" y="-71.199" font-family="FreeSans" font-size="10.00">22</text>
</a>
</g>
<!-- dir_f46b18a6c00d0db8bc9244fc17f43dd7&#45;&gt;dir_a54d9e5dfc2a2dbb65ec20bef473969d -->
<g id="edge36" class="edge"><title>dir_f46b18a6c00d0db8bc9244fc17f43dd7&#45;&gt;dir_a54d9e5dfc2a2dbb65ec20bef473969d</title>
<path fill="none" stroke="black" d="M118.712,-321.341C97.1758,-313.697 68.5759,-299.618 55,-276 47.0263,-262.128 51.2808,-255.562 55,-240 71.6791,-170.211 82.188,-151.226 128,-96 137.468,-84.5868 149.821,-74.1329 161.455,-65.5811"/>
<polygon fill="black" stroke="black" points="163.612,-68.3418 169.747,-59.7037 159.564,-62.6309 163.612,-68.3418"/>
<a xlink:href="dir_000022_000009.html" target="_top" xlink:title="5">
<text text-anchor="middle" x="162.322" y="-70.2368" font-family="FreeSans" font-size="10.00">5</text>
</a>
</g>
<!-- dir_f46b18a6c00d0db8bc9244fc17f43dd7&#45;&gt;dir_28819bef72f6570b005694d295d15d08 -->
<g id="edge38" class="edge"><title>dir_f46b18a6c00d0db8bc9244fc17f43dd7&#45;&gt;dir_28819bef72f6570b005694d295d15d08</title>
<path fill="none" stroke="black" d="M173.366,-318.971C206.791,-306.721 263.452,-285.955 300.548,-272.359"/>
<polygon fill="black" stroke="black" points="301.809,-275.625 309.994,-268.898 299.4,-269.053 301.809,-275.625"/>
<a xlink:href="dir_000022_000006.html" target="_top" xlink:title="2">
<text text-anchor="middle" x="299.411" y="-277.028" font-family="FreeSans" font-size="10.00">2</text>
</a>
</g>
<!-- dir_f46b18a6c00d0db8bc9244fc17f43dd7&#45;&gt;dir_8bf842952c463ead18ee9fb35e4c5251 -->
<g id="edge40" class="edge"><title>dir_f46b18a6c00d0db8bc9244fc17f43dd7&#45;&gt;dir_8bf842952c463ead18ee9fb35e4c5251</title>
<path fill="none" stroke="black" d="M144.902,-311.742C144.142,-293.666 144.02,-264.545 149,-240 156.182,-204.602 172.327,-166.126 183.911,-141.349"/>
<polygon fill="black" stroke="black" points="187.107,-142.778 188.25,-132.245 180.788,-139.765 187.107,-142.778"/>
<a xlink:href="dir_000022_000012.html" target="_top" xlink:title="3">
<text text-anchor="middle" x="188.123" y="-144.744" font-family="FreeSans" font-size="10.00">3</text>
</a>
</g>
<!-- dir_f46b18a6c00d0db8bc9244fc17f43dd7&#45;&gt;dir_3cc50e07c07b6e5dfebd896073e0298f -->
<g id="edge42" class="edge"><title>dir_f46b18a6c00d0db8bc9244fc17f43dd7&#45;&gt;dir_3cc50e07c07b6e5dfebd896073e0298f</title>
<path fill="none" stroke="black" d="M173.263,-315.888C189.388,-306.808 208.952,-293.256 221,-276 233.772,-257.707 239.751,-232.943 242.548,-214.181"/>
<polygon fill="black" stroke="black" points="246.029,-214.553 243.826,-204.189 239.085,-213.664 246.029,-214.553"/>
<a xlink:href="dir_000022_000002.html" target="_top" xlink:title="2">
<text text-anchor="middle" x="248.389" y="-215.978" font-family="FreeSans" font-size="10.00">2</text>
</a>
</g>
<!-- dir_f46b18a6c00d0db8bc9244fc17f43dd7&#45;&gt;dir_e06e40b6a3c4e04950e39aba62791861 -->
<g id="edge34" class="edge"><title>dir_f46b18a6c00d0db8bc9244fc17f43dd7&#45;&gt;dir_e06e40b6a3c4e04950e39aba62791861</title>
<path fill="none" stroke="black" d="M132.652,-311.697C126.243,-303.389 118.442,-293.277 111.394,-284.141"/>
<polygon fill="black" stroke="black" points="114.074,-281.884 105.195,-276.104 108.532,-286.16 114.074,-281.884"/>
<a xlink:href="dir_000022_000008.html" target="_top" xlink:title="1">
<text text-anchor="middle" x="118.518" y="-280.496" font-family="FreeSans" font-size="10.00">1</text>
</a>
</g>
<!-- dir_20976ed89c5a0b583d16a4cc919b8652&#45;&gt;dir_a54d9e5dfc2a2dbb65ec20bef473969d -->
<g id="edge58" class="edge"><title>dir_20976ed89c5a0b583d16a4cc919b8652&#45;&gt;dir_a54d9e5dfc2a2dbb65ec20bef473969d</title>
<path fill="none" stroke="black" d="M393.433,-167.796C388.424,-147.824 377.416,-115.182 356,-96 321.921,-65.4755 269.723,-52.4535 234.52,-46.949"/>
<polygon fill="black" stroke="black" points="234.574,-43.4213 224.179,-45.4711 233.584,-50.3508 234.574,-43.4213"/>
<a xlink:href="dir_000023_000009.html" target="_top" xlink:title="3">
<text text-anchor="middle" x="238.534" y="-38.6191" font-family="FreeSans" font-size="10.00">3</text>
</a>
</g>
<!-- dir_3cc50e07c07b6e5dfebd896073e0298f&#45;&gt;dir_a54d9e5dfc2a2dbb65ec20bef473969d -->
<g id="edge52" class="edge"><title>dir_3cc50e07c07b6e5dfebd896073e0298f&#45;&gt;dir_a54d9e5dfc2a2dbb65ec20bef473969d</title>
<path fill="none" stroke="black" d="M245.297,-167.678C245.062,-149.297 243.087,-119.695 234,-96 230.302,-86.3573 224.481,-76.798 218.541,-68.5084"/>
<polygon fill="black" stroke="black" points="221.217,-66.2433 212.393,-60.379 215.634,-70.466 221.217,-66.2433"/>
<a xlink:href="dir_000002_000009.html" target="_top" xlink:title="36">
<text text-anchor="middle" x="225.649" y="-64.8975" font-family="FreeSans" font-size="10.00">36</text>
</a>
</g>
<!-- dir_3cc50e07c07b6e5dfebd896073e0298f&#45;&gt;dir_b6602fa85e55c10ff974e6d590939819 -->
<g id="edge54" class="edge"><title>dir_3cc50e07c07b6e5dfebd896073e0298f&#45;&gt;dir_b6602fa85e55c10ff974e6d590939819</title>
<path fill="none" stroke="black" d="M236.234,-204.104C229.879,-212.552 221.206,-222.901 212.747,-232.199"/>
<polygon fill="black" stroke="black" points="210.013,-229.998 205.747,-239.697 215.13,-234.775 210.013,-229.998"/>
<a xlink:href="dir_000002_000016.html" target="_top" xlink:title="1">
<text text-anchor="middle" x="210.39" y="-222.933" font-family="FreeSans" font-size="10.00">1</text>
</a>
</g>
<!-- dir_3cc50e07c07b6e5dfebd896073e0298f&#45;&gt;dir_8bf842952c463ead18ee9fb35e4c5251 -->
<g id="edge56" class="edge"><title>dir_3cc50e07c07b6e5dfebd896073e0298f&#45;&gt;dir_8bf842952c463ead18ee9fb35e4c5251</title>
<path fill="none" stroke="black" d="M233.135,-167.697C227.497,-159.474 220.646,-149.483 214.431,-140.421"/>
<polygon fill="black" stroke="black" points="217.271,-138.372 208.729,-132.104 211.497,-142.331 217.271,-138.372"/>
<a xlink:href="dir_000002_000012.html" target="_top" xlink:title="1">
<text text-anchor="middle" x="221.645" y="-137.231" font-family="FreeSans" font-size="10.00">1</text>
</a>
</g>
<!-- dir_27c871881f99b5d19593ee4ab0e66513 -->
<g id="node11" class="node"><title>dir_27c871881f99b5d19593ee4ab0e66513</title>
<a xlink:href="dir_27c871881f99b5d19593ee4ab0e66513.html" target="_top" xlink:title="tpx">
<polygon fill="white" stroke="black" points="132,-420 78,-420 78,-384 132,-384 132,-420"/>
<text text-anchor="middle" x="105" y="-399.5" font-family="FreeSans" font-size="10.00">tpx</text>
</a>
</g>
<!-- dir_e06e40b6a3c4e04950e39aba62791861&#45;&gt;dir_a54d9e5dfc2a2dbb65ec20bef473969d -->
<g id="edge22" class="edge"><title>dir_e06e40b6a3c4e04950e39aba62791861&#45;&gt;dir_a54d9e5dfc2a2dbb65ec20bef473969d</title>
<path fill="none" stroke="black" d="M95.9499,-239.611C103.386,-209.03 121.342,-144.288 150,-96 155.959,-85.9595 163.962,-76.077 171.674,-67.6161"/>
<polygon fill="black" stroke="black" points="174.281,-69.9533 178.607,-60.2819 169.194,-65.1446 174.281,-69.9533"/>
<a xlink:href="dir_000008_000009.html" target="_top" xlink:title="12">
<text text-anchor="middle" x="173.875" y="-72.0159" font-family="FreeSans" font-size="10.00">12</text>
</a>
</g>
<!-- dir_e06e40b6a3c4e04950e39aba62791861&#45;&gt;dir_8bf842952c463ead18ee9fb35e4c5251 -->
<g id="edge24" class="edge"><title>dir_e06e40b6a3c4e04950e39aba62791861&#45;&gt;dir_8bf842952c463ead18ee9fb35e4c5251</title>
<path fill="none" stroke="black" d="M101.175,-239.932C111.387,-221.506 128.856,-191.625 147,-168 154.509,-158.223 163.546,-148.209 171.861,-139.556"/>
<polygon fill="black" stroke="black" points="174.429,-141.935 178.924,-132.342 169.427,-137.038 174.429,-141.935"/>
<a xlink:href="dir_000008_000012.html" target="_top" xlink:title="10">
<text text-anchor="middle" x="173.943" y="-143.99" font-family="FreeSans" font-size="10.00">10</text>
</a>
</g>
<!-- dir_e06e40b6a3c4e04950e39aba62791861&#45;&gt;dir_3cc50e07c07b6e5dfebd896073e0298f -->
<g id="edge26" class="edge"><title>dir_e06e40b6a3c4e04950e39aba62791861&#45;&gt;dir_3cc50e07c07b6e5dfebd896073e0298f</title>
<path fill="none" stroke="black" d="M119.353,-244.485C144.265,-233.088 181.235,-216.174 208.629,-203.64"/>
<polygon fill="black" stroke="black" points="210.246,-206.749 217.883,-199.406 207.334,-200.384 210.246,-206.749"/>
<a xlink:href="dir_000008_000002.html" target="_top" xlink:title="1">
<text text-anchor="middle" x="208.159" y="-208.327" font-family="FreeSans" font-size="10.00">1</text>
</a>
</g>
<!-- dir_c2f88de04d55f3b00cc7dddcabb0c3f5&#45;&gt;dir_a54d9e5dfc2a2dbb65ec20bef473969d -->
<g id="edge60" class="edge"><title>dir_c2f88de04d55f3b00cc7dddcabb0c3f5&#45;&gt;dir_a54d9e5dfc2a2dbb65ec20bef473969d</title>
<path fill="none" stroke="black" d="M356.039,-311.837C365.176,-302.3 375.168,-289.624 380,-276 385.348,-260.92 385.322,-255.089 380,-240 366.333,-201.248 293.184,-124.927 264,-96 253.405,-85.4981 240.792,-75.0667 229.383,-66.2716"/>
<polygon fill="black" stroke="black" points="231.42,-63.4238 221.334,-60.1791 227.195,-69.0052 231.42,-63.4238"/>
<a xlink:href="dir_000020_000009.html" target="_top" xlink:title="8">
<text text-anchor="middle" x="235.999" y="-60.8295" font-family="FreeSans" font-size="10.00">8</text>
</a>
</g>
<!-- dir_c2f88de04d55f3b00cc7dddcabb0c3f5&#45;&gt;dir_28819bef72f6570b005694d295d15d08 -->
<g id="edge62" class="edge"><title>dir_c2f88de04d55f3b00cc7dddcabb0c3f5&#45;&gt;dir_28819bef72f6570b005694d295d15d08</title>
<path fill="none" stroke="black" d="M337,-311.697C337,-303.983 337,-294.712 337,-286.112"/>
<polygon fill="black" stroke="black" points="340.5,-286.104 337,-276.104 333.5,-286.104 340.5,-286.104"/>
<a xlink:href="dir_000020_000006.html" target="_top" xlink:title="1">
<text text-anchor="middle" x="343.339" y="-287.199" font-family="FreeSans" font-size="10.00">1</text>
</a>
</g>
<!-- dir_c2f88de04d55f3b00cc7dddcabb0c3f5&#45;&gt;dir_8bf842952c463ead18ee9fb35e4c5251 -->
<g id="edge64" class="edge"><title>dir_c2f88de04d55f3b00cc7dddcabb0c3f5&#45;&gt;dir_8bf842952c463ead18ee9fb35e4c5251</title>
<path fill="none" stroke="black" d="M352.61,-311.774C360.373,-302.03 368.946,-289.184 373,-276 377.703,-260.707 379.273,-254.719 373,-240 363.941,-218.746 316.748,-181.501 298,-168 278.391,-153.878 254.526,-141.177 234.919,-131.75"/>
<polygon fill="black" stroke="black" points="236.211,-128.49 225.673,-127.394 233.228,-134.822 236.211,-128.49"/>
<a xlink:href="dir_000020_000012.html" target="_top" xlink:title="4">
<text text-anchor="middle" x="240.673" y="-124.954" font-family="FreeSans" font-size="10.00">4</text>
</a>
</g>
<!-- dir_c2f88de04d55f3b00cc7dddcabb0c3f5&#45;&gt;dir_3cc50e07c07b6e5dfebd896073e0298f -->
<g id="edge66" class="edge"><title>dir_c2f88de04d55f3b00cc7dddcabb0c3f5&#45;&gt;dir_3cc50e07c07b6e5dfebd896073e0298f</title>
<path fill="none" stroke="black" d="M325.173,-311.916C318.074,-301.58 308.914,-288.102 301,-276 287.217,-254.923 272.026,-230.717 260.948,-212.875"/>
<polygon fill="black" stroke="black" points="263.801,-210.833 255.559,-204.175 257.85,-214.519 263.801,-210.833"/>
<a xlink:href="dir_000020_000002.html" target="_top" xlink:title="1">
<text text-anchor="middle" x="268.107" y="-209.894" font-family="FreeSans" font-size="10.00">1</text>
</a>
</g>
</g>
</svg>
