<?xml version="1.0" encoding="UTF-8" standalone="no"?>
<!DOCTYPE svg PUBLIC "-//W3C//DTD SVG 1.1//EN"
 "http://www.w3.org/Graphics/SVG/1.1/DTD/svg11.dtd">
<!-- Generated by graphviz version 2.28.0 (20120425.2022)
 -->
<!-- Title: oneD Pages: 1 -->
<svg width="193pt" height="367pt"
 viewBox="0.00 0.00 192.88 367.00" xmlns="http://www.w3.org/2000/svg" xmlns:xlink="http://www.w3.org/1999/xlink">
<g id="graph1" class="graph" transform="scale(1 1) rotate(0) translate(4 363)">
<title>oneD</title>
<polygon fill="white" stroke="white" points="-4,5 -4,-363 189.881,-363 189.881,5 -4,5"/>
<g id="graph2" class="cluster"><title>clusterdir_6fbe91f1050ba110875dc8b0702a61ee</title>
<a xlink:href="dir_6fbe91f1050ba110875dc8b0702a61ee.html" target="_top" xlink:title="cantera">
<polygon fill="#ddddee" stroke="black" points="10.8814,-280 10.8814,-351 80.8814,-351 80.8814,-280 10.8814,-280"/>
<text text-anchor="middle" x="45.8814" y="-339" font-family="FreeSans" font-size="10.00">cantera</text>
</a>
</g>
<!-- dir_f46b18a6c00d0db8bc9244fc17f43dd7 -->
<g id="node2" class="node"><title>dir_f46b18a6c00d0db8bc9244fc17f43dd7</title>
<a xlink:href="dir_f46b18a6c00d0db8bc9244fc17f43dd7.html" target="_top" xlink:title="oneD">
<polygon fill="#eeeeff" stroke="black" points="72.8814,-324 18.8814,-324 18.8814,-288 72.8814,-288 72.8814,-324"/>
<text text-anchor="middle" x="45.8814" y="-303.5" font-family="FreeSans" font-size="10.00">oneD</text>
</a>
</g>
<!-- dir_e06e40b6a3c4e04950e39aba62791861 -->
<g id="node3" class="node"><title>dir_e06e40b6a3c4e04950e39aba62791861</title>
<a xlink:href="dir_e06e40b6a3c4e04950e39aba62791861.html" target="_top" xlink:title="transport">
<polygon fill="none" stroke="black" points="184.131,-252 129.631,-252 129.631,-216 184.131,-216 184.131,-252"/>
<text text-anchor="middle" x="156.881" y="-231.5" font-family="FreeSans" font-size="10.00">transport</text>
</a>
</g>
<!-- dir_f46b18a6c00d0db8bc9244fc17f43dd7&#45;&gt;dir_e06e40b6a3c4e04950e39aba62791861 -->
<g id="edge9" class="edge"><title>dir_f46b18a6c00d0db8bc9244fc17f43dd7&#45;&gt;dir_e06e40b6a3c4e04950e39aba62791861</title>
<path fill="none" stroke="black" d="M73.0351,-287.876C87.414,-278.808 105.263,-267.552 120.792,-257.759"/>
<polygon fill="black" stroke="black" points="123.032,-260.484 129.623,-252.19 119.298,-254.564 123.032,-260.484"/>
<a xlink:href="dir_000022_000008.html" target="_top" xlink:title="1">
<text text-anchor="middle" x="121.506" y="-262.303" font-family="FreeSans" font-size="10.00">1</text>
</a>
</g>
<!-- dir_a54d9e5dfc2a2dbb65ec20bef473969d -->
<g id="node4" class="node"><title>dir_a54d9e5dfc2a2dbb65ec20bef473969d</title>
<a xlink:href="dir_a54d9e5dfc2a2dbb65ec20bef473969d.html" target="_top" xlink:title="base">
<polygon fill="none" stroke="black" points="92.8814,-36 38.8814,-36 38.8814,-0 92.8814,-0 92.8814,-36"/>
<text text-anchor="middle" x="65.8814" y="-15.5" font-family="FreeSans" font-size="10.00">base</text>
</a>
</g>
<!-- dir_f46b18a6c00d0db8bc9244fc17f43dd7&#45;&gt;dir_a54d9e5dfc2a2dbb65ec20bef473969d -->
<g id="edge11" class="edge"><title>dir_f46b18a6c00d0db8bc9244fc17f43dd7&#45;&gt;dir_a54d9e5dfc2a2dbb65ec20bef473969d</title>
<path fill="none" stroke="black" d="M26.8423,-287.837C17.7054,-278.3 7.71315,-265.624 2.88144,-252 -2.46646,-236.92 2.05148,-231.978 2.88144,-216 6.21927,-151.74 -8.34838,-130.757 17.8814,-72 22.5307,-61.5852 30.0252,-51.8194 37.724,-43.5783"/>
<polygon fill="black" stroke="black" points="40.222,-46.03 44.7758,-36.4637 35.2503,-41.1022 40.222,-46.03"/>
<a xlink:href="dir_000022_000009.html" target="_top" xlink:title="5">
<text text-anchor="middle" x="39.708" y="-48.0817" font-family="FreeSans" font-size="10.00">5</text>
</a>
</g>
<!-- dir_28819bef72f6570b005694d295d15d08 -->
<g id="node5" class="node"><title>dir_28819bef72f6570b005694d295d15d08</title>
<a xlink:href="dir_28819bef72f6570b005694d295d15d08.html" target="_top" xlink:title="kinetics">
<polygon fill="none" stroke="black" points="72.8814,-252 18.8814,-252 18.8814,-216 72.8814,-216 72.8814,-252"/>
<text text-anchor="middle" x="45.8814" y="-231.5" font-family="FreeSans" font-size="10.00">kinetics</text>
</a>
</g>
<!-- dir_f46b18a6c00d0db8bc9244fc17f43dd7&#45;&gt;dir_28819bef72f6570b005694d295d15d08 -->
<g id="edge13" class="edge"><title>dir_f46b18a6c00d0db8bc9244fc17f43dd7&#45;&gt;dir_28819bef72f6570b005694d295d15d08</title>
<path fill="none" stroke="black" d="M45.8814,-287.697C45.8814,-279.983 45.8814,-270.712 45.8814,-262.112"/>
<polygon fill="black" stroke="black" points="49.3815,-262.104 45.8814,-252.104 42.3815,-262.104 49.3815,-262.104"/>
<a xlink:href="dir_000022_000006.html" target="_top" xlink:title="2">
<text text-anchor="middle" x="52.2207" y="-263.199" font-family="FreeSans" font-size="10.00">2</text>
</a>
</g>
<!-- dir_8bf842952c463ead18ee9fb35e4c5251 -->
<g id="node6" class="node"><title>dir_8bf842952c463ead18ee9fb35e4c5251</title>
<a xlink:href="dir_8bf842952c463ead18ee9fb35e4c5251.html" target="_top" xlink:title="numerics">
<polygon fill="none" stroke="black" points="94.1314,-108 37.6314,-108 37.6314,-72 94.1314,-72 94.1314,-108"/>
<text text-anchor="middle" x="65.8814" y="-87.5" font-family="FreeSans" font-size="10.00">numerics</text>
</a>
</g>
<!-- dir_f46b18a6c00d0db8bc9244fc17f43dd7&#45;&gt;dir_8bf842952c463ead18ee9fb35e4c5251 -->
<g id="edge15" class="edge"><title>dir_f46b18a6c00d0db8bc9244fc17f43dd7&#45;&gt;dir_8bf842952c463ead18ee9fb35e4c5251</title>
<path fill="none" stroke="black" d="M30.2715,-287.774C22.5085,-278.03 13.9355,-265.184 9.88144,-252 5.17865,-236.707 6.53678,-231.647 9.88144,-216 17.6392,-179.709 36.75,-141.211 50.4887,-116.684"/>
<polygon fill="black" stroke="black" points="53.5281,-118.419 55.4563,-108.001 47.4523,-114.943 53.5281,-118.419"/>
<a xlink:href="dir_000022_000012.html" target="_top" xlink:title="3">
<text text-anchor="middle" x="54.2075" y="-120.449" font-family="FreeSans" font-size="10.00">3</text>
</a>
</g>
<!-- dir_3cc50e07c07b6e5dfebd896073e0298f -->
<g id="node7" class="node"><title>dir_3cc50e07c07b6e5dfebd896073e0298f</title>
<a xlink:href="dir_3cc50e07c07b6e5dfebd896073e0298f.html" target="_top" xlink:title="thermo">
<polygon fill="none" stroke="black" points="128.881,-180 74.8814,-180 74.8814,-144 128.881,-144 128.881,-180"/>
<text text-anchor="middle" x="101.881" y="-159.5" font-family="FreeSans" font-size="10.00">thermo</text>
</a>
</g>
<!-- dir_f46b18a6c00d0db8bc9244fc17f43dd7&#45;&gt;dir_3cc50e07c07b6e5dfebd896073e0298f -->
<g id="edge17" class="edge"><title>dir_f46b18a6c00d0db8bc9244fc17f43dd7&#45;&gt;dir_3cc50e07c07b6e5dfebd896073e0298f</title>
<path fill="none" stroke="black" d="M59.9927,-287.828C67.5015,-277.9 76.3095,-264.86 81.8814,-252 90.4202,-232.292 95.5249,-208.487 98.4376,-190.457"/>
<polygon fill="black" stroke="black" points="101.935,-190.731 99.9439,-180.325 95.0114,-189.702 101.935,-190.731"/>
<a xlink:href="dir_000022_000002.html" target="_top" xlink:title="2">
<text text-anchor="middle" x="104.215" y="-192.204" font-family="FreeSans" font-size="10.00">2</text>
</a>
</g>
<!-- dir_e06e40b6a3c4e04950e39aba62791861&#45;&gt;dir_a54d9e5dfc2a2dbb65ec20bef473969d -->
<g id="edge3" class="edge"><title>dir_e06e40b6a3c4e04950e39aba62791861&#45;&gt;dir_a54d9e5dfc2a2dbb65ec20bef473969d</title>
<path fill="none" stroke="black" d="M159.932,-215.965C162.567,-197.824 165.07,-168.42 158.881,-144 149.941,-108.722 141.778,-101.069 119.881,-72 112.163,-61.7535 102.475,-51.6119 93.444,-42.9863"/>
<polygon fill="black" stroke="black" points="95.7759,-40.3754 86.0696,-36.1283 91.0089,-45.5014 95.7759,-40.3754"/>
<a xlink:href="dir_000008_000009.html" target="_top" xlink:title="12">
<text text-anchor="middle" x="100.342" y="-38.2441" font-family="FreeSans" font-size="10.00">12</text>
</a>
</g>
<!-- dir_e06e40b6a3c4e04950e39aba62791861&#45;&gt;dir_8bf842952c463ead18ee9fb35e4c5251 -->
<g id="edge5" class="edge"><title>dir_e06e40b6a3c4e04950e39aba62791861&#45;&gt;dir_8bf842952c463ead18ee9fb35e4c5251</title>
<path fill="none" stroke="black" d="M156.762,-215.904C155.873,-196.915 152.107,-166.034 137.881,-144 129.194,-130.544 115.813,-119.325 102.932,-110.726"/>
<polygon fill="black" stroke="black" points="104.485,-107.567 94.1587,-105.195 100.752,-113.489 104.485,-107.567"/>
<a xlink:href="dir_000008_000012.html" target="_top" xlink:title="10">
<text text-anchor="middle" x="109.04" y="-104.582" font-family="FreeSans" font-size="10.00">10</text>
</a>
</g>
<!-- dir_e06e40b6a3c4e04950e39aba62791861&#45;&gt;dir_3cc50e07c07b6e5dfebd896073e0298f -->
<g id="edge7" class="edge"><title>dir_e06e40b6a3c4e04950e39aba62791861&#45;&gt;dir_3cc50e07c07b6e5dfebd896073e0298f</title>
<path fill="none" stroke="black" d="M143.286,-215.697C136.759,-207.389 128.813,-197.277 121.635,-188.141"/>
<polygon fill="black" stroke="black" points="124.251,-185.805 115.321,-180.104 118.747,-190.13 124.251,-185.805"/>
<a xlink:href="dir_000008_000002.html" target="_top" xlink:title="1">
<text text-anchor="middle" x="128.704" y="-184.377" font-family="FreeSans" font-size="10.00">1</text>
</a>
</g>
<!-- dir_28819bef72f6570b005694d295d15d08&#45;&gt;dir_a54d9e5dfc2a2dbb65ec20bef473969d -->
<g id="edge19" class="edge"><title>dir_28819bef72f6570b005694d295d15d08&#45;&gt;dir_a54d9e5dfc2a2dbb65ec20bef473969d</title>
<path fill="none" stroke="black" d="M39.321,-215.611C28.9926,-185.571 11.7,-122.339 27.8814,-72 31.0702,-62.0801 36.8773,-52.4429 43.0081,-44.1672"/>
<polygon fill="black" stroke="black" points="45.9487,-46.0919 49.418,-36.0811 40.4631,-41.7434 45.9487,-46.0919"/>
<a xlink:href="dir_000006_000009.html" target="_top" xlink:title="23">
<text text-anchor="middle" x="45.9407" y="-48.1725" font-family="FreeSans" font-size="10.00">23</text>
</a>
</g>
<!-- dir_28819bef72f6570b005694d295d15d08&#45;&gt;dir_8bf842952c463ead18ee9fb35e4c5251 -->
<g id="edge21" class="edge"><title>dir_28819bef72f6570b005694d295d15d08&#45;&gt;dir_8bf842952c463ead18ee9fb35e4c5251</title>
<path fill="none" stroke="black" d="M48.2939,-215.871C51.7025,-191.67 57.9644,-147.211 62.0232,-118.393"/>
<polygon fill="black" stroke="black" points="65.5314,-118.58 63.4604,-108.189 58.5999,-117.603 65.5314,-118.58"/>
<a xlink:href="dir_000006_000012.html" target="_top" xlink:title="1">
<text text-anchor="middle" x="67.8417" y="-120.035" font-family="FreeSans" font-size="10.00">1</text>
</a>
</g>
<!-- dir_28819bef72f6570b005694d295d15d08&#45;&gt;dir_3cc50e07c07b6e5dfebd896073e0298f -->
<g id="edge23" class="edge"><title>dir_28819bef72f6570b005694d295d15d08&#45;&gt;dir_3cc50e07c07b6e5dfebd896073e0298f</title>
<path fill="none" stroke="black" d="M59.7241,-215.697C66.37,-207.389 74.4598,-197.277 81.7689,-188.141"/>
<polygon fill="black" stroke="black" points="84.684,-190.099 88.198,-180.104 79.2179,-185.727 84.684,-190.099"/>
<a xlink:href="dir_000006_000002.html" target="_top" xlink:title="2">
<text text-anchor="middle" x="84.6556" y="-192.18" font-family="FreeSans" font-size="10.00">2</text>
</a>
</g>
<!-- dir_8bf842952c463ead18ee9fb35e4c5251&#45;&gt;dir_a54d9e5dfc2a2dbb65ec20bef473969d -->
<g id="edge25" class="edge"><title>dir_8bf842952c463ead18ee9fb35e4c5251&#45;&gt;dir_a54d9e5dfc2a2dbb65ec20bef473969d</title>
<path fill="none" stroke="black" d="M65.8814,-71.6966C65.8814,-63.9827 65.8814,-54.7125 65.8814,-46.1124"/>
<polygon fill="black" stroke="black" points="69.3815,-46.1043 65.8814,-36.1043 62.3815,-46.1044 69.3815,-46.1043"/>
<a xlink:href="dir_000012_000009.html" target="_top" xlink:title="22">
<text text-anchor="middle" x="72.2207" y="-47.199" font-family="FreeSans" font-size="10.00">22</text>
</a>
</g>
<!-- dir_3cc50e07c07b6e5dfebd896073e0298f&#45;&gt;dir_a54d9e5dfc2a2dbb65ec20bef473969d -->
<g id="edge27" class="edge"><title>dir_3cc50e07c07b6e5dfebd896073e0298f&#45;&gt;dir_a54d9e5dfc2a2dbb65ec20bef473969d</title>
<path fill="none" stroke="black" d="M105.173,-143.81C107.967,-125.539 110.439,-96.0269 102.881,-72 99.7828,-62.1483 94.1303,-52.5302 88.1605,-44.2511"/>
<polygon fill="black" stroke="black" points="90.7959,-41.9371 81.9183,-36.1544 85.2522,-46.2111 90.7959,-41.9371"/>
<a xlink:href="dir_000002_000009.html" target="_top" xlink:title="36">
<text text-anchor="middle" x="95.2392" y="-40.5503" font-family="FreeSans" font-size="10.00">36</text>
</a>
</g>
<!-- dir_3cc50e07c07b6e5dfebd896073e0298f&#45;&gt;dir_8bf842952c463ead18ee9fb35e4c5251 -->
<g id="edge29" class="edge"><title>dir_3cc50e07c07b6e5dfebd896073e0298f&#45;&gt;dir_8bf842952c463ead18ee9fb35e4c5251</title>
<path fill="none" stroke="black" d="M92.9826,-143.697C88.8846,-135.728 83.9326,-126.1 79.3887,-117.264"/>
<polygon fill="black" stroke="black" points="82.364,-115.396 74.678,-108.104 76.139,-118.598 82.364,-115.396"/>
<a xlink:href="dir_000002_000012.html" target="_top" xlink:title="1">
<text text-anchor="middle" x="86.5329" y="-114.795" font-family="FreeSans" font-size="10.00">1</text>
</a>
</g>
</g>
</svg>
