<?xml version="1.0" encoding="UTF-8" standalone="no"?>
<!DOCTYPE svg PUBLIC "-//W3C//DTD SVG 1.1//EN"
 "http://www.w3.org/Graphics/SVG/1.1/DTD/svg11.dtd">
<!-- Generated by graphviz version 2.28.0 (20120425.2022)
 -->
<!-- Title: equilibrium.h Pages: 1 -->
<svg width="658pt" height="308pt"
 viewBox="0.00 0.00 658.11 308.00" xmlns="http://www.w3.org/2000/svg" xmlns:xlink="http://www.w3.org/1999/xlink">
<g id="graph1" class="graph" transform="scale(1 1) rotate(0) translate(4 304)">
<title>equilibrium.h</title>
<polygon fill="white" stroke="white" points="-4,5 -4,-304 655.114,-304 655.114,5 -4,5"/>
<!-- Node1 -->
<g id="node1" class="node"><title>Node1</title>
<polygon fill="#bfbfbf" stroke="black" points="368.114,-280.5 368.114,-299.5 440.114,-299.5 440.114,-280.5 368.114,-280.5"/>
<text text-anchor="middle" x="404.114" y="-287.5" font-family="FreeSans" font-size="10.00">equilibrium.h</text>
</g>
<!-- Node2 -->
<g id="node3" class="node"><title>Node2</title>
<a xlink:href="equil_8h.html" target="_top" xlink:title="This file contains the definition of some high level general equilibration routines and the text for ...">
<polygon fill="white" stroke="black" points="419.614,-168.5 419.614,-187.5 490.614,-187.5 490.614,-168.5 419.614,-168.5"/>
<text text-anchor="middle" x="455.114" y="-175.5" font-family="FreeSans" font-size="10.00">equil/equil.h</text>
</a>
</g>
<!-- Node1&#45;&gt;Node2 -->
<g id="edge2" class="edge"><title>Node1&#45;&gt;Node2</title>
<path fill="none" stroke="midnightblue" d="M408.116,-280.368C416.42,-262.456 435.677,-220.923 446.792,-196.948"/>
<polygon fill="midnightblue" stroke="midnightblue" points="450.099,-198.136 451.13,-187.591 443.749,-195.192 450.099,-198.136"/>
</g>
<!-- Node8 -->
<g id="node16" class="node"><title>Node8</title>
<a xlink:href="ChemEquil_8h.html" target="_top" xlink:title="Chemical equilibrium.">
<polygon fill="white" stroke="black" points="163.114,-224.5 163.114,-243.5 261.114,-243.5 261.114,-224.5 163.114,-224.5"/>
<text text-anchor="middle" x="212.114" y="-231.5" font-family="FreeSans" font-size="10.00">equil/ChemEquil.h</text>
</a>
</g>
<!-- Node1&#45;&gt;Node8 -->
<g id="edge16" class="edge"><title>Node1&#45;&gt;Node8</title>
<path fill="none" stroke="midnightblue" d="M373.691,-280.444C340.829,-271.201 288.329,-256.436 252.139,-246.257"/>
<polygon fill="midnightblue" stroke="midnightblue" points="252.969,-242.855 242.394,-243.516 251.073,-249.593 252.969,-242.855"/>
</g>
<!-- Node11 -->
<g id="node26" class="node"><title>Node11</title>
<a xlink:href="MultiPhaseEquil_8h_source.html" target="_top" xlink:title="MultiPhaseEquil.h">
<polygon fill="white" stroke="black" points="306.614,-168.5 306.614,-187.5 401.614,-187.5 401.614,-168.5 306.614,-168.5"/>
<text text-anchor="middle" x="354.114" y="-175.5" font-family="FreeSans" font-size="10.00">MultiPhaseEquil.h</text>
</a>
</g>
<!-- Node1&#45;&gt;Node11 -->
<g id="edge38" class="edge"><title>Node1&#45;&gt;Node11</title>
<path fill="none" stroke="midnightblue" d="M400.19,-280.368C392.048,-262.456 373.17,-220.923 362.272,-196.948"/>
<polygon fill="midnightblue" stroke="midnightblue" points="365.343,-195.247 358.019,-187.591 358.971,-198.143 365.343,-195.247"/>
</g>
<!-- Node13 -->
<g id="node33" class="node"><title>Node13</title>
<a xlink:href="vcs__MultiPhaseEquil_8h.html" target="_top" xlink:title="Interface class for the vcsnonlinear solver.">
<polygon fill="white" stroke="black" points="508.614,-168.5 508.614,-187.5 649.614,-187.5 649.614,-168.5 508.614,-168.5"/>
<text text-anchor="middle" x="579.114" y="-175.5" font-family="FreeSans" font-size="10.00">equil/vcs_MultiPhaseEquil.h</text>
</a>
</g>
<!-- Node1&#45;&gt;Node13 -->
<g id="edge40" class="edge"><title>Node1&#45;&gt;Node13</title>
<path fill="none" stroke="midnightblue" d="M417.846,-280.368C448.004,-261.412 520.249,-216.001 556.933,-192.942"/>
<polygon fill="midnightblue" stroke="midnightblue" points="558.842,-195.876 565.446,-187.591 555.117,-189.95 558.842,-195.876"/>
</g>
<!-- Node3 -->
<g id="node5" class="node"><title>Node3</title>
<a xlink:href="MultiPhase_8h.html" target="_top" xlink:title="Headers for the MultiPhase object that is used to set up multiphase equilibrium problems (see Equilib...">
<polygon fill="white" stroke="black" points="417.114,-112.5 417.114,-131.5 491.114,-131.5 491.114,-112.5 417.114,-112.5"/>
<text text-anchor="middle" x="454.114" y="-119.5" font-family="FreeSans" font-size="10.00">MultiPhase.h</text>
</a>
</g>
<!-- Node2&#45;&gt;Node3 -->
<g id="edge4" class="edge"><title>Node2&#45;&gt;Node3</title>
<path fill="none" stroke="midnightblue" d="M454.949,-168.083C454.818,-161.006 454.63,-150.861 454.465,-141.986"/>
<polygon fill="midnightblue" stroke="midnightblue" points="457.96,-141.685 454.276,-131.751 450.962,-141.814 457.96,-141.685"/>
</g>
<!-- Node7 -->
<g id="node14" class="node"><title>Node7</title>
<a xlink:href="vcs__defs_8h.html" target="_top" xlink:title="Defines and definitions within the vcs package.">
<polygon fill="white" stroke="black" points="509.614,-112.5 509.614,-131.5 574.614,-131.5 574.614,-112.5 509.614,-112.5"/>
<text text-anchor="middle" x="542.114" y="-119.5" font-family="FreeSans" font-size="10.00">vcs_defs.h</text>
</a>
</g>
<!-- Node2&#45;&gt;Node7 -->
<g id="edge14" class="edge"><title>Node2&#45;&gt;Node7</title>
<path fill="none" stroke="midnightblue" d="M469.092,-168.324C482.663,-159.9 503.494,-146.971 519.439,-137.074"/>
<polygon fill="midnightblue" stroke="midnightblue" points="521.52,-139.902 528.17,-131.655 517.828,-133.954 521.52,-139.902"/>
</g>
<!-- Node4 -->
<g id="node7" class="node"><title>Node4</title>
<a xlink:href="ct__defs_8h.html" target="_top" xlink:title="This file contains definitions of terms that are used in internal routines and are unlikely to need m...">
<polygon fill="white" stroke="red" points="163.614,-0.5 163.614,-19.5 282.614,-19.5 282.614,-0.5 163.614,-0.5"/>
<text text-anchor="middle" x="223.114" y="-7.5" font-family="FreeSans" font-size="10.00">cantera/base/ct_defs.h</text>
</a>
</g>
<!-- Node3&#45;&gt;Node4 -->
<g id="edge6" class="edge"><title>Node3&#45;&gt;Node4</title>
<path fill="none" stroke="midnightblue" d="M485.675,-112.412C520.208,-101.513 567.94,-81.078 546.114,-56 513.967,-19.0644 377.806,-11.4973 292.863,-10.4743"/>
<polygon fill="midnightblue" stroke="midnightblue" points="292.801,-6.97364 282.769,-10.3804 292.736,-13.9733 292.801,-6.97364"/>
</g>
<!-- Node5 -->
<g id="node9" class="node"><title>Node5</title>
<a xlink:href="DenseMatrix_8h.html" target="_top" xlink:title="Headers for the DenseMatrix object, which deals with dense rectangular matrices and description of th...">
<polygon fill="white" stroke="red" points="197.614,-56.5 197.614,-75.5 358.614,-75.5 358.614,-56.5 197.614,-56.5"/>
<text text-anchor="middle" x="278.114" y="-63.5" font-family="FreeSans" font-size="10.00">cantera/numerics/DenseMatrix.h</text>
</a>
</g>
<!-- Node3&#45;&gt;Node5 -->
<g id="edge8" class="edge"><title>Node3&#45;&gt;Node5</title>
<path fill="none" stroke="midnightblue" d="M426.226,-112.444C396.36,-103.28 348.799,-88.6876 315.658,-78.5192"/>
<polygon fill="midnightblue" stroke="midnightblue" points="316.458,-75.1037 305.871,-75.5164 314.404,-81.7958 316.458,-75.1037"/>
</g>
<!-- Node6 -->
<g id="node12" class="node"><title>Node6</title>
<a xlink:href="ThermoPhase_8h.html" target="_top" xlink:title="Header file for class ThermoPhase, the base class for phases with thermodynamic properties, and the text for the Module thermoprops (see Thermodynamic Properties and class ThermoPhase).">
<polygon fill="white" stroke="red" points="377.114,-56.5 377.114,-75.5 537.114,-75.5 537.114,-56.5 377.114,-56.5"/>
<text text-anchor="middle" x="457.114" y="-63.5" font-family="FreeSans" font-size="10.00">cantera/thermo/ThermoPhase.h</text>
</a>
</g>
<!-- Node3&#45;&gt;Node6 -->
<g id="edge12" class="edge"><title>Node3&#45;&gt;Node6</title>
<path fill="none" stroke="midnightblue" d="M454.609,-112.083C455.002,-105.006 455.566,-94.8611 456.059,-85.9865"/>
<polygon fill="midnightblue" stroke="midnightblue" points="459.567,-85.9299 456.628,-75.7511 452.578,-85.5415 459.567,-85.9299"/>
</g>
<!-- Node5&#45;&gt;Node4 -->
<g id="edge10" class="edge"><title>Node5&#45;&gt;Node4</title>
<path fill="none" stroke="midnightblue" d="M269.032,-56.083C260.942,-48.1409 248.918,-36.3354 239.204,-26.7973"/>
<polygon fill="midnightblue" stroke="midnightblue" points="241.615,-24.2595 232.027,-19.7511 236.71,-29.2545 241.615,-24.2595"/>
</g>
<!-- Node8&#45;&gt;Node4 -->
<g id="edge18" class="edge"><title>Node8&#45;&gt;Node4</title>
<path fill="none" stroke="midnightblue" d="M162.902,-228.792C110.164,-223.143 31.5223,-211.036 13.1137,-188 -45.7834,-114.297 111.818,-48.7871 186.433,-22.835"/>
<polygon fill="midnightblue" stroke="midnightblue" points="187.623,-26.127 195.954,-19.5814 185.36,-19.5031 187.623,-26.127"/>
</g>
<!-- Node8&#45;&gt;Node5 -->
<g id="edge28" class="edge"><title>Node8&#45;&gt;Node5</title>
<path fill="none" stroke="midnightblue" d="M215.662,-224.075C226.096,-197.832 256.825,-120.545 270.911,-85.1165"/>
<polygon fill="midnightblue" stroke="midnightblue" points="274.265,-86.1537 274.707,-75.5681 267.76,-83.5675 274.265,-86.1537"/>
</g>
<!-- Node8&#45;&gt;Node6 -->
<g id="edge26" class="edge"><title>Node8&#45;&gt;Node6</title>
<path fill="none" stroke="midnightblue" d="M222.619,-224.477C238.451,-211.747 269.514,-187.206 297.114,-168 344.274,-135.182 401.68,-100.061 433.317,-81.1042"/>
<polygon fill="midnightblue" stroke="midnightblue" points="435.476,-83.8915 442.268,-75.7603 431.888,-77.8811 435.476,-83.8915"/>
</g>
<!-- Node9 -->
<g id="node19" class="node"><title>Node9</title>
<a xlink:href="vec__functions_8h.html" target="_top" xlink:title="Templates for operations on vector&#45;like objects.">
<polygon fill="white" stroke="red" points="57.6137,-112.5 57.6137,-131.5 204.614,-131.5 204.614,-112.5 57.6137,-112.5"/>
<text text-anchor="middle" x="131.114" y="-119.5" font-family="FreeSans" font-size="10.00">cantera/base/vec_functions.h</text>
</a>
</g>
<!-- Node8&#45;&gt;Node9 -->
<g id="edge20" class="edge"><title>Node8&#45;&gt;Node9</title>
<path fill="none" stroke="midnightblue" d="M194.024,-224.434C179.79,-216.794 160.515,-204.301 149.114,-188 139.571,-174.357 135.076,-155.817 132.965,-142.029"/>
<polygon fill="midnightblue" stroke="midnightblue" points="136.398,-141.27 131.694,-131.776 129.451,-142.131 136.398,-141.27"/>
</g>
<!-- Node10 -->
<g id="node22" class="node"><title>Node10</title>
<a xlink:href="ctexceptions_8h.html" target="_top" xlink:title="Definitions for the classes that are thrown when Cantera experiences an error condition (also contain...">
<polygon fill="white" stroke="red" points="22.1137,-168.5 22.1137,-187.5 102.114,-187.5 102.114,-168.5 22.1137,-168.5"/>
<text text-anchor="middle" x="62.1137" y="-175.5" font-family="FreeSans" font-size="10.00">ctexceptions.h</text>
</a>
</g>
<!-- Node8&#45;&gt;Node10 -->
<g id="edge24" class="edge"><title>Node8&#45;&gt;Node10</title>
<path fill="none" stroke="midnightblue" d="M188.346,-224.444C163.221,-215.399 123.403,-201.064 95.2133,-190.916"/>
<polygon fill="midnightblue" stroke="midnightblue" points="96.3649,-187.611 85.7705,-187.516 93.9938,-194.197 96.3649,-187.611"/>
</g>
<!-- Node8&#45;&gt;Node11 -->
<g id="edge30" class="edge"><title>Node8&#45;&gt;Node11</title>
<path fill="none" stroke="midnightblue" d="M234.614,-224.444C258.191,-215.478 295.436,-201.314 322.078,-191.183"/>
<polygon fill="midnightblue" stroke="midnightblue" points="323.616,-194.342 331.719,-187.516 321.128,-187.8 323.616,-194.342"/>
</g>
<!-- Node12 -->
<g id="node30" class="node"><title>Node12</title>
<polygon fill="white" stroke="#bfbfbf" points="158.614,-168.5 158.614,-187.5 211.614,-187.5 211.614,-168.5 158.614,-168.5"/>
<text text-anchor="middle" x="185.114" y="-175.5" font-family="FreeSans" font-size="10.00">memory</text>
</g>
<!-- Node8&#45;&gt;Node12 -->
<g id="edge36" class="edge"><title>Node8&#45;&gt;Node12</title>
<path fill="none" stroke="midnightblue" d="M207.655,-224.083C203.959,-216.691 198.59,-205.953 194.019,-196.811"/>
<polygon fill="midnightblue" stroke="midnightblue" points="197.092,-195.13 189.489,-187.751 190.831,-198.261 197.092,-195.13"/>
</g>
<!-- Node9&#45;&gt;Node4 -->
<g id="edge22" class="edge"><title>Node9&#45;&gt;Node4</title>
<path fill="none" stroke="midnightblue" d="M132.563,-112.148C135.124,-98.7745 141.519,-73.1613 155.114,-56 165.684,-42.6563 181.328,-31.9195 194.947,-24.2846"/>
<polygon fill="midnightblue" stroke="midnightblue" points="196.771,-27.2791 203.964,-19.5007 193.49,-21.0954 196.771,-27.2791"/>
</g>
<!-- Node11&#45;&gt;Node3 -->
<g id="edge34" class="edge"><title>Node11&#45;&gt;Node3</title>
<path fill="none" stroke="midnightblue" d="M370.18,-168.324C386.072,-159.743 410.621,-146.486 429.072,-136.522"/>
<polygon fill="midnightblue" stroke="midnightblue" points="430.951,-139.486 438.087,-131.655 427.625,-133.326 430.951,-139.486"/>
</g>
<!-- Node11&#45;&gt;Node4 -->
<g id="edge32" class="edge"><title>Node11&#45;&gt;Node4</title>
<path fill="none" stroke="midnightblue" d="M323.123,-168.411C283.609,-155.601 216.959,-127.315 188.114,-76 178.769,-59.3756 192.111,-40.1172 204.925,-26.9032"/>
<polygon fill="midnightblue" stroke="midnightblue" points="207.443,-29.3375 212.233,-19.887 202.595,-24.288 207.443,-29.3375"/>
</g>
<!-- Node13&#45;&gt;Node3 -->
<g id="edge44" class="edge"><title>Node13&#45;&gt;Node3</title>
<path fill="none" stroke="midnightblue" d="M559.307,-168.444C538.827,-159.596 506.631,-145.687 483.249,-135.586"/>
<polygon fill="midnightblue" stroke="midnightblue" points="484.396,-132.269 473.828,-131.516 481.62,-138.695 484.396,-132.269"/>
</g>
<!-- Node13&#45;&gt;Node4 -->
<g id="edge42" class="edge"><title>Node13&#45;&gt;Node4</title>
<path fill="none" stroke="midnightblue" d="M581.329,-168.428C586.635,-145.667 597.229,-83.5698 563.114,-56 522.799,-23.4202 380.057,-14.3414 292.857,-11.8668"/>
<polygon fill="midnightblue" stroke="midnightblue" points="292.858,-8.3657 282.77,-11.6028 292.675,-15.3633 292.858,-8.3657"/>
</g>
<!-- Node13&#45;&gt;Node7 -->
<g id="edge46" class="edge"><title>Node13&#45;&gt;Node7</title>
<path fill="none" stroke="midnightblue" d="M573.004,-168.083C567.832,-160.534 560.268,-149.495 553.919,-140.23"/>
<polygon fill="midnightblue" stroke="midnightblue" points="556.649,-138.022 548.11,-131.751 550.875,-141.979 556.649,-138.022"/>
</g>
</g>
</svg>
