<?xml version="1.0" encoding="UTF-8" standalone="no"?>
<!DOCTYPE svg PUBLIC "-//W3C//DTD SVG 1.1//EN"
 "http://www.w3.org/Graphics/SVG/1.1/DTD/svg11.dtd">
<!-- Generated by graphviz version 2.28.0 (20120425.2022)
 -->
<!-- Title: funcs.h Pages: 1 -->
<svg width="306pt" height="196pt"
 viewBox="0.00 0.00 306.00 196.00" xmlns="http://www.w3.org/2000/svg" xmlns:xlink="http://www.w3.org/1999/xlink">
<g id="graph1" class="graph" transform="scale(1 1) rotate(0) translate(4 192)">
<title>funcs.h</title>
<polygon fill="white" stroke="white" points="-4,5 -4,-192 303,-192 303,5 -4,5"/>
<!-- Node1 -->
<g id="node1" class="node"><title>Node1</title>
<polygon fill="#bfbfbf" stroke="black" points="96.5,-168.5 96.5,-187.5 143.5,-187.5 143.5,-168.5 96.5,-168.5"/>
<text text-anchor="middle" x="120" y="-175.5" font-family="FreeSans" font-size="10.00">funcs.h</text>
</g>
<!-- Node2 -->
<g id="node3" class="node"><title>Node2</title>
<a xlink:href="funcs_8cpp.html" target="_top" xlink:title="file containing miscellaneous numerical functions.">
<polygon fill="white" stroke="black" points="16,-112.5 16,-131.5 74,-131.5 74,-112.5 16,-112.5"/>
<text text-anchor="middle" x="45" y="-119.5" font-family="FreeSans" font-size="10.00">funcs.cpp</text>
</a>
</g>
<!-- Node1&#45;&gt;Node2 -->
<g id="edge2" class="edge"><title>Node1&#45;&gt;Node2</title>
<path fill="none" stroke="midnightblue" d="M99.6949,-162.38C86.1394,-152.62 68.7579,-140.106 57.2693,-131.834"/>
<polygon fill="midnightblue" stroke="midnightblue" points="97.7895,-165.321 107.95,-168.324 101.88,-159.641 97.7895,-165.321"/>
</g>
<!-- Node3 -->
<g id="node5" class="node"><title>Node3</title>
<a xlink:href="StFlow_8h.html" target="_top" xlink:title="StFlow.h">
<polygon fill="white" stroke="black" points="92.5,-112.5 92.5,-131.5 147.5,-131.5 147.5,-112.5 92.5,-112.5"/>
<text text-anchor="middle" x="120" y="-119.5" font-family="FreeSans" font-size="10.00">StFlow.h</text>
</a>
</g>
<!-- Node1&#45;&gt;Node3 -->
<g id="edge4" class="edge"><title>Node1&#45;&gt;Node3</title>
<path fill="none" stroke="midnightblue" d="M120,-157.805C120,-148.91 120,-138.78 120,-131.751"/>
<polygon fill="midnightblue" stroke="midnightblue" points="116.5,-158.083 120,-168.083 123.5,-158.083 116.5,-158.083"/>
</g>
<!-- Node8 -->
<g id="node16" class="node"><title>Node8</title>
<a xlink:href="Sim1D_8h.html" target="_top" xlink:title="Sim1D.h">
<polygon fill="white" stroke="black" points="177,-112.5 177,-131.5 231,-131.5 231,-112.5 177,-112.5"/>
<text text-anchor="middle" x="204" y="-119.5" font-family="FreeSans" font-size="10.00">Sim1D.h</text>
</a>
</g>
<!-- Node1&#45;&gt;Node8 -->
<g id="edge16" class="edge"><title>Node1&#45;&gt;Node8</title>
<path fill="none" stroke="midnightblue" d="M141.932,-162.901C157.335,-152.999 177.446,-140.071 190.537,-131.655"/>
<polygon fill="midnightblue" stroke="midnightblue" points="140.015,-159.972 133.496,-168.324 143.801,-165.86 140.015,-159.972"/>
</g>
<!-- Node4 -->
<g id="node7" class="node"><title>Node4</title>
<a xlink:href="StFlow_8cpp.html" target="_top" xlink:title="StFlow.cpp">
<polygon fill="white" stroke="black" points="-0.5,-56.5 -0.5,-75.5 64.5,-75.5 64.5,-56.5 -0.5,-56.5"/>
<text text-anchor="middle" x="32" y="-63.5" font-family="FreeSans" font-size="10.00">StFlow.cpp</text>
</a>
</g>
<!-- Node3&#45;&gt;Node4 -->
<g id="edge6" class="edge"><title>Node3&#45;&gt;Node4</title>
<path fill="none" stroke="midnightblue" d="M97.0231,-106.901C80.8866,-96.9986 59.8187,-84.0705 46.1036,-75.6545"/>
<polygon fill="midnightblue" stroke="midnightblue" points="95.5075,-110.077 105.861,-112.324 99.1686,-104.111 95.5075,-110.077"/>
</g>
<!-- Node5 -->
<g id="node9" class="node"><title>Node5</title>
<a xlink:href="Inlet1D_8h.html" target="_top" xlink:title="Boundary objects for one&#45;dimensional simulations.">
<polygon fill="white" stroke="black" points="82.5,-56.5 82.5,-75.5 137.5,-75.5 137.5,-56.5 82.5,-56.5"/>
<text text-anchor="middle" x="110" y="-63.5" font-family="FreeSans" font-size="10.00">Inlet1D.h</text>
</a>
</g>
<!-- Node3&#45;&gt;Node5 -->
<g id="edge8" class="edge"><title>Node3&#45;&gt;Node5</title>
<path fill="none" stroke="midnightblue" d="M116.5,-102.101C114.84,-93.1357 112.937,-82.8579 111.621,-75.7511"/>
<polygon fill="midnightblue" stroke="midnightblue" points="113.086,-102.888 118.349,-112.083 119.969,-101.613 113.086,-102.888"/>
</g>
<!-- Node7 -->
<g id="node13" class="node"><title>Node7</title>
<a xlink:href="onedim_8h_source.html" target="_top" xlink:title="onedim.h">
<polygon fill="white" stroke="black" points="156,-0.5 156,-19.5 214,-19.5 214,-0.5 156,-0.5"/>
<text text-anchor="middle" x="185" y="-7.5" font-family="FreeSans" font-size="10.00">onedim.h</text>
</a>
</g>
<!-- Node3&#45;&gt;Node7 -->
<g id="edge14" class="edge"><title>Node3&#45;&gt;Node7</title>
<path fill="none" stroke="midnightblue" d="M130.258,-103.64C144.379,-79.7436 169.265,-37.6286 179.923,-19.5914"/>
<polygon fill="midnightblue" stroke="midnightblue" points="127.175,-101.979 125.1,-112.368 133.201,-105.54 127.175,-101.979"/>
</g>
<!-- Node6 -->
<g id="node11" class="node"><title>Node6</title>
<a xlink:href="boundaries1D_8cpp.html" target="_top" xlink:title="boundaries1D.cpp">
<polygon fill="white" stroke="black" points="40,-0.5 40,-19.5 138,-19.5 138,-0.5 40,-0.5"/>
<text text-anchor="middle" x="89" y="-7.5" font-family="FreeSans" font-size="10.00">boundaries1D.cpp</text>
</a>
</g>
<!-- Node5&#45;&gt;Node6 -->
<g id="edge10" class="edge"><title>Node5&#45;&gt;Node6</title>
<path fill="none" stroke="midnightblue" d="M102.879,-46.6897C99.3402,-37.589 95.2277,-27.0141 92.4032,-19.7511"/>
<polygon fill="midnightblue" stroke="midnightblue" points="99.6457,-48.0315 106.532,-56.083 106.17,-45.4944 99.6457,-48.0315"/>
</g>
<!-- Node5&#45;&gt;Node7 -->
<g id="edge12" class="edge"><title>Node5&#45;&gt;Node7</title>
<path fill="none" stroke="midnightblue" d="M130.305,-50.3804C143.861,-40.6204 161.242,-28.1057 172.731,-19.8339"/>
<polygon fill="midnightblue" stroke="midnightblue" points="128.12,-47.6405 122.05,-56.324 132.21,-53.3213 128.12,-47.6405"/>
</g>
<!-- Node8&#45;&gt;Node7 -->
<g id="edge20" class="edge"><title>Node8&#45;&gt;Node7</title>
<path fill="none" stroke="midnightblue" d="M200.778,-102.348C196.617,-78.2538 189.544,-37.3079 186.484,-19.5914"/>
<polygon fill="midnightblue" stroke="midnightblue" points="197.358,-103.11 202.509,-112.368 204.256,-101.919 197.358,-103.11"/>
</g>
<!-- Node9 -->
<g id="node18" class="node"><title>Node9</title>
<a xlink:href="Sim1D_8cpp.html" target="_top" xlink:title="Sim1D.cpp">
<polygon fill="white" stroke="black" points="232.5,-56.5 232.5,-75.5 297.5,-75.5 297.5,-56.5 232.5,-56.5"/>
<text text-anchor="middle" x="265" y="-63.5" font-family="FreeSans" font-size="10.00">Sim1D.cpp</text>
</a>
</g>
<!-- Node8&#45;&gt;Node9 -->
<g id="edge18" class="edge"><title>Node8&#45;&gt;Node9</title>
<path fill="none" stroke="midnightblue" d="M221.467,-105.537C232.344,-95.9087 245.944,-83.8694 255.021,-75.8339"/>
<polygon fill="midnightblue" stroke="midnightblue" points="218.968,-103.075 213.801,-112.324 223.608,-108.316 218.968,-103.075"/>
</g>
</g>
</svg>
