<?xml version="1.0" encoding="UTF-8" standalone="no"?>
<!DOCTYPE svg PUBLIC "-//W3C//DTD SVG 1.1//EN"
 "http://www.w3.org/Graphics/SVG/1.1/DTD/svg11.dtd">
<!-- Generated by graphviz version 2.28.0 (20120425.2022)
 -->
<!-- Title: funcs.cpp Pages: 1 -->
<svg width="885pt" height="196pt"
 viewBox="0.00 0.00 885.32 196.00" xmlns="http://www.w3.org/2000/svg" xmlns:xlink="http://www.w3.org/1999/xlink">
<g id="graph1" class="graph" transform="scale(1 1) rotate(0) translate(4 192)">
<title>funcs.cpp</title>
<polygon fill="white" stroke="white" points="-4,5 -4,-192 882.322,-192 882.322,5 -4,5"/>
<!-- Node1 -->
<g id="node1" class="node"><title>Node1</title>
<polygon fill="#bfbfbf" stroke="black" points="322.322,-168.5 322.322,-187.5 380.322,-187.5 380.322,-168.5 322.322,-168.5"/>
<text text-anchor="middle" x="351.322" y="-175.5" font-family="FreeSans" font-size="10.00">funcs.cpp</text>
</g>
<!-- Node2 -->
<g id="node3" class="node"><title>Node2</title>
<polygon fill="white" stroke="#bfbfbf" points="61.322,-0.5 61.322,-19.5 105.322,-19.5 105.322,-0.5 61.322,-0.5"/>
<text text-anchor="middle" x="83.322" y="-7.5" font-family="FreeSans" font-size="10.00">vector</text>
</g>
<!-- Node1&#45;&gt;Node2 -->
<g id="edge2" class="edge"><title>Node1&#45;&gt;Node2</title>
<path fill="none" stroke="midnightblue" d="M322.211,-175.334C243.308,-170.523 29.8803,-155.441 9.32199,-132 -20.8054,-97.6487 31.6185,-49.5251 62.7515,-25.6412"/>
<polygon fill="midnightblue" stroke="midnightblue" points="64.9571,-28.3625 70.8818,-19.5791 60.7728,-22.7508 64.9571,-28.3625"/>
</g>
<!-- Node3 -->
<g id="node5" class="node"><title>Node3</title>
<polygon fill="white" stroke="#bfbfbf" points="819.322,-112.5 819.322,-131.5 877.322,-131.5 877.322,-112.5 819.322,-112.5"/>
<text text-anchor="middle" x="848.322" y="-119.5" font-family="FreeSans" font-size="10.00">algorithm</text>
</g>
<!-- Node1&#45;&gt;Node3 -->
<g id="edge4" class="edge"><title>Node1&#45;&gt;Node3</title>
<path fill="none" stroke="midnightblue" d="M380.427,-175.446C451.724,-171.361 640.893,-158.85 808.995,-131.822"/>
<polygon fill="midnightblue" stroke="midnightblue" points="809.708,-135.252 819.015,-130.19 808.582,-128.343 809.708,-135.252"/>
</g>
<!-- Node4 -->
<g id="node7" class="node"><title>Node4</title>
<a xlink:href="ctlapack_8h.html" target="_top" xlink:title="cantera/numerics/ctlapack.h">
<polygon fill="white" stroke="black" points="204.322,-112.5 204.322,-131.5 346.322,-131.5 346.322,-112.5 204.322,-112.5"/>
<text text-anchor="middle" x="275.322" y="-119.5" font-family="FreeSans" font-size="10.00">cantera/numerics/ctlapack.h</text>
</a>
</g>
<!-- Node1&#45;&gt;Node4 -->
<g id="edge6" class="edge"><title>Node1&#45;&gt;Node4</title>
<path fill="none" stroke="midnightblue" d="M339.111,-168.324C327.546,-160.107 309.947,-147.602 296.161,-137.807"/>
<polygon fill="midnightblue" stroke="midnightblue" points="297.934,-134.773 287.755,-131.834 293.879,-140.479 297.934,-134.773"/>
</g>
<!-- Node5 -->
<g id="node9" class="node"><title>Node5</title>
<a xlink:href="ct__defs_8h.html" target="_top" xlink:title="This file contains definitions of terms that are used in internal routines and are unlikely to need m...">
<polygon fill="white" stroke="black" points="215.822,-56.5 215.822,-75.5 334.822,-75.5 334.822,-56.5 215.822,-56.5"/>
<text text-anchor="middle" x="275.322" y="-63.5" font-family="FreeSans" font-size="10.00">cantera/base/ct_defs.h</text>
</a>
</g>
<!-- Node1&#45;&gt;Node5 -->
<g id="edge22" class="edge"><title>Node1&#45;&gt;Node5</title>
<path fill="none" stroke="midnightblue" d="M322.271,-172.817C281.501,-166.284 210.573,-152.273 195.322,-132 178.745,-109.966 211.104,-90.9083 239.497,-79.2267"/>
<polygon fill="midnightblue" stroke="midnightblue" points="240.856,-82.4533 248.897,-75.5542 238.309,-75.9332 240.856,-82.4533"/>
</g>
<!-- Node11 -->
<g id="node23" class="node"><title>Node11</title>
<a xlink:href="ctexceptions_8h.html" target="_top" xlink:title="Definitions for the classes that are thrown when Cantera experiences an error condition (also contain...">
<polygon fill="white" stroke="black" points="657.822,-112.5 657.822,-131.5 800.822,-131.5 800.822,-112.5 657.822,-112.5"/>
<text text-anchor="middle" x="729.322" y="-119.5" font-family="FreeSans" font-size="10.00">cantera/base/ctexceptions.h</text>
</a>
</g>
<!-- Node1&#45;&gt;Node11 -->
<g id="edge24" class="edge"><title>Node1&#45;&gt;Node11</title>
<path fill="none" stroke="midnightblue" d="M380.355,-172.852C439.662,-164.38 576.159,-144.88 659.782,-132.934"/>
<polygon fill="midnightblue" stroke="midnightblue" points="660.304,-136.395 669.709,-131.516 659.314,-129.466 660.304,-136.395"/>
</g>
<!-- Node14 -->
<g id="node30" class="node"><title>Node14</title>
<a xlink:href="stringUtils_8h.html" target="_top" xlink:title=" Contains declarations for string manipulation functions &#160;within Cantera.">
<polygon fill="white" stroke="black" points="510.822,-112.5 510.822,-131.5 639.822,-131.5 639.822,-112.5 510.822,-112.5"/>
<text text-anchor="middle" x="575.322" y="-119.5" font-family="FreeSans" font-size="10.00">cantera/base/stringUtils.h</text>
</a>
</g>
<!-- Node1&#45;&gt;Node14 -->
<g id="edge32" class="edge"><title>Node1&#45;&gt;Node14</title>
<path fill="none" stroke="midnightblue" d="M380.606,-169.94C418.563,-160.79 485.157,-144.736 529.751,-133.986"/>
<polygon fill="midnightblue" stroke="midnightblue" points="530.846,-137.322 539.747,-131.576 529.206,-130.517 530.846,-137.322"/>
</g>
<!-- Node15 -->
<g id="node34" class="node"><title>Node15</title>
<a xlink:href="funcs_8h.html" target="_top" xlink:title="Header for a file containing miscellaneous numerical functions.">
<polygon fill="white" stroke="black" points="364.322,-112.5 364.322,-131.5 492.322,-131.5 492.322,-112.5 364.322,-112.5"/>
<text text-anchor="middle" x="428.322" y="-119.5" font-family="FreeSans" font-size="10.00">cantera/numerics/funcs.h</text>
</a>
</g>
<!-- Node1&#45;&gt;Node15 -->
<g id="edge38" class="edge"><title>Node1&#45;&gt;Node15</title>
<path fill="none" stroke="midnightblue" d="M363.693,-168.324C375.48,-160.058 393.454,-147.453 407.458,-137.632"/>
<polygon fill="midnightblue" stroke="midnightblue" points="409.804,-140.262 415.981,-131.655 405.784,-134.531 409.804,-140.262"/>
</g>
<!-- Node16 -->
<g id="node37" class="node"><title>Node16</title>
<a xlink:href="polyfit_8h.html" target="_top" xlink:title="C interface for Fortran DPOLFT subroutine.">
<polygon fill="white" stroke="black" points="18.322,-112.5 18.322,-131.5 148.322,-131.5 148.322,-112.5 18.322,-112.5"/>
<text text-anchor="middle" x="83.322" y="-119.5" font-family="FreeSans" font-size="10.00">cantera/numerics/polyfit.h</text>
</a>
</g>
<!-- Node1&#45;&gt;Node16 -->
<g id="edge42" class="edge"><title>Node1&#45;&gt;Node16</title>
<path fill="none" stroke="midnightblue" d="M322.131,-171.118C277.431,-162.112 191.362,-144.769 135.682,-133.55"/>
<polygon fill="midnightblue" stroke="midnightblue" points="136.15,-130.074 125.656,-131.53 134.767,-136.936 136.15,-130.074"/>
</g>
<!-- Node4&#45;&gt;Node5 -->
<g id="edge8" class="edge"><title>Node4&#45;&gt;Node5</title>
<path fill="none" stroke="midnightblue" d="M275.322,-112.083C275.322,-105.006 275.322,-94.8611 275.322,-85.9865"/>
<polygon fill="midnightblue" stroke="midnightblue" points="278.822,-85.751 275.322,-75.7511 271.822,-85.7511 278.822,-85.751"/>
</g>
<!-- Node5&#45;&gt;Node2 -->
<g id="edge16" class="edge"><title>Node5&#45;&gt;Node2</title>
<path fill="none" stroke="midnightblue" d="M244.899,-56.4435C209.579,-46.5098 151.574,-30.1958 115.516,-20.0544"/>
<polygon fill="midnightblue" stroke="midnightblue" points="116.096,-16.582 105.522,-17.2437 114.201,-23.3205 116.096,-16.582"/>
</g>
<!-- Node6 -->
<g id="node11" class="node"><title>Node6</title>
<a xlink:href="config_8h_source.html" target="_top" xlink:title="config.h">
<polygon fill="white" stroke="black" points="153.822,-0.5 153.822,-19.5 204.822,-19.5 204.822,-0.5 153.822,-0.5"/>
<text text-anchor="middle" x="179.322" y="-7.5" font-family="FreeSans" font-size="10.00">config.h</text>
</a>
</g>
<!-- Node5&#45;&gt;Node6 -->
<g id="edge10" class="edge"><title>Node5&#45;&gt;Node6</title>
<path fill="none" stroke="midnightblue" d="M259.898,-56.324C244.782,-47.8215 221.507,-34.7288 203.851,-24.7975"/>
<polygon fill="midnightblue" stroke="midnightblue" points="205.139,-21.5066 194.708,-19.6545 201.708,-27.6077 205.139,-21.5066"/>
</g>
<!-- Node7 -->
<g id="node13" class="node"><title>Node7</title>
<polygon fill="white" stroke="#bfbfbf" points="223.322,-0.5 223.322,-19.5 267.322,-19.5 267.322,-0.5 223.322,-0.5"/>
<text text-anchor="middle" x="245.322" y="-7.5" font-family="FreeSans" font-size="10.00">cmath</text>
</g>
<!-- Node5&#45;&gt;Node7 -->
<g id="edge12" class="edge"><title>Node5&#45;&gt;Node7</title>
<path fill="none" stroke="midnightblue" d="M270.368,-56.083C266.218,-48.6127 260.169,-37.7244 255.055,-28.5199"/>
<polygon fill="midnightblue" stroke="midnightblue" points="258.1,-26.7929 250.184,-19.7511 251.981,-30.1924 258.1,-26.7929"/>
</g>
<!-- Node8 -->
<g id="node15" class="node"><title>Node8</title>
<polygon fill="white" stroke="#bfbfbf" points="285.822,-0.5 285.822,-19.5 330.822,-19.5 330.822,-0.5 285.822,-0.5"/>
<text text-anchor="middle" x="308.322" y="-7.5" font-family="FreeSans" font-size="10.00">cstdlib</text>
</g>
<!-- Node5&#45;&gt;Node8 -->
<g id="edge14" class="edge"><title>Node5&#45;&gt;Node8</title>
<path fill="none" stroke="midnightblue" d="M280.771,-56.083C285.336,-48.6127 291.99,-37.7244 297.615,-28.5199"/>
<polygon fill="midnightblue" stroke="midnightblue" points="300.746,-30.109 302.974,-19.7511 294.773,-26.4588 300.746,-30.109"/>
</g>
<!-- Node9 -->
<g id="node18" class="node"><title>Node9</title>
<polygon fill="white" stroke="#bfbfbf" points="349.322,-0.5 349.322,-19.5 385.322,-19.5 385.322,-0.5 349.322,-0.5"/>
<text text-anchor="middle" x="367.322" y="-7.5" font-family="FreeSans" font-size="10.00">map</text>
</g>
<!-- Node5&#45;&gt;Node9 -->
<g id="edge18" class="edge"><title>Node5&#45;&gt;Node9</title>
<path fill="none" stroke="midnightblue" d="M290.103,-56.324C304.589,-47.8215 326.895,-34.7288 343.815,-24.7975"/>
<polygon fill="midnightblue" stroke="midnightblue" points="345.725,-27.735 352.577,-19.6545 342.181,-21.6981 345.725,-27.735"/>
</g>
<!-- Node10 -->
<g id="node20" class="node"><title>Node10</title>
<polygon fill="white" stroke="#bfbfbf" points="554.822,-0.5 554.822,-19.5 595.822,-19.5 595.822,-0.5 554.822,-0.5"/>
<text text-anchor="middle" x="575.322" y="-7.5" font-family="FreeSans" font-size="10.00">string</text>
</g>
<!-- Node5&#45;&gt;Node10 -->
<g id="edge20" class="edge"><title>Node5&#45;&gt;Node10</title>
<path fill="none" stroke="midnightblue" d="M322.858,-56.4435C384.995,-45.2589 492.067,-25.9859 544.533,-16.542"/>
<polygon fill="midnightblue" stroke="midnightblue" points="545.345,-19.9522 554.567,-14.7359 544.105,-13.0629 545.345,-19.9522"/>
</g>
<!-- Node11&#45;&gt;Node10 -->
<g id="edge30" class="edge"><title>Node11&#45;&gt;Node10</title>
<path fill="none" stroke="midnightblue" d="M717.238,-112.368C690.924,-93.5728 628.198,-48.7684 595.669,-25.5334"/>
<polygon fill="midnightblue" stroke="midnightblue" points="597.522,-22.5558 587.35,-19.5914 593.453,-28.2519 597.522,-22.5558"/>
</g>
<!-- Node12 -->
<g id="node25" class="node"><title>Node12</title>
<polygon fill="white" stroke="#bfbfbf" points="684.322,-56.5 684.322,-75.5 744.322,-75.5 744.322,-56.5 684.322,-56.5"/>
<text text-anchor="middle" x="714.322" y="-63.5" font-family="FreeSans" font-size="10.00">exception</text>
</g>
<!-- Node11&#45;&gt;Node12 -->
<g id="edge26" class="edge"><title>Node11&#45;&gt;Node12</title>
<path fill="none" stroke="midnightblue" d="M726.845,-112.083C724.835,-104.849 721.936,-94.4087 719.432,-85.3968"/>
<polygon fill="midnightblue" stroke="midnightblue" points="722.802,-84.4495 716.753,-75.7511 716.057,-86.323 722.802,-84.4495"/>
</g>
<!-- Node13 -->
<g id="node27" class="node"><title>Node13</title>
<polygon fill="white" stroke="#bfbfbf" points="762.322,-56.5 762.322,-75.5 818.322,-75.5 818.322,-56.5 762.322,-56.5"/>
<text text-anchor="middle" x="790.322" y="-63.5" font-family="FreeSans" font-size="10.00">iostream</text>
</g>
<!-- Node11&#45;&gt;Node13 -->
<g id="edge28" class="edge"><title>Node11&#45;&gt;Node13</title>
<path fill="none" stroke="midnightblue" d="M739.123,-112.324C748.14,-104.341 761.728,-92.3128 772.64,-82.6529"/>
<polygon fill="midnightblue" stroke="midnightblue" points="775.175,-85.083 780.343,-75.8339 770.535,-79.8416 775.175,-85.083"/>
</g>
<!-- Node14&#45;&gt;Node5 -->
<g id="edge34" class="edge"><title>Node14&#45;&gt;Node5</title>
<path fill="none" stroke="midnightblue" d="M527.786,-112.444C474.794,-102.905 389.119,-87.4834 332.505,-77.293"/>
<polygon fill="midnightblue" stroke="midnightblue" points="333.097,-73.8434 322.635,-75.5164 331.857,-80.7327 333.097,-73.8434"/>
</g>
<!-- Node14&#45;&gt;Node10 -->
<g id="edge36" class="edge"><title>Node14&#45;&gt;Node10</title>
<path fill="none" stroke="midnightblue" d="M575.322,-112.368C575.322,-94.617 575.322,-53.6664 575.322,-29.5974"/>
<polygon fill="midnightblue" stroke="midnightblue" points="578.822,-29.5914 575.322,-19.5914 571.822,-29.5915 578.822,-29.5914"/>
</g>
<!-- Node15&#45;&gt;Node5 -->
<g id="edge40" class="edge"><title>Node15&#45;&gt;Node5</title>
<path fill="none" stroke="midnightblue" d="M404.079,-112.444C378.451,-103.399 337.837,-89.064 309.084,-78.9158"/>
<polygon fill="midnightblue" stroke="midnightblue" points="310.047,-75.5442 299.452,-75.5164 307.717,-82.1452 310.047,-75.5442"/>
</g>
<!-- Node16&#45;&gt;Node2 -->
<g id="edge44" class="edge"><title>Node16&#45;&gt;Node2</title>
<path fill="none" stroke="midnightblue" d="M83.322,-112.368C83.322,-94.617 83.322,-53.6664 83.322,-29.5974"/>
<polygon fill="midnightblue" stroke="midnightblue" points="86.8221,-29.5914 83.322,-19.5914 79.8221,-29.5915 86.8221,-29.5914"/>
</g>
<!-- Node16&#45;&gt;Node5 -->
<g id="edge46" class="edge"><title>Node16&#45;&gt;Node5</title>
<path fill="none" stroke="midnightblue" d="M113.745,-112.444C146.607,-103.201 199.107,-88.4356 235.296,-78.2572"/>
<polygon fill="midnightblue" stroke="midnightblue" points="236.362,-81.5932 245.041,-75.5164 234.467,-74.8547 236.362,-81.5932"/>
</g>
</g>
</svg>
