<?xml version="1.0" encoding="UTF-8" standalone="no"?>
<!DOCTYPE svg PUBLIC "-//W3C//DTD SVG 1.1//EN"
 "http://www.w3.org/Graphics/SVG/1.1/DTD/svg11.dtd">
<!-- Generated by graphviz version 2.28.0 (20120425.2022)
 -->
<!-- Title: FuncEval.h Pages: 1 -->
<svg width="905pt" height="252pt"
 viewBox="0.00 0.00 905.00 252.00" xmlns="http://www.w3.org/2000/svg" xmlns:xlink="http://www.w3.org/1999/xlink">
<g id="graph1" class="graph" transform="scale(1 1) rotate(0) translate(4 248)">
<title>FuncEval.h</title>
<polygon fill="white" stroke="white" points="-4,5 -4,-248 902,-248 902,5 -4,5"/>
<!-- Node1 -->
<g id="node1" class="node"><title>Node1</title>
<polygon fill="#bfbfbf" stroke="black" points="491,-224.5 491,-243.5 555,-243.5 555,-224.5 491,-224.5"/>
<text text-anchor="middle" x="523" y="-231.5" font-family="FreeSans" font-size="10.00">FuncEval.h</text>
</g>
<!-- Node2 -->
<g id="node3" class="node"><title>Node2</title>
<a xlink:href="ImplicitSurfChem_8h.html" target="_top" xlink:title="Declarations for the implicit integration of surface site density equations (see Kinetics Managers an...">
<polygon fill="white" stroke="black" points="198,-112.5 198,-131.5 296,-131.5 296,-112.5 198,-112.5"/>
<text text-anchor="middle" x="247" y="-119.5" font-family="FreeSans" font-size="10.00">ImplicitSurfChem.h</text>
</a>
</g>
<!-- Node1&#45;&gt;Node2 -->
<g id="edge2" class="edge"><title>Node1&#45;&gt;Node2</title>
<path fill="none" stroke="midnightblue" d="M491.852,-220.586C435.307,-198.05 317.132,-150.951 268.557,-131.591"/>
<polygon fill="midnightblue" stroke="midnightblue" points="490.758,-223.917 501.343,-224.368 493.349,-217.415 490.758,-223.917"/>
</g>
<!-- Node8 -->
<g id="node16" class="node"><title>Node8</title>
<a xlink:href="CVodeInt_8h.html" target="_top" xlink:title="CVodeInt.h">
<polygon fill="white" stroke="black" points="436.5,-112.5 436.5,-131.5 501.5,-131.5 501.5,-112.5 436.5,-112.5"/>
<text text-anchor="middle" x="469" y="-119.5" font-family="FreeSans" font-size="10.00">CVodeInt.h</text>
</a>
</g>
<!-- Node1&#45;&gt;Node8 -->
<g id="edge16" class="edge"><title>Node1&#45;&gt;Node8</title>
<path fill="none" stroke="midnightblue" d="M514.321,-215.32C502.563,-191.37 482.033,-149.548 473.218,-131.591"/>
<polygon fill="midnightblue" stroke="midnightblue" points="511.214,-216.934 518.763,-224.368 517.498,-213.849 511.214,-216.934"/>
</g>
<!-- Node11 -->
<g id="node22" class="node"><title>Node11</title>
<a xlink:href="Integrator_8h.html" target="_top" xlink:title="Integrator.h">
<polygon fill="white" stroke="black" points="529,-168.5 529,-187.5 595,-187.5 595,-168.5 529,-168.5"/>
<text text-anchor="middle" x="562" y="-175.5" font-family="FreeSans" font-size="10.00">Integrator.h</text>
</a>
</g>
<!-- Node1&#45;&gt;Node11 -->
<g id="edge22" class="edge"><title>Node1&#45;&gt;Node11</title>
<path fill="none" stroke="midnightblue" d="M535.382,-215.855C542.135,-206.505 550.209,-195.327 555.68,-187.751"/>
<polygon fill="midnightblue" stroke="midnightblue" points="532.458,-213.927 529.44,-224.083 538.132,-218.025 532.458,-213.927"/>
</g>
<!-- Node16 -->
<g id="node35" class="node"><title>Node16</title>
<a xlink:href="ReactorNet_8h.html" target="_top" xlink:title="ReactorNet.h">
<polygon fill="white" stroke="black" points="766,-112.5 766,-131.5 840,-131.5 840,-112.5 766,-112.5"/>
<text text-anchor="middle" x="803" y="-119.5" font-family="FreeSans" font-size="10.00">ReactorNet.h</text>
</a>
</g>
<!-- Node1&#45;&gt;Node16 -->
<g id="edge44" class="edge"><title>Node1&#45;&gt;Node16</title>
<path fill="none" stroke="midnightblue" d="M554.599,-220.586C611.964,-198.05 731.851,-150.951 781.131,-131.591"/>
<polygon fill="midnightblue" stroke="midnightblue" points="552.999,-217.454 544.971,-224.368 555.558,-223.97 552.999,-217.454"/>
</g>
<!-- Node3 -->
<g id="node5" class="node"><title>Node3</title>
<a xlink:href="ImplicitSurfChem_8cpp.html" target="_top" xlink:title="Definitions for the implicit integration of surface site density equations (see Kinetics Managers and...">
<polygon fill="white" stroke="black" points="88.5,-56.5 88.5,-75.5 197.5,-75.5 197.5,-56.5 88.5,-56.5"/>
<text text-anchor="middle" x="143" y="-63.5" font-family="FreeSans" font-size="10.00">ImplicitSurfChem.cpp</text>
</a>
</g>
<!-- Node2&#45;&gt;Node3 -->
<g id="edge4" class="edge"><title>Node2&#45;&gt;Node3</title>
<path fill="none" stroke="midnightblue" d="M221.172,-107.59C201.943,-97.6052 176.255,-84.2672 159.668,-75.6545"/>
<polygon fill="midnightblue" stroke="midnightblue" points="219.803,-110.822 230.291,-112.324 223.029,-104.61 219.803,-110.822"/>
</g>
<!-- Node4 -->
<g id="node7" class="node"><title>Node4</title>
<a xlink:href="solveSP_8h.html" target="_top" xlink:title=" &#160;Header file for implicit surface problem solver &#160;(see Chemical Kinetics and class solveSP)...">
<polygon fill="white" stroke="black" points="216,-56.5 216,-75.5 278,-75.5 278,-56.5 216,-56.5"/>
<text text-anchor="middle" x="247" y="-63.5" font-family="FreeSans" font-size="10.00">solveSP.h</text>
</a>
</g>
<!-- Node2&#45;&gt;Node4 -->
<g id="edge6" class="edge"><title>Node2&#45;&gt;Node4</title>
<path fill="none" stroke="midnightblue" d="M240.528,-102.101C239.896,-93.1357 240.343,-82.8579 241.869,-75.7511"/>
<polygon fill="midnightblue" stroke="midnightblue" points="237.066,-102.622 241.834,-112.083 244.007,-101.713 237.066,-102.622"/>
</g>
<!-- Node6 -->
<g id="node12" class="node"><title>Node6</title>
<a xlink:href="InterfaceKinetics_8cpp.html" target="_top" xlink:title="InterfaceKinetics.cpp">
<polygon fill="white" stroke="black" points="296,-56.5 296,-75.5 404,-75.5 404,-56.5 296,-56.5"/>
<text text-anchor="middle" x="350" y="-63.5" font-family="FreeSans" font-size="10.00">InterfaceKinetics.cpp</text>
</a>
</g>
<!-- Node2&#45;&gt;Node6 -->
<g id="edge12" class="edge"><title>Node2&#45;&gt;Node6</title>
<path fill="none" stroke="midnightblue" d="M272.579,-107.59C291.623,-97.6052 317.064,-84.2672 333.492,-75.6545"/>
<polygon fill="midnightblue" stroke="midnightblue" points="270.78,-104.581 263.549,-112.324 274.031,-110.78 270.78,-104.581"/>
</g>
<!-- Node7 -->
<g id="node14" class="node"><title>Node7</title>
<a xlink:href="Kinetics_8cpp.html" target="_top" xlink:title="Declarations for the base class for kinetics &#160;managers (see Kinetics Managers and class Kinetics)...">
<polygon fill="white" stroke="black" points="0,-56.5 0,-75.5 70,-75.5 70,-56.5 0,-56.5"/>
<text text-anchor="middle" x="35" y="-63.5" font-family="FreeSans" font-size="10.00">Kinetics.cpp</text>
</a>
</g>
<!-- Node2&#45;&gt;Node7 -->
<g id="edge14" class="edge"><title>Node2&#45;&gt;Node7</title>
<path fill="none" stroke="midnightblue" d="M203.654,-109.959C163.613,-99.7598 104.967,-84.8217 68.4349,-75.5164"/>
<polygon fill="midnightblue" stroke="midnightblue" points="202.853,-113.367 213.408,-112.444 204.581,-106.583 202.853,-113.367"/>
</g>
<!-- Node4&#45;&gt;Node2 -->
<g id="edge8" class="edge"><title>Node4&#45;&gt;Node2</title>
<path fill="none" stroke="midnightblue" d="M253.458,-85.6911C254.106,-94.6353 253.676,-104.927 252.166,-112.083"/>
<polygon fill="midnightblue" stroke="midnightblue" points="256.923,-85.2002 252.131,-75.7511 249.985,-86.1262 256.923,-85.2002"/>
</g>
<!-- Node5 -->
<g id="node10" class="node"><title>Node5</title>
<a xlink:href="solveSP_8cpp_source.html" target="_top" xlink:title="solveSP.cpp">
<polygon fill="white" stroke="black" points="210.5,-0.5 210.5,-19.5 283.5,-19.5 283.5,-0.5 210.5,-0.5"/>
<text text-anchor="middle" x="247" y="-7.5" font-family="FreeSans" font-size="10.00">solveSP.cpp</text>
</a>
</g>
<!-- Node4&#45;&gt;Node5 -->
<g id="edge10" class="edge"><title>Node4&#45;&gt;Node5</title>
<path fill="none" stroke="midnightblue" d="M247,-45.8045C247,-36.9102 247,-26.7798 247,-19.7511"/>
<polygon fill="midnightblue" stroke="midnightblue" points="243.5,-46.083 247,-56.083 250.5,-46.083 243.5,-46.083"/>
</g>
<!-- Node9 -->
<g id="node18" class="node"><title>Node9</title>
<a xlink:href="CVodeInt_8cpp.html" target="_top" xlink:title="CVodeInt.cpp">
<polygon fill="white" stroke="black" points="422.5,-56.5 422.5,-75.5 497.5,-75.5 497.5,-56.5 422.5,-56.5"/>
<text text-anchor="middle" x="460" y="-63.5" font-family="FreeSans" font-size="10.00">CVodeInt.cpp</text>
</a>
</g>
<!-- Node8&#45;&gt;Node9 -->
<g id="edge18" class="edge"><title>Node8&#45;&gt;Node9</title>
<path fill="none" stroke="midnightblue" d="M465.85,-102.101C464.356,-93.1357 462.643,-82.8579 461.459,-75.7511"/>
<polygon fill="midnightblue" stroke="midnightblue" points="462.417,-102.794 467.514,-112.083 469.322,-101.644 462.417,-102.794"/>
</g>
<!-- Node10 -->
<g id="node20" class="node"><title>Node10</title>
<a xlink:href="ODE__integrators_8cpp_source.html" target="_top" xlink:title="ODE_integrators.cpp">
<polygon fill="white" stroke="black" points="516,-56.5 516,-75.5 624,-75.5 624,-56.5 516,-56.5"/>
<text text-anchor="middle" x="570" y="-63.5" font-family="FreeSans" font-size="10.00">ODE_integrators.cpp</text>
</a>
</g>
<!-- Node8&#45;&gt;Node10 -->
<g id="edge20" class="edge"><title>Node8&#45;&gt;Node10</title>
<path fill="none" stroke="midnightblue" d="M494.083,-107.59C512.757,-97.6052 537.704,-84.2672 553.813,-75.6545"/>
<polygon fill="midnightblue" stroke="midnightblue" points="492.396,-104.522 485.227,-112.324 495.696,-110.696 492.396,-104.522"/>
</g>
<!-- Node11&#45;&gt;Node2 -->
<g id="edge24" class="edge"><title>Node11&#45;&gt;Node2</title>
<path fill="none" stroke="midnightblue" d="M518.909,-169.613C460.705,-159.635 357.228,-141.896 296.089,-131.415"/>
<polygon fill="midnightblue" stroke="midnightblue" points="518.437,-173.083 528.885,-171.323 519.62,-166.184 518.437,-173.083"/>
</g>
<!-- Node11&#45;&gt;Node8 -->
<g id="edge26" class="edge"><title>Node11&#45;&gt;Node8</title>
<path fill="none" stroke="midnightblue" d="M538.194,-163.177C521.081,-153.241 498.535,-140.149 483.905,-131.655"/>
<polygon fill="midnightblue" stroke="midnightblue" points="536.653,-166.329 547.058,-168.324 540.168,-160.276 536.653,-166.329"/>
</g>
<!-- Node11&#45;&gt;Node10 -->
<g id="edge28" class="edge"><title>Node11&#45;&gt;Node10</title>
<path fill="none" stroke="midnightblue" d="M554.171,-158.483C549.669,-145.454 545.534,-127.624 549,-112 551.988,-98.5333 559.444,-84.3218 564.616,-75.557"/>
<polygon fill="midnightblue" stroke="midnightblue" points="551.028,-160.062 557.879,-168.144 557.563,-157.554 551.028,-160.062"/>
</g>
<!-- Node12 -->
<g id="node27" class="node"><title>Node12</title>
<a xlink:href="ReactorNet_8cpp_source.html" target="_top" xlink:title="ReactorNet.cpp">
<polygon fill="white" stroke="black" points="733.5,-56.5 733.5,-75.5 818.5,-75.5 818.5,-56.5 733.5,-56.5"/>
<text text-anchor="middle" x="776" y="-63.5" font-family="FreeSans" font-size="10.00">ReactorNet.cpp</text>
</a>
</g>
<!-- Node11&#45;&gt;Node12 -->
<g id="edge30" class="edge"><title>Node11&#45;&gt;Node12</title>
<path fill="none" stroke="midnightblue" d="M605.466,-171.154C638.344,-165.211 683.554,-153.67 718,-132 741.811,-117.021 761.639,-89.4951 770.703,-75.562"/>
<polygon fill="midnightblue" stroke="midnightblue" points="604.525,-167.764 595.255,-172.893 605.7,-174.665 604.525,-167.764"/>
</g>
<!-- Node13 -->
<g id="node29" class="node"><title>Node13</title>
<a xlink:href="integrators_8h.html" target="_top" xlink:title="ODE integrators.">
<polygon fill="white" stroke="black" points="558.5,-112.5 558.5,-131.5 629.5,-131.5 629.5,-112.5 558.5,-112.5"/>
<text text-anchor="middle" x="594" y="-119.5" font-family="FreeSans" font-size="10.00">integrators.h</text>
</a>
</g>
<!-- Node11&#45;&gt;Node13 -->
<g id="edge32" class="edge"><title>Node11&#45;&gt;Node13</title>
<path fill="none" stroke="midnightblue" d="M572.504,-159.275C577.973,-150.045 584.418,-139.17 588.814,-131.751"/>
<polygon fill="midnightblue" stroke="midnightblue" points="569.371,-157.696 567.284,-168.083 575.393,-161.264 569.371,-157.696"/>
</g>
<!-- Node14 -->
<g id="node31" class="node"><title>Node14</title>
<a xlink:href="BEulerInt_8h.html" target="_top" xlink:title="BEulerInt.h">
<polygon fill="white" stroke="black" points="648,-112.5 648,-131.5 710,-131.5 710,-112.5 648,-112.5"/>
<text text-anchor="middle" x="679" y="-119.5" font-family="FreeSans" font-size="10.00">BEulerInt.h</text>
</a>
</g>
<!-- Node11&#45;&gt;Node14 -->
<g id="edge34" class="edge"><title>Node11&#45;&gt;Node14</title>
<path fill="none" stroke="midnightblue" d="M589.664,-164.232C611.549,-154.131 641.497,-140.309 660.548,-131.516"/>
<polygon fill="midnightblue" stroke="midnightblue" points="588.152,-161.075 580.539,-168.444 591.085,-167.431 588.152,-161.075"/>
</g>
<!-- Node11&#45;&gt;Node16 -->
<g id="edge38" class="edge"><title>Node11&#45;&gt;Node16</title>
<path fill="none" stroke="midnightblue" d="M604.905,-167.387C650.6,-157.148 722.201,-141.104 765.651,-131.369"/>
<polygon fill="midnightblue" stroke="midnightblue" points="603.997,-164.003 595.005,-169.605 605.528,-170.834 603.997,-164.003"/>
</g>
<!-- Node15 -->
<g id="node33" class="node"><title>Node15</title>
<a xlink:href="BEulerInt_8cpp.html" target="_top" xlink:title="BEulerInt.cpp">
<polygon fill="white" stroke="black" points="642.5,-56.5 642.5,-75.5 715.5,-75.5 715.5,-56.5 642.5,-56.5"/>
<text text-anchor="middle" x="679" y="-63.5" font-family="FreeSans" font-size="10.00">BEulerInt.cpp</text>
</a>
</g>
<!-- Node14&#45;&gt;Node15 -->
<g id="edge36" class="edge"><title>Node14&#45;&gt;Node15</title>
<path fill="none" stroke="midnightblue" d="M679,-101.805C679,-92.9102 679,-82.7798 679,-75.7511"/>
<polygon fill="midnightblue" stroke="midnightblue" points="675.5,-102.083 679,-112.083 682.5,-102.083 675.5,-102.083"/>
</g>
<!-- Node16&#45;&gt;Node12 -->
<g id="edge40" class="edge"><title>Node16&#45;&gt;Node12</title>
<path fill="none" stroke="midnightblue" d="M793.991,-102.983C789.408,-93.8168 784.046,-83.0922 780.376,-75.7511"/>
<polygon fill="midnightblue" stroke="midnightblue" points="790.939,-104.704 798.541,-112.083 797.2,-101.573 790.939,-104.704"/>
</g>
<!-- Node17 -->
<g id="node38" class="node"><title>Node17</title>
<a xlink:href="zerodim_8h_source.html" target="_top" xlink:title="zerodim.h">
<polygon fill="white" stroke="black" points="836.5,-56.5 836.5,-75.5 897.5,-75.5 897.5,-56.5 836.5,-56.5"/>
<text text-anchor="middle" x="867" y="-63.5" font-family="FreeSans" font-size="10.00">zerodim.h</text>
</a>
</g>
<!-- Node16&#45;&gt;Node17 -->
<g id="edge42" class="edge"><title>Node16&#45;&gt;Node17</title>
<path fill="none" stroke="midnightblue" d="M820.991,-105.82C832.458,-96.1452 846.913,-83.9481 856.53,-75.8339"/>
<polygon fill="midnightblue" stroke="midnightblue" points="818.669,-103.2 813.283,-112.324 823.183,-108.55 818.669,-103.2"/>
</g>
</g>
</svg>
