<?xml version="1.0" encoding="UTF-8" standalone="no"?>
<!DOCTYPE svg PUBLIC "-//W3C//DTD SVG 1.1//EN"
 "http://www.w3.org/Graphics/SVG/1.1/DTD/svg11.dtd">
<!-- Generated by graphviz version 2.28.0 (20120425.2022)
 -->
<!-- Title: GasTransport.h Pages: 1 -->
<svg width="425pt" height="140pt"
 viewBox="0.00 0.00 425.00 140.00" xmlns="http://www.w3.org/2000/svg" xmlns:xlink="http://www.w3.org/1999/xlink">
<g id="graph1" class="graph" transform="scale(1 1) rotate(0) translate(4 136)">
<title>GasTransport.h</title>
<polygon fill="white" stroke="white" points="-4,5 -4,-136 422,-136 422,5 -4,5"/>
<!-- Node1 -->
<g id="node1" class="node"><title>Node1</title>
<polygon fill="#bfbfbf" stroke="black" points="123,-112.5 123,-131.5 209,-131.5 209,-112.5 123,-112.5"/>
<text text-anchor="middle" x="166" y="-119.5" font-family="FreeSans" font-size="10.00">GasTransport.h</text>
</g>
<!-- Node2 -->
<g id="node3" class="node"><title>Node2</title>
<a xlink:href="GasTransport_8cpp_source.html" target="_top" xlink:title="GasTransport.cpp">
<polygon fill="white" stroke="black" points="9.5,-56.5 9.5,-75.5 106.5,-75.5 106.5,-56.5 9.5,-56.5"/>
<text text-anchor="middle" x="58" y="-63.5" font-family="FreeSans" font-size="10.00">GasTransport.cpp</text>
</a>
</g>
<!-- Node1&#45;&gt;Node2 -->
<g id="edge2" class="edge"><title>Node1&#45;&gt;Node2</title>
<path fill="none" stroke="midnightblue" d="M139.452,-107.726C119.454,-97.7271 92.613,-84.3065 75.309,-75.6545"/>
<polygon fill="midnightblue" stroke="midnightblue" points="138.138,-110.982 148.648,-112.324 141.269,-104.721 138.138,-110.982"/>
</g>
<!-- Node3 -->
<g id="node5" class="node"><title>Node3</title>
<a xlink:href="MixTransport_8h.html" target="_top" xlink:title="Headers for the MixTransport object, which models transport properties in ideal gas solutions using a...">
<polygon fill="white" stroke="black" points="124.5,-56.5 124.5,-75.5 207.5,-75.5 207.5,-56.5 124.5,-56.5"/>
<text text-anchor="middle" x="166" y="-63.5" font-family="FreeSans" font-size="10.00">MixTransport.h</text>
</a>
</g>
<!-- Node1&#45;&gt;Node3 -->
<g id="edge4" class="edge"><title>Node1&#45;&gt;Node3</title>
<path fill="none" stroke="midnightblue" d="M166,-101.805C166,-92.9102 166,-82.7798 166,-75.7511"/>
<polygon fill="midnightblue" stroke="midnightblue" points="162.5,-102.083 166,-112.083 169.5,-102.083 162.5,-102.083"/>
</g>
<!-- Node7 -->
<g id="node13" class="node"><title>Node7</title>
<a xlink:href="MultiTransport_8h.html" target="_top" xlink:title="Interface for class MultiTransport.">
<polygon fill="white" stroke="black" points="225.5,-56.5 225.5,-75.5 312.5,-75.5 312.5,-56.5 225.5,-56.5"/>
<text text-anchor="middle" x="269" y="-63.5" font-family="FreeSans" font-size="10.00">MultiTransport.h</text>
</a>
</g>
<!-- Node1&#45;&gt;Node7 -->
<g id="edge12" class="edge"><title>Node1&#45;&gt;Node7</title>
<path fill="none" stroke="midnightblue" d="M191.579,-107.59C210.623,-97.6052 236.064,-84.2672 252.492,-75.6545"/>
<polygon fill="midnightblue" stroke="midnightblue" points="189.78,-104.581 182.549,-112.324 193.031,-110.78 189.78,-104.581"/>
</g>
<!-- Node4 -->
<g id="node7" class="node"><title>Node4</title>
<a xlink:href="MixTransport_8cpp.html" target="_top" xlink:title="Mixture&#45;averaged transport properties for ideal gas mixtures.">
<polygon fill="white" stroke="black" points="-0.5,-0.5 -0.5,-19.5 92.5,-19.5 92.5,-0.5 -0.5,-0.5"/>
<text text-anchor="middle" x="46" y="-7.5" font-family="FreeSans" font-size="10.00">MixTransport.cpp</text>
</a>
</g>
<!-- Node3&#45;&gt;Node4 -->
<g id="edge6" class="edge"><title>Node3&#45;&gt;Node4</title>
<path fill="none" stroke="midnightblue" d="M137.627,-52.2321C115.18,-42.1312 84.4648,-28.3091 64.9254,-19.5164"/>
<polygon fill="midnightblue" stroke="midnightblue" points="136.43,-55.5316 146.986,-56.4435 139.303,-49.1481 136.43,-55.5316"/>
</g>
<!-- Node5 -->
<g id="node9" class="node"><title>Node5</title>
<a xlink:href="TransportFactory_8cpp.html" target="_top" xlink:title="Implementation file for class TransportFactory.">
<polygon fill="white" stroke="black" points="110.5,-0.5 110.5,-19.5 221.5,-19.5 221.5,-0.5 110.5,-0.5"/>
<text text-anchor="middle" x="166" y="-7.5" font-family="FreeSans" font-size="10.00">TransportFactory.cpp</text>
</a>
</g>
<!-- Node3&#45;&gt;Node5 -->
<g id="edge8" class="edge"><title>Node3&#45;&gt;Node5</title>
<path fill="none" stroke="midnightblue" d="M166,-45.8045C166,-36.9102 166,-26.7798 166,-19.7511"/>
<polygon fill="midnightblue" stroke="midnightblue" points="162.5,-46.083 166,-56.083 169.5,-46.083 162.5,-46.083"/>
</g>
<!-- Node6 -->
<g id="node11" class="node"><title>Node6</title>
<a xlink:href="transport_8h.html" target="_top" xlink:title="Support for transport property calculation from C++ application programs.">
<polygon fill="white" stroke="black" points="239,-0.5 239,-19.5 301,-19.5 301,-0.5 239,-0.5"/>
<text text-anchor="middle" x="270" y="-7.5" font-family="FreeSans" font-size="10.00">transport.h</text>
</a>
</g>
<!-- Node3&#45;&gt;Node6 -->
<g id="edge10" class="edge"><title>Node3&#45;&gt;Node6</title>
<path fill="none" stroke="midnightblue" d="M191.828,-51.5895C211.057,-41.6052 236.745,-28.2672 253.332,-19.6545"/>
<polygon fill="midnightblue" stroke="midnightblue" points="189.971,-48.6095 182.709,-56.324 193.197,-54.822 189.971,-48.6095"/>
</g>
<!-- Node7&#45;&gt;Node5 -->
<g id="edge16" class="edge"><title>Node7&#45;&gt;Node5</title>
<path fill="none" stroke="midnightblue" d="M243.421,-51.5895C224.377,-41.6052 198.936,-28.2672 182.508,-19.6545"/>
<polygon fill="midnightblue" stroke="midnightblue" points="241.969,-54.7805 252.451,-56.324 245.22,-48.5808 241.969,-54.7805"/>
</g>
<!-- Node7&#45;&gt;Node6 -->
<g id="edge18" class="edge"><title>Node7&#45;&gt;Node6</title>
<path fill="none" stroke="midnightblue" d="M269.355,-45.8045C269.52,-36.9102 269.708,-26.7798 269.838,-19.7511"/>
<polygon fill="midnightblue" stroke="midnightblue" points="265.851,-46.0199 269.165,-56.083 272.85,-46.1495 265.851,-46.0199"/>
</g>
<!-- Node8 -->
<g id="node15" class="node"><title>Node8</title>
<a xlink:href="MultiTransport_8cpp.html" target="_top" xlink:title="Implementation file for class MultiTransport.">
<polygon fill="white" stroke="black" points="319,-0.5 319,-19.5 417,-19.5 417,-0.5 319,-0.5"/>
<text text-anchor="middle" x="368" y="-7.5" font-family="FreeSans" font-size="10.00">MultiTransport.cpp</text>
</a>
</g>
<!-- Node7&#45;&gt;Node8 -->
<g id="edge14" class="edge"><title>Node7&#45;&gt;Node8</title>
<path fill="none" stroke="midnightblue" d="M293.837,-51.4526C312.114,-41.4835 336.416,-28.2279 352.133,-19.6545"/>
<polygon fill="midnightblue" stroke="midnightblue" points="292.009,-48.4628 284.906,-56.324 295.361,-54.608 292.009,-48.4628"/>
</g>
</g>
</svg>
