<?xml version="1.0" encoding="UTF-8" standalone="no"?>
<!DOCTYPE svg PUBLIC "-//W3C//DTD SVG 1.1//EN"
 "http://www.w3.org/Graphics/SVG/1.1/DTD/svg11.dtd">
<!-- Generated by graphviz version 2.28.0 (20120425.2022)
 -->
<!-- Title: global.h Pages: 1 -->
<svg width="2956pt" height="196pt"
 viewBox="0.00 0.00 2956.00 196.00" xmlns="http://www.w3.org/2000/svg" xmlns:xlink="http://www.w3.org/1999/xlink">
<g id="graph1" class="graph" transform="scale(1 1) rotate(0) translate(4 192)">
<title>global.h</title>
<polygon fill="white" stroke="white" points="-4,5 -4,-192 2953,-192 2953,5 -4,5"/>
<!-- Node1 -->
<g id="node1" class="node"><title>Node1</title>
<polygon fill="#bfbfbf" stroke="black" points="1251,-168.5 1251,-187.5 1303,-187.5 1303,-168.5 1251,-168.5"/>
<text text-anchor="middle" x="1277" y="-175.5" font-family="FreeSans" font-size="10.00">global.h</text>
</g>
<!-- Node2 -->
<g id="node3" class="node"><title>Node2</title>
<a xlink:href="ck2cti_8cpp.html" target="_top" xlink:title="Program to convert Chemkin&#45;II&#45;format reaction mechanism files to Cantera input format.">
<polygon fill="white" stroke="black" points="0,-112.5 0,-131.5 60,-131.5 60,-112.5 0,-112.5"/>
<text text-anchor="middle" x="30" y="-119.5" font-family="FreeSans" font-size="10.00">ck2cti.cpp</text>
</a>
</g>
<!-- Node1&#45;&gt;Node2 -->
<g id="edge2" class="edge"><title>Node1&#45;&gt;Node2</title>
<path fill="none" stroke="midnightblue" d="M1240.56,-176.574C1064.86,-174.377 303.978,-163.202 69,-132 66.1069,-131.616 63.1134,-131.115 60.1302,-130.547"/>
<polygon fill="midnightblue" stroke="midnightblue" points="1240.78,-180.077 1250.82,-176.7 1240.86,-173.077 1240.78,-180.077"/>
</g>
<!-- Node3 -->
<g id="node5" class="node"><title>Node3</title>
<a xlink:href="ct2ctml_8cpp.html" target="_top" xlink:title="Driver for the system call to the python executable that converts cti files to ctml files (see Input ...">
<polygon fill="white" stroke="black" points="78.5,-112.5 78.5,-131.5 143.5,-131.5 143.5,-112.5 78.5,-112.5"/>
<text text-anchor="middle" x="111" y="-119.5" font-family="FreeSans" font-size="10.00">ct2ctml.cpp</text>
</a>
</g>
<!-- Node1&#45;&gt;Node3 -->
<g id="edge4" class="edge"><title>Node1&#45;&gt;Node3</title>
<path fill="none" stroke="midnightblue" d="M1240.94,-176.413C1073.4,-173.553 370.031,-160.068 152,-132 149.253,-131.646 146.419,-131.199 143.583,-130.695"/>
<polygon fill="midnightblue" stroke="midnightblue" points="1240.91,-179.912 1250.96,-176.582 1241.03,-172.913 1240.91,-179.912"/>
</g>
<!-- Node4 -->
<g id="node7" class="node"><title>Node4</title>
<a xlink:href="ctexceptions_8cpp_source.html" target="_top" xlink:title="ctexceptions.cpp">
<polygon fill="white" stroke="black" points="161.5,-112.5 161.5,-131.5 252.5,-131.5 252.5,-112.5 161.5,-112.5"/>
<text text-anchor="middle" x="207" y="-119.5" font-family="FreeSans" font-size="10.00">ctexceptions.cpp</text>
</a>
</g>
<!-- Node1&#45;&gt;Node4 -->
<g id="edge6" class="edge"><title>Node1&#45;&gt;Node4</title>
<path fill="none" stroke="midnightblue" d="M1240.28,-176.933C1107.92,-176.36 642.98,-171.477 262,-132 258.92,-131.681 255.751,-131.301 252.563,-130.88"/>
<polygon fill="midnightblue" stroke="midnightblue" points="1240.63,-180.434 1250.65,-176.972 1240.66,-173.434 1240.63,-180.434"/>
</g>
<!-- Node5 -->
<g id="node9" class="node"><title>Node5</title>
<a xlink:href="ctml_8cpp.html" target="_top" xlink:title="Definitions for functions to read and write CTML.">
<polygon fill="white" stroke="black" points="270.5,-112.5 270.5,-131.5 323.5,-131.5 323.5,-112.5 270.5,-112.5"/>
<text text-anchor="middle" x="297" y="-119.5" font-family="FreeSans" font-size="10.00">ctml.cpp</text>
</a>
</g>
<!-- Node1&#45;&gt;Node5 -->
<g id="edge8" class="edge"><title>Node1&#45;&gt;Node5</title>
<path fill="none" stroke="midnightblue" d="M1240.48,-177.45C1114.56,-178.534 686.998,-178.332 338,-132 333.377,-131.386 328.502,-130.517 323.792,-129.558"/>
<polygon fill="midnightblue" stroke="midnightblue" points="1240.75,-180.947 1250.72,-177.353 1240.68,-173.948 1240.75,-180.947"/>
</g>
<!-- Node6 -->
<g id="node11" class="node"><title>Node6</title>
<a xlink:href="global_8cpp_source.html" target="_top" xlink:title="global.cpp">
<polygon fill="white" stroke="black" points="958,-56.5 958,-75.5 1020,-75.5 1020,-56.5 958,-56.5"/>
<text text-anchor="middle" x="989" y="-63.5" font-family="FreeSans" font-size="10.00">global.cpp</text>
</a>
</g>
<!-- Node1&#45;&gt;Node6 -->
<g id="edge10" class="edge"><title>Node1&#45;&gt;Node6</title>
<path fill="none" stroke="midnightblue" d="M1240.61,-171.733C1202.48,-165.4 1141.38,-152.923 1092,-132 1055.98,-116.739 1018.23,-89.5896 1000.06,-75.7043"/>
<polygon fill="midnightblue" stroke="midnightblue" points="1240.29,-175.228 1250.72,-173.358 1241.4,-168.316 1240.29,-175.228"/>
</g>
<!-- Node7 -->
<g id="node13" class="node"><title>Node7</title>
<a xlink:href="LogPrintCtrl_8cpp.html" target="_top" xlink:title="Declarations for a simple class that augments the logfile printing capabilities (see Cantera::LogPrin...">
<polygon fill="white" stroke="black" points="1234,-112.5 1234,-131.5 1320,-131.5 1320,-112.5 1234,-112.5"/>
<text text-anchor="middle" x="1277" y="-119.5" font-family="FreeSans" font-size="10.00">LogPrintCtrl.cpp</text>
</a>
</g>
<!-- Node1&#45;&gt;Node7 -->
<g id="edge12" class="edge"><title>Node1&#45;&gt;Node7</title>
<path fill="none" stroke="midnightblue" d="M1277,-157.805C1277,-148.91 1277,-138.78 1277,-131.751"/>
<polygon fill="midnightblue" stroke="midnightblue" points="1273.5,-158.083 1277,-168.083 1280.5,-158.083 1273.5,-158.083"/>
</g>
<!-- Node8 -->
<g id="node15" class="node"><title>Node8</title>
<a xlink:href="stringUtils_8cpp.html" target="_top" xlink:title="Contains definitions for string manipulation functions within Cantera.">
<polygon fill="white" stroke="black" points="1338.5,-112.5 1338.5,-131.5 1415.5,-131.5 1415.5,-112.5 1338.5,-112.5"/>
<text text-anchor="middle" x="1377" y="-119.5" font-family="FreeSans" font-size="10.00">stringUtils.cpp</text>
</a>
</g>
<!-- Node1&#45;&gt;Node8 -->
<g id="edge14" class="edge"><title>Node1&#45;&gt;Node8</title>
<path fill="none" stroke="midnightblue" d="M1302.09,-163.453C1320.55,-153.483 1345.1,-140.228 1360.97,-131.655"/>
<polygon fill="midnightblue" stroke="midnightblue" points="1300.2,-160.493 1293.07,-168.324 1303.53,-166.652 1300.2,-160.493"/>
</g>
<!-- Node9 -->
<g id="node17" class="node"><title>Node9</title>
<a xlink:href="xml_8cpp.html" target="_top" xlink:title="Classes providing support for XML data files.">
<polygon fill="white" stroke="black" points="1038,-56.5 1038,-75.5 1088,-75.5 1088,-56.5 1038,-56.5"/>
<text text-anchor="middle" x="1063" y="-63.5" font-family="FreeSans" font-size="10.00">xml.cpp</text>
</a>
</g>
<!-- Node1&#45;&gt;Node9 -->
<g id="edge16" class="edge"><title>Node1&#45;&gt;Node9</title>
<path fill="none" stroke="midnightblue" d="M1240.73,-172.571C1207.26,-167.162 1157.28,-155.631 1120,-132 1096.42,-117.053 1077.02,-89.5126 1068.17,-75.5692"/>
<polygon fill="midnightblue" stroke="midnightblue" points="1240.56,-176.085 1250.97,-174.119 1241.61,-169.164 1240.56,-176.085"/>
</g>
<!-- Node10 -->
<g id="node19" class="node"><title>Node10</title>
<a xlink:href="BasisOptimize_8cpp.html" target="_top" xlink:title="Functions which calculation optimized basis of the stoichiometric coefficient matrix (see /ref equil ...">
<polygon fill="white" stroke="black" points="1433.5,-112.5 1433.5,-131.5 1532.5,-131.5 1532.5,-112.5 1433.5,-112.5"/>
<text text-anchor="middle" x="1483" y="-119.5" font-family="FreeSans" font-size="10.00">BasisOptimize.cpp</text>
</a>
</g>
<!-- Node1&#45;&gt;Node10 -->
<g id="edge18" class="edge"><title>Node1&#45;&gt;Node10</title>
<path fill="none" stroke="midnightblue" d="M1312.91,-167.586C1351.68,-157.424 1412.89,-141.379 1450.34,-131.561"/>
<polygon fill="midnightblue" stroke="midnightblue" points="1311.88,-164.239 1303.09,-170.161 1313.65,-171.011 1311.88,-164.239"/>
</g>
<!-- Node11 -->
<g id="node21" class="node"><title>Node11</title>
<a xlink:href="ChemEquil_8cpp.html" target="_top" xlink:title="Chemical equilibrium.">
<polygon fill="white" stroke="black" points="1550.5,-112.5 1550.5,-131.5 1633.5,-131.5 1633.5,-112.5 1550.5,-112.5"/>
<text text-anchor="middle" x="1592" y="-119.5" font-family="FreeSans" font-size="10.00">ChemEquil.cpp</text>
</a>
</g>
<!-- Node1&#45;&gt;Node11 -->
<g id="edge20" class="edge"><title>Node1&#45;&gt;Node11</title>
<path fill="none" stroke="midnightblue" d="M1313.41,-170.863C1364.34,-162.262 1459.74,-146.095 1541,-132 1544.01,-131.478 1547.12,-130.935 1550.25,-130.387"/>
<polygon fill="midnightblue" stroke="midnightblue" points="1312.52,-167.464 1303.24,-172.58 1313.68,-174.366 1312.52,-167.464"/>
</g>
<!-- Node12 -->
<g id="node23" class="node"><title>Node12</title>
<a xlink:href="equilibrate_8cpp.html" target="_top" xlink:title="Driver routines for the chemical equilibrium solvers.">
<polygon fill="white" stroke="black" points="1651.5,-112.5 1651.5,-131.5 1732.5,-131.5 1732.5,-112.5 1651.5,-112.5"/>
<text text-anchor="middle" x="1692" y="-119.5" font-family="FreeSans" font-size="10.00">equilibrate.cpp</text>
</a>
</g>
<!-- Node1&#45;&gt;Node12 -->
<g id="edge22" class="edge"><title>Node1&#45;&gt;Node12</title>
<path fill="none" stroke="midnightblue" d="M1313.43,-173.185C1379.21,-166.147 1522.1,-150.167 1642,-132 1645.05,-131.538 1648.2,-131.033 1651.37,-130.507"/>
<polygon fill="midnightblue" stroke="midnightblue" points="1312.75,-169.737 1303.18,-174.276 1313.5,-176.698 1312.75,-169.737"/>
</g>
<!-- Node13 -->
<g id="node25" class="node"><title>Node13</title>
<a xlink:href="MultiPhase_8cpp.html" target="_top" xlink:title="Definitions for the MultiPhase object that is used to set up multiphase equilibrium problems (see Equ...">
<polygon fill="white" stroke="black" points="1751,-112.5 1751,-131.5 1835,-131.5 1835,-112.5 1751,-112.5"/>
<text text-anchor="middle" x="1793" y="-119.5" font-family="FreeSans" font-size="10.00">MultiPhase.cpp</text>
</a>
</g>
<!-- Node1&#45;&gt;Node13 -->
<g id="edge24" class="edge"><title>Node1&#45;&gt;Node13</title>
<path fill="none" stroke="midnightblue" d="M1313.56,-174.388C1392.05,-168.576 1582.43,-153.381 1741,-132 1744.18,-131.571 1747.46,-131.092 1750.76,-130.583"/>
<polygon fill="midnightblue" stroke="midnightblue" points="1312.96,-170.923 1303.24,-175.146 1313.47,-177.904 1312.96,-170.923"/>
</g>
<!-- Node14 -->
<g id="node27" class="node"><title>Node14</title>
<a xlink:href="MultiPhaseEquil_8cpp.html" target="_top" xlink:title="MultiPhaseEquil.cpp">
<polygon fill="white" stroke="black" points="1853,-112.5 1853,-131.5 1959,-131.5 1959,-112.5 1853,-112.5"/>
<text text-anchor="middle" x="1906" y="-119.5" font-family="FreeSans" font-size="10.00">MultiPhaseEquil.cpp</text>
</a>
</g>
<!-- Node1&#45;&gt;Node14 -->
<g id="edge26" class="edge"><title>Node1&#45;&gt;Node14</title>
<path fill="none" stroke="midnightblue" d="M1313.2,-174.91C1403.05,-169.551 1643.41,-154.168 1843,-132 1846.18,-131.646 1849.46,-131.257 1852.75,-130.845"/>
<polygon fill="midnightblue" stroke="midnightblue" points="1312.78,-171.429 1303.01,-175.513 1313.2,-178.416 1312.78,-171.429"/>
</g>
<!-- Node15 -->
<g id="node29" class="node"><title>Node15</title>
<a xlink:href="newEquilibrate_8cpp_source.html" target="_top" xlink:title="newEquilibrate.cpp">
<polygon fill="white" stroke="black" points="1977,-112.5 1977,-131.5 2077,-131.5 2077,-112.5 1977,-112.5"/>
<text text-anchor="middle" x="2027" y="-119.5" font-family="FreeSans" font-size="10.00">newEquilibrate.cpp</text>
</a>
</g>
<!-- Node1&#45;&gt;Node15 -->
<g id="edge28" class="edge"><title>Node1&#45;&gt;Node15</title>
<path fill="none" stroke="midnightblue" d="M1313.22,-175.708C1415.91,-171.815 1717.71,-158.778 1967,-132 1970.25,-131.651 1973.59,-131.255 1976.95,-130.828"/>
<polygon fill="midnightblue" stroke="midnightblue" points="1312.93,-172.216 1303.07,-176.088 1313.2,-179.211 1312.93,-172.216"/>
</g>
<!-- Node16 -->
<g id="node31" class="node"><title>Node16</title>
<a xlink:href="importKinetics_8cpp.html" target="_top" xlink:title="Declarations of global routines for the importing of kinetics data from XML files (see Input File Han...">
<polygon fill="white" stroke="black" points="620.5,-56.5 620.5,-75.5 717.5,-75.5 717.5,-56.5 620.5,-56.5"/>
<text text-anchor="middle" x="669" y="-63.5" font-family="FreeSans" font-size="10.00">importKinetics.cpp</text>
</a>
</g>
<!-- Node1&#45;&gt;Node16 -->
<g id="edge30" class="edge"><title>Node1&#45;&gt;Node16</title>
<path fill="none" stroke="midnightblue" d="M1240.81,-170.453C1136.22,-151.529 833.49,-96.7597 716.203,-75.54"/>
<polygon fill="midnightblue" stroke="midnightblue" points="1240.41,-173.937 1250.88,-172.273 1241.66,-167.049 1240.41,-173.937"/>
</g>
<!-- Node17 -->
<g id="node33" class="node"><title>Node17</title>
<a xlink:href="BandMatrix_8cpp.html" target="_top" xlink:title="Banded matrices.">
<polygon fill="white" stroke="black" points="2095,-112.5 2095,-131.5 2181,-131.5 2181,-112.5 2095,-112.5"/>
<text text-anchor="middle" x="2138" y="-119.5" font-family="FreeSans" font-size="10.00">BandMatrix.cpp</text>
</a>
</g>
<!-- Node1&#45;&gt;Node17 -->
<g id="edge32" class="edge"><title>Node1&#45;&gt;Node17</title>
<path fill="none" stroke="midnightblue" d="M1313.58,-176.473C1427.99,-174.501 1789.14,-165.831 2086,-132 2088.91,-131.668 2091.91,-131.278 2094.93,-130.851"/>
<polygon fill="midnightblue" stroke="midnightblue" points="1313.22,-172.978 1303.28,-176.643 1313.34,-179.977 1313.22,-172.978"/>
</g>
<!-- Node18 -->
<g id="node35" class="node"><title>Node18</title>
<a xlink:href="DenseMatrix_8cpp.html" target="_top" xlink:title="DenseMatrix.cpp">
<polygon fill="white" stroke="black" points="2199,-112.5 2199,-131.5 2291,-131.5 2291,-112.5 2199,-112.5"/>
<text text-anchor="middle" x="2245" y="-119.5" font-family="FreeSans" font-size="10.00">DenseMatrix.cpp</text>
</a>
</g>
<!-- Node1&#45;&gt;Node18 -->
<g id="edge34" class="edge"><title>Node1&#45;&gt;Node18</title>
<path fill="none" stroke="midnightblue" d="M1313.25,-176.682C1436.47,-175.289 1850.34,-168.044 2190,-132 2192.89,-131.694 2195.85,-131.336 2198.84,-130.942"/>
<polygon fill="midnightblue" stroke="midnightblue" points="1313.19,-173.182 1303.23,-176.79 1313.27,-180.182 1313.19,-173.182"/>
</g>
<!-- Node19 -->
<g id="node37" class="node"><title>Node19</title>
<a xlink:href="Func1_8cpp_source.html" target="_top" xlink:title="Func1.cpp">
<polygon fill="white" stroke="black" points="2309.5,-112.5 2309.5,-131.5 2370.5,-131.5 2370.5,-112.5 2309.5,-112.5"/>
<text text-anchor="middle" x="2340" y="-119.5" font-family="FreeSans" font-size="10.00">Func1.cpp</text>
</a>
</g>
<!-- Node1&#45;&gt;Node19 -->
<g id="edge36" class="edge"><title>Node1&#45;&gt;Node19</title>
<path fill="none" stroke="midnightblue" d="M1313.56,-176.262C1472.39,-172.921 2103.41,-158.229 2300,-132 2302.96,-131.605 2306.03,-131.097 2309.09,-130.524"/>
<polygon fill="midnightblue" stroke="midnightblue" points="1313.29,-172.767 1303.37,-176.474 1313.44,-179.765 1313.29,-172.767"/>
</g>
<!-- Node20 -->
<g id="node39" class="node"><title>Node20</title>
<a xlink:href="RootFind_8cpp_source.html" target="_top" xlink:title="RootFind.cpp">
<polygon fill="white" stroke="black" points="2388.5,-112.5 2388.5,-131.5 2463.5,-131.5 2463.5,-112.5 2388.5,-112.5"/>
<text text-anchor="middle" x="2426" y="-119.5" font-family="FreeSans" font-size="10.00">RootFind.cpp</text>
</a>
</g>
<!-- Node1&#45;&gt;Node20 -->
<g id="edge38" class="edge"><title>Node1&#45;&gt;Node20</title>
<path fill="none" stroke="midnightblue" d="M1313.22,-177.466C1451.91,-178.841 1962.35,-180.13 2379,-132 2382.05,-131.647 2385.21,-131.208 2388.37,-130.716"/>
<polygon fill="midnightblue" stroke="midnightblue" points="1313.18,-173.966 1303.14,-177.36 1313.11,-180.966 1313.18,-173.966"/>
</g>
<!-- Node21 -->
<g id="node41" class="node"><title>Node21</title>
<a xlink:href="SquareMatrix_8cpp_source.html" target="_top" xlink:title="SquareMatrix.cpp">
<polygon fill="white" stroke="black" points="2481.5,-112.5 2481.5,-131.5 2576.5,-131.5 2576.5,-112.5 2481.5,-112.5"/>
<text text-anchor="middle" x="2529" y="-119.5" font-family="FreeSans" font-size="10.00">SquareMatrix.cpp</text>
</a>
</g>
<!-- Node1&#45;&gt;Node21 -->
<g id="edge40" class="edge"><title>Node1&#45;&gt;Node21</title>
<path fill="none" stroke="midnightblue" d="M1313.32,-177.205C1459.17,-177.696 2016.41,-176.387 2472,-132 2475.09,-131.699 2478.27,-131.339 2481.47,-130.938"/>
<polygon fill="midnightblue" stroke="midnightblue" points="1313.16,-173.704 1303.15,-177.165 1313.13,-180.704 1313.16,-173.704"/>
</g>
<!-- Node22 -->
<g id="node43" class="node"><title>Node22</title>
<a xlink:href="Nasa9PolyMultiTempRegion_8cpp.html" target="_top" xlink:title="Definitions for a single&#45;species standard state object derived from SpeciesThermoInterpType based on ...">
<polygon fill="white" stroke="black" points="215,-0.5 215,-19.5 377,-19.5 377,-0.5 215,-0.5"/>
<text text-anchor="middle" x="296" y="-7.5" font-family="FreeSans" font-size="10.00">Nasa9PolyMultiTempRegion.cpp</text>
</a>
</g>
<!-- Node1&#45;&gt;Node22 -->
<g id="edge42" class="edge"><title>Node1&#45;&gt;Node22</title>
<path fill="none" stroke="midnightblue" d="M1240.46,-177.136C1093.34,-177.381 544.334,-175.313 377,-132 370.169,-130.232 266.731,-81.9893 263,-76 250.955,-56.6641 272.163,-32.3843 285.817,-19.6723"/>
<polygon fill="midnightblue" stroke="midnightblue" points="1240.74,-180.635 1250.73,-177.114 1240.73,-173.635 1240.74,-180.635"/>
</g>
<!-- Node23 -->
<g id="node45" class="node"><title>Node23</title>
<a xlink:href="Nasa9PolyMultiTempRegion_8h.html" target="_top" xlink:title="Header for a single&#45;species standard state object derived from SpeciesThermoInterpType based on the N...">
<polygon fill="white" stroke="black" points="272,-56.5 272,-75.5 424,-75.5 424,-56.5 272,-56.5"/>
<text text-anchor="middle" x="348" y="-63.5" font-family="FreeSans" font-size="10.00">Nasa9PolyMultiTempRegion.h</text>
</a>
</g>
<!-- Node1&#45;&gt;Node23 -->
<g id="edge44" class="edge"><title>Node1&#45;&gt;Node23</title>
<path fill="none" stroke="midnightblue" d="M1240.54,-176.708C1085.46,-175.251 485.192,-167.356 409,-132 382.609,-119.753 362.082,-90.4391 353.039,-75.7299"/>
<polygon fill="midnightblue" stroke="midnightblue" points="1240.89,-180.211 1250.92,-176.802 1240.95,-173.212 1240.89,-180.211"/>
</g>
<!-- Node25 -->
<g id="node50" class="node"><title>Node25</title>
<a xlink:href="NasaThermo_8h.html" target="_top" xlink:title="Header for the 2 regime 7 coefficient Nasa thermodynamic polynomials for multiple species in a phase...">
<polygon fill="white" stroke="black" points="480,-56.5 480,-75.5 564,-75.5 564,-56.5 480,-56.5"/>
<text text-anchor="middle" x="522" y="-63.5" font-family="FreeSans" font-size="10.00">NasaThermo.h</text>
</a>
</g>
<!-- Node1&#45;&gt;Node25 -->
<g id="edge50" class="edge"><title>Node1&#45;&gt;Node25</title>
<path fill="none" stroke="midnightblue" d="M1240.57,-175.984C1126.27,-172.536 775.855,-159.906 666,-132 616.021,-119.304 561.788,-90.2004 536.504,-75.6348"/>
<polygon fill="midnightblue" stroke="midnightblue" points="1240.78,-179.492 1250.88,-176.29 1240.99,-172.495 1240.78,-179.492"/>
</g>
<!-- Node26 -->
<g id="node53" class="node"><title>Node26</title>
<a xlink:href="TransportFactory_8cpp.html" target="_top" xlink:title="Implementation file for class TransportFactory.">
<polygon fill="white" stroke="black" points="1106.5,-56.5 1106.5,-75.5 1217.5,-75.5 1217.5,-56.5 1106.5,-56.5"/>
<text text-anchor="middle" x="1162" y="-63.5" font-family="FreeSans" font-size="10.00">TransportFactory.cpp</text>
</a>
</g>
<!-- Node1&#45;&gt;Node26 -->
<g id="edge54" class="edge"><title>Node1&#45;&gt;Node26</title>
<path fill="none" stroke="midnightblue" d="M1240.64,-177.308C1205.68,-175.413 1154.51,-166.414 1129,-132 1115.28,-113.495 1137.75,-88.4486 1151.88,-75.515"/>
<polygon fill="midnightblue" stroke="midnightblue" points="1240.8,-180.816 1250.92,-177.688 1241.06,-173.821 1240.8,-180.816"/>
</g>
<!-- Node27 -->
<g id="node55" class="node"><title>Node27</title>
<a xlink:href="xml_8h.html" target="_top" xlink:title="Classes providing support for XML data files.">
<polygon fill="white" stroke="red" points="1138,-112.5 1138,-131.5 1178,-131.5 1178,-112.5 1138,-112.5"/>
<text text-anchor="middle" x="1158" y="-119.5" font-family="FreeSans" font-size="10.00">xml.h</text>
</a>
</g>
<!-- Node1&#45;&gt;Node27 -->
<g id="edge56" class="edge"><title>Node1&#45;&gt;Node27</title>
<path fill="none" stroke="midnightblue" d="M1248.86,-164.232C1226.6,-154.131 1196.14,-140.309 1176.77,-131.516"/>
<polygon fill="midnightblue" stroke="midnightblue" points="1247.59,-167.498 1258.14,-168.444 1250.48,-161.124 1247.59,-167.498"/>
</g>
<!-- Node43 -->
<g id="node92" class="node"><title>Node43</title>
<a xlink:href="Cantera_8h_source.html" target="_top" xlink:title="Cantera.h">
<polygon fill="white" stroke="black" points="2825,-56.5 2825,-75.5 2885,-75.5 2885,-56.5 2825,-56.5"/>
<text text-anchor="middle" x="2855" y="-63.5" font-family="FreeSans" font-size="10.00">Cantera.h</text>
</a>
</g>
<!-- Node1&#45;&gt;Node43 -->
<g id="edge100" class="edge"><title>Node1&#45;&gt;Node43</title>
<path fill="none" stroke="midnightblue" d="M1252.83,-162.809C1232.49,-149.172 1209.07,-128.293 1225,-112 1255.9,-80.3902 2772.14,-81.4987 2816,-76 2818.9,-75.637 2821.89,-75.1508 2824.88,-74.5917"/>
<polygon fill="midnightblue" stroke="midnightblue" points="1251.2,-165.924 1261.52,-168.348 1254.97,-160.021 1251.2,-165.924"/>
</g>
<!-- Node44 -->
<g id="node95" class="node"><title>Node44</title>
<a xlink:href="vcs__internal_8h.html" target="_top" xlink:title="Internal declarations for the VCSnonideal package ">
<polygon fill="white" stroke="red" points="2594.5,-112.5 2594.5,-131.5 2671.5,-131.5 2671.5,-112.5 2594.5,-112.5"/>
<text text-anchor="middle" x="2633" y="-119.5" font-family="FreeSans" font-size="10.00">vcs_internal.h</text>
</a>
</g>
<!-- Node1&#45;&gt;Node44 -->
<g id="edge102" class="edge"><title>Node1&#45;&gt;Node44</title>
<path fill="none" stroke="midnightblue" d="M1313.44,-176.491C1497.74,-173.801 2328.55,-160.29 2585,-132 2588.03,-131.665 2591.16,-131.247 2594.3,-130.775"/>
<polygon fill="midnightblue" stroke="midnightblue" points="1313.15,-172.994 1303.2,-176.639 1313.25,-179.994 1313.15,-172.994"/>
</g>
<!-- Node45 -->
<g id="node97" class="node"><title>Node45</title>
<a xlink:href="Integrator_8h.html" target="_top" xlink:title="Integrator.h">
<polygon fill="white" stroke="red" points="2690,-112.5 2690,-131.5 2756,-131.5 2756,-112.5 2690,-112.5"/>
<text text-anchor="middle" x="2723" y="-119.5" font-family="FreeSans" font-size="10.00">Integrator.h</text>
</a>
</g>
<!-- Node1&#45;&gt;Node45 -->
<g id="edge104" class="edge"><title>Node1&#45;&gt;Node45</title>
<path fill="none" stroke="midnightblue" d="M1313.31,-176.693C1505.32,-174.937 2403.93,-165.063 2680,-132 2683.18,-131.619 2686.48,-131.121 2689.76,-130.554"/>
<polygon fill="midnightblue" stroke="midnightblue" points="1313.15,-173.194 1303.19,-176.784 1313.22,-180.194 1313.15,-173.194"/>
</g>
<!-- Node46 -->
<g id="node99" class="node"><title>Node46</title>
<a xlink:href="DAE__Solver_8h.html" target="_top" xlink:title="Header file for class DAE_Solver.">
<polygon fill="white" stroke="red" points="2774,-112.5 2774,-131.5 2852,-131.5 2852,-112.5 2774,-112.5"/>
<text text-anchor="middle" x="2813" y="-119.5" font-family="FreeSans" font-size="10.00">DAE_Solver.h</text>
</a>
</g>
<!-- Node1&#45;&gt;Node46 -->
<g id="edge106" class="edge"><title>Node1&#45;&gt;Node46</title>
<path fill="none" stroke="midnightblue" d="M1313.25,-176.667C1511.96,-174.727 2470.74,-163.841 2765,-132 2767.87,-131.69 2770.82,-131.303 2773.78,-130.866"/>
<polygon fill="midnightblue" stroke="midnightblue" points="1313.03,-173.169 1303.07,-176.765 1313.1,-180.169 1313.03,-173.169"/>
</g>
<!-- Node47 -->
<g id="node101" class="node"><title>Node47</title>
<a xlink:href="speciesThermoTypes_8h.html" target="_top" xlink:title=" Contains const definitions for types of species &#160;reference&#45;state thermodynamics managers (see \ref s...">
<polygon fill="white" stroke="red" points="674.5,-112.5 674.5,-131.5 799.5,-131.5 799.5,-112.5 674.5,-112.5"/>
<text text-anchor="middle" x="737" y="-119.5" font-family="FreeSans" font-size="10.00">speciesThermoTypes.h</text>
</a>
</g>
<!-- Node1&#45;&gt;Node47 -->
<g id="edge108" class="edge"><title>Node1&#45;&gt;Node47</title>
<path fill="none" stroke="midnightblue" d="M1240.93,-173.393C1150.57,-164.357 913.653,-140.665 799.824,-129.282"/>
<polygon fill="midnightblue" stroke="midnightblue" points="1240.66,-176.883 1250.95,-174.395 1241.35,-169.918 1240.66,-176.883"/>
</g>
<!-- Node48 -->
<g id="node108" class="node"><title>Node48</title>
<a xlink:href="NasaPoly1_8h.html" target="_top" xlink:title="Header for a single&#45;species standard state object derived from SpeciesThermoInterpType based on the N...">
<polygon fill="white" stroke="red" points="518.5,-112.5 518.5,-131.5 591.5,-131.5 591.5,-112.5 518.5,-112.5"/>
<text text-anchor="middle" x="555" y="-119.5" font-family="FreeSans" font-size="10.00">NasaPoly1.h</text>
</a>
</g>
<!-- Node1&#45;&gt;Node48 -->
<g id="edge120" class="edge"><title>Node1&#45;&gt;Node48</title>
<path fill="none" stroke="midnightblue" d="M1240.57,-175.562C1140.47,-171.385 852.838,-157.878 615,-132 607.461,-131.18 599.416,-130.109 591.747,-128.993"/>
<polygon fill="midnightblue" stroke="midnightblue" points="1240.62,-179.066 1250.76,-175.981 1240.91,-172.072 1240.62,-179.066"/>
</g>
<!-- Node49 -->
<g id="node111" class="node"><title>Node49</title>
<a xlink:href="Nasa9Poly1_8h.html" target="_top" xlink:title="Header for a single&#45;species standard state object derived from SpeciesThermoInterpType based on the N...">
<polygon fill="white" stroke="red" points="418,-112.5 418,-131.5 496,-131.5 496,-112.5 418,-112.5"/>
<text text-anchor="middle" x="457" y="-119.5" font-family="FreeSans" font-size="10.00">Nasa9Poly1.h</text>
</a>
</g>
<!-- Node1&#45;&gt;Node49 -->
<g id="edge124" class="edge"><title>Node1&#45;&gt;Node49</title>
<path fill="none" stroke="midnightblue" d="M1240.5,-176.277C1130.06,-173.788 789.929,-163.882 510,-132 505.456,-131.482 500.71,-130.833 496.006,-130.122"/>
<polygon fill="midnightblue" stroke="midnightblue" points="1240.68,-179.782 1250.75,-176.502 1240.83,-172.784 1240.68,-179.782"/>
</g>
<!-- Node50 -->
<g id="node115" class="node"><title>Node50</title>
<a xlink:href="FlowDevice_8h.html" target="_top" xlink:title="FlowDevice.h">
<polygon fill="white" stroke="red" points="2870,-112.5 2870,-131.5 2948,-131.5 2948,-112.5 2870,-112.5"/>
<text text-anchor="middle" x="2909" y="-119.5" font-family="FreeSans" font-size="10.00">FlowDevice.h</text>
</a>
</g>
<!-- Node1&#45;&gt;Node50 -->
<g id="edge130" class="edge"><title>Node1&#45;&gt;Node50</title>
<path fill="none" stroke="midnightblue" d="M1313.29,-176.744C1519.6,-175.169 2546.59,-165.731 2861,-132 2863.87,-131.692 2866.82,-131.308 2869.78,-130.872"/>
<polygon fill="midnightblue" stroke="midnightblue" points="1313.26,-173.244 1303.28,-176.819 1313.31,-180.243 1313.26,-173.244"/>
</g>
<!-- Node23&#45;&gt;Node22 -->
<g id="edge46" class="edge"><title>Node23&#45;&gt;Node22</title>
<path fill="none" stroke="midnightblue" d="M332.321,-48.7175C323.155,-39.1997 311.947,-27.5608 304.427,-19.7511"/>
<polygon fill="midnightblue" stroke="midnightblue" points="329.956,-51.3075 339.413,-56.083 334.998,-46.452 329.956,-51.3075"/>
</g>
<!-- Node24 -->
<g id="node48" class="node"><title>Node24</title>
<a xlink:href="SpeciesThermoFactory_8cpp.html" target="_top" xlink:title="Definitions for factory to build instances of classes that manage the standard&#45;state thermodynamic pr...">
<polygon fill="white" stroke="black" points="451.5,-0.5 451.5,-19.5 592.5,-19.5 592.5,-0.5 451.5,-0.5"/>
<text text-anchor="middle" x="522" y="-7.5" font-family="FreeSans" font-size="10.00">SpeciesThermoFactory.cpp</text>
</a>
</g>
<!-- Node23&#45;&gt;Node24 -->
<g id="edge48" class="edge"><title>Node23&#45;&gt;Node24</title>
<path fill="none" stroke="midnightblue" d="M385.261,-53.4363C418.067,-43.2551 465.083,-28.664 494.558,-19.5164"/>
<polygon fill="midnightblue" stroke="midnightblue" points="384.084,-50.1368 375.571,-56.4435 386.159,-56.8222 384.084,-50.1368"/>
</g>
<!-- Node25&#45;&gt;Node24 -->
<g id="edge52" class="edge"><title>Node25&#45;&gt;Node24</title>
<path fill="none" stroke="midnightblue" d="M522,-45.8045C522,-36.9102 522,-26.7798 522,-19.7511"/>
<polygon fill="midnightblue" stroke="midnightblue" points="518.5,-46.083 522,-56.083 525.5,-46.083 518.5,-46.083"/>
</g>
<!-- Node27&#45;&gt;Node6 -->
<g id="edge62" class="edge"><title>Node27&#45;&gt;Node6</title>
<path fill="none" stroke="midnightblue" d="M1128.3,-111.509C1096.45,-101.332 1046.33,-85.3186 1015.69,-75.5285"/>
<polygon fill="midnightblue" stroke="midnightblue" points="1127.36,-114.884 1137.95,-114.593 1129.49,-108.216 1127.36,-114.884"/>
</g>
<!-- Node27&#45;&gt;Node9 -->
<g id="edge64" class="edge"><title>Node27&#45;&gt;Node9</title>
<path fill="none" stroke="midnightblue" d="M1133.68,-107.177C1116.2,-97.2407 1093.17,-84.1492 1078.23,-75.6545"/>
<polygon fill="midnightblue" stroke="midnightblue" points="1132.31,-110.425 1142.74,-112.324 1135.77,-104.339 1132.31,-110.425"/>
</g>
<!-- Node27&#45;&gt;Node16 -->
<g id="edge66" class="edge"><title>Node27&#45;&gt;Node16</title>
<path fill="none" stroke="midnightblue" d="M1127.38,-118.332C1056.71,-112.059 876.783,-95.4281 727,-76 723.968,-75.6068 720.851,-75.1821 717.709,-74.7388"/>
<polygon fill="midnightblue" stroke="midnightblue" points="1127.49,-121.856 1137.76,-119.249 1128.11,-114.883 1127.49,-121.856"/>
</g>
<!-- Node27&#45;&gt;Node24 -->
<g id="edge86" class="edge"><title>Node27&#45;&gt;Node24</title>
<path fill="none" stroke="midnightblue" d="M1188.1,-112.783C1189.41,-112.503 1190.72,-112.24 1192,-112 1263.17,-98.6642 1563.03,-108.351 1513,-56 1481.26,-22.7899 813.968,-13.6786 592.634,-11.5651"/>
<polygon fill="midnightblue" stroke="midnightblue" points="1186.94,-109.459 1178.02,-115.176 1188.56,-116.27 1186.94,-109.459"/>
</g>
<!-- Node27&#45;&gt;Node26 -->
<g id="edge96" class="edge"><title>Node27&#45;&gt;Node26</title>
<path fill="none" stroke="midnightblue" d="M1159.4,-102.101C1160.06,-93.1357 1160.83,-82.8579 1161.35,-75.7511"/>
<polygon fill="midnightblue" stroke="midnightblue" points="1155.91,-101.852 1158.66,-112.083 1162.89,-102.369 1155.91,-101.852"/>
</g>
<!-- Node28 -->
<g id="node57" class="node"><title>Node28</title>
<a xlink:href="cti2ctml_8cpp.html" target="_top" xlink:title="cti2ctml.cpp">
<polygon fill="white" stroke="black" points="2337,-56.5 2337,-75.5 2405,-75.5 2405,-56.5 2337,-56.5"/>
<text text-anchor="middle" x="2371" y="-63.5" font-family="FreeSans" font-size="10.00">cti2ctml.cpp</text>
</a>
</g>
<!-- Node27&#45;&gt;Node28 -->
<g id="edge58" class="edge"><title>Node27&#45;&gt;Node28</title>
<path fill="none" stroke="midnightblue" d="M1188.18,-112.634C1189.46,-112.397 1190.74,-112.184 1192,-112 1691.82,-38.8982 1826.43,-135.971 2328,-76 2330.88,-75.6559 2333.85,-75.2157 2336.82,-74.7154"/>
<polygon fill="midnightblue" stroke="midnightblue" points="1187.35,-109.234 1178.34,-114.813 1188.86,-116.068 1187.35,-109.234"/>
</g>
<!-- Node29 -->
<g id="node59" class="node"><title>Node29</title>
<a xlink:href="application_8cpp_source.html" target="_top" xlink:title="application.cpp">
<polygon fill="white" stroke="black" points="2423.5,-56.5 2423.5,-75.5 2506.5,-75.5 2506.5,-56.5 2423.5,-56.5"/>
<text text-anchor="middle" x="2465" y="-63.5" font-family="FreeSans" font-size="10.00">application.cpp</text>
</a>
</g>
<!-- Node27&#45;&gt;Node29 -->
<g id="edge60" class="edge"><title>Node27&#45;&gt;Node29</title>
<path fill="none" stroke="midnightblue" d="M1188.18,-112.631C1189.46,-112.395 1190.74,-112.183 1192,-112 1729.71,-33.9684 1873.48,-131.359 2414,-76 2417.04,-75.6885 2420.17,-75.3011 2423.32,-74.8633"/>
<polygon fill="midnightblue" stroke="midnightblue" points="1187.35,-109.23 1178.34,-114.805 1188.86,-116.065 1187.35,-109.23"/>
</g>
<!-- Node30 -->
<g id="node64" class="node"><title>Node30</title>
<a xlink:href="Elements_8cpp.html" target="_top" xlink:title="This file contains a database of atomic weights.">
<polygon fill="white" stroke="black" points="2525,-56.5 2525,-75.5 2601,-75.5 2601,-56.5 2525,-56.5"/>
<text text-anchor="middle" x="2563" y="-63.5" font-family="FreeSans" font-size="10.00">Elements.cpp</text>
</a>
</g>
<!-- Node27&#45;&gt;Node30 -->
<g id="edge68" class="edge"><title>Node27&#45;&gt;Node30</title>
<path fill="none" stroke="midnightblue" d="M1188.18,-112.627C1189.46,-112.392 1190.74,-112.181 1192,-112 1774.21,-28.1785 1930.1,-138.396 2515,-76 2518.2,-75.6582 2521.51,-75.2196 2524.83,-74.7205"/>
<polygon fill="midnightblue" stroke="midnightblue" points="1187.35,-109.226 1178.34,-114.798 1188.86,-116.061 1187.35,-109.226"/>
</g>
<!-- Node31 -->
<g id="node66" class="node"><title>Node31</title>
<a xlink:href="Mu0Poly_8cpp.html" target="_top" xlink:title="Definitions for a single&#45;species standard state object derived from SpeciesThermoInterpType based on ...">
<polygon fill="white" stroke="black" points="735.5,-56.5 735.5,-75.5 808.5,-75.5 808.5,-56.5 735.5,-56.5"/>
<text text-anchor="middle" x="772" y="-63.5" font-family="FreeSans" font-size="10.00">Mu0Poly.cpp</text>
</a>
</g>
<!-- Node27&#45;&gt;Node31 -->
<g id="edge70" class="edge"><title>Node27&#45;&gt;Node31</title>
<path fill="none" stroke="midnightblue" d="M1127.39,-117.59C1067.71,-110.799 931.675,-94.6248 818,-76 814.948,-75.5 811.789,-74.9502 808.622,-74.3763"/>
<polygon fill="midnightblue" stroke="midnightblue" points="1127.29,-121.101 1137.62,-118.747 1128.08,-114.145 1127.29,-121.101"/>
</g>
<!-- Node32 -->
<g id="node68" class="node"><title>Node32</title>
<a xlink:href="PDSS_8cpp.html" target="_top" xlink:title="Implementation of a pressure dependent standard state virtual function (see class PDSS)...">
<polygon fill="white" stroke="black" points="2619,-56.5 2619,-75.5 2681,-75.5 2681,-56.5 2619,-56.5"/>
<text text-anchor="middle" x="2650" y="-63.5" font-family="FreeSans" font-size="10.00">PDSS.cpp</text>
</a>
</g>
<!-- Node27&#45;&gt;Node32 -->
<g id="edge72" class="edge"><title>Node27&#45;&gt;Node32</title>
<path fill="none" stroke="midnightblue" d="M1188.18,-112.624C1189.46,-112.39 1190.74,-112.18 1192,-112 1816.07,-22.7323 1984.36,-153.565 2610,-76 2612.83,-75.6497 2615.74,-75.1891 2618.66,-74.6613"/>
<polygon fill="midnightblue" stroke="midnightblue" points="1187.35,-109.223 1178.34,-114.791 1188.86,-116.059 1187.35,-109.223"/>
</g>
<!-- Node33 -->
<g id="node70" class="node"><title>Node33</title>
<a xlink:href="PDSS__ConstVol_8cpp.html" target="_top" xlink:title="Implementation of a pressure dependent standard state virtual function.">
<polygon fill="white" stroke="black" points="2699,-56.5 2699,-75.5 2807,-75.5 2807,-56.5 2699,-56.5"/>
<text text-anchor="middle" x="2753" y="-63.5" font-family="FreeSans" font-size="10.00">PDSS_ConstVol.cpp</text>
</a>
</g>
<!-- Node27&#45;&gt;Node33 -->
<g id="edge74" class="edge"><title>Node27&#45;&gt;Node33</title>
<path fill="none" stroke="midnightblue" d="M1188.18,-112.622C1189.46,-112.389 1190.74,-112.179 1192,-112 1521.44,-65.1016 2357.35,-103.215 2689,-76 2692.24,-75.7339 2695.57,-75.4126 2698.93,-75.052"/>
<polygon fill="midnightblue" stroke="midnightblue" points="1187.35,-109.22 1178.34,-114.787 1188.86,-116.057 1187.35,-109.22"/>
</g>
<!-- Node34 -->
<g id="node72" class="node"><title>Node34</title>
<a xlink:href="PDSS__IdealGas_8cpp.html" target="_top" xlink:title="Implementation of a pressure dependent standard state virtual function.">
<polygon fill="white" stroke="black" points="1236,-56.5 1236,-75.5 1346,-75.5 1346,-56.5 1236,-56.5"/>
<text text-anchor="middle" x="1291" y="-63.5" font-family="FreeSans" font-size="10.00">PDSS_IdealGas.cpp</text>
</a>
</g>
<!-- Node27&#45;&gt;Node34 -->
<g id="edge76" class="edge"><title>Node27&#45;&gt;Node34</title>
<path fill="none" stroke="midnightblue" d="M1187.53,-109.01C1212.44,-98.8967 1247.49,-84.6641 1269.73,-75.6367"/>
<polygon fill="midnightblue" stroke="midnightblue" points="1186.15,-105.794 1178.2,-112.799 1188.78,-112.279 1186.15,-105.794"/>
</g>
<!-- Node35 -->
<g id="node74" class="node"><title>Node35</title>
<a xlink:href="PDSS__IonsFromNeutral_8cpp.html" target="_top" xlink:title="Implementation of a pressure dependent standard state virtual function.">
<polygon fill="white" stroke="black" points="1364,-56.5 1364,-75.5 1504,-75.5 1504,-56.5 1364,-56.5"/>
<text text-anchor="middle" x="1434" y="-63.5" font-family="FreeSans" font-size="10.00">PDSS_IonsFromNeutral.cpp</text>
</a>
</g>
<!-- Node27&#45;&gt;Node35 -->
<g id="edge78" class="edge"><title>Node27&#45;&gt;Node35</title>
<path fill="none" stroke="midnightblue" d="M1188.12,-112.9C1189.43,-112.588 1190.73,-112.286 1192,-112 1257.04,-97.3664 1332.68,-83.8573 1381.84,-75.5362"/>
<polygon fill="midnightblue" stroke="midnightblue" points="1186.92,-109.592 1178.07,-115.419 1188.63,-116.381 1186.92,-109.592"/>
</g>
<!-- Node36 -->
<g id="node76" class="node"><title>Node36</title>
<a xlink:href="PDSS__SSVol_8cpp.html" target="_top" xlink:title="Implementation of a pressure dependent standard state virtual function.">
<polygon fill="white" stroke="black" points="1560.5,-56.5 1560.5,-75.5 1655.5,-75.5 1655.5,-56.5 1560.5,-56.5"/>
<text text-anchor="middle" x="1608" y="-63.5" font-family="FreeSans" font-size="10.00">PDSS_SSVol.cpp</text>
</a>
</g>
<!-- Node27&#45;&gt;Node36 -->
<g id="edge80" class="edge"><title>Node27&#45;&gt;Node36</title>
<path fill="none" stroke="midnightblue" d="M1188.09,-112.767C1189.41,-112.491 1190.72,-112.234 1192,-112 1347.59,-83.6783 1389.05,-95.3636 1546,-76 1550.64,-75.4273 1555.47,-74.7931 1560.3,-74.1342"/>
<polygon fill="midnightblue" stroke="midnightblue" points="1186.95,-109.44 1178.02,-115.141 1188.55,-116.254 1186.95,-109.44"/>
</g>
<!-- Node37 -->
<g id="node78" class="node"><title>Node37</title>
<a xlink:href="PDSS__Water_8cpp.html" target="_top" xlink:title="PDSS_Water.cpp">
<polygon fill="white" stroke="black" points="1674,-56.5 1674,-75.5 1768,-75.5 1768,-56.5 1674,-56.5"/>
<text text-anchor="middle" x="1721" y="-63.5" font-family="FreeSans" font-size="10.00">PDSS_Water.cpp</text>
</a>
</g>
<!-- Node27&#45;&gt;Node37 -->
<g id="edge82" class="edge"><title>Node27&#45;&gt;Node37</title>
<path fill="none" stroke="midnightblue" d="M1188.09,-112.726C1189.4,-112.461 1190.71,-112.218 1192,-112 1399.44,-76.9356 1455.04,-100.426 1664,-76 1667.18,-75.6278 1670.46,-75.208 1673.76,-74.7584"/>
<polygon fill="midnightblue" stroke="midnightblue" points="1186.96,-109.394 1178,-115.056 1188.53,-116.214 1186.96,-109.394"/>
</g>
<!-- Node38 -->
<g id="node80" class="node"><title>Node38</title>
<a xlink:href="PureFluidPhase_8cpp.html" target="_top" xlink:title="Definitions for a ThermoPhase object for a pure fluid phase consisting of gas, liquid, mixed&#45;gas&#45;liquid and supercritical fluid (see Thermodynamic Properties and class PureFluidPhase).">
<polygon fill="white" stroke="black" points="1786,-56.5 1786,-75.5 1892,-75.5 1892,-56.5 1786,-56.5"/>
<text text-anchor="middle" x="1839" y="-63.5" font-family="FreeSans" font-size="10.00">PureFluidPhase.cpp</text>
</a>
</g>
<!-- Node27&#45;&gt;Node38 -->
<g id="edge84" class="edge"><title>Node27&#45;&gt;Node38</title>
<path fill="none" stroke="midnightblue" d="M1188.19,-112.682C1189.47,-112.432 1190.75,-112.203 1192,-112 1449.16,-70.4691 1517.88,-102.733 1777,-76 1779.92,-75.6986 1782.92,-75.3607 1785.94,-74.9973"/>
<polygon fill="midnightblue" stroke="midnightblue" points="1187.33,-109.286 1178.36,-114.914 1188.88,-116.113 1187.33,-109.286"/>
</g>
<!-- Node39 -->
<g id="node83" class="node"><title>Node39</title>
<a xlink:href="VPSSMgr__ConstVol_8cpp.html" target="_top" xlink:title="Definition file for a derived class that handles the calculation of standard state thermo properties ...">
<polygon fill="white" stroke="black" points="1910.5,-56.5 1910.5,-75.5 2035.5,-75.5 2035.5,-56.5 1910.5,-56.5"/>
<text text-anchor="middle" x="1973" y="-63.5" font-family="FreeSans" font-size="10.00">VPSSMgr_ConstVol.cpp</text>
</a>
</g>
<!-- Node27&#45;&gt;Node39 -->
<g id="edge88" class="edge"><title>Node27&#45;&gt;Node39</title>
<path fill="none" stroke="midnightblue" d="M1188.18,-112.665C1189.47,-112.419 1190.74,-112.196 1192,-112 1503.31,-63.4252 1586.11,-103.294 1900,-76 1903.31,-75.7124 1906.7,-75.3904 1910.12,-75.0439"/>
<polygon fill="midnightblue" stroke="midnightblue" points="1187.34,-109.267 1178.35,-114.878 1188.87,-116.097 1187.34,-109.267"/>
</g>
<!-- Node40 -->
<g id="node85" class="node"><title>Node40</title>
<a xlink:href="VPSSMgr__General_8cpp.html" target="_top" xlink:title="Definition file for a derived class that handles the calculation of standard state thermo properties ...">
<polygon fill="white" stroke="black" points="2053.5,-56.5 2053.5,-75.5 2174.5,-75.5 2174.5,-56.5 2053.5,-56.5"/>
<text text-anchor="middle" x="2114" y="-63.5" font-family="FreeSans" font-size="10.00">VPSSMgr_General.cpp</text>
</a>
</g>
<!-- Node27&#45;&gt;Node40 -->
<g id="edge90" class="edge"><title>Node27&#45;&gt;Node40</title>
<path fill="none" stroke="midnightblue" d="M1188.18,-112.651C1189.47,-112.41 1190.74,-112.191 1192,-112 1566.72,-55.175 1666.37,-108.195 2044,-76 2047.05,-75.7398 2050.18,-75.4446 2053.33,-75.1237"/>
<polygon fill="midnightblue" stroke="midnightblue" points="1187.34,-109.252 1178.35,-114.849 1188.87,-116.084 1187.34,-109.252"/>
</g>
<!-- Node41 -->
<g id="node87" class="node"><title>Node41</title>
<a xlink:href="VPSSMgr__IdealGas_8cpp.html" target="_top" xlink:title="Definition file for a derived class that handles the calculation of standard state thermo properties ...">
<polygon fill="white" stroke="black" points="2193,-56.5 2193,-75.5 2319,-75.5 2319,-56.5 2193,-56.5"/>
<text text-anchor="middle" x="2256" y="-63.5" font-family="FreeSans" font-size="10.00">VPSSMgr_IdealGas.cpp</text>
</a>
</g>
<!-- Node27&#45;&gt;Node41 -->
<g id="edge92" class="edge"><title>Node27&#45;&gt;Node41</title>
<path fill="none" stroke="midnightblue" d="M1188.18,-112.642C1189.47,-112.403 1190.74,-112.187 1192,-112 1627.95,-47.2092 1743.66,-110.997 2183,-76 2186.18,-75.7465 2189.44,-75.4567 2192.73,-75.1401"/>
<polygon fill="midnightblue" stroke="midnightblue" points="1187.34,-109.242 1178.34,-114.828 1188.86,-116.075 1187.34,-109.242"/>
</g>
<!-- Node42 -->
<g id="node89" class="node"><title>Node42</title>
<a xlink:href="VPSSMgrFactory_8cpp.html" target="_top" xlink:title="Definitions for factory to build instances of classes that manage the calculation of standard state p...">
<polygon fill="white" stroke="black" points="826.5,-56.5 826.5,-75.5 939.5,-75.5 939.5,-56.5 826.5,-56.5"/>
<text text-anchor="middle" x="883" y="-63.5" font-family="FreeSans" font-size="10.00">VPSSMgrFactory.cpp</text>
</a>
</g>
<!-- Node27&#45;&gt;Node42 -->
<g id="edge94" class="edge"><title>Node27&#45;&gt;Node42</title>
<path fill="none" stroke="midnightblue" d="M1127.85,-115.079C1079.07,-105.501 982.678,-86.5731 926.484,-75.5386"/>
<polygon fill="midnightblue" stroke="midnightblue" points="1127.29,-118.537 1137.78,-117.029 1128.64,-111.668 1127.29,-118.537"/>
</g>
<!-- Node27&#45;&gt;Node43 -->
<g id="edge98" class="edge"><title>Node27&#45;&gt;Node43</title>
<path fill="none" stroke="midnightblue" d="M1188.18,-112.619C1189.46,-112.386 1190.74,-112.178 1192,-112 1906.84,-10.922 2099.63,-165.638 2816,-76 2818.9,-75.6376 2821.89,-75.1519 2824.88,-74.5931"/>
<polygon fill="midnightblue" stroke="midnightblue" points="1187.35,-109.217 1178.34,-114.781 1188.85,-116.054 1187.35,-109.217"/>
</g>
<!-- Node47&#45;&gt;Node16 -->
<g id="edge110" class="edge"><title>Node47&#45;&gt;Node16</title>
<path fill="none" stroke="midnightblue" d="M718.238,-106.101C706,-96.3824 690.441,-84.0269 680.124,-75.8339"/>
<polygon fill="midnightblue" stroke="midnightblue" points="716.067,-108.846 726.075,-112.324 720.42,-103.364 716.067,-108.846"/>
</g>
<!-- Node47&#45;&gt;Node24 -->
<g id="edge116" class="edge"><title>Node47&#45;&gt;Node24</title>
<path fill="none" stroke="midnightblue" d="M696.037,-109.447C671.023,-101.623 638.804,-90.143 612,-76 580.634,-59.45 547.863,-33.1115 531.91,-19.6053"/>
<polygon fill="midnightblue" stroke="midnightblue" points="695.347,-112.896 705.933,-112.471 697.392,-106.201 695.347,-112.896"/>
</g>
<!-- Node47&#45;&gt;Node25 -->
<g id="edge114" class="edge"><title>Node47&#45;&gt;Node25</title>
<path fill="none" stroke="midnightblue" d="M693.04,-109.959C652.433,-99.7598 592.957,-84.8217 555.908,-75.5164"/>
<polygon fill="midnightblue" stroke="midnightblue" points="692.381,-113.402 702.933,-112.444 694.086,-106.613 692.381,-113.402"/>
</g>
<!-- Node47&#45;&gt;Node31 -->
<g id="edge112" class="edge"><title>Node47&#45;&gt;Node31</title>
<path fill="none" stroke="midnightblue" d="M748.3,-103.566C754.322,-94.2747 761.469,-83.2484 766.328,-75.7511"/>
<polygon fill="midnightblue" stroke="midnightblue" points="745.281,-101.788 742.78,-112.083 751.156,-105.595 745.281,-101.788"/>
</g>
<!-- Node47&#45;&gt;Node42 -->
<g id="edge118" class="edge"><title>Node47&#45;&gt;Node42</title>
<path fill="none" stroke="midnightblue" d="M769.699,-108.906C797.148,-98.7536 835.668,-84.5063 859.974,-75.5164"/>
<polygon fill="midnightblue" stroke="midnightblue" points="768.299,-105.692 760.134,-112.444 770.727,-112.257 768.299,-105.692"/>
</g>
<!-- Node48&#45;&gt;Node25 -->
<g id="edge122" class="edge"><title>Node48&#45;&gt;Node25</title>
<path fill="none" stroke="midnightblue" d="M544.168,-103.275C538.528,-94.0454 531.882,-83.1703 527.348,-75.7511"/>
<polygon fill="midnightblue" stroke="midnightblue" points="541.35,-105.375 549.551,-112.083 547.323,-101.725 541.35,-105.375"/>
</g>
<!-- Node49&#45;&gt;Node23 -->
<g id="edge126" class="edge"><title>Node49&#45;&gt;Node23</title>
<path fill="none" stroke="midnightblue" d="M430.481,-107.862C410.27,-97.8492 383.013,-84.3458 365.469,-75.6545"/>
<polygon fill="midnightblue" stroke="midnightblue" points="428.973,-111.021 439.487,-112.324 432.08,-104.748 428.973,-111.021"/>
</g>
<!-- Node49&#45;&gt;Node24 -->
<g id="edge128" class="edge"><title>Node49&#45;&gt;Node24</title>
<path fill="none" stroke="midnightblue" d="M457.921,-102.279C459.304,-88.644 462.703,-70.1618 471,-56 480.073,-40.5139 496.351,-27.5533 508.08,-19.5786"/>
<polygon fill="midnightblue" stroke="midnightblue" points="454.42,-102.159 457.171,-112.39 461.401,-102.677 454.42,-102.159"/>
</g>
</g>
</svg>
