<?xml version="1.0" encoding="UTF-8" standalone="no"?>
<!DOCTYPE svg PUBLIC "-//W3C//DTD SVG 1.1//EN"
 "http://www.w3.org/Graphics/SVG/1.1/DTD/svg11.dtd">
<!-- Generated by graphviz version 2.28.0 (20120425.2022)
 -->
<!-- Title: Graph Legend Pages: 1 -->
<svg width="520pt" height="164pt"
 viewBox="0.00 0.00 520.00 164.00" xmlns="http://www.w3.org/2000/svg" xmlns:xlink="http://www.w3.org/1999/xlink">
<g id="graph1" class="graph" transform="scale(1 1) rotate(0) translate(4 160)">
<title>Graph Legend</title>
<polygon fill="white" stroke="white" points="-4,5 -4,-160 517,-160 517,5 -4,5"/>
<!-- Node9 -->
<g id="node1" class="node"><title>Node9</title>
<polygon fill="#bfbfbf" stroke="black" points="298.25,-19.5 243.75,-19.5 243.75,-0.5 298.25,-0.5 298.25,-19.5"/>
<text text-anchor="middle" x="271" y="-7.5" font-family="FreeSans" font-size="10.00">Inherited</text>
</g>
<!-- Node10 -->
<g id="node2" class="node"><title>Node10</title>
<a xlink:href="$classPublicBase.html" xlink:title="PublicBase">
<polygon fill="none" stroke="black" points="66.25,-87.5 -0.25,-87.5 -0.25,-68.5 66.25,-68.5 66.25,-87.5"/>
<text text-anchor="middle" x="33" y="-75.5" font-family="FreeSans" font-size="10.00">PublicBase</text>
</a>
</g>
<!-- Node10&#45;&gt;Node9 -->
<g id="edge2" class="edge"><title>Node10&#45;&gt;Node9</title>
<path fill="none" stroke="midnightblue" d="M73.9712,-65.6382C122.48,-52.1863 201.923,-30.1557 243.568,-18.6073"/>
<polygon fill="midnightblue" stroke="midnightblue" points="72.8154,-62.3266 64.1143,-68.3717 74.686,-69.072 72.8154,-62.3266"/>
</g>
<!-- Node11 -->
<g id="node4" class="node"><title>Node11</title>
<a xlink:href="$classTruncated.html" xlink:title="Truncated">
<polygon fill="none" stroke="red" points="63.5,-155.5 2.5,-155.5 2.5,-136.5 63.5,-136.5 63.5,-155.5"/>
<text text-anchor="middle" x="33" y="-143.5" font-family="FreeSans" font-size="10.00">Truncated</text>
</a>
</g>
<!-- Node11&#45;&gt;Node10 -->
<g id="edge4" class="edge"><title>Node11&#45;&gt;Node10</title>
<path fill="none" stroke="midnightblue" d="M33,-126.041C33,-113.472 33,-97.5631 33,-87.8411"/>
<polygon fill="midnightblue" stroke="midnightblue" points="29.5001,-126.372 33,-136.372 36.5001,-126.372 29.5001,-126.372"/>
</g>
<!-- Node13 -->
<g id="node6" class="node"><title>Node13</title>
<a xlink:href="$classProtectedBase.html" xlink:title="ProtectedBase">
<polygon fill="none" stroke="black" points="168.5,-87.5 85.5,-87.5 85.5,-68.5 168.5,-68.5 168.5,-87.5"/>
<text text-anchor="middle" x="127" y="-75.5" font-family="FreeSans" font-size="10.00">ProtectedBase</text>
</a>
</g>
<!-- Node13&#45;&gt;Node9 -->
<g id="edge6" class="edge"><title>Node13&#45;&gt;Node9</title>
<path fill="none" stroke="darkgreen" d="M155.288,-64.0346C183.95,-50.898 227.481,-30.9463 252.17,-19.6305"/>
<polygon fill="darkgreen" stroke="darkgreen" points="153.458,-61.0233 145.825,-68.3717 156.374,-67.3868 153.458,-61.0233"/>
</g>
<!-- Node14 -->
<g id="node8" class="node"><title>Node14</title>
<a xlink:href="$classPrivateBase.html" xlink:title="PrivateBase">
<polygon fill="none" stroke="black" points="259,-87.5 187,-87.5 187,-68.5 259,-68.5 259,-87.5"/>
<text text-anchor="middle" x="223" y="-75.5" font-family="FreeSans" font-size="10.00">PrivateBase</text>
</a>
</g>
<!-- Node14&#45;&gt;Node9 -->
<g id="edge8" class="edge"><title>Node14&#45;&gt;Node9</title>
<path fill="none" stroke="#8b1a1a" d="M235.409,-59.9377C244.737,-47.112 257.139,-30.0591 264.57,-19.8411"/>
<polygon fill="#8b1a1a" stroke="#8b1a1a" points="232.326,-58.2257 229.275,-68.3717 237.988,-62.3429 232.326,-58.2257"/>
</g>
<!-- Node15 -->
<g id="node10" class="node"><title>Node15</title>
<polygon fill="none" stroke="#bfbfbf" points="362.25,-87.5 277.75,-87.5 277.75,-68.5 362.25,-68.5 362.25,-87.5"/>
<text text-anchor="middle" x="320" y="-75.5" font-family="FreeSans" font-size="10.00">Undocumented</text>
</g>
<!-- Node15&#45;&gt;Node9 -->
<g id="edge10" class="edge"><title>Node15&#45;&gt;Node9</title>
<path fill="none" stroke="midnightblue" d="M307.609,-60.3101C298.057,-47.4437 285.224,-30.1583 277.564,-19.8411"/>
<polygon fill="midnightblue" stroke="midnightblue" points="304.823,-62.4289 313.594,-68.3717 310.443,-58.2562 304.823,-62.4289"/>
</g>
<!-- Node16 -->
<g id="node12" class="node"><title>Node16</title>
<a xlink:href="$classTempl.html" xlink:title="Templ&lt; int &gt;">
<polygon fill="none" stroke="black" points="453.25,-87.5 380.75,-87.5 380.75,-68.5 453.25,-68.5 453.25,-87.5"/>
<text text-anchor="middle" x="417" y="-75.5" font-family="FreeSans" font-size="10.00">Templ&lt; int &gt;</text>
</a>
</g>
<!-- Node16&#45;&gt;Node9 -->
<g id="edge12" class="edge"><title>Node16&#45;&gt;Node9</title>
<path fill="none" stroke="midnightblue" d="M388.699,-64.2063C359.645,-51.0724 315.233,-30.9957 290.092,-19.6305"/>
<polygon fill="midnightblue" stroke="midnightblue" points="387.359,-67.4417 397.913,-68.3717 390.243,-61.0631 387.359,-67.4417"/>
</g>
<!-- Node17 -->
<g id="node14" class="node"><title>Node17</title>
<a xlink:href="$classTempl.html" xlink:title="Templ&lt; T &gt;">
<polygon fill="none" stroke="black" points="452.25,-155.5 381.75,-155.5 381.75,-136.5 452.25,-136.5 452.25,-155.5"/>
<text text-anchor="middle" x="417" y="-143.5" font-family="FreeSans" font-size="10.00">Templ&lt; T &gt;</text>
</a>
</g>
<!-- Node17&#45;&gt;Node16 -->
<g id="edge14" class="edge"><title>Node17&#45;&gt;Node16</title>
<path fill="none" stroke="orange" stroke-dasharray="5,2" d="M417,-126.041C417,-113.472 417,-97.5631 417,-87.8411"/>
<polygon fill="orange" stroke="orange" points="413.5,-126.372 417,-136.372 420.5,-126.372 413.5,-126.372"/>
<text text-anchor="middle" x="431" y="-109.5" font-family="FreeSans" font-size="10.00">&lt; int &gt;</text>
</g>
<!-- Node18 -->
<g id="node16" class="node"><title>Node18</title>
<a xlink:href="$classUsed.html" xlink:title="Used">
<polygon fill="none" stroke="black" points="512.25,-87.5 471.75,-87.5 471.75,-68.5 512.25,-68.5 512.25,-87.5"/>
<text text-anchor="middle" x="492" y="-75.5" font-family="FreeSans" font-size="10.00">Used</text>
</a>
</g>
<!-- Node18&#45;&gt;Node9 -->
<g id="edge16" class="edge"><title>Node18&#45;&gt;Node9</title>
<path fill="none" stroke="#9a32cd" stroke-dasharray="5,2" d="M462.294,-68.0878C462.196,-68.0585 462.098,-68.0292 462,-68 403.817,-50.5909 335.643,-30.2627 298.522,-19.1997"/>
<polygon fill="#9a32cd" stroke="#9a32cd" points="461.084,-71.3792 471.668,-70.8961 463.093,-64.6736 461.084,-71.3792"/>
<text text-anchor="middle" x="430.5" y="-41.5" font-family="FreeSans" font-size="10.00">m_usedClass</text>
</g>
</g>
</svg>
