<?xml version="1.0" encoding="UTF-8" standalone="no"?>
<!DOCTYPE svg PUBLIC "-//W3C//DTD SVG 1.1//EN"
 "http://www.w3.org/Graphics/SVG/1.1/DTD/svg11.dtd">
<!-- Generated by graphviz version 2.28.0 (20120425.2022)
 -->
<!-- Title: GRI_30_Kinetics.h Pages: 1 -->
<svg width="1259pt" height="376pt"
 viewBox="0.00 0.00 1259.00 376.00" xmlns="http://www.w3.org/2000/svg" xmlns:xlink="http://www.w3.org/1999/xlink">
<g id="graph1" class="graph" transform="scale(1 1) rotate(0) translate(4 372)">
<title>GRI_30_Kinetics.h</title>
<polygon fill="white" stroke="white" points="-4,5 -4,-372 1256,-372 1256,5 -4,5"/>
<!-- Node1 -->
<g id="node1" class="node"><title>Node1</title>
<polygon fill="#bfbfbf" stroke="black" points="385.5,-348.5 385.5,-367.5 482.5,-367.5 482.5,-348.5 385.5,-348.5"/>
<text text-anchor="middle" x="434" y="-355.5" font-family="FreeSans" font-size="10.00">GRI_30_Kinetics.h</text>
</g>
<!-- Node2 -->
<g id="node3" class="node"><title>Node2</title>
<a xlink:href="GasKinetics_8h.html" target="_top" xlink:title="GasKinetics.h">
<polygon fill="white" stroke="black" points="394.5,-292.5 394.5,-311.5 473.5,-311.5 473.5,-292.5 394.5,-292.5"/>
<text text-anchor="middle" x="434" y="-299.5" font-family="FreeSans" font-size="10.00">GasKinetics.h</text>
</a>
</g>
<!-- Node1&#45;&gt;Node2 -->
<g id="edge2" class="edge"><title>Node1&#45;&gt;Node2</title>
<path fill="none" stroke="midnightblue" d="M434,-348.083C434,-341.006 434,-330.861 434,-321.986"/>
<polygon fill="midnightblue" stroke="midnightblue" points="437.5,-321.751 434,-311.751 430.5,-321.751 437.5,-321.751"/>
</g>
<!-- Node3 -->
<g id="node5" class="node"><title>Node3</title>
<polygon fill="white" stroke="#bfbfbf" points="0,-236.5 0,-255.5 50,-255.5 50,-236.5 0,-236.5"/>
<text text-anchor="middle" x="25" y="-243.5" font-family="FreeSans" font-size="10.00">fstream</text>
</g>
<!-- Node2&#45;&gt;Node3 -->
<g id="edge4" class="edge"><title>Node2&#45;&gt;Node3</title>
<path fill="none" stroke="midnightblue" d="M394.371,-297.568C326.435,-291.375 183.5,-276.995 64,-256 62.7296,-255.777 61.4384,-255.539 60.136,-255.289"/>
<polygon fill="midnightblue" stroke="midnightblue" points="60.5984,-251.81 50.0955,-253.202 59.1742,-258.664 60.5984,-251.81"/>
</g>
<!-- Node4 -->
<g id="node7" class="node"><title>Node4</title>
<polygon fill="white" stroke="#bfbfbf" points="178,-0.5 178,-19.5 214,-19.5 214,-0.5 178,-0.5"/>
<text text-anchor="middle" x="196" y="-7.5" font-family="FreeSans" font-size="10.00">map</text>
</g>
<!-- Node2&#45;&gt;Node4 -->
<g id="edge6" class="edge"><title>Node2&#45;&gt;Node4</title>
<path fill="none" stroke="midnightblue" d="M394.423,-298.369C324.44,-293.162 182.159,-279.926 139,-256 102.615,-235.829 78,-226.602 78,-185 78,-185 78,-185 78,-121 78,-71.7199 133.746,-38.2166 168.606,-22.0835"/>
<polygon fill="midnightblue" stroke="midnightblue" points="170.1,-25.2499 177.821,-17.995 167.261,-18.8514 170.1,-25.2499"/>
</g>
<!-- Node5 -->
<g id="node9" class="node"><title>Node5</title>
<a xlink:href="mix__defs_8h_source.html" target="_top" xlink:title="cantera/thermo/mix\l_defs.h">
<polygon fill="white" stroke="black" points="1148.5,-169 1148.5,-199 1251.5,-199 1251.5,-169 1148.5,-169"/>
<text text-anchor="start" x="1156.5" y="-187" font-family="FreeSans" font-size="10.00">cantera/thermo/mix</text>
<text text-anchor="middle" x="1200" y="-176" font-family="FreeSans" font-size="10.00">_defs.h</text>
</a>
</g>
<!-- Node2&#45;&gt;Node5 -->
<g id="edge8" class="edge"><title>Node2&#45;&gt;Node5</title>
<path fill="none" stroke="midnightblue" d="M473.858,-299.891C591.447,-296.329 935.462,-283.757 1044,-256 1088.68,-244.575 1136.43,-220.964 1167.16,-204.108"/>
<polygon fill="midnightblue" stroke="midnightblue" points="1169.1,-207.037 1176.13,-199.115 1165.69,-200.921 1169.1,-207.037"/>
</g>
<!-- Node6 -->
<g id="node11" class="node"><title>Node6</title>
<a xlink:href="Kinetics_8h.html" target="_top" xlink:title="Base class for kinetics managers and also contains the kineticsmgr module documentation (see Kinetics...">
<polygon fill="white" stroke="black" points="976.5,-236.5 976.5,-255.5 1035.5,-255.5 1035.5,-236.5 976.5,-236.5"/>
<text text-anchor="middle" x="1006" y="-243.5" font-family="FreeSans" font-size="10.00">Kinetics.h</text>
</a>
</g>
<!-- Node2&#45;&gt;Node6 -->
<g id="edge10" class="edge"><title>Node2&#45;&gt;Node6</title>
<path fill="none" stroke="midnightblue" d="M473.537,-297.448C556.12,-290.002 752.958,-272.112 918,-256 933.772,-254.46 951.127,-252.7 966.226,-251.146"/>
<polygon fill="midnightblue" stroke="midnightblue" points="966.684,-254.618 976.272,-250.109 965.965,-247.655 966.684,-254.618"/>
</g>
<!-- Node9 -->
<g id="node18" class="node"><title>Node9</title>
<a xlink:href="utilities_8h.html" target="_top" xlink:title="Various templated functions that carry out common vector operations (see globalUtilFuncs).">
<polygon fill="white" stroke="black" points="258,-174.5 258,-193.5 312,-193.5 312,-174.5 258,-174.5"/>
<text text-anchor="middle" x="285" y="-181.5" font-family="FreeSans" font-size="10.00">utilities.h</text>
</a>
</g>
<!-- Node2&#45;&gt;Node9 -->
<g id="edge18" class="edge"><title>Node2&#45;&gt;Node9</title>
<path fill="none" stroke="midnightblue" d="M421.025,-292.342C407.933,-283.499 387.243,-269.227 370,-256 346.096,-237.663 319.611,-215.175 302.659,-200.486"/>
<polygon fill="midnightblue" stroke="midnightblue" points="304.567,-197.507 294.727,-193.58 299.97,-202.786 304.567,-197.507"/>
</g>
<!-- Node11 -->
<g id="node22" class="node"><title>Node11</title>
<polygon fill="white" stroke="#bfbfbf" points="319,-0.5 319,-19.5 363,-19.5 363,-0.5 319,-0.5"/>
<text text-anchor="middle" x="341" y="-7.5" font-family="FreeSans" font-size="10.00">cmath</text>
</g>
<!-- Node2&#45;&gt;Node11 -->
<g id="edge82" class="edge"><title>Node2&#45;&gt;Node11</title>
<path fill="none" stroke="midnightblue" d="M394.399,-297.417C331.612,-291.187 212.578,-276.988 176,-256 140.166,-235.439 116,-226.314 116,-185 116,-185 116,-185 116,-121 116,-90.9022 112.993,-76.5321 135,-56 159.864,-32.8022 257.134,-19.5744 308.622,-14.0634"/>
<polygon fill="midnightblue" stroke="midnightblue" points="309.284,-17.5137 318.871,-13.0037 308.564,-10.5508 309.284,-17.5137"/>
</g>
<!-- Node12 -->
<g id="node24" class="node"><title>Node12</title>
<polygon fill="white" stroke="#bfbfbf" points="394.5,-0.5 394.5,-19.5 439.5,-19.5 439.5,-0.5 394.5,-0.5"/>
<text text-anchor="middle" x="417" y="-7.5" font-family="FreeSans" font-size="10.00">cstdlib</text>
</g>
<!-- Node2&#45;&gt;Node12 -->
<g id="edge84" class="edge"><title>Node2&#45;&gt;Node12</title>
<path fill="none" stroke="midnightblue" d="M473.822,-300.058C562.784,-297.398 774.808,-287.814 838,-256 876.482,-236.626 904,-228.084 904,-185 904,-185 904,-185 904,-121 904,-27.5729 558.672,-13.4911 449.601,-11.3735"/>
<polygon fill="midnightblue" stroke="midnightblue" points="449.571,-7.87255 439.512,-11.1992 449.45,-14.8715 449.571,-7.87255"/>
</g>
<!-- Node14 -->
<g id="node29" class="node"><title>Node14</title>
<a xlink:href="ReactionStoichMgr_8h.html" target="_top" xlink:title="Header file declaring class ReactionStoichMgr.">
<polygon fill="white" stroke="black" points="379.5,-236.5 379.5,-255.5 488.5,-255.5 488.5,-236.5 379.5,-236.5"/>
<text text-anchor="middle" x="434" y="-243.5" font-family="FreeSans" font-size="10.00">ReactionStoichMgr.h</text>
</a>
</g>
<!-- Node2&#45;&gt;Node14 -->
<g id="edge30" class="edge"><title>Node2&#45;&gt;Node14</title>
<path fill="none" stroke="midnightblue" d="M434,-292.083C434,-285.006 434,-274.861 434,-265.986"/>
<polygon fill="midnightblue" stroke="midnightblue" points="437.5,-265.751 434,-255.751 430.5,-265.751 437.5,-265.751"/>
</g>
<!-- Node17 -->
<g id="node37" class="node"><title>Node17</title>
<a xlink:href="ThirdBodyMgr_8h.html" target="_top" xlink:title="ThirdBodyMgr.h">
<polygon fill="white" stroke="black" points="185.5,-236.5 185.5,-255.5 274.5,-255.5 274.5,-236.5 185.5,-236.5"/>
<text text-anchor="middle" x="230" y="-243.5" font-family="FreeSans" font-size="10.00">ThirdBodyMgr.h</text>
</a>
</g>
<!-- Node2&#45;&gt;Node17 -->
<g id="edge40" class="edge"><title>Node2&#45;&gt;Node17</title>
<path fill="none" stroke="midnightblue" d="M401.676,-292.444C366.611,-283.162 310.502,-268.309 272.035,-258.127"/>
<polygon fill="midnightblue" stroke="midnightblue" points="272.736,-254.692 262.173,-255.516 270.945,-261.459 272.736,-254.692"/>
</g>
<!-- Node19 -->
<g id="node45" class="node"><title>Node19</title>
<a xlink:href="FalloffMgr_8h.html" target="_top" xlink:title="FalloffMgr.h">
<polygon fill="white" stroke="black" points="761,-236.5 761,-255.5 829,-255.5 829,-236.5 761,-236.5"/>
<text text-anchor="middle" x="795" y="-243.5" font-family="FreeSans" font-size="10.00">FalloffMgr.h</text>
</a>
</g>
<!-- Node2&#45;&gt;Node19 -->
<g id="edge52" class="edge"><title>Node2&#45;&gt;Node19</title>
<path fill="none" stroke="midnightblue" d="M473.666,-295.067C541.663,-284.895 679.993,-264.203 750.912,-253.595"/>
<polygon fill="midnightblue" stroke="midnightblue" points="751.498,-257.046 760.87,-252.105 750.462,-250.123 751.498,-257.046"/>
</g>
<!-- Node22 -->
<g id="node54" class="node"><title>Node22</title>
<a xlink:href="RateCoeffMgr_8h.html" target="_top" xlink:title="RateCoeffMgr.h">
<polygon fill="white" stroke="black" points="538,-236.5 538,-255.5 624,-255.5 624,-236.5 538,-236.5"/>
<text text-anchor="middle" x="581" y="-243.5" font-family="FreeSans" font-size="10.00">RateCoeffMgr.h</text>
</a>
</g>
<!-- Node2&#45;&gt;Node22 -->
<g id="edge64" class="edge"><title>Node2&#45;&gt;Node22</title>
<path fill="none" stroke="midnightblue" d="M457.293,-292.444C481.807,-283.438 520.596,-269.189 548.2,-259.049"/>
<polygon fill="midnightblue" stroke="midnightblue" points="549.637,-262.25 557.816,-255.516 547.223,-255.679 549.637,-262.25"/>
</g>
<!-- Node6&#45;&gt;Node5 -->
<g id="edge16" class="edge"><title>Node6&#45;&gt;Node5</title>
<path fill="none" stroke="midnightblue" d="M1033.8,-236.403C1062.62,-227.488 1108.46,-213.311 1144.71,-202.101"/>
<polygon fill="midnightblue" stroke="midnightblue" points="1146.13,-205.324 1154.65,-199.025 1144.06,-198.636 1146.13,-205.324"/>
</g>
<!-- Node7 -->
<g id="node13" class="node"><title>Node7</title>
<a xlink:href="ctexceptions_8h.html" target="_top" xlink:title="Definitions for the classes that are thrown when Cantera experiences an error condition (also contain...">
<polygon fill="white" stroke="red" points="590.5,-112.5 590.5,-131.5 733.5,-131.5 733.5,-112.5 590.5,-112.5"/>
<text text-anchor="middle" x="662" y="-119.5" font-family="FreeSans" font-size="10.00">cantera/base/ctexceptions.h</text>
</a>
</g>
<!-- Node6&#45;&gt;Node7 -->
<g id="edge12" class="edge"><title>Node6&#45;&gt;Node7</title>
<path fill="none" stroke="midnightblue" d="M991.013,-236.471C963.211,-220.952 901.426,-187.868 846,-168 804.121,-152.988 755.121,-141.275 718.221,-133.568"/>
<polygon fill="midnightblue" stroke="midnightblue" points="718.65,-130.083 708.15,-131.5 717.242,-136.94 718.65,-130.083"/>
</g>
<!-- Node8 -->
<g id="node15" class="node"><title>Node8</title>
<a xlink:href="ThermoPhase_8h.html" target="_top" xlink:title="Header file for class ThermoPhase, the base class for phases with thermodynamic properties, and the text for the Module thermoprops (see Thermodynamic Properties and class ThermoPhase).">
<polygon fill="white" stroke="red" points="970,-174.5 970,-193.5 1130,-193.5 1130,-174.5 970,-174.5"/>
<text text-anchor="middle" x="1050" y="-181.5" font-family="FreeSans" font-size="10.00">cantera/thermo/ThermoPhase.h</text>
</a>
</g>
<!-- Node6&#45;&gt;Node8 -->
<g id="edge14" class="edge"><title>Node6&#45;&gt;Node8</title>
<path fill="none" stroke="midnightblue" d="M1012.3,-236.403C1018.9,-227.403 1029.44,-213.041 1037.69,-201.782"/>
<polygon fill="midnightblue" stroke="midnightblue" points="1040.62,-203.714 1043.71,-193.581 1034.97,-199.575 1040.62,-203.714"/>
</g>
<!-- Node10 -->
<g id="node20" class="node"><title>Node10</title>
<a xlink:href="ct__defs_8h.html" target="_top" xlink:title="This file contains definitions of terms that are used in internal routines and are unlikely to need m...">
<polygon fill="white" stroke="red" points="351,-56.5 351,-75.5 407,-75.5 407,-56.5 351,-56.5"/>
<text text-anchor="middle" x="379" y="-63.5" font-family="FreeSans" font-size="10.00">ct_defs.h</text>
</a>
</g>
<!-- Node9&#45;&gt;Node10 -->
<g id="edge20" class="edge"><title>Node9&#45;&gt;Node10</title>
<path fill="none" stroke="midnightblue" d="M289.589,-174.199C297.064,-160.266 312.775,-132.6 330,-112 339.054,-101.172 350.63,-90.4276 360.256,-82.1543"/>
<polygon fill="midnightblue" stroke="midnightblue" points="362.685,-84.6853 368.102,-75.5799 358.189,-79.32 362.685,-84.6853"/>
</g>
<!-- Node13 -->
<g id="node27" class="node"><title>Node13</title>
<polygon fill="white" stroke="#bfbfbf" points="220,-112.5 220,-131.5 278,-131.5 278,-112.5 220,-112.5"/>
<text text-anchor="middle" x="249" y="-119.5" font-family="FreeSans" font-size="10.00">algorithm</text>
</g>
<!-- Node9&#45;&gt;Node13 -->
<g id="edge28" class="edge"><title>Node9&#45;&gt;Node13</title>
<path fill="none" stroke="midnightblue" d="M279.842,-174.403C274.549,-165.582 266.165,-151.608 259.473,-140.455"/>
<polygon fill="midnightblue" stroke="midnightblue" points="262.295,-138.355 254.148,-131.581 256.292,-141.956 262.295,-138.355"/>
</g>
<!-- Node10&#45;&gt;Node4 -->
<g id="edge26" class="edge"><title>Node10&#45;&gt;Node4</title>
<path fill="none" stroke="midnightblue" d="M350.807,-56.6808C316.371,-46.5194 258.47,-29.4339 224.084,-19.287"/>
<polygon fill="midnightblue" stroke="midnightblue" points="224.801,-15.8495 214.219,-16.3761 222.82,-22.5633 224.801,-15.8495"/>
</g>
<!-- Node10&#45;&gt;Node11 -->
<g id="edge22" class="edge"><title>Node10&#45;&gt;Node11</title>
<path fill="none" stroke="midnightblue" d="M372.725,-56.083C367.358,-48.4554 359.482,-37.2645 352.921,-27.9408"/>
<polygon fill="midnightblue" stroke="midnightblue" points="355.775,-25.9149 347.158,-19.7511 350.051,-29.9434 355.775,-25.9149"/>
</g>
<!-- Node10&#45;&gt;Node12 -->
<g id="edge24" class="edge"><title>Node10&#45;&gt;Node12</title>
<path fill="none" stroke="midnightblue" d="M385.275,-56.083C390.642,-48.4554 398.518,-37.2645 405.079,-27.9408"/>
<polygon fill="midnightblue" stroke="midnightblue" points="407.949,-29.9434 410.842,-19.7511 402.225,-25.9149 407.949,-29.9434"/>
</g>
<!-- Node14&#45;&gt;Node10 -->
<g id="edge32" class="edge"><title>Node14&#45;&gt;Node10</title>
<path fill="none" stroke="midnightblue" d="M406.718,-236.453C389.706,-229.548 369.175,-217.971 359,-200 338.087,-163.065 356.958,-111.524 369.657,-84.7428"/>
<polygon fill="midnightblue" stroke="midnightblue" points="372.8,-86.2843 374.127,-75.7729 366.534,-83.1624 372.8,-86.2843"/>
</g>
<!-- Node15 -->
<g id="node32" class="node"><title>Node15</title>
<a xlink:href="StoichManager_8h.html" target="_top" xlink:title="cantera/kinetics/StoichManager.h">
<polygon fill="white" stroke="black" points="368,-174.5 368,-193.5 534,-193.5 534,-174.5 368,-174.5"/>
<text text-anchor="middle" x="451" y="-181.5" font-family="FreeSans" font-size="10.00">cantera/kinetics/StoichManager.h</text>
</a>
</g>
<!-- Node14&#45;&gt;Node15 -->
<g id="edge34" class="edge"><title>Node14&#45;&gt;Node15</title>
<path fill="none" stroke="midnightblue" d="M436.436,-236.403C438.859,-227.849 442.656,-214.45 445.765,-203.476"/>
<polygon fill="midnightblue" stroke="midnightblue" points="449.21,-204.156 448.569,-193.581 442.475,-202.248 449.21,-204.156"/>
</g>
<!-- Node16 -->
<g id="node34" class="node"><title>Node16</title>
<a xlink:href="stringUtils_8h.html" target="_top" xlink:title=" Contains declarations for string manipulation functions &#160;within Cantera.">
<polygon fill="white" stroke="red" points="443.5,-112.5 443.5,-131.5 572.5,-131.5 572.5,-112.5 443.5,-112.5"/>
<text text-anchor="middle" x="508" y="-119.5" font-family="FreeSans" font-size="10.00">cantera/base/stringUtils.h</text>
</a>
</g>
<!-- Node15&#45;&gt;Node16 -->
<g id="edge36" class="edge"><title>Node15&#45;&gt;Node16</title>
<path fill="none" stroke="midnightblue" d="M459.167,-174.403C467.886,-165.225 481.904,-150.47 492.689,-139.117"/>
<polygon fill="midnightblue" stroke="midnightblue" points="495.498,-141.241 499.848,-131.581 490.423,-136.42 495.498,-141.241"/>
</g>
<!-- Node16&#45;&gt;Node10 -->
<g id="edge38" class="edge"><title>Node16&#45;&gt;Node10</title>
<path fill="none" stroke="midnightblue" d="M487.56,-112.444C466.33,-103.557 432.901,-89.5632 408.745,-79.4514"/>
<polygon fill="midnightblue" stroke="midnightblue" points="409.921,-76.1493 399.345,-75.5164 407.218,-82.6064 409.921,-76.1493"/>
</g>
<!-- Node17&#45;&gt;Node9 -->
<g id="edge46" class="edge"><title>Node17&#45;&gt;Node9</title>
<path fill="none" stroke="midnightblue" d="M237.88,-236.403C246.294,-227.225 259.819,-212.47 270.226,-201.117"/>
<polygon fill="midnightblue" stroke="midnightblue" points="272.957,-203.317 277.134,-193.581 267.797,-198.587 272.957,-203.317"/>
</g>
<!-- Node17&#45;&gt;Node10 -->
<g id="edge44" class="edge"><title>Node17&#45;&gt;Node10</title>
<path fill="none" stroke="midnightblue" d="M224.948,-236.457C212.17,-213.622 181.606,-150.304 211,-112 226.732,-91.499 296.532,-78.2954 341.064,-71.7958"/>
<polygon fill="midnightblue" stroke="midnightblue" points="341.56,-75.2606 350.974,-70.3987 340.583,-68.3292 341.56,-75.2606"/>
</g>
<!-- Node17&#45;&gt;Node13 -->
<g id="edge42" class="edge"><title>Node17&#45;&gt;Node13</title>
<path fill="none" stroke="midnightblue" d="M231.366,-236.226C234.434,-216.53 241.924,-168.437 246.088,-141.7"/>
<polygon fill="midnightblue" stroke="midnightblue" points="249.565,-142.114 247.646,-131.694 242.649,-141.037 249.565,-142.114"/>
</g>
<!-- Node18 -->
<g id="node42" class="node"><title>Node18</title>
<a xlink:href="Enhanced3BConc_8h.html" target="_top" xlink:title="Enhanced3BConc.h">
<polygon fill="white" stroke="black" points="144,-56.5 144,-75.5 248,-75.5 248,-56.5 144,-56.5"/>
<text text-anchor="middle" x="196" y="-63.5" font-family="FreeSans" font-size="10.00">Enhanced3BConc.h</text>
</a>
</g>
<!-- Node17&#45;&gt;Node18 -->
<g id="edge48" class="edge"><title>Node17&#45;&gt;Node18</title>
<path fill="none" stroke="midnightblue" d="M214.217,-236.467C201.797,-228.769 185.395,-216.179 178,-200 161.741,-164.428 170.604,-150.405 178,-112 179.79,-102.705 183.483,-92.8887 187.061,-84.8048"/>
<polygon fill="midnightblue" stroke="midnightblue" points="190.273,-86.1981 191.379,-75.6611 183.944,-83.2089 190.273,-86.1981"/>
</g>
<!-- Node18&#45;&gt;Node4 -->
<g id="edge50" class="edge"><title>Node18&#45;&gt;Node4</title>
<path fill="none" stroke="midnightblue" d="M196,-56.083C196,-49.0059 196,-38.8611 196,-29.9865"/>
<polygon fill="midnightblue" stroke="midnightblue" points="199.5,-29.751 196,-19.7511 192.5,-29.7511 199.5,-29.751"/>
</g>
<!-- Node20 -->
<g id="node47" class="node"><title>Node20</title>
<a xlink:href="reaction__defs_8h.html" target="_top" xlink:title="This file defines some constants used to specify reaction types.">
<polygon fill="white" stroke="black" points="790.5,-112.5 790.5,-131.5 875.5,-131.5 875.5,-112.5 790.5,-112.5"/>
<text text-anchor="middle" x="833" y="-119.5" font-family="FreeSans" font-size="10.00">reaction_defs.h</text>
</a>
</g>
<!-- Node19&#45;&gt;Node20 -->
<g id="edge54" class="edge"><title>Node19&#45;&gt;Node20</title>
<path fill="none" stroke="midnightblue" d="M810.734,-236.236C822.889,-228.481 838.812,-215.929 846,-200 854.508,-181.146 848.257,-157.413 841.817,-141.316"/>
<polygon fill="midnightblue" stroke="midnightblue" points="844.937,-139.716 837.711,-131.967 838.528,-142.531 844.937,-139.716"/>
</g>
<!-- Node21 -->
<g id="node50" class="node"><title>Node21</title>
<a xlink:href="FalloffFactory_8h.html" target="_top" xlink:title="Parameterizations for reaction falloff functions.">
<polygon fill="white" stroke="red" points="752.5,-174.5 752.5,-193.5 837.5,-193.5 837.5,-174.5 752.5,-174.5"/>
<text text-anchor="middle" x="795" y="-181.5" font-family="FreeSans" font-size="10.00">FalloffFactory.h</text>
</a>
</g>
<!-- Node19&#45;&gt;Node21 -->
<g id="edge58" class="edge"><title>Node19&#45;&gt;Node21</title>
<path fill="none" stroke="midnightblue" d="M795,-236.403C795,-227.938 795,-214.728 795,-203.82"/>
<polygon fill="midnightblue" stroke="midnightblue" points="798.5,-203.581 795,-193.581 791.5,-203.581 798.5,-203.581"/>
</g>
<!-- Node20&#45;&gt;Node10 -->
<g id="edge56" class="edge"><title>Node20&#45;&gt;Node10</title>
<path fill="none" stroke="midnightblue" d="M790.388,-114.063C785.54,-113.336 780.666,-112.633 776,-112 644.913,-94.2303 488.814,-77.9626 417.717,-70.8206"/>
<polygon fill="midnightblue" stroke="midnightblue" points="417.754,-67.3068 407.455,-69.7939 417.057,-74.2721 417.754,-67.3068"/>
</g>
<!-- Node21&#45;&gt;Node10 -->
<g id="edge60" class="edge"><title>Node21&#45;&gt;Node10</title>
<path fill="none" stroke="midnightblue" d="M791.287,-174.204C784.224,-158.682 767.269,-126.685 742,-112 687.484,-80.3179 499.115,-70.7103 417.362,-67.9944"/>
<polygon fill="midnightblue" stroke="midnightblue" points="417.122,-64.4852 407.016,-67.6689 416.901,-71.4817 417.122,-64.4852"/>
</g>
<!-- Node21&#45;&gt;Node20 -->
<g id="edge62" class="edge"><title>Node21&#45;&gt;Node20</title>
<path fill="none" stroke="midnightblue" d="M800.444,-174.403C806.088,-165.493 815.061,-151.325 822.159,-140.118"/>
<polygon fill="midnightblue" stroke="midnightblue" points="825.172,-141.901 827.566,-131.581 819.258,-138.156 825.172,-141.901"/>
</g>
<!-- Node22&#45;&gt;Node7 -->
<g id="edge78" class="edge"><title>Node22&#45;&gt;Node7</title>
<path fill="none" stroke="midnightblue" d="M586.825,-236.226C600.136,-216.178 632.979,-166.71 650.521,-140.289"/>
<polygon fill="midnightblue" stroke="midnightblue" points="653.612,-141.961 656.227,-131.694 647.78,-138.09 653.612,-141.961"/>
</g>
<!-- Node22&#45;&gt;Node9 -->
<g id="edge66" class="edge"><title>Node22&#45;&gt;Node9</title>
<path fill="none" stroke="midnightblue" d="M538.905,-236.467C481.026,-224.735 377.767,-203.804 322.443,-192.59"/>
<polygon fill="midnightblue" stroke="midnightblue" points="322.865,-189.104 312.369,-190.548 321.474,-195.965 322.865,-189.104"/>
</g>
<!-- Node22&#45;&gt;Node10 -->
<g id="edge76" class="edge"><title>Node22&#45;&gt;Node10</title>
<path fill="none" stroke="midnightblue" d="M579.112,-236.49C575.175,-220.702 564.6,-186.78 543,-168 504.499,-134.525 476.286,-160.544 434,-132 415.507,-119.517 399.701,-99.1578 389.843,-84.5498"/>
<polygon fill="midnightblue" stroke="midnightblue" points="392.628,-82.4123 384.255,-75.9214 386.753,-86.2175 392.628,-82.4123"/>
</g>
<!-- Node22&#45;&gt;Node16 -->
<g id="edge80" class="edge"><title>Node22&#45;&gt;Node16</title>
<path fill="none" stroke="midnightblue" d="M582.803,-236.199C585.409,-221.101 588.634,-189.787 576,-168 567.864,-153.97 553.392,-143.486 539.884,-136.183"/>
<polygon fill="midnightblue" stroke="midnightblue" points="541.286,-132.971 530.776,-131.631 538.156,-139.232 541.286,-132.971"/>
</g>
<!-- Node23 -->
<g id="node57" class="node"><title>Node23</title>
<a xlink:href="RxnRates_8h.html" target="_top" xlink:title="RxnRates.h">
<polygon fill="white" stroke="red" points="666,-174.5 666,-193.5 734,-193.5 734,-174.5 666,-174.5"/>
<text text-anchor="middle" x="700" y="-181.5" font-family="FreeSans" font-size="10.00">RxnRates.h</text>
</a>
</g>
<!-- Node22&#45;&gt;Node23 -->
<g id="edge68" class="edge"><title>Node22&#45;&gt;Node23</title>
<path fill="none" stroke="midnightblue" d="M598.05,-236.403C617.844,-226.423 650.717,-209.849 673.77,-198.225"/>
<polygon fill="midnightblue" stroke="midnightblue" points="675.628,-201.208 682.982,-193.581 672.477,-194.958 675.628,-201.208"/>
</g>
<!-- Node23&#45;&gt;Node7 -->
<g id="edge72" class="edge"><title>Node23&#45;&gt;Node7</title>
<path fill="none" stroke="midnightblue" d="M694.556,-174.403C688.912,-165.493 679.939,-151.325 672.841,-140.118"/>
<polygon fill="midnightblue" stroke="midnightblue" points="675.742,-138.156 667.434,-131.581 669.828,-141.901 675.742,-138.156"/>
</g>
<!-- Node23&#45;&gt;Node16 -->
<g id="edge74" class="edge"><title>Node23&#45;&gt;Node16</title>
<path fill="none" stroke="midnightblue" d="M672.491,-174.403C639.129,-163.978 582.738,-146.356 545.437,-134.699"/>
<polygon fill="midnightblue" stroke="midnightblue" points="546.047,-131.223 535.458,-131.581 543.959,-137.904 546.047,-131.223"/>
</g>
<!-- Node23&#45;&gt;Node20 -->
<g id="edge70" class="edge"><title>Node23&#45;&gt;Node20</title>
<path fill="none" stroke="midnightblue" d="M719.056,-174.403C741.475,-164.29 778.905,-147.404 804.713,-135.761"/>
<polygon fill="midnightblue" stroke="midnightblue" points="806.304,-138.883 813.98,-131.581 803.425,-132.502 806.304,-138.883"/>
</g>
</g>
</svg>
