<?xml version="1.0" encoding="UTF-8" standalone="no"?>
<!DOCTYPE svg PUBLIC "-//W3C//DTD SVG 1.1//EN"
 "http://www.w3.org/Graphics/SVG/1.1/DTD/svg11.dtd">
<!-- Generated by graphviz version 2.28.0 (20120425.2022)
 -->
<!-- Title: Kinetics.cpp Pages: 1 -->
<svg width="1334pt" height="568pt"
 viewBox="0.00 0.00 1334.00 568.00" xmlns="http://www.w3.org/2000/svg" xmlns:xlink="http://www.w3.org/1999/xlink">
<g id="graph1" class="graph" transform="scale(1 1) rotate(0) translate(4 564)">
<title>Kinetics.cpp</title>
<polygon fill="white" stroke="white" points="-4,5 -4,-564 1331,-564 1331,5 -4,5"/>
<!-- Node1 -->
<g id="node1" class="node"><title>Node1</title>
<polygon fill="#bfbfbf" stroke="black" points="409,-540.5 409,-559.5 479,-559.5 479,-540.5 409,-540.5"/>
<text text-anchor="middle" x="444" y="-547.5" font-family="FreeSans" font-size="10.00">Kinetics.cpp</text>
</g>
<!-- Node2 -->
<g id="node3" class="node"><title>Node2</title>
<a xlink:href="Kinetics_8h.html" target="_top" xlink:title="Base class for kinetics managers and also contains the kineticsmgr module documentation (see Kinetics...">
<polygon fill="white" stroke="black" points="198.5,-298.5 198.5,-317.5 331.5,-317.5 331.5,-298.5 198.5,-298.5"/>
<text text-anchor="middle" x="265" y="-305.5" font-family="FreeSans" font-size="10.00">cantera/kinetics/Kinetics.h</text>
</a>
</g>
<!-- Node1&#45;&gt;Node2 -->
<g id="edge2" class="edge"><title>Node1&#45;&gt;Node2</title>
<path fill="none" stroke="midnightblue" d="M434.346,-540.267C409.829,-517.697 344.193,-454.798 303,-392 289.323,-371.149 278.103,-344.575 271.487,-327.189"/>
<polygon fill="midnightblue" stroke="midnightblue" points="274.726,-325.856 267.982,-317.685 268.158,-328.279 274.726,-325.856"/>
</g>
<!-- Node5 -->
<g id="node9" class="node"><title>Node5</title>
<polygon fill="white" stroke="#bfbfbf" points="242,-112.5 242,-131.5 298,-131.5 298,-112.5 242,-112.5"/>
<text text-anchor="middle" x="270" y="-119.5" font-family="FreeSans" font-size="10.00">iostream</text>
</g>
<!-- Node1&#45;&gt;Node5 -->
<g id="edge130" class="edge"><title>Node1&#45;&gt;Node5</title>
<path fill="none" stroke="midnightblue" d="M408.789,-547.813C303.773,-543.326 0,-523.079 0,-439 0,-439 0,-439 0,-239 0,-194.058 32.5803,-189.583 72,-168 75.5385,-166.063 175.308,-143.876 231.84,-131.397"/>
<polygon fill="midnightblue" stroke="midnightblue" points="232.848,-134.759 241.86,-129.187 231.341,-127.923 232.848,-134.759"/>
</g>
<!-- Node16 -->
<g id="node32" class="node"><title>Node16</title>
<a xlink:href="SurfPhase_8h.html" target="_top" xlink:title="Header for a simple thermodynamics model of a surface phase derived from ThermoPhase, assuming an ideal solution model (see Thermodynamic Properties and class SurfPhase).">
<polygon fill="white" stroke="black" points="312.5,-366.5 312.5,-385.5 453.5,-385.5 453.5,-366.5 312.5,-366.5"/>
<text text-anchor="middle" x="383" y="-373.5" font-family="FreeSans" font-size="10.00">cantera/thermo/SurfPhase.h</text>
</a>
</g>
<!-- Node1&#45;&gt;Node16 -->
<g id="edge32" class="edge"><title>Node1&#45;&gt;Node16</title>
<path fill="none" stroke="midnightblue" d="M440.891,-540.234C431.386,-513.433 402.569,-432.178 389.531,-395.415"/>
<polygon fill="midnightblue" stroke="midnightblue" points="392.671,-393.799 386.03,-385.544 386.074,-396.139 392.671,-393.799"/>
</g>
<!-- Node17 -->
<g id="node36" class="node"><title>Node17</title>
<a xlink:href="StoichManager_8h.html" target="_top" xlink:title="cantera/kinetics/StoichManager.h">
<polygon fill="white" stroke="black" points="566,-230.5 566,-249.5 732,-249.5 732,-230.5 566,-230.5"/>
<text text-anchor="middle" x="649" y="-237.5" font-family="FreeSans" font-size="10.00">cantera/kinetics/StoichManager.h</text>
</a>
</g>
<!-- Node1&#45;&gt;Node17 -->
<g id="edge38" class="edge"><title>Node1&#45;&gt;Node17</title>
<path fill="none" stroke="midnightblue" d="M479.172,-540.725C524.903,-527.632 599,-497.406 599,-439 599,-439 599,-439 599,-375 599,-330.72 623.262,-283.108 637.985,-258.292"/>
<polygon fill="midnightblue" stroke="midnightblue" points="641.024,-260.031 643.264,-249.676 635.055,-256.374 641.024,-260.031"/>
</g>
<!-- Node19 -->
<g id="node42" class="node"><title>Node19</title>
<a xlink:href="RateCoeffMgr_8h.html" target="_top" xlink:title="cantera/kinetics/RateCoeff\lMgr.h">
<polygon fill="white" stroke="black" points="426.5,-293 426.5,-323 561.5,-323 561.5,-293 426.5,-293"/>
<text text-anchor="start" x="434.5" y="-311" font-family="FreeSans" font-size="10.00">cantera/kinetics/RateCoeff</text>
<text text-anchor="middle" x="494" y="-300" font-family="FreeSans" font-size="10.00">Mgr.h</text>
</a>
</g>
<!-- Node1&#45;&gt;Node19 -->
<g id="edge46" class="edge"><title>Node1&#45;&gt;Node19</title>
<path fill="none" stroke="midnightblue" d="M445.78,-540.458C452.715,-507.17 478.083,-385.403 488.976,-333.117"/>
<polygon fill="midnightblue" stroke="midnightblue" points="492.455,-333.575 491.068,-323.072 485.602,-332.147 492.455,-333.575"/>
</g>
<!-- Node24 -->
<g id="node60" class="node"><title>Node24</title>
<a xlink:href="ImplicitSurfChem_8h.html" target="_top" xlink:title="Declarations for the implicit integration of surface site density equations (see Kinetics Managers an...">
<polygon fill="white" stroke="black" points="815,-484.5 815,-503.5 913,-503.5 913,-484.5 815,-484.5"/>
<text text-anchor="middle" x="864" y="-491.5" font-family="FreeSans" font-size="10.00">ImplicitSurfChem.h</text>
</a>
</g>
<!-- Node1&#45;&gt;Node24 -->
<g id="edge72" class="edge"><title>Node1&#45;&gt;Node24</title>
<path fill="none" stroke="midnightblue" d="M479.087,-544.489C551.035,-535.238 715.968,-514.033 804.781,-502.614"/>
<polygon fill="midnightblue" stroke="midnightblue" points="805.228,-506.085 814.7,-501.339 804.336,-499.142 805.228,-506.085"/>
</g>
<!-- Node3 -->
<g id="node5" class="node"><title>Node3</title>
<a xlink:href="ctexceptions_8h.html" target="_top" xlink:title="Definitions for the classes that are thrown when Cantera experiences an error condition (also contain...">
<polygon fill="white" stroke="black" points="256.5,-168.5 256.5,-187.5 399.5,-187.5 399.5,-168.5 256.5,-168.5"/>
<text text-anchor="middle" x="328" y="-175.5" font-family="FreeSans" font-size="10.00">cantera/base/ctexceptions.h</text>
</a>
</g>
<!-- Node2&#45;&gt;Node3 -->
<g id="edge4" class="edge"><title>Node2&#45;&gt;Node3</title>
<path fill="none" stroke="midnightblue" d="M257.173,-298.46C243.805,-282.793 219.453,-248.794 235,-224 244.877,-208.248 262.003,-197.875 278.888,-191.106"/>
<polygon fill="midnightblue" stroke="midnightblue" points="280.542,-194.23 288.745,-187.525 278.151,-187.65 280.542,-194.23"/>
</g>
<!-- Node7 -->
<g id="node13" class="node"><title>Node7</title>
<a xlink:href="ThermoPhase_8h.html" target="_top" xlink:title="Header file for class ThermoPhase, the base class for phases with thermodynamic properties, and the text for the Module thermoprops (see Thermodynamic Properties and class ThermoPhase).">
<polygon fill="white" stroke="black" points="28,-230.5 28,-249.5 188,-249.5 188,-230.5 28,-230.5"/>
<text text-anchor="middle" x="108" y="-237.5" font-family="FreeSans" font-size="10.00">cantera/thermo/ThermoPhase.h</text>
</a>
</g>
<!-- Node2&#45;&gt;Node7 -->
<g id="edge12" class="edge"><title>Node2&#45;&gt;Node7</title>
<path fill="none" stroke="midnightblue" d="M244.475,-298.372C217.324,-286.958 169.268,-266.756 138.033,-253.625"/>
<polygon fill="midnightblue" stroke="midnightblue" points="139.105,-250.279 128.53,-249.63 136.392,-256.732 139.105,-250.279"/>
</g>
<!-- Node15 -->
<g id="node30" class="node"><title>Node15</title>
<a xlink:href="mix__defs_8h_source.html" target="_top" xlink:title="cantera/thermo/mix\l_defs.h">
<polygon fill="white" stroke="black" points="244.5,-225 244.5,-255 347.5,-255 347.5,-225 244.5,-225"/>
<text text-anchor="start" x="252.5" y="-243" font-family="FreeSans" font-size="10.00">cantera/thermo/mix</text>
<text text-anchor="middle" x="296" y="-232" font-family="FreeSans" font-size="10.00">_defs.h</text>
</a>
</g>
<!-- Node2&#45;&gt;Node15 -->
<g id="edge30" class="edge"><title>Node2&#45;&gt;Node15</title>
<path fill="none" stroke="midnightblue" d="M269.053,-298.372C273.079,-289.8 279.433,-276.272 284.96,-264.504"/>
<polygon fill="midnightblue" stroke="midnightblue" points="288.256,-265.721 289.339,-255.181 281.92,-262.745 288.256,-265.721"/>
</g>
<!-- Node4 -->
<g id="node7" class="node"><title>Node4</title>
<polygon fill="white" stroke="#bfbfbf" points="356,-112.5 356,-131.5 416,-131.5 416,-112.5 356,-112.5"/>
<text text-anchor="middle" x="386" y="-119.5" font-family="FreeSans" font-size="10.00">exception</text>
</g>
<!-- Node3&#45;&gt;Node4 -->
<g id="edge6" class="edge"><title>Node3&#45;&gt;Node4</title>
<path fill="none" stroke="midnightblue" d="M337.319,-168.324C345.893,-160.341 358.812,-148.313 369.188,-138.653"/>
<polygon fill="midnightblue" stroke="midnightblue" points="371.578,-141.21 376.512,-131.834 366.808,-136.086 371.578,-141.21"/>
</g>
<!-- Node3&#45;&gt;Node5 -->
<g id="edge8" class="edge"><title>Node3&#45;&gt;Node5</title>
<path fill="none" stroke="midnightblue" d="M318.681,-168.324C310.107,-160.341 297.188,-148.313 286.812,-138.653"/>
<polygon fill="midnightblue" stroke="midnightblue" points="289.192,-136.086 279.488,-131.834 284.422,-141.21 289.192,-136.086"/>
</g>
<!-- Node6 -->
<g id="node11" class="node"><title>Node6</title>
<polygon fill="white" stroke="#bfbfbf" points="461.5,-0.5 461.5,-19.5 502.5,-19.5 502.5,-0.5 461.5,-0.5"/>
<text text-anchor="middle" x="482" y="-7.5" font-family="FreeSans" font-size="10.00">string</text>
</g>
<!-- Node3&#45;&gt;Node6 -->
<g id="edge10" class="edge"><title>Node3&#45;&gt;Node6</title>
<path fill="none" stroke="midnightblue" d="M328.788,-168.254C330.346,-155.018 334.805,-129.582 347,-112 374.969,-71.6762 424.206,-40.8499 454.858,-24.3761"/>
<polygon fill="midnightblue" stroke="midnightblue" points="456.495,-27.4698 463.729,-19.7297 453.247,-21.2687 456.495,-27.4698"/>
</g>
<!-- Node8 -->
<g id="node15" class="node"><title>Node8</title>
<a xlink:href="Phase_8h.html" target="_top" xlink:title="Header file for class Phase.">
<polygon fill="white" stroke="red" points="81.5,-168.5 81.5,-187.5 134.5,-187.5 134.5,-168.5 81.5,-168.5"/>
<text text-anchor="middle" x="108" y="-175.5" font-family="FreeSans" font-size="10.00">Phase.h</text>
</a>
</g>
<!-- Node7&#45;&gt;Node8 -->
<g id="edge14" class="edge"><title>Node7&#45;&gt;Node8</title>
<path fill="none" stroke="midnightblue" d="M108,-230.403C108,-221.938 108,-208.728 108,-197.82"/>
<polygon fill="midnightblue" stroke="midnightblue" points="111.5,-197.581 108,-187.581 104.5,-197.581 111.5,-197.581"/>
</g>
<!-- Node9 -->
<g id="node17" class="node"><title>Node9</title>
<a xlink:href="SpeciesThermo_8h.html" target="_top" xlink:title="Virtual base class for the calculation of multiple&#45;species thermodynamic reference&#45;state property man...">
<polygon fill="white" stroke="black" points="123.5,-112.5 123.5,-131.5 220.5,-131.5 220.5,-112.5 123.5,-112.5"/>
<text text-anchor="middle" x="172" y="-119.5" font-family="FreeSans" font-size="10.00">SpeciesThermo.h</text>
</a>
</g>
<!-- Node7&#45;&gt;Node9 -->
<g id="edge16" class="edge"><title>Node7&#45;&gt;Node9</title>
<path fill="none" stroke="midnightblue" d="M114.706,-230.289C122.159,-220.38 134.289,-203.553 143,-188 151.576,-172.687 159.563,-154.358 164.974,-141.073"/>
<polygon fill="midnightblue" stroke="midnightblue" points="168.277,-142.239 168.724,-131.654 161.773,-139.65 168.277,-142.239"/>
</g>
<!-- Node10 -->
<g id="node19" class="node"><title>Node10</title>
<a xlink:href="ct__defs_8h.html" target="_top" xlink:title="This file contains definitions of terms that are used in internal routines and are unlikely to need m...">
<polygon fill="white" stroke="red" points="826,-56.5 826,-75.5 882,-75.5 882,-56.5 826,-56.5"/>
<text text-anchor="middle" x="854" y="-63.5" font-family="FreeSans" font-size="10.00">ct_defs.h</text>
</a>
</g>
<!-- Node9&#45;&gt;Node10 -->
<g id="edge18" class="edge"><title>Node9&#45;&gt;Node10</title>
<path fill="none" stroke="midnightblue" d="M220.57,-113.502C224.769,-112.955 228.956,-112.444 233,-112 452.82,-87.8529 717.894,-73.5614 815.509,-68.7945"/>
<polygon fill="midnightblue" stroke="midnightblue" points="815.951,-72.2774 825.77,-68.2986 815.613,-65.2855 815.951,-72.2774"/>
</g>
<!-- Node10&#45;&gt;Node6 -->
<g id="edge28" class="edge"><title>Node10&#45;&gt;Node6</title>
<path fill="none" stroke="midnightblue" d="M825.734,-60.8969C757.354,-50.9707 583.427,-25.7233 512.656,-15.4501"/>
<polygon fill="midnightblue" stroke="midnightblue" points="513,-11.9634 502.601,-13.9905 511.995,-18.8908 513,-11.9634"/>
</g>
<!-- Node11 -->
<g id="node21" class="node"><title>Node11</title>
<polygon fill="white" stroke="#bfbfbf" points="919,-0.5 919,-19.5 963,-19.5 963,-0.5 919,-0.5"/>
<text text-anchor="middle" x="941" y="-7.5" font-family="FreeSans" font-size="10.00">cmath</text>
</g>
<!-- Node10&#45;&gt;Node11 -->
<g id="edge20" class="edge"><title>Node10&#45;&gt;Node11</title>
<path fill="none" stroke="midnightblue" d="M867.978,-56.324C881.55,-47.9002 902.38,-34.9709 918.325,-25.0741"/>
<polygon fill="midnightblue" stroke="midnightblue" points="920.406,-27.9019 927.057,-19.6545 916.714,-21.9544 920.406,-27.9019"/>
</g>
<!-- Node12 -->
<g id="node23" class="node"><title>Node12</title>
<polygon fill="white" stroke="#bfbfbf" points="721.5,-0.5 721.5,-19.5 766.5,-19.5 766.5,-0.5 721.5,-0.5"/>
<text text-anchor="middle" x="744" y="-7.5" font-family="FreeSans" font-size="10.00">cstdlib</text>
</g>
<!-- Node10&#45;&gt;Node12 -->
<g id="edge22" class="edge"><title>Node10&#45;&gt;Node12</title>
<path fill="none" stroke="midnightblue" d="M836.327,-56.324C818.606,-47.6247 791.097,-34.1202 770.712,-24.113"/>
<polygon fill="midnightblue" stroke="midnightblue" points="772.149,-20.9195 761.63,-19.6545 769.064,-27.2031 772.149,-20.9195"/>
</g>
<!-- Node13 -->
<g id="node25" class="node"><title>Node13</title>
<polygon fill="white" stroke="#bfbfbf" points="1009,-0.5 1009,-19.5 1053,-19.5 1053,-0.5 1009,-0.5"/>
<text text-anchor="middle" x="1031" y="-7.5" font-family="FreeSans" font-size="10.00">vector</text>
</g>
<!-- Node10&#45;&gt;Node13 -->
<g id="edge24" class="edge"><title>Node10&#45;&gt;Node13</title>
<path fill="none" stroke="midnightblue" d="M882.046,-56.4435C913.937,-46.7141 965.889,-30.8642 999.245,-20.688"/>
<polygon fill="midnightblue" stroke="midnightblue" points="1000.41,-23.9909 1008.96,-17.7251 998.371,-17.2955 1000.41,-23.9909"/>
</g>
<!-- Node14 -->
<g id="node27" class="node"><title>Node14</title>
<polygon fill="white" stroke="#bfbfbf" points="808,-0.5 808,-19.5 844,-19.5 844,-0.5 808,-0.5"/>
<text text-anchor="middle" x="826" y="-7.5" font-family="FreeSans" font-size="10.00">map</text>
</g>
<!-- Node10&#45;&gt;Node14 -->
<g id="edge26" class="edge"><title>Node10&#45;&gt;Node14</title>
<path fill="none" stroke="midnightblue" d="M849.376,-56.083C845.544,-48.6913 839.976,-37.9533 835.235,-28.8111"/>
<polygon fill="midnightblue" stroke="midnightblue" points="838.248,-27.0175 830.538,-19.7511 832.034,-30.2398 838.248,-27.0175"/>
</g>
<!-- Node16&#45;&gt;Node7 -->
<g id="edge36" class="edge"><title>Node16&#45;&gt;Node7</title>
<path fill="none" stroke="midnightblue" d="M315.8,-366.49C276.779,-359.381 227.821,-346.607 189,-324 159.843,-307.021 134.149,-276.705 119.879,-257.789"/>
<polygon fill="midnightblue" stroke="midnightblue" points="122.559,-255.525 113.826,-249.526 116.913,-259.662 122.559,-255.525"/>
</g>
<!-- Node16&#45;&gt;Node15 -->
<g id="edge34" class="edge"><title>Node16&#45;&gt;Node15</title>
<path fill="none" stroke="midnightblue" d="M379.345,-366.386C372.597,-350.887 357.281,-317.537 340,-292 333.176,-281.916 324.624,-271.597 316.878,-262.904"/>
<polygon fill="midnightblue" stroke="midnightblue" points="319.388,-260.462 310.065,-255.43 314.215,-265.178 319.388,-260.462"/>
</g>
<!-- Node18 -->
<g id="node38" class="node"><title>Node18</title>
<a xlink:href="stringUtils_8h.html" target="_top" xlink:title=" Contains declarations for string manipulation functions &#160;within Cantera.">
<polygon fill="white" stroke="black" points="417.5,-168.5 417.5,-187.5 546.5,-187.5 546.5,-168.5 417.5,-168.5"/>
<text text-anchor="middle" x="482" y="-175.5" font-family="FreeSans" font-size="10.00">cantera/base/stringUtils.h</text>
</a>
</g>
<!-- Node17&#45;&gt;Node18 -->
<g id="edge40" class="edge"><title>Node17&#45;&gt;Node18</title>
<path fill="none" stroke="midnightblue" d="M625.073,-230.403C596.303,-220.067 547.844,-202.656 515.398,-190.999"/>
<polygon fill="midnightblue" stroke="midnightblue" points="516.477,-187.668 505.883,-187.581 514.11,-194.256 516.477,-187.668"/>
</g>
<!-- Node18&#45;&gt;Node6 -->
<g id="edge44" class="edge"><title>Node18&#45;&gt;Node6</title>
<path fill="none" stroke="midnightblue" d="M482,-168.075C482,-141.945 482,-65.2106 482,-29.577"/>
<polygon fill="midnightblue" stroke="midnightblue" points="485.5,-29.5681 482,-19.5681 478.5,-29.5681 485.5,-29.5681"/>
</g>
<!-- Node18&#45;&gt;Node10 -->
<g id="edge42" class="edge"><title>Node18&#45;&gt;Node10</title>
<path fill="none" stroke="midnightblue" d="M494.323,-168.319C514.961,-154.215 558.267,-126.449 599,-112 672.967,-85.7614 764.642,-74.382 815.473,-69.7978"/>
<polygon fill="midnightblue" stroke="midnightblue" points="816.015,-73.2642 825.678,-68.9199 815.415,-66.2899 816.015,-73.2642"/>
</g>
<!-- Node19&#45;&gt;Node3 -->
<g id="edge68" class="edge"><title>Node19&#45;&gt;Node3</title>
<path fill="none" stroke="midnightblue" d="M474.535,-292.888C460.639,-282.747 441.555,-268.683 425,-256 397.47,-234.909 366.124,-209.828 346.7,-194.157"/>
<polygon fill="midnightblue" stroke="midnightblue" points="348.648,-191.232 338.67,-187.668 344.248,-196.676 348.648,-191.232"/>
</g>
<!-- Node19&#45;&gt;Node10 -->
<g id="edge66" class="edge"><title>Node19&#45;&gt;Node10</title>
<path fill="none" stroke="midnightblue" d="M501.111,-292.741C511.086,-274.186 530.967,-242.016 557,-224 603.137,-192.072 627.375,-212.189 678,-188 740.425,-158.173 805.346,-107.549 835.965,-82.2867"/>
<polygon fill="midnightblue" stroke="midnightblue" points="838.555,-84.6838 843.994,-75.5915 834.072,-79.3077 838.555,-84.6838"/>
</g>
<!-- Node19&#45;&gt;Node18 -->
<g id="edge70" class="edge"><title>Node19&#45;&gt;Node18</title>
<path fill="none" stroke="midnightblue" d="M468.167,-292.884C455.021,-284.158 440.306,-271.632 433,-256 426.978,-243.116 427.279,-237.021 433,-224 438.39,-211.732 448.958,-201.341 458.904,-193.646"/>
<polygon fill="midnightblue" stroke="midnightblue" points="461.252,-196.27 467.339,-187.598 457.172,-190.581 461.252,-196.27"/>
</g>
<!-- Node20 -->
<g id="node44" class="node"><title>Node20</title>
<a xlink:href="utilities_8h.html" target="_top" xlink:title="Various templated functions that carry out common vector operations (see globalUtilFuncs).">
<polygon fill="white" stroke="red" points="826,-230.5 826,-249.5 880,-249.5 880,-230.5 826,-230.5"/>
<text text-anchor="middle" x="853" y="-237.5" font-family="FreeSans" font-size="10.00">utilities.h</text>
</a>
</g>
<!-- Node19&#45;&gt;Node20 -->
<g id="edge48" class="edge"><title>Node19&#45;&gt;Node20</title>
<path fill="none" stroke="midnightblue" d="M561.525,-294.586C636.635,-280.777 755.298,-258.962 815.419,-247.909"/>
<polygon fill="midnightblue" stroke="midnightblue" points="816.39,-251.289 825.593,-246.039 815.125,-244.405 816.39,-251.289"/>
</g>
<!-- Node21 -->
<g id="node47" class="node"><title>Node21</title>
<a xlink:href="RxnRates_8h.html" target="_top" xlink:title="RxnRates.h">
<polygon fill="white" stroke="black" points="442,-230.5 442,-249.5 510,-249.5 510,-230.5 442,-230.5"/>
<text text-anchor="middle" x="476" y="-237.5" font-family="FreeSans" font-size="10.00">RxnRates.h</text>
</a>
</g>
<!-- Node19&#45;&gt;Node21 -->
<g id="edge52" class="edge"><title>Node19&#45;&gt;Node21</title>
<path fill="none" stroke="midnightblue" d="M490.094,-292.679C487.454,-282.999 483.943,-270.123 481.085,-259.645"/>
<polygon fill="midnightblue" stroke="midnightblue" points="484.416,-258.555 478.408,-249.828 477.662,-260.397 484.416,-258.555"/>
</g>
<!-- Node20&#45;&gt;Node10 -->
<g id="edge50" class="edge"><title>Node20&#45;&gt;Node10</title>
<path fill="none" stroke="midnightblue" d="M853.051,-230.234C853.206,-203.548 853.675,-122.877 853.89,-85.8931"/>
<polygon fill="midnightblue" stroke="midnightblue" points="857.392,-85.5644 853.95,-75.5442 850.392,-85.5237 857.392,-85.5644"/>
</g>
<!-- Node21&#45;&gt;Node3 -->
<g id="edge62" class="edge"><title>Node21&#45;&gt;Node3</title>
<path fill="none" stroke="midnightblue" d="M454.795,-230.403C429.628,-220.2 387.46,-203.105 358.721,-191.454"/>
<polygon fill="midnightblue" stroke="midnightblue" points="359.748,-188.094 349.165,-187.581 357.118,-194.581 359.748,-188.094"/>
</g>
<!-- Node21&#45;&gt;Node18 -->
<g id="edge64" class="edge"><title>Node21&#45;&gt;Node18</title>
<path fill="none" stroke="midnightblue" d="M476.86,-230.403C477.706,-221.938 479.027,-208.728 480.118,-197.82"/>
<polygon fill="midnightblue" stroke="midnightblue" points="483.629,-197.879 481.142,-187.581 476.664,-197.183 483.629,-197.879"/>
</g>
<!-- Node22 -->
<g id="node49" class="node"><title>Node22</title>
<a xlink:href="reaction__defs_8h.html" target="_top" xlink:title="This file defines some constants used to specify reaction types.">
<polygon fill="white" stroke="black" points="608.5,-112.5 608.5,-131.5 693.5,-131.5 693.5,-112.5 608.5,-112.5"/>
<text text-anchor="middle" x="651" y="-119.5" font-family="FreeSans" font-size="10.00">reaction_defs.h</text>
</a>
</g>
<!-- Node21&#45;&gt;Node22 -->
<g id="edge54" class="edge"><title>Node21&#45;&gt;Node22</title>
<path fill="none" stroke="midnightblue" d="M502.596,-230.459C509.544,-228.291 517.037,-226.008 524,-224 584.077,-206.671 621.861,-237.548 660,-188 670.289,-174.633 665.666,-154.985 659.938,-140.793"/>
<polygon fill="midnightblue" stroke="midnightblue" points="663.084,-139.256 655.769,-131.591 656.708,-142.144 663.084,-139.256"/>
</g>
<!-- Node23 -->
<g id="node52" class="node"><title>Node23</title>
<a xlink:href="ReactionData_8h.html" target="_top" xlink:title="ReactionData.h">
<polygon fill="white" stroke="black" points="565,-168.5 565,-187.5 651,-187.5 651,-168.5 565,-168.5"/>
<text text-anchor="middle" x="608" y="-175.5" font-family="FreeSans" font-size="10.00">ReactionData.h</text>
</a>
</g>
<!-- Node21&#45;&gt;Node23 -->
<g id="edge58" class="edge"><title>Node21&#45;&gt;Node23</title>
<path fill="none" stroke="midnightblue" d="M494.912,-230.403C517.163,-220.29 554.312,-203.404 579.926,-191.761"/>
<polygon fill="midnightblue" stroke="midnightblue" points="581.467,-194.905 589.123,-187.581 578.571,-188.532 581.467,-194.905"/>
</g>
<!-- Node22&#45;&gt;Node10 -->
<g id="edge56" class="edge"><title>Node22&#45;&gt;Node10</title>
<path fill="none" stroke="midnightblue" d="M683.166,-112.444C719.291,-102.834 777.86,-87.2539 816.157,-77.0667"/>
<polygon fill="midnightblue" stroke="midnightblue" points="817.143,-80.4262 825.907,-74.473 815.343,-73.6614 817.143,-80.4262"/>
</g>
<!-- Node23&#45;&gt;Node22 -->
<g id="edge60" class="edge"><title>Node23&#45;&gt;Node22</title>
<path fill="none" stroke="midnightblue" d="M615.101,-168.083C621.237,-160.377 630.27,-149.033 637.739,-139.653"/>
<polygon fill="midnightblue" stroke="midnightblue" points="640.54,-141.754 644.032,-131.751 635.064,-137.394 640.54,-141.754"/>
</g>
<!-- Node24&#45;&gt;Node16 -->
<g id="edge112" class="edge"><title>Node24&#45;&gt;Node16</title>
<path fill="none" stroke="midnightblue" d="M828.631,-484.47C742.807,-463.772 523.581,-410.903 428.327,-387.931"/>
<polygon fill="midnightblue" stroke="midnightblue" points="428.963,-384.484 418.421,-385.542 427.322,-391.289 428.963,-384.484"/>
</g>
<!-- Node25 -->
<g id="node62" class="node"><title>Node25</title>
<a xlink:href="FuncEval_8h.html" target="_top" xlink:title="cantera/numerics/FuncEval.h">
<polygon fill="white" stroke="black" points="1088,-112.5 1088,-131.5 1232,-131.5 1232,-112.5 1088,-112.5"/>
<text text-anchor="middle" x="1160" y="-119.5" font-family="FreeSans" font-size="10.00">cantera/numerics/FuncEval.h</text>
</a>
</g>
<!-- Node24&#45;&gt;Node25 -->
<g id="edge74" class="edge"><title>Node24&#45;&gt;Node25</title>
<path fill="none" stroke="midnightblue" d="M913.223,-492.649C989.859,-489.218 1129,-470.161 1129,-377 1129,-377 1129,-377 1129,-239 1129,-203.189 1142.96,-163.203 1152.14,-140.772"/>
<polygon fill="midnightblue" stroke="midnightblue" points="1155.39,-142.094 1156.07,-131.522 1148.94,-139.357 1155.39,-142.094"/>
</g>
<!-- Node26 -->
<g id="node65" class="node"><title>Node26</title>
<a xlink:href="Integrator_8h.html" target="_top" xlink:title="cantera/numerics/Integrator.h">
<polygon fill="white" stroke="black" points="1180,-168.5 1180,-187.5 1326,-187.5 1326,-168.5 1180,-168.5"/>
<text text-anchor="middle" x="1253" y="-175.5" font-family="FreeSans" font-size="10.00">cantera/numerics/Integrator.h</text>
</a>
</g>
<!-- Node24&#45;&gt;Node26 -->
<g id="edge78" class="edge"><title>Node24&#45;&gt;Node26</title>
<path fill="none" stroke="midnightblue" d="M913.14,-488.895C982.237,-482.482 1104.03,-468.641 1143,-448 1181.34,-427.69 1210,-420.387 1210,-377 1210,-377 1210,-377 1210,-307 1210,-265.77 1230.3,-220.777 1243,-196.651"/>
<polygon fill="midnightblue" stroke="midnightblue" points="1246.19,-198.117 1247.9,-187.661 1240.04,-194.767 1246.19,-198.117"/>
</g>
<!-- Node28 -->
<g id="node72" class="node"><title>Node28</title>
<a xlink:href="InterfaceKinetics_8h.html" target="_top" xlink:title="cantera/kinetics/Interface\lKinetics.h">
<polygon fill="white" stroke="black" points="658,-361 658,-391 786,-391 786,-361 658,-361"/>
<text text-anchor="start" x="666" y="-379" font-family="FreeSans" font-size="10.00">cantera/kinetics/Interface</text>
<text text-anchor="middle" x="722" y="-368" font-family="FreeSans" font-size="10.00">Kinetics.h</text>
</a>
</g>
<!-- Node24&#45;&gt;Node28 -->
<g id="edge88" class="edge"><title>Node24&#45;&gt;Node28</title>
<path fill="none" stroke="midnightblue" d="M853.327,-484.281C830.946,-465.998 778.582,-423.222 747.155,-397.549"/>
<polygon fill="midnightblue" stroke="midnightblue" points="749.227,-394.722 739.268,-391.106 744.798,-400.143 749.227,-394.722"/>
</g>
<!-- Node31 -->
<g id="node88" class="node"><title>Node31</title>
<a xlink:href="solveSP_8h.html" target="_top" xlink:title=" &#160;Header file for implicit surface problem solver &#160;(see Chemical Kinetics and class solveSP)...">
<polygon fill="white" stroke="black" points="833,-428.5 833,-447.5 895,-447.5 895,-428.5 833,-428.5"/>
<text text-anchor="middle" x="864" y="-435.5" font-family="FreeSans" font-size="10.00">solveSP.h</text>
</a>
</g>
<!-- Node24&#45;&gt;Node31 -->
<g id="edge114" class="edge"><title>Node24&#45;&gt;Node31</title>
<path fill="none" stroke="midnightblue" d="M858.834,-484.083C857.324,-476.927 856.894,-466.635 857.542,-457.691"/>
<polygon fill="midnightblue" stroke="midnightblue" points="861.015,-458.126 858.869,-447.751 854.077,-457.2 861.015,-458.126"/>
</g>
<!-- Node25&#45;&gt;Node10 -->
<g id="edge76" class="edge"><title>Node25&#45;&gt;Node10</title>
<path fill="none" stroke="midnightblue" d="M1111.51,-112.444C1050.72,-101.715 947.753,-83.5446 892.224,-73.7454"/>
<polygon fill="midnightblue" stroke="midnightblue" points="892.559,-70.2505 882.103,-71.9593 891.342,-77.144 892.559,-70.2505"/>
</g>
<!-- Node26&#45;&gt;Node10 -->
<g id="edge82" class="edge"><title>Node26&#45;&gt;Node10</title>
<path fill="none" stroke="midnightblue" d="M1270.52,-168.34C1293.58,-155.846 1329.18,-132.059 1311,-112 1283.08,-81.1965 997.263,-70.715 892.349,-67.8891"/>
<polygon fill="midnightblue" stroke="midnightblue" points="892.285,-64.3864 882.197,-67.6246 892.103,-71.384 892.285,-64.3864"/>
</g>
<!-- Node26&#45;&gt;Node25 -->
<g id="edge80" class="edge"><title>Node26&#45;&gt;Node25</title>
<path fill="none" stroke="midnightblue" d="M1238.06,-168.324C1223.41,-159.822 1200.87,-146.729 1183.76,-136.797"/>
<polygon fill="midnightblue" stroke="midnightblue" points="1185.31,-133.649 1174.9,-131.655 1181.8,-139.703 1185.31,-133.649"/>
</g>
<!-- Node27 -->
<g id="node69" class="node"><title>Node27</title>
<a xlink:href="global_8h.html" target="_top" xlink:title="This file contains definitions for utility functions and text for modules, inputfiles, logs, textlogs, HTML_logs (see Input File Handling, Diagnostic Output, Writing messages to the screen and Writing HTML Logfiles).">
<polygon fill="white" stroke="black" points="1250,-112.5 1250,-131.5 1302,-131.5 1302,-112.5 1250,-112.5"/>
<text text-anchor="middle" x="1276" y="-119.5" font-family="FreeSans" font-size="10.00">global.h</text>
</a>
</g>
<!-- Node26&#45;&gt;Node27 -->
<g id="edge84" class="edge"><title>Node26&#45;&gt;Node27</title>
<path fill="none" stroke="midnightblue" d="M1256.8,-168.083C1259.91,-160.77 1264.42,-150.181 1268.29,-141.103"/>
<polygon fill="midnightblue" stroke="midnightblue" points="1271.57,-142.323 1272.27,-131.751 1265.13,-139.58 1271.57,-142.323"/>
</g>
<!-- Node27&#45;&gt;Node10 -->
<g id="edge86" class="edge"><title>Node27&#45;&gt;Node10</title>
<path fill="none" stroke="midnightblue" d="M1249.71,-113.832C1246.79,-113.156 1243.84,-112.527 1241,-112 1114.49,-88.492 962.298,-75.0727 892.452,-69.7293"/>
<polygon fill="midnightblue" stroke="midnightblue" points="892.595,-66.2303 882.361,-68.97 892.07,-73.2105 892.595,-66.2303"/>
</g>
<!-- Node28&#45;&gt;Node2 -->
<g id="edge96" class="edge"><title>Node28&#45;&gt;Node2</title>
<path fill="none" stroke="midnightblue" d="M657.975,-365.753C572.555,-353.417 421.898,-331.659 334.019,-318.968"/>
<polygon fill="midnightblue" stroke="midnightblue" points="334.281,-315.469 323.883,-317.504 333.28,-322.397 334.281,-315.469"/>
</g>
<!-- Node28&#45;&gt;Node11 -->
<g id="edge108" class="edge"><title>Node28&#45;&gt;Node11</title>
<path fill="none" stroke="midnightblue" d="M786.159,-371.41C859.282,-365.975 972.619,-353.029 1003,-324 1030.36,-297.857 1022,-278.843 1022,-241 1022,-241 1022,-241 1022,-121 1022,-80.4453 985.859,-44.9891 961.86,-25.9149"/>
<polygon fill="midnightblue" stroke="midnightblue" points="963.728,-22.9379 953.656,-19.6497 959.479,-28.501 963.728,-22.9379"/>
</g>
<!-- Node28&#45;&gt;Node12 -->
<g id="edge110" class="edge"><title>Node28&#45;&gt;Node12</title>
<path fill="none" stroke="midnightblue" d="M702.491,-360.949C682.116,-344.481 655.05,-316.343 670,-292 688.516,-261.852 722.3,-286.034 741,-256 786.295,-183.251 762.157,-73.2719 749.817,-29.7148"/>
<polygon fill="midnightblue" stroke="midnightblue" points="753.111,-28.513 746.916,-19.9183 746.399,-30.5006 753.111,-28.513"/>
</g>
<!-- Node28&#45;&gt;Node14 -->
<g id="edge92" class="edge"><title>Node28&#45;&gt;Node14</title>
<path fill="none" stroke="midnightblue" d="M718.843,-360.749C715.772,-343.597 712.899,-314.319 723,-292 732.862,-270.21 748.865,-275.294 763,-256 785.217,-225.676 798,-216.592 798,-179 798,-179 798,-179 798,-121 798,-87.7897 810.134,-50.6338 818.427,-29.1196"/>
<polygon fill="midnightblue" stroke="midnightblue" points="821.751,-30.2333 822.224,-19.649 815.254,-27.6284 821.751,-30.2333"/>
</g>
<!-- Node28&#45;&gt;Node15 -->
<g id="edge94" class="edge"><title>Node28&#45;&gt;Node15</title>
<path fill="none" stroke="midnightblue" d="M657.913,-372.338C594.646,-367.875 496.162,-355.936 417,-324 397.326,-316.063 352.033,-283.32 322.785,-261.409"/>
<polygon fill="midnightblue" stroke="midnightblue" points="324.727,-258.49 314.633,-255.271 320.516,-264.082 324.727,-258.49"/>
</g>
<!-- Node28&#45;&gt;Node19 -->
<g id="edge100" class="edge"><title>Node28&#45;&gt;Node19</title>
<path fill="none" stroke="midnightblue" d="M673.368,-360.922C637.952,-350.67 589.822,-336.738 552.335,-325.887"/>
<polygon fill="midnightblue" stroke="midnightblue" points="553.136,-322.475 542.557,-323.056 551.19,-329.199 553.136,-322.475"/>
</g>
<!-- Node28&#45;&gt;Node20 -->
<g id="edge98" class="edge"><title>Node28&#45;&gt;Node20</title>
<path fill="none" stroke="midnightblue" d="M721.599,-360.732C721.841,-342.754 724.835,-311.817 741,-292 746.53,-285.221 790.823,-266.243 822.019,-253.448"/>
<polygon fill="midnightblue" stroke="midnightblue" points="823.682,-256.55 831.622,-249.535 821.04,-250.068 823.682,-256.55"/>
</g>
<!-- Node29 -->
<g id="node74" class="node"><title>Node29</title>
<polygon fill="white" stroke="#bfbfbf" points="750,-298.5 750,-317.5 800,-317.5 800,-298.5 750,-298.5"/>
<text text-anchor="middle" x="775" y="-305.5" font-family="FreeSans" font-size="10.00">fstream</text>
</g>
<!-- Node28&#45;&gt;Node29 -->
<g id="edge90" class="edge"><title>Node28&#45;&gt;Node29</title>
<path fill="none" stroke="midnightblue" d="M733.5,-360.679C741.764,-350.388 752.93,-336.484 761.598,-325.69"/>
<polygon fill="midnightblue" stroke="midnightblue" points="764.378,-327.817 767.911,-317.828 758.92,-323.434 764.378,-327.817"/>
</g>
<!-- Node30 -->
<g id="node81" class="node"><title>Node30</title>
<a xlink:href="ReactionStoichMgr_8h.html" target="_top" xlink:title="Header file declaring class ReactionStoichMgr.">
<polygon fill="white" stroke="black" points="818.5,-298.5 818.5,-317.5 927.5,-317.5 927.5,-298.5 818.5,-298.5"/>
<text text-anchor="middle" x="873" y="-305.5" font-family="FreeSans" font-size="10.00">ReactionStoichMgr.h</text>
</a>
</g>
<!-- Node28&#45;&gt;Node30 -->
<g id="edge102" class="edge"><title>Node28&#45;&gt;Node30</title>
<path fill="none" stroke="midnightblue" d="M754.393,-360.841C780.98,-349.221 818.293,-332.912 843.93,-321.706"/>
<polygon fill="midnightblue" stroke="midnightblue" points="845.376,-324.894 853.137,-317.682 842.572,-318.48 845.376,-324.894"/>
</g>
<!-- Node30&#45;&gt;Node10 -->
<g id="edge104" class="edge"><title>Node30&#45;&gt;Node10</title>
<path fill="none" stroke="midnightblue" d="M876.677,-298.168C880.632,-288.15 886.668,-271.227 889,-256 898.666,-192.9 874.342,-118.568 861.43,-85.0246"/>
<polygon fill="midnightblue" stroke="midnightblue" points="864.643,-83.6325 857.696,-75.6331 858.138,-86.2187 864.643,-83.6325"/>
</g>
<!-- Node30&#45;&gt;Node17 -->
<g id="edge106" class="edge"><title>Node30&#45;&gt;Node17</title>
<path fill="none" stroke="midnightblue" d="M843.716,-298.372C803.779,-286.604 732.138,-265.496 687.778,-252.426"/>
<polygon fill="midnightblue" stroke="midnightblue" points="688.518,-248.995 677.936,-249.526 686.539,-255.71 688.518,-248.995"/>
</g>
<!-- Node31&#45;&gt;Node13 -->
<g id="edge120" class="edge"><title>Node31&#45;&gt;Node13</title>
<path fill="none" stroke="midnightblue" d="M895.057,-431.54C950.323,-419.844 1060,-386.828 1060,-309 1060,-309 1060,-309 1060,-121 1060,-87.7163 1047.43,-50.5837 1038.84,-29.0939"/>
<polygon fill="midnightblue" stroke="midnightblue" points="1041.98,-27.5254 1034.91,-19.6354 1035.52,-30.2128 1041.98,-27.5254"/>
</g>
<!-- Node31&#45;&gt;Node24 -->
<g id="edge116" class="edge"><title>Node31&#45;&gt;Node24</title>
<path fill="none" stroke="midnightblue" d="M869.131,-447.751C870.657,-454.858 871.104,-465.136 870.472,-474.101"/>
<polygon fill="midnightblue" stroke="midnightblue" points="866.993,-473.713 869.166,-484.083 873.934,-474.622 866.993,-473.713"/>
</g>
<!-- Node31&#45;&gt;Node28 -->
<g id="edge118" class="edge"><title>Node31&#45;&gt;Node28</title>
<path fill="none" stroke="midnightblue" d="M843.655,-428.403C823.096,-419.717 790.715,-406.035 764.528,-394.969"/>
<polygon fill="midnightblue" stroke="midnightblue" points="765.767,-391.694 755.193,-391.025 763.042,-398.142 765.767,-391.694"/>
</g>
<!-- Node32 -->
<g id="node93" class="node"><title>Node32</title>
<a xlink:href="Array_8h.html" target="_top" xlink:title="Header file for class Array2D.">
<polygon fill="white" stroke="red" points="946,-298.5 946,-317.5 994,-317.5 994,-298.5 946,-298.5"/>
<text text-anchor="middle" x="970" y="-305.5" font-family="FreeSans" font-size="10.00">Array.h</text>
</a>
</g>
<!-- Node31&#45;&gt;Node32 -->
<g id="edge122" class="edge"><title>Node31&#45;&gt;Node32</title>
<path fill="none" stroke="midnightblue" d="M871.286,-428.202C888.844,-407 933.717,-352.814 956.415,-325.405"/>
<polygon fill="midnightblue" stroke="midnightblue" points="959.26,-327.457 962.942,-317.522 953.869,-322.992 959.26,-327.457"/>
</g>
<!-- Node32&#45;&gt;Node3 -->
<g id="edge126" class="edge"><title>Node32&#45;&gt;Node3</title>
<path fill="none" stroke="midnightblue" d="M964.805,-298.476C953.538,-280.874 924.952,-240.756 889,-224 794.598,-180.001 530.273,-196.953 409.685,-188.028"/>
<polygon fill="midnightblue" stroke="midnightblue" points="409.772,-184.523 399.516,-187.179 409.19,-191.499 409.772,-184.523"/>
</g>
<!-- Node32&#45;&gt;Node10 -->
<g id="edge124" class="edge"><title>Node32&#45;&gt;Node10</title>
<path fill="none" stroke="midnightblue" d="M967.27,-298.475C958.172,-270.611 927.225,-180.104 888,-112 882.197,-101.924 874.461,-91.5132 867.835,-83.2461"/>
<polygon fill="midnightblue" stroke="midnightblue" points="870.521,-81.001 861.459,-75.5109 865.119,-85.4535 870.521,-81.001"/>
</g>
<!-- Node32&#45;&gt;Node20 -->
<g id="edge128" class="edge"><title>Node32&#45;&gt;Node20</title>
<path fill="none" stroke="midnightblue" d="M954.704,-298.372C934.997,-287.254 900.509,-267.8 877.22,-254.662"/>
<polygon fill="midnightblue" stroke="midnightblue" points="878.729,-251.495 868.299,-249.63 875.29,-257.592 878.729,-251.495"/>
</g>
</g>
</svg>
