<?xml version="1.0" encoding="UTF-8" standalone="no"?>
<!DOCTYPE svg PUBLIC "-//W3C//DTD SVG 1.1//EN"
 "http://www.w3.org/Graphics/SVG/1.1/DTD/svg11.dtd">
<!-- Generated by graphviz version 2.28.0 (20120425.2022)
 -->
<!-- Title: LiquidTransport.h Pages: 1 -->
<svg width="440pt" height="84pt"
 viewBox="0.00 0.00 440.00 84.00" xmlns="http://www.w3.org/2000/svg" xmlns:xlink="http://www.w3.org/1999/xlink">
<g id="graph1" class="graph" transform="scale(1 1) rotate(0) translate(4 80)">
<title>LiquidTransport.h</title>
<polygon fill="white" stroke="white" points="-4,5 -4,-80 437,-80 437,5 -4,5"/>
<!-- Node1 -->
<g id="node1" class="node"><title>Node1</title>
<polygon fill="#bfbfbf" stroke="black" points="188,-56.5 188,-75.5 282,-75.5 282,-56.5 188,-56.5"/>
<text text-anchor="middle" x="235" y="-63.5" font-family="FreeSans" font-size="10.00">LiquidTransport.h</text>
</g>
<!-- Node2 -->
<g id="node3" class="node"><title>Node2</title>
<a xlink:href="LiquidTransport_8cpp.html" target="_top" xlink:title="Mixture&#45;averaged transport properties for ideal gas mixtures.">
<polygon fill="white" stroke="black" points="0,-0.5 0,-19.5 104,-19.5 104,-0.5 0,-0.5"/>
<text text-anchor="middle" x="52" y="-7.5" font-family="FreeSans" font-size="10.00">LiquidTransport.cpp</text>
</a>
</g>
<!-- Node1&#45;&gt;Node2 -->
<g id="edge2" class="edge"><title>Node1&#45;&gt;Node2</title>
<path fill="none" stroke="midnightblue" d="M196.257,-53.5677C161.735,-43.381 111.995,-28.7034 80.8612,-19.5164"/>
<polygon fill="midnightblue" stroke="midnightblue" points="195.421,-56.9702 206.003,-56.4435 197.403,-50.2564 195.421,-56.9702"/>
</g>
<!-- Node3 -->
<g id="node5" class="node"><title>Node3</title>
<a xlink:href="TransportBase_8cpp.html" target="_top" xlink:title="Mixture&#45;averaged transport properties for ideal gas mixtures.">
<polygon fill="white" stroke="black" points="122.5,-0.5 122.5,-19.5 223.5,-19.5 223.5,-0.5 122.5,-0.5"/>
<text text-anchor="middle" x="173" y="-7.5" font-family="FreeSans" font-size="10.00">TransportBase.cpp</text>
</a>
</g>
<!-- Node1&#45;&gt;Node3 -->
<g id="edge4" class="edge"><title>Node1&#45;&gt;Node3</title>
<path fill="none" stroke="midnightblue" d="M217.246,-49.5372C206.192,-39.9087 192.369,-27.8694 183.143,-19.8339"/>
<polygon fill="midnightblue" stroke="midnightblue" points="215.199,-52.3954 225.039,-56.324 219.797,-47.1168 215.199,-52.3954"/>
</g>
<!-- Node4 -->
<g id="node7" class="node"><title>Node4</title>
<a xlink:href="TransportFactory_8cpp.html" target="_top" xlink:title="Implementation file for class TransportFactory.">
<polygon fill="white" stroke="black" points="241.5,-0.5 241.5,-19.5 352.5,-19.5 352.5,-0.5 241.5,-0.5"/>
<text text-anchor="middle" x="297" y="-7.5" font-family="FreeSans" font-size="10.00">TransportFactory.cpp</text>
</a>
</g>
<!-- Node1&#45;&gt;Node4 -->
<g id="edge6" class="edge"><title>Node1&#45;&gt;Node4</title>
<path fill="none" stroke="midnightblue" d="M252.754,-49.5372C263.808,-39.9087 277.631,-27.8694 286.857,-19.8339"/>
<polygon fill="midnightblue" stroke="midnightblue" points="250.203,-47.1168 244.961,-56.324 254.801,-52.3954 250.203,-47.1168"/>
</g>
<!-- Node5 -->
<g id="node9" class="node"><title>Node5</title>
<a xlink:href="transport_8h.html" target="_top" xlink:title="Support for transport property calculation from C++ application programs.">
<polygon fill="white" stroke="black" points="370,-0.5 370,-19.5 432,-19.5 432,-0.5 370,-0.5"/>
<text text-anchor="middle" x="401" y="-7.5" font-family="FreeSans" font-size="10.00">transport.h</text>
</a>
</g>
<!-- Node1&#45;&gt;Node5 -->
<g id="edge8" class="edge"><title>Node1&#45;&gt;Node5</title>
<path fill="none" stroke="midnightblue" d="M270.953,-53.3044C302.232,-43.1294 346.821,-28.6246 374.82,-19.5164"/>
<polygon fill="midnightblue" stroke="midnightblue" points="269.73,-50.0217 261.303,-56.4435 271.895,-56.6783 269.73,-50.0217"/>
</g>
</g>
</svg>
