<?xml version="1.0" encoding="UTF-8" standalone="no"?>
<!DOCTYPE svg PUBLIC "-//W3C//DTD SVG 1.1//EN"
 "http://www.w3.org/Graphics/SVG/1.1/DTD/svg11.dtd">
<!-- Generated by graphviz version 2.28.0 (20120425.2022)
 -->
<!-- Title: LiquidTransport.h Pages: 1 -->
<svg width="1139pt" height="532pt"
 viewBox="0.00 0.00 1139.00 532.00" xmlns="http://www.w3.org/2000/svg" xmlns:xlink="http://www.w3.org/1999/xlink">
<g id="graph1" class="graph" transform="scale(1 1) rotate(0) translate(4 528)">
<title>LiquidTransport.h</title>
<polygon fill="white" stroke="white" points="-4,5 -4,-528 1136,-528 1136,5 -4,5"/>
<!-- Node1 -->
<g id="node1" class="node"><title>Node1</title>
<polygon fill="#bfbfbf" stroke="black" points="156,-504.5 156,-523.5 250,-523.5 250,-504.5 156,-504.5"/>
<text text-anchor="middle" x="203" y="-511.5" font-family="FreeSans" font-size="10.00">LiquidTransport.h</text>
</g>
<!-- Node2 -->
<g id="node3" class="node"><title>Node2</title>
<polygon fill="white" stroke="#bfbfbf" points="745,-0.5 745,-19.5 789,-19.5 789,-0.5 745,-0.5"/>
<text text-anchor="middle" x="767" y="-7.5" font-family="FreeSans" font-size="10.00">vector</text>
</g>
<!-- Node1&#45;&gt;Node2 -->
<g id="edge2" class="edge"><title>Node1&#45;&gt;Node2</title>
<path fill="none" stroke="midnightblue" d="M161.789,-504.481C112.917,-491.686 38,-462.388 38,-403 38,-403 38,-403 38,-121 38,-49.5053 593.3,-19.0174 734.601,-12.4168"/>
<polygon fill="midnightblue" stroke="midnightblue" points="734.956,-15.9043 744.784,-11.9493 734.634,-8.91168 734.956,-15.9043"/>
</g>
<!-- Node3 -->
<g id="node5" class="node"><title>Node3</title>
<polygon fill="white" stroke="#bfbfbf" points="958.5,-0.5 958.5,-19.5 999.5,-19.5 999.5,-0.5 958.5,-0.5"/>
<text text-anchor="middle" x="979" y="-7.5" font-family="FreeSans" font-size="10.00">string</text>
</g>
<!-- Node1&#45;&gt;Node3 -->
<g id="edge4" class="edge"><title>Node1&#45;&gt;Node3</title>
<path fill="none" stroke="midnightblue" d="M250.295,-512.42C439.404,-509.488 1131,-492.637 1131,-403 1131,-403 1131,-403 1131,-121 1131,-61.6173 1053.92,-31.0276 1009.54,-18.3363"/>
<polygon fill="midnightblue" stroke="midnightblue" points="1010.38,-14.9388 999.816,-15.6912 1008.55,-21.6934 1010.38,-14.9388"/>
</g>
<!-- Node4 -->
<g id="node7" class="node"><title>Node4</title>
<polygon fill="white" stroke="#bfbfbf" points="256,-0.5 256,-19.5 292,-19.5 292,-0.5 256,-0.5"/>
<text text-anchor="middle" x="274" y="-7.5" font-family="FreeSans" font-size="10.00">map</text>
</g>
<!-- Node1&#45;&gt;Node4 -->
<g id="edge6" class="edge"><title>Node1&#45;&gt;Node4</title>
<path fill="none" stroke="midnightblue" d="M155.927,-512.841C116.179,-510.24 60.1202,-500.435 24,-468 1.08699,-447.425 0,-433.795 0,-403 0,-403 0,-403 0,-121 0,-90.2048 0.398833,-75.7821 24,-56 57.2599,-28.1222 187.146,-16.5117 245.425,-12.6334"/>
<polygon fill="midnightblue" stroke="midnightblue" points="245.998,-16.1041 255.756,-11.9775 245.554,-9.11821 245.998,-16.1041"/>
</g>
<!-- Node5 -->
<g id="node9" class="node"><title>Node5</title>
<polygon fill="white" stroke="#bfbfbf" points="104,-448.5 104,-467.5 156,-467.5 156,-448.5 104,-448.5"/>
<text text-anchor="middle" x="130" y="-455.5" font-family="FreeSans" font-size="10.00">numeric</text>
</g>
<!-- Node1&#45;&gt;Node5 -->
<g id="edge8" class="edge"><title>Node1&#45;&gt;Node5</title>
<path fill="none" stroke="midnightblue" d="M191.271,-504.324C180.163,-496.107 163.258,-483.602 150.017,-473.807"/>
<polygon fill="midnightblue" stroke="midnightblue" points="152.063,-470.967 141.942,-467.834 147.9,-476.595 152.063,-470.967"/>
</g>
<!-- Node6 -->
<g id="node11" class="node"><title>Node6</title>
<polygon fill="white" stroke="#bfbfbf" points="174,-448.5 174,-467.5 232,-467.5 232,-448.5 174,-448.5"/>
<text text-anchor="middle" x="203" y="-455.5" font-family="FreeSans" font-size="10.00">algorithm</text>
</g>
<!-- Node1&#45;&gt;Node6 -->
<g id="edge10" class="edge"><title>Node1&#45;&gt;Node6</title>
<path fill="none" stroke="midnightblue" d="M203,-504.083C203,-497.006 203,-486.861 203,-477.986"/>
<polygon fill="midnightblue" stroke="midnightblue" points="206.5,-477.751 203,-467.751 199.5,-477.751 206.5,-477.751"/>
</g>
<!-- Node7 -->
<g id="node13" class="node"><title>Node7</title>
<a xlink:href="TransportBase_8h.html" target="_top" xlink:title="Headers for the Transport object, which is the virtual base class for all transport property evaluato...">
<polygon fill="white" stroke="black" points="409.5,-224.5 409.5,-243.5 500.5,-243.5 500.5,-224.5 409.5,-224.5"/>
<text text-anchor="middle" x="455" y="-231.5" font-family="FreeSans" font-size="10.00">TransportBase.h</text>
</a>
</g>
<!-- Node1&#45;&gt;Node7 -->
<g id="edge12" class="edge"><title>Node1&#45;&gt;Node7</title>
<path fill="none" stroke="midnightblue" d="M215.497,-504.283C227.076,-495.834 244.364,-482.239 257,-468 323.116,-393.5 307.137,-348.973 379,-280 392.742,-266.81 411.042,-255.826 426.241,-248.011"/>
<polygon fill="midnightblue" stroke="midnightblue" points="427.823,-251.134 435.236,-243.564 424.72,-244.859 427.823,-251.134"/>
</g>
<!-- Node12 -->
<g id="node26" class="node"><title>Node12</title>
<a xlink:href="DenseMatrix_8h.html" target="_top" xlink:title="Headers for the DenseMatrix object, which deals with dense rectangular matrices and description of th...">
<polygon fill="white" stroke="black" points="174.5,-168.5 174.5,-187.5 335.5,-187.5 335.5,-168.5 174.5,-168.5"/>
<text text-anchor="middle" x="255" y="-175.5" font-family="FreeSans" font-size="10.00">cantera/numerics/DenseMatrix.h</text>
</a>
</g>
<!-- Node1&#45;&gt;Node12 -->
<g id="edge36" class="edge"><title>Node1&#45;&gt;Node12</title>
<path fill="none" stroke="midnightblue" d="M155.949,-505.717C133.507,-499.622 108.633,-488.45 95,-468 90.0693,-460.604 93.2567,-456.716 95,-448 110.864,-368.682 121.942,-348.476 165,-280 186.097,-246.449 218.487,-213.244 238.115,-194.507"/>
<polygon fill="midnightblue" stroke="midnightblue" points="240.549,-197.023 245.438,-187.624 235.755,-191.922 240.549,-197.023"/>
</g>
<!-- Node14 -->
<g id="node33" class="node"><title>Node14</title>
<a xlink:href="TransportParams_8h.html" target="_top" xlink:title="Class that holds the data that is read in from the xml file, and which is used for processing of the ...">
<polygon fill="white" stroke="black" points="174.5,-280.5 174.5,-299.5 275.5,-299.5 275.5,-280.5 174.5,-280.5"/>
<text text-anchor="middle" x="225" y="-287.5" font-family="FreeSans" font-size="10.00">TransportParams.h</text>
</a>
</g>
<!-- Node1&#45;&gt;Node14 -->
<g id="edge38" class="edge"><title>Node1&#45;&gt;Node14</title>
<path fill="none" stroke="midnightblue" d="M213.438,-504.245C222.424,-495.969 234.746,-482.663 240,-468 259.721,-412.964 242.009,-342.379 231.49,-309.452"/>
<polygon fill="midnightblue" stroke="midnightblue" points="234.754,-308.179 228.262,-299.806 228.116,-310.4 234.754,-308.179"/>
</g>
<!-- Node15 -->
<g id="node39" class="node"><title>Node15</title>
<a xlink:href="LiquidTransportParams_8h.html" target="_top" xlink:title="Header file defining class LiquidTransportParams.">
<polygon fill="white" stroke="black" points="374,-448.5 374,-467.5 502,-467.5 502,-448.5 374,-448.5"/>
<text text-anchor="middle" x="438" y="-455.5" font-family="FreeSans" font-size="10.00">LiquidTransportParams.h</text>
</a>
</g>
<!-- Node1&#45;&gt;Node15 -->
<g id="edge48" class="edge"><title>Node1&#45;&gt;Node15</title>
<path fill="none" stroke="midnightblue" d="M240.236,-504.444C281.06,-495.063 346.643,-479.993 390.984,-469.804"/>
<polygon fill="midnightblue" stroke="midnightblue" points="391.976,-473.167 400.938,-467.516 390.408,-466.345 391.976,-473.167"/>
</g>
<!-- Node8 -->
<g id="node15" class="node"><title>Node8</title>
<a xlink:href="ThermoPhase_8h.html" target="_top" xlink:title="Header file for class ThermoPhase, the base class for phases with thermodynamic properties, and the text for the Module thermoprops (see Thermodynamic Properties and class ThermoPhase).">
<polygon fill="white" stroke="black" points="392,-168.5 392,-187.5 552,-187.5 552,-168.5 392,-168.5"/>
<text text-anchor="middle" x="472" y="-175.5" font-family="FreeSans" font-size="10.00">cantera/thermo/ThermoPhase.h</text>
</a>
</g>
<!-- Node7&#45;&gt;Node8 -->
<g id="edge14" class="edge"><title>Node7&#45;&gt;Node8</title>
<path fill="none" stroke="midnightblue" d="M457.807,-224.083C460.085,-216.849 463.371,-206.409 466.208,-197.397"/>
<polygon fill="midnightblue" stroke="midnightblue" points="469.581,-198.341 469.245,-187.751 462.904,-196.239 469.581,-198.341"/>
</g>
<!-- Node7&#45;&gt;Node12 -->
<g id="edge28" class="edge"><title>Node7&#45;&gt;Node12</title>
<path fill="none" stroke="midnightblue" d="M423.309,-224.444C388.932,-215.162 333.923,-200.309 296.211,-190.127"/>
<polygon fill="midnightblue" stroke="midnightblue" points="297.109,-186.744 286.542,-187.516 295.284,-193.502 297.109,-186.744"/>
</g>
<!-- Node9 -->
<g id="node17" class="node"><title>Node9</title>
<a xlink:href="Phase_8h.html" target="_top" xlink:title="Header file for class Phase.">
<polygon fill="white" stroke="red" points="507.5,-112.5 507.5,-131.5 560.5,-131.5 560.5,-112.5 507.5,-112.5"/>
<text text-anchor="middle" x="534" y="-119.5" font-family="FreeSans" font-size="10.00">Phase.h</text>
</a>
</g>
<!-- Node8&#45;&gt;Node9 -->
<g id="edge16" class="edge"><title>Node8&#45;&gt;Node9</title>
<path fill="none" stroke="midnightblue" d="M481.961,-168.324C491.127,-160.341 504.937,-148.313 516.028,-138.653"/>
<polygon fill="midnightblue" stroke="midnightblue" points="518.615,-141.041 523.857,-131.834 514.018,-135.762 518.615,-141.041"/>
</g>
<!-- Node10 -->
<g id="node19" class="node"><title>Node10</title>
<a xlink:href="SpeciesThermo_8h.html" target="_top" xlink:title="Virtual base class for the calculation of multiple&#45;species thermodynamic reference&#45;state property man...">
<polygon fill="white" stroke="black" points="392.5,-112.5 392.5,-131.5 489.5,-131.5 489.5,-112.5 392.5,-112.5"/>
<text text-anchor="middle" x="441" y="-119.5" font-family="FreeSans" font-size="10.00">SpeciesThermo.h</text>
</a>
</g>
<!-- Node8&#45;&gt;Node10 -->
<g id="edge18" class="edge"><title>Node8&#45;&gt;Node10</title>
<path fill="none" stroke="midnightblue" d="M466.881,-168.083C462.592,-160.613 456.342,-149.724 451.058,-140.52"/>
<polygon fill="midnightblue" stroke="midnightblue" points="454.038,-138.681 446.024,-131.751 447.967,-142.166 454.038,-138.681"/>
</g>
<!-- Node11 -->
<g id="node21" class="node"><title>Node11</title>
<a xlink:href="ct__defs_8h.html" target="_top" xlink:title="This file contains definitions of terms that are used in internal routines and are unlikely to need m...">
<polygon fill="white" stroke="red" points="487,-56.5 487,-75.5 543,-75.5 543,-56.5 487,-56.5"/>
<text text-anchor="middle" x="515" y="-63.5" font-family="FreeSans" font-size="10.00">ct_defs.h</text>
</a>
</g>
<!-- Node10&#45;&gt;Node11 -->
<g id="edge20" class="edge"><title>Node10&#45;&gt;Node11</title>
<path fill="none" stroke="midnightblue" d="M452.889,-112.324C464.15,-104.107 481.287,-91.6017 494.709,-81.8069"/>
<polygon fill="midnightblue" stroke="midnightblue" points="496.88,-84.5559 502.894,-75.8339 492.753,-78.9014 496.88,-84.5559"/>
</g>
<!-- Node11&#45;&gt;Node2 -->
<g id="edge22" class="edge"><title>Node11&#45;&gt;Node2</title>
<path fill="none" stroke="midnightblue" d="M543.418,-58.9105C590.765,-48.7646 685.481,-28.4683 735.066,-17.8431"/>
<polygon fill="midnightblue" stroke="midnightblue" points="735.883,-21.2474 744.928,-15.7297 734.417,-14.4028 735.883,-21.2474"/>
</g>
<!-- Node11&#45;&gt;Node3 -->
<g id="edge26" class="edge"><title>Node11&#45;&gt;Node3</title>
<path fill="none" stroke="midnightblue" d="M543.327,-61.7033C625.501,-52.1399 863.498,-24.4421 948.433,-14.5574"/>
<polygon fill="midnightblue" stroke="midnightblue" points="948.938,-18.0223 958.467,-13.3896 948.129,-11.0692 948.938,-18.0223"/>
</g>
<!-- Node11&#45;&gt;Node4 -->
<g id="edge24" class="edge"><title>Node11&#45;&gt;Node4</title>
<path fill="none" stroke="midnightblue" d="M486.883,-58.6998C440.46,-48.298 348.319,-27.6525 301.984,-17.2703"/>
<polygon fill="midnightblue" stroke="midnightblue" points="302.557,-13.8119 292.033,-15.0407 301.026,-20.6425 302.557,-13.8119"/>
</g>
<!-- Node12&#45;&gt;Node11 -->
<g id="edge30" class="edge"><title>Node12&#45;&gt;Node11</title>
<path fill="none" stroke="midnightblue" d="M265.125,-168.355C281.775,-154.553 316.444,-127.518 350,-112 391.398,-92.8561 442.522,-80.4843 476.796,-73.6502"/>
<polygon fill="midnightblue" stroke="midnightblue" points="477.707,-77.0389 486.862,-71.7057 476.38,-70.166 477.707,-77.0389"/>
</g>
<!-- Node13 -->
<g id="node29" class="node"><title>Node13</title>
<a xlink:href="Array_8h.html" target="_top" xlink:title="Header file for class Array2D.">
<polygon fill="white" stroke="red" points="236,-112.5 236,-131.5 284,-131.5 284,-112.5 236,-112.5"/>
<text text-anchor="middle" x="260" y="-119.5" font-family="FreeSans" font-size="10.00">Array.h</text>
</a>
</g>
<!-- Node12&#45;&gt;Node13 -->
<g id="edge32" class="edge"><title>Node12&#45;&gt;Node13</title>
<path fill="none" stroke="midnightblue" d="M255.826,-168.083C256.481,-161.006 257.42,-150.861 258.242,-141.986"/>
<polygon fill="midnightblue" stroke="midnightblue" points="261.753,-142.031 259.19,-131.751 254.783,-141.386 261.753,-142.031"/>
</g>
<!-- Node13&#45;&gt;Node11 -->
<g id="edge34" class="edge"><title>Node13&#45;&gt;Node11</title>
<path fill="none" stroke="midnightblue" d="M284.45,-115.822C328.976,-106.393 423.583,-86.3589 476.724,-75.1054"/>
<polygon fill="midnightblue" stroke="midnightblue" points="477.715,-78.4734 486.773,-72.9776 476.264,-71.6253 477.715,-78.4734"/>
</g>
<!-- Node14&#45;&gt;Node2 -->
<g id="edge40" class="edge"><title>Node14&#45;&gt;Node2</title>
<path fill="none" stroke="midnightblue" d="M212.656,-280.277C190.438,-263.446 146,-224.143 146,-179 146,-179 146,-179 146,-121 146,-60.6237 607.009,-22.6284 734.611,-13.2682"/>
<polygon fill="midnightblue" stroke="midnightblue" points="735.177,-16.7364 744.898,-12.5228 734.671,-9.75465 735.177,-16.7364"/>
</g>
<!-- Node14&#45;&gt;Node7 -->
<g id="edge46" class="edge"><title>Node14&#45;&gt;Node7</title>
<path fill="none" stroke="midnightblue" d="M261.444,-280.444C301.399,-271.063 365.587,-255.993 408.985,-245.804"/>
<polygon fill="midnightblue" stroke="midnightblue" points="409.791,-249.21 418.726,-243.516 408.191,-242.395 409.791,-249.21"/>
</g>
<!-- Node14&#45;&gt;Node11 -->
<g id="edge42" class="edge"><title>Node14&#45;&gt;Node11</title>
<path fill="none" stroke="midnightblue" d="M238.271,-280.365C261.952,-264.434 312.005,-228.337 344,-188 367.593,-158.255 354.273,-136.822 383,-112 409.514,-89.0898 448.237,-77.7013 476.891,-72.1294"/>
<polygon fill="midnightblue" stroke="midnightblue" points="477.724,-75.5361 486.951,-70.3293 476.491,-68.6455 477.724,-75.5361"/>
</g>
<!-- Node14&#45;&gt;Node12 -->
<g id="edge44" class="edge"><title>Node14&#45;&gt;Node12</title>
<path fill="none" stroke="midnightblue" d="M227.354,-280.368C232.217,-262.537 243.465,-221.295 250.017,-197.272"/>
<polygon fill="midnightblue" stroke="midnightblue" points="253.402,-198.16 252.657,-187.591 246.649,-196.318 253.402,-198.16"/>
</g>
<!-- Node15&#45;&gt;Node2 -->
<g id="edge106" class="edge"><title>Node15&#45;&gt;Node2</title>
<path fill="none" stroke="midnightblue" d="M502.296,-452.909C667.328,-441.552 1093,-406.492 1093,-347 1093,-347 1093,-347 1093,-177 1093,-110.764 1061.88,-91.5624 1006,-56 972.118,-34.437 856.61,-20.0715 799.503,-14.114"/>
<polygon fill="midnightblue" stroke="midnightblue" points="799.53,-10.5987 789.226,-13.0673 798.82,-17.5627 799.53,-10.5987"/>
</g>
<!-- Node15&#45;&gt;Node7 -->
<g id="edge52" class="edge"><title>Node15&#45;&gt;Node7</title>
<path fill="none" stroke="midnightblue" d="M424.995,-448.266C398.397,-429.229 341.764,-382.004 360,-336 374.788,-298.694 410.6,-267.146 433.785,-249.676"/>
<polygon fill="midnightblue" stroke="midnightblue" points="435.972,-252.413 441.982,-243.688 431.843,-246.761 435.972,-252.413"/>
</g>
<!-- Node15&#45;&gt;Node11 -->
<g id="edge50" class="edge"><title>Node15&#45;&gt;Node11</title>
<path fill="none" stroke="midnightblue" d="M399.535,-448.469C336.543,-432.146 213.545,-389.826 165,-300 137.107,-248.388 141.18,-221.613 165,-168 180.076,-134.067 193.481,-127.977 227,-112 309.786,-72.5397 419.685,-66.3967 476.826,-66.1749"/>
<polygon fill="midnightblue" stroke="midnightblue" points="476.856,-69.6748 486.863,-66.1956 476.87,-62.6748 476.856,-69.6748"/>
</g>
<!-- Node15&#45;&gt;Node14 -->
<g id="edge54" class="edge"><title>Node15&#45;&gt;Node14</title>
<path fill="none" stroke="midnightblue" d="M422.438,-448.38C407.332,-439.789 383.972,-425.907 365,-412 317.774,-377.38 266.825,-330.718 241.396,-306.713"/>
<polygon fill="midnightblue" stroke="midnightblue" points="243.735,-304.107 234.074,-299.759 238.915,-309.183 243.735,-304.107"/>
</g>
<!-- Node16 -->
<g id="node44" class="node"><title>Node16</title>
<a xlink:href="LiquidTransportData_8h.html" target="_top" xlink:title="Header file defining class LiquidTransportData.">
<polygon fill="white" stroke="black" points="731,-336.5 731,-355.5 847,-355.5 847,-336.5 731,-336.5"/>
<text text-anchor="middle" x="789" y="-343.5" font-family="FreeSans" font-size="10.00">LiquidTransportData.h</text>
</a>
</g>
<!-- Node15&#45;&gt;Node16 -->
<g id="edge56" class="edge"><title>Node15&#45;&gt;Node16</title>
<path fill="none" stroke="midnightblue" d="M502.279,-456.856C560.896,-454.412 648.538,-444.829 717,-412 740.61,-400.679 762.1,-379.132 775.336,-363.957"/>
<polygon fill="midnightblue" stroke="midnightblue" points="778.369,-365.789 782.129,-355.884 773.013,-361.282 778.369,-365.789"/>
</g>
<!-- Node19 -->
<g id="node60" class="node"><title>Node19</title>
<a xlink:href="LiquidTranInteraction_8h.html" target="_top" xlink:title="Header file defining the class LiquidTranInteraction and classes which derive from LiquidTranInteract...">
<polygon fill="white" stroke="black" points="514,-392.5 514,-411.5 632,-411.5 632,-392.5 514,-392.5"/>
<text text-anchor="middle" x="573" y="-399.5" font-family="FreeSans" font-size="10.00">LiquidTranInteraction.h</text>
</a>
</g>
<!-- Node15&#45;&gt;Node19 -->
<g id="edge82" class="edge"><title>Node15&#45;&gt;Node19</title>
<path fill="none" stroke="midnightblue" d="M459.391,-448.444C481.707,-439.517 516.903,-425.439 542.208,-415.317"/>
<polygon fill="midnightblue" stroke="midnightblue" points="543.724,-418.48 551.709,-411.516 541.124,-411.981 543.724,-418.48"/>
</g>
<!-- Node20 -->
<g id="node66" class="node"><title>Node20</title>
<a xlink:href="xml_8h.html" target="_top" xlink:title="Classes providing support for XML data files.">
<polygon fill="white" stroke="red" points="721,-112.5 721,-131.5 761,-131.5 761,-112.5 721,-112.5"/>
<text text-anchor="middle" x="741" y="-119.5" font-family="FreeSans" font-size="10.00">xml.h</text>
</a>
</g>
<!-- Node15&#45;&gt;Node20 -->
<g id="edge102" class="edge"><title>Node15&#45;&gt;Node20</title>
<path fill="none" stroke="midnightblue" d="M502.149,-457.051C580.577,-453.343 703,-433.675 703,-347 703,-347 703,-347 703,-233 703,-198.813 719.6,-161.764 730.857,-140.571"/>
<polygon fill="midnightblue" stroke="midnightblue" points="733.947,-142.215 735.716,-131.769 727.819,-138.832 733.947,-142.215"/>
</g>
<!-- Node21 -->
<g id="node71" class="node"><title>Node21</title>
<a xlink:href="XML__Writer_8h_source.html" target="_top" xlink:title="cantera/base/XML_Writer.h">
<polygon fill="white" stroke="black" points="369.5,-336.5 369.5,-355.5 506.5,-355.5 506.5,-336.5 369.5,-336.5"/>
<text text-anchor="middle" x="438" y="-343.5" font-family="FreeSans" font-size="10.00">cantera/base/XML_Writer.h</text>
</a>
</g>
<!-- Node15&#45;&gt;Node21 -->
<g id="edge104" class="edge"><title>Node15&#45;&gt;Node21</title>
<path fill="none" stroke="midnightblue" d="M438,-448.368C438,-430.617 438,-389.666 438,-365.597"/>
<polygon fill="midnightblue" stroke="midnightblue" points="441.5,-365.591 438,-355.591 434.5,-365.591 441.5,-365.591"/>
</g>
<!-- Node16&#45;&gt;Node2 -->
<g id="edge58" class="edge"><title>Node16&#45;&gt;Node2</title>
<path fill="none" stroke="midnightblue" d="M847.124,-341.594C914.675,-334.126 1017,-310.373 1017,-235 1017,-235 1017,-235 1017,-121 1017,-26.9282 866.864,-12.598 799.287,-10.9125"/>
<polygon fill="midnightblue" stroke="midnightblue" points="799.244,-7.41139 789.186,-10.7403 799.125,-14.4104 799.244,-7.41139"/>
</g>
<!-- Node16&#45;&gt;Node3 -->
<g id="edge60" class="edge"><title>Node16&#45;&gt;Node3</title>
<path fill="none" stroke="midnightblue" d="M847.046,-345.398C925.314,-342.54 1055,-324.328 1055,-235 1055,-235 1055,-235 1055,-177 1055,-117.796 1014.54,-56.6144 992.663,-27.8587"/>
<polygon fill="midnightblue" stroke="midnightblue" points="995.204,-25.4271 986.287,-19.7055 989.69,-29.739 995.204,-25.4271"/>
</g>
<!-- Node16&#45;&gt;Node7 -->
<g id="edge64" class="edge"><title>Node16&#45;&gt;Node7</title>
<path fill="none" stroke="midnightblue" d="M762.788,-336.496C735.02,-327.476 689.9,-312.793 651,-300 594.765,-281.507 529.529,-259.827 490.3,-246.766"/>
<polygon fill="midnightblue" stroke="midnightblue" points="491.264,-243.398 480.67,-243.559 489.052,-250.039 491.264,-243.398"/>
</g>
<!-- Node16&#45;&gt;Node11 -->
<g id="edge62" class="edge"><title>Node16&#45;&gt;Node11</title>
<path fill="none" stroke="midnightblue" d="M777.307,-336.45C766.048,-327.912 748.878,-314.067 736,-300 666.89,-224.506 680.358,-179.017 603,-112 586.914,-98.0643 565.758,-87.069 548.221,-79.4361"/>
<polygon fill="midnightblue" stroke="midnightblue" points="549.483,-76.1699 538.906,-75.5443 546.784,-82.6288 549.483,-76.1699"/>
</g>
<!-- Node17 -->
<g id="node50" class="node"><title>Node17</title>
<a xlink:href="FactoryBase_8h.html" target="_top" xlink:title="File contains the FactoryBase class declarations.">
<polygon fill="white" stroke="black" points="807,-224.5 807,-243.5 951,-243.5 951,-224.5 807,-224.5"/>
<text text-anchor="middle" x="879" y="-231.5" font-family="FreeSans" font-size="10.00">cantera/base/FactoryBase.h</text>
</a>
</g>
<!-- Node16&#45;&gt;Node17 -->
<g id="edge66" class="edge"><title>Node16&#45;&gt;Node17</title>
<path fill="none" stroke="midnightblue" d="M797.938,-336.367C806.906,-327.543 820.937,-313.286 832,-300 844.907,-284.5 858.254,-265.731 867.412,-252.355"/>
<polygon fill="midnightblue" stroke="midnightblue" points="870.569,-253.935 873.273,-243.692 864.771,-250.013 870.569,-253.935"/>
</g>
<!-- Node18 -->
<g id="node53" class="node"><title>Node18</title>
<a xlink:href="LTPspecies_8h.html" target="_top" xlink:title="Header file defining class LTPspecies and its child classes.">
<polygon fill="white" stroke="black" points="745,-280.5 745,-299.5 823,-299.5 823,-280.5 745,-280.5"/>
<text text-anchor="middle" x="784" y="-287.5" font-family="FreeSans" font-size="10.00">LTPspecies.h</text>
</a>
</g>
<!-- Node16&#45;&gt;Node18 -->
<g id="edge70" class="edge"><title>Node16&#45;&gt;Node18</title>
<path fill="none" stroke="midnightblue" d="M788.174,-336.083C787.519,-329.006 786.58,-318.861 785.758,-309.986"/>
<polygon fill="midnightblue" stroke="midnightblue" points="789.217,-309.386 784.81,-299.751 782.247,-310.031 789.217,-309.386"/>
</g>
<!-- Node17&#45;&gt;Node2 -->
<g id="edge68" class="edge"><title>Node17&#45;&gt;Node2</title>
<path fill="none" stroke="midnightblue" d="M876.268,-224.5C867.653,-198.286 839.46,-116.803 803,-56 796.966,-45.9381 788.907,-35.652 781.943,-27.4585"/>
<polygon fill="midnightblue" stroke="midnightblue" points="784.435,-24.9916 775.214,-19.7745 779.169,-29.6034 784.435,-24.9916"/>
</g>
<!-- Node18&#45;&gt;Node2 -->
<g id="edge78" class="edge"><title>Node18&#45;&gt;Node2</title>
<path fill="none" stroke="midnightblue" d="M783.473,-280.375C781.113,-241.782 771.492,-84.4539 768.15,-29.8074"/>
<polygon fill="midnightblue" stroke="midnightblue" points="771.625,-29.2919 767.521,-19.5243 764.638,-29.7193 771.625,-29.2919"/>
</g>
<!-- Node18&#45;&gt;Node3 -->
<g id="edge80" class="edge"><title>Node18&#45;&gt;Node3</title>
<path fill="none" stroke="midnightblue" d="M823.27,-289.602C862.916,-288.043 923.376,-279.398 960,-244 981.642,-223.083 979,-209.098 979,-179 979,-179 979,-179 979,-121 979,-88.948 979,-51.6426 979,-29.7489"/>
<polygon fill="midnightblue" stroke="midnightblue" points="982.5,-29.5577 979,-19.5578 975.5,-29.5578 982.5,-29.5577"/>
</g>
<!-- Node18&#45;&gt;Node7 -->
<g id="edge74" class="edge"><title>Node18&#45;&gt;Node7</title>
<path fill="none" stroke="midnightblue" d="M744.967,-282.593C686.764,-273.04 576.967,-255.019 510.452,-244.102"/>
<polygon fill="midnightblue" stroke="midnightblue" points="510.999,-240.645 500.564,-242.479 509.865,-247.552 510.999,-240.645"/>
</g>
<!-- Node18&#45;&gt;Node11 -->
<g id="edge72" class="edge"><title>Node18&#45;&gt;Node11</title>
<path fill="none" stroke="midnightblue" d="M779.505,-280.477C762.467,-248.455 701.199,-135.946 669,-112 634.916,-86.6517 586.793,-75.5348 553.451,-70.689"/>
<polygon fill="midnightblue" stroke="midnightblue" points="553.555,-67.1722 543.182,-69.326 552.634,-74.1114 553.555,-67.1722"/>
</g>
<!-- Node18&#45;&gt;Node17 -->
<g id="edge76" class="edge"><title>Node18&#45;&gt;Node17</title>
<path fill="none" stroke="midnightblue" d="M799.263,-280.324C814.221,-271.822 837.255,-258.729 854.727,-248.797"/>
<polygon fill="midnightblue" stroke="midnightblue" points="856.81,-251.639 863.774,-243.655 853.351,-245.553 856.81,-251.639"/>
</g>
<!-- Node19&#45;&gt;Node7 -->
<g id="edge86" class="edge"><title>Node19&#45;&gt;Node7</title>
<path fill="none" stroke="midnightblue" d="M569.677,-392.199C564.627,-379.326 554.296,-354.848 542,-336 520.646,-303.267 489.606,-269.768 470.951,-250.758"/>
<polygon fill="midnightblue" stroke="midnightblue" points="473.311,-248.168 463.779,-243.543 468.347,-253.103 473.311,-248.168"/>
</g>
<!-- Node19&#45;&gt;Node11 -->
<g id="edge84" class="edge"><title>Node19&#45;&gt;Node11</title>
<path fill="none" stroke="midnightblue" d="M574.42,-392.388C578.336,-367.861 589,-295.512 589,-235 589,-235 589,-235 589,-177 589,-146.775 585.748,-137.161 569,-112 560.89,-99.8157 548.526,-89.1709 537.675,-81.2974"/>
<polygon fill="midnightblue" stroke="midnightblue" points="539.627,-78.3921 529.406,-75.6007 535.655,-84.1565 539.627,-78.3921"/>
</g>
<!-- Node19&#45;&gt;Node14 -->
<g id="edge88" class="edge"><title>Node19&#45;&gt;Node14</title>
<path fill="none" stroke="midnightblue" d="M567.905,-392.093C559.133,-377.663 539.713,-349.44 515,-336 476.473,-315.048 358.619,-301.925 285.551,-295.577"/>
<polygon fill="midnightblue" stroke="midnightblue" points="285.812,-292.087 275.551,-294.726 285.219,-299.061 285.812,-292.087"/>
</g>
<!-- Node19&#45;&gt;Node16 -->
<g id="edge90" class="edge"><title>Node19&#45;&gt;Node16</title>
<path fill="none" stroke="midnightblue" d="M607.226,-392.444C644.512,-383.122 704.269,-368.183 745.011,-357.997"/>
<polygon fill="midnightblue" stroke="midnightblue" points="746.082,-361.337 754.934,-355.516 744.384,-354.546 746.082,-361.337"/>
</g>
<!-- Node19&#45;&gt;Node20 -->
<g id="edge92" class="edge"><title>Node19&#45;&gt;Node20</title>
<path fill="none" stroke="midnightblue" d="M586.754,-392.206C598.431,-384.093 614.862,-371.051 625,-356 626.541,-353.712 687.459,-170.288 689,-168 696.92,-156.241 708.682,-145.709 719.016,-137.795"/>
<polygon fill="midnightblue" stroke="midnightblue" points="721.228,-140.514 727.246,-131.794 717.104,-134.858 721.228,-140.514"/>
</g>
<!-- Node19&#45;&gt;Node21 -->
<g id="edge100" class="edge"><title>Node19&#45;&gt;Node21</title>
<path fill="none" stroke="midnightblue" d="M551.609,-392.444C529.293,-383.517 494.097,-369.439 468.792,-359.317"/>
<polygon fill="midnightblue" stroke="midnightblue" points="469.876,-355.981 459.291,-355.516 467.276,-362.48 469.876,-355.981"/>
</g>
<!-- Node20&#45;&gt;Node2 -->
<g id="edge98" class="edge"><title>Node20&#45;&gt;Node2</title>
<path fill="none" stroke="midnightblue" d="M743.04,-112.368C747.236,-94.617 756.915,-53.6664 762.604,-29.5974"/>
<polygon fill="midnightblue" stroke="midnightblue" points="766.075,-30.1284 764.969,-19.5914 759.263,-28.5182 766.075,-30.1284"/>
</g>
<!-- Node20&#45;&gt;Node3 -->
<g id="edge96" class="edge"><title>Node20&#45;&gt;Node3</title>
<path fill="none" stroke="midnightblue" d="M759.675,-112.368C801.385,-93.0908 902.291,-46.4536 951.328,-23.7894"/>
<polygon fill="midnightblue" stroke="midnightblue" points="952.802,-26.964 960.411,-19.5914 949.866,-20.6098 952.802,-26.964"/>
</g>
<!-- Node20&#45;&gt;Node11 -->
<g id="edge94" class="edge"><title>Node20&#45;&gt;Node11</title>
<path fill="none" stroke="midnightblue" d="M720.889,-115.575C716.328,-114.373 711.503,-113.123 707,-112 653.636,-98.6865 591.641,-84.3619 552.86,-75.5377"/>
<polygon fill="midnightblue" stroke="midnightblue" points="553.569,-72.1097 543.042,-73.3085 552.019,-78.9359 553.569,-72.1097"/>
</g>
</g>
</svg>
