<?xml version="1.0" encoding="UTF-8" standalone="no"?>
<!DOCTYPE svg PUBLIC "-//W3C//DTD SVG 1.1//EN"
 "http://www.w3.org/Graphics/SVG/1.1/DTD/svg11.dtd">
<!-- Generated by graphviz version 2.28.0 (20120425.2022)
 -->
<!-- Title: LogPrintCtrl.cpp Pages: 1 -->
<svg width="560pt" height="196pt"
 viewBox="0.00 0.00 560.14 196.00" xmlns="http://www.w3.org/2000/svg" xmlns:xlink="http://www.w3.org/1999/xlink">
<g id="graph1" class="graph" transform="scale(1 1) rotate(0) translate(4 192)">
<title>LogPrintCtrl.cpp</title>
<polygon fill="white" stroke="white" points="-4,5 -4,-192 557.136,-192 557.136,5 -4,5"/>
<!-- Node1 -->
<g id="node1" class="node"><title>Node1</title>
<polygon fill="#bfbfbf" stroke="black" points="136.136,-168.5 136.136,-187.5 222.136,-187.5 222.136,-168.5 136.136,-168.5"/>
<text text-anchor="middle" x="179.136" y="-175.5" font-family="FreeSans" font-size="10.00">LogPrintCtrl.cpp</text>
</g>
<!-- Node2 -->
<g id="node3" class="node"><title>Node2</title>
<polygon fill="white" stroke="#bfbfbf" points="201.136,-0.5 201.136,-19.5 245.136,-19.5 245.136,-0.5 201.136,-0.5"/>
<text text-anchor="middle" x="223.136" y="-7.5" font-family="FreeSans" font-size="10.00">cmath</text>
</g>
<!-- Node1&#45;&gt;Node2 -->
<g id="edge2" class="edge"><title>Node1&#45;&gt;Node2</title>
<path fill="none" stroke="midnightblue" d="M188.153,-168.297C196.254,-159.859 207.687,-146.27 213.136,-132 226.248,-97.6608 226.137,-53.9589 224.733,-29.5835"/>
<polygon fill="midnightblue" stroke="midnightblue" points="228.222,-29.2951 224.016,-19.5706 221.239,-29.795 228.222,-29.2951"/>
</g>
<!-- Node3 -->
<g id="node5" class="node"><title>Node3</title>
<polygon fill="white" stroke="#bfbfbf" points="0.13605,-0.5 0.13605,-19.5 56.1361,-19.5 56.1361,-0.5 0.13605,-0.5"/>
<text text-anchor="middle" x="28.1361" y="-7.5" font-family="FreeSans" font-size="10.00">iostream</text>
</g>
<!-- Node1&#45;&gt;Node3 -->
<g id="edge4" class="edge"><title>Node1&#45;&gt;Node3</title>
<path fill="none" stroke="midnightblue" d="M138.616,-168.443C112.133,-161.535 77.6659,-149.957 51.1361,-132 23.7482,-113.463 13.7682,-106.958 2.13605,-76 -4.04651,-59.5454 5.05462,-40.9373 14.1439,-27.8604"/>
<polygon fill="midnightblue" stroke="midnightblue" points="17.0095,-29.8736 20.2466,-19.7854 11.425,-25.6531 17.0095,-29.8736"/>
</g>
<!-- Node4 -->
<g id="node7" class="node"><title>Node4</title>
<polygon fill="white" stroke="#bfbfbf" points="154.136,-112.5 154.136,-131.5 204.136,-131.5 204.136,-112.5 154.136,-112.5"/>
<text text-anchor="middle" x="179.136" y="-119.5" font-family="FreeSans" font-size="10.00">fstream</text>
</g>
<!-- Node1&#45;&gt;Node4 -->
<g id="edge6" class="edge"><title>Node1&#45;&gt;Node4</title>
<path fill="none" stroke="midnightblue" d="M179.136,-168.083C179.136,-161.006 179.136,-150.861 179.136,-141.986"/>
<polygon fill="midnightblue" stroke="midnightblue" points="182.636,-141.751 179.136,-131.751 175.636,-141.751 182.636,-141.751"/>
</g>
<!-- Node5 -->
<g id="node9" class="node"><title>Node5</title>
<a xlink:href="LogPrintCtrl_8h.html" target="_top" xlink:title="Declarations for a simple class that augments the logfile printing capabilities (see Cantera::LogPrin...">
<polygon fill="white" stroke="black" points="60.1361,-112.5 60.1361,-131.5 136.136,-131.5 136.136,-112.5 60.1361,-112.5"/>
<text text-anchor="middle" x="98.1361" y="-119.5" font-family="FreeSans" font-size="10.00">LogPrintCtrl.h</text>
</a>
</g>
<!-- Node1&#45;&gt;Node5 -->
<g id="edge8" class="edge"><title>Node1&#45;&gt;Node5</title>
<path fill="none" stroke="midnightblue" d="M166.122,-168.324C153.604,-159.979 134.454,-147.212 119.665,-137.352"/>
<polygon fill="midnightblue" stroke="midnightblue" points="121.38,-134.289 111.118,-131.655 117.497,-140.114 121.38,-134.289"/>
</g>
<!-- Node8 -->
<g id="node16" class="node"><title>Node8</title>
<a xlink:href="global_8h.html" target="_top" xlink:title="This file contains definitions for utility functions and text for modules, inputfiles, logs, textlogs, HTML_logs (see Input File Handling, Diagnostic Output, Writing messages to the screen and Writing HTML Logfiles).">
<polygon fill="white" stroke="black" points="269.136,-112.5 269.136,-131.5 383.136,-131.5 383.136,-112.5 269.136,-112.5"/>
<text text-anchor="middle" x="326.136" y="-119.5" font-family="FreeSans" font-size="10.00">cantera/base/global.h</text>
</a>
</g>
<!-- Node1&#45;&gt;Node8 -->
<g id="edge16" class="edge"><title>Node1&#45;&gt;Node8</title>
<path fill="none" stroke="midnightblue" d="M202.429,-168.444C226.943,-159.438 265.732,-145.189 293.336,-135.049"/>
<polygon fill="midnightblue" stroke="midnightblue" points="294.773,-138.25 302.952,-131.516 292.359,-131.679 294.773,-138.25"/>
</g>
<!-- Node6 -->
<g id="node11" class="node"><title>Node6</title>
<polygon fill="white" stroke="#bfbfbf" points="150.636,-56.5 150.636,-75.5 203.636,-75.5 203.636,-56.5 150.636,-56.5"/>
<text text-anchor="middle" x="177.136" y="-63.5" font-family="FreeSans" font-size="10.00">sstream</text>
</g>
<!-- Node5&#45;&gt;Node6 -->
<g id="edge10" class="edge"><title>Node5&#45;&gt;Node6</title>
<path fill="none" stroke="midnightblue" d="M110.829,-112.324C123.037,-103.979 141.715,-91.2122 156.139,-81.3524"/>
<polygon fill="midnightblue" stroke="midnightblue" points="158.194,-84.1871 164.475,-75.6545 154.244,-78.4082 158.194,-84.1871"/>
</g>
<!-- Node7 -->
<g id="node13" class="node"><title>Node7</title>
<a xlink:href="PrintCtrl_8h.html" target="_top" xlink:title="Declarations for a simple class that augments the streams printing capabilities (see Cantera::PrintCt...">
<polygon fill="white" stroke="black" points="11.6361,-56.5 11.6361,-75.5 132.636,-75.5 132.636,-56.5 11.6361,-56.5"/>
<text text-anchor="middle" x="72.1361" y="-63.5" font-family="FreeSans" font-size="10.00">cantera/base/PrintCtrl.h</text>
</a>
</g>
<!-- Node5&#45;&gt;Node7 -->
<g id="edge12" class="edge"><title>Node5&#45;&gt;Node7</title>
<path fill="none" stroke="midnightblue" d="M93.8427,-112.083C90.2837,-104.691 85.1136,-93.9533 80.7118,-84.8111"/>
<polygon fill="midnightblue" stroke="midnightblue" points="83.8413,-83.2427 76.3495,-75.7511 77.5342,-86.2795 83.8413,-83.2427"/>
</g>
<!-- Node7&#45;&gt;Node3 -->
<g id="edge14" class="edge"><title>Node7&#45;&gt;Node3</title>
<path fill="none" stroke="midnightblue" d="M64.8703,-56.083C58.5912,-48.3768 49.3484,-37.0333 41.7052,-27.6531"/>
<polygon fill="midnightblue" stroke="midnightblue" points="44.2967,-25.2926 35.2666,-19.7511 38.87,-29.7143 44.2967,-25.2926"/>
</g>
<!-- Node9 -->
<g id="node18" class="node"><title>Node9</title>
<a xlink:href="ct__defs_8h.html" target="_top" xlink:title="This file contains definitions of terms that are used in internal routines and are unlikely to need m...">
<polygon fill="white" stroke="black" points="315.136,-56.5 315.136,-75.5 371.136,-75.5 371.136,-56.5 315.136,-56.5"/>
<text text-anchor="middle" x="343.136" y="-63.5" font-family="FreeSans" font-size="10.00">ct_defs.h</text>
</a>
</g>
<!-- Node8&#45;&gt;Node9 -->
<g id="edge18" class="edge"><title>Node8&#45;&gt;Node9</title>
<path fill="none" stroke="midnightblue" d="M328.943,-112.083C331.221,-104.849 334.507,-94.4087 337.344,-85.3968"/>
<polygon fill="midnightblue" stroke="midnightblue" points="340.717,-86.3406 340.381,-75.7511 334.04,-84.2385 340.717,-86.3406"/>
</g>
<!-- Node9&#45;&gt;Node2 -->
<g id="edge22" class="edge"><title>Node9&#45;&gt;Node2</title>
<path fill="none" stroke="midnightblue" d="M324.122,-56.4435C304.548,-47.6356 273.828,-33.8116 251.407,-23.722"/>
<polygon fill="midnightblue" stroke="midnightblue" points="252.617,-20.4284 242.061,-19.5164 249.744,-26.8119 252.617,-20.4284"/>
</g>
<!-- Node10 -->
<g id="node20" class="node"><title>Node10</title>
<a xlink:href="config_8h_source.html" target="_top" xlink:title="config.h">
<polygon fill="white" stroke="black" points="438.636,-0.5 438.636,-19.5 489.636,-19.5 489.636,-0.5 438.636,-0.5"/>
<text text-anchor="middle" x="464.136" y="-7.5" font-family="FreeSans" font-size="10.00">config.h</text>
</a>
</g>
<!-- Node9&#45;&gt;Node10 -->
<g id="edge20" class="edge"><title>Node9&#45;&gt;Node10</title>
<path fill="none" stroke="midnightblue" d="M362.309,-56.4435C382.045,-47.6356 413.021,-33.8116 435.629,-23.722"/>
<polygon fill="midnightblue" stroke="midnightblue" points="437.347,-26.788 445.053,-19.5164 434.495,-20.3957 437.347,-26.788"/>
</g>
<!-- Node11 -->
<g id="node23" class="node"><title>Node11</title>
<polygon fill="white" stroke="#bfbfbf" points="507.636,-0.5 507.636,-19.5 552.636,-19.5 552.636,-0.5 507.636,-0.5"/>
<text text-anchor="middle" x="530.136" y="-7.5" font-family="FreeSans" font-size="10.00">cstdlib</text>
</g>
<!-- Node9&#45;&gt;Node11 -->
<g id="edge24" class="edge"><title>Node9&#45;&gt;Node11</title>
<path fill="none" stroke="midnightblue" d="M371.537,-56.7986C405.387,-47.0238 461.835,-30.7233 497.463,-20.4349"/>
<polygon fill="midnightblue" stroke="midnightblue" points="498.728,-23.7129 507.364,-17.5759 496.785,-16.9877 498.728,-23.7129"/>
</g>
<!-- Node12 -->
<g id="node25" class="node"><title>Node12</title>
<polygon fill="white" stroke="#bfbfbf" points="263.136,-0.5 263.136,-19.5 307.136,-19.5 307.136,-0.5 263.136,-0.5"/>
<text text-anchor="middle" x="285.136" y="-7.5" font-family="FreeSans" font-size="10.00">vector</text>
</g>
<!-- Node9&#45;&gt;Node12 -->
<g id="edge26" class="edge"><title>Node9&#45;&gt;Node12</title>
<path fill="none" stroke="midnightblue" d="M333.817,-56.324C325.243,-48.3414 312.324,-36.3128 301.948,-26.6529"/>
<polygon fill="midnightblue" stroke="midnightblue" points="304.328,-24.0865 294.624,-19.8339 299.558,-29.2098 304.328,-24.0865"/>
</g>
<!-- Node13 -->
<g id="node27" class="node"><title>Node13</title>
<polygon fill="white" stroke="#bfbfbf" points="325.136,-0.5 325.136,-19.5 361.136,-19.5 361.136,-0.5 325.136,-0.5"/>
<text text-anchor="middle" x="343.136" y="-7.5" font-family="FreeSans" font-size="10.00">map</text>
</g>
<!-- Node9&#45;&gt;Node13 -->
<g id="edge28" class="edge"><title>Node9&#45;&gt;Node13</title>
<path fill="none" stroke="midnightblue" d="M343.136,-56.083C343.136,-49.0059 343.136,-38.8611 343.136,-29.9865"/>
<polygon fill="midnightblue" stroke="midnightblue" points="346.636,-29.751 343.136,-19.7511 339.636,-29.7511 346.636,-29.751"/>
</g>
<!-- Node14 -->
<g id="node29" class="node"><title>Node14</title>
<polygon fill="white" stroke="#bfbfbf" points="379.636,-0.5 379.636,-19.5 420.636,-19.5 420.636,-0.5 379.636,-0.5"/>
<text text-anchor="middle" x="400.136" y="-7.5" font-family="FreeSans" font-size="10.00">string</text>
</g>
<!-- Node9&#45;&gt;Node14 -->
<g id="edge30" class="edge"><title>Node9&#45;&gt;Node14</title>
<path fill="none" stroke="midnightblue" d="M352.294,-56.324C360.638,-48.4196 373.168,-36.5482 383.313,-26.9377"/>
<polygon fill="midnightblue" stroke="midnightblue" points="385.959,-29.2522 390.811,-19.8339 381.145,-24.1705 385.959,-29.2522"/>
</g>
</g>
</svg>
