<?xml version="1.0" encoding="UTF-8" standalone="no"?>
<!DOCTYPE svg PUBLIC "-//W3C//DTD SVG 1.1//EN"
 "http://www.w3.org/Graphics/SVG/1.1/DTD/svg11.dtd">
<!-- Generated by graphviz version 2.28.0 (20120425.2022)
 -->
<!-- Title: MixtureFugacityTP.h Pages: 1 -->
<svg width="867pt" height="252pt"
 viewBox="0.00 0.00 867.00 252.00" xmlns="http://www.w3.org/2000/svg" xmlns:xlink="http://www.w3.org/1999/xlink">
<g id="graph1" class="graph" transform="scale(1 1) rotate(0) translate(4 248)">
<title>MixtureFugacityTP.h</title>
<polygon fill="white" stroke="white" points="-4,5 -4,-248 864,-248 864,5 -4,5"/>
<!-- Node1 -->
<g id="node1" class="node"><title>Node1</title>
<polygon fill="#bfbfbf" stroke="black" points="544,-224.5 544,-243.5 652,-243.5 652,-224.5 544,-224.5"/>
<text text-anchor="middle" x="598" y="-231.5" font-family="FreeSans" font-size="10.00">MixtureFugacityTP.h</text>
</g>
<!-- Node2 -->
<g id="node3" class="node"><title>Node2</title>
<a xlink:href="ThermoPhase_8h.html" target="_top" xlink:title="Header file for class ThermoPhase, the base class for phases with thermodynamic properties, and the text for the Module thermoprops (see Thermodynamic Properties and class ThermoPhase).">
<polygon fill="white" stroke="black" points="445.5,-168.5 445.5,-187.5 534.5,-187.5 534.5,-168.5 445.5,-168.5"/>
<text text-anchor="middle" x="490" y="-175.5" font-family="FreeSans" font-size="10.00">ThermoPhase.h</text>
</a>
</g>
<!-- Node1&#45;&gt;Node2 -->
<g id="edge2" class="edge"><title>Node1&#45;&gt;Node2</title>
<path fill="none" stroke="midnightblue" d="M580.648,-224.324C563.328,-215.664 536.485,-202.242 516.498,-192.249"/>
<polygon fill="midnightblue" stroke="midnightblue" points="517.819,-188.996 507.309,-187.655 514.688,-195.257 517.819,-188.996"/>
</g>
<!-- Node9 -->
<g id="node20" class="node"><title>Node9</title>
<a xlink:href="VPSSMgr_8h.html" target="_top" xlink:title="Declaration file for a virtual base class that manages the calculation of standard state properties f...">
<polygon fill="white" stroke="black" points="564,-168.5 564,-187.5 632,-187.5 632,-168.5 564,-168.5"/>
<text text-anchor="middle" x="598" y="-175.5" font-family="FreeSans" font-size="10.00">VPSSMgr.h</text>
</a>
</g>
<!-- Node1&#45;&gt;Node9 -->
<g id="edge22" class="edge"><title>Node1&#45;&gt;Node9</title>
<path fill="none" stroke="midnightblue" d="M598,-224.083C598,-217.006 598,-206.861 598,-197.986"/>
<polygon fill="midnightblue" stroke="midnightblue" points="601.5,-197.751 598,-187.751 594.5,-197.751 601.5,-197.751"/>
</g>
<!-- Node11 -->
<g id="node25" class="node"><title>Node11</title>
<a xlink:href="ResidEval_8h.html" target="_top" xlink:title="cantera/numerics/ResidEval.h">
<polygon fill="white" stroke="black" points="671.5,-168.5 671.5,-187.5 820.5,-187.5 820.5,-168.5 671.5,-168.5"/>
<text text-anchor="middle" x="746" y="-175.5" font-family="FreeSans" font-size="10.00">cantera/numerics/ResidEval.h</text>
</a>
</g>
<!-- Node1&#45;&gt;Node11 -->
<g id="edge28" class="edge"><title>Node1&#45;&gt;Node11</title>
<path fill="none" stroke="midnightblue" d="M621.451,-224.444C646.133,-215.438 685.185,-201.189 712.977,-191.049"/>
<polygon fill="midnightblue" stroke="midnightblue" points="714.464,-194.232 722.659,-187.516 712.065,-187.656 714.464,-194.232"/>
</g>
<!-- Node3 -->
<g id="node5" class="node"><title>Node3</title>
<a xlink:href="Phase_8h.html" target="_top" xlink:title="Header file for class Phase.">
<polygon fill="white" stroke="black" points="259.5,-112.5 259.5,-131.5 312.5,-131.5 312.5,-112.5 259.5,-112.5"/>
<text text-anchor="middle" x="286" y="-119.5" font-family="FreeSans" font-size="10.00">Phase.h</text>
</a>
</g>
<!-- Node2&#45;&gt;Node3 -->
<g id="edge4" class="edge"><title>Node2&#45;&gt;Node3</title>
<path fill="none" stroke="midnightblue" d="M457.676,-168.444C420.857,-158.698 360.838,-142.81 322.402,-132.636"/>
<polygon fill="midnightblue" stroke="midnightblue" points="323.21,-129.229 312.647,-130.054 321.419,-135.996 323.21,-129.229"/>
</g>
<!-- Node8 -->
<g id="node17" class="node"><title>Node8</title>
<a xlink:href="SpeciesThermo_8h.html" target="_top" xlink:title="Virtual base class for the calculation of multiple&#45;species thermodynamic reference&#45;state property man...">
<polygon fill="white" stroke="black" points="441.5,-56.5 441.5,-75.5 538.5,-75.5 538.5,-56.5 441.5,-56.5"/>
<text text-anchor="middle" x="490" y="-63.5" font-family="FreeSans" font-size="10.00">SpeciesThermo.h</text>
</a>
</g>
<!-- Node2&#45;&gt;Node8 -->
<g id="edge18" class="edge"><title>Node2&#45;&gt;Node8</title>
<path fill="none" stroke="midnightblue" d="M490,-168.368C490,-150.617 490,-109.666 490,-85.5974"/>
<polygon fill="midnightblue" stroke="midnightblue" points="493.5,-85.5914 490,-75.5914 486.5,-85.5915 493.5,-85.5914"/>
</g>
<!-- Node4 -->
<g id="node7" class="node"><title>Node4</title>
<a xlink:href="vec__functions_8h.html" target="_top" xlink:title="Templates for operations on vector&#45;like objects.">
<polygon fill="white" stroke="red" points="-0.5,-56.5 -0.5,-75.5 146.5,-75.5 146.5,-56.5 -0.5,-56.5"/>
<text text-anchor="middle" x="73" y="-63.5" font-family="FreeSans" font-size="10.00">cantera/base/vec_functions.h</text>
</a>
</g>
<!-- Node3&#45;&gt;Node4 -->
<g id="edge6" class="edge"><title>Node3&#45;&gt;Node4</title>
<path fill="none" stroke="midnightblue" d="M259.454,-114.27C223.629,-105.188 159.357,-88.8934 116.44,-78.0129"/>
<polygon fill="midnightblue" stroke="midnightblue" points="117.108,-74.5718 106.555,-75.5069 115.388,-81.3571 117.108,-74.5718"/>
</g>
<!-- Node6 -->
<g id="node11" class="node"><title>Node6</title>
<a xlink:href="ctml_8h.html" target="_top" xlink:title="CTML (&quot;Cantera Markup Language&quot;) is the variant of XML that Cantera uses to store data...">
<polygon fill="white" stroke="red" points="165,-56.5 165,-75.5 269,-75.5 269,-56.5 165,-56.5"/>
<text text-anchor="middle" x="217" y="-63.5" font-family="FreeSans" font-size="10.00">cantera/base/ctml.h</text>
</a>
</g>
<!-- Node3&#45;&gt;Node6 -->
<g id="edge10" class="edge"><title>Node3&#45;&gt;Node6</title>
<path fill="none" stroke="midnightblue" d="M274.914,-112.324C264.514,-104.185 248.739,-91.8395 236.278,-82.0874"/>
<polygon fill="midnightblue" stroke="midnightblue" points="238.32,-79.2407 228.288,-75.8339 234.006,-84.7533 238.32,-79.2407"/>
</g>
<!-- Node7 -->
<g id="node14" class="node"><title>Node7</title>
<a xlink:href="Elements_8h.html" target="_top" xlink:title="Contains the LookupWtElements function and the definitions of element constraint types.">
<polygon fill="white" stroke="black" points="287,-56.5 287,-75.5 423,-75.5 423,-56.5 287,-56.5"/>
<text text-anchor="middle" x="355" y="-63.5" font-family="FreeSans" font-size="10.00">cantera/thermo/Elements.h</text>
</a>
</g>
<!-- Node3&#45;&gt;Node7 -->
<g id="edge14" class="edge"><title>Node3&#45;&gt;Node7</title>
<path fill="none" stroke="midnightblue" d="M297.086,-112.324C307.486,-104.185 323.261,-91.8395 335.722,-82.0874"/>
<polygon fill="midnightblue" stroke="midnightblue" points="337.994,-84.7533 343.712,-75.8339 333.68,-79.2407 337.994,-84.7533"/>
</g>
<!-- Node5 -->
<g id="node9" class="node"><title>Node5</title>
<a xlink:href="ct__defs_8h.html" target="_top" xlink:title="This file contains definitions of terms that are used in internal routines and are unlikely to need m...">
<polygon fill="white" stroke="red" points="394,-0.5 394,-19.5 450,-19.5 450,-0.5 394,-0.5"/>
<text text-anchor="middle" x="422" y="-7.5" font-family="FreeSans" font-size="10.00">ct_defs.h</text>
</a>
</g>
<!-- Node4&#45;&gt;Node5 -->
<g id="edge8" class="edge"><title>Node4&#45;&gt;Node5</title>
<path fill="none" stroke="midnightblue" d="M128.3,-56.4435C199.524,-45.4233 321.497,-26.5507 383.45,-16.9647"/>
<polygon fill="midnightblue" stroke="midnightblue" points="384.231,-20.3856 393.579,-15.3976 383.161,-13.4679 384.231,-20.3856"/>
</g>
<!-- Node6&#45;&gt;Node5 -->
<g id="edge12" class="edge"><title>Node6&#45;&gt;Node5</title>
<path fill="none" stroke="midnightblue" d="M249.483,-56.4435C286.067,-46.8067 345.446,-31.1653 384.113,-20.98"/>
<polygon fill="midnightblue" stroke="midnightblue" points="385.173,-24.3203 393.951,-18.3884 383.39,-17.5512 385.173,-24.3203"/>
</g>
<!-- Node7&#45;&gt;Node5 -->
<g id="edge16" class="edge"><title>Node7&#45;&gt;Node5</title>
<path fill="none" stroke="midnightblue" d="M365.765,-56.324C375.766,-48.2631 390.887,-36.0765 402.93,-26.3695"/>
<polygon fill="midnightblue" stroke="midnightblue" points="405.45,-28.8343 411.039,-19.8339 401.057,-23.3841 405.45,-28.8343"/>
</g>
<!-- Node8&#45;&gt;Node5 -->
<g id="edge20" class="edge"><title>Node8&#45;&gt;Node5</title>
<path fill="none" stroke="midnightblue" d="M479.075,-56.324C468.825,-48.1849 453.279,-35.8395 440.999,-26.0874"/>
<polygon fill="midnightblue" stroke="midnightblue" points="443.132,-23.3119 433.124,-19.8339 438.779,-28.7937 443.132,-23.3119"/>
</g>
<!-- Node9&#45;&gt;Node5 -->
<g id="edge24" class="edge"><title>Node9&#45;&gt;Node5</title>
<path fill="none" stroke="midnightblue" d="M595.334,-168.279C587.561,-143.341 564.371,-72.4683 547,-56 523.252,-33.4864 487.435,-22.1057 460.219,-16.433"/>
<polygon fill="midnightblue" stroke="midnightblue" points="460.732,-12.9677 450.252,-14.527 459.417,-19.8431 460.732,-12.9677"/>
</g>
<!-- Node10 -->
<g id="node23" class="node"><title>Node10</title>
<a xlink:href="mix__defs_8h_source.html" target="_top" xlink:title="mix_defs.h">
<polygon fill="white" stroke="black" points="595.5,-112.5 595.5,-131.5 660.5,-131.5 660.5,-112.5 595.5,-112.5"/>
<text text-anchor="middle" x="628" y="-119.5" font-family="FreeSans" font-size="10.00">mix_defs.h</text>
</a>
</g>
<!-- Node9&#45;&gt;Node10 -->
<g id="edge26" class="edge"><title>Node9&#45;&gt;Node10</title>
<path fill="none" stroke="midnightblue" d="M602.954,-168.083C607.104,-160.613 613.153,-149.724 618.267,-140.52"/>
<polygon fill="midnightblue" stroke="midnightblue" points="621.341,-142.192 623.138,-131.751 615.222,-138.793 621.341,-142.192"/>
</g>
<!-- Node11&#45;&gt;Node5 -->
<g id="edge30" class="edge"><title>Node11&#45;&gt;Node5</title>
<path fill="none" stroke="midnightblue" d="M736.989,-168.377C723.072,-155.302 695.212,-130.074 669,-112 626.745,-82.8631 615.223,-76.1114 568,-56 532.418,-40.8464 490.006,-28.3565 460.086,-20.4119"/>
<polygon fill="midnightblue" stroke="midnightblue" points="460.616,-16.933 450.056,-17.7945 458.849,-23.7062 460.616,-16.933"/>
</g>
<!-- Node12 -->
<g id="node28" class="node"><title>Node12</title>
<a xlink:href="ctexceptions_8h.html" target="_top" xlink:title="Definitions for the classes that are thrown when Cantera experiences an error condition (also contain...">
<polygon fill="white" stroke="red" points="717,-112.5 717,-131.5 797,-131.5 797,-112.5 717,-112.5"/>
<text text-anchor="middle" x="757" y="-119.5" font-family="FreeSans" font-size="10.00">ctexceptions.h</text>
</a>
</g>
<!-- Node11&#45;&gt;Node12 -->
<g id="edge32" class="edge"><title>Node11&#45;&gt;Node12</title>
<path fill="none" stroke="midnightblue" d="M747.816,-168.083C749.274,-160.927 751.371,-150.635 753.193,-141.691"/>
<polygon fill="midnightblue" stroke="midnightblue" points="756.651,-142.248 755.217,-131.751 749.792,-140.851 756.651,-142.248"/>
</g>
<!-- Node13 -->
<g id="node30" class="node"><title>Node13</title>
<polygon fill="white" stroke="#bfbfbf" points="815,-112.5 815,-131.5 859,-131.5 859,-112.5 815,-112.5"/>
<text text-anchor="middle" x="837" y="-119.5" font-family="FreeSans" font-size="10.00">cstdio</text>
</g>
<!-- Node11&#45;&gt;Node13 -->
<g id="edge34" class="edge"><title>Node11&#45;&gt;Node13</title>
<path fill="none" stroke="midnightblue" d="M760.621,-168.324C774.949,-159.822 797.013,-146.729 813.749,-136.797"/>
<polygon fill="midnightblue" stroke="midnightblue" points="815.602,-139.768 822.416,-131.655 812.03,-133.748 815.602,-139.768"/>
</g>
</g>
</svg>
