<?xml version="1.0" encoding="UTF-8" standalone="no"?>
<!DOCTYPE svg PUBLIC "-//W3C//DTD SVG 1.1//EN"
 "http://www.w3.org/Graphics/SVG/1.1/DTD/svg11.dtd">
<!-- Generated by graphviz version 2.28.0 (20120425.2022)
 -->
<!-- Title: PDSS_Water.h Pages: 1 -->
<svg width="433pt" height="308pt"
 viewBox="0.00 0.00 433.00 308.00" xmlns="http://www.w3.org/2000/svg" xmlns:xlink="http://www.w3.org/1999/xlink">
<g id="graph1" class="graph" transform="scale(1 1) rotate(0) translate(4 304)">
<title>PDSS_Water.h</title>
<polygon fill="white" stroke="white" points="-4,5 -4,-304 430,-304 430,5 -4,5"/>
<!-- Node1 -->
<g id="node1" class="node"><title>Node1</title>
<polygon fill="#bfbfbf" stroke="black" points="262.5,-280.5 262.5,-299.5 345.5,-299.5 345.5,-280.5 262.5,-280.5"/>
<text text-anchor="middle" x="304" y="-287.5" font-family="FreeSans" font-size="10.00">PDSS_Water.h</text>
</g>
<!-- Node2 -->
<g id="node3" class="node"><title>Node2</title>
<a xlink:href="ct__defs_8h.html" target="_top" xlink:title="This file contains definitions of terms that are used in internal routines and are unlikely to need m...">
<polygon fill="white" stroke="black" points="197.5,-56.5 197.5,-75.5 316.5,-75.5 316.5,-56.5 197.5,-56.5"/>
<text text-anchor="middle" x="257" y="-63.5" font-family="FreeSans" font-size="10.00">cantera/base/ct_defs.h</text>
</a>
</g>
<!-- Node1&#45;&gt;Node2 -->
<g id="edge2" class="edge"><title>Node1&#45;&gt;Node2</title>
<path fill="none" stroke="midnightblue" d="M309.21,-280.305C320.404,-260.572 345.103,-210.788 337,-168 332.024,-141.726 331.026,-133.406 315,-112 305.748,-99.6424 292.267,-88.9047 280.63,-81.0204"/>
<polygon fill="midnightblue" stroke="midnightblue" points="282.49,-78.0551 272.191,-75.5679 278.691,-83.9346 282.49,-78.0551"/>
</g>
<!-- Node9 -->
<g id="node17" class="node"><title>Node9</title>
<a xlink:href="PDSS_8h.html" target="_top" xlink:title="Declarations for the virtual base class PDSS (pressure dependent standard state) which handles calcul...">
<polygon fill="white" stroke="black" points="276,-168.5 276,-187.5 328,-187.5 328,-168.5 276,-168.5"/>
<text text-anchor="middle" x="302" y="-175.5" font-family="FreeSans" font-size="10.00">PDSS.h</text>
</a>
</g>
<!-- Node1&#45;&gt;Node9 -->
<g id="edge16" class="edge"><title>Node1&#45;&gt;Node9</title>
<path fill="none" stroke="midnightblue" d="M303.843,-280.368C303.52,-262.617 302.776,-221.666 302.338,-197.597"/>
<polygon fill="midnightblue" stroke="midnightblue" points="305.838,-197.526 302.156,-187.591 298.839,-197.653 305.838,-197.526"/>
</g>
<!-- Node11 -->
<g id="node22" class="node"><title>Node11</title>
<a xlink:href="VPStandardStateTP_8h.html" target="_top" xlink:title="Header file for a derived class of ThermoPhase that handles variable pressure standard state methods ...">
<polygon fill="white" stroke="black" points="160,-224.5 160,-243.5 276,-243.5 276,-224.5 160,-224.5"/>
<text text-anchor="middle" x="218" y="-231.5" font-family="FreeSans" font-size="10.00">VPStandardStateTP.h</text>
</a>
</g>
<!-- Node1&#45;&gt;Node11 -->
<g id="edge22" class="edge"><title>Node1&#45;&gt;Node11</title>
<path fill="none" stroke="midnightblue" d="M290.183,-280.324C276.767,-271.9 256.176,-258.971 240.414,-249.074"/>
<polygon fill="midnightblue" stroke="midnightblue" points="242.113,-246.008 231.783,-243.655 238.391,-251.936 242.113,-246.008"/>
</g>
<!-- Node3 -->
<g id="node5" class="node"><title>Node3</title>
<a xlink:href="config_8h_source.html" target="_top" xlink:title="config.h">
<polygon fill="white" stroke="black" points="71.5,-0.5 71.5,-19.5 122.5,-19.5 122.5,-0.5 71.5,-0.5"/>
<text text-anchor="middle" x="97" y="-7.5" font-family="FreeSans" font-size="10.00">config.h</text>
</a>
</g>
<!-- Node2&#45;&gt;Node3 -->
<g id="edge4" class="edge"><title>Node2&#45;&gt;Node3</title>
<path fill="none" stroke="midnightblue" d="M231.648,-56.4435C204.731,-47.3591 162.004,-32.9388 131.913,-22.7831"/>
<polygon fill="midnightblue" stroke="midnightblue" points="132.828,-19.3981 122.234,-19.5164 130.59,-26.0305 132.828,-19.3981"/>
</g>
<!-- Node4 -->
<g id="node7" class="node"><title>Node4</title>
<polygon fill="white" stroke="#bfbfbf" points="141,-0.5 141,-19.5 185,-19.5 185,-0.5 141,-0.5"/>
<text text-anchor="middle" x="163" y="-7.5" font-family="FreeSans" font-size="10.00">cmath</text>
</g>
<!-- Node2&#45;&gt;Node4 -->
<g id="edge6" class="edge"><title>Node2&#45;&gt;Node4</title>
<path fill="none" stroke="midnightblue" d="M241.897,-56.324C227.097,-47.8215 204.306,-34.7288 187.018,-24.7975"/>
<polygon fill="midnightblue" stroke="midnightblue" points="188.48,-21.6009 178.065,-19.6545 184.993,-27.6707 188.48,-21.6009"/>
</g>
<!-- Node5 -->
<g id="node9" class="node"><title>Node5</title>
<polygon fill="white" stroke="#bfbfbf" points="203.5,-0.5 203.5,-19.5 248.5,-19.5 248.5,-0.5 203.5,-0.5"/>
<text text-anchor="middle" x="226" y="-7.5" font-family="FreeSans" font-size="10.00">cstdlib</text>
</g>
<!-- Node2&#45;&gt;Node5 -->
<g id="edge8" class="edge"><title>Node2&#45;&gt;Node5</title>
<path fill="none" stroke="midnightblue" d="M251.881,-56.083C247.592,-48.6127 241.342,-37.7244 236.058,-28.5199"/>
<polygon fill="midnightblue" stroke="midnightblue" points="239.038,-26.6811 231.024,-19.7511 232.967,-30.1662 239.038,-26.6811"/>
</g>
<!-- Node6 -->
<g id="node11" class="node"><title>Node6</title>
<polygon fill="white" stroke="#bfbfbf" points="267,-0.5 267,-19.5 311,-19.5 311,-0.5 267,-0.5"/>
<text text-anchor="middle" x="289" y="-7.5" font-family="FreeSans" font-size="10.00">vector</text>
</g>
<!-- Node2&#45;&gt;Node6 -->
<g id="edge10" class="edge"><title>Node2&#45;&gt;Node6</title>
<path fill="none" stroke="midnightblue" d="M262.284,-56.083C266.711,-48.6127 273.163,-37.7244 278.618,-28.5199"/>
<polygon fill="midnightblue" stroke="midnightblue" points="281.727,-30.1383 283.814,-19.7511 275.705,-26.5697 281.727,-30.1383"/>
</g>
<!-- Node7 -->
<g id="node13" class="node"><title>Node7</title>
<polygon fill="white" stroke="#bfbfbf" points="329,-0.5 329,-19.5 365,-19.5 365,-0.5 329,-0.5"/>
<text text-anchor="middle" x="347" y="-7.5" font-family="FreeSans" font-size="10.00">map</text>
</g>
<!-- Node2&#45;&gt;Node7 -->
<g id="edge12" class="edge"><title>Node2&#45;&gt;Node7</title>
<path fill="none" stroke="midnightblue" d="M271.46,-56.324C285.5,-47.9002 307.048,-34.9709 323.543,-25.0741"/>
<polygon fill="midnightblue" stroke="midnightblue" points="325.802,-27.8007 332.576,-19.6545 322.2,-21.7983 325.802,-27.8007"/>
</g>
<!-- Node8 -->
<g id="node15" class="node"><title>Node8</title>
<polygon fill="white" stroke="#bfbfbf" points="383.5,-0.5 383.5,-19.5 424.5,-19.5 424.5,-0.5 383.5,-0.5"/>
<text text-anchor="middle" x="404" y="-7.5" font-family="FreeSans" font-size="10.00">string</text>
</g>
<!-- Node2&#45;&gt;Node8 -->
<g id="edge14" class="edge"><title>Node2&#45;&gt;Node8</title>
<path fill="none" stroke="midnightblue" d="M280.293,-56.4435C305.528,-47.1732 345.89,-32.3464 373.606,-22.1652"/>
<polygon fill="midnightblue" stroke="midnightblue" points="375.013,-25.3769 383.193,-18.6433 372.6,-18.8062 375.013,-25.3769"/>
</g>
<!-- Node9&#45;&gt;Node2 -->
<g id="edge18" class="edge"><title>Node9&#45;&gt;Node2</title>
<path fill="none" stroke="midnightblue" d="M303.248,-168.171C304.685,-155.264 305.929,-130.743 298,-112 293.195,-100.64 284.25,-90.2859 275.939,-82.381"/>
<polygon fill="midnightblue" stroke="midnightblue" points="278.117,-79.6339 268.32,-75.5997 273.463,-84.8627 278.117,-79.6339"/>
</g>
<!-- Node10 -->
<g id="node20" class="node"><title>Node10</title>
<a xlink:href="mix__defs_8h_source.html" target="_top" xlink:title="mix_defs.h">
<polygon fill="white" stroke="black" points="224.5,-112.5 224.5,-131.5 289.5,-131.5 289.5,-112.5 224.5,-112.5"/>
<text text-anchor="middle" x="257" y="-119.5" font-family="FreeSans" font-size="10.00">mix_defs.h</text>
</a>
</g>
<!-- Node9&#45;&gt;Node10 -->
<g id="edge20" class="edge"><title>Node9&#45;&gt;Node10</title>
<path fill="none" stroke="midnightblue" d="M294.569,-168.083C288.147,-160.377 278.694,-149.033 270.878,-139.653"/>
<polygon fill="midnightblue" stroke="midnightblue" points="273.383,-137.193 264.293,-131.751 268.006,-141.674 273.383,-137.193"/>
</g>
<!-- Node12 -->
<g id="node24" class="node"><title>Node12</title>
<a xlink:href="ThermoPhase_8h.html" target="_top" xlink:title="Header file for class ThermoPhase, the base class for phases with thermodynamic properties, and the text for the Module thermoprops (see Thermodynamic Properties and class ThermoPhase).">
<polygon fill="white" stroke="black" points="78.5,-168.5 78.5,-187.5 167.5,-187.5 167.5,-168.5 78.5,-168.5"/>
<text text-anchor="middle" x="123" y="-175.5" font-family="FreeSans" font-size="10.00">ThermoPhase.h</text>
</a>
</g>
<!-- Node11&#45;&gt;Node12 -->
<g id="edge24" class="edge"><title>Node11&#45;&gt;Node12</title>
<path fill="none" stroke="midnightblue" d="M202.737,-224.324C187.779,-215.822 164.745,-202.729 147.273,-192.797"/>
<polygon fill="midnightblue" stroke="midnightblue" points="148.649,-189.553 138.226,-187.655 145.19,-195.639 148.649,-189.553"/>
</g>
<!-- Node15 -->
<g id="node31" class="node"><title>Node15</title>
<a xlink:href="VPSSMgr_8h.html" target="_top" xlink:title="Declaration file for a virtual base class that manages the calculation of standard state properties f...">
<polygon fill="white" stroke="black" points="186,-168.5 186,-187.5 254,-187.5 254,-168.5 186,-168.5"/>
<text text-anchor="middle" x="220" y="-175.5" font-family="FreeSans" font-size="10.00">VPSSMgr.h</text>
</a>
</g>
<!-- Node11&#45;&gt;Node15 -->
<g id="edge32" class="edge"><title>Node11&#45;&gt;Node15</title>
<path fill="none" stroke="midnightblue" d="M218.33,-224.083C218.592,-217.006 218.968,-206.861 219.297,-197.986"/>
<polygon fill="midnightblue" stroke="midnightblue" points="222.803,-197.874 219.676,-187.751 215.808,-197.615 222.803,-197.874"/>
</g>
<!-- Node13 -->
<g id="node26" class="node"><title>Node13</title>
<a xlink:href="Phase_8h.html" target="_top" xlink:title="Header file for class Phase.">
<polygon fill="white" stroke="red" points="114.5,-112.5 114.5,-131.5 167.5,-131.5 167.5,-112.5 114.5,-112.5"/>
<text text-anchor="middle" x="141" y="-119.5" font-family="FreeSans" font-size="10.00">Phase.h</text>
</a>
</g>
<!-- Node12&#45;&gt;Node13 -->
<g id="edge26" class="edge"><title>Node12&#45;&gt;Node13</title>
<path fill="none" stroke="midnightblue" d="M125.972,-168.083C128.384,-160.849 131.864,-150.409 134.868,-141.397"/>
<polygon fill="midnightblue" stroke="midnightblue" points="138.241,-142.345 138.083,-131.751 131.6,-140.131 138.241,-142.345"/>
</g>
<!-- Node14 -->
<g id="node28" class="node"><title>Node14</title>
<a xlink:href="SpeciesThermo_8h.html" target="_top" xlink:title="Virtual base class for the calculation of multiple&#45;species thermodynamic reference&#45;state property man...">
<polygon fill="white" stroke="black" points="-0.5,-112.5 -0.5,-131.5 96.5,-131.5 96.5,-112.5 -0.5,-112.5"/>
<text text-anchor="middle" x="48" y="-119.5" font-family="FreeSans" font-size="10.00">SpeciesThermo.h</text>
</a>
</g>
<!-- Node12&#45;&gt;Node14 -->
<g id="edge28" class="edge"><title>Node12&#45;&gt;Node14</title>
<path fill="none" stroke="midnightblue" d="M110.95,-168.324C99.5369,-160.107 82.169,-147.602 68.5651,-137.807"/>
<polygon fill="midnightblue" stroke="midnightblue" points="70.4297,-134.837 60.2693,-131.834 66.3396,-140.517 70.4297,-134.837"/>
</g>
<!-- Node14&#45;&gt;Node2 -->
<g id="edge30" class="edge"><title>Node14&#45;&gt;Node2</title>
<path fill="none" stroke="midnightblue" d="M81.1167,-112.444C117.118,-103.142 174.77,-88.246 214.186,-78.062"/>
<polygon fill="midnightblue" stroke="midnightblue" points="215.232,-81.4068 224.038,-75.5164 213.481,-74.6294 215.232,-81.4068"/>
</g>
<!-- Node15&#45;&gt;Node2 -->
<g id="edge34" class="edge"><title>Node15&#45;&gt;Node2</title>
<path fill="none" stroke="midnightblue" d="M216.964,-168.227C213.036,-155.389 207.529,-130.953 215,-112 219.514,-100.548 228.469,-90.291 236.955,-82.4724"/>
<polygon fill="midnightblue" stroke="midnightblue" points="239.469,-84.9275 244.786,-75.7638 234.915,-79.6113 239.469,-84.9275"/>
</g>
<!-- Node15&#45;&gt;Node10 -->
<g id="edge36" class="edge"><title>Node15&#45;&gt;Node10</title>
<path fill="none" stroke="midnightblue" d="M226.11,-168.083C231.282,-160.534 238.846,-149.495 245.194,-140.23"/>
<polygon fill="midnightblue" stroke="midnightblue" points="248.239,-141.979 251.004,-131.751 242.464,-138.022 248.239,-141.979"/>
</g>
</g>
</svg>
