<?xml version="1.0" encoding="UTF-8" standalone="no"?>
<!DOCTYPE svg PUBLIC "-//W3C//DTD SVG 1.1//EN"
 "http://www.w3.org/Graphics/SVG/1.1/DTD/svg11.dtd">
<!-- Generated by graphviz version 2.28.0 (20120425.2022)
 -->
<!-- Title: PDSS_ConstVol.h Pages: 1 -->
<svg width="573pt" height="84pt"
 viewBox="0.00 0.00 573.00 84.00" xmlns="http://www.w3.org/2000/svg" xmlns:xlink="http://www.w3.org/1999/xlink">
<g id="graph1" class="graph" transform="scale(1 1) rotate(0) translate(4 80)">
<title>PDSS_ConstVol.h</title>
<polygon fill="white" stroke="white" points="-4,5 -4,-80 570,-80 570,5 -4,5"/>
<!-- Node1 -->
<g id="node1" class="node"><title>Node1</title>
<polygon fill="#bfbfbf" stroke="black" points="210,-56.5 210,-75.5 308,-75.5 308,-56.5 210,-56.5"/>
<text text-anchor="middle" x="259" y="-63.5" font-family="FreeSans" font-size="10.00">PDSS_ConstVol.h</text>
</g>
<!-- Node2 -->
<g id="node3" class="node"><title>Node2</title>
<a xlink:href="PDSS__ConstVol_8cpp.html" target="_top" xlink:title="Implementation of a pressure dependent standard state virtual function.">
<polygon fill="white" stroke="black" points="0,-0.5 0,-19.5 108,-19.5 108,-0.5 0,-0.5"/>
<text text-anchor="middle" x="54" y="-7.5" font-family="FreeSans" font-size="10.00">PDSS_ConstVol.cpp</text>
</a>
</g>
<!-- Node1&#45;&gt;Node2 -->
<g id="edge2" class="edge"><title>Node1&#45;&gt;Node2</title>
<path fill="none" stroke="midnightblue" d="M216.592,-53.8291C177.886,-43.6333 121.507,-28.7823 86.3309,-19.5164"/>
<polygon fill="midnightblue" stroke="midnightblue" points="215.955,-57.2808 226.517,-56.4435 217.739,-50.5117 215.955,-57.2808"/>
</g>
<!-- Node3 -->
<g id="node5" class="node"><title>Node3</title>
<a xlink:href="VPSSMgr__ConstVol_8cpp.html" target="_top" xlink:title="Definition file for a derived class that handles the calculation of standard state thermo properties ...">
<polygon fill="white" stroke="black" points="126.5,-0.5 126.5,-19.5 251.5,-19.5 251.5,-0.5 126.5,-0.5"/>
<text text-anchor="middle" x="189" y="-7.5" font-family="FreeSans" font-size="10.00">VPSSMgr_ConstVol.cpp</text>
</a>
</g>
<!-- Node1&#45;&gt;Node3 -->
<g id="edge4" class="edge"><title>Node1&#45;&gt;Node3</title>
<path fill="none" stroke="midnightblue" d="M239.686,-50.1008C227.088,-40.3824 211.072,-28.0269 200.451,-19.8339"/>
<polygon fill="midnightblue" stroke="midnightblue" points="237.698,-52.9871 247.753,-56.324 241.973,-47.4446 237.698,-52.9871"/>
</g>
<!-- Node4 -->
<g id="node7" class="node"><title>Node4</title>
<a xlink:href="VPSSMgr__General_8cpp.html" target="_top" xlink:title="Definition file for a derived class that handles the calculation of standard state thermo properties ...">
<polygon fill="white" stroke="black" points="269.5,-0.5 269.5,-19.5 390.5,-19.5 390.5,-0.5 269.5,-0.5"/>
<text text-anchor="middle" x="330" y="-7.5" font-family="FreeSans" font-size="10.00">VPSSMgr_General.cpp</text>
</a>
</g>
<!-- Node1&#45;&gt;Node4 -->
<g id="edge6" class="edge"><title>Node1&#45;&gt;Node4</title>
<path fill="none" stroke="midnightblue" d="M278.59,-50.1008C291.368,-40.3824 307.613,-28.0269 318.385,-19.8339"/>
<polygon fill="midnightblue" stroke="midnightblue" points="276.248,-47.4844 270.407,-56.324 280.486,-53.0561 276.248,-47.4844"/>
</g>
<!-- Node5 -->
<g id="node9" class="node"><title>Node5</title>
<a xlink:href="VPSSMgr__Water__ConstVol_8cpp.html" target="_top" xlink:title="Definition file for a derived class that handles the calculation of standard state thermo properties ...">
<polygon fill="white" stroke="black" points="409,-0.5 409,-19.5 565,-19.5 565,-0.5 409,-0.5"/>
<text text-anchor="middle" x="487" y="-7.5" font-family="FreeSans" font-size="10.00">VPSSMgr_Water_ConstVol.cpp</text>
</a>
</g>
<!-- Node1&#45;&gt;Node5 -->
<g id="edge8" class="edge"><title>Node1&#45;&gt;Node5</title>
<path fill="none" stroke="midnightblue" d="M305.071,-54.0884C348.146,-43.8865 411.586,-28.8612 451.042,-19.5164"/>
<polygon fill="midnightblue" stroke="midnightblue" points="304.051,-50.733 295.127,-56.4435 305.665,-57.5446 304.051,-50.733"/>
</g>
</g>
</svg>
