<?xml version="1.0" encoding="UTF-8" standalone="no"?>
<!DOCTYPE svg PUBLIC "-//W3C//DTD SVG 1.1//EN"
 "http://www.w3.org/Graphics/SVG/1.1/DTD/svg11.dtd">
<!-- Generated by graphviz version 2.28.0 (20120425.2022)
 -->
<!-- Title: PrintCtrl.h Pages: 1 -->
<svg width="176pt" height="140pt"
 viewBox="0.00 0.00 176.00 140.00" xmlns="http://www.w3.org/2000/svg" xmlns:xlink="http://www.w3.org/1999/xlink">
<g id="graph1" class="graph" transform="scale(1 1) rotate(0) translate(4 136)">
<title>PrintCtrl.h</title>
<polygon fill="white" stroke="white" points="-4,5 -4,-136 173,-136 173,5 -4,5"/>
<!-- Node1 -->
<g id="node1" class="node"><title>Node1</title>
<polygon fill="#bfbfbf" stroke="black" points="58.5,-112.5 58.5,-131.5 117.5,-131.5 117.5,-112.5 58.5,-112.5"/>
<text text-anchor="middle" x="88" y="-119.5" font-family="FreeSans" font-size="10.00">PrintCtrl.h</text>
</g>
<!-- Node2 -->
<g id="node3" class="node"><title>Node2</title>
<a xlink:href="LogPrintCtrl_8h.html" target="_top" xlink:title="Declarations for a simple class that augments the logfile printing capabilities (see Cantera::LogPrin...">
<polygon fill="white" stroke="black" points="5,-56.5 5,-75.5 81,-75.5 81,-56.5 5,-56.5"/>
<text text-anchor="middle" x="43" y="-63.5" font-family="FreeSans" font-size="10.00">LogPrintCtrl.h</text>
</a>
</g>
<!-- Node1&#45;&gt;Node2 -->
<g id="edge2" class="edge"><title>Node1&#45;&gt;Node2</title>
<path fill="none" stroke="midnightblue" d="M73.9533,-104.144C66.1131,-94.7357 56.6705,-83.4046 50.2926,-75.7511"/>
<polygon fill="midnightblue" stroke="midnightblue" points="71.4785,-106.641 80.5692,-112.083 76.8561,-102.16 71.4785,-106.641"/>
</g>
<!-- Node4 -->
<g id="node7" class="node"><title>Node4</title>
<a xlink:href="PrintCtrl_8cpp.html" target="_top" xlink:title="Definitions for a simple class that augments the streams printing capabilities (see Cantera::PrintCtr...">
<polygon fill="white" stroke="black" points="99.5,-56.5 99.5,-75.5 168.5,-75.5 168.5,-56.5 99.5,-56.5"/>
<text text-anchor="middle" x="134" y="-63.5" font-family="FreeSans" font-size="10.00">PrintCtrl.cpp</text>
</a>
</g>
<!-- Node1&#45;&gt;Node4 -->
<g id="edge6" class="edge"><title>Node1&#45;&gt;Node4</title>
<path fill="none" stroke="midnightblue" d="M102.114,-104.431C110.176,-94.9673 119.959,-83.4827 126.545,-75.7511"/>
<polygon fill="midnightblue" stroke="midnightblue" points="99.4163,-102.201 95.596,-112.083 104.745,-106.74 99.4163,-102.201"/>
</g>
<!-- Node3 -->
<g id="node5" class="node"><title>Node3</title>
<a xlink:href="LogPrintCtrl_8cpp.html" target="_top" xlink:title="Declarations for a simple class that augments the logfile printing capabilities (see Cantera::LogPrin...">
<polygon fill="white" stroke="black" points="0,-0.5 0,-19.5 86,-19.5 86,-0.5 0,-0.5"/>
<text text-anchor="middle" x="43" y="-7.5" font-family="FreeSans" font-size="10.00">LogPrintCtrl.cpp</text>
</a>
</g>
<!-- Node2&#45;&gt;Node3 -->
<g id="edge4" class="edge"><title>Node2&#45;&gt;Node3</title>
<path fill="none" stroke="midnightblue" d="M43,-45.8045C43,-36.9102 43,-26.7798 43,-19.7511"/>
<polygon fill="midnightblue" stroke="midnightblue" points="39.5001,-46.083 43,-56.083 46.5001,-46.083 39.5001,-46.083"/>
</g>
</g>
</svg>
