<?xml version="1.0" encoding="UTF-8" standalone="no"?>
<!DOCTYPE svg PUBLIC "-//W3C//DTD SVG 1.1//EN"
 "http://www.w3.org/Graphics/SVG/1.1/DTD/svg11.dtd">
<!-- Generated by graphviz version 2.28.0 (20120425.2022)
 -->
<!-- Title: ResidEval.h Pages: 1 -->
<svg width="947pt" height="252pt"
 viewBox="0.00 0.00 947.00 252.00" xmlns="http://www.w3.org/2000/svg" xmlns:xlink="http://www.w3.org/1999/xlink">
<g id="graph1" class="graph" transform="scale(1 1) rotate(0) translate(4 248)">
<title>ResidEval.h</title>
<polygon fill="white" stroke="white" points="-4,5 -4,-248 944,-248 944,5 -4,5"/>
<!-- Node1 -->
<g id="node1" class="node"><title>Node1</title>
<polygon fill="#bfbfbf" stroke="black" points="534.5,-224.5 534.5,-243.5 603.5,-243.5 603.5,-224.5 534.5,-224.5"/>
<text text-anchor="middle" x="569" y="-231.5" font-family="FreeSans" font-size="10.00">ResidEval.h</text>
</g>
<!-- Node2 -->
<g id="node3" class="node"><title>Node2</title>
<a xlink:href="ResidJacEval_8h.html" target="_top" xlink:title="Dense, Square (not sparse) matrices.">
<polygon fill="white" stroke="black" points="193,-168.5 193,-187.5 279,-187.5 279,-168.5 193,-168.5"/>
<text text-anchor="middle" x="236" y="-175.5" font-family="FreeSans" font-size="10.00">ResidJacEval.h</text>
</a>
</g>
<!-- Node1&#45;&gt;Node2 -->
<g id="edge2" class="edge"><title>Node1&#45;&gt;Node2</title>
<path fill="none" stroke="midnightblue" d="M524.09,-225.717C459.857,-215.301 342.54,-196.277 279.241,-186.012"/>
<polygon fill="midnightblue" stroke="midnightblue" points="523.874,-229.228 534.306,-227.374 524.995,-222.318 523.874,-229.228"/>
</g>
<!-- Node13 -->
<g id="node28" class="node"><title>Node13</title>
<a xlink:href="RootFind_8h.html" target="_top" xlink:title=" &#160;Header file for implicit nonlinear solver of a one dimensional function &#160;(see Numerical Utilities w...">
<polygon fill="white" stroke="black" points="449.5,-168.5 449.5,-187.5 514.5,-187.5 514.5,-168.5 449.5,-168.5"/>
<text text-anchor="middle" x="482" y="-175.5" font-family="FreeSans" font-size="10.00">RootFind.h</text>
</a>
</g>
<!-- Node1&#45;&gt;Node13 -->
<g id="edge30" class="edge"><title>Node1&#45;&gt;Node13</title>
<path fill="none" stroke="midnightblue" d="M546.284,-218.901C530.331,-208.999 509.503,-196.071 495.943,-187.655"/>
<polygon fill="midnightblue" stroke="midnightblue" points="544.68,-222.024 555.022,-224.324 548.371,-216.077 544.68,-222.024"/>
</g>
<!-- Node16 -->
<g id="node34" class="node"><title>Node16</title>
<a xlink:href="solveProb_8h.html" target="_top" xlink:title=" &#160;Header file for implicit nonlinear solver with the option of a pseudotransient &#160;(see Numerical Util...">
<polygon fill="white" stroke="black" points="534,-168.5 534,-187.5 604,-187.5 604,-168.5 534,-168.5"/>
<text text-anchor="middle" x="569" y="-175.5" font-family="FreeSans" font-size="10.00">solveProb.h</text>
</a>
</g>
<!-- Node1&#45;&gt;Node16 -->
<g id="edge36" class="edge"><title>Node1&#45;&gt;Node16</title>
<path fill="none" stroke="midnightblue" d="M569,-213.805C569,-204.91 569,-194.78 569,-187.751"/>
<polygon fill="midnightblue" stroke="midnightblue" points="565.5,-214.083 569,-224.083 572.5,-214.083 565.5,-214.083"/>
</g>
<!-- Node18 -->
<g id="node38" class="node"><title>Node18</title>
<a xlink:href="solvers_8h.html" target="_top" xlink:title="solvers of small embedded problems">
<polygon fill="white" stroke="black" points="608.5,-112.5 608.5,-131.5 665.5,-131.5 665.5,-112.5 608.5,-112.5"/>
<text text-anchor="middle" x="637" y="-119.5" font-family="FreeSans" font-size="10.00">solvers.h</text>
</a>
</g>
<!-- Node1&#45;&gt;Node18 -->
<g id="edge42" class="edge"><title>Node1&#45;&gt;Node18</title>
<path fill="none" stroke="midnightblue" d="M587.249,-217.662C595.98,-209.563 606.024,-199.03 613,-188 624.702,-169.497 631.896,-144.45 635.077,-131.515"/>
<polygon fill="midnightblue" stroke="midnightblue" points="584.867,-215.096 579.726,-224.36 589.522,-220.324 584.867,-215.096"/>
</g>
<!-- Node19 -->
<g id="node41" class="node"><title>Node19</title>
<a xlink:href="MixtureFugacityTP_8h.html" target="_top" xlink:title="Header file for a derived class of ThermoPhase that handles non&#45;ideal mixtures based on the fugacity ...">
<polygon fill="white" stroke="black" points="689,-168.5 689,-187.5 797,-187.5 797,-168.5 689,-168.5"/>
<text text-anchor="middle" x="743" y="-175.5" font-family="FreeSans" font-size="10.00">MixtureFugacityTP.h</text>
</a>
</g>
<!-- Node1&#45;&gt;Node19 -->
<g id="edge44" class="edge"><title>Node1&#45;&gt;Node19</title>
<path fill="none" stroke="midnightblue" d="M606.261,-221.436C639.067,-211.255 686.083,-196.664 715.558,-187.516"/>
<polygon fill="midnightblue" stroke="midnightblue" points="605.084,-218.137 596.571,-224.444 607.159,-224.822 605.084,-218.137"/>
</g>
<!-- Node3 -->
<g id="node5" class="node"><title>Node3</title>
<a xlink:href="ResidJacEval_8cpp.html" target="_top" xlink:title="ResidJacEval.cpp">
<polygon fill="white" stroke="black" points="16,-112.5 16,-131.5 112,-131.5 112,-112.5 16,-112.5"/>
<text text-anchor="middle" x="64" y="-119.5" font-family="FreeSans" font-size="10.00">ResidJacEval.cpp</text>
</a>
</g>
<!-- Node2&#45;&gt;Node3 -->
<g id="edge4" class="edge"><title>Node2&#45;&gt;Node3</title>
<path fill="none" stroke="midnightblue" d="M199.168,-165.436C166.738,-155.255 120.263,-140.664 91.1264,-131.516"/>
<polygon fill="midnightblue" stroke="midnightblue" points="198.157,-168.787 208.746,-168.444 200.254,-162.109 198.157,-168.787"/>
</g>
<!-- Node4 -->
<g id="node7" class="node"><title>Node4</title>
<a xlink:href="DAE__Solver_8h.html" target="_top" xlink:title="Header file for class DAE_Solver.">
<polygon fill="white" stroke="black" points="130,-112.5 130,-131.5 208,-131.5 208,-112.5 130,-112.5"/>
<text text-anchor="middle" x="169" y="-119.5" font-family="FreeSans" font-size="10.00">DAE_Solver.h</text>
</a>
</g>
<!-- Node2&#45;&gt;Node4 -->
<g id="edge6" class="edge"><title>Node2&#45;&gt;Node4</title>
<path fill="none" stroke="midnightblue" d="M217.165,-161.82C205.162,-152.145 190.028,-139.948 179.961,-131.834"/>
<polygon fill="midnightblue" stroke="midnightblue" points="215.253,-164.774 225.235,-168.324 219.646,-159.324 215.253,-164.774"/>
</g>
<!-- Node8 -->
<g id="node17" class="node"><title>Node8</title>
<a xlink:href="BEulerInt_8h.html" target="_top" xlink:title="BEulerInt.h">
<polygon fill="white" stroke="black" points="205,-56.5 205,-75.5 267,-75.5 267,-56.5 205,-56.5"/>
<text text-anchor="middle" x="236" y="-63.5" font-family="FreeSans" font-size="10.00">BEulerInt.h</text>
</a>
</g>
<!-- Node2&#45;&gt;Node8 -->
<g id="edge18" class="edge"><title>Node2&#45;&gt;Node8</title>
<path fill="none" stroke="midnightblue" d="M236,-158.348C236,-134.254 236,-93.3079 236,-75.5914"/>
<polygon fill="midnightblue" stroke="midnightblue" points="232.5,-158.368 236,-168.368 239.5,-158.369 232.5,-158.368"/>
</g>
<!-- Node10 -->
<g id="node21" class="node"><title>Node10</title>
<a xlink:href="NonlinearSolver_8h.html" target="_top" xlink:title="Class that calculates the solution to a nonlinear, dense, set of equations (see Numerical Utilities w...">
<polygon fill="white" stroke="black" points="264,-112.5 264,-131.5 360,-131.5 360,-112.5 264,-112.5"/>
<text text-anchor="middle" x="312" y="-119.5" font-family="FreeSans" font-size="10.00">NonlinearSolver.h</text>
</a>
</g>
<!-- Node2&#45;&gt;Node10 -->
<g id="edge22" class="edge"><title>Node2&#45;&gt;Node10</title>
<path fill="none" stroke="midnightblue" d="M256.576,-162.38C270.312,-152.62 287.925,-140.106 299.567,-131.834"/>
<polygon fill="midnightblue" stroke="midnightblue" points="254.335,-159.679 248.211,-168.324 258.39,-165.385 254.335,-159.679"/>
</g>
<!-- Node5 -->
<g id="node9" class="node"><title>Node5</title>
<a xlink:href="DAE__solvers_8cpp.html" target="_top" xlink:title=" Factory routine for picking the DAE solver package ">
<polygon fill="white" stroke="black" points="0,-0.5 0,-19.5 92,-19.5 92,-0.5 0,-0.5"/>
<text text-anchor="middle" x="46" y="-7.5" font-family="FreeSans" font-size="10.00">DAE_solvers.cpp</text>
</a>
</g>
<!-- Node4&#45;&gt;Node5 -->
<g id="edge8" class="edge"><title>Node4&#45;&gt;Node5</title>
<path fill="none" stroke="midnightblue" d="M120.043,-109.6C100.513,-102.796 79.3154,-92.2102 65,-76 50.6804,-59.785 47.1298,-33.3 46.2653,-19.6848"/>
<polygon fill="midnightblue" stroke="midnightblue" points="119.166,-112.994 129.757,-112.733 121.314,-106.332 119.166,-112.994"/>
</g>
<!-- Node6 -->
<g id="node11" class="node"><title>Node6</title>
<a xlink:href="integrators_8h.html" target="_top" xlink:title="ODE integrators.">
<polygon fill="white" stroke="black" points="110.5,-0.5 110.5,-19.5 181.5,-19.5 181.5,-0.5 110.5,-0.5"/>
<text text-anchor="middle" x="146" y="-7.5" font-family="FreeSans" font-size="10.00">integrators.h</text>
</a>
</g>
<!-- Node4&#45;&gt;Node6 -->
<g id="edge10" class="edge"><title>Node4&#45;&gt;Node6</title>
<path fill="none" stroke="midnightblue" d="M165.801,-102.078C163.531,-89.0788 160.311,-71.4475 157,-56 154.269,-43.2605 150.59,-28.6241 148.256,-19.5931"/>
<polygon fill="midnightblue" stroke="midnightblue" points="162.386,-102.874 167.529,-112.137 169.285,-101.689 162.386,-102.874"/>
</g>
<!-- Node7 -->
<g id="node13" class="node"><title>Node7</title>
<a xlink:href="IDA__Solver_8h.html" target="_top" xlink:title="Header file for class IDA_Solver.">
<polygon fill="white" stroke="red" points="74,-56.5 74,-75.5 148,-75.5 148,-56.5 74,-56.5"/>
<text text-anchor="middle" x="111" y="-63.5" font-family="FreeSans" font-size="10.00">IDA_Solver.h</text>
</a>
</g>
<!-- Node4&#45;&gt;Node7 -->
<g id="edge12" class="edge"><title>Node4&#45;&gt;Node7</title>
<path fill="none" stroke="midnightblue" d="M152.087,-105.253C141.797,-95.6731 129.034,-83.7906 120.488,-75.8339"/>
<polygon fill="midnightblue" stroke="midnightblue" points="149.977,-108.071 159.681,-112.324 154.747,-102.948 149.977,-108.071"/>
</g>
<!-- Node7&#45;&gt;Node5 -->
<g id="edge14" class="edge"><title>Node7&#45;&gt;Node5</title>
<path fill="none" stroke="midnightblue" d="M92.7274,-49.8197C81.0822,-40.1452 66.4005,-27.9481 56.6334,-19.8339"/>
<polygon fill="midnightblue" stroke="midnightblue" points="90.6281,-52.6259 100.557,-56.324 95.1013,-47.2416 90.6281,-52.6259"/>
</g>
<!-- Node7&#45;&gt;Node6 -->
<g id="edge16" class="edge"><title>Node7&#45;&gt;Node6</title>
<path fill="none" stroke="midnightblue" d="M122.3,-47.5656C128.322,-38.2747 135.469,-27.2484 140.328,-19.7511"/>
<polygon fill="midnightblue" stroke="midnightblue" points="119.281,-45.7878 116.78,-56.083 125.156,-49.5951 119.281,-45.7878"/>
</g>
<!-- Node9 -->
<g id="node19" class="node"><title>Node9</title>
<a xlink:href="BEulerInt_8cpp.html" target="_top" xlink:title="BEulerInt.cpp">
<polygon fill="white" stroke="black" points="199.5,-0.5 199.5,-19.5 272.5,-19.5 272.5,-0.5 199.5,-0.5"/>
<text text-anchor="middle" x="236" y="-7.5" font-family="FreeSans" font-size="10.00">BEulerInt.cpp</text>
</a>
</g>
<!-- Node8&#45;&gt;Node9 -->
<g id="edge20" class="edge"><title>Node8&#45;&gt;Node9</title>
<path fill="none" stroke="midnightblue" d="M236,-45.8045C236,-36.9102 236,-26.7798 236,-19.7511"/>
<polygon fill="midnightblue" stroke="midnightblue" points="232.5,-46.083 236,-56.083 239.5,-46.083 232.5,-46.083"/>
</g>
<!-- Node10&#45;&gt;Node8 -->
<g id="edge26" class="edge"><title>Node10&#45;&gt;Node8</title>
<path fill="none" stroke="midnightblue" d="M291.424,-106.38C277.688,-96.6204 260.075,-84.1057 248.433,-75.8339"/>
<polygon fill="midnightblue" stroke="midnightblue" points="289.61,-109.385 299.789,-112.324 293.665,-103.679 289.61,-109.385"/>
</g>
<!-- Node11 -->
<g id="node23" class="node"><title>Node11</title>
<a xlink:href="NonlinearSolver_8cpp.html" target="_top" xlink:title="Damped Newton solver for 0D and 1D problems.">
<polygon fill="white" stroke="black" points="284.5,-56.5 284.5,-75.5 391.5,-75.5 391.5,-56.5 284.5,-56.5"/>
<text text-anchor="middle" x="338" y="-63.5" font-family="FreeSans" font-size="10.00">NonlinearSolver.cpp</text>
</a>
</g>
<!-- Node10&#45;&gt;Node11 -->
<g id="edge24" class="edge"><title>Node10&#45;&gt;Node11</title>
<path fill="none" stroke="midnightblue" d="M320.675,-102.983C325.088,-93.8168 330.252,-83.0922 333.787,-75.7511"/>
<polygon fill="midnightblue" stroke="midnightblue" points="317.478,-101.555 316.293,-112.083 323.785,-104.591 317.478,-101.555"/>
</g>
<!-- Node12 -->
<g id="node26" class="node"><title>Node12</title>
<a xlink:href="numerics_8h_source.html" target="_top" xlink:title="numerics.h">
<polygon fill="white" stroke="black" points="409.5,-56.5 409.5,-75.5 474.5,-75.5 474.5,-56.5 409.5,-56.5"/>
<text text-anchor="middle" x="442" y="-63.5" font-family="FreeSans" font-size="10.00">numerics.h</text>
</a>
</g>
<!-- Node10&#45;&gt;Node12 -->
<g id="edge28" class="edge"><title>Node10&#45;&gt;Node12</title>
<path fill="none" stroke="midnightblue" d="M342.085,-108.503C366.457,-98.3795 400.14,-84.388 421.497,-75.5164"/>
<polygon fill="midnightblue" stroke="midnightblue" points="340.491,-105.375 332.599,-112.444 343.177,-111.84 340.491,-105.375"/>
</g>
<!-- Node14 -->
<g id="node30" class="node"><title>Node14</title>
<a xlink:href="RootFind_8cpp_source.html" target="_top" xlink:title="RootFind.cpp">
<polygon fill="white" stroke="black" points="378.5,-112.5 378.5,-131.5 453.5,-131.5 453.5,-112.5 378.5,-112.5"/>
<text text-anchor="middle" x="416" y="-119.5" font-family="FreeSans" font-size="10.00">RootFind.cpp</text>
</a>
</g>
<!-- Node13&#45;&gt;Node14 -->
<g id="edge32" class="edge"><title>Node13&#45;&gt;Node14</title>
<path fill="none" stroke="midnightblue" d="M463.446,-161.82C451.622,-152.145 436.714,-139.948 426.797,-131.834"/>
<polygon fill="midnightblue" stroke="midnightblue" points="461.44,-164.7 471.396,-168.324 465.873,-159.283 461.44,-164.7"/>
</g>
<!-- Node15 -->
<g id="node32" class="node"><title>Node15</title>
<a xlink:href="RedlichKwongMFTP_8cpp.html" target="_top" xlink:title="Definition file for a derived class of ThermoPhase that assumes either an ideal gas or ideal solution...">
<polygon fill="white" stroke="black" points="588,-56.5 588,-75.5 716,-75.5 716,-56.5 588,-56.5"/>
<text text-anchor="middle" x="652" y="-63.5" font-family="FreeSans" font-size="10.00">RedlichKwongMFTP.cpp</text>
</a>
</g>
<!-- Node13&#45;&gt;Node15 -->
<g id="edge34" class="edge"><title>Node13&#45;&gt;Node15</title>
<path fill="none" stroke="midnightblue" d="M482.831,-157.809C484.467,-143.384 488.962,-124.102 501,-112 523.861,-89.0189 557.912,-77.6712 587.895,-72.1111"/>
<polygon fill="midnightblue" stroke="midnightblue" points="479.316,-157.869 482.043,-168.107 486.296,-158.403 479.316,-157.869"/>
</g>
<!-- Node17 -->
<g id="node36" class="node"><title>Node17</title>
<a xlink:href="solveProb_8cpp_source.html" target="_top" xlink:title="solveProb.cpp">
<polygon fill="white" stroke="black" points="510,-112.5 510,-131.5 590,-131.5 590,-112.5 510,-112.5"/>
<text text-anchor="middle" x="550" y="-119.5" font-family="FreeSans" font-size="10.00">solveProb.cpp</text>
</a>
</g>
<!-- Node16&#45;&gt;Node17 -->
<g id="edge38" class="edge"><title>Node16&#45;&gt;Node17</title>
<path fill="none" stroke="midnightblue" d="M562.454,-158.396C559.276,-149.362 555.607,-138.936 553.079,-131.751"/>
<polygon fill="midnightblue" stroke="midnightblue" points="559.242,-159.812 565.863,-168.083 565.845,-157.488 559.242,-159.812"/>
</g>
<!-- Node16&#45;&gt;Node18 -->
<g id="edge40" class="edge"><title>Node16&#45;&gt;Node18</title>
<path fill="none" stroke="midnightblue" d="M587.762,-162.101C600,-152.382 615.559,-140.027 625.876,-131.834"/>
<polygon fill="midnightblue" stroke="midnightblue" points="585.58,-159.364 579.925,-168.324 589.933,-164.846 585.58,-159.364"/>
</g>
<!-- Node20 -->
<g id="node43" class="node"><title>Node20</title>
<a xlink:href="MixtureFugacityTP_8cpp.html" target="_top" xlink:title="Methods file for a derived class of ThermoPhase that handles non&#45;ideal mixtures based on the fugacity...">
<polygon fill="white" stroke="black" points="683.5,-112.5 683.5,-131.5 802.5,-131.5 802.5,-112.5 683.5,-112.5"/>
<text text-anchor="middle" x="743" y="-119.5" font-family="FreeSans" font-size="10.00">MixtureFugacityTP.cpp</text>
</a>
</g>
<!-- Node19&#45;&gt;Node20 -->
<g id="edge46" class="edge"><title>Node19&#45;&gt;Node20</title>
<path fill="none" stroke="midnightblue" d="M743,-157.805C743,-148.91 743,-138.78 743,-131.751"/>
<polygon fill="midnightblue" stroke="midnightblue" points="739.5,-158.083 743,-168.083 746.5,-158.083 739.5,-158.083"/>
</g>
<!-- Node21 -->
<g id="node45" class="node"><title>Node21</title>
<a xlink:href="RedlichKwongMFTP_8h.html" target="_top" xlink:title="Definition file for a derived class of ThermoPhase that assumes either an ideal gas or ideal solution...">
<polygon fill="white" stroke="black" points="821,-112.5 821,-131.5 939,-131.5 939,-112.5 821,-112.5"/>
<text text-anchor="middle" x="880" y="-119.5" font-family="FreeSans" font-size="10.00">RedlichKwongMFTP.h</text>
</a>
</g>
<!-- Node19&#45;&gt;Node21 -->
<g id="edge48" class="edge"><title>Node19&#45;&gt;Node21</title>
<path fill="none" stroke="midnightblue" d="M774.023,-164.772C799.757,-154.629 835.686,-140.467 858.394,-131.516"/>
<polygon fill="midnightblue" stroke="midnightblue" points="772.728,-161.52 764.708,-168.444 775.295,-168.033 772.728,-161.52"/>
</g>
<!-- Node21&#45;&gt;Node15 -->
<g id="edge50" class="edge"><title>Node21&#45;&gt;Node15</title>
<path fill="none" stroke="midnightblue" d="M833.929,-110.088C790.854,-99.8865 727.414,-84.8612 687.958,-75.5164"/>
<polygon fill="midnightblue" stroke="midnightblue" points="833.335,-113.545 843.873,-112.444 834.949,-106.733 833.335,-113.545"/>
</g>
<!-- Node22 -->
<g id="node48" class="node"><title>Node22</title>
<a xlink:href="ThermoFactory_8cpp.html" target="_top" xlink:title="Definitions for the factory class that can create known ThermoPhase objects (see Thermodynamic Proper...">
<polygon fill="white" stroke="black" points="828,-56.5 828,-75.5 932,-75.5 932,-56.5 828,-56.5"/>
<text text-anchor="middle" x="880" y="-63.5" font-family="FreeSans" font-size="10.00">ThermoFactory.cpp</text>
</a>
</g>
<!-- Node21&#45;&gt;Node22 -->
<g id="edge52" class="edge"><title>Node21&#45;&gt;Node22</title>
<path fill="none" stroke="midnightblue" d="M880,-101.805C880,-92.9102 880,-82.7798 880,-75.7511"/>
<polygon fill="midnightblue" stroke="midnightblue" points="876.5,-102.083 880,-112.083 883.5,-102.083 876.5,-102.083"/>
</g>
</g>
</svg>
