<?xml version="1.0" encoding="UTF-8" standalone="no"?>
<!DOCTYPE svg PUBLIC "-//W3C//DTD SVG 1.1//EN"
 "http://www.w3.org/Graphics/SVG/1.1/DTD/svg11.dtd">
<!-- Generated by graphviz version 2.28.0 (20120425.2022)
 -->
<!-- Title: RootFind.h Pages: 1 -->
<svg width="514pt" height="196pt"
 viewBox="0.00 0.00 514.00 196.00" xmlns="http://www.w3.org/2000/svg" xmlns:xlink="http://www.w3.org/1999/xlink">
<g id="graph1" class="graph" transform="scale(1 1) rotate(0) translate(4 192)">
<title>RootFind.h</title>
<polygon fill="white" stroke="white" points="-4,5 -4,-192 511,-192 511,5 -4,5"/>
<!-- Node1 -->
<g id="node1" class="node"><title>Node1</title>
<polygon fill="#bfbfbf" stroke="black" points="86.5,-168.5 86.5,-187.5 151.5,-187.5 151.5,-168.5 86.5,-168.5"/>
<text text-anchor="middle" x="119" y="-175.5" font-family="FreeSans" font-size="10.00">RootFind.h</text>
</g>
<!-- Node2 -->
<g id="node3" class="node"><title>Node2</title>
<polygon fill="white" stroke="#bfbfbf" points="0,-0.5 0,-19.5 44,-19.5 44,-0.5 0,-0.5"/>
<text text-anchor="middle" x="22" y="-7.5" font-family="FreeSans" font-size="10.00">vector</text>
</g>
<!-- Node1&#45;&gt;Node2 -->
<g id="edge2" class="edge"><title>Node1&#45;&gt;Node2</title>
<path fill="none" stroke="midnightblue" d="M113.785,-168.075C98.3179,-141.606 52.5076,-63.2089 32.0563,-28.2097"/>
<polygon fill="midnightblue" stroke="midnightblue" points="35.0738,-26.4363 27.0067,-19.5681 29.03,-29.968 35.0738,-26.4363"/>
</g>
<!-- Node3 -->
<g id="node5" class="node"><title>Node3</title>
<a xlink:href="ResidEval_8h.html" target="_top" xlink:title="ResidEval.h">
<polygon fill="white" stroke="black" points="239.5,-112.5 239.5,-131.5 308.5,-131.5 308.5,-112.5 239.5,-112.5"/>
<text text-anchor="middle" x="274" y="-119.5" font-family="FreeSans" font-size="10.00">ResidEval.h</text>
</a>
</g>
<!-- Node1&#45;&gt;Node3 -->
<g id="edge4" class="edge"><title>Node1&#45;&gt;Node3</title>
<path fill="none" stroke="midnightblue" d="M143.56,-168.444C169.523,-159.399 210.668,-145.064 239.797,-134.916"/>
<polygon fill="midnightblue" stroke="midnightblue" points="241.263,-138.112 249.555,-131.516 238.96,-131.501 241.263,-138.112"/>
</g>
<!-- Node4 -->
<g id="node7" class="node"><title>Node4</title>
<a xlink:href="ct__defs_8h.html" target="_top" xlink:title="This file contains definitions of terms that are used in internal routines and are unlikely to need m...">
<polygon fill="white" stroke="black" points="140.5,-56.5 140.5,-75.5 259.5,-75.5 259.5,-56.5 140.5,-56.5"/>
<text text-anchor="middle" x="200" y="-63.5" font-family="FreeSans" font-size="10.00">cantera/base/ct_defs.h</text>
</a>
</g>
<!-- Node3&#45;&gt;Node4 -->
<g id="edge6" class="edge"><title>Node3&#45;&gt;Node4</title>
<path fill="none" stroke="midnightblue" d="M262.111,-112.324C250.85,-104.107 233.713,-91.6017 220.291,-81.8069"/>
<polygon fill="midnightblue" stroke="midnightblue" points="222.247,-78.9014 212.106,-75.8339 218.12,-84.5559 222.247,-78.9014"/>
</g>
<!-- Node10 -->
<g id="node20" class="node"><title>Node10</title>
<a xlink:href="ctexceptions_8h.html" target="_top" xlink:title="Definitions for the classes that are thrown when Cantera experiences an error condition (also contain...">
<polygon fill="white" stroke="black" points="277.5,-56.5 277.5,-75.5 420.5,-75.5 420.5,-56.5 277.5,-56.5"/>
<text text-anchor="middle" x="349" y="-63.5" font-family="FreeSans" font-size="10.00">cantera/base/ctexceptions.h</text>
</a>
</g>
<!-- Node3&#45;&gt;Node10 -->
<g id="edge20" class="edge"><title>Node3&#45;&gt;Node10</title>
<path fill="none" stroke="midnightblue" d="M286.05,-112.324C297.463,-104.107 314.831,-91.6017 328.435,-81.8069"/>
<polygon fill="midnightblue" stroke="midnightblue" points="330.66,-84.5174 336.731,-75.8339 326.57,-78.8366 330.66,-84.5174"/>
</g>
<!-- Node13 -->
<g id="node27" class="node"><title>Node13</title>
<polygon fill="white" stroke="#bfbfbf" points="439,-56.5 439,-75.5 483,-75.5 483,-56.5 439,-56.5"/>
<text text-anchor="middle" x="461" y="-63.5" font-family="FreeSans" font-size="10.00">cstdio</text>
</g>
<!-- Node3&#45;&gt;Node13 -->
<g id="edge28" class="edge"><title>Node3&#45;&gt;Node13</title>
<path fill="none" stroke="midnightblue" d="M303.631,-112.444C337.843,-102.564 393.911,-86.3734 429.069,-76.2208"/>
<polygon fill="midnightblue" stroke="midnightblue" points="430.192,-79.5396 438.828,-73.4026 428.25,-72.8144 430.192,-79.5396"/>
</g>
<!-- Node4&#45;&gt;Node2 -->
<g id="edge14" class="edge"><title>Node4&#45;&gt;Node2</title>
<path fill="none" stroke="midnightblue" d="M171.795,-56.4435C139.724,-46.7141 87.4784,-30.8642 53.9345,-20.688"/>
<polygon fill="midnightblue" stroke="midnightblue" points="54.7532,-17.2789 44.1678,-17.7251 52.7211,-23.9775 54.7532,-17.2789"/>
</g>
<!-- Node5 -->
<g id="node9" class="node"><title>Node5</title>
<a xlink:href="config_8h_source.html" target="_top" xlink:title="config.h">
<polygon fill="white" stroke="black" points="62.5,-0.5 62.5,-19.5 113.5,-19.5 113.5,-0.5 62.5,-0.5"/>
<text text-anchor="middle" x="88" y="-7.5" font-family="FreeSans" font-size="10.00">config.h</text>
</a>
</g>
<!-- Node4&#45;&gt;Node5 -->
<g id="edge8" class="edge"><title>Node4&#45;&gt;Node5</title>
<path fill="none" stroke="midnightblue" d="M182.005,-56.324C163.962,-47.6247 135.953,-34.1202 115.197,-24.113"/>
<polygon fill="midnightblue" stroke="midnightblue" points="116.478,-20.8449 105.95,-19.6545 113.438,-27.1502 116.478,-20.8449"/>
</g>
<!-- Node6 -->
<g id="node11" class="node"><title>Node6</title>
<polygon fill="white" stroke="#bfbfbf" points="132,-0.5 132,-19.5 176,-19.5 176,-0.5 132,-0.5"/>
<text text-anchor="middle" x="154" y="-7.5" font-family="FreeSans" font-size="10.00">cmath</text>
</g>
<!-- Node4&#45;&gt;Node6 -->
<g id="edge10" class="edge"><title>Node4&#45;&gt;Node6</title>
<path fill="none" stroke="midnightblue" d="M192.404,-56.083C185.773,-48.2982 175.979,-36.8015 167.942,-27.3665"/>
<polygon fill="midnightblue" stroke="midnightblue" points="170.604,-25.0939 161.455,-19.7511 165.275,-29.6332 170.604,-25.0939"/>
</g>
<!-- Node7 -->
<g id="node13" class="node"><title>Node7</title>
<polygon fill="white" stroke="#bfbfbf" points="194.5,-0.5 194.5,-19.5 239.5,-19.5 239.5,-0.5 194.5,-0.5"/>
<text text-anchor="middle" x="217" y="-7.5" font-family="FreeSans" font-size="10.00">cstdlib</text>
</g>
<!-- Node4&#45;&gt;Node7 -->
<g id="edge12" class="edge"><title>Node4&#45;&gt;Node7</title>
<path fill="none" stroke="midnightblue" d="M202.807,-56.083C205.085,-48.8486 208.371,-38.4087 211.208,-29.3968"/>
<polygon fill="midnightblue" stroke="midnightblue" points="214.581,-30.3406 214.245,-19.7511 207.904,-28.2385 214.581,-30.3406"/>
</g>
<!-- Node8 -->
<g id="node16" class="node"><title>Node8</title>
<polygon fill="white" stroke="#bfbfbf" points="258,-0.5 258,-19.5 294,-19.5 294,-0.5 258,-0.5"/>
<text text-anchor="middle" x="276" y="-7.5" font-family="FreeSans" font-size="10.00">map</text>
</g>
<!-- Node4&#45;&gt;Node8 -->
<g id="edge16" class="edge"><title>Node4&#45;&gt;Node8</title>
<path fill="none" stroke="midnightblue" d="M212.211,-56.324C223.776,-48.1066 241.375,-35.6017 255.161,-25.8069"/>
<polygon fill="midnightblue" stroke="midnightblue" points="257.443,-28.4791 263.567,-19.8339 253.388,-22.7729 257.443,-28.4791"/>
</g>
<!-- Node9 -->
<g id="node18" class="node"><title>Node9</title>
<polygon fill="white" stroke="#bfbfbf" points="312.5,-0.5 312.5,-19.5 353.5,-19.5 353.5,-0.5 312.5,-0.5"/>
<text text-anchor="middle" x="333" y="-7.5" font-family="FreeSans" font-size="10.00">string</text>
</g>
<!-- Node4&#45;&gt;Node9 -->
<g id="edge18" class="edge"><title>Node4&#45;&gt;Node9</title>
<path fill="none" stroke="midnightblue" d="M221.074,-56.4435C243.189,-47.4646 278.143,-33.2729 303.103,-23.1386"/>
<polygon fill="midnightblue" stroke="midnightblue" points="304.513,-26.3439 312.461,-19.339 301.879,-19.8581 304.513,-26.3439"/>
</g>
<!-- Node10&#45;&gt;Node9 -->
<g id="edge26" class="edge"><title>Node10&#45;&gt;Node9</title>
<path fill="none" stroke="midnightblue" d="M346.358,-56.083C344.214,-48.8486 341.121,-38.4087 338.451,-29.3968"/>
<polygon fill="midnightblue" stroke="midnightblue" points="341.79,-28.3447 335.593,-19.7511 335.078,-30.3334 341.79,-28.3447"/>
</g>
<!-- Node11 -->
<g id="node22" class="node"><title>Node11</title>
<polygon fill="white" stroke="#bfbfbf" points="372,-0.5 372,-19.5 432,-19.5 432,-0.5 372,-0.5"/>
<text text-anchor="middle" x="402" y="-7.5" font-family="FreeSans" font-size="10.00">exception</text>
</g>
<!-- Node10&#45;&gt;Node11 -->
<g id="edge22" class="edge"><title>Node10&#45;&gt;Node11</title>
<path fill="none" stroke="midnightblue" d="M357.752,-56.083C365.47,-48.2195 376.905,-36.5688 386.217,-27.0813"/>
<polygon fill="midnightblue" stroke="midnightblue" points="388.904,-29.3396 393.411,-19.7511 383.908,-24.4363 388.904,-29.3396"/>
</g>
<!-- Node12 -->
<g id="node24" class="node"><title>Node12</title>
<polygon fill="white" stroke="#bfbfbf" points="450,-0.5 450,-19.5 506,-19.5 506,-0.5 450,-0.5"/>
<text text-anchor="middle" x="478" y="-7.5" font-family="FreeSans" font-size="10.00">iostream</text>
</g>
<!-- Node10&#45;&gt;Node12 -->
<g id="edge24" class="edge"><title>Node10&#45;&gt;Node12</title>
<path fill="none" stroke="midnightblue" d="M369.44,-56.4435C390.67,-47.5566 424.099,-33.5632 448.255,-23.4514"/>
<polygon fill="midnightblue" stroke="midnightblue" points="449.782,-26.6064 457.655,-19.5164 447.079,-20.1493 449.782,-26.6064"/>
</g>
</g>
</svg>
