<?xml version="1.0" encoding="UTF-8" standalone="no"?>
<!DOCTYPE svg PUBLIC "-//W3C//DTD SVG 1.1//EN"
 "http://www.w3.org/Graphics/SVG/1.1/DTD/svg11.dtd">
<!-- Generated by graphviz version 2.28.0 (20120425.2022)
 -->
<!-- Title: Sim1D.cpp Pages: 1 -->
<svg width="549pt" height="308pt"
 viewBox="0.00 0.00 549.00 308.00" xmlns="http://www.w3.org/2000/svg" xmlns:xlink="http://www.w3.org/1999/xlink">
<g id="graph1" class="graph" transform="scale(1 1) rotate(0) translate(4 304)">
<title>Sim1D.cpp</title>
<polygon fill="white" stroke="white" points="-4,5 -4,-304 546,-304 546,5 -4,5"/>
<!-- Node1 -->
<g id="node1" class="node"><title>Node1</title>
<polygon fill="#bfbfbf" stroke="black" points="215.5,-280.5 215.5,-299.5 280.5,-299.5 280.5,-280.5 215.5,-280.5"/>
<text text-anchor="middle" x="248" y="-287.5" font-family="FreeSans" font-size="10.00">Sim1D.cpp</text>
</g>
<!-- Node2 -->
<g id="node3" class="node"><title>Node2</title>
<a xlink:href="Sim1D_8h.html" target="_top" xlink:title="cantera/oneD/Sim1D.h">
<polygon fill="white" stroke="black" points="188.5,-224.5 188.5,-243.5 307.5,-243.5 307.5,-224.5 188.5,-224.5"/>
<text text-anchor="middle" x="248" y="-231.5" font-family="FreeSans" font-size="10.00">cantera/oneD/Sim1D.h</text>
</a>
</g>
<!-- Node1&#45;&gt;Node2 -->
<g id="edge2" class="edge"><title>Node1&#45;&gt;Node2</title>
<path fill="none" stroke="midnightblue" d="M248,-280.083C248,-273.006 248,-262.861 248,-253.986"/>
<polygon fill="midnightblue" stroke="midnightblue" points="251.5,-253.751 248,-243.751 244.5,-253.751 251.5,-253.751"/>
</g>
<!-- Node8 -->
<g id="node15" class="node"><title>Node8</title>
<polygon fill="white" stroke="#bfbfbf" points="127.5,-0.5 127.5,-19.5 172.5,-19.5 172.5,-0.5 127.5,-0.5"/>
<text text-anchor="middle" x="150" y="-7.5" font-family="FreeSans" font-size="10.00">cstdlib</text>
</g>
<!-- Node1&#45;&gt;Node8 -->
<g id="edge42" class="edge"><title>Node1&#45;&gt;Node8</title>
<path fill="none" stroke="midnightblue" d="M215.323,-288.973C147.981,-287.023 0,-272.142 0,-179 0,-179 0,-179 0,-121 0,-63.1775 73.3792,-32.4286 117.491,-19.1678"/>
<polygon fill="midnightblue" stroke="midnightblue" points="118.568,-22.5002 127.218,-16.3828 116.641,-15.7706 118.568,-22.5002"/>
</g>
<!-- Node9 -->
<g id="node17" class="node"><title>Node9</title>
<a xlink:href="MultiJac_8h.html" target="_top" xlink:title="cantera/oneD/MultiJac.h">
<polygon fill="white" stroke="black" points="45.5,-224.5 45.5,-243.5 170.5,-243.5 170.5,-224.5 45.5,-224.5"/>
<text text-anchor="middle" x="108" y="-231.5" font-family="FreeSans" font-size="10.00">cantera/oneD/MultiJac.h</text>
</a>
</g>
<!-- Node1&#45;&gt;Node9 -->
<g id="edge16" class="edge"><title>Node1&#45;&gt;Node9</title>
<path fill="none" stroke="midnightblue" d="M225.817,-280.444C202.572,-271.478 165.851,-257.314 139.585,-247.183"/>
<polygon fill="midnightblue" stroke="midnightblue" points="140.669,-243.85 130.08,-243.516 138.15,-250.381 140.669,-243.85"/>
</g>
<!-- Node15 -->
<g id="node35" class="node"><title>Node15</title>
<polygon fill="white" stroke="#bfbfbf" points="326,-224.5 326,-243.5 376,-243.5 376,-224.5 326,-224.5"/>
<text text-anchor="middle" x="351" y="-231.5" font-family="FreeSans" font-size="10.00">fstream</text>
</g>
<!-- Node1&#45;&gt;Node15 -->
<g id="edge40" class="edge"><title>Node1&#45;&gt;Node15</title>
<path fill="none" stroke="midnightblue" d="M264.549,-280.324C280.992,-271.703 306.435,-258.364 325.468,-248.386"/>
<polygon fill="midnightblue" stroke="midnightblue" points="327.261,-251.398 334.492,-243.655 324.011,-245.198 327.261,-251.398"/>
</g>
<!-- Node16 -->
<g id="node38" class="node"><title>Node16</title>
<polygon fill="white" stroke="#bfbfbf" points="394,-224.5 394,-243.5 438,-243.5 438,-224.5 394,-224.5"/>
<text text-anchor="middle" x="416" y="-231.5" font-family="FreeSans" font-size="10.00">cstdio</text>
</g>
<!-- Node1&#45;&gt;Node16 -->
<g id="edge44" class="edge"><title>Node1&#45;&gt;Node16</title>
<path fill="none" stroke="midnightblue" d="M274.62,-280.444C304.341,-270.89 352.421,-255.436 384.123,-245.246"/>
<polygon fill="midnightblue" stroke="midnightblue" points="385.347,-248.529 393.797,-242.137 383.205,-241.865 385.347,-248.529"/>
</g>
<!-- Node3 -->
<g id="node5" class="node"><title>Node3</title>
<a xlink:href="OneDim_8h.html" target="_top" xlink:title="OneDim.h">
<polygon fill="white" stroke="black" points="95.5,-168.5 95.5,-187.5 156.5,-187.5 156.5,-168.5 95.5,-168.5"/>
<text text-anchor="middle" x="126" y="-175.5" font-family="FreeSans" font-size="10.00">OneDim.h</text>
</a>
</g>
<!-- Node2&#45;&gt;Node3 -->
<g id="edge4" class="edge"><title>Node2&#45;&gt;Node3</title>
<path fill="none" stroke="midnightblue" d="M228.669,-224.444C208.68,-215.596 177.257,-201.687 154.436,-191.586"/>
<polygon fill="midnightblue" stroke="midnightblue" points="155.802,-188.363 145.241,-187.516 152.968,-194.764 155.802,-188.363"/>
</g>
<!-- Node6 -->
<g id="node11" class="node"><title>Node6</title>
<a xlink:href="funcs_8h.html" target="_top" xlink:title="Header for a file containing miscellaneous numerical functions.">
<polygon fill="white" stroke="black" points="413,-168.5 413,-187.5 541,-187.5 541,-168.5 413,-168.5"/>
<text text-anchor="middle" x="477" y="-175.5" font-family="FreeSans" font-size="10.00">cantera/numerics/funcs.h</text>
</a>
</g>
<!-- Node2&#45;&gt;Node6 -->
<g id="edge10" class="edge"><title>Node2&#45;&gt;Node6</title>
<path fill="none" stroke="midnightblue" d="M284.286,-224.444C323.983,-215.083 387.707,-200.056 430.912,-189.868"/>
<polygon fill="midnightblue" stroke="midnightblue" points="431.954,-193.218 440.884,-187.516 430.348,-186.405 431.954,-193.218"/>
</g>
<!-- Node4 -->
<g id="node7" class="node"><title>Node4</title>
<a xlink:href="Domain1D_8h.html" target="_top" xlink:title="Domain1D.h">
<polygon fill="white" stroke="red" points="28,-112.5 28,-131.5 100,-131.5 100,-112.5 28,-112.5"/>
<text text-anchor="middle" x="64" y="-119.5" font-family="FreeSans" font-size="10.00">Domain1D.h</text>
</a>
</g>
<!-- Node3&#45;&gt;Node4 -->
<g id="edge6" class="edge"><title>Node3&#45;&gt;Node4</title>
<path fill="none" stroke="midnightblue" d="M116.039,-168.324C106.873,-160.341 93.0628,-148.313 81.9718,-138.653"/>
<polygon fill="midnightblue" stroke="midnightblue" points="83.9822,-135.762 74.1426,-131.834 79.3847,-141.041 83.9822,-135.762"/>
</g>
<!-- Node5 -->
<g id="node9" class="node"><title>Node5</title>
<a xlink:href="ctexceptions_8h.html" target="_top" xlink:title="Definitions for the classes that are thrown when Cantera experiences an error condition (also contain...">
<polygon fill="white" stroke="red" points="58,-56.5 58,-75.5 138,-75.5 138,-56.5 58,-56.5"/>
<text text-anchor="middle" x="98" y="-63.5" font-family="FreeSans" font-size="10.00">ctexceptions.h</text>
</a>
</g>
<!-- Node4&#45;&gt;Node5 -->
<g id="edge8" class="edge"><title>Node4&#45;&gt;Node5</title>
<path fill="none" stroke="midnightblue" d="M69.6144,-112.083C74.3674,-104.534 81.3181,-93.4948 87.1516,-84.2298"/>
<polygon fill="midnightblue" stroke="midnightblue" points="90.1237,-86.0783 92.4901,-75.7511 84.2001,-82.3486 90.1237,-86.0783"/>
</g>
<!-- Node7 -->
<g id="node13" class="node"><title>Node7</title>
<a xlink:href="ct__defs_8h.html" target="_top" xlink:title="This file contains definitions of terms that are used in internal routines and are unlikely to need m...">
<polygon fill="white" stroke="red" points="273,-56.5 273,-75.5 329,-75.5 329,-56.5 273,-56.5"/>
<text text-anchor="middle" x="301" y="-63.5" font-family="FreeSans" font-size="10.00">ct_defs.h</text>
</a>
</g>
<!-- Node6&#45;&gt;Node7 -->
<g id="edge12" class="edge"><title>Node6&#45;&gt;Node7</title>
<path fill="none" stroke="midnightblue" d="M485.953,-168.194C498.401,-154.88 517.92,-129.344 504,-112 483.717,-86.7287 392.045,-74.771 339.088,-69.8822"/>
<polygon fill="midnightblue" stroke="midnightblue" points="339.315,-66.3887 329.046,-68.9968 338.7,-73.3616 339.315,-66.3887"/>
</g>
<!-- Node7&#45;&gt;Node8 -->
<g id="edge14" class="edge"><title>Node7&#45;&gt;Node8</title>
<path fill="none" stroke="midnightblue" d="M277.074,-56.4435C251.484,-47.2922 210.752,-32.726 182.324,-22.5594"/>
<polygon fill="midnightblue" stroke="midnightblue" points="183.421,-19.2347 172.826,-19.1629 181.063,-25.8259 183.421,-19.2347"/>
</g>
<!-- Node9&#45;&gt;Node3 -->
<g id="edge36" class="edge"><title>Node9&#45;&gt;Node3</title>
<path fill="none" stroke="midnightblue" d="M110.972,-224.083C113.384,-216.849 116.864,-206.409 119.868,-197.397"/>
<polygon fill="midnightblue" stroke="midnightblue" points="123.241,-198.345 123.083,-187.751 116.6,-196.131 123.241,-198.345"/>
</g>
<!-- Node10 -->
<g id="node19" class="node"><title>Node10</title>
<a xlink:href="BandMatrix_8h.html" target="_top" xlink:title="Declarations for the class BandMatrix which is a child class of GeneralMatrix for banded matrices han...">
<polygon fill="white" stroke="black" points="187.5,-168.5 187.5,-187.5 342.5,-187.5 342.5,-168.5 187.5,-168.5"/>
<text text-anchor="middle" x="265" y="-175.5" font-family="FreeSans" font-size="10.00">cantera/numerics/BandMatrix.h</text>
</a>
</g>
<!-- Node9&#45;&gt;Node10 -->
<g id="edge18" class="edge"><title>Node9&#45;&gt;Node10</title>
<path fill="none" stroke="midnightblue" d="M132.877,-224.444C159.289,-215.359 201.215,-200.939 230.742,-190.783"/>
<polygon fill="midnightblue" stroke="midnightblue" points="231.921,-194.079 240.239,-187.516 229.645,-187.459 231.921,-194.079"/>
</g>
<!-- Node14 -->
<g id="node33" class="node"><title>Node14</title>
<polygon fill="white" stroke="#bfbfbf" points="34.5,-168.5 34.5,-187.5 77.5,-187.5 77.5,-168.5 34.5,-168.5"/>
<text text-anchor="middle" x="56" y="-175.5" font-family="FreeSans" font-size="10.00">time.h</text>
</g>
<!-- Node9&#45;&gt;Node14 -->
<g id="edge38" class="edge"><title>Node9&#45;&gt;Node14</title>
<path fill="none" stroke="midnightblue" d="M99.4133,-224.083C91.841,-216.22 80.6218,-204.569 71.4856,-195.081"/>
<polygon fill="midnightblue" stroke="midnightblue" points="73.8845,-192.527 64.427,-187.751 68.8423,-197.382 73.8845,-192.527"/>
</g>
<!-- Node10&#45;&gt;Node5 -->
<g id="edge30" class="edge"><title>Node10&#45;&gt;Node5</title>
<path fill="none" stroke="midnightblue" d="M227.507,-168.493C202.882,-161.582 170.923,-149.983 147,-132 130.112,-119.305 116.238,-99.2702 107.617,-84.7974"/>
<polygon fill="midnightblue" stroke="midnightblue" points="110.501,-82.7881 102.515,-75.8249 104.415,-86.248 110.501,-82.7881"/>
</g>
<!-- Node10&#45;&gt;Node7 -->
<g id="edge20" class="edge"><title>Node10&#45;&gt;Node7</title>
<path fill="none" stroke="midnightblue" d="M267.825,-168.368C273.661,-150.537 287.158,-109.295 295.02,-85.2717"/>
<polygon fill="midnightblue" stroke="midnightblue" points="298.404,-86.1841 298.188,-75.5914 291.751,-84.0067 298.404,-86.1841"/>
</g>
<!-- Node11 -->
<g id="node22" class="node"><title>Node11</title>
<a xlink:href="ctlapack_8h.html" target="_top" xlink:title="ctlapack.h">
<polygon fill="white" stroke="black" points="300,-112.5 300,-131.5 362,-131.5 362,-112.5 300,-112.5"/>
<text text-anchor="middle" x="331" y="-119.5" font-family="FreeSans" font-size="10.00">ctlapack.h</text>
</a>
</g>
<!-- Node10&#45;&gt;Node11 -->
<g id="edge22" class="edge"><title>Node10&#45;&gt;Node11</title>
<path fill="none" stroke="midnightblue" d="M275.604,-168.324C285.456,-160.263 300.351,-148.077 312.215,-138.369"/>
<polygon fill="midnightblue" stroke="midnightblue" points="314.68,-140.875 320.203,-131.834 310.247,-135.457 314.68,-140.875"/>
</g>
<!-- Node12 -->
<g id="node25" class="node"><title>Node12</title>
<a xlink:href="utilities_8h.html" target="_top" xlink:title="Various templated functions that carry out common vector operations (see globalUtilFuncs).">
<polygon fill="white" stroke="red" points="380,-112.5 380,-131.5 496,-131.5 496,-112.5 380,-112.5"/>
<text text-anchor="middle" x="438" y="-119.5" font-family="FreeSans" font-size="10.00">cantera/base/utilities.h</text>
</a>
</g>
<!-- Node10&#45;&gt;Node12 -->
<g id="edge26" class="edge"><title>Node10&#45;&gt;Node12</title>
<path fill="none" stroke="midnightblue" d="M292.412,-168.444C321.769,-159.28 368.519,-144.688 401.096,-134.519"/>
<polygon fill="midnightblue" stroke="midnightblue" points="402.213,-137.837 410.716,-131.516 400.127,-131.155 402.213,-137.837"/>
</g>
<!-- Node13 -->
<g id="node29" class="node"><title>Node13</title>
<a xlink:href="GeneralMatrix_8h.html" target="_top" xlink:title="Declarations for the class GeneralMatrix which is a virtual base class for matrices handled by solver...">
<polygon fill="white" stroke="black" points="156,-112.5 156,-131.5 244,-131.5 244,-112.5 156,-112.5"/>
<text text-anchor="middle" x="200" y="-119.5" font-family="FreeSans" font-size="10.00">GeneralMatrix.h</text>
</a>
</g>
<!-- Node10&#45;&gt;Node13 -->
<g id="edge32" class="edge"><title>Node10&#45;&gt;Node13</title>
<path fill="none" stroke="midnightblue" d="M254.557,-168.324C244.854,-160.263 230.185,-148.077 218.5,-138.369"/>
<polygon fill="midnightblue" stroke="midnightblue" points="220.562,-135.532 210.633,-131.834 216.089,-140.916 220.562,-135.532"/>
</g>
<!-- Node11&#45;&gt;Node7 -->
<g id="edge24" class="edge"><title>Node11&#45;&gt;Node7</title>
<path fill="none" stroke="midnightblue" d="M326.046,-112.083C321.896,-104.613 315.847,-93.7244 310.733,-84.5199"/>
<polygon fill="midnightblue" stroke="midnightblue" points="313.778,-82.7929 305.862,-75.7511 307.659,-86.1924 313.778,-82.7929"/>
</g>
<!-- Node12&#45;&gt;Node7 -->
<g id="edge28" class="edge"><title>Node12&#45;&gt;Node7</title>
<path fill="none" stroke="midnightblue" d="M416.292,-112.444C393.645,-103.517 357.928,-89.4387 332.248,-79.3168"/>
<polygon fill="midnightblue" stroke="midnightblue" points="333.193,-75.9273 322.606,-75.5164 330.626,-82.4397 333.193,-75.9273"/>
</g>
<!-- Node13&#45;&gt;Node7 -->
<g id="edge34" class="edge"><title>Node13&#45;&gt;Node7</title>
<path fill="none" stroke="midnightblue" d="M216.227,-112.324C232.351,-103.703 257.3,-90.3643 275.964,-80.3855"/>
<polygon fill="midnightblue" stroke="midnightblue" points="277.644,-83.456 284.813,-75.6545 274.344,-77.283 277.644,-83.456"/>
</g>
</g>
</svg>
