<?xml version="1.0" encoding="UTF-8" standalone="no"?>
<!DOCTYPE svg PUBLIC "-//W3C//DTD SVG 1.1//EN"
 "http://www.w3.org/Graphics/SVG/1.1/DTD/svg11.dtd">
<!-- Generated by graphviz version 2.28.0 (20120425.2022)
 -->
<!-- Title: SimpleThermo.h Pages: 1 -->
<svg width="615pt" height="252pt"
 viewBox="0.00 0.00 615.24 252.00" xmlns="http://www.w3.org/2000/svg" xmlns:xlink="http://www.w3.org/1999/xlink">
<g id="graph1" class="graph" transform="scale(1 1) rotate(0) translate(4 248)">
<title>SimpleThermo.h</title>
<polygon fill="white" stroke="white" points="-4,5 -4,-248 612.244,-248 612.244,5 -4,5"/>
<!-- Node1 -->
<g id="node1" class="node"><title>Node1</title>
<polygon fill="#bfbfbf" stroke="black" points="317.964,-224.5 317.964,-243.5 408.964,-243.5 408.964,-224.5 317.964,-224.5"/>
<text text-anchor="middle" x="363.464" y="-231.5" font-family="FreeSans" font-size="10.00">SimpleThermo.h</text>
</g>
<!-- Node2 -->
<g id="node3" class="node"><title>Node2</title>
<a xlink:href="SpeciesThermoMgr_8h.html" target="_top" xlink:title="This file contains descriptions of templated subclasses of the virtual base class, SpeciesThermo, which includes SpeciesThermoDuo (see Managers for Calculating Reference&#45;State Thermodynamics and class SpeciesThermoDuo)">
<polygon fill="white" stroke="black" points="167.464,-168.5 167.464,-187.5 281.464,-187.5 281.464,-168.5 167.464,-168.5"/>
<text text-anchor="middle" x="224.464" y="-175.5" font-family="FreeSans" font-size="10.00">SpeciesThermoMgr.h</text>
</a>
</g>
<!-- Node1&#45;&gt;Node2 -->
<g id="edge2" class="edge"><title>Node1&#45;&gt;Node2</title>
<path fill="none" stroke="midnightblue" d="M341.439,-224.444C318.36,-215.478 281.902,-201.314 255.823,-191.183"/>
<polygon fill="midnightblue" stroke="midnightblue" points="256.975,-187.875 246.386,-187.516 254.44,-194.4 256.975,-187.875"/>
</g>
<!-- Node15 -->
<g id="node34" class="node"><title>Node15</title>
<a xlink:href="speciesThermoTypes_8h.html" target="_top" xlink:title=" Contains const definitions for types of species &#160;reference&#45;state thermodynamics managers (see \ref s...">
<polygon fill="white" stroke="black" points="401.964,-168.5 401.964,-187.5 526.964,-187.5 526.964,-168.5 401.964,-168.5"/>
<text text-anchor="middle" x="464.464" y="-175.5" font-family="FreeSans" font-size="10.00">speciesThermoTypes.h</text>
</a>
</g>
<!-- Node1&#45;&gt;Node15 -->
<g id="edge38" class="edge"><title>Node1&#45;&gt;Node15</title>
<path fill="none" stroke="midnightblue" d="M379.691,-224.324C395.815,-215.703 420.764,-202.364 439.428,-192.386"/>
<polygon fill="midnightblue" stroke="midnightblue" points="441.109,-195.456 448.277,-187.655 437.808,-189.283 441.109,-195.456"/>
</g>
<!-- Node3 -->
<g id="node5" class="node"><title>Node3</title>
<a xlink:href="ct__defs_8h.html" target="_top" xlink:title="This file contains definitions of terms that are used in internal routines and are unlikely to need m...">
<polygon fill="white" stroke="black" points="325.964,-56.5 325.964,-75.5 444.964,-75.5 444.964,-56.5 325.964,-56.5"/>
<text text-anchor="middle" x="385.464" y="-63.5" font-family="FreeSans" font-size="10.00">cantera/base/ct_defs.h</text>
</a>
</g>
<!-- Node2&#45;&gt;Node3 -->
<g id="edge4" class="edge"><title>Node2&#45;&gt;Node3</title>
<path fill="none" stroke="midnightblue" d="M217.318,-168.074C207.454,-154.604 192.296,-128.866 205.464,-112 219.24,-94.3558 271.115,-82.606 315.659,-75.5512"/>
<polygon fill="midnightblue" stroke="midnightblue" points="316.263,-78.9996 325.62,-74.0305 315.207,-72.0798 316.263,-78.9996"/>
</g>
<!-- Node8 -->
<g id="node15" class="node"><title>Node8</title>
<polygon fill="white" stroke="#bfbfbf" points="77.4641,-0.5 77.4641,-19.5 113.464,-19.5 113.464,-0.5 77.4641,-0.5"/>
<text text-anchor="middle" x="95.4641" y="-7.5" font-family="FreeSans" font-size="10.00">map</text>
</g>
<!-- Node2&#45;&gt;Node8 -->
<g id="edge36" class="edge"><title>Node2&#45;&gt;Node8</title>
<path fill="none" stroke="midnightblue" d="M167.204,-173.252C109.286,-168.127 25.5168,-156.592 5.4641,-132 -10.0906,-112.924 11.0705,-75.199 26.4641,-56 37.5128,-42.22 53.9597,-31.2626 68.0249,-23.6116"/>
<polygon fill="midnightblue" stroke="midnightblue" points="69.994,-26.5347 77.2863,-18.8488 66.7927,-20.3096 69.994,-26.5347"/>
</g>
<!-- Node10 -->
<g id="node19" class="node"><title>Node10</title>
<a xlink:href="ctexceptions_8h.html" target="_top" xlink:title="Definitions for the classes that are thrown when Cantera experiences an error condition (also contain...">
<polygon fill="white" stroke="black" points="14.9641,-112.5 14.9641,-131.5 157.964,-131.5 157.964,-112.5 14.9641,-112.5"/>
<text text-anchor="middle" x="86.4641" y="-119.5" font-family="FreeSans" font-size="10.00">cantera/base/ctexceptions.h</text>
</a>
</g>
<!-- Node2&#45;&gt;Node10 -->
<g id="edge18" class="edge"><title>Node2&#45;&gt;Node10</title>
<path fill="none" stroke="midnightblue" d="M202.598,-168.444C179.685,-159.478 143.489,-145.314 117.598,-135.183"/>
<polygon fill="midnightblue" stroke="midnightblue" points="118.816,-131.901 108.228,-131.516 116.265,-138.42 118.816,-131.901"/>
</g>
<!-- Node13 -->
<g id="node26" class="node"><title>Node13</title>
<a xlink:href="stringUtils_8h.html" target="_top" xlink:title=" Contains declarations for string manipulation functions &#160;within Cantera.">
<polygon fill="white" stroke="black" points="329.964,-112.5 329.964,-131.5 458.964,-131.5 458.964,-112.5 329.964,-112.5"/>
<text text-anchor="middle" x="394.464" y="-119.5" font-family="FreeSans" font-size="10.00">cantera/base/stringUtils.h</text>
</a>
</g>
<!-- Node2&#45;&gt;Node13 -->
<g id="edge26" class="edge"><title>Node2&#45;&gt;Node13</title>
<path fill="none" stroke="midnightblue" d="M251.401,-168.444C280.125,-159.32 325.793,-144.813 357.785,-134.651"/>
<polygon fill="midnightblue" stroke="midnightblue" points="359.182,-137.88 367.653,-131.516 357.063,-131.208 359.182,-137.88"/>
</g>
<!-- Node14 -->
<g id="node30" class="node"><title>Node14</title>
<a xlink:href="SpeciesThermo_8h.html" target="_top" xlink:title="Virtual base class for the calculation of multiple&#45;species thermodynamic reference&#45;state property man...">
<polygon fill="white" stroke="black" points="214.964,-112.5 214.964,-131.5 311.964,-131.5 311.964,-112.5 214.964,-112.5"/>
<text text-anchor="middle" x="263.464" y="-119.5" font-family="FreeSans" font-size="10.00">SpeciesThermo.h</text>
</a>
</g>
<!-- Node2&#45;&gt;Node14 -->
<g id="edge32" class="edge"><title>Node2&#45;&gt;Node14</title>
<path fill="none" stroke="midnightblue" d="M230.904,-168.083C236.413,-160.455 244.495,-149.264 251.229,-139.941"/>
<polygon fill="midnightblue" stroke="midnightblue" points="254.126,-141.907 257.144,-131.751 248.452,-137.809 254.126,-141.907"/>
</g>
<!-- Node4 -->
<g id="node7" class="node"><title>Node4</title>
<a xlink:href="config_8h_source.html" target="_top" xlink:title="config.h">
<polygon fill="white" stroke="black" points="488.964,-0.5 488.964,-19.5 539.964,-19.5 539.964,-0.5 488.964,-0.5"/>
<text text-anchor="middle" x="514.464" y="-7.5" font-family="FreeSans" font-size="10.00">config.h</text>
</a>
</g>
<!-- Node3&#45;&gt;Node4 -->
<g id="edge6" class="edge"><title>Node3&#45;&gt;Node4</title>
<path fill="none" stroke="midnightblue" d="M405.905,-56.4435C427.134,-47.5566 460.563,-33.5632 484.719,-23.4514"/>
<polygon fill="midnightblue" stroke="midnightblue" points="486.246,-26.6064 494.119,-19.5164 483.543,-20.1493 486.246,-26.6064"/>
</g>
<!-- Node5 -->
<g id="node9" class="node"><title>Node5</title>
<polygon fill="white" stroke="#bfbfbf" points="300.464,-0.5 300.464,-19.5 344.464,-19.5 344.464,-0.5 300.464,-0.5"/>
<text text-anchor="middle" x="322.464" y="-7.5" font-family="FreeSans" font-size="10.00">cmath</text>
</g>
<!-- Node3&#45;&gt;Node5 -->
<g id="edge8" class="edge"><title>Node3&#45;&gt;Node5</title>
<path fill="none" stroke="midnightblue" d="M375.342,-56.324C365.938,-48.2631 351.72,-36.0765 340.395,-26.3695"/>
<polygon fill="midnightblue" stroke="midnightblue" points="342.641,-23.6844 332.77,-19.8339 338.085,-28.9993 342.641,-23.6844"/>
</g>
<!-- Node6 -->
<g id="node11" class="node"><title>Node6</title>
<polygon fill="white" stroke="#bfbfbf" points="362.964,-0.5 362.964,-19.5 407.964,-19.5 407.964,-0.5 362.964,-0.5"/>
<text text-anchor="middle" x="385.464" y="-7.5" font-family="FreeSans" font-size="10.00">cstdlib</text>
</g>
<!-- Node3&#45;&gt;Node6 -->
<g id="edge10" class="edge"><title>Node3&#45;&gt;Node6</title>
<path fill="none" stroke="midnightblue" d="M385.464,-56.083C385.464,-49.0059 385.464,-38.8611 385.464,-29.9865"/>
<polygon fill="midnightblue" stroke="midnightblue" points="388.964,-29.751 385.464,-19.7511 381.964,-29.7511 388.964,-29.751"/>
</g>
<!-- Node7 -->
<g id="node13" class="node"><title>Node7</title>
<polygon fill="white" stroke="#bfbfbf" points="426.464,-0.5 426.464,-19.5 470.464,-19.5 470.464,-0.5 426.464,-0.5"/>
<text text-anchor="middle" x="448.464" y="-7.5" font-family="FreeSans" font-size="10.00">vector</text>
</g>
<!-- Node3&#45;&gt;Node7 -->
<g id="edge12" class="edge"><title>Node3&#45;&gt;Node7</title>
<path fill="none" stroke="midnightblue" d="M395.586,-56.324C404.99,-48.2631 419.208,-36.0765 430.533,-26.3695"/>
<polygon fill="midnightblue" stroke="midnightblue" points="432.843,-28.9993 438.158,-19.8339 428.288,-23.6844 432.843,-28.9993"/>
</g>
<!-- Node3&#45;&gt;Node8 -->
<g id="edge14" class="edge"><title>Node3&#45;&gt;Node8</title>
<path fill="none" stroke="midnightblue" d="M339.513,-56.4435C278.805,-45.1393 173.727,-25.573 123.619,-16.2426"/>
<polygon fill="midnightblue" stroke="midnightblue" points="123.988,-12.7512 113.516,-14.3614 122.706,-19.6329 123.988,-12.7512"/>
</g>
<!-- Node9 -->
<g id="node17" class="node"><title>Node9</title>
<polygon fill="white" stroke="#bfbfbf" points="240.964,-0.5 240.964,-19.5 281.964,-19.5 281.964,-0.5 240.964,-0.5"/>
<text text-anchor="middle" x="261.464" y="-7.5" font-family="FreeSans" font-size="10.00">string</text>
</g>
<!-- Node3&#45;&gt;Node9 -->
<g id="edge16" class="edge"><title>Node3&#45;&gt;Node9</title>
<path fill="none" stroke="midnightblue" d="M365.816,-56.4435C345.5,-47.5961 313.561,-33.6875 290.366,-23.5865"/>
<polygon fill="midnightblue" stroke="midnightblue" points="291.586,-20.3002 281.02,-19.5164 288.791,-26.7181 291.586,-20.3002"/>
</g>
<!-- Node10&#45;&gt;Node9 -->
<g id="edge24" class="edge"><title>Node10&#45;&gt;Node9</title>
<path fill="none" stroke="midnightblue" d="M106.602,-112.439C125.461,-104.1 154.153,-90.5792 177.464,-76 201.694,-60.846 227.374,-40.217 243.867,-26.2964"/>
<polygon fill="midnightblue" stroke="midnightblue" points="246.267,-28.849 251.598,-19.6929 241.721,-23.5263 246.267,-28.849"/>
</g>
<!-- Node11 -->
<g id="node21" class="node"><title>Node11</title>
<polygon fill="white" stroke="#bfbfbf" points="35.4641,-56.5 35.4641,-75.5 95.4641,-75.5 95.4641,-56.5 35.4641,-56.5"/>
<text text-anchor="middle" x="65.4641" y="-63.5" font-family="FreeSans" font-size="10.00">exception</text>
</g>
<!-- Node10&#45;&gt;Node11 -->
<g id="edge20" class="edge"><title>Node10&#45;&gt;Node11</title>
<path fill="none" stroke="midnightblue" d="M82.9964,-112.083C80.1524,-104.77 76.0346,-94.1814 72.5043,-85.1034"/>
<polygon fill="midnightblue" stroke="midnightblue" points="75.7538,-83.8025 68.8673,-75.7511 69.2298,-86.3397 75.7538,-83.8025"/>
</g>
<!-- Node12 -->
<g id="node23" class="node"><title>Node12</title>
<polygon fill="white" stroke="#bfbfbf" points="113.464,-56.5 113.464,-75.5 169.464,-75.5 169.464,-56.5 113.464,-56.5"/>
<text text-anchor="middle" x="141.464" y="-63.5" font-family="FreeSans" font-size="10.00">iostream</text>
</g>
<!-- Node10&#45;&gt;Node12 -->
<g id="edge22" class="edge"><title>Node10&#45;&gt;Node12</title>
<path fill="none" stroke="midnightblue" d="M95.5462,-112.083C103.635,-104.141 115.659,-92.3354 125.374,-82.7973"/>
<polygon fill="midnightblue" stroke="midnightblue" points="127.867,-85.2545 132.551,-75.7511 122.963,-80.2595 127.867,-85.2545"/>
</g>
<!-- Node13&#45;&gt;Node3 -->
<g id="edge28" class="edge"><title>Node13&#45;&gt;Node3</title>
<path fill="none" stroke="midnightblue" d="M392.978,-112.083C391.785,-104.927 390.07,-94.6353 388.579,-85.6911"/>
<polygon fill="midnightblue" stroke="midnightblue" points="392.019,-85.0396 386.923,-75.7511 385.114,-86.1904 392.019,-85.0396"/>
</g>
<!-- Node13&#45;&gt;Node9 -->
<g id="edge30" class="edge"><title>Node13&#45;&gt;Node9</title>
<path fill="none" stroke="midnightblue" d="M375.942,-112.369C359.618,-104.27 335.67,-91.1572 317.464,-76 300.374,-61.7717 284.171,-42.0318 273.633,-28.0481"/>
<polygon fill="midnightblue" stroke="midnightblue" points="276.317,-25.7899 267.574,-19.8058 270.677,-29.9361 276.317,-25.7899"/>
</g>
<!-- Node14&#45;&gt;Node3 -->
<g id="edge34" class="edge"><title>Node14&#45;&gt;Node3</title>
<path fill="none" stroke="midnightblue" d="M282.795,-112.444C302.784,-103.596 334.207,-89.6875 357.028,-79.5865"/>
<polygon fill="midnightblue" stroke="midnightblue" points="358.496,-82.7645 366.223,-75.5164 355.662,-76.3635 358.496,-82.7645"/>
</g>
<!-- Node15&#45;&gt;Node3 -->
<g id="edge40" class="edge"><title>Node15&#45;&gt;Node3</title>
<path fill="none" stroke="midnightblue" d="M527.372,-168.556C573.928,-159.661 625.297,-142.569 600.464,-112 582.327,-89.6733 510.902,-78.0335 455.294,-72.2385"/>
<polygon fill="midnightblue" stroke="midnightblue" points="455.409,-68.7327 445.111,-71.2232 454.714,-75.6982 455.409,-68.7327"/>
</g>
<!-- Node15&#45;&gt;Node13 -->
<g id="edge46" class="edge"><title>Node15&#45;&gt;Node13</title>
<path fill="none" stroke="midnightblue" d="M453.217,-168.324C442.667,-160.185 426.663,-147.839 414.022,-138.087"/>
<polygon fill="midnightblue" stroke="midnightblue" points="415.971,-135.171 405.915,-131.834 411.695,-140.713 415.971,-135.171"/>
</g>
<!-- Node16 -->
<g id="node37" class="node"><title>Node16</title>
<a xlink:href="global_8h.html" target="_top" xlink:title="This file contains definitions for utility functions and text for modules, inputfiles, logs, textlogs, HTML_logs (see Input File Handling, Diagnostic Output, Writing messages to the screen and Writing HTML Logfiles).">
<polygon fill="white" stroke="black" points="477.464,-112.5 477.464,-131.5 591.464,-131.5 591.464,-112.5 477.464,-112.5"/>
<text text-anchor="middle" x="534.464" y="-119.5" font-family="FreeSans" font-size="10.00">cantera/base/global.h</text>
</a>
</g>
<!-- Node15&#45;&gt;Node16 -->
<g id="edge42" class="edge"><title>Node15&#45;&gt;Node16</title>
<path fill="none" stroke="midnightblue" d="M475.711,-168.324C486.262,-160.185 502.265,-147.839 514.906,-138.087"/>
<polygon fill="midnightblue" stroke="midnightblue" points="517.233,-140.713 523.013,-131.834 512.957,-135.171 517.233,-140.713"/>
</g>
<!-- Node16&#45;&gt;Node3 -->
<g id="edge44" class="edge"><title>Node16&#45;&gt;Node3</title>
<path fill="none" stroke="midnightblue" d="M510.855,-112.444C486.006,-103.438 446.69,-89.1891 418.711,-79.049"/>
<polygon fill="midnightblue" stroke="midnightblue" points="419.557,-75.6332 408.963,-75.5164 417.172,-82.2144 419.557,-75.6332"/>
</g>
</g>
</svg>
