<?xml version="1.0" encoding="UTF-8" standalone="no"?>
<!DOCTYPE svg PUBLIC "-//W3C//DTD SVG 1.1//EN"
 "http://www.w3.org/Graphics/SVG/1.1/DTD/svg11.dtd">
<!-- Generated by graphviz version 2.28.0 (20120425.2022)
 -->
<!-- Title: SingleSpeciesTP.cpp Pages: 1 -->
<svg width="322pt" height="308pt"
 viewBox="0.00 0.00 322.00 308.00" xmlns="http://www.w3.org/2000/svg" xmlns:xlink="http://www.w3.org/1999/xlink">
<g id="graph1" class="graph" transform="scale(1 1) rotate(0) translate(4 304)">
<title>SingleSpeciesTP.cpp</title>
<polygon fill="white" stroke="white" points="-4,5 -4,-304 319,-304 319,5 -4,5"/>
<!-- Node1 -->
<g id="node1" class="node"><title>Node1</title>
<polygon fill="#bfbfbf" stroke="black" points="129,-280.5 129,-299.5 243,-299.5 243,-280.5 129,-280.5"/>
<text text-anchor="middle" x="186" y="-287.5" font-family="FreeSans" font-size="10.00">SingleSpeciesTP.cpp</text>
</g>
<!-- Node2 -->
<g id="node3" class="node"><title>Node2</title>
<a xlink:href="SingleSpeciesTP_8h.html" target="_top" xlink:title="Header for the SingleSpeciesTP class, which is a filter class for ThermoPhase, that eases the constru...">
<polygon fill="white" stroke="black" points="40,-224.5 40,-243.5 214,-243.5 214,-224.5 40,-224.5"/>
<text text-anchor="middle" x="127" y="-231.5" font-family="FreeSans" font-size="10.00">cantera/thermo/SingleSpeciesTP.h</text>
</a>
</g>
<!-- Node1&#45;&gt;Node2 -->
<g id="edge2" class="edge"><title>Node1&#45;&gt;Node2</title>
<path fill="none" stroke="midnightblue" d="M176.521,-280.324C167.799,-272.341 154.657,-260.313 144.102,-250.653"/>
<polygon fill="midnightblue" stroke="midnightblue" points="146.392,-248.004 136.652,-243.834 141.666,-253.167 146.392,-248.004"/>
</g>
<!-- Node8 -->
<g id="node15" class="node"><title>Node8</title>
<a xlink:href="stringUtils_8h.html" target="_top" xlink:title=" Contains declarations for string manipulation functions &#160;within Cantera.">
<polygon fill="white" stroke="black" points="185.5,-112.5 185.5,-131.5 314.5,-131.5 314.5,-112.5 185.5,-112.5"/>
<text text-anchor="middle" x="250" y="-119.5" font-family="FreeSans" font-size="10.00">cantera/base/stringUtils.h</text>
</a>
</g>
<!-- Node1&#45;&gt;Node8 -->
<g id="edge14" class="edge"><title>Node1&#45;&gt;Node8</title>
<path fill="none" stroke="midnightblue" d="M195.36,-280.257C203.856,-271.789 216.082,-258.181 223,-244 239.456,-210.266 246.021,-166.345 248.535,-141.768"/>
<polygon fill="midnightblue" stroke="midnightblue" points="252.033,-141.939 249.447,-131.664 245.062,-141.309 252.033,-141.939"/>
</g>
<!-- Node3 -->
<g id="node5" class="node"><title>Node3</title>
<a xlink:href="ThermoPhase_8h.html" target="_top" xlink:title="Header file for class ThermoPhase, the base class for phases with thermodynamic properties, and the text for the Module thermoprops (see Thermodynamic Properties and class ThermoPhase).">
<polygon fill="white" stroke="black" points="74.5,-168.5 74.5,-187.5 163.5,-187.5 163.5,-168.5 74.5,-168.5"/>
<text text-anchor="middle" x="119" y="-175.5" font-family="FreeSans" font-size="10.00">ThermoPhase.h</text>
</a>
</g>
<!-- Node2&#45;&gt;Node3 -->
<g id="edge4" class="edge"><title>Node2&#45;&gt;Node3</title>
<path fill="none" stroke="midnightblue" d="M125.679,-224.083C124.619,-216.927 123.094,-206.635 121.769,-197.691"/>
<polygon fill="midnightblue" stroke="midnightblue" points="125.224,-197.13 120.296,-187.751 118.3,-198.156 125.224,-197.13"/>
</g>
<!-- Node4 -->
<g id="node7" class="node"><title>Node4</title>
<a xlink:href="Phase_8h.html" target="_top" xlink:title="Header file for class Phase.">
<polygon fill="white" stroke="red" points="-0.5,-112.5 -0.5,-131.5 52.5,-131.5 52.5,-112.5 -0.5,-112.5"/>
<text text-anchor="middle" x="26" y="-119.5" font-family="FreeSans" font-size="10.00">Phase.h</text>
</a>
</g>
<!-- Node3&#45;&gt;Node4 -->
<g id="edge6" class="edge"><title>Node3&#45;&gt;Node4</title>
<path fill="none" stroke="midnightblue" d="M104.058,-168.324C89.4148,-159.822 66.8663,-146.729 49.7623,-136.797"/>
<polygon fill="midnightblue" stroke="midnightblue" points="51.3104,-133.649 40.905,-131.655 47.7954,-139.703 51.3104,-133.649"/>
</g>
<!-- Node5 -->
<g id="node9" class="node"><title>Node5</title>
<a xlink:href="SpeciesThermo_8h.html" target="_top" xlink:title="Virtual base class for the calculation of multiple&#45;species thermodynamic reference&#45;state property man...">
<polygon fill="white" stroke="black" points="70.5,-112.5 70.5,-131.5 167.5,-131.5 167.5,-112.5 70.5,-112.5"/>
<text text-anchor="middle" x="119" y="-119.5" font-family="FreeSans" font-size="10.00">SpeciesThermo.h</text>
</a>
</g>
<!-- Node3&#45;&gt;Node5 -->
<g id="edge8" class="edge"><title>Node3&#45;&gt;Node5</title>
<path fill="none" stroke="midnightblue" d="M119,-168.083C119,-161.006 119,-150.861 119,-141.986"/>
<polygon fill="midnightblue" stroke="midnightblue" points="122.5,-141.751 119,-131.751 115.5,-141.751 122.5,-141.751"/>
</g>
<!-- Node6 -->
<g id="node11" class="node"><title>Node6</title>
<a xlink:href="ct__defs_8h.html" target="_top" xlink:title="This file contains definitions of terms that are used in internal routines and are unlikely to need m...">
<polygon fill="white" stroke="red" points="166,-56.5 166,-75.5 222,-75.5 222,-56.5 166,-56.5"/>
<text text-anchor="middle" x="194" y="-63.5" font-family="FreeSans" font-size="10.00">ct_defs.h</text>
</a>
</g>
<!-- Node5&#45;&gt;Node6 -->
<g id="edge10" class="edge"><title>Node5&#45;&gt;Node6</title>
<path fill="none" stroke="midnightblue" d="M131.05,-112.324C142.463,-104.107 159.831,-91.6017 173.435,-81.8069"/>
<polygon fill="midnightblue" stroke="midnightblue" points="175.66,-84.5174 181.731,-75.8339 171.57,-78.8366 175.66,-84.5174"/>
</g>
<!-- Node7 -->
<g id="node13" class="node"><title>Node7</title>
<polygon fill="white" stroke="#bfbfbf" points="201.5,-0.5 201.5,-19.5 242.5,-19.5 242.5,-0.5 201.5,-0.5"/>
<text text-anchor="middle" x="222" y="-7.5" font-family="FreeSans" font-size="10.00">string</text>
</g>
<!-- Node6&#45;&gt;Node7 -->
<g id="edge12" class="edge"><title>Node6&#45;&gt;Node7</title>
<path fill="none" stroke="midnightblue" d="M198.624,-56.083C202.456,-48.6913 208.024,-37.9533 212.765,-28.8111"/>
<polygon fill="midnightblue" stroke="midnightblue" points="215.966,-30.2398 217.462,-19.7511 209.752,-27.0175 215.966,-30.2398"/>
</g>
<!-- Node8&#45;&gt;Node6 -->
<g id="edge16" class="edge"><title>Node8&#45;&gt;Node6</title>
<path fill="none" stroke="midnightblue" d="M241.003,-112.324C232.806,-104.42 220.494,-92.5482 210.528,-82.9377"/>
<polygon fill="midnightblue" stroke="midnightblue" points="212.789,-80.2558 203.161,-75.8339 207.93,-85.2947 212.789,-80.2558"/>
</g>
<!-- Node8&#45;&gt;Node7 -->
<g id="edge18" class="edge"><title>Node8&#45;&gt;Node7</title>
<path fill="none" stroke="midnightblue" d="M247.803,-112.368C243.284,-94.617 232.861,-53.6664 226.734,-29.5974"/>
<polygon fill="midnightblue" stroke="midnightblue" points="230.046,-28.419 224.187,-19.5914 223.262,-30.1458 230.046,-28.419"/>
</g>
</g>
</svg>
