<?xml version="1.0" encoding="UTF-8" standalone="no"?>
<!DOCTYPE svg PUBLIC "-//W3C//DTD SVG 1.1//EN"
 "http://www.w3.org/Graphics/SVG/1.1/DTD/svg11.dtd">
<!-- Generated by graphviz version 2.28.0 (20120425.2022)
 -->
<!-- Title: solveSP.h Pages: 1 -->
<svg width="1047pt" height="388pt"
 viewBox="0.00 0.00 1047.39 388.00" xmlns="http://www.w3.org/2000/svg" xmlns:xlink="http://www.w3.org/1999/xlink">
<g id="graph1" class="graph" transform="scale(1 1) rotate(0) translate(4 384)">
<title>solveSP.h</title>
<polygon fill="white" stroke="white" points="-4,5 -4,-384 1044.39,-384 1044.39,5 -4,5"/>
<!-- Node1 -->
<g id="node1" class="node"><title>Node1</title>
<polygon fill="#bfbfbf" stroke="black" points="504.394,-360.5 504.394,-379.5 566.394,-379.5 566.394,-360.5 504.394,-360.5"/>
<text text-anchor="middle" x="535.394" y="-367.5" font-family="FreeSans" font-size="10.00">solveSP.h</text>
</g>
<!-- Node2 -->
<g id="node3" class="node"><title>Node2</title>
<a xlink:href="ImplicitSurfChem_8h.html" target="_top" xlink:title="Declarations for the implicit integration of surface site density equations (see Kinetics Managers an...">
<polygon fill="white" stroke="black" points="486.394,-304.5 486.394,-323.5 584.394,-323.5 584.394,-304.5 486.394,-304.5"/>
<text text-anchor="middle" x="535.394" y="-311.5" font-family="FreeSans" font-size="10.00">ImplicitSurfChem.h</text>
</a>
</g>
<!-- Node1&#45;&gt;Node2 -->
<g id="edge2" class="edge"><title>Node1&#45;&gt;Node2</title>
<path fill="none" stroke="midnightblue" d="M530.228,-360.083C528.718,-352.927 528.288,-342.635 528.937,-333.691"/>
<polygon fill="midnightblue" stroke="midnightblue" points="532.409,-334.126 530.263,-323.751 525.471,-333.2 532.409,-334.126"/>
</g>
<!-- Node7 -->
<g id="node13" class="node"><title>Node7</title>
<polygon fill="white" stroke="#bfbfbf" points="909.394,-0.5 909.394,-19.5 953.394,-19.5 953.394,-0.5 909.394,-0.5"/>
<text text-anchor="middle" x="931.394" y="-7.5" font-family="FreeSans" font-size="10.00">vector</text>
</g>
<!-- Node1&#45;&gt;Node7 -->
<g id="edge68" class="edge"><title>Node1&#45;&gt;Node7</title>
<path fill="none" stroke="midnightblue" d="M566.541,-368.535C676.425,-366.067 1039.39,-350.532 1039.39,-253 1039.39,-253 1039.39,-253 1039.39,-127 1039.39,-79.4164 990.113,-43.187 958.13,-24.685"/>
<polygon fill="midnightblue" stroke="midnightblue" points="959.668,-21.5356 949.228,-19.7302 956.264,-27.6519 959.668,-21.5356"/>
</g>
<!-- Node11 -->
<g id="node24" class="node"><title>Node11</title>
<a xlink:href="InterfaceKinetics_8h.html" target="_top" xlink:title="cantera/kinetics/Interface\lKinetics.h">
<polygon fill="white" stroke="black" points="284.394,-237 284.394,-267 412.394,-267 412.394,-237 284.394,-237"/>
<text text-anchor="start" x="292.394" y="-255" font-family="FreeSans" font-size="10.00">cantera/kinetics/Interface</text>
<text text-anchor="middle" x="348.394" y="-244" font-family="FreeSans" font-size="10.00">Kinetics.h</text>
</a>
</g>
<!-- Node1&#45;&gt;Node11 -->
<g id="edge66" class="edge"><title>Node1&#45;&gt;Node11</title>
<path fill="none" stroke="midnightblue" d="M521.644,-360.47C491.94,-342.045 421.136,-298.123 379.822,-272.495"/>
<polygon fill="midnightblue" stroke="midnightblue" points="381.575,-269.464 371.232,-267.167 377.885,-275.412 381.575,-269.464"/>
</g>
<!-- Node20 -->
<g id="node55" class="node"><title>Node20</title>
<a xlink:href="Array_8h.html" target="_top" xlink:title="Header file for class Array2D.">
<polygon fill="white" stroke="red" points="72.3941,-180.5 72.3941,-199.5 120.394,-199.5 120.394,-180.5 72.3941,-180.5"/>
<text text-anchor="middle" x="96.3941" y="-187.5" font-family="FreeSans" font-size="10.00">Array.h</text>
</a>
</g>
<!-- Node1&#45;&gt;Node20 -->
<g id="edge70" class="edge"><title>Node1&#45;&gt;Node20</title>
<path fill="none" stroke="midnightblue" d="M512.681,-360.489C467.361,-343.439 362.566,-303.668 275.394,-268 221.876,-246.102 160.024,-219.119 124.827,-203.603"/>
<polygon fill="midnightblue" stroke="midnightblue" points="126.197,-200.382 115.635,-199.545 123.37,-206.786 126.197,-200.382"/>
</g>
<!-- Node2&#45;&gt;Node1 -->
<g id="edge64" class="edge"><title>Node2&#45;&gt;Node1</title>
<path fill="none" stroke="midnightblue" d="M540.525,-323.751C542.051,-330.858 542.498,-341.136 541.867,-350.101"/>
<polygon fill="midnightblue" stroke="midnightblue" points="538.387,-349.713 540.56,-360.083 545.328,-350.622 538.387,-349.713"/>
</g>
<!-- Node3 -->
<g id="node5" class="node"><title>Node3</title>
<a xlink:href="FuncEval_8h.html" target="_top" xlink:title="cantera/numerics/FuncEval.h">
<polygon fill="white" stroke="black" points="659.394,-118.5 659.394,-137.5 803.394,-137.5 803.394,-118.5 659.394,-118.5"/>
<text text-anchor="middle" x="731.394" y="-125.5" font-family="FreeSans" font-size="10.00">cantera/numerics/FuncEval.h</text>
</a>
</g>
<!-- Node2&#45;&gt;Node3 -->
<g id="edge4" class="edge"><title>Node2&#45;&gt;Node3</title>
<path fill="none" stroke="midnightblue" d="M544.585,-304.372C575.314,-275.524 674.787,-182.142 714.648,-144.721"/>
<polygon fill="midnightblue" stroke="midnightblue" points="717.1,-147.22 721.995,-137.823 712.309,-142.116 717.1,-147.22"/>
</g>
<!-- Node9 -->
<g id="node17" class="node"><title>Node9</title>
<a xlink:href="Integrator_8h.html" target="_top" xlink:title="cantera/numerics/Integrator.h">
<polygon fill="white" stroke="black" points="768.394,-180.5 768.394,-199.5 914.394,-199.5 914.394,-180.5 768.394,-180.5"/>
<text text-anchor="middle" x="841.394" y="-187.5" font-family="FreeSans" font-size="10.00">cantera/numerics/Integrator.h</text>
</a>
</g>
<!-- Node2&#45;&gt;Node9 -->
<g id="edge16" class="edge"><title>Node2&#45;&gt;Node9</title>
<path fill="none" stroke="midnightblue" d="M584.719,-304.998C621.873,-297.964 673.558,-286.004 716.394,-268 756.19,-251.274 798.04,-222.977 821.808,-205.741"/>
<polygon fill="midnightblue" stroke="midnightblue" points="824.008,-208.467 829.991,-199.723 819.861,-202.828 824.008,-208.467"/>
</g>
<!-- Node2&#45;&gt;Node11 -->
<g id="edge26" class="edge"><title>Node2&#45;&gt;Node11</title>
<path fill="none" stroke="midnightblue" d="M508.602,-304.403C480.816,-295.488 436.63,-281.311 401.694,-270.101"/>
<polygon fill="midnightblue" stroke="midnightblue" points="402.698,-266.748 392.106,-267.025 400.559,-273.413 402.698,-266.748"/>
</g>
<!-- Node19 -->
<g id="node48" class="node"><title>Node19</title>
<a xlink:href="SurfPhase_8h.html" target="_top" xlink:title="Header for a simple thermodynamics model of a surface phase derived from ThermoPhase, assuming an ideal solution model (see Thermodynamic Properties and class SurfPhase).">
<polygon fill="white" stroke="black" points="464.894,-180.5 464.894,-199.5 605.894,-199.5 605.894,-180.5 464.894,-180.5"/>
<text text-anchor="middle" x="535.394" y="-187.5" font-family="FreeSans" font-size="10.00">cantera/thermo/SurfPhase.h</text>
</a>
</g>
<!-- Node2&#45;&gt;Node19 -->
<g id="edge58" class="edge"><title>Node2&#45;&gt;Node19</title>
<path fill="none" stroke="midnightblue" d="M535.394,-304.226C535.394,-284.53 535.394,-236.437 535.394,-209.7"/>
<polygon fill="midnightblue" stroke="midnightblue" points="538.894,-209.694 535.394,-199.694 531.894,-209.694 538.894,-209.694"/>
</g>
<!-- Node4 -->
<g id="node7" class="node"><title>Node4</title>
<a xlink:href="ct__defs_8h.html" target="_top" xlink:title="This file contains definitions of terms that are used in internal routines and are unlikely to need m...">
<polygon fill="white" stroke="red" points="526.894,-56.5 526.894,-75.5 645.894,-75.5 645.894,-56.5 526.894,-56.5"/>
<text text-anchor="middle" x="586.394" y="-63.5" font-family="FreeSans" font-size="10.00">cantera/base/ct_defs.h</text>
</a>
</g>
<!-- Node3&#45;&gt;Node4 -->
<g id="edge6" class="edge"><title>Node3&#45;&gt;Node4</title>
<path fill="none" stroke="midnightblue" d="M710.619,-118.403C685.962,-108.2 644.649,-91.1055 616.492,-79.4544"/>
<polygon fill="midnightblue" stroke="midnightblue" points="617.709,-76.1701 607.131,-75.5806 615.032,-82.6382 617.709,-76.1701"/>
</g>
<!-- Node5 -->
<g id="node9" class="node"><title>Node5</title>
<polygon fill="white" stroke="#bfbfbf" points="652.394,-0.5 652.394,-19.5 696.394,-19.5 696.394,-0.5 652.394,-0.5"/>
<text text-anchor="middle" x="674.394" y="-7.5" font-family="FreeSans" font-size="10.00">cmath</text>
</g>
<!-- Node4&#45;&gt;Node5 -->
<g id="edge8" class="edge"><title>Node4&#45;&gt;Node5</title>
<path fill="none" stroke="midnightblue" d="M600.533,-56.324C614.26,-47.9002 635.33,-34.9709 651.458,-25.0741"/>
<polygon fill="midnightblue" stroke="midnightblue" points="653.598,-27.8678 660.29,-19.6545 649.937,-21.9016 653.598,-27.8678"/>
</g>
<!-- Node6 -->
<g id="node11" class="node"><title>Node6</title>
<polygon fill="white" stroke="#bfbfbf" points="474.894,-0.5 474.894,-19.5 519.894,-19.5 519.894,-0.5 474.894,-0.5"/>
<text text-anchor="middle" x="497.394" y="-7.5" font-family="FreeSans" font-size="10.00">cstdlib</text>
</g>
<!-- Node4&#45;&gt;Node6 -->
<g id="edge10" class="edge"><title>Node4&#45;&gt;Node6</title>
<path fill="none" stroke="midnightblue" d="M572.095,-56.324C558.211,-47.9002 536.902,-34.9709 520.59,-25.0741"/>
<polygon fill="midnightblue" stroke="midnightblue" points="522.023,-21.8495 511.658,-19.6545 518.392,-27.8341 522.023,-21.8495"/>
</g>
<!-- Node4&#45;&gt;Node7 -->
<g id="edge12" class="edge"><title>Node4&#45;&gt;Node7</title>
<path fill="none" stroke="midnightblue" d="M641.06,-56.4435C713.832,-45.0533 840.196,-25.2745 899.25,-16.0312"/>
<polygon fill="midnightblue" stroke="midnightblue" points="899.795,-19.4887 909.133,-14.4843 898.712,-12.5729 899.795,-19.4887"/>
</g>
<!-- Node8 -->
<g id="node15" class="node"><title>Node8</title>
<polygon fill="white" stroke="#bfbfbf" points="191.394,-0.5 191.394,-19.5 227.394,-19.5 227.394,-0.5 191.394,-0.5"/>
<text text-anchor="middle" x="209.394" y="-7.5" font-family="FreeSans" font-size="10.00">map</text>
</g>
<!-- Node4&#45;&gt;Node8 -->
<g id="edge14" class="edge"><title>Node4&#45;&gt;Node8</title>
<path fill="none" stroke="midnightblue" d="M526.657,-56.4435C444.198,-44.6324 298.768,-23.8016 237.675,-15.0508"/>
<polygon fill="midnightblue" stroke="midnightblue" points="238.01,-11.5631 227.614,-13.6098 237.017,-18.4924 238.01,-11.5631"/>
</g>
<!-- Node9&#45;&gt;Node3 -->
<g id="edge18" class="edge"><title>Node9&#45;&gt;Node3</title>
<path fill="none" stroke="midnightblue" d="M825.634,-180.403C807.418,-170.468 777.221,-153.997 755.926,-142.381"/>
<polygon fill="midnightblue" stroke="midnightblue" points="757.58,-139.297 747.125,-137.581 754.228,-145.442 757.58,-139.297"/>
</g>
<!-- Node9&#45;&gt;Node4 -->
<g id="edge20" class="edge"><title>Node9&#45;&gt;Node4</title>
<path fill="none" stroke="midnightblue" d="M888.727,-180.422C909.497,-174.051 931.946,-163.023 944.394,-144 952.182,-132.099 953.803,-122.665 944.394,-112 925.683,-90.7896 755.185,-77.1092 656.385,-70.891"/>
<polygon fill="midnightblue" stroke="midnightblue" points="656.372,-67.3836 646.175,-70.2589 655.94,-74.3702 656.372,-67.3836"/>
</g>
<!-- Node10 -->
<g id="node21" class="node"><title>Node10</title>
<a xlink:href="global_8h.html" target="_top" xlink:title="This file contains definitions for utility functions and text for modules, inputfiles, logs, textlogs, HTML_logs (see Input File Handling, Diagnostic Output, Writing messages to the screen and Writing HTML Logfiles).">
<polygon fill="white" stroke="black" points="821.394,-118.5 821.394,-137.5 935.394,-137.5 935.394,-118.5 821.394,-118.5"/>
<text text-anchor="middle" x="878.394" y="-125.5" font-family="FreeSans" font-size="10.00">cantera/base/global.h</text>
</a>
</g>
<!-- Node9&#45;&gt;Node10 -->
<g id="edge22" class="edge"><title>Node9&#45;&gt;Node10</title>
<path fill="none" stroke="midnightblue" d="M846.695,-180.403C852.19,-171.493 860.927,-157.325 867.838,-146.118"/>
<polygon fill="midnightblue" stroke="midnightblue" points="870.833,-147.929 873.103,-137.581 864.875,-144.255 870.833,-147.929"/>
</g>
<!-- Node10&#45;&gt;Node4 -->
<g id="edge24" class="edge"><title>Node10&#45;&gt;Node4</title>
<path fill="none" stroke="midnightblue" d="M841.777,-118.493C832.224,-116.325 821.933,-114.033 812.394,-112 754.01,-99.5553 686.906,-86.3297 641.082,-77.4614"/>
<polygon fill="midnightblue" stroke="midnightblue" points="641.546,-73.9863 631.064,-75.5263 640.218,-80.8593 641.546,-73.9863"/>
</g>
<!-- Node11&#45;&gt;Node5 -->
<g id="edge54" class="edge"><title>Node11&#45;&gt;Node5</title>
<path fill="none" stroke="midnightblue" d="M412.414,-248.366C553.068,-242.146 880.018,-225.151 923.394,-200 960.403,-178.541 987.138,-146.898 962.394,-112 903.128,-28.4105 769.052,-13.4748 707.014,-11.1691"/>
<polygon fill="midnightblue" stroke="midnightblue" points="706.745,-7.66028 696.65,-10.8783 706.548,-14.6575 706.745,-7.66028"/>
</g>
<!-- Node11&#45;&gt;Node6 -->
<g id="edge56" class="edge"><title>Node11&#45;&gt;Node6</title>
<path fill="none" stroke="midnightblue" d="M284.122,-248.766C208.873,-244.641 90.9772,-232.957 63.3941,-200 57.6891,-193.183 61.5607,-188.698 63.3941,-180 70.2073,-147.678 68.1323,-133.284 93.3941,-112 150.583,-63.8163 379.161,-27.5521 464.787,-15.4078"/>
<polygon fill="midnightblue" stroke="midnightblue" points="465.314,-18.8682 474.732,-14.015 464.344,-11.9358 465.314,-18.8682"/>
</g>
<!-- Node11&#45;&gt;Node8 -->
<g id="edge30" class="edge"><title>Node11&#45;&gt;Node8</title>
<path fill="none" stroke="midnightblue" d="M284.345,-250.153C201.041,-247.538 62.3586,-237.499 30.3941,-200 -11.1233,-151.294 -8.95913,-106.471 30.3941,-56 48.7718,-32.4303 135.414,-19.3161 181.074,-13.935"/>
<polygon fill="midnightblue" stroke="midnightblue" points="181.666,-17.3904 191.209,-12.7885 180.879,-10.4348 181.666,-17.3904"/>
</g>
<!-- Node12 -->
<g id="node26" class="node"><title>Node12</title>
<polygon fill="white" stroke="#bfbfbf" points="396.394,-180.5 396.394,-199.5 446.394,-199.5 446.394,-180.5 396.394,-180.5"/>
<text text-anchor="middle" x="421.394" y="-187.5" font-family="FreeSans" font-size="10.00">fstream</text>
</g>
<!-- Node11&#45;&gt;Node12 -->
<g id="edge28" class="edge"><title>Node11&#45;&gt;Node12</title>
<path fill="none" stroke="midnightblue" d="M365.694,-236.781C376.849,-227.613 391.348,-215.696 402.756,-206.319"/>
<polygon fill="midnightblue" stroke="midnightblue" points="405.269,-208.784 410.772,-199.731 400.824,-203.376 405.269,-208.784"/>
</g>
<!-- Node13 -->
<g id="node29" class="node"><title>Node13</title>
<a xlink:href="mix__defs_8h_source.html" target="_top" xlink:title="cantera/thermo/mix\l_defs.h">
<polygon fill="white" stroke="black" points="231.894,-113 231.894,-143 334.894,-143 334.894,-113 231.894,-113"/>
<text text-anchor="start" x="239.894" y="-131" font-family="FreeSans" font-size="10.00">cantera/thermo/mix</text>
<text text-anchor="middle" x="283.394" y="-120" font-family="FreeSans" font-size="10.00">_defs.h</text>
</a>
</g>
<!-- Node11&#45;&gt;Node13 -->
<g id="edge32" class="edge"><title>Node11&#45;&gt;Node13</title>
<path fill="none" stroke="midnightblue" d="M335.527,-236.647C327.238,-226.852 316.687,-213.289 309.394,-200 301.241,-185.144 294.699,-167.217 290.217,-153.093"/>
<polygon fill="midnightblue" stroke="midnightblue" points="293.452,-151.7 287.198,-143.148 286.753,-153.733 293.452,-151.7"/>
</g>
<!-- Node14 -->
<g id="node31" class="node"><title>Node14</title>
<a xlink:href="Kinetics_8h.html" target="_top" xlink:title="Base class for kinetics managers and also contains the kineticsmgr module documentation (see Kinetics...">
<polygon fill="white" stroke="red" points="318.894,-180.5 318.894,-199.5 377.894,-199.5 377.894,-180.5 318.894,-180.5"/>
<text text-anchor="middle" x="348.394" y="-187.5" font-family="FreeSans" font-size="10.00">Kinetics.h</text>
</a>
</g>
<!-- Node11&#45;&gt;Node14 -->
<g id="edge34" class="edge"><title>Node11&#45;&gt;Node14</title>
<path fill="none" stroke="midnightblue" d="M348.394,-236.781C348.394,-228.781 348.394,-218.689 348.394,-210.017"/>
<polygon fill="midnightblue" stroke="midnightblue" points="351.894,-209.73 348.394,-199.731 344.894,-209.731 351.894,-209.73"/>
</g>
<!-- Node16 -->
<g id="node36" class="node"><title>Node16</title>
<a xlink:href="utilities_8h.html" target="_top" xlink:title="Various templated functions that carry out common vector operations (see globalUtilFuncs).">
<polygon fill="white" stroke="red" points="121.394,-118.5 121.394,-137.5 175.394,-137.5 175.394,-118.5 121.394,-118.5"/>
<text text-anchor="middle" x="148.394" y="-125.5" font-family="FreeSans" font-size="10.00">utilities.h</text>
</a>
</g>
<!-- Node11&#45;&gt;Node16 -->
<g id="edge40" class="edge"><title>Node11&#45;&gt;Node16</title>
<path fill="none" stroke="midnightblue" d="M284.317,-248.396C245.557,-243.463 197.894,-230.905 167.394,-200 153.835,-186.261 149.666,-163.966 148.524,-148.025"/>
<polygon fill="midnightblue" stroke="midnightblue" points="152.011,-147.614 148.137,-137.753 145.016,-147.878 152.011,-147.614"/>
</g>
<!-- Node17 -->
<g id="node39" class="node"><title>Node17</title>
<a xlink:href="RateCoeffMgr_8h.html" target="_top" xlink:title="RateCoeffMgr.h">
<polygon fill="white" stroke="red" points="176.394,-180.5 176.394,-199.5 262.394,-199.5 262.394,-180.5 176.394,-180.5"/>
<text text-anchor="middle" x="219.394" y="-187.5" font-family="FreeSans" font-size="10.00">RateCoeffMgr.h</text>
</a>
</g>
<!-- Node11&#45;&gt;Node17 -->
<g id="edge44" class="edge"><title>Node11&#45;&gt;Node17</title>
<path fill="none" stroke="midnightblue" d="M318.149,-236.933C296.677,-226.946 268.07,-213.64 247.173,-203.92"/>
<polygon fill="midnightblue" stroke="midnightblue" points="248.427,-200.644 237.884,-199.6 245.475,-206.991 248.427,-200.644"/>
</g>
<!-- Node18 -->
<g id="node43" class="node"><title>Node18</title>
<a xlink:href="ReactionStoichMgr_8h.html" target="_top" xlink:title="Header file declaring class ReactionStoichMgr.">
<polygon fill="white" stroke="red" points="531.894,-118.5 531.894,-137.5 640.894,-137.5 640.894,-118.5 531.894,-118.5"/>
<text text-anchor="middle" x="586.394" y="-125.5" font-family="FreeSans" font-size="10.00">ReactionStoichMgr.h</text>
</a>
</g>
<!-- Node11&#45;&gt;Node18 -->
<g id="edge50" class="edge"><title>Node11&#45;&gt;Node18</title>
<path fill="none" stroke="midnightblue" d="M412.474,-247.835C482.855,-242.858 589.269,-230.4 614.394,-200 627.642,-183.971 614.124,-160.912 601.678,-145.466"/>
<polygon fill="midnightblue" stroke="midnightblue" points="604.226,-143.061 595.051,-137.761 598.919,-147.625 604.226,-143.061"/>
</g>
<!-- Node14&#45;&gt;Node13 -->
<g id="edge38" class="edge"><title>Node14&#45;&gt;Node13</title>
<path fill="none" stroke="midnightblue" d="M339.081,-180.403C330.525,-172.505 317.494,-160.477 306.188,-150.041"/>
<polygon fill="midnightblue" stroke="midnightblue" points="308.435,-147.352 298.713,-143.141 303.687,-152.495 308.435,-147.352"/>
</g>
<!-- Node15 -->
<g id="node33" class="node"><title>Node15</title>
<a xlink:href="ThermoPhase_8h.html" target="_top" xlink:title="Header file for class ThermoPhase, the base class for phases with thermodynamic properties, and the text for the Module thermoprops (see Thermodynamic Properties and class ThermoPhase).">
<polygon fill="white" stroke="red" points="353.394,-118.5 353.394,-137.5 513.394,-137.5 513.394,-118.5 353.394,-118.5"/>
<text text-anchor="middle" x="433.394" y="-125.5" font-family="FreeSans" font-size="10.00">cantera/thermo/ThermoPhase.h</text>
</a>
</g>
<!-- Node14&#45;&gt;Node15 -->
<g id="edge36" class="edge"><title>Node14&#45;&gt;Node15</title>
<path fill="none" stroke="midnightblue" d="M360.573,-180.403C374.206,-170.78 396.527,-155.024 412.868,-143.489"/>
<polygon fill="midnightblue" stroke="midnightblue" points="415.087,-146.207 421.238,-137.581 411.05,-140.488 415.087,-146.207"/>
</g>
<!-- Node16&#45;&gt;Node4 -->
<g id="edge42" class="edge"><title>Node16&#45;&gt;Node4</title>
<path fill="none" stroke="midnightblue" d="M168.959,-118.392C175.404,-115.99 182.607,-113.602 189.394,-112 301.975,-85.4262 436.346,-74.3782 516.346,-69.9049"/>
<polygon fill="midnightblue" stroke="midnightblue" points="516.989,-73.3753 526.785,-69.3413 516.611,-66.3855 516.989,-73.3753"/>
</g>
<!-- Node17&#45;&gt;Node4 -->
<g id="edge48" class="edge"><title>Node17&#45;&gt;Node4</title>
<path fill="none" stroke="midnightblue" d="M216.532,-180.267C211.942,-164.415 205.101,-130.811 222.394,-112 241.95,-90.7274 416.774,-76.9977 516.85,-70.8091"/>
<polygon fill="midnightblue" stroke="midnightblue" points="517.118,-74.2994 526.887,-70.1982 516.692,-67.3123 517.118,-74.2994"/>
</g>
<!-- Node17&#45;&gt;Node16 -->
<g id="edge46" class="edge"><title>Node17&#45;&gt;Node16</title>
<path fill="none" stroke="midnightblue" d="M209.222,-180.403C198.044,-170.958 179.877,-155.606 166.303,-144.134"/>
<polygon fill="midnightblue" stroke="midnightblue" points="168.445,-141.362 158.548,-137.581 163.927,-146.709 168.445,-141.362"/>
</g>
<!-- Node18&#45;&gt;Node4 -->
<g id="edge52" class="edge"><title>Node18&#45;&gt;Node4</title>
<path fill="none" stroke="midnightblue" d="M586.394,-118.403C586.394,-109.938 586.394,-96.7283 586.394,-85.8199"/>
<polygon fill="midnightblue" stroke="midnightblue" points="589.894,-85.5806 586.394,-75.5806 582.894,-85.5806 589.894,-85.5806"/>
</g>
<!-- Node19&#45;&gt;Node13 -->
<g id="edge60" class="edge"><title>Node19&#45;&gt;Node13</title>
<path fill="none" stroke="midnightblue" d="M498.753,-180.479C462.313,-171.98 404.548,-158.441 344.939,-144.119"/>
<polygon fill="midnightblue" stroke="midnightblue" points="345.511,-140.656 334.97,-141.72 343.874,-147.462 345.511,-140.656"/>
</g>
<!-- Node19&#45;&gt;Node15 -->
<g id="edge62" class="edge"><title>Node19&#45;&gt;Node15</title>
<path fill="none" stroke="midnightblue" d="M520.78,-180.403C504.041,-170.557 476.39,-154.291 456.675,-142.695"/>
<polygon fill="midnightblue" stroke="midnightblue" points="458.375,-139.634 447.981,-137.581 454.826,-145.668 458.375,-139.634"/>
</g>
<!-- Node20&#45;&gt;Node4 -->
<g id="edge72" class="edge"><title>Node20&#45;&gt;Node4</title>
<path fill="none" stroke="midnightblue" d="M95.2323,-180.248C93.6293,-164.056 92.8644,-129.488 112.394,-112 141.856,-85.6186 392.149,-73.5328 516.649,-69.1119"/>
<polygon fill="midnightblue" stroke="midnightblue" points="516.971,-72.6029 526.843,-68.757 516.727,-65.6071 516.971,-72.6029"/>
</g>
<!-- Node20&#45;&gt;Node16 -->
<g id="edge74" class="edge"><title>Node20&#45;&gt;Node16</title>
<path fill="none" stroke="midnightblue" d="M103.844,-180.403C111.722,-171.314 124.339,-156.756 134.138,-145.449"/>
<polygon fill="midnightblue" stroke="midnightblue" points="137.053,-147.43 140.958,-137.581 131.763,-142.845 137.053,-147.43"/>
</g>
</g>
</svg>
