<?xml version="1.0" encoding="UTF-8" standalone="no"?>
<!DOCTYPE svg PUBLIC "-//W3C//DTD SVG 1.1//EN"
 "http://www.w3.org/Graphics/SVG/1.1/DTD/svg11.dtd">
<!-- Generated by graphviz version 2.28.0 (20120425.2022)
 -->
<!-- Title: SpeciesThermoMgr.h Pages: 1 -->
<svg width="601pt" height="196pt"
 viewBox="0.00 0.00 601.00 196.00" xmlns="http://www.w3.org/2000/svg" xmlns:xlink="http://www.w3.org/1999/xlink">
<g id="graph1" class="graph" transform="scale(1 1) rotate(0) translate(4 192)">
<title>SpeciesThermoMgr.h</title>
<polygon fill="white" stroke="white" points="-4,5 -4,-192 598,-192 598,5 -4,5"/>
<!-- Node1 -->
<g id="node1" class="node"><title>Node1</title>
<polygon fill="#bfbfbf" stroke="black" points="200,-168.5 200,-187.5 314,-187.5 314,-168.5 200,-168.5"/>
<text text-anchor="middle" x="257" y="-175.5" font-family="FreeSans" font-size="10.00">SpeciesThermoMgr.h</text>
</g>
<!-- Node2 -->
<g id="node3" class="node"><title>Node2</title>
<a xlink:href="ct__defs_8h.html" target="_top" xlink:title="This file contains definitions of terms that are used in internal routines and are unlikely to need m...">
<polygon fill="white" stroke="black" points="109.5,-56.5 109.5,-75.5 228.5,-75.5 228.5,-56.5 109.5,-56.5"/>
<text text-anchor="middle" x="169" y="-63.5" font-family="FreeSans" font-size="10.00">cantera/base/ct_defs.h</text>
</a>
</g>
<!-- Node1&#45;&gt;Node2 -->
<g id="edge2" class="edge"><title>Node1&#45;&gt;Node2</title>
<path fill="none" stroke="midnightblue" d="M250.095,-168.368C235.508,-150.135 201.341,-107.426 182.34,-83.6752"/>
<polygon fill="midnightblue" stroke="midnightblue" points="184.853,-81.2137 175.873,-75.5914 179.387,-85.5866 184.853,-81.2137"/>
</g>
<!-- Node7 -->
<g id="node13" class="node"><title>Node7</title>
<polygon fill="white" stroke="#bfbfbf" points="257,-0.5 257,-19.5 293,-19.5 293,-0.5 257,-0.5"/>
<text text-anchor="middle" x="275" y="-7.5" font-family="FreeSans" font-size="10.00">map</text>
</g>
<!-- Node1&#45;&gt;Node7 -->
<g id="edge34" class="edge"><title>Node1&#45;&gt;Node7</title>
<path fill="none" stroke="midnightblue" d="M257.968,-168.075C260.801,-141.945 269.122,-65.2106 272.986,-29.577"/>
<polygon fill="midnightblue" stroke="midnightblue" points="276.472,-29.8872 274.071,-19.5681 269.513,-29.1325 276.472,-29.8872"/>
</g>
<!-- Node9 -->
<g id="node17" class="node"><title>Node9</title>
<a xlink:href="ctexceptions_8h.html" target="_top" xlink:title="Definitions for the classes that are thrown when Cantera experiences an error condition (also contain...">
<polygon fill="white" stroke="black" points="432.5,-112.5 432.5,-131.5 575.5,-131.5 575.5,-112.5 432.5,-112.5"/>
<text text-anchor="middle" x="504" y="-119.5" font-family="FreeSans" font-size="10.00">cantera/base/ctexceptions.h</text>
</a>
</g>
<!-- Node1&#45;&gt;Node9 -->
<g id="edge16" class="edge"><title>Node1&#45;&gt;Node9</title>
<path fill="none" stroke="midnightblue" d="M296.138,-168.444C339.226,-159.023 408.559,-143.866 455.171,-133.675"/>
<polygon fill="midnightblue" stroke="midnightblue" points="456.024,-137.072 465.045,-131.516 454.528,-130.233 456.024,-137.072"/>
</g>
<!-- Node12 -->
<g id="node24" class="node"><title>Node12</title>
<a xlink:href="stringUtils_8h.html" target="_top" xlink:title=" Contains declarations for string manipulation functions &#160;within Cantera.">
<polygon fill="white" stroke="black" points="285.5,-112.5 285.5,-131.5 414.5,-131.5 414.5,-112.5 285.5,-112.5"/>
<text text-anchor="middle" x="350" y="-119.5" font-family="FreeSans" font-size="10.00">cantera/base/stringUtils.h</text>
</a>
</g>
<!-- Node1&#45;&gt;Node12 -->
<g id="edge24" class="edge"><title>Node1&#45;&gt;Node12</title>
<path fill="none" stroke="midnightblue" d="M271.942,-168.324C286.585,-159.822 309.134,-146.729 326.238,-136.797"/>
<polygon fill="midnightblue" stroke="midnightblue" points="328.205,-139.703 335.095,-131.655 324.69,-133.649 328.205,-139.703"/>
</g>
<!-- Node13 -->
<g id="node28" class="node"><title>Node13</title>
<a xlink:href="SpeciesThermo_8h.html" target="_top" xlink:title="Virtual base class for the calculation of multiple&#45;species thermodynamic reference&#45;state property man...">
<polygon fill="white" stroke="black" points="93.5,-112.5 93.5,-131.5 190.5,-131.5 190.5,-112.5 93.5,-112.5"/>
<text text-anchor="middle" x="142" y="-119.5" font-family="FreeSans" font-size="10.00">SpeciesThermo.h</text>
</a>
</g>
<!-- Node1&#45;&gt;Node13 -->
<g id="edge30" class="edge"><title>Node1&#45;&gt;Node13</title>
<path fill="none" stroke="midnightblue" d="M238.778,-168.444C220.104,-159.675 190.844,-145.935 169.383,-135.858"/>
<polygon fill="midnightblue" stroke="midnightblue" points="170.676,-132.599 160.137,-131.516 167.701,-138.935 170.676,-132.599"/>
</g>
<!-- Node3 -->
<g id="node5" class="node"><title>Node3</title>
<a xlink:href="config_8h_source.html" target="_top" xlink:title="config.h">
<polygon fill="white" stroke="black" points="125.5,-0.5 125.5,-19.5 176.5,-19.5 176.5,-0.5 125.5,-0.5"/>
<text text-anchor="middle" x="151" y="-7.5" font-family="FreeSans" font-size="10.00">config.h</text>
</a>
</g>
<!-- Node2&#45;&gt;Node3 -->
<g id="edge4" class="edge"><title>Node2&#45;&gt;Node3</title>
<path fill="none" stroke="midnightblue" d="M166.028,-56.083C163.616,-48.8486 160.136,-38.4087 157.132,-29.3968"/>
<polygon fill="midnightblue" stroke="midnightblue" points="160.4,-28.1311 153.917,-19.7511 153.759,-30.3447 160.4,-28.1311"/>
</g>
<!-- Node4 -->
<g id="node7" class="node"><title>Node4</title>
<polygon fill="white" stroke="#bfbfbf" points="195,-0.5 195,-19.5 239,-19.5 239,-0.5 195,-0.5"/>
<text text-anchor="middle" x="217" y="-7.5" font-family="FreeSans" font-size="10.00">cmath</text>
</g>
<!-- Node2&#45;&gt;Node4 -->
<g id="edge6" class="edge"><title>Node2&#45;&gt;Node4</title>
<path fill="none" stroke="midnightblue" d="M176.926,-56.083C183.846,-48.2982 194.065,-36.8015 202.452,-27.3665"/>
<polygon fill="midnightblue" stroke="midnightblue" points="205.194,-29.5505 209.221,-19.7511 199.962,-24.8999 205.194,-29.5505"/>
</g>
<!-- Node5 -->
<g id="node9" class="node"><title>Node5</title>
<polygon fill="white" stroke="#bfbfbf" points="-0.5,-0.5 -0.5,-19.5 44.5,-19.5 44.5,-0.5 -0.5,-0.5"/>
<text text-anchor="middle" x="22" y="-7.5" font-family="FreeSans" font-size="10.00">cstdlib</text>
</g>
<!-- Node2&#45;&gt;Node5 -->
<g id="edge8" class="edge"><title>Node2&#45;&gt;Node5</title>
<path fill="none" stroke="midnightblue" d="M145.707,-56.4435C121.048,-47.3851 81.9469,-33.0213 54.3142,-22.8705"/>
<polygon fill="midnightblue" stroke="midnightblue" points="55.2942,-19.5019 44.7006,-19.339 52.8804,-26.0726 55.2942,-19.5019"/>
</g>
<!-- Node6 -->
<g id="node11" class="node"><title>Node6</title>
<polygon fill="white" stroke="#bfbfbf" points="63,-0.5 63,-19.5 107,-19.5 107,-0.5 63,-0.5"/>
<text text-anchor="middle" x="85" y="-7.5" font-family="FreeSans" font-size="10.00">vector</text>
</g>
<!-- Node2&#45;&gt;Node6 -->
<g id="edge10" class="edge"><title>Node2&#45;&gt;Node6</title>
<path fill="none" stroke="midnightblue" d="M155.504,-56.324C142.4,-47.9002 122.288,-34.9709 106.893,-25.0741"/>
<polygon fill="midnightblue" stroke="midnightblue" points="108.767,-22.118 98.4626,-19.6545 104.982,-28.0063 108.767,-22.118"/>
</g>
<!-- Node2&#45;&gt;Node7 -->
<g id="edge12" class="edge"><title>Node2&#45;&gt;Node7</title>
<path fill="none" stroke="midnightblue" d="M186.031,-56.324C203.03,-47.6641 229.376,-34.2424 248.993,-24.249"/>
<polygon fill="midnightblue" stroke="midnightblue" points="250.69,-27.3125 258.012,-19.6545 247.512,-21.0752 250.69,-27.3125"/>
</g>
<!-- Node8 -->
<g id="node15" class="node"><title>Node8</title>
<polygon fill="white" stroke="#bfbfbf" points="329.5,-0.5 329.5,-19.5 370.5,-19.5 370.5,-0.5 329.5,-0.5"/>
<text text-anchor="middle" x="350" y="-7.5" font-family="FreeSans" font-size="10.00">string</text>
</g>
<!-- Node2&#45;&gt;Node8 -->
<g id="edge14" class="edge"><title>Node2&#45;&gt;Node8</title>
<path fill="none" stroke="midnightblue" d="M197.68,-56.4435C230.924,-46.5255 285.486,-30.2473 319.49,-20.1025"/>
<polygon fill="midnightblue" stroke="midnightblue" points="320.754,-23.3778 329.336,-17.1649 318.753,-16.6699 320.754,-23.3778"/>
</g>
<!-- Node9&#45;&gt;Node8 -->
<g id="edge22" class="edge"><title>Node9&#45;&gt;Node8</title>
<path fill="none" stroke="midnightblue" d="M491.916,-112.368C465.602,-93.5728 402.876,-48.7684 370.347,-25.5334"/>
<polygon fill="midnightblue" stroke="midnightblue" points="372.2,-22.5558 362.028,-19.5914 368.131,-28.2519 372.2,-22.5558"/>
</g>
<!-- Node10 -->
<g id="node19" class="node"><title>Node10</title>
<polygon fill="white" stroke="#bfbfbf" points="459,-56.5 459,-75.5 519,-75.5 519,-56.5 459,-56.5"/>
<text text-anchor="middle" x="489" y="-63.5" font-family="FreeSans" font-size="10.00">exception</text>
</g>
<!-- Node9&#45;&gt;Node10 -->
<g id="edge18" class="edge"><title>Node9&#45;&gt;Node10</title>
<path fill="none" stroke="midnightblue" d="M501.523,-112.083C499.514,-104.849 496.614,-94.4087 494.11,-85.3968"/>
<polygon fill="midnightblue" stroke="midnightblue" points="497.48,-84.4495 491.431,-75.7511 490.735,-86.323 497.48,-84.4495"/>
</g>
<!-- Node11 -->
<g id="node21" class="node"><title>Node11</title>
<polygon fill="white" stroke="#bfbfbf" points="537,-56.5 537,-75.5 593,-75.5 593,-56.5 537,-56.5"/>
<text text-anchor="middle" x="565" y="-63.5" font-family="FreeSans" font-size="10.00">iostream</text>
</g>
<!-- Node9&#45;&gt;Node11 -->
<g id="edge20" class="edge"><title>Node9&#45;&gt;Node11</title>
<path fill="none" stroke="midnightblue" d="M513.801,-112.324C522.818,-104.341 536.406,-92.3128 547.318,-82.6529"/>
<polygon fill="midnightblue" stroke="midnightblue" points="549.853,-85.083 555.021,-75.8339 545.213,-79.8416 549.853,-85.083"/>
</g>
<!-- Node12&#45;&gt;Node2 -->
<g id="edge26" class="edge"><title>Node12&#45;&gt;Node2</title>
<path fill="none" stroke="midnightblue" d="M321.32,-112.444C290.473,-103.241 241.272,-88.5617 207.171,-78.3879"/>
<polygon fill="midnightblue" stroke="midnightblue" points="208.129,-75.0215 197.546,-75.5164 206.128,-81.7293 208.129,-75.0215"/>
</g>
<!-- Node12&#45;&gt;Node8 -->
<g id="edge28" class="edge"><title>Node12&#45;&gt;Node8</title>
<path fill="none" stroke="midnightblue" d="M350,-112.368C350,-94.617 350,-53.6664 350,-29.5974"/>
<polygon fill="midnightblue" stroke="midnightblue" points="353.5,-29.5914 350,-19.5914 346.5,-29.5915 353.5,-29.5914"/>
</g>
<!-- Node13&#45;&gt;Node2 -->
<g id="edge32" class="edge"><title>Node13&#45;&gt;Node2</title>
<path fill="none" stroke="midnightblue" d="M146.459,-112.083C150.154,-104.691 155.523,-93.9533 160.094,-84.8111"/>
<polygon fill="midnightblue" stroke="midnightblue" points="163.283,-86.2606 164.624,-75.7511 157.022,-83.1301 163.283,-86.2606"/>
</g>
</g>
</svg>
