<?xml version="1.0" encoding="UTF-8" standalone="no"?>
<!DOCTYPE svg PUBLIC "-//W3C//DTD SVG 1.1//EN"
 "http://www.w3.org/Graphics/SVG/1.1/DTD/svg11.dtd">
<!-- Generated by graphviz version 2.28.0 (20120425.2022)
 -->
<!-- Title: StFlow.h Pages: 1 -->
<svg width="856pt" height="376pt"
 viewBox="0.00 0.00 856.00 376.00" xmlns="http://www.w3.org/2000/svg" xmlns:xlink="http://www.w3.org/1999/xlink">
<g id="graph1" class="graph" transform="scale(1 1) rotate(0) translate(4 372)">
<title>StFlow.h</title>
<polygon fill="white" stroke="white" points="-4,5 -4,-372 853,-372 853,5 -4,5"/>
<!-- Node1 -->
<g id="node1" class="node"><title>Node1</title>
<polygon fill="#bfbfbf" stroke="black" points="344.5,-348.5 344.5,-367.5 399.5,-367.5 399.5,-348.5 344.5,-348.5"/>
<text text-anchor="middle" x="372" y="-355.5" font-family="FreeSans" font-size="10.00">StFlow.h</text>
</g>
<!-- Node2 -->
<g id="node3" class="node"><title>Node2</title>
<a xlink:href="TransportBase_8h.html" target="_top" xlink:title="Headers for the Transport object, which is the virtual base class for all transport property evaluato...">
<polygon fill="white" stroke="black" points="227.5,-281 227.5,-311 364.5,-311 364.5,-281 227.5,-281"/>
<text text-anchor="start" x="235.5" y="-299" font-family="FreeSans" font-size="10.00">cantera/transport/Transport</text>
<text text-anchor="middle" x="296" y="-288" font-family="FreeSans" font-size="10.00">Base.h</text>
</a>
</g>
<!-- Node1&#45;&gt;Node2 -->
<g id="edge2" class="edge"><title>Node1&#45;&gt;Node2</title>
<path fill="none" stroke="midnightblue" d="M361.111,-348.403C350.914,-340.353 335.283,-328.013 321.891,-317.441"/>
<polygon fill="midnightblue" stroke="midnightblue" points="323.929,-314.59 313.912,-311.141 319.592,-320.084 323.929,-314.59"/>
</g>
<!-- Node9 -->
<g id="node18" class="node"><title>Node9</title>
<a xlink:href="Array_8h.html" target="_top" xlink:title="Header file for class Array2D.">
<polygon fill="white" stroke="red" points="259,-168.5 259,-187.5 307,-187.5 307,-168.5 259,-168.5"/>
<text text-anchor="middle" x="283" y="-175.5" font-family="FreeSans" font-size="10.00">Array.h</text>
</a>
</g>
<!-- Node1&#45;&gt;Node9 -->
<g id="edge50" class="edge"><title>Node1&#45;&gt;Node9</title>
<path fill="none" stroke="midnightblue" d="M344.447,-356.208C310.493,-353.777 253.009,-344.705 218,-312 188.289,-284.244 171.624,-258.586 193,-224 205.178,-204.296 228.886,-192.931 248.913,-186.553"/>
<polygon fill="midnightblue" stroke="midnightblue" points="250.04,-189.87 258.675,-183.731 248.096,-183.145 250.04,-189.87"/>
</g>
<!-- Node12 -->
<g id="node27" class="node"><title>Node12</title>
<a xlink:href="Domain1D_8h.html" target="_top" xlink:title="Domain1D.h">
<polygon fill="white" stroke="black" points="62,-168.5 62,-187.5 134,-187.5 134,-168.5 62,-168.5"/>
<text text-anchor="middle" x="98" y="-175.5" font-family="FreeSans" font-size="10.00">Domain1D.h</text>
</a>
</g>
<!-- Node1&#45;&gt;Node12 -->
<g id="edge30" class="edge"><title>Node1&#45;&gt;Node12</title>
<path fill="none" stroke="midnightblue" d="M344.375,-356.398C305.831,-354.29 235.231,-345.698 187,-312 144.809,-282.522 117.075,-226.062 104.968,-197.106"/>
<polygon fill="midnightblue" stroke="midnightblue" points="108.197,-195.754 101.217,-187.783 101.703,-198.367 108.197,-195.754"/>
</g>
<!-- Node16 -->
<g id="node42" class="node"><title>Node16</title>
<a xlink:href="IdealGasPhase_8h.html" target="_top" xlink:title="ThermoPhase object for the ideal gas equation of state &#45; workhorse for Cantera (see Thermodynamic Pro...">
<polygon fill="white" stroke="black" points="534,-286.5 534,-305.5 700,-305.5 700,-286.5 534,-286.5"/>
<text text-anchor="middle" x="617" y="-293.5" font-family="FreeSans" font-size="10.00">cantera/thermo/IdealGasPhase.h</text>
</a>
</g>
<!-- Node1&#45;&gt;Node16 -->
<g id="edge52" class="edge"><title>Node1&#45;&gt;Node16</title>
<path fill="none" stroke="midnightblue" d="M399.628,-350.234C441.542,-339.969 521.637,-320.354 572.024,-308.014"/>
<polygon fill="midnightblue" stroke="midnightblue" points="573.113,-311.351 581.993,-305.573 571.448,-304.552 573.113,-311.351"/>
</g>
<!-- Node18 -->
<g id="node49" class="node"><title>Node18</title>
<a xlink:href="Kinetics_8h.html" target="_top" xlink:title="Base class for kinetics managers and also contains the kineticsmgr module documentation (see Kinetics...">
<polygon fill="white" stroke="black" points="382.5,-286.5 382.5,-305.5 515.5,-305.5 515.5,-286.5 382.5,-286.5"/>
<text text-anchor="middle" x="449" y="-293.5" font-family="FreeSans" font-size="10.00">cantera/kinetics/Kinetics.h</text>
</a>
</g>
<!-- Node1&#45;&gt;Node18 -->
<g id="edge62" class="edge"><title>Node1&#45;&gt;Node18</title>
<path fill="none" stroke="midnightblue" d="M383.032,-348.403C395.268,-338.869 415.229,-323.315 429.993,-311.811"/>
<polygon fill="midnightblue" stroke="midnightblue" points="432.252,-314.488 437.988,-305.581 427.949,-308.966 432.252,-314.488"/>
</g>
<!-- Node19 -->
<g id="node54" class="node"><title>Node19</title>
<a xlink:href="funcs_8h.html" target="_top" xlink:title="Header for a file containing miscellaneous numerical functions.">
<polygon fill="white" stroke="black" points="720,-224.5 720,-243.5 848,-243.5 848,-224.5 720,-224.5"/>
<text text-anchor="middle" x="784" y="-231.5" font-family="FreeSans" font-size="10.00">cantera/numerics/funcs.h</text>
</a>
</g>
<!-- Node1&#45;&gt;Node19 -->
<g id="edge70" class="edge"><title>Node1&#45;&gt;Node19</title>
<path fill="none" stroke="midnightblue" d="M399.584,-355.631C470.014,-351.771 654.742,-339.265 709,-312 736.547,-298.158 759.774,-270.115 772.784,-251.964"/>
<polygon fill="midnightblue" stroke="midnightblue" points="775.825,-253.719 778.626,-243.501 770.064,-249.743 775.825,-253.719"/>
</g>
<!-- Node3 -->
<g id="node5" class="node"><title>Node3</title>
<a xlink:href="ThermoPhase_8h.html" target="_top" xlink:title="Header file for class ThermoPhase, the base class for phases with thermodynamic properties, and the text for the Module thermoprops (see Thermodynamic Properties and class ThermoPhase).">
<polygon fill="white" stroke="black" points="382,-224.5 382,-243.5 542,-243.5 542,-224.5 382,-224.5"/>
<text text-anchor="middle" x="462" y="-231.5" font-family="FreeSans" font-size="10.00">cantera/thermo/ThermoPhase.h</text>
</a>
</g>
<!-- Node2&#45;&gt;Node3 -->
<g id="edge4" class="edge"><title>Node2&#45;&gt;Node3</title>
<path fill="none" stroke="midnightblue" d="M334.92,-280.933C363.426,-270.629 401.705,-256.794 428.778,-247.008"/>
<polygon fill="midnightblue" stroke="midnightblue" points="429.992,-250.291 438.207,-243.6 427.612,-243.708 429.992,-250.291"/>
</g>
<!-- Node8 -->
<g id="node15" class="node"><title>Node8</title>
<a xlink:href="DenseMatrix_8h.html" target="_top" xlink:title="Headers for the DenseMatrix object, which deals with dense rectangular matrices and description of th...">
<polygon fill="white" stroke="black" points="202.5,-224.5 202.5,-243.5 363.5,-243.5 363.5,-224.5 202.5,-224.5"/>
<text text-anchor="middle" x="283" y="-231.5" font-family="FreeSans" font-size="10.00">cantera/numerics/DenseMatrix.h</text>
</a>
</g>
<!-- Node2&#45;&gt;Node8 -->
<g id="edge14" class="edge"><title>Node2&#45;&gt;Node8</title>
<path fill="none" stroke="midnightblue" d="M292.919,-280.781C291.166,-272.691 288.95,-262.462 287.057,-253.725"/>
<polygon fill="midnightblue" stroke="midnightblue" points="290.43,-252.763 284.892,-243.731 283.589,-254.245 290.43,-252.763"/>
</g>
<!-- Node4 -->
<g id="node7" class="node"><title>Node4</title>
<a xlink:href="Phase_8h.html" target="_top" xlink:title="Header file for class Phase.">
<polygon fill="white" stroke="red" points="464.5,-168.5 464.5,-187.5 517.5,-187.5 517.5,-168.5 464.5,-168.5"/>
<text text-anchor="middle" x="491" y="-175.5" font-family="FreeSans" font-size="10.00">Phase.h</text>
</a>
</g>
<!-- Node3&#45;&gt;Node4 -->
<g id="edge6" class="edge"><title>Node3&#45;&gt;Node4</title>
<path fill="none" stroke="midnightblue" d="M466.789,-224.083C470.758,-216.691 476.525,-205.953 481.435,-196.811"/>
<polygon fill="midnightblue" stroke="midnightblue" points="484.653,-198.217 486.3,-187.751 478.486,-194.905 484.653,-198.217"/>
</g>
<!-- Node5 -->
<g id="node9" class="node"><title>Node5</title>
<a xlink:href="SpeciesThermo_8h.html" target="_top" xlink:title="Virtual base class for the calculation of multiple&#45;species thermodynamic reference&#45;state property man...">
<polygon fill="white" stroke="black" points="647.5,-168.5 647.5,-187.5 744.5,-187.5 744.5,-168.5 647.5,-168.5"/>
<text text-anchor="middle" x="696" y="-175.5" font-family="FreeSans" font-size="10.00">SpeciesThermo.h</text>
</a>
</g>
<!-- Node3&#45;&gt;Node5 -->
<g id="edge8" class="edge"><title>Node3&#45;&gt;Node5</title>
<path fill="none" stroke="midnightblue" d="M499.078,-224.444C539.728,-215.063 605.032,-199.993 649.184,-189.804"/>
<polygon fill="midnightblue" stroke="midnightblue" points="650.139,-193.175 659.095,-187.516 648.565,-186.355 650.139,-193.175"/>
</g>
<!-- Node6 -->
<g id="node11" class="node"><title>Node6</title>
<a xlink:href="ct__defs_8h.html" target="_top" xlink:title="This file contains definitions of terms that are used in internal routines and are unlikely to need m...">
<polygon fill="white" stroke="red" points="389,-56.5 389,-75.5 445,-75.5 445,-56.5 389,-56.5"/>
<text text-anchor="middle" x="417" y="-63.5" font-family="FreeSans" font-size="10.00">ct_defs.h</text>
</a>
</g>
<!-- Node5&#45;&gt;Node6 -->
<g id="edge10" class="edge"><title>Node5&#45;&gt;Node6</title>
<path fill="none" stroke="midnightblue" d="M674.107,-168.368C624.907,-148.97 505.442,-101.87 448.368,-79.3673"/>
<polygon fill="midnightblue" stroke="midnightblue" points="449.378,-76.0033 438.791,-75.5914 446.81,-82.5154 449.378,-76.0033"/>
</g>
<!-- Node7 -->
<g id="node13" class="node"><title>Node7</title>
<polygon fill="white" stroke="#bfbfbf" points="203.5,-0.5 203.5,-19.5 244.5,-19.5 244.5,-0.5 203.5,-0.5"/>
<text text-anchor="middle" x="224" y="-7.5" font-family="FreeSans" font-size="10.00">string</text>
</g>
<!-- Node6&#45;&gt;Node7 -->
<g id="edge12" class="edge"><title>Node6&#45;&gt;Node7</title>
<path fill="none" stroke="midnightblue" d="M388.936,-57.1479C353.1,-47.1213 291.322,-29.8363 254.399,-19.5055"/>
<polygon fill="midnightblue" stroke="midnightblue" points="255.26,-16.1119 244.687,-16.788 253.374,-22.853 255.26,-16.1119"/>
</g>
<!-- Node8&#45;&gt;Node6 -->
<g id="edge16" class="edge"><title>Node8&#45;&gt;Node6</title>
<path fill="none" stroke="midnightblue" d="M298.332,-224.3C323.78,-209.036 374.552,-174.933 401,-132 409.667,-117.931 413.642,-99.4383 415.464,-85.7763"/>
<polygon fill="midnightblue" stroke="midnightblue" points="418.964,-85.9539 416.543,-75.6395 412.004,-85.2127 418.964,-85.9539"/>
</g>
<!-- Node8&#45;&gt;Node9 -->
<g id="edge18" class="edge"><title>Node8&#45;&gt;Node9</title>
<path fill="none" stroke="midnightblue" d="M283,-224.083C283,-217.006 283,-206.861 283,-197.986"/>
<polygon fill="midnightblue" stroke="midnightblue" points="286.5,-197.751 283,-187.751 279.5,-197.751 286.5,-197.751"/>
</g>
<!-- Node9&#45;&gt;Node6 -->
<g id="edge20" class="edge"><title>Node9&#45;&gt;Node6</title>
<path fill="none" stroke="midnightblue" d="M307.121,-169.978C327.81,-163.001 357.447,-150.63 378,-132 392.437,-118.914 403.22,-99.2215 409.746,-84.9424"/>
<polygon fill="midnightblue" stroke="midnightblue" points="412.997,-86.2424 413.738,-75.6734 406.568,-83.4737 412.997,-86.2424"/>
</g>
<!-- Node10 -->
<g id="node21" class="node"><title>Node10</title>
<a xlink:href="ctexceptions_8h.html" target="_top" xlink:title="Definitions for the classes that are thrown when Cantera experiences an error condition (also contain...">
<polygon fill="white" stroke="red" points="134,-56.5 134,-75.5 214,-75.5 214,-56.5 134,-56.5"/>
<text text-anchor="middle" x="174" y="-63.5" font-family="FreeSans" font-size="10.00">ctexceptions.h</text>
</a>
</g>
<!-- Node9&#45;&gt;Node10 -->
<g id="edge22" class="edge"><title>Node9&#45;&gt;Node10</title>
<path fill="none" stroke="midnightblue" d="M272.264,-168.441C261.476,-159.675 244.551,-145.463 231,-132 215.278,-116.381 198.73,-97.1552 187.539,-83.6797"/>
<polygon fill="midnightblue" stroke="midnightblue" points="190.075,-81.253 181.021,-75.7504 184.667,-85.698 190.075,-81.253"/>
</g>
<!-- Node11 -->
<g id="node24" class="node"><title>Node11</title>
<a xlink:href="utilities_8h.html" target="_top" xlink:title="Various templated functions that carry out common vector operations (see globalUtilFuncs).">
<polygon fill="white" stroke="red" points="464,-112.5 464,-131.5 518,-131.5 518,-112.5 464,-112.5"/>
<text text-anchor="middle" x="491" y="-119.5" font-family="FreeSans" font-size="10.00">utilities.h</text>
</a>
</g>
<!-- Node9&#45;&gt;Node11 -->
<g id="edge26" class="edge"><title>Node9&#45;&gt;Node11</title>
<path fill="none" stroke="midnightblue" d="M307.267,-170.7C343.403,-161.318 411.633,-143.605 454.011,-132.603"/>
<polygon fill="midnightblue" stroke="midnightblue" points="455.134,-135.928 463.933,-130.027 453.375,-129.152 455.134,-135.928"/>
</g>
<!-- Node10&#45;&gt;Node7 -->
<g id="edge24" class="edge"><title>Node10&#45;&gt;Node7</title>
<path fill="none" stroke="midnightblue" d="M182.256,-56.083C189.465,-48.2982 200.11,-36.8015 208.846,-27.3665"/>
<polygon fill="midnightblue" stroke="midnightblue" points="211.671,-29.4666 215.897,-19.7511 206.535,-24.7108 211.671,-29.4666"/>
</g>
<!-- Node11&#45;&gt;Node6 -->
<g id="edge28" class="edge"><title>Node11&#45;&gt;Node6</title>
<path fill="none" stroke="midnightblue" d="M479.111,-112.324C467.85,-104.107 450.713,-91.6017 437.291,-81.8069"/>
<polygon fill="midnightblue" stroke="midnightblue" points="439.247,-78.9014 429.106,-75.8339 435.12,-84.5559 439.247,-78.9014"/>
</g>
<!-- Node12&#45;&gt;Node10 -->
<g id="edge46" class="edge"><title>Node12&#45;&gt;Node10</title>
<path fill="none" stroke="midnightblue" d="M93.0593,-168.307C86.299,-155.14 76.1705,-129.794 87,-112 96.4596,-96.4569 113.21,-86.0455 129.505,-79.1913"/>
<polygon fill="midnightblue" stroke="midnightblue" points="130.903,-82.4035 138.987,-75.5548 128.397,-75.8676 130.903,-82.4035"/>
</g>
<!-- Node13 -->
<g id="node29" class="node"><title>Node13</title>
<a xlink:href="xml_8h.html" target="_top" xlink:title="Classes providing support for XML data files.">
<polygon fill="white" stroke="red" points="0,-112.5 0,-131.5 40,-131.5 40,-112.5 0,-112.5"/>
<text text-anchor="middle" x="20" y="-119.5" font-family="FreeSans" font-size="10.00">xml.h</text>
</a>
</g>
<!-- Node12&#45;&gt;Node13 -->
<g id="edge32" class="edge"><title>Node12&#45;&gt;Node13</title>
<path fill="none" stroke="midnightblue" d="M85.468,-168.324C73.4141,-159.979 54.9732,-147.212 40.7313,-137.352"/>
<polygon fill="midnightblue" stroke="midnightblue" points="42.7151,-134.469 32.5009,-131.655 38.7306,-140.224 42.7151,-134.469"/>
</g>
<!-- Node14 -->
<g id="node34" class="node"><title>Node14</title>
<a xlink:href="stringUtils_8h.html" target="_top" xlink:title=" Contains declarations for string manipulation functions &#160;within Cantera.">
<polygon fill="white" stroke="black" points="240.5,-112.5 240.5,-131.5 369.5,-131.5 369.5,-112.5 240.5,-112.5"/>
<text text-anchor="middle" x="305" y="-119.5" font-family="FreeSans" font-size="10.00">cantera/base/stringUtils.h</text>
</a>
</g>
<!-- Node12&#45;&gt;Node14 -->
<g id="edge40" class="edge"><title>Node12&#45;&gt;Node14</title>
<path fill="none" stroke="midnightblue" d="M130.8,-168.444C166.38,-159.162 223.314,-144.309 262.347,-134.127"/>
<polygon fill="midnightblue" stroke="midnightblue" points="263.561,-137.427 272.354,-131.516 261.794,-130.654 263.561,-137.427"/>
</g>
<!-- Node15 -->
<g id="node39" class="node"><title>Node15</title>
<a xlink:href="refine_8h_source.html" target="_top" xlink:title="refine.h">
<polygon fill="white" stroke="black" points="96.5,-112.5 96.5,-131.5 145.5,-131.5 145.5,-112.5 96.5,-112.5"/>
<text text-anchor="middle" x="121" y="-119.5" font-family="FreeSans" font-size="10.00">refine.h</text>
</a>
</g>
<!-- Node12&#45;&gt;Node15 -->
<g id="edge48" class="edge"><title>Node12&#45;&gt;Node15</title>
<path fill="none" stroke="midnightblue" d="M101.798,-168.083C104.913,-160.77 109.423,-150.181 113.289,-141.103"/>
<polygon fill="midnightblue" stroke="midnightblue" points="116.574,-142.323 117.273,-131.751 110.134,-139.58 116.574,-142.323"/>
</g>
<!-- Node13&#45;&gt;Node6 -->
<g id="edge36" class="edge"><title>Node13&#45;&gt;Node6</title>
<path fill="none" stroke="midnightblue" d="M40.2331,-118.248C103.193,-109.684 296.348,-83.4111 378.921,-72.1796"/>
<polygon fill="midnightblue" stroke="midnightblue" points="379.453,-75.6395 388.89,-70.8236 378.509,-68.7034 379.453,-75.6395"/>
</g>
<!-- Node13&#45;&gt;Node7 -->
<g id="edge38" class="edge"><title>Node13&#45;&gt;Node7</title>
<path fill="none" stroke="midnightblue" d="M32.6203,-112.454C52.0307,-99.4789 90.5802,-74.3798 125,-56 147.51,-43.9797 173.848,-32.108 193.697,-23.5787"/>
<polygon fill="midnightblue" stroke="midnightblue" points="195.32,-26.6921 203.152,-19.5573 192.58,-20.2505 195.32,-26.6921"/>
</g>
<!-- Node13&#45;&gt;Node10 -->
<g id="edge34" class="edge"><title>Node13&#45;&gt;Node10</title>
<path fill="none" stroke="midnightblue" d="M40.1328,-113.94C65.404,-105.079 109.14,-89.7433 139.721,-79.0198"/>
<polygon fill="midnightblue" stroke="midnightblue" points="141.264,-82.1879 149.542,-75.576 138.948,-75.5822 141.264,-82.1879"/>
</g>
<!-- Node14&#45;&gt;Node6 -->
<g id="edge42" class="edge"><title>Node14&#45;&gt;Node6</title>
<path fill="none" stroke="midnightblue" d="M322.995,-112.324C341.038,-103.625 369.047,-90.1202 389.803,-80.113"/>
<polygon fill="midnightblue" stroke="midnightblue" points="391.562,-83.1502 399.05,-75.6545 388.522,-76.8449 391.562,-83.1502"/>
</g>
<!-- Node14&#45;&gt;Node7 -->
<g id="edge44" class="edge"><title>Node14&#45;&gt;Node7</title>
<path fill="none" stroke="midnightblue" d="M298.644,-112.368C285.218,-94.135 253.768,-51.4257 236.279,-27.6752"/>
<polygon fill="midnightblue" stroke="midnightblue" points="239.074,-25.5685 230.326,-19.5914 233.438,-29.7192 239.074,-25.5685"/>
</g>
<!-- Node16&#45;&gt;Node3 -->
<g id="edge56" class="edge"><title>Node16&#45;&gt;Node3</title>
<path fill="none" stroke="midnightblue" d="M594.792,-286.403C568.319,-276.156 523.886,-258.956 493.78,-247.302"/>
<polygon fill="midnightblue" stroke="midnightblue" points="494.756,-243.927 484.167,-243.581 492.229,-250.455 494.756,-243.927"/>
</g>
<!-- Node16&#45;&gt;Node5 -->
<g id="edge58" class="edge"><title>Node16&#45;&gt;Node5</title>
<path fill="none" stroke="midnightblue" d="M627.973,-286.211C639.214,-276.751 656.612,-260.787 668,-244 677.906,-229.397 685.51,-210.723 690.276,-197.141"/>
<polygon fill="midnightblue" stroke="midnightblue" points="693.643,-198.108 693.481,-187.515 687.001,-195.897 693.643,-198.108"/>
</g>
<!-- Node16&#45;&gt;Node11 -->
<g id="edge60" class="edge"><title>Node16&#45;&gt;Node11</title>
<path fill="none" stroke="midnightblue" d="M622.823,-286.225C631.251,-272.327 644.727,-244.708 634,-224 610.999,-179.595 558.496,-150.549 523.913,-135.461"/>
<polygon fill="midnightblue" stroke="midnightblue" points="525.248,-132.226 514.673,-131.575 522.534,-138.678 525.248,-132.226"/>
</g>
<!-- Node17 -->
<g id="node44" class="node"><title>Node17</title>
<a xlink:href="mix__defs_8h_source.html" target="_top" xlink:title="mix_defs.h">
<polygon fill="white" stroke="black" points="560.5,-224.5 560.5,-243.5 625.5,-243.5 625.5,-224.5 560.5,-224.5"/>
<text text-anchor="middle" x="593" y="-231.5" font-family="FreeSans" font-size="10.00">mix_defs.h</text>
</a>
</g>
<!-- Node16&#45;&gt;Node17 -->
<g id="edge54" class="edge"><title>Node16&#45;&gt;Node17</title>
<path fill="none" stroke="midnightblue" d="M613.561,-286.403C610.104,-277.76 604.668,-264.17 600.254,-253.134"/>
<polygon fill="midnightblue" stroke="midnightblue" points="603.396,-251.565 596.432,-243.581 596.897,-254.165 603.396,-251.565"/>
</g>
<!-- Node18&#45;&gt;Node3 -->
<g id="edge66" class="edge"><title>Node18&#45;&gt;Node3</title>
<path fill="none" stroke="midnightblue" d="M450.863,-286.403C452.716,-277.849 455.619,-264.45 457.997,-253.476"/>
<polygon fill="midnightblue" stroke="midnightblue" points="461.444,-254.095 460.141,-243.581 454.603,-252.613 461.444,-254.095"/>
</g>
<!-- Node18&#45;&gt;Node10 -->
<g id="edge64" class="edge"><title>Node18&#45;&gt;Node10</title>
<path fill="none" stroke="midnightblue" d="M405.666,-286.45C332.771,-272.057 193.451,-244.494 193,-244 152.735,-199.951 162.404,-121.646 169.585,-85.827"/>
<polygon fill="midnightblue" stroke="midnightblue" points="173.064,-86.3022 171.763,-75.7875 166.223,-84.8181 173.064,-86.3022"/>
</g>
<!-- Node18&#45;&gt;Node17 -->
<g id="edge68" class="edge"><title>Node18&#45;&gt;Node17</title>
<path fill="none" stroke="midnightblue" d="M469.632,-286.403C494.119,-276.2 535.147,-259.105 563.109,-247.454"/>
<polygon fill="midnightblue" stroke="midnightblue" points="564.522,-250.658 572.407,-243.581 561.83,-244.196 564.522,-250.658"/>
</g>
<!-- Node19&#45;&gt;Node6 -->
<g id="edge72" class="edge"><title>Node19&#45;&gt;Node6</title>
<path fill="none" stroke="midnightblue" d="M782.263,-224.486C778.991,-210.623 770.603,-183.196 753,-168 665.685,-92.6252 523.692,-73.4972 455.692,-68.6462"/>
<polygon fill="midnightblue" stroke="midnightblue" points="455.638,-65.1355 445.433,-67.9838 455.187,-72.1209 455.638,-65.1355"/>
</g>
</g>
</svg>
