<?xml version="1.0" encoding="UTF-8" standalone="no"?>
<!DOCTYPE svg PUBLIC "-//W3C//DTD SVG 1.1//EN"
 "http://www.w3.org/Graphics/SVG/1.1/DTD/svg11.dtd">
<!-- Generated by graphviz version 2.28.0 (20120425.2022)
 -->
<!-- Title: stringUtils.h Pages: 1 -->
<svg width="5657pt" height="84pt"
 viewBox="0.00 0.00 5657.00 84.00" xmlns="http://www.w3.org/2000/svg" xmlns:xlink="http://www.w3.org/1999/xlink">
<g id="graph1" class="graph" transform="scale(1 1) rotate(0) translate(4 80)">
<title>stringUtils.h</title>
<polygon fill="white" stroke="white" points="-4,5 -4,-80 5654,-80 5654,5 -4,5"/>
<!-- Node1 -->
<g id="node1" class="node"><title>Node1</title>
<polygon fill="#bfbfbf" stroke="black" points="2459.5,-56.5 2459.5,-75.5 2526.5,-75.5 2526.5,-56.5 2459.5,-56.5"/>
<text text-anchor="middle" x="2493" y="-63.5" font-family="FreeSans" font-size="10.00">stringUtils.h</text>
</g>
<!-- Node2 -->
<g id="node3" class="node"><title>Node2</title>
<a xlink:href="application_8cpp_source.html" target="_top" xlink:title="application.cpp">
<polygon fill="white" stroke="black" points="-0.5,-0.5 -0.5,-19.5 82.5,-19.5 82.5,-0.5 -0.5,-0.5"/>
<text text-anchor="middle" x="41" y="-7.5" font-family="FreeSans" font-size="10.00">application.cpp</text>
</a>
</g>
<!-- Node1&#45;&gt;Node2 -->
<g id="edge2" class="edge"><title>Node1&#45;&gt;Node2</title>
<path fill="none" stroke="midnightblue" d="M2449.14,-65.1339C2164.35,-65.8598 574.051,-67.6924 91,-20 88.279,-19.7314 85.4838,-19.3958 82.6723,-19.0135"/>
<polygon fill="midnightblue" stroke="midnightblue" points="2449.48,-68.6331 2459.47,-65.1066 2449.46,-61.6332 2449.48,-68.6331"/>
</g>
<!-- Node3 -->
<g id="node5" class="node"><title>Node3</title>
<a xlink:href="ct2ctml_8cpp.html" target="_top" xlink:title="Driver for the system call to the python executable that converts cti files to ctml files (see Input ...">
<polygon fill="white" stroke="black" points="100.5,-0.5 100.5,-19.5 165.5,-19.5 165.5,-0.5 100.5,-0.5"/>
<text text-anchor="middle" x="133" y="-7.5" font-family="FreeSans" font-size="10.00">ct2ctml.cpp</text>
</a>
</g>
<!-- Node1&#45;&gt;Node3 -->
<g id="edge4" class="edge"><title>Node1&#45;&gt;Node3</title>
<path fill="none" stroke="midnightblue" d="M2449.18,-64.6688C2149.55,-62.3356 407.789,-47.6551 174,-20 171.25,-19.6747 168.413,-19.2477 165.575,-18.7563"/>
<polygon fill="midnightblue" stroke="midnightblue" points="2449.2,-68.169 2459.23,-64.7466 2449.25,-61.1692 2449.2,-68.169"/>
</g>
<!-- Node4 -->
<g id="node7" class="node"><title>Node4</title>
<a xlink:href="ctexceptions_8cpp_source.html" target="_top" xlink:title="ctexceptions.cpp">
<polygon fill="white" stroke="black" points="183.5,-0.5 183.5,-19.5 274.5,-19.5 274.5,-0.5 183.5,-0.5"/>
<text text-anchor="middle" x="229" y="-7.5" font-family="FreeSans" font-size="10.00">ctexceptions.cpp</text>
</a>
</g>
<!-- Node1&#45;&gt;Node4 -->
<g id="edge6" class="edge"><title>Node1&#45;&gt;Node4</title>
<path fill="none" stroke="midnightblue" d="M2448.85,-64.9735C2176.83,-64.6785 725.589,-61.17 283,-20 280.256,-19.7447 277.44,-19.4318 274.605,-19.0775"/>
<polygon fill="midnightblue" stroke="midnightblue" points="2449.11,-68.4737 2459.12,-64.9837 2449.12,-61.4737 2449.11,-68.4737"/>
</g>
<!-- Node5 -->
<g id="node9" class="node"><title>Node5</title>
<a xlink:href="ctml_8cpp.html" target="_top" xlink:title="Definitions for functions to read and write CTML.">
<polygon fill="white" stroke="black" points="292.5,-0.5 292.5,-19.5 345.5,-19.5 345.5,-0.5 292.5,-0.5"/>
<text text-anchor="middle" x="319" y="-7.5" font-family="FreeSans" font-size="10.00">ctml.cpp</text>
</a>
</g>
<!-- Node1&#45;&gt;Node5 -->
<g id="edge8" class="edge"><title>Node1&#45;&gt;Node5</title>
<path fill="none" stroke="midnightblue" d="M2449.06,-64.6845C2162.79,-62.5488 568.243,-49.3972 354,-20 351.265,-19.6247 348.436,-19.1126 345.627,-18.5217"/>
<polygon fill="midnightblue" stroke="midnightblue" points="2449.42,-68.1872 2459.44,-64.7615 2449.47,-61.1874 2449.42,-68.1872"/>
</g>
<!-- Node6 -->
<g id="node11" class="node"><title>Node6</title>
<a xlink:href="stringUtils_8cpp.html" target="_top" xlink:title="Contains definitions for string manipulation functions within Cantera.">
<polygon fill="white" stroke="black" points="363.5,-0.5 363.5,-19.5 440.5,-19.5 440.5,-0.5 363.5,-0.5"/>
<text text-anchor="middle" x="402" y="-7.5" font-family="FreeSans" font-size="10.00">stringUtils.cpp</text>
</a>
</g>
<!-- Node1&#45;&gt;Node6 -->
<g id="edge10" class="edge"><title>Node1&#45;&gt;Node6</title>
<path fill="none" stroke="midnightblue" d="M2449.35,-65.0095C2190.76,-64.919 857.211,-62.3738 450,-20 446.964,-19.6841 443.833,-19.2791 440.693,-18.8162"/>
<polygon fill="midnightblue" stroke="midnightblue" points="2449.48,-68.5094 2459.48,-65.0119 2449.48,-61.5094 2449.48,-68.5094"/>
</g>
<!-- Node7 -->
<g id="node13" class="node"><title>Node7</title>
<a xlink:href="xml_8cpp.html" target="_top" xlink:title="Classes providing support for XML data files.">
<polygon fill="white" stroke="black" points="459,-0.5 459,-19.5 509,-19.5 509,-0.5 459,-0.5"/>
<text text-anchor="middle" x="484" y="-7.5" font-family="FreeSans" font-size="10.00">xml.cpp</text>
</a>
</g>
<!-- Node1&#45;&gt;Node7 -->
<g id="edge12" class="edge"><title>Node1&#45;&gt;Node7</title>
<path fill="none" stroke="midnightblue" d="M2449.03,-64.6205C2175.74,-62.1793 714.872,-47.8994 518,-20 515.098,-19.5888 512.089,-19.0153 509.115,-18.355"/>
<polygon fill="midnightblue" stroke="midnightblue" points="2449.31,-68.123 2459.34,-64.712 2449.37,-61.1233 2449.31,-68.123"/>
</g>
<!-- Node8 -->
<g id="node15" class="node"><title>Node8</title>
<a xlink:href="ck2ct_8cpp.html" target="_top" xlink:title="Convert CK&#45;format reaction mechanism files to Cantera input format.">
<polygon fill="white" stroke="black" points="527,-0.5 527,-19.5 585,-19.5 585,-0.5 527,-0.5"/>
<text text-anchor="middle" x="556" y="-7.5" font-family="FreeSans" font-size="10.00">ck2ct.cpp</text>
</a>
</g>
<!-- Node1&#45;&gt;Node8 -->
<g id="edge14" class="edge"><title>Node1&#45;&gt;Node8</title>
<path fill="none" stroke="midnightblue" d="M2449.29,-65.2035C2201.37,-66.1701 969.851,-68.4209 594,-20 591.176,-19.6362 588.256,-19.1495 585.347,-18.59"/>
<polygon fill="midnightblue" stroke="midnightblue" points="2449.37,-68.7033 2459.35,-65.1628 2449.34,-61.7034 2449.37,-68.7033"/>
</g>
<!-- Node9 -->
<g id="node17" class="node"><title>Node9</title>
<a xlink:href="ChemEquil_8cpp.html" target="_top" xlink:title="Chemical equilibrium.">
<polygon fill="white" stroke="black" points="603.5,-0.5 603.5,-19.5 686.5,-19.5 686.5,-0.5 603.5,-0.5"/>
<text text-anchor="middle" x="645" y="-7.5" font-family="FreeSans" font-size="10.00">ChemEquil.cpp</text>
</a>
</g>
<!-- Node1&#45;&gt;Node9 -->
<g id="edge16" class="edge"><title>Node1&#45;&gt;Node9</title>
<path fill="none" stroke="midnightblue" d="M2449.41,-64.7942C2209.89,-63.5288 1051.69,-55.6362 696,-20 692.958,-19.6953 689.825,-19.3127 686.678,-18.8784"/>
<polygon fill="midnightblue" stroke="midnightblue" points="2449.46,-68.2944 2459.48,-64.8463 2449.5,-61.2945 2449.46,-68.2944"/>
</g>
<!-- Node10 -->
<g id="node19" class="node"><title>Node10</title>
<a xlink:href="MultiPhase_8cpp.html" target="_top" xlink:title="Definitions for the MultiPhase object that is used to set up multiphase equilibrium problems (see Equ...">
<polygon fill="white" stroke="black" points="705,-0.5 705,-19.5 789,-19.5 789,-0.5 705,-0.5"/>
<text text-anchor="middle" x="747" y="-7.5" font-family="FreeSans" font-size="10.00">MultiPhase.cpp</text>
</a>
</g>
<!-- Node1&#45;&gt;Node10 -->
<g id="edge18" class="edge"><title>Node1&#45;&gt;Node10</title>
<path fill="none" stroke="midnightblue" d="M2449.33,-64.7176C2217.84,-63.0875 1132.24,-53.7414 798,-20 795.137,-19.711 792.194,-19.3537 789.234,-18.9496"/>
<polygon fill="midnightblue" stroke="midnightblue" points="2449.37,-68.2179 2459.39,-64.7874 2449.41,-61.2181 2449.37,-68.2179"/>
</g>
<!-- Node11 -->
<g id="node21" class="node"><title>Node11</title>
<a xlink:href="MultiPhaseEquil_8cpp.html" target="_top" xlink:title="MultiPhaseEquil.cpp">
<polygon fill="white" stroke="black" points="807,-0.5 807,-19.5 913,-19.5 913,-0.5 807,-0.5"/>
<text text-anchor="middle" x="860" y="-7.5" font-family="FreeSans" font-size="10.00">MultiPhaseEquil.cpp</text>
</a>
</g>
<!-- Node1&#45;&gt;Node11 -->
<g id="edge20" class="edge"><title>Node1&#45;&gt;Node11</title>
<path fill="none" stroke="midnightblue" d="M2449.06,-64.4284C2227.41,-61.4406 1230.58,-46.7263 922,-20 919.074,-19.7466 916.076,-19.4465 913.053,-19.1125"/>
<polygon fill="midnightblue" stroke="midnightblue" points="2449.27,-67.9315 2459.32,-64.5658 2449.37,-60.9322 2449.27,-67.9315"/>
</g>
<!-- Node12 -->
<g id="node23" class="node"><title>Node12</title>
<a xlink:href="newEquilibrate_8cpp_source.html" target="_top" xlink:title="newEquilibrate.cpp">
<polygon fill="white" stroke="black" points="931,-0.5 931,-19.5 1031,-19.5 1031,-0.5 931,-0.5"/>
<text text-anchor="middle" x="981" y="-7.5" font-family="FreeSans" font-size="10.00">newEquilibrate.cpp</text>
</a>
</g>
<!-- Node1&#45;&gt;Node12 -->
<g id="edge22" class="edge"><title>Node1&#45;&gt;Node12</title>
<path fill="none" stroke="midnightblue" d="M2449.34,-64.3578C2238.45,-61.1478 1323.92,-45.9565 1040,-20 1037.11,-19.7359 1034.15,-19.4218 1031.16,-19.072"/>
<polygon fill="midnightblue" stroke="midnightblue" points="2449.36,-67.8585 2459.41,-64.5102 2449.46,-60.8593 2449.36,-67.8585"/>
</g>
<!-- Node13 -->
<g id="node25" class="node"><title>Node13</title>
<a xlink:href="vcs__nondim_8cpp.html" target="_top" xlink:title="Nondimensionalization routines within VCSnonideal.">
<polygon fill="white" stroke="black" points="1049.5,-0.5 1049.5,-19.5 1138.5,-19.5 1138.5,-0.5 1049.5,-0.5"/>
<text text-anchor="middle" x="1094" y="-7.5" font-family="FreeSans" font-size="10.00">vcs_nondim.cpp</text>
</a>
</g>
<!-- Node1&#45;&gt;Node13 -->
<g id="edge24" class="edge"><title>Node1&#45;&gt;Node13</title>
<path fill="none" stroke="midnightblue" d="M2449.06,-64.3093C2247.38,-61.0194 1409.09,-46.0109 1148,-20 1144.97,-19.6985 1141.86,-19.3317 1138.73,-18.9208"/>
<polygon fill="midnightblue" stroke="midnightblue" points="2449.21,-67.8121 2459.27,-64.4746 2449.32,-60.813 2449.21,-67.8121"/>
</g>
<!-- Node14 -->
<g id="node27" class="node"><title>Node14</title>
<a xlink:href="vcs__solve__TP_8cpp.html" target="_top" xlink:title="Implementation file that contains the main algorithm for finding an equilibrium.">
<polygon fill="white" stroke="black" points="1157,-0.5 1157,-19.5 1257,-19.5 1257,-0.5 1157,-0.5"/>
<text text-anchor="middle" x="1207" y="-7.5" font-family="FreeSans" font-size="10.00">vcs_solve_TP.cpp</text>
</a>
</g>
<!-- Node1&#45;&gt;Node14 -->
<g id="edge26" class="edge"><title>Node1&#45;&gt;Node14</title>
<path fill="none" stroke="midnightblue" d="M2448.88,-65.2073C2289.28,-65.5695 1727.07,-63.4766 1266,-20 1263.11,-19.7276 1260.15,-19.4072 1257.16,-19.0524"/>
<polygon fill="midnightblue" stroke="midnightblue" points="2449.25,-68.7064 2459.24,-65.1789 2449.23,-61.7064 2449.25,-68.7064"/>
</g>
<!-- Node15 -->
<g id="node29" class="node"><title>Node15</title>
<a xlink:href="AqueousKinetics_8cpp.html" target="_top" xlink:title="Homogeneous kinetics in an aqueous phase, either condensed or dilute in salts.">
<polygon fill="white" stroke="black" points="1275,-0.5 1275,-19.5 1385,-19.5 1385,-0.5 1275,-0.5"/>
<text text-anchor="middle" x="1330" y="-7.5" font-family="FreeSans" font-size="10.00">AqueousKinetics.cpp</text>
</a>
</g>
<!-- Node1&#45;&gt;Node15 -->
<g id="edge28" class="edge"><title>Node1&#45;&gt;Node15</title>
<path fill="none" stroke="midnightblue" d="M2449.11,-64.7578C2300.54,-63.6067 1803.05,-57.045 1394,-20 1391.09,-19.7369 1388.12,-19.4344 1385.12,-19.1032"/>
<polygon fill="midnightblue" stroke="midnightblue" points="2449.17,-68.2583 2459.2,-64.8317 2449.22,-61.2585 2449.17,-68.2583"/>
</g>
<!-- Node16 -->
<g id="node31" class="node"><title>Node16</title>
<a xlink:href="FalloffFactory_8cpp.html" target="_top" xlink:title="FalloffFactory.cpp">
<polygon fill="white" stroke="black" points="1403.5,-0.5 1403.5,-19.5 1498.5,-19.5 1498.5,-0.5 1403.5,-0.5"/>
<text text-anchor="middle" x="1451" y="-7.5" font-family="FreeSans" font-size="10.00">FalloffFactory.cpp</text>
</a>
</g>
<!-- Node1&#45;&gt;Node16 -->
<g id="edge30" class="edge"><title>Node1&#45;&gt;Node16</title>
<path fill="none" stroke="midnightblue" d="M2449.05,-64.7736C2310.35,-63.6785 1869.58,-57.2879 1507,-20 1504.26,-19.7179 1501.44,-19.3899 1498.61,-19.0294"/>
<polygon fill="midnightblue" stroke="midnightblue" points="2449.25,-68.275 2459.27,-64.8489 2449.3,-61.2752 2449.25,-68.275"/>
</g>
<!-- Node17 -->
<g id="node33" class="node"><title>Node17</title>
<a xlink:href="importKinetics_8cpp.html" target="_top" xlink:title="Declarations of global routines for the importing of kinetics data from XML files (see Input File Han...">
<polygon fill="white" stroke="black" points="1516.5,-0.5 1516.5,-19.5 1613.5,-19.5 1613.5,-0.5 1516.5,-0.5"/>
<text text-anchor="middle" x="1565" y="-7.5" font-family="FreeSans" font-size="10.00">importKinetics.cpp</text>
</a>
</g>
<!-- Node1&#45;&gt;Node17 -->
<g id="edge32" class="edge"><title>Node1&#45;&gt;Node17</title>
<path fill="none" stroke="midnightblue" d="M2449.15,-64.3157C2321.43,-61.9821 1938.71,-52.5734 1623,-20 1619.96,-19.6863 1616.83,-19.3225 1613.69,-18.9246"/>
<polygon fill="midnightblue" stroke="midnightblue" points="2449.25,-67.818 2459.31,-64.4961 2449.38,-60.8191 2449.25,-67.818"/>
</g>
<!-- Node18 -->
<g id="node35" class="node"><title>Node18</title>
<a xlink:href="BandMatrix_8cpp.html" target="_top" xlink:title="Banded matrices.">
<polygon fill="white" stroke="black" points="1632,-0.5 1632,-19.5 1718,-19.5 1718,-0.5 1632,-0.5"/>
<text text-anchor="middle" x="1675" y="-7.5" font-family="FreeSans" font-size="10.00">BandMatrix.cpp</text>
</a>
</g>
<!-- Node1&#45;&gt;Node18 -->
<g id="edge34" class="edge"><title>Node1&#45;&gt;Node18</title>
<path fill="none" stroke="midnightblue" d="M2449.25,-64.1547C2331.92,-61.5151 2000.62,-51.6133 1727,-20 1724.09,-19.6635 1721.09,-19.2705 1718.08,-18.8404"/>
<polygon fill="midnightblue" stroke="midnightblue" points="2449.21,-67.6545 2459.28,-64.3742 2449.36,-60.6561 2449.21,-67.6545"/>
</g>
<!-- Node19 -->
<g id="node37" class="node"><title>Node19</title>
<a xlink:href="CVodeInt_8cpp.html" target="_top" xlink:title="CVodeInt.cpp">
<polygon fill="white" stroke="black" points="1736.5,-0.5 1736.5,-19.5 1811.5,-19.5 1811.5,-0.5 1736.5,-0.5"/>
<text text-anchor="middle" x="1774" y="-7.5" font-family="FreeSans" font-size="10.00">CVodeInt.cpp</text>
</a>
</g>
<!-- Node1&#45;&gt;Node19 -->
<g id="edge36" class="edge"><title>Node1&#45;&gt;Node19</title>
<path fill="none" stroke="midnightblue" d="M2449.08,-63.9844C2341.43,-61.078 2055.98,-50.8486 1820,-20 1817.26,-19.6414 1814.43,-19.2192 1811.59,-18.7568"/>
<polygon fill="midnightblue" stroke="midnightblue" points="2449.15,-67.4873 2459.24,-64.2509 2449.33,-60.4897 2449.15,-67.4873"/>
</g>
<!-- Node20 -->
<g id="node39" class="node"><title>Node20</title>
<a xlink:href="CVodesIntegrator_8cpp.html" target="_top" xlink:title="CVodesIntegrator.cpp">
<polygon fill="white" stroke="black" points="1829.5,-0.5 1829.5,-19.5 1942.5,-19.5 1942.5,-0.5 1829.5,-0.5"/>
<text text-anchor="middle" x="1886" y="-7.5" font-family="FreeSans" font-size="10.00">CVodesIntegrator.cpp</text>
</a>
</g>
<!-- Node1&#45;&gt;Node20 -->
<g id="edge38" class="edge"><title>Node1&#45;&gt;Node20</title>
<path fill="none" stroke="midnightblue" d="M2449.32,-62.1488C2357.24,-55.9657 2136.48,-40.2363 1952,-20 1948.9,-19.6595 1945.71,-19.2908 1942.5,-18.9035"/>
<polygon fill="midnightblue" stroke="midnightblue" points="2449.18,-65.6467 2459.39,-62.8208 2449.64,-58.6622 2449.18,-65.6467"/>
</g>
<!-- Node21 -->
<g id="node41" class="node"><title>Node21</title>
<a xlink:href="DenseMatrix_8cpp.html" target="_top" xlink:title="DenseMatrix.cpp">
<polygon fill="white" stroke="black" points="1961,-0.5 1961,-19.5 2053,-19.5 2053,-0.5 1961,-0.5"/>
<text text-anchor="middle" x="2007" y="-7.5" font-family="FreeSans" font-size="10.00">DenseMatrix.cpp</text>
</a>
</g>
<!-- Node1&#45;&gt;Node21 -->
<g id="edge40" class="edge"><title>Node1&#45;&gt;Node21</title>
<path fill="none" stroke="midnightblue" d="M2448.98,-61.2558C2370.88,-54.4232 2203.01,-38.8824 2062,-20 2059.12,-19.6147 2056.16,-19.1962 2053.18,-18.7574"/>
<polygon fill="midnightblue" stroke="midnightblue" points="2449.12,-64.7817 2459.39,-62.1615 2449.73,-57.808 2449.12,-64.7817"/>
</g>
<!-- Node22 -->
<g id="node43" class="node"><title>Node22</title>
<a xlink:href="Func1_8cpp_source.html" target="_top" xlink:title="Func1.cpp">
<polygon fill="white" stroke="black" points="2071.5,-0.5 2071.5,-19.5 2132.5,-19.5 2132.5,-0.5 2071.5,-0.5"/>
<text text-anchor="middle" x="2102" y="-7.5" font-family="FreeSans" font-size="10.00">Func1.cpp</text>
</a>
</g>
<!-- Node1&#45;&gt;Node22 -->
<g id="edge42" class="edge"><title>Node1&#45;&gt;Node22</title>
<path fill="none" stroke="midnightblue" d="M2449.33,-60.7322C2382.75,-53.9259 2251.98,-39.379 2142,-20 2138.92,-19.4565 2135.71,-18.834 2132.52,-18.1756"/>
<polygon fill="midnightblue" stroke="midnightblue" points="2449.15,-64.2317 2459.45,-61.7576 2449.85,-57.2674 2449.15,-64.2317"/>
</g>
<!-- Node23 -->
<g id="node45" class="node"><title>Node23</title>
<a xlink:href="funcs_8cpp.html" target="_top" xlink:title="file containing miscellaneous numerical functions.">
<polygon fill="white" stroke="black" points="2151,-0.5 2151,-19.5 2209,-19.5 2209,-0.5 2151,-0.5"/>
<text text-anchor="middle" x="2180" y="-7.5" font-family="FreeSans" font-size="10.00">funcs.cpp</text>
</a>
</g>
<!-- Node1&#45;&gt;Node23 -->
<g id="edge44" class="edge"><title>Node1&#45;&gt;Node23</title>
<path fill="none" stroke="midnightblue" d="M2449.44,-58.8392C2395.07,-50.928 2299.33,-36.2653 2218,-20 2215.07,-19.415 2212.03,-18.7653 2209,-18.0903"/>
<polygon fill="midnightblue" stroke="midnightblue" points="2449.02,-62.3153 2459.42,-60.2833 2450.02,-55.3874 2449.02,-62.3153"/>
</g>
<!-- Node24 -->
<g id="node47" class="node"><title>Node24</title>
<a xlink:href="IDA__Solver_8cpp.html" target="_top" xlink:title="IDA_Solver.cpp">
<polygon fill="white" stroke="black" points="2227.5,-0.5 2227.5,-19.5 2312.5,-19.5 2312.5,-0.5 2227.5,-0.5"/>
<text text-anchor="middle" x="2270" y="-7.5" font-family="FreeSans" font-size="10.00">IDA_Solver.cpp</text>
</a>
</g>
<!-- Node1&#45;&gt;Node24 -->
<g id="edge46" class="edge"><title>Node1&#45;&gt;Node24</title>
<path fill="none" stroke="midnightblue" d="M2449.16,-54.3852C2407.07,-44.1907 2344.27,-28.9847 2305.29,-19.5467"/>
<polygon fill="midnightblue" stroke="midnightblue" points="2448.59,-57.8467 2459.13,-56.7986 2450.24,-51.0433 2448.59,-57.8467"/>
</g>
<!-- Node25 -->
<g id="node49" class="node"><title>Node25</title>
<a xlink:href="NonlinearSolver_8cpp.html" target="_top" xlink:title="Damped Newton solver for 0D and 1D problems.">
<polygon fill="white" stroke="black" points="2330.5,-0.5 2330.5,-19.5 2437.5,-19.5 2437.5,-0.5 2330.5,-0.5"/>
<text text-anchor="middle" x="2384" y="-7.5" font-family="FreeSans" font-size="10.00">NonlinearSolver.cpp</text>
</a>
</g>
<!-- Node1&#45;&gt;Node25 -->
<g id="edge48" class="edge"><title>Node1&#45;&gt;Node25</title>
<path fill="none" stroke="midnightblue" d="M2466.48,-51.8622C2446.27,-41.8492 2419.01,-28.3458 2401.47,-19.6545"/>
<polygon fill="midnightblue" stroke="midnightblue" points="2464.97,-55.0209 2475.49,-56.324 2468.08,-48.7485 2464.97,-55.0209"/>
</g>
<!-- Node26 -->
<g id="node51" class="node"><title>Node26</title>
<a xlink:href="RootFind_8cpp_source.html" target="_top" xlink:title="RootFind.cpp">
<polygon fill="white" stroke="black" points="2455.5,-0.5 2455.5,-19.5 2530.5,-19.5 2530.5,-0.5 2455.5,-0.5"/>
<text text-anchor="middle" x="2493" y="-7.5" font-family="FreeSans" font-size="10.00">RootFind.cpp</text>
</a>
</g>
<!-- Node1&#45;&gt;Node26 -->
<g id="edge50" class="edge"><title>Node1&#45;&gt;Node26</title>
<path fill="none" stroke="midnightblue" d="M2493,-45.8045C2493,-36.9102 2493,-26.7798 2493,-19.7511"/>
<polygon fill="midnightblue" stroke="midnightblue" points="2489.5,-46.083 2493,-56.083 2496.5,-46.083 2489.5,-46.083"/>
</g>
<!-- Node27 -->
<g id="node53" class="node"><title>Node27</title>
<a xlink:href="solveProb_8cpp_source.html" target="_top" xlink:title="solveProb.cpp">
<polygon fill="white" stroke="black" points="2549,-0.5 2549,-19.5 2629,-19.5 2629,-0.5 2549,-0.5"/>
<text text-anchor="middle" x="2589" y="-7.5" font-family="FreeSans" font-size="10.00">solveProb.cpp</text>
</a>
</g>
<!-- Node1&#45;&gt;Node27 -->
<g id="edge52" class="edge"><title>Node1&#45;&gt;Node27</title>
<path fill="none" stroke="midnightblue" d="M2517.57,-51.1774C2535.24,-41.2407 2558.51,-28.1492 2573.61,-19.6545"/>
<polygon fill="midnightblue" stroke="midnightblue" points="2515.42,-48.3708 2508.42,-56.324 2518.86,-54.4718 2515.42,-48.3708"/>
</g>
<!-- Node28 -->
<g id="node55" class="node"><title>Node28</title>
<a xlink:href="SquareMatrix_8cpp_source.html" target="_top" xlink:title="SquareMatrix.cpp">
<polygon fill="white" stroke="black" points="2647.5,-0.5 2647.5,-19.5 2742.5,-19.5 2742.5,-0.5 2647.5,-0.5"/>
<text text-anchor="middle" x="2695" y="-7.5" font-family="FreeSans" font-size="10.00">SquareMatrix.cpp</text>
</a>
</g>
<!-- Node1&#45;&gt;Node28 -->
<g id="edge54" class="edge"><title>Node1&#45;&gt;Node28</title>
<path fill="none" stroke="midnightblue" d="M2534.79,-53.8291C2572.93,-43.6333 2628.48,-28.7823 2663.14,-19.5164"/>
<polygon fill="midnightblue" stroke="midnightblue" points="2533.76,-50.4796 2525.01,-56.4435 2535.57,-57.2422 2533.76,-50.4796"/>
</g>
<!-- Node29 -->
<g id="node57" class="node"><title>Node29</title>
<a xlink:href="MultiNewton_8cpp.html" target="_top" xlink:title="Damped Newton solver for 1D multi&#45;domain problems.">
<polygon fill="white" stroke="black" points="2760.5,-0.5 2760.5,-19.5 2849.5,-19.5 2849.5,-0.5 2760.5,-0.5"/>
<text text-anchor="middle" x="2805" y="-7.5" font-family="FreeSans" font-size="10.00">MultiNewton.cpp</text>
</a>
</g>
<!-- Node1&#45;&gt;Node29 -->
<g id="edge56" class="edge"><title>Node1&#45;&gt;Node29</title>
<path fill="none" stroke="midnightblue" d="M2536.83,-57.4137C2596.01,-47.1709 2700.9,-29.0172 2760.45,-18.7108"/>
<polygon fill="midnightblue" stroke="midnightblue" points="2535.94,-54.0155 2526.69,-59.1697 2537.14,-60.913 2535.94,-54.0155"/>
</g>
<!-- Node30 -->
<g id="node59" class="node"><title>Node30</title>
<a xlink:href="DebyeHuckel_8cpp.html" target="_top" xlink:title="Declarations for the DebyeHuckel ThermoPhase object, which models dilute electrolyte solutions (see T...">
<polygon fill="white" stroke="black" points="2867.5,-0.5 2867.5,-19.5 2962.5,-19.5 2962.5,-0.5 2867.5,-0.5"/>
<text text-anchor="middle" x="2915" y="-7.5" font-family="FreeSans" font-size="10.00">DebyeHuckel.cpp</text>
</a>
</g>
<!-- Node1&#45;&gt;Node30 -->
<g id="edge58" class="edge"><title>Node1&#45;&gt;Node30</title>
<path fill="none" stroke="midnightblue" d="M2536.51,-60.1197C2604.99,-52.3288 2742.08,-36.2923 2858,-20 2861.08,-19.5677 2864.24,-19.1082 2867.43,-18.6343"/>
<polygon fill="midnightblue" stroke="midnightblue" points="2536.06,-56.6483 2526.51,-61.2533 2536.85,-63.6037 2536.06,-56.6483"/>
</g>
<!-- Node31 -->
<g id="node61" class="node"><title>Node31</title>
<a xlink:href="Elements_8cpp.html" target="_top" xlink:title="This file contains a database of atomic weights.">
<polygon fill="white" stroke="black" points="2981,-0.5 2981,-19.5 3057,-19.5 3057,-0.5 2981,-0.5"/>
<text text-anchor="middle" x="3019" y="-7.5" font-family="FreeSans" font-size="10.00">Elements.cpp</text>
</a>
</g>
<!-- Node1&#45;&gt;Node31 -->
<g id="edge60" class="edge"><title>Node1&#45;&gt;Node31</title>
<path fill="none" stroke="midnightblue" d="M2536.72,-62.2285C2621,-56.5878 2811.73,-42.3803 2971,-20 2974.19,-19.5517 2977.49,-19.0381 2980.8,-18.4886"/>
<polygon fill="midnightblue" stroke="midnightblue" points="2536.48,-58.7362 2526.74,-62.8895 2536.95,-65.7209 2536.48,-58.7362"/>
</g>
<!-- Node32 -->
<g id="node63" class="node"><title>Node32</title>
<a xlink:href="GibbsExcessVPSSTP_8cpp.html" target="_top" xlink:title="Definitions for intermediate ThermoPhase object for phases which employ excess gibbs free energy form...">
<polygon fill="white" stroke="black" points="3075,-0.5 3075,-19.5 3209,-19.5 3209,-0.5 3075,-0.5"/>
<text text-anchor="middle" x="3142" y="-7.5" font-family="FreeSans" font-size="10.00">GibbsExcessVPSSTP.cpp</text>
</a>
</g>
<!-- Node1&#45;&gt;Node32 -->
<g id="edge62" class="edge"><title>Node1&#45;&gt;Node32</title>
<path fill="none" stroke="midnightblue" d="M2536.82,-62.1514C2632.81,-55.7815 2868.82,-39.4099 3066,-20 3068.91,-19.7136 3071.88,-19.41 3074.88,-19.0943"/>
<polygon fill="midnightblue" stroke="midnightblue" points="2536.37,-58.6733 2526.63,-62.8253 2536.83,-65.6581 2536.37,-58.6733"/>
</g>
<!-- Node33 -->
<g id="node65" class="node"><title>Node33</title>
<a xlink:href="HMWSoln_8cpp.html" target="_top" xlink:title="Definitions for the HMWSoln ThermoPhase object, which models concentrated electrolyte solutions (see ...">
<polygon fill="white" stroke="black" points="3227.5,-0.5 3227.5,-19.5 3306.5,-19.5 3306.5,-0.5 3227.5,-0.5"/>
<text text-anchor="middle" x="3267" y="-7.5" font-family="FreeSans" font-size="10.00">HMWSoln.cpp</text>
</a>
</g>
<!-- Node1&#45;&gt;Node33 -->
<g id="edge64" class="edge"><title>Node1&#45;&gt;Node33</title>
<path fill="none" stroke="midnightblue" d="M2536.74,-64.1076C2649.82,-61.4064 2960.96,-51.4676 3218,-20 3221.09,-19.6216 3224.28,-19.1717 3227.48,-18.6778"/>
<polygon fill="midnightblue" stroke="midnightblue" points="2536.65,-60.6086 2526.74,-64.3399 2536.82,-67.6067 2536.65,-60.6086"/>
</g>
<!-- Node34 -->
<g id="node67" class="node"><title>Node34</title>
<a xlink:href="HMWSoln__input_8cpp.html" target="_top" xlink:title="Definitions for the HMWSoln ThermoPhase object, which models concentrated electrolyte solutions (see ...">
<polygon fill="white" stroke="black" points="3325,-0.5 3325,-19.5 3429,-19.5 3429,-0.5 3325,-0.5"/>
<text text-anchor="middle" x="3377" y="-7.5" font-family="FreeSans" font-size="10.00">HMWSoln_input.cpp</text>
</a>
</g>
<!-- Node1&#45;&gt;Node34 -->
<g id="edge66" class="edge"><title>Node1&#45;&gt;Node34</title>
<path fill="none" stroke="midnightblue" d="M2536.9,-63.9787C2659.96,-60.8183 3018.59,-49.5677 3315,-20 3318.25,-19.6761 3321.58,-19.3046 3324.95,-18.9009"/>
<polygon fill="midnightblue" stroke="midnightblue" points="2536.66,-60.4836 2526.75,-64.2347 2536.84,-67.4814 2536.66,-60.4836"/>
</g>
<!-- Node35 -->
<g id="node69" class="node"><title>Node35</title>
<a xlink:href="IdealSolidSolnPhase_8cpp.html" target="_top" xlink:title="Implementation file for an ideal solid solution model with incompressible thermodynamics (see \ref th...">
<polygon fill="white" stroke="black" points="3447,-0.5 3447,-19.5 3577,-19.5 3577,-0.5 3447,-0.5"/>
<text text-anchor="middle" x="3512" y="-7.5" font-family="FreeSans" font-size="10.00">IdealSolidSolnPhase.cpp</text>
</a>
</g>
<!-- Node1&#45;&gt;Node35 -->
<g id="edge68" class="edge"><title>Node1&#45;&gt;Node35</title>
<path fill="none" stroke="midnightblue" d="M2536.85,-64.057C2671.59,-60.9139 3091.41,-49.2884 3438,-20 3440.84,-19.7602 3443.73,-19.4952 3446.66,-19.2111"/>
<polygon fill="midnightblue" stroke="midnightblue" points="2536.46,-60.5651 2526.54,-64.2939 2536.62,-67.5632 2536.46,-60.5651"/>
</g>
<!-- Node36 -->
<g id="node71" class="node"><title>Node36</title>
<a xlink:href="IdealSolnGasVPSS_8cpp.html" target="_top" xlink:title="Definition file for a derived class of ThermoPhase that assumes either an ideal gas or ideal solution...">
<polygon fill="white" stroke="black" points="3595,-0.5 3595,-19.5 3719,-19.5 3719,-0.5 3595,-0.5"/>
<text text-anchor="middle" x="3657" y="-7.5" font-family="FreeSans" font-size="10.00">IdealSolnGasVPSS.cpp</text>
</a>
</g>
<!-- Node1&#45;&gt;Node36 -->
<g id="edge70" class="edge"><title>Node1&#45;&gt;Node36</title>
<path fill="none" stroke="midnightblue" d="M2536.63,-64.5335C2684.33,-62.6709 3178.94,-54.1173 3586,-20 3588.85,-19.7613 3591.76,-19.4929 3594.69,-19.202"/>
<polygon fill="midnightblue" stroke="midnightblue" points="2536.56,-61.034 2526.61,-64.6563 2536.65,-68.0335 2536.56,-61.034"/>
</g>
<!-- Node37 -->
<g id="node73" class="node"><title>Node37</title>
<a xlink:href="IonsFromNeutralVPSSTP_8cpp.html" target="_top" xlink:title="Definitions for the object which treats ionic liquids as made of ions as species even though the ther...">
<polygon fill="white" stroke="black" points="3737,-0.5 3737,-19.5 3885,-19.5 3885,-0.5 3737,-0.5"/>
<text text-anchor="middle" x="3811" y="-7.5" font-family="FreeSans" font-size="10.00">IonsFromNeutralVPSSTP.cpp</text>
</a>
</g>
<!-- Node1&#45;&gt;Node37 -->
<g id="edge72" class="edge"><title>Node1&#45;&gt;Node37</title>
<path fill="none" stroke="midnightblue" d="M2537.31,-64.5092C2697.63,-62.4943 3262.44,-53.3164 3727,-20 3730.22,-19.7692 3733.5,-19.5116 3736.82,-19.2335"/>
<polygon fill="midnightblue" stroke="midnightblue" points="2536.86,-61.0143 2526.91,-64.6369 2536.95,-68.0138 2536.86,-61.0143"/>
</g>
<!-- Node38 -->
<g id="node75" class="node"><title>Node38</title>
<a xlink:href="LatticePhase_8cpp.html" target="_top" xlink:title="Definitions for a simple thermodynamics model of a bulk phase derived from ThermoPhase, assuming a lattice of solid atoms (see Thermodynamic Properties and class LatticePhase).">
<polygon fill="white" stroke="black" points="3903.5,-0.5 3903.5,-19.5 3996.5,-19.5 3996.5,-0.5 3903.5,-0.5"/>
<text text-anchor="middle" x="3950" y="-7.5" font-family="FreeSans" font-size="10.00">LatticePhase.cpp</text>
</a>
</g>
<!-- Node1&#45;&gt;Node38 -->
<g id="edge74" class="edge"><title>Node1&#45;&gt;Node38</title>
<path fill="none" stroke="midnightblue" d="M2536.75,-64.3456C2743.17,-61.1432 3621.08,-46.2071 3894,-20 3897.04,-19.7082 3900.16,-19.3551 3903.31,-18.9599"/>
<polygon fill="midnightblue" stroke="midnightblue" points="2536.54,-60.8483 2526.6,-64.502 2536.65,-67.8475 2536.54,-60.8483"/>
</g>
<!-- Node39 -->
<g id="node77" class="node"><title>Node39</title>
<a xlink:href="MargulesVPSSTP_8cpp.html" target="_top" xlink:title="Definitions for ThermoPhase object for phases which employ excess gibbs free energy formulations rela...">
<polygon fill="white" stroke="black" points="4014.5,-0.5 4014.5,-19.5 4131.5,-19.5 4131.5,-0.5 4014.5,-0.5"/>
<text text-anchor="middle" x="4073" y="-7.5" font-family="FreeSans" font-size="10.00">MargulesVPSSTP.cpp</text>
</a>
</g>
<!-- Node1&#45;&gt;Node39 -->
<g id="edge76" class="edge"><title>Node1&#45;&gt;Node39</title>
<path fill="none" stroke="midnightblue" d="M2536.78,-65.3246C2717.81,-66.3234 3425.61,-66.8411 4005,-20 4008.09,-19.7505 4011.25,-19.4588 4014.44,-19.1362"/>
<polygon fill="midnightblue" stroke="midnightblue" points="2536.61,-61.8236 2526.59,-65.2647 2536.57,-68.8235 2536.61,-61.8236"/>
</g>
<!-- Node40 -->
<g id="node79" class="node"><title>Node40</title>
<a xlink:href="MixedSolventElectrolyte_8cpp_source.html" target="_top" xlink:title="MixedSolventElectrolyte.cpp">
<polygon fill="white" stroke="black" points="4149.5,-0.5 4149.5,-19.5 4292.5,-19.5 4292.5,-0.5 4149.5,-0.5"/>
<text text-anchor="middle" x="4221" y="-7.5" font-family="FreeSans" font-size="10.00">MixedSolventElectrolyte.cpp</text>
</a>
</g>
<!-- Node1&#45;&gt;Node40 -->
<g id="edge78" class="edge"><title>Node1&#45;&gt;Node40</title>
<path fill="none" stroke="midnightblue" d="M2536.87,-65.1424C2727.66,-65.4793 3504.24,-63.9283 4140,-20 4143.11,-19.7854 4146.28,-19.5413 4149.48,-19.2742"/>
<polygon fill="midnightblue" stroke="midnightblue" points="2536.69,-61.6421 2526.68,-65.1215 2536.67,-68.6421 2536.69,-61.6421"/>
</g>
<!-- Node41 -->
<g id="node81" class="node"><title>Node41</title>
<a xlink:href="MixtureFugacityTP_8cpp.html" target="_top" xlink:title="Methods file for a derived class of ThermoPhase that handles non&#45;ideal mixtures based on the fugacity...">
<polygon fill="white" stroke="black" points="4310.5,-0.5 4310.5,-19.5 4429.5,-19.5 4429.5,-0.5 4310.5,-0.5"/>
<text text-anchor="middle" x="4370" y="-7.5" font-family="FreeSans" font-size="10.00">MixtureFugacityTP.cpp</text>
</a>
</g>
<!-- Node1&#45;&gt;Node41 -->
<g id="edge80" class="edge"><title>Node1&#45;&gt;Node41</title>
<path fill="none" stroke="midnightblue" d="M2536.83,-64.5336C2777.7,-61.8757 3942.41,-47.7718 4301,-20 4304.01,-19.7668 4307.09,-19.4933 4310.2,-19.1896"/>
<polygon fill="midnightblue" stroke="midnightblue" points="2536.67,-61.035 2526.71,-64.6445 2536.75,-68.0346 2536.67,-61.035"/>
</g>
<!-- Node42 -->
<g id="node83" class="node"><title>Node42</title>
<a xlink:href="MolalityVPSSTP_8cpp.html" target="_top" xlink:title="Definitions for intermediate ThermoPhase object for phases which employ molality based activity coeff...">
<polygon fill="white" stroke="black" points="4448,-0.5 4448,-19.5 4558,-19.5 4558,-0.5 4448,-0.5"/>
<text text-anchor="middle" x="4503" y="-7.5" font-family="FreeSans" font-size="10.00">MolalityVPSSTP.cpp</text>
</a>
</g>
<!-- Node1&#45;&gt;Node42 -->
<g id="edge82" class="edge"><title>Node1&#45;&gt;Node42</title>
<path fill="none" stroke="midnightblue" d="M2536.9,-64.6685C2788.6,-62.6641 4050.71,-51.1899 4438,-20 4441.18,-19.7439 4444.44,-19.4362 4447.73,-19.0912"/>
<polygon fill="midnightblue" stroke="midnightblue" points="2536.66,-61.1702 2526.69,-64.749 2536.71,-68.17 2536.66,-61.1702"/>
</g>
<!-- Node43 -->
<g id="node85" class="node"><title>Node43</title>
<a xlink:href="MolarityIonicVPSSTP_8cpp.html" target="_top" xlink:title="Definitions for intermediate ThermoPhase object for phases which employ excess gibbs free energy form...">
<polygon fill="white" stroke="black" points="4576.5,-0.5 4576.5,-19.5 4707.5,-19.5 4707.5,-0.5 4576.5,-0.5"/>
<text text-anchor="middle" x="4642" y="-7.5" font-family="FreeSans" font-size="10.00">MolarityIonicVPSSTP.cpp</text>
</a>
</g>
<!-- Node1&#45;&gt;Node43 -->
<g id="edge84" class="edge"><title>Node1&#45;&gt;Node43</title>
<path fill="none" stroke="midnightblue" d="M2536.86,-64.6332C2798.15,-62.3596 4152.19,-49.318 4567,-20 4570.01,-19.7873 4573.08,-19.5403 4576.18,-19.2666"/>
<polygon fill="midnightblue" stroke="midnightblue" points="2536.6,-61.1352 2526.63,-64.7215 2536.66,-68.135 2536.6,-61.1352"/>
</g>
<!-- Node44 -->
<g id="node87" class="node"><title>Node44</title>
<a xlink:href="PDSS__HKFT_8cpp.html" target="_top" xlink:title="Definitions for the class PDSS_HKFT (pressure dependent standard state) which handles calculations fo...">
<polygon fill="white" stroke="black" points="4725.5,-0.5 4725.5,-19.5 4820.5,-19.5 4820.5,-0.5 4725.5,-0.5"/>
<text text-anchor="middle" x="4773" y="-7.5" font-family="FreeSans" font-size="10.00">PDSS_HKFT.cpp</text>
</a>
</g>
<!-- Node1&#45;&gt;Node44 -->
<g id="edge86" class="edge"><title>Node1&#45;&gt;Node44</title>
<path fill="none" stroke="midnightblue" d="M2536.97,-64.9286C2809.44,-64.3628 4270.4,-59.5038 4716,-20 4719.09,-19.7257 4722.27,-19.3859 4725.47,-19.0005"/>
<polygon fill="midnightblue" stroke="midnightblue" points="2536.68,-61.4291 2526.69,-64.9491 2536.7,-68.4291 2536.68,-61.4291"/>
</g>
<!-- Node45 -->
<g id="node89" class="node"><title>Node45</title>
<a xlink:href="PDSS__IonsFromNeutral_8cpp.html" target="_top" xlink:title="Implementation of a pressure dependent standard state virtual function.">
<polygon fill="white" stroke="black" points="4839,-0.5 4839,-19.5 4979,-19.5 4979,-0.5 4839,-0.5"/>
<text text-anchor="middle" x="4909" y="-7.5" font-family="FreeSans" font-size="10.00">PDSS_IonsFromNeutral.cpp</text>
</a>
</g>
<!-- Node1&#45;&gt;Node45 -->
<g id="edge88" class="edge"><title>Node1&#45;&gt;Node45</title>
<path fill="none" stroke="midnightblue" d="M2536.95,-64.7112C2817.31,-62.7849 4358.7,-50.9174 4829,-20 4832.21,-19.7891 4835.48,-19.5435 4838.79,-19.2711"/>
<polygon fill="midnightblue" stroke="midnightblue" points="2536.75,-61.2124 2526.77,-64.7806 2536.79,-68.2123 2536.75,-61.2124"/>
</g>
<!-- Node46 -->
<g id="node91" class="node"><title>Node46</title>
<a xlink:href="PDSS__Water_8cpp.html" target="_top" xlink:title="PDSS_Water.cpp">
<polygon fill="white" stroke="black" points="4997,-0.5 4997,-19.5 5091,-19.5 5091,-0.5 4997,-0.5"/>
<text text-anchor="middle" x="5044" y="-7.5" font-family="FreeSans" font-size="10.00">PDSS_Water.cpp</text>
</a>
</g>
<!-- Node1&#45;&gt;Node46 -->
<g id="edge90" class="edge"><title>Node1&#45;&gt;Node46</title>
<path fill="none" stroke="midnightblue" d="M2536.71,-65.0574C2827.4,-65.3116 4484.75,-64.7523 4988,-20 4990.84,-19.7471 4993.76,-19.4359 4996.7,-19.083"/>
<polygon fill="midnightblue" stroke="midnightblue" points="2536.57,-61.5573 2526.57,-65.0476 2536.56,-68.5573 2536.57,-61.5573"/>
</g>
<!-- Node47 -->
<g id="node93" class="node"><title>Node47</title>
<a xlink:href="Phase_8cpp.html" target="_top" xlink:title="Definition file for class Phase.">
<polygon fill="white" stroke="black" points="5109,-0.5 5109,-19.5 5173,-19.5 5173,-0.5 5109,-0.5"/>
<text text-anchor="middle" x="5141" y="-7.5" font-family="FreeSans" font-size="10.00">Phase.cpp</text>
</a>
</g>
<!-- Node1&#45;&gt;Node47 -->
<g id="edge92" class="edge"><title>Node1&#45;&gt;Node47</title>
<path fill="none" stroke="midnightblue" d="M2537.09,-64.768C2858.49,-63.0072 4835.77,-50.9685 5100,-20 5102.9,-19.6607 5105.89,-19.2077 5108.87,-18.6848"/>
<polygon fill="midnightblue" stroke="midnightblue" points="2536.76,-61.2696 2526.78,-64.824 2536.8,-68.2695 2536.76,-61.2696"/>
</g>
<!-- Node48 -->
<g id="node95" class="node"><title>Node48</title>
<a xlink:href="PhaseCombo__Interaction_8cpp.html" target="_top" xlink:title="PhaseCombo_Interaction.cpp">
<polygon fill="white" stroke="black" points="5191,-0.5 5191,-19.5 5339,-19.5 5339,-0.5 5191,-0.5"/>
<text text-anchor="middle" x="5265" y="-7.5" font-family="FreeSans" font-size="10.00">PhaseCombo_Interaction.cpp</text>
</a>
</g>
<!-- Node1&#45;&gt;Node48 -->
<g id="edge94" class="edge"><title>Node1&#45;&gt;Node48</title>
<path fill="none" stroke="midnightblue" d="M2536.7,-64.8163C2840.08,-63.4584 4636.55,-54.0652 5182,-20 5184.89,-19.8193 5187.84,-19.6119 5190.82,-19.3831"/>
<polygon fill="midnightblue" stroke="midnightblue" points="2536.52,-61.3169 2526.54,-64.8612 2536.56,-68.3168 2536.52,-61.3169"/>
</g>
<!-- Node49 -->
<g id="node97" class="node"><title>Node49</title>
<a xlink:href="PseudoBinaryVPSSTP_8cpp.html" target="_top" xlink:title="Definitions for intermediate ThermoPhase object for phases which employ excess gibbs free energy form...">
<polygon fill="white" stroke="black" points="5357.5,-0.5 5357.5,-19.5 5496.5,-19.5 5496.5,-0.5 5357.5,-0.5"/>
<text text-anchor="middle" x="5427" y="-7.5" font-family="FreeSans" font-size="10.00">PseudoBinaryVPSSTP.cpp</text>
</a>
</g>
<!-- Node1&#45;&gt;Node49 -->
<g id="edge96" class="edge"><title>Node1&#45;&gt;Node49</title>
<path fill="none" stroke="midnightblue" d="M2536.91,-64.8973C2851.57,-64.0727 4767.46,-57.5537 5348,-20 5351.03,-19.804 5354.12,-19.5751 5357.25,-19.3206"/>
<polygon fill="midnightblue" stroke="midnightblue" points="2536.8,-61.3974 2526.81,-64.9232 2536.82,-68.3974 2536.8,-61.3974"/>
</g>
<!-- Node50 -->
<g id="node99" class="node"><title>Node50</title>
<a xlink:href="RedlichKisterVPSSTP_8cpp.html" target="_top" xlink:title="Definitions for ThermoPhase object for phases which employ excess gibbs free energy formulations rela...">
<polygon fill="white" stroke="black" points="5515,-0.5 5515,-19.5 5649,-19.5 5649,-0.5 5515,-0.5"/>
<text text-anchor="middle" x="5582" y="-7.5" font-family="FreeSans" font-size="10.00">RedlichKisterVPSSTP.cpp</text>
</a>
</g>
<!-- Node1&#45;&gt;Node50 -->
<g id="edge98" class="edge"><title>Node1&#45;&gt;Node50</title>
<path fill="none" stroke="midnightblue" d="M2537.25,-64.9561C2862.78,-64.5408 4891.3,-60.3458 5505,-20 5508.22,-19.7881 5511.52,-19.5368 5514.84,-19.2554"/>
<polygon fill="midnightblue" stroke="midnightblue" points="2536.82,-61.4565 2526.82,-64.9688 2536.83,-68.4565 2536.82,-61.4565"/>
</g>
</g>
</svg>
