<?xml version="1.0" encoding="UTF-8" standalone="no"?>
<!DOCTYPE svg PUBLIC "-//W3C//DTD SVG 1.1//EN"
 "http://www.w3.org/Graphics/SVG/1.1/DTD/svg11.dtd">
<!-- Generated by graphviz version 2.28.0 (20120425.2022)
 -->
<!-- Title: TransportParams.h Pages: 1 -->
<svg width="453pt" height="364pt"
 viewBox="0.00 0.00 453.00 364.00" xmlns="http://www.w3.org/2000/svg" xmlns:xlink="http://www.w3.org/1999/xlink">
<g id="graph1" class="graph" transform="scale(1 1) rotate(0) translate(4 360)">
<title>TransportParams.h</title>
<polygon fill="white" stroke="white" points="-4,5 -4,-360 450,-360 450,5 -4,5"/>
<!-- Node1 -->
<g id="node1" class="node"><title>Node1</title>
<polygon fill="#bfbfbf" stroke="black" points="44.5,-336.5 44.5,-355.5 145.5,-355.5 145.5,-336.5 44.5,-336.5"/>
<text text-anchor="middle" x="95" y="-343.5" font-family="FreeSans" font-size="10.00">TransportParams.h</text>
</g>
<!-- Node2 -->
<g id="node3" class="node"><title>Node2</title>
<polygon fill="white" stroke="#bfbfbf" points="0,-0.5 0,-19.5 44,-19.5 44,-0.5 0,-0.5"/>
<text text-anchor="middle" x="22" y="-7.5" font-family="FreeSans" font-size="10.00">vector</text>
</g>
<!-- Node1&#45;&gt;Node2 -->
<g id="edge2" class="edge"><title>Node1&#45;&gt;Node2</title>
<path fill="none" stroke="midnightblue" d="M79.8081,-336.268C53.6775,-319.983 3,-282.303 3,-235 3,-235 3,-235 3,-121 3,-88.4885 11.159,-51.3503 16.7838,-29.6103"/>
<polygon fill="midnightblue" stroke="midnightblue" points="20.218,-30.3175 19.4376,-19.7514 13.4586,-28.498 20.218,-30.3175"/>
</g>
<!-- Node3 -->
<g id="node5" class="node"><title>Node3</title>
<a xlink:href="ct__defs_8h.html" target="_top" xlink:title="This file contains definitions of terms that are used in internal routines and are unlikely to need m...">
<polygon fill="white" stroke="black" points="144.5,-56.5 144.5,-75.5 263.5,-75.5 263.5,-56.5 144.5,-56.5"/>
<text text-anchor="middle" x="204" y="-63.5" font-family="FreeSans" font-size="10.00">cantera/base/ct_defs.h</text>
</a>
</g>
<!-- Node1&#45;&gt;Node3 -->
<g id="edge4" class="edge"><title>Node1&#45;&gt;Node3</title>
<path fill="none" stroke="midnightblue" d="M87.2631,-336.306C72.3316,-318.594 41,-276.485 41,-235 41,-235 41,-235 41,-177 41,-146.205 42.7869,-133.329 65,-112 83.8144,-93.9345 109.942,-83.1215 134.471,-76.6495"/>
<polygon fill="midnightblue" stroke="midnightblue" points="135.605,-79.9759 144.496,-74.2139 133.952,-73.1738 135.605,-79.9759"/>
</g>
<!-- Node9 -->
<g id="node18" class="node"><title>Node9</title>
<a xlink:href="DenseMatrix_8h.html" target="_top" xlink:title="Headers for the DenseMatrix object, which deals with dense rectangular matrices and description of th...">
<polygon fill="white" stroke="black" points="247.5,-224.5 247.5,-243.5 408.5,-243.5 408.5,-224.5 247.5,-224.5"/>
<text text-anchor="middle" x="328" y="-231.5" font-family="FreeSans" font-size="10.00">cantera/numerics/DenseMatrix.h</text>
</a>
</g>
<!-- Node1&#45;&gt;Node9 -->
<g id="edge18" class="edge"><title>Node1&#45;&gt;Node9</title>
<path fill="none" stroke="midnightblue" d="M117.164,-336.403C139.165,-327.721 173.74,-313.673 203,-300 238.566,-283.38 278.668,-262.051 303.639,-248.45"/>
<polygon fill="midnightblue" stroke="midnightblue" points="305.335,-251.512 312.428,-243.642 301.975,-245.371 305.335,-251.512"/>
</g>
<!-- Node14 -->
<g id="node32" class="node"><title>Node14</title>
<a xlink:href="TransportBase_8h.html" target="_top" xlink:title="Headers for the Transport object, which is the virtual base class for all transport property evaluato...">
<polygon fill="white" stroke="black" points="103.5,-280.5 103.5,-299.5 194.5,-299.5 194.5,-280.5 103.5,-280.5"/>
<text text-anchor="middle" x="149" y="-287.5" font-family="FreeSans" font-size="10.00">TransportBase.h</text>
</a>
</g>
<!-- Node1&#45;&gt;Node14 -->
<g id="edge36" class="edge"><title>Node1&#45;&gt;Node14</title>
<path fill="none" stroke="midnightblue" d="M103.917,-336.083C111.78,-328.22 123.431,-316.569 132.919,-307.081"/>
<polygon fill="midnightblue" stroke="midnightblue" points="135.653,-309.297 140.249,-299.751 130.703,-304.347 135.653,-309.297"/>
</g>
<!-- Node3&#45;&gt;Node2 -->
<g id="edge12" class="edge"><title>Node3&#45;&gt;Node2</title>
<path fill="none" stroke="midnightblue" d="M175.162,-56.4435C142.188,-46.6602 88.3573,-30.6884 54.0839,-20.5194"/>
<polygon fill="midnightblue" stroke="midnightblue" points="54.7024,-17.0522 44.1199,-17.5631 52.7113,-23.763 54.7024,-17.0522"/>
</g>
<!-- Node4 -->
<g id="node7" class="node"><title>Node4</title>
<a xlink:href="config_8h_source.html" target="_top" xlink:title="config.h">
<polygon fill="white" stroke="black" points="199.5,-0.5 199.5,-19.5 250.5,-19.5 250.5,-0.5 199.5,-0.5"/>
<text text-anchor="middle" x="225" y="-7.5" font-family="FreeSans" font-size="10.00">config.h</text>
</a>
</g>
<!-- Node3&#45;&gt;Node4 -->
<g id="edge6" class="edge"><title>Node3&#45;&gt;Node4</title>
<path fill="none" stroke="midnightblue" d="M207.468,-56.083C210.312,-48.77 214.429,-38.1814 217.96,-29.1034"/>
<polygon fill="midnightblue" stroke="midnightblue" points="221.234,-30.3397 221.597,-19.7511 214.71,-27.8025 221.234,-30.3397"/>
</g>
<!-- Node5 -->
<g id="node9" class="node"><title>Node5</title>
<polygon fill="white" stroke="#bfbfbf" points="269,-0.5 269,-19.5 313,-19.5 313,-0.5 269,-0.5"/>
<text text-anchor="middle" x="291" y="-7.5" font-family="FreeSans" font-size="10.00">cmath</text>
</g>
<!-- Node3&#45;&gt;Node5 -->
<g id="edge8" class="edge"><title>Node3&#45;&gt;Node5</title>
<path fill="none" stroke="midnightblue" d="M217.978,-56.324C231.55,-47.9002 252.38,-34.9709 268.325,-25.0741"/>
<polygon fill="midnightblue" stroke="midnightblue" points="270.406,-27.9019 277.057,-19.6545 266.714,-21.9544 270.406,-27.9019"/>
</g>
<!-- Node6 -->
<g id="node11" class="node"><title>Node6</title>
<polygon fill="white" stroke="#bfbfbf" points="81.5,-0.5 81.5,-19.5 126.5,-19.5 126.5,-0.5 81.5,-0.5"/>
<text text-anchor="middle" x="104" y="-7.5" font-family="FreeSans" font-size="10.00">cstdlib</text>
</g>
<!-- Node3&#45;&gt;Node6 -->
<g id="edge10" class="edge"><title>Node3&#45;&gt;Node6</title>
<path fill="none" stroke="midnightblue" d="M187.933,-56.324C172.042,-47.7428 147.493,-34.486 129.042,-24.5224"/>
<polygon fill="midnightblue" stroke="midnightblue" points="130.489,-21.3264 120.027,-19.6545 127.163,-27.4857 130.489,-21.3264"/>
</g>
<!-- Node7 -->
<g id="node14" class="node"><title>Node7</title>
<polygon fill="white" stroke="#bfbfbf" points="145,-0.5 145,-19.5 181,-19.5 181,-0.5 145,-0.5"/>
<text text-anchor="middle" x="163" y="-7.5" font-family="FreeSans" font-size="10.00">map</text>
</g>
<!-- Node3&#45;&gt;Node7 -->
<g id="edge14" class="edge"><title>Node3&#45;&gt;Node7</title>
<path fill="none" stroke="midnightblue" d="M197.23,-56.083C191.438,-48.4554 182.942,-37.2645 175.862,-27.9408"/>
<polygon fill="midnightblue" stroke="midnightblue" points="178.479,-25.5991 169.644,-19.7511 172.904,-29.8321 178.479,-25.5991"/>
</g>
<!-- Node8 -->
<g id="node16" class="node"><title>Node8</title>
<polygon fill="white" stroke="#bfbfbf" points="342.5,-0.5 342.5,-19.5 383.5,-19.5 383.5,-0.5 342.5,-0.5"/>
<text text-anchor="middle" x="363" y="-7.5" font-family="FreeSans" font-size="10.00">string</text>
</g>
<!-- Node3&#45;&gt;Node8 -->
<g id="edge16" class="edge"><title>Node3&#45;&gt;Node8</title>
<path fill="none" stroke="midnightblue" d="M229.194,-56.4435C257.359,-46.8782 302.942,-31.3969 332.945,-21.2075"/>
<polygon fill="midnightblue" stroke="midnightblue" points="334.131,-24.501 342.474,-17.971 331.88,-17.8728 334.131,-24.501"/>
</g>
<!-- Node9&#45;&gt;Node3 -->
<g id="edge20" class="edge"><title>Node9&#45;&gt;Node3</title>
<path fill="none" stroke="midnightblue" d="M312.993,-224.398C299.321,-216.13 279.029,-202.744 264,-188 241.98,-166.398 236.644,-159.665 223,-132 215.687,-117.172 210.675,-99.0209 207.643,-85.6719"/>
<polygon fill="midnightblue" stroke="midnightblue" points="211.042,-84.8293 205.554,-75.7665 204.193,-86.2735 211.042,-84.8293"/>
</g>
<!-- Node10 -->
<g id="node21" class="node"><title>Node10</title>
<a xlink:href="Array_8h.html" target="_top" xlink:title="Header file for class Array2D.">
<polygon fill="white" stroke="black" points="273,-168.5 273,-187.5 383,-187.5 383,-168.5 273,-168.5"/>
<text text-anchor="middle" x="328" y="-175.5" font-family="FreeSans" font-size="10.00">cantera/base/Array.h</text>
</a>
</g>
<!-- Node9&#45;&gt;Node10 -->
<g id="edge22" class="edge"><title>Node9&#45;&gt;Node10</title>
<path fill="none" stroke="midnightblue" d="M328,-224.083C328,-217.006 328,-206.861 328,-197.986"/>
<polygon fill="midnightblue" stroke="midnightblue" points="331.5,-197.751 328,-187.751 324.5,-197.751 331.5,-197.751"/>
</g>
<!-- Node10&#45;&gt;Node3 -->
<g id="edge24" class="edge"><title>Node10&#45;&gt;Node3</title>
<path fill="none" stroke="midnightblue" d="M325.565,-168.354C321.359,-154.792 311.553,-128.379 295,-112 280.096,-97.2518 259.391,-86.4927 241.496,-79.2002"/>
<polygon fill="midnightblue" stroke="midnightblue" points="242.488,-75.8316 231.898,-75.5022 239.971,-82.3635 242.488,-75.8316"/>
</g>
<!-- Node11 -->
<g id="node24" class="node"><title>Node11</title>
<a xlink:href="ctexceptions_8h.html" target="_top" xlink:title="Definitions for the classes that are thrown when Cantera experiences an error condition (also contain...">
<polygon fill="white" stroke="red" points="365,-56.5 365,-75.5 445,-75.5 445,-56.5 365,-56.5"/>
<text text-anchor="middle" x="405" y="-63.5" font-family="FreeSans" font-size="10.00">ctexceptions.h</text>
</a>
</g>
<!-- Node10&#45;&gt;Node11 -->
<g id="edge26" class="edge"><title>Node10&#45;&gt;Node11</title>
<path fill="none" stroke="midnightblue" d="M350.469,-168.428C366.198,-161.192 386.253,-149.231 397,-132 405.556,-118.283 407.075,-99.7514 406.735,-85.9851"/>
<polygon fill="midnightblue" stroke="midnightblue" points="410.214,-85.5268 406.126,-75.7525 403.227,-85.9428 410.214,-85.5268"/>
</g>
<!-- Node12 -->
<g id="node27" class="node"><title>Node12</title>
<a xlink:href="utilities_8h.html" target="_top" xlink:title="Various templated functions that carry out common vector operations (see globalUtilFuncs).">
<polygon fill="white" stroke="red" points="232,-112.5 232,-131.5 286,-131.5 286,-112.5 232,-112.5"/>
<text text-anchor="middle" x="259" y="-119.5" font-family="FreeSans" font-size="10.00">utilities.h</text>
</a>
</g>
<!-- Node10&#45;&gt;Node12 -->
<g id="edge30" class="edge"><title>Node10&#45;&gt;Node12</title>
<path fill="none" stroke="midnightblue" d="M316.914,-168.324C306.514,-160.185 290.739,-147.839 278.278,-138.087"/>
<polygon fill="midnightblue" stroke="midnightblue" points="280.32,-135.241 270.288,-131.834 276.006,-140.753 280.32,-135.241"/>
</g>
<!-- Node13 -->
<g id="node30" class="node"><title>Node13</title>
<polygon fill="white" stroke="#bfbfbf" points="342,-112.5 342,-131.5 388,-131.5 388,-112.5 342,-112.5"/>
<text text-anchor="middle" x="365" y="-119.5" font-family="FreeSans" font-size="10.00">cstring</text>
</g>
<!-- Node10&#45;&gt;Node13 -->
<g id="edge34" class="edge"><title>Node10&#45;&gt;Node13</title>
<path fill="none" stroke="midnightblue" d="M334.11,-168.083C339.282,-160.534 346.846,-149.495 353.194,-140.23"/>
<polygon fill="midnightblue" stroke="midnightblue" points="356.239,-141.979 359.004,-131.751 350.464,-138.022 356.239,-141.979"/>
</g>
<!-- Node11&#45;&gt;Node8 -->
<g id="edge28" class="edge"><title>Node11&#45;&gt;Node8</title>
<path fill="none" stroke="midnightblue" d="M398.065,-56.083C392.071,-48.3768 383.248,-37.0333 375.952,-27.6531"/>
<polygon fill="midnightblue" stroke="midnightblue" points="378.709,-25.4958 369.806,-19.7511 373.183,-29.7934 378.709,-25.4958"/>
</g>
<!-- Node12&#45;&gt;Node3 -->
<g id="edge32" class="edge"><title>Node12&#45;&gt;Node3</title>
<path fill="none" stroke="midnightblue" d="M249.918,-112.083C241.829,-104.141 229.805,-92.3354 220.09,-82.7973"/>
<polygon fill="midnightblue" stroke="midnightblue" points="222.501,-80.2595 212.913,-75.7511 217.597,-85.2545 222.501,-80.2595"/>
</g>
<!-- Node14&#45;&gt;Node9 -->
<g id="edge46" class="edge"><title>Node14&#45;&gt;Node9</title>
<path fill="none" stroke="midnightblue" d="M177.363,-280.444C207.738,-271.28 256.11,-256.688 289.816,-246.519"/>
<polygon fill="midnightblue" stroke="midnightblue" points="291.207,-249.756 299.77,-243.516 289.185,-243.054 291.207,-249.756"/>
</g>
<!-- Node15 -->
<g id="node34" class="node"><title>Node15</title>
<a xlink:href="ThermoPhase_8h.html" target="_top" xlink:title="Header file for class ThermoPhase, the base class for phases with thermodynamic properties, and the text for the Module thermoprops (see Thermodynamic Properties and class ThermoPhase).">
<polygon fill="white" stroke="black" points="69,-224.5 69,-243.5 229,-243.5 229,-224.5 69,-224.5"/>
<text text-anchor="middle" x="149" y="-231.5" font-family="FreeSans" font-size="10.00">cantera/thermo/ThermoPhase.h</text>
</a>
</g>
<!-- Node14&#45;&gt;Node15 -->
<g id="edge38" class="edge"><title>Node14&#45;&gt;Node15</title>
<path fill="none" stroke="midnightblue" d="M149,-280.083C149,-273.006 149,-262.861 149,-253.986"/>
<polygon fill="midnightblue" stroke="midnightblue" points="152.5,-253.751 149,-243.751 145.5,-253.751 152.5,-253.751"/>
</g>
<!-- Node16 -->
<g id="node36" class="node"><title>Node16</title>
<a xlink:href="Phase_8h.html" target="_top" xlink:title="Header file for class Phase.">
<polygon fill="white" stroke="red" points="122.5,-168.5 122.5,-187.5 175.5,-187.5 175.5,-168.5 122.5,-168.5"/>
<text text-anchor="middle" x="149" y="-175.5" font-family="FreeSans" font-size="10.00">Phase.h</text>
</a>
</g>
<!-- Node15&#45;&gt;Node16 -->
<g id="edge40" class="edge"><title>Node15&#45;&gt;Node16</title>
<path fill="none" stroke="midnightblue" d="M149,-224.083C149,-217.006 149,-206.861 149,-197.986"/>
<polygon fill="midnightblue" stroke="midnightblue" points="152.5,-197.751 149,-187.751 145.5,-197.751 152.5,-197.751"/>
</g>
<!-- Node17 -->
<g id="node38" class="node"><title>Node17</title>
<a xlink:href="SpeciesThermo_8h.html" target="_top" xlink:title="Virtual base class for the calculation of multiple&#45;species thermodynamic reference&#45;state property man...">
<polygon fill="white" stroke="black" points="74.5,-112.5 74.5,-131.5 171.5,-131.5 171.5,-112.5 74.5,-112.5"/>
<text text-anchor="middle" x="123" y="-119.5" font-family="FreeSans" font-size="10.00">SpeciesThermo.h</text>
</a>
</g>
<!-- Node15&#45;&gt;Node17 -->
<g id="edge42" class="edge"><title>Node15&#45;&gt;Node17</title>
<path fill="none" stroke="midnightblue" d="M138.838,-224.185C130.092,-215.87 118.1,-202.539 113,-188 107.632,-172.698 111.299,-154.367 115.627,-141.079"/>
<polygon fill="midnightblue" stroke="midnightblue" points="118.925,-142.251 119.081,-131.657 112.353,-139.842 118.925,-142.251"/>
</g>
<!-- Node17&#45;&gt;Node3 -->
<g id="edge44" class="edge"><title>Node17&#45;&gt;Node3</title>
<path fill="none" stroke="midnightblue" d="M136.014,-112.324C148.532,-103.979 167.682,-91.2122 182.471,-81.3524"/>
<polygon fill="midnightblue" stroke="midnightblue" points="184.639,-84.1137 191.018,-75.6545 180.756,-78.2894 184.639,-84.1137"/>
</g>
</g>
</svg>
