<?xml version="1.0" encoding="UTF-8" standalone="no"?>
<!DOCTYPE svg PUBLIC "-//W3C//DTD SVG 1.1//EN"
 "http://www.w3.org/Graphics/SVG/1.1/DTD/svg11.dtd">
<!-- Generated by graphviz version 2.28.0 (20120425.2022)
 -->
<!-- Title: vcs_DoubleStarStar.h Pages: 1 -->
<svg width="2480pt" height="140pt"
 viewBox="0.00 0.00 2480.00 140.00" xmlns="http://www.w3.org/2000/svg" xmlns:xlink="http://www.w3.org/1999/xlink">
<g id="graph1" class="graph" transform="scale(1 1) rotate(0) translate(4 136)">
<title>vcs_DoubleStarStar.h</title>
<polygon fill="white" stroke="white" points="-4,5 -4,-136 2477,-136 2477,5 -4,5"/>
<!-- Node1 -->
<g id="node1" class="node"><title>Node1</title>
<polygon fill="#bfbfbf" stroke="black" points="817.5,-112.5 817.5,-131.5 930.5,-131.5 930.5,-112.5 817.5,-112.5"/>
<text text-anchor="middle" x="874" y="-119.5" font-family="FreeSans" font-size="10.00">vcs_DoubleStarStar.h</text>
</g>
<!-- Node2 -->
<g id="node3" class="node"><title>Node2</title>
<a xlink:href="vcs__DoubleStarStar_8cpp.html" target="_top" xlink:title="Header file for class DoubleStarStar.">
<polygon fill="white" stroke="black" points="455,-56.5 455,-75.5 579,-75.5 579,-56.5 455,-56.5"/>
<text text-anchor="middle" x="517" y="-63.5" font-family="FreeSans" font-size="10.00">vcs_DoubleStarStar.cpp</text>
</a>
</g>
<!-- Node1&#45;&gt;Node2 -->
<g id="edge2" class="edge"><title>Node1&#45;&gt;Node2</title>
<path fill="none" stroke="midnightblue" d="M807.338,-110.917C739.893,-100.715 636.776,-85.1174 573.303,-75.5164"/>
<polygon fill="midnightblue" stroke="midnightblue" points="807.021,-114.408 817.432,-112.444 808.068,-107.487 807.021,-114.408"/>
</g>
<!-- Node3 -->
<g id="node5" class="node"><title>Node3</title>
<a xlink:href="vcs__prob_8h.html" target="_top" xlink:title="Header for the Interface class for the vcs thermo equilibrium solver package,.">
<polygon fill="white" stroke="black" points="597.5,-56.5 597.5,-75.5 662.5,-75.5 662.5,-56.5 597.5,-56.5"/>
<text text-anchor="middle" x="630" y="-63.5" font-family="FreeSans" font-size="10.00">vcs_prob.h</text>
</a>
</g>
<!-- Node1&#45;&gt;Node3 -->
<g id="edge4" class="edge"><title>Node1&#45;&gt;Node3</title>
<path fill="none" stroke="midnightblue" d="M825.423,-110.249C777.13,-99.5615 704.395,-83.4645 662.625,-74.2203"/>
<polygon fill="midnightblue" stroke="midnightblue" points="824.817,-113.7 835.337,-112.444 826.33,-106.865 824.817,-113.7"/>
</g>
<!-- Node10 -->
<g id="node19" class="node"><title>Node10</title>
<a xlink:href="vcs__solve_8h.html" target="_top" xlink:title="Header file for the internal object that holds the vcs equilibrium problem (see Class VCS_SOLVE and E...">
<polygon fill="white" stroke="black" points="1313,-56.5 1313,-75.5 1383,-75.5 1383,-56.5 1313,-56.5"/>
<text text-anchor="middle" x="1348" y="-63.5" font-family="FreeSans" font-size="10.00">vcs_solve.h</text>
</a>
</g>
<!-- Node1&#45;&gt;Node10 -->
<g id="edge18" class="edge"><title>Node1&#45;&gt;Node10</title>
<path fill="none" stroke="midnightblue" d="M940.9,-113.378C1042.99,-101.748 1234.1,-79.9756 1312.78,-71.0125"/>
<polygon fill="midnightblue" stroke="midnightblue" points="940.244,-109.93 930.705,-114.54 941.037,-116.885 940.244,-109.93"/>
</g>
<!-- Node25 -->
<g id="node54" class="node"><title>Node25</title>
<a xlink:href="vcs__VolPhase_8h.html" target="_top" xlink:title="Header for the object representing each phase within vcs.">
<polygon fill="white" stroke="black" points="1058.5,-56.5 1058.5,-75.5 1147.5,-75.5 1147.5,-56.5 1058.5,-56.5"/>
<text text-anchor="middle" x="1103" y="-63.5" font-family="FreeSans" font-size="10.00">vcs_VolPhase.h</text>
</a>
</g>
<!-- Node1&#45;&gt;Node25 -->
<g id="edge58" class="edge"><title>Node1&#45;&gt;Node25</title>
<path fill="none" stroke="midnightblue" d="M920.273,-110.088C963.537,-99.8865 1027.26,-84.8612 1066.88,-75.5164"/>
<polygon fill="midnightblue" stroke="midnightblue" points="919.215,-106.742 910.286,-112.444 920.822,-113.555 919.215,-106.742"/>
</g>
<!-- Node4 -->
<g id="node7" class="node"><title>Node4</title>
<a xlink:href="vcs__equilibrate_8cpp.html" target="_top" xlink:title="Driver routines for equilibrium solvers.">
<polygon fill="white" stroke="black" points="513,-0.5 513,-19.5 615,-19.5 615,-0.5 513,-0.5"/>
<text text-anchor="middle" x="564" y="-7.5" font-family="FreeSans" font-size="10.00">vcs_equilibrate.cpp</text>
</a>
</g>
<!-- Node3&#45;&gt;Node4 -->
<g id="edge6" class="edge"><title>Node3&#45;&gt;Node4</title>
<path fill="none" stroke="midnightblue" d="M611.446,-49.8197C599.622,-40.1452 584.714,-27.9481 574.797,-19.8339"/>
<polygon fill="midnightblue" stroke="midnightblue" points="609.44,-52.7004 619.396,-56.324 613.873,-47.2827 609.44,-52.7004"/>
</g>
<!-- Node5 -->
<g id="node9" class="node"><title>Node5</title>
<a xlink:href="vcs__MultiPhaseEquil_8cpp.html" target="_top" xlink:title="Driver routine for the VCSnonideal equilibrium solver package.">
<polygon fill="white" stroke="black" points="633.5,-0.5 633.5,-19.5 760.5,-19.5 760.5,-0.5 633.5,-0.5"/>
<text text-anchor="middle" x="697" y="-7.5" font-family="FreeSans" font-size="10.00">vcs_MultiPhaseEquil.cpp</text>
</a>
</g>
<!-- Node3&#45;&gt;Node5 -->
<g id="edge8" class="edge"><title>Node3&#45;&gt;Node5</title>
<path fill="none" stroke="midnightblue" d="M648.835,-49.8197C660.838,-40.1452 675.972,-27.9481 686.039,-19.8339"/>
<polygon fill="midnightblue" stroke="midnightblue" points="646.354,-47.3236 640.765,-56.324 650.747,-52.7738 646.354,-47.3236"/>
</g>
<!-- Node6 -->
<g id="node11" class="node"><title>Node6</title>
<a xlink:href="vcs__prep_8cpp.html" target="_top" xlink:title="This file contains some prepatory functions.">
<polygon fill="white" stroke="black" points="778.5,-0.5 778.5,-19.5 853.5,-19.5 853.5,-0.5 778.5,-0.5"/>
<text text-anchor="middle" x="816" y="-7.5" font-family="FreeSans" font-size="10.00">vcs_prep.cpp</text>
</a>
</g>
<!-- Node3&#45;&gt;Node6 -->
<g id="edge10" class="edge"><title>Node3&#45;&gt;Node6</title>
<path fill="none" stroke="midnightblue" d="M669.378,-53.5677C704.466,-43.381 755.021,-28.7034 786.666,-19.5164"/>
<polygon fill="midnightblue" stroke="midnightblue" points="668.1,-50.2942 659.472,-56.4435 670.052,-57.0166 668.1,-50.2942"/>
</g>
<!-- Node7 -->
<g id="node13" class="node"><title>Node7</title>
<a xlink:href="vcs__prob_8cpp.html" target="_top" xlink:title="Implementation for the Interface class for the vcs thermo equilibrium solver package,.">
<polygon fill="white" stroke="black" points="-0.5,-0.5 -0.5,-19.5 74.5,-19.5 74.5,-0.5 -0.5,-0.5"/>
<text text-anchor="middle" x="37" y="-7.5" font-family="FreeSans" font-size="10.00">vcs_prob.cpp</text>
</a>
</g>
<!-- Node3&#45;&gt;Node7 -->
<g id="edge12" class="edge"><title>Node3&#45;&gt;Node7</title>
<path fill="none" stroke="midnightblue" d="M587.312,-56.0439C587.208,-56.0291 587.104,-56.0145 587,-56 365.031,-24.9717 306.227,-49.1265 84,-20 80.9521,-19.6005 77.8035,-19.1285 74.6468,-18.6133"/>
<polygon fill="midnightblue" stroke="midnightblue" points="586.778,-59.503 597.212,-57.6621 587.908,-52.5947 586.778,-59.503"/>
</g>
<!-- Node8 -->
<g id="node15" class="node"><title>Node8</title>
<a xlink:href="vcs__solve_8cpp_source.html" target="_top" xlink:title="vcs_solve.cpp">
<polygon fill="white" stroke="black" points="93,-0.5 93,-19.5 173,-19.5 173,-0.5 93,-0.5"/>
<text text-anchor="middle" x="133" y="-7.5" font-family="FreeSans" font-size="10.00">vcs_solve.cpp</text>
</a>
</g>
<!-- Node3&#45;&gt;Node8 -->
<g id="edge14" class="edge"><title>Node3&#45;&gt;Node8</title>
<path fill="none" stroke="midnightblue" d="M587.312,-56.0465C587.208,-56.0309 587.104,-56.0154 587,-56 408.252,-29.4437 361.062,-44.3491 182,-20 179.086,-19.6038 176.082,-19.154 173.063,-18.672"/>
<polygon fill="midnightblue" stroke="midnightblue" points="586.76,-59.5028 597.204,-57.7208 587.928,-52.601 586.76,-59.5028"/>
</g>
<!-- Node9 -->
<g id="node17" class="node"><title>Node9</title>
<a xlink:href="vcs__solve__phaseStability_8cpp_source.html" target="_top" xlink:title="vcs_solve_phaseStability.cpp">
<polygon fill="white" stroke="black" points="191,-0.5 191,-19.5 339,-19.5 339,-0.5 191,-0.5"/>
<text text-anchor="middle" x="265" y="-7.5" font-family="FreeSans" font-size="10.00">vcs_solve_phaseStability.cpp</text>
</a>
</g>
<!-- Node3&#45;&gt;Node9 -->
<g id="edge16" class="edge"><title>Node3&#45;&gt;Node9</title>
<path fill="none" stroke="midnightblue" d="M587.31,-56.0542C587.207,-56.0361 587.103,-56.018 587,-56 500.947,-40.9991 401.269,-27.6906 335.882,-19.5099"/>
<polygon fill="midnightblue" stroke="midnightblue" points="586.704,-59.5014 597.176,-57.8919 587.986,-52.6198 586.704,-59.5014"/>
</g>
<!-- Node10&#45;&gt;Node4 -->
<g id="edge24" class="edge"><title>Node10&#45;&gt;Node4</title>
<path fill="none" stroke="midnightblue" d="M1302.5,-62.6725C1165.38,-55.5779 757.418,-33.8645 625,-20 621.806,-19.6656 618.523,-19.2859 615.215,-18.8763"/>
<polygon fill="midnightblue" stroke="midnightblue" points="1302.49,-66.1765 1312.66,-63.1968 1302.85,-59.1858 1302.49,-66.1765"/>
</g>
<!-- Node10&#45;&gt;Node5 -->
<g id="edge30" class="edge"><title>Node10&#45;&gt;Node5</title>
<path fill="none" stroke="midnightblue" d="M1302.67,-62.1668C1205.12,-55.9174 968.082,-39.9112 770,-20 766.951,-19.6935 763.831,-19.3653 760.682,-19.0223"/>
<polygon fill="midnightblue" stroke="midnightblue" points="1302.56,-65.6672 1312.76,-62.8108 1303.01,-58.6814 1302.56,-65.6672"/>
</g>
<!-- Node10&#45;&gt;Node6 -->
<g id="edge36" class="edge"><title>Node10&#45;&gt;Node6</title>
<path fill="none" stroke="midnightblue" d="M1302.67,-62.2627C1216.65,-56.7434 1023.95,-42.822 863,-20 859.956,-19.5684 856.811,-19.0736 853.656,-18.5428"/>
<polygon fill="midnightblue" stroke="midnightblue" points="1302.67,-65.7694 1312.87,-62.9096 1303.11,-58.7834 1302.67,-65.7694"/>
</g>
<!-- Node10&#45;&gt;Node8 -->
<g id="edge46" class="edge"><title>Node10&#45;&gt;Node8</title>
<path fill="none" stroke="midnightblue" d="M1302.51,-62.7408C1263.61,-60.8391 1206.13,-58.1014 1156,-56 723.196,-37.8582 612.6,-67.2513 182,-20 179.077,-19.6792 176.066,-19.2849 173.042,-18.8422"/>
<polygon fill="midnightblue" stroke="midnightblue" points="1302.81,-66.2595 1312.97,-63.2537 1303.15,-59.2679 1302.81,-66.2595"/>
</g>
<!-- Node10&#45;&gt;Node9 -->
<g id="edge48" class="edge"><title>Node10&#45;&gt;Node9</title>
<path fill="none" stroke="midnightblue" d="M1302.51,-62.8378C1263.6,-60.9959 1206.12,-58.2914 1156,-56 796.908,-39.5842 706.422,-47.3894 348,-20 345.11,-19.7791 342.164,-19.5378 339.19,-19.2807"/>
<polygon fill="midnightblue" stroke="midnightblue" points="1302.81,-66.3561 1312.97,-63.3334 1303.14,-59.3639 1302.81,-66.3561"/>
</g>
<!-- Node11 -->
<g id="node21" class="node"><title>Node11</title>
<a xlink:href="vcs__elem_8cpp.html" target="_top" xlink:title="This file contains the algorithm for checking the satisfaction of the element abundances constraints ...">
<polygon fill="white" stroke="black" points="2394,-0.5 2394,-19.5 2472,-19.5 2472,-0.5 2394,-0.5"/>
<text text-anchor="middle" x="2433" y="-7.5" font-family="FreeSans" font-size="10.00">vcs_elem.cpp</text>
</a>
</g>
<!-- Node10&#45;&gt;Node11 -->
<g id="edge20" class="edge"><title>Node10&#45;&gt;Node11</title>
<path fill="none" stroke="midnightblue" d="M1393.33,-65.3236C1538.29,-65.8693 2003.38,-63.8328 2385,-20 2387.86,-19.6711 2390.81,-19.2707 2393.78,-18.8238"/>
<polygon fill="midnightblue" stroke="midnightblue" points="1393.07,-61.8225 1383.05,-65.2784 1393.04,-68.8224 1393.07,-61.8225"/>
</g>
<!-- Node12 -->
<g id="node23" class="node"><title>Node12</title>
<a xlink:href="vcs__elem__rearrange_8cpp.html" target="_top" xlink:title="Contains implementations for rearranging the element columns, and it contains the algorithm for choos...">
<polygon fill="white" stroke="black" points="1223,-0.5 1223,-19.5 1351,-19.5 1351,-0.5 1223,-0.5"/>
<text text-anchor="middle" x="1287" y="-7.5" font-family="FreeSans" font-size="10.00">vcs_elem_rearrange.cpp</text>
</a>
</g>
<!-- Node10&#45;&gt;Node12 -->
<g id="edge22" class="edge"><title>Node10&#45;&gt;Node12</title>
<path fill="none" stroke="midnightblue" d="M1330.53,-49.5372C1319.66,-39.9087 1306.06,-27.8694 1296.98,-19.8339"/>
<polygon fill="midnightblue" stroke="midnightblue" points="1328.39,-52.3162 1338.2,-56.324 1333.03,-47.0749 1328.39,-52.3162"/>
</g>
<!-- Node13 -->
<g id="node26" class="node"><title>Node13</title>
<a xlink:href="vcs__Gibbs_8cpp.html" target="_top" xlink:title="Functions which calculate the extrinsic Gibbs Free energies.">
<polygon fill="white" stroke="black" points="1369,-0.5 1369,-19.5 1451,-19.5 1451,-0.5 1369,-0.5"/>
<text text-anchor="middle" x="1410" y="-7.5" font-family="FreeSans" font-size="10.00">vcs_Gibbs.cpp</text>
</a>
</g>
<!-- Node10&#45;&gt;Node13 -->
<g id="edge26" class="edge"><title>Node10&#45;&gt;Node13</title>
<path fill="none" stroke="midnightblue" d="M1365.75,-49.5372C1376.81,-39.9087 1390.63,-27.8694 1399.86,-19.8339"/>
<polygon fill="midnightblue" stroke="midnightblue" points="1363.2,-47.1168 1357.96,-56.324 1367.8,-52.3954 1363.2,-47.1168"/>
</g>
<!-- Node14 -->
<g id="node28" class="node"><title>Node14</title>
<a xlink:href="vcs__inest_8cpp.html" target="_top" xlink:title="Implementation methods for obtaining a good initial guess.">
<polygon fill="white" stroke="black" points="1469.5,-0.5 1469.5,-19.5 1546.5,-19.5 1546.5,-0.5 1469.5,-0.5"/>
<text text-anchor="middle" x="1508" y="-7.5" font-family="FreeSans" font-size="10.00">vcs_inest.cpp</text>
</a>
</g>
<!-- Node10&#45;&gt;Node14 -->
<g id="edge28" class="edge"><title>Node10&#45;&gt;Node14</title>
<path fill="none" stroke="midnightblue" d="M1383.05,-53.172C1413.17,-43.0039 1455.9,-28.5852 1482.77,-19.5164"/>
<polygon fill="midnightblue" stroke="midnightblue" points="1381.71,-49.9295 1373.35,-56.4435 1383.95,-56.5619 1381.71,-49.9295"/>
</g>
<!-- Node15 -->
<g id="node31" class="node"><title>Node15</title>
<a xlink:href="vcs__nondim_8cpp.html" target="_top" xlink:title="Nondimensionalization routines within VCSnonideal.">
<polygon fill="white" stroke="black" points="1564.5,-0.5 1564.5,-19.5 1653.5,-19.5 1653.5,-0.5 1564.5,-0.5"/>
<text text-anchor="middle" x="1609" y="-7.5" font-family="FreeSans" font-size="10.00">vcs_nondim.cpp</text>
</a>
</g>
<!-- Node10&#45;&gt;Node15 -->
<g id="edge32" class="edge"><title>Node10&#45;&gt;Node15</title>
<path fill="none" stroke="midnightblue" d="M1393.21,-55.6458C1442.27,-45.4968 1519.92,-29.4295 1567.48,-19.59"/>
<polygon fill="midnightblue" stroke="midnightblue" points="1392.28,-52.2638 1383.2,-57.7173 1393.7,-59.1186 1392.28,-52.2638"/>
</g>
<!-- Node16 -->
<g id="node33" class="node"><title>Node16</title>
<a xlink:href="vcs__phaseStability_8cpp.html" target="_top" xlink:title="Implementation class for functions associated with determining the stability of a phase (see Class VC...">
<polygon fill="white" stroke="black" points="1672,-0.5 1672,-19.5 1790,-19.5 1790,-0.5 1672,-0.5"/>
<text text-anchor="middle" x="1731" y="-7.5" font-family="FreeSans" font-size="10.00">vcs_phaseStability.cpp</text>
</a>
</g>
<!-- Node10&#45;&gt;Node16 -->
<g id="edge34" class="edge"><title>Node10&#45;&gt;Node16</title>
<path fill="none" stroke="midnightblue" d="M1393.15,-58.6339C1462.4,-48.8708 1594.85,-30.1957 1671.74,-19.3557"/>
<polygon fill="midnightblue" stroke="midnightblue" points="1392.42,-55.2028 1383,-60.0647 1393.39,-62.1342 1392.42,-55.2028"/>
</g>
<!-- Node17 -->
<g id="node36" class="node"><title>Node17</title>
<a xlink:href="vcs__rearrange_8cpp.html" target="_top" xlink:title="implementation file for rearranging species.">
<polygon fill="white" stroke="black" points="2276,-0.5 2276,-19.5 2376,-19.5 2376,-0.5 2276,-0.5"/>
<text text-anchor="middle" x="2326" y="-7.5" font-family="FreeSans" font-size="10.00">vcs_rearrange.cpp</text>
</a>
</g>
<!-- Node10&#45;&gt;Node17 -->
<g id="edge38" class="edge"><title>Node10&#45;&gt;Node17</title>
<path fill="none" stroke="midnightblue" d="M1393.44,-64.4211C1527.47,-62.36 1932.74,-53.5886 2267,-20 2269.89,-19.7099 2272.85,-19.3756 2275.83,-19.0103"/>
<polygon fill="midnightblue" stroke="midnightblue" points="1393.1,-60.9257 1383.15,-64.5742 1393.2,-67.9249 1393.1,-60.9257"/>
</g>
<!-- Node18 -->
<g id="node38" class="node"><title>Node18</title>
<a xlink:href="vcs__report_8cpp_source.html" target="_top" xlink:title="vcs_report.cpp">
<polygon fill="white" stroke="black" points="1808.5,-0.5 1808.5,-19.5 1889.5,-19.5 1889.5,-0.5 1808.5,-0.5"/>
<text text-anchor="middle" x="1849" y="-7.5" font-family="FreeSans" font-size="10.00">vcs_report.cpp</text>
</a>
</g>
<!-- Node10&#45;&gt;Node18 -->
<g id="edge40" class="edge"><title>Node10&#45;&gt;Node18</title>
<path fill="none" stroke="midnightblue" d="M1393.6,-61.6427C1475.17,-55.3723 1651.33,-40.6253 1799,-20 1802.06,-19.573 1805.21,-19.0945 1808.38,-18.5866"/>
<polygon fill="midnightblue" stroke="midnightblue" points="1392.9,-58.1857 1383.2,-62.4358 1393.44,-65.1654 1392.9,-58.1857"/>
</g>
<!-- Node19 -->
<g id="node40" class="node"><title>Node19</title>
<a xlink:href="vcs__rxnadj_8cpp.html" target="_top" xlink:title="Routines for carrying out various adjustments to the reaction steps.">
<polygon fill="white" stroke="black" points="1907.5,-0.5 1907.5,-19.5 1990.5,-19.5 1990.5,-0.5 1907.5,-0.5"/>
<text text-anchor="middle" x="1949" y="-7.5" font-family="FreeSans" font-size="10.00">vcs_rxnadj.cpp</text>
</a>
</g>
<!-- Node10&#45;&gt;Node19 -->
<g id="edge42" class="edge"><title>Node10&#45;&gt;Node19</title>
<path fill="none" stroke="midnightblue" d="M1393.22,-62.7278C1487.42,-57.6815 1711.39,-44.0463 1898,-20 1901.03,-19.6093 1904.16,-19.1636 1907.3,-18.6845"/>
<polygon fill="midnightblue" stroke="midnightblue" points="1392.99,-59.2353 1383.19,-63.2592 1393.36,-66.2255 1392.99,-59.2353"/>
</g>
<!-- Node20 -->
<g id="node42" class="node"><title>Node20</title>
<a xlink:href="vcs__setMolesLinProg_8cpp.html" target="_top" xlink:title="vcs_setMolesLinProg.cpp">
<polygon fill="white" stroke="black" points="2008.5,-0.5 2008.5,-19.5 2139.5,-19.5 2139.5,-0.5 2008.5,-0.5"/>
<text text-anchor="middle" x="2074" y="-7.5" font-family="FreeSans" font-size="10.00">vcs_setMolesLinProg.cpp</text>
</a>
</g>
<!-- Node10&#45;&gt;Node20 -->
<g id="edge44" class="edge"><title>Node10&#45;&gt;Node20</title>
<path fill="none" stroke="midnightblue" d="M1393.37,-62.6529C1499.46,-56.9926 1771.96,-41.4555 1999,-20 2002,-19.7162 2005.07,-19.4108 2008.17,-19.0899"/>
<polygon fill="midnightblue" stroke="midnightblue" points="1393.14,-59.1605 1383.33,-63.1854 1393.51,-66.1506 1393.14,-59.1605"/>
</g>
<!-- Node21 -->
<g id="node46" class="node"><title>Node21</title>
<a xlink:href="vcs__solve__TP_8cpp.html" target="_top" xlink:title="Implementation file that contains the main algorithm for finding an equilibrium.">
<polygon fill="white" stroke="black" points="2158,-0.5 2158,-19.5 2258,-19.5 2258,-0.5 2158,-0.5"/>
<text text-anchor="middle" x="2208" y="-7.5" font-family="FreeSans" font-size="10.00">vcs_solve_TP.cpp</text>
</a>
</g>
<!-- Node10&#45;&gt;Node21 -->
<g id="edge50" class="edge"><title>Node10&#45;&gt;Node21</title>
<path fill="none" stroke="midnightblue" d="M1393.28,-63.9233C1515.4,-60.7021 1861.6,-49.4707 2148,-20 2151.25,-19.6658 2154.59,-19.2805 2157.95,-18.8615"/>
<polygon fill="midnightblue" stroke="midnightblue" points="1393.09,-60.427 1383.18,-64.1848 1393.27,-67.4247 1393.09,-60.427"/>
</g>
<!-- Node22 -->
<g id="node48" class="node"><title>Node22</title>
<a xlink:href="vcs__species__thermo_8cpp.html" target="_top" xlink:title="Implementation for the VCS_SPECIES_THERMO object.">
<polygon fill="white" stroke="black" points="871.5,-0.5 871.5,-19.5 998.5,-19.5 998.5,-0.5 871.5,-0.5"/>
<text text-anchor="middle" x="935" y="-7.5" font-family="FreeSans" font-size="10.00">vcs_species_thermo.cpp</text>
</a>
</g>
<!-- Node10&#45;&gt;Node22 -->
<g id="edge52" class="edge"><title>Node10&#45;&gt;Node22</title>
<path fill="none" stroke="midnightblue" d="M1302.44,-59.043C1228.65,-49.3955 1082.82,-30.3271 998.76,-19.3367"/>
<polygon fill="midnightblue" stroke="midnightblue" points="1302.42,-62.5699 1312.79,-60.396 1303.33,-55.629 1302.42,-62.5699"/>
</g>
<!-- Node23 -->
<g id="node50" class="node"><title>Node23</title>
<a xlink:href="vcs__TP_8cpp_source.html" target="_top" xlink:title="vcs_TP.cpp">
<polygon fill="white" stroke="black" points="1017,-0.5 1017,-19.5 1087,-19.5 1087,-0.5 1017,-0.5"/>
<text text-anchor="middle" x="1052" y="-7.5" font-family="FreeSans" font-size="10.00">vcs_TP.cpp</text>
</a>
</g>
<!-- Node10&#45;&gt;Node23 -->
<g id="edge54" class="edge"><title>Node10&#45;&gt;Node23</title>
<path fill="none" stroke="midnightblue" d="M1302.72,-57.1627C1252.42,-48.3912 1168.82,-33.6191 1097,-20 1093.87,-19.4063 1090.62,-18.7784 1087.36,-18.1414"/>
<polygon fill="midnightblue" stroke="midnightblue" points="1302.17,-60.6204 1312.63,-58.8878 1303.38,-53.7241 1302.17,-60.6204"/>
</g>
<!-- Node24 -->
<g id="node52" class="node"><title>Node24</title>
<a xlink:href="vcs__VolPhase_8cpp.html" target="_top" xlink:title="vcs_VolPhase.cpp">
<polygon fill="white" stroke="black" points="1105.5,-0.5 1105.5,-19.5 1204.5,-19.5 1204.5,-0.5 1105.5,-0.5"/>
<text text-anchor="middle" x="1155" y="-7.5" font-family="FreeSans" font-size="10.00">vcs_VolPhase.cpp</text>
</a>
</g>
<!-- Node10&#45;&gt;Node24 -->
<g id="edge56" class="edge"><title>Node10&#45;&gt;Node24</title>
<path fill="none" stroke="midnightblue" d="M1307.61,-53.6986C1271.18,-43.507 1218.41,-28.7429 1185.44,-19.5164"/>
<polygon fill="midnightblue" stroke="midnightblue" points="1306.85,-57.1196 1317.42,-56.4435 1308.73,-50.3785 1306.85,-57.1196"/>
</g>
<!-- Node25&#45;&gt;Node4 -->
<g id="edge62" class="edge"><title>Node25&#45;&gt;Node4</title>
<path fill="none" stroke="midnightblue" d="M1048.32,-60.7936C959.403,-53.7429 778.031,-38.4796 625,-20 621.812,-19.615 618.533,-19.1966 615.229,-18.758"/>
<polygon fill="midnightblue" stroke="midnightblue" points="1048.19,-64.2945 1058.43,-61.5921 1048.74,-57.3162 1048.19,-64.2945"/>
</g>
<!-- Node25&#45;&gt;Node5 -->
<g id="edge68" class="edge"><title>Node25&#45;&gt;Node5</title>
<path fill="none" stroke="midnightblue" d="M1048.24,-57.7172C973.489,-47.7744 839.76,-29.9877 760.636,-19.4639"/>
<polygon fill="midnightblue" stroke="midnightblue" points="1048.02,-61.2175 1058.39,-59.0666 1048.94,-54.2786 1048.02,-61.2175"/>
</g>
<!-- Node25&#45;&gt;Node6 -->
<g id="edge74" class="edge"><title>Node25&#45;&gt;Node6</title>
<path fill="none" stroke="midnightblue" d="M1048.32,-54.8088C999.664,-45.7269 926.578,-32.0476 863,-20 859.98,-19.4277 856.851,-18.8328 853.708,-18.2338"/>
<polygon fill="midnightblue" stroke="midnightblue" points="1047.84,-58.2807 1058.31,-56.6747 1049.13,-51.3995 1047.84,-58.2807"/>
</g>
<!-- Node25&#45;&gt;Node7 -->
<g id="edge76" class="edge"><title>Node25&#45;&gt;Node7</title>
<path fill="none" stroke="midnightblue" d="M1048.02,-63.6252C864.385,-58.8685 273.243,-42.1789 84,-20 80.9469,-19.6422 77.7946,-19.1998 74.6355,-18.7048"/>
<polygon fill="midnightblue" stroke="midnightblue" points="1048.16,-67.1299 1058.24,-63.8887 1048.34,-60.1322 1048.16,-67.1299"/>
</g>
<!-- Node25&#45;&gt;Node8 -->
<g id="edge84" class="edge"><title>Node25&#45;&gt;Node8</title>
<path fill="none" stroke="midnightblue" d="M1047.99,-64.8548C904.811,-63.9269 508.963,-57.8452 182,-20 179.079,-19.6619 176.069,-19.2548 173.046,-18.8031"/>
<polygon fill="midnightblue" stroke="midnightblue" points="1048.24,-68.3562 1058.26,-64.9152 1048.28,-61.3563 1048.24,-68.3562"/>
</g>
<!-- Node25&#45;&gt;Node9 -->
<g id="edge86" class="edge"><title>Node25&#45;&gt;Node9</title>
<path fill="none" stroke="midnightblue" d="M1048.22,-62.647C923.697,-57.0983 609.859,-41.9879 348,-20 345.111,-19.7574 342.167,-19.4979 339.195,-19.2254"/>
<polygon fill="midnightblue" stroke="midnightblue" points="1048.12,-66.146 1058.27,-63.0922 1048.43,-59.1529 1048.12,-66.146"/>
</g>
<!-- Node25&#45;&gt;Node12 -->
<g id="edge60" class="edge"><title>Node25&#45;&gt;Node12</title>
<path fill="none" stroke="midnightblue" d="M1141.95,-53.5677C1176.66,-43.381 1226.68,-28.7034 1257.98,-19.5164"/>
<polygon fill="midnightblue" stroke="midnightblue" points="1140.77,-50.2691 1132.16,-56.4435 1142.74,-56.9858 1140.77,-50.2691"/>
</g>
<!-- Node25&#45;&gt;Node13 -->
<g id="edge64" class="edge"><title>Node25&#45;&gt;Node13</title>
<path fill="none" stroke="midnightblue" d="M1157.6,-55.5175C1209.63,-46.4619 1290.17,-32.3974 1360,-20 1362.87,-19.4912 1365.82,-18.964 1368.8,-18.4316"/>
<polygon fill="midnightblue" stroke="midnightblue" points="1156.83,-52.0976 1147.58,-57.2599 1158.03,-58.9941 1156.83,-52.0976"/>
</g>
<!-- Node25&#45;&gt;Node14 -->
<g id="edge66" class="edge"><title>Node25&#45;&gt;Node14</title>
<path fill="none" stroke="midnightblue" d="M1157.59,-59.1492C1227.74,-51.3935 1353.23,-36.7228 1460,-20 1463.02,-19.5277 1466.13,-19.0102 1469.26,-18.4697"/>
<polygon fill="midnightblue" stroke="midnightblue" points="1157.2,-55.6701 1147.65,-60.2427 1157.97,-62.6282 1157.2,-55.6701"/>
</g>
<!-- Node25&#45;&gt;Node15 -->
<g id="edge70" class="edge"><title>Node25&#45;&gt;Node15</title>
<path fill="none" stroke="midnightblue" d="M1157.92,-60.7079C1243.12,-53.7836 1412.23,-38.9831 1555,-20 1558.01,-19.5991 1561.12,-19.1579 1564.25,-18.6925"/>
<polygon fill="midnightblue" stroke="midnightblue" points="1157.39,-57.2392 1147.7,-61.5329 1157.95,-64.2164 1157.39,-57.2392"/>
</g>
<!-- Node25&#45;&gt;Node16 -->
<g id="edge72" class="edge"><title>Node25&#45;&gt;Node16</title>
<path fill="none" stroke="midnightblue" d="M1157.82,-61.4889C1258.05,-54.8687 1477.54,-39.4428 1662,-20 1665.24,-19.6581 1668.57,-19.2882 1671.93,-18.9"/>
<polygon fill="midnightblue" stroke="midnightblue" points="1157.38,-58.01 1147.63,-62.1585 1157.84,-64.9949 1157.38,-58.01"/>
</g>
<!-- Node25&#45;&gt;Node18 -->
<g id="edge78" class="edge"><title>Node25&#45;&gt;Node18</title>
<path fill="none" stroke="midnightblue" d="M1157.92,-62.2579C1299.63,-55.0528 1675.14,-35.1016 1799,-20 1802.06,-19.6264 1805.23,-19.1867 1808.4,-18.706"/>
<polygon fill="midnightblue" stroke="midnightblue" points="1157.54,-58.7727 1147.73,-62.7746 1157.89,-65.7637 1157.54,-58.7727"/>
</g>
<!-- Node25&#45;&gt;Node19 -->
<g id="edge80" class="edge"><title>Node25&#45;&gt;Node19</title>
<path fill="none" stroke="midnightblue" d="M1157.63,-62.2833C1325.2,-53.8972 1825.03,-28.4734 1898,-20 1901.04,-19.6474 1904.17,-19.2297 1907.31,-18.7704"/>
<polygon fill="midnightblue" stroke="midnightblue" points="1157.36,-58.7923 1147.54,-62.7874 1157.71,-65.7836 1157.36,-58.7923"/>
</g>
<!-- Node25&#45;&gt;Node20 -->
<g id="edge82" class="edge"><title>Node25&#45;&gt;Node20</title>
<path fill="none" stroke="midnightblue" d="M1157.67,-62.4758C1339.24,-54.061 1915.51,-27.0976 1999,-20 2002.01,-19.7445 2005.08,-19.4623 2008.18,-19.1602"/>
<polygon fill="midnightblue" stroke="midnightblue" points="1157.37,-58.9856 1147.54,-62.9446 1157.7,-65.9781 1157.37,-58.9856"/>
</g>
<!-- Node25&#45;&gt;Node21 -->
<g id="edge88" class="edge"><title>Node25&#45;&gt;Node21</title>
<path fill="none" stroke="midnightblue" d="M1157.88,-62.5113C1198.29,-60.6866 1254.56,-58.1612 1304,-56 1679.09,-39.6028 1774.27,-55.898 2148,-20 2151.25,-19.6878 2154.59,-19.3192 2157.96,-18.9125"/>
<polygon fill="midnightblue" stroke="midnightblue" points="1157.54,-59.0231 1147.7,-62.9711 1157.85,-66.016 1157.54,-59.0231"/>
</g>
<!-- Node25&#45;&gt;Node22 -->
<g id="edge90" class="edge"><title>Node25&#45;&gt;Node22</title>
<path fill="none" stroke="midnightblue" d="M1066.61,-53.3044C1034.96,-43.1294 989.832,-28.6246 961.496,-19.5164"/>
<polygon fill="midnightblue" stroke="midnightblue" points="1065.79,-56.7155 1076.38,-56.4435 1067.93,-50.0513 1065.79,-56.7155"/>
</g>
<!-- Node25&#45;&gt;Node23 -->
<g id="edge94" class="edge"><title>Node25&#45;&gt;Node23</title>
<path fill="none" stroke="midnightblue" d="M1087.62,-48.7175C1078.63,-39.1997 1067.64,-27.5608 1060.26,-19.7511"/>
<polygon fill="midnightblue" stroke="midnightblue" points="1085.17,-51.216 1094.58,-56.083 1090.26,-46.4096 1085.17,-51.216"/>
</g>
<!-- Node25&#45;&gt;Node24 -->
<g id="edge96" class="edge"><title>Node25&#45;&gt;Node24</title>
<path fill="none" stroke="midnightblue" d="M1118.68,-48.7175C1127.84,-39.1997 1139.05,-27.5608 1146.57,-19.7511"/>
<polygon fill="midnightblue" stroke="midnightblue" points="1116,-46.452 1111.59,-56.083 1121.04,-51.3075 1116,-46.452"/>
</g>
<!-- Node26 -->
<g id="node72" class="node"><title>Node26</title>
<a xlink:href="vcs__SpeciesProperties_8cpp.html" target="_top" xlink:title="vcs_SpeciesProperties.cpp">
<polygon fill="white" stroke="black" points="357,-0.5 357,-19.5 495,-19.5 495,-0.5 357,-0.5"/>
<text text-anchor="middle" x="426" y="-7.5" font-family="FreeSans" font-size="10.00">vcs_SpeciesProperties.cpp</text>
</a>
</g>
<!-- Node25&#45;&gt;Node26 -->
<g id="edge92" class="edge"><title>Node25&#45;&gt;Node26</title>
<path fill="none" stroke="midnightblue" d="M1048.15,-61.614C942.651,-54.9387 704.188,-39.0613 504,-20 501.15,-19.7287 498.243,-19.4413 495.307,-19.1423"/>
<polygon fill="midnightblue" stroke="midnightblue" points="1048.04,-65.1139 1058.24,-62.25 1048.48,-58.1278 1048.04,-65.1139"/>
</g>
</g>
</svg>
