<?xml version="1.0" encoding="UTF-8" standalone="no"?>
<!DOCTYPE svg PUBLIC "-//W3C//DTD SVG 1.1//EN"
 "http://www.w3.org/Graphics/SVG/1.1/DTD/svg11.dtd">
<!-- Generated by graphviz version 2.28.0 (20120425.2022)
 -->
<!-- Title: vcs_species_thermo.cpp Pages: 1 -->
<svg width="1068pt" height="332pt"
 viewBox="0.00 0.00 1068.12 332.00" xmlns="http://www.w3.org/2000/svg" xmlns:xlink="http://www.w3.org/1999/xlink">
<g id="graph1" class="graph" transform="scale(1 1) rotate(0) translate(4 328)">
<title>vcs_species_thermo.cpp</title>
<polygon fill="white" stroke="white" points="-4,5 -4,-328 1065.12,-328 1065.12,5 -4,5"/>
<!-- Node1 -->
<g id="node1" class="node"><title>Node1</title>
<polygon fill="#bfbfbf" stroke="black" points="697.621,-304.5 697.621,-323.5 824.621,-323.5 824.621,-304.5 697.621,-304.5"/>
<text text-anchor="middle" x="761.121" y="-311.5" font-family="FreeSans" font-size="10.00">vcs_species_thermo.cpp</text>
</g>
<!-- Node2 -->
<g id="node3" class="node"><title>Node2</title>
<a xlink:href="vcs__solve_8h.html" target="_top" xlink:title="Header file for the internal object that holds the vcs equilibrium problem (see Class VCS_SOLVE and E...">
<polygon fill="white" stroke="black" points="351.621,-248.5 351.621,-267.5 482.621,-267.5 482.621,-248.5 351.621,-248.5"/>
<text text-anchor="middle" x="417.121" y="-255.5" font-family="FreeSans" font-size="10.00">cantera/equil/vcs_solve.h</text>
</a>
</g>
<!-- Node1&#45;&gt;Node2 -->
<g id="edge2" class="edge"><title>Node1&#45;&gt;Node2</title>
<path fill="none" stroke="midnightblue" d="M706.613,-304.444C645.471,-294.846 546.385,-279.292 481.485,-269.104"/>
<polygon fill="midnightblue" stroke="midnightblue" points="481.795,-265.61 471.373,-267.516 480.71,-272.525 481.795,-265.61"/>
</g>
<!-- Node7 -->
<g id="node13" class="node"><title>Node7</title>
<polygon fill="white" stroke="#bfbfbf" points="783.121,-0.5 783.121,-19.5 827.121,-19.5 827.121,-0.5 783.121,-0.5"/>
<text text-anchor="middle" x="805.121" y="-7.5" font-family="FreeSans" font-size="10.00">cmath</text>
</g>
<!-- Node1&#45;&gt;Node7 -->
<g id="edge66" class="edge"><title>Node1&#45;&gt;Node7</title>
<path fill="none" stroke="midnightblue" d="M767.509,-304.402C779.496,-287.67 804.976,-249.108 814.121,-212 830.261,-146.508 816.931,-65.4538 809.406,-29.5781"/>
<polygon fill="midnightblue" stroke="midnightblue" points="812.777,-28.6101 807.212,-19.5946 805.941,-30.1128 812.777,-28.6101"/>
</g>
<!-- Node8 -->
<g id="node15" class="node"><title>Node8</title>
<polygon fill="white" stroke="#bfbfbf" points="879.621,-0.5 879.621,-19.5 924.621,-19.5 924.621,-0.5 879.621,-0.5"/>
<text text-anchor="middle" x="902.121" y="-7.5" font-family="FreeSans" font-size="10.00">cstdlib</text>
</g>
<!-- Node1&#45;&gt;Node8 -->
<g id="edge64" class="edge"><title>Node1&#45;&gt;Node8</title>
<path fill="none" stroke="midnightblue" d="M824.655,-307.443C891.809,-297.674 988.121,-270.799 988.121,-197 988.121,-197 988.121,-197 988.121,-133 988.121,-97.6422 988.47,-84.9149 968.121,-56 958.743,-42.6759 944.073,-32.1038 930.942,-24.564"/>
<polygon fill="midnightblue" stroke="midnightblue" points="932.215,-21.2741 921.751,-19.6137 928.896,-27.4371 932.215,-21.2741"/>
</g>
<!-- Node10 -->
<g id="node21" class="node"><title>Node10</title>
<a xlink:href="vcs__defs_8h.html" target="_top" xlink:title="Defines and definitions within the vcs package.">
<polygon fill="white" stroke="black" points="446.121,-124.5 446.121,-143.5 572.121,-143.5 572.121,-124.5 446.121,-124.5"/>
<text text-anchor="middle" x="509.121" y="-131.5" font-family="FreeSans" font-size="10.00">cantera/equil/vcs_defs.h</text>
</a>
</g>
<!-- Node1&#45;&gt;Node10 -->
<g id="edge46" class="edge"><title>Node1&#45;&gt;Node10</title>
<path fill="none" stroke="midnightblue" d="M716.281,-304.491C665.218,-292.52 582.611,-265.852 534.121,-212 519.602,-195.876 513.503,-171.198 510.948,-154.146"/>
<polygon fill="midnightblue" stroke="midnightblue" points="514.366,-153.263 509.686,-143.758 507.417,-154.107 514.366,-153.263"/>
</g>
<!-- Node13 -->
<g id="node29" class="node"><title>Node13</title>
<a xlink:href="vcs__internal_8h.html" target="_top" xlink:title="Internal declarations for the VCSnonideal package ">
<polygon fill="white" stroke="black" points="543.621,-186.5 543.621,-205.5 682.621,-205.5 682.621,-186.5 543.621,-186.5"/>
<text text-anchor="middle" x="613.121" y="-193.5" font-family="FreeSans" font-size="10.00">cantera/equil/vcs_internal.h</text>
</a>
</g>
<!-- Node1&#45;&gt;Node13 -->
<g id="edge60" class="edge"><title>Node1&#45;&gt;Node13</title>
<path fill="none" stroke="midnightblue" d="M749.996,-304.281C724.803,-284.535 663.157,-236.218 631.92,-211.735"/>
<polygon fill="midnightblue" stroke="midnightblue" points="634.001,-208.919 623.971,-205.505 629.683,-214.428 634.001,-208.919"/>
</g>
<!-- Node16 -->
<g id="node37" class="node"><title>Node16</title>
<a xlink:href="vcs__species__thermo_8h_source.html" target="_top" xlink:title="vcs_species_thermo.h">
<polygon fill="white" stroke="black" points="844.121,-62.5 844.121,-81.5 960.121,-81.5 960.121,-62.5 844.121,-62.5"/>
<text text-anchor="middle" x="902.121" y="-69.5" font-family="FreeSans" font-size="10.00">vcs_species_thermo.h</text>
</a>
</g>
<!-- Node1&#45;&gt;Node16 -->
<g id="edge42" class="edge"><title>Node1&#45;&gt;Node16</title>
<path fill="none" stroke="midnightblue" d="M790.941,-304.443C809.903,-297.534 833.546,-285.957 848.121,-268 891.254,-214.856 900.011,-129.648 901.733,-91.9699"/>
<polygon fill="midnightblue" stroke="midnightblue" points="905.233,-92.0027 902.071,-81.8907 898.237,-91.7674 905.233,-92.0027"/>
</g>
<!-- Node17 -->
<g id="node41" class="node"><title>Node17</title>
<a xlink:href="vcs__VolPhase_8h.html" target="_top" xlink:title="Header for the object representing each phase within vcs.">
<polygon fill="white" stroke="black" points="18.1205,-124.5 18.1205,-143.5 168.121,-143.5 168.121,-124.5 18.1205,-124.5"/>
<text text-anchor="middle" x="93.1205" y="-131.5" font-family="FreeSans" font-size="10.00">cantera/equil/vcs_VolPhase.h</text>
</a>
</g>
<!-- Node1&#45;&gt;Node17 -->
<g id="edge48" class="edge"><title>Node1&#45;&gt;Node17</title>
<path fill="none" stroke="midnightblue" d="M697.447,-311.191C614.583,-307.698 465.763,-297.519 342.121,-268 273.714,-251.668 255.618,-246.121 194.121,-212 162.21,-194.295 129.345,-167.298 110.097,-150.425"/>
<polygon fill="midnightblue" stroke="midnightblue" points="112.292,-147.693 102.494,-143.662 107.64,-152.923 112.292,-147.693"/>
</g>
<!-- Node18 -->
<g id="node46" class="node"><title>Node18</title>
<a xlink:href="vcs__Exception_8h.html" target="_top" xlink:title="vcs_Exception.h">
<polygon fill="white" stroke="black" points="716.621,-186.5 716.621,-205.5 805.621,-205.5 805.621,-186.5 716.621,-186.5"/>
<text text-anchor="middle" x="761.121" y="-193.5" font-family="FreeSans" font-size="10.00">vcs_Exception.h</text>
</a>
</g>
<!-- Node1&#45;&gt;Node18 -->
<g id="edge56" class="edge"><title>Node1&#45;&gt;Node18</title>
<path fill="none" stroke="midnightblue" d="M761.121,-304.281C761.121,-285.547 761.121,-241.098 761.121,-215.682"/>
<polygon fill="midnightblue" stroke="midnightblue" points="764.621,-215.505 761.121,-205.505 757.621,-215.505 764.621,-215.505"/>
</g>
<!-- Node19 -->
<g id="node50" class="node"><title>Node19</title>
<polygon fill="white" stroke="#bfbfbf" points="1016.12,-248.5 1016.12,-267.5 1060.12,-267.5 1060.12,-248.5 1016.12,-248.5"/>
<text text-anchor="middle" x="1038.12" y="-255.5" font-family="FreeSans" font-size="10.00">cstdio</text>
</g>
<!-- Node1&#45;&gt;Node19 -->
<g id="edge62" class="edge"><title>Node1&#45;&gt;Node19</title>
<path fill="none" stroke="midnightblue" d="M811.611,-304.487C860.497,-296.028 936.624,-282.288 1002.12,-268 1003.4,-267.722 1004.69,-267.432 1006,-267.133"/>
<polygon fill="midnightblue" stroke="midnightblue" points="1007.17,-270.453 1016.09,-264.732 1005.55,-263.644 1007.17,-270.453"/>
</g>
<!-- Node3 -->
<g id="node5" class="node"><title>Node3</title>
<polygon fill="white" stroke="#bfbfbf" points="173.121,-0.5 173.121,-19.5 217.121,-19.5 217.121,-0.5 173.121,-0.5"/>
<text text-anchor="middle" x="195.121" y="-7.5" font-family="FreeSans" font-size="10.00">vector</text>
</g>
<!-- Node2&#45;&gt;Node3 -->
<g id="edge4" class="edge"><title>Node2&#45;&gt;Node3</title>
<path fill="none" stroke="midnightblue" d="M351.485,-248.906C246.425,-234.399 48.291,-200.131 9.12055,-144 -35.6412,-79.8573 98.6792,-35.6652 162.935,-18.7095"/>
<polygon fill="midnightblue" stroke="midnightblue" points="164.156,-22.0095 172.972,-16.1323 162.415,-15.2294 164.156,-22.0095"/>
</g>
<!-- Node4 -->
<g id="node7" class="node"><title>Node4</title>
<polygon fill="white" stroke="#bfbfbf" points="476.621,-0.5 476.621,-19.5 517.621,-19.5 517.621,-0.5 476.621,-0.5"/>
<text text-anchor="middle" x="497.121" y="-7.5" font-family="FreeSans" font-size="10.00">string</text>
</g>
<!-- Node2&#45;&gt;Node4 -->
<g id="edge6" class="edge"><title>Node2&#45;&gt;Node4</title>
<path fill="none" stroke="midnightblue" d="M414.886,-248.449C412.659,-239.453 409.392,-224.844 408.121,-212 404.231,-172.719 404.581,-160.286 420.121,-124 436.22,-86.4069 465.519,-48.2398 482.963,-27.2939"/>
<polygon fill="midnightblue" stroke="midnightblue" points="485.635,-29.5543 489.433,-19.6635 480.296,-25.0274 485.635,-29.5543"/>
</g>
<!-- Node5 -->
<g id="node9" class="node"><title>Node5</title>
<a xlink:href="ct__defs_8h.html" target="_top" xlink:title="This file contains definitions of terms that are used in internal routines and are unlikely to need m...">
<polygon fill="white" stroke="black" points="668.621,-62.5 668.621,-81.5 787.621,-81.5 787.621,-62.5 668.621,-62.5"/>
<text text-anchor="middle" x="728.121" y="-69.5" font-family="FreeSans" font-size="10.00">cantera/base/ct_defs.h</text>
</a>
</g>
<!-- Node2&#45;&gt;Node5 -->
<g id="edge8" class="edge"><title>Node2&#45;&gt;Node5</title>
<path fill="none" stroke="midnightblue" d="M415.388,-248.392C411.196,-224.834 403.197,-158.756 437.121,-124 467.121,-93.2632 582.417,-80.9154 658.564,-76.0513"/>
<polygon fill="midnightblue" stroke="midnightblue" points="658.804,-79.5432 668.573,-75.4404 658.378,-72.5562 658.804,-79.5432"/>
</g>
<!-- Node2&#45;&gt;Node10 -->
<g id="edge22" class="edge"><title>Node2&#45;&gt;Node10</title>
<path fill="none" stroke="midnightblue" d="M423.737,-248.226C438.921,-228.09 476.486,-178.276 496.344,-151.943"/>
<polygon fill="midnightblue" stroke="midnightblue" points="499.338,-153.786 502.564,-143.694 493.749,-149.571 499.338,-153.786"/>
</g>
<!-- Node11 -->
<g id="node23" class="node"><title>Node11</title>
<a xlink:href="vcs__DoubleStarStar_8h.html" target="_top" xlink:title="Header file for class DoubleStarStar.">
<polygon fill="white" stroke="black" points="129.621,-57 129.621,-87 260.621,-87 260.621,-57 129.621,-57"/>
<text text-anchor="start" x="137.621" y="-75" font-family="FreeSans" font-size="10.00">cantera/equil/vcs_Double</text>
<text text-anchor="middle" x="195.121" y="-64" font-family="FreeSans" font-size="10.00">StarStar.h</text>
</a>
</g>
<!-- Node2&#45;&gt;Node11 -->
<g id="edge24" class="edge"><title>Node2&#45;&gt;Node11</title>
<path fill="none" stroke="midnightblue" d="M351.581,-250.444C299.859,-243.859 233.465,-231.8 215.121,-212 186.366,-180.963 187.405,-128.131 191.059,-97.3147"/>
<polygon fill="midnightblue" stroke="midnightblue" points="194.526,-97.787 192.415,-87.4047 187.591,-96.8375 194.526,-97.787"/>
</g>
<!-- Node12 -->
<g id="node26" class="node"><title>Node12</title>
<a xlink:href="vcs__IntStarStar_8h.html" target="_top" xlink:title="Header file for class IntStarStar.">
<polygon fill="white" stroke="black" points="224.621,-181 224.621,-211 351.621,-211 351.621,-181 224.621,-181"/>
<text text-anchor="start" x="232.621" y="-199" font-family="FreeSans" font-size="10.00">cantera/equil/vcs_IntStar</text>
<text text-anchor="middle" x="288.121" y="-188" font-family="FreeSans" font-size="10.00">Star.h</text>
</a>
</g>
<!-- Node2&#45;&gt;Node12 -->
<g id="edge28" class="edge"><title>Node2&#45;&gt;Node12</title>
<path fill="none" stroke="midnightblue" d="M398.638,-248.403C380.187,-239.822 351.253,-226.364 327.618,-215.371"/>
<polygon fill="midnightblue" stroke="midnightblue" points="329.067,-212.185 318.523,-211.141 326.114,-218.532 329.067,-212.185"/>
</g>
<!-- Node2&#45;&gt;Node13 -->
<g id="edge32" class="edge"><title>Node2&#45;&gt;Node13</title>
<path fill="none" stroke="midnightblue" d="M445.203,-248.403C479.406,-237.933 537.318,-220.205 575.39,-208.55"/>
<polygon fill="midnightblue" stroke="midnightblue" points="576.553,-211.855 585.091,-205.581 574.504,-205.161 576.553,-211.855"/>
</g>
<!-- Node5&#45;&gt;Node3 -->
<g id="edge16" class="edge"><title>Node5&#45;&gt;Node3</title>
<path fill="none" stroke="midnightblue" d="M668.53,-64.2919C555.746,-51.5957 314.578,-24.4474 227.403,-14.6341"/>
<polygon fill="midnightblue" stroke="midnightblue" points="227.648,-11.1397 217.32,-13.499 226.865,-18.0957 227.648,-11.1397"/>
</g>
<!-- Node5&#45;&gt;Node4 -->
<g id="edge20" class="edge"><title>Node5&#45;&gt;Node4</title>
<path fill="none" stroke="midnightblue" d="M695.024,-62.4035C650.212,-50.7641 570.87,-30.1556 527.504,-18.8918"/>
<polygon fill="midnightblue" stroke="midnightblue" points="528.363,-15.4989 517.804,-16.3724 526.603,-22.2741 528.363,-15.4989"/>
</g>
<!-- Node6 -->
<g id="node11" class="node"><title>Node6</title>
<a xlink:href="config_8h_source.html" target="_top" xlink:title="config.h">
<polygon fill="white" stroke="black" points="707.621,-0.5 707.621,-19.5 758.621,-19.5 758.621,-0.5 707.621,-0.5"/>
<text text-anchor="middle" x="733.121" y="-7.5" font-family="FreeSans" font-size="10.00">config.h</text>
</a>
</g>
<!-- Node5&#45;&gt;Node6 -->
<g id="edge10" class="edge"><title>Node5&#45;&gt;Node6</title>
<path fill="none" stroke="midnightblue" d="M728.837,-62.4035C729.542,-53.9381 730.643,-40.7283 731.552,-29.8199"/>
<polygon fill="midnightblue" stroke="midnightblue" points="735.063,-29.8367 732.405,-19.5806 728.087,-29.2554 735.063,-29.8367"/>
</g>
<!-- Node5&#45;&gt;Node7 -->
<g id="edge12" class="edge"><title>Node5&#45;&gt;Node7</title>
<path fill="none" stroke="midnightblue" d="M739.153,-62.4035C751.389,-52.8688 771.349,-37.3154 786.114,-25.8106"/>
<polygon fill="midnightblue" stroke="midnightblue" points="788.372,-28.4879 794.109,-19.5806 784.069,-22.9663 788.372,-28.4879"/>
</g>
<!-- Node5&#45;&gt;Node8 -->
<g id="edge14" class="edge"><title>Node5&#45;&gt;Node8</title>
<path fill="none" stroke="midnightblue" d="M753.051,-62.4035C783.708,-51.8319 835.823,-33.8614 869.601,-22.2136"/>
<polygon fill="midnightblue" stroke="midnightblue" points="871.138,-25.3858 879.451,-18.817 868.856,-18.7682 871.138,-25.3858"/>
</g>
<!-- Node9 -->
<g id="node18" class="node"><title>Node9</title>
<polygon fill="white" stroke="#bfbfbf" points="653.121,-0.5 653.121,-19.5 689.121,-19.5 689.121,-0.5 653.121,-0.5"/>
<text text-anchor="middle" x="671.121" y="-7.5" font-family="FreeSans" font-size="10.00">map</text>
</g>
<!-- Node5&#45;&gt;Node9 -->
<g id="edge18" class="edge"><title>Node5&#45;&gt;Node9</title>
<path fill="none" stroke="midnightblue" d="M719.954,-62.4035C711.234,-53.2252 697.217,-38.4699 686.432,-27.1173"/>
<polygon fill="midnightblue" stroke="midnightblue" points="688.697,-24.42 679.272,-19.5806 683.622,-29.2412 688.697,-24.42"/>
</g>
<!-- Node11&#45;&gt;Node3 -->
<g id="edge26" class="edge"><title>Node11&#45;&gt;Node3</title>
<path fill="none" stroke="midnightblue" d="M195.121,-56.7808C195.121,-48.7812 195.121,-38.6887 195.121,-30.0168"/>
<polygon fill="midnightblue" stroke="midnightblue" points="198.621,-29.7305 195.121,-19.7305 191.621,-29.7306 198.621,-29.7305"/>
</g>
<!-- Node12&#45;&gt;Node3 -->
<g id="edge30" class="edge"><title>Node12&#45;&gt;Node3</title>
<path fill="none" stroke="midnightblue" d="M289.958,-180.615C292.625,-153.744 294.754,-95.1128 269.121,-56 259.087,-40.6907 241.863,-29.7657 226.555,-22.5171"/>
<polygon fill="midnightblue" stroke="midnightblue" points="227.917,-19.2923 217.353,-18.4727 225.1,-25.7006 227.917,-19.2923"/>
</g>
<!-- Node13&#45;&gt;Node10 -->
<g id="edge36" class="edge"><title>Node13&#45;&gt;Node10</title>
<path fill="none" stroke="midnightblue" d="M598.22,-186.403C581.152,-176.557 552.959,-160.291 532.858,-148.695"/>
<polygon fill="midnightblue" stroke="midnightblue" points="534.404,-145.546 523.994,-143.581 530.906,-151.61 534.404,-145.546"/>
</g>
<!-- Node14 -->
<g id="node31" class="node"><title>Node14</title>
<polygon fill="white" stroke="#bfbfbf" points="590.121,-124.5 590.121,-143.5 636.121,-143.5 636.121,-124.5 590.121,-124.5"/>
<text text-anchor="middle" x="613.121" y="-131.5" font-family="FreeSans" font-size="10.00">cstring</text>
</g>
<!-- Node13&#45;&gt;Node14 -->
<g id="edge34" class="edge"><title>Node13&#45;&gt;Node14</title>
<path fill="none" stroke="midnightblue" d="M613.121,-186.403C613.121,-177.938 613.121,-164.728 613.121,-153.82"/>
<polygon fill="midnightblue" stroke="midnightblue" points="616.621,-153.581 613.121,-143.581 609.621,-153.581 616.621,-153.581"/>
</g>
<!-- Node15 -->
<g id="node34" class="node"><title>Node15</title>
<a xlink:href="global_8h.html" target="_top" xlink:title="This file contains definitions for utility functions and text for modules, inputfiles, logs, textlogs, HTML_logs (see Input File Handling, Diagnostic Output, Writing messages to the screen and Writing HTML Logfiles).">
<polygon fill="white" stroke="black" points="654.121,-124.5 654.121,-143.5 768.121,-143.5 768.121,-124.5 654.121,-124.5"/>
<text text-anchor="middle" x="711.121" y="-131.5" font-family="FreeSans" font-size="10.00">cantera/base/global.h</text>
</a>
</g>
<!-- Node13&#45;&gt;Node15 -->
<g id="edge38" class="edge"><title>Node13&#45;&gt;Node15</title>
<path fill="none" stroke="midnightblue" d="M627.162,-186.403C643.172,-176.601 669.571,-160.439 688.495,-148.853"/>
<polygon fill="midnightblue" stroke="midnightblue" points="690.405,-151.787 697.106,-143.581 686.749,-145.817 690.405,-151.787"/>
</g>
<!-- Node15&#45;&gt;Node5 -->
<g id="edge40" class="edge"><title>Node15&#45;&gt;Node5</title>
<path fill="none" stroke="midnightblue" d="M713.556,-124.403C715.98,-115.849 719.776,-102.45 722.886,-91.4762"/>
<polygon fill="midnightblue" stroke="midnightblue" points="726.331,-92.156 725.689,-81.5806 719.596,-90.2477 726.331,-92.156"/>
</g>
<!-- Node16&#45;&gt;Node8 -->
<g id="edge44" class="edge"><title>Node16&#45;&gt;Node8</title>
<path fill="none" stroke="midnightblue" d="M902.121,-62.4035C902.121,-53.9381 902.121,-40.7283 902.121,-29.8199"/>
<polygon fill="midnightblue" stroke="midnightblue" points="905.621,-29.5806 902.121,-19.5806 898.621,-29.5806 905.621,-29.5806"/>
</g>
<!-- Node17&#45;&gt;Node3 -->
<g id="edge52" class="edge"><title>Node17&#45;&gt;Node3</title>
<path fill="none" stroke="midnightblue" d="M89.1157,-124.027C82.9279,-108.669 73.1376,-76.9744 87.1205,-56 103.857,-30.896 137.53,-19.7742 162.852,-14.8605"/>
<polygon fill="midnightblue" stroke="midnightblue" points="163.51,-18.2989 172.776,-13.1627 162.329,-11.3991 163.51,-18.2989"/>
</g>
<!-- Node17&#45;&gt;Node4 -->
<g id="edge54" class="edge"><title>Node17&#45;&gt;Node4</title>
<path fill="none" stroke="midnightblue" d="M93.3616,-124.16C94.3258,-107.823 98.9061,-73.0214 120.121,-56 173.152,-13.4502 385.533,-10.2551 466.003,-10.6184"/>
<polygon fill="midnightblue" stroke="midnightblue" points="466.428,-14.1213 476.451,-10.6896 466.475,-7.12145 466.428,-14.1213"/>
</g>
<!-- Node17&#45;&gt;Node11 -->
<g id="edge50" class="edge"><title>Node17&#45;&gt;Node11</title>
<path fill="none" stroke="midnightblue" d="M107.735,-124.403C121.936,-116.049 143.993,-103.075 162.393,-92.2517"/>
<polygon fill="midnightblue" stroke="midnightblue" points="164.236,-95.2278 171.081,-87.1408 160.687,-89.1943 164.236,-95.2278"/>
</g>
<!-- Node18&#45;&gt;Node4 -->
<g id="edge58" class="edge"><title>Node18&#45;&gt;Node4</title>
<path fill="none" stroke="midnightblue" d="M767.192,-186.214C776.322,-171.81 791.106,-142.888 777.121,-124 744.493,-79.9335 710.243,-107.823 659.121,-88 609.391,-68.7169 553.687,-40.7681 522.264,-24.3815"/>
<polygon fill="midnightblue" stroke="midnightblue" points="523.807,-21.2382 513.326,-19.6896 520.553,-27.4363 523.807,-21.2382"/>
</g>
</g>
</svg>
