<?xml version="1.0" encoding="UTF-8" standalone="no"?>
<!DOCTYPE svg PUBLIC "-//W3C//DTD SVG 1.1//EN"
 "http://www.w3.org/Graphics/SVG/1.1/DTD/svg11.dtd">
<!-- Generated by graphviz version 2.28.0 (20120425.2022)
 -->
<!-- Title: vcs_prob.h Pages: 1 -->
<svg width="706pt" height="84pt"
 viewBox="0.00 0.00 706.00 84.00" xmlns="http://www.w3.org/2000/svg" xmlns:xlink="http://www.w3.org/1999/xlink">
<g id="graph1" class="graph" transform="scale(1 1) rotate(0) translate(4 80)">
<title>vcs_prob.h</title>
<polygon fill="white" stroke="white" points="-4,5 -4,-80 703,-80 703,5 -4,5"/>
<!-- Node1 -->
<g id="node1" class="node"><title>Node1</title>
<polygon fill="#bfbfbf" stroke="black" points="316.5,-56.5 316.5,-75.5 381.5,-75.5 381.5,-56.5 316.5,-56.5"/>
<text text-anchor="middle" x="349" y="-63.5" font-family="FreeSans" font-size="10.00">vcs_prob.h</text>
</g>
<!-- Node2 -->
<g id="node3" class="node"><title>Node2</title>
<a xlink:href="vcs__equilibrate_8cpp.html" target="_top" xlink:title="Driver routines for equilibrium solvers.">
<polygon fill="white" stroke="black" points="0,-0.5 0,-19.5 102,-19.5 102,-0.5 0,-0.5"/>
<text text-anchor="middle" x="51" y="-7.5" font-family="FreeSans" font-size="10.00">vcs_equilibrate.cpp</text>
</a>
</g>
<!-- Node1&#45;&gt;Node2 -->
<g id="edge2" class="edge"><title>Node1&#45;&gt;Node2</title>
<path fill="none" stroke="midnightblue" d="M306.098,-57.2258C250.841,-47.2128 155.13,-29.8693 97.9686,-19.5111"/>
<polygon fill="midnightblue" stroke="midnightblue" points="305.792,-60.7274 316.256,-59.0666 307.041,-53.8395 305.792,-60.7274"/>
</g>
<!-- Node3 -->
<g id="node5" class="node"><title>Node3</title>
<a xlink:href="vcs__MultiPhaseEquil_8cpp.html" target="_top" xlink:title="Driver routine for the VCSnonideal equilibrium solver package.">
<polygon fill="white" stroke="black" points="120.5,-0.5 120.5,-19.5 247.5,-19.5 247.5,-0.5 120.5,-0.5"/>
<text text-anchor="middle" x="184" y="-7.5" font-family="FreeSans" font-size="10.00">vcs_MultiPhaseEquil.cpp</text>
</a>
</g>
<!-- Node1&#45;&gt;Node3 -->
<g id="edge4" class="edge"><title>Node1&#45;&gt;Node3</title>
<path fill="none" stroke="midnightblue" d="M313.264,-53.3044C282.173,-43.1294 237.853,-28.6246 210.022,-19.5164"/>
<polygon fill="midnightblue" stroke="midnightblue" points="312.263,-56.6595 322.855,-56.4435 314.44,-50.0067 312.263,-56.6595"/>
</g>
<!-- Node4 -->
<g id="node7" class="node"><title>Node4</title>
<a xlink:href="vcs__prep_8cpp.html" target="_top" xlink:title="This file contains some prepatory functions.">
<polygon fill="white" stroke="black" points="265.5,-0.5 265.5,-19.5 340.5,-19.5 340.5,-0.5 265.5,-0.5"/>
<text text-anchor="middle" x="303" y="-7.5" font-family="FreeSans" font-size="10.00">vcs_prep.cpp</text>
</a>
</g>
<!-- Node1&#45;&gt;Node4 -->
<g id="edge6" class="edge"><title>Node1&#45;&gt;Node4</title>
<path fill="none" stroke="midnightblue" d="M334.886,-48.4314C326.824,-38.9673 317.041,-27.4827 310.455,-19.7511"/>
<polygon fill="midnightblue" stroke="midnightblue" points="332.255,-50.7402 341.404,-56.083 337.584,-46.2009 332.255,-50.7402"/>
</g>
<!-- Node5 -->
<g id="node9" class="node"><title>Node5</title>
<a xlink:href="vcs__prob_8cpp.html" target="_top" xlink:title="Implementation for the Interface class for the vcs thermo equilibrium solver package,.">
<polygon fill="white" stroke="black" points="358.5,-0.5 358.5,-19.5 433.5,-19.5 433.5,-0.5 358.5,-0.5"/>
<text text-anchor="middle" x="396" y="-7.5" font-family="FreeSans" font-size="10.00">vcs_prob.cpp</text>
</a>
</g>
<!-- Node1&#45;&gt;Node5 -->
<g id="edge8" class="edge"><title>Node1&#45;&gt;Node5</title>
<path fill="none" stroke="midnightblue" d="M363.421,-48.4314C371.658,-38.9673 381.654,-27.4827 388.383,-19.7511"/>
<polygon fill="midnightblue" stroke="midnightblue" points="360.686,-46.2421 356.761,-56.083 365.966,-50.8378 360.686,-46.2421"/>
</g>
<!-- Node6 -->
<g id="node11" class="node"><title>Node6</title>
<a xlink:href="vcs__solve_8cpp_source.html" target="_top" xlink:title="vcs_solve.cpp">
<polygon fill="white" stroke="black" points="452,-0.5 452,-19.5 532,-19.5 532,-0.5 452,-0.5"/>
<text text-anchor="middle" x="492" y="-7.5" font-family="FreeSans" font-size="10.00">vcs_solve.cpp</text>
</a>
</g>
<!-- Node1&#45;&gt;Node6 -->
<g id="edge10" class="edge"><title>Node1&#45;&gt;Node6</title>
<path fill="none" stroke="midnightblue" d="M381.027,-52.9058C407.912,-42.7536 445.641,-28.5063 469.447,-19.5164"/>
<polygon fill="midnightblue" stroke="midnightblue" points="379.778,-49.6364 371.659,-56.4435 382.25,-56.1851 379.778,-49.6364"/>
</g>
<!-- Node7 -->
<g id="node13" class="node"><title>Node7</title>
<a xlink:href="vcs__solve__phaseStability_8cpp_source.html" target="_top" xlink:title="vcs_solve_phaseStability.cpp">
<polygon fill="white" stroke="black" points="550,-0.5 550,-19.5 698,-19.5 698,-0.5 550,-0.5"/>
<text text-anchor="middle" x="624" y="-7.5" font-family="FreeSans" font-size="10.00">vcs_solve_phaseStability.cpp</text>
</a>
</g>
<!-- Node1&#45;&gt;Node7 -->
<g id="edge12" class="edge"><title>Node1&#45;&gt;Node7</title>
<path fill="none" stroke="midnightblue" d="M391.734,-56.6086C443.116,-46.519 528.876,-29.6788 580.568,-19.5285"/>
<polygon fill="midnightblue" stroke="midnightblue" points="390.764,-53.2321 381.626,-58.5934 392.113,-60.1009 390.764,-53.2321"/>
</g>
</g>
</svg>
