<?xml version="1.0" encoding="UTF-8" standalone="no"?>
<!DOCTYPE svg PUBLIC "-//W3C//DTD SVG 1.1//EN"
 "http://www.w3.org/Graphics/SVG/1.1/DTD/svg11.dtd">
<!-- Generated by graphviz version 2.28.0 (20120425.2022)
 -->
<!-- Title: VPSSMgr_General.cpp Pages: 1 -->
<svg width="1469pt" height="444pt"
 viewBox="0.00 0.00 1469.24 444.00" xmlns="http://www.w3.org/2000/svg" xmlns:xlink="http://www.w3.org/1999/xlink">
<g id="graph1" class="graph" transform="scale(1 1) rotate(0) translate(4 440)">
<title>VPSSMgr_General.cpp</title>
<polygon fill="white" stroke="white" points="-4,5 -4,-440 1466.24,-440 1466.24,5 -4,5"/>
<!-- Node1 -->
<g id="node1" class="node"><title>Node1</title>
<polygon fill="#bfbfbf" stroke="black" points="507.744,-416.5 507.744,-435.5 628.744,-435.5 628.744,-416.5 507.744,-416.5"/>
<text text-anchor="middle" x="568.244" y="-423.5" font-family="FreeSans" font-size="10.00">VPSSMgr_General.cpp</text>
</g>
<!-- Node2 -->
<g id="node3" class="node"><title>Node2</title>
<a xlink:href="VPSSMgr__General_8h.html" target="_top" xlink:title="Declaration file for a derived class that handles the calculation of standard state thermo properties...">
<polygon fill="white" stroke="black" points="579.744,-281 579.744,-311 710.744,-311 710.744,-281 579.744,-281"/>
<text text-anchor="start" x="587.744" y="-299" font-family="FreeSans" font-size="10.00">cantera/thermo/VPSSMgr</text>
<text text-anchor="middle" x="645.244" y="-288" font-family="FreeSans" font-size="10.00">_General.h</text>
</a>
</g>
<!-- Node1&#45;&gt;Node2 -->
<g id="edge2" class="edge"><title>Node1&#45;&gt;Node2</title>
<path fill="none" stroke="midnightblue" d="M628.844,-424.295C703.794,-421.988 824.974,-413.084 853.244,-380 862.484,-369.188 862.022,-359.19 853.244,-348 848.947,-342.521 778.428,-325.985 720.677,-313.212"/>
<polygon fill="midnightblue" stroke="midnightblue" points="721.316,-309.769 710.798,-311.036 719.811,-316.605 721.316,-309.769"/>
</g>
<!-- Node12 -->
<g id="node24" class="node"><title>Node12</title>
<a xlink:href="PDSS_8h.html" target="_top" xlink:title="Declarations for the virtual base class PDSS (pressure dependent standard state) which handles calcul...">
<polygon fill="white" stroke="black" points="401.244,-286.5 401.244,-305.5 523.244,-305.5 523.244,-286.5 401.244,-286.5"/>
<text text-anchor="middle" x="462.244" y="-293.5" font-family="FreeSans" font-size="10.00">cantera/thermo/PDSS.h</text>
</a>
</g>
<!-- Node1&#45;&gt;Node12 -->
<g id="edge24" class="edge"><title>Node1&#45;&gt;Node12</title>
<path fill="none" stroke="midnightblue" d="M568.087,-416.467C567.394,-401.229 564.017,-368.973 548.244,-348 535.216,-330.676 514.435,-318.118 496.564,-309.799"/>
<polygon fill="midnightblue" stroke="midnightblue" points="497.568,-306.417 487.004,-305.609 494.758,-312.828 497.568,-306.417"/>
</g>
<!-- Node13 -->
<g id="node28" class="node"><title>Node13</title>
<a xlink:href="xml_8h.html" target="_top" xlink:title="Classes providing support for XML data files.">
<polygon fill="white" stroke="black" points="1239.24,-168.5 1239.24,-187.5 1341.24,-187.5 1341.24,-168.5 1239.24,-168.5"/>
<text text-anchor="middle" x="1290.24" y="-175.5" font-family="FreeSans" font-size="10.00">cantera/base/xml.h</text>
</a>
</g>
<!-- Node1&#45;&gt;Node13 -->
<g id="edge30" class="edge"><title>Node1&#45;&gt;Node13</title>
<path fill="none" stroke="midnightblue" d="M628.818,-423.239C768.724,-418.758 1105.8,-405.436 1150.24,-380 1224.11,-337.73 1268.04,-238.721 1283.7,-197.51"/>
<polygon fill="midnightblue" stroke="midnightblue" points="1287.06,-198.521 1287.22,-187.928 1280.49,-196.106 1287.06,-198.521"/>
</g>
<!-- Node18 -->
<g id="node44" class="node"><title>Node18</title>
<a xlink:href="ctml_8h.html" target="_top" xlink:title="CTML (&quot;Cantera Markup Language&quot;) is the variant of XML that Cantera uses to store data...">
<polygon fill="white" stroke="black" points="259.244,-224.5 259.244,-243.5 363.244,-243.5 363.244,-224.5 259.244,-224.5"/>
<text text-anchor="middle" x="311.244" y="-231.5" font-family="FreeSans" font-size="10.00">cantera/base/ctml.h</text>
</a>
</g>
<!-- Node1&#45;&gt;Node18 -->
<g id="edge52" class="edge"><title>Node1&#45;&gt;Node18</title>
<path fill="none" stroke="midnightblue" d="M507.545,-424.583C371.007,-423.015 49.012,-415.548 16.2444,-380 -57.478,-300.023 142.107,-258.759 248.891,-242.896"/>
<polygon fill="midnightblue" stroke="midnightblue" points="249.53,-246.34 258.923,-241.439 248.524,-239.412 249.53,-246.34"/>
</g>
<!-- Node22 -->
<g id="node57" class="node"><title>Node22</title>
<a xlink:href="PDSS__IdealGas_8h.html" target="_top" xlink:title="Declarations for the class PDSS_IdealGas (pressure dependent standard state) which handles calculatio...">
<polygon fill="white" stroke="black" points="596.744,-349 596.744,-379 711.744,-379 711.744,-349 596.744,-349"/>
<text text-anchor="start" x="604.744" y="-367" font-family="FreeSans" font-size="10.00">cantera/thermo/PDSS</text>
<text text-anchor="middle" x="654.244" y="-356" font-family="FreeSans" font-size="10.00">_IdealGas.h</text>
</a>
</g>
<!-- Node1&#45;&gt;Node22 -->
<g id="edge70" class="edge"><title>Node1&#45;&gt;Node22</title>
<path fill="none" stroke="midnightblue" d="M580.566,-416.403C592.214,-408.277 610.127,-395.779 625.374,-385.142"/>
<polygon fill="midnightblue" stroke="midnightblue" points="627.777,-387.733 633.976,-379.141 623.772,-381.992 627.777,-387.733"/>
</g>
<!-- Node23 -->
<g id="node60" class="node"><title>Node23</title>
<a xlink:href="PDSS__Water_8h.html" target="_top" xlink:title="Implementation of a pressure dependent standard state virtual function for a Pure Water Phase (see Sp...">
<polygon fill="white" stroke="black" points="729.744,-349 729.744,-379 844.744,-379 844.744,-349 729.744,-349"/>
<text text-anchor="start" x="737.744" y="-367" font-family="FreeSans" font-size="10.00">cantera/thermo/PDSS</text>
<text text-anchor="middle" x="787.244" y="-356" font-family="FreeSans" font-size="10.00">_Water.h</text>
</a>
</g>
<!-- Node1&#45;&gt;Node23 -->
<g id="edge74" class="edge"><title>Node1&#45;&gt;Node23</title>
<path fill="none" stroke="midnightblue" d="M599.622,-416.403C632.58,-407.374 685.239,-392.947 726.392,-381.672"/>
<polygon fill="midnightblue" stroke="midnightblue" points="727.332,-385.043 736.052,-379.025 725.483,-378.292 727.332,-385.043"/>
</g>
<!-- Node27 -->
<g id="node72" class="node"><title>Node27</title>
<a xlink:href="PDSS__ConstVol_8h.html" target="_top" xlink:title="Declarations for the class PDSS_ConstVol (pressure dependent standard state) which handles calculatio...">
<polygon fill="white" stroke="black" points="25.7444,-349 25.7444,-379 140.744,-379 140.744,-349 25.7444,-349"/>
<text text-anchor="start" x="33.7444" y="-367" font-family="FreeSans" font-size="10.00">cantera/thermo/PDSS</text>
<text text-anchor="middle" x="83.2444" y="-356" font-family="FreeSans" font-size="10.00">_ConstVol.h</text>
</a>
</g>
<!-- Node1&#45;&gt;Node27 -->
<g id="edge90" class="edge"><title>Node1&#45;&gt;Node27</title>
<path fill="none" stroke="midnightblue" d="M507.577,-420.714C427.811,-414.584 283.174,-401.765 150.682,-380.127"/>
<polygon fill="midnightblue" stroke="midnightblue" points="151.196,-376.665 140.759,-378.486 150.054,-383.571 151.196,-376.665"/>
</g>
<!-- Node28 -->
<g id="node75" class="node"><title>Node28</title>
<a xlink:href="PDSS__SSVol_8h.html" target="_top" xlink:title="Declarations for the class PDSS_SSVol (pressure dependent standard state) which handles calculations ...">
<polygon fill="white" stroke="black" points="158.744,-349 158.744,-379 273.744,-379 273.744,-349 158.744,-349"/>
<text text-anchor="start" x="166.744" y="-367" font-family="FreeSans" font-size="10.00">cantera/thermo/PDSS</text>
<text text-anchor="middle" x="216.244" y="-356" font-family="FreeSans" font-size="10.00">_SSVol.h</text>
</a>
</g>
<!-- Node1&#45;&gt;Node28 -->
<g id="edge94" class="edge"><title>Node1&#45;&gt;Node28</title>
<path fill="none" stroke="midnightblue" d="M507.503,-416.655C451.733,-408.718 366.589,-395.911 283.864,-380.243"/>
<polygon fill="midnightblue" stroke="midnightblue" points="284.268,-376.757 273.789,-378.319 282.955,-383.633 284.268,-376.757"/>
</g>
<!-- Node29 -->
<g id="node78" class="node"><title>Node29</title>
<a xlink:href="PDSS__HKFT_8h.html" target="_top" xlink:title="Declarations for the class PDSS_HKFT (pressure dependent standard state) which handles calculations f...">
<polygon fill="white" stroke="black" points="291.744,-349 291.744,-379 406.744,-379 406.744,-349 291.744,-349"/>
<text text-anchor="start" x="299.744" y="-367" font-family="FreeSans" font-size="10.00">cantera/thermo/PDSS</text>
<text text-anchor="middle" x="349.244" y="-356" font-family="FreeSans" font-size="10.00">_HKFT.h</text>
</a>
</g>
<!-- Node1&#45;&gt;Node29 -->
<g id="edge98" class="edge"><title>Node1&#45;&gt;Node29</title>
<path fill="none" stroke="midnightblue" d="M536.867,-416.403C503.909,-407.374 451.25,-392.947 410.096,-381.672"/>
<polygon fill="midnightblue" stroke="midnightblue" points="411.006,-378.292 400.437,-379.025 409.157,-385.043 411.006,-378.292"/>
</g>
<!-- Node30 -->
<g id="node81" class="node"><title>Node30</title>
<a xlink:href="PDSS__IonsFromNeutral_8h.html" target="_top" xlink:title="Declarations for the class PDSS_IonsFromNeutral ( which handles calculations for a single ion in a fl...">
<polygon fill="white" stroke="black" points="424.744,-349 424.744,-379 539.744,-379 539.744,-349 424.744,-349"/>
<text text-anchor="start" x="432.744" y="-367" font-family="FreeSans" font-size="10.00">cantera/thermo/PDSS</text>
<text text-anchor="middle" x="482.244" y="-356" font-family="FreeSans" font-size="10.00">_IonsFromNeutral.h</text>
</a>
</g>
<!-- Node1&#45;&gt;Node30 -->
<g id="edge102" class="edge"><title>Node1&#45;&gt;Node30</title>
<path fill="none" stroke="midnightblue" d="M555.923,-416.403C544.275,-408.277 526.362,-395.779 511.114,-385.142"/>
<polygon fill="midnightblue" stroke="midnightblue" points="512.717,-381.992 502.513,-379.141 508.712,-387.733 512.717,-381.992"/>
</g>
<!-- Node31 -->
<g id="node84" class="node"><title>Node31</title>
<a xlink:href="GeneralSpeciesThermo_8h.html" target="_top" xlink:title="Headers for a completely general species thermodynamic property manager for a phase (see Managers for...">
<polygon fill="white" stroke="black" points="980.744,-349 980.744,-379 1141.74,-379 1141.74,-349 980.744,-349"/>
<text text-anchor="start" x="988.744" y="-367" font-family="FreeSans" font-size="10.00">cantera/thermo/GeneralSpecies</text>
<text text-anchor="middle" x="1061.24" y="-356" font-family="FreeSans" font-size="10.00">Thermo.h</text>
</a>
</g>
<!-- Node1&#45;&gt;Node31 -->
<g id="edge106" class="edge"><title>Node1&#45;&gt;Node31</title>
<path fill="none" stroke="midnightblue" d="M629.19,-417.583C714.745,-407.17 871.085,-388.143 970.39,-376.057"/>
<polygon fill="midnightblue" stroke="midnightblue" points="970.91,-379.52 980.414,-374.837 970.064,-372.571 970.91,-379.52"/>
</g>
<!-- Node3 -->
<g id="node5" class="node"><title>Node3</title>
<a xlink:href="ct__defs_8h.html" target="_top" xlink:title="This file contains definitions of terms that are used in internal routines and are unlikely to need m...">
<polygon fill="white" stroke="black" points="785.744,-56.5 785.744,-75.5 904.744,-75.5 904.744,-56.5 785.744,-56.5"/>
<text text-anchor="middle" x="845.244" y="-63.5" font-family="FreeSans" font-size="10.00">cantera/base/ct_defs.h</text>
</a>
</g>
<!-- Node2&#45;&gt;Node3 -->
<g id="edge4" class="edge"><title>Node2&#45;&gt;Node3</title>
<path fill="none" stroke="midnightblue" d="M648.622,-280.899C658.692,-239.076 688.183,-118.234 694.244,-112 715.482,-90.1587 746.819,-78.8044 775.449,-72.9462"/>
<polygon fill="midnightblue" stroke="midnightblue" points="776.247,-76.3581 785.442,-71.0951 774.972,-69.4751 776.247,-76.3581"/>
</g>
<!-- Node10 -->
<g id="node19" class="node"><title>Node10</title>
<a xlink:href="VPSSMgr_8h.html" target="_top" xlink:title="Declaration file for a virtual base class that manages the calculation of standard state properties f...">
<polygon fill="white" stroke="black" points="579.244,-224.5 579.244,-243.5 647.244,-243.5 647.244,-224.5 579.244,-224.5"/>
<text text-anchor="middle" x="613.244" y="-231.5" font-family="FreeSans" font-size="10.00">VPSSMgr.h</text>
</a>
</g>
<!-- Node2&#45;&gt;Node10 -->
<g id="edge18" class="edge"><title>Node2&#45;&gt;Node10</title>
<path fill="none" stroke="midnightblue" d="M637.661,-280.781C633.155,-272.332 627.403,-261.548 622.615,-252.569"/>
<polygon fill="midnightblue" stroke="midnightblue" points="625.695,-250.907 617.901,-243.731 619.518,-254.201 625.695,-250.907"/>
</g>
<!-- Node4 -->
<g id="node7" class="node"><title>Node4</title>
<a xlink:href="config_8h_source.html" target="_top" xlink:title="config.h">
<polygon fill="white" stroke="black" points="753.744,-0.5 753.744,-19.5 804.744,-19.5 804.744,-0.5 753.744,-0.5"/>
<text text-anchor="middle" x="779.244" y="-7.5" font-family="FreeSans" font-size="10.00">config.h</text>
</a>
</g>
<!-- Node3&#45;&gt;Node4 -->
<g id="edge6" class="edge"><title>Node3&#45;&gt;Node4</title>
<path fill="none" stroke="midnightblue" d="M834.64,-56.324C824.788,-48.2631 809.894,-36.0765 798.029,-26.3695"/>
<polygon fill="midnightblue" stroke="midnightblue" points="799.997,-23.4575 790.041,-19.8339 795.565,-28.8752 799.997,-23.4575"/>
</g>
<!-- Node5 -->
<g id="node9" class="node"><title>Node5</title>
<polygon fill="white" stroke="#bfbfbf" points="823.244,-0.5 823.244,-19.5 867.244,-19.5 867.244,-0.5 823.244,-0.5"/>
<text text-anchor="middle" x="845.244" y="-7.5" font-family="FreeSans" font-size="10.00">cmath</text>
</g>
<!-- Node3&#45;&gt;Node5 -->
<g id="edge8" class="edge"><title>Node3&#45;&gt;Node5</title>
<path fill="none" stroke="midnightblue" d="M845.244,-56.083C845.244,-49.0059 845.244,-38.8611 845.244,-29.9865"/>
<polygon fill="midnightblue" stroke="midnightblue" points="848.745,-29.751 845.244,-19.7511 841.745,-29.7511 848.745,-29.751"/>
</g>
<!-- Node6 -->
<g id="node11" class="node"><title>Node6</title>
<polygon fill="white" stroke="#bfbfbf" points="885.744,-0.5 885.744,-19.5 930.744,-19.5 930.744,-0.5 885.744,-0.5"/>
<text text-anchor="middle" x="908.244" y="-7.5" font-family="FreeSans" font-size="10.00">cstdlib</text>
</g>
<!-- Node3&#45;&gt;Node6 -->
<g id="edge10" class="edge"><title>Node3&#45;&gt;Node6</title>
<path fill="none" stroke="midnightblue" d="M855.366,-56.324C864.771,-48.2631 878.988,-36.0765 890.313,-26.3695"/>
<polygon fill="midnightblue" stroke="midnightblue" points="892.623,-28.9993 897.938,-19.8339 888.068,-23.6844 892.623,-28.9993"/>
</g>
<!-- Node7 -->
<g id="node13" class="node"><title>Node7</title>
<polygon fill="white" stroke="#bfbfbf" points="1088.24,-0.5 1088.24,-19.5 1132.24,-19.5 1132.24,-0.5 1088.24,-0.5"/>
<text text-anchor="middle" x="1110.24" y="-7.5" font-family="FreeSans" font-size="10.00">vector</text>
</g>
<!-- Node3&#45;&gt;Node7 -->
<g id="edge12" class="edge"><title>Node3&#45;&gt;Node7</title>
<path fill="none" stroke="midnightblue" d="M887.234,-56.4435C940.261,-45.6381 1030.34,-27.2834 1078.17,-17.5357"/>
<polygon fill="midnightblue" stroke="midnightblue" points="1078.89,-20.9617 1087.99,-15.5354 1077.49,-14.1026 1078.89,-20.9617"/>
</g>
<!-- Node8 -->
<g id="node15" class="node"><title>Node8</title>
<polygon fill="white" stroke="#bfbfbf" points="991.244,-0.5 991.244,-19.5 1027.24,-19.5 1027.24,-0.5 991.244,-0.5"/>
<text text-anchor="middle" x="1009.24" y="-7.5" font-family="FreeSans" font-size="10.00">map</text>
</g>
<!-- Node3&#45;&gt;Node8 -->
<g id="edge14" class="edge"><title>Node3&#45;&gt;Node8</title>
<path fill="none" stroke="midnightblue" d="M871.231,-56.4435C901.255,-46.5575 950.47,-30.3524 981.3,-20.2011"/>
<polygon fill="midnightblue" stroke="midnightblue" points="982.593,-23.4604 990.997,-17.0084 980.404,-16.8116 982.593,-23.4604"/>
</g>
<!-- Node9 -->
<g id="node17" class="node"><title>Node9</title>
<polygon fill="white" stroke="#bfbfbf" points="1290.74,-0.5 1290.74,-19.5 1331.74,-19.5 1331.74,-0.5 1290.74,-0.5"/>
<text text-anchor="middle" x="1311.24" y="-7.5" font-family="FreeSans" font-size="10.00">string</text>
</g>
<!-- Node3&#45;&gt;Node9 -->
<g id="edge16" class="edge"><title>Node3&#45;&gt;Node9</title>
<path fill="none" stroke="midnightblue" d="M905.212,-58.051C1005.49,-46.4307 1203.73,-23.4587 1280.17,-14.6008"/>
<polygon fill="midnightblue" stroke="midnightblue" points="1281.01,-18.0272 1290.54,-13.3993 1280.2,-11.0738 1281.01,-18.0272"/>
</g>
<!-- Node10&#45;&gt;Node3 -->
<g id="edge20" class="edge"><title>Node10&#45;&gt;Node3</title>
<path fill="none" stroke="midnightblue" d="M614.005,-224.455C616.45,-202.293 626.137,-142.575 661.244,-112 692.413,-84.8551 737.328,-73.5174 774.978,-69.0085"/>
<polygon fill="midnightblue" stroke="midnightblue" points="775.809,-72.4403 785.387,-67.9104 775.075,-65.4789 775.809,-72.4403"/>
</g>
<!-- Node11 -->
<g id="node22" class="node"><title>Node11</title>
<a xlink:href="mix__defs_8h_source.html" target="_top" xlink:title="mix_defs.h">
<polygon fill="white" stroke="black" points="543.744,-168.5 543.744,-187.5 608.744,-187.5 608.744,-168.5 543.744,-168.5"/>
<text text-anchor="middle" x="576.244" y="-175.5" font-family="FreeSans" font-size="10.00">mix_defs.h</text>
</a>
</g>
<!-- Node10&#45;&gt;Node11 -->
<g id="edge22" class="edge"><title>Node10&#45;&gt;Node11</title>
<path fill="none" stroke="midnightblue" d="M607.135,-224.083C601.962,-216.534 594.398,-205.495 588.05,-196.23"/>
<polygon fill="midnightblue" stroke="midnightblue" points="590.78,-194.022 582.241,-187.751 585.006,-197.979 590.78,-194.022"/>
</g>
<!-- Node12&#45;&gt;Node3 -->
<g id="edge26" class="edge"><title>Node12&#45;&gt;Node3</title>
<path fill="none" stroke="midnightblue" d="M461.027,-286.479C457.368,-257.153 449.688,-159.594 501.244,-112 540.024,-76.2018 686.914,-68.3275 775.726,-66.9219"/>
<polygon fill="midnightblue" stroke="midnightblue" points="775.775,-70.4217 785.726,-66.787 775.68,-63.4223 775.775,-70.4217"/>
</g>
<!-- Node12&#45;&gt;Node11 -->
<g id="edge28" class="edge"><title>Node12&#45;&gt;Node11</title>
<path fill="none" stroke="midnightblue" d="M470.813,-286.281C489.97,-266.788 536.49,-219.452 560.827,-194.688"/>
<polygon fill="midnightblue" stroke="midnightblue" points="563.373,-197.09 567.886,-187.505 558.381,-192.184 563.373,-197.09"/>
</g>
<!-- Node13&#45;&gt;Node3 -->
<g id="edge40" class="edge"><title>Node13&#45;&gt;Node3</title>
<path fill="none" stroke="midnightblue" d="M1272.72,-168.446C1243.47,-154.524 1182.57,-127.015 1128.24,-112 1056.89,-92.2791 972.858,-80.2797 915.005,-73.6887"/>
<polygon fill="midnightblue" stroke="midnightblue" points="915.202,-70.189 904.876,-72.5595 914.426,-77.146 915.202,-70.189"/>
</g>
<!-- Node13&#45;&gt;Node7 -->
<g id="edge48" class="edge"><title>Node13&#45;&gt;Node7</title>
<path fill="none" stroke="midnightblue" d="M1280.57,-168.075C1251.37,-141.153 1163.93,-60.5135 1127,-26.4534"/>
<polygon fill="midnightblue" stroke="midnightblue" points="1129.26,-23.7746 1119.54,-19.5681 1124.51,-28.9205 1129.26,-23.7746"/>
</g>
<!-- Node13&#45;&gt;Node9 -->
<g id="edge46" class="edge"><title>Node13&#45;&gt;Node9</title>
<path fill="none" stroke="midnightblue" d="M1314.07,-168.459C1332.08,-161.047 1356.48,-148.848 1373.24,-132 1393.16,-111.985 1396.37,-103.386 1403.24,-76 1405.41,-67.3785 1407.95,-63.5409 1403.24,-56 1389.9,-34.6113 1363.11,-23.1108 1341.87,-17.1065"/>
<polygon fill="midnightblue" stroke="midnightblue" points="1342.52,-13.6616 1331.97,-14.5812 1340.79,-20.4444 1342.52,-13.6616"/>
</g>
<!-- Node14 -->
<g id="node30" class="node"><title>Node14</title>
<a xlink:href="ctexceptions_8h.html" target="_top" xlink:title="Definitions for the classes that are thrown when Cantera experiences an error condition (also contain...">
<polygon fill="white" stroke="black" points="1265.24,-112.5 1265.24,-131.5 1345.24,-131.5 1345.24,-112.5 1265.24,-112.5"/>
<text text-anchor="middle" x="1305.24" y="-119.5" font-family="FreeSans" font-size="10.00">ctexceptions.h</text>
</a>
</g>
<!-- Node13&#45;&gt;Node14 -->
<g id="edge32" class="edge"><title>Node13&#45;&gt;Node14</title>
<path fill="none" stroke="midnightblue" d="M1292.72,-168.083C1294.73,-160.849 1297.63,-150.409 1300.13,-141.397"/>
<polygon fill="midnightblue" stroke="midnightblue" points="1303.51,-142.323 1302.81,-131.751 1296.76,-140.449 1303.51,-142.323"/>
</g>
<!-- Node16 -->
<g id="node34" class="node"><title>Node16</title>
<polygon fill="white" stroke="#bfbfbf" points="1339.24,-56.5 1339.24,-75.5 1395.24,-75.5 1395.24,-56.5 1339.24,-56.5"/>
<text text-anchor="middle" x="1367.24" y="-63.5" font-family="FreeSans" font-size="10.00">iostream</text>
</g>
<!-- Node13&#45;&gt;Node16 -->
<g id="edge50" class="edge"><title>Node13&#45;&gt;Node16</title>
<path fill="none" stroke="midnightblue" d="M1309.54,-168.417C1324.12,-160.913 1343.42,-148.613 1354.24,-132 1363.18,-118.292 1366.2,-99.7595 1367.12,-85.9905"/>
<polygon fill="midnightblue" stroke="midnightblue" points="1370.63,-85.8728 1367.48,-75.7554 1363.63,-85.6255 1370.63,-85.8728"/>
</g>
<!-- Node17 -->
<g id="node38" class="node"><title>Node17</title>
<a xlink:href="global_8h.html" target="_top" xlink:title="This file contains definitions for utility functions and text for modules, inputfiles, logs, textlogs, HTML_logs (see Input File Handling, Diagnostic Output, Writing messages to the screen and Writing HTML Logfiles).">
<polygon fill="white" stroke="black" points="819.244,-112.5 819.244,-131.5 871.244,-131.5 871.244,-112.5 819.244,-112.5"/>
<text text-anchor="middle" x="845.244" y="-119.5" font-family="FreeSans" font-size="10.00">global.h</text>
</a>
</g>
<!-- Node13&#45;&gt;Node17 -->
<g id="edge42" class="edge"><title>Node13&#45;&gt;Node17</title>
<path fill="none" stroke="midnightblue" d="M1239.2,-170.806C1148.2,-159.763 960.115,-136.939 881.266,-127.371"/>
<polygon fill="midnightblue" stroke="midnightblue" points="881.674,-123.895 871.325,-126.165 880.831,-130.844 881.674,-123.895"/>
</g>
<!-- Node14&#45;&gt;Node9 -->
<g id="edge38" class="edge"><title>Node14&#45;&gt;Node9</title>
<path fill="none" stroke="midnightblue" d="M1305.72,-112.368C1306.68,-94.617 1308.92,-53.6664 1310.23,-29.5974"/>
<polygon fill="midnightblue" stroke="midnightblue" points="1313.73,-29.7672 1310.78,-19.5914 1306.74,-29.3859 1313.73,-29.7672"/>
</g>
<!-- Node15 -->
<g id="node32" class="node"><title>Node15</title>
<polygon fill="white" stroke="#bfbfbf" points="1223.24,-56.5 1223.24,-75.5 1283.24,-75.5 1283.24,-56.5 1223.24,-56.5"/>
<text text-anchor="middle" x="1253.24" y="-63.5" font-family="FreeSans" font-size="10.00">exception</text>
</g>
<!-- Node14&#45;&gt;Node15 -->
<g id="edge34" class="edge"><title>Node14&#45;&gt;Node15</title>
<path fill="none" stroke="midnightblue" d="M1296.66,-112.083C1289.09,-104.22 1277.87,-92.5688 1268.73,-83.0813"/>
<polygon fill="midnightblue" stroke="midnightblue" points="1271.13,-80.5266 1261.67,-75.7511 1266.09,-85.3821 1271.13,-80.5266"/>
</g>
<!-- Node14&#45;&gt;Node16 -->
<g id="edge36" class="edge"><title>Node14&#45;&gt;Node16</title>
<path fill="none" stroke="midnightblue" d="M1315.21,-112.324C1324.37,-104.341 1338.18,-92.3128 1349.27,-82.6529"/>
<polygon fill="midnightblue" stroke="midnightblue" points="1351.86,-85.041 1357.1,-75.8339 1347.26,-79.7624 1351.86,-85.041"/>
</g>
<!-- Node17&#45;&gt;Node3 -->
<g id="edge44" class="edge"><title>Node17&#45;&gt;Node3</title>
<path fill="none" stroke="midnightblue" d="M845.244,-112.083C845.244,-105.006 845.244,-94.8611 845.244,-85.9865"/>
<polygon fill="midnightblue" stroke="midnightblue" points="848.745,-85.751 845.244,-75.7511 841.745,-85.7511 848.745,-85.751"/>
</g>
<!-- Node18&#45;&gt;Node3 -->
<g id="edge54" class="edge"><title>Node18&#45;&gt;Node3</title>
<path fill="none" stroke="midnightblue" d="M307.95,-224.254C300.246,-202.13 283.84,-143.471 313.244,-112 344.159,-78.9133 637.85,-70.1185 775.141,-67.8088"/>
<polygon fill="midnightblue" stroke="midnightblue" points="775.603,-71.3019 785.545,-67.6412 775.49,-64.3028 775.603,-71.3019"/>
</g>
<!-- Node18&#45;&gt;Node13 -->
<g id="edge56" class="edge"><title>Node18&#45;&gt;Node13</title>
<path fill="none" stroke="midnightblue" d="M363.312,-230.887C529.776,-224.055 1047.9,-202.188 1215.24,-188 1219.7,-187.622 1224.3,-187.185 1228.93,-186.712"/>
<polygon fill="midnightblue" stroke="midnightblue" points="1229.49,-190.172 1239.06,-185.625 1228.74,-183.212 1229.49,-190.172"/>
</g>
<!-- Node19 -->
<g id="node48" class="node"><title>Node19</title>
<a xlink:href="Array_8h.html" target="_top" xlink:title="Header file for class Array2D.">
<polygon fill="white" stroke="black" points="334.244,-168.5 334.244,-187.5 382.244,-187.5 382.244,-168.5 334.244,-168.5"/>
<text text-anchor="middle" x="358.244" y="-175.5" font-family="FreeSans" font-size="10.00">Array.h</text>
</a>
</g>
<!-- Node18&#45;&gt;Node19 -->
<g id="edge58" class="edge"><title>Node18&#45;&gt;Node19</title>
<path fill="none" stroke="midnightblue" d="M319.006,-224.083C325.781,-216.298 335.788,-204.801 343.999,-195.367"/>
<polygon fill="midnightblue" stroke="midnightblue" points="346.703,-197.592 350.628,-187.751 341.422,-192.996 346.703,-197.592"/>
</g>
<!-- Node19&#45;&gt;Node3 -->
<g id="edge60" class="edge"><title>Node19&#45;&gt;Node3</title>
<path fill="none" stroke="midnightblue" d="M347.238,-168.401C331.538,-155.135 306.283,-129.393 322.244,-112 352.271,-79.279 639.782,-70.2977 775.265,-67.8746"/>
<polygon fill="midnightblue" stroke="midnightblue" points="775.599,-71.3695 785.537,-67.6983 775.478,-64.3705 775.599,-71.3695"/>
</g>
<!-- Node19&#45;&gt;Node14 -->
<g id="edge62" class="edge"><title>Node19&#45;&gt;Node14</title>
<path fill="none" stroke="midnightblue" d="M382.605,-175.611C507.934,-168.464 1080.93,-135.791 1254.97,-125.867"/>
<polygon fill="midnightblue" stroke="midnightblue" points="1255.34,-129.351 1265.13,-125.288 1254.94,-122.363 1255.34,-129.351"/>
</g>
<!-- Node20 -->
<g id="node52" class="node"><title>Node20</title>
<a xlink:href="utilities_8h.html" target="_top" xlink:title="Various templated functions that carry out common vector operations (see globalUtilFuncs).">
<polygon fill="white" stroke="red" points="331.244,-112.5 331.244,-131.5 385.244,-131.5 385.244,-112.5 331.244,-112.5"/>
<text text-anchor="middle" x="358.244" y="-119.5" font-family="FreeSans" font-size="10.00">utilities.h</text>
</a>
</g>
<!-- Node19&#45;&gt;Node20 -->
<g id="edge64" class="edge"><title>Node19&#45;&gt;Node20</title>
<path fill="none" stroke="midnightblue" d="M358.244,-168.083C358.244,-161.006 358.244,-150.861 358.244,-141.986"/>
<polygon fill="midnightblue" stroke="midnightblue" points="361.745,-141.751 358.244,-131.751 354.745,-141.751 361.745,-141.751"/>
</g>
<!-- Node21 -->
<g id="node55" class="node"><title>Node21</title>
<polygon fill="white" stroke="#bfbfbf" points="403.244,-112.5 403.244,-131.5 449.244,-131.5 449.244,-112.5 403.244,-112.5"/>
<text text-anchor="middle" x="426.244" y="-119.5" font-family="FreeSans" font-size="10.00">cstring</text>
</g>
<!-- Node19&#45;&gt;Node21 -->
<g id="edge68" class="edge"><title>Node19&#45;&gt;Node21</title>
<path fill="none" stroke="midnightblue" d="M369.17,-168.324C379.419,-160.185 394.965,-147.839 407.245,-138.087"/>
<polygon fill="midnightblue" stroke="midnightblue" points="409.466,-140.794 415.12,-131.834 405.113,-135.312 409.466,-140.794"/>
</g>
<!-- Node20&#45;&gt;Node3 -->
<g id="edge66" class="edge"><title>Node20&#45;&gt;Node3</title>
<path fill="none" stroke="midnightblue" d="M385.281,-113.793C388.292,-113.124 391.325,-112.508 394.244,-112 527.913,-88.7502 686.114,-76.4054 775.164,-70.823"/>
<polygon fill="midnightblue" stroke="midnightblue" points="775.644,-74.3001 785.41,-70.1914 775.214,-67.3133 775.644,-74.3001"/>
</g>
<!-- Node22&#45;&gt;Node12 -->
<g id="edge72" class="edge"><title>Node22&#45;&gt;Node12</title>
<path fill="none" stroke="midnightblue" d="M613.056,-348.841C578.405,-336.93 529.427,-320.094 496.793,-308.876"/>
<polygon fill="midnightblue" stroke="midnightblue" points="497.819,-305.528 487.224,-305.587 495.543,-312.148 497.819,-305.528"/>
</g>
<!-- Node23&#45;&gt;Node3 -->
<g id="edge76" class="edge"><title>Node23&#45;&gt;Node3</title>
<path fill="none" stroke="midnightblue" d="M729.606,-349.821C665.822,-335.183 571.727,-313.407 570.244,-312 522.406,-266.574 500.083,-224.436 534.244,-168 560.418,-124.76 700.658,-92.8057 783.612,-77.3586"/>
<polygon fill="midnightblue" stroke="midnightblue" points="784.475,-80.7586 793.68,-75.5122 783.213,-73.8734 784.475,-80.7586"/>
</g>
<!-- Node23&#45;&gt;Node12 -->
<g id="edge78" class="edge"><title>Node23&#45;&gt;Node12</title>
<path fill="none" stroke="midnightblue" d="M729.522,-349.977C726.385,-349.301 723.277,-348.638 720.244,-348 639.126,-330.944 618.552,-328.128 537.244,-312 529.909,-310.545 522.171,-309.004 514.562,-307.486"/>
<polygon fill="midnightblue" stroke="midnightblue" points="515.172,-304.038 504.68,-305.511 513.801,-310.903 515.172,-304.038"/>
</g>
<!-- Node24 -->
<g id="node64" class="node"><title>Node24</title>
<a xlink:href="VPStandardStateTP_8h.html" target="_top" xlink:title="Header file for a derived class of ThermoPhase that handles variable pressure standard state methods ...">
<polygon fill="white" stroke="black" points="729.244,-286.5 729.244,-305.5 845.244,-305.5 845.244,-286.5 729.244,-286.5"/>
<text text-anchor="middle" x="787.244" y="-293.5" font-family="FreeSans" font-size="10.00">VPStandardStateTP.h</text>
</a>
</g>
<!-- Node23&#45;&gt;Node24 -->
<g id="edge80" class="edge"><title>Node23&#45;&gt;Node24</title>
<path fill="none" stroke="midnightblue" d="M787.244,-348.679C787.244,-339.101 787.244,-326.394 787.244,-315.977"/>
<polygon fill="midnightblue" stroke="midnightblue" points="790.745,-315.828 787.244,-305.828 783.745,-315.828 790.745,-315.828"/>
</g>
<!-- Node24&#45;&gt;Node10 -->
<g id="edge88" class="edge"><title>Node24&#45;&gt;Node10</title>
<path fill="none" stroke="midnightblue" d="M762.314,-286.403C732.209,-276.022 681.412,-258.506 647.606,-246.849"/>
<polygon fill="midnightblue" stroke="midnightblue" points="648.723,-243.532 638.128,-243.581 646.441,-250.149 648.723,-243.532"/>
</g>
<!-- Node25 -->
<g id="node66" class="node"><title>Node25</title>
<a xlink:href="ThermoPhase_8h.html" target="_top" xlink:title="Header file for class ThermoPhase, the base class for phases with thermodynamic properties, and the text for the Module thermoprops (see Thermodynamic Properties and class ThermoPhase).">
<polygon fill="white" stroke="red" points="703.744,-224.5 703.744,-243.5 792.744,-243.5 792.744,-224.5 703.744,-224.5"/>
<text text-anchor="middle" x="748.244" y="-231.5" font-family="FreeSans" font-size="10.00">ThermoPhase.h</text>
</a>
</g>
<!-- Node24&#45;&gt;Node25 -->
<g id="edge82" class="edge"><title>Node24&#45;&gt;Node25</title>
<path fill="none" stroke="midnightblue" d="M781.657,-286.403C775.865,-277.493 766.655,-263.325 759.371,-252.118"/>
<polygon fill="midnightblue" stroke="midnightblue" points="762.206,-250.058 753.822,-243.581 756.337,-253.873 762.206,-250.058"/>
</g>
<!-- Node26 -->
<g id="node68" class="node"><title>Node26</title>
<a xlink:href="SpeciesThermo_8h.html" target="_top" xlink:title="Virtual base class for the calculation of multiple&#45;species thermodynamic reference&#45;state property man...">
<polygon fill="white" stroke="black" points="703.744,-112.5 703.744,-131.5 800.744,-131.5 800.744,-112.5 703.744,-112.5"/>
<text text-anchor="middle" x="752.244" y="-119.5" font-family="FreeSans" font-size="10.00">SpeciesThermo.h</text>
</a>
</g>
<!-- Node25&#45;&gt;Node26 -->
<g id="edge84" class="edge"><title>Node25&#45;&gt;Node26</title>
<path fill="none" stroke="midnightblue" d="M748.558,-224.368C749.204,-206.617 750.693,-165.666 751.568,-141.597"/>
<polygon fill="midnightblue" stroke="midnightblue" points="755.066,-141.712 751.932,-131.591 748.071,-141.458 755.066,-141.712"/>
</g>
<!-- Node26&#45;&gt;Node3 -->
<g id="edge86" class="edge"><title>Node26&#45;&gt;Node3</title>
<path fill="none" stroke="midnightblue" d="M767.186,-112.324C781.83,-103.822 804.378,-90.7288 821.482,-80.7975"/>
<polygon fill="midnightblue" stroke="midnightblue" points="823.449,-83.7027 830.339,-75.6545 819.934,-77.6491 823.449,-83.7027"/>
</g>
<!-- Node27&#45;&gt;Node12 -->
<g id="edge92" class="edge"><title>Node27&#45;&gt;Node12</title>
<path fill="none" stroke="midnightblue" d="M140.793,-349.7C143.647,-349.11 146.476,-348.54 149.244,-348 232.856,-331.703 329.734,-316.476 393.3,-306.979"/>
<polygon fill="midnightblue" stroke="midnightblue" points="393.833,-310.438 403.209,-305.504 392.803,-303.514 393.833,-310.438"/>
</g>
<!-- Node28&#45;&gt;Node12 -->
<g id="edge96" class="edge"><title>Node28&#45;&gt;Node12</title>
<path fill="none" stroke="midnightblue" d="M268.716,-348.922C314.081,-336.751 378.779,-319.393 420.645,-308.161"/>
<polygon fill="midnightblue" stroke="midnightblue" points="421.76,-311.486 430.511,-305.514 419.946,-304.725 421.76,-311.486"/>
</g>
<!-- Node29&#45;&gt;Node12 -->
<g id="edge100" class="edge"><title>Node29&#45;&gt;Node12</title>
<path fill="none" stroke="midnightblue" d="M373.486,-348.841C392.768,-337.579 419.59,-321.913 438.69,-310.757"/>
<polygon fill="midnightblue" stroke="midnightblue" points="440.51,-313.748 447.38,-305.682 436.98,-307.703 440.51,-313.748"/>
</g>
<!-- Node30&#45;&gt;Node12 -->
<g id="edge104" class="edge"><title>Node30&#45;&gt;Node12</title>
<path fill="none" stroke="midnightblue" d="M477.905,-348.679C474.972,-338.999 471.07,-326.123 467.894,-315.645"/>
<polygon fill="midnightblue" stroke="midnightblue" points="471.169,-314.383 464.92,-305.828 464.47,-316.414 471.169,-314.383"/>
</g>
<!-- Node31&#45;&gt;Node3 -->
<g id="edge110" class="edge"><title>Node31&#45;&gt;Node3</title>
<path fill="none" stroke="midnightblue" d="M1065.85,-348.894C1068.91,-338.755 1072.65,-324.693 1074.24,-312 1082.38,-247.134 1087.45,-217.058 1044.24,-168 1016.31,-136.289 993.985,-151.009 956.244,-132 940.928,-124.285 938.006,-120.73 923.244,-112 905.192,-101.324 884.639,-89.4789 869.164,-80.6224"/>
<polygon fill="midnightblue" stroke="midnightblue" points="870.672,-77.453 860.253,-75.5313 867.2,-83.531 870.672,-77.453"/>
</g>
<!-- Node31&#45;&gt;Node9 -->
<g id="edge108" class="edge"><title>Node31&#45;&gt;Node9</title>
<path fill="none" stroke="midnightblue" d="M1142.19,-360.638C1259.07,-352.428 1461.24,-318.12 1461.24,-179 1461.24,-179 1461.24,-179 1461.24,-121 1461.24,-62.2529 1385.5,-31.452 1341.66,-18.545"/>
<polygon fill="midnightblue" stroke="midnightblue" points="1342.36,-15.1065 1331.79,-15.7806 1340.47,-21.8473 1342.36,-15.1065"/>
</g>
<!-- Node32 -->
<g id="node88" class="node"><title>Node32</title>
<a xlink:href="SpeciesThermoMgr_8h.html" target="_top" xlink:title="This file contains descriptions of templated subclasses of the virtual base class, SpeciesThermo, which includes SpeciesThermoDuo (see Managers for Calculating Reference&#45;State Thermodynamics and class SpeciesThermoDuo)">
<polygon fill="white" stroke="black" points="1092.24,-168.5 1092.24,-187.5 1206.24,-187.5 1206.24,-168.5 1092.24,-168.5"/>
<text text-anchor="middle" x="1149.24" y="-175.5" font-family="FreeSans" font-size="10.00">SpeciesThermoMgr.h</text>
</a>
</g>
<!-- Node31&#45;&gt;Node32 -->
<g id="edge112" class="edge"><title>Node31&#45;&gt;Node32</title>
<path fill="none" stroke="midnightblue" d="M1080.09,-348.833C1091.25,-339.513 1104.81,-326.404 1113.24,-312 1134.93,-274.972 1143.9,-224.537 1147.33,-197.662"/>
<polygon fill="midnightblue" stroke="midnightblue" points="1150.81,-198.029 1148.48,-187.694 1143.85,-197.226 1150.81,-198.029"/>
</g>
<!-- Node34 -->
<g id="node98" class="node"><title>Node34</title>
<a xlink:href="NasaPoly1_8h.html" target="_top" xlink:title="Header for a single&#45;species standard state object derived from SpeciesThermoInterpType based on the N...">
<polygon fill="white" stroke="black" points="959.744,-286.5 959.744,-305.5 1032.74,-305.5 1032.74,-286.5 959.744,-286.5"/>
<text text-anchor="middle" x="996.244" y="-293.5" font-family="FreeSans" font-size="10.00">NasaPoly1.h</text>
</a>
</g>
<!-- Node31&#45;&gt;Node34 -->
<g id="edge128" class="edge"><title>Node31&#45;&gt;Node34</title>
<path fill="none" stroke="midnightblue" d="M1047.14,-348.679C1036.8,-338.184 1022.77,-323.932 1012.05,-313.052"/>
<polygon fill="midnightblue" stroke="midnightblue" points="1014.45,-310.497 1004.94,-305.828 1009.46,-315.409 1014.45,-310.497"/>
</g>
<!-- Node36 -->
<g id="node103" class="node"><title>Node36</title>
<a xlink:href="speciesThermoTypes_8h.html" target="_top" xlink:title=" Contains const definitions for types of species &#160;reference&#45;state thermodynamics managers (see \ref s...">
<polygon fill="white" stroke="black" points="910.744,-168.5 910.744,-187.5 1035.74,-187.5 1035.74,-168.5 910.744,-168.5"/>
<text text-anchor="middle" x="973.244" y="-175.5" font-family="FreeSans" font-size="10.00">speciesThermoTypes.h</text>
</a>
</g>
<!-- Node31&#45;&gt;Node36 -->
<g id="edge148" class="edge"><title>Node31&#45;&gt;Node36</title>
<path fill="none" stroke="midnightblue" d="M1062.21,-348.73C1063.32,-322.05 1062.4,-263.725 1037.24,-224 1028.71,-210.518 1014.53,-199.933 1001.68,-192.425"/>
<polygon fill="midnightblue" stroke="midnightblue" points="1003.12,-189.222 992.663,-187.505 999.765,-195.367 1003.12,-189.222"/>
</g>
<!-- Node37 -->
<g id="node108" class="node"><title>Node37</title>
<a xlink:href="Nasa9Poly1_8h.html" target="_top" xlink:title="Header for a single&#45;species standard state object derived from SpeciesThermoInterpType based on the N...">
<polygon fill="white" stroke="black" points="863.244,-286.5 863.244,-305.5 941.244,-305.5 941.244,-286.5 863.244,-286.5"/>
<text text-anchor="middle" x="902.244" y="-293.5" font-family="FreeSans" font-size="10.00">Nasa9Poly1.h</text>
</a>
</g>
<!-- Node31&#45;&gt;Node37 -->
<g id="edge142" class="edge"><title>Node31&#45;&gt;Node37</title>
<path fill="none" stroke="midnightblue" d="M1027.13,-348.841C999.016,-337.169 959.504,-320.768 932.499,-309.558"/>
<polygon fill="midnightblue" stroke="midnightblue" points="933.738,-306.283 923.16,-305.682 931.054,-312.748 933.738,-306.283"/>
</g>
<!-- Node32&#45;&gt;Node3 -->
<g id="edge114" class="edge"><title>Node32&#45;&gt;Node3</title>
<path fill="none" stroke="midnightblue" d="M1145.68,-168.16C1139.41,-153.828 1124.98,-125.742 1103.24,-112 1072.69,-92.6836 980.573,-80.0031 915.145,-73.1667"/>
<polygon fill="midnightblue" stroke="midnightblue" points="915.191,-69.6532 904.887,-72.1195 914.48,-76.617 915.191,-69.6532"/>
</g>
<!-- Node32&#45;&gt;Node8 -->
<g id="edge126" class="edge"><title>Node32&#45;&gt;Node8</title>
<path fill="none" stroke="midnightblue" d="M1148,-168.343C1145.8,-155.223 1140.25,-129.937 1128.24,-112 1102.9,-74.1273 1059.5,-42.4273 1032.7,-25.1338"/>
<polygon fill="midnightblue" stroke="midnightblue" points="1034.3,-22.0032 1023.98,-19.6312 1030.57,-27.9248 1034.3,-22.0032"/>
</g>
<!-- Node32&#45;&gt;Node14 -->
<g id="edge116" class="edge"><title>Node32&#45;&gt;Node14</title>
<path fill="none" stroke="midnightblue" d="M1173.96,-168.444C1200.09,-159.399 1241.5,-145.064 1270.82,-134.916"/>
<polygon fill="midnightblue" stroke="midnightblue" points="1272.34,-138.095 1280.64,-131.516 1270.05,-131.48 1272.34,-138.095"/>
</g>
<!-- Node32&#45;&gt;Node26 -->
<g id="edge124" class="edge"><title>Node32&#45;&gt;Node26</title>
<path fill="none" stroke="midnightblue" d="M1092.21,-169.818C1026.91,-161.507 916.437,-147.183 811.139,-132.102"/>
<polygon fill="midnightblue" stroke="midnightblue" points="811.363,-128.598 800.967,-130.64 810.368,-135.527 811.363,-128.598"/>
</g>
<!-- Node33 -->
<g id="node92" class="node"><title>Node33</title>
<a xlink:href="stringUtils_8h.html" target="_top" xlink:title=" Contains declarations for string manipulation functions &#160;within Cantera.">
<polygon fill="white" stroke="black" points="965.744,-112.5 965.744,-131.5 1094.74,-131.5 1094.74,-112.5 965.744,-112.5"/>
<text text-anchor="middle" x="1030.24" y="-119.5" font-family="FreeSans" font-size="10.00">cantera/base/stringUtils.h</text>
</a>
</g>
<!-- Node32&#45;&gt;Node33 -->
<g id="edge118" class="edge"><title>Node32&#45;&gt;Node33</title>
<path fill="none" stroke="midnightblue" d="M1130.39,-168.444C1110.98,-159.636 1080.51,-145.812 1058.28,-135.722"/>
<polygon fill="midnightblue" stroke="midnightblue" points="1059.56,-132.462 1049.01,-131.516 1056.67,-138.836 1059.56,-132.462"/>
</g>
<!-- Node33&#45;&gt;Node3 -->
<g id="edge120" class="edge"><title>Node33&#45;&gt;Node3</title>
<path fill="none" stroke="midnightblue" d="M1000.93,-112.444C969.402,-103.241 919.113,-88.5617 884.259,-78.3879"/>
<polygon fill="midnightblue" stroke="midnightblue" points="885.001,-74.9587 874.421,-75.5164 883.04,-81.6783 885.001,-74.9587"/>
</g>
<!-- Node33&#45;&gt;Node9 -->
<g id="edge122" class="edge"><title>Node33&#45;&gt;Node9</title>
<path fill="none" stroke="midnightblue" d="M1052.29,-112.368C1102.21,-92.827 1223.95,-45.172 1280.92,-22.8725"/>
<polygon fill="midnightblue" stroke="midnightblue" points="1282.41,-26.0461 1290.45,-19.1416 1279.86,-19.5277 1282.41,-26.0461"/>
</g>
<!-- Node34&#45;&gt;Node17 -->
<g id="edge130" class="edge"><title>Node34&#45;&gt;Node17</title>
<path fill="none" stroke="midnightblue" d="M1000.51,-286.196C1006.83,-271.766 1016.55,-242.807 1003.24,-224 975.478,-184.755 940.936,-215.123 901.244,-188 882.682,-175.315 866.541,-154.993 856.419,-140.448"/>
<polygon fill="midnightblue" stroke="midnightblue" points="859.144,-138.226 850.672,-131.863 853.327,-142.12 859.144,-138.226"/>
</g>
<!-- Node35 -->
<g id="node101" class="node"><title>Node35</title>
<a xlink:href="SpeciesThermoInterpType_8h.html" target="_top" xlink:title="Pure Virtual Base class for individual species reference state thermodynamic managers and text for th...">
<polygon fill="white" stroke="black" points="849.744,-224.5 849.744,-243.5 994.744,-243.5 994.744,-224.5 849.744,-224.5"/>
<text text-anchor="middle" x="922.244" y="-231.5" font-family="FreeSans" font-size="10.00">SpeciesThermoInterpType.h</text>
</a>
</g>
<!-- Node34&#45;&gt;Node35 -->
<g id="edge132" class="edge"><title>Node34&#45;&gt;Node35</title>
<path fill="none" stroke="midnightblue" d="M985.642,-286.403C973.992,-276.958 955.058,-261.606 940.91,-250.134"/>
<polygon fill="midnightblue" stroke="midnightblue" points="942.799,-247.16 932.827,-243.581 938.39,-252.597 942.799,-247.16"/>
</g>
<!-- Node35&#45;&gt;Node36 -->
<g id="edge134" class="edge"><title>Node35&#45;&gt;Node36</title>
<path fill="none" stroke="midnightblue" d="M930.666,-224.083C938.093,-216.22 949.096,-204.569 958.057,-195.081"/>
<polygon fill="midnightblue" stroke="midnightblue" points="960.658,-197.424 964.98,-187.751 955.569,-192.618 960.658,-197.424"/>
</g>
<!-- Node36&#45;&gt;Node3 -->
<g id="edge136" class="edge"><title>Node36&#45;&gt;Node3</title>
<path fill="none" stroke="midnightblue" d="M963.2,-168.368C941.516,-149.733 890.082,-105.532 862.855,-82.1338"/>
<polygon fill="midnightblue" stroke="midnightblue" points="865.107,-79.4546 855.242,-75.5914 860.545,-84.7636 865.107,-79.4546"/>
</g>
<!-- Node36&#45;&gt;Node17 -->
<g id="edge138" class="edge"><title>Node36&#45;&gt;Node17</title>
<path fill="none" stroke="midnightblue" d="M952.962,-168.444C931.897,-159.557 898.728,-145.563 874.759,-135.451"/>
<polygon fill="midnightblue" stroke="midnightblue" points="876.006,-132.179 865.432,-131.516 873.285,-138.628 876.006,-132.179"/>
</g>
<!-- Node36&#45;&gt;Node33 -->
<g id="edge140" class="edge"><title>Node36&#45;&gt;Node33</title>
<path fill="none" stroke="midnightblue" d="M982.402,-168.324C990.746,-160.42 1003.28,-148.548 1013.42,-138.938"/>
<polygon fill="midnightblue" stroke="midnightblue" points="1016.07,-141.252 1020.92,-131.834 1011.25,-136.171 1016.07,-141.252"/>
</g>
<!-- Node37&#45;&gt;Node17 -->
<g id="edge144" class="edge"><title>Node37&#45;&gt;Node17</title>
<path fill="none" stroke="midnightblue" d="M884.925,-286.406C869.985,-277.922 849.41,-263.408 840.244,-244 824.517,-210.697 832.654,-166.316 839.36,-141.61"/>
<polygon fill="midnightblue" stroke="midnightblue" points="842.795,-142.335 842.25,-131.754 836.078,-140.365 842.795,-142.335"/>
</g>
<!-- Node37&#45;&gt;Node35 -->
<g id="edge146" class="edge"><title>Node37&#45;&gt;Node35</title>
<path fill="none" stroke="midnightblue" d="M905.11,-286.403C907.991,-277.76 912.521,-264.17 916.2,-253.134"/>
<polygon fill="midnightblue" stroke="midnightblue" points="919.542,-254.174 919.384,-243.581 912.901,-251.961 919.542,-254.174"/>
</g>
</g>
</svg>
