<?xml version="1.0" encoding="UTF-8" standalone="no"?>
<!DOCTYPE svg PUBLIC "-//W3C//DTD SVG 1.1//EN"
 "http://www.w3.org/Graphics/SVG/1.1/DTD/svg11.dtd">
<!-- Generated by graphviz version 2.28.0 (20120425.2022)
 -->
<!-- Title: writelog.h Pages: 1 -->
<svg width="466pt" height="84pt"
 viewBox="0.00 0.00 466.00 84.00" xmlns="http://www.w3.org/2000/svg" xmlns:xlink="http://www.w3.org/1999/xlink">
<g id="graph1" class="graph" transform="scale(1 1) rotate(0) translate(4 80)">
<title>writelog.h</title>
<polygon fill="white" stroke="white" points="-4,5 -4,-80 463,-80 463,5 -4,5"/>
<!-- Node1 -->
<g id="node1" class="node"><title>Node1</title>
<polygon fill="#bfbfbf" stroke="black" points="184.5,-56.5 184.5,-75.5 243.5,-75.5 243.5,-56.5 184.5,-56.5"/>
<text text-anchor="middle" x="214" y="-63.5" font-family="FreeSans" font-size="10.00">writelog.h</text>
</g>
<!-- Node2 -->
<g id="node3" class="node"><title>Node2</title>
<a xlink:href="ck2ct_8cpp.html" target="_top" xlink:title="Convert CK&#45;format reaction mechanism files to Cantera input format.">
<polygon fill="white" stroke="black" points="0,-0.5 0,-19.5 58,-19.5 58,-0.5 0,-0.5"/>
<text text-anchor="middle" x="29" y="-7.5" font-family="FreeSans" font-size="10.00">ck2ct.cpp</text>
</a>
</g>
<!-- Node1&#45;&gt;Node2 -->
<g id="edge2" class="edge"><title>Node1&#45;&gt;Node2</title>
<path fill="none" stroke="midnightblue" d="M174.834,-53.5677C139.935,-43.381 89.6507,-28.7034 58.1767,-19.5164"/>
<polygon fill="midnightblue" stroke="midnightblue" points="174.106,-57.0013 184.686,-56.4435 176.067,-50.2817 174.106,-57.0013"/>
</g>
<!-- Node3 -->
<g id="node5" class="node"><title>Node3</title>
<a xlink:href="CKParser_8cpp.html" target="_top" xlink:title="CKParser.cpp">
<polygon fill="white" stroke="black" points="76,-0.5 76,-19.5 154,-19.5 154,-0.5 76,-0.5"/>
<text text-anchor="middle" x="115" y="-7.5" font-family="FreeSans" font-size="10.00">CKParser.cpp</text>
</a>
</g>
<!-- Node1&#45;&gt;Node3 -->
<g id="edge4" class="edge"><title>Node1&#45;&gt;Node3</title>
<path fill="none" stroke="midnightblue" d="M189.163,-51.4526C170.886,-41.4835 146.584,-28.2279 130.867,-19.6545"/>
<polygon fill="midnightblue" stroke="midnightblue" points="187.639,-54.608 198.094,-56.324 190.991,-48.4628 187.639,-54.608"/>
</g>
<!-- Node4 -->
<g id="node7" class="node"><title>Node4</title>
<a xlink:href="CKReader_8cpp.html" target="_top" xlink:title="CKReader.cpp">
<polygon fill="white" stroke="black" points="172.5,-0.5 172.5,-19.5 255.5,-19.5 255.5,-0.5 172.5,-0.5"/>
<text text-anchor="middle" x="214" y="-7.5" font-family="FreeSans" font-size="10.00">CKReader.cpp</text>
</a>
</g>
<!-- Node1&#45;&gt;Node4 -->
<g id="edge6" class="edge"><title>Node1&#45;&gt;Node4</title>
<path fill="none" stroke="midnightblue" d="M214,-45.8045C214,-36.9102 214,-26.7798 214,-19.7511"/>
<polygon fill="midnightblue" stroke="midnightblue" points="210.5,-46.083 214,-56.083 217.5,-46.083 210.5,-46.083"/>
</g>
<!-- Node5 -->
<g id="node9" class="node"><title>Node5</title>
<a xlink:href="NASA9Parser_8cpp_source.html" target="_top" xlink:title="NASA9Parser.cpp">
<polygon fill="white" stroke="black" points="274,-0.5 274,-19.5 370,-19.5 370,-0.5 274,-0.5"/>
<text text-anchor="middle" x="322" y="-7.5" font-family="FreeSans" font-size="10.00">NASA9Parser.cpp</text>
</a>
</g>
<!-- Node1&#45;&gt;Node5 -->
<g id="edge8" class="edge"><title>Node1&#45;&gt;Node5</title>
<path fill="none" stroke="midnightblue" d="M240.548,-51.7261C260.546,-41.7271 287.387,-28.3065 304.691,-19.6545"/>
<polygon fill="midnightblue" stroke="midnightblue" points="238.731,-48.7213 231.352,-56.324 241.862,-54.9823 238.731,-48.7213"/>
</g>
<!-- Node6 -->
<g id="node11" class="node"><title>Node6</title>
<a xlink:href="writelog_8cpp.html" target="_top" xlink:title="writelog.cpp">
<polygon fill="white" stroke="black" points="388,-0.5 388,-19.5 458,-19.5 458,-0.5 388,-0.5"/>
<text text-anchor="middle" x="423" y="-7.5" font-family="FreeSans" font-size="10.00">writelog.cpp</text>
</a>
</g>
<!-- Node1&#45;&gt;Node6 -->
<g id="edge10" class="edge"><title>Node1&#45;&gt;Node6</title>
<path fill="none" stroke="midnightblue" d="M253.299,-54.8461C292.723,-44.66 352.767,-29.1464 389.855,-19.5637"/>
<polygon fill="midnightblue" stroke="midnightblue" points="252.308,-51.4873 243.501,-57.3776 254.059,-58.2647 252.308,-51.4873"/>
</g>
</g>
</svg>
