<?xml version="1.0" encoding="UTF-8" standalone="no"?>
<!DOCTYPE svg PUBLIC "-//W3C//DTD SVG 1.1//EN"
 "http://www.w3.org/Graphics/SVG/1.1/DTD/svg11.dtd">
<!-- Generated by graphviz version 2.40.1 (20161225.0304)
 -->
<!-- Title: MixedSolventElectrolyte.cpp Pages: 1 -->
<svg width="749pt" height="543pt"
 viewBox="0.00 0.00 748.50 543.00" xmlns="http://www.w3.org/2000/svg" xmlns:xlink="http://www.w3.org/1999/xlink">
<g id="graph0" class="graph" transform="scale(1 1) rotate(0) translate(4 539)">
<title>MixedSolventElectrolyte.cpp</title>
<polygon fill="#ffffff" stroke="transparent" points="-4,4 -4,-539 744.5,-539 744.5,4 -4,4"/>
<!-- Node0 -->
<g id="node1" class="node">
<title>Node0</title>
<polygon fill="#bfbfbf" stroke="#000000" points="455,-515.5 455,-534.5 597,-534.5 597,-515.5 455,-515.5"/>
<text text-anchor="middle" x="526" y="-522.5" font-family="Helvetica,sans-Serif" font-size="10.00" fill="#000000">MixedSolventElectrolyte.cpp</text>
</g>
<!-- Node1 -->
<g id="node2" class="node">
<title>Node1</title>
<g id="a_node2"><a xlink:href="../../d1/d62/MixedSolventElectrolyte_8h.html" target="_top" xlink:title="(see Thermodynamic Properties and class MixedSolventElectrolyte ). ">
<polygon fill="#ffffff" stroke="#000000" points="260.5,-448.5 260.5,-478.5 407.5,-478.5 407.5,-448.5 260.5,-448.5"/>
<text text-anchor="start" x="268.5" y="-466.5" font-family="Helvetica,sans-Serif" font-size="10.00" fill="#000000">cantera/thermo/MixedSolvent</text>
<text text-anchor="middle" x="334" y="-455.5" font-family="Helvetica,sans-Serif" font-size="10.00" fill="#000000">Electrolyte.h</text>
</a>
</g>
</g>
<!-- Node0&#45;&gt;Node1 -->
<g id="edge1" class="edge">
<title>Node0&#45;&gt;Node1</title>
<path fill="none" stroke="#191970" d="M496,-515.3906C467.97,-506.4123 425.3905,-492.7735 390.9182,-481.7316"/>
<polygon fill="#191970" stroke="#191970" points="391.5595,-478.2619 380.9685,-478.5446 389.4242,-484.9283 391.5595,-478.2619"/>
</g>
<!-- Node41 -->
<g id="node13" class="node">
<title>Node41</title>
<g id="a_node13"><a xlink:href="../../dc/d8e/ThermoFactory_8h.html" target="_top" xlink:title="Headers for the factory class that can create known ThermoPhase objects (see Thermodynamic Properties...">
<polygon fill="#ffffff" stroke="#000000" points="349.5,-280.5 349.5,-299.5 512.5,-299.5 512.5,-280.5 349.5,-280.5"/>
<text text-anchor="middle" x="431" y="-287.5" font-family="Helvetica,sans-Serif" font-size="10.00" fill="#000000">cantera/thermo/ThermoFactory.h</text>
</a>
</g>
</g>
<!-- Node0&#45;&gt;Node41 -->
<g id="edge13" class="edge">
<title>Node0&#45;&gt;Node41</title>
<path fill="none" stroke="#191970" d="M522.1582,-515.4967C507.9262,-480.2912 458.0342,-356.874 438.7187,-309.0937"/>
<polygon fill="#191970" stroke="#191970" points="441.8824,-307.5809 434.8896,-299.6216 435.3926,-310.2045 441.8824,-307.5809"/>
</g>
<!-- Node46 -->
<g id="node20" class="node">
<title>Node46</title>
<g id="a_node20"><a xlink:href="../../dd/dc3/stringUtils_8h.html" target="_top" xlink:title="Contains declarations for string manipulation functions within Cantera. ">
<polygon fill="#ffffff" stroke="#000000" points="611.5,-168.5 611.5,-187.5 740.5,-187.5 740.5,-168.5 611.5,-168.5"/>
<text text-anchor="middle" x="676" y="-175.5" font-family="Helvetica,sans-Serif" font-size="10.00" fill="#000000">cantera/base/stringUtils.h</text>
</a>
</g>
</g>
<!-- Node0&#45;&gt;Node46 -->
<g id="edge26" class="edge">
<title>Node0&#45;&gt;Node46</title>
<path fill="none" stroke="#191970" d="M553.9113,-515.4508C595.5269,-499.2326 669,-462.0903 669,-402 669,-402 669,-402 669,-290 669,-257.6486 671.9452,-220.1429 674.0149,-197.7814"/>
<polygon fill="#191970" stroke="#191970" points="677.5229,-197.8651 674.9971,-187.5758 670.5551,-197.1945 677.5229,-197.8651"/>
</g>
<!-- Node47 -->
<g id="node21" class="node">
<title>Node47</title>
<g id="a_node21"><a xlink:href="../../dc/deb/ctml_8h.html" target="_top" xlink:title="CTML (&quot;Cantera Markup Language&quot;) is the variant of XML that Cantera uses to store data...">
<polygon fill="#ffffff" stroke="#000000" points="531,-280.5 531,-299.5 635,-299.5 635,-280.5 531,-280.5"/>
<text text-anchor="middle" x="583" y="-287.5" font-family="Helvetica,sans-Serif" font-size="10.00" fill="#000000">cantera/base/ctml.h</text>
</a>
</g>
</g>
<!-- Node0&#45;&gt;Node47 -->
<g id="edge30" class="edge">
<title>Node0&#45;&gt;Node47</title>
<path fill="none" stroke="#191970" d="M528.3051,-515.4967C536.8263,-480.3651 566.6538,-357.3922 578.2955,-309.3958"/>
<polygon fill="#191970" stroke="#191970" points="581.7104,-310.1648 580.6663,-299.6216 574.9076,-308.5148 581.7104,-310.1648"/>
</g>
<!-- Node2 -->
<g id="node3" class="node">
<title>Node2</title>
<g id="a_node3"><a xlink:href="../../da/d44/MolarityIonicVPSSTP_8h.html" target="_top" xlink:title="(see Thermodynamic Properties and class MolarityIonicVPSSTP). ">
<polygon fill="#ffffff" stroke="#000000" points="247,-392.5 247,-411.5 367,-411.5 367,-392.5 247,-392.5"/>
<text text-anchor="middle" x="307" y="-399.5" font-family="Helvetica,sans-Serif" font-size="10.00" fill="#000000">MolarityIonicVPSSTP.h</text>
</a>
</g>
</g>
<!-- Node1&#45;&gt;Node2 -->
<g id="edge2" class="edge">
<title>Node1&#45;&gt;Node2</title>
<path fill="none" stroke="#191970" d="M327.3258,-448.2977C323.7341,-440.1166 319.2676,-429.943 315.4371,-421.2179"/>
<polygon fill="#191970" stroke="#191970" points="318.5478,-419.5964 311.323,-411.8469 312.1382,-422.4104 318.5478,-419.5964"/>
</g>
<!-- Node3 -->
<g id="node4" class="node">
<title>Node3</title>
<g id="a_node4"><a xlink:href="../../d6/d88/GibbsExcessVPSSTP_8h.html" target="_top" xlink:title="Header for intermediate ThermoPhase object for phases which employ Gibbs excess free energy based for...">
<polygon fill="#ffffff" stroke="#000000" points="212.5,-336.5 212.5,-355.5 335.5,-355.5 335.5,-336.5 212.5,-336.5"/>
<text text-anchor="middle" x="274" y="-343.5" font-family="Helvetica,sans-Serif" font-size="10.00" fill="#000000">GibbsExcessVPSSTP.h</text>
</a>
</g>
</g>
<!-- Node2&#45;&gt;Node3 -->
<g id="edge3" class="edge">
<title>Node2&#45;&gt;Node3</title>
<path fill="none" stroke="#191970" d="M301.2518,-392.2455C296.7565,-384.617 290.3752,-373.7881 284.9175,-364.5267"/>
<polygon fill="#191970" stroke="#191970" points="287.7747,-362.4811 279.6823,-355.6427 281.7439,-366.035 287.7747,-362.4811"/>
</g>
<!-- Node4 -->
<g id="node5" class="node">
<title>Node4</title>
<g id="a_node5"><a xlink:href="../../df/dfd/VPStandardStateTP_8h.html" target="_top" xlink:title="Header file for a derived class of ThermoPhase that handles variable pressure standard state methods ...">
<polygon fill="#ffffff" stroke="#ff0000" points="216.5,-280.5 216.5,-299.5 331.5,-299.5 331.5,-280.5 216.5,-280.5"/>
<text text-anchor="middle" x="274" y="-287.5" font-family="Helvetica,sans-Serif" font-size="10.00" fill="#000000">VPStandardStateTP.h</text>
</a>
</g>
</g>
<!-- Node3&#45;&gt;Node4 -->
<g id="edge4" class="edge">
<title>Node3&#45;&gt;Node4</title>
<path fill="none" stroke="#191970" d="M274,-336.2455C274,-328.9382 274,-318.6944 274,-309.7046"/>
<polygon fill="#191970" stroke="#191970" points="277.5001,-309.6426 274,-299.6427 270.5001,-309.6427 277.5001,-309.6426"/>
</g>
<!-- Node35 -->
<g id="node12" class="node">
<title>Node35</title>
<g id="a_node12"><a xlink:href="../../df/dd0/Array_8h.html" target="_top" xlink:title="Header file for class Cantera::Array2D. ">
<polygon fill="#ffffff" stroke="#ff0000" points="89.5,-280.5 89.5,-299.5 198.5,-299.5 198.5,-280.5 89.5,-280.5"/>
<text text-anchor="middle" x="144" y="-287.5" font-family="Helvetica,sans-Serif" font-size="10.00" fill="#000000">cantera/base/Array.h</text>
</a>
</g>
</g>
<!-- Node3&#45;&gt;Node35 -->
<g id="edge12" class="edge">
<title>Node3&#45;&gt;Node35</title>
<path fill="none" stroke="#191970" d="M251.6522,-336.3733C230.5967,-327.3032 198.8505,-313.6279 175.2825,-303.4755"/>
<polygon fill="#191970" stroke="#191970" points="176.625,-300.243 166.0562,-299.5011 173.8556,-306.6719 176.625,-300.243"/>
</g>
<!-- Node5 -->
<g id="node6" class="node">
<title>Node5</title>
<g id="a_node6"><a xlink:href="../../d7/d01/ThermoPhase_8h.html" target="_top" xlink:title="Header file for class ThermoPhase, the base class for phases with thermodynamic properties, and the text for the Module thermoprops (see Thermodynamic Properties and class ThermoPhase). ">
<polygon fill="#ffffff" stroke="#ff0000" points="303,-224.5 303,-243.5 391,-243.5 391,-224.5 303,-224.5"/>
<text text-anchor="middle" x="347" y="-231.5" font-family="Helvetica,sans-Serif" font-size="10.00" fill="#000000">ThermoPhase.h</text>
</a>
</g>
</g>
<!-- Node4&#45;&gt;Node5 -->
<g id="edge5" class="edge">
<title>Node4&#45;&gt;Node5</title>
<path fill="none" stroke="#191970" d="M286.7156,-280.2455C297.602,-271.8943 313.4883,-259.7076 326.22,-249.9408"/>
<polygon fill="#191970" stroke="#191970" points="328.6261,-252.5063 334.4301,-243.6427 324.3654,-246.9523 328.6261,-252.5063"/>
</g>
<!-- Node24 -->
<g id="node7" class="node">
<title>Node24</title>
<g id="a_node7"><a xlink:href="../../d2/d49/global_8h.html" target="_top" xlink:title="This file contains definitions for utility functions and text for modules, inputfiles, logs, textlogs, (see Input File Handling, Diagnostic Output, and Writing messages to the screen). ">
<polygon fill="#ffffff" stroke="#000000" points="283,-168.5 283,-187.5 395,-187.5 395,-168.5 283,-168.5"/>
<text text-anchor="middle" x="339" y="-175.5" font-family="Helvetica,sans-Serif" font-size="10.00" fill="#000000">cantera/base/global.h</text>
</a>
</g>
</g>
<!-- Node5&#45;&gt;Node24 -->
<g id="edge6" class="edge">
<title>Node5&#45;&gt;Node24</title>
<path fill="none" stroke="#191970" d="M345.6065,-224.2455C344.5626,-216.9382 343.0992,-206.6944 341.8149,-197.7046"/>
<polygon fill="#191970" stroke="#191970" points="345.2566,-197.0472 340.3775,-187.6427 338.327,-198.0372 345.2566,-197.0472"/>
</g>
<!-- Node9 -->
<g id="node8" class="node">
<title>Node9</title>
<g id="a_node8"><a xlink:href="../../d9/ddc/ct__defs_8h.html" target="_top" xlink:title="This file contains definitions of terms that are used in internal routines and are unlikely to need m...">
<polygon fill="#ffffff" stroke="#ff0000" points="514.5,-56.5 514.5,-75.5 571.5,-75.5 571.5,-56.5 514.5,-56.5"/>
<text text-anchor="middle" x="543" y="-63.5" font-family="Helvetica,sans-Serif" font-size="10.00" fill="#000000">ct_defs.h</text>
</a>
</g>
</g>
<!-- Node24&#45;&gt;Node9 -->
<g id="edge7" class="edge">
<title>Node24&#45;&gt;Node9</title>
<path fill="none" stroke="#191970" d="M351.2191,-168.4111C368.9781,-154.7563 403.2713,-129.4354 435,-112 458.2331,-99.2331 485.7397,-87.5639 507.1785,-79.1731"/>
<polygon fill="#191970" stroke="#191970" points="508.4919,-82.418 516.5647,-75.5564 505.975,-75.8861 508.4919,-82.418"/>
</g>
<!-- Node8 -->
<g id="node11" class="node">
<title>Node8</title>
<g id="a_node11"><a xlink:href="../../db/def/fmt_8h.html" target="_top" xlink:title="Wrapper for either system&#45;installed or local headers for fmt. ">
<polygon fill="#ffffff" stroke="#ff0000" points="444.5,-112.5 444.5,-131.5 543.5,-131.5 543.5,-112.5 444.5,-112.5"/>
<text text-anchor="middle" x="494" y="-119.5" font-family="Helvetica,sans-Serif" font-size="10.00" fill="#000000">cantera/base/fmt.h</text>
</a>
</g>
</g>
<!-- Node24&#45;&gt;Node8 -->
<g id="edge10" class="edge">
<title>Node24&#45;&gt;Node8</title>
<path fill="none" stroke="#191970" d="M365.6454,-168.3733C391.1964,-159.1419 429.9512,-145.1402 458.1909,-134.9375"/>
<polygon fill="#191970" stroke="#191970" points="459.4865,-138.1909 467.7022,-131.5011 457.1079,-131.6074 459.4865,-138.1909"/>
</g>
<!-- Node13 -->
<g id="node9" class="node">
<title>Node13</title>
<polygon fill="#ffffff" stroke="#bfbfbf" points="448,-.5 448,-19.5 492,-19.5 492,-.5 448,-.5"/>
<text text-anchor="middle" x="470" y="-7.5" font-family="Helvetica,sans-Serif" font-size="10.00" fill="#000000">vector</text>
</g>
<!-- Node9&#45;&gt;Node13 -->
<g id="edge8" class="edge">
<title>Node9&#45;&gt;Node13</title>
<path fill="none" stroke="#191970" d="M530.2844,-56.2455C519.398,-47.8943 503.5117,-35.7076 490.78,-25.9408"/>
<polygon fill="#191970" stroke="#191970" points="492.6346,-22.9523 482.5699,-19.6427 488.3739,-28.5063 492.6346,-22.9523"/>
</g>
<!-- Node15 -->
<g id="node10" class="node">
<title>Node15</title>
<polygon fill="#ffffff" stroke="#bfbfbf" points="594.5,-.5 594.5,-19.5 635.5,-19.5 635.5,-.5 594.5,-.5"/>
<text text-anchor="middle" x="615" y="-7.5" font-family="Helvetica,sans-Serif" font-size="10.00" fill="#000000">string</text>
</g>
<!-- Node9&#45;&gt;Node15 -->
<g id="edge9" class="edge">
<title>Node9&#45;&gt;Node15</title>
<path fill="none" stroke="#191970" d="M555.5414,-56.2455C566.2787,-47.8943 581.9473,-35.7076 594.5047,-25.9408"/>
<polygon fill="#191970" stroke="#191970" points="596.8575,-28.5449 602.6023,-19.6427 592.5599,-23.0194 596.8575,-28.5449"/>
</g>
<!-- Node8&#45;&gt;Node9 -->
<g id="edge11" class="edge">
<title>Node8&#45;&gt;Node9</title>
<path fill="none" stroke="#191970" d="M502.5351,-112.2455C509.4912,-104.2958 519.4883,-92.8706 527.8051,-83.3656"/>
<polygon fill="#191970" stroke="#191970" points="530.6116,-85.4732 534.5627,-75.6427 525.3436,-80.8637 530.6116,-85.4732"/>
</g>
<!-- Node41&#45;&gt;Node5 -->
<g id="edge14" class="edge">
<title>Node41&#45;&gt;Node5</title>
<path fill="none" stroke="#191970" d="M416.3683,-280.2455C403.6006,-271.7337 384.8562,-259.2375 370.0701,-249.3801"/>
<polygon fill="#191970" stroke="#191970" points="371.726,-246.2775 361.464,-243.6427 367.8431,-252.1019 371.726,-246.2775"/>
</g>
<!-- Node42 -->
<g id="node14" class="node">
<title>Node42</title>
<g id="a_node14"><a xlink:href="../../d0/d62/xml_8h.html" target="_top" xlink:title="Classes providing support for XML data files. ">
<polygon fill="#ffffff" stroke="#000000" points="425.5,-224.5 425.5,-243.5 526.5,-243.5 526.5,-224.5 425.5,-224.5"/>
<text text-anchor="middle" x="476" y="-231.5" font-family="Helvetica,sans-Serif" font-size="10.00" fill="#000000">cantera/base/xml.h</text>
</a>
</g>
</g>
<!-- Node41&#45;&gt;Node42 -->
<g id="edge15" class="edge">
<title>Node41&#45;&gt;Node42</title>
<path fill="none" stroke="#191970" d="M438.8384,-280.2455C445.162,-272.3761 454.2224,-261.101 461.8136,-251.6542"/>
<polygon fill="#191970" stroke="#191970" points="464.7158,-253.6302 468.2514,-243.6427 459.2592,-249.2454 464.7158,-253.6302"/>
</g>
<!-- Node43 -->
<g id="node16" class="node">
<title>Node43</title>
<g id="a_node16"><a xlink:href="../../d6/dd5/FactoryBase_8h.html" target="_top" xlink:title="File contains the FactoryBase class declarations. ">
<polygon fill="#ffffff" stroke="#000000" points="143,-224.5 143,-243.5 285,-243.5 285,-224.5 143,-224.5"/>
<text text-anchor="middle" x="214" y="-231.5" font-family="Helvetica,sans-Serif" font-size="10.00" fill="#000000">cantera/base/FactoryBase.h</text>
</a>
</g>
</g>
<!-- Node41&#45;&gt;Node43 -->
<g id="edge19" class="edge">
<title>Node41&#45;&gt;Node43</title>
<path fill="none" stroke="#191970" d="M393.6964,-280.3733C356.8315,-270.8598 300.334,-256.2797 260.5494,-246.0127"/>
<polygon fill="#191970" stroke="#191970" points="261.3742,-242.611 250.8169,-243.5011 259.625,-249.3889 261.3742,-242.611"/>
</g>
<!-- Node42&#45;&gt;Node24 -->
<g id="edge18" class="edge">
<title>Node42&#45;&gt;Node24</title>
<path fill="none" stroke="#191970" d="M452.4489,-224.3733C430.1609,-215.2629 396.5063,-201.5062 371.6363,-191.3404"/>
<polygon fill="#191970" stroke="#191970" points="372.8247,-188.0451 362.2438,-187.5011 370.1761,-194.5247 372.8247,-188.0451"/>
</g>
<!-- Node7 -->
<g id="node15" class="node">
<title>Node7</title>
<g id="a_node15"><a xlink:href="../../db/d98/ctexceptions_8h.html" target="_top" xlink:title="Definitions for the classes that are thrown when Cantera experiences an error condition (also contain...">
<polygon fill="#ffffff" stroke="#ff0000" points="413.5,-168.5 413.5,-187.5 554.5,-187.5 554.5,-168.5 413.5,-168.5"/>
<text text-anchor="middle" x="484" y="-175.5" font-family="Helvetica,sans-Serif" font-size="10.00" fill="#000000">cantera/base/ctexceptions.h</text>
</a>
</g>
</g>
<!-- Node42&#45;&gt;Node7 -->
<g id="edge16" class="edge">
<title>Node42&#45;&gt;Node7</title>
<path fill="none" stroke="#191970" d="M477.3935,-224.2455C478.4374,-216.9382 479.9008,-206.6944 481.1851,-197.7046"/>
<polygon fill="#191970" stroke="#191970" points="484.673,-198.0372 482.6225,-187.6427 477.7434,-197.0472 484.673,-198.0372"/>
</g>
<!-- Node7&#45;&gt;Node8 -->
<g id="edge17" class="edge">
<title>Node7&#45;&gt;Node8</title>
<path fill="none" stroke="#191970" d="M485.7419,-168.2455C487.0467,-160.9382 488.876,-150.6944 490.4813,-141.7046"/>
<polygon fill="#191970" stroke="#191970" points="493.9656,-142.1022 492.2781,-131.6427 487.0746,-140.8717 493.9656,-142.1022"/>
</g>
<!-- Node43&#45;&gt;Node24 -->
<g id="edge25" class="edge">
<title>Node43&#45;&gt;Node24</title>
<path fill="none" stroke="#191970" d="M235.4883,-224.3733C255.644,-215.3435 285.988,-201.7494 308.618,-191.6111"/>
<polygon fill="#191970" stroke="#191970" points="310.0971,-194.7838 317.7921,-187.5011 307.2351,-188.3955 310.0971,-194.7838"/>
</g>
<!-- Node43&#45;&gt;Node13 -->
<g id="edge20" class="edge">
<title>Node43&#45;&gt;Node13</title>
<path fill="none" stroke="#191970" d="M222.1049,-224.1684C233.2437,-210.8775 254.1648,-186.6915 274,-168 333.78,-111.6668 411.4186,-52.8935 448.4782,-25.6221"/>
<polygon fill="#191970" stroke="#191970" points="450.5801,-28.4211 456.5788,-19.6881 446.4434,-22.7742 450.5801,-28.4211"/>
</g>
<!-- Node43&#45;&gt;Node7 -->
<g id="edge24" class="edge">
<title>Node43&#45;&gt;Node7</title>
<path fill="none" stroke="#191970" d="M260.1079,-224.4369C306.6075,-214.7925 378.4359,-199.8948 428.14,-189.5858"/>
<polygon fill="#191970" stroke="#191970" points="429.0015,-192.9817 438.0823,-187.5237 427.5799,-186.1275 429.0015,-192.9817"/>
</g>
<!-- Node44 -->
<g id="node17" class="node">
<title>Node44</title>
<polygon fill="#ffffff" stroke="#bfbfbf" points="0,-168.5 0,-187.5 44,-187.5 44,-168.5 0,-168.5"/>
<text text-anchor="middle" x="22" y="-175.5" font-family="Helvetica,sans-Serif" font-size="10.00" fill="#000000">mutex</text>
</g>
<!-- Node43&#45;&gt;Node44 -->
<g id="edge21" class="edge">
<title>Node43&#45;&gt;Node44</title>
<path fill="none" stroke="#191970" d="M179.3541,-224.4654C148.7241,-215.9553 102.6057,-202.9467 54.0603,-188.2592"/>
<polygon fill="#191970" stroke="#191970" points="54.9084,-184.859 44.3228,-185.3002 52.8731,-191.5566 54.9084,-184.859"/>
</g>
<!-- Node25 -->
<g id="node18" class="node">
<title>Node25</title>
<polygon fill="#ffffff" stroke="#bfbfbf" points="62.5,-168.5 62.5,-187.5 149.5,-187.5 149.5,-168.5 62.5,-168.5"/>
<text text-anchor="middle" x="106" y="-175.5" font-family="Helvetica,sans-Serif" font-size="10.00" fill="#000000">unordered_map</text>
</g>
<!-- Node43&#45;&gt;Node25 -->
<g id="edge22" class="edge">
<title>Node43&#45;&gt;Node25</title>
<path fill="none" stroke="#191970" d="M195.1878,-224.2455C178.1527,-215.4125 152.8425,-202.2887 133.5319,-192.2758"/>
<polygon fill="#191970" stroke="#191970" points="135.0853,-189.1388 124.5966,-187.6427 131.863,-195.353 135.0853,-189.1388"/>
</g>
<!-- Node45 -->
<g id="node19" class="node">
<title>Node45</title>
<polygon fill="#ffffff" stroke="#bfbfbf" points="167.5,-168.5 167.5,-187.5 226.5,-187.5 226.5,-168.5 167.5,-168.5"/>
<text text-anchor="middle" x="197" y="-175.5" font-family="Helvetica,sans-Serif" font-size="10.00" fill="#000000">functional</text>
</g>
<!-- Node43&#45;&gt;Node45 -->
<g id="edge23" class="edge">
<title>Node43&#45;&gt;Node45</title>
<path fill="none" stroke="#191970" d="M211.0388,-224.2455C208.7962,-216.8579 205.6423,-206.4689 202.8919,-197.4087"/>
<polygon fill="#191970" stroke="#191970" points="206.1812,-196.1948 199.9272,-187.6427 199.483,-198.2282 206.1812,-196.1948"/>
</g>
<!-- Node46&#45;&gt;Node9 -->
<g id="edge27" class="edge">
<title>Node46&#45;&gt;Node9</title>
<path fill="none" stroke="#191970" d="M664.6605,-168.4509C641.8888,-149.2747 590.3768,-105.8962 562.2361,-82.1988"/>
<polygon fill="#191970" stroke="#191970" points="564.2144,-79.2891 554.3108,-75.5249 559.7055,-84.6435 564.2144,-79.2891"/>
</g>
<!-- Node46&#45;&gt;Node15 -->
<g id="edge29" class="edge">
<title>Node46&#45;&gt;Node15</title>
<path fill="none" stroke="#191970" d="M672.5456,-168.4862C662.8194,-141.6994 635.0634,-65.2565 621.9819,-29.2289"/>
<polygon fill="#191970" stroke="#191970" points="625.2713,-28.0329 618.5685,-19.8279 618.6916,-30.422 625.2713,-28.0329"/>
</g>
<!-- Node46&#45;&gt;Node8 -->
<g id="edge28" class="edge">
<title>Node46&#45;&gt;Node8</title>
<path fill="none" stroke="#191970" d="M644.7131,-168.3733C614.3182,-159.021 568.0107,-144.7725 534.75,-134.5385"/>
<polygon fill="#191970" stroke="#191970" points="535.4658,-131.0968 524.8786,-131.5011 533.4071,-137.7873 535.4658,-131.0968"/>
</g>
<!-- Node47&#45;&gt;Node9 -->
<g id="edge31" class="edge">
<title>Node47&#45;&gt;Node9</title>
<path fill="none" stroke="#191970" d="M581.5444,-280.4914C578.3748,-259.9332 570.527,-209.8254 563,-168 557.8222,-139.2284 551.1885,-106.0248 547.015,-85.5201"/>
<polygon fill="#191970" stroke="#191970" points="550.4075,-84.6395 544.9744,-75.5438 543.5495,-86.0424 550.4075,-84.6395"/>
</g>
<!-- Node47&#45;&gt;Node42 -->
<g id="edge32" class="edge">
<title>Node47&#45;&gt;Node42</title>
<path fill="none" stroke="#191970" d="M564.362,-280.2455C547.5614,-271.4527 522.6366,-258.4079 503.5382,-248.4125"/>
<polygon fill="#191970" stroke="#191970" points="504.9073,-245.1787 494.4244,-243.6427 501.6614,-251.3807 504.9073,-245.1787"/>
</g>
</g>
</svg>
