<?xml version="1.0" encoding="UTF-8" standalone="no"?>
<!DOCTYPE svg PUBLIC "-//W3C//DTD SVG 1.1//EN"
 "http://www.w3.org/Graphics/SVG/1.1/DTD/svg11.dtd">
<!-- Generated by graphviz version 2.43.0 (0)
 -->
<!-- Title: Metal.h Pages: 1 -->
<!--zoomable 476 -->
<svg id="main" version="1.1" xmlns="http://www.w3.org/2000/svg" xmlns:xlink="http://www.w3.org/1999/xlink" xml:space="preserve" onload="init(evt)">
<style type="text/css"><![CDATA[
.edge:hover path { stroke: red; }
.edge:hover polygon { stroke: red; fill: red; }
]]></style>
<script type="text/javascript"><![CDATA[
var edges = document.getElementsByTagName('g');
if (edges && edges.length) {
  for (var i=0;i<edges.length;i++) {
    if (edges[i].id.substr(0,4)=='edge') {
      edges[i].setAttribute('class','edge');
    }
  }
}
]]></script>
        <defs>
                <circle id="rim" cx="0" cy="0" r="7"/>
                <circle id="rim2" cx="0" cy="0" r="3.5"/>
                <g id="zoomPlus">
                        <use xlink:href="#rim" fill="#404040">
                                <set attributeName="fill" to="#808080" begin="zoomplus.mouseover" end="zoomplus.mouseout"/>
                        </use>
                        <path d="M-4,0h8M0,-4v8" fill="none" stroke="white" stroke-width="1.5" pointer-events="none"/>
                </g>
                <g id="zoomMin">
                        <use xlink:href="#rim" fill="#404040">
                                <set attributeName="fill" to="#808080" begin="zoomminus.mouseover" end="zoomminus.mouseout"/>
                        </use>
                        <path d="M-4,0h8" fill="none" stroke="white" stroke-width="1.5" pointer-events="none"/>
                </g>
                <g id="dirArrow">
                        <path fill="none" stroke="white" stroke-width="1.5" d="M0,-3.0v7 M-2.5,-0.5L0,-3.0L2.5,-0.5"/>
                </g>
               <g id="resetDef">
                       <use xlink:href="#rim2" fill="#404040">
                               <set attributeName="fill" to="#808080" begin="reset.mouseover" end="reset.mouseout"/>
                       </use>
               </g>
        </defs>

<script type="text/javascript">
var viewWidth = 1490;
var viewHeight = 476;
var sectionId = 'dynsection-0';
</script>
<script xlink:href="../../svgpan.js"/>
<svg id="graph" class="graph">
<g id="viewport">
<title>Metal.h</title>
<polygon fill="white" stroke="transparent" points="-4,4 -4,-472 1485.5,-472 1485.5,4 -4,4"/>
<!-- Node1 -->
<g id="node1" class="node">
<title>Node1</title>
<g id="a_node1"><a xlink:title=" ">
<polygon fill="#bfbfbf" stroke="black" points="587.5,-448.5 587.5,-467.5 640.5,-467.5 640.5,-448.5 587.5,-448.5"/>
<text text-anchor="middle" x="614" y="-455.5" font-family="Helvetica,sans-Serif" font-size="10.00">Metal.h</text>
</a>
</g>
</g>
<!-- Node2 -->
<g id="node2" class="node">
<title>Node2</title>
<g id="a_node2"><a xlink:href="../../db/df0/MetalPhase_8h.html" target="_top" xlink:title=" ">
<polygon fill="white" stroke="black" points="639.5,-336.5 639.5,-355.5 760.5,-355.5 760.5,-336.5 639.5,-336.5"/>
<text text-anchor="middle" x="700" y="-343.5" font-family="Helvetica,sans-Serif" font-size="10.00">thermo/MetalPhase.h</text>
</a>
</g>
</g>
<!-- Node1&#45;&gt;Node2 -->
<g id="edge1" class="edge">
<title>Node1&#45;&gt;Node2</title>
<path fill="none" stroke="midnightblue" d="M620.75,-448.37C635,-430.14 668.39,-387.43 686.96,-363.68"/>
<polygon fill="midnightblue" stroke="midnightblue" points="689.88,-365.63 693.28,-355.59 684.37,-361.31 689.88,-365.63"/>
</g>
<!-- Node37 -->
<g id="node17" class="node">
<title>Node37</title>
<g id="a_node17"><a xlink:href="../../d9/d1b/importKinetics_8h.html" target="_top" xlink:title="Definitions of global routines for the importing of data from XML files (see Input File Handling).">
<polygon fill="white" stroke="black" points="497,-392.5 497,-411.5 635,-411.5 635,-392.5 497,-392.5"/>
<text text-anchor="middle" x="566" y="-399.5" font-family="Helvetica,sans-Serif" font-size="10.00">kinetics/importKinetics.h</text>
</a>
</g>
</g>
<!-- Node1&#45;&gt;Node37 -->
<g id="edge29" class="edge">
<title>Node1&#45;&gt;Node37</title>
<path fill="none" stroke="midnightblue" d="M606.07,-448.08C599.15,-440.3 588.93,-428.8 580.55,-419.37"/>
<polygon fill="midnightblue" stroke="midnightblue" points="583.04,-416.9 573.78,-411.75 577.81,-421.55 583.04,-416.9"/>
</g>
<!-- Node3 -->
<g id="node3" class="node">
<title>Node3</title>
<g id="a_node3"><a xlink:href="../../d7/d01/ThermoPhase_8h.html" target="_top" xlink:title="Header file for class ThermoPhase, the base class for phases with thermodynamic properties,...">
<polygon fill="white" stroke="black" points="654,-280.5 654,-299.5 746,-299.5 746,-280.5 654,-280.5"/>
<text text-anchor="middle" x="700" y="-287.5" font-family="Helvetica,sans-Serif" font-size="10.00">ThermoPhase.h</text>
</a>
</g>
</g>
<!-- Node2&#45;&gt;Node3 -->
<g id="edge2" class="edge">
<title>Node2&#45;&gt;Node3</title>
<path fill="none" stroke="midnightblue" d="M700,-336.08C700,-329.01 700,-318.86 700,-309.99"/>
<polygon fill="midnightblue" stroke="midnightblue" points="703.5,-309.75 700,-299.75 696.5,-309.75 703.5,-309.75"/>
</g>
<!-- Node35 -->
<g id="node15" class="node">
<title>Node35</title>
<g id="a_node15"><a xlink:href="../../dc/deb/ctml_8h.html" target="_top" xlink:title="CTML (&quot;Cantera Markup Language&quot;) is the variant of XML that Cantera uses to store data.">
<polygon fill="white" stroke="black" points="1368.5,-168.5 1368.5,-187.5 1481.5,-187.5 1481.5,-168.5 1368.5,-168.5"/>
<text text-anchor="middle" x="1425" y="-175.5" font-family="Helvetica,sans-Serif" font-size="10.00">cantera/base/ctml.h</text>
</a>
</g>
</g>
<!-- Node2&#45;&gt;Node35 -->
<g id="edge24" class="edge">
<title>Node2&#45;&gt;Node35</title>
<path fill="none" stroke="midnightblue" d="M741.65,-336.48C823.4,-319.66 1010.51,-280.62 1167,-244 1243.32,-226.14 1331.82,-203.4 1382.82,-190.09"/>
<polygon fill="midnightblue" stroke="midnightblue" points="1383.71,-193.48 1392.5,-187.56 1381.94,-186.7 1383.71,-193.48"/>
</g>
<!-- Node4 -->
<g id="node4" class="node">
<title>Node4</title>
<g id="a_node4"><a xlink:href="../../da/d84/Phase_8h.html" target="_top" xlink:title="Header file for class Phase.">
<polygon fill="white" stroke="black" points="1103.5,-224.5 1103.5,-243.5 1158.5,-243.5 1158.5,-224.5 1103.5,-224.5"/>
<text text-anchor="middle" x="1131" y="-231.5" font-family="Helvetica,sans-Serif" font-size="10.00">Phase.h</text>
</a>
</g>
</g>
<!-- Node3&#45;&gt;Node4 -->
<g id="edge3" class="edge">
<title>Node3&#45;&gt;Node4</title>
<path fill="none" stroke="midnightblue" d="M746.12,-283.22C831.96,-272.47 1014.64,-249.58 1093.48,-239.7"/>
<polygon fill="midnightblue" stroke="midnightblue" points="1093.97,-243.17 1103.46,-238.45 1093.1,-236.22 1093.97,-243.17"/>
</g>
<!-- Node23 -->
<g id="node11" class="node">
<title>Node23</title>
<g id="a_node11"><a xlink:href="../../d2/d49/global_8h.html" target="_top" xlink:title="This file contains definitions for utility functions and text for modules, inputfiles,...">
<polygon fill="white" stroke="red" points="605,-56.5 605,-75.5 727,-75.5 727,-56.5 605,-56.5"/>
<text text-anchor="middle" x="666" y="-63.5" font-family="Helvetica,sans-Serif" font-size="10.00">cantera/base/global.h</text>
</a>
</g>
</g>
<!-- Node3&#45;&gt;Node23 -->
<g id="edge23" class="edge">
<title>Node3&#45;&gt;Node23</title>
<path fill="none" stroke="midnightblue" d="M688.59,-280.44C678.74,-272.29 665.15,-259.07 659,-244 636.88,-189.76 651.55,-118.25 660.51,-85.19"/>
<polygon fill="midnightblue" stroke="midnightblue" points="663.89,-86.12 663.27,-75.54 657.16,-84.19 663.89,-86.12"/>
</g>
<!-- Node32 -->
<g id="node13" class="node">
<title>Node32</title>
<g id="a_node13"><a xlink:href="../../d6/d7a/MultiSpeciesThermo_8h.html" target="_top" xlink:title="Header for a general species thermodynamic property manager for a phase (see MultiSpeciesThermo).">
<polygon fill="white" stroke="black" points="668.5,-224.5 668.5,-243.5 793.5,-243.5 793.5,-224.5 668.5,-224.5"/>
<text text-anchor="middle" x="731" y="-231.5" font-family="Helvetica,sans-Serif" font-size="10.00">MultiSpeciesThermo.h</text>
</a>
</g>
</g>
<!-- Node3&#45;&gt;Node32 -->
<g id="edge18" class="edge">
<title>Node3&#45;&gt;Node32</title>
<path fill="none" stroke="midnightblue" d="M705.12,-280.08C709.41,-272.61 715.66,-261.72 720.94,-252.52"/>
<polygon fill="midnightblue" stroke="midnightblue" points="724.03,-254.17 725.98,-243.75 717.96,-250.68 724.03,-254.17"/>
</g>
<!-- Node5 -->
<g id="node5" class="node">
<title>Node5</title>
<g id="a_node5"><a xlink:href="../../db/d98/ctexceptions_8h.html" target="_top" xlink:title="Definitions for the classes that are thrown when Cantera experiences an error condition (also contain...">
<polygon fill="white" stroke="red" points="845,-56.5 845,-75.5 999,-75.5 999,-56.5 845,-56.5"/>
<text text-anchor="middle" x="922" y="-63.5" font-family="Helvetica,sans-Serif" font-size="10.00">cantera/base/ctexceptions.h</text>
</a>
</g>
</g>
<!-- Node4&#45;&gt;Node5 -->
<g id="edge4" class="edge">
<title>Node4&#45;&gt;Node5</title>
<path fill="none" stroke="midnightblue" d="M1103.46,-229.11C1062.73,-222.73 989.57,-208.66 974,-188 953.67,-161.03 988.04,-142.72 974,-112 968.22,-99.36 956.95,-88.91 946.37,-81.27"/>
<polygon fill="midnightblue" stroke="midnightblue" points="948.04,-78.18 937.78,-75.53 944.15,-84 948.04,-78.18"/>
</g>
<!-- Node19 -->
<g id="node6" class="node">
<title>Node19</title>
<g id="a_node6"><a xlink:href="../../d4/dfa/Solution_8h.html" target="_top" xlink:title=" ">
<polygon fill="white" stroke="black" points="1142.5,-168.5 1142.5,-187.5 1273.5,-187.5 1273.5,-168.5 1142.5,-168.5"/>
<text text-anchor="middle" x="1208" y="-175.5" font-family="Helvetica,sans-Serif" font-size="10.00">cantera/base/Solution.h</text>
</a>
</g>
</g>
<!-- Node4&#45;&gt;Node19 -->
<g id="edge5" class="edge">
<title>Node4&#45;&gt;Node19</title>
<path fill="none" stroke="midnightblue" d="M1143.37,-224.32C1155.16,-216.06 1173.13,-203.45 1187.14,-193.63"/>
<polygon fill="midnightblue" stroke="midnightblue" points="1189.48,-196.26 1195.66,-187.65 1185.46,-190.53 1189.48,-196.26"/>
</g>
<!-- Node20 -->
<g id="node7" class="node">
<title>Node20</title>
<g id="a_node7"><a xlink:href="../../d9/dda/Elements_8h.html" target="_top" xlink:title="Contains the getElementWeight function and the definitions of element constraint types.">
<polygon fill="white" stroke="black" points="1265.5,-56.5 1265.5,-75.5 1414.5,-75.5 1414.5,-56.5 1265.5,-56.5"/>
<text text-anchor="middle" x="1340" y="-63.5" font-family="Helvetica,sans-Serif" font-size="10.00">cantera/thermo/Elements.h</text>
</a>
</g>
</g>
<!-- Node4&#45;&gt;Node20 -->
<g id="edge7" class="edge">
<title>Node4&#45;&gt;Node20</title>
<path fill="none" stroke="midnightblue" d="M1158.8,-233.3C1195.82,-232.18 1261.11,-224.65 1300,-188 1328.75,-160.9 1336.85,-112.73 1339.13,-86.07"/>
<polygon fill="midnightblue" stroke="midnightblue" points="1342.64,-86 1339.8,-75.79 1335.65,-85.54 1342.64,-86"/>
</g>
<!-- Node21 -->
<g id="node9" class="node">
<title>Node21</title>
<g id="a_node9"><a xlink:href="../../d7/dd9/Species_8h.html" target="_top" xlink:title="Declaration for class Cantera::Species.">
<polygon fill="white" stroke="black" points="983.5,-168.5 983.5,-187.5 1124.5,-187.5 1124.5,-168.5 983.5,-168.5"/>
<text text-anchor="middle" x="1054" y="-175.5" font-family="Helvetica,sans-Serif" font-size="10.00">cantera/thermo/Species.h</text>
</a>
</g>
</g>
<!-- Node4&#45;&gt;Node21 -->
<g id="edge9" class="edge">
<title>Node4&#45;&gt;Node21</title>
<path fill="none" stroke="midnightblue" d="M1118.63,-224.32C1106.84,-216.06 1088.87,-203.45 1074.86,-193.63"/>
<polygon fill="midnightblue" stroke="midnightblue" points="1076.54,-190.53 1066.34,-187.65 1072.52,-196.26 1076.54,-190.53"/>
</g>
<!-- Node30 -->
<g id="node12" class="node">
<title>Node30</title>
<g id="a_node12"><a xlink:href="../../d6/df6/ValueCache_8h.html" target="_top" xlink:title=" ">
<polygon fill="white" stroke="red" points="1098.5,-56.5 1098.5,-75.5 1247.5,-75.5 1247.5,-56.5 1098.5,-56.5"/>
<text text-anchor="middle" x="1173" y="-63.5" font-family="Helvetica,sans-Serif" font-size="10.00">cantera/base/ValueCache.h</text>
</a>
</g>
</g>
<!-- Node4&#45;&gt;Node30 -->
<g id="edge16" class="edge">
<title>Node4&#45;&gt;Node30</title>
<path fill="none" stroke="midnightblue" d="M1158.67,-233.92C1194.08,-233.41 1254.26,-226.48 1283,-188 1314.43,-145.92 1242.98,-101.46 1200.94,-80.05"/>
<polygon fill="midnightblue" stroke="midnightblue" points="1202.47,-76.9 1191.96,-75.59 1199.36,-83.17 1202.47,-76.9"/>
</g>
<!-- Node19&#45;&gt;Node5 -->
<g id="edge6" class="edge">
<title>Node19&#45;&gt;Node5</title>
<path fill="none" stroke="midnightblue" d="M1192.42,-168.31C1167.97,-154.92 1118.84,-129.02 1075,-112 1039.52,-98.23 998.03,-86.27 967.21,-78.15"/>
<polygon fill="midnightblue" stroke="midnightblue" points="967.75,-74.67 957.19,-75.55 965.99,-81.45 967.75,-74.67"/>
</g>
<!-- Node7 -->
<g id="node8" class="node">
<title>Node7</title>
<g id="a_node8"><a xlink:href="../../d9/ddc/ct__defs_8h.html" target="_top" xlink:title="This file contains definitions of terms that are used in internal routines and are unlikely to need m...">
<polygon fill="white" stroke="red" points="786.5,-0.5 786.5,-19.5 847.5,-19.5 847.5,-0.5 786.5,-0.5"/>
<text text-anchor="middle" x="817" y="-7.5" font-family="Helvetica,sans-Serif" font-size="10.00">ct_defs.h</text>
</a>
</g>
</g>
<!-- Node20&#45;&gt;Node7 -->
<g id="edge8" class="edge">
<title>Node20&#45;&gt;Node7</title>
<path fill="none" stroke="midnightblue" d="M1265.35,-56.98C1262.19,-56.65 1259.06,-56.32 1256,-56 1109.54,-40.65 935.53,-22.98 857.91,-15.13"/>
<polygon fill="midnightblue" stroke="midnightblue" points="857.91,-11.61 847.61,-14.09 857.21,-18.58 857.91,-11.61"/>
</g>
<!-- Node21&#45;&gt;Node7 -->
<g id="edge10" class="edge">
<title>Node21&#45;&gt;Node7</title>
<path fill="none" stroke="midnightblue" d="M1060.84,-168.33C1069.99,-155.62 1084.04,-131.34 1075,-112 1058.56,-76.84 1042.71,-73.36 1008,-56 959.61,-31.8 897.76,-20.31 857.76,-15.07"/>
<polygon fill="midnightblue" stroke="midnightblue" points="857.95,-11.56 847.59,-13.81 857.09,-18.51 857.95,-11.56"/>
</g>
<!-- Node22 -->
<g id="node10" class="node">
<title>Node22</title>
<g id="a_node10"><a xlink:href="../../dd/d2a/AnyMap_8h.html" target="_top" xlink:title=" ">
<polygon fill="white" stroke="red" points="834.5,-112.5 834.5,-131.5 965.5,-131.5 965.5,-112.5 834.5,-112.5"/>
<text text-anchor="middle" x="900" y="-119.5" font-family="Helvetica,sans-Serif" font-size="10.00">cantera/base/AnyMap.h</text>
</a>
</g>
</g>
<!-- Node21&#45;&gt;Node22 -->
<g id="edge11" class="edge">
<title>Node21&#45;&gt;Node22</title>
<path fill="none" stroke="midnightblue" d="M1029.6,-168.44C1003.8,-159.4 962.92,-145.06 933.98,-134.92"/>
<polygon fill="midnightblue" stroke="midnightblue" points="934.88,-131.52 924.29,-131.52 932.57,-138.13 934.88,-131.52"/>
</g>
<!-- Node22&#45;&gt;Node5 -->
<g id="edge15" class="edge">
<title>Node22&#45;&gt;Node5</title>
<path fill="none" stroke="midnightblue" d="M903.63,-112.08C906.61,-104.77 910.93,-94.18 914.62,-85.1"/>
<polygon fill="midnightblue" stroke="midnightblue" points="917.9,-86.33 918.43,-75.75 911.42,-83.69 917.9,-86.33"/>
</g>
<!-- Node22&#45;&gt;Node7 -->
<g id="edge12" class="edge">
<title>Node22&#45;&gt;Node7</title>
<path fill="none" stroke="midnightblue" d="M881.69,-112.46C867.26,-104.83 847.7,-92.35 836,-76 826.27,-62.41 821.49,-43.86 819.16,-30.06"/>
<polygon fill="midnightblue" stroke="midnightblue" points="822.57,-29.21 817.72,-19.79 815.64,-30.18 822.57,-29.21"/>
</g>
<!-- Node22&#45;&gt;Node23 -->
<g id="edge13" class="edge">
<title>Node22&#45;&gt;Node23</title>
<path fill="none" stroke="midnightblue" d="M862.92,-112.44C822.27,-103.06 756.97,-87.99 712.82,-77.8"/>
<polygon fill="midnightblue" stroke="midnightblue" points="713.44,-74.35 702.9,-75.52 711.86,-81.18 713.44,-74.35"/>
</g>
<!-- Node23&#45;&gt;Node7 -->
<g id="edge14" class="edge">
<title>Node23&#45;&gt;Node7</title>
<path fill="none" stroke="midnightblue" d="M689.93,-56.44C715.22,-47.4 755.3,-33.06 783.68,-22.92"/>
<polygon fill="midnightblue" stroke="midnightblue" points="784.95,-26.18 793.19,-19.52 782.59,-19.59 784.95,-26.18"/>
</g>
<!-- Node30&#45;&gt;Node7 -->
<g id="edge17" class="edge">
<title>Node30&#45;&gt;Node7</title>
<path fill="none" stroke="midnightblue" d="M1116.59,-56.44C1044.53,-45.51 921.55,-26.86 857.88,-17.2"/>
<polygon fill="midnightblue" stroke="midnightblue" points="858.23,-13.71 847.82,-15.67 857.18,-20.64 858.23,-13.71"/>
</g>
<!-- Node33 -->
<g id="node14" class="node">
<title>Node33</title>
<g id="a_node14"><a xlink:href="../../d4/d87/SpeciesThermoInterpType_8h.html" target="_top" xlink:title="Pure Virtual Base class for individual species reference state thermodynamic managers and text for th...">
<polygon fill="white" stroke="red" points="664,-112.5 664,-131.5 816,-131.5 816,-112.5 664,-112.5"/>
<text text-anchor="middle" x="740" y="-119.5" font-family="Helvetica,sans-Serif" font-size="10.00">SpeciesThermoInterpType.h</text>
</a>
</g>
</g>
<!-- Node32&#45;&gt;Node33 -->
<g id="edge19" class="edge">
<title>Node32&#45;&gt;Node33</title>
<path fill="none" stroke="midnightblue" d="M731.71,-224.37C733.16,-206.62 736.51,-165.67 738.48,-141.6"/>
<polygon fill="midnightblue" stroke="midnightblue" points="741.97,-141.84 739.3,-131.59 734.99,-141.27 741.97,-141.84"/>
</g>
<!-- Node33&#45;&gt;Node5 -->
<g id="edge21" class="edge">
<title>Node33&#45;&gt;Node5</title>
<path fill="none" stroke="midnightblue" d="M768.84,-112.44C799.86,-103.24 849.33,-88.56 883.62,-78.39"/>
<polygon fill="midnightblue" stroke="midnightblue" points="884.71,-81.72 893.3,-75.52 882.71,-75.01 884.71,-81.72"/>
</g>
<!-- Node33&#45;&gt;Node7 -->
<g id="edge20" class="edge">
<title>Node33&#45;&gt;Node7</title>
<path fill="none" stroke="midnightblue" d="M746.04,-112.37C758.75,-94.22 788.44,-51.8 805.11,-27.99"/>
<polygon fill="midnightblue" stroke="midnightblue" points="808.12,-29.79 810.99,-19.59 802.38,-25.78 808.12,-29.79"/>
</g>
<!-- Node33&#45;&gt;Node23 -->
<g id="edge22" class="edge">
<title>Node33&#45;&gt;Node23</title>
<path fill="none" stroke="midnightblue" d="M728.11,-112.32C716.85,-104.11 699.71,-91.6 686.29,-81.81"/>
<polygon fill="midnightblue" stroke="midnightblue" points="688.25,-78.9 678.11,-75.83 684.12,-84.56 688.25,-78.9"/>
</g>
<!-- Node35&#45;&gt;Node7 -->
<g id="edge25" class="edge">
<title>Node35&#45;&gt;Node7</title>
<path fill="none" stroke="midnightblue" d="M1428.4,-168.25C1436.37,-146.12 1453.43,-87.44 1424,-56 1385.41,-14.78 988.12,-11.02 858.01,-10.9"/>
<polygon fill="midnightblue" stroke="midnightblue" points="857.68,-7.4 847.68,-10.9 857.68,-14.4 857.68,-7.4"/>
</g>
<!-- Node36 -->
<g id="node16" class="node">
<title>Node36</title>
<g id="a_node16"><a xlink:href="../../d0/d62/xml_8h.html" target="_top" xlink:title="Classes providing support for XML data files.">
<polygon fill="white" stroke="black" points="1022,-112.5 1022,-131.5 1066,-131.5 1066,-112.5 1022,-112.5"/>
<text text-anchor="middle" x="1044" y="-119.5" font-family="Helvetica,sans-Serif" font-size="10.00">xml.h</text>
</a>
</g>
</g>
<!-- Node35&#45;&gt;Node36 -->
<g id="edge26" class="edge">
<title>Node35&#45;&gt;Node36</title>
<path fill="none" stroke="midnightblue" d="M1368.37,-168.97C1287.27,-157.48 1140.72,-136.71 1076.1,-127.55"/>
<polygon fill="midnightblue" stroke="midnightblue" points="1076.48,-124.07 1066.09,-126.13 1075.5,-131 1076.48,-124.07"/>
</g>
<!-- Node36&#45;&gt;Node5 -->
<g id="edge27" class="edge">
<title>Node36&#45;&gt;Node5</title>
<path fill="none" stroke="midnightblue" d="M1024.67,-112.44C1004.68,-103.6 973.26,-89.69 950.44,-79.59"/>
<polygon fill="midnightblue" stroke="midnightblue" points="951.8,-76.36 941.24,-75.52 948.97,-82.76 951.8,-76.36"/>
</g>
<!-- Node36&#45;&gt;Node23 -->
<g id="edge28" class="edge">
<title>Node36&#45;&gt;Node23</title>
<path fill="none" stroke="midnightblue" d="M1021.77,-117.82C966.81,-109.97 822.75,-89.39 735.73,-76.96"/>
<polygon fill="midnightblue" stroke="midnightblue" points="736.07,-73.47 725.67,-75.52 735.08,-80.4 736.07,-73.47"/>
</g>
<!-- Node38 -->
<g id="node18" class="node">
<title>Node38</title>
<g id="a_node18"><a xlink:href="../../d5/db4/Kinetics_8h.html" target="_top" xlink:title="Base class for kinetics managers and also contains the kineticsmgr module documentation (see Kinetics...">
<polygon fill="white" stroke="black" points="526.5,-336.5 526.5,-355.5 591.5,-355.5 591.5,-336.5 526.5,-336.5"/>
<text text-anchor="middle" x="559" y="-343.5" font-family="Helvetica,sans-Serif" font-size="10.00">Kinetics.h</text>
</a>
</g>
</g>
<!-- Node37&#45;&gt;Node38 -->
<g id="edge30" class="edge">
<title>Node37&#45;&gt;Node38</title>
<path fill="none" stroke="midnightblue" d="M564.84,-392.08C563.92,-384.93 562.58,-374.64 561.42,-365.69"/>
<polygon fill="midnightblue" stroke="midnightblue" points="564.89,-365.22 560.13,-355.75 557.95,-366.12 564.89,-365.22"/>
</g>
<!-- Node38&#45;&gt;Node3 -->
<g id="edge31" class="edge">
<title>Node38&#45;&gt;Node3</title>
<path fill="none" stroke="midnightblue" d="M581.34,-336.44C604.75,-327.48 641.74,-313.31 668.19,-303.18"/>
<polygon fill="midnightblue" stroke="midnightblue" points="669.68,-306.36 677.76,-299.52 667.17,-299.82 669.68,-306.36"/>
</g>
<!-- Node38&#45;&gt;Node23 -->
<g id="edge47" class="edge">
<title>Node38&#45;&gt;Node23</title>
<path fill="none" stroke="midnightblue" d="M526.36,-343.11C430.42,-336.69 156,-311.6 156,-235 156,-235 156,-235 156,-177 156,-146.9 151.71,-131.06 175,-112 209.56,-83.72 517.03,-81.19 594.84,-75.85"/>
<polygon fill="midnightblue" stroke="midnightblue" points="595.26,-79.33 604.93,-75.01 594.68,-72.36 595.26,-79.33"/>
</g>
<!-- Node39 -->
<g id="node19" class="node">
<title>Node39</title>
<g id="a_node19"><a xlink:href="../../dd/dfd/StoichManager_8h.html" target="_top" xlink:title=" ">
<polygon fill="white" stroke="black" points="510,-112.5 510,-131.5 608,-131.5 608,-112.5 510,-112.5"/>
<text text-anchor="middle" x="559" y="-119.5" font-family="Helvetica,sans-Serif" font-size="10.00">StoichManager.h</text>
</a>
</g>
</g>
<!-- Node38&#45;&gt;Node39 -->
<g id="edge32" class="edge">
<title>Node38&#45;&gt;Node39</title>
<path fill="none" stroke="midnightblue" d="M559,-336.3C559,-303.63 559,-187.87 559,-141.96"/>
<polygon fill="midnightblue" stroke="midnightblue" points="562.5,-141.88 559,-131.88 555.5,-141.88 562.5,-141.88"/>
</g>
<!-- Node41 -->
<g id="node21" class="node">
<title>Node41</title>
<g id="a_node21"><a xlink:href="../../d8/d5d/Reaction_8h.html" target="_top" xlink:title=" ">
<polygon fill="white" stroke="black" points="340.5,-168.5 340.5,-187.5 489.5,-187.5 489.5,-168.5 340.5,-168.5"/>
<text text-anchor="middle" x="415" y="-175.5" font-family="Helvetica,sans-Serif" font-size="10.00">cantera/kinetics/Reaction.h</text>
</a>
</g>
</g>
<!-- Node38&#45;&gt;Node41 -->
<g id="edge36" class="edge">
<title>Node38&#45;&gt;Node41</title>
<path fill="none" stroke="midnightblue" d="M551.26,-336.08C528.1,-309.38 459.12,-229.87 429.16,-195.32"/>
<polygon fill="midnightblue" stroke="midnightblue" points="431.63,-192.83 422.43,-187.57 426.34,-197.42 431.63,-192.83"/>
</g>
<!-- Node39&#45;&gt;Node5 -->
<g id="edge35" class="edge">
<title>Node39&#45;&gt;Node5</title>
<path fill="none" stroke="midnightblue" d="M608.33,-113.66C671.98,-104.19 783,-87.68 854.45,-77.05"/>
<polygon fill="midnightblue" stroke="midnightblue" points="855.32,-80.46 864.7,-75.52 854.29,-73.53 855.32,-80.46"/>
</g>
<!-- Node40 -->
<g id="node20" class="node">
<title>Node40</title>
<g id="a_node20"><a xlink:href="../../dd/dc3/stringUtils_8h.html" target="_top" xlink:title="Contains declarations for string manipulation functions within Cantera.">
<polygon fill="white" stroke="red" points="445,-56.5 445,-75.5 587,-75.5 587,-56.5 445,-56.5"/>
<text text-anchor="middle" x="516" y="-63.5" font-family="Helvetica,sans-Serif" font-size="10.00">cantera/base/stringUtils.h</text>
</a>
</g>
</g>
<!-- Node39&#45;&gt;Node40 -->
<g id="edge33" class="edge">
<title>Node39&#45;&gt;Node40</title>
<path fill="none" stroke="midnightblue" d="M551.9,-112.08C545.76,-104.38 536.73,-93.03 529.26,-83.65"/>
<polygon fill="midnightblue" stroke="midnightblue" points="531.94,-81.39 522.97,-75.75 526.46,-85.75 531.94,-81.39"/>
</g>
<!-- Node40&#45;&gt;Node7 -->
<g id="edge34" class="edge">
<title>Node40&#45;&gt;Node7</title>
<path fill="none" stroke="midnightblue" d="M563.69,-56.44C622.41,-45.91 721.1,-28.2 776.37,-18.29"/>
<polygon fill="midnightblue" stroke="midnightblue" points="777.26,-21.68 786.49,-16.47 776.03,-14.79 777.26,-21.68"/>
</g>
<!-- Node41&#45;&gt;Node22 -->
<g id="edge40" class="edge">
<title>Node41&#45;&gt;Node22</title>
<path fill="none" stroke="midnightblue" d="M489.84,-169.02C569.89,-160.42 700.84,-146.22 824.15,-132.09"/>
<polygon fill="midnightblue" stroke="midnightblue" points="824.62,-135.56 834.15,-130.94 823.82,-128.6 824.62,-135.56"/>
</g>
<!-- Node42 -->
<g id="node22" class="node">
<title>Node42</title>
<g id="a_node22"><a xlink:href="../../de/df0/utilities_8h.html" target="_top" xlink:title="Various templated functions that carry out common vector operations (see Templated Utility Functions)...">
<polygon fill="white" stroke="red" points="0,-112.5 0,-131.5 128,-131.5 128,-112.5 0,-112.5"/>
<text text-anchor="middle" x="64" y="-119.5" font-family="Helvetica,sans-Serif" font-size="10.00">cantera/base/utilities.h</text>
</a>
</g>
</g>
<!-- Node41&#45;&gt;Node42 -->
<g id="edge37" class="edge">
<title>Node41&#45;&gt;Node42</title>
<path fill="none" stroke="midnightblue" d="M359.38,-168.44C296.87,-158.83 195.48,-143.23 129.27,-133.04"/>
<polygon fill="midnightblue" stroke="midnightblue" points="129.77,-129.58 119.36,-131.52 128.71,-136.5 129.77,-129.58"/>
</g>
<!-- Node45 -->
<g id="node23" class="node">
<title>Node45</title>
<g id="a_node23"><a xlink:href="../../da/d70/RxnRates_8h.html" target="_top" xlink:title=" ">
<polygon fill="white" stroke="red" points="338.5,-112.5 338.5,-131.5 491.5,-131.5 491.5,-112.5 338.5,-112.5"/>
<text text-anchor="middle" x="415" y="-119.5" font-family="Helvetica,sans-Serif" font-size="10.00">cantera/kinetics/RxnRates.h</text>
</a>
</g>
</g>
<!-- Node41&#45;&gt;Node45 -->
<g id="edge41" class="edge">
<title>Node41&#45;&gt;Node45</title>
<path fill="none" stroke="midnightblue" d="M415,-168.08C415,-161.01 415,-150.86 415,-141.99"/>
<polygon fill="midnightblue" stroke="midnightblue" points="418.5,-141.75 415,-131.75 411.5,-141.75 418.5,-141.75"/>
</g>
<!-- Node48 -->
<g id="node24" class="node">
<title>Node48</title>
<g id="a_node24"><a xlink:href="../../de/d72/Falloff_8h_source.html" target="_top" xlink:title=" ">
<polygon fill="white" stroke="red" points="184,-112.5 184,-131.5 320,-131.5 320,-112.5 184,-112.5"/>
<text text-anchor="middle" x="252" y="-119.5" font-family="Helvetica,sans-Serif" font-size="10.00">cantera/kinetics/Falloff.h</text>
</a>
</g>
</g>
<!-- Node41&#45;&gt;Node48 -->
<g id="edge45" class="edge">
<title>Node41&#45;&gt;Node48</title>
<path fill="none" stroke="midnightblue" d="M389.17,-168.44C361.75,-159.36 318.22,-144.94 287.57,-134.78"/>
<polygon fill="midnightblue" stroke="midnightblue" points="288.3,-131.34 277.71,-131.52 286.1,-137.98 288.3,-131.34"/>
</g>
<!-- Node42&#45;&gt;Node7 -->
<g id="edge38" class="edge">
<title>Node42&#45;&gt;Node7</title>
<path fill="none" stroke="midnightblue" d="M108.25,-112.45C177.82,-99.19 317.12,-73.39 436,-56 559.49,-37.93 706.33,-22.21 776.17,-15.07"/>
<polygon fill="midnightblue" stroke="midnightblue" points="776.71,-18.54 786.3,-14.04 776,-11.57 776.71,-18.54"/>
</g>
<!-- Node42&#45;&gt;Node23 -->
<g id="edge39" class="edge">
<title>Node42&#45;&gt;Node23</title>
<path fill="none" stroke="midnightblue" d="M128.25,-113.4C132.9,-112.91 137.52,-112.44 142,-112 340.21,-92.71 392.98,-96.77 594.9,-76.07"/>
<polygon fill="midnightblue" stroke="midnightblue" points="595.35,-79.54 604.94,-75.03 594.63,-72.58 595.35,-79.54"/>
</g>
<!-- Node45&#45;&gt;Node5 -->
<g id="edge42" class="edge">
<title>Node45&#45;&gt;Node5</title>
<path fill="none" stroke="midnightblue" d="M491.73,-112.83C583.83,-103.02 737.94,-86.6 834.56,-76.31"/>
<polygon fill="midnightblue" stroke="midnightblue" points="835.03,-79.78 844.6,-75.24 834.28,-72.82 835.03,-79.78"/>
</g>
<!-- Node45&#45;&gt;Node23 -->
<g id="edge44" class="edge">
<title>Node45&#45;&gt;Node23</title>
<path fill="none" stroke="midnightblue" d="M454.77,-112.44C498.56,-103.02 569.01,-87.87 616.38,-77.68"/>
<polygon fill="midnightblue" stroke="midnightblue" points="617.37,-81.04 626.41,-75.52 615.9,-74.2 617.37,-81.04"/>
</g>
<!-- Node45&#45;&gt;Node40 -->
<g id="edge43" class="edge">
<title>Node45&#45;&gt;Node40</title>
<path fill="none" stroke="midnightblue" d="M431.23,-112.32C447.35,-103.7 472.3,-90.36 490.96,-80.39"/>
<polygon fill="midnightblue" stroke="midnightblue" points="492.64,-83.46 499.81,-75.65 489.34,-77.28 492.64,-83.46"/>
</g>
<!-- Node48&#45;&gt;Node23 -->
<g id="edge46" class="edge">
<title>Node48&#45;&gt;Node23</title>
<path fill="none" stroke="midnightblue" d="M317.6,-112.44C393.1,-102.6 516.67,-86.48 594.55,-76.32"/>
<polygon fill="midnightblue" stroke="midnightblue" points="595.29,-79.75 604.76,-74.99 594.39,-72.81 595.29,-79.75"/>
</g>
</g>
</svg>
        <g id="navigator" transform="translate(0 0)" fill="#404254">
                <rect fill="#f2f5e9" fill-opacity="0.5" stroke="#606060" stroke-width=".5" x="0" y="0" width="60" height="60"/>
                <use id="zoomplus" xlink:href="#zoomPlus" x="17" y="9" onmousedown="handleZoom(evt,'in')"/>
                <use id="zoomminus" xlink:href="#zoomMin" x="42" y="9" onmousedown="handleZoom(evt,'out')"/>
                <use id="reset" xlink:href="#resetDef" x="30" y="36" onmousedown="handleReset()"/>
                <g id="arrowUp" xlink:href="#dirArrow" transform="translate(30 24)" onmousedown="handlePan(0,-1)">
                  <use xlink:href="#rim" fill="#404040">
                        <set attributeName="fill" to="#808080" begin="arrowUp.mouseover" end="arrowUp.mouseout"/>
                  </use>
                  <path fill="none" stroke="white" stroke-width="1.5" d="M0,-3.0v7 M-2.5,-0.5L0,-3.0L2.5,-0.5"/>
                </g>
                <g id="arrowRight" xlink:href="#dirArrow" transform="rotate(90) translate(36 -43)" onmousedown="handlePan(1,0)">
                  <use xlink:href="#rim" fill="#404040">
                        <set attributeName="fill" to="#808080" begin="arrowRight.mouseover" end="arrowRight.mouseout"/>
                  </use>
                  <path fill="none" stroke="white" stroke-width="1.5" d="M0,-3.0v7 M-2.5,-0.5L0,-3.0L2.5,-0.5"/>
                </g>
                <g id="arrowDown" xlink:href="#dirArrow" transform="rotate(180) translate(-30 -48)" onmousedown="handlePan(0,1)">
                  <use xlink:href="#rim" fill="#404040">
                        <set attributeName="fill" to="#808080" begin="arrowDown.mouseover" end="arrowDown.mouseout"/>
                  </use>
                  <path fill="none" stroke="white" stroke-width="1.5" d="M0,-3.0v7 M-2.5,-0.5L0,-3.0L2.5,-0.5"/>
                </g>
                <g id="arrowLeft" xlink:href="#dirArrow" transform="rotate(270) translate(-36 17)" onmousedown="handlePan(-1,0)">
                  <use xlink:href="#rim" fill="#404040">
                        <set attributeName="fill" to="#808080" begin="arrowLeft.mouseover" end="arrowLeft.mouseout"/>
                  </use>
                  <path fill="none" stroke="white" stroke-width="1.5" d="M0,-3.0v7 M-2.5,-0.5L0,-3.0L2.5,-0.5"/>
                </g>
        </g>
        <svg viewBox="0 0 15 15" width="100%" height="30px" preserveAspectRatio="xMaxYMin meet">
         <g id="arrow_out" transform="scale(0.3 0.3)">
          <a xlink:href="Metal_8h__incl_org.svg" target="_base">
           <rect id="button" ry="5" rx="5" y="6" x="6" height="38" width="38"
                fill="#f2f5e9" fill-opacity="0.5" stroke="#606060" stroke-width="1.0"/>
           <path id="arrow"
             d="M 11.500037,31.436501 C 11.940474,20.09759 22.043105,11.32322 32.158766,21.979434 L 37.068811,17.246167 C 37.068811,17.246167 37.088388,32 37.088388,32 L 22.160133,31.978069 C 22.160133,31.978069 26.997745,27.140456 26.997745,27.140456 C 18.528582,18.264221 13.291696,25.230495 11.500037,31.436501 z"
             style="fill:#404040;"/>
          </a>
         </g>
        </svg>
</svg>
