<?xml version="1.0" encoding="UTF-8" standalone="no"?>
<!DOCTYPE svg PUBLIC "-//W3C//DTD SVG 1.1//EN"
 "http://www.w3.org/Graphics/SVG/1.1/DTD/svg11.dtd">
<!-- Generated by graphviz version 2.40.1 (20161225.0304)
 -->
<!-- Title: PDSS_IdealGas.h Pages: 1 -->
<svg width="230pt" height="84pt"
 viewBox="0.00 0.00 230.00 84.00" xmlns="http://www.w3.org/2000/svg" xmlns:xlink="http://www.w3.org/1999/xlink">
<g id="graph0" class="graph" transform="scale(1 1) rotate(0) translate(4 80)">
<title>PDSS_IdealGas.h</title>
<polygon fill="#ffffff" stroke="transparent" points="-4,4 -4,-80 226,-80 226,4 -4,4"/>
<!-- Node11 -->
<g id="node1" class="node">
<title>Node11</title>
<polygon fill="#bfbfbf" stroke="#000000" points="65,-56.5 65,-75.5 163,-75.5 163,-56.5 65,-56.5"/>
<text text-anchor="middle" x="114" y="-63.5" font-family="Helvetica,sans-Serif" font-size="10.00" fill="#000000">PDSS_IdealGas.h</text>
</g>
<!-- Node12 -->
<g id="node2" class="node">
<title>Node12</title>
<g id="a_node2"><a xlink:href="../../d3/d44/PDSS__IdealGas_8cpp.html" target="_top" xlink:title="Implementation of a pressure dependent standard state virtual function. ">
<polygon fill="#ffffff" stroke="#000000" points="0,-.5 0,-19.5 108,-19.5 108,-.5 0,-.5"/>
<text text-anchor="middle" x="54" y="-7.5" font-family="Helvetica,sans-Serif" font-size="10.00" fill="#000000">PDSS_IdealGas.cpp</text>
</a>
</g>
</g>
<!-- Node11&#45;&gt;Node12 -->
<g id="edge1" class="edge">
<title>Node11&#45;&gt;Node12</title>
<path fill="none" stroke="#191970" d="M96.1722,-49.3607C85.7922,-39.6727 73.0709,-27.7995 64.3314,-19.6427"/>
<polygon fill="#191970" stroke="#191970" points="93.8501,-51.981 103.5488,-56.2455 98.6263,-46.8636 93.8501,-51.981"/>
</g>
<!-- Node13 -->
<g id="node3" class="node">
<title>Node13</title>
<g id="a_node3"><a xlink:href="../../d0/d6d/PDSSFactory_8cpp.html" target="_top" xlink:title="PDSSFactory.cpp">
<polygon fill="#ffffff" stroke="#000000" points="126,-.5 126,-19.5 222,-19.5 222,-.5 126,-.5"/>
<text text-anchor="middle" x="174" y="-7.5" font-family="Helvetica,sans-Serif" font-size="10.00" fill="#000000">PDSSFactory.cpp</text>
</a>
</g>
</g>
<!-- Node11&#45;&gt;Node13 -->
<g id="edge2" class="edge">
<title>Node11&#45;&gt;Node13</title>
<path fill="none" stroke="#191970" d="M131.8278,-49.3607C142.2078,-39.6727 154.9291,-27.7995 163.6686,-19.6427"/>
<polygon fill="#191970" stroke="#191970" points="129.3737,-46.8636 124.4512,-56.2455 134.1499,-51.981 129.3737,-46.8636"/>
</g>
</g>
</svg>
