<?xml version="1.0" encoding="UTF-8" standalone="no"?>
<!DOCTYPE svg PUBLIC "-//W3C//DTD SVG 1.1//EN"
 "http://www.w3.org/Graphics/SVG/1.1/DTD/svg11.dtd">
<!-- Generated by graphviz version 2.36.0 (20140111.2315)
 -->
<!-- Title: BandMatrix.h Pages: 1 -->
<svg width="422pt" height="196pt"
 viewBox="0.00 0.00 422.00 196.00" xmlns="http://www.w3.org/2000/svg" xmlns:xlink="http://www.w3.org/1999/xlink">
<g id="graph0" class="graph" transform="scale(1 1) rotate(0) translate(4 192)">
<title>BandMatrix.h</title>
<polygon fill="white" stroke="none" points="-4,4 -4,-192 418,-192 418,4 -4,4"/>
<!-- Node1 -->
<g id="node1" class="node"><title>Node1</title>
<polygon fill="#bfbfbf" stroke="black" points="103.5,-168.5 103.5,-187.5 176.5,-187.5 176.5,-168.5 103.5,-168.5"/>
<text text-anchor="middle" x="140" y="-175.5" font-family="FreeSans" font-size="10.00">BandMatrix.h</text>
</g>
<!-- Node2 -->
<g id="node2" class="node"><title>Node2</title>
<g id="a_node2"><a xlink:href="BandMatrix_8cpp.html" target="_top" xlink:title="Banded matrices. ">
<polygon fill="white" stroke="black" points="7.5,-112.5 7.5,-131.5 90.5,-131.5 90.5,-112.5 7.5,-112.5"/>
<text text-anchor="middle" x="49" y="-119.5" font-family="FreeSans" font-size="10.00">BandMatrix.cpp</text>
</a>
</g>
</g>
<!-- Node1&#45;&gt;Node2 -->
<g id="edge1" class="edge"><title>Node1&#45;&gt;Node2</title>
<path fill="none" stroke="midnightblue" d="M116.706,-163.177C99.9611,-153.241 77.8996,-140.149 63.5844,-131.655"/>
<polygon fill="midnightblue" stroke="midnightblue" points="114.993,-166.231 125.379,-168.324 118.566,-160.211 114.993,-166.231"/>
</g>
<!-- Node3 -->
<g id="node3" class="node"><title>Node3</title>
<g id="a_node3"><a xlink:href="numerics_8h_source.html" target="_top" xlink:title="numerics.h">
<polygon fill="white" stroke="black" points="108.5,-112.5 108.5,-131.5 171.5,-131.5 171.5,-112.5 108.5,-112.5"/>
<text text-anchor="middle" x="140" y="-119.5" font-family="FreeSans" font-size="10.00">numerics.h</text>
</a>
</g>
</g>
<!-- Node1&#45;&gt;Node3 -->
<g id="edge2" class="edge"><title>Node1&#45;&gt;Node3</title>
<path fill="none" stroke="midnightblue" d="M140,-157.805C140,-148.91 140,-138.78 140,-131.751"/>
<polygon fill="midnightblue" stroke="midnightblue" points="136.5,-158.083 140,-168.083 143.5,-158.083 136.5,-158.083"/>
</g>
<!-- Node4 -->
<g id="node4" class="node"><title>Node4</title>
<g id="a_node4"><a xlink:href="MultiJac_8h.html" target="_top" xlink:title="MultiJac.h">
<polygon fill="white" stroke="black" points="189.5,-112.5 189.5,-131.5 250.5,-131.5 250.5,-112.5 189.5,-112.5"/>
<text text-anchor="middle" x="220" y="-119.5" font-family="FreeSans" font-size="10.00">MultiJac.h</text>
</a>
</g>
</g>
<!-- Node1&#45;&gt;Node4 -->
<g id="edge3" class="edge"><title>Node1&#45;&gt;Node4</title>
<path fill="none" stroke="midnightblue" d="M161.301,-162.622C175.915,-152.757 194.827,-139.992 207.179,-131.655"/>
<polygon fill="midnightblue" stroke="midnightblue" points="159.184,-159.828 152.853,-168.324 163.1,-165.63 159.184,-159.828"/>
</g>
<!-- Node5 -->
<g id="node5" class="node"><title>Node5</title>
<g id="a_node5"><a xlink:href="Domain1D_8cpp.html" target="_top" xlink:title="Domain1D.cpp">
<polygon fill="white" stroke="black" points="0,-56.5 0,-75.5 80,-75.5 80,-56.5 0,-56.5"/>
<text text-anchor="middle" x="40" y="-63.5" font-family="FreeSans" font-size="10.00">Domain1D.cpp</text>
</a>
</g>
</g>
<!-- Node4&#45;&gt;Node5 -->
<g id="edge4" class="edge"><title>Node4&#45;&gt;Node5</title>
<path fill="none" stroke="midnightblue" d="M181.892,-109.568C147.937,-99.381 99.0115,-84.7034 68.3881,-75.5164"/>
<polygon fill="midnightblue" stroke="midnightblue" points="180.894,-112.922 191.478,-112.444 182.906,-106.218 180.894,-112.922"/>
</g>
<!-- Node6 -->
<g id="node6" class="node"><title>Node6</title>
<g id="a_node6"><a xlink:href="MultiJac_8cpp.html" target="_top" xlink:title="Implementation file for class MultiJac. ">
<polygon fill="white" stroke="black" points="98.5,-56.5 98.5,-75.5 169.5,-75.5 169.5,-56.5 98.5,-56.5"/>
<text text-anchor="middle" x="134" y="-63.5" font-family="FreeSans" font-size="10.00">MultiJac.cpp</text>
</a>
</g>
</g>
<!-- Node4&#45;&gt;Node6 -->
<g id="edge5" class="edge"><title>Node4&#45;&gt;Node6</title>
<path fill="none" stroke="midnightblue" d="M197.545,-106.901C181.776,-96.9986 161.186,-84.0705 147.783,-75.6545"/>
<polygon fill="midnightblue" stroke="midnightblue" points="195.852,-109.97 206.183,-112.324 199.575,-104.042 195.852,-109.97"/>
</g>
<!-- Node7 -->
<g id="node7" class="node"><title>Node7</title>
<g id="a_node7"><a xlink:href="Sim1D_8cpp.html" target="_top" xlink:title="Sim1D.cpp">
<polygon fill="white" stroke="black" points="188,-56.5 188,-75.5 252,-75.5 252,-56.5 188,-56.5"/>
<text text-anchor="middle" x="220" y="-63.5" font-family="FreeSans" font-size="10.00">Sim1D.cpp</text>
</a>
</g>
</g>
<!-- Node4&#45;&gt;Node7 -->
<g id="edge6" class="edge"><title>Node4&#45;&gt;Node7</title>
<path fill="none" stroke="midnightblue" d="M220,-101.805C220,-92.9102 220,-82.7798 220,-75.7511"/>
<polygon fill="midnightblue" stroke="midnightblue" points="216.5,-102.083 220,-112.083 223.5,-102.083 216.5,-102.083"/>
</g>
<!-- Node8 -->
<g id="node8" class="node"><title>Node8</title>
<g id="a_node8"><a xlink:href="MultiNewton_8h.html" target="_top" xlink:title="MultiNewton.h">
<polygon fill="white" stroke="black" points="270.5,-56.5 270.5,-75.5 347.5,-75.5 347.5,-56.5 270.5,-56.5"/>
<text text-anchor="middle" x="309" y="-63.5" font-family="FreeSans" font-size="10.00">MultiNewton.h</text>
</a>
</g>
</g>
<!-- Node4&#45;&gt;Node8 -->
<g id="edge7" class="edge"><title>Node4&#45;&gt;Node8</title>
<path fill="none" stroke="midnightblue" d="M243.238,-106.901C259.558,-96.9986 280.865,-84.0705 294.736,-75.6545"/>
<polygon fill="midnightblue" stroke="midnightblue" points="241.033,-104.144 234.299,-112.324 244.664,-110.129 241.033,-104.144"/>
</g>
<!-- Node11 -->
<g id="node11" class="node"><title>Node11</title>
<g id="a_node11"><a xlink:href="dupe_files/onedim_8h.html" target="_top" xlink:title="onedim.h">
<polygon fill="white" stroke="black" points="358,-0.5 358,-19.5 414,-19.5 414,-0.5 358,-0.5"/>
<text text-anchor="middle" x="386" y="-7.5" font-family="FreeSans" font-size="10.00">onedim.h</text>
</a>
</g>
</g>
<!-- Node4&#45;&gt;Node11 -->
<g id="edge11" class="edge"><title>Node4&#45;&gt;Node11</title>
<path fill="none" stroke="midnightblue" d="M260.519,-116.298C290.078,-110.974 329.451,-99.71 356,-76 373.057,-60.7672 381.093,-33.8524 384.263,-19.9178"/>
<polygon fill="midnightblue" stroke="midnightblue" points="259.81,-112.867 250.51,-117.944 260.946,-119.775 259.81,-112.867"/>
</g>
<!-- Node9 -->
<g id="node9" class="node"><title>Node9</title>
<g id="a_node9"><a xlink:href="MultiNewton_8cpp.html" target="_top" xlink:title="Damped Newton solver for 1D multi&#45;domain problems. ">
<polygon fill="white" stroke="black" points="164,-0.5 164,-19.5 252,-19.5 252,-0.5 164,-0.5"/>
<text text-anchor="middle" x="208" y="-7.5" font-family="FreeSans" font-size="10.00">MultiNewton.cpp</text>
</a>
</g>
</g>
<!-- Node8&#45;&gt;Node9 -->
<g id="edge8" class="edge"><title>Node8&#45;&gt;Node9</title>
<path fill="none" stroke="midnightblue" d="M283.917,-51.5895C265.243,-41.6052 240.296,-28.2672 224.187,-19.6545"/>
<polygon fill="midnightblue" stroke="midnightblue" points="282.304,-54.6955 292.773,-56.324 285.604,-48.5224 282.304,-54.6955"/>
</g>
<!-- Node10 -->
<g id="node10" class="node"><title>Node10</title>
<g id="a_node10"><a xlink:href="OneDim_8cpp.html" target="_top" xlink:title="OneDim.cpp">
<polygon fill="white" stroke="black" points="270,-0.5 270,-19.5 340,-19.5 340,-0.5 270,-0.5"/>
<text text-anchor="middle" x="305" y="-7.5" font-family="FreeSans" font-size="10.00">OneDim.cpp</text>
</a>
</g>
</g>
<!-- Node8&#45;&gt;Node10 -->
<g id="edge9" class="edge"><title>Node8&#45;&gt;Node10</title>
<path fill="none" stroke="midnightblue" d="M307.6,-46.1005C306.936,-37.1357 306.175,-26.8579 305.648,-19.7511"/>
<polygon fill="midnightblue" stroke="midnightblue" points="304.11,-46.3689 308.339,-56.083 311.091,-45.8517 304.11,-46.3689"/>
</g>
<!-- Node8&#45;&gt;Node11 -->
<g id="edge10" class="edge"><title>Node8&#45;&gt;Node11</title>
<path fill="none" stroke="midnightblue" d="M329.901,-50.3422C343.911,-40.5169 361.883,-27.9132 373.659,-19.6545"/>
<polygon fill="midnightblue" stroke="midnightblue" points="327.549,-47.7166 321.371,-56.324 331.568,-53.4477 327.549,-47.7166"/>
</g>
</g>
</svg>
