<?xml version="1.0" encoding="UTF-8" standalone="no"?>
<!DOCTYPE svg PUBLIC "-//W3C//DTD SVG 1.1//EN"
 "http://www.w3.org/Graphics/SVG/1.1/DTD/svg11.dtd">
<!-- Generated by graphviz version 2.36.0 (20140111.2315)
 -->
<!-- Title: Domain1D Pages: 1 -->
<svg width="297pt" height="247pt"
 viewBox="0.00 0.00 297.00 246.50" xmlns="http://www.w3.org/2000/svg" xmlns:xlink="http://www.w3.org/1999/xlink">
<g id="graph0" class="graph" transform="scale(1 1) rotate(0) translate(4 242.5)">
<title>Domain1D</title>
<polygon fill="white" stroke="none" points="-4,4 -4,-242.5 293,-242.5 293,4 -4,4"/>
<!-- Node1 -->
<g id="node1" class="node"><title>Node1</title>
<polygon fill="#bfbfbf" stroke="black" points="152,-69.5 152,-88.5 214,-88.5 214,-69.5 152,-69.5"/>
<text text-anchor="middle" x="183" y="-76.5" font-family="FreeSans" font-size="10.00">Domain1D</text>
</g>
<!-- Node1&#45;&gt;Node1 -->
<g id="edge1" class="edge"><title>Node1&#45;&gt;Node1</title>
<path fill="none" stroke="#9a32cd" stroke-dasharray="5,2" d="M224.401,-84.1738C228.438,-83.1297 231,-81.4052 231,-79 231,-74.9492 223.732,-72.8289 214.392,-72.639"/>
<polygon fill="#9a32cd" stroke="#9a32cd" points="223.911,-80.7073 214.392,-85.361 224.735,-87.6586 223.911,-80.7073"/>
<text text-anchor="middle" x="247.5" y="-82" font-family="FreeSans" font-size="10.00"> m_left</text>
<text text-anchor="middle" x="247.5" y="-71" font-family="FreeSans" font-size="10.00">m_right</text>
</g>
<!-- Node2 -->
<g id="node2" class="node"><title>Node2</title>
<g id="a_node2"><a xlink:href="classCantera_1_1Refiner.html" target="_top" xlink:title="Refine Domain1D grids so that profiles satisfy adaptation tolerances. ">
<polygon fill="white" stroke="black" points="159.5,-0.5 159.5,-19.5 206.5,-19.5 206.5,-0.5 159.5,-0.5"/>
<text text-anchor="middle" x="183" y="-7.5" font-family="FreeSans" font-size="10.00">Refiner</text>
</a>
</g>
</g>
<!-- Node1&#45;&gt;Node2 -->
<g id="edge3" class="edge"><title>Node1&#45;&gt;Node2</title>
<path fill="none" stroke="#9a32cd" stroke-dasharray="5,2" d="M156.387,-63.7742C147.037,-56.7704 139.971,-47.743 145,-38 149.083,-30.0895 156.674,-23.992 164.003,-19.6101"/>
<polygon fill="#9a32cd" stroke="#9a32cd" points="154.661,-66.8277 164.945,-69.3753 158.494,-60.9706 154.661,-66.8277"/>
<text text-anchor="middle" x="169" y="-41.5" font-family="FreeSans" font-size="10.00"> m_domain</text>
</g>
<!-- Node2&#45;&gt;Node1 -->
<g id="edge2" class="edge"><title>Node2&#45;&gt;Node1</title>
<path fill="none" stroke="#9a32cd" stroke-dasharray="5,2" d="M193.598,-28.5365C195.003,-31.5958 196.224,-34.8195 197,-38 199.684,-49.008 194.073,-61.2471 189.175,-69.2526"/>
<polygon fill="#9a32cd" stroke="#9a32cd" points="196.606,-26.7385 188.799,-19.5753 190.435,-30.0432 196.606,-26.7385"/>
<text text-anchor="middle" x="219.5" y="-41.5" font-family="FreeSans" font-size="10.00"> m_refiner</text>
</g>
<!-- Node3 -->
<g id="node3" class="node"><title>Node3</title>
<g id="a_node3"><a xlink:href="classCantera_1_1OneDim.html" target="_top" xlink:title="Container class for multiple&#45;domain 1D problems. ">
<polygon fill="white" stroke="black" points="105,-138.5 105,-157.5 157,-157.5 157,-138.5 105,-138.5"/>
<text text-anchor="middle" x="131" y="-145.5" font-family="FreeSans" font-size="10.00">OneDim</text>
</a>
</g>
</g>
<!-- Node3&#45;&gt;Node1 -->
<g id="edge4" class="edge"><title>Node3&#45;&gt;Node1</title>
<path fill="none" stroke="#9a32cd" stroke-dasharray="5,2" d="M150.103,-131.57C153.952,-127.993 157.795,-124.042 161,-120 168.78,-110.188 175.337,-97.2508 179.217,-88.7838"/>
<polygon fill="#9a32cd" stroke="#9a32cd" points="147.628,-129.084 142.397,-138.298 152.232,-134.357 147.628,-129.084"/>
<text text-anchor="middle" x="197" y="-111.5" font-family="FreeSans" font-size="10.00"> m_container</text>
</g>
<!-- Node5 -->
<g id="node5" class="node"><title>Node5</title>
<g id="a_node5"><a xlink:href="classCantera_1_1MultiJac.html" target="_top" xlink:title="Class MultiJac evaluates the Jacobian of a system of equations defined by a residual function supplie...">
<polygon fill="white" stroke="black" points="44.5,-69.5 44.5,-88.5 97.5,-88.5 97.5,-69.5 44.5,-69.5"/>
<text text-anchor="middle" x="71" y="-76.5" font-family="FreeSans" font-size="10.00">MultiJac</text>
</a>
</g>
</g>
<!-- Node3&#45;&gt;Node5 -->
<g id="edge10" class="edge"><title>Node3&#45;&gt;Node5</title>
<path fill="none" stroke="#9a32cd" stroke-dasharray="5,2" d="M95.2049,-139.682C84.6557,-135.68 74.2692,-129.507 68,-120 61.8663,-110.698 64.5716,-97.3985 67.4631,-88.7319"/>
<polygon fill="#9a32cd" stroke="#9a32cd" points="94.2337,-143.046 104.825,-142.781 96.3799,-136.383 94.2337,-143.046"/>
<text text-anchor="middle" x="86.5" y="-111.5" font-family="FreeSans" font-size="10.00"> m_resid</text>
</g>
<!-- Node4 -->
<g id="node4" class="node"><title>Node4</title>
<g id="a_node4"><a xlink:href="classCantera_1_1Func1.html" target="_top" xlink:title="Base class for &#39;functor&#39; classes that evaluate a function of one variable. ">
<polygon fill="white" stroke="black" points="98,-212.5 98,-231.5 142,-231.5 142,-212.5 98,-212.5"/>
<text text-anchor="middle" x="120" y="-219.5" font-family="FreeSans" font-size="10.00">Func1</text>
</a>
</g>
</g>
<!-- Node4&#45;&gt;Node3 -->
<g id="edge5" class="edge"><title>Node4&#45;&gt;Node3</title>
<path fill="none" stroke="#9a32cd" stroke-dasharray="5,2" d="M122.879,-202.156C125.086,-187.712 128.027,-168.459 129.697,-157.531"/>
<polygon fill="#9a32cd" stroke="#9a32cd" points="119.356,-202.044 121.305,-212.458 126.275,-203.101 119.356,-202.044"/>
<text text-anchor="middle" x="153" y="-179.5" font-family="FreeSans" font-size="10.00"> m_interrupt</text>
</g>
<!-- Node4&#45;&gt;Node4 -->
<g id="edge6" class="edge"><title>Node4&#45;&gt;Node4</title>
<path fill="none" stroke="#9a32cd" stroke-dasharray="5,2" d="M152.111,-228.578C156.259,-227.44 159,-225.247 159,-222 159,-216.531 151.224,-214.053 142.051,-214.566"/>
<polygon fill="#9a32cd" stroke="#9a32cd" points="151.718,-225.099 142.051,-229.434 152.312,-232.074 151.718,-225.099"/>
<text text-anchor="middle" x="179.5" y="-230.5" font-family="FreeSans" font-size="10.00"> m_f1</text>
<text text-anchor="middle" x="179.5" y="-219.5" font-family="FreeSans" font-size="10.00">m_f2</text>
<text text-anchor="middle" x="179.5" y="-208.5" font-family="FreeSans" font-size="10.00">m_parent</text>
</g>
<!-- Node5&#45;&gt;Node3 -->
<g id="edge7" class="edge"><title>Node5&#45;&gt;Node3</title>
<path fill="none" stroke="#9a32cd" stroke-dasharray="5,2" d="M93.7516,-94.3418C99.1296,-98.3595 104.579,-103.007 109,-108 117.142,-117.196 123.614,-129.897 127.376,-138.273"/>
<polygon fill="#9a32cd" stroke="#9a32cd" points="95.7194,-91.447 85.5176,-88.5879 91.7097,-97.1849 95.7194,-91.447"/>
<text text-anchor="middle" x="132.5" y="-111.5" font-family="FreeSans" font-size="10.00"> m_jac</text>
</g>
<!-- Node6 -->
<g id="node6" class="node"><title>Node6</title>
<g id="a_node6"><a xlink:href="classCantera_1_1BandMatrix.html" target="_top" xlink:title="A class for banded matrices, involving matrix inversion processes. ">
<polygon fill="white" stroke="black" points="5.5,-138.5 5.5,-157.5 70.5,-157.5 70.5,-138.5 5.5,-138.5"/>
<text text-anchor="middle" x="38" y="-145.5" font-family="FreeSans" font-size="10.00">BandMatrix</text>
</a>
</g>
</g>
<!-- Node6&#45;&gt;Node5 -->
<g id="edge8" class="edge"><title>Node6&#45;&gt;Node5</title>
<path fill="none" stroke="midnightblue" d="M43.4676,-128.815C45.7546,-122.116 48.6618,-114.565 52,-108 55.4083,-101.297 60.1583,-94.2973 64.0562,-88.973"/>
<polygon fill="midnightblue" stroke="midnightblue" points="40.1224,-127.785 40.4112,-138.376 46.79,-129.916 40.1224,-127.785"/>
</g>
<!-- Node7 -->
<g id="node7" class="node"><title>Node7</title>
<g id="a_node7"><a xlink:href="classCantera_1_1GeneralMatrix.html" target="_top" xlink:title="Generic matrix. ">
<polygon fill="white" stroke="black" points="-0.5,-212.5 -0.5,-231.5 76.5,-231.5 76.5,-212.5 -0.5,-212.5"/>
<text text-anchor="middle" x="38" y="-219.5" font-family="FreeSans" font-size="10.00">GeneralMatrix</text>
</a>
</g>
</g>
<!-- Node7&#45;&gt;Node6 -->
<g id="edge9" class="edge"><title>Node7&#45;&gt;Node6</title>
<path fill="none" stroke="midnightblue" d="M38,-202.156C38,-187.712 38,-168.459 38,-157.531"/>
<polygon fill="midnightblue" stroke="midnightblue" points="34.5001,-202.458 38,-212.458 41.5001,-202.458 34.5001,-202.458"/>
</g>
<!-- Node8 -->
<g id="node8" class="node"><title>Node8</title>
<g id="a_node8"><a xlink:href="classCantera_1_1MultiNewton.html" target="_top" xlink:title="Newton iterator for multi&#45;domain, one&#45;dimensional problems. ">
<polygon fill="white" stroke="black" points="219,-212.5 219,-231.5 289,-231.5 289,-212.5 219,-212.5"/>
<text text-anchor="middle" x="254" y="-219.5" font-family="FreeSans" font-size="10.00">MultiNewton</text>
</a>
</g>
</g>
<!-- Node8&#45;&gt;Node3 -->
<g id="edge11" class="edge"><title>Node8&#45;&gt;Node3</title>
<path fill="none" stroke="#9a32cd" stroke-dasharray="5,2" d="M232.71,-206.831C218.758,-197.716 200.019,-185.788 183,-176 171.713,-169.509 158.713,-162.759 148.535,-157.632"/>
<polygon fill="#9a32cd" stroke="#9a32cd" points="230.842,-209.792 241.12,-212.365 234.69,-203.945 230.842,-209.792"/>
<text text-anchor="middle" x="221.5" y="-179.5" font-family="FreeSans" font-size="10.00"> m_newt</text>
</g>
</g>
</svg>
