<?xml version="1.0" encoding="UTF-8" standalone="no"?>
<!DOCTYPE svg PUBLIC "-//W3C//DTD SVG 1.1//EN"
 "http://www.w3.org/Graphics/SVG/1.1/DTD/svg11.dtd">
<!-- Generated by graphviz version 2.36.0 (20140111.2315)
 -->
<!-- Title: AxiStagnFlow Pages: 1 -->
<svg width="518pt" height="412pt"
 viewBox="0.00 0.00 518.00 412.00" xmlns="http://www.w3.org/2000/svg" xmlns:xlink="http://www.w3.org/1999/xlink">
<g id="graph0" class="graph" transform="scale(1 1) rotate(0) translate(4 408)">
<title>AxiStagnFlow</title>
<polygon fill="white" stroke="none" points="-4,4 -4,-408 514,-408 514,4 -4,4"/>
<!-- Node1 -->
<g id="node1" class="node"><title>Node1</title>
<polygon fill="#bfbfbf" stroke="black" points="249,-0.5 249,-19.5 325,-19.5 325,-0.5 249,-0.5"/>
<text text-anchor="middle" x="287" y="-7.5" font-family="FreeSans" font-size="10.00">AxiStagnFlow</text>
</g>
<!-- Node2 -->
<g id="node2" class="node"><title>Node2</title>
<g id="a_node2"><a xlink:href="classCantera_1_1StFlow.html" target="_top" xlink:title="This class represents 1D flow domains that satisfy the one&#45;dimensional similarity solution for chemic...">
<polygon fill="white" stroke="black" points="263.5,-58.5 263.5,-77.5 310.5,-77.5 310.5,-58.5 263.5,-58.5"/>
<text text-anchor="middle" x="287" y="-65.5" font-family="FreeSans" font-size="10.00">StFlow</text>
</a>
</g>
</g>
<!-- Node2&#45;&gt;Node1 -->
<g id="edge1" class="edge"><title>Node2&#45;&gt;Node1</title>
<path fill="none" stroke="midnightblue" d="M287,-47.953C287,-38.2875 287,-27.0312 287,-19.5052"/>
<polygon fill="midnightblue" stroke="midnightblue" points="283.5,-48.25 287,-58.25 290.5,-48.25 283.5,-48.25"/>
</g>
<!-- Node3 -->
<g id="node3" class="node"><title>Node3</title>
<g id="a_node3"><a xlink:href="classCantera_1_1Domain1D.html" target="_top" xlink:title="Base class for one&#45;dimensional domains. ">
<polygon fill="white" stroke="black" points="0,-159.5 0,-178.5 62,-178.5 62,-159.5 0,-159.5"/>
<text text-anchor="middle" x="31" y="-166.5" font-family="FreeSans" font-size="10.00">Domain1D</text>
</a>
</g>
</g>
<!-- Node3&#45;&gt;Node2 -->
<g id="edge2" class="edge"><title>Node3&#45;&gt;Node2</title>
<path fill="none" stroke="midnightblue" d="M72.295,-161.014C90.2801,-156.758 111.071,-150.124 128,-140 151.467,-125.966 147.174,-109.415 171,-96 200.189,-79.566 238.888,-73.1191 263.372,-70.6004"/>
<polygon fill="midnightblue" stroke="midnightblue" points="71.3741,-157.633 62.3581,-163.197 72.8762,-164.47 71.3741,-157.633"/>
</g>
<!-- Node3&#45;&gt;Node3 -->
<g id="edge3" class="edge"><title>Node3&#45;&gt;Node3</title>
<path fill="none" stroke="#9a32cd" stroke-dasharray="5,2" d="M72.4011,-174.174C76.4379,-173.13 79,-171.405 79,-169 79,-164.949 71.7324,-162.829 62.3924,-162.639"/>
<polygon fill="#9a32cd" stroke="#9a32cd" points="71.9105,-170.707 62.3924,-175.361 72.7351,-177.659 71.9105,-170.707"/>
<text text-anchor="middle" x="95.5" y="-172" font-family="FreeSans" font-size="10.00"> m_left</text>
<text text-anchor="middle" x="95.5" y="-161" font-family="FreeSans" font-size="10.00">m_right</text>
</g>
<!-- Node4 -->
<g id="node4" class="node"><title>Node4</title>
<g id="a_node4"><a xlink:href="classCantera_1_1Refiner.html" target="_top" xlink:title="Refine Domain1D grids so that profiles satisfy adaptation tolerances. ">
<polygon fill="white" stroke="black" points="39.5,-58.5 39.5,-77.5 86.5,-77.5 86.5,-58.5 39.5,-58.5"/>
<text text-anchor="middle" x="63" y="-65.5" font-family="FreeSans" font-size="10.00">Refiner</text>
</a>
</g>
</g>
<!-- Node3&#45;&gt;Node4 -->
<g id="edge5" class="edge"><title>Node3&#45;&gt;Node4</title>
<path fill="none" stroke="#9a32cd" stroke-dasharray="5,2" d="M23.8655,-149.672C19.1459,-134.442 15.2761,-112.65 24,-96 28.1277,-88.122 35.7138,-82.0856 43.1057,-77.7391"/>
<polygon fill="#9a32cd" stroke="#9a32cd" points="20.6759,-151.154 27.2843,-159.435 27.2825,-148.84 20.6759,-151.154"/>
<text text-anchor="middle" x="48" y="-115.5" font-family="FreeSans" font-size="10.00"> m_domain</text>
</g>
<!-- Node4&#45;&gt;Node3 -->
<g id="edge4" class="edge"><title>Node4&#45;&gt;Node3</title>
<path fill="none" stroke="#9a32cd" stroke-dasharray="5,2" d="M72.6015,-87.1369C79.1365,-102.16 85.0982,-123.623 76,-140 71.1739,-148.687 62.4108,-155.028 53.8915,-159.456"/>
<polygon fill="#9a32cd" stroke="#9a32cd" points="75.6512,-85.4024 68.1638,-77.9064 69.3424,-88.4355 75.6512,-85.4024"/>
<text text-anchor="middle" x="102.5" y="-115.5" font-family="FreeSans" font-size="10.00"> m_refiner</text>
</g>
<!-- Node5 -->
<g id="node5" class="node"><title>Node5</title>
<g id="a_node5"><a xlink:href="classCantera_1_1OneDim.html" target="_top" xlink:title="Container class for multiple&#45;domain 1D problems. ">
<polygon fill="white" stroke="black" points="84,-228.5 84,-247.5 136,-247.5 136,-228.5 84,-228.5"/>
<text text-anchor="middle" x="110" y="-235.5" font-family="FreeSans" font-size="10.00">OneDim</text>
</a>
</g>
</g>
<!-- Node5&#45;&gt;Node3 -->
<g id="edge6" class="edge"><title>Node5&#45;&gt;Node3</title>
<path fill="none" stroke="#9a32cd" stroke-dasharray="5,2" d="M73.9953,-228.614C63.14,-224.551 51.9974,-218.613 44,-210 35.951,-201.331 32.8831,-187.616 31.7154,-178.712"/>
<polygon fill="#9a32cd" stroke="#9a32cd" points="73.192,-232.034 83.7851,-231.84 75.3832,-225.386 73.192,-232.034"/>
<text text-anchor="middle" x="72" y="-201.5" font-family="FreeSans" font-size="10.00"> m_container</text>
</g>
<!-- Node7 -->
<g id="node7" class="node"><title>Node7</title>
<g id="a_node7"><a xlink:href="classCantera_1_1MultiJac.html" target="_top" xlink:title="Class MultiJac evaluates the Jacobian of a system of equations defined by a residual function supplie...">
<polygon fill="white" stroke="red" points="131.5,-159.5 131.5,-178.5 184.5,-178.5 184.5,-159.5 131.5,-159.5"/>
<text text-anchor="middle" x="158" y="-166.5" font-family="FreeSans" font-size="10.00">MultiJac</text>
</a>
</g>
</g>
<!-- Node5&#45;&gt;Node7 -->
<g id="edge10" class="edge"><title>Node5&#45;&gt;Node7</title>
<path fill="none" stroke="#9a32cd" stroke-dasharray="5,2" d="M104.27,-218.446C103.225,-211.609 103.414,-204.06 107,-198 112.401,-188.873 121.952,-182.522 131.339,-178.206"/>
<polygon fill="#9a32cd" stroke="#9a32cd" points="100.892,-219.373 106.615,-228.289 107.702,-217.75 100.892,-219.373"/>
<text text-anchor="middle" x="125.5" y="-201.5" font-family="FreeSans" font-size="10.00"> m_resid</text>
</g>
<!-- Node6 -->
<g id="node6" class="node"><title>Node6</title>
<g id="a_node6"><a xlink:href="classCantera_1_1Func1.html" target="_top" xlink:title="Base class for &#39;functor&#39; classes that evaluate a function of one variable. ">
<polygon fill="white" stroke="black" points="77,-310.5 77,-329.5 121,-329.5 121,-310.5 77,-310.5"/>
<text text-anchor="middle" x="99" y="-317.5" font-family="FreeSans" font-size="10.00">Func1</text>
</a>
</g>
</g>
<!-- Node6&#45;&gt;Node5 -->
<g id="edge7" class="edge"><title>Node6&#45;&gt;Node5</title>
<path fill="none" stroke="#9a32cd" stroke-dasharray="5,2" d="M101.573,-300.289C103.85,-283.726 107.072,-260.293 108.798,-247.742"/>
<polygon fill="#9a32cd" stroke="#9a32cd" points="98.0721,-300.055 100.177,-310.439 105.007,-301.009 98.0721,-300.055"/>
<text text-anchor="middle" x="133" y="-273.5" font-family="FreeSans" font-size="10.00"> m_interrupt</text>
</g>
<!-- Node6&#45;&gt;Node6 -->
<g id="edge8" class="edge"><title>Node6&#45;&gt;Node6</title>
<path fill="none" stroke="#9a32cd" stroke-dasharray="5,2" d="M131.111,-326.578C135.259,-325.44 138,-323.247 138,-320 138,-314.531 130.224,-312.053 121.051,-312.566"/>
<polygon fill="#9a32cd" stroke="#9a32cd" points="130.718,-323.099 121.051,-327.434 131.312,-330.074 130.718,-323.099"/>
<text text-anchor="middle" x="158.5" y="-328.5" font-family="FreeSans" font-size="10.00"> m_f1</text>
<text text-anchor="middle" x="158.5" y="-317.5" font-family="FreeSans" font-size="10.00">m_f2</text>
<text text-anchor="middle" x="158.5" y="-306.5" font-family="FreeSans" font-size="10.00">m_parent</text>
</g>
<!-- Node7&#45;&gt;Node2 -->
<g id="edge20" class="edge"><title>Node7&#45;&gt;Node2</title>
<path fill="none" stroke="#9a32cd" stroke-dasharray="5,2" d="M167.629,-150.182C177.198,-134.001 193.272,-110.51 213,-96 227.983,-84.9801 247.931,-78.0487 263.341,-73.9719"/>
<polygon fill="#9a32cd" stroke="#9a32cd" points="164.423,-148.741 162.538,-159.167 170.513,-152.193 164.423,-148.741"/>
<text text-anchor="middle" x="227.5" y="-115.5" font-family="FreeSans" font-size="10.00"> m_jac</text>
</g>
<!-- Node7&#45;&gt;Node5 -->
<g id="edge9" class="edge"><title>Node7&#45;&gt;Node5</title>
<path fill="none" stroke="#9a32cd" stroke-dasharray="5,2" d="M156.14,-188.601C154.739,-195.761 152.288,-203.719 148,-210 142.798,-217.62 134.694,-223.807 127.303,-228.327"/>
<polygon fill="#9a32cd" stroke="#9a32cd" points="159.61,-189.06 157.56,-178.666 152.68,-188.07 159.61,-189.06"/>
<text text-anchor="middle" x="168.5" y="-201.5" font-family="FreeSans" font-size="10.00"> m_jac</text>
</g>
<!-- Node8 -->
<g id="node8" class="node"><title>Node8</title>
<g id="a_node8"><a xlink:href="classCantera_1_1MultiNewton.html" target="_top" xlink:title="Newton iterator for multi&#45;domain, one&#45;dimensional problems. ">
<polygon fill="white" stroke="black" points="198,-310.5 198,-329.5 268,-329.5 268,-310.5 198,-310.5"/>
<text text-anchor="middle" x="233" y="-317.5" font-family="FreeSans" font-size="10.00">MultiNewton</text>
</a>
</g>
</g>
<!-- Node8&#45;&gt;Node5 -->
<g id="edge11" class="edge"><title>Node8&#45;&gt;Node5</title>
<path fill="none" stroke="#9a32cd" stroke-dasharray="5,2" d="M214.759,-303.769C200.995,-292.634 181.4,-277.526 163,-266 152.148,-259.202 139.374,-252.655 129.086,-247.711"/>
<polygon fill="#9a32cd" stroke="#9a32cd" points="212.559,-306.491 222.513,-310.121 216.995,-301.076 212.559,-306.491"/>
<text text-anchor="middle" x="209.5" y="-273.5" font-family="FreeSans" font-size="10.00"> m_newt</text>
</g>
<!-- Node9 -->
<g id="node9" class="node"><title>Node9</title>
<g id="a_node9"><a xlink:href="classCantera_1_1Transport.html" target="_top" xlink:title="Base class for transport property managers. ">
<polygon fill="white" stroke="black" points="303.5,-159.5 303.5,-178.5 360.5,-178.5 360.5,-159.5 303.5,-159.5"/>
<text text-anchor="middle" x="332" y="-166.5" font-family="FreeSans" font-size="10.00">Transport</text>
</a>
</g>
</g>
<!-- Node9&#45;&gt;Node2 -->
<g id="edge12" class="edge"><title>Node9&#45;&gt;Node2</title>
<path fill="none" stroke="#9a32cd" stroke-dasharray="5,2" d="M326.027,-149.854C320.896,-135.042 312.93,-113.737 304,-96 300.812,-89.6671 296.562,-82.9171 293.109,-77.7503"/>
<polygon fill="#9a32cd" stroke="#9a32cd" points="322.718,-150.995 329.235,-159.348 329.35,-148.754 322.718,-150.995"/>
<text text-anchor="middle" x="340.5" y="-115.5" font-family="FreeSans" font-size="10.00"> m_trans</text>
</g>
<!-- Node10 -->
<g id="node10" class="node"><title>Node10</title>
<g id="a_node10"><a xlink:href="classCantera_1_1ThermoPhase.html" target="_top" xlink:title="Base class for a phase with thermodynamic properties. ">
<polygon fill="white" stroke="black" points="284.5,-228.5 284.5,-247.5 361.5,-247.5 361.5,-228.5 284.5,-228.5"/>
<text text-anchor="middle" x="323" y="-235.5" font-family="FreeSans" font-size="10.00">ThermoPhase</text>
</a>
</g>
</g>
<!-- Node10&#45;&gt;Node9 -->
<g id="edge13" class="edge"><title>Node10&#45;&gt;Node9</title>
<path fill="none" stroke="#9a32cd" stroke-dasharray="5,2" d="M325.55,-218.018C327.294,-205.034 329.523,-188.442 330.852,-178.549"/>
<polygon fill="#9a32cd" stroke="#9a32cd" points="322.039,-217.864 324.177,-228.241 328.977,-218.796 322.039,-217.864"/>
<text text-anchor="middle" x="352" y="-201.5" font-family="FreeSans" font-size="10.00"> m_thermo</text>
</g>
<!-- Node16 -->
<g id="node16" class="node"><title>Node16</title>
<g id="a_node16"><a xlink:href="classCantera_1_1IdealGasPhase.html" target="_top" xlink:title="Class IdealGasPhase represents low&#45;density gases that obey the ideal gas equation of state...">
<polygon fill="white" stroke="black" points="203,-159.5 203,-178.5 285,-178.5 285,-159.5 203,-159.5"/>
<text text-anchor="middle" x="244" y="-166.5" font-family="FreeSans" font-size="10.00">IdealGasPhase</text>
</a>
</g>
</g>
<!-- Node10&#45;&gt;Node16 -->
<g id="edge22" class="edge"><title>Node10&#45;&gt;Node16</title>
<path fill="none" stroke="midnightblue" d="M304.679,-221.462C288.931,-208.106 266.805,-189.341 254.081,-178.549"/>
<polygon fill="midnightblue" stroke="midnightblue" points="302.782,-224.442 312.672,-228.241 307.309,-219.104 302.782,-224.442"/>
</g>
<!-- Node11 -->
<g id="node11" class="node"><title>Node11</title>
<g id="a_node11"><a xlink:href="classCantera_1_1Phase.html" target="_top" xlink:title="Class Phase is the base class for phases of matter, managing the species and elements in a phase...">
<polygon fill="white" stroke="red" points="290,-310.5 290,-329.5 334,-329.5 334,-310.5 290,-310.5"/>
<text text-anchor="middle" x="312" y="-317.5" font-family="FreeSans" font-size="10.00">Phase</text>
</a>
</g>
</g>
<!-- Node11&#45;&gt;Node10 -->
<g id="edge14" class="edge"><title>Node11&#45;&gt;Node10</title>
<path fill="none" stroke="midnightblue" d="M314.573,-300.289C316.85,-283.726 320.072,-260.293 321.798,-247.742"/>
<polygon fill="midnightblue" stroke="midnightblue" points="311.072,-300.055 313.177,-310.439 318.007,-301.009 311.072,-300.055"/>
</g>
<!-- Node12 -->
<g id="node12" class="node"><title>Node12</title>
<g id="a_node12"><a xlink:href="classCantera_1_1ValueCache.html" target="_top" xlink:title="ValueCache">
<polygon fill="white" stroke="black" points="377,-384.5 377,-403.5 445,-403.5 445,-384.5 377,-384.5"/>
<text text-anchor="middle" x="411" y="-391.5" font-family="FreeSans" font-size="10.00">ValueCache</text>
</a>
</g>
</g>
<!-- Node12&#45;&gt;Node11 -->
<g id="edge15" class="edge"><title>Node12&#45;&gt;Node11</title>
<path fill="none" stroke="#9a32cd" stroke-dasharray="5,2" d="M391.049,-378.49C370.857,-363.805 340.319,-341.596 323.73,-329.531"/>
<polygon fill="#9a32cd" stroke="#9a32cd" points="389.109,-381.407 399.255,-384.458 393.226,-375.746 389.109,-381.407"/>
<text text-anchor="middle" x="395.5" y="-357.5" font-family="FreeSans" font-size="10.00"> m_cache</text>
</g>
<!-- Node14 -->
<g id="node14" class="node"><title>Node14</title>
<g id="a_node14"><a xlink:href="classCantera_1_1Kinetics.html" target="_top" xlink:title="Public interface for kinetics managers. ">
<polygon fill="white" stroke="black" points="444.5,-266.5 444.5,-285.5 495.5,-285.5 495.5,-266.5 444.5,-266.5"/>
<text text-anchor="middle" x="470" y="-273.5" font-family="FreeSans" font-size="10.00">Kinetics</text>
</a>
</g>
</g>
<!-- Node12&#45;&gt;Node14 -->
<g id="edge18" class="edge"><title>Node12&#45;&gt;Node14</title>
<path fill="none" stroke="#9a32cd" stroke-dasharray="5,2" d="M421.76,-375.568C428.471,-364.422 437.112,-349.563 444,-336 452.921,-318.435 461.865,-297.135 466.583,-285.538"/>
<polygon fill="#9a32cd" stroke="#9a32cd" points="418.665,-373.92 416.451,-384.28 424.643,-377.562 418.665,-373.92"/>
<text text-anchor="middle" x="456.5" y="-357.5" font-family="FreeSans" font-size="10.00"> m_cache</text>
</g>
<!-- Node13 -->
<g id="node13" class="node"><title>Node13</title>
<g id="a_node13"><a xlink:href="classCantera_1_1SpeciesThermo.html" target="_top" xlink:title="Pure Virtual base class for the species thermo manager classes. ">
<polygon fill="white" stroke="black" points="352,-310.5 352,-329.5 436,-329.5 436,-310.5 352,-310.5"/>
<text text-anchor="middle" x="394" y="-317.5" font-family="FreeSans" font-size="10.00">SpeciesThermo</text>
</a>
</g>
</g>
<!-- Node13&#45;&gt;Node10 -->
<g id="edge16" class="edge"><title>Node13&#45;&gt;Node10</title>
<path fill="none" stroke="#9a32cd" stroke-dasharray="5,2" d="M379.47,-302.628C364.717,-286.005 342.433,-260.896 330.759,-247.742"/>
<polygon fill="#9a32cd" stroke="#9a32cd" points="377.146,-305.283 386.402,-310.439 382.382,-300.636 377.146,-305.283"/>
<text text-anchor="middle" x="391" y="-273.5" font-family="FreeSans" font-size="10.00"> m_spthermo</text>
</g>
<!-- Node14&#45;&gt;Node2 -->
<g id="edge17" class="edge"><title>Node14&#45;&gt;Node2</title>
<path fill="none" stroke="#9a32cd" stroke-dasharray="5,2" d="M474.646,-256.359C482.437,-220.185 493.498,-140.153 452,-96 433.164,-75.9593 351.803,-70.7937 310.804,-69.4623"/>
<polygon fill="#9a32cd" stroke="#9a32cd" points="471.152,-255.93 472.302,-266.462 477.971,-257.512 471.152,-255.93"/>
<text text-anchor="middle" x="495.5" y="-201.5" font-family="FreeSans" font-size="10.00"> m_kin</text>
</g>
<!-- Node15 -->
<g id="node15" class="node"><title>Node15</title>
<g id="a_node15"><a xlink:href="classCantera_1_1Array2D.html" target="_top" xlink:title="A class for 2D arrays stored in column&#45;major (Fortran&#45;compatible) form. ">
<polygon fill="white" stroke="black" points="378.5,-159.5 378.5,-178.5 429.5,-178.5 429.5,-159.5 378.5,-159.5"/>
<text text-anchor="middle" x="404" y="-166.5" font-family="FreeSans" font-size="10.00">Array2D</text>
</a>
</g>
</g>
<!-- Node15&#45;&gt;Node2 -->
<g id="edge19" class="edge"><title>Node15&#45;&gt;Node2</title>
<path fill="none" stroke="#9a32cd" stroke-dasharray="5,2" d="M397.775,-149.661C391.402,-133.456 380.006,-110.244 363,-96 348.079,-83.5024 326.956,-76.6164 310.764,-72.9326"/>
<polygon fill="#9a32cd" stroke="#9a32cd" points="394.519,-150.949 401.247,-159.134 401.092,-148.54 394.519,-150.949"/>
<text text-anchor="middle" x="421" y="-132" font-family="FreeSans" font-size="10.00"> m_dthermal</text>
<text text-anchor="middle" x="421" y="-121" font-family="FreeSans" font-size="10.00">m_wdot</text>
<text text-anchor="middle" x="421" y="-110" font-family="FreeSans" font-size="10.00">m_fixedy</text>
<text text-anchor="middle" x="421" y="-99" font-family="FreeSans" font-size="10.00">m_flux</text>
</g>
<!-- Node16&#45;&gt;Node2 -->
<g id="edge21" class="edge"><title>Node16&#45;&gt;Node2</title>
<path fill="none" stroke="#9a32cd" stroke-dasharray="5,2" d="M244.485,-149.235C245.596,-134.033 248.842,-112.504 258,-96 262.005,-88.7819 268.627,-82.3981 274.533,-77.6525"/>
<polygon fill="#9a32cd" stroke="#9a32cd" points="240.979,-149.282 243.99,-159.44 247.971,-149.621 240.979,-149.282"/>
<text text-anchor="middle" x="281" y="-115.5" font-family="FreeSans" font-size="10.00"> m_thermo</text>
</g>
</g>
</svg>
