<?xml version="1.0" encoding="UTF-8" standalone="no"?>
<!DOCTYPE svg PUBLIC "-//W3C//DTD SVG 1.1//EN"
 "http://www.w3.org/Graphics/SVG/1.1/DTD/svg11.dtd">
<!-- Generated by graphviz version 2.36.0 (20140111.2315)
 -->
<!-- Title: MultiPhase Pages: 1 -->
<svg width="86pt" height="154pt"
 viewBox="0.00 0.00 86.00 154.00" xmlns="http://www.w3.org/2000/svg" xmlns:xlink="http://www.w3.org/1999/xlink">
<g id="graph0" class="graph" transform="scale(1 1) rotate(0) translate(4 150)">
<title>MultiPhase</title>
<polygon fill="white" stroke="none" points="-4,4 -4,-150 82,-150 82,4 -4,4"/>
<!-- Node1 -->
<g id="node1" class="node"><title>Node1</title>
<polygon fill="#bfbfbf" stroke="black" points="2.5,-0.5 2.5,-19.5 67.5,-19.5 67.5,-0.5 2.5,-0.5"/>
<text text-anchor="middle" x="35" y="-7.5" font-family="FreeSans" font-size="10.00">MultiPhase</text>
</g>
<!-- Node2 -->
<g id="node2" class="node"><title>Node2</title>
<g id="a_node2"><a xlink:href="classCantera_1_1DenseMatrix.html" target="_top" xlink:title="A class for full (non&#45;sparse) matrices with Fortran&#45;compatible data storage, which adds matrix operat...">
<polygon fill="white" stroke="black" points="0,-68.5 0,-87.5 70,-87.5 70,-68.5 0,-68.5"/>
<text text-anchor="middle" x="35" y="-75.5" font-family="FreeSans" font-size="10.00">DenseMatrix</text>
</a>
</g>
</g>
<!-- Node2&#45;&gt;Node1 -->
<g id="edge1" class="edge"><title>Node2&#45;&gt;Node1</title>
<path fill="none" stroke="#9a32cd" stroke-dasharray="5,2" d="M35,-58.0413C35,-45.4724 35,-29.5631 35,-19.8411"/>
<polygon fill="#9a32cd" stroke="#9a32cd" points="31.5001,-58.3716 35,-68.3717 38.5001,-58.3717 31.5001,-58.3716"/>
<text text-anchor="middle" x="56.5" y="-41.5" font-family="FreeSans" font-size="10.00"> m_atoms</text>
</g>
<!-- Node3 -->
<g id="node3" class="node"><title>Node3</title>
<g id="a_node3"><a xlink:href="classCantera_1_1Array2D.html" target="_top" xlink:title="A class for 2D arrays stored in column&#45;major (Fortran&#45;compatible) form. ">
<polygon fill="white" stroke="black" points="9.5,-126.5 9.5,-145.5 60.5,-145.5 60.5,-126.5 9.5,-126.5"/>
<text text-anchor="middle" x="35" y="-133.5" font-family="FreeSans" font-size="10.00">Array2D</text>
</a>
</g>
</g>
<!-- Node3&#45;&gt;Node2 -->
<g id="edge2" class="edge"><title>Node3&#45;&gt;Node2</title>
<path fill="none" stroke="midnightblue" d="M35,-115.953C35,-106.287 35,-95.0312 35,-87.5052"/>
<polygon fill="midnightblue" stroke="midnightblue" points="31.5001,-116.25 35,-126.25 38.5001,-116.25 31.5001,-116.25"/>
</g>
</g>
</svg>
