<?xml version="1.0" encoding="UTF-8" standalone="no"?>
<!DOCTYPE svg PUBLIC "-//W3C//DTD SVG 1.1//EN"
 "http://www.w3.org/Graphics/SVG/1.1/DTD/svg11.dtd">
<!-- Generated by graphviz version 2.36.0 (20140111.2315)
 -->
<!-- Title: BulkKinetics Pages: 1 -->
<svg width="222pt" height="164pt"
 viewBox="0.00 0.00 222.00 164.00" xmlns="http://www.w3.org/2000/svg" xmlns:xlink="http://www.w3.org/1999/xlink">
<g id="graph0" class="graph" transform="scale(1 1) rotate(0) translate(4 160)">
<title>BulkKinetics</title>
<polygon fill="white" stroke="none" points="-4,4 -4,-160 218,-160 218,4 -4,4"/>
<!-- Node1 -->
<g id="node1" class="node"><title>Node1</title>
<polygon fill="#bfbfbf" stroke="black" points="82.5,-0.5 82.5,-19.5 153.5,-19.5 153.5,-0.5 82.5,-0.5"/>
<text text-anchor="middle" x="118" y="-7.5" font-family="FreeSans" font-size="10.00">BulkKinetics</text>
</g>
<!-- Node2 -->
<g id="node2" class="node"><title>Node2</title>
<g id="a_node2"><a xlink:href="classCantera_1_1Kinetics.html" target="_top" xlink:title="Public interface for kinetics managers. ">
<polygon fill="white" stroke="black" points="8.5,-68.5 8.5,-87.5 59.5,-87.5 59.5,-68.5 8.5,-68.5"/>
<text text-anchor="middle" x="34" y="-75.5" font-family="FreeSans" font-size="10.00">Kinetics</text>
</a>
</g>
</g>
<!-- Node2&#45;&gt;Node1 -->
<g id="edge1" class="edge"><title>Node2&#45;&gt;Node1</title>
<path fill="none" stroke="midnightblue" d="M52.9686,-62.0961C69.6349,-49.0012 93.3056,-30.4028 107.016,-19.6305"/>
<polygon fill="midnightblue" stroke="midnightblue" points="50.6823,-59.4413 44.9815,-68.3717 55.0071,-64.9455 50.6823,-59.4413"/>
</g>
<!-- Node3 -->
<g id="node3" class="node"><title>Node3</title>
<g id="a_node3"><a xlink:href="classCantera_1_1ValueCache.html" target="_top" xlink:title="ValueCache">
<polygon fill="white" stroke="black" points="0,-136.5 0,-155.5 68,-155.5 68,-136.5 0,-136.5"/>
<text text-anchor="middle" x="34" y="-143.5" font-family="FreeSans" font-size="10.00">ValueCache</text>
</a>
</g>
</g>
<!-- Node3&#45;&gt;Node2 -->
<g id="edge2" class="edge"><title>Node3&#45;&gt;Node2</title>
<path fill="none" stroke="#9a32cd" stroke-dasharray="5,2" d="M34,-126.041C34,-113.472 34,-97.5631 34,-87.8411"/>
<polygon fill="#9a32cd" stroke="#9a32cd" points="30.5001,-126.372 34,-136.372 37.5001,-126.372 30.5001,-126.372"/>
<text text-anchor="middle" x="55.5" y="-109.5" font-family="FreeSans" font-size="10.00"> m_cache</text>
</g>
<!-- Node4 -->
<g id="node4" class="node"><title>Node4</title>
<g id="a_node4"><a xlink:href="classCantera_1_1Rate1.html" target="_top" xlink:title="Rate1\&lt; Cantera::Arrhenius \&gt;">
<polygon fill="white" stroke="black" points="77.5,-68.5 77.5,-87.5 214.5,-87.5 214.5,-68.5 77.5,-68.5"/>
<text text-anchor="middle" x="146" y="-75.5" font-family="FreeSans" font-size="10.00">Rate1&lt; Cantera::Arrhenius &gt;</text>
</a>
</g>
</g>
<!-- Node4&#45;&gt;Node1 -->
<g id="edge3" class="edge"><title>Node4&#45;&gt;Node1</title>
<path fill="none" stroke="#9a32cd" stroke-dasharray="5,2" d="M138.282,-58.8066C132.901,-46.1244 125.959,-29.7615 121.751,-19.8411"/>
<polygon fill="#9a32cd" stroke="#9a32cd" points="135.212,-60.5328 142.339,-68.3717 141.656,-57.7989 135.212,-60.5328"/>
<text text-anchor="middle" x="152.5" y="-41.5" font-family="FreeSans" font-size="10.00"> m_rates</text>
</g>
</g>
</svg>
