<?xml version="1.0" encoding="UTF-8" standalone="no"?>
<!DOCTYPE svg PUBLIC "-//W3C//DTD SVG 1.1//EN"
 "http://www.w3.org/Graphics/SVG/1.1/DTD/svg11.dtd">
<!-- Generated by graphviz version 2.36.0 (20140111.2315)
 -->
<!-- Title: Metal Pages: 1 -->
<svg width="220pt" height="282pt"
 viewBox="0.00 0.00 220.00 282.00" xmlns="http://www.w3.org/2000/svg" xmlns:xlink="http://www.w3.org/1999/xlink">
<g id="graph0" class="graph" transform="scale(1 1) rotate(0) translate(4 278)">
<title>Metal</title>
<polygon fill="white" stroke="none" points="-4,4 -4,-278 216,-278 216,4 -4,4"/>
<!-- Node1 -->
<g id="node1" class="node"><title>Node1</title>
<polygon fill="#bfbfbf" stroke="black" points="33.5,-0.5 33.5,-19.5 74.5,-19.5 74.5,-0.5 33.5,-0.5"/>
<text text-anchor="middle" x="54" y="-7.5" font-family="FreeSans" font-size="10.00">Metal</text>
</g>
<!-- Node2 -->
<g id="node2" class="node"><title>Node2</title>
<g id="a_node2"><a xlink:href="classCantera_1_1MetalPhase.html" target="_top" xlink:title="Class MetalPhase represents electrons in a metal. ">
<polygon fill="white" stroke="black" points="63,-58.5 63,-77.5 131,-77.5 131,-58.5 63,-58.5"/>
<text text-anchor="middle" x="97" y="-65.5" font-family="FreeSans" font-size="10.00">MetalPhase</text>
</a>
</g>
</g>
<!-- Node2&#45;&gt;Node1 -->
<g id="edge1" class="edge"><title>Node2&#45;&gt;Node1</title>
<path fill="none" stroke="midnightblue" d="M84.0457,-50.1293C76.2848,-40.022 66.7494,-27.6038 60.5308,-19.5052"/>
<polygon fill="midnightblue" stroke="midnightblue" points="81.4149,-52.4501 90.2812,-58.25 86.967,-48.1869 81.4149,-52.4501"/>
</g>
<!-- Node3 -->
<g id="node3" class="node"><title>Node3</title>
<g id="a_node3"><a xlink:href="classCantera_1_1ThermoPhase.html" target="_top" xlink:title="Base class for a phase with thermodynamic properties. ">
<polygon fill="white" stroke="black" points="69.5,-116.5 69.5,-135.5 146.5,-135.5 146.5,-116.5 69.5,-116.5"/>
<text text-anchor="middle" x="108" y="-123.5" font-family="FreeSans" font-size="10.00">ThermoPhase</text>
</a>
</g>
</g>
<!-- Node3&#45;&gt;Node2 -->
<g id="edge2" class="edge"><title>Node3&#45;&gt;Node2</title>
<path fill="none" stroke="midnightblue" d="M104.32,-106.268C102.408,-96.5326 100.165,-85.113 98.6707,-77.5052"/>
<polygon fill="midnightblue" stroke="midnightblue" points="100.919,-107.112 106.281,-116.25 107.788,-105.763 100.919,-107.112"/>
</g>
<!-- Node4 -->
<g id="node4" class="node"><title>Node4</title>
<g id="a_node4"><a xlink:href="classCantera_1_1Phase.html" target="_top" xlink:title="Class Phase is the base class for phases of matter, managing the species and elements in a phase...">
<polygon fill="white" stroke="black" points="67,-184.5 67,-203.5 111,-203.5 111,-184.5 67,-184.5"/>
<text text-anchor="middle" x="89" y="-191.5" font-family="FreeSans" font-size="10.00">Phase</text>
</a>
</g>
</g>
<!-- Node4&#45;&gt;Node3 -->
<g id="edge3" class="edge"><title>Node4&#45;&gt;Node3</title>
<path fill="none" stroke="midnightblue" d="M94.3473,-174.425C97.9825,-161.798 102.628,-145.662 105.455,-135.841"/>
<polygon fill="midnightblue" stroke="midnightblue" points="90.887,-173.794 91.4839,-184.372 97.6138,-175.73 90.887,-173.794"/>
</g>
<!-- Node5 -->
<g id="node5" class="node"><title>Node5</title>
<g id="a_node5"><a xlink:href="classCantera_1_1XML__Node.html" target="_top" xlink:title="Class XML_Node is a tree&#45;based representation of the contents of an XML file. ">
<polygon fill="white" stroke="black" points="-0.5,-253.5 -0.5,-272.5 64.5,-272.5 64.5,-253.5 -0.5,-253.5"/>
<text text-anchor="middle" x="32" y="-260.5" font-family="FreeSans" font-size="10.00">XML_Node</text>
</a>
</g>
</g>
<!-- Node5&#45;&gt;Node1 -->
<g id="edge8" class="edge"><title>Node5&#45;&gt;Node1</title>
<path fill="none" stroke="#9a32cd" stroke-dasharray="5,2" d="M32,-243.003C32,-229.589 32,-211.194 32,-195 32,-195 32,-195 32,-67 32,-49.2425 41.7015,-30.3744 48.2198,-19.7013"/>
<polygon fill="#9a32cd" stroke="#9a32cd" points="28.5001,-243.327 32,-253.327 35.5001,-243.327 28.5001,-243.327"/>
<text text-anchor="middle" x="41.5" y="-123.5" font-family="FreeSans" font-size="10.00"> m_r</text>
</g>
<!-- Node5&#45;&gt;Node4 -->
<g id="edge4" class="edge"><title>Node5&#45;&gt;Node4</title>
<path fill="none" stroke="#9a32cd" stroke-dasharray="5,2" d="M46.176,-245.337C57.4631,-232.07 72.8006,-214.041 81.7266,-203.549"/>
<polygon fill="#9a32cd" stroke="#9a32cd" points="43.2658,-243.356 39.4518,-253.241 48.5974,-247.892 43.2658,-243.356"/>
<text text-anchor="middle" x="81.5" y="-225.5" font-family="FreeSans" font-size="10.00"> m_xml</text>
</g>
<!-- Node5&#45;&gt;Node5 -->
<g id="edge5" class="edge"><title>Node5&#45;&gt;Node5</title>
<path fill="none" stroke="#9a32cd" stroke-dasharray="5,2" d="M74.791,-268.255C79.1888,-267.22 82,-265.468 82,-263 82,-258.949 74.4296,-256.829 64.7005,-256.639"/>
<polygon fill="#9a32cd" stroke="#9a32cd" points="74.2595,-264.792 64.7005,-269.361 75.0224,-271.75 74.2595,-264.792"/>
<text text-anchor="middle" x="102.5" y="-266" font-family="FreeSans" font-size="10.00"> m_root</text>
<text text-anchor="middle" x="102.5" y="-255" font-family="FreeSans" font-size="10.00">m_parent</text>
</g>
<!-- Node6 -->
<g id="node6" class="node"><title>Node6</title>
<g id="a_node6"><a xlink:href="classCantera_1_1ValueCache.html" target="_top" xlink:title="ValueCache">
<polygon fill="white" stroke="black" points="142,-253.5 142,-272.5 210,-272.5 210,-253.5 142,-253.5"/>
<text text-anchor="middle" x="176" y="-260.5" font-family="FreeSans" font-size="10.00">ValueCache</text>
</a>
</g>
</g>
<!-- Node6&#45;&gt;Node4 -->
<g id="edge6" class="edge"><title>Node6&#45;&gt;Node4</title>
<path fill="none" stroke="#9a32cd" stroke-dasharray="5,2" d="M156.304,-246.832C138.933,-233.454 114.244,-214.441 100.101,-203.549"/>
<polygon fill="#9a32cd" stroke="#9a32cd" points="154.568,-249.912 164.626,-253.241 158.839,-244.366 154.568,-249.912"/>
<text text-anchor="middle" x="159.5" y="-225.5" font-family="FreeSans" font-size="10.00"> m_cache</text>
</g>
<!-- Node7 -->
<g id="node7" class="node"><title>Node7</title>
<g id="a_node7"><a xlink:href="classCantera_1_1SpeciesThermo.html" target="_top" xlink:title="Pure Virtual base class for the species thermo manager classes. ">
<polygon fill="white" stroke="black" points="129,-184.5 129,-203.5 213,-203.5 213,-184.5 129,-184.5"/>
<text text-anchor="middle" x="171" y="-191.5" font-family="FreeSans" font-size="10.00">SpeciesThermo</text>
</a>
</g>
</g>
<!-- Node7&#45;&gt;Node3 -->
<g id="edge7" class="edge"><title>Node7&#45;&gt;Node3</title>
<path fill="none" stroke="#9a32cd" stroke-dasharray="5,2" d="M155.773,-177.047C143.424,-164.111 126.477,-146.357 116.439,-135.841"/>
<polygon fill="#9a32cd" stroke="#9a32cd" points="153.327,-179.555 162.764,-184.372 158.391,-174.721 153.327,-179.555"/>
<text text-anchor="middle" x="174" y="-157.5" font-family="FreeSans" font-size="10.00"> m_spthermo</text>
</g>
</g>
</svg>
