<?xml version="1.0" encoding="UTF-8" standalone="no"?>
<!DOCTYPE svg PUBLIC "-//W3C//DTD SVG 1.1//EN"
 "http://www.w3.org/Graphics/SVG/1.1/DTD/svg11.dtd">
<!-- Generated by graphviz version 2.36.0 (20140111.2315)
 -->
<!-- Title: InterfaceKinetics Pages: 1 -->
<svg width="663pt" height="310pt"
 viewBox="0.00 0.00 663.00 310.00" xmlns="http://www.w3.org/2000/svg" xmlns:xlink="http://www.w3.org/1999/xlink">
<g id="graph0" class="graph" transform="scale(1 1) rotate(0) translate(4 306)">
<title>InterfaceKinetics</title>
<polygon fill="white" stroke="none" points="-4,4 -4,-306 659,-306 659,4 -4,4"/>
<!-- Node1 -->
<g id="node1" class="node"><title>Node1</title>
<polygon fill="#bfbfbf" stroke="black" points="132.5,-0.5 132.5,-19.5 221.5,-19.5 221.5,-0.5 132.5,-0.5"/>
<text text-anchor="middle" x="177" y="-7.5" font-family="FreeSans" font-size="10.00">InterfaceKinetics</text>
</g>
<!-- Node2 -->
<g id="node2" class="node"><title>Node2</title>
<g id="a_node2"><a xlink:href="classCantera_1_1Kinetics.html" target="_top" xlink:title="Public interface for kinetics managers. ">
<polygon fill="white" stroke="black" points="-0.5,-174.5 -0.5,-193.5 50.5,-193.5 50.5,-174.5 -0.5,-174.5"/>
<text text-anchor="middle" x="25" y="-181.5" font-family="FreeSans" font-size="10.00">Kinetics</text>
</a>
</g>
</g>
<!-- Node2&#45;&gt;Node1 -->
<g id="edge1" class="edge"><title>Node2&#45;&gt;Node1</title>
<path fill="none" stroke="midnightblue" d="M24.1602,-164.191C24.0544,-139.434 27.4442,-95.8078 50,-68 71.0858,-42.0045 106.529,-27.4532 134.622,-19.5719"/>
<polygon fill="midnightblue" stroke="midnightblue" points="20.6663,-164.485 24.4113,-174.396 27.6641,-164.312 20.6663,-164.485"/>
</g>
<!-- Node3 -->
<g id="node3" class="node"><title>Node3</title>
<g id="a_node3"><a xlink:href="classCantera_1_1ValueCache.html" target="_top" xlink:title="ValueCache">
<polygon fill="white" stroke="black" points="24,-281.5 24,-300.5 92,-300.5 92,-281.5 24,-281.5"/>
<text text-anchor="middle" x="58" y="-288.5" font-family="FreeSans" font-size="10.00">ValueCache</text>
</a>
</g>
</g>
<!-- Node3&#45;&gt;Node2 -->
<g id="edge2" class="edge"><title>Node3&#45;&gt;Node2</title>
<path fill="none" stroke="#9a32cd" stroke-dasharray="5,2" d="M52.207,-271.568C45.0271,-248.722 33.0866,-210.73 27.7378,-193.711"/>
<polygon fill="#9a32cd" stroke="#9a32cd" points="48.9622,-272.917 55.2995,-281.407 55.6401,-270.818 48.9622,-272.917"/>
<text text-anchor="middle" x="71.5" y="-253.5" font-family="FreeSans" font-size="10.00"> m_cache</text>
</g>
<!-- Node6 -->
<g id="node6" class="node"><title>Node6</title>
<g id="a_node6"><a xlink:href="classCantera_1_1Phase.html" target="_top" xlink:title="Class Phase is the base class for phases of matter, managing the species and elements in a phase...">
<polygon fill="white" stroke="black" points="154,-212.5 154,-231.5 198,-231.5 198,-212.5 154,-212.5"/>
<text text-anchor="middle" x="176" y="-219.5" font-family="FreeSans" font-size="10.00">Phase</text>
</a>
</g>
</g>
<!-- Node3&#45;&gt;Node6 -->
<g id="edge8" class="edge"><title>Node3&#45;&gt;Node6</title>
<path fill="none" stroke="#9a32cd" stroke-dasharray="5,2" d="M82.1615,-276.281C105.798,-262.861 141.056,-242.841 160.943,-231.549"/>
<polygon fill="#9a32cd" stroke="#9a32cd" points="80.3943,-273.26 73.4264,-281.241 83.8506,-279.347 80.3943,-273.26"/>
<text text-anchor="middle" x="149.5" y="-253.5" font-family="FreeSans" font-size="10.00"> m_cache</text>
</g>
<!-- Node4 -->
<g id="node4" class="node"><title>Node4</title>
<g id="a_node4"><a xlink:href="classCantera_1_1SurfPhase.html" target="_top" xlink:title="A simple thermodynamic model for a surface phase, assuming an ideal solution model. ">
<polygon fill="white" stroke="black" points="59,-68.5 59,-87.5 121,-87.5 121,-68.5 59,-68.5"/>
<text text-anchor="middle" x="90" y="-75.5" font-family="FreeSans" font-size="10.00">SurfPhase</text>
</a>
</g>
</g>
<!-- Node4&#45;&gt;Node1 -->
<g id="edge3" class="edge"><title>Node4&#45;&gt;Node1</title>
<path fill="none" stroke="#9a32cd" stroke-dasharray="5,2" d="M109.646,-62.0961C126.908,-49.0012 151.424,-30.4028 165.623,-19.6305"/>
<polygon fill="#9a32cd" stroke="#9a32cd" points="107.225,-59.5393 101.374,-68.3717 111.456,-65.1162 107.225,-59.5393"/>
<text text-anchor="middle" x="158" y="-41.5" font-family="FreeSans" font-size="10.00"> m_surf</text>
</g>
<!-- Node5 -->
<g id="node5" class="node"><title>Node5</title>
<g id="a_node5"><a xlink:href="classCantera_1_1ThermoPhase.html" target="_top" xlink:title="Base class for a phase with thermodynamic properties. ">
<polygon fill="white" stroke="black" points="55.5,-136.5 55.5,-155.5 132.5,-155.5 132.5,-136.5 55.5,-136.5"/>
<text text-anchor="middle" x="94" y="-143.5" font-family="FreeSans" font-size="10.00">ThermoPhase</text>
</a>
</g>
</g>
<!-- Node5&#45;&gt;Node4 -->
<g id="edge4" class="edge"><title>Node5&#45;&gt;Node4</title>
<path fill="none" stroke="midnightblue" d="M92.851,-126.041C92.0892,-113.472 91.125,-97.5631 90.5358,-87.8411"/>
<polygon fill="midnightblue" stroke="midnightblue" points="89.3784,-126.602 93.4771,-136.372 96.3656,-126.178 89.3784,-126.602"/>
</g>
<!-- Node6&#45;&gt;Node5 -->
<g id="edge5" class="edge"><title>Node6&#45;&gt;Node5</title>
<path fill="none" stroke="midnightblue" d="M170.791,-202.54C167.326,-193.024 161.927,-181.81 154,-174 145.619,-165.743 134.269,-159.759 123.696,-155.557"/>
<polygon fill="midnightblue" stroke="midnightblue" points="167.531,-203.834 173.914,-212.29 174.197,-201.699 167.531,-203.834"/>
</g>
<!-- Node7 -->
<g id="node7" class="node"><title>Node7</title>
<g id="a_node7"><a xlink:href="classCantera_1_1XML__Node.html" target="_top" xlink:title="Class XML_Node is a tree&#45;based representation of the contents of an XML file. ">
<polygon fill="white" stroke="black" points="143.5,-281.5 143.5,-300.5 208.5,-300.5 208.5,-281.5 143.5,-281.5"/>
<text text-anchor="middle" x="176" y="-288.5" font-family="FreeSans" font-size="10.00">XML_Node</text>
</a>
</g>
</g>
<!-- Node7&#45;&gt;Node6 -->
<g id="edge6" class="edge"><title>Node7&#45;&gt;Node6</title>
<path fill="none" stroke="#9a32cd" stroke-dasharray="5,2" d="M176,-271.018C176,-258.034 176,-241.442 176,-231.549"/>
<polygon fill="#9a32cd" stroke="#9a32cd" points="172.5,-271.241 176,-281.241 179.5,-271.241 172.5,-271.241"/>
<text text-anchor="middle" x="191.5" y="-253.5" font-family="FreeSans" font-size="10.00"> m_xml</text>
</g>
<!-- Node7&#45;&gt;Node7 -->
<g id="edge7" class="edge"><title>Node7&#45;&gt;Node7</title>
<path fill="none" stroke="#9a32cd" stroke-dasharray="5,2" d="M218.791,-296.255C223.189,-295.22 226,-293.468 226,-291 226,-286.949 218.43,-284.829 208.7,-284.639"/>
<polygon fill="#9a32cd" stroke="#9a32cd" points="218.259,-292.792 208.7,-297.361 219.022,-299.75 218.259,-292.792"/>
<text text-anchor="middle" x="246.5" y="-294" font-family="FreeSans" font-size="10.00"> m_root</text>
<text text-anchor="middle" x="246.5" y="-283" font-family="FreeSans" font-size="10.00">m_parent</text>
</g>
<!-- Node8 -->
<g id="node8" class="node"><title>Node8</title>
<g id="a_node8"><a xlink:href="classCantera_1_1SpeciesThermo.html" target="_top" xlink:title="Pure Virtual base class for the species thermo manager classes. ">
<polygon fill="white" stroke="black" points="52,-212.5 52,-231.5 136,-231.5 136,-212.5 52,-212.5"/>
<text text-anchor="middle" x="94" y="-219.5" font-family="FreeSans" font-size="10.00">SpeciesThermo</text>
</a>
</g>
</g>
<!-- Node8&#45;&gt;Node5 -->
<g id="edge9" class="edge"><title>Node8&#45;&gt;Node5</title>
<path fill="none" stroke="#9a32cd" stroke-dasharray="5,2" d="M94,-202.072C94,-187.18 94,-167.111 94,-155.768"/>
<polygon fill="#9a32cd" stroke="#9a32cd" points="90.5001,-202.221 94,-212.221 97.5001,-202.221 90.5001,-202.221"/>
<text text-anchor="middle" x="122" y="-181.5" font-family="FreeSans" font-size="10.00"> m_spthermo</text>
</g>
<!-- Node9 -->
<g id="node9" class="node"><title>Node9</title>
<g id="a_node9"><a xlink:href="classCantera_1_1Rate1.html" target="_top" xlink:title="Rate1\&lt; Cantera::SurfaceArrhenius \&gt;">
<polygon fill="white" stroke="black" points="139.5,-68.5 139.5,-87.5 310.5,-87.5 310.5,-68.5 139.5,-68.5"/>
<text text-anchor="middle" x="225" y="-75.5" font-family="FreeSans" font-size="10.00">Rate1&lt; Cantera::SurfaceArrhenius &gt;</text>
</a>
</g>
</g>
<!-- Node9&#45;&gt;Node1 -->
<g id="edge10" class="edge"><title>Node9&#45;&gt;Node1</title>
<path fill="none" stroke="#9a32cd" stroke-dasharray="5,2" d="M212.591,-59.9377C203.263,-47.112 190.861,-30.0591 183.43,-19.8411"/>
<polygon fill="#9a32cd" stroke="#9a32cd" points="210.012,-62.3429 218.725,-68.3717 215.674,-58.2257 210.012,-62.3429"/>
<text text-anchor="middle" x="224.5" y="-41.5" font-family="FreeSans" font-size="10.00"> m_rates</text>
</g>
<!-- Node10 -->
<g id="node10" class="node"><title>Node10</title>
<g id="a_node10"><a xlink:href="classCantera_1_1ImplicitSurfChem.html" target="_top" xlink:title="Advances the surface coverages of the associated set of SurfacePhase objects in time. ">
<polygon fill="white" stroke="black" points="329,-68.5 329,-87.5 421,-87.5 421,-68.5 329,-68.5"/>
<text text-anchor="middle" x="375" y="-75.5" font-family="FreeSans" font-size="10.00">ImplicitSurfChem</text>
</a>
</g>
</g>
<!-- Node10&#45;&gt;Node1 -->
<g id="edge11" class="edge"><title>Node10&#45;&gt;Node1</title>
<path fill="none" stroke="#9a32cd" stroke-dasharray="5,2" d="M339.381,-65.127C299.965,-51.9882 237.42,-31.1399 202.578,-19.5259"/>
<polygon fill="#9a32cd" stroke="#9a32cd" points="338.521,-68.5297 349.115,-68.3717 340.735,-61.8889 338.521,-68.5297"/>
<text text-anchor="middle" x="322.5" y="-41.5" font-family="FreeSans" font-size="10.00"> m_integrator</text>
</g>
<!-- Node13 -->
<g id="node13" class="node"><title>Node13</title>
<g id="a_node13"><a xlink:href="classCantera_1_1solveSP.html" target="_top" xlink:title="Method to solve a pseudo steady state surface problem. ">
<polygon fill="white" stroke="black" points="439,-0.5 439,-19.5 491,-19.5 491,-0.5 439,-0.5"/>
<text text-anchor="middle" x="465" y="-7.5" font-family="FreeSans" font-size="10.00">solveSP</text>
</a>
</g>
</g>
<!-- Node10&#45;&gt;Node13 -->
<g id="edge18" class="edge"><title>Node10&#45;&gt;Node13</title>
<path fill="none" stroke="#9a32cd" stroke-dasharray="5,2" d="M365.03,-59.3411C362.37,-52.1293 361.36,-44.0745 366,-38 374.813,-26.4613 412.539,-18.6703 438.786,-14.5325"/>
<polygon fill="#9a32cd" stroke="#9a32cd" points="361.868,-60.8421 369.305,-68.3877 368.197,-57.851 361.868,-60.8421"/>
<text text-anchor="middle" x="402.5" y="-41.5" font-family="FreeSans" font-size="10.00"> m_SurfChemPtr</text>
</g>
<!-- Node11 -->
<g id="node11" class="node"><title>Node11</title>
<g id="a_node11"><a xlink:href="classCantera_1_1FuncEval.html" target="_top" xlink:title="Virtual base class for ODE right&#45;hand&#45;side function evaluators. ">
<polygon fill="white" stroke="black" points="294,-136.5 294,-155.5 350,-155.5 350,-136.5 294,-136.5"/>
<text text-anchor="middle" x="322" y="-143.5" font-family="FreeSans" font-size="10.00">FuncEval</text>
</a>
</g>
</g>
<!-- Node11&#45;&gt;Node10 -->
<g id="edge12" class="edge"><title>Node11&#45;&gt;Node10</title>
<path fill="none" stroke="midnightblue" d="M335.402,-128.31C345.735,-115.444 359.615,-98.1583 367.9,-87.8411"/>
<polygon fill="midnightblue" stroke="midnightblue" points="332.461,-126.383 328.929,-136.372 337.919,-130.766 332.461,-126.383"/>
</g>
<!-- Node12 -->
<g id="node12" class="node"><title>Node12</title>
<g id="a_node12"><a xlink:href="classCantera_1_1Integrator.html" target="_top" xlink:title="Abstract base class for ODE system integrators. ">
<polygon fill="white" stroke="black" points="368,-136.5 368,-155.5 426,-155.5 426,-136.5 368,-136.5"/>
<text text-anchor="middle" x="397" y="-143.5" font-family="FreeSans" font-size="10.00">Integrator</text>
</a>
</g>
</g>
<!-- Node12&#45;&gt;Node10 -->
<g id="edge13" class="edge"><title>Node12&#45;&gt;Node10</title>
<path fill="none" stroke="#9a32cd" stroke-dasharray="5,2" d="M390.936,-126.807C386.708,-114.124 381.254,-97.7615 377.947,-87.8411"/>
<polygon fill="#9a32cd" stroke="#9a32cd" points="387.641,-127.992 394.124,-136.372 394.282,-125.778 387.641,-127.992"/>
<text text-anchor="middle" x="406.5" y="-109.5" font-family="FreeSans" font-size="10.00"> m_integ</text>
</g>
<!-- Node13&#45;&gt;Node10 -->
<g id="edge14" class="edge"><title>Node13&#45;&gt;Node10</title>
<path fill="none" stroke="#9a32cd" stroke-dasharray="5,2" d="M458.115,-28.8266C454.534,-36.1855 449.523,-44.3068 443,-50 433.43,-58.3524 420.961,-64.2994 409.317,-68.4457"/>
<polygon fill="#9a32cd" stroke="#9a32cd" points="461.363,-30.1316 462.117,-19.5637 454.938,-27.3548 461.363,-30.1316"/>
<text text-anchor="middle" x="482.5" y="-41.5" font-family="FreeSans" font-size="10.00"> m_surfSolver</text>
</g>
<!-- Node14 -->
<g id="node14" class="node"><title>Node14</title>
<g id="a_node14"><a xlink:href="classCantera_1_1SquareMatrix.html" target="_top" xlink:title="A class for full (non&#45;sparse) matrices with Fortran&#45;compatible data storage. ">
<polygon fill="white" stroke="black" points="510,-68.5 510,-87.5 584,-87.5 584,-68.5 510,-68.5"/>
<text text-anchor="middle" x="547" y="-75.5" font-family="FreeSans" font-size="10.00">SquareMatrix</text>
</a>
</g>
</g>
<!-- Node14&#45;&gt;Node13 -->
<g id="edge15" class="edge"><title>Node14&#45;&gt;Node13</title>
<path fill="none" stroke="#9a32cd" stroke-dasharray="5,2" d="M539.857,-59.0402C536.265,-51.7776 531.315,-43.7661 525,-38 515.384,-29.2192 502.434,-22.9047 491.026,-18.6011"/>
<polygon fill="#9a32cd" stroke="#9a32cd" points="536.663,-60.4732 543.914,-68.1985 543.063,-57.6378 536.663,-60.4732"/>
<text text-anchor="middle" x="551" y="-41.5" font-family="FreeSans" font-size="10.00"> m_Jac</text>
</g>
<!-- Node15 -->
<g id="node15" class="node"><title>Node15</title>
<g id="a_node15"><a xlink:href="classCantera_1_1DenseMatrix.html" target="_top" xlink:title="A class for full (non&#45;sparse) matrices with Fortran&#45;compatible data storage, which adds matrix operat...">
<polygon fill="white" stroke="red" points="489,-136.5 489,-155.5 559,-155.5 559,-136.5 489,-136.5"/>
<text text-anchor="middle" x="524" y="-143.5" font-family="FreeSans" font-size="10.00">DenseMatrix</text>
</a>
</g>
</g>
<!-- Node15&#45;&gt;Node14 -->
<g id="edge16" class="edge"><title>Node15&#45;&gt;Node14</title>
<path fill="none" stroke="midnightblue" d="M530.34,-126.807C534.76,-114.124 540.462,-97.7615 543.919,-87.8411"/>
<polygon fill="midnightblue" stroke="midnightblue" points="526.993,-125.777 527.007,-136.372 533.603,-128.08 526.993,-125.777"/>
</g>
<!-- Node16 -->
<g id="node16" class="node"><title>Node16</title>
<g id="a_node16"><a xlink:href="classCantera_1_1GeneralMatrix.html" target="_top" xlink:title="Generic matrix. ">
<polygon fill="white" stroke="black" points="577.5,-136.5 577.5,-155.5 654.5,-155.5 654.5,-136.5 577.5,-136.5"/>
<text text-anchor="middle" x="616" y="-143.5" font-family="FreeSans" font-size="10.00">GeneralMatrix</text>
</a>
</g>
</g>
<!-- Node16&#45;&gt;Node14 -->
<g id="edge17" class="edge"><title>Node16&#45;&gt;Node14</title>
<path fill="none" stroke="midnightblue" d="M599.704,-129.412C586.149,-116.447 567.34,-98.4559 556.243,-87.8411"/>
<polygon fill="midnightblue" stroke="midnightblue" points="597.334,-131.989 606.979,-136.372 602.172,-126.93 597.334,-131.989"/>
</g>
</g>
</svg>
