<?xml version="1.0" encoding="UTF-8" standalone="no"?>
<!DOCTYPE svg PUBLIC "-//W3C//DTD SVG 1.1//EN"
 "http://www.w3.org/Graphics/SVG/1.1/DTD/svg11.dtd">
<!-- Generated by graphviz version 2.36.0 (20140111.2315)
 -->
<!-- Title: SquareMatrix Pages: 1 -->
<svg width="173pt" height="140pt"
 viewBox="0.00 0.00 173.00 140.00" xmlns="http://www.w3.org/2000/svg" xmlns:xlink="http://www.w3.org/1999/xlink">
<g id="graph0" class="graph" transform="scale(1 1) rotate(0) translate(4 136)">
<title>SquareMatrix</title>
<polygon fill="white" stroke="none" points="-4,4 -4,-136 169,-136 169,4 -4,4"/>
<!-- Node1 -->
<g id="node1" class="node"><title>Node1</title>
<polygon fill="#bfbfbf" stroke="black" points="44,-0.5 44,-19.5 118,-19.5 118,-0.5 44,-0.5"/>
<text text-anchor="middle" x="81" y="-7.5" font-family="FreeSans" font-size="10.00">SquareMatrix</text>
</g>
<!-- Node2 -->
<g id="node2" class="node"><title>Node2</title>
<g id="a_node2"><a xlink:href="classCantera_1_1DenseMatrix.html" target="_top" xlink:title="A class for full (non&#45;sparse) matrices with Fortran&#45;compatible data storage, which adds matrix operat...">
<polygon fill="white" stroke="black" points="0,-56.5 0,-75.5 70,-75.5 70,-56.5 0,-56.5"/>
<text text-anchor="middle" x="35" y="-63.5" font-family="FreeSans" font-size="10.00">DenseMatrix</text>
</a>
</g>
</g>
<!-- Node2&#45;&gt;Node1 -->
<g id="edge1" class="edge"><title>Node2&#45;&gt;Node1</title>
<path fill="none" stroke="midnightblue" d="M49.114,-48.4314C57.176,-38.9673 66.9592,-27.4827 73.5454,-19.7511"/>
<polygon fill="midnightblue" stroke="midnightblue" points="46.4163,-46.2009 42.596,-56.083 51.745,-50.7402 46.4163,-46.2009"/>
</g>
<!-- Node3 -->
<g id="node3" class="node"><title>Node3</title>
<g id="a_node3"><a xlink:href="classCantera_1_1Array2D.html" target="_top" xlink:title="A class for 2D arrays stored in column&#45;major (Fortran&#45;compatible) form. ">
<polygon fill="white" stroke="black" points="9.5,-112.5 9.5,-131.5 60.5,-131.5 60.5,-112.5 9.5,-112.5"/>
<text text-anchor="middle" x="35" y="-119.5" font-family="FreeSans" font-size="10.00">Array2D</text>
</a>
</g>
</g>
<!-- Node3&#45;&gt;Node2 -->
<g id="edge2" class="edge"><title>Node3&#45;&gt;Node2</title>
<path fill="none" stroke="midnightblue" d="M35,-101.805C35,-92.9102 35,-82.7798 35,-75.7511"/>
<polygon fill="midnightblue" stroke="midnightblue" points="31.5001,-102.083 35,-112.083 38.5001,-102.083 31.5001,-102.083"/>
</g>
<!-- Node4 -->
<g id="node4" class="node"><title>Node4</title>
<g id="a_node4"><a xlink:href="classCantera_1_1GeneralMatrix.html" target="_top" xlink:title="Generic matrix. ">
<polygon fill="white" stroke="black" points="88.5,-56.5 88.5,-75.5 165.5,-75.5 165.5,-56.5 88.5,-56.5"/>
<text text-anchor="middle" x="127" y="-63.5" font-family="FreeSans" font-size="10.00">GeneralMatrix</text>
</a>
</g>
</g>
<!-- Node4&#45;&gt;Node1 -->
<g id="edge3" class="edge"><title>Node4&#45;&gt;Node1</title>
<path fill="none" stroke="midnightblue" d="M112.886,-48.4314C104.824,-38.9673 95.0408,-27.4827 88.4546,-19.7511"/>
<polygon fill="midnightblue" stroke="midnightblue" points="110.255,-50.7402 119.404,-56.083 115.584,-46.2009 110.255,-50.7402"/>
</g>
</g>
</svg>
