<?xml version="1.0" encoding="UTF-8" standalone="no"?>
<!DOCTYPE svg PUBLIC "-//W3C//DTD SVG 1.1//EN"
 "http://www.w3.org/Graphics/SVG/1.1/DTD/svg11.dtd">
<!-- Generated by graphviz version 2.36.0 (20140111.2315)
 -->
<!-- Title: ElementaryReaction Pages: 1 -->
<svg width="137pt" height="96pt"
 viewBox="0.00 0.00 137.00 96.00" xmlns="http://www.w3.org/2000/svg" xmlns:xlink="http://www.w3.org/1999/xlink">
<g id="graph0" class="graph" transform="scale(1 1) rotate(0) translate(4 92)">
<title>ElementaryReaction</title>
<polygon fill="white" stroke="none" points="-4,4 -4,-92 133,-92 133,4 -4,4"/>
<!-- Node1 -->
<g id="node1" class="node"><title>Node1</title>
<polygon fill="#bfbfbf" stroke="black" points="12.5,-0.5 12.5,-19.5 115.5,-19.5 115.5,-0.5 12.5,-0.5"/>
<text text-anchor="middle" x="64" y="-7.5" font-family="FreeSans" font-size="10.00">ElementaryReaction</text>
</g>
<!-- Node2 -->
<g id="node2" class="node"><title>Node2</title>
<g id="a_node2"><a xlink:href="classCantera_1_1Reaction.html" target="_top" xlink:title="Intermediate class which stores data about a reaction and its rate parameterization so that it can be...">
<polygon fill="white" stroke="black" points="-0.5,-68.5 -0.5,-87.5 54.5,-87.5 54.5,-68.5 -0.5,-68.5"/>
<text text-anchor="middle" x="27" y="-75.5" font-family="FreeSans" font-size="10.00">Reaction</text>
</a>
</g>
</g>
<!-- Node2&#45;&gt;Node1 -->
<g id="edge1" class="edge"><title>Node2&#45;&gt;Node1</title>
<path fill="none" stroke="midnightblue" d="M36.7753,-59.563C43.9407,-46.7815 53.371,-29.9599 59.0436,-19.8411"/>
<polygon fill="midnightblue" stroke="midnightblue" points="33.6742,-57.9373 31.8371,-68.3717 39.7802,-61.3604 33.6742,-57.9373"/>
</g>
<!-- Node3 -->
<g id="node3" class="node"><title>Node3</title>
<g id="a_node3"><a xlink:href="classCantera_1_1Arrhenius.html" target="_top" xlink:title="Arrhenius reaction rate type depends only on temperature. ">
<polygon fill="white" stroke="black" points="72.5,-68.5 72.5,-87.5 129.5,-87.5 129.5,-68.5 72.5,-68.5"/>
<text text-anchor="middle" x="101" y="-75.5" font-family="FreeSans" font-size="10.00">Arrhenius</text>
</a>
</g>
</g>
<!-- Node3&#45;&gt;Node1 -->
<g id="edge2" class="edge"><title>Node3&#45;&gt;Node1</title>
<path fill="none" stroke="#9a32cd" stroke-dasharray="5,2" d="M91.2247,-59.563C84.0593,-46.7815 74.629,-29.9599 68.9564,-19.8411"/>
<polygon fill="#9a32cd" stroke="#9a32cd" points="88.2198,-61.3604 96.1629,-68.3717 94.3258,-57.9373 88.2198,-61.3604"/>
<text text-anchor="middle" x="94.5" y="-41.5" font-family="FreeSans" font-size="10.00"> rate</text>
</g>
</g>
</svg>
