<?xml version="1.0" encoding="UTF-8" standalone="no"?>
<!DOCTYPE svg PUBLIC "-//W3C//DTD SVG 1.1//EN"
 "http://www.w3.org/Graphics/SVG/1.1/DTD/svg11.dtd">
<!-- Generated by graphviz version 2.36.0 (20140111.2315)
 -->
<!-- Title: LTI_MoleFracs_ExpT Pages: 1 -->
<svg width="353pt" height="302pt"
 viewBox="0.00 0.00 353.00 302.00" xmlns="http://www.w3.org/2000/svg" xmlns:xlink="http://www.w3.org/1999/xlink">
<g id="graph0" class="graph" transform="scale(1 1) rotate(0) translate(4 298)">
<title>LTI_MoleFracs_ExpT</title>
<polygon fill="white" stroke="none" points="-4,4 -4,-298 349,-298 349,4 -4,4"/>
<!-- Node1 -->
<g id="node1" class="node"><title>Node1</title>
<polygon fill="#bfbfbf" stroke="black" points="212,-0.5 212,-19.5 320,-19.5 320,-0.5 212,-0.5"/>
<text text-anchor="middle" x="266" y="-7.5" font-family="FreeSans" font-size="10.00">LTI_MoleFracs_ExpT</text>
</g>
<!-- Node2 -->
<g id="node2" class="node"><title>Node2</title>
<g id="a_node2"><a xlink:href="classCantera_1_1LiquidTranInteraction.html" target="_top" xlink:title="Base class to handle transport property evaluation in a mixture. ">
<polygon fill="white" stroke="black" points="212.5,-58.5 212.5,-77.5 319.5,-77.5 319.5,-58.5 212.5,-58.5"/>
<text text-anchor="middle" x="266" y="-65.5" font-family="FreeSans" font-size="10.00">LiquidTranInteraction</text>
</a>
</g>
</g>
<!-- Node2&#45;&gt;Node1 -->
<g id="edge1" class="edge"><title>Node2&#45;&gt;Node1</title>
<path fill="none" stroke="midnightblue" d="M266,-47.953C266,-38.2875 266,-27.0312 266,-19.5052"/>
<polygon fill="midnightblue" stroke="midnightblue" points="262.5,-48.25 266,-58.25 269.5,-48.25 262.5,-48.25"/>
</g>
<!-- Node3 -->
<g id="node3" class="node"><title>Node3</title>
<g id="a_node3"><a xlink:href="classCantera_1_1ThermoPhase.html" target="_top" xlink:title="Base class for a phase with thermodynamic properties. ">
<polygon fill="white" stroke="black" points="179.5,-136.5 179.5,-155.5 256.5,-155.5 256.5,-136.5 179.5,-136.5"/>
<text text-anchor="middle" x="218" y="-143.5" font-family="FreeSans" font-size="10.00">ThermoPhase</text>
</a>
</g>
</g>
<!-- Node3&#45;&gt;Node2 -->
<g id="edge2" class="edge"><title>Node3&#45;&gt;Node2</title>
<path fill="none" stroke="#9a32cd" stroke-dasharray="5,2" d="M220.974,-126.544C223.17,-116.851 226.877,-105.124 233,-96 237.95,-88.6241 245.51,-82.2305 252.146,-77.5189"/>
<polygon fill="#9a32cd" stroke="#9a32cd" points="217.534,-125.897 219.088,-136.378 224.409,-127.216 217.534,-125.897"/>
<text text-anchor="middle" x="256" y="-104.5" font-family="FreeSans" font-size="10.00"> m_thermo</text>
</g>
<!-- Node4 -->
<g id="node4" class="node"><title>Node4</title>
<g id="a_node4"><a xlink:href="classCantera_1_1Phase.html" target="_top" xlink:title="Class Phase is the base class for phases of matter, managing the species and elements in a phase...">
<polygon fill="white" stroke="black" points="118,-204.5 118,-223.5 162,-223.5 162,-204.5 118,-204.5"/>
<text text-anchor="middle" x="140" y="-211.5" font-family="FreeSans" font-size="10.00">Phase</text>
</a>
</g>
</g>
<!-- Node4&#45;&gt;Node3 -->
<g id="edge3" class="edge"><title>Node4&#45;&gt;Node3</title>
<path fill="none" stroke="midnightblue" d="M157.994,-197.774C173.347,-184.784 194.889,-166.555 207.551,-155.841"/>
<polygon fill="midnightblue" stroke="midnightblue" points="155.57,-195.24 150.197,-204.372 160.092,-200.584 155.57,-195.24"/>
</g>
<!-- Node5 -->
<g id="node5" class="node"><title>Node5</title>
<g id="a_node5"><a xlink:href="classCantera_1_1XML__Node.html" target="_top" xlink:title="Class XML_Node is a tree&#45;based representation of the contents of an XML file. ">
<polygon fill="white" stroke="black" points="-0.5,-273.5 -0.5,-292.5 64.5,-292.5 64.5,-273.5 -0.5,-273.5"/>
<text text-anchor="middle" x="32" y="-280.5" font-family="FreeSans" font-size="10.00">XML_Node</text>
</a>
</g>
</g>
<!-- Node5&#45;&gt;Node4 -->
<g id="edge4" class="edge"><title>Node5&#45;&gt;Node4</title>
<path fill="none" stroke="#9a32cd" stroke-dasharray="5,2" d="M54.6907,-267.923C76.317,-254.507 108.179,-234.741 126.219,-223.549"/>
<polygon fill="#9a32cd" stroke="#9a32cd" points="52.7716,-264.995 46.1191,-273.241 56.4618,-270.943 52.7716,-264.995"/>
<text text-anchor="middle" x="111.5" y="-245.5" font-family="FreeSans" font-size="10.00"> m_xml</text>
</g>
<!-- Node5&#45;&gt;Node5 -->
<g id="edge5" class="edge"><title>Node5&#45;&gt;Node5</title>
<path fill="none" stroke="#9a32cd" stroke-dasharray="5,2" d="M74.791,-288.255C79.1888,-287.22 82,-285.468 82,-283 82,-278.949 74.4296,-276.829 64.7005,-276.639"/>
<polygon fill="#9a32cd" stroke="#9a32cd" points="74.2595,-284.792 64.7005,-289.361 75.0224,-291.75 74.2595,-284.792"/>
<text text-anchor="middle" x="102.5" y="-286" font-family="FreeSans" font-size="10.00"> m_root</text>
<text text-anchor="middle" x="102.5" y="-275" font-family="FreeSans" font-size="10.00">m_parent</text>
</g>
<!-- Node6 -->
<g id="node6" class="node"><title>Node6</title>
<g id="a_node6"><a xlink:href="classCantera_1_1ValueCache.html" target="_top" xlink:title="ValueCache">
<polygon fill="white" stroke="black" points="142,-273.5 142,-292.5 210,-292.5 210,-273.5 142,-273.5"/>
<text text-anchor="middle" x="176" y="-280.5" font-family="FreeSans" font-size="10.00">ValueCache</text>
</a>
</g>
</g>
<!-- Node6&#45;&gt;Node4 -->
<g id="edge6" class="edge"><title>Node6&#45;&gt;Node4</title>
<path fill="none" stroke="#9a32cd" stroke-dasharray="5,2" d="M166.43,-264.188C159.368,-251.046 150.07,-233.742 144.594,-223.549"/>
<polygon fill="#9a32cd" stroke="#9a32cd" points="163.477,-266.089 171.294,-273.241 169.644,-262.775 163.477,-266.089"/>
<text text-anchor="middle" x="182.5" y="-245.5" font-family="FreeSans" font-size="10.00"> m_cache</text>
</g>
<!-- Node7 -->
<g id="node7" class="node"><title>Node7</title>
<g id="a_node7"><a xlink:href="classCantera_1_1SpeciesThermo.html" target="_top" xlink:title="Pure Virtual base class for the species thermo manager classes. ">
<polygon fill="white" stroke="black" points="180,-204.5 180,-223.5 264,-223.5 264,-204.5 180,-204.5"/>
<text text-anchor="middle" x="222" y="-211.5" font-family="FreeSans" font-size="10.00">SpeciesThermo</text>
</a>
</g>
</g>
<!-- Node7&#45;&gt;Node3 -->
<g id="edge7" class="edge"><title>Node7&#45;&gt;Node3</title>
<path fill="none" stroke="#9a32cd" stroke-dasharray="5,2" d="M220.851,-194.041C220.089,-181.472 219.125,-165.563 218.536,-155.841"/>
<polygon fill="#9a32cd" stroke="#9a32cd" points="217.378,-194.602 221.477,-204.372 224.366,-194.178 217.378,-194.602"/>
<text text-anchor="middle" x="249" y="-177.5" font-family="FreeSans" font-size="10.00"> m_spthermo</text>
</g>
<!-- Node8 -->
<g id="node8" class="node"><title>Node8</title>
<g id="a_node8"><a xlink:href="classCantera_1_1DenseMatrix.html" target="_top" xlink:title="A class for full (non&#45;sparse) matrices with Fortran&#45;compatible data storage, which adds matrix operat...">
<polygon fill="white" stroke="black" points="275,-136.5 275,-155.5 345,-155.5 345,-136.5 275,-136.5"/>
<text text-anchor="middle" x="310" y="-143.5" font-family="FreeSans" font-size="10.00">DenseMatrix</text>
</a>
</g>
</g>
<!-- Node8&#45;&gt;Node2 -->
<g id="edge8" class="edge"><title>Node8&#45;&gt;Node2</title>
<path fill="none" stroke="#9a32cd" stroke-dasharray="5,2" d="M299.906,-127.565C290.865,-111.949 277.984,-89.7002 270.988,-77.6165"/>
<polygon fill="#9a32cd" stroke="#9a32cd" points="296.913,-129.381 304.953,-136.282 302.971,-125.874 296.913,-129.381"/>
<text text-anchor="middle" x="308" y="-110" font-family="FreeSans" font-size="10.00"> m_Dij</text>
<text text-anchor="middle" x="308" y="-99" font-family="FreeSans" font-size="10.00">m_Eij</text>
</g>
<!-- Node9 -->
<g id="node9" class="node"><title>Node9</title>
<g id="a_node9"><a xlink:href="classCantera_1_1Array2D.html" target="_top" xlink:title="A class for 2D arrays stored in column&#45;major (Fortran&#45;compatible) form. ">
<polygon fill="white" stroke="black" points="284.5,-204.5 284.5,-223.5 335.5,-223.5 335.5,-204.5 284.5,-204.5"/>
<text text-anchor="middle" x="310" y="-211.5" font-family="FreeSans" font-size="10.00">Array2D</text>
</a>
</g>
</g>
<!-- Node9&#45;&gt;Node8 -->
<g id="edge9" class="edge"><title>Node9&#45;&gt;Node8</title>
<path fill="none" stroke="midnightblue" d="M310,-194.041C310,-181.472 310,-165.563 310,-155.841"/>
<polygon fill="midnightblue" stroke="midnightblue" points="306.5,-194.372 310,-204.372 313.5,-194.372 306.5,-194.372"/>
</g>
</g>
</svg>
