<?xml version="1.0" encoding="UTF-8" standalone="no"?>
<!DOCTYPE svg PUBLIC "-//W3C//DTD SVG 1.1//EN"
 "http://www.w3.org/Graphics/SVG/1.1/DTD/svg11.dtd">
<!-- Generated by graphviz version 2.36.0 (20140111.2315)
 -->
<!-- Title: vcs_MultiPhaseEquil Pages: 1 -->
<svg width="349pt" height="284pt"
 viewBox="0.00 0.00 349.00 284.00" xmlns="http://www.w3.org/2000/svg" xmlns:xlink="http://www.w3.org/1999/xlink">
<g id="graph0" class="graph" transform="scale(1 1) rotate(0) translate(4 280)">
<title>vcs_MultiPhaseEquil</title>
<polygon fill="white" stroke="none" points="-4,4 -4,-280 345,-280 345,4 -4,4"/>
<!-- Node1 -->
<g id="node1" class="node"><title>Node1</title>
<polygon fill="#bfbfbf" stroke="black" points="84.5,-0.5 84.5,-19.5 189.5,-19.5 189.5,-0.5 84.5,-0.5"/>
<text text-anchor="middle" x="137" y="-7.5" font-family="FreeSans" font-size="10.00">vcs_MultiPhaseEquil</text>
</g>
<!-- Node2 -->
<g id="node2" class="node"><title>Node2</title>
<g id="a_node2"><a xlink:href="classCantera_1_1VCS__PROB.html" target="_top" xlink:title="Interface class for the vcs thermo equilibrium solver package, which generally describes the problem ...">
<polygon fill="white" stroke="black" points="-0.5,-106.5 -0.5,-125.5 68.5,-125.5 68.5,-106.5 -0.5,-106.5"/>
<text text-anchor="middle" x="34" y="-113.5" font-family="FreeSans" font-size="10.00">VCS_PROB</text>
</a>
</g>
</g>
<!-- Node2&#45;&gt;Node1 -->
<g id="edge1" class="edge"><title>Node2&#45;&gt;Node1</title>
<path fill="none" stroke="#9a32cd" stroke-dasharray="5,2" d="M36.4799,-96.0809C38.4272,-86.898 41.8837,-76.124 48,-68 65.3266,-44.9858 94.8752,-28.7615 115.138,-19.6548"/>
<polygon fill="#9a32cd" stroke="#9a32cd" points="32.9838,-95.7657 34.7758,-106.208 39.8868,-96.9273 32.9838,-95.7657"/>
<text text-anchor="middle" x="68" y="-75.5" font-family="FreeSans" font-size="10.00"> m_vprob</text>
</g>
<!-- Node3 -->
<g id="node3" class="node"><title>Node3</title>
<g id="a_node3"><a xlink:href="classCantera_1_1Array2D.html" target="_top" xlink:title="A class for 2D arrays stored in column&#45;major (Fortran&#45;compatible) form. ">
<polygon fill="white" stroke="black" points="87.5,-256.5 87.5,-275.5 138.5,-275.5 138.5,-256.5 87.5,-256.5"/>
<text text-anchor="middle" x="113" y="-263.5" font-family="FreeSans" font-size="10.00">Array2D</text>
</a>
</g>
</g>
<!-- Node3&#45;&gt;Node2 -->
<g id="edge2" class="edge"><title>Node3&#45;&gt;Node2</title>
<path fill="none" stroke="#9a32cd" stroke-dasharray="5,2" d="M77.3248,-258.75C65.2094,-254.816 52.7816,-248.414 45,-238 19.242,-203.53 27.5507,-147.16 31.9889,-125.682"/>
<polygon fill="#9a32cd" stroke="#9a32cd" points="76.7486,-262.222 87.3194,-261.508 78.6108,-255.474 76.7486,-262.222"/>
<text text-anchor="middle" x="77" y="-207.5" font-family="FreeSans" font-size="10.00"> FormulaMatrix</text>
</g>
<!-- Node5 -->
<g id="node5" class="node"><title>Node5</title>
<g id="a_node5"><a xlink:href="classCantera_1_1DenseMatrix.html" target="_top" xlink:title="A class for full (non&#45;sparse) matrices with Fortran&#45;compatible data storage, which adds matrix operat...">
<polygon fill="white" stroke="black" points="78,-144.5 78,-163.5 148,-163.5 148,-144.5 78,-144.5"/>
<text text-anchor="middle" x="113" y="-151.5" font-family="FreeSans" font-size="10.00">DenseMatrix</text>
</a>
</g>
</g>
<!-- Node3&#45;&gt;Node5 -->
<g id="edge5" class="edge"><title>Node3&#45;&gt;Node5</title>
<path fill="none" stroke="midnightblue" d="M113,-246.348C113,-222.254 113,-181.308 113,-163.591"/>
<polygon fill="midnightblue" stroke="midnightblue" points="109.5,-246.368 113,-256.368 116.5,-246.369 109.5,-246.368"/>
</g>
<!-- Node6 -->
<g id="node6" class="node"><title>Node6</title>
<g id="a_node6"><a xlink:href="classCantera_1_1VCS__SOLVE.html" target="_top" xlink:title="This is the main structure used to hold the internal data used in vcs_solve_TP(), and to solve TP sys...">
<polygon fill="white" stroke="black" points="216.5,-144.5 216.5,-163.5 289.5,-163.5 289.5,-144.5 216.5,-144.5"/>
<text text-anchor="middle" x="253" y="-151.5" font-family="FreeSans" font-size="10.00">VCS_SOLVE</text>
</a>
</g>
</g>
<!-- Node3&#45;&gt;Node6 -->
<g id="edge8" class="edge"><title>Node3&#45;&gt;Node6</title>
<path fill="none" stroke="#9a32cd" stroke-dasharray="5,2" d="M120.604,-246.758C121.771,-243.84 122.939,-240.845 124,-238 133.184,-213.375 123.63,-199.765 143,-182 162.782,-163.858 192.742,-157.386 216.402,-155.298"/>
<polygon fill="#9a32cd" stroke="#9a32cd" points="117.349,-245.472 116.802,-256.053 123.828,-248.122 117.349,-245.472"/>
<text text-anchor="middle" x="205" y="-229.5" font-family="FreeSans" font-size="10.00"> m_formulaMatrix</text>
<text text-anchor="middle" x="205" y="-218.5" font-family="FreeSans" font-size="10.00">m_phaseParticipation</text>
<text text-anchor="middle" x="205" y="-207.5" font-family="FreeSans" font-size="10.00">m_stoichCoeffRxnMatrix</text>
<text text-anchor="middle" x="205" y="-196.5" font-family="FreeSans" font-size="10.00">m_np_dLnActCoeffdMolNum</text>
<text text-anchor="middle" x="205" y="-185.5" font-family="FreeSans" font-size="10.00">m_deltaMolNumPhase</text>
</g>
<!-- Node4 -->
<g id="node4" class="node"><title>Node4</title>
<g id="a_node4"><a xlink:href="classCantera_1_1MultiPhase.html" target="_top" xlink:title="A class for multiphase mixtures. ">
<polygon fill="white" stroke="black" points="151.5,-68.5 151.5,-87.5 216.5,-87.5 216.5,-68.5 151.5,-68.5"/>
<text text-anchor="middle" x="184" y="-75.5" font-family="FreeSans" font-size="10.00">MultiPhase</text>
</a>
</g>
</g>
<!-- Node4&#45;&gt;Node1 -->
<g id="edge3" class="edge"><title>Node4&#45;&gt;Node1</title>
<path fill="none" stroke="#9a32cd" stroke-dasharray="5,2" d="M171.85,-59.9377C162.716,-47.112 150.572,-30.0591 143.296,-19.8411"/>
<polygon fill="#9a32cd" stroke="#9a32cd" points="169.204,-62.2562 177.856,-68.3717 174.906,-58.1957 169.204,-62.2562"/>
<text text-anchor="middle" x="180.5" y="-41.5" font-family="FreeSans" font-size="10.00"> m_mix</text>
</g>
<!-- Node5&#45;&gt;Node1 -->
<g id="edge9" class="edge"><title>Node5&#45;&gt;Node1</title>
<path fill="none" stroke="#9a32cd" stroke-dasharray="5,2" d="M113.066,-134.056C113.426,-116.721 114.728,-90.4346 119,-68 122.339,-50.4657 129.317,-30.7624 133.536,-19.72"/>
<polygon fill="#9a32cd" stroke="#9a32cd" points="109.562,-134.429 112.942,-144.47 116.561,-134.512 109.562,-134.429"/>
<text text-anchor="middle" x="130.5" y="-75.5" font-family="FreeSans" font-size="10.00"> m_N</text>
</g>
<!-- Node5&#45;&gt;Node4 -->
<g id="edge4" class="edge"><title>Node5&#45;&gt;Node4</title>
<path fill="none" stroke="#9a32cd" stroke-dasharray="5,2" d="M128.693,-136.644C143.154,-121.572 164.064,-99.7784 175.588,-87.7679"/>
<polygon fill="#9a32cd" stroke="#9a32cd" points="125.821,-134.582 121.423,-144.221 130.872,-139.428 125.821,-134.582"/>
<text text-anchor="middle" x="178.5" y="-113.5" font-family="FreeSans" font-size="10.00"> m_atoms</text>
</g>
<!-- Node6&#45;&gt;Node1 -->
<g id="edge6" class="edge"><title>Node6&#45;&gt;Node1</title>
<path fill="none" stroke="#9a32cd" stroke-dasharray="5,2" d="M250.026,-134.243C244.829,-108.147 231.477,-61.4591 200,-38 189.409,-30.1068 176.158,-23.9824 164.545,-19.5769"/>
<polygon fill="#9a32cd" stroke="#9a32cd" points="246.625,-135.105 251.83,-144.333 253.515,-133.873 246.625,-135.105"/>
<text text-anchor="middle" x="258.5" y="-75.5" font-family="FreeSans" font-size="10.00"> m_vsolve</text>
</g>
<!-- Node7 -->
<g id="node7" class="node"><title>Node7</title>
<g id="a_node7"><a xlink:href="classCantera_1_1VCS__COUNTERS.html" target="_top" xlink:title="Class to keep track of time and iterations. ">
<polygon fill="white" stroke="black" points="245.5,-256.5 245.5,-275.5 340.5,-275.5 340.5,-256.5 245.5,-256.5"/>
<text text-anchor="middle" x="293" y="-263.5" font-family="FreeSans" font-size="10.00">VCS_COUNTERS</text>
</a>
</g>
</g>
<!-- Node7&#45;&gt;Node6 -->
<g id="edge7" class="edge"><title>Node7&#45;&gt;Node6</title>
<path fill="none" stroke="#9a32cd" stroke-dasharray="5,2" d="M289.918,-246.558C286.626,-229.337 280.549,-203.181 271,-182 268.036,-175.426 263.536,-168.676 259.777,-163.57"/>
<polygon fill="#9a32cd" stroke="#9a32cd" points="286.48,-247.217 291.688,-256.443 293.371,-245.983 286.48,-247.217"/>
<text text-anchor="middle" x="312" y="-207.5" font-family="FreeSans" font-size="10.00"> m_VCount</text>
</g>
</g>
</svg>
