<?xml version="1.0" encoding="UTF-8" standalone="no"?>
<!DOCTYPE svg PUBLIC "-//W3C//DTD SVG 1.1//EN"
 "http://www.w3.org/Graphics/SVG/1.1/DTD/svg11.dtd">
<!-- Generated by graphviz version 2.36.0 (20140111.2315)
 -->
<!-- Title: STITbyPDSS Pages: 1 -->
<svg width="536pt" height="300pt"
 viewBox="0.00 0.00 536.00 300.00" xmlns="http://www.w3.org/2000/svg" xmlns:xlink="http://www.w3.org/1999/xlink">
<g id="graph0" class="graph" transform="scale(1 1) rotate(0) translate(4 296)">
<title>STITbyPDSS</title>
<polygon fill="white" stroke="none" points="-4,4 -4,-296 532,-296 532,4 -4,4"/>
<!-- Node1 -->
<g id="node1" class="node"><title>Node1</title>
<polygon fill="#bfbfbf" stroke="black" points="120.5,-0.5 120.5,-19.5 195.5,-19.5 195.5,-0.5 120.5,-0.5"/>
<text text-anchor="middle" x="158" y="-7.5" font-family="FreeSans" font-size="10.00">STITbyPDSS</text>
</g>
<!-- Node2 -->
<g id="node2" class="node"><title>Node2</title>
<g id="a_node2"><a xlink:href="classCantera_1_1SpeciesThermoInterpType.html" target="_top" xlink:title="Pure Virtual Base class for the thermodynamic manager for an individual species&#39; reference state...">
<polygon fill="white" stroke="black" points="0,-68.5 0,-87.5 130,-87.5 130,-68.5 0,-68.5"/>
<text text-anchor="middle" x="65" y="-75.5" font-family="FreeSans" font-size="10.00">SpeciesThermoInterpType</text>
</a>
</g>
</g>
<!-- Node2&#45;&gt;Node1 -->
<g id="edge1" class="edge"><title>Node2&#45;&gt;Node1</title>
<path fill="none" stroke="midnightblue" d="M85.4951,-62.4551C103.971,-49.3431 130.52,-30.5016 145.839,-19.6305"/>
<polygon fill="midnightblue" stroke="midnightblue" points="83.2876,-59.7299 77.1581,-68.3717 87.3388,-65.4384 83.2876,-59.7299"/>
</g>
<!-- Node3 -->
<g id="node3" class="node"><title>Node3</title>
<g id="a_node3"><a xlink:href="classCantera_1_1VPSSMgr.html" target="_top" xlink:title="Virtual base class for the classes that manage the calculation of standard state properties for all t...">
<polygon fill="white" stroke="black" points="244.5,-204.5 244.5,-223.5 303.5,-223.5 303.5,-204.5 244.5,-204.5"/>
<text text-anchor="middle" x="274" y="-211.5" font-family="FreeSans" font-size="10.00">VPSSMgr</text>
</a>
</g>
</g>
<!-- Node3&#45;&gt;Node1 -->
<g id="edge2" class="edge"><title>Node3&#45;&gt;Node1</title>
<path fill="none" stroke="#9a32cd" stroke-dasharray="5,2" d="M255.701,-197.902C235.905,-180.6 204.795,-150.422 187,-118 168.571,-84.4243 161.27,-38.3921 158.932,-19.558"/>
<polygon fill="#9a32cd" stroke="#9a32cd" points="253.545,-200.663 263.421,-204.499 258.092,-195.342 253.545,-200.663"/>
<text text-anchor="middle" x="221" y="-109.5" font-family="FreeSans" font-size="10.00"> m_vpssmgr_ptr</text>
</g>
<!-- Node5 -->
<g id="node5" class="node"><title>Node5</title>
<g id="a_node5"><a xlink:href="classCantera_1_1VPStandardStateTP.html" target="_top" xlink:title="This is a filter class for ThermoPhase that implements some prepatory steps for efficiently handling ...">
<polygon fill="white" stroke="black" points="327,-136.5 327,-155.5 431,-155.5 431,-136.5 327,-136.5"/>
<text text-anchor="middle" x="379" y="-143.5" font-family="FreeSans" font-size="10.00">VPStandardStateTP</text>
</a>
</g>
</g>
<!-- Node3&#45;&gt;Node5 -->
<g id="edge8" class="edge"><title>Node3&#45;&gt;Node5</title>
<path fill="none" stroke="#9a32cd" stroke-dasharray="5,2" d="M267.52,-194.167C266.328,-187.191 266.612,-179.62 271,-174 278.226,-164.746 302.92,-158.194 326.874,-153.864"/>
<polygon fill="#9a32cd" stroke="#9a32cd" points="264.259,-195.521 270.23,-204.273 271.02,-193.708 264.259,-195.521"/>
<text text-anchor="middle" x="300.5" y="-177.5" font-family="FreeSans" font-size="10.00"> m_VPSS_ptr</text>
</g>
<!-- Node8 -->
<g id="node8" class="node"><title>Node8</title>
<g id="a_node8"><a xlink:href="classCantera_1_1PDSS.html" target="_top" xlink:title="Virtual base class for a species with a pressure dependent standard state. ">
<polygon fill="white" stroke="black" points="270,-68.5 270,-87.5 314,-87.5 314,-68.5 270,-68.5"/>
<text text-anchor="middle" x="292" y="-75.5" font-family="FreeSans" font-size="10.00">PDSS</text>
</a>
</g>
</g>
<!-- Node3&#45;&gt;Node8 -->
<g id="edge11" class="edge"><title>Node3&#45;&gt;Node8</title>
<path fill="none" stroke="#9a32cd" stroke-dasharray="5,2" d="M262.405,-195.835C253.324,-180.199 243.266,-156.49 250,-136 256.447,-116.381 272.52,-97.9644 282.809,-87.6209"/>
<polygon fill="#9a32cd" stroke="#9a32cd" points="259.507,-197.801 267.774,-204.427 265.443,-194.092 259.507,-197.801"/>
<text text-anchor="middle" x="284" y="-143.5" font-family="FreeSans" font-size="10.00"> m_vpssmgr_ptr</text>
</g>
<!-- Node4 -->
<g id="node4" class="node"><title>Node4</title>
<g id="a_node4"><a xlink:href="classCantera_1_1SpeciesThermo.html" target="_top" xlink:title="Pure Virtual base class for the species thermo manager classes. ">
<polygon fill="white" stroke="black" points="346,-272.5 346,-291.5 430,-291.5 430,-272.5 346,-272.5"/>
<text text-anchor="middle" x="388" y="-279.5" font-family="FreeSans" font-size="10.00">SpeciesThermo</text>
</a>
</g>
</g>
<!-- Node4&#45;&gt;Node3 -->
<g id="edge3" class="edge"><title>Node4&#45;&gt;Node3</title>
<path fill="none" stroke="#9a32cd" stroke-dasharray="5,2" d="M356.659,-268.333C347.247,-264.149 337.028,-259.219 328,-254 312.181,-244.855 295.319,-232.143 284.727,-223.75"/>
<polygon fill="#9a32cd" stroke="#9a32cd" points="355.524,-271.655 366.092,-272.403 358.297,-265.228 355.524,-271.655"/>
<text text-anchor="middle" x="356" y="-245.5" font-family="FreeSans" font-size="10.00"> m_spthermo</text>
</g>
<!-- Node6 -->
<g id="node6" class="node"><title>Node6</title>
<g id="a_node6"><a xlink:href="classCantera_1_1ThermoPhase.html" target="_top" xlink:title="Base class for a phase with thermodynamic properties. ">
<polygon fill="white" stroke="black" points="353.5,-204.5 353.5,-223.5 430.5,-223.5 430.5,-204.5 353.5,-204.5"/>
<text text-anchor="middle" x="392" y="-211.5" font-family="FreeSans" font-size="10.00">ThermoPhase</text>
</a>
</g>
</g>
<!-- Node4&#45;&gt;Node6 -->
<g id="edge7" class="edge"><title>Node4&#45;&gt;Node6</title>
<path fill="none" stroke="#9a32cd" stroke-dasharray="5,2" d="M388.164,-261.991C388.305,-255.63 388.556,-248.504 389,-242 389.411,-235.977 390.161,-229.227 390.808,-223.983"/>
<polygon fill="#9a32cd" stroke="#9a32cd" points="384.659,-262.265 388.011,-272.316 391.659,-262.368 384.659,-262.265"/>
<text text-anchor="middle" x="417" y="-245.5" font-family="FreeSans" font-size="10.00"> m_spthermo</text>
</g>
<!-- Node4&#45;&gt;Node8 -->
<g id="edge10" class="edge"><title>Node4&#45;&gt;Node8</title>
<path fill="none" stroke="#9a32cd" stroke-dasharray="5,2" d="M430.791,-267.583C436.427,-264.04 441.465,-259.586 445,-254 460.707,-229.18 571.982,-328.414 440,-136 411.42,-94.3345 347.77,-83.1139 314.011,-80.1003"/>
<polygon fill="#9a32cd" stroke="#9a32cd" points="428.792,-264.68 421.574,-272.436 432.053,-270.874 428.792,-264.68"/>
<text text-anchor="middle" x="500" y="-177.5" font-family="FreeSans" font-size="10.00"> m_spthermo</text>
</g>
<!-- Node5&#45;&gt;Node3 -->
<g id="edge4" class="edge"><title>Node5&#45;&gt;Node3</title>
<path fill="none" stroke="#9a32cd" stroke-dasharray="5,2" d="M363.245,-162.671C354.996,-170.335 344.455,-179.321 334,-186 322.449,-193.379 308.543,-199.773 297.028,-204.484"/>
<polygon fill="#9a32cd" stroke="#9a32cd" points="365.844,-165.029 370.643,-155.583 361.001,-159.974 365.844,-165.029"/>
<text text-anchor="middle" x="374.5" y="-177.5" font-family="FreeSans" font-size="10.00"> m_vptp_ptr</text>
</g>
<!-- Node5&#45;&gt;Node8 -->
<g id="edge12" class="edge"><title>Node5&#45;&gt;Node8</title>
<path fill="none" stroke="#9a32cd" stroke-dasharray="5,2" d="M359.354,-130.096C342.092,-117.001 317.576,-98.4028 303.377,-87.6305"/>
<polygon fill="#9a32cd" stroke="#9a32cd" points="357.544,-133.116 367.626,-136.372 361.775,-127.539 357.544,-133.116"/>
<text text-anchor="middle" x="355.5" y="-109.5" font-family="FreeSans" font-size="10.00"> m_tp</text>
</g>
<!-- Node6&#45;&gt;Node5 -->
<g id="edge5" class="edge"><title>Node6&#45;&gt;Node5</title>
<path fill="none" stroke="midnightblue" d="M405.244,-195.824C408.89,-189.003 411.093,-181.105 408,-174 404.76,-166.557 398.346,-160.239 392.372,-155.591"/>
<polygon fill="midnightblue" stroke="midnightblue" points="402.261,-193.991 399.738,-204.281 408.127,-197.81 402.261,-193.991"/>
</g>
<!-- Node7 -->
<g id="node7" class="node"><title>Node7</title>
<g id="a_node7"><a xlink:href="classCantera_1_1Phase.html" target="_top" xlink:title="Class Phase is the base class for phases of matter, managing the species and elements in a phase...">
<polygon fill="white" stroke="red" points="462,-272.5 462,-291.5 506,-291.5 506,-272.5 462,-272.5"/>
<text text-anchor="middle" x="484" y="-279.5" font-family="FreeSans" font-size="10.00">Phase</text>
</a>
</g>
</g>
<!-- Node7&#45;&gt;Node6 -->
<g id="edge6" class="edge"><title>Node7&#45;&gt;Node6</title>
<path fill="none" stroke="midnightblue" d="M471.475,-264.232C465.301,-256.761 457.386,-248.255 449,-242 438.819,-234.405 426.161,-228.15 415.361,-223.579"/>
<polygon fill="midnightblue" stroke="midnightblue" points="468.914,-266.637 477.848,-272.332 474.415,-262.309 468.914,-266.637"/>
</g>
<!-- Node8&#45;&gt;Node1 -->
<g id="edge9" class="edge"><title>Node8&#45;&gt;Node1</title>
<path fill="none" stroke="#9a32cd" stroke-dasharray="5,2" d="M265.326,-63.8621C238.652,-50.7239 198.397,-30.8969 175.522,-19.6305"/>
<polygon fill="#9a32cd" stroke="#9a32cd" points="263.964,-67.0929 274.482,-68.3717 267.057,-60.8133 263.964,-67.0929"/>
<text text-anchor="middle" x="268" y="-41.5" font-family="FreeSans" font-size="10.00"> m_PDSS_ptr</text>
</g>
</g>
</svg>
