<?xml version="1.0" encoding="UTF-8" standalone="no"?>
<!DOCTYPE svg PUBLIC "-//W3C//DTD SVG 1.1//EN"
 "http://www.w3.org/Graphics/SVG/1.1/DTD/svg11.dtd">
<!-- Generated by graphviz version 2.36.0 (20140111.2315)
 -->
<!-- Title: clockWC.cpp Pages: 1 -->
<svg width="151pt" height="140pt"
 viewBox="0.00 0.00 151.00 140.00" xmlns="http://www.w3.org/2000/svg" xmlns:xlink="http://www.w3.org/1999/xlink">
<g id="graph0" class="graph" transform="scale(1 1) rotate(0) translate(4 136)">
<title>clockWC.cpp</title>
<polygon fill="white" stroke="none" points="-4,4 -4,-136 147,-136 147,4 -4,4"/>
<!-- Node1 -->
<g id="node1" class="node"><title>Node1</title>
<polygon fill="#bfbfbf" stroke="black" points="0,-112.5 0,-131.5 74,-131.5 74,-112.5 0,-112.5"/>
<text text-anchor="middle" x="37" y="-119.5" font-family="FreeSans" font-size="10.00">clockWC.cpp</text>
</g>
<!-- Node2 -->
<g id="node2" class="node"><title>Node2</title>
<polygon fill="white" stroke="#bfbfbf" points="15.5,-0.5 15.5,-19.5 58.5,-19.5 58.5,-0.5 15.5,-0.5"/>
<text text-anchor="middle" x="37" y="-7.5" font-family="FreeSans" font-size="10.00">time.h</text>
</g>
<!-- Node1&#45;&gt;Node2 -->
<g id="edge1" class="edge"><title>Node1&#45;&gt;Node2</title>
<path fill="none" stroke="midnightblue" d="M30.3713,-112.275C24.2349,-103.607 15.5421,-89.6693 12,-76 7.65595,-59.2358 15.9992,-40.8827 24.1924,-27.9668"/>
<polygon fill="midnightblue" stroke="midnightblue" points="27.1506,-29.8423 29.9482,-19.6235 21.3887,-25.8673 27.1506,-29.8423"/>
</g>
<!-- Node3 -->
<g id="node3" class="node"><title>Node3</title>
<g id="a_node3"><a xlink:href="clockWC_8h.html" target="_top" xlink:title="Declarations for a simple class that implements an Ansi C wall clock timer (see Cantera::clockWC). ">
<polygon fill="white" stroke="black" points="21,-56.5 21,-75.5 143,-75.5 143,-56.5 21,-56.5"/>
<text text-anchor="middle" x="82" y="-63.5" font-family="FreeSans" font-size="10.00">cantera/base/clockWC.h</text>
</a>
</g>
</g>
<!-- Node1&#45;&gt;Node3 -->
<g id="edge2" class="edge"><title>Node1&#45;&gt;Node3</title>
<path fill="none" stroke="midnightblue" d="M44.4308,-112.083C50.8527,-104.377 60.3056,-93.0333 68.1225,-83.6531"/>
<polygon fill="midnightblue" stroke="midnightblue" points="70.9943,-85.674 74.7074,-75.7511 65.6168,-81.1927 70.9943,-85.674"/>
</g>
<!-- Node3&#45;&gt;Node2 -->
<g id="edge3" class="edge"><title>Node3&#45;&gt;Node2</title>
<path fill="none" stroke="midnightblue" d="M74.5692,-56.083C68.1473,-48.3768 58.6944,-37.0333 50.8775,-27.6531"/>
<polygon fill="midnightblue" stroke="midnightblue" points="53.3832,-25.1927 44.2926,-19.7511 48.0057,-29.674 53.3832,-25.1927"/>
</g>
</g>
</svg>
