<?xml version="1.0" encoding="UTF-8" standalone="no"?>
<!DOCTYPE svg PUBLIC "-//W3C//DTD SVG 1.1//EN"
 "http://www.w3.org/Graphics/SVG/1.1/DTD/svg11.dtd">
<!-- Generated by graphviz version 2.36.0 (20140111.2315)
 -->
<!-- Title: ctml.h Pages: 1 -->
<svg width="5801pt" height="84pt"
 viewBox="0.00 0.00 5801.00 84.00" xmlns="http://www.w3.org/2000/svg" xmlns:xlink="http://www.w3.org/1999/xlink">
<g id="graph0" class="graph" transform="scale(1 1) rotate(0) translate(4 80)">
<title>ctml.h</title>
<polygon fill="white" stroke="none" points="-4,4 -4,-80 5797,-80 5797,4 -4,4"/>
<!-- Node1 -->
<g id="node1" class="node"><title>Node1</title>
<polygon fill="#bfbfbf" stroke="black" points="2736.5,-56.5 2736.5,-75.5 2779.5,-75.5 2779.5,-56.5 2736.5,-56.5"/>
<text text-anchor="middle" x="2758" y="-63.5" font-family="FreeSans" font-size="10.00">ctml.h</text>
</g>
<!-- Node2 -->
<g id="node2" class="node"><title>Node2</title>
<g id="a_node2"><a xlink:href="application_8cpp.html" target="_top" xlink:title="application.cpp">
<polygon fill="white" stroke="black" points="-0.5,-0.5 -0.5,-19.5 80.5,-19.5 80.5,-0.5 -0.5,-0.5"/>
<text text-anchor="middle" x="40" y="-7.5" font-family="FreeSans" font-size="10.00">application.cpp</text>
</a>
</g>
</g>
<!-- Node1&#45;&gt;Node2 -->
<g id="edge1" class="edge"><title>Node1&#45;&gt;Node2</title>
<path fill="none" stroke="midnightblue" d="M2725.93,-64.7802C2442.11,-62.7936 363.893,-47.3741 89,-20 86.2459,-19.7257 83.4146,-19.3794 80.5686,-18.9833"/>
<polygon fill="midnightblue" stroke="midnightblue" points="2726.31,-68.2829 2736.33,-64.8527 2726.36,-61.2831 2726.31,-68.2829"/>
</g>
<!-- Node3 -->
<g id="node3" class="node"><title>Node3</title>
<g id="a_node3"><a xlink:href="ct2ctml_8cpp.html" target="_top" xlink:title="Driver for the system call to the python executable that converts cti files to ctml files (see Input ...">
<polygon fill="white" stroke="black" points="98.5,-0.5 98.5,-19.5 165.5,-19.5 165.5,-0.5 98.5,-0.5"/>
<text text-anchor="middle" x="132" y="-7.5" font-family="FreeSans" font-size="10.00">ct2ctml.cpp</text>
</a>
</g>
</g>
<!-- Node1&#45;&gt;Node3 -->
<g id="edge2" class="edge"><title>Node1&#45;&gt;Node3</title>
<path fill="none" stroke="midnightblue" d="M2726.08,-64.8192C2447.95,-63.1949 439.438,-50.4598 174,-20 171.333,-19.6939 168.585,-19.296 165.833,-18.838"/>
<polygon fill="midnightblue" stroke="midnightblue" points="2726.28,-68.3203 2736.3,-64.8784 2726.32,-61.3204 2726.28,-68.3203"/>
</g>
<!-- Node4 -->
<g id="node4" class="node"><title>Node4</title>
<g id="a_node4"><a xlink:href="ctml_8cpp.html" target="_top" xlink:title="Definitions for functions to read and write CTML. ">
<polygon fill="white" stroke="black" points="183.5,-0.5 183.5,-19.5 236.5,-19.5 236.5,-0.5 183.5,-0.5"/>
<text text-anchor="middle" x="210" y="-7.5" font-family="FreeSans" font-size="10.00">ctml.cpp</text>
</a>
</g>
</g>
<!-- Node1&#45;&gt;Node4 -->
<g id="edge3" class="edge"><title>Node1&#45;&gt;Node4</title>
<path fill="none" stroke="midnightblue" d="M2726.11,-64.8806C2452.33,-63.797 502.218,-54.8838 245,-20 242.264,-19.629 239.435,-19.1197 236.626,-18.5305"/>
<polygon fill="midnightblue" stroke="midnightblue" points="2726.16,-68.3808 2736.17,-64.9199 2726.19,-61.3808 2726.16,-68.3808"/>
</g>
<!-- Node5 -->
<g id="node5" class="node"><title>Node5</title>
<g id="a_node5"><a xlink:href="stringUtils_8cpp.html" target="_top" xlink:title="Contains definitions for string manipulation functions within Cantera. ">
<polygon fill="white" stroke="black" points="254.5,-0.5 254.5,-19.5 331.5,-19.5 331.5,-0.5 254.5,-0.5"/>
<text text-anchor="middle" x="293" y="-7.5" font-family="FreeSans" font-size="10.00">stringUtils.cpp</text>
</a>
</g>
</g>
<!-- Node1&#45;&gt;Node5 -->
<g id="edge4" class="edge"><title>Node1&#45;&gt;Node5</title>
<path fill="none" stroke="midnightblue" d="M2726.22,-65.1376C2477.09,-66.1079 834.416,-70.4947 341,-20 337.964,-19.6893 334.832,-19.2879 331.692,-18.8277"/>
<polygon fill="midnightblue" stroke="midnightblue" points="2726.41,-68.637 2736.4,-65.0968 2726.39,-61.6371 2726.41,-68.637"/>
</g>
<!-- Node6 -->
<g id="node6" class="node"><title>Node6</title>
<g id="a_node6"><a xlink:href="importKinetics_8cpp.html" target="_top" xlink:title="Declarations of global routines for the importing of kinetics data from XML files (see Input File Han...">
<polygon fill="white" stroke="black" points="350,-0.5 350,-19.5 446,-19.5 446,-0.5 350,-0.5"/>
<text text-anchor="middle" x="398" y="-7.5" font-family="FreeSans" font-size="10.00">importKinetics.cpp</text>
</a>
</g>
</g>
<!-- Node1&#45;&gt;Node6 -->
<g id="edge5" class="edge"><title>Node1&#45;&gt;Node6</title>
<path fill="none" stroke="midnightblue" d="M2726.25,-64.9785C2484,-64.7251 924.807,-61.483 455,-20 452.106,-19.7445 449.136,-19.4313 446.145,-19.0769"/>
<polygon fill="midnightblue" stroke="midnightblue" points="2726.47,-68.4786 2736.48,-64.9882 2726.48,-61.4786 2726.47,-68.4786"/>
</g>
<!-- Node7 -->
<g id="node7" class="node"><title>Node7</title>
<g id="a_node7"><a xlink:href="Reaction_8cpp.html" target="_top" xlink:title="Reaction.cpp">
<polygon fill="white" stroke="black" points="464.5,-0.5 464.5,-19.5 537.5,-19.5 537.5,-0.5 464.5,-0.5"/>
<text text-anchor="middle" x="501" y="-7.5" font-family="FreeSans" font-size="10.00">Reaction.cpp</text>
</a>
</g>
</g>
<!-- Node1&#45;&gt;Node7 -->
<g id="edge6" class="edge"><title>Node1&#45;&gt;Node7</title>
<path fill="none" stroke="midnightblue" d="M2726.03,-65.1271C2488.51,-65.955 995.396,-69.1191 546,-20 543.307,-19.7057 540.536,-19.3308 537.754,-18.9019"/>
<polygon fill="midnightblue" stroke="midnightblue" points="2726.4,-68.6259 2736.38,-65.0896 2726.37,-61.6259 2726.4,-68.6259"/>
</g>
<!-- Node8 -->
<g id="node8" class="node"><title>Node8</title>
<g id="a_node8"><a xlink:href="boundaries1D_8cpp.html" target="_top" xlink:title="boundaries1D.cpp">
<polygon fill="white" stroke="black" points="555.5,-0.5 555.5,-19.5 648.5,-19.5 648.5,-0.5 555.5,-0.5"/>
<text text-anchor="middle" x="602" y="-7.5" font-family="FreeSans" font-size="10.00">boundaries1D.cpp</text>
</a>
</g>
</g>
<!-- Node1&#45;&gt;Node8 -->
<g id="edge7" class="edge"><title>Node1&#45;&gt;Node8</title>
<path fill="none" stroke="midnightblue" d="M2726.24,-64.9212C2496.37,-64.2606 1084.55,-58.6602 658,-20 654.96,-19.7245 651.835,-19.3837 648.69,-18.9975"/>
<polygon fill="midnightblue" stroke="midnightblue" points="2726.27,-68.4212 2736.28,-64.949 2726.29,-61.4212 2726.27,-68.4212"/>
</g>
<!-- Node9 -->
<g id="node9" class="node"><title>Node9</title>
<g id="a_node9"><a xlink:href="Domain1D_8cpp.html" target="_top" xlink:title="Domain1D.cpp">
<polygon fill="white" stroke="black" points="667,-0.5 667,-19.5 747,-19.5 747,-0.5 667,-0.5"/>
<text text-anchor="middle" x="707" y="-7.5" font-family="FreeSans" font-size="10.00">Domain1D.cpp</text>
</a>
</g>
</g>
<!-- Node1&#45;&gt;Node9 -->
<g id="edge8" class="edge"><title>Node1&#45;&gt;Node9</title>
<path fill="none" stroke="midnightblue" d="M2726.34,-64.9796C2502.94,-64.7323 1161.35,-61.5151 756,-20 753.075,-19.7004 750.062,-19.3216 747.037,-18.89"/>
<polygon fill="midnightblue" stroke="midnightblue" points="2726.4,-68.4796 2736.4,-64.9895 2726.41,-61.4796 2726.4,-68.4796"/>
</g>
<!-- Node10 -->
<g id="node10" class="node"><title>Node10</title>
<g id="a_node10"><a xlink:href="OneDim_8cpp.html" target="_top" xlink:title="OneDim.cpp">
<polygon fill="white" stroke="black" points="765,-0.5 765,-19.5 835,-19.5 835,-0.5 765,-0.5"/>
<text text-anchor="middle" x="800" y="-7.5" font-family="FreeSans" font-size="10.00">OneDim.cpp</text>
</a>
</g>
</g>
<!-- Node1&#45;&gt;Node10 -->
<g id="edge9" class="edge"><title>Node1&#45;&gt;Node10</title>
<path fill="none" stroke="midnightblue" d="M2726.38,-65.0286C2508.77,-65.1097 1230.3,-63.6959 844,-20 841.211,-19.6845 838.336,-19.2798 835.455,-18.8171"/>
<polygon fill="midnightblue" stroke="midnightblue" points="2726.48,-68.5287 2736.48,-65.0234 2726.48,-61.5287 2726.48,-68.5287"/>
</g>
<!-- Node11 -->
<g id="node11" class="node"><title>Node11</title>
<g id="a_node11"><a xlink:href="StFlow_8cpp.html" target="_top" xlink:title="StFlow.cpp">
<polygon fill="white" stroke="black" points="853.5,-0.5 853.5,-19.5 918.5,-19.5 918.5,-0.5 853.5,-0.5"/>
<text text-anchor="middle" x="886" y="-7.5" font-family="FreeSans" font-size="10.00">StFlow.cpp</text>
</a>
</g>
</g>
<!-- Node1&#45;&gt;Node11 -->
<g id="edge10" class="edge"><title>Node1&#45;&gt;Node11</title>
<path fill="none" stroke="midnightblue" d="M2726.12,-65.0293C2513.33,-65.103 1296.18,-63.5876 928,-20 925.038,-19.6493 921.976,-19.1885 918.918,-18.6605"/>
<polygon fill="midnightblue" stroke="midnightblue" points="2726.3,-68.5293 2736.3,-65.0243 2726.3,-61.5293 2726.3,-68.5293"/>
</g>
<!-- Node12 -->
<g id="node12" class="node"><title>Node12</title>
<g id="a_node12"><a xlink:href="ConstDensityThermo_8cpp.html" target="_top" xlink:title="Declarations for a Thermo manager for incompressible ThermoPhases (see Thermodynamic Properties and C...">
<polygon fill="white" stroke="black" points="937,-0.5 937,-19.5 1061,-19.5 1061,-0.5 937,-0.5"/>
<text text-anchor="middle" x="999" y="-7.5" font-family="FreeSans" font-size="10.00">ConstDensityThermo.cpp</text>
</a>
</g>
</g>
<!-- Node1&#45;&gt;Node12 -->
<g id="edge11" class="edge"><title>Node1&#45;&gt;Node12</title>
<path fill="none" stroke="midnightblue" d="M2726.14,-64.5841C2523.27,-61.8707 1409.59,-45.9848 1070,-20 1067.15,-19.782 1064.24,-19.5305 1061.3,-19.2533"/>
<polygon fill="midnightblue" stroke="midnightblue" points="2726.35,-68.0872 2736.4,-64.7205 2726.45,-61.0878 2726.35,-68.0872"/>
</g>
<!-- Node13 -->
<g id="node13" class="node"><title>Node13</title>
<g id="a_node13"><a xlink:href="DebyeHuckel_8cpp.html" target="_top" xlink:title="Declarations for the DebyeHuckel ThermoPhase object, which models dilute electrolyte solutions (see T...">
<polygon fill="white" stroke="black" points="1079,-0.5 1079,-19.5 1171,-19.5 1171,-0.5 1079,-0.5"/>
<text text-anchor="middle" x="1125" y="-7.5" font-family="FreeSans" font-size="10.00">DebyeHuckel.cpp</text>
</a>
</g>
</g>
<!-- Node1&#45;&gt;Node13 -->
<g id="edge12" class="edge"><title>Node1&#45;&gt;Node13</title>
<path fill="none" stroke="midnightblue" d="M2726.08,-64.6723C2530.84,-62.5799 1495.79,-50.2037 1180,-20 1177.11,-19.7236 1174.14,-19.3884 1171.16,-19.012"/>
<polygon fill="midnightblue" stroke="midnightblue" points="2726.21,-68.1737 2736.24,-64.78 2726.28,-61.1741 2726.21,-68.1737"/>
</g>
<!-- Node14 -->
<g id="node14" class="node"><title>Node14</title>
<g id="a_node14"><a xlink:href="Elements_8cpp.html" target="_top" xlink:title="This file contains a database of atomic weights. ">
<polygon fill="white" stroke="black" points="1189,-0.5 1189,-19.5 1263,-19.5 1263,-0.5 1189,-0.5"/>
<text text-anchor="middle" x="1226" y="-7.5" font-family="FreeSans" font-size="10.00">Elements.cpp</text>
</a>
</g>
</g>
<!-- Node1&#45;&gt;Node14 -->
<g id="edge13" class="edge"><title>Node1&#45;&gt;Node14</title>
<path fill="none" stroke="midnightblue" d="M2726.47,-64.7452C2538.9,-63.1235 1568.11,-53.2269 1272,-20 1269.09,-19.6733 1266.09,-19.2606 1263.08,-18.7924"/>
<polygon fill="midnightblue" stroke="midnightblue" points="2726.47,-68.2452 2736.5,-64.8304 2726.53,-61.2454 2726.47,-68.2452"/>
</g>
<!-- Node15 -->
<g id="node15" class="node"><title>Node15</title>
<g id="a_node15"><a xlink:href="FixedChemPotSSTP_8cpp.html" target="_top" xlink:title="Definition file for the FixedChemPotSSTP class, which represents a fixed&#45;composition incompressible s...">
<polygon fill="white" stroke="black" points="1281.5,-0.5 1281.5,-19.5 1406.5,-19.5 1406.5,-0.5 1281.5,-0.5"/>
<text text-anchor="middle" x="1344" y="-7.5" font-family="FreeSans" font-size="10.00">FixedChemPotSSTP.cpp</text>
</a>
</g>
</g>
<!-- Node1&#45;&gt;Node15 -->
<g id="edge14" class="edge"><title>Node1&#45;&gt;Node15</title>
<path fill="none" stroke="midnightblue" d="M2726,-64.9986C2577.18,-64.7671 1938.02,-61.2924 1416,-20 1412.99,-19.7616 1409.9,-19.4888 1406.79,-19.1901"/>
<polygon fill="midnightblue" stroke="midnightblue" points="2726.24,-68.4988 2736.24,-65.0104 2726.24,-61.4988 2726.24,-68.4988"/>
</g>
<!-- Node16 -->
<g id="node16" class="node"><title>Node16</title>
<g id="a_node16"><a xlink:href="HMWSoln__input_8cpp.html" target="_top" xlink:title="Definitions for the HMWSoln ThermoPhase object, which models concentrated electrolyte solutions (see ...">
<polygon fill="white" stroke="black" points="1425,-0.5 1425,-19.5 1529,-19.5 1529,-0.5 1425,-0.5"/>
<text text-anchor="middle" x="1477" y="-7.5" font-family="FreeSans" font-size="10.00">HMWSoln_input.cpp</text>
</a>
</g>
</g>
<!-- Node1&#45;&gt;Node16 -->
<g id="edge15" class="edge"><title>Node1&#45;&gt;Node16</title>
<path fill="none" stroke="midnightblue" d="M2726.22,-65.106C2586.04,-65.3051 2009.05,-63.3059 1538,-20 1535.12,-19.7354 1532.17,-19.4265 1529.2,-19.0856"/>
<polygon fill="midnightblue" stroke="midnightblue" points="2726.29,-68.606 2736.28,-65.0867 2726.27,-61.606 2726.29,-68.606"/>
</g>
<!-- Node17 -->
<g id="node17" class="node"><title>Node17</title>
<g id="a_node17"><a xlink:href="IdealMolalSoln_8cpp.html" target="_top" xlink:title="ThermoPhase object for the ideal molal equation of state (see Thermodynamic Properties and class Idea...">
<polygon fill="white" stroke="black" points="1547,-0.5 1547,-19.5 1645,-19.5 1645,-0.5 1547,-0.5"/>
<text text-anchor="middle" x="1596" y="-7.5" font-family="FreeSans" font-size="10.00">IdealMolalSoln.cpp</text>
</a>
</g>
</g>
<!-- Node1&#45;&gt;Node17 -->
<g id="edge16" class="edge"><title>Node1&#45;&gt;Node17</title>
<path fill="none" stroke="midnightblue" d="M2725.9,-65.0178C2593.44,-64.8115 2076.46,-61.2534 1654,-20 1651.16,-19.7227 1648.25,-19.3984 1645.31,-19.0407"/>
<polygon fill="midnightblue" stroke="midnightblue" points="2726.14,-68.5179 2736.15,-65.028 2726.15,-61.5179 2726.14,-68.5179"/>
</g>
<!-- Node18 -->
<g id="node18" class="node"><title>Node18</title>
<g id="a_node18"><a xlink:href="IdealSolidSolnPhase_8cpp.html" target="_top" xlink:title="Implementation file for an ideal solid solution model with incompressible thermodynamics (see Thermod...">
<polygon fill="white" stroke="black" points="1663,-0.5 1663,-19.5 1787,-19.5 1787,-0.5 1663,-0.5"/>
<text text-anchor="middle" x="1725" y="-7.5" font-family="FreeSans" font-size="10.00">IdealSolidSolnPhase.cpp</text>
</a>
</g>
</g>
<!-- Node1&#45;&gt;Node18 -->
<g id="edge17" class="edge"><title>Node1&#45;&gt;Node18</title>
<path fill="none" stroke="midnightblue" d="M2726.21,-64.4287C2605.03,-62.0572 2160.62,-51.5873 1796,-20 1793.15,-19.7534 1790.24,-19.4784 1787.31,-19.1822"/>
<polygon fill="midnightblue" stroke="midnightblue" points="2726.22,-67.9295 2736.28,-64.6216 2726.35,-60.9307 2726.22,-67.9295"/>
</g>
<!-- Node19 -->
<g id="node19" class="node"><title>Node19</title>
<g id="a_node19"><a xlink:href="LatticePhase_8cpp.html" target="_top" xlink:title="Definitions for a simple thermodynamics model of a bulk phase derived from ThermoPhase, assuming a lattice of solid atoms (see Thermodynamic Properties and class LatticePhase). ">
<polygon fill="white" stroke="black" points="1805.5,-0.5 1805.5,-19.5 1896.5,-19.5 1896.5,-0.5 1805.5,-0.5"/>
<text text-anchor="middle" x="1851" y="-7.5" font-family="FreeSans" font-size="10.00">LatticePhase.cpp</text>
</a>
</g>
</g>
<!-- Node1&#45;&gt;Node19 -->
<g id="edge18" class="edge"><title>Node1&#45;&gt;Node19</title>
<path fill="none" stroke="midnightblue" d="M2726.16,-64.6098C2613.62,-62.9567 2224.18,-54.9058 1905,-20 1902.26,-19.7004 1899.45,-19.3531 1896.62,-18.9729"/>
<polygon fill="midnightblue" stroke="midnightblue" points="2726.13,-68.1096 2736.18,-64.7505 2726.23,-61.1103 2726.13,-68.1096"/>
</g>
<!-- Node20 -->
<g id="node20" class="node"><title>Node20</title>
<g id="a_node20"><a xlink:href="LatticeSolidPhase_8cpp.html" target="_top" xlink:title="Definitions for a simple thermodynamics model of a bulk solid phase derived from ThermoPhase, assuming an ideal solution model based on a lattice of solid atoms (see Thermodynamic Properties and class LatticeSolidPhase). ">
<polygon fill="white" stroke="black" points="1914.5,-0.5 1914.5,-19.5 2027.5,-19.5 2027.5,-0.5 1914.5,-0.5"/>
<text text-anchor="middle" x="1971" y="-7.5" font-family="FreeSans" font-size="10.00">LatticeSolidPhase.cpp</text>
</a>
</g>
</g>
<!-- Node1&#45;&gt;Node20 -->
<g id="edge19" class="edge"><title>Node1&#45;&gt;Node20</title>
<path fill="none" stroke="midnightblue" d="M2726.25,-63.8757C2625.21,-60.1152 2302.16,-46.6826 2036,-20 2033.28,-19.7273 2030.5,-19.4266 2027.69,-19.1055"/>
<polygon fill="midnightblue" stroke="midnightblue" points="2726.27,-67.3789 2736.39,-64.2484 2726.53,-60.3836 2726.27,-67.3789"/>
</g>
<!-- Node21 -->
<g id="node21" class="node"><title>Node21</title>
<g id="a_node21"><a xlink:href="MargulesVPSSTP_8cpp.html" target="_top" xlink:title="Definitions for ThermoPhase object for phases which employ excess Gibbs free energy formulations rela...">
<polygon fill="white" stroke="black" points="2045.5,-0.5 2045.5,-19.5 2158.5,-19.5 2158.5,-0.5 2045.5,-0.5"/>
<text text-anchor="middle" x="2102" y="-7.5" font-family="FreeSans" font-size="10.00">MargulesVPSSTP.cpp</text>
</a>
</g>
</g>
<!-- Node1&#45;&gt;Node21 -->
<g id="edge20" class="edge"><title>Node1&#45;&gt;Node21</title>
<path fill="none" stroke="midnightblue" d="M2726.3,-63.2756C2637.73,-58.3084 2380.13,-42.8477 2167,-20 2164.28,-19.7086 2161.5,-19.3927 2158.69,-19.0595"/>
<polygon fill="midnightblue" stroke="midnightblue" points="2726.31,-66.7813 2736.49,-63.8422 2726.7,-59.7921 2726.31,-66.7813"/>
</g>
<!-- Node22 -->
<g id="node22" class="node"><title>Node22</title>
<g id="a_node22"><a xlink:href="MetalSHEelectrons_8cpp.html" target="_top" xlink:title="Definition file for the MetalSHEElectrons class, which represents the electrons in a metal that are c...">
<polygon fill="white" stroke="black" points="2176.5,-0.5 2176.5,-19.5 2293.5,-19.5 2293.5,-0.5 2176.5,-0.5"/>
<text text-anchor="middle" x="2235" y="-7.5" font-family="FreeSans" font-size="10.00">MetalSHEelectrons.cpp</text>
</a>
</g>
</g>
<!-- Node1&#45;&gt;Node22 -->
<g id="edge21" class="edge"><title>Node1&#45;&gt;Node22</title>
<path fill="none" stroke="midnightblue" d="M2726.01,-62.2334C2651.56,-55.7083 2460.91,-38.5083 2302,-20 2299.32,-19.6877 2296.58,-19.3589 2293.81,-19.019"/>
<polygon fill="midnightblue" stroke="midnightblue" points="2725.87,-65.7341 2736.14,-63.1175 2726.48,-58.7607 2725.87,-65.7341"/>
</g>
<!-- Node23 -->
<g id="node23" class="node"><title>Node23</title>
<g id="a_node23"><a xlink:href="MineralEQ3_8cpp.html" target="_top" xlink:title="Definition file for the MineralEQ3 class, which represents a fixed&#45;composition incompressible substan...">
<polygon fill="white" stroke="black" points="2311.5,-0.5 2311.5,-19.5 2396.5,-19.5 2396.5,-0.5 2311.5,-0.5"/>
<text text-anchor="middle" x="2354" y="-7.5" font-family="FreeSans" font-size="10.00">MineralEQ3.cpp</text>
</a>
</g>
</g>
<!-- Node1&#45;&gt;Node23 -->
<g id="edge22" class="edge"><title>Node1&#45;&gt;Node23</title>
<path fill="none" stroke="midnightblue" d="M2726.18,-61.4609C2664.22,-54.4559 2523.12,-37.941 2405,-20 2402.24,-19.5815 2399.41,-19.1323 2396.55,-18.6661"/>
<polygon fill="midnightblue" stroke="midnightblue" points="2726.13,-64.9776 2736.46,-62.6181 2726.92,-58.0215 2726.13,-64.9776"/>
</g>
<!-- Node24 -->
<g id="node24" class="node"><title>Node24</title>
<g id="a_node24"><a xlink:href="MixedSolventElectrolyte_8cpp.html" target="_top" xlink:title="Definitions for ThermoPhase object for phases which employ excess Gibbs free energy formulations rela...">
<polygon fill="white" stroke="black" points="2414.5,-0.5 2414.5,-19.5 2551.5,-19.5 2551.5,-0.5 2414.5,-0.5"/>
<text text-anchor="middle" x="2483" y="-7.5" font-family="FreeSans" font-size="10.00">MixedSolventElectrolyte.cpp</text>
</a>
</g>
</g>
<!-- Node1&#45;&gt;Node24 -->
<g id="edge23" class="edge"><title>Node1&#45;&gt;Node24</title>
<path fill="none" stroke="midnightblue" d="M2726.36,-58.7864C2677.12,-49.1179 2582.06,-30.4514 2526.44,-19.5295"/>
<polygon fill="midnightblue" stroke="midnightblue" points="2725.93,-62.2702 2736.42,-60.7627 2727.28,-55.4014 2725.93,-62.2702"/>
</g>
<!-- Node25 -->
<g id="node25" class="node"><title>Node25</title>
<g id="a_node25"><a xlink:href="MixtureFugacityTP_8cpp.html" target="_top" xlink:title="Methods file for a derived class of ThermoPhase that handles non&#45;ideal mixtures based on the fugacity...">
<polygon fill="white" stroke="black" points="2570,-0.5 2570,-19.5 2686,-19.5 2686,-0.5 2570,-0.5"/>
<text text-anchor="middle" x="2628" y="-7.5" font-family="FreeSans" font-size="10.00">MixtureFugacityTP.cpp</text>
</a>
</g>
</g>
<!-- Node1&#45;&gt;Node25 -->
<g id="edge24" class="edge"><title>Node1&#45;&gt;Node25</title>
<path fill="none" stroke="midnightblue" d="M2727.91,-52.503C2703.54,-42.3795 2669.86,-28.388 2648.5,-19.5164"/>
<polygon fill="midnightblue" stroke="midnightblue" points="2726.82,-55.8397 2737.4,-56.4435 2729.51,-49.3752 2726.82,-55.8397"/>
</g>
<!-- Node26 -->
<g id="node26" class="node"><title>Node26</title>
<g id="a_node26"><a xlink:href="MolalityVPSSTP_8cpp.html" target="_top" xlink:title="Definitions for intermediate ThermoPhase object for phases which employ molality based activity coeff...">
<polygon fill="white" stroke="black" points="2704.5,-0.5 2704.5,-19.5 2811.5,-19.5 2811.5,-0.5 2704.5,-0.5"/>
<text text-anchor="middle" x="2758" y="-7.5" font-family="FreeSans" font-size="10.00">MolalityVPSSTP.cpp</text>
</a>
</g>
</g>
<!-- Node1&#45;&gt;Node26 -->
<g id="edge25" class="edge"><title>Node1&#45;&gt;Node26</title>
<path fill="none" stroke="midnightblue" d="M2758,-45.8045C2758,-36.9102 2758,-26.7798 2758,-19.7511"/>
<polygon fill="midnightblue" stroke="midnightblue" points="2754.5,-46.083 2758,-56.083 2761.5,-46.083 2754.5,-46.083"/>
</g>
<!-- Node27 -->
<g id="node27" class="node"><title>Node27</title>
<g id="a_node27"><a xlink:href="Mu0Poly_8cpp.html" target="_top" xlink:title="Definitions for a single&#45;species standard state object derived from SpeciesThermoInterpType based on ...">
<polygon fill="white" stroke="black" points="2830,-0.5 2830,-19.5 2902,-19.5 2902,-0.5 2830,-0.5"/>
<text text-anchor="middle" x="2866" y="-7.5" font-family="FreeSans" font-size="10.00">Mu0Poly.cpp</text>
</a>
</g>
</g>
<!-- Node1&#45;&gt;Node27 -->
<g id="edge26" class="edge"><title>Node1&#45;&gt;Node27</title>
<path fill="none" stroke="midnightblue" d="M2784.55,-51.7261C2804.55,-41.7271 2831.39,-28.3065 2848.69,-19.6545"/>
<polygon fill="midnightblue" stroke="midnightblue" points="2782.73,-48.7213 2775.35,-56.324 2785.86,-54.9823 2782.73,-48.7213"/>
</g>
<!-- Node28 -->
<g id="node28" class="node"><title>Node28</title>
<g id="a_node28"><a xlink:href="PDSS_8cpp.html" target="_top" xlink:title="Implementation of a pressure dependent standard state virtual function (see class PDSS)...">
<polygon fill="white" stroke="black" points="2920,-0.5 2920,-19.5 2982,-19.5 2982,-0.5 2920,-0.5"/>
<text text-anchor="middle" x="2951" y="-7.5" font-family="FreeSans" font-size="10.00">PDSS.cpp</text>
</a>
</g>
</g>
<!-- Node1&#45;&gt;Node28 -->
<g id="edge27" class="edge"><title>Node1&#45;&gt;Node28</title>
<path fill="none" stroke="midnightblue" d="M2789.78,-56.1069C2826,-45.9754 2884.76,-29.5346 2920.45,-19.5488"/>
<polygon fill="midnightblue" stroke="midnightblue" points="2788.45,-52.8454 2779.76,-58.9105 2790.34,-59.5865 2788.45,-52.8454"/>
</g>
<!-- Node29 -->
<g id="node29" class="node"><title>Node29</title>
<g id="a_node29"><a xlink:href="PDSS__ConstVol_8cpp.html" target="_top" xlink:title="Implementation of a pressure dependent standard state virtual function. ">
<polygon fill="white" stroke="black" points="3000.5,-0.5 3000.5,-19.5 3105.5,-19.5 3105.5,-0.5 3000.5,-0.5"/>
<text text-anchor="middle" x="3053" y="-7.5" font-family="FreeSans" font-size="10.00">PDSS_ConstVol.cpp</text>
</a>
</g>
</g>
<!-- Node1&#45;&gt;Node29 -->
<g id="edge28" class="edge"><title>Node1&#45;&gt;Node29</title>
<path fill="none" stroke="midnightblue" d="M2789.69,-59.1988C2841.8,-49.6603 2945.82,-30.6194 3006.35,-19.5386"/>
<polygon fill="midnightblue" stroke="midnightblue" points="2788.9,-55.7858 2779.69,-61.0293 2790.16,-62.6714 2788.9,-55.7858"/>
</g>
<!-- Node30 -->
<g id="node30" class="node"><title>Node30</title>
<g id="a_node30"><a xlink:href="PDSS__HKFT_8cpp.html" target="_top" xlink:title="Definitions for the class PDSS_HKFT (pressure dependent standard state) which handles calculations fo...">
<polygon fill="white" stroke="black" points="3124,-0.5 3124,-19.5 3216,-19.5 3216,-0.5 3124,-0.5"/>
<text text-anchor="middle" x="3170" y="-7.5" font-family="FreeSans" font-size="10.00">PDSS_HKFT.cpp</text>
</a>
</g>
</g>
<!-- Node1&#45;&gt;Node30 -->
<g id="edge29" class="edge"><title>Node1&#45;&gt;Node30</title>
<path fill="none" stroke="midnightblue" d="M2789.68,-61.3577C2851.92,-54.122 2994.5,-37.1506 3114,-20 3117.22,-19.5384 3120.53,-19.0462 3123.87,-18.539"/>
<polygon fill="midnightblue" stroke="midnightblue" points="2789.24,-57.8857 2779.71,-62.5139 2790.04,-64.8391 2789.24,-57.8857"/>
</g>
<!-- Node31 -->
<g id="node31" class="node"><title>Node31</title>
<g id="a_node31"><a xlink:href="PDSS__IdealGas_8cpp.html" target="_top" xlink:title="Implementation of a pressure dependent standard state virtual function. ">
<polygon fill="white" stroke="black" points="3234.5,-0.5 3234.5,-19.5 3339.5,-19.5 3339.5,-0.5 3234.5,-0.5"/>
<text text-anchor="middle" x="3287" y="-7.5" font-family="FreeSans" font-size="10.00">PDSS_IdealGas.cpp</text>
</a>
</g>
</g>
<!-- Node1&#45;&gt;Node31 -->
<g id="edge30" class="edge"><title>Node1&#45;&gt;Node31</title>
<path fill="none" stroke="midnightblue" d="M2790.23,-62.4316C2866.13,-56.2667 3061.99,-39.674 3225,-20 3228.02,-19.6351 3231.13,-19.2423 3234.26,-18.8322"/>
<polygon fill="midnightblue" stroke="midnightblue" points="2789.61,-58.9705 2779.92,-63.2647 2790.17,-65.9478 2789.61,-58.9705"/>
</g>
<!-- Node32 -->
<g id="node32" class="node"><title>Node32</title>
<g id="a_node32"><a xlink:href="PDSS__IonsFromNeutral_8cpp.html" target="_top" xlink:title="Implementation of a pressure dependent standard state virtual function. ">
<polygon fill="white" stroke="black" points="3358,-0.5 3358,-19.5 3496,-19.5 3496,-0.5 3358,-0.5"/>
<text text-anchor="middle" x="3427" y="-7.5" font-family="FreeSans" font-size="10.00">PDSS_IonsFromNeutral.cpp</text>
</a>
</g>
</g>
<!-- Node1&#45;&gt;Node32 -->
<g id="edge31" class="edge"><title>Node1&#45;&gt;Node32</title>
<path fill="none" stroke="midnightblue" d="M2789.92,-62.9858C2878.56,-57.3019 3135.21,-40.2286 3348,-20 3351.16,-19.6995 3354.39,-19.3804 3357.65,-19.0484"/>
<polygon fill="midnightblue" stroke="midnightblue" points="2789.48,-59.5068 2779.72,-63.637 2789.93,-66.4926 2789.48,-59.5068"/>
</g>
<!-- Node33 -->
<g id="node33" class="node"><title>Node33</title>
<g id="a_node33"><a xlink:href="PDSS__SSVol_8cpp.html" target="_top" xlink:title="Implementation of a pressure dependent standard state virtual function. ">
<polygon fill="white" stroke="black" points="3514,-0.5 3514,-19.5 3608,-19.5 3608,-0.5 3514,-0.5"/>
<text text-anchor="middle" x="3561" y="-7.5" font-family="FreeSans" font-size="10.00">PDSS_SSVol.cpp</text>
</a>
</g>
</g>
<!-- Node1&#45;&gt;Node33 -->
<g id="edge32" class="edge"><title>Node1&#45;&gt;Node33</title>
<path fill="none" stroke="midnightblue" d="M2789.86,-64.2108C2893.3,-61.4068 3229.04,-50.4114 3505,-20 3507.94,-19.6764 3510.95,-19.3051 3513.99,-18.9016"/>
<polygon fill="midnightblue" stroke="midnightblue" points="2789.67,-60.7145 2779.76,-64.4782 2789.85,-67.7121 2789.67,-60.7145"/>
</g>
<!-- Node34 -->
<g id="node34" class="node"><title>Node34</title>
<g id="a_node34"><a xlink:href="PDSS__Water_8cpp.html" target="_top" xlink:title="PDSS_Water.cpp">
<polygon fill="white" stroke="black" points="3626,-0.5 3626,-19.5 3718,-19.5 3718,-0.5 3626,-0.5"/>
<text text-anchor="middle" x="3672" y="-7.5" font-family="FreeSans" font-size="10.00">PDSS_Water.cpp</text>
</a>
</g>
</g>
<!-- Node1&#45;&gt;Node34 -->
<g id="edge33" class="edge"><title>Node1&#45;&gt;Node34</title>
<path fill="none" stroke="midnightblue" d="M2789.68,-64.595C2902.5,-62.8862 3295.16,-54.6562 3617,-20 3619.89,-19.6892 3622.85,-19.3277 3625.84,-18.9316"/>
<polygon fill="midnightblue" stroke="midnightblue" points="2789.59,-61.0958 2779.65,-64.7407 2789.7,-68.095 2789.59,-61.0958"/>
</g>
<!-- Node35 -->
<g id="node35" class="node"><title>Node35</title>
<g id="a_node35"><a xlink:href="Phase_8cpp.html" target="_top" xlink:title="Definition file for class Phase. ">
<polygon fill="white" stroke="black" points="3736,-0.5 3736,-19.5 3798,-19.5 3798,-0.5 3736,-0.5"/>
<text text-anchor="middle" x="3767" y="-7.5" font-family="FreeSans" font-size="10.00">Phase.cpp</text>
</a>
</g>
</g>
<!-- Node1&#45;&gt;Node35 -->
<g id="edge34" class="edge"><title>Node1&#45;&gt;Node35</title>
<path fill="none" stroke="midnightblue" d="M2789.64,-64.2756C2935,-60.8338 3539.54,-45.244 3727,-20 3729.82,-19.62 3732.74,-19.139 3735.65,-18.5979"/>
<polygon fill="midnightblue" stroke="midnightblue" points="2789.52,-60.7774 2779.61,-64.5111 2789.69,-67.7754 2789.52,-60.7774"/>
</g>
<!-- Node36 -->
<g id="node36" class="node"><title>Node36</title>
<g id="a_node36"><a xlink:href="PhaseCombo__Interaction_8cpp.html" target="_top" xlink:title="PhaseCombo_Interaction.cpp">
<polygon fill="white" stroke="black" points="3816.5,-0.5 3816.5,-19.5 3959.5,-19.5 3959.5,-0.5 3816.5,-0.5"/>
<text text-anchor="middle" x="3888" y="-7.5" font-family="FreeSans" font-size="10.00">PhaseCombo_Interaction.cpp</text>
</a>
</g>
</g>
<!-- Node1&#45;&gt;Node36 -->
<g id="edge35" class="edge"><title>Node1&#45;&gt;Node36</title>
<path fill="none" stroke="midnightblue" d="M2790.07,-64.3996C2918.22,-61.836 3405.92,-50.5115 3806,-20 3809.43,-19.7386 3812.93,-19.4472 3816.47,-19.1335"/>
<polygon fill="midnightblue" stroke="midnightblue" points="2789.72,-60.9056 2779.79,-64.6016 2789.86,-67.9043 2789.72,-60.9056"/>
</g>
<!-- Node37 -->
<g id="node37" class="node"><title>Node37</title>
<g id="a_node37"><a xlink:href="RedlichKisterVPSSTP_8cpp.html" target="_top" xlink:title="Definitions for ThermoPhase object for phases which employ excess Gibbs free energy formulations rela...">
<polygon fill="white" stroke="black" points="3977.5,-0.5 3977.5,-19.5 4108.5,-19.5 4108.5,-0.5 3977.5,-0.5"/>
<text text-anchor="middle" x="4043" y="-7.5" font-family="FreeSans" font-size="10.00">RedlichKisterVPSSTP.cpp</text>
</a>
</g>
</g>
<!-- Node1&#45;&gt;Node37 -->
<g id="edge36" class="edge"><title>Node1&#45;&gt;Node37</title>
<path fill="none" stroke="midnightblue" d="M2789.91,-64.7768C2929.56,-63.5974 3500.74,-56.6621 3968,-20 3971.01,-19.7641 3974.08,-19.4979 3977.18,-19.2088"/>
<polygon fill="midnightblue" stroke="midnightblue" points="2789.5,-61.28 2779.52,-64.8605 2789.55,-68.2797 2789.5,-61.28"/>
</g>
<!-- Node38 -->
<g id="node38" class="node"><title>Node38</title>
<g id="a_node38"><a xlink:href="RedlichKwongMFTP_8cpp.html" target="_top" xlink:title="Definition file for a derived class of ThermoPhase that assumes either an ideal gas or ideal solution...">
<polygon fill="white" stroke="black" points="4126.5,-0.5 4126.5,-19.5 4249.5,-19.5 4249.5,-0.5 4126.5,-0.5"/>
<text text-anchor="middle" x="4188" y="-7.5" font-family="FreeSans" font-size="10.00">RedlichKwongMFTP.cpp</text>
</a>
</g>
</g>
<!-- Node1&#45;&gt;Node38 -->
<g id="edge37" class="edge"><title>Node1&#45;&gt;Node38</title>
<path fill="none" stroke="midnightblue" d="M2789.92,-65.038C2939.71,-64.9863 3587.83,-62.208 4117,-20 4120.1,-19.753 4123.27,-19.4684 4126.46,-19.156"/>
<polygon fill="midnightblue" stroke="midnightblue" points="2789.62,-61.538 2779.62,-65.0373 2789.62,-68.538 2789.62,-61.538"/>
</g>
<!-- Node39 -->
<g id="node39" class="node"><title>Node39</title>
<g id="a_node39"><a xlink:href="Species_8cpp_source.html" target="_top" xlink:title="Species.cpp">
<polygon fill="white" stroke="black" points="4267.5,-0.5 4267.5,-19.5 4336.5,-19.5 4336.5,-0.5 4267.5,-0.5"/>
<text text-anchor="middle" x="4302" y="-7.5" font-family="FreeSans" font-size="10.00">Species.cpp</text>
</a>
</g>
</g>
<!-- Node1&#45;&gt;Node39 -->
<g id="edge38" class="edge"><title>Node1&#45;&gt;Node39</title>
<path fill="none" stroke="midnightblue" d="M2789.83,-64.7898C2979.2,-63.4272 3959.24,-54.7751 4258,-20 4260.94,-19.6574 4263.98,-19.2183 4267.02,-18.7187"/>
<polygon fill="midnightblue" stroke="midnightblue" points="2789.68,-61.2907 2779.71,-64.8611 2789.73,-68.2905 2789.68,-61.2907"/>
</g>
<!-- Node40 -->
<g id="node40" class="node"><title>Node40</title>
<g id="a_node40"><a xlink:href="SpeciesThermoFactory_8cpp.html" target="_top" xlink:title="Definitions for factory to build instances of classes that manage the standard&#45;state thermodynamic pr...">
<polygon fill="white" stroke="black" points="4355,-0.5 4355,-19.5 4489,-19.5 4489,-0.5 4355,-0.5"/>
<text text-anchor="middle" x="4422" y="-7.5" font-family="FreeSans" font-size="10.00">SpeciesThermoFactory.cpp</text>
</a>
</g>
</g>
<!-- Node1&#45;&gt;Node40 -->
<g id="edge39" class="edge"><title>Node1&#45;&gt;Node40</title>
<path fill="none" stroke="midnightblue" d="M2789.85,-65.1379C2953.93,-65.6304 3720.19,-65.285 4345,-20 4348.22,-19.7665 4351.52,-19.4977 4354.84,-19.2022"/>
<polygon fill="midnightblue" stroke="midnightblue" points="2789.52,-61.6368 2779.51,-65.1031 2789.49,-68.6368 2789.52,-61.6368"/>
</g>
<!-- Node41 -->
<g id="node41" class="node"><title>Node41</title>
<g id="a_node41"><a xlink:href="StoichSubstance_8cpp.html" target="_top" xlink:title="This file contains the class definitions for the StoichSubstance ThermoPhase class. ">
<polygon fill="white" stroke="black" points="4507,-0.5 4507,-19.5 4615,-19.5 4615,-0.5 4507,-0.5"/>
<text text-anchor="middle" x="4561" y="-7.5" font-family="FreeSans" font-size="10.00">StoichSubstance.cpp</text>
</a>
</g>
</g>
<!-- Node1&#45;&gt;Node41 -->
<g id="edge40" class="edge"><title>Node1&#45;&gt;Node41</title>
<path fill="none" stroke="midnightblue" d="M2789.88,-64.6819C2996.43,-62.5445 4147.63,-49.4572 4498,-20 4500.86,-19.7593 4503.79,-19.4747 4506.75,-19.1576"/>
<polygon fill="midnightblue" stroke="midnightblue" points="2789.67,-61.1837 2779.71,-64.7861 2789.75,-68.1833 2789.67,-61.1837"/>
</g>
<!-- Node42 -->
<g id="node42" class="node"><title>Node42</title>
<g id="a_node42"><a xlink:href="StoichSubstanceSSTP_8cpp.html" target="_top" xlink:title="Definition file for the StoichSubstanceSSTP class, which represents a fixed&#45;composition incompressibl...">
<polygon fill="white" stroke="black" points="4633,-0.5 4633,-19.5 4767,-19.5 4767,-0.5 4633,-0.5"/>
<text text-anchor="middle" x="4700" y="-7.5" font-family="FreeSans" font-size="10.00">StoichSubstanceSSTP.cpp</text>
</a>
</g>
</g>
<!-- Node1&#45;&gt;Node42 -->
<g id="edge41" class="edge"><title>Node1&#45;&gt;Node42</title>
<path fill="none" stroke="midnightblue" d="M2789.79,-64.6422C3004.58,-62.1631 4246.52,-46.8431 4624,-20 4626.92,-19.7927 4629.89,-19.5545 4632.9,-19.2923"/>
<polygon fill="midnightblue" stroke="midnightblue" points="2789.48,-61.1453 2779.52,-64.7599 2789.56,-68.1449 2789.48,-61.1453"/>
</g>
<!-- Node43 -->
<g id="node43" class="node"><title>Node43</title>
<g id="a_node43"><a xlink:href="SurfPhase_8cpp.html" target="_top" xlink:title="Definitions for a simple thermodynamic model of a surface phase derived from ThermoPhase, assuming an ideal solution model (see Thermodynamic Properties and class SurfPhase). ">
<polygon fill="white" stroke="black" points="4785,-0.5 4785,-19.5 4865,-19.5 4865,-0.5 4785,-0.5"/>
<text text-anchor="middle" x="4825" y="-7.5" font-family="FreeSans" font-size="10.00">SurfPhase.cpp</text>
</a>
</g>
</g>
<!-- Node1&#45;&gt;Node43 -->
<g id="edge42" class="edge"><title>Node1&#45;&gt;Node43</title>
<path fill="none" stroke="midnightblue" d="M2789.92,-64.9859C3015.1,-64.7821 4367.41,-61.8103 4776,-20 4778.93,-19.7006 4781.94,-19.3221 4784.96,-18.8906"/>
<polygon fill="midnightblue" stroke="midnightblue" points="2789.77,-61.4859 2779.77,-64.9939 2789.77,-68.4859 2789.77,-61.4859"/>
</g>
<!-- Node44 -->
<g id="node44" class="node"><title>Node44</title>
<g id="a_node44"><a xlink:href="ThermoPhase_8cpp.html" target="_top" xlink:title="Definition file for class ThermoPhase, the base class for phases with thermodynamic properties (see c...">
<polygon fill="white" stroke="black" points="4883.5,-0.5 4883.5,-19.5 4978.5,-19.5 4978.5,-0.5 4883.5,-0.5"/>
<text text-anchor="middle" x="4931" y="-7.5" font-family="FreeSans" font-size="10.00">ThermoPhase.cpp</text>
</a>
</g>
</g>
<!-- Node1&#45;&gt;Node44 -->
<g id="edge43" class="edge"><title>Node1&#45;&gt;Node44</title>
<path fill="none" stroke="midnightblue" d="M2789.64,-64.9155C3020.13,-64.2121 4443.92,-58.349 4874,-20 4877.09,-19.7242 4880.27,-19.3832 4883.47,-18.9968"/>
<polygon fill="midnightblue" stroke="midnightblue" points="2789.57,-61.4156 2779.58,-64.9452 2789.59,-68.4156 2789.57,-61.4156"/>
</g>
<!-- Node45 -->
<g id="node45" class="node"><title>Node45</title>
<g id="a_node45"><a xlink:href="VPSSMgr__ConstVol_8cpp.html" target="_top" xlink:title="Definition file for a derived class that handles the calculation of standard state thermo properties ...">
<polygon fill="white" stroke="black" points="4996.5,-0.5 4996.5,-19.5 5117.5,-19.5 5117.5,-0.5 4996.5,-0.5"/>
<text text-anchor="middle" x="5057" y="-7.5" font-family="FreeSans" font-size="10.00">VPSSMgr_ConstVol.cpp</text>
</a>
</g>
</g>
<!-- Node1&#45;&gt;Node45 -->
<g id="edge44" class="edge"><title>Node1&#45;&gt;Node45</title>
<path fill="none" stroke="midnightblue" d="M2789.83,-64.8291C3027.83,-63.4806 4532.48,-53.7089 4987,-20 4990.05,-19.7734 4993.18,-19.5053 4996.33,-19.2059"/>
<polygon fill="midnightblue" stroke="midnightblue" points="2789.74,-61.3294 2779.76,-64.8853 2789.78,-68.3293 2789.74,-61.3294"/>
</g>
<!-- Node46 -->
<g id="node46" class="node"><title>Node46</title>
<g id="a_node46"><a xlink:href="VPSSMgr__General_8cpp.html" target="_top" xlink:title="Definition file for a derived class that handles the calculation of standard state thermo properties ...">
<polygon fill="white" stroke="black" points="5136,-0.5 5136,-19.5 5252,-19.5 5252,-0.5 5136,-0.5"/>
<text text-anchor="middle" x="5194" y="-7.5" font-family="FreeSans" font-size="10.00">VPSSMgr_General.cpp</text>
</a>
</g>
</g>
<!-- Node1&#45;&gt;Node46 -->
<g id="edge45" class="edge"><title>Node1&#45;&gt;Node46</title>
<path fill="none" stroke="midnightblue" d="M2789.88,-64.8886C3036.39,-63.9535 4641.94,-56.5161 5126,-20 5129.21,-19.7581 5132.49,-19.4672 5135.81,-19.1402"/>
<polygon fill="midnightblue" stroke="midnightblue" points="2789.78,-61.3889 2779.8,-64.9261 2789.81,-68.3888 2789.78,-61.3889"/>
</g>
<!-- Node47 -->
<g id="node47" class="node"><title>Node47</title>
<g id="a_node47"><a xlink:href="VPSSMgr__IdealGas_8cpp.html" target="_top" xlink:title="Definition file for a derived class that handles the calculation of standard state thermo properties ...">
<polygon fill="white" stroke="black" points="5270.5,-0.5 5270.5,-19.5 5391.5,-19.5 5391.5,-0.5 5270.5,-0.5"/>
<text text-anchor="middle" x="5331" y="-7.5" font-family="FreeSans" font-size="10.00">VPSSMgr_IdealGas.cpp</text>
</a>
</g>
</g>
<!-- Node1&#45;&gt;Node47 -->
<g id="edge46" class="edge"><title>Node1&#45;&gt;Node47</title>
<path fill="none" stroke="midnightblue" d="M2789.69,-64.9025C3043.35,-64.052 4747.11,-57.0103 5260,-20 5263.35,-19.7585 5266.78,-19.4679 5270.24,-19.1412"/>
<polygon fill="midnightblue" stroke="midnightblue" points="2789.66,-61.4025 2779.67,-64.9354 2789.68,-68.4025 2789.66,-61.4025"/>
</g>
<!-- Node48 -->
<g id="node48" class="node"><title>Node48</title>
<g id="a_node48"><a xlink:href="VPSSMgr__Water__ConstVol_8cpp.html" target="_top" xlink:title="Definition file for a derived class that handles the calculation of standard state thermo properties ...">
<polygon fill="white" stroke="black" points="5410,-0.5 5410,-19.5 5562,-19.5 5562,-0.5 5410,-0.5"/>
<text text-anchor="middle" x="5486" y="-7.5" font-family="FreeSans" font-size="10.00">VPSSMgr_Water_ConstVol.cpp</text>
</a>
</g>
</g>
<!-- Node1&#45;&gt;Node48 -->
<g id="edge47" class="edge"><title>Node1&#45;&gt;Node48</title>
<path fill="none" stroke="midnightblue" d="M2790.22,-64.8393C3053.64,-63.4677 4857.17,-52.9639 5400,-20 5403.15,-19.8089 5406.36,-19.5886 5409.6,-19.3452"/>
<polygon fill="midnightblue" stroke="midnightblue" points="2789.81,-61.3413 2779.83,-64.8928 2789.85,-68.3412 2789.81,-61.3413"/>
</g>
<!-- Node49 -->
<g id="node49" class="node"><title>Node49</title>
<g id="a_node49"><a xlink:href="VPSSMgrFactory_8cpp.html" target="_top" xlink:title="Definitions for factory to build instances of classes that manage the calculation of standard state p...">
<polygon fill="white" stroke="black" points="5580,-0.5 5580,-19.5 5690,-19.5 5690,-0.5 5580,-0.5"/>
<text text-anchor="middle" x="5635" y="-7.5" font-family="FreeSans" font-size="10.00">VPSSMgrFactory.cpp</text>
</a>
</g>
</g>
<!-- Node1&#45;&gt;Node49 -->
<g id="edge48" class="edge"><title>Node1&#45;&gt;Node49</title>
<path fill="none" stroke="midnightblue" d="M2790.18,-65.0351C3062.97,-65.2511 4992.25,-65.1486 5571,-20 5573.91,-19.7731 5576.89,-19.4995 5579.89,-19.1909"/>
<polygon fill="midnightblue" stroke="midnightblue" points="2789.8,-61.5349 2779.8,-65.0261 2789.79,-68.5349 2789.8,-61.5349"/>
</g>
<!-- Node50 -->
<g id="node50" class="node"><title>Node50</title>
<g id="a_node50"><a xlink:href="WaterProps_8cpp.html" target="_top" xlink:title="WaterProps.cpp">
<polygon fill="white" stroke="black" points="5708.5,-0.5 5708.5,-19.5 5793.5,-19.5 5793.5,-0.5 5708.5,-0.5"/>
<text text-anchor="middle" x="5751" y="-7.5" font-family="FreeSans" font-size="10.00">WaterProps.cpp</text>
</a>
</g>
</g>
<!-- Node1&#45;&gt;Node50 -->
<g id="edge49" class="edge"><title>Node1&#45;&gt;Node50</title>
<path fill="none" stroke="midnightblue" d="M2790.06,-64.8138C3089.65,-63.0344 5394.84,-48.4726 5699,-20 5702.01,-19.7182 5705.11,-19.3595 5708.22,-18.9484"/>
<polygon fill="midnightblue" stroke="midnightblue" points="2789.86,-61.3149 2779.88,-64.874 2789.9,-68.3147 2789.86,-61.3149"/>
</g>
</g>
</svg>
