<?xml version="1.0" encoding="UTF-8" standalone="no"?>
<!DOCTYPE svg PUBLIC "-//W3C//DTD SVG 1.1//EN"
 "http://www.w3.org/Graphics/SVG/1.1/DTD/svg11.dtd">
<!-- Generated by graphviz version 2.36.0 (20140111.2315)
 -->
<!-- Title: CVodesIntegrator.h Pages: 1 -->
<svg width="647pt" height="252pt"
 viewBox="0.00 0.00 647.00 252.00" xmlns="http://www.w3.org/2000/svg" xmlns:xlink="http://www.w3.org/1999/xlink">
<g id="graph0" class="graph" transform="scale(1 1) rotate(0) translate(4 248)">
<title>CVodesIntegrator.h</title>
<polygon fill="white" stroke="none" points="-4,4 -4,-248 643,-248 643,4 -4,4"/>
<!-- Node1 -->
<g id="node1" class="node"><title>Node1</title>
<polygon fill="#bfbfbf" stroke="black" points="371,-224.5 371,-243.5 469,-243.5 469,-224.5 371,-224.5"/>
<text text-anchor="middle" x="420" y="-231.5" font-family="FreeSans" font-size="10.00">CVodesIntegrator.h</text>
</g>
<!-- Node2 -->
<g id="node2" class="node"><title>Node2</title>
<g id="a_node2"><a xlink:href="Integrator_8h.html" target="_top" xlink:title="cantera/numerics/Integrator.h">
<polygon fill="white" stroke="black" points="190.5,-168.5 190.5,-187.5 333.5,-187.5 333.5,-168.5 190.5,-168.5"/>
<text text-anchor="middle" x="262" y="-175.5" font-family="FreeSans" font-size="10.00">cantera/numerics/Integrator.h</text>
</a>
</g>
</g>
<!-- Node1&#45;&gt;Node2 -->
<g id="edge1" class="edge"><title>Node1&#45;&gt;Node2</title>
<path fill="none" stroke="midnightblue" d="M394.964,-224.444C368.384,-215.359 326.191,-200.939 296.477,-190.783"/>
<polygon fill="midnightblue" stroke="midnightblue" points="297.513,-187.439 286.918,-187.516 295.249,-194.062 297.513,-187.439"/>
</g>
<!-- Node13 -->
<g id="node13" class="node"><title>Node13</title>
<g id="a_node13"><a xlink:href="ctexceptions_8h.html" target="_top" xlink:title="Definitions for the classes that are thrown when Cantera experiences an error condition (also contain...">
<polygon fill="white" stroke="black" points="351.5,-168.5 351.5,-187.5 488.5,-187.5 488.5,-168.5 351.5,-168.5"/>
<text text-anchor="middle" x="420" y="-175.5" font-family="FreeSans" font-size="10.00">cantera/base/ctexceptions.h</text>
</a>
</g>
</g>
<!-- Node1&#45;&gt;Node13 -->
<g id="edge13" class="edge"><title>Node1&#45;&gt;Node13</title>
<path fill="none" stroke="midnightblue" d="M420,-224.083C420,-217.006 420,-206.861 420,-197.986"/>
<polygon fill="midnightblue" stroke="midnightblue" points="423.5,-197.751 420,-187.751 416.5,-197.751 423.5,-197.751"/>
</g>
<!-- Node15 -->
<g id="node15" class="node"><title>Node15</title>
<polygon fill="white" stroke="#bfbfbf" points="506.5,-168.5 506.5,-187.5 639.5,-187.5 639.5,-168.5 506.5,-168.5"/>
<text text-anchor="middle" x="573" y="-175.5" font-family="FreeSans" font-size="10.00">sundials/sundials_nvector.h</text>
</g>
<!-- Node1&#45;&gt;Node15 -->
<g id="edge16" class="edge"><title>Node1&#45;&gt;Node15</title>
<path fill="none" stroke="midnightblue" d="M444.243,-224.444C469.871,-215.399 510.485,-201.064 539.238,-190.916"/>
<polygon fill="midnightblue" stroke="midnightblue" points="540.605,-194.145 548.87,-187.516 538.275,-187.544 540.605,-194.145"/>
</g>
<!-- Node3 -->
<g id="node3" class="node"><title>Node3</title>
<g id="a_node3"><a xlink:href="FuncEval_8h.html" target="_top" xlink:title="FuncEval.h">
<polygon fill="white" stroke="black" points="145,-112.5 145,-131.5 209,-131.5 209,-112.5 145,-112.5"/>
<text text-anchor="middle" x="177" y="-119.5" font-family="FreeSans" font-size="10.00">FuncEval.h</text>
</a>
</g>
</g>
<!-- Node2&#45;&gt;Node3 -->
<g id="edge2" class="edge"><title>Node2&#45;&gt;Node3</title>
<path fill="none" stroke="midnightblue" d="M248.343,-168.324C235.084,-159.9 214.732,-146.971 199.154,-137.074"/>
<polygon fill="midnightblue" stroke="midnightblue" points="200.94,-134.063 190.623,-131.655 197.187,-139.971 200.94,-134.063"/>
</g>
<!-- Node12 -->
<g id="node12" class="node"><title>Node12</title>
<g id="a_node12"><a xlink:href="global_8h.html" target="_top" xlink:title="This file contains definitions for utility functions and text for modules, inputfiles, logs, textlogs, (see Input File Handling, Diagnostic Output, and Writing messages to the screen). ">
<polygon fill="white" stroke="black" points="227,-112.5 227,-131.5 335,-131.5 335,-112.5 227,-112.5"/>
<text text-anchor="middle" x="281" y="-119.5" font-family="FreeSans" font-size="10.00">cantera/base/global.h</text>
</a>
</g>
</g>
<!-- Node2&#45;&gt;Node12 -->
<g id="edge11" class="edge"><title>Node2&#45;&gt;Node12</title>
<path fill="none" stroke="midnightblue" d="M265.137,-168.083C267.683,-160.849 271.356,-150.409 274.527,-141.397"/>
<polygon fill="midnightblue" stroke="midnightblue" points="277.903,-142.346 277.921,-131.751 271.3,-140.023 277.903,-142.346"/>
</g>
<!-- Node4 -->
<g id="node4" class="node"><title>Node4</title>
<g id="a_node4"><a xlink:href="ct__defs_8h.html" target="_top" xlink:title="This file contains definitions of terms that are used in internal routines and are unlikely to need m...">
<polygon fill="white" stroke="black" points="157,-56.5 157,-75.5 271,-75.5 271,-56.5 157,-56.5"/>
<text text-anchor="middle" x="214" y="-63.5" font-family="FreeSans" font-size="10.00">cantera/base/ct_defs.h</text>
</a>
</g>
</g>
<!-- Node3&#45;&gt;Node4 -->
<g id="edge3" class="edge"><title>Node3&#45;&gt;Node4</title>
<path fill="none" stroke="midnightblue" d="M183.11,-112.083C188.282,-104.534 195.846,-93.4948 202.194,-84.2298"/>
<polygon fill="midnightblue" stroke="midnightblue" points="205.239,-85.9787 208.004,-75.7511 199.464,-82.0221 205.239,-85.9787"/>
</g>
<!-- Node5 -->
<g id="node5" class="node"><title>Node5</title>
<g id="a_node5"><a xlink:href="config_8h_source.html" target="_top" xlink:title="config.h">
<polygon fill="white" stroke="black" points="0,-0.5 0,-19.5 50,-19.5 50,-0.5 0,-0.5"/>
<text text-anchor="middle" x="25" y="-7.5" font-family="FreeSans" font-size="10.00">config.h</text>
</a>
</g>
</g>
<!-- Node4&#45;&gt;Node5 -->
<g id="edge4" class="edge"><title>Node4&#45;&gt;Node5</title>
<path fill="none" stroke="midnightblue" d="M184.052,-56.4435C150.421,-46.8346 95.8953,-31.2558 60.2401,-21.0686"/>
<polygon fill="midnightblue" stroke="midnightblue" points="60.8479,-17.6023 50.2711,-18.2203 58.9248,-24.3329 60.8479,-17.6023"/>
</g>
<!-- Node6 -->
<g id="node6" class="node"><title>Node6</title>
<polygon fill="white" stroke="#bfbfbf" points="68,-0.5 68,-19.5 112,-19.5 112,-0.5 68,-0.5"/>
<text text-anchor="middle" x="90" y="-7.5" font-family="FreeSans" font-size="10.00">cmath</text>
</g>
<!-- Node4&#45;&gt;Node6 -->
<g id="edge5" class="edge"><title>Node4&#45;&gt;Node6</title>
<path fill="none" stroke="midnightblue" d="M194.352,-56.4435C174.035,-47.5961 142.097,-33.6875 118.902,-23.5865"/>
<polygon fill="midnightblue" stroke="midnightblue" points="120.122,-20.3002 109.556,-19.5164 117.327,-26.7181 120.122,-20.3002"/>
</g>
<!-- Node7 -->
<g id="node7" class="node"><title>Node7</title>
<polygon fill="white" stroke="#bfbfbf" points="130,-0.5 130,-19.5 174,-19.5 174,-0.5 130,-0.5"/>
<text text-anchor="middle" x="152" y="-7.5" font-family="FreeSans" font-size="10.00">cstdlib</text>
</g>
<!-- Node4&#45;&gt;Node7 -->
<g id="edge6" class="edge"><title>Node4&#45;&gt;Node7</title>
<path fill="none" stroke="midnightblue" d="M204.039,-56.324C194.873,-48.3414 181.063,-36.3128 169.972,-26.6529"/>
<polygon fill="midnightblue" stroke="midnightblue" points="171.982,-23.7624 162.143,-19.8339 167.385,-29.041 171.982,-23.7624"/>
</g>
<!-- Node8 -->
<g id="node8" class="node"><title>Node8</title>
<polygon fill="white" stroke="#bfbfbf" points="192.5,-0.5 192.5,-19.5 235.5,-19.5 235.5,-0.5 192.5,-0.5"/>
<text text-anchor="middle" x="214" y="-7.5" font-family="FreeSans" font-size="10.00">vector</text>
</g>
<!-- Node4&#45;&gt;Node8 -->
<g id="edge7" class="edge"><title>Node4&#45;&gt;Node8</title>
<path fill="none" stroke="midnightblue" d="M214,-56.083C214,-49.0059 214,-38.8611 214,-29.9865"/>
<polygon fill="midnightblue" stroke="midnightblue" points="217.5,-29.751 214,-19.7511 210.5,-29.7511 217.5,-29.751"/>
</g>
<!-- Node9 -->
<g id="node9" class="node"><title>Node9</title>
<polygon fill="white" stroke="#bfbfbf" points="253.5,-0.5 253.5,-19.5 288.5,-19.5 288.5,-0.5 253.5,-0.5"/>
<text text-anchor="middle" x="271" y="-7.5" font-family="FreeSans" font-size="10.00">map</text>
</g>
<!-- Node4&#45;&gt;Node9 -->
<g id="edge8" class="edge"><title>Node4&#45;&gt;Node9</title>
<path fill="none" stroke="midnightblue" d="M223.158,-56.324C231.501,-48.4196 244.032,-36.5482 254.177,-26.9377"/>
<polygon fill="midnightblue" stroke="midnightblue" points="256.823,-29.2522 261.675,-19.8339 252.009,-24.1705 256.823,-29.2522"/>
</g>
<!-- Node10 -->
<g id="node10" class="node"><title>Node10</title>
<polygon fill="white" stroke="#bfbfbf" points="381,-0.5 381,-19.5 421,-19.5 421,-0.5 381,-0.5"/>
<text text-anchor="middle" x="401" y="-7.5" font-family="FreeSans" font-size="10.00">string</text>
</g>
<!-- Node4&#45;&gt;Node10 -->
<g id="edge9" class="edge"><title>Node4&#45;&gt;Node10</title>
<path fill="none" stroke="midnightblue" d="M244.13,-56.4831C275.76,-47.5143 326.923,-32.9279 371,-20 371.098,-19.9713 371.196,-19.9425 371.294,-19.9137"/>
<polygon fill="midnightblue" stroke="midnightblue" points="372.083,-23.3304 380.677,-17.1338 370.095,-16.6188 372.083,-23.3304"/>
</g>
<!-- Node11 -->
<g id="node11" class="node"><title>Node11</title>
<polygon fill="white" stroke="#bfbfbf" points="307,-0.5 307,-19.5 363,-19.5 363,-0.5 307,-0.5"/>
<text text-anchor="middle" x="335" y="-7.5" font-family="FreeSans" font-size="10.00">algorithm</text>
</g>
<!-- Node4&#45;&gt;Node11 -->
<g id="edge10" class="edge"><title>Node4&#45;&gt;Node11</title>
<path fill="none" stroke="midnightblue" d="M233.173,-56.4435C252.909,-47.6356 283.885,-33.8116 306.493,-23.722"/>
<polygon fill="midnightblue" stroke="midnightblue" points="308.211,-26.788 315.917,-19.5164 305.359,-20.3957 308.211,-26.788"/>
</g>
<!-- Node12&#45;&gt;Node4 -->
<g id="edge12" class="edge"><title>Node12&#45;&gt;Node4</title>
<path fill="none" stroke="midnightblue" d="M270.235,-112.324C260.234,-104.263 245.113,-92.0765 233.07,-82.3695"/>
<polygon fill="midnightblue" stroke="midnightblue" points="234.943,-79.3841 224.961,-75.8339 230.55,-84.8343 234.943,-79.3841"/>
</g>
<!-- Node13&#45;&gt;Node10 -->
<g id="edge15" class="edge"><title>Node13&#45;&gt;Node10</title>
<path fill="none" stroke="midnightblue" d="M418.978,-168.075C415.988,-141.945 407.205,-65.2106 403.126,-29.577"/>
<polygon fill="midnightblue" stroke="midnightblue" points="406.595,-29.1052 401.981,-19.5681 399.641,-29.9013 406.595,-29.1052"/>
</g>
<!-- Node14 -->
<g id="node14" class="node"><title>Node14</title>
<polygon fill="white" stroke="#bfbfbf" points="429,-112.5 429,-131.5 487,-131.5 487,-112.5 429,-112.5"/>
<text text-anchor="middle" x="458" y="-119.5" font-family="FreeSans" font-size="10.00">exception</text>
</g>
<!-- Node13&#45;&gt;Node14 -->
<g id="edge14" class="edge"><title>Node13&#45;&gt;Node14</title>
<path fill="none" stroke="midnightblue" d="M426.275,-168.083C431.642,-160.455 439.518,-149.264 446.079,-139.941"/>
<polygon fill="midnightblue" stroke="midnightblue" points="448.949,-141.943 451.842,-131.751 443.225,-137.915 448.949,-141.943"/>
</g>
</g>
</svg>
