<?xml version="1.0" encoding="UTF-8" standalone="no"?>
<!DOCTYPE svg PUBLIC "-//W3C//DTD SVG 1.1//EN"
 "http://www.w3.org/Graphics/SVG/1.1/DTD/svg11.dtd">
<!-- Generated by graphviz version 2.36.0 (20140111.2315)
 -->
<!-- Title: src Pages: 1 -->
<svg width="816pt" height="132pt"
 viewBox="0.00 0.00 816.00 132.00" xmlns="http://www.w3.org/2000/svg" xmlns:xlink="http://www.w3.org/1999/xlink">
<g id="graph0" class="graph" transform="scale(1 1) rotate(0) translate(4 128)">
<title>src</title>
<polygon fill="white" stroke="none" points="-4,4 -4,-128 812,-128 812,4 -4,4"/>
<g id="clust1" class="cluster"><title>clusterdir_68267d1309a1af8e8297ef4c3efbcdba</title>
<g id="a_clust1"><a xlink:href="dir_68267d1309a1af8e8297ef4c3efbcdba.html" target="_top">
<polygon fill="#eeeeff" stroke="black" points="8,-64 8,-116 800,-116 800,-64 8,-64"/>
</a>
</g>
</g>
<!-- dir_68267d1309a1af8e8297ef4c3efbcdba -->
<g id="node1" class="node"><title>dir_68267d1309a1af8e8297ef4c3efbcdba</title>
<text text-anchor="middle" x="765" y="-87.5" font-family="FreeSans" font-size="10.00">src</text>
</g>
<!-- dir_53adf0b982dc8545998aae3f283a5a58 -->
<g id="node2" class="node"><title>dir_53adf0b982dc8545998aae3f283a5a58</title>
<g id="a_node2"><a xlink:href="dir_53adf0b982dc8545998aae3f283a5a58.html" target="_top" xlink:title="apps">
<polygon fill="white" stroke="black" points="720,-108 666,-108 666,-72 720,-72 720,-108"/>
<text text-anchor="middle" x="693" y="-87.5" font-family="FreeSans" font-size="10.00">apps</text>
</a>
</g>
</g>
<!-- dir_0af1587c8378955de40f48b4bd1869f0 -->
<g id="node3" class="node"><title>dir_0af1587c8378955de40f48b4bd1869f0</title>
<g id="a_node3"><a xlink:href="dir_0af1587c8378955de40f48b4bd1869f0.html" target="_top" xlink:title="base">
<polygon fill="white" stroke="black" points="648,-108 594,-108 594,-72 648,-72 648,-108"/>
<text text-anchor="middle" x="621" y="-87.5" font-family="FreeSans" font-size="10.00">base</text>
</a>
</g>
</g>
<!-- dir_d44c64559bbebec7f509842c48db8b23 -->
<g id="node12" class="node"><title>dir_d44c64559bbebec7f509842c48db8b23</title>
<g id="a_node12"><a xlink:href="dir_d44c64559bbebec7f509842c48db8b23.html" target="_top" xlink:title="include">
<polygon fill="white" stroke="red" points="358,-36 304,-36 304,-0 358,-0 358,-36"/>
<text text-anchor="middle" x="331" y="-15.5" font-family="FreeSans" font-size="10.00">include</text>
</a>
</g>
</g>
<!-- dir_0af1587c8378955de40f48b4bd1869f0&#45;&gt;dir_d44c64559bbebec7f509842c48db8b23 -->
<g id="edge4" class="edge"><title>dir_0af1587c8378955de40f48b4bd1869f0&#45;&gt;dir_d44c64559bbebec7f509842c48db8b23</title>
<path fill="none" stroke="black" d="M599.401,-71.8015C594.847,-68.8202 589.924,-66.0308 585,-64 511.948,-33.8719 418.931,-23.8974 368.175,-20.6076"/>
<polygon fill="black" stroke="black" points="368.199,-17.1029 358.008,-20.0022 367.783,-24.0906 368.199,-17.1029"/>
<g id="a_edge4&#45;headlabel"><a xlink:href="dir_000004_000000.html" target="_top" xlink:title="28">
<text text-anchor="middle" x="371.956" y="-11.9823" font-family="FreeSans" font-size="10.00">28</text>
</a>
</g>
</g>
<!-- dir_b2f7fbb792b9dac6554ff749bd43ee6b -->
<g id="node4" class="node"><title>dir_b2f7fbb792b9dac6554ff749bd43ee6b</title>
<g id="a_node4"><a xlink:href="dir_b2f7fbb792b9dac6554ff749bd43ee6b.html" target="_top" xlink:title="equil">
<polygon fill="white" stroke="black" points="576,-108 522,-108 522,-72 576,-72 576,-108"/>
<text text-anchor="middle" x="549" y="-87.5" font-family="FreeSans" font-size="10.00">equil</text>
</a>
</g>
</g>
<!-- dir_b2f7fbb792b9dac6554ff749bd43ee6b&#45;&gt;dir_d44c64559bbebec7f509842c48db8b23 -->
<g id="edge5" class="edge"><title>dir_b2f7fbb792b9dac6554ff749bd43ee6b&#45;&gt;dir_d44c64559bbebec7f509842c48db8b23</title>
<path fill="none" stroke="black" d="M526.899,-71.8041C522.465,-68.8953 517.715,-66.132 513,-64 465.424,-42.4859 406.008,-30.2646 368.272,-24.1376"/>
<polygon fill="black" stroke="black" points="368.652,-20.6546 358.231,-22.5685 367.571,-27.5706 368.652,-20.6546"/>
<g id="a_edge5&#45;headlabel"><a xlink:href="dir_000012_000000.html" target="_top" xlink:title="103">
<text text-anchor="middle" x="372.642" y="-15.9043" font-family="FreeSans" font-size="10.00">103</text>
</a>
</g>
</g>
<!-- dir_b5d79a59766ddc733dad7f158bc0216c -->
<g id="node5" class="node"><title>dir_b5d79a59766ddc733dad7f158bc0216c</title>
<g id="a_node5"><a xlink:href="dir_b5d79a59766ddc733dad7f158bc0216c.html" target="_top" xlink:title="kinetics">
<polygon fill="white" stroke="black" points="504,-108 450,-108 450,-72 504,-72 504,-108"/>
<text text-anchor="middle" x="477" y="-87.5" font-family="FreeSans" font-size="10.00">kinetics</text>
</a>
</g>
</g>
<!-- dir_b5d79a59766ddc733dad7f158bc0216c&#45;&gt;dir_d44c64559bbebec7f509842c48db8b23 -->
<g id="edge6" class="edge"><title>dir_b5d79a59766ddc733dad7f158bc0216c&#45;&gt;dir_d44c64559bbebec7f509842c48db8b23</title>
<path fill="none" stroke="black" d="M453.157,-71.8678C448.869,-69.0839 444.371,-66.3476 440,-64 416.695,-51.4835 389.148,-40.138 367.577,-31.9701"/>
<polygon fill="black" stroke="black" points="368.717,-28.6596 358.124,-28.4481 366.273,-35.2191 368.717,-28.6596"/>
<g id="a_edge6&#45;headlabel"><a xlink:href="dir_000005_000000.html" target="_top" xlink:title="62">
<text text-anchor="middle" x="373.076" y="-24.7539" font-family="FreeSans" font-size="10.00">62</text>
</a>
</g>
</g>
<!-- dir_e75d4dc68656c37cfb4cb5b6a269bfe6 -->
<g id="node6" class="node"><title>dir_e75d4dc68656c37cfb4cb5b6a269bfe6</title>
<g id="a_node6"><a xlink:href="dir_e75d4dc68656c37cfb4cb5b6a269bfe6.html" target="_top" xlink:title="numerics">
<polygon fill="white" stroke="black" points="431.5,-108 376.5,-108 376.5,-72 431.5,-72 431.5,-108"/>
<text text-anchor="middle" x="404" y="-87.5" font-family="FreeSans" font-size="10.00">numerics</text>
</a>
</g>
</g>
<!-- dir_e75d4dc68656c37cfb4cb5b6a269bfe6&#45;&gt;dir_d44c64559bbebec7f509842c48db8b23 -->
<g id="edge8" class="edge"><title>dir_e75d4dc68656c37cfb4cb5b6a269bfe6&#45;&gt;dir_d44c64559bbebec7f509842c48db8b23</title>
<path fill="none" stroke="black" d="M385.955,-71.6966C376.938,-63.0503 365.882,-52.4486 356.057,-43.027"/>
<polygon fill="black" stroke="black" points="358.478,-40.4993 348.837,-36.1043 353.633,-45.5518 358.478,-40.4993"/>
<g id="a_edge8&#45;headlabel"><a xlink:href="dir_000010_000000.html" target="_top" xlink:title="47">
<text text-anchor="middle" x="363.037" y="-38.4379" font-family="FreeSans" font-size="10.00">47</text>
</a>
</g>
</g>
<!-- dir_9ddc76d7d08fb59823452242810de285 -->
<g id="node7" class="node"><title>dir_9ddc76d7d08fb59823452242810de285</title>
<g id="a_node7"><a xlink:href="dir_9ddc76d7d08fb59823452242810de285.html" target="_top" xlink:title="oneD">
<polygon fill="white" stroke="black" points="358,-108 304,-108 304,-72 358,-72 358,-108"/>
<text text-anchor="middle" x="331" y="-87.5" font-family="FreeSans" font-size="10.00">oneD</text>
</a>
</g>
</g>
<!-- dir_9ddc76d7d08fb59823452242810de285&#45;&gt;dir_d44c64559bbebec7f509842c48db8b23 -->
<g id="edge9" class="edge"><title>dir_9ddc76d7d08fb59823452242810de285&#45;&gt;dir_d44c64559bbebec7f509842c48db8b23</title>
<path fill="none" stroke="black" d="M331,-71.6966C331,-63.9827 331,-54.7125 331,-46.1124"/>
<polygon fill="black" stroke="black" points="334.5,-46.1043 331,-36.1043 327.5,-46.1044 334.5,-46.1043"/>
<g id="a_edge9&#45;headlabel"><a xlink:href="dir_000013_000000.html" target="_top" xlink:title="23">
<text text-anchor="middle" x="337.339" y="-47.199" font-family="FreeSans" font-size="10.00">23</text>
</a>
</g>
</g>
<!-- dir_649caf90c05f06e5ae1a6896753aaf14 -->
<g id="node8" class="node"><title>dir_649caf90c05f06e5ae1a6896753aaf14</title>
<g id="a_node8"><a xlink:href="dir_649caf90c05f06e5ae1a6896753aaf14.html" target="_top" xlink:title="thermo">
<polygon fill="white" stroke="black" points="286,-108 232,-108 232,-72 286,-72 286,-108"/>
<text text-anchor="middle" x="259" y="-87.5" font-family="FreeSans" font-size="10.00">thermo</text>
</a>
</g>
</g>
<!-- dir_649caf90c05f06e5ae1a6896753aaf14&#45;&gt;dir_d44c64559bbebec7f509842c48db8b23 -->
<g id="edge2" class="edge"><title>dir_649caf90c05f06e5ae1a6896753aaf14&#45;&gt;dir_d44c64559bbebec7f509842c48db8b23</title>
<path fill="none" stroke="black" d="M276.798,-71.6966C285.604,-63.135 296.382,-52.6562 306.001,-43.3045"/>
<polygon fill="black" stroke="black" points="308.677,-45.5846 313.407,-36.1043 303.797,-40.5657 308.677,-45.5846"/>
<g id="a_edge2&#45;headlabel"><a xlink:href="dir_000016_000000.html" target="_top" xlink:title="320">
<text text-anchor="middle" x="308.079" y="-47.6261" font-family="FreeSans" font-size="10.00">320</text>
</a>
</g>
</g>
<!-- dir_f8593bdbd324948571a3f8d4c247fae0 -->
<g id="node9" class="node"><title>dir_f8593bdbd324948571a3f8d4c247fae0</title>
<g id="a_node9"><a xlink:href="dir_f8593bdbd324948571a3f8d4c247fae0.html" target="_top" xlink:title="tpx">
<polygon fill="white" stroke="black" points="214,-108 160,-108 160,-72 214,-72 214,-108"/>
<text text-anchor="middle" x="187" y="-87.5" font-family="FreeSans" font-size="10.00">tpx</text>
</a>
</g>
</g>
<!-- dir_f8593bdbd324948571a3f8d4c247fae0&#45;&gt;dir_d44c64559bbebec7f509842c48db8b23 -->
<g id="edge1" class="edge"><title>dir_f8593bdbd324948571a3f8d4c247fae0&#45;&gt;dir_d44c64559bbebec7f509842c48db8b23</title>
<path fill="none" stroke="black" d="M210.167,-71.8526C214.342,-69.0703 218.728,-66.3386 223,-64 245.764,-51.5375 272.707,-40.3059 293.987,-32.1807"/>
<polygon fill="black" stroke="black" points="295.5,-35.3515 303.633,-28.5615 293.041,-28.7977 295.5,-35.3515"/>
<g id="a_edge1&#45;headlabel"><a xlink:href="dir_000014_000000.html" target="_top" xlink:title="23">
<text text-anchor="middle" x="293.132" y="-36.7726" font-family="FreeSans" font-size="10.00">23</text>
</a>
</g>
</g>
<!-- dir_ce14ed064186955200333d2a0a25aa72 -->
<g id="node10" class="node"><title>dir_ce14ed064186955200333d2a0a25aa72</title>
<g id="a_node10"><a xlink:href="dir_ce14ed064186955200333d2a0a25aa72.html" target="_top" xlink:title="transport">
<polygon fill="white" stroke="black" points="142,-108 88,-108 88,-72 142,-72 142,-108"/>
<text text-anchor="middle" x="115" y="-87.5" font-family="FreeSans" font-size="10.00">transport</text>
</a>
</g>
</g>
<!-- dir_ce14ed064186955200333d2a0a25aa72&#45;&gt;dir_d44c64559bbebec7f509842c48db8b23 -->
<g id="edge3" class="edge"><title>dir_ce14ed064186955200333d2a0a25aa72&#45;&gt;dir_d44c64559bbebec7f509842c48db8b23</title>
<path fill="none" stroke="black" d="M137.106,-71.8139C141.539,-68.9042 146.288,-66.1381 151,-64 197.921,-42.7085 256.484,-30.4553 293.819,-24.2583"/>
<polygon fill="black" stroke="black" points="294.438,-27.7039 303.76,-22.6685 293.332,-20.7917 294.438,-27.7039"/>
<g id="a_edge3&#45;headlabel"><a xlink:href="dir_000007_000000.html" target="_top" xlink:title="71">
<text text-anchor="middle" x="291.337" y="-28.5751" font-family="FreeSans" font-size="10.00">71</text>
</a>
</g>
</g>
<!-- dir_663d5d8a278790f614e48e5afd097e8a -->
<g id="node11" class="node"><title>dir_663d5d8a278790f614e48e5afd097e8a</title>
<g id="a_node11"><a xlink:href="dir_663d5d8a278790f614e48e5afd097e8a.html" target="_top" xlink:title="zeroD">
<polygon fill="white" stroke="black" points="70,-108 16,-108 16,-72 70,-72 70,-108"/>
<text text-anchor="middle" x="43" y="-87.5" font-family="FreeSans" font-size="10.00">zeroD</text>
</a>
</g>
</g>
<!-- dir_663d5d8a278790f614e48e5afd097e8a&#45;&gt;dir_d44c64559bbebec7f509842c48db8b23 -->
<g id="edge7" class="edge"><title>dir_663d5d8a278790f614e48e5afd097e8a&#45;&gt;dir_d44c64559bbebec7f509842c48db8b23</title>
<path fill="none" stroke="black" d="M64.601,-71.8068C69.155,-68.8251 74.0773,-66.0342 79,-64 151.282,-34.1317 243.272,-24.0629 293.716,-20.6867"/>
<polygon fill="black" stroke="black" points="294.062,-24.1721 303.828,-20.0631 293.631,-17.1854 294.062,-24.1721"/>
<g id="a_edge7&#45;headlabel"><a xlink:href="dir_000017_000000.html" target="_top" xlink:title="33">
<text text-anchor="middle" x="290.649" y="-24.7271" font-family="FreeSans" font-size="10.00">33</text>
</a>
</g>
</g>
</g>
</svg>
