<?xml version="1.0" encoding="UTF-8" standalone="no"?>
<!DOCTYPE svg PUBLIC "-//W3C//DTD SVG 1.1//EN"
 "http://www.w3.org/Graphics/SVG/1.1/DTD/svg11.dtd">
<!-- Generated by graphviz version 2.36.0 (20140111.2315)
 -->
<!-- Title: electrolyteThermo.h Pages: 1 -->
<svg width="390pt" height="196pt"
 viewBox="0.00 0.00 390.00 196.00" xmlns="http://www.w3.org/2000/svg" xmlns:xlink="http://www.w3.org/1999/xlink">
<g id="graph0" class="graph" transform="scale(1 1) rotate(0) translate(4 192)">
<title>electrolyteThermo.h</title>
<polygon fill="white" stroke="none" points="-4,4 -4,-192 386,-192 386,4 -4,4"/>
<!-- Node1 -->
<g id="node1" class="node"><title>Node1</title>
<polygon fill="#bfbfbf" stroke="black" points="97.5,-168.5 97.5,-187.5 198.5,-187.5 198.5,-168.5 97.5,-168.5"/>
<text text-anchor="middle" x="148" y="-175.5" font-family="FreeSans" font-size="10.00">electrolyteThermo.h</text>
</g>
<!-- Node2 -->
<g id="node2" class="node"><title>Node2</title>
<g id="a_node2"><a xlink:href="thermo_8h.html" target="_top" xlink:title="Support for thermo property calculation from C++ application programs. ">
<polygon fill="white" stroke="black" points="121,-112.5 121,-131.5 175,-131.5 175,-112.5 121,-112.5"/>
<text text-anchor="middle" x="148" y="-119.5" font-family="FreeSans" font-size="10.00">thermo.h</text>
</a>
</g>
</g>
<!-- Node1&#45;&gt;Node2 -->
<g id="edge1" class="edge"><title>Node1&#45;&gt;Node2</title>
<path fill="none" stroke="midnightblue" d="M148,-157.805C148,-148.91 148,-138.78 148,-131.751"/>
<polygon fill="midnightblue" stroke="midnightblue" points="144.5,-158.083 148,-168.083 151.5,-158.083 144.5,-158.083"/>
</g>
<!-- Node3 -->
<g id="node3" class="node"><title>Node3</title>
<g id="a_node3"><a xlink:href="RxnMolChange_8cpp.html" target="_top" xlink:title="RxnMolChange.cpp">
<polygon fill="white" stroke="black" points="0,-0.5 0,-19.5 100,-19.5 100,-0.5 0,-0.5"/>
<text text-anchor="middle" x="50" y="-7.5" font-family="FreeSans" font-size="10.00">RxnMolChange.cpp</text>
</a>
</g>
</g>
<!-- Node2&#45;&gt;Node3 -->
<g id="edge2" class="edge"><title>Node2&#45;&gt;Node3</title>
<path fill="none" stroke="midnightblue" d="M133.653,-104.897C112.585,-81.2486 74.0094,-37.9493 57.6542,-19.5914"/>
<polygon fill="midnightblue" stroke="midnightblue" points="131.045,-107.23 140.31,-112.368 136.271,-102.574 131.045,-107.23"/>
</g>
<!-- Node4 -->
<g id="node4" class="node"><title>Node4</title>
<g id="a_node4"><a xlink:href="Edge_8h.html" target="_top" xlink:title="Edge.h">
<polygon fill="white" stroke="black" points="224,-56.5 224,-75.5 270,-75.5 270,-56.5 224,-56.5"/>
<text text-anchor="middle" x="247" y="-63.5" font-family="FreeSans" font-size="10.00">Edge.h</text>
</a>
</g>
</g>
<!-- Node2&#45;&gt;Node4 -->
<g id="edge3" class="edge"><title>Node2&#45;&gt;Node4</title>
<path fill="none" stroke="midnightblue" d="M172.837,-107.453C191.114,-97.4835 215.416,-84.2279 231.133,-75.6545"/>
<polygon fill="midnightblue" stroke="midnightblue" points="171.009,-104.463 163.906,-112.324 174.361,-110.608 171.009,-104.463"/>
</g>
<!-- Node5 -->
<g id="node5" class="node"><title>Node5</title>
<g id="a_node5"><a xlink:href="Interface_8h.html" target="_top" xlink:title="Declaration and Definition for the class Interface. ">
<polygon fill="white" stroke="black" points="118,-0.5 118,-19.5 180,-19.5 180,-0.5 118,-0.5"/>
<text text-anchor="middle" x="149" y="-7.5" font-family="FreeSans" font-size="10.00">Interface.h</text>
</a>
</g>
</g>
<!-- Node2&#45;&gt;Node5 -->
<g id="edge4" class="edge"><title>Node2&#45;&gt;Node5</title>
<path fill="none" stroke="midnightblue" d="M142.912,-102.169C140.021,-89.2109 137.289,-71.5905 139,-56 140.415,-43.1124 144.043,-28.5154 146.518,-19.5332"/>
<polygon fill="midnightblue" stroke="midnightblue" points="139.591,-103.319 145.386,-112.188 146.387,-101.641 139.591,-103.319"/>
</g>
<!-- Node6 -->
<g id="node6" class="node"><title>Node6</title>
<g id="a_node6"><a xlink:href="kinetics_8h_source.html" target="_top" xlink:title="kinetics.h">
<polygon fill="white" stroke="black" points="148.5,-56.5 148.5,-75.5 205.5,-75.5 205.5,-56.5 148.5,-56.5"/>
<text text-anchor="middle" x="177" y="-63.5" font-family="FreeSans" font-size="10.00">kinetics.h</text>
</a>
</g>
</g>
<!-- Node2&#45;&gt;Node6 -->
<g id="edge5" class="edge"><title>Node2&#45;&gt;Node6</title>
<path fill="none" stroke="midnightblue" d="M157.676,-102.983C162.598,-93.8168 168.358,-83.0922 172.3,-75.7511"/>
<polygon fill="midnightblue" stroke="midnightblue" points="154.437,-101.617 152.789,-112.083 160.604,-104.929 154.437,-101.617"/>
</g>
<!-- Node6&#45;&gt;Node3 -->
<g id="edge7" class="edge"><title>Node6&#45;&gt;Node3</title>
<path fill="none" stroke="midnightblue" d="M147.609,-52.503C123.8,-42.3795 90.894,-28.388 70.0294,-19.5164"/>
<polygon fill="midnightblue" stroke="midnightblue" points="146.304,-55.7515 156.876,-56.4435 149.043,-49.3096 146.304,-55.7515"/>
</g>
<!-- Node6&#45;&gt;Node5 -->
<g id="edge8" class="edge"><title>Node6&#45;&gt;Node5</title>
<path fill="none" stroke="midnightblue" d="M167.658,-46.9827C162.905,-37.8168 157.344,-27.0922 153.538,-19.7511"/>
<polygon fill="midnightblue" stroke="midnightblue" points="164.666,-48.8166 172.376,-56.083 170.88,-45.5943 164.666,-48.8166"/>
</g>
<!-- Node7 -->
<g id="node7" class="node"><title>Node7</title>
<g id="a_node7"><a xlink:href="ExtraGlobalRxn_8cpp_source.html" target="_top" xlink:title="ExtraGlobalRxn.cpp">
<polygon fill="white" stroke="black" points="198.5,-0.5 198.5,-19.5 299.5,-19.5 299.5,-0.5 198.5,-0.5"/>
<text text-anchor="middle" x="249" y="-7.5" font-family="FreeSans" font-size="10.00">ExtraGlobalRxn.cpp</text>
</a>
</g>
</g>
<!-- Node6&#45;&gt;Node7 -->
<g id="edge6" class="edge"><title>Node6&#45;&gt;Node7</title>
<path fill="none" stroke="midnightblue" d="M196.866,-50.1008C209.823,-40.3824 226.297,-28.0269 237.221,-19.8339"/>
<polygon fill="midnightblue" stroke="midnightblue" points="194.468,-47.5239 188.568,-56.324 198.668,-53.1239 194.468,-47.5239"/>
</g>
<!-- Node8 -->
<g id="node8" class="node"><title>Node8</title>
<g id="a_node8"><a xlink:href="PureFluid_8h.html" target="_top" xlink:title="PureFluid.h">
<polygon fill="white" stroke="black" points="317.5,-0.5 317.5,-19.5 382.5,-19.5 382.5,-0.5 317.5,-0.5"/>
<text text-anchor="middle" x="350" y="-7.5" font-family="FreeSans" font-size="10.00">PureFluid.h</text>
</a>
</g>
</g>
<!-- Node6&#45;&gt;Node8 -->
<g id="edge9" class="edge"><title>Node6&#45;&gt;Node8</title>
<path fill="none" stroke="midnightblue" d="M214.047,-53.4363C246.664,-43.2551 293.41,-28.664 322.716,-19.5164"/>
<polygon fill="midnightblue" stroke="midnightblue" points="212.915,-50.1228 204.412,-56.4435 215.001,-56.8049 212.915,-50.1228"/>
</g>
</g>
</svg>
