<?xml version="1.0" encoding="UTF-8" standalone="no"?>
<!DOCTYPE svg PUBLIC "-//W3C//DTD SVG 1.1//EN"
 "http://www.w3.org/Graphics/SVG/1.1/DTD/svg11.dtd">
<!-- Generated by graphviz version 2.36.0 (20140111.2315)
 -->
<!-- Title: Falloff.cpp Pages: 1 -->
<svg width="461pt" height="264pt"
 viewBox="0.00 0.00 461.00 264.00" xmlns="http://www.w3.org/2000/svg" xmlns:xlink="http://www.w3.org/1999/xlink">
<g id="graph0" class="graph" transform="scale(1 1) rotate(0) translate(4 260)">
<title>Falloff.cpp</title>
<polygon fill="white" stroke="none" points="-4,4 -4,-260 457,-260 457,4 -4,4"/>
<!-- Node1 -->
<g id="node1" class="node"><title>Node1</title>
<polygon fill="#bfbfbf" stroke="black" points="147,-236.5 147,-255.5 207,-255.5 207,-236.5 147,-236.5"/>
<text text-anchor="middle" x="177" y="-243.5" font-family="FreeSans" font-size="10.00">Falloff.cpp</text>
</g>
<!-- Node2 -->
<g id="node2" class="node"><title>Node2</title>
<g id="a_node2"><a xlink:href="stringUtils_8h.html" target="_top" xlink:title="Contains declarations for string manipulation functions within Cantera. ">
<polygon fill="white" stroke="black" points="114.5,-118.5 114.5,-137.5 239.5,-137.5 239.5,-118.5 114.5,-118.5"/>
<text text-anchor="middle" x="177" y="-125.5" font-family="FreeSans" font-size="10.00">cantera/base/stringUtils.h</text>
</a>
</g>
</g>
<!-- Node1&#45;&gt;Node2 -->
<g id="edge1" class="edge"><title>Node1&#45;&gt;Node2</title>
<path fill="none" stroke="midnightblue" d="M177,-236.281C177,-217.547 177,-173.098 177,-147.682"/>
<polygon fill="midnightblue" stroke="midnightblue" points="180.5,-147.505 177,-137.505 173.5,-147.505 180.5,-147.505"/>
</g>
<!-- Node11 -->
<g id="node11" class="node"><title>Node11</title>
<g id="a_node11"><a xlink:href="ctexceptions_8h.html" target="_top" xlink:title="Definitions for the classes that are thrown when Cantera experiences an error condition (also contain...">
<polygon fill="white" stroke="black" points="-0.5,-180.5 -0.5,-199.5 136.5,-199.5 136.5,-180.5 -0.5,-180.5"/>
<text text-anchor="middle" x="68" y="-187.5" font-family="FreeSans" font-size="10.00">cantera/base/ctexceptions.h</text>
</a>
</g>
</g>
<!-- Node1&#45;&gt;Node11 -->
<g id="edge11" class="edge"><title>Node1&#45;&gt;Node11</title>
<path fill="none" stroke="midnightblue" d="M159.487,-236.324C141.928,-227.625 114.669,-214.12 94.4688,-204.113"/>
<polygon fill="midnightblue" stroke="midnightblue" points="95.9837,-200.958 85.4693,-199.655 92.8762,-207.23 95.9837,-200.958"/>
</g>
<!-- Node13 -->
<g id="node13" class="node"><title>Node13</title>
<g id="a_node13"><a xlink:href="Falloff_8h_source.html" target="_top" xlink:title="cantera/kinetics/Falloff.h">
<polygon fill="white" stroke="black" points="231.5,-180.5 231.5,-199.5 352.5,-199.5 352.5,-180.5 231.5,-180.5"/>
<text text-anchor="middle" x="292" y="-187.5" font-family="FreeSans" font-size="10.00">cantera/kinetics/Falloff.h</text>
</a>
</g>
</g>
<!-- Node1&#45;&gt;Node13 -->
<g id="edge14" class="edge"><title>Node1&#45;&gt;Node13</title>
<path fill="none" stroke="midnightblue" d="M195.222,-236.444C213.896,-227.675 243.156,-213.935 264.617,-203.858"/>
<polygon fill="midnightblue" stroke="midnightblue" points="266.299,-206.935 273.863,-199.516 263.324,-200.599 266.299,-206.935"/>
</g>
<!-- Node3 -->
<g id="node3" class="node"><title>Node3</title>
<g id="a_node3"><a xlink:href="ct__defs_8h.html" target="_top" xlink:title="This file contains definitions of terms that are used in internal routines and are unlikely to need m...">
<polygon fill="white" stroke="black" points="208,-56.5 208,-75.5 264,-75.5 264,-56.5 208,-56.5"/>
<text text-anchor="middle" x="236" y="-63.5" font-family="FreeSans" font-size="10.00">ct_defs.h</text>
</a>
</g>
</g>
<!-- Node2&#45;&gt;Node3 -->
<g id="edge2" class="edge"><title>Node2&#45;&gt;Node3</title>
<path fill="none" stroke="midnightblue" d="M185.453,-118.403C194.566,-109.136 209.27,-94.1828 220.476,-82.7876"/>
<polygon fill="midnightblue" stroke="midnightblue" points="223.047,-85.1649 227.562,-75.5806 218.055,-80.2569 223.047,-85.1649"/>
</g>
<!-- Node9 -->
<g id="node9" class="node"><title>Node9</title>
<polygon fill="white" stroke="#bfbfbf" points="32,-0.5 32,-19.5 72,-19.5 72,-0.5 32,-0.5"/>
<text text-anchor="middle" x="52" y="-7.5" font-family="FreeSans" font-size="10.00">string</text>
</g>
<!-- Node2&#45;&gt;Node9 -->
<g id="edge10" class="edge"><title>Node2&#45;&gt;Node9</title>
<path fill="none" stroke="midnightblue" d="M167.605,-118.281C146.508,-98.7036 95.148,-51.0414 68.5599,-26.3676"/>
<polygon fill="midnightblue" stroke="midnightblue" points="70.8755,-23.7416 61.1646,-19.5048 66.1139,-28.8726 70.8755,-23.7416"/>
</g>
<!-- Node4 -->
<g id="node4" class="node"><title>Node4</title>
<g id="a_node4"><a xlink:href="config_8h_source.html" target="_top" xlink:title="config.h">
<polygon fill="white" stroke="black" points="403,-0.5 403,-19.5 453,-19.5 453,-0.5 403,-0.5"/>
<text text-anchor="middle" x="428" y="-7.5" font-family="FreeSans" font-size="10.00">config.h</text>
</a>
</g>
</g>
<!-- Node3&#45;&gt;Node4 -->
<g id="edge3" class="edge"><title>Node3&#45;&gt;Node4</title>
<path fill="none" stroke="midnightblue" d="M264.33,-57.0321C298.56,-47.4049 356.144,-31.2095 393.086,-20.8197"/>
<polygon fill="midnightblue" stroke="midnightblue" points="394.242,-24.1303 402.921,-18.0535 392.347,-17.3917 394.242,-24.1303"/>
</g>
<!-- Node5 -->
<g id="node5" class="node"><title>Node5</title>
<polygon fill="white" stroke="#bfbfbf" points="90,-0.5 90,-19.5 134,-19.5 134,-0.5 90,-0.5"/>
<text text-anchor="middle" x="112" y="-7.5" font-family="FreeSans" font-size="10.00">cmath</text>
</g>
<!-- Node3&#45;&gt;Node5 -->
<g id="edge4" class="edge"><title>Node3&#45;&gt;Node5</title>
<path fill="none" stroke="midnightblue" d="M216.352,-56.4435C196.035,-47.5961 164.097,-33.6875 140.902,-23.5865"/>
<polygon fill="midnightblue" stroke="midnightblue" points="142.122,-20.3002 131.556,-19.5164 139.327,-26.7181 142.122,-20.3002"/>
</g>
<!-- Node6 -->
<g id="node6" class="node"><title>Node6</title>
<polygon fill="white" stroke="#bfbfbf" points="152,-0.5 152,-19.5 196,-19.5 196,-0.5 152,-0.5"/>
<text text-anchor="middle" x="174" y="-7.5" font-family="FreeSans" font-size="10.00">cstdlib</text>
</g>
<!-- Node3&#45;&gt;Node6 -->
<g id="edge5" class="edge"><title>Node3&#45;&gt;Node6</title>
<path fill="none" stroke="midnightblue" d="M226.039,-56.324C216.873,-48.3414 203.063,-36.3128 191.972,-26.6529"/>
<polygon fill="midnightblue" stroke="midnightblue" points="193.982,-23.7624 184.143,-19.8339 189.385,-29.041 193.982,-23.7624"/>
</g>
<!-- Node7 -->
<g id="node7" class="node"><title>Node7</title>
<polygon fill="white" stroke="#bfbfbf" points="214.5,-0.5 214.5,-19.5 257.5,-19.5 257.5,-0.5 214.5,-0.5"/>
<text text-anchor="middle" x="236" y="-7.5" font-family="FreeSans" font-size="10.00">vector</text>
</g>
<!-- Node3&#45;&gt;Node7 -->
<g id="edge6" class="edge"><title>Node3&#45;&gt;Node7</title>
<path fill="none" stroke="midnightblue" d="M236,-56.083C236,-49.0059 236,-38.8611 236,-29.9865"/>
<polygon fill="midnightblue" stroke="midnightblue" points="239.5,-29.751 236,-19.7511 232.5,-29.7511 239.5,-29.751"/>
</g>
<!-- Node8 -->
<g id="node8" class="node"><title>Node8</title>
<polygon fill="white" stroke="#bfbfbf" points="275.5,-0.5 275.5,-19.5 310.5,-19.5 310.5,-0.5 275.5,-0.5"/>
<text text-anchor="middle" x="293" y="-7.5" font-family="FreeSans" font-size="10.00">map</text>
</g>
<!-- Node3&#45;&gt;Node8 -->
<g id="edge7" class="edge"><title>Node3&#45;&gt;Node8</title>
<path fill="none" stroke="midnightblue" d="M245.158,-56.324C253.501,-48.4196 266.032,-36.5482 276.177,-26.9377"/>
<polygon fill="midnightblue" stroke="midnightblue" points="278.823,-29.2522 283.675,-19.8339 274.009,-24.1705 278.823,-29.2522"/>
</g>
<!-- Node3&#45;&gt;Node9 -->
<g id="edge8" class="edge"><title>Node3&#45;&gt;Node9</title>
<path fill="none" stroke="midnightblue" d="M207.953,-57.025C178.753,-48.6853 131.453,-35.0741 81.8766,-20.2267"/>
<polygon fill="midnightblue" stroke="midnightblue" points="82.8511,-16.8651 72.267,-17.3417 80.8382,-23.5694 82.8511,-16.8651"/>
</g>
<!-- Node10 -->
<g id="node10" class="node"><title>Node10</title>
<polygon fill="white" stroke="#bfbfbf" points="329,-0.5 329,-19.5 385,-19.5 385,-0.5 329,-0.5"/>
<text text-anchor="middle" x="357" y="-7.5" font-family="FreeSans" font-size="10.00">algorithm</text>
</g>
<!-- Node3&#45;&gt;Node10 -->
<g id="edge9" class="edge"><title>Node3&#45;&gt;Node10</title>
<path fill="none" stroke="midnightblue" d="M255.173,-56.4435C274.909,-47.6356 305.885,-33.8116 328.493,-23.722"/>
<polygon fill="midnightblue" stroke="midnightblue" points="330.211,-26.788 337.917,-19.5164 327.359,-20.3957 330.211,-26.788"/>
</g>
<!-- Node11&#45;&gt;Node9 -->
<g id="edge13" class="edge"><title>Node11&#45;&gt;Node9</title>
<path fill="none" stroke="midnightblue" d="M57.2855,-180.305C48.0616,-172.069 35.409,-158.789 30,-144 15.5862,-104.59 32.1543,-55.1436 43.3766,-29.0509"/>
<polygon fill="midnightblue" stroke="midnightblue" points="46.6816,-30.2367 47.6157,-19.6832 40.3042,-27.3508 46.6816,-30.2367"/>
</g>
<!-- Node12 -->
<g id="node12" class="node"><title>Node12</title>
<polygon fill="white" stroke="#bfbfbf" points="39,-118.5 39,-137.5 97,-137.5 97,-118.5 39,-118.5"/>
<text text-anchor="middle" x="68" y="-125.5" font-family="FreeSans" font-size="10.00">exception</text>
</g>
<!-- Node11&#45;&gt;Node12 -->
<g id="edge12" class="edge"><title>Node11&#45;&gt;Node12</title>
<path fill="none" stroke="midnightblue" d="M68,-180.403C68,-171.938 68,-158.728 68,-147.82"/>
<polygon fill="midnightblue" stroke="midnightblue" points="71.5001,-147.581 68,-137.581 64.5001,-147.581 71.5001,-147.581"/>
</g>
<!-- Node14 -->
<g id="node14" class="node"><title>Node14</title>
<g id="a_node14"><a xlink:href="reaction__defs_8h.html" target="_top" xlink:title="This file defines some constants used to specify reaction types. ">
<polygon fill="white" stroke="black" points="258,-113 258,-143 380,-143 380,-113 258,-113"/>
<text text-anchor="start" x="266" y="-131" font-family="FreeSans" font-size="10.00">cantera/kinetics/reaction</text>
<text text-anchor="middle" x="319" y="-120" font-family="FreeSans" font-size="10.00">_defs.h</text>
</a>
</g>
</g>
<!-- Node13&#45;&gt;Node14 -->
<g id="edge15" class="edge"><title>Node13&#45;&gt;Node14</title>
<path fill="none" stroke="midnightblue" d="M295.868,-180.403C299.149,-173.113 304.014,-162.303 308.436,-152.475"/>
<polygon fill="midnightblue" stroke="midnightblue" points="311.725,-153.696 312.637,-143.141 305.341,-150.824 311.725,-153.696"/>
</g>
<!-- Node14&#45;&gt;Node3 -->
<g id="edge16" class="edge"><title>Node14&#45;&gt;Node3</title>
<path fill="none" stroke="midnightblue" d="M299.33,-112.781C286.399,-103.433 269.514,-91.2273 256.432,-81.77"/>
<polygon fill="midnightblue" stroke="midnightblue" points="258.232,-78.7526 248.077,-75.7305 254.131,-84.4255 258.232,-78.7526"/>
</g>
</g>
</svg>
