<?xml version="1.0" encoding="UTF-8" standalone="no"?>
<!DOCTYPE svg PUBLIC "-//W3C//DTD SVG 1.1//EN"
 "http://www.w3.org/Graphics/SVG/1.1/DTD/svg11.dtd">
<!-- Generated by graphviz version 2.36.0 (20140111.2315)
 -->
<!-- Title: FixedChemPotSSTP.cpp Pages: 1 -->
<svg width="856pt" height="388pt"
 viewBox="0.00 0.00 856.00 388.00" xmlns="http://www.w3.org/2000/svg" xmlns:xlink="http://www.w3.org/1999/xlink">
<g id="graph0" class="graph" transform="scale(1 1) rotate(0) translate(4 384)">
<title>FixedChemPotSSTP.cpp</title>
<polygon fill="white" stroke="none" points="-4,4 -4,-384 852,-384 852,4 -4,4"/>
<!-- Node1 -->
<g id="node1" class="node"><title>Node1</title>
<polygon fill="#bfbfbf" stroke="black" points="313.5,-360.5 313.5,-379.5 438.5,-379.5 438.5,-360.5 313.5,-360.5"/>
<text text-anchor="middle" x="376" y="-367.5" font-family="FreeSans" font-size="10.00">FixedChemPotSSTP.cpp</text>
</g>
<!-- Node2 -->
<g id="node2" class="node"><title>Node2</title>
<g id="a_node2"><a xlink:href="mix__defs_8h.html" target="_top" xlink:title="cantera/thermo/mix\l_defs.h">
<polygon fill="white" stroke="black" points="0,-293 0,-323 100,-323 100,-293 0,-293"/>
<text text-anchor="start" x="8" y="-311" font-family="FreeSans" font-size="10.00">cantera/thermo/mix</text>
<text text-anchor="middle" x="50" y="-300" font-family="FreeSans" font-size="10.00">_defs.h</text>
</a>
</g>
</g>
<!-- Node1&#45;&gt;Node2 -->
<g id="edge1" class="edge"><title>Node1&#45;&gt;Node2</title>
<path fill="none" stroke="midnightblue" d="M320.618,-360.479C267.465,-352.068 185.012,-338.407 114,-324 112.742,-323.745 111.471,-323.483 110.19,-323.216"/>
<polygon fill="midnightblue" stroke="midnightblue" points="110.758,-319.758 100.246,-321.077 109.287,-326.602 110.758,-319.758"/>
</g>
<!-- Node3 -->
<g id="node3" class="node"><title>Node3</title>
<g id="a_node3"><a xlink:href="FixedChemPotSSTP_8h.html" target="_top" xlink:title="Header file for the FixedChemPotSSTP class, which represents a fixed&#45;composition incompressible subst...">
<polygon fill="white" stroke="black" points="404,-293 404,-323 538,-323 538,-293 404,-293"/>
<text text-anchor="start" x="412" y="-311" font-family="FreeSans" font-size="10.00">cantera/thermo/FixedChem</text>
<text text-anchor="middle" x="471" y="-300" font-family="FreeSans" font-size="10.00">PotSSTP.h</text>
</a>
</g>
</g>
<!-- Node1&#45;&gt;Node3 -->
<g id="edge2" class="edge"><title>Node1&#45;&gt;Node3</title>
<path fill="none" stroke="midnightblue" d="M389.611,-360.403C402.718,-352.125 423.008,-339.311 440.05,-328.547"/>
<polygon fill="midnightblue" stroke="midnightblue" points="442.024,-331.44 448.61,-323.141 438.286,-325.522 442.024,-331.44"/>
</g>
<!-- Node13 -->
<g id="node13" class="node"><title>Node13</title>
<g id="a_node13"><a xlink:href="ThermoFactory_8h.html" target="_top" xlink:title="Headers for the factory class that can create known ThermoPhase objects (see Thermodynamic Properties...">
<polygon fill="white" stroke="black" points="156,-236.5 156,-255.5 314,-255.5 314,-236.5 156,-236.5"/>
<text text-anchor="middle" x="235" y="-243.5" font-family="FreeSans" font-size="10.00">cantera/thermo/ThermoFactory.h</text>
</a>
</g>
</g>
<!-- Node1&#45;&gt;Node13 -->
<g id="edge13" class="edge"><title>Node1&#45;&gt;Node13</title>
<path fill="none" stroke="midnightblue" d="M365.86,-360.226C342.08,-339.651 282.485,-288.086 252.627,-262.252"/>
<polygon fill="midnightblue" stroke="midnightblue" points="254.901,-259.591 245.048,-255.694 250.321,-264.884 254.901,-259.591"/>
</g>
<!-- Node20 -->
<g id="node20" class="node"><title>Node20</title>
<g id="a_node20"><a xlink:href="SpeciesThermoFactory_8h.html" target="_top" xlink:title="Header for factory to build instances of classes that manage the standard&#45;state thermodynamic propert...">
<polygon fill="white" stroke="black" points="164,-169 164,-199 316,-199 316,-169 164,-169"/>
<text text-anchor="start" x="172" y="-187" font-family="FreeSans" font-size="10.00">cantera/thermo/SpeciesThermo</text>
<text text-anchor="middle" x="240" y="-176" font-family="FreeSans" font-size="10.00">Factory.h</text>
</a>
</g>
</g>
<!-- Node1&#45;&gt;Node20 -->
<g id="edge25" class="edge"><title>Node1&#45;&gt;Node20</title>
<path fill="none" stroke="midnightblue" d="M326.875,-360.434C272.143,-347.98 186.206,-319.066 147,-256 132.932,-233.371 157.697,-215.291 185.194,-203.04"/>
<polygon fill="midnightblue" stroke="midnightblue" points="186.701,-206.203 194.571,-199.11 183.995,-199.747 186.701,-206.203"/>
</g>
<!-- Node21 -->
<g id="node21" class="node"><title>Node21</title>
<g id="a_node21"><a xlink:href="SpeciesThermoInterpType_8h.html" target="_top" xlink:title="Pure Virtual Base class for individual species reference state thermodynamic managers and text for th...">
<polygon fill="white" stroke="black" points="556,-293 556,-323 708,-323 708,-293 556,-293"/>
<text text-anchor="start" x="564" y="-311" font-family="FreeSans" font-size="10.00">cantera/thermo/SpeciesThermo</text>
<text text-anchor="middle" x="632" y="-300" font-family="FreeSans" font-size="10.00">InterpType.h</text>
</a>
</g>
</g>
<!-- Node1&#45;&gt;Node21 -->
<g id="edge30" class="edge"><title>Node1&#45;&gt;Node21</title>
<path fill="none" stroke="midnightblue" d="M412.407,-360.467C451.279,-351.356 513.819,-336.699 562.233,-325.352"/>
<polygon fill="midnightblue" stroke="midnightblue" points="563.088,-328.746 572.025,-323.057 561.491,-321.931 563.088,-328.746"/>
</g>
<!-- Node23 -->
<g id="node23" class="node"><title>Node23</title>
<g id="a_node23"><a xlink:href="ctml_8h.html" target="_top" xlink:title="CTML (&quot;Cantera Markup Language&quot;) is the variant of XML that Cantera uses to store data...">
<polygon fill="white" stroke="black" points="332.5,-236.5 332.5,-255.5 433.5,-255.5 433.5,-236.5 332.5,-236.5"/>
<text text-anchor="middle" x="383" y="-243.5" font-family="FreeSans" font-size="10.00">cantera/base/ctml.h</text>
</a>
</g>
</g>
<!-- Node1&#45;&gt;Node23 -->
<g id="edge33" class="edge"><title>Node1&#45;&gt;Node23</title>
<path fill="none" stroke="midnightblue" d="M376.503,-360.226C377.634,-340.53 380.393,-292.437 381.927,-265.7"/>
<polygon fill="midnightblue" stroke="midnightblue" points="385.422,-265.879 382.501,-255.694 378.434,-265.477 385.422,-265.879"/>
</g>
<!-- Node24 -->
<g id="node24" class="node"><title>Node24</title>
<g id="a_node24"><a xlink:href="stringUtils_8h.html" target="_top" xlink:title="Contains declarations for string manipulation functions within Cantera. ">
<polygon fill="white" stroke="black" points="723.5,-112.5 723.5,-131.5 848.5,-131.5 848.5,-112.5 723.5,-112.5"/>
<text text-anchor="middle" x="786" y="-119.5" font-family="FreeSans" font-size="10.00">cantera/base/stringUtils.h</text>
</a>
</g>
</g>
<!-- Node1&#45;&gt;Node24 -->
<g id="edge36" class="edge"><title>Node1&#45;&gt;Node24</title>
<path fill="none" stroke="midnightblue" d="M438.765,-368.42C525.398,-366.358 675.634,-357.84 717,-324 773.782,-277.549 783.984,-181.995 785.709,-141.64"/>
<polygon fill="midnightblue" stroke="midnightblue" points="789.208,-141.704 786.005,-131.605 782.211,-141.497 789.208,-141.704"/>
</g>
<!-- Node4 -->
<g id="node4" class="node"><title>Node4</title>
<g id="a_node4"><a xlink:href="SingleSpeciesTP_8h.html" target="_top" xlink:title="Header for the SingleSpeciesTP class, which is a filter class for ThermoPhase, that eases the constru...">
<polygon fill="white" stroke="black" points="452,-236.5 452,-255.5 550,-255.5 550,-236.5 452,-236.5"/>
<text text-anchor="middle" x="501" y="-243.5" font-family="FreeSans" font-size="10.00">SingleSpeciesTP.h</text>
</a>
</g>
</g>
<!-- Node3&#45;&gt;Node4 -->
<g id="edge3" class="edge"><title>Node3&#45;&gt;Node4</title>
<path fill="none" stroke="midnightblue" d="M478.11,-292.781C482.289,-284.422 487.611,-273.777 492.072,-264.856"/>
<polygon fill="midnightblue" stroke="midnightblue" points="495.293,-266.24 496.635,-255.731 489.032,-263.11 495.293,-266.24"/>
</g>
<!-- Node5 -->
<g id="node5" class="node"><title>Node5</title>
<g id="a_node5"><a xlink:href="ThermoPhase_8h.html" target="_top" xlink:title="Header file for class ThermoPhase, the base class for phases with thermodynamic properties, and the text for the Module thermoprops (see Thermodynamic Properties and class ThermoPhase). ">
<polygon fill="white" stroke="black" points="463,-174.5 463,-193.5 547,-193.5 547,-174.5 463,-174.5"/>
<text text-anchor="middle" x="505" y="-181.5" font-family="FreeSans" font-size="10.00">ThermoPhase.h</text>
</a>
</g>
</g>
<!-- Node4&#45;&gt;Node5 -->
<g id="edge4" class="edge"><title>Node4&#45;&gt;Node5</title>
<path fill="none" stroke="midnightblue" d="M501.573,-236.403C502.137,-227.938 503.018,-214.728 503.745,-203.82"/>
<polygon fill="midnightblue" stroke="midnightblue" points="507.255,-203.791 504.428,-193.581 500.27,-203.326 507.255,-203.791"/>
</g>
<!-- Node6 -->
<g id="node6" class="node"><title>Node6</title>
<g id="a_node6"><a xlink:href="Phase_8h.html" target="_top" xlink:title="Header file for class Phase. ">
<polygon fill="white" stroke="red" points="572.5,-112.5 572.5,-131.5 623.5,-131.5 623.5,-112.5 572.5,-112.5"/>
<text text-anchor="middle" x="598" y="-119.5" font-family="FreeSans" font-size="10.00">Phase.h</text>
</a>
</g>
</g>
<!-- Node5&#45;&gt;Node6 -->
<g id="edge5" class="edge"><title>Node5&#45;&gt;Node6</title>
<path fill="none" stroke="midnightblue" d="M518.325,-174.403C533.38,-164.691 558.116,-148.732 576.037,-137.17"/>
<polygon fill="midnightblue" stroke="midnightblue" points="578.195,-139.943 584.7,-131.581 574.4,-134.061 578.195,-139.943"/>
</g>
<!-- Node9 -->
<g id="node9" class="node"><title>Node9</title>
<g id="a_node9"><a xlink:href="SpeciesThermo_8h.html" target="_top" xlink:title="Virtual base class for the calculation of multiple&#45;species thermodynamic reference&#45;state property man...">
<polygon fill="white" stroke="red" points="462,-112.5 462,-131.5 554,-131.5 554,-112.5 462,-112.5"/>
<text text-anchor="middle" x="508" y="-119.5" font-family="FreeSans" font-size="10.00">SpeciesThermo.h</text>
</a>
</g>
</g>
<!-- Node5&#45;&gt;Node9 -->
<g id="edge8" class="edge"><title>Node5&#45;&gt;Node9</title>
<path fill="none" stroke="midnightblue" d="M505.43,-174.403C505.853,-165.938 506.514,-152.728 507.059,-141.82"/>
<polygon fill="midnightblue" stroke="midnightblue" points="510.567,-141.743 507.571,-131.581 503.576,-141.393 510.567,-141.743"/>
</g>
<!-- Node7 -->
<g id="node7" class="node"><title>Node7</title>
<g id="a_node7"><a xlink:href="ctexceptions_8h.html" target="_top" xlink:title="Definitions for the classes that are thrown when Cantera experiences an error condition (also contain...">
<polygon fill="white" stroke="red" points="416.5,-56.5 416.5,-75.5 553.5,-75.5 553.5,-56.5 416.5,-56.5"/>
<text text-anchor="middle" x="485" y="-63.5" font-family="FreeSans" font-size="10.00">cantera/base/ctexceptions.h</text>
</a>
</g>
</g>
<!-- Node6&#45;&gt;Node7 -->
<g id="edge6" class="edge"><title>Node6&#45;&gt;Node7</title>
<path fill="none" stroke="midnightblue" d="M580.095,-112.444C561.746,-103.675 532.995,-89.9355 511.906,-79.8579"/>
<polygon fill="midnightblue" stroke="midnightblue" points="513.353,-76.6703 502.821,-75.5164 510.335,-82.9862 513.353,-76.6703"/>
</g>
<!-- Node8 -->
<g id="node8" class="node"><title>Node8</title>
<polygon fill="white" stroke="#bfbfbf" points="609,-0.5 609,-19.5 649,-19.5 649,-0.5 609,-0.5"/>
<text text-anchor="middle" x="629" y="-7.5" font-family="FreeSans" font-size="10.00">string</text>
</g>
<!-- Node7&#45;&gt;Node8 -->
<g id="edge7" class="edge"><title>Node7&#45;&gt;Node8</title>
<path fill="none" stroke="midnightblue" d="M507.817,-56.4435C532.538,-47.1732 572.076,-32.3464 599.226,-22.1652"/>
<polygon fill="midnightblue" stroke="midnightblue" points="600.483,-25.4318 608.618,-18.6433 598.026,-18.8775 600.483,-25.4318"/>
</g>
<!-- Node10 -->
<g id="node10" class="node"><title>Node10</title>
<g id="a_node10"><a xlink:href="ct__defs_8h.html" target="_top" xlink:title="This file contains definitions of terms that are used in internal routines and are unlikely to need m...">
<polygon fill="white" stroke="red" points="572,-56.5 572,-75.5 686,-75.5 686,-56.5 572,-56.5"/>
<text text-anchor="middle" x="629" y="-63.5" font-family="FreeSans" font-size="10.00">cantera/base/ct_defs.h</text>
</a>
</g>
</g>
<!-- Node9&#45;&gt;Node10 -->
<g id="edge9" class="edge"><title>Node9&#45;&gt;Node10</title>
<path fill="none" stroke="midnightblue" d="M527.173,-112.444C546.909,-103.636 577.885,-89.8116 600.493,-79.722"/>
<polygon fill="midnightblue" stroke="midnightblue" points="602.211,-82.788 609.917,-75.5164 599.359,-76.3957 602.211,-82.788"/>
</g>
<!-- Node10&#45;&gt;Node8 -->
<g id="edge12" class="edge"><title>Node10&#45;&gt;Node8</title>
<path fill="none" stroke="midnightblue" d="M629,-56.083C629,-49.0059 629,-38.8611 629,-29.9865"/>
<polygon fill="midnightblue" stroke="midnightblue" points="632.5,-29.751 629,-19.7511 625.5,-29.7511 632.5,-29.751"/>
</g>
<!-- Node11 -->
<g id="node11" class="node"><title>Node11</title>
<g id="a_node11"><a xlink:href="config_8h_source.html" target="_top" xlink:title="config.h">
<polygon fill="white" stroke="black" points="452,-0.5 452,-19.5 502,-19.5 502,-0.5 452,-0.5"/>
<text text-anchor="middle" x="477" y="-7.5" font-family="FreeSans" font-size="10.00">config.h</text>
</a>
</g>
</g>
<!-- Node10&#45;&gt;Node11 -->
<g id="edge10" class="edge"><title>Node10&#45;&gt;Node11</title>
<path fill="none" stroke="midnightblue" d="M604.915,-56.4435C579.455,-47.3986 539.106,-33.064 510.541,-22.9158"/>
<polygon fill="midnightblue" stroke="midnightblue" points="511.567,-19.5661 500.972,-19.5164 509.223,-26.1622 511.567,-19.5661"/>
</g>
<!-- Node12 -->
<g id="node12" class="node"><title>Node12</title>
<polygon fill="white" stroke="#bfbfbf" points="274.5,-0.5 274.5,-19.5 317.5,-19.5 317.5,-0.5 274.5,-0.5"/>
<text text-anchor="middle" x="296" y="-7.5" font-family="FreeSans" font-size="10.00">vector</text>
</g>
<!-- Node10&#45;&gt;Node12 -->
<g id="edge11" class="edge"><title>Node10&#45;&gt;Node12</title>
<path fill="none" stroke="midnightblue" d="M576.235,-56.4435C506.313,-45.1048 385.13,-25.4535 327.804,-16.1574"/>
<polygon fill="midnightblue" stroke="midnightblue" points="328.302,-12.6924 317.87,-14.5465 327.181,-19.6022 328.302,-12.6924"/>
</g>
<!-- Node13&#45;&gt;Node5 -->
<g id="edge14" class="edge"><title>Node13&#45;&gt;Node5</title>
<path fill="none" stroke="midnightblue" d="M274.328,-236.498C315.616,-227.541 382.412,-212.965 440,-200 445.863,-198.68 452.02,-197.279 458.11,-195.884"/>
<polygon fill="midnightblue" stroke="midnightblue" points="459.272,-199.208 468.234,-193.557 457.704,-192.386 459.272,-199.208"/>
</g>
<!-- Node14 -->
<g id="node14" class="node"><title>Node14</title>
<g id="a_node14"><a xlink:href="xml_8h.html" target="_top" xlink:title="Classes providing support for XML data files. ">
<polygon fill="white" stroke="black" points="334,-174.5 334,-193.5 432,-193.5 432,-174.5 334,-174.5"/>
<text text-anchor="middle" x="383" y="-181.5" font-family="FreeSans" font-size="10.00">cantera/base/xml.h</text>
</a>
</g>
</g>
<!-- Node13&#45;&gt;Node14 -->
<g id="edge15" class="edge"><title>Node13&#45;&gt;Node14</title>
<path fill="none" stroke="midnightblue" d="M256.205,-236.403C281.372,-226.2 323.54,-209.105 352.279,-197.454"/>
<polygon fill="midnightblue" stroke="midnightblue" points="353.882,-200.581 361.835,-193.581 351.252,-194.094 353.882,-200.581"/>
</g>
<!-- Node16 -->
<g id="node16" class="node"><title>Node16</title>
<g id="a_node16"><a xlink:href="ct__thread_8h.html" target="_top" xlink:title="cantera/base/ct_thread.h">
<polygon fill="white" stroke="black" points="176.5,-112.5 176.5,-131.5 299.5,-131.5 299.5,-112.5 176.5,-112.5"/>
<text text-anchor="middle" x="238" y="-119.5" font-family="FreeSans" font-size="10.00">cantera/base/ct_thread.h</text>
</a>
</g>
</g>
<!-- Node13&#45;&gt;Node16 -->
<g id="edge19" class="edge"><title>Node13&#45;&gt;Node16</title>
<path fill="none" stroke="midnightblue" d="M204.753,-236.488C186.875,-229.726 165.7,-218.295 155,-200 147.82,-187.723 147.725,-180.22 155,-168 164.096,-152.721 180.388,-142.31 196.144,-135.386"/>
<polygon fill="midnightblue" stroke="midnightblue" points="197.833,-138.479 205.815,-131.512 195.231,-131.981 197.833,-138.479"/>
</g>
<!-- Node19 -->
<g id="node19" class="node"><title>Node19</title>
<g id="a_node19"><a xlink:href="FactoryBase_8h.html" target="_top" xlink:title="File contains the FactoryBase class declarations. ">
<polygon fill="white" stroke="black" points="21.5,-112.5 21.5,-131.5 158.5,-131.5 158.5,-112.5 21.5,-112.5"/>
<text text-anchor="middle" x="90" y="-119.5" font-family="FreeSans" font-size="10.00">cantera/base/FactoryBase.h</text>
</a>
</g>
</g>
<!-- Node13&#45;&gt;Node19 -->
<g id="edge23" class="edge"><title>Node13&#45;&gt;Node19</title>
<path fill="none" stroke="midnightblue" d="M210.877,-236.444C191.852,-228.884 165.383,-216.495 146,-200 126.006,-182.985 109.266,-157.444 99.438,-140.506"/>
<polygon fill="midnightblue" stroke="midnightblue" points="102.42,-138.668 94.478,-131.656 96.3142,-142.091 102.42,-138.668"/>
</g>
<!-- Node14&#45;&gt;Node7 -->
<g id="edge16" class="edge"><title>Node14&#45;&gt;Node7</title>
<path fill="none" stroke="midnightblue" d="M380.513,-174.258C376.986,-159.917 372.276,-131.083 385,-112 395.693,-95.962 413.57,-85.5711 431.277,-78.8692"/>
<polygon fill="midnightblue" stroke="midnightblue" points="432.728,-82.0714 441.049,-75.5129 430.454,-75.451 432.728,-82.0714"/>
</g>
<!-- Node15 -->
<g id="node15" class="node"><title>Node15</title>
<g id="a_node15"><a xlink:href="global_8h.html" target="_top" xlink:title="This file contains definitions for utility functions and text for modules, inputfiles, logs, textlogs, (see Input File Handling, Diagnostic Output, and Writing messages to the screen). ">
<polygon fill="white" stroke="black" points="394,-112.5 394,-131.5 444,-131.5 444,-112.5 394,-112.5"/>
<text text-anchor="middle" x="419" y="-119.5" font-family="FreeSans" font-size="10.00">global.h</text>
</a>
</g>
</g>
<!-- Node14&#45;&gt;Node15 -->
<g id="edge17" class="edge"><title>Node14&#45;&gt;Node15</title>
<path fill="none" stroke="midnightblue" d="M388.158,-174.403C393.451,-165.582 401.835,-151.608 408.527,-140.455"/>
<polygon fill="midnightblue" stroke="midnightblue" points="411.708,-141.956 413.852,-131.581 405.705,-138.355 411.708,-141.956"/>
</g>
<!-- Node15&#45;&gt;Node10 -->
<g id="edge18" class="edge"><title>Node15&#45;&gt;Node10</title>
<path fill="none" stroke="midnightblue" d="M444.245,-114.292C447.195,-113.516 450.164,-112.738 453,-112 498.004,-100.291 549.551,-87.1417 585.175,-78.0958"/>
<polygon fill="midnightblue" stroke="midnightblue" points="586.406,-81.3945 595.238,-75.5422 584.684,-74.6095 586.406,-81.3945"/>
</g>
<!-- Node16&#45;&gt;Node11 -->
<g id="edge20" class="edge"><title>Node16&#45;&gt;Node11</title>
<path fill="none" stroke="midnightblue" d="M268.109,-112.494C294.905,-104.478 334.869,-91.4149 368,-76 399.987,-61.1172 434.604,-39.4221 456.046,-25.2594"/>
<polygon fill="midnightblue" stroke="midnightblue" points="458.01,-28.1566 464.383,-19.6927 454.123,-22.3351 458.01,-28.1566"/>
</g>
<!-- Node17 -->
<g id="node17" class="node"><title>Node17</title>
<polygon fill="white" stroke="#bfbfbf" points="254,-56.5 254,-75.5 360,-75.5 360,-56.5 254,-56.5"/>
<text text-anchor="middle" x="307" y="-63.5" font-family="FreeSans" font-size="10.00">boost/shared_ptr.hpp</text>
</g>
<!-- Node16&#45;&gt;Node17 -->
<g id="edge21" class="edge"><title>Node16&#45;&gt;Node17</title>
<path fill="none" stroke="midnightblue" d="M249.086,-112.324C259.486,-104.185 275.261,-91.8395 287.722,-82.0874"/>
<polygon fill="midnightblue" stroke="midnightblue" points="289.994,-84.7533 295.712,-75.8339 285.68,-79.2407 289.994,-84.7533"/>
</g>
<!-- Node18 -->
<g id="node18" class="node"><title>Node18</title>
<polygon fill="white" stroke="#bfbfbf" points="118.5,-56.5 118.5,-75.5 235.5,-75.5 235.5,-56.5 118.5,-56.5"/>
<text text-anchor="middle" x="177" y="-63.5" font-family="FreeSans" font-size="10.00">boost/thread/mutex.hpp</text>
</g>
<!-- Node16&#45;&gt;Node18 -->
<g id="edge22" class="edge"><title>Node16&#45;&gt;Node18</title>
<path fill="none" stroke="midnightblue" d="M228.199,-112.324C219.182,-104.341 205.594,-92.3128 194.682,-82.6529"/>
<polygon fill="midnightblue" stroke="midnightblue" points="196.787,-79.8416 186.979,-75.8339 192.147,-85.083 196.787,-79.8416"/>
</g>
<!-- Node19&#45;&gt;Node12 -->
<g id="edge24" class="edge"><title>Node19&#45;&gt;Node12</title>
<path fill="none" stroke="midnightblue" d="M89.9339,-112.462C90.3123,-98.563 93.1687,-71.0856 109,-56 131.081,-34.959 216.875,-21.0324 264.205,-14.7813"/>
<polygon fill="midnightblue" stroke="midnightblue" points="264.766,-18.2381 274.24,-13.4949 263.876,-11.2949 264.766,-18.2381"/>
</g>
<!-- Node20&#45;&gt;Node7 -->
<g id="edge27" class="edge"><title>Node20&#45;&gt;Node7</title>
<path fill="none" stroke="midnightblue" d="M264.805,-168.876C291.415,-153.958 335.104,-130.131 374,-112 399.94,-99.9082 430.072,-87.8112 452.39,-79.2097"/>
<polygon fill="midnightblue" stroke="midnightblue" points="453.656,-82.4729 461.746,-75.632 451.156,-75.9346 453.656,-82.4729"/>
</g>
<!-- Node20&#45;&gt;Node9 -->
<g id="edge26" class="edge"><title>Node20&#45;&gt;Node9</title>
<path fill="none" stroke="midnightblue" d="M302.834,-168.933C350.917,-158.168 416.223,-143.547 460.125,-133.718"/>
<polygon fill="midnightblue" stroke="midnightblue" points="460.983,-137.113 469.977,-131.513 459.454,-130.282 460.983,-137.113"/>
</g>
<!-- Node20&#45;&gt;Node16 -->
<g id="edge29" class="edge"><title>Node20&#45;&gt;Node16</title>
<path fill="none" stroke="midnightblue" d="M239.526,-168.781C239.256,-160.691 238.915,-150.462 238.624,-141.725"/>
<polygon fill="midnightblue" stroke="midnightblue" points="242.122,-141.608 238.291,-131.731 235.126,-141.842 242.122,-141.608"/>
</g>
<!-- Node20&#45;&gt;Node19 -->
<g id="edge28" class="edge"><title>Node20&#45;&gt;Node19</title>
<path fill="none" stroke="midnightblue" d="M204.832,-168.933C179.412,-158.765 145.392,-145.157 120.991,-135.396"/>
<polygon fill="midnightblue" stroke="midnightblue" points="122.085,-132.064 111.5,-131.6 119.485,-138.564 122.085,-132.064"/>
</g>
<!-- Node21&#45;&gt;Node10 -->
<g id="edge31" class="edge"><title>Node21&#45;&gt;Node10</title>
<path fill="none" stroke="midnightblue" d="M656.702,-292.904C669.5,-284.111 683.904,-271.514 691,-256 694.697,-247.917 692.445,-244.771 691,-236 681.547,-178.625 653.084,-115.377 638.237,-85.1014"/>
<polygon fill="midnightblue" stroke="midnightblue" points="641.207,-83.2137 633.607,-75.8314 634.944,-86.3415 641.207,-83.2137"/>
</g>
<!-- Node22 -->
<g id="node22" class="node"><title>Node22</title>
<g id="a_node22"><a xlink:href="speciesThermoTypes_8h.html" target="_top" xlink:title="Contains const definitions for types of species reference&#45;state thermodynamics managers (see Species ...">
<polygon fill="white" stroke="black" points="567.5,-236.5 567.5,-255.5 682.5,-255.5 682.5,-236.5 567.5,-236.5"/>
<text text-anchor="middle" x="625" y="-243.5" font-family="FreeSans" font-size="10.00">speciesThermoTypes.h</text>
</a>
</g>
</g>
<!-- Node21&#45;&gt;Node22 -->
<g id="edge32" class="edge"><title>Node21&#45;&gt;Node22</title>
<path fill="none" stroke="midnightblue" d="M630.341,-292.781C629.397,-284.691 628.204,-274.462 627.185,-265.725"/>
<polygon fill="midnightblue" stroke="midnightblue" points="630.654,-265.258 626.019,-255.731 623.701,-266.069 630.654,-265.258"/>
</g>
<!-- Node23&#45;&gt;Node10 -->
<g id="edge34" class="edge"><title>Node23&#45;&gt;Node10</title>
<path fill="none" stroke="midnightblue" d="M424.625,-236.439C467.964,-227.116 532.596,-211.94 555,-200 595.292,-178.527 613.229,-173.62 632,-132 638.531,-117.519 636.982,-99.3333 634.259,-85.8831"/>
<polygon fill="midnightblue" stroke="midnightblue" points="637.594,-84.7843 631.847,-75.8838 630.789,-86.4257 637.594,-84.7843"/>
</g>
<!-- Node23&#45;&gt;Node14 -->
<g id="edge35" class="edge"><title>Node23&#45;&gt;Node14</title>
<path fill="none" stroke="midnightblue" d="M383,-236.403C383,-227.938 383,-214.728 383,-203.82"/>
<polygon fill="midnightblue" stroke="midnightblue" points="386.5,-203.581 383,-193.581 379.5,-203.581 386.5,-203.581"/>
</g>
<!-- Node24&#45;&gt;Node8 -->
<g id="edge38" class="edge"><title>Node24&#45;&gt;Node8</title>
<path fill="none" stroke="midnightblue" d="M773.989,-112.294C756.634,-99.7439 723.498,-75.8898 695,-56 680.031,-45.5528 663.007,-33.9524 649.999,-25.1466"/>
<polygon fill="midnightblue" stroke="midnightblue" points="651.954,-22.2439 641.709,-19.5452 648.035,-28.0439 651.954,-22.2439"/>
</g>
<!-- Node24&#45;&gt;Node10 -->
<g id="edge37" class="edge"><title>Node24&#45;&gt;Node10</title>
<path fill="none" stroke="midnightblue" d="M761.123,-112.444C734.711,-103.359 692.785,-88.9388 663.258,-78.7831"/>
<polygon fill="midnightblue" stroke="midnightblue" points="664.355,-75.4593 653.761,-75.5164 662.079,-82.0787 664.355,-75.4593"/>
</g>
</g>
</svg>
