<?xml version="1.0" encoding="UTF-8" standalone="no"?>
<!DOCTYPE svg PUBLIC "-//W3C//DTD SVG 1.1//EN"
 "http://www.w3.org/Graphics/SVG/1.1/DTD/svg11.dtd">
<!-- Generated by graphviz version 2.36.0 (20140111.2315)
 -->
<!-- Title: FlowDevice.h Pages: 1 -->
<svg width="953pt" height="84pt"
 viewBox="0.00 0.00 953.00 84.00" xmlns="http://www.w3.org/2000/svg" xmlns:xlink="http://www.w3.org/1999/xlink">
<g id="graph0" class="graph" transform="scale(1 1) rotate(0) translate(4 80)">
<title>FlowDevice.h</title>
<polygon fill="white" stroke="none" points="-4,4 -4,-80 949,-80 949,4 -4,4"/>
<!-- Node1 -->
<g id="node1" class="node"><title>Node1</title>
<polygon fill="#bfbfbf" stroke="black" points="507,-56.5 507,-75.5 581,-75.5 581,-56.5 507,-56.5"/>
<text text-anchor="middle" x="544" y="-63.5" font-family="FreeSans" font-size="10.00">FlowDevice.h</text>
</g>
<!-- Node2 -->
<g id="node2" class="node"><title>Node2</title>
<g id="a_node2"><a xlink:href="ConstPressureReactor_8cpp.html" target="_top" xlink:title="A constant pressure zero&#45;dimensional reactor. ">
<polygon fill="white" stroke="black" points="-0.5,-0.5 -0.5,-19.5 130.5,-19.5 130.5,-0.5 -0.5,-0.5"/>
<text text-anchor="middle" x="65" y="-7.5" font-family="FreeSans" font-size="10.00">ConstPressureReactor.cpp</text>
</a>
</g>
</g>
<!-- Node1&#45;&gt;Node2 -->
<g id="edge1" class="edge"><title>Node1&#45;&gt;Node2</title>
<path fill="none" stroke="midnightblue" d="M496.828,-59.8772C421.417,-51.6581 269.057,-34.9308 140,-20 137.004,-19.6534 133.94,-19.2964 130.846,-18.9336"/>
<polygon fill="midnightblue" stroke="midnightblue" points="496.627,-63.3759 506.947,-60.9794 497.385,-56.4171 496.627,-63.3759"/>
</g>
<!-- Node3 -->
<g id="node3" class="node"><title>Node3</title>
<g id="a_node3"><a xlink:href="FlowDevice_8cpp.html" target="_top" xlink:title="FlowDevice.cpp">
<polygon fill="white" stroke="black" points="149,-0.5 149,-19.5 233,-19.5 233,-0.5 149,-0.5"/>
<text text-anchor="middle" x="191" y="-7.5" font-family="FreeSans" font-size="10.00">FlowDevice.cpp</text>
</a>
</g>
</g>
<!-- Node1&#45;&gt;Node3 -->
<g id="edge2" class="edge"><title>Node1&#45;&gt;Node3</title>
<path fill="none" stroke="midnightblue" d="M496.373,-58.3871C436.634,-49.9865 331.101,-34.7961 241,-20 238.476,-19.5855 235.882,-19.1494 233.267,-18.702"/>
<polygon fill="midnightblue" stroke="midnightblue" points="496.236,-61.902 506.625,-59.8252 497.208,-54.9699 496.236,-61.902"/>
</g>
<!-- Node4 -->
<g id="node4" class="node"><title>Node4</title>
<g id="a_node4"><a xlink:href="IdealGasConstPressureReactor_8cpp_source.html" target="_top" xlink:title="IdealGasConstPressureReactor.cpp">
<polygon fill="white" stroke="black" points="250.5,-0.5 250.5,-19.5 419.5,-19.5 419.5,-0.5 250.5,-0.5"/>
<text text-anchor="middle" x="335" y="-7.5" font-family="FreeSans" font-size="10.00">IdealGasConstPressureReactor.cpp</text>
</a>
</g>
</g>
<!-- Node1&#45;&gt;Node4 -->
<g id="edge3" class="edge"><title>Node1&#45;&gt;Node4</title>
<path fill="none" stroke="midnightblue" d="M501.016,-53.8941C461.548,-43.6966 403.9,-28.802 367.962,-19.5164"/>
<polygon fill="midnightblue" stroke="midnightblue" points="500.326,-57.3306 510.883,-56.4435 502.077,-50.5532 500.326,-57.3306"/>
</g>
<!-- Node5 -->
<g id="node5" class="node"><title>Node5</title>
<g id="a_node5"><a xlink:href="IdealGasReactor_8cpp.html" target="_top" xlink:title="A zero&#45;dimensional reactor. ">
<polygon fill="white" stroke="black" points="437.5,-0.5 437.5,-19.5 544.5,-19.5 544.5,-0.5 437.5,-0.5"/>
<text text-anchor="middle" x="491" y="-7.5" font-family="FreeSans" font-size="10.00">IdealGasReactor.cpp</text>
</a>
</g>
</g>
<!-- Node1&#45;&gt;Node5 -->
<g id="edge4" class="edge"><title>Node1&#45;&gt;Node5</title>
<path fill="none" stroke="midnightblue" d="M528.019,-48.7175C518.678,-39.1997 507.254,-27.5608 499.589,-19.7511"/>
<polygon fill="midnightblue" stroke="midnightblue" points="525.746,-51.3978 535.248,-56.083 530.741,-46.4945 525.746,-51.3978"/>
</g>
<!-- Node6 -->
<g id="node6" class="node"><title>Node6</title>
<g id="a_node6"><a xlink:href="Reactor_8cpp.html" target="_top" xlink:title="A zero&#45;dimensional reactor. ">
<polygon fill="white" stroke="black" points="563,-0.5 563,-19.5 631,-19.5 631,-0.5 563,-0.5"/>
<text text-anchor="middle" x="597" y="-7.5" font-family="FreeSans" font-size="10.00">Reactor.cpp</text>
</a>
</g>
</g>
<!-- Node1&#45;&gt;Node6 -->
<g id="edge5" class="edge"><title>Node1&#45;&gt;Node6</title>
<path fill="none" stroke="midnightblue" d="M559.981,-48.7175C569.322,-39.1997 580.746,-27.5608 588.411,-19.7511"/>
<polygon fill="midnightblue" stroke="midnightblue" points="557.259,-46.4945 552.752,-56.083 562.254,-51.3978 557.259,-46.4945"/>
</g>
<!-- Node7 -->
<g id="node7" class="node"><title>Node7</title>
<g id="a_node7"><a xlink:href="ReactorBase_8cpp.html" target="_top" xlink:title="ReactorBase.cpp">
<polygon fill="white" stroke="black" points="649,-0.5 649,-19.5 739,-19.5 739,-0.5 649,-0.5"/>
<text text-anchor="middle" x="694" y="-7.5" font-family="FreeSans" font-size="10.00">ReactorBase.cpp</text>
</a>
</g>
</g>
<!-- Node1&#45;&gt;Node7 -->
<g id="edge6" class="edge"><title>Node1&#45;&gt;Node7</title>
<path fill="none" stroke="midnightblue" d="M577.225,-53.0392C605.448,-42.8786 645.262,-28.5457 670.343,-19.5164"/>
<polygon fill="midnightblue" stroke="midnightblue" points="575.991,-49.7632 567.768,-56.4435 578.362,-56.3494 575.991,-49.7632"/>
</g>
<!-- Node8 -->
<g id="node8" class="node"><title>Node8</title>
<g id="a_node8"><a xlink:href="ReactorNet_8cpp.html" target="_top" xlink:title="ReactorNet.cpp">
<polygon fill="white" stroke="black" points="757.5,-0.5 757.5,-19.5 840.5,-19.5 840.5,-0.5 757.5,-0.5"/>
<text text-anchor="middle" x="799" y="-7.5" font-family="FreeSans" font-size="10.00">ReactorNet.cpp</text>
</a>
</g>
</g>
<!-- Node1&#45;&gt;Node8 -->
<g id="edge7" class="edge"><title>Node1&#45;&gt;Node8</title>
<path fill="none" stroke="midnightblue" d="M590.922,-55.0635C638.983,-44.886 712.925,-29.2277 758.504,-19.5756"/>
<polygon fill="midnightblue" stroke="midnightblue" points="590.137,-51.6521 581.079,-57.1479 591.587,-58.5002 590.137,-51.6521"/>
</g>
<!-- Node9 -->
<g id="node9" class="node"><title>Node9</title>
<g id="a_node9"><a xlink:href="flowControllers_8h.html" target="_top" xlink:title="Some flow devices derived from class FlowDevice. ">
<polygon fill="white" stroke="black" points="859,-0.5 859,-19.5 945,-19.5 945,-0.5 859,-0.5"/>
<text text-anchor="middle" x="902" y="-7.5" font-family="FreeSans" font-size="10.00">flowControllers.h</text>
</a>
</g>
</g>
<!-- Node1&#45;&gt;Node9 -->
<g id="edge8" class="edge"><title>Node1&#45;&gt;Node9</title>
<path fill="none" stroke="midnightblue" d="M591.053,-58.3812C651.005,-49.8735 757.8,-34.4695 849,-20 852.226,-19.4881 855.561,-18.948 858.914,-18.3969"/>
<polygon fill="midnightblue" stroke="midnightblue" points="590.54,-54.9187 581.13,-59.787 591.522,-61.8495 590.54,-54.9187"/>
</g>
</g>
</svg>
