<?xml version="1.0" encoding="UTF-8" standalone="no"?>
<!DOCTYPE svg PUBLIC "-//W3C//DTD SVG 1.1//EN"
 "http://www.w3.org/Graphics/SVG/1.1/DTD/svg11.dtd">
<!-- Generated by graphviz version 2.36.0 (20140111.2315)
 -->
<!-- Title: GeneralMatrix.h Pages: 1 -->
<svg width="1805pt" height="252pt"
 viewBox="0.00 0.00 1805.00 252.00" xmlns="http://www.w3.org/2000/svg" xmlns:xlink="http://www.w3.org/1999/xlink">
<g id="graph0" class="graph" transform="scale(1 1) rotate(0) translate(4 248)">
<title>GeneralMatrix.h</title>
<polygon fill="white" stroke="none" points="-4,4 -4,-248 1801,-248 1801,4 -4,4"/>
<!-- Node1 -->
<g id="node1" class="node"><title>Node1</title>
<polygon fill="#bfbfbf" stroke="black" points="644,-224.5 644,-243.5 728,-243.5 728,-224.5 644,-224.5"/>
<text text-anchor="middle" x="686" y="-231.5" font-family="FreeSans" font-size="10.00">GeneralMatrix.h</text>
</g>
<!-- Node2 -->
<g id="node2" class="node"><title>Node2</title>
<g id="a_node2"><a xlink:href="GeneralMatrix_8cpp.html" target="_top" xlink:title="GeneralMatrix.cpp">
<polygon fill="white" stroke="black" points="462.5,-168.5 462.5,-187.5 557.5,-187.5 557.5,-168.5 462.5,-168.5"/>
<text text-anchor="middle" x="510" y="-175.5" font-family="FreeSans" font-size="10.00">GeneralMatrix.cpp</text>
</a>
</g>
</g>
<!-- Node1&#45;&gt;Node2 -->
<g id="edge1" class="edge"><title>Node1&#45;&gt;Node2</title>
<path fill="none" stroke="midnightblue" d="M648.311,-221.436C615.128,-211.255 567.572,-196.664 537.757,-187.516"/>
<polygon fill="midnightblue" stroke="midnightblue" points="647.525,-224.856 658.112,-224.444 649.579,-218.164 647.525,-224.856"/>
</g>
<!-- Node3 -->
<g id="node3" class="node"><title>Node3</title>
<g id="a_node3"><a xlink:href="ResidJacEval_8h.html" target="_top" xlink:title="Dense, Square (not sparse) matrices. ">
<polygon fill="white" stroke="black" points="576,-168.5 576,-187.5 658,-187.5 658,-168.5 576,-168.5"/>
<text text-anchor="middle" x="617" y="-175.5" font-family="FreeSans" font-size="10.00">ResidJacEval.h</text>
</a>
</g>
</g>
<!-- Node1&#45;&gt;Node3 -->
<g id="edge2" class="edge"><title>Node1&#45;&gt;Node3</title>
<path fill="none" stroke="midnightblue" d="M666.962,-218.101C654.544,-208.382 638.757,-196.027 628.288,-187.834"/>
<polygon fill="midnightblue" stroke="midnightblue" points="664.882,-220.917 674.914,-224.324 669.196,-215.405 664.882,-220.917"/>
</g>
<!-- Node10 -->
<g id="node10" class="node"><title>Node10</title>
<g id="a_node10"><a xlink:href="BEulerInt_8h.html" target="_top" xlink:title="BEulerInt.h">
<polygon fill="white" stroke="black" points="627,-112.5 627,-131.5 691,-131.5 691,-112.5 627,-112.5"/>
<text text-anchor="middle" x="659" y="-119.5" font-family="FreeSans" font-size="10.00">BEulerInt.h</text>
</a>
</g>
</g>
<!-- Node1&#45;&gt;Node10 -->
<g id="edge28" class="edge"><title>Node1&#45;&gt;Node10</title>
<path fill="none" stroke="midnightblue" d="M681.422,-214.348C675.508,-190.254 665.457,-149.308 661.109,-131.591"/>
<polygon fill="midnightblue" stroke="midnightblue" points="678.098,-215.491 683.881,-224.368 684.897,-213.822 678.098,-215.491"/>
</g>
<!-- Node15 -->
<g id="node15" class="node"><title>Node15</title>
<g id="a_node15"><a xlink:href="BandMatrix_8h.html" target="_top" xlink:title="Declarations for the class BandMatrix which is a child class of GeneralMatrix for banded matrices han...">
<polygon fill="white" stroke="black" points="714.5,-168.5 714.5,-187.5 787.5,-187.5 787.5,-168.5 714.5,-168.5"/>
<text text-anchor="middle" x="751" y="-175.5" font-family="FreeSans" font-size="10.00">BandMatrix.h</text>
</a>
</g>
</g>
<!-- Node1&#45;&gt;Node15 -->
<g id="edge16" class="edge"><title>Node1&#45;&gt;Node15</title>
<path fill="none" stroke="midnightblue" d="M704.273,-217.82C715.918,-208.145 730.599,-195.948 740.367,-187.834"/>
<polygon fill="midnightblue" stroke="midnightblue" points="701.899,-215.242 696.443,-224.324 706.372,-220.626 701.899,-215.242"/>
</g>
<!-- Node25 -->
<g id="node25" class="node"><title>Node25</title>
<g id="a_node25"><a xlink:href="SquareMatrix_8h.html" target="_top" xlink:title="Dense, Square (not sparse) matrices. ">
<polygon fill="white" stroke="black" points="1003.5,-168.5 1003.5,-187.5 1084.5,-187.5 1084.5,-168.5 1003.5,-168.5"/>
<text text-anchor="middle" x="1044" y="-175.5" font-family="FreeSans" font-size="10.00">SquareMatrix.h</text>
</a>
</g>
</g>
<!-- Node1&#45;&gt;Node25 -->
<g id="edge29" class="edge"><title>Node1&#45;&gt;Node25</title>
<path fill="none" stroke="midnightblue" d="M738.315,-225.109C810.264,-214.256 938.236,-194.953 1003.42,-185.122"/>
<polygon fill="midnightblue" stroke="midnightblue" points="737.486,-221.694 728.12,-226.647 738.53,-228.616 737.486,-221.694"/>
</g>
<!-- Node4 -->
<g id="node4" class="node"><title>Node4</title>
<g id="a_node4"><a xlink:href="ResidJacEval_8cpp.html" target="_top" xlink:title="ResidJacEval.cpp">
<polygon fill="white" stroke="black" points="94,-112.5 94,-131.5 186,-131.5 186,-112.5 94,-112.5"/>
<text text-anchor="middle" x="140" y="-119.5" font-family="FreeSans" font-size="10.00">ResidJacEval.cpp</text>
</a>
</g>
</g>
<!-- Node3&#45;&gt;Node4 -->
<g id="edge3" class="edge"><title>Node3&#45;&gt;Node4</title>
<path fill="none" stroke="midnightblue" d="M565.801,-168.091C400.15,-145.882 356.068,-152.97 195,-132 192.122,-131.625 189.163,-131.215 186.181,-130.782"/>
<polygon fill="midnightblue" stroke="midnightblue" points="565.468,-171.578 575.847,-169.454 566.409,-164.642 565.468,-171.578"/>
</g>
<!-- Node5 -->
<g id="node5" class="node"><title>Node5</title>
<g id="a_node5"><a xlink:href="DAE__Solver_8h.html" target="_top" xlink:title="Header file for class DAE_Solver. ">
<polygon fill="white" stroke="black" points="204,-112.5 204,-131.5 280,-131.5 280,-112.5 204,-112.5"/>
<text text-anchor="middle" x="242" y="-119.5" font-family="FreeSans" font-size="10.00">DAE_Solver.h</text>
</a>
</g>
</g>
<!-- Node3&#45;&gt;Node5 -->
<g id="edge4" class="edge"><title>Node3&#45;&gt;Node5</title>
<path fill="none" stroke="midnightblue" d="M565.893,-168.038C455.975,-150.839 339.445,-135.46 280.471,-127.879"/>
<polygon fill="midnightblue" stroke="midnightblue" points="565.403,-171.504 575.826,-169.6 566.491,-164.589 565.403,-171.504"/>
</g>
<!-- Node3&#45;&gt;Node10 -->
<g id="edge11" class="edge"><title>Node3&#45;&gt;Node10</title>
<path fill="none" stroke="midnightblue" d="M630.11,-160.144C637.428,-150.736 646.241,-139.405 652.194,-131.751"/>
<polygon fill="midnightblue" stroke="midnightblue" points="627.312,-158.041 623.935,-168.083 632.838,-162.338 627.312,-158.041"/>
</g>
<!-- Node12 -->
<g id="node12" class="node"><title>Node12</title>
<g id="a_node12"><a xlink:href="NonlinearSolver_8h.html" target="_top" xlink:title="Class that calculates the solution to a nonlinear, dense, set of equations (see Numerical Utilities w...">
<polygon fill="white" stroke="black" points="849,-112.5 849,-131.5 941,-131.5 941,-112.5 849,-112.5"/>
<text text-anchor="middle" x="895" y="-119.5" font-family="FreeSans" font-size="10.00">NonlinearSolver.h</text>
</a>
</g>
</g>
<!-- Node3&#45;&gt;Node12 -->
<g id="edge13" class="edge"><title>Node3&#45;&gt;Node12</title>
<path fill="none" stroke="midnightblue" d="M668.118,-167.071C720.584,-156.879 801.37,-141.187 851.056,-131.536"/>
<polygon fill="midnightblue" stroke="midnightblue" points="667.169,-163.689 658.02,-169.032 668.504,-170.561 667.169,-163.689"/>
</g>
<!-- Node6 -->
<g id="node6" class="node"><title>Node6</title>
<g id="a_node6"><a xlink:href="DAE__solvers_8cpp.html" target="_top" xlink:title="Factory routine for picking the DAE solver package. ">
<polygon fill="white" stroke="black" points="-0.5,-0.5 -0.5,-19.5 88.5,-19.5 88.5,-0.5 -0.5,-0.5"/>
<text text-anchor="middle" x="44" y="-7.5" font-family="FreeSans" font-size="10.00">DAE_solvers.cpp</text>
</a>
</g>
</g>
<!-- Node5&#45;&gt;Node6 -->
<g id="edge5" class="edge"><title>Node5&#45;&gt;Node6</title>
<path fill="none" stroke="midnightblue" d="M197.032,-109.61C172.099,-102.172 141.147,-91.0292 116,-76 89.402,-60.1039 63.8433,-33.4793 51.5705,-19.7604"/>
<polygon fill="midnightblue" stroke="midnightblue" points="196.386,-113.066 206.964,-112.474 198.325,-106.34 196.386,-113.066"/>
</g>
<!-- Node7 -->
<g id="node7" class="node"><title>Node7</title>
<g id="a_node7"><a xlink:href="integrators_8h.html" target="_top" xlink:title="ODE integrators. ">
<polygon fill="white" stroke="black" points="207.5,-0.5 207.5,-19.5 276.5,-19.5 276.5,-0.5 207.5,-0.5"/>
<text text-anchor="middle" x="242" y="-7.5" font-family="FreeSans" font-size="10.00">integrators.h</text>
</a>
</g>
</g>
<!-- Node5&#45;&gt;Node7 -->
<g id="edge6" class="edge"><title>Node5&#45;&gt;Node7</title>
<path fill="none" stroke="midnightblue" d="M242,-102.348C242,-78.2538 242,-37.3079 242,-19.5914"/>
<polygon fill="midnightblue" stroke="midnightblue" points="238.5,-102.368 242,-112.368 245.5,-102.369 238.5,-102.368"/>
</g>
<!-- Node8 -->
<g id="node8" class="node"><title>Node8</title>
<g id="a_node8"><a xlink:href="IDA__Solver_8h.html" target="_top" xlink:title="Header file for class IDA_Solver. ">
<polygon fill="white" stroke="black" points="125.5,-56.5 125.5,-75.5 198.5,-75.5 198.5,-56.5 125.5,-56.5"/>
<text text-anchor="middle" x="162" y="-63.5" font-family="FreeSans" font-size="10.00">IDA_Solver.h</text>
</a>
</g>
</g>
<!-- Node5&#45;&gt;Node8 -->
<g id="edge7" class="edge"><title>Node5&#45;&gt;Node8</title>
<path fill="none" stroke="midnightblue" d="M220.699,-106.622C206.085,-96.7574 187.173,-83.9919 174.821,-75.6545"/>
<polygon fill="midnightblue" stroke="midnightblue" points="218.9,-109.63 229.147,-112.324 222.816,-103.828 218.9,-109.63"/>
</g>
<!-- Node8&#45;&gt;Node6 -->
<g id="edge8" class="edge"><title>Node8&#45;&gt;Node6</title>
<path fill="none" stroke="midnightblue" d="M134.1,-52.2321C112.027,-42.1312 81.8237,-28.3091 62.61,-19.5164"/>
<polygon fill="midnightblue" stroke="midnightblue" points="132.753,-55.4648 143.303,-56.4435 135.666,-49.0997 132.753,-55.4648"/>
</g>
<!-- Node8&#45;&gt;Node7 -->
<g id="edge10" class="edge"><title>Node8&#45;&gt;Node7</title>
<path fill="none" stroke="midnightblue" d="M183.301,-50.6221C197.915,-40.7574 216.827,-27.9919 229.179,-19.6545"/>
<polygon fill="midnightblue" stroke="midnightblue" points="181.184,-47.8282 174.853,-56.324 185.1,-53.6302 181.184,-47.8282"/>
</g>
<!-- Node9 -->
<g id="node9" class="node"><title>Node9</title>
<g id="a_node9"><a xlink:href="IDA__Solver_8cpp.html" target="_top" xlink:title="IDA_Solver.cpp">
<polygon fill="white" stroke="black" points="106.5,-0.5 106.5,-19.5 189.5,-19.5 189.5,-0.5 106.5,-0.5"/>
<text text-anchor="middle" x="148" y="-7.5" font-family="FreeSans" font-size="10.00">IDA_Solver.cpp</text>
</a>
</g>
</g>
<!-- Node8&#45;&gt;Node9 -->
<g id="edge9" class="edge"><title>Node8&#45;&gt;Node9</title>
<path fill="none" stroke="midnightblue" d="M157.177,-46.3956C154.835,-37.362 152.132,-26.936 150.269,-19.7511"/>
<polygon fill="midnightblue" stroke="midnightblue" points="153.79,-47.2814 159.688,-56.083 160.566,-45.5246 153.79,-47.2814"/>
</g>
<!-- Node11 -->
<g id="node11" class="node"><title>Node11</title>
<g id="a_node11"><a xlink:href="BEulerInt_8cpp.html" target="_top" xlink:title="BEulerInt.cpp">
<polygon fill="white" stroke="black" points="752,-56.5 752,-75.5 826,-75.5 826,-56.5 752,-56.5"/>
<text text-anchor="middle" x="789" y="-63.5" font-family="FreeSans" font-size="10.00">BEulerInt.cpp</text>
</a>
</g>
</g>
<!-- Node10&#45;&gt;Node11 -->
<g id="edge12" class="edge"><title>Node10&#45;&gt;Node11</title>
<path fill="none" stroke="midnightblue" d="M689.085,-108.503C713.457,-98.3795 747.14,-84.388 768.497,-75.5164"/>
<polygon fill="midnightblue" stroke="midnightblue" points="687.491,-105.375 679.599,-112.444 690.177,-111.84 687.491,-105.375"/>
</g>
<!-- Node13 -->
<g id="node13" class="node"><title>Node13</title>
<g id="a_node13"><a xlink:href="NonlinearSolver_8cpp.html" target="_top" xlink:title="Damped Newton solver for 0D and 1D problems. ">
<polygon fill="white" stroke="black" points="844,-56.5 844,-75.5 946,-75.5 946,-56.5 844,-56.5"/>
<text text-anchor="middle" x="895" y="-63.5" font-family="FreeSans" font-size="10.00">NonlinearSolver.cpp</text>
</a>
</g>
</g>
<!-- Node12&#45;&gt;Node13 -->
<g id="edge14" class="edge"><title>Node12&#45;&gt;Node13</title>
<path fill="none" stroke="midnightblue" d="M895,-101.805C895,-92.9102 895,-82.7798 895,-75.7511"/>
<polygon fill="midnightblue" stroke="midnightblue" points="891.5,-102.083 895,-112.083 898.5,-102.083 891.5,-102.083"/>
</g>
<!-- Node14 -->
<g id="node14" class="node"><title>Node14</title>
<g id="a_node14"><a xlink:href="numerics_8h_source.html" target="_top" xlink:title="numerics.h">
<polygon fill="white" stroke="black" points="964.5,-56.5 964.5,-75.5 1027.5,-75.5 1027.5,-56.5 964.5,-56.5"/>
<text text-anchor="middle" x="996" y="-63.5" font-family="FreeSans" font-size="10.00">numerics.h</text>
</a>
</g>
</g>
<!-- Node12&#45;&gt;Node14 -->
<g id="edge15" class="edge"><title>Node12&#45;&gt;Node14</title>
<path fill="none" stroke="midnightblue" d="M920.083,-107.59C938.757,-97.6052 963.704,-84.2672 979.813,-75.6545"/>
<polygon fill="midnightblue" stroke="midnightblue" points="918.396,-104.522 911.227,-112.324 921.696,-110.696 918.396,-104.522"/>
</g>
<!-- Node15&#45;&gt;Node14 -->
<g id="edge18" class="edge"><title>Node15&#45;&gt;Node14</title>
<path fill="none" stroke="midnightblue" d="M797.994,-175.761C840.852,-172.577 904.279,-162.524 950,-132 971.386,-117.722 985.979,-89.8789 992.36,-75.7195"/>
<polygon fill="midnightblue" stroke="midnightblue" points="797.587,-172.28 787.833,-176.416 798.038,-179.266 797.587,-172.28"/>
</g>
<!-- Node16 -->
<g id="node16" class="node"><title>Node16</title>
<g id="a_node16"><a xlink:href="BandMatrix_8cpp.html" target="_top" xlink:title="Banded matrices. ">
<polygon fill="white" stroke="black" points="709.5,-112.5 709.5,-131.5 792.5,-131.5 792.5,-112.5 709.5,-112.5"/>
<text text-anchor="middle" x="751" y="-119.5" font-family="FreeSans" font-size="10.00">BandMatrix.cpp</text>
</a>
</g>
</g>
<!-- Node15&#45;&gt;Node16 -->
<g id="edge17" class="edge"><title>Node15&#45;&gt;Node16</title>
<path fill="none" stroke="midnightblue" d="M751,-157.805C751,-148.91 751,-138.78 751,-131.751"/>
<polygon fill="midnightblue" stroke="midnightblue" points="747.5,-158.083 751,-168.083 754.5,-158.083 747.5,-158.083"/>
</g>
<!-- Node17 -->
<g id="node17" class="node"><title>Node17</title>
<g id="a_node17"><a xlink:href="MultiJac_8h.html" target="_top" xlink:title="MultiJac.h">
<polygon fill="white" stroke="black" points="519.5,-112.5 519.5,-131.5 580.5,-131.5 580.5,-112.5 519.5,-112.5"/>
<text text-anchor="middle" x="550" y="-119.5" font-family="FreeSans" font-size="10.00">MultiJac.h</text>
</a>
</g>
</g>
<!-- Node15&#45;&gt;Node17 -->
<g id="edge19" class="edge"><title>Node15&#45;&gt;Node17</title>
<path fill="none" stroke="midnightblue" d="M709.329,-165.805C671.016,-155.512 615.099,-140.489 580.711,-131.251"/>
<polygon fill="midnightblue" stroke="midnightblue" points="708.585,-169.229 719.151,-168.444 710.402,-162.469 708.585,-169.229"/>
</g>
<!-- Node18 -->
<g id="node18" class="node"><title>Node18</title>
<g id="a_node18"><a xlink:href="Domain1D_8cpp.html" target="_top" xlink:title="Domain1D.cpp">
<polygon fill="white" stroke="black" points="482,-56.5 482,-75.5 562,-75.5 562,-56.5 482,-56.5"/>
<text text-anchor="middle" x="522" y="-63.5" font-family="FreeSans" font-size="10.00">Domain1D.cpp</text>
</a>
</g>
</g>
<!-- Node17&#45;&gt;Node18 -->
<g id="edge20" class="edge"><title>Node17&#45;&gt;Node18</title>
<path fill="none" stroke="midnightblue" d="M540.658,-102.983C535.905,-93.8168 530.344,-83.0922 526.538,-75.7511"/>
<polygon fill="midnightblue" stroke="midnightblue" points="537.666,-104.817 545.376,-112.083 543.88,-101.594 537.666,-104.817"/>
</g>
<!-- Node19 -->
<g id="node19" class="node"><title>Node19</title>
<g id="a_node19"><a xlink:href="MultiJac_8cpp.html" target="_top" xlink:title="Implementation file for class MultiJac. ">
<polygon fill="white" stroke="black" points="580.5,-56.5 580.5,-75.5 651.5,-75.5 651.5,-56.5 580.5,-56.5"/>
<text text-anchor="middle" x="616" y="-63.5" font-family="FreeSans" font-size="10.00">MultiJac.cpp</text>
</a>
</g>
</g>
<!-- Node17&#45;&gt;Node19 -->
<g id="edge21" class="edge"><title>Node17&#45;&gt;Node19</title>
<path fill="none" stroke="midnightblue" d="M568.554,-105.82C580.378,-96.1452 595.286,-83.9481 605.203,-75.8339"/>
<polygon fill="midnightblue" stroke="midnightblue" points="566.127,-103.283 560.604,-112.324 570.56,-108.7 566.127,-103.283"/>
</g>
<!-- Node20 -->
<g id="node20" class="node"><title>Node20</title>
<g id="a_node20"><a xlink:href="Sim1D_8cpp.html" target="_top" xlink:title="Sim1D.cpp">
<polygon fill="white" stroke="black" points="670,-56.5 670,-75.5 734,-75.5 734,-56.5 670,-56.5"/>
<text text-anchor="middle" x="702" y="-63.5" font-family="FreeSans" font-size="10.00">Sim1D.cpp</text>
</a>
</g>
</g>
<!-- Node17&#45;&gt;Node20 -->
<g id="edge22" class="edge"><title>Node17&#45;&gt;Node20</title>
<path fill="none" stroke="midnightblue" d="M583.668,-109.039C612.268,-98.8786 652.612,-84.5457 678.028,-75.5164"/>
<polygon fill="midnightblue" stroke="midnightblue" points="582.336,-105.798 574.085,-112.444 584.68,-112.394 582.336,-105.798"/>
</g>
<!-- Node21 -->
<g id="node21" class="node"><title>Node21</title>
<g id="a_node21"><a xlink:href="MultiNewton_8h.html" target="_top" xlink:title="MultiNewton.h">
<polygon fill="white" stroke="black" points="348.5,-56.5 348.5,-75.5 425.5,-75.5 425.5,-56.5 348.5,-56.5"/>
<text text-anchor="middle" x="387" y="-63.5" font-family="FreeSans" font-size="10.00">MultiNewton.h</text>
</a>
</g>
</g>
<!-- Node17&#45;&gt;Node21 -->
<g id="edge23" class="edge"><title>Node17&#45;&gt;Node21</title>
<path fill="none" stroke="midnightblue" d="M514.297,-109.172C483.604,-99.0039 440.081,-84.5852 412.707,-75.5164"/>
<polygon fill="midnightblue" stroke="midnightblue" points="513.579,-112.621 524.172,-112.444 515.78,-105.976 513.579,-112.621"/>
</g>
<!-- Node24 -->
<g id="node24" class="node"><title>Node24</title>
<g id="a_node24"><a xlink:href="onedim_8h.html" target="_top" xlink:title="onedim.h">
<polygon fill="white" stroke="black" points="489,-0.5 489,-19.5 545,-19.5 545,-0.5 489,-0.5"/>
<text text-anchor="middle" x="517" y="-7.5" font-family="FreeSans" font-size="10.00">onedim.h</text>
</a>
</g>
</g>
<!-- Node17&#45;&gt;Node24 -->
<g id="edge27" class="edge"><title>Node17&#45;&gt;Node24</title>
<path fill="none" stroke="midnightblue" d="M512.43,-108.542C497.391,-101.496 481.615,-91.0138 473,-76 460.927,-54.9615 486.915,-31.7548 503.873,-19.5663"/>
<polygon fill="midnightblue" stroke="midnightblue" points="511.058,-111.762 521.628,-112.495 513.822,-105.331 511.058,-111.762"/>
</g>
<!-- Node22 -->
<g id="node22" class="node"><title>Node22</title>
<g id="a_node22"><a xlink:href="MultiNewton_8cpp.html" target="_top" xlink:title="Damped Newton solver for 1D multi&#45;domain problems. ">
<polygon fill="white" stroke="black" points="295,-0.5 295,-19.5 383,-19.5 383,-0.5 295,-0.5"/>
<text text-anchor="middle" x="339" y="-7.5" font-family="FreeSans" font-size="10.00">MultiNewton.cpp</text>
</a>
</g>
</g>
<!-- Node21&#45;&gt;Node22 -->
<g id="edge24" class="edge"><title>Node21&#45;&gt;Node22</title>
<path fill="none" stroke="midnightblue" d="M372.272,-48.4314C363.86,-38.9673 353.651,-27.4827 346.779,-19.7511"/>
<polygon fill="midnightblue" stroke="midnightblue" points="369.814,-50.9342 379.074,-56.083 375.046,-46.2836 369.814,-50.9342"/>
</g>
<!-- Node23 -->
<g id="node23" class="node"><title>Node23</title>
<g id="a_node23"><a xlink:href="OneDim_8cpp.html" target="_top" xlink:title="OneDim.cpp">
<polygon fill="white" stroke="black" points="401,-0.5 401,-19.5 471,-19.5 471,-0.5 401,-0.5"/>
<text text-anchor="middle" x="436" y="-7.5" font-family="FreeSans" font-size="10.00">OneDim.cpp</text>
</a>
</g>
</g>
<!-- Node21&#45;&gt;Node23 -->
<g id="edge25" class="edge"><title>Node21&#45;&gt;Node23</title>
<path fill="none" stroke="midnightblue" d="M402.034,-48.4314C410.622,-38.9673 421.043,-27.4827 428.059,-19.7511"/>
<polygon fill="midnightblue" stroke="midnightblue" points="399.219,-46.3254 395.091,-56.083 404.403,-51.0293 399.219,-46.3254"/>
</g>
<!-- Node21&#45;&gt;Node24 -->
<g id="edge26" class="edge"><title>Node21&#45;&gt;Node24</title>
<path fill="none" stroke="midnightblue" d="M417.085,-52.503C441.457,-42.3795 475.14,-28.388 496.497,-19.5164"/>
<polygon fill="midnightblue" stroke="midnightblue" points="415.491,-49.3752 407.599,-56.4435 418.177,-55.8397 415.491,-49.3752"/>
</g>
<!-- Node25&#45;&gt;Node11 -->
<g id="edge30" class="edge"><title>Node25&#45;&gt;Node11</title>
<path fill="none" stroke="midnightblue" d="M993.31,-175.271C949.693,-171.683 886.616,-161.311 840,-132 817.414,-117.799 800.726,-89.9207 793.288,-75.7366"/>
<polygon fill="midnightblue" stroke="midnightblue" points="993.177,-178.77 1003.41,-176.009 993.688,-171.789 993.177,-178.77"/>
</g>
<!-- Node25&#45;&gt;Node12 -->
<g id="edge35" class="edge"><title>Node25&#45;&gt;Node12</title>
<path fill="none" stroke="midnightblue" d="M1010.63,-164.906C982.616,-154.754 943.304,-140.506 918.499,-131.516"/>
<polygon fill="midnightblue" stroke="midnightblue" points="1009.8,-168.327 1020.39,-168.444 1012.18,-161.746 1009.8,-168.327"/>
</g>
<!-- Node25&#45;&gt;Node14 -->
<g id="edge39" class="edge"><title>Node25&#45;&gt;Node14</title>
<path fill="none" stroke="midnightblue" d="M1036.14,-158.998C1025.67,-134.997 1007.55,-93.4683 999.749,-75.5914"/>
<polygon fill="midnightblue" stroke="midnightblue" points="1033.03,-160.603 1040.23,-168.368 1039.44,-157.803 1033.03,-160.603"/>
</g>
<!-- Node26 -->
<g id="node26" class="node"><title>Node26</title>
<g id="a_node26"><a xlink:href="SquareMatrix_8cpp.html" target="_top" xlink:title="SquareMatrix.cpp">
<polygon fill="white" stroke="black" points="1035,-112.5 1035,-131.5 1127,-131.5 1127,-112.5 1035,-112.5"/>
<text text-anchor="middle" x="1081" y="-119.5" font-family="FreeSans" font-size="10.00">SquareMatrix.cpp</text>
</a>
</g>
</g>
<!-- Node25&#45;&gt;Node26 -->
<g id="edge31" class="edge"><title>Node25&#45;&gt;Node26</title>
<path fill="none" stroke="midnightblue" d="M1055.95,-159.566C1062.31,-150.275 1069.87,-139.248 1075,-131.751"/>
<polygon fill="midnightblue" stroke="midnightblue" points="1052.87,-157.855 1050.11,-168.083 1058.65,-161.812 1052.87,-157.855"/>
</g>
<!-- Node27 -->
<g id="node27" class="node"><title>Node27</title>
<g id="a_node27"><a xlink:href="solveSP_8h.html" target="_top" xlink:title="Header file for implicit surface problem solver (see Chemical Kinetics and class solveSP). ">
<polygon fill="white" stroke="black" points="1145.5,-112.5 1145.5,-131.5 1204.5,-131.5 1204.5,-112.5 1145.5,-112.5"/>
<text text-anchor="middle" x="1175" y="-119.5" font-family="FreeSans" font-size="10.00">solveSP.h</text>
</a>
</g>
</g>
<!-- Node25&#45;&gt;Node27 -->
<g id="edge32" class="edge"><title>Node25&#45;&gt;Node27</title>
<path fill="none" stroke="midnightblue" d="M1074.32,-164.503C1098.88,-154.38 1132.82,-140.388 1154.34,-131.516"/>
<polygon fill="midnightblue" stroke="midnightblue" points="1072.67,-161.397 1064.76,-168.444 1075.34,-167.868 1072.67,-161.397"/>
</g>
<!-- Node30 -->
<g id="node30" class="node"><title>Node30</title>
<g id="a_node30"><a xlink:href="solveProb_8h.html" target="_top" xlink:title="Header file for implicit nonlinear solver with the option of a pseudotransient (see Numerical Utiliti...">
<polygon fill="white" stroke="black" points="1268,-112.5 1268,-131.5 1334,-131.5 1334,-112.5 1268,-112.5"/>
<text text-anchor="middle" x="1301" y="-119.5" font-family="FreeSans" font-size="10.00">solveProb.h</text>
</a>
</g>
</g>
<!-- Node25&#45;&gt;Node30 -->
<g id="edge36" class="edge"><title>Node25&#45;&gt;Node30</title>
<path fill="none" stroke="midnightblue" d="M1094.61,-166.365C1145.94,-155.582 1223.87,-139.206 1267.82,-129.971"/>
<polygon fill="midnightblue" stroke="midnightblue" points="1093.79,-162.962 1084.72,-168.444 1095.23,-169.812 1093.79,-162.962"/>
</g>
<!-- Node33 -->
<g id="node33" class="node"><title>Node33</title>
<g id="a_node33"><a xlink:href="MultiTransport_8h.html" target="_top" xlink:title="Interface for class MultiTransport. ">
<polygon fill="white" stroke="black" points="1543,-112.5 1543,-131.5 1629,-131.5 1629,-112.5 1543,-112.5"/>
<text text-anchor="middle" x="1586" y="-119.5" font-family="FreeSans" font-size="10.00">MultiTransport.h</text>
</a>
</g>
</g>
<!-- Node25&#45;&gt;Node33 -->
<g id="edge40" class="edge"><title>Node25&#45;&gt;Node33</title>
<path fill="none" stroke="midnightblue" d="M1094.87,-171.932C1200.92,-161.366 1443.98,-137.15 1542.92,-127.293"/>
<polygon fill="midnightblue" stroke="midnightblue" points="1094.34,-168.467 1084.74,-172.941 1095.04,-175.432 1094.34,-168.467"/>
</g>
<!-- Node28 -->
<g id="node28" class="node"><title>Node28</title>
<g id="a_node28"><a xlink:href="ImplicitSurfChem_8cpp.html" target="_top" xlink:title="Definitions for the implicit integration of surface site density equations (see Kinetics Managers and...">
<polygon fill="white" stroke="black" points="1046,-56.5 1046,-75.5 1156,-75.5 1156,-56.5 1046,-56.5"/>
<text text-anchor="middle" x="1101" y="-63.5" font-family="FreeSans" font-size="10.00">ImplicitSurfChem.cpp</text>
</a>
</g>
</g>
<!-- Node27&#45;&gt;Node28 -->
<g id="edge33" class="edge"><title>Node27&#45;&gt;Node28</title>
<path fill="none" stroke="midnightblue" d="M1154.97,-106.38C1141.59,-96.6204 1124.44,-84.1057 1113.11,-75.8339"/>
<polygon fill="midnightblue" stroke="midnightblue" points="1152.97,-109.257 1163.11,-112.324 1157.1,-103.602 1152.97,-109.257"/>
</g>
<!-- Node29 -->
<g id="node29" class="node"><title>Node29</title>
<g id="a_node29"><a xlink:href="solveSP_8cpp_source.html" target="_top" xlink:title="solveSP.cpp">
<polygon fill="white" stroke="black" points="1174,-56.5 1174,-75.5 1244,-75.5 1244,-56.5 1174,-56.5"/>
<text text-anchor="middle" x="1209" y="-63.5" font-family="FreeSans" font-size="10.00">solveSP.cpp</text>
</a>
</g>
</g>
<!-- Node27&#45;&gt;Node29 -->
<g id="edge34" class="edge"><title>Node27&#45;&gt;Node29</title>
<path fill="none" stroke="midnightblue" d="M1185.98,-103.566C1191.83,-94.2747 1198.77,-83.2484 1203.49,-75.7511"/>
<polygon fill="midnightblue" stroke="midnightblue" points="1182.98,-101.756 1180.61,-112.083 1188.9,-105.486 1182.98,-101.756"/>
</g>
<!-- Node31 -->
<g id="node31" class="node"><title>Node31</title>
<g id="a_node31"><a xlink:href="solveProb_8cpp.html" target="_top" xlink:title="Implicit solver for nonlinear problems. ">
<polygon fill="white" stroke="black" points="1262.5,-56.5 1262.5,-75.5 1339.5,-75.5 1339.5,-56.5 1262.5,-56.5"/>
<text text-anchor="middle" x="1301" y="-63.5" font-family="FreeSans" font-size="10.00">solveProb.cpp</text>
</a>
</g>
</g>
<!-- Node30&#45;&gt;Node31 -->
<g id="edge37" class="edge"><title>Node30&#45;&gt;Node31</title>
<path fill="none" stroke="midnightblue" d="M1301,-101.805C1301,-92.9102 1301,-82.7798 1301,-75.7511"/>
<polygon fill="midnightblue" stroke="midnightblue" points="1297.5,-102.083 1301,-112.083 1304.5,-102.083 1297.5,-102.083"/>
</g>
<!-- Node32 -->
<g id="node32" class="node"><title>Node32</title>
<g id="a_node32"><a xlink:href="solvers_8h.html" target="_top" xlink:title="solvers of small embedded problems ">
<polygon fill="white" stroke="black" points="1357.5,-56.5 1357.5,-75.5 1410.5,-75.5 1410.5,-56.5 1357.5,-56.5"/>
<text text-anchor="middle" x="1384" y="-63.5" font-family="FreeSans" font-size="10.00">solvers.h</text>
</a>
</g>
</g>
<!-- Node30&#45;&gt;Node32 -->
<g id="edge38" class="edge"><title>Node30&#45;&gt;Node32</title>
<path fill="none" stroke="midnightblue" d="M1323.1,-106.622C1338.26,-96.7574 1357.88,-83.9919 1370.7,-75.6545"/>
<polygon fill="midnightblue" stroke="midnightblue" points="1320.81,-103.937 1314.34,-112.324 1324.63,-109.804 1320.81,-103.937"/>
</g>
<!-- Node34 -->
<g id="node34" class="node"><title>Node34</title>
<g id="a_node34"><a xlink:href="HighPressureGasTransport_8cpp.html" target="_top" xlink:title="Implementation file for class HighPressureGasTransport. ">
<polygon fill="white" stroke="black" points="1357.5,-0.5 1357.5,-19.5 1506.5,-19.5 1506.5,-0.5 1357.5,-0.5"/>
<text text-anchor="middle" x="1432" y="-7.5" font-family="FreeSans" font-size="10.00">HighPressureGasTransport.cpp</text>
</a>
</g>
</g>
<!-- Node33&#45;&gt;Node34 -->
<g id="edge41" class="edge"><title>Node33&#45;&gt;Node34</title>
<path fill="none" stroke="midnightblue" d="M1533,-112.545C1507.93,-106.175 1479.16,-95.1109 1459,-76 1442.68,-60.5297 1435.87,-33.7188 1433.33,-19.8615"/>
<polygon fill="midnightblue" stroke="midnightblue" points="1532.22,-115.957 1542.76,-114.841 1533.83,-109.143 1532.22,-115.957"/>
</g>
<!-- Node35 -->
<g id="node35" class="node"><title>Node35</title>
<g id="a_node35"><a xlink:href="MultiTransport_8cpp.html" target="_top" xlink:title="Implementation file for class MultiTransport. ">
<polygon fill="white" stroke="black" points="1701,-56.5 1701,-75.5 1797,-75.5 1797,-56.5 1701,-56.5"/>
<text text-anchor="middle" x="1749" y="-63.5" font-family="FreeSans" font-size="10.00">MultiTransport.cpp</text>
</a>
</g>
</g>
<!-- Node33&#45;&gt;Node35 -->
<g id="edge42" class="edge"><title>Node33&#45;&gt;Node35</title>
<path fill="none" stroke="midnightblue" d="M1621.7,-109.172C1652.4,-99.0039 1695.92,-84.5852 1723.29,-75.5164"/>
<polygon fill="midnightblue" stroke="midnightblue" points="1620.22,-105.976 1611.83,-112.444 1622.42,-112.621 1620.22,-105.976"/>
</g>
<!-- Node36 -->
<g id="node36" class="node"><title>Node36</title>
<g id="a_node36"><a xlink:href="TransportFactory_8cpp.html" target="_top" xlink:title="Implementation file for class TransportFactory. ">
<polygon fill="white" stroke="black" points="1524.5,-0.5 1524.5,-19.5 1631.5,-19.5 1631.5,-0.5 1524.5,-0.5"/>
<text text-anchor="middle" x="1578" y="-7.5" font-family="FreeSans" font-size="10.00">TransportFactory.cpp</text>
</a>
</g>
</g>
<!-- Node33&#45;&gt;Node36 -->
<g id="edge43" class="edge"><title>Node33&#45;&gt;Node36</title>
<path fill="none" stroke="midnightblue" d="M1601.11,-104.349C1610.99,-91.3839 1621.03,-72.8237 1615,-56 1609.75,-41.337 1597.42,-28.0309 1588.44,-19.7555"/>
<polygon fill="midnightblue" stroke="midnightblue" points="1598.18,-102.405 1594.5,-112.341 1603.57,-106.867 1598.18,-102.405"/>
</g>
<!-- Node37 -->
<g id="node37" class="node"><title>Node37</title>
<g id="a_node37"><a xlink:href="HighPressureGasTransport_8h.html" target="_top" xlink:title="Interface for class HighPressureGasTransport. ">
<polygon fill="white" stroke="black" points="1467.5,-56.5 1467.5,-75.5 1606.5,-75.5 1606.5,-56.5 1467.5,-56.5"/>
<text text-anchor="middle" x="1537" y="-63.5" font-family="FreeSans" font-size="10.00">HighPressureGasTransport.h</text>
</a>
</g>
</g>
<!-- Node33&#45;&gt;Node37 -->
<g id="edge44" class="edge"><title>Node33&#45;&gt;Node37</title>
<path fill="none" stroke="midnightblue" d="M1570.97,-104.431C1562.38,-94.9673 1551.96,-83.4827 1544.94,-75.7511"/>
<polygon fill="midnightblue" stroke="midnightblue" points="1568.6,-107.029 1577.91,-112.083 1573.78,-102.325 1568.6,-107.029"/>
</g>
<!-- Node38 -->
<g id="node38" class="node"><title>Node38</title>
<g id="a_node38"><a xlink:href="transport_8h.html" target="_top" xlink:title="Support for transport property calculation from C++ application programs. ">
<polygon fill="white" stroke="black" points="1649,-0.5 1649,-19.5 1711,-19.5 1711,-0.5 1649,-0.5"/>
<text text-anchor="middle" x="1680" y="-7.5" font-family="FreeSans" font-size="10.00">transport.h</text>
</a>
</g>
</g>
<!-- Node33&#45;&gt;Node38 -->
<g id="edge48" class="edge"><title>Node33&#45;&gt;Node38</title>
<path fill="none" stroke="midnightblue" d="M1602.07,-104.952C1610.32,-96.5189 1620.42,-85.902 1629,-76 1645.91,-56.4873 1664.25,-32.2793 1673.65,-19.6256"/>
<polygon fill="midnightblue" stroke="midnightblue" points="1599.37,-102.702 1594.83,-112.274 1604.35,-107.623 1599.37,-102.702"/>
</g>
<!-- Node37&#45;&gt;Node34 -->
<g id="edge45" class="edge"><title>Node37&#45;&gt;Node34</title>
<path fill="none" stroke="midnightblue" d="M1511.19,-51.7261C1491.75,-41.7271 1465.65,-28.3065 1448.83,-19.6545"/>
<polygon fill="midnightblue" stroke="midnightblue" points="1509.64,-54.8629 1520.13,-56.324 1512.84,-48.6379 1509.64,-54.8629"/>
</g>
<!-- Node37&#45;&gt;Node36 -->
<g id="edge46" class="edge"><title>Node37&#45;&gt;Node36</title>
<path fill="none" stroke="midnightblue" d="M1550.02,-47.8554C1557.12,-38.5048 1565.6,-27.3265 1571.36,-19.7511"/>
<polygon fill="midnightblue" stroke="midnightblue" points="1547.03,-46.002 1543.77,-56.083 1552.61,-50.235 1547.03,-46.002"/>
</g>
<!-- Node37&#45;&gt;Node38 -->
<g id="edge47" class="edge"><title>Node37&#45;&gt;Node38</title>
<path fill="none" stroke="midnightblue" d="M1569.03,-52.9058C1595.91,-42.7536 1633.64,-28.5063 1657.45,-19.5164"/>
<polygon fill="midnightblue" stroke="midnightblue" points="1567.78,-49.6364 1559.66,-56.4435 1570.25,-56.1851 1567.78,-49.6364"/>
</g>
</g>
</svg>
