<?xml version="1.0" encoding="UTF-8" standalone="no"?>
<!DOCTYPE svg PUBLIC "-//W3C//DTD SVG 1.1//EN"
 "http://www.w3.org/Graphics/SVG/1.1/DTD/svg11.dtd">
<!-- Generated by graphviz version 2.36.0 (20140111.2315)
 -->
<!-- Title: global.cpp Pages: 1 -->
<svg width="780pt" height="252pt"
 viewBox="0.00 0.00 780.00 252.00" xmlns="http://www.w3.org/2000/svg" xmlns:xlink="http://www.w3.org/1999/xlink">
<g id="graph0" class="graph" transform="scale(1 1) rotate(0) translate(4 248)">
<title>global.cpp</title>
<polygon fill="white" stroke="none" points="-4,4 -4,-248 776,-248 776,4 -4,4"/>
<!-- Node1 -->
<g id="node1" class="node"><title>Node1</title>
<polygon fill="#bfbfbf" stroke="black" points="376,-224.5 376,-243.5 436,-243.5 436,-224.5 376,-224.5"/>
<text text-anchor="middle" x="406" y="-231.5" font-family="FreeSans" font-size="10.00">global.cpp</text>
</g>
<!-- Node2 -->
<g id="node2" class="node"><title>Node2</title>
<g id="a_node2"><a xlink:href="FactoryBase_8h.html" target="_top" xlink:title="File contains the FactoryBase class declarations. ">
<polygon fill="white" stroke="black" points="-0.5,-56.5 -0.5,-75.5 136.5,-75.5 136.5,-56.5 -0.5,-56.5"/>
<text text-anchor="middle" x="68" y="-63.5" font-family="FreeSans" font-size="10.00">cantera/base/FactoryBase.h</text>
</a>
</g>
</g>
<!-- Node1&#45;&gt;Node2 -->
<g id="edge1" class="edge"><title>Node1&#45;&gt;Node2</title>
<path fill="none" stroke="midnightblue" d="M375.745,-231.102C332.366,-227.435 250.811,-216.982 188,-188 151.19,-171.015 144.306,-161.021 116,-132 101.516,-117.15 87.749,-97.7674 78.7036,-84.0438"/>
<polygon fill="midnightblue" stroke="midnightblue" points="81.6035,-82.0825 73.2449,-75.5721 75.7193,-85.874 81.6035,-82.0825"/>
</g>
<!-- Node4 -->
<g id="node4" class="node"><title>Node4</title>
<g id="a_node4"><a xlink:href="xml_8h.html" target="_top" xlink:title="Classes providing support for XML data files. ">
<polygon fill="white" stroke="black" points="197,-168.5 197,-187.5 295,-187.5 295,-168.5 197,-168.5"/>
<text text-anchor="middle" x="246" y="-175.5" font-family="FreeSans" font-size="10.00">cantera/base/xml.h</text>
</a>
</g>
</g>
<!-- Node1&#45;&gt;Node4 -->
<g id="edge3" class="edge"><title>Node1&#45;&gt;Node4</title>
<path fill="none" stroke="midnightblue" d="M380.648,-224.444C353.731,-215.359 311.004,-200.939 280.913,-190.783"/>
<polygon fill="midnightblue" stroke="midnightblue" points="281.828,-187.398 271.234,-187.516 279.59,-194.031 281.828,-187.398"/>
</g>
<!-- Node15 -->
<g id="node15" class="node"><title>Node15</title>
<g id="a_node15"><a xlink:href="application_8h.html" target="_top" xlink:title="application.h">
<polygon fill="white" stroke="black" points="415.5,-168.5 415.5,-187.5 486.5,-187.5 486.5,-168.5 415.5,-168.5"/>
<text text-anchor="middle" x="451" y="-175.5" font-family="FreeSans" font-size="10.00">application.h</text>
</a>
</g>
</g>
<!-- Node1&#45;&gt;Node15 -->
<g id="edge16" class="edge"><title>Node1&#45;&gt;Node15</title>
<path fill="none" stroke="midnightblue" d="M413.431,-224.083C419.853,-216.377 429.306,-205.033 437.122,-195.653"/>
<polygon fill="midnightblue" stroke="midnightblue" points="439.994,-197.674 443.707,-187.751 434.617,-193.193 439.994,-197.674"/>
</g>
<!-- Node23 -->
<g id="node23" class="node"><title>Node23</title>
<g id="a_node23"><a xlink:href="units_8h.html" target="_top" xlink:title="Header for units conversion utilities, which are used to translate user input from input files (See I...">
<polygon fill="white" stroke="black" points="340,-168.5 340,-187.5 384,-187.5 384,-168.5 340,-168.5"/>
<text text-anchor="middle" x="362" y="-175.5" font-family="FreeSans" font-size="10.00">units.h</text>
</a>
</g>
</g>
<!-- Node1&#45;&gt;Node23 -->
<g id="edge27" class="edge"><title>Node1&#45;&gt;Node23</title>
<path fill="none" stroke="midnightblue" d="M398.734,-224.083C392.455,-216.377 383.212,-205.033 375.569,-195.653"/>
<polygon fill="midnightblue" stroke="midnightblue" points="378.161,-193.293 369.131,-187.751 372.734,-197.714 378.161,-193.293"/>
</g>
<!-- Node24 -->
<g id="node24" class="node"><title>Node24</title>
<polygon fill="white" stroke="#bfbfbf" points="505,-168.5 505,-187.5 547,-187.5 547,-168.5 505,-168.5"/>
<text text-anchor="middle" x="526" y="-175.5" font-family="FreeSans" font-size="10.00">cstdio</text>
</g>
<!-- Node1&#45;&gt;Node24 -->
<g id="edge31" class="edge"><title>Node1&#45;&gt;Node24</title>
<path fill="none" stroke="midnightblue" d="M425.014,-224.444C444.588,-215.636 475.308,-201.812 497.729,-191.722"/>
<polygon fill="midnightblue" stroke="midnightblue" points="499.392,-194.812 507.075,-187.516 496.519,-188.428 499.392,-194.812"/>
</g>
<!-- Node25 -->
<g id="node25" class="node"><title>Node25</title>
<polygon fill="white" stroke="#bfbfbf" points="565,-168.5 565,-187.5 615,-187.5 615,-168.5 565,-168.5"/>
<text text-anchor="middle" x="590" y="-175.5" font-family="FreeSans" font-size="10.00">stdarg.h</text>
</g>
<!-- Node1&#45;&gt;Node25 -->
<g id="edge32" class="edge"><title>Node1&#45;&gt;Node25</title>
<path fill="none" stroke="midnightblue" d="M435.155,-224.444C467.712,-214.889 520.383,-199.431 555.104,-189.241"/>
<polygon fill="midnightblue" stroke="midnightblue" points="556.215,-192.563 564.825,-186.388 554.244,-185.846 556.215,-192.563"/>
</g>
<!-- Node3 -->
<g id="node3" class="node"><title>Node3</title>
<polygon fill="white" stroke="#bfbfbf" points="65.5,-0.5 65.5,-19.5 108.5,-19.5 108.5,-0.5 65.5,-0.5"/>
<text text-anchor="middle" x="87" y="-7.5" font-family="FreeSans" font-size="10.00">vector</text>
</g>
<!-- Node2&#45;&gt;Node3 -->
<g id="edge2" class="edge"><title>Node2&#45;&gt;Node3</title>
<path fill="none" stroke="midnightblue" d="M71.1375,-56.083C73.6829,-48.8486 77.3562,-38.4087 80.5271,-29.3968"/>
<polygon fill="midnightblue" stroke="midnightblue" points="83.9034,-30.3459 83.9209,-19.7511 77.3002,-28.0225 83.9034,-30.3459"/>
</g>
<!-- Node5 -->
<g id="node5" class="node"><title>Node5</title>
<g id="a_node5"><a xlink:href="ctexceptions_8h.html" target="_top" xlink:title="Definitions for the classes that are thrown when Cantera experiences an error condition (also contain...">
<polygon fill="white" stroke="black" points="125,-112.5 125,-131.5 203,-131.5 203,-112.5 125,-112.5"/>
<text text-anchor="middle" x="164" y="-119.5" font-family="FreeSans" font-size="10.00">ctexceptions.h</text>
</a>
</g>
</g>
<!-- Node4&#45;&gt;Node5 -->
<g id="edge4" class="edge"><title>Node4&#45;&gt;Node5</title>
<path fill="none" stroke="midnightblue" d="M232.825,-168.324C220.153,-159.979 200.767,-147.212 185.794,-137.352"/>
<polygon fill="midnightblue" stroke="midnightblue" points="187.419,-134.231 177.142,-131.655 183.569,-140.078 187.419,-134.231"/>
</g>
<!-- Node8 -->
<g id="node8" class="node"><title>Node8</title>
<g id="a_node8"><a xlink:href="global_8h.html" target="_top" xlink:title="This file contains definitions for utility functions and text for modules, inputfiles, logs, textlogs, (see Input File Handling, Diagnostic Output, and Writing messages to the screen). ">
<polygon fill="white" stroke="black" points="221,-112.5 221,-131.5 271,-131.5 271,-112.5 221,-112.5"/>
<text text-anchor="middle" x="246" y="-119.5" font-family="FreeSans" font-size="10.00">global.h</text>
</a>
</g>
</g>
<!-- Node4&#45;&gt;Node8 -->
<g id="edge7" class="edge"><title>Node4&#45;&gt;Node8</title>
<path fill="none" stroke="midnightblue" d="M246,-168.083C246,-161.006 246,-150.861 246,-141.986"/>
<polygon fill="midnightblue" stroke="midnightblue" points="249.5,-141.751 246,-131.751 242.5,-141.751 249.5,-141.751"/>
</g>
<!-- Node6 -->
<g id="node6" class="node"><title>Node6</title>
<polygon fill="white" stroke="#bfbfbf" points="193,-56.5 193,-75.5 251,-75.5 251,-56.5 193,-56.5"/>
<text text-anchor="middle" x="222" y="-63.5" font-family="FreeSans" font-size="10.00">exception</text>
</g>
<!-- Node5&#45;&gt;Node6 -->
<g id="edge5" class="edge"><title>Node5&#45;&gt;Node6</title>
<path fill="none" stroke="midnightblue" d="M173.319,-112.324C181.893,-104.341 194.812,-92.3128 205.188,-82.6529"/>
<polygon fill="midnightblue" stroke="midnightblue" points="207.578,-85.2098 212.512,-75.8339 202.808,-80.0865 207.578,-85.2098"/>
</g>
<!-- Node7 -->
<g id="node7" class="node"><title>Node7</title>
<polygon fill="white" stroke="#bfbfbf" points="145,-0.5 145,-19.5 185,-19.5 185,-0.5 145,-0.5"/>
<text text-anchor="middle" x="165" y="-7.5" font-family="FreeSans" font-size="10.00">string</text>
</g>
<!-- Node5&#45;&gt;Node7 -->
<g id="edge6" class="edge"><title>Node5&#45;&gt;Node7</title>
<path fill="none" stroke="midnightblue" d="M164.078,-112.368C164.24,-94.617 164.612,-53.6664 164.831,-29.5974"/>
<polygon fill="midnightblue" stroke="midnightblue" points="168.331,-29.6229 164.922,-19.5914 161.331,-29.5592 168.331,-29.6229"/>
</g>
<!-- Node9 -->
<g id="node9" class="node"><title>Node9</title>
<g id="a_node9"><a xlink:href="ct__defs_8h.html" target="_top" xlink:title="This file contains definitions of terms that are used in internal routines and are unlikely to need m...">
<polygon fill="white" stroke="black" points="270,-56.5 270,-75.5 326,-75.5 326,-56.5 270,-56.5"/>
<text text-anchor="middle" x="298" y="-63.5" font-family="FreeSans" font-size="10.00">ct_defs.h</text>
</a>
</g>
</g>
<!-- Node8&#45;&gt;Node9 -->
<g id="edge8" class="edge"><title>Node8&#45;&gt;Node9</title>
<path fill="none" stroke="midnightblue" d="M254.587,-112.083C262.159,-104.22 273.378,-92.5688 282.514,-83.0813"/>
<polygon fill="midnightblue" stroke="midnightblue" points="285.158,-85.3821 289.573,-75.7511 280.115,-80.5266 285.158,-85.3821"/>
</g>
<!-- Node9&#45;&gt;Node3 -->
<g id="edge12" class="edge"><title>Node9&#45;&gt;Node3</title>
<path fill="none" stroke="midnightblue" d="M269.981,-57.8292C230.71,-47.7789 159.518,-29.5591 118.47,-19.0539"/>
<polygon fill="midnightblue" stroke="midnightblue" points="119.277,-15.6477 108.721,-16.559 117.541,-22.4291 119.277,-15.6477"/>
</g>
<!-- Node9&#45;&gt;Node7 -->
<g id="edge14" class="edge"><title>Node9&#45;&gt;Node7</title>
<path fill="none" stroke="midnightblue" d="M276.926,-56.4435C254.682,-47.4121 219.448,-33.1067 194.46,-22.9612"/>
<polygon fill="midnightblue" stroke="midnightblue" points="195.687,-19.682 185.105,-19.1629 193.054,-26.1678 195.687,-19.682"/>
</g>
<!-- Node10 -->
<g id="node10" class="node"><title>Node10</title>
<g id="a_node10"><a xlink:href="config_8h_source.html" target="_top" xlink:title="config.h">
<polygon fill="white" stroke="black" points="455,-0.5 455,-19.5 505,-19.5 505,-0.5 455,-0.5"/>
<text text-anchor="middle" x="480" y="-7.5" font-family="FreeSans" font-size="10.00">config.h</text>
</a>
</g>
</g>
<!-- Node9&#45;&gt;Node10 -->
<g id="edge9" class="edge"><title>Node9&#45;&gt;Node10</title>
<path fill="none" stroke="midnightblue" d="M326.039,-56.6808C358.075,-47.1757 410.53,-31.612 445.163,-21.3362"/>
<polygon fill="midnightblue" stroke="midnightblue" points="446.27,-24.6586 454.862,-18.4586 444.279,-17.9477 446.27,-24.6586"/>
</g>
<!-- Node11 -->
<g id="node11" class="node"><title>Node11</title>
<polygon fill="white" stroke="#bfbfbf" points="203,-0.5 203,-19.5 247,-19.5 247,-0.5 203,-0.5"/>
<text text-anchor="middle" x="225" y="-7.5" font-family="FreeSans" font-size="10.00">cmath</text>
</g>
<!-- Node9&#45;&gt;Node11 -->
<g id="edge10" class="edge"><title>Node9&#45;&gt;Node11</title>
<path fill="none" stroke="midnightblue" d="M286.271,-56.324C275.163,-48.1066 258.258,-35.6017 245.017,-25.8069"/>
<polygon fill="midnightblue" stroke="midnightblue" points="247.063,-22.9671 236.942,-19.8339 242.9,-28.5948 247.063,-22.9671"/>
</g>
<!-- Node12 -->
<g id="node12" class="node"><title>Node12</title>
<polygon fill="white" stroke="#bfbfbf" points="265,-0.5 265,-19.5 309,-19.5 309,-0.5 265,-0.5"/>
<text text-anchor="middle" x="287" y="-7.5" font-family="FreeSans" font-size="10.00">cstdlib</text>
</g>
<!-- Node9&#45;&gt;Node12 -->
<g id="edge11" class="edge"><title>Node9&#45;&gt;Node12</title>
<path fill="none" stroke="midnightblue" d="M296.184,-56.083C294.726,-48.9272 292.629,-38.6353 290.807,-29.6911"/>
<polygon fill="midnightblue" stroke="midnightblue" points="294.208,-28.8512 288.783,-19.7511 287.349,-30.2485 294.208,-28.8512"/>
</g>
<!-- Node13 -->
<g id="node13" class="node"><title>Node13</title>
<polygon fill="white" stroke="#bfbfbf" points="327.5,-0.5 327.5,-19.5 362.5,-19.5 362.5,-0.5 327.5,-0.5"/>
<text text-anchor="middle" x="345" y="-7.5" font-family="FreeSans" font-size="10.00">map</text>
</g>
<!-- Node9&#45;&gt;Node13 -->
<g id="edge13" class="edge"><title>Node9&#45;&gt;Node13</title>
<path fill="none" stroke="midnightblue" d="M305.761,-56.083C312.537,-48.2982 322.543,-36.8015 330.755,-27.3665"/>
<polygon fill="midnightblue" stroke="midnightblue" points="333.458,-29.592 337.383,-19.7511 328.178,-24.9963 333.458,-29.592"/>
</g>
<!-- Node14 -->
<g id="node14" class="node"><title>Node14</title>
<polygon fill="white" stroke="#bfbfbf" points="381,-0.5 381,-19.5 437,-19.5 437,-0.5 381,-0.5"/>
<text text-anchor="middle" x="409" y="-7.5" font-family="FreeSans" font-size="10.00">algorithm</text>
</g>
<!-- Node9&#45;&gt;Node14 -->
<g id="edge15" class="edge"><title>Node9&#45;&gt;Node14</title>
<path fill="none" stroke="midnightblue" d="M315.834,-56.324C333.716,-47.6247 361.475,-34.1202 382.046,-24.113"/>
<polygon fill="midnightblue" stroke="midnightblue" points="383.749,-27.1765 391.21,-19.6545 380.687,-20.8819 383.749,-27.1765"/>
</g>
<!-- Node15&#45;&gt;Node10 -->
<g id="edge17" class="edge"><title>Node15&#45;&gt;Node10</title>
<path fill="none" stroke="midnightblue" d="M452.559,-168.075C457.124,-141.945 470.529,-65.2106 476.755,-29.577"/>
<polygon fill="midnightblue" stroke="midnightblue" points="480.23,-30.0213 478.503,-19.5681 473.334,-28.8166 480.23,-30.0213"/>
</g>
<!-- Node16 -->
<g id="node16" class="node"><title>Node16</title>
<g id="a_node16"><a xlink:href="ct__thread_8h.html" target="_top" xlink:title="cantera/base/ct_thread.h">
<polygon fill="white" stroke="black" points="493.5,-112.5 493.5,-131.5 616.5,-131.5 616.5,-112.5 493.5,-112.5"/>
<text text-anchor="middle" x="555" y="-119.5" font-family="FreeSans" font-size="10.00">cantera/base/ct_thread.h</text>
</a>
</g>
</g>
<!-- Node15&#45;&gt;Node16 -->
<g id="edge18" class="edge"><title>Node15&#45;&gt;Node16</title>
<path fill="none" stroke="midnightblue" d="M467.709,-168.324C484.312,-159.703 510.002,-146.364 529.22,-136.386"/>
<polygon fill="midnightblue" stroke="midnightblue" points="531.07,-139.369 538.332,-131.655 527.844,-133.156 531.07,-139.369"/>
</g>
<!-- Node19 -->
<g id="node19" class="node"><title>Node19</title>
<g id="a_node19"><a xlink:href="logger_8h.html" target="_top" xlink:title="Header for Base class for &#39;loggers&#39; that write text messages to log files (see Writing messages to th...">
<polygon fill="white" stroke="black" points="327.5,-112.5 327.5,-131.5 436.5,-131.5 436.5,-112.5 327.5,-112.5"/>
<text text-anchor="middle" x="382" y="-119.5" font-family="FreeSans" font-size="10.00">cantera/base/logger.h</text>
</a>
</g>
</g>
<!-- Node15&#45;&gt;Node19 -->
<g id="edge22" class="edge"><title>Node15&#45;&gt;Node19</title>
<path fill="none" stroke="midnightblue" d="M439.914,-168.324C429.514,-160.185 413.739,-147.839 401.278,-138.087"/>
<polygon fill="midnightblue" stroke="midnightblue" points="403.32,-135.241 393.288,-131.834 399.006,-140.753 403.32,-135.241"/>
</g>
<!-- Node21 -->
<g id="node21" class="node"><title>Node21</title>
<polygon fill="white" stroke="#bfbfbf" points="634.5,-112.5 634.5,-131.5 663.5,-131.5 663.5,-112.5 634.5,-112.5"/>
<text text-anchor="middle" x="649" y="-119.5" font-family="FreeSans" font-size="10.00">set</text>
</g>
<!-- Node15&#45;&gt;Node21 -->
<g id="edge25" class="edge"><title>Node15&#45;&gt;Node21</title>
<path fill="none" stroke="midnightblue" d="M486.636,-168.95C520.023,-161.15 571.451,-148.481 624.746,-131.814"/>
<polygon fill="midnightblue" stroke="midnightblue" points="625.886,-135.125 634.362,-128.769 623.772,-128.451 625.886,-135.125"/>
</g>
<!-- Node22 -->
<g id="node22" class="node"><title>Node22</title>
<polygon fill="white" stroke="#bfbfbf" points="681.5,-112.5 681.5,-131.5 732.5,-131.5 732.5,-112.5 681.5,-112.5"/>
<text text-anchor="middle" x="707" y="-119.5" font-family="FreeSans" font-size="10.00">memory</text>
</g>
<!-- Node15&#45;&gt;Node22 -->
<g id="edge26" class="edge"><title>Node15&#45;&gt;Node22</title>
<path fill="none" stroke="midnightblue" d="M486.623,-169.85C538.813,-159.36 633.23,-140.327 671.202,-132.029"/>
<polygon fill="midnightblue" stroke="midnightblue" points="672.431,-135.341 681.422,-129.737 670.899,-128.51 672.431,-135.341"/>
</g>
<!-- Node16&#45;&gt;Node10 -->
<g id="edge19" class="edge"><title>Node16&#45;&gt;Node10</title>
<path fill="none" stroke="midnightblue" d="M548.521,-112.482C541.753,-103.512 530.903,-88.9249 522,-76 510.96,-59.9739 498.968,-41.2747 490.635,-28.0576"/>
<polygon fill="midnightblue" stroke="midnightblue" points="493.558,-26.1311 485.28,-19.519 487.628,-29.8503 493.558,-26.1311"/>
</g>
<!-- Node17 -->
<g id="node17" class="node"><title>Node17</title>
<polygon fill="white" stroke="#bfbfbf" points="531,-56.5 531,-75.5 637,-75.5 637,-56.5 531,-56.5"/>
<text text-anchor="middle" x="584" y="-63.5" font-family="FreeSans" font-size="10.00">boost/shared_ptr.hpp</text>
</g>
<!-- Node16&#45;&gt;Node17 -->
<g id="edge20" class="edge"><title>Node16&#45;&gt;Node17</title>
<path fill="none" stroke="midnightblue" d="M559.789,-112.083C563.758,-104.691 569.525,-93.9533 574.435,-84.8111"/>
<polygon fill="midnightblue" stroke="midnightblue" points="577.653,-86.217 579.3,-75.7511 571.486,-82.9051 577.653,-86.217"/>
</g>
<!-- Node18 -->
<g id="node18" class="node"><title>Node18</title>
<polygon fill="white" stroke="#bfbfbf" points="655.5,-56.5 655.5,-75.5 772.5,-75.5 772.5,-56.5 655.5,-56.5"/>
<text text-anchor="middle" x="714" y="-63.5" font-family="FreeSans" font-size="10.00">boost/thread/mutex.hpp</text>
</g>
<!-- Node16&#45;&gt;Node18 -->
<g id="edge21" class="edge"><title>Node16&#45;&gt;Node18</title>
<path fill="none" stroke="midnightblue" d="M580.194,-112.444C606.943,-103.359 649.403,-88.9388 679.305,-78.7831"/>
<polygon fill="midnightblue" stroke="midnightblue" points="680.581,-82.0464 688.924,-75.5164 678.329,-75.4182 680.581,-82.0464"/>
</g>
<!-- Node19&#45;&gt;Node9 -->
<g id="edge23" class="edge"><title>Node19&#45;&gt;Node9</title>
<path fill="none" stroke="midnightblue" d="M368.504,-112.324C355.4,-103.9 335.288,-90.9709 319.893,-81.0741"/>
<polygon fill="midnightblue" stroke="midnightblue" points="321.767,-78.118 311.463,-75.6545 317.982,-84.0063 321.767,-78.118"/>
</g>
<!-- Node20 -->
<g id="node20" class="node"><title>Node20</title>
<polygon fill="white" stroke="#bfbfbf" points="355.5,-56.5 355.5,-75.5 408.5,-75.5 408.5,-56.5 355.5,-56.5"/>
<text text-anchor="middle" x="382" y="-63.5" font-family="FreeSans" font-size="10.00">iostream</text>
</g>
<!-- Node19&#45;&gt;Node20 -->
<g id="edge24" class="edge"><title>Node19&#45;&gt;Node20</title>
<path fill="none" stroke="midnightblue" d="M382,-112.083C382,-105.006 382,-94.8611 382,-85.9865"/>
<polygon fill="midnightblue" stroke="midnightblue" points="385.5,-85.751 382,-75.7511 378.5,-85.7511 385.5,-85.751"/>
</g>
<!-- Node23&#45;&gt;Node5 -->
<g id="edge29" class="edge"><title>Node23&#45;&gt;Node5</title>
<path fill="none" stroke="midnightblue" d="M339.672,-170.91C307.064,-162.017 245.862,-145.326 205.008,-134.184"/>
<polygon fill="midnightblue" stroke="midnightblue" points="205.914,-130.803 195.346,-131.549 204.072,-137.557 205.914,-130.803"/>
</g>
<!-- Node23&#45;&gt;Node9 -->
<g id="edge28" class="edge"><title>Node23&#45;&gt;Node9</title>
<path fill="none" stroke="midnightblue" d="M351.091,-168.472C341.143,-160.157 326.71,-146.652 318,-132 309.422,-117.569 304.203,-99.1169 301.258,-85.562"/>
<polygon fill="midnightblue" stroke="midnightblue" points="304.649,-84.666 299.295,-75.5235 297.779,-86.0093 304.649,-84.666"/>
</g>
<!-- Node23&#45;&gt;Node16 -->
<g id="edge30" class="edge"><title>Node23&#45;&gt;Node16</title>
<path fill="none" stroke="midnightblue" d="M384.14,-170.806C415.996,-161.892 475.284,-145.304 514.949,-134.206"/>
<polygon fill="midnightblue" stroke="midnightblue" points="515.895,-137.576 524.582,-131.511 514.008,-130.835 515.895,-137.576"/>
</g>
</g>
</svg>
