<?xml version="1.0" encoding="UTF-8" standalone="no"?>
<!DOCTYPE svg PUBLIC "-//W3C//DTD SVG 1.1//EN"
 "http://www.w3.org/Graphics/SVG/1.1/DTD/svg11.dtd">
<!-- Generated by graphviz version 2.36.0 (20140111.2315)
 -->
<!-- Title: Group.h Pages: 1 -->
<svg width="222pt" height="140pt"
 viewBox="0.00 0.00 222.00 140.00" xmlns="http://www.w3.org/2000/svg" xmlns:xlink="http://www.w3.org/1999/xlink">
<g id="graph0" class="graph" transform="scale(1 1) rotate(0) translate(4 136)">
<title>Group.h</title>
<polygon fill="white" stroke="none" points="-4,4 -4,-136 218,-136 218,4 -4,4"/>
<!-- Node1 -->
<g id="node1" class="node"><title>Node1</title>
<polygon fill="#bfbfbf" stroke="black" points="50,-112.5 50,-131.5 100,-131.5 100,-112.5 50,-112.5"/>
<text text-anchor="middle" x="75" y="-119.5" font-family="FreeSans" font-size="10.00">Group.h</text>
</g>
<!-- Node2 -->
<g id="node2" class="node"><title>Node2</title>
<g id="a_node2"><a xlink:href="Group_8cpp.html" target="_top" xlink:title="Implementation file for the Group class used in reaction path analysis. ">
<polygon fill="white" stroke="black" points="-0.5,-56.5 -0.5,-75.5 60.5,-75.5 60.5,-56.5 -0.5,-56.5"/>
<text text-anchor="middle" x="30" y="-63.5" font-family="FreeSans" font-size="10.00">Group.cpp</text>
</a>
</g>
</g>
<!-- Node1&#45;&gt;Node2 -->
<g id="edge1" class="edge"><title>Node1&#45;&gt;Node2</title>
<path fill="none" stroke="midnightblue" d="M60.9533,-104.144C53.1131,-94.7357 43.6705,-83.4046 37.2926,-75.7511"/>
<polygon fill="midnightblue" stroke="midnightblue" points="58.4785,-106.641 67.5692,-112.083 63.8561,-102.16 58.4785,-106.641"/>
</g>
<!-- Node3 -->
<g id="node3" class="node"><title>Node3</title>
<g id="a_node3"><a xlink:href="ReactionPath_8h.html" target="_top" xlink:title="Classes for reaction path analysis. ">
<polygon fill="white" stroke="black" points="78.5,-56.5 78.5,-75.5 161.5,-75.5 161.5,-56.5 78.5,-56.5"/>
<text text-anchor="middle" x="120" y="-63.5" font-family="FreeSans" font-size="10.00">ReactionPath.h</text>
</a>
</g>
</g>
<!-- Node1&#45;&gt;Node3 -->
<g id="edge2" class="edge"><title>Node1&#45;&gt;Node3</title>
<path fill="none" stroke="midnightblue" d="M89.0467,-104.144C96.8869,-94.7357 106.329,-83.4046 112.707,-75.7511"/>
<polygon fill="midnightblue" stroke="midnightblue" points="86.1439,-102.16 82.4308,-112.083 91.5215,-106.641 86.1439,-102.16"/>
</g>
<!-- Node4 -->
<g id="node4" class="node"><title>Node4</title>
<g id="a_node4"><a xlink:href="ReactionPath_8cpp.html" target="_top" xlink:title="Implementation file for classes used in reaction path analysis. ">
<polygon fill="white" stroke="black" points="20.5,-0.5 20.5,-19.5 113.5,-19.5 113.5,-0.5 20.5,-0.5"/>
<text text-anchor="middle" x="67" y="-7.5" font-family="FreeSans" font-size="10.00">ReactionPath.cpp</text>
</a>
</g>
</g>
<!-- Node3&#45;&gt;Node4 -->
<g id="edge3" class="edge"><title>Node3&#45;&gt;Node4</title>
<path fill="none" stroke="midnightblue" d="M104.019,-48.7175C94.6775,-39.1997 83.2541,-27.5608 75.589,-19.7511"/>
<polygon fill="midnightblue" stroke="midnightblue" points="101.746,-51.3978 111.248,-56.083 106.741,-46.4945 101.746,-51.3978"/>
</g>
<!-- Node5 -->
<g id="node5" class="node"><title>Node5</title>
<g id="a_node5"><a xlink:href="reactionpaths_8h_source.html" target="_top" xlink:title="reactionpaths.h">
<polygon fill="white" stroke="black" points="132,-0.5 132,-19.5 214,-19.5 214,-0.5 132,-0.5"/>
<text text-anchor="middle" x="173" y="-7.5" font-family="FreeSans" font-size="10.00">reactionpaths.h</text>
</a>
</g>
</g>
<!-- Node3&#45;&gt;Node5 -->
<g id="edge4" class="edge"><title>Node3&#45;&gt;Node5</title>
<path fill="none" stroke="midnightblue" d="M135.981,-48.7175C145.322,-39.1997 156.746,-27.5608 164.411,-19.7511"/>
<polygon fill="midnightblue" stroke="midnightblue" points="133.259,-46.4945 128.752,-56.083 138.254,-51.3978 133.259,-46.4945"/>
</g>
</g>
</svg>
