<?xml version="1.0" encoding="UTF-8" standalone="no"?>
<!DOCTYPE svg PUBLIC "-//W3C//DTD SVG 1.1//EN"
 "http://www.w3.org/Graphics/SVG/1.1/DTD/svg11.dtd">
<!-- Generated by graphviz version 2.36.0 (20140111.2315)
 -->
<!-- Title: IdealGasPhase.cpp Pages: 1 -->
<svg width="1119pt" height="376pt"
 viewBox="0.00 0.00 1118.99 376.00" xmlns="http://www.w3.org/2000/svg" xmlns:xlink="http://www.w3.org/1999/xlink">
<g id="graph0" class="graph" transform="scale(1 1) rotate(0) translate(4 372)">
<title>IdealGasPhase.cpp</title>
<polygon fill="white" stroke="none" points="-4,4 -4,-372 1114.99,-372 1114.99,4 -4,4"/>
<!-- Node1 -->
<g id="node1" class="node"><title>Node1</title>
<polygon fill="#bfbfbf" stroke="black" points="501.993,-348.5 501.993,-367.5 601.993,-367.5 601.993,-348.5 501.993,-348.5"/>
<text text-anchor="middle" x="551.993" y="-355.5" font-family="FreeSans" font-size="10.00">IdealGasPhase.cpp</text>
</g>
<!-- Node2 -->
<g id="node2" class="node"><title>Node2</title>
<g id="a_node2"><a xlink:href="IdealGasPhase_8h.html" target="_top" xlink:title="ThermoPhase object for the ideal gas equation of state &#45; workhorse for Cantera (see Thermodynamic Pro...">
<polygon fill="white" stroke="black" points="275.993,-292.5 275.993,-311.5 433.993,-311.5 433.993,-292.5 275.993,-292.5"/>
<text text-anchor="middle" x="354.993" y="-299.5" font-family="FreeSans" font-size="10.00">cantera/thermo/IdealGasPhase.h</text>
</a>
</g>
</g>
<!-- Node1&#45;&gt;Node2 -->
<g id="edge1" class="edge"><title>Node1&#45;&gt;Node2</title>
<path fill="none" stroke="midnightblue" d="M520.778,-348.444C487.06,-339.201 433.193,-324.436 396.061,-314.257"/>
<polygon fill="midnightblue" stroke="midnightblue" points="396.632,-310.785 386.062,-311.516 394.781,-317.536 396.632,-310.785"/>
</g>
<!-- Node15 -->
<g id="node15" class="node"><title>Node15</title>
<g id="a_node15"><a xlink:href="vec__functions_8h.html" target="_top" xlink:title="Templates for operations on vector&#45;like objects. ">
<polygon fill="white" stroke="black" points="834.993,-236.5 834.993,-255.5 976.993,-255.5 976.993,-236.5 834.993,-236.5"/>
<text text-anchor="middle" x="905.993" y="-243.5" font-family="FreeSans" font-size="10.00">cantera/base/vec_functions.h</text>
</a>
</g>
</g>
<!-- Node1&#45;&gt;Node15 -->
<g id="edge19" class="edge"><title>Node1&#45;&gt;Node15</title>
<path fill="none" stroke="midnightblue" d="M579.476,-348.46C642.339,-328.926 796.695,-280.963 868.334,-258.702"/>
<polygon fill="midnightblue" stroke="midnightblue" points="869.772,-261.92 878.283,-255.61 867.695,-255.235 869.772,-261.92"/>
</g>
<!-- Node23 -->
<g id="node23" class="node"><title>Node23</title>
<g id="a_node23"><a xlink:href="ThermoFactory_8h.html" target="_top" xlink:title="Headers for the factory class that can create known ThermoPhase objects (see Thermodynamic Properties...">
<polygon fill="white" stroke="black" points="472.993,-292.5 472.993,-311.5 630.993,-311.5 630.993,-292.5 472.993,-292.5"/>
<text text-anchor="middle" x="551.993" y="-299.5" font-family="FreeSans" font-size="10.00">cantera/thermo/ThermoFactory.h</text>
</a>
</g>
</g>
<!-- Node1&#45;&gt;Node23 -->
<g id="edge30" class="edge"><title>Node1&#45;&gt;Node23</title>
<path fill="none" stroke="midnightblue" d="M551.993,-348.083C551.993,-341.006 551.993,-330.861 551.993,-321.986"/>
<polygon fill="midnightblue" stroke="midnightblue" points="555.493,-321.751 551.993,-311.751 548.493,-321.751 555.493,-321.751"/>
</g>
<!-- Node3 -->
<g id="node3" class="node"><title>Node3</title>
<g id="a_node3"><a xlink:href="mix__defs_8h.html" target="_top" xlink:title="mix_defs.h">
<polygon fill="white" stroke="black" points="232.993,-236.5 232.993,-255.5 294.993,-255.5 294.993,-236.5 232.993,-236.5"/>
<text text-anchor="middle" x="263.993" y="-243.5" font-family="FreeSans" font-size="10.00">mix_defs.h</text>
</a>
</g>
</g>
<!-- Node2&#45;&gt;Node3 -->
<g id="edge2" class="edge"><title>Node2&#45;&gt;Node3</title>
<path fill="none" stroke="midnightblue" d="M340.372,-292.324C326.044,-283.822 303.98,-270.729 287.244,-260.797"/>
<polygon fill="midnightblue" stroke="midnightblue" points="288.963,-257.748 278.577,-255.655 285.391,-263.768 288.963,-257.748"/>
</g>
<!-- Node4 -->
<g id="node4" class="node"><title>Node4</title>
<g id="a_node4"><a xlink:href="ThermoPhase_8h.html" target="_top" xlink:title="Header file for class ThermoPhase, the base class for phases with thermodynamic properties, and the text for the Module thermoprops (see Thermodynamic Properties and class ThermoPhase). ">
<polygon fill="white" stroke="black" points="312.993,-236.5 312.993,-255.5 396.993,-255.5 396.993,-236.5 312.993,-236.5"/>
<text text-anchor="middle" x="354.993" y="-243.5" font-family="FreeSans" font-size="10.00">ThermoPhase.h</text>
</a>
</g>
</g>
<!-- Node2&#45;&gt;Node4 -->
<g id="edge3" class="edge"><title>Node2&#45;&gt;Node4</title>
<path fill="none" stroke="midnightblue" d="M354.993,-292.083C354.993,-285.006 354.993,-274.861 354.993,-265.986"/>
<polygon fill="midnightblue" stroke="midnightblue" points="358.493,-265.751 354.993,-255.751 351.493,-265.751 358.493,-265.751"/>
</g>
<!-- Node5 -->
<g id="node5" class="node"><title>Node5</title>
<g id="a_node5"><a xlink:href="Phase_8h.html" target="_top" xlink:title="Header file for class Phase. ">
<polygon fill="white" stroke="black" points="323.493,-180.5 323.493,-199.5 374.493,-199.5 374.493,-180.5 323.493,-180.5"/>
<text text-anchor="middle" x="348.993" y="-187.5" font-family="FreeSans" font-size="10.00">Phase.h</text>
</a>
</g>
</g>
<!-- Node4&#45;&gt;Node5 -->
<g id="edge4" class="edge"><title>Node4&#45;&gt;Node5</title>
<path fill="none" stroke="midnightblue" d="M354.002,-236.083C353.207,-228.927 352.063,-218.635 351.07,-209.691"/>
<polygon fill="midnightblue" stroke="midnightblue" points="354.548,-209.303 349.965,-199.751 347.591,-210.076 354.548,-209.303"/>
</g>
<!-- Node14 -->
<g id="node14" class="node"><title>Node14</title>
<g id="a_node14"><a xlink:href="SpeciesThermo_8h.html" target="_top" xlink:title="Virtual base class for the calculation of multiple&#45;species thermodynamic reference&#45;state property man...">
<polygon fill="white" stroke="black" points="18.9928,-124.5 18.9928,-143.5 110.993,-143.5 110.993,-124.5 18.9928,-124.5"/>
<text text-anchor="middle" x="64.9928" y="-131.5" font-family="FreeSans" font-size="10.00">SpeciesThermo.h</text>
</a>
</g>
</g>
<!-- Node4&#45;&gt;Node14 -->
<g id="edge16" class="edge"><title>Node4&#45;&gt;Node14</title>
<path fill="none" stroke="midnightblue" d="M332.237,-236.368C280.991,-216.93 156.407,-169.674 97.2298,-147.228"/>
<polygon fill="midnightblue" stroke="midnightblue" points="98.2342,-143.866 87.6429,-143.591 95.7516,-150.411 98.2342,-143.866"/>
</g>
<!-- Node6 -->
<g id="node6" class="node"><title>Node6</title>
<g id="a_node6"><a xlink:href="ctexceptions_8h.html" target="_top" xlink:title="Definitions for the classes that are thrown when Cantera experiences an error condition (also contain...">
<polygon fill="white" stroke="red" points="577.493,-124.5 577.493,-143.5 714.493,-143.5 714.493,-124.5 577.493,-124.5"/>
<text text-anchor="middle" x="645.993" y="-131.5" font-family="FreeSans" font-size="10.00">cantera/base/ctexceptions.h</text>
</a>
</g>
</g>
<!-- Node5&#45;&gt;Node6 -->
<g id="edge5" class="edge"><title>Node5&#45;&gt;Node6</title>
<path fill="none" stroke="midnightblue" d="M374.553,-181.972C377.392,-181.27 380.248,-180.597 382.993,-180 448.481,-165.76 523.947,-153.243 577.197,-145.049"/>
<polygon fill="midnightblue" stroke="midnightblue" points="577.851,-148.49 587.208,-143.52 576.794,-141.57 577.851,-148.49"/>
</g>
<!-- Node7 -->
<g id="node7" class="node"><title>Node7</title>
<g id="a_node7"><a xlink:href="Elements_8h.html" target="_top" xlink:title="Contains the LookupWtElements function and the definitions of element constraint types. ">
<polygon fill="white" stroke="black" points="274.993,-124.5 274.993,-143.5 406.993,-143.5 406.993,-124.5 274.993,-124.5"/>
<text text-anchor="middle" x="340.993" y="-131.5" font-family="FreeSans" font-size="10.00">cantera/thermo/Elements.h</text>
</a>
</g>
</g>
<!-- Node5&#45;&gt;Node7 -->
<g id="edge6" class="edge"><title>Node5&#45;&gt;Node7</title>
<path fill="none" stroke="midnightblue" d="M347.672,-180.083C346.612,-172.927 345.087,-162.635 343.762,-153.691"/>
<polygon fill="midnightblue" stroke="midnightblue" points="347.217,-153.13 342.289,-143.751 340.293,-154.156 347.217,-153.13"/>
</g>
<!-- Node11 -->
<g id="node11" class="node"><title>Node11</title>
<g id="a_node11"><a xlink:href="Species_8h.html" target="_top" xlink:title="Declaration for class Cantera::Species. ">
<polygon fill="white" stroke="black" points="129.493,-124.5 129.493,-143.5 256.493,-143.5 256.493,-124.5 129.493,-124.5"/>
<text text-anchor="middle" x="192.993" y="-131.5" font-family="FreeSans" font-size="10.00">cantera/thermo/Species.h</text>
</a>
</g>
</g>
<!-- Node5&#45;&gt;Node11 -->
<g id="edge10" class="edge"><title>Node5&#45;&gt;Node11</title>
<path fill="none" stroke="midnightblue" d="M324.274,-180.444C298.144,-171.399 256.733,-157.064 227.416,-146.916"/>
<polygon fill="midnightblue" stroke="midnightblue" points="228.191,-143.48 217.596,-143.516 225.901,-150.095 228.191,-143.48"/>
</g>
<!-- Node13 -->
<g id="node13" class="node"><title>Node13</title>
<g id="a_node13"><a xlink:href="ValueCache_8h.html" target="_top" xlink:title="cantera/base/ValueCache.h">
<polygon fill="white" stroke="red" points="424.993,-124.5 424.993,-143.5 558.993,-143.5 558.993,-124.5 424.993,-124.5"/>
<text text-anchor="middle" x="491.993" y="-131.5" font-family="FreeSans" font-size="10.00">cantera/base/ValueCache.h</text>
</a>
</g>
</g>
<!-- Node5&#45;&gt;Node13 -->
<g id="edge14" class="edge"><title>Node5&#45;&gt;Node13</title>
<path fill="none" stroke="midnightblue" d="M371.652,-180.444C395.395,-171.478 432.902,-157.314 459.731,-147.183"/>
<polygon fill="midnightblue" stroke="midnightblue" points="461.321,-150.324 469.44,-143.516 458.848,-143.775 461.321,-150.324"/>
</g>
<!-- Node8 -->
<g id="node8" class="node"><title>Node8</title>
<g id="a_node8"><a xlink:href="ct__defs_8h.html" target="_top" xlink:title="This file contains definitions of terms that are used in internal routines and are unlikely to need m...">
<polygon fill="white" stroke="red" points="434.993,-62.5 434.993,-81.5 548.993,-81.5 548.993,-62.5 434.993,-62.5"/>
<text text-anchor="middle" x="491.993" y="-69.5" font-family="FreeSans" font-size="10.00">cantera/base/ct_defs.h</text>
</a>
</g>
</g>
<!-- Node7&#45;&gt;Node8 -->
<g id="edge7" class="edge"><title>Node7&#45;&gt;Node8</title>
<path fill="none" stroke="midnightblue" d="M362.627,-124.403C388.417,-114.156 431.703,-96.9561 461.032,-85.3021"/>
<polygon fill="midnightblue" stroke="midnightblue" points="462.398,-88.526 470.398,-81.5806 459.813,-82.0207 462.398,-88.526"/>
</g>
<!-- Node9 -->
<g id="node9" class="node"><title>Node9</title>
<g id="a_node9"><a xlink:href="config_8h_source.html" target="_top" xlink:title="config.h">
<polygon fill="white" stroke="black" points="105.993,-0.5 105.993,-19.5 155.993,-19.5 155.993,-0.5 105.993,-0.5"/>
<text text-anchor="middle" x="130.993" y="-7.5" font-family="FreeSans" font-size="10.00">config.h</text>
</a>
</g>
</g>
<!-- Node8&#45;&gt;Node9 -->
<g id="edge8" class="edge"><title>Node8&#45;&gt;Node9</title>
<path fill="none" stroke="midnightblue" d="M440.654,-62.4672C366.158,-50.0857 230.024,-27.4594 166.014,-16.8207"/>
<polygon fill="midnightblue" stroke="midnightblue" points="166.456,-13.3462 156.017,-15.1592 165.308,-20.2515 166.456,-13.3462"/>
</g>
<!-- Node10 -->
<g id="node10" class="node"><title>Node10</title>
<polygon fill="white" stroke="#bfbfbf" points="595.493,-0.5 595.493,-19.5 638.493,-19.5 638.493,-0.5 595.493,-0.5"/>
<text text-anchor="middle" x="616.993" y="-7.5" font-family="FreeSans" font-size="10.00">vector</text>
</g>
<!-- Node8&#45;&gt;Node10 -->
<g id="edge9" class="edge"><title>Node8&#45;&gt;Node10</title>
<path fill="none" stroke="midnightblue" d="M509.902,-62.4035C530.88,-52.3341 565.842,-35.5522 590.086,-23.9151"/>
<polygon fill="midnightblue" stroke="midnightblue" points="591.616,-27.0633 599.117,-19.5806 588.587,-20.7526 591.616,-27.0633"/>
</g>
<!-- Node11&#45;&gt;Node8 -->
<g id="edge11" class="edge"><title>Node11&#45;&gt;Node8</title>
<path fill="none" stroke="midnightblue" d="M235.515,-124.467C289.204,-113.693 381.55,-95.1623 439.557,-83.5223"/>
<polygon fill="midnightblue" stroke="midnightblue" points="440.502,-86.9025 449.618,-81.5034 439.124,-80.0393 440.502,-86.9025"/>
</g>
<!-- Node12 -->
<g id="node12" class="node"><title>Node12</title>
<g id="a_node12"><a xlink:href="smart__ptr_8h_source.html" target="_top" xlink:title="cantera/base/smart\l_ptr.h">
<polygon fill="white" stroke="red" points="81.4928,-57 81.4928,-87 180.493,-87 180.493,-57 81.4928,-57"/>
<text text-anchor="start" x="89.4928" y="-75" font-family="FreeSans" font-size="10.00">cantera/base/smart</text>
<text text-anchor="middle" x="130.993" y="-64" font-family="FreeSans" font-size="10.00">_ptr.h</text>
</a>
</g>
</g>
<!-- Node11&#45;&gt;Node12 -->
<g id="edge12" class="edge"><title>Node11&#45;&gt;Node12</title>
<path fill="none" stroke="midnightblue" d="M184.11,-124.403C176.027,-116.581 163.757,-104.708 153.047,-94.3424"/>
<polygon fill="midnightblue" stroke="midnightblue" points="155.225,-91.5799 145.605,-87.1408 150.357,-96.6102 155.225,-91.5799"/>
</g>
<!-- Node12&#45;&gt;Node9 -->
<g id="edge13" class="edge"><title>Node12&#45;&gt;Node9</title>
<path fill="none" stroke="midnightblue" d="M130.993,-56.7808C130.993,-48.7812 130.993,-38.6887 130.993,-30.0168"/>
<polygon fill="midnightblue" stroke="midnightblue" points="134.493,-29.7305 130.993,-19.7305 127.493,-29.7306 134.493,-29.7305"/>
</g>
<!-- Node13&#45;&gt;Node8 -->
<g id="edge15" class="edge"><title>Node13&#45;&gt;Node8</title>
<path fill="none" stroke="midnightblue" d="M491.993,-124.403C491.993,-115.938 491.993,-102.728 491.993,-91.8199"/>
<polygon fill="midnightblue" stroke="midnightblue" points="495.493,-91.5806 491.993,-81.5806 488.493,-91.5806 495.493,-91.5806"/>
</g>
<!-- Node14&#45;&gt;Node8 -->
<g id="edge17" class="edge"><title>Node14&#45;&gt;Node8</title>
<path fill="none" stroke="midnightblue" d="M111.193,-125.351C114.169,-124.886 117.122,-124.432 119.993,-124 226.35,-108.01 350.132,-91.4471 424.701,-81.6914"/>
<polygon fill="midnightblue" stroke="midnightblue" points="425.427,-85.1264 434.889,-80.3608 424.52,-78.1854 425.427,-85.1264"/>
</g>
<!-- Node14&#45;&gt;Node12 -->
<g id="edge18" class="edge"><title>Node14&#45;&gt;Node12</title>
<path fill="none" stroke="midnightblue" d="M74.449,-124.403C83.1372,-116.505 96.3684,-104.477 107.848,-94.0409"/>
<polygon fill="midnightblue" stroke="midnightblue" points="110.393,-96.4574 115.438,-87.1408 105.684,-91.2778 110.393,-96.4574"/>
</g>
<!-- Node15&#45;&gt;Node8 -->
<g id="edge20" class="edge"><title>Node15&#45;&gt;Node8</title>
<path fill="none" stroke="midnightblue" d="M892.301,-236.499C877.942,-227.543 854.761,-212.967 834.993,-200 784.693,-167.005 778.241,-147.799 722.993,-124 670.457,-101.369 606.71,-88.2675 559.501,-81.0247"/>
<polygon fill="midnightblue" stroke="midnightblue" points="559.793,-77.5297 549.388,-79.5235 558.766,-84.4539 559.793,-77.5297"/>
</g>
<!-- Node16 -->
<g id="node16" class="node"><title>Node16</title>
<g id="a_node16"><a xlink:href="utilities_8h.html" target="_top" xlink:title="Various templated functions that carry out common vector operations (see Templated Utility Functions)...">
<polygon fill="white" stroke="black" points="907.993,-180.5 907.993,-199.5 961.993,-199.5 961.993,-180.5 907.993,-180.5"/>
<text text-anchor="middle" x="934.993" y="-187.5" font-family="FreeSans" font-size="10.00">utilities.h</text>
</a>
</g>
</g>
<!-- Node15&#45;&gt;Node16 -->
<g id="edge21" class="edge"><title>Node15&#45;&gt;Node16</title>
<path fill="none" stroke="midnightblue" d="M910.782,-236.083C914.751,-228.691 920.518,-217.953 925.428,-208.811"/>
<polygon fill="midnightblue" stroke="midnightblue" points="928.645,-210.217 930.293,-199.751 922.478,-206.905 928.645,-210.217"/>
</g>
<!-- Node20 -->
<g id="node20" class="node"><title>Node20</title>
<polygon fill="white" stroke="#bfbfbf" points="980.493,-180.5 980.493,-199.5 1039.49,-199.5 1039.49,-180.5 980.493,-180.5"/>
<text text-anchor="middle" x="1009.99" y="-187.5" font-family="FreeSans" font-size="10.00">functional</text>
</g>
<!-- Node15&#45;&gt;Node20 -->
<g id="edge27" class="edge"><title>Node15&#45;&gt;Node20</title>
<path fill="none" stroke="midnightblue" d="M922.702,-236.324C939.305,-227.703 964.995,-214.364 984.213,-204.386"/>
<polygon fill="midnightblue" stroke="midnightblue" points="986.063,-207.369 993.325,-199.655 982.837,-201.156 986.063,-207.369"/>
</g>
<!-- Node21 -->
<g id="node21" class="node"><title>Node21</title>
<polygon fill="white" stroke="#bfbfbf" points="1057.49,-180.5 1057.49,-199.5 1110.49,-199.5 1110.49,-180.5 1057.49,-180.5"/>
<text text-anchor="middle" x="1083.99" y="-187.5" font-family="FreeSans" font-size="10.00">iostream</text>
</g>
<!-- Node15&#45;&gt;Node21 -->
<g id="edge28" class="edge"><title>Node15&#45;&gt;Node21</title>
<path fill="none" stroke="midnightblue" d="M934.197,-236.444C964.847,-227.145 1013.92,-212.257 1047.49,-202.073"/>
<polygon fill="midnightblue" stroke="midnightblue" points="1048.82,-205.328 1057.37,-199.075 1046.79,-198.629 1048.82,-205.328"/>
</g>
<!-- Node22 -->
<g id="node22" class="node"><title>Node22</title>
<polygon fill="white" stroke="#bfbfbf" points="844.493,-180.5 844.493,-199.5 889.493,-199.5 889.493,-180.5 844.493,-180.5"/>
<text text-anchor="middle" x="866.993" y="-187.5" font-family="FreeSans" font-size="10.00">cstring</text>
</g>
<!-- Node15&#45;&gt;Node22 -->
<g id="edge29" class="edge"><title>Node15&#45;&gt;Node22</title>
<path fill="none" stroke="midnightblue" d="M899.553,-236.083C894.044,-228.455 885.962,-217.264 879.228,-207.941"/>
<polygon fill="midnightblue" stroke="midnightblue" points="882.005,-205.809 873.313,-199.751 876.331,-209.907 882.005,-205.809"/>
</g>
<!-- Node16&#45;&gt;Node8 -->
<g id="edge22" class="edge"><title>Node16&#45;&gt;Node8</title>
<path fill="none" stroke="midnightblue" d="M924.423,-180.392C906.306,-166.135 867.626,-137.824 829.993,-124 781.549,-106.205 642.91,-89.0485 558.998,-79.8772"/>
<polygon fill="midnightblue" stroke="midnightblue" points="559.364,-76.3966 549.046,-78.7989 558.61,-83.3558 559.364,-76.3966"/>
</g>
<!-- Node17 -->
<g id="node17" class="node"><title>Node17</title>
<g id="a_node17"><a xlink:href="global_8h.html" target="_top" xlink:title="This file contains definitions for utility functions and text for modules, inputfiles, logs, textlogs, (see Input File Handling, Diagnostic Output, and Writing messages to the screen). ">
<polygon fill="white" stroke="black" points="770.993,-124.5 770.993,-143.5 820.993,-143.5 820.993,-124.5 770.993,-124.5"/>
<text text-anchor="middle" x="795.993" y="-131.5" font-family="FreeSans" font-size="10.00">global.h</text>
</a>
</g>
</g>
<!-- Node16&#45;&gt;Node17 -->
<g id="edge23" class="edge"><title>Node16&#45;&gt;Node17</title>
<path fill="none" stroke="midnightblue" d="M912.968,-180.444C889.889,-171.478 853.431,-157.314 827.352,-147.183"/>
<polygon fill="midnightblue" stroke="midnightblue" points="828.504,-143.875 817.915,-143.516 825.969,-150.4 828.504,-143.875"/>
</g>
<!-- Node18 -->
<g id="node18" class="node"><title>Node18</title>
<polygon fill="white" stroke="#bfbfbf" points="914.993,-124.5 914.993,-143.5 972.993,-143.5 972.993,-124.5 914.993,-124.5"/>
<text text-anchor="middle" x="943.993" y="-131.5" font-family="FreeSans" font-size="10.00">stdexcept</text>
</g>
<!-- Node16&#45;&gt;Node18 -->
<g id="edge25" class="edge"><title>Node16&#45;&gt;Node18</title>
<path fill="none" stroke="midnightblue" d="M936.479,-180.083C937.672,-172.927 939.387,-162.635 940.878,-153.691"/>
<polygon fill="midnightblue" stroke="midnightblue" points="944.343,-154.19 942.534,-143.751 937.438,-153.04 944.343,-154.19"/>
</g>
<!-- Node19 -->
<g id="node19" class="node"><title>Node19</title>
<polygon fill="white" stroke="#bfbfbf" points="991.493,-124.5 991.493,-143.5 1042.49,-143.5 1042.49,-124.5 991.493,-124.5"/>
<text text-anchor="middle" x="1016.99" y="-131.5" font-family="FreeSans" font-size="10.00">numeric</text>
</g>
<!-- Node16&#45;&gt;Node19 -->
<g id="edge26" class="edge"><title>Node16&#45;&gt;Node19</title>
<path fill="none" stroke="midnightblue" d="M948.168,-180.324C960.84,-171.979 980.226,-159.212 995.198,-149.352"/>
<polygon fill="midnightblue" stroke="midnightblue" points="997.424,-152.078 1003.85,-143.655 993.574,-146.231 997.424,-152.078"/>
</g>
<!-- Node17&#45;&gt;Node8 -->
<g id="edge24" class="edge"><title>Node17&#45;&gt;Node8</title>
<path fill="none" stroke="midnightblue" d="M770.848,-127.055C766.245,-126.007 761.48,-124.949 756.993,-124 685.511,-108.879 602.778,-93.2547 549.03,-83.3518"/>
<polygon fill="midnightblue" stroke="midnightblue" points="549.477,-79.8755 539.009,-81.51 548.212,-86.7602 549.477,-79.8755"/>
</g>
<!-- Node23&#45;&gt;Node4 -->
<g id="edge31" class="edge"><title>Node23&#45;&gt;Node4</title>
<path fill="none" stroke="midnightblue" d="M520.778,-292.444C487.06,-283.201 433.193,-268.436 396.061,-258.257"/>
<polygon fill="midnightblue" stroke="midnightblue" points="396.632,-254.785 386.062,-255.516 394.781,-261.536 396.632,-254.785"/>
</g>
<!-- Node24 -->
<g id="node24" class="node"><title>Node24</title>
<g id="a_node24"><a xlink:href="xml_8h.html" target="_top" xlink:title="Classes providing support for XML data files. ">
<polygon fill="white" stroke="black" points="391.993,-180.5 391.993,-199.5 489.993,-199.5 489.993,-180.5 391.993,-180.5"/>
<text text-anchor="middle" x="440.993" y="-187.5" font-family="FreeSans" font-size="10.00">cantera/base/xml.h</text>
</a>
</g>
</g>
<!-- Node23&#45;&gt;Node24 -->
<g id="edge32" class="edge"><title>Node23&#45;&gt;Node24</title>
<path fill="none" stroke="midnightblue" d="M536.414,-292.342C522.486,-284.133 502.016,-270.869 486.993,-256 472.603,-241.757 459.622,-222.538 451.148,-208.697"/>
<polygon fill="midnightblue" stroke="midnightblue" points="453.933,-206.53 445.819,-199.717 447.913,-210.103 453.933,-206.53"/>
</g>
<!-- Node25 -->
<g id="node25" class="node"><title>Node25</title>
<g id="a_node25"><a xlink:href="ct__thread_8h.html" target="_top" xlink:title="cantera/base/ct_thread.h">
<polygon fill="white" stroke="black" points="496.493,-236.5 496.493,-255.5 619.493,-255.5 619.493,-236.5 496.493,-236.5"/>
<text text-anchor="middle" x="557.993" y="-243.5" font-family="FreeSans" font-size="10.00">cantera/base/ct_thread.h</text>
</a>
</g>
</g>
<!-- Node23&#45;&gt;Node25 -->
<g id="edge35" class="edge"><title>Node23&#45;&gt;Node25</title>
<path fill="none" stroke="midnightblue" d="M552.984,-292.083C553.779,-284.927 554.922,-274.635 555.916,-265.691"/>
<polygon fill="midnightblue" stroke="midnightblue" points="559.395,-266.076 557.02,-255.751 552.438,-265.303 559.395,-266.076"/>
</g>
<!-- Node28 -->
<g id="node28" class="node"><title>Node28</title>
<g id="a_node28"><a xlink:href="FactoryBase_8h.html" target="_top" xlink:title="File contains the FactoryBase class declarations. ">
<polygon fill="white" stroke="black" points="673.493,-62.5 673.493,-81.5 810.493,-81.5 810.493,-62.5 673.493,-62.5"/>
<text text-anchor="middle" x="741.993" y="-69.5" font-family="FreeSans" font-size="10.00">cantera/base/FactoryBase.h</text>
</a>
</g>
</g>
<!-- Node23&#45;&gt;Node28 -->
<g id="edge39" class="edge"><title>Node23&#45;&gt;Node28</title>
<path fill="none" stroke="midnightblue" d="M594.961,-292.47C661.173,-276.642 785.184,-235.618 829.993,-144 843.223,-116.949 809.001,-96.8239 779.444,-85.0371"/>
<polygon fill="midnightblue" stroke="midnightblue" points="780.67,-81.7586 770.078,-81.5049 778.2,-88.3084 780.67,-81.7586"/>
</g>
<!-- Node24&#45;&gt;Node6 -->
<g id="edge33" class="edge"><title>Node24&#45;&gt;Node6</title>
<path fill="none" stroke="midnightblue" d="M473.476,-180.444C508.713,-171.162 565.097,-156.309 603.752,-146.127"/>
<polygon fill="midnightblue" stroke="midnightblue" points="604.883,-149.448 613.662,-143.516 603.1,-142.679 604.883,-149.448"/>
</g>
<!-- Node24&#45;&gt;Node17 -->
<g id="edge34" class="edge"><title>Node24&#45;&gt;Node17</title>
<path fill="none" stroke="midnightblue" d="M490.039,-181.377C493.068,-180.91 496.072,-180.448 498.993,-180 593.668,-165.482 705.366,-148.633 760.931,-140.271"/>
<polygon fill="midnightblue" stroke="midnightblue" points="761.588,-143.712 770.955,-138.763 760.546,-136.79 761.588,-143.712"/>
</g>
<!-- Node25&#45;&gt;Node9 -->
<g id="edge36" class="edge"><title>Node25&#45;&gt;Node9</title>
<path fill="none" stroke="midnightblue" d="M496.266,-238.072C359.593,-222.113 41.0188,-181.267 9.99284,-144 -27.8454,-98.5507 56.5848,-47.5321 103.04,-24.0774"/>
<polygon fill="midnightblue" stroke="midnightblue" points="104.629,-27.1963 112.049,-19.6331 101.532,-20.9188 104.629,-27.1963"/>
</g>
<!-- Node26 -->
<g id="node26" class="node"><title>Node26</title>
<polygon fill="white" stroke="#bfbfbf" points="643.993,-180.5 643.993,-199.5 749.993,-199.5 749.993,-180.5 643.993,-180.5"/>
<text text-anchor="middle" x="696.993" y="-187.5" font-family="FreeSans" font-size="10.00">boost/shared_ptr.hpp</text>
</g>
<!-- Node25&#45;&gt;Node26 -->
<g id="edge37" class="edge"><title>Node25&#45;&gt;Node26</title>
<path fill="none" stroke="midnightblue" d="M580.018,-236.444C603.097,-227.478 639.555,-213.314 665.634,-203.183"/>
<polygon fill="midnightblue" stroke="midnightblue" points="667.017,-206.4 675.071,-199.516 664.482,-199.875 667.017,-206.4"/>
</g>
<!-- Node27 -->
<g id="node27" class="node"><title>Node27</title>
<polygon fill="white" stroke="#bfbfbf" points="508.493,-180.5 508.493,-199.5 625.493,-199.5 625.493,-180.5 508.493,-180.5"/>
<text text-anchor="middle" x="566.993" y="-187.5" font-family="FreeSans" font-size="10.00">boost/thread/mutex.hpp</text>
</g>
<!-- Node25&#45;&gt;Node27 -->
<g id="edge38" class="edge"><title>Node25&#45;&gt;Node27</title>
<path fill="none" stroke="midnightblue" d="M559.479,-236.083C560.672,-228.927 562.387,-218.635 563.878,-209.691"/>
<polygon fill="midnightblue" stroke="midnightblue" points="567.343,-210.19 565.534,-199.751 560.438,-209.04 567.343,-210.19"/>
</g>
<!-- Node28&#45;&gt;Node10 -->
<g id="edge40" class="edge"><title>Node28&#45;&gt;Node10</title>
<path fill="none" stroke="midnightblue" d="M724.083,-62.4035C703.106,-52.3341 668.143,-35.5522 643.899,-23.9151"/>
<polygon fill="midnightblue" stroke="midnightblue" points="645.399,-20.7526 634.869,-19.5806 642.37,-27.0633 645.399,-20.7526"/>
</g>
</g>
</svg>
