<?xml version="1.0" encoding="UTF-8" standalone="no"?>
<!DOCTYPE svg PUBLIC "-//W3C//DTD SVG 1.1//EN"
 "http://www.w3.org/Graphics/SVG/1.1/DTD/svg11.dtd">
<!-- Generated by graphviz version 2.36.0 (20140111.2315)
 -->
<!-- Title: ImplicitSurfChem.h Pages: 1 -->
<svg width="332pt" height="84pt"
 viewBox="0.00 0.00 332.00 84.00" xmlns="http://www.w3.org/2000/svg" xmlns:xlink="http://www.w3.org/1999/xlink">
<g id="graph0" class="graph" transform="scale(1 1) rotate(0) translate(4 80)">
<title>ImplicitSurfChem.h</title>
<polygon fill="white" stroke="none" points="-4,4 -4,-80 328,-80 328,4 -4,4"/>
<!-- Node1 -->
<g id="node1" class="node"><title>Node1</title>
<polygon fill="#bfbfbf" stroke="black" points="132.5,-56.5 132.5,-75.5 231.5,-75.5 231.5,-56.5 132.5,-56.5"/>
<text text-anchor="middle" x="182" y="-63.5" font-family="FreeSans" font-size="10.00">ImplicitSurfChem.h</text>
</g>
<!-- Node2 -->
<g id="node2" class="node"><title>Node2</title>
<g id="a_node2"><a xlink:href="ImplicitSurfChem_8cpp.html" target="_top" xlink:title="Definitions for the implicit integration of surface site density equations (see Kinetics Managers and...">
<polygon fill="white" stroke="black" points="0,-0.5 0,-19.5 110,-19.5 110,-0.5 0,-0.5"/>
<text text-anchor="middle" x="55" y="-7.5" font-family="FreeSans" font-size="10.00">ImplicitSurfChem.cpp</text>
</a>
</g>
</g>
<!-- Node1&#45;&gt;Node2 -->
<g id="edge1" class="edge"><title>Node1&#45;&gt;Node2</title>
<path fill="none" stroke="midnightblue" d="M152.609,-52.503C128.8,-42.3795 95.894,-28.388 75.0294,-19.5164"/>
<polygon fill="midnightblue" stroke="midnightblue" points="151.304,-55.7515 161.876,-56.4435 154.043,-49.3096 151.304,-55.7515"/>
</g>
<!-- Node3 -->
<g id="node3" class="node"><title>Node3</title>
<g id="a_node3"><a xlink:href="InterfaceKinetics_8cpp.html" target="_top" xlink:title="InterfaceKinetics.cpp">
<polygon fill="white" stroke="black" points="128.5,-0.5 128.5,-19.5 235.5,-19.5 235.5,-0.5 128.5,-0.5"/>
<text text-anchor="middle" x="182" y="-7.5" font-family="FreeSans" font-size="10.00">InterfaceKinetics.cpp</text>
</a>
</g>
</g>
<!-- Node1&#45;&gt;Node3 -->
<g id="edge2" class="edge"><title>Node1&#45;&gt;Node3</title>
<path fill="none" stroke="midnightblue" d="M182,-45.8045C182,-36.9102 182,-26.7798 182,-19.7511"/>
<polygon fill="midnightblue" stroke="midnightblue" points="178.5,-46.083 182,-56.083 185.5,-46.083 178.5,-46.083"/>
</g>
<!-- Node4 -->
<g id="node4" class="node"><title>Node4</title>
<g id="a_node4"><a xlink:href="solveSP_8cpp_source.html" target="_top" xlink:title="solveSP.cpp">
<polygon fill="white" stroke="black" points="254,-0.5 254,-19.5 324,-19.5 324,-0.5 254,-0.5"/>
<text text-anchor="middle" x="289" y="-7.5" font-family="FreeSans" font-size="10.00">solveSP.cpp</text>
</a>
</g>
</g>
<!-- Node1&#45;&gt;Node4 -->
<g id="edge3" class="edge"><title>Node1&#45;&gt;Node4</title>
<path fill="none" stroke="midnightblue" d="M208.302,-51.7261C228.115,-41.7271 254.707,-28.3065 271.851,-19.6545"/>
<polygon fill="midnightblue" stroke="midnightblue" points="206.542,-48.6938 199.191,-56.324 209.696,-54.9431 206.542,-48.6938"/>
</g>
</g>
</svg>
