<?xml version="1.0" encoding="UTF-8" standalone="no"?>
<!DOCTYPE svg PUBLIC "-//W3C//DTD SVG 1.1//EN"
 "http://www.w3.org/Graphics/SVG/1.1/DTD/svg11.dtd">
<!-- Generated by graphviz version 2.36.0 (20140111.2315)
 -->
<!-- Title: Integrator.h Pages: 1 -->
<svg width="1210pt" height="140pt"
 viewBox="0.00 0.00 1210.00 140.00" xmlns="http://www.w3.org/2000/svg" xmlns:xlink="http://www.w3.org/1999/xlink">
<g id="graph0" class="graph" transform="scale(1 1) rotate(0) translate(4 136)">
<title>Integrator.h</title>
<polygon fill="white" stroke="none" points="-4,4 -4,-136 1206,-136 1206,4 -4,4"/>
<!-- Node1 -->
<g id="node1" class="node"><title>Node1</title>
<polygon fill="#bfbfbf" stroke="black" points="277.5,-112.5 277.5,-131.5 342.5,-131.5 342.5,-112.5 277.5,-112.5"/>
<text text-anchor="middle" x="310" y="-119.5" font-family="FreeSans" font-size="10.00">Integrator.h</text>
</g>
<!-- Node2 -->
<g id="node2" class="node"><title>Node2</title>
<g id="a_node2"><a xlink:href="CVodeInt_8h.html" target="_top" xlink:title="CVodeInt.h">
<polygon fill="white" stroke="black" points="29,-56.5 29,-75.5 93,-75.5 93,-56.5 29,-56.5"/>
<text text-anchor="middle" x="61" y="-63.5" font-family="FreeSans" font-size="10.00">CVodeInt.h</text>
</a>
</g>
</g>
<!-- Node1&#45;&gt;Node2 -->
<g id="edge1" class="edge"><title>Node1&#45;&gt;Node2</title>
<path fill="none" stroke="midnightblue" d="M267.397,-111.761C217.983,-101.045 137.634,-83.6194 93.1658,-73.9757"/>
<polygon fill="midnightblue" stroke="midnightblue" points="266.933,-115.241 277.448,-113.94 268.417,-108.4 266.933,-115.241"/>
</g>
<!-- Node4 -->
<g id="node4" class="node"><title>Node4</title>
<g id="a_node4"><a xlink:href="ODE__integrators_8cpp.html" target="_top" xlink:title="ODE_integrators.cpp">
<polygon fill="white" stroke="black" points="92.5,-0.5 92.5,-19.5 197.5,-19.5 197.5,-0.5 92.5,-0.5"/>
<text text-anchor="middle" x="145" y="-7.5" font-family="FreeSans" font-size="10.00">ODE_integrators.cpp</text>
</a>
</g>
</g>
<!-- Node1&#45;&gt;Node4 -->
<g id="edge3" class="edge"><title>Node1&#45;&gt;Node4</title>
<path fill="none" stroke="midnightblue" d="M267.171,-118.469C234.685,-114.3 191.132,-103.53 164,-76 148.815,-60.5921 145.643,-33.7539 145.06,-19.8763"/>
<polygon fill="midnightblue" stroke="midnightblue" points="266.968,-121.968 277.295,-119.604 267.748,-115.011 266.968,-121.968"/>
</g>
<!-- Node5 -->
<g id="node5" class="node"><title>Node5</title>
<g id="a_node5"><a xlink:href="integrators_8h.html" target="_top" xlink:title="ODE integrators. ">
<polygon fill="white" stroke="black" points="173.5,-56.5 173.5,-75.5 242.5,-75.5 242.5,-56.5 173.5,-56.5"/>
<text text-anchor="middle" x="208" y="-63.5" font-family="FreeSans" font-size="10.00">integrators.h</text>
</a>
</g>
</g>
<!-- Node1&#45;&gt;Node5 -->
<g id="edge4" class="edge"><title>Node1&#45;&gt;Node5</title>
<path fill="none" stroke="midnightblue" d="M284.669,-107.59C265.81,-97.6052 240.616,-84.2672 224.347,-75.6545"/>
<polygon fill="midnightblue" stroke="midnightblue" points="283.136,-110.738 293.612,-112.324 286.412,-104.552 283.136,-110.738"/>
</g>
<!-- Node6 -->
<g id="node6" class="node"><title>Node6</title>
<g id="a_node6"><a xlink:href="ImplicitSurfChem_8h.html" target="_top" xlink:title="Declarations for the implicit integration of surface site density equations (see Kinetics Managers an...">
<polygon fill="white" stroke="black" points="426.5,-56.5 426.5,-75.5 525.5,-75.5 525.5,-56.5 426.5,-56.5"/>
<text text-anchor="middle" x="476" y="-63.5" font-family="FreeSans" font-size="10.00">ImplicitSurfChem.h</text>
</a>
</g>
</g>
<!-- Node1&#45;&gt;Node6 -->
<g id="edge5" class="edge"><title>Node1&#45;&gt;Node6</title>
<path fill="none" stroke="midnightblue" d="M345.953,-109.304C377.232,-99.1294 421.821,-84.6246 449.82,-75.5164"/>
<polygon fill="midnightblue" stroke="midnightblue" points="344.73,-106.022 336.303,-112.444 346.895,-112.678 344.73,-106.022"/>
</g>
<!-- Node10 -->
<g id="node10" class="node"><title>Node10</title>
<g id="a_node10"><a xlink:href="BEulerInt_8h.html" target="_top" xlink:title="BEulerInt.h">
<polygon fill="white" stroke="black" points="641,-56.5 641,-75.5 705,-75.5 705,-56.5 641,-56.5"/>
<text text-anchor="middle" x="673" y="-63.5" font-family="FreeSans" font-size="10.00">BEulerInt.h</text>
</a>
</g>
</g>
<!-- Node1&#45;&gt;Node10 -->
<g id="edge9" class="edge"><title>Node1&#45;&gt;Node10</title>
<path fill="none" stroke="midnightblue" d="M352.833,-114.628C426.477,-103.673 575.474,-81.508 640.93,-71.7708"/>
<polygon fill="midnightblue" stroke="midnightblue" points="351.909,-111.227 342.533,-116.16 352.939,-118.151 351.909,-111.227"/>
</g>
<!-- Node12 -->
<g id="node12" class="node"><title>Node12</title>
<g id="a_node12"><a xlink:href="CVodesIntegrator_8h.html" target="_top" xlink:title="CVodesIntegrator.h">
<polygon fill="white" stroke="black" points="261,-56.5 261,-75.5 359,-75.5 359,-56.5 261,-56.5"/>
<text text-anchor="middle" x="310" y="-63.5" font-family="FreeSans" font-size="10.00">CVodesIntegrator.h</text>
</a>
</g>
</g>
<!-- Node1&#45;&gt;Node12 -->
<g id="edge11" class="edge"><title>Node1&#45;&gt;Node12</title>
<path fill="none" stroke="midnightblue" d="M310,-101.805C310,-92.9102 310,-82.7798 310,-75.7511"/>
<polygon fill="midnightblue" stroke="midnightblue" points="306.5,-102.083 310,-112.083 313.5,-102.083 306.5,-102.083"/>
</g>
<!-- Node14 -->
<g id="node14" class="node"><title>Node14</title>
<g id="a_node14"><a xlink:href="ReactorNet_8h.html" target="_top" xlink:title="ReactorNet.h">
<polygon fill="white" stroke="black" points="905.5,-56.5 905.5,-75.5 978.5,-75.5 978.5,-56.5 905.5,-56.5"/>
<text text-anchor="middle" x="942" y="-63.5" font-family="FreeSans" font-size="10.00">ReactorNet.h</text>
</a>
</g>
</g>
<!-- Node1&#45;&gt;Node14 -->
<g id="edge14" class="edge"><title>Node1&#45;&gt;Node14</title>
<path fill="none" stroke="midnightblue" d="M352.682,-117.353C469.919,-107.336 795.442,-79.5224 905.27,-70.1383"/>
<polygon fill="midnightblue" stroke="midnightblue" points="352.314,-113.872 342.648,-118.21 352.91,-120.846 352.314,-113.872"/>
</g>
<!-- Node3 -->
<g id="node3" class="node"><title>Node3</title>
<g id="a_node3"><a xlink:href="CVodeInt_8cpp.html" target="_top" xlink:title="CVodeInt.cpp">
<polygon fill="white" stroke="black" points="0,-0.5 0,-19.5 74,-19.5 74,-0.5 0,-0.5"/>
<text text-anchor="middle" x="37" y="-7.5" font-family="FreeSans" font-size="10.00">CVodeInt.cpp</text>
</a>
</g>
</g>
<!-- Node2&#45;&gt;Node3 -->
<g id="edge2" class="edge"><title>Node2&#45;&gt;Node3</title>
<path fill="none" stroke="midnightblue" d="M52.8621,-46.6897C48.8174,-37.589 44.1174,-27.0141 40.8894,-19.7511"/>
<polygon fill="midnightblue" stroke="midnightblue" points="49.7771,-48.3664 57.0369,-56.083 56.1738,-45.5234 49.7771,-48.3664"/>
</g>
<!-- Node7 -->
<g id="node7" class="node"><title>Node7</title>
<g id="a_node7"><a xlink:href="ImplicitSurfChem_8cpp.html" target="_top" xlink:title="Definitions for the implicit integration of surface site density equations (see Kinetics Managers and...">
<polygon fill="white" stroke="black" points="343,-0.5 343,-19.5 453,-19.5 453,-0.5 343,-0.5"/>
<text text-anchor="middle" x="398" y="-7.5" font-family="FreeSans" font-size="10.00">ImplicitSurfChem.cpp</text>
</a>
</g>
</g>
<!-- Node6&#45;&gt;Node7 -->
<g id="edge6" class="edge"><title>Node6&#45;&gt;Node7</title>
<path fill="none" stroke="midnightblue" d="M455.232,-50.6221C440.983,-40.7574 422.544,-27.9919 410.501,-19.6545"/>
<polygon fill="midnightblue" stroke="midnightblue" points="453.254,-53.5095 463.468,-56.324 457.238,-47.7541 453.254,-53.5095"/>
</g>
<!-- Node8 -->
<g id="node8" class="node"><title>Node8</title>
<g id="a_node8"><a xlink:href="InterfaceKinetics_8cpp.html" target="_top" xlink:title="InterfaceKinetics.cpp">
<polygon fill="white" stroke="black" points="471.5,-0.5 471.5,-19.5 578.5,-19.5 578.5,-0.5 471.5,-0.5"/>
<text text-anchor="middle" x="525" y="-7.5" font-family="FreeSans" font-size="10.00">InterfaceKinetics.cpp</text>
</a>
</g>
</g>
<!-- Node6&#45;&gt;Node8 -->
<g id="edge7" class="edge"><title>Node6&#45;&gt;Node8</title>
<path fill="none" stroke="midnightblue" d="M491.034,-48.4314C499.622,-38.9673 510.043,-27.4827 517.059,-19.7511"/>
<polygon fill="midnightblue" stroke="midnightblue" points="488.219,-46.3254 484.091,-56.083 493.403,-51.0293 488.219,-46.3254"/>
</g>
<!-- Node9 -->
<g id="node9" class="node"><title>Node9</title>
<g id="a_node9"><a xlink:href="solveSP_8cpp_source.html" target="_top" xlink:title="solveSP.cpp">
<polygon fill="white" stroke="black" points="597,-0.5 597,-19.5 667,-19.5 667,-0.5 597,-0.5"/>
<text text-anchor="middle" x="632" y="-7.5" font-family="FreeSans" font-size="10.00">solveSP.cpp</text>
</a>
</g>
</g>
<!-- Node6&#45;&gt;Node9 -->
<g id="edge8" class="edge"><title>Node6&#45;&gt;Node9</title>
<path fill="none" stroke="midnightblue" d="M510.17,-53.172C539.544,-43.0039 581.198,-28.5852 607.397,-19.5164"/>
<polygon fill="midnightblue" stroke="midnightblue" points="509.024,-49.8649 500.719,-56.4435 511.313,-56.4798 509.024,-49.8649"/>
</g>
<!-- Node11 -->
<g id="node11" class="node"><title>Node11</title>
<g id="a_node11"><a xlink:href="BEulerInt_8cpp.html" target="_top" xlink:title="BEulerInt.cpp">
<polygon fill="white" stroke="black" points="685,-0.5 685,-19.5 759,-19.5 759,-0.5 685,-0.5"/>
<text text-anchor="middle" x="722" y="-7.5" font-family="FreeSans" font-size="10.00">BEulerInt.cpp</text>
</a>
</g>
</g>
<!-- Node10&#45;&gt;Node11 -->
<g id="edge10" class="edge"><title>Node10&#45;&gt;Node11</title>
<path fill="none" stroke="midnightblue" d="M688.034,-48.4314C696.622,-38.9673 707.043,-27.4827 714.059,-19.7511"/>
<polygon fill="midnightblue" stroke="midnightblue" points="685.219,-46.3254 681.091,-56.083 690.403,-51.0293 685.219,-46.3254"/>
</g>
<!-- Node12&#45;&gt;Node4 -->
<g id="edge13" class="edge"><title>Node12&#45;&gt;Node4</title>
<path fill="none" stroke="midnightblue" d="M274.264,-53.3044C243.173,-43.1294 198.853,-28.6246 171.022,-19.5164"/>
<polygon fill="midnightblue" stroke="midnightblue" points="273.263,-56.6595 283.855,-56.4435 275.44,-50.0067 273.263,-56.6595"/>
</g>
<!-- Node13 -->
<g id="node13" class="node"><title>Node13</title>
<g id="a_node13"><a xlink:href="CVodesIntegrator_8cpp.html" target="_top" xlink:title="CVodesIntegrator.cpp">
<polygon fill="white" stroke="black" points="215.5,-0.5 215.5,-19.5 324.5,-19.5 324.5,-0.5 215.5,-0.5"/>
<text text-anchor="middle" x="270" y="-7.5" font-family="FreeSans" font-size="10.00">CVodesIntegrator.cpp</text>
</a>
</g>
</g>
<!-- Node12&#45;&gt;Node13 -->
<g id="edge12" class="edge"><title>Node12&#45;&gt;Node13</title>
<path fill="none" stroke="midnightblue" d="M297.3,-47.8554C290.374,-38.5048 282.094,-27.3265 276.482,-19.7511"/>
<polygon fill="midnightblue" stroke="midnightblue" points="294.63,-50.1307 303.395,-56.083 300.255,-45.9641 294.63,-50.1307"/>
</g>
<!-- Node15 -->
<g id="node15" class="node"><title>Node15</title>
<g id="a_node15"><a xlink:href="Reactor_8cpp.html" target="_top" xlink:title="A zero&#45;dimensional reactor. ">
<polygon fill="white" stroke="black" points="1026,-0.5 1026,-19.5 1094,-19.5 1094,-0.5 1026,-0.5"/>
<text text-anchor="middle" x="1060" y="-7.5" font-family="FreeSans" font-size="10.00">Reactor.cpp</text>
</a>
</g>
</g>
<!-- Node14&#45;&gt;Node15 -->
<g id="edge15" class="edge"><title>Node14&#45;&gt;Node15</title>
<path fill="none" stroke="midnightblue" d="M969.9,-52.2321C991.973,-42.1312 1022.18,-28.3091 1041.39,-19.5164"/>
<polygon fill="midnightblue" stroke="midnightblue" points="968.334,-49.0997 960.697,-56.4435 971.247,-55.4648 968.334,-49.0997"/>
</g>
<!-- Node16 -->
<g id="node16" class="node"><title>Node16</title>
<g id="a_node16"><a xlink:href="ReactorBase_8cpp.html" target="_top" xlink:title="ReactorBase.cpp">
<polygon fill="white" stroke="black" points="1112,-0.5 1112,-19.5 1202,-19.5 1202,-0.5 1112,-0.5"/>
<text text-anchor="middle" x="1157" y="-7.5" font-family="FreeSans" font-size="10.00">ReactorBase.cpp</text>
</a>
</g>
</g>
<!-- Node14&#45;&gt;Node16 -->
<g id="edge16" class="edge"><title>Node14&#45;&gt;Node16</title>
<path fill="none" stroke="midnightblue" d="M985.96,-53.959C1026.57,-43.7598 1086.04,-28.8217 1123.09,-19.5164"/>
<polygon fill="midnightblue" stroke="midnightblue" points="984.914,-50.6129 976.067,-56.4435 986.619,-57.4021 984.914,-50.6129"/>
</g>
<!-- Node17 -->
<g id="node17" class="node"><title>Node17</title>
<g id="a_node17"><a xlink:href="ReactorNet_8cpp.html" target="_top" xlink:title="ReactorNet.cpp">
<polygon fill="white" stroke="black" points="777.5,-0.5 777.5,-19.5 860.5,-19.5 860.5,-0.5 777.5,-0.5"/>
<text text-anchor="middle" x="819" y="-7.5" font-family="FreeSans" font-size="10.00">ReactorNet.cpp</text>
</a>
</g>
</g>
<!-- Node14&#45;&gt;Node17 -->
<g id="edge17" class="edge"><title>Node14&#45;&gt;Node17</title>
<path fill="none" stroke="midnightblue" d="M913.227,-52.3678C890.193,-42.2553 858.516,-28.3486 838.399,-19.5164"/>
<polygon fill="midnightblue" stroke="midnightblue" points="911.947,-55.6283 922.51,-56.4435 914.761,-49.2188 911.947,-55.6283"/>
</g>
<!-- Node18 -->
<g id="node18" class="node"><title>Node18</title>
<g id="a_node18"><a xlink:href="Wall_8cpp.html" target="_top" xlink:title="Wall.cpp">
<polygon fill="white" stroke="black" points="878.5,-0.5 878.5,-19.5 931.5,-19.5 931.5,-0.5 878.5,-0.5"/>
<text text-anchor="middle" x="905" y="-7.5" font-family="FreeSans" font-size="10.00">Wall.cpp</text>
</a>
</g>
</g>
<!-- Node14&#45;&gt;Node18 -->
<g id="edge18" class="edge"><title>Node14&#45;&gt;Node18</title>
<path fill="none" stroke="midnightblue" d="M930.054,-47.5656C923.688,-38.2747 916.133,-27.2484 910.996,-19.7511"/>
<polygon fill="midnightblue" stroke="midnightblue" points="927.351,-49.812 935.89,-56.083 933.125,-45.8553 927.351,-49.812"/>
</g>
<!-- Node19 -->
<g id="node19" class="node"><title>Node19</title>
<g id="a_node19"><a xlink:href="zerodim_8h_source.html" target="_top" xlink:title="zerodim.h">
<polygon fill="white" stroke="black" points="950,-0.5 950,-19.5 1008,-19.5 1008,-0.5 950,-0.5"/>
<text text-anchor="middle" x="979" y="-7.5" font-family="FreeSans" font-size="10.00">zerodim.h</text>
</a>
</g>
</g>
<!-- Node14&#45;&gt;Node19 -->
<g id="edge19" class="edge"><title>Node14&#45;&gt;Node19</title>
<path fill="none" stroke="midnightblue" d="M953.946,-47.5656C960.312,-38.2747 967.867,-27.2484 973.004,-19.7511"/>
<polygon fill="midnightblue" stroke="midnightblue" points="950.875,-45.8553 948.11,-56.083 956.649,-49.812 950.875,-45.8553"/>
</g>
</g>
</svg>
