<?xml version="1.0" encoding="UTF-8" standalone="no"?>
<!DOCTYPE svg PUBLIC "-//W3C//DTD SVG 1.1//EN"
 "http://www.w3.org/Graphics/SVG/1.1/DTD/svg11.dtd">
<!-- Generated by graphviz version 2.36.0 (20140111.2315)
 -->
<!-- Title: LatticeSolidPhase.h Pages: 1 -->
<svg width="517pt" height="196pt"
 viewBox="0.00 0.00 517.00 196.00" xmlns="http://www.w3.org/2000/svg" xmlns:xlink="http://www.w3.org/1999/xlink">
<g id="graph0" class="graph" transform="scale(1 1) rotate(0) translate(4 192)">
<title>LatticeSolidPhase.h</title>
<polygon fill="white" stroke="none" points="-4,4 -4,-192 513,-192 513,4 -4,4"/>
<!-- Node1 -->
<g id="node1" class="node"><title>Node1</title>
<polygon fill="#bfbfbf" stroke="black" points="130,-168.5 130,-187.5 232,-187.5 232,-168.5 130,-168.5"/>
<text text-anchor="middle" x="181" y="-175.5" font-family="FreeSans" font-size="10.00">LatticeSolidPhase.h</text>
</g>
<!-- Node2 -->
<g id="node2" class="node"><title>Node2</title>
<g id="a_node2"><a xlink:href="LatticeSolidPhase_8cpp.html" target="_top" xlink:title="Definitions for a simple thermodynamics model of a bulk solid phase derived from ThermoPhase, assuming an ideal solution model based on a lattice of solid atoms (see Thermodynamic Properties and class LatticeSolidPhase). ">
<polygon fill="white" stroke="black" points="-0.5,-112.5 -0.5,-131.5 112.5,-131.5 112.5,-112.5 -0.5,-112.5"/>
<text text-anchor="middle" x="56" y="-119.5" font-family="FreeSans" font-size="10.00">LatticeSolidPhase.cpp</text>
</a>
</g>
</g>
<!-- Node1&#45;&gt;Node2 -->
<g id="edge1" class="edge"><title>Node1&#45;&gt;Node2</title>
<path fill="none" stroke="midnightblue" d="M151.759,-164.368C128.35,-154.255 96.1587,-140.349 75.714,-131.516"/>
<polygon fill="midnightblue" stroke="midnightblue" points="150.625,-167.691 161.193,-168.444 153.401,-161.265 150.625,-167.691"/>
</g>
<!-- Node3 -->
<g id="node3" class="node"><title>Node3</title>
<g id="a_node3"><a xlink:href="ThermoFactory_8cpp.html" target="_top" xlink:title="Definitions for the factory class that can create known ThermoPhase objects (see Thermodynamic Proper...">
<polygon fill="white" stroke="black" points="131,-112.5 131,-131.5 231,-131.5 231,-112.5 131,-112.5"/>
<text text-anchor="middle" x="181" y="-119.5" font-family="FreeSans" font-size="10.00">ThermoFactory.cpp</text>
</a>
</g>
</g>
<!-- Node1&#45;&gt;Node3 -->
<g id="edge2" class="edge"><title>Node1&#45;&gt;Node3</title>
<path fill="none" stroke="midnightblue" d="M181,-157.805C181,-148.91 181,-138.78 181,-131.751"/>
<polygon fill="midnightblue" stroke="midnightblue" points="177.5,-158.083 181,-168.083 184.5,-158.083 177.5,-158.083"/>
</g>
<!-- Node4 -->
<g id="node4" class="node"><title>Node4</title>
<g id="a_node4"><a xlink:href="thermo_8h.html" target="_top" xlink:title="Support for thermo property calculation from C++ application programs. ">
<polygon fill="white" stroke="black" points="249,-112.5 249,-131.5 303,-131.5 303,-112.5 249,-112.5"/>
<text text-anchor="middle" x="276" y="-119.5" font-family="FreeSans" font-size="10.00">thermo.h</text>
</a>
</g>
</g>
<!-- Node1&#45;&gt;Node4 -->
<g id="edge3" class="edge"><title>Node1&#45;&gt;Node4</title>
<path fill="none" stroke="midnightblue" d="M205.318,-163.177C222.799,-153.241 245.83,-140.149 260.774,-131.655"/>
<polygon fill="midnightblue" stroke="midnightblue" points="203.227,-160.339 196.263,-168.324 206.687,-166.425 203.227,-160.339"/>
</g>
<!-- Node5 -->
<g id="node5" class="node"><title>Node5</title>
<g id="a_node5"><a xlink:href="RxnMolChange_8cpp.html" target="_top" xlink:title="RxnMolChange.cpp">
<polygon fill="white" stroke="black" points="127,-0.5 127,-19.5 227,-19.5 227,-0.5 127,-0.5"/>
<text text-anchor="middle" x="177" y="-7.5" font-family="FreeSans" font-size="10.00">RxnMolChange.cpp</text>
</a>
</g>
</g>
<!-- Node4&#45;&gt;Node5 -->
<g id="edge4" class="edge"><title>Node4&#45;&gt;Node5</title>
<path fill="none" stroke="midnightblue" d="M261.507,-104.897C240.224,-81.2486 201.254,-37.9493 184.732,-19.5914"/>
<polygon fill="midnightblue" stroke="midnightblue" points="258.94,-107.277 268.232,-112.368 264.143,-102.594 258.94,-107.277"/>
</g>
<!-- Node6 -->
<g id="node6" class="node"><title>Node6</title>
<g id="a_node6"><a xlink:href="Edge_8h.html" target="_top" xlink:title="Edge.h">
<polygon fill="white" stroke="black" points="351,-56.5 351,-75.5 397,-75.5 397,-56.5 351,-56.5"/>
<text text-anchor="middle" x="374" y="-63.5" font-family="FreeSans" font-size="10.00">Edge.h</text>
</a>
</g>
</g>
<!-- Node4&#45;&gt;Node6 -->
<g id="edge5" class="edge"><title>Node4&#45;&gt;Node6</title>
<path fill="none" stroke="midnightblue" d="M300.586,-107.453C318.678,-97.4835 342.735,-84.2279 358.294,-75.6545"/>
<polygon fill="midnightblue" stroke="midnightblue" points="298.815,-104.432 291.745,-112.324 302.193,-110.563 298.815,-104.432"/>
</g>
<!-- Node7 -->
<g id="node7" class="node"><title>Node7</title>
<g id="a_node7"><a xlink:href="Interface_8h.html" target="_top" xlink:title="Declaration and Definition for the class Interface. ">
<polygon fill="white" stroke="black" points="245,-0.5 245,-19.5 307,-19.5 307,-0.5 245,-0.5"/>
<text text-anchor="middle" x="276" y="-7.5" font-family="FreeSans" font-size="10.00">Interface.h</text>
</a>
</g>
</g>
<!-- Node4&#45;&gt;Node7 -->
<g id="edge6" class="edge"><title>Node4&#45;&gt;Node7</title>
<path fill="none" stroke="midnightblue" d="M271.019,-102.18C268.174,-89.227 265.455,-71.6078 267,-56 268.272,-43.1559 271.538,-28.5473 273.765,-19.5508"/>
<polygon fill="midnightblue" stroke="midnightblue" points="267.689,-103.301 273.446,-112.195 274.492,-101.651 267.689,-103.301"/>
</g>
<!-- Node8 -->
<g id="node8" class="node"><title>Node8</title>
<g id="a_node8"><a xlink:href="kinetics_8h_source.html" target="_top" xlink:title="kinetics.h">
<polygon fill="white" stroke="black" points="275.5,-56.5 275.5,-75.5 332.5,-75.5 332.5,-56.5 275.5,-56.5"/>
<text text-anchor="middle" x="304" y="-63.5" font-family="FreeSans" font-size="10.00">kinetics.h</text>
</a>
</g>
</g>
<!-- Node4&#45;&gt;Node8 -->
<g id="edge7" class="edge"><title>Node4&#45;&gt;Node8</title>
<path fill="none" stroke="midnightblue" d="M285.342,-102.983C290.095,-93.8168 295.656,-83.0922 299.462,-75.7511"/>
<polygon fill="midnightblue" stroke="midnightblue" points="282.12,-101.594 280.624,-112.083 288.334,-104.817 282.12,-101.594"/>
</g>
<!-- Node8&#45;&gt;Node5 -->
<g id="edge9" class="edge"><title>Node8&#45;&gt;Node5</title>
<path fill="none" stroke="midnightblue" d="M274.609,-52.503C250.8,-42.3795 217.894,-28.388 197.029,-19.5164"/>
<polygon fill="midnightblue" stroke="midnightblue" points="273.304,-55.7515 283.876,-56.4435 276.043,-49.3096 273.304,-55.7515"/>
</g>
<!-- Node8&#45;&gt;Node7 -->
<g id="edge10" class="edge"><title>Node8&#45;&gt;Node7</title>
<path fill="none" stroke="midnightblue" d="M294.658,-46.9827C289.905,-37.8168 284.344,-27.0922 280.538,-19.7511"/>
<polygon fill="midnightblue" stroke="midnightblue" points="291.666,-48.8166 299.376,-56.083 297.88,-45.5943 291.666,-48.8166"/>
</g>
<!-- Node9 -->
<g id="node9" class="node"><title>Node9</title>
<g id="a_node9"><a xlink:href="ExtraGlobalRxn_8cpp_source.html" target="_top" xlink:title="ExtraGlobalRxn.cpp">
<polygon fill="white" stroke="black" points="325.5,-0.5 325.5,-19.5 426.5,-19.5 426.5,-0.5 325.5,-0.5"/>
<text text-anchor="middle" x="376" y="-7.5" font-family="FreeSans" font-size="10.00">ExtraGlobalRxn.cpp</text>
</a>
</g>
</g>
<!-- Node8&#45;&gt;Node9 -->
<g id="edge8" class="edge"><title>Node8&#45;&gt;Node9</title>
<path fill="none" stroke="midnightblue" d="M323.866,-50.1008C336.823,-40.3824 353.297,-28.0269 364.221,-19.8339"/>
<polygon fill="midnightblue" stroke="midnightblue" points="321.468,-47.5239 315.568,-56.324 325.668,-53.1239 321.468,-47.5239"/>
</g>
<!-- Node10 -->
<g id="node10" class="node"><title>Node10</title>
<g id="a_node10"><a xlink:href="PureFluid_8h.html" target="_top" xlink:title="PureFluid.h">
<polygon fill="white" stroke="black" points="444.5,-0.5 444.5,-19.5 509.5,-19.5 509.5,-0.5 444.5,-0.5"/>
<text text-anchor="middle" x="477" y="-7.5" font-family="FreeSans" font-size="10.00">PureFluid.h</text>
</a>
</g>
</g>
<!-- Node8&#45;&gt;Node10 -->
<g id="edge11" class="edge"><title>Node8&#45;&gt;Node10</title>
<path fill="none" stroke="midnightblue" d="M341.047,-53.4363C373.664,-43.2551 420.41,-28.664 449.716,-19.5164"/>
<polygon fill="midnightblue" stroke="midnightblue" points="339.915,-50.1228 331.412,-56.4435 342.001,-56.8049 339.915,-50.1228"/>
</g>
</g>
</svg>
