<?xml version="1.0" encoding="UTF-8" standalone="no"?>
<!DOCTYPE svg PUBLIC "-//W3C//DTD SVG 1.1//EN"
 "http://www.w3.org/Graphics/SVG/1.1/DTD/svg11.dtd">
<!-- Generated by graphviz version 2.36.0 (20140111.2315)
 -->
<!-- Title: MMCollisionInt.cpp Pages: 1 -->
<svg width="522pt" height="252pt"
 viewBox="0.00 0.00 522.00 252.00" xmlns="http://www.w3.org/2000/svg" xmlns:xlink="http://www.w3.org/1999/xlink">
<g id="graph0" class="graph" transform="scale(1 1) rotate(0) translate(4 248)">
<title>MMCollisionInt.cpp</title>
<polygon fill="white" stroke="none" points="-4,4 -4,-248 518,-248 518,4 -4,4"/>
<!-- Node1 -->
<g id="node1" class="node"><title>Node1</title>
<polygon fill="#bfbfbf" stroke="black" points="243,-224.5 243,-243.5 341,-243.5 341,-224.5 243,-224.5"/>
<text text-anchor="middle" x="292" y="-231.5" font-family="FreeSans" font-size="10.00">MMCollisionInt.cpp</text>
</g>
<!-- Node2 -->
<g id="node2" class="node"><title>Node2</title>
<g id="a_node2"><a xlink:href="MMCollisionInt_8h.html" target="_top" xlink:title="Monk and Monchick collision integrals. ">
<polygon fill="white" stroke="black" points="43,-168.5 43,-187.5 131,-187.5 131,-168.5 43,-168.5"/>
<text text-anchor="middle" x="87" y="-175.5" font-family="FreeSans" font-size="10.00">MMCollisionInt.h</text>
</a>
</g>
</g>
<!-- Node1&#45;&gt;Node2 -->
<g id="edge1" class="edge"><title>Node1&#45;&gt;Node2</title>
<path fill="none" stroke="midnightblue" d="M259.517,-224.444C224.28,-215.162 167.896,-200.309 129.241,-190.127"/>
<polygon fill="midnightblue" stroke="midnightblue" points="129.893,-186.679 119.331,-187.516 128.109,-193.448 129.893,-186.679"/>
</g>
<!-- Node11 -->
<g id="node11" class="node"><title>Node11</title>
<g id="a_node11"><a xlink:href="utilities_8h.html" target="_top" xlink:title="Various templated functions that carry out common vector operations (see Templated Utility Functions)...">
<polygon fill="white" stroke="black" points="166.5,-168.5 166.5,-187.5 279.5,-187.5 279.5,-168.5 166.5,-168.5"/>
<text text-anchor="middle" x="223" y="-175.5" font-family="FreeSans" font-size="10.00">cantera/base/utilities.h</text>
</a>
</g>
</g>
<!-- Node1&#45;&gt;Node11 -->
<g id="edge10" class="edge"><title>Node1&#45;&gt;Node11</title>
<path fill="none" stroke="midnightblue" d="M280.914,-224.324C270.514,-216.185 254.739,-203.839 242.278,-194.087"/>
<polygon fill="midnightblue" stroke="midnightblue" points="244.32,-191.241 234.288,-187.834 240.006,-196.753 244.32,-191.241"/>
</g>
<!-- Node15 -->
<g id="node15" class="node"><title>Node15</title>
<g id="a_node15"><a xlink:href="polyfit_8h.html" target="_top" xlink:title="C interface for Fortran DPOLFT subroutine. ">
<polygon fill="white" stroke="black" points="298,-168.5 298,-187.5 424,-187.5 424,-168.5 298,-168.5"/>
<text text-anchor="middle" x="361" y="-175.5" font-family="FreeSans" font-size="10.00">cantera/numerics/polyfit.h</text>
</a>
</g>
</g>
<!-- Node1&#45;&gt;Node15 -->
<g id="edge16" class="edge"><title>Node1&#45;&gt;Node15</title>
<path fill="none" stroke="midnightblue" d="M303.086,-224.324C313.486,-216.185 329.261,-203.839 341.722,-194.087"/>
<polygon fill="midnightblue" stroke="midnightblue" points="343.994,-196.753 349.712,-187.834 339.68,-191.241 343.994,-196.753"/>
</g>
<!-- Node16 -->
<g id="node16" class="node"><title>Node16</title>
<g id="a_node16"><a xlink:href="stringUtils_8h.html" target="_top" xlink:title="Contains declarations for string manipulation functions within Cantera. ">
<polygon fill="white" stroke="black" points="389.5,-112.5 389.5,-131.5 514.5,-131.5 514.5,-112.5 389.5,-112.5"/>
<text text-anchor="middle" x="452" y="-119.5" font-family="FreeSans" font-size="10.00">cantera/base/stringUtils.h</text>
</a>
</g>
</g>
<!-- Node1&#45;&gt;Node16 -->
<g id="edge18" class="edge"><title>Node1&#45;&gt;Node16</title>
<path fill="none" stroke="midnightblue" d="M341.163,-228.872C371.448,-223.818 408.953,-212.644 433,-188 444.921,-175.783 449.432,-156.516 451.103,-142.126"/>
<polygon fill="midnightblue" stroke="midnightblue" points="454.616,-142.105 451.922,-131.858 447.638,-141.548 454.616,-142.105"/>
</g>
<!-- Node3 -->
<g id="node3" class="node"><title>Node3</title>
<g id="a_node3"><a xlink:href="ct__defs_8h.html" target="_top" xlink:title="This file contains definitions of terms that are used in internal routines and are unlikely to need m...">
<polygon fill="white" stroke="black" points="126,-56.5 126,-75.5 240,-75.5 240,-56.5 126,-56.5"/>
<text text-anchor="middle" x="183" y="-63.5" font-family="FreeSans" font-size="10.00">cantera/base/ct_defs.h</text>
</a>
</g>
</g>
<!-- Node2&#45;&gt;Node3 -->
<g id="edge2" class="edge"><title>Node2&#45;&gt;Node3</title>
<path fill="none" stroke="midnightblue" d="M90.0824,-168.243C95.0559,-154.994 105.849,-129.54 121,-112 131.704,-99.6081 146.452,-88.7273 158.879,-80.7703"/>
<polygon fill="midnightblue" stroke="midnightblue" points="160.742,-83.7335 167.427,-75.5133 157.075,-77.771 160.742,-83.7335"/>
</g>
<!-- Node4 -->
<g id="node4" class="node"><title>Node4</title>
<g id="a_node4"><a xlink:href="config_8h_source.html" target="_top" xlink:title="config.h">
<polygon fill="white" stroke="black" points="0,-0.5 0,-19.5 50,-19.5 50,-0.5 0,-0.5"/>
<text text-anchor="middle" x="25" y="-7.5" font-family="FreeSans" font-size="10.00">config.h</text>
</a>
</g>
</g>
<!-- Node3&#45;&gt;Node4 -->
<g id="edge3" class="edge"><title>Node3&#45;&gt;Node4</title>
<path fill="none" stroke="midnightblue" d="M157.964,-56.4435C131.384,-47.3591 89.1912,-32.9388 59.4766,-22.7831"/>
<polygon fill="midnightblue" stroke="midnightblue" points="60.513,-19.4386 49.9184,-19.5164 58.2491,-26.0625 60.513,-19.4386"/>
</g>
<!-- Node5 -->
<g id="node5" class="node"><title>Node5</title>
<polygon fill="white" stroke="#bfbfbf" points="68,-0.5 68,-19.5 112,-19.5 112,-0.5 68,-0.5"/>
<text text-anchor="middle" x="90" y="-7.5" font-family="FreeSans" font-size="10.00">cmath</text>
</g>
<!-- Node3&#45;&gt;Node5 -->
<g id="edge4" class="edge"><title>Node3&#45;&gt;Node5</title>
<path fill="none" stroke="midnightblue" d="M168.058,-56.324C153.415,-47.8215 130.866,-34.7288 113.762,-24.7975"/>
<polygon fill="midnightblue" stroke="midnightblue" points="115.31,-21.6491 104.905,-19.6545 111.795,-27.7027 115.31,-21.6491"/>
</g>
<!-- Node6 -->
<g id="node6" class="node"><title>Node6</title>
<polygon fill="white" stroke="#bfbfbf" points="130,-0.5 130,-19.5 174,-19.5 174,-0.5 130,-0.5"/>
<text text-anchor="middle" x="152" y="-7.5" font-family="FreeSans" font-size="10.00">cstdlib</text>
</g>
<!-- Node3&#45;&gt;Node6 -->
<g id="edge5" class="edge"><title>Node3&#45;&gt;Node6</title>
<path fill="none" stroke="midnightblue" d="M177.881,-56.083C173.592,-48.6127 167.342,-37.7244 162.058,-28.5199"/>
<polygon fill="midnightblue" stroke="midnightblue" points="165.038,-26.6811 157.024,-19.7511 158.967,-30.1662 165.038,-26.6811"/>
</g>
<!-- Node7 -->
<g id="node7" class="node"><title>Node7</title>
<polygon fill="white" stroke="#bfbfbf" points="192.5,-0.5 192.5,-19.5 235.5,-19.5 235.5,-0.5 192.5,-0.5"/>
<text text-anchor="middle" x="214" y="-7.5" font-family="FreeSans" font-size="10.00">vector</text>
</g>
<!-- Node3&#45;&gt;Node7 -->
<g id="edge6" class="edge"><title>Node3&#45;&gt;Node7</title>
<path fill="none" stroke="midnightblue" d="M188.119,-56.083C192.408,-48.6127 198.658,-37.7244 203.942,-28.5199"/>
<polygon fill="midnightblue" stroke="midnightblue" points="207.033,-30.1662 208.976,-19.7511 200.962,-26.6811 207.033,-30.1662"/>
</g>
<!-- Node8 -->
<g id="node8" class="node"><title>Node8</title>
<polygon fill="white" stroke="#bfbfbf" points="253.5,-0.5 253.5,-19.5 288.5,-19.5 288.5,-0.5 253.5,-0.5"/>
<text text-anchor="middle" x="271" y="-7.5" font-family="FreeSans" font-size="10.00">map</text>
</g>
<!-- Node3&#45;&gt;Node8 -->
<g id="edge7" class="edge"><title>Node3&#45;&gt;Node8</title>
<path fill="none" stroke="midnightblue" d="M197.139,-56.324C210.866,-47.9002 231.936,-34.9709 248.064,-25.0741"/>
<polygon fill="midnightblue" stroke="midnightblue" points="250.204,-27.8678 256.896,-19.6545 246.543,-21.9016 250.204,-27.8678"/>
</g>
<!-- Node9 -->
<g id="node9" class="node"><title>Node9</title>
<polygon fill="white" stroke="#bfbfbf" points="391,-0.5 391,-19.5 431,-19.5 431,-0.5 391,-0.5"/>
<text text-anchor="middle" x="411" y="-7.5" font-family="FreeSans" font-size="10.00">string</text>
</g>
<!-- Node3&#45;&gt;Node9 -->
<g id="edge8" class="edge"><title>Node3&#45;&gt;Node9</title>
<path fill="none" stroke="midnightblue" d="M219.127,-56.4435C263.925,-45.8336 339.454,-27.9451 381.136,-18.0732"/>
<polygon fill="midnightblue" stroke="midnightblue" points="382.04,-21.4559 390.964,-15.7454 380.427,-14.6443 382.04,-21.4559"/>
</g>
<!-- Node10 -->
<g id="node10" class="node"><title>Node10</title>
<polygon fill="white" stroke="#bfbfbf" points="307,-0.5 307,-19.5 363,-19.5 363,-0.5 307,-0.5"/>
<text text-anchor="middle" x="335" y="-7.5" font-family="FreeSans" font-size="10.00">algorithm</text>
</g>
<!-- Node3&#45;&gt;Node10 -->
<g id="edge9" class="edge"><title>Node3&#45;&gt;Node10</title>
<path fill="none" stroke="midnightblue" d="M207.085,-56.4435C232.545,-47.3986 272.894,-33.064 301.459,-22.9158"/>
<polygon fill="midnightblue" stroke="midnightblue" points="302.777,-26.1622 311.028,-19.5164 300.433,-19.5661 302.777,-26.1622"/>
</g>
<!-- Node11&#45;&gt;Node3 -->
<g id="edge11" class="edge"><title>Node11&#45;&gt;Node3</title>
<path fill="none" stroke="midnightblue" d="M181.949,-168.383C162.04,-161.916 139.906,-150.814 128,-132 115.935,-112.935 137.806,-93.499 157.436,-80.9108"/>
<polygon fill="midnightblue" stroke="midnightblue" points="159.419,-83.8021 166.168,-75.6348 155.799,-77.8108 159.419,-83.8021"/>
</g>
<!-- Node12 -->
<g id="node12" class="node"><title>Node12</title>
<g id="a_node12"><a xlink:href="global_8h.html" target="_top" xlink:title="This file contains definitions for utility functions and text for modules, inputfiles, logs, textlogs, (see Input File Handling, Diagnostic Output, and Writing messages to the screen). ">
<polygon fill="white" stroke="black" points="137,-112.5 137,-131.5 187,-131.5 187,-112.5 137,-112.5"/>
<text text-anchor="middle" x="162" y="-119.5" font-family="FreeSans" font-size="10.00">global.h</text>
</a>
</g>
</g>
<!-- Node11&#45;&gt;Node12 -->
<g id="edge12" class="edge"><title>Node11&#45;&gt;Node12</title>
<path fill="none" stroke="midnightblue" d="M213.199,-168.324C204.182,-160.341 190.594,-148.313 179.682,-138.653"/>
<polygon fill="midnightblue" stroke="midnightblue" points="181.787,-135.842 171.979,-131.834 177.147,-141.083 181.787,-135.842"/>
</g>
<!-- Node13 -->
<g id="node13" class="node"><title>Node13</title>
<polygon fill="white" stroke="#bfbfbf" points="205,-112.5 205,-131.5 263,-131.5 263,-112.5 205,-112.5"/>
<text text-anchor="middle" x="234" y="-119.5" font-family="FreeSans" font-size="10.00">stdexcept</text>
</g>
<!-- Node11&#45;&gt;Node13 -->
<g id="edge14" class="edge"><title>Node11&#45;&gt;Node13</title>
<path fill="none" stroke="midnightblue" d="M224.816,-168.083C226.274,-160.927 228.371,-150.635 230.193,-141.691"/>
<polygon fill="midnightblue" stroke="midnightblue" points="233.651,-142.248 232.217,-131.751 226.792,-140.851 233.651,-142.248"/>
</g>
<!-- Node14 -->
<g id="node14" class="node"><title>Node14</title>
<polygon fill="white" stroke="#bfbfbf" points="281.5,-112.5 281.5,-131.5 332.5,-131.5 332.5,-112.5 281.5,-112.5"/>
<text text-anchor="middle" x="307" y="-119.5" font-family="FreeSans" font-size="10.00">numeric</text>
</g>
<!-- Node11&#45;&gt;Node14 -->
<g id="edge15" class="edge"><title>Node11&#45;&gt;Node14</title>
<path fill="none" stroke="midnightblue" d="M236.496,-168.324C249.6,-159.9 269.712,-146.971 285.107,-137.074"/>
<polygon fill="midnightblue" stroke="midnightblue" points="287.018,-140.006 293.537,-131.655 283.233,-134.118 287.018,-140.006"/>
</g>
<!-- Node12&#45;&gt;Node3 -->
<g id="edge13" class="edge"><title>Node12&#45;&gt;Node3</title>
<path fill="none" stroke="midnightblue" d="M165.468,-112.083C168.312,-104.77 172.429,-94.1814 175.96,-85.1034"/>
<polygon fill="midnightblue" stroke="midnightblue" points="179.234,-86.3397 179.597,-75.7511 172.71,-83.8025 179.234,-86.3397"/>
</g>
<!-- Node15&#45;&gt;Node3 -->
<g id="edge17" class="edge"><title>Node15&#45;&gt;Node3</title>
<path fill="none" stroke="midnightblue" d="M360.827,-168.074C360.063,-154.129 356.522,-127.199 341,-112 316.911,-88.4124 281.381,-77.0134 250.111,-71.5759"/>
<polygon fill="midnightblue" stroke="midnightblue" points="250.55,-68.102 240.129,-70.0121 249.466,-75.0177 250.55,-68.102"/>
</g>
<!-- Node16&#45;&gt;Node3 -->
<g id="edge19" class="edge"><title>Node16&#45;&gt;Node3</title>
<path fill="none" stroke="midnightblue" d="M409.376,-112.444C362.253,-102.984 286.308,-87.7384 235.541,-77.5472"/>
<polygon fill="midnightblue" stroke="midnightblue" points="235.918,-74.0531 225.424,-75.5164 234.54,-80.9162 235.918,-74.0531"/>
</g>
<!-- Node16&#45;&gt;Node9 -->
<g id="edge20" class="edge"><title>Node16&#45;&gt;Node9</title>
<path fill="none" stroke="midnightblue" d="M448.783,-112.368C442.136,-94.5366 426.765,-53.2953 417.81,-29.2717"/>
<polygon fill="midnightblue" stroke="midnightblue" points="420.974,-27.7393 414.202,-19.5914 414.415,-30.1841 420.974,-27.7393"/>
</g>
</g>
</svg>
