<?xml version="1.0" encoding="UTF-8" standalone="no"?>
<!DOCTYPE svg PUBLIC "-//W3C//DTD SVG 1.1//EN"
 "http://www.w3.org/Graphics/SVG/1.1/DTD/svg11.dtd">
<!-- Generated by graphviz version 2.36.0 (20140111.2315)
 -->
<!-- Title: MolalityVPSSTP.h Pages: 1 -->
<svg width="930pt" height="308pt"
 viewBox="0.00 0.00 930.00 308.00" xmlns="http://www.w3.org/2000/svg" xmlns:xlink="http://www.w3.org/1999/xlink">
<g id="graph0" class="graph" transform="scale(1 1) rotate(0) translate(4 304)">
<title>MolalityVPSSTP.h</title>
<polygon fill="white" stroke="none" points="-4,4 -4,-304 926,-304 926,4 -4,4"/>
<!-- Node1 -->
<g id="node1" class="node"><title>Node1</title>
<polygon fill="#bfbfbf" stroke="black" points="334,-280.5 334,-299.5 430,-299.5 430,-280.5 334,-280.5"/>
<text text-anchor="middle" x="382" y="-287.5" font-family="FreeSans" font-size="10.00">MolalityVPSSTP.h</text>
</g>
<!-- Node2 -->
<g id="node2" class="node"><title>Node2</title>
<g id="a_node2"><a xlink:href="MultiPhaseEquil_8cpp.html" target="_top" xlink:title="MultiPhaseEquil.cpp">
<polygon fill="white" stroke="black" points="0,-224.5 0,-243.5 104,-243.5 104,-224.5 0,-224.5"/>
<text text-anchor="middle" x="52" y="-231.5" font-family="FreeSans" font-size="10.00">MultiPhaseEquil.cpp</text>
</a>
</g>
</g>
<!-- Node1&#45;&gt;Node2 -->
<g id="edge1" class="edge"><title>Node1&#45;&gt;Node2</title>
<path fill="none" stroke="midnightblue" d="M323.607,-279.445C261.355,-269.258 163.701,-253.278 104.009,-243.511"/>
<polygon fill="midnightblue" stroke="midnightblue" points="323.228,-282.929 333.662,-281.09 324.358,-276.021 323.228,-282.929"/>
</g>
<!-- Node3 -->
<g id="node3" class="node"><title>Node3</title>
<g id="a_node3"><a xlink:href="vcs__prob_8cpp.html" target="_top" xlink:title="Implementation for the Interface class for the vcs thermo equilibrium solver package,. ">
<polygon fill="white" stroke="black" points="122.5,-224.5 122.5,-243.5 195.5,-243.5 195.5,-224.5 122.5,-224.5"/>
<text text-anchor="middle" x="159" y="-231.5" font-family="FreeSans" font-size="10.00">vcs_prob.cpp</text>
</a>
</g>
</g>
<!-- Node1&#45;&gt;Node3 -->
<g id="edge2" class="edge"><title>Node1&#45;&gt;Node3</title>
<path fill="none" stroke="midnightblue" d="M336.939,-278.088C294.809,-267.887 232.76,-252.861 194.17,-243.516"/>
<polygon fill="midnightblue" stroke="midnightblue" points="336.122,-281.492 346.665,-280.444 337.77,-274.688 336.122,-281.492"/>
</g>
<!-- Node4 -->
<g id="node4" class="node"><title>Node4</title>
<g id="a_node4"><a xlink:href="MolalityVPSSTP_8cpp.html" target="_top" xlink:title="Definitions for intermediate ThermoPhase object for phases which employ molality based activity coeff...">
<polygon fill="white" stroke="black" points="213.5,-224.5 213.5,-243.5 320.5,-243.5 320.5,-224.5 213.5,-224.5"/>
<text text-anchor="middle" x="267" y="-231.5" font-family="FreeSans" font-size="10.00">MolalityVPSSTP.cpp</text>
</a>
</g>
</g>
<!-- Node1&#45;&gt;Node4 -->
<g id="edge3" class="edge"><title>Node1&#45;&gt;Node4</title>
<path fill="none" stroke="midnightblue" d="M354.519,-276.096C333.034,-266.007 303.778,-252.27 285.137,-243.516"/>
<polygon fill="midnightblue" stroke="midnightblue" points="353.238,-279.361 363.778,-280.444 356.214,-273.025 353.238,-279.361"/>
</g>
<!-- Node5 -->
<g id="node5" class="node"><title>Node5</title>
<g id="a_node5"><a xlink:href="electrolyteThermo_8h.html" target="_top" xlink:title="Support for thermo property calculation from C++ application programs. ">
<polygon fill="white" stroke="black" points="374.5,-168.5 374.5,-187.5 475.5,-187.5 475.5,-168.5 374.5,-168.5"/>
<text text-anchor="middle" x="425" y="-175.5" font-family="FreeSans" font-size="10.00">electrolyteThermo.h</text>
</a>
</g>
</g>
<!-- Node1&#45;&gt;Node5 -->
<g id="edge4" class="edge"><title>Node1&#45;&gt;Node5</title>
<path fill="none" stroke="midnightblue" d="M406.369,-274.726C416.948,-267.089 428.223,-256.64 434,-244 442.525,-225.35 434.612,-200.791 429.163,-187.854"/>
<polygon fill="midnightblue" stroke="midnightblue" points="404.151,-271.999 397.783,-280.467 408.042,-277.818 404.151,-271.999"/>
</g>
<!-- Node13 -->
<g id="node13" class="node"><title>Node13</title>
<g id="a_node13"><a xlink:href="IdealMolalSoln_8h.html" target="_top" xlink:title="ThermoPhase object for the ideal molal equation of state (see Thermodynamic Properties and class Idea...">
<polygon fill="white" stroke="black" points="338,-224.5 338,-243.5 426,-243.5 426,-224.5 338,-224.5"/>
<text text-anchor="middle" x="382" y="-231.5" font-family="FreeSans" font-size="10.00">IdealMolalSoln.h</text>
</a>
</g>
</g>
<!-- Node1&#45;&gt;Node13 -->
<g id="edge14" class="edge"><title>Node1&#45;&gt;Node13</title>
<path fill="none" stroke="midnightblue" d="M382,-269.805C382,-260.91 382,-250.78 382,-243.751"/>
<polygon fill="midnightblue" stroke="midnightblue" points="378.5,-270.083 382,-280.083 385.5,-270.083 378.5,-270.083"/>
</g>
<!-- Node17 -->
<g id="node17" class="node"><title>Node17</title>
<g id="a_node17"><a xlink:href="HMWSoln_8h.html" target="_top" xlink:title="Headers for the HMWSoln ThermoPhase object, which models concentrated electrolyte solutions (see Ther...">
<polygon fill="white" stroke="black" points="482,-224.5 482,-243.5 550,-243.5 550,-224.5 482,-224.5"/>
<text text-anchor="middle" x="516" y="-231.5" font-family="FreeSans" font-size="10.00">HMWSoln.h</text>
</a>
</g>
</g>
<!-- Node1&#45;&gt;Node17 -->
<g id="edge19" class="edge"><title>Node1&#45;&gt;Node17</title>
<path fill="none" stroke="midnightblue" d="M412.677,-276.638C437.823,-266.504 472.754,-252.427 494.867,-243.516"/>
<polygon fill="midnightblue" stroke="midnightblue" points="411.2,-273.459 403.233,-280.444 413.816,-279.952 411.2,-273.459"/>
</g>
<!-- Node20 -->
<g id="node20" class="node"><title>Node20</title>
<g id="a_node20"><a xlink:href="DebyeHuckel_8h.html" target="_top" xlink:title="Headers for the DebyeHuckel ThermoPhase object, which models dilute electrolyte solutions (see Thermo...">
<polygon fill="white" stroke="black" points="568.5,-224.5 568.5,-243.5 649.5,-243.5 649.5,-224.5 568.5,-224.5"/>
<text text-anchor="middle" x="609" y="-231.5" font-family="FreeSans" font-size="10.00">DebyeHuckel.h</text>
</a>
</g>
</g>
<!-- Node1&#45;&gt;Node20 -->
<g id="edge24" class="edge"><title>Node1&#45;&gt;Node20</title>
<path fill="none" stroke="midnightblue" d="M427.869,-278.088C470.755,-267.887 533.917,-252.861 573.199,-243.516"/>
<polygon fill="midnightblue" stroke="midnightblue" points="426.887,-274.724 417.969,-280.444 428.507,-281.534 426.887,-274.724"/>
</g>
<!-- Node6 -->
<g id="node6" class="node"><title>Node6</title>
<g id="a_node6"><a xlink:href="thermo_8h.html" target="_top" xlink:title="Support for thermo property calculation from C++ application programs. ">
<polygon fill="white" stroke="black" points="398,-112.5 398,-131.5 452,-131.5 452,-112.5 398,-112.5"/>
<text text-anchor="middle" x="425" y="-119.5" font-family="FreeSans" font-size="10.00">thermo.h</text>
</a>
</g>
</g>
<!-- Node5&#45;&gt;Node6 -->
<g id="edge5" class="edge"><title>Node5&#45;&gt;Node6</title>
<path fill="none" stroke="midnightblue" d="M425,-157.805C425,-148.91 425,-138.78 425,-131.751"/>
<polygon fill="midnightblue" stroke="midnightblue" points="421.5,-158.083 425,-168.083 428.5,-158.083 421.5,-158.083"/>
</g>
<!-- Node7 -->
<g id="node7" class="node"><title>Node7</title>
<g id="a_node7"><a xlink:href="RxnMolChange_8cpp.html" target="_top" xlink:title="RxnMolChange.cpp">
<polygon fill="white" stroke="black" points="277,-0.5 277,-19.5 377,-19.5 377,-0.5 277,-0.5"/>
<text text-anchor="middle" x="327" y="-7.5" font-family="FreeSans" font-size="10.00">RxnMolChange.cpp</text>
</a>
</g>
</g>
<!-- Node6&#45;&gt;Node7 -->
<g id="edge6" class="edge"><title>Node6&#45;&gt;Node7</title>
<path fill="none" stroke="midnightblue" d="M410.653,-104.897C389.585,-81.2486 351.009,-37.9493 334.654,-19.5914"/>
<polygon fill="midnightblue" stroke="midnightblue" points="408.045,-107.23 417.31,-112.368 413.271,-102.574 408.045,-107.23"/>
</g>
<!-- Node8 -->
<g id="node8" class="node"><title>Node8</title>
<g id="a_node8"><a xlink:href="Edge_8h.html" target="_top" xlink:title="Edge.h">
<polygon fill="white" stroke="black" points="501,-56.5 501,-75.5 547,-75.5 547,-56.5 501,-56.5"/>
<text text-anchor="middle" x="524" y="-63.5" font-family="FreeSans" font-size="10.00">Edge.h</text>
</a>
</g>
</g>
<!-- Node6&#45;&gt;Node8 -->
<g id="edge7" class="edge"><title>Node6&#45;&gt;Node8</title>
<path fill="none" stroke="midnightblue" d="M449.837,-107.453C468.114,-97.4835 492.416,-84.2279 508.133,-75.6545"/>
<polygon fill="midnightblue" stroke="midnightblue" points="448.009,-104.463 440.906,-112.324 451.361,-110.608 448.009,-104.463"/>
</g>
<!-- Node9 -->
<g id="node9" class="node"><title>Node9</title>
<g id="a_node9"><a xlink:href="Interface_8h.html" target="_top" xlink:title="Declaration and Definition for the class Interface. ">
<polygon fill="white" stroke="black" points="395,-0.5 395,-19.5 457,-19.5 457,-0.5 395,-0.5"/>
<text text-anchor="middle" x="426" y="-7.5" font-family="FreeSans" font-size="10.00">Interface.h</text>
</a>
</g>
</g>
<!-- Node6&#45;&gt;Node9 -->
<g id="edge8" class="edge"><title>Node6&#45;&gt;Node9</title>
<path fill="none" stroke="midnightblue" d="M420.464,-102.16C417.888,-89.1984 415.458,-71.5769 417,-56 418.272,-43.1559 421.538,-28.5473 423.765,-19.5508"/>
<polygon fill="midnightblue" stroke="midnightblue" points="417.102,-103.169 422.669,-112.183 423.939,-101.665 417.102,-103.169"/>
</g>
<!-- Node10 -->
<g id="node10" class="node"><title>Node10</title>
<g id="a_node10"><a xlink:href="kinetics_8h_source.html" target="_top" xlink:title="kinetics.h">
<polygon fill="white" stroke="black" points="425.5,-56.5 425.5,-75.5 482.5,-75.5 482.5,-56.5 425.5,-56.5"/>
<text text-anchor="middle" x="454" y="-63.5" font-family="FreeSans" font-size="10.00">kinetics.h</text>
</a>
</g>
</g>
<!-- Node6&#45;&gt;Node10 -->
<g id="edge9" class="edge"><title>Node6&#45;&gt;Node10</title>
<path fill="none" stroke="midnightblue" d="M434.676,-102.983C439.598,-93.8168 445.358,-83.0922 449.3,-75.7511"/>
<polygon fill="midnightblue" stroke="midnightblue" points="431.437,-101.617 429.789,-112.083 437.604,-104.929 431.437,-101.617"/>
</g>
<!-- Node10&#45;&gt;Node7 -->
<g id="edge11" class="edge"><title>Node10&#45;&gt;Node7</title>
<path fill="none" stroke="midnightblue" d="M424.609,-52.503C400.8,-42.3795 367.894,-28.388 347.029,-19.5164"/>
<polygon fill="midnightblue" stroke="midnightblue" points="423.304,-55.7515 433.876,-56.4435 426.043,-49.3096 423.304,-55.7515"/>
</g>
<!-- Node10&#45;&gt;Node9 -->
<g id="edge12" class="edge"><title>Node10&#45;&gt;Node9</title>
<path fill="none" stroke="midnightblue" d="M444.658,-46.9827C439.905,-37.8168 434.344,-27.0922 430.538,-19.7511"/>
<polygon fill="midnightblue" stroke="midnightblue" points="441.666,-48.8166 449.376,-56.083 447.88,-45.5943 441.666,-48.8166"/>
</g>
<!-- Node11 -->
<g id="node11" class="node"><title>Node11</title>
<g id="a_node11"><a xlink:href="ExtraGlobalRxn_8cpp_source.html" target="_top" xlink:title="ExtraGlobalRxn.cpp">
<polygon fill="white" stroke="black" points="475.5,-0.5 475.5,-19.5 576.5,-19.5 576.5,-0.5 475.5,-0.5"/>
<text text-anchor="middle" x="526" y="-7.5" font-family="FreeSans" font-size="10.00">ExtraGlobalRxn.cpp</text>
</a>
</g>
</g>
<!-- Node10&#45;&gt;Node11 -->
<g id="edge10" class="edge"><title>Node10&#45;&gt;Node11</title>
<path fill="none" stroke="midnightblue" d="M473.866,-50.1008C486.823,-40.3824 503.297,-28.0269 514.221,-19.8339"/>
<polygon fill="midnightblue" stroke="midnightblue" points="471.468,-47.5239 465.568,-56.324 475.668,-53.1239 471.468,-47.5239"/>
</g>
<!-- Node12 -->
<g id="node12" class="node"><title>Node12</title>
<g id="a_node12"><a xlink:href="PureFluid_8h.html" target="_top" xlink:title="PureFluid.h">
<polygon fill="white" stroke="black" points="594.5,-0.5 594.5,-19.5 659.5,-19.5 659.5,-0.5 594.5,-0.5"/>
<text text-anchor="middle" x="627" y="-7.5" font-family="FreeSans" font-size="10.00">PureFluid.h</text>
</a>
</g>
</g>
<!-- Node10&#45;&gt;Node12 -->
<g id="edge13" class="edge"><title>Node10&#45;&gt;Node12</title>
<path fill="none" stroke="midnightblue" d="M491.047,-53.4363C523.664,-43.2551 570.41,-28.664 599.716,-19.5164"/>
<polygon fill="midnightblue" stroke="midnightblue" points="489.915,-50.1228 481.412,-56.4435 492.001,-56.8049 489.915,-50.1228"/>
</g>
<!-- Node13&#45;&gt;Node5 -->
<g id="edge18" class="edge"><title>Node13&#45;&gt;Node5</title>
<path fill="none" stroke="midnightblue" d="M395.422,-216.144C402.914,-206.736 411.937,-195.405 418.032,-187.751"/>
<polygon fill="midnightblue" stroke="midnightblue" points="392.592,-214.08 389.101,-224.083 398.068,-218.44 392.592,-214.08"/>
</g>
<!-- Node14 -->
<g id="node14" class="node"><title>Node14</title>
<g id="a_node14"><a xlink:href="vcs__MultiPhaseEquil_8cpp.html" target="_top" xlink:title="Driver routine for the VCSnonideal equilibrium solver package. ">
<polygon fill="white" stroke="black" points="233.5,-168.5 233.5,-187.5 356.5,-187.5 356.5,-168.5 233.5,-168.5"/>
<text text-anchor="middle" x="295" y="-175.5" font-family="FreeSans" font-size="10.00">vcs_MultiPhaseEquil.cpp</text>
</a>
</g>
</g>
<!-- Node13&#45;&gt;Node14 -->
<g id="edge15" class="edge"><title>Node13&#45;&gt;Node14</title>
<path fill="none" stroke="midnightblue" d="M359.284,-218.901C343.331,-208.999 322.503,-196.071 308.943,-187.655"/>
<polygon fill="midnightblue" stroke="midnightblue" points="357.68,-222.024 368.022,-224.324 361.371,-216.077 357.68,-222.024"/>
</g>
<!-- Node15 -->
<g id="node15" class="node"><title>Node15</title>
<g id="a_node15"><a xlink:href="IdealMolalSoln_8cpp.html" target="_top" xlink:title="ThermoPhase object for the ideal molal equation of state (see Thermodynamic Properties and class Idea...">
<polygon fill="white" stroke="black" points="117,-168.5 117,-187.5 215,-187.5 215,-168.5 117,-168.5"/>
<text text-anchor="middle" x="166" y="-175.5" font-family="FreeSans" font-size="10.00">IdealMolalSoln.cpp</text>
</a>
</g>
</g>
<!-- Node13&#45;&gt;Node15 -->
<g id="edge16" class="edge"><title>Node13&#45;&gt;Node15</title>
<path fill="none" stroke="midnightblue" d="M337.836,-221.959C297.039,-211.76 237.287,-196.822 200.066,-187.516"/>
<polygon fill="midnightblue" stroke="midnightblue" points="337.224,-225.414 347.774,-224.444 338.922,-218.623 337.224,-225.414"/>
</g>
<!-- Node16 -->
<g id="node16" class="node"><title>Node16</title>
<g id="a_node16"><a xlink:href="ThermoFactory_8cpp.html" target="_top" xlink:title="Definitions for the factory class that can create known ThermoPhase objects (see Thermodynamic Proper...">
<polygon fill="white" stroke="black" points="494,-168.5 494,-187.5 594,-187.5 594,-168.5 494,-168.5"/>
<text text-anchor="middle" x="544" y="-175.5" font-family="FreeSans" font-size="10.00">ThermoFactory.cpp</text>
</a>
</g>
</g>
<!-- Node13&#45;&gt;Node16 -->
<g id="edge17" class="edge"><title>Node13&#45;&gt;Node16</title>
<path fill="none" stroke="midnightblue" d="M417.484,-221.172C447.988,-211.004 491.245,-196.585 518.451,-187.516"/>
<polygon fill="midnightblue" stroke="midnightblue" points="416.049,-217.961 407.669,-224.444 418.263,-224.602 416.049,-217.961"/>
</g>
<!-- Node17&#45;&gt;Node5 -->
<g id="edge23" class="edge"><title>Node17&#45;&gt;Node5</title>
<path fill="none" stroke="midnightblue" d="M492.706,-219.177C475.961,-209.241 453.9,-196.149 439.584,-187.655"/>
<polygon fill="midnightblue" stroke="midnightblue" points="490.993,-222.231 501.379,-224.324 494.566,-216.211 490.993,-222.231"/>
</g>
<!-- Node17&#45;&gt;Node16 -->
<g id="edge22" class="edge"><title>Node17&#45;&gt;Node16</title>
<path fill="none" stroke="midnightblue" d="M525.342,-214.983C530.095,-205.817 535.656,-195.092 539.462,-187.751"/>
<polygon fill="midnightblue" stroke="midnightblue" points="522.12,-213.594 520.624,-224.083 528.334,-216.817 522.12,-213.594"/>
</g>
<!-- Node18 -->
<g id="node18" class="node"><title>Node18</title>
<g id="a_node18"><a xlink:href="HMWSoln_8cpp.html" target="_top" xlink:title="Definitions for the HMWSoln ThermoPhase object, which models concentrated electrolyte solutions (see ...">
<polygon fill="white" stroke="black" points="612,-168.5 612,-187.5 690,-187.5 690,-168.5 612,-168.5"/>
<text text-anchor="middle" x="651" y="-175.5" font-family="FreeSans" font-size="10.00">HMWSoln.cpp</text>
</a>
</g>
</g>
<!-- Node17&#45;&gt;Node18 -->
<g id="edge20" class="edge"><title>Node17&#45;&gt;Node18</title>
<path fill="none" stroke="midnightblue" d="M546.906,-220.638C572.24,-210.504 607.431,-196.427 629.709,-187.516"/>
<polygon fill="midnightblue" stroke="midnightblue" points="545.376,-217.48 537.391,-224.444 547.976,-223.979 545.376,-217.48"/>
</g>
<!-- Node19 -->
<g id="node19" class="node"><title>Node19</title>
<g id="a_node19"><a xlink:href="HMWSoln__input_8cpp.html" target="_top" xlink:title="Definitions for the HMWSoln ThermoPhase object, which models concentrated electrolyte solutions (see ...">
<polygon fill="white" stroke="black" points="708,-168.5 708,-187.5 812,-187.5 812,-168.5 708,-168.5"/>
<text text-anchor="middle" x="760" y="-175.5" font-family="FreeSans" font-size="10.00">HMWSoln_input.cpp</text>
</a>
</g>
</g>
<!-- Node17&#45;&gt;Node19 -->
<g id="edge21" class="edge"><title>Node17&#45;&gt;Node19</title>
<path fill="none" stroke="midnightblue" d="M560.153,-223.228C606.106,-213.059 677.363,-197.288 721.216,-187.583"/>
<polygon fill="midnightblue" stroke="midnightblue" points="559.192,-219.856 550.184,-225.435 560.704,-226.691 559.192,-219.856"/>
</g>
<!-- Node20&#45;&gt;Node5 -->
<g id="edge27" class="edge"><title>Node20&#45;&gt;Node5</title>
<path fill="none" stroke="midnightblue" d="M570.046,-221.568C535.335,-211.381 485.323,-196.703 454.019,-187.516"/>
<polygon fill="midnightblue" stroke="midnightblue" points="569.264,-224.986 579.845,-224.444 571.235,-218.269 569.264,-224.986"/>
</g>
<!-- Node20&#45;&gt;Node16 -->
<g id="edge26" class="edge"><title>Node20&#45;&gt;Node16</title>
<path fill="none" stroke="midnightblue" d="M590.727,-217.82C579.082,-208.145 564.401,-195.948 554.633,-187.834"/>
<polygon fill="midnightblue" stroke="midnightblue" points="588.628,-220.626 598.557,-224.324 593.101,-215.242 588.628,-220.626"/>
</g>
<!-- Node21 -->
<g id="node21" class="node"><title>Node21</title>
<g id="a_node21"><a xlink:href="DebyeHuckel_8cpp.html" target="_top" xlink:title="Declarations for the DebyeHuckel ThermoPhase object, which models dilute electrolyte solutions (see T...">
<polygon fill="white" stroke="black" points="830,-168.5 830,-187.5 922,-187.5 922,-168.5 830,-168.5"/>
<text text-anchor="middle" x="876" y="-175.5" font-family="FreeSans" font-size="10.00">DebyeHuckel.cpp</text>
</a>
</g>
</g>
<!-- Node20&#45;&gt;Node21 -->
<g id="edge25" class="edge"><title>Node20&#45;&gt;Node21</title>
<path fill="none" stroke="midnightblue" d="M659.578,-222.771C709.978,-212.577 786.484,-197.104 833.741,-187.547"/>
<polygon fill="midnightblue" stroke="midnightblue" points="658.659,-219.386 649.552,-224.799 660.047,-226.247 658.659,-219.386"/>
</g>
</g>
</svg>
