<?xml version="1.0" encoding="UTF-8" standalone="no"?>
<!DOCTYPE svg PUBLIC "-//W3C//DTD SVG 1.1//EN"
 "http://www.w3.org/Graphics/SVG/1.1/DTD/svg11.dtd">
<!-- Generated by graphviz version 2.36.0 (20140111.2315)
 -->
<!-- Title: MolalityVPSSTP.cpp Pages: 1 -->
<svg width="778pt" height="364pt"
 viewBox="0.00 0.00 778.00 364.00" xmlns="http://www.w3.org/2000/svg" xmlns:xlink="http://www.w3.org/1999/xlink">
<g id="graph0" class="graph" transform="scale(1 1) rotate(0) translate(4 360)">
<title>MolalityVPSSTP.cpp</title>
<polygon fill="white" stroke="none" points="-4,4 -4,-360 774,-360 774,4 -4,4"/>
<!-- Node1 -->
<g id="node1" class="node"><title>Node1</title>
<polygon fill="#bfbfbf" stroke="black" points="464.5,-336.5 464.5,-355.5 571.5,-355.5 571.5,-336.5 464.5,-336.5"/>
<text text-anchor="middle" x="518" y="-343.5" font-family="FreeSans" font-size="10.00">MolalityVPSSTP.cpp</text>
</g>
<!-- Node2 -->
<g id="node2" class="node"><title>Node2</title>
<g id="a_node2"><a xlink:href="MolalityVPSSTP_8h.html" target="_top" xlink:title="Header for intermediate ThermoPhase object for phases which employ molality based activity coefficien...">
<polygon fill="white" stroke="black" points="197,-280.5 197,-299.5 361,-299.5 361,-280.5 197,-280.5"/>
<text text-anchor="middle" x="279" y="-287.5" font-family="FreeSans" font-size="10.00">cantera/thermo/MolalityVPSSTP.h</text>
</a>
</g>
</g>
<!-- Node1&#45;&gt;Node2 -->
<g id="edge1" class="edge"><title>Node1&#45;&gt;Node2</title>
<path fill="none" stroke="midnightblue" d="M480.13,-336.444C438.524,-327.043 371.631,-311.929 326.531,-301.739"/>
<polygon fill="midnightblue" stroke="midnightblue" points="327.219,-298.306 316.693,-299.516 325.676,-305.134 327.219,-298.306"/>
</g>
<!-- Node13 -->
<g id="node13" class="node"><title>Node13</title>
<g id="a_node13"><a xlink:href="stringUtils_8h.html" target="_top" xlink:title="Contains declarations for string manipulation functions within Cantera. ">
<polygon fill="white" stroke="black" points="644.5,-112.5 644.5,-131.5 769.5,-131.5 769.5,-112.5 644.5,-112.5"/>
<text text-anchor="middle" x="707" y="-119.5" font-family="FreeSans" font-size="10.00">cantera/base/stringUtils.h</text>
</a>
</g>
</g>
<!-- Node1&#45;&gt;Node13 -->
<g id="edge14" class="edge"><title>Node1&#45;&gt;Node13</title>
<path fill="none" stroke="midnightblue" d="M525.409,-336.297C553.69,-303.079 655.137,-183.918 692.796,-139.684"/>
<polygon fill="midnightblue" stroke="midnightblue" points="695.619,-141.767 699.437,-131.884 690.289,-137.229 695.619,-141.767"/>
</g>
<!-- Node14 -->
<g id="node14" class="node"><title>Node14</title>
<g id="a_node14"><a xlink:href="ctml_8h.html" target="_top" xlink:title="CTML (&quot;Cantera Markup Language&quot;) is the variant of XML that Cantera uses to store data...">
<polygon fill="white" stroke="black" points="382.5,-224.5 382.5,-243.5 483.5,-243.5 483.5,-224.5 382.5,-224.5"/>
<text text-anchor="middle" x="433" y="-231.5" font-family="FreeSans" font-size="10.00">cantera/base/ctml.h</text>
</a>
</g>
</g>
<!-- Node1&#45;&gt;Node14 -->
<g id="edge17" class="edge"><title>Node1&#45;&gt;Node14</title>
<path fill="none" stroke="midnightblue" d="M511.33,-336.368C497.241,-318.135 464.238,-275.426 445.885,-251.675"/>
<polygon fill="midnightblue" stroke="midnightblue" points="448.523,-249.364 439.639,-243.591 442.984,-253.644 448.523,-249.364"/>
</g>
<!-- Node16 -->
<g id="node16" class="node"><title>Node16</title>
<g id="a_node16"><a xlink:href="utilities_8h.html" target="_top" xlink:title="Various templated functions that carry out common vector operations (see Templated Utility Functions)...">
<polygon fill="white" stroke="black" points="461.5,-168.5 461.5,-187.5 574.5,-187.5 574.5,-168.5 461.5,-168.5"/>
<text text-anchor="middle" x="518" y="-175.5" font-family="FreeSans" font-size="10.00">cantera/base/utilities.h</text>
</a>
</g>
</g>
<!-- Node1&#45;&gt;Node16 -->
<g id="edge22" class="edge"><title>Node1&#45;&gt;Node16</title>
<path fill="none" stroke="midnightblue" d="M518,-336.075C518,-309.945 518,-233.211 518,-197.577"/>
<polygon fill="midnightblue" stroke="midnightblue" points="521.5,-197.568 518,-187.568 514.5,-197.568 521.5,-197.568"/>
</g>
<!-- Node19 -->
<g id="node19" class="node"><title>Node19</title>
<polygon fill="white" stroke="#bfbfbf" points="631.5,-280.5 631.5,-299.5 680.5,-299.5 680.5,-280.5 631.5,-280.5"/>
<text text-anchor="middle" x="656" y="-287.5" font-family="FreeSans" font-size="10.00">fstream</text>
</g>
<!-- Node1&#45;&gt;Node19 -->
<g id="edge27" class="edge"><title>Node1&#45;&gt;Node19</title>
<path fill="none" stroke="midnightblue" d="M539.867,-336.444C562.779,-327.478 598.975,-313.314 624.866,-303.183"/>
<polygon fill="midnightblue" stroke="midnightblue" points="626.199,-306.42 634.236,-299.516 623.648,-299.901 626.199,-306.42"/>
</g>
<!-- Node3 -->
<g id="node3" class="node"><title>Node3</title>
<g id="a_node3"><a xlink:href="VPStandardStateTP_8h.html" target="_top" xlink:title="Header file for a derived class of ThermoPhase that handles variable pressure standard state methods ...">
<polygon fill="white" stroke="black" points="188,-224.5 188,-243.5 300,-243.5 300,-224.5 188,-224.5"/>
<text text-anchor="middle" x="244" y="-231.5" font-family="FreeSans" font-size="10.00">VPStandardStateTP.h</text>
</a>
</g>
</g>
<!-- Node2&#45;&gt;Node3 -->
<g id="edge2" class="edge"><title>Node2&#45;&gt;Node3</title>
<path fill="none" stroke="midnightblue" d="M273.22,-280.083C268.328,-272.534 261.173,-261.495 255.167,-252.23"/>
<polygon fill="midnightblue" stroke="midnightblue" points="258.048,-250.239 249.672,-243.751 252.174,-254.046 258.048,-250.239"/>
</g>
<!-- Node4 -->
<g id="node4" class="node"><title>Node4</title>
<g id="a_node4"><a xlink:href="ThermoPhase_8h.html" target="_top" xlink:title="Header file for class ThermoPhase, the base class for phases with thermodynamic properties, and the text for the Module thermoprops (see Thermodynamic Properties and class ThermoPhase). ">
<polygon fill="white" stroke="black" points="73,-168.5 73,-187.5 157,-187.5 157,-168.5 73,-168.5"/>
<text text-anchor="middle" x="115" y="-175.5" font-family="FreeSans" font-size="10.00">ThermoPhase.h</text>
</a>
</g>
</g>
<!-- Node3&#45;&gt;Node4 -->
<g id="edge3" class="edge"><title>Node3&#45;&gt;Node4</title>
<path fill="none" stroke="midnightblue" d="M223.56,-224.444C202.33,-215.557 168.901,-201.563 144.745,-191.451"/>
<polygon fill="midnightblue" stroke="midnightblue" points="145.921,-188.149 135.345,-187.516 143.218,-194.606 145.921,-188.149"/>
</g>
<!-- Node10 -->
<g id="node10" class="node"><title>Node10</title>
<g id="a_node10"><a xlink:href="VPSSMgr_8h.html" target="_top" xlink:title="Declaration file for a virtual base class that manages the calculation of standard state properties f...">
<polygon fill="white" stroke="black" points="210.5,-168.5 210.5,-187.5 277.5,-187.5 277.5,-168.5 210.5,-168.5"/>
<text text-anchor="middle" x="244" y="-175.5" font-family="FreeSans" font-size="10.00">VPSSMgr.h</text>
</a>
</g>
</g>
<!-- Node3&#45;&gt;Node10 -->
<g id="edge10" class="edge"><title>Node3&#45;&gt;Node10</title>
<path fill="none" stroke="midnightblue" d="M244,-224.083C244,-217.006 244,-206.861 244,-197.986"/>
<polygon fill="midnightblue" stroke="midnightblue" points="247.5,-197.751 244,-187.751 240.5,-197.751 247.5,-197.751"/>
</g>
<!-- Node5 -->
<g id="node5" class="node"><title>Node5</title>
<g id="a_node5"><a xlink:href="Phase_8h.html" target="_top" xlink:title="Header file for class Phase. ">
<polygon fill="white" stroke="red" points="-0.5,-112.5 -0.5,-131.5 50.5,-131.5 50.5,-112.5 -0.5,-112.5"/>
<text text-anchor="middle" x="25" y="-119.5" font-family="FreeSans" font-size="10.00">Phase.h</text>
</a>
</g>
</g>
<!-- Node4&#45;&gt;Node5 -->
<g id="edge4" class="edge"><title>Node4&#45;&gt;Node5</title>
<path fill="none" stroke="midnightblue" d="M100.54,-168.324C86.5004,-159.9 64.9515,-146.971 48.4569,-137.074"/>
<polygon fill="midnightblue" stroke="midnightblue" points="49.7999,-133.798 39.4242,-131.655 46.1984,-139.801 49.7999,-133.798"/>
</g>
<!-- Node8 -->
<g id="node8" class="node"><title>Node8</title>
<g id="a_node8"><a xlink:href="SpeciesThermo_8h.html" target="_top" xlink:title="Virtual base class for the calculation of multiple&#45;species thermodynamic reference&#45;state property man...">
<polygon fill="white" stroke="red" points="69,-112.5 69,-131.5 161,-131.5 161,-112.5 69,-112.5"/>
<text text-anchor="middle" x="115" y="-119.5" font-family="FreeSans" font-size="10.00">SpeciesThermo.h</text>
</a>
</g>
</g>
<!-- Node4&#45;&gt;Node8 -->
<g id="edge7" class="edge"><title>Node4&#45;&gt;Node8</title>
<path fill="none" stroke="midnightblue" d="M115,-168.083C115,-161.006 115,-150.861 115,-141.986"/>
<polygon fill="midnightblue" stroke="midnightblue" points="118.5,-141.751 115,-131.751 111.5,-141.751 118.5,-141.751"/>
</g>
<!-- Node6 -->
<g id="node6" class="node"><title>Node6</title>
<g id="a_node6"><a xlink:href="ctexceptions_8h.html" target="_top" xlink:title="Definitions for the classes that are thrown when Cantera experiences an error condition (also contain...">
<polygon fill="white" stroke="red" points="200.5,-56.5 200.5,-75.5 337.5,-75.5 337.5,-56.5 200.5,-56.5"/>
<text text-anchor="middle" x="269" y="-63.5" font-family="FreeSans" font-size="10.00">cantera/base/ctexceptions.h</text>
</a>
</g>
</g>
<!-- Node5&#45;&gt;Node6 -->
<g id="edge5" class="edge"><title>Node5&#45;&gt;Node6</title>
<path fill="none" stroke="midnightblue" d="M50.5853,-114.296C53.7513,-113.504 56.9469,-112.721 60,-112 113.34,-99.4049 174.681,-86.368 217.048,-77.5893"/>
<polygon fill="midnightblue" stroke="midnightblue" points="217.772,-81.0136 226.857,-75.5625 216.356,-74.1584 217.772,-81.0136"/>
</g>
<!-- Node7 -->
<g id="node7" class="node"><title>Node7</title>
<polygon fill="white" stroke="#bfbfbf" points="413,-0.5 413,-19.5 453,-19.5 453,-0.5 413,-0.5"/>
<text text-anchor="middle" x="433" y="-7.5" font-family="FreeSans" font-size="10.00">string</text>
</g>
<!-- Node6&#45;&gt;Node7 -->
<g id="edge6" class="edge"><title>Node6&#45;&gt;Node7</title>
<path fill="none" stroke="midnightblue" d="M294.986,-56.4435C324.361,-46.7713 372.107,-31.0503 403.031,-20.8679"/>
<polygon fill="midnightblue" stroke="midnightblue" points="404.419,-24.0959 412.822,-17.6439 402.229,-17.447 404.419,-24.0959"/>
</g>
<!-- Node9 -->
<g id="node9" class="node"><title>Node9</title>
<g id="a_node9"><a xlink:href="ct__defs_8h.html" target="_top" xlink:title="This file contains definitions of terms that are used in internal routines and are unlikely to need m...">
<polygon fill="white" stroke="red" points="376,-56.5 376,-75.5 490,-75.5 490,-56.5 376,-56.5"/>
<text text-anchor="middle" x="433" y="-63.5" font-family="FreeSans" font-size="10.00">cantera/base/ct_defs.h</text>
</a>
</g>
</g>
<!-- Node8&#45;&gt;Node9 -->
<g id="edge8" class="edge"><title>Node8&#45;&gt;Node9</title>
<path fill="none" stroke="midnightblue" d="M161.24,-113.148C217.127,-103.658 311.308,-87.6647 372.811,-77.2208"/>
<polygon fill="midnightblue" stroke="midnightblue" points="373.493,-80.6551 382.766,-75.5303 372.321,-73.7539 373.493,-80.6551"/>
</g>
<!-- Node9&#45;&gt;Node7 -->
<g id="edge9" class="edge"><title>Node9&#45;&gt;Node7</title>
<path fill="none" stroke="midnightblue" d="M433,-56.083C433,-49.0059 433,-38.8611 433,-29.9865"/>
<polygon fill="midnightblue" stroke="midnightblue" points="436.5,-29.751 433,-19.7511 429.5,-29.7511 436.5,-29.751"/>
</g>
<!-- Node11 -->
<g id="node11" class="node"><title>Node11</title>
<g id="a_node11"><a xlink:href="mix__defs_8h.html" target="_top" xlink:title="mix_defs.h">
<polygon fill="white" stroke="black" points="179,-112.5 179,-131.5 241,-131.5 241,-112.5 179,-112.5"/>
<text text-anchor="middle" x="210" y="-119.5" font-family="FreeSans" font-size="10.00">mix_defs.h</text>
</a>
</g>
</g>
<!-- Node10&#45;&gt;Node11 -->
<g id="edge11" class="edge"><title>Node10&#45;&gt;Node11</title>
<path fill="none" stroke="midnightblue" d="M238.386,-168.083C233.633,-160.534 226.682,-149.495 220.848,-140.23"/>
<polygon fill="midnightblue" stroke="midnightblue" points="223.8,-138.349 215.51,-131.751 217.876,-142.078 223.8,-138.349"/>
</g>
<!-- Node12 -->
<g id="node12" class="node"><title>Node12</title>
<g id="a_node12"><a xlink:href="global_8h.html" target="_top" xlink:title="This file contains definitions for utility functions and text for modules, inputfiles, logs, textlogs, (see Input File Handling, Diagnostic Output, and Writing messages to the screen). ">
<polygon fill="white" stroke="black" points="297,-112.5 297,-131.5 405,-131.5 405,-112.5 297,-112.5"/>
<text text-anchor="middle" x="351" y="-119.5" font-family="FreeSans" font-size="10.00">cantera/base/global.h</text>
</a>
</g>
</g>
<!-- Node10&#45;&gt;Node12 -->
<g id="edge12" class="edge"><title>Node10&#45;&gt;Node12</title>
<path fill="none" stroke="midnightblue" d="M261.191,-168.324C278.351,-159.664 304.946,-146.242 324.747,-136.249"/>
<polygon fill="midnightblue" stroke="midnightblue" points="326.501,-139.285 333.851,-131.655 323.347,-133.035 326.501,-139.285"/>
</g>
<!-- Node12&#45;&gt;Node9 -->
<g id="edge13" class="edge"><title>Node12&#45;&gt;Node9</title>
<path fill="none" stroke="midnightblue" d="M364.175,-112.324C376.847,-103.979 396.233,-91.2122 411.206,-81.3524"/>
<polygon fill="midnightblue" stroke="midnightblue" points="413.431,-84.0776 419.858,-75.6545 409.581,-78.2313 413.431,-84.0776"/>
</g>
<!-- Node13&#45;&gt;Node7 -->
<g id="edge16" class="edge"><title>Node13&#45;&gt;Node7</title>
<path fill="none" stroke="midnightblue" d="M685.5,-112.368C636.824,-92.827 518.119,-45.172 462.573,-22.8725"/>
<polygon fill="midnightblue" stroke="midnightblue" points="463.864,-19.6192 453.28,-19.1416 461.256,-26.1153 463.864,-19.6192"/>
</g>
<!-- Node13&#45;&gt;Node9 -->
<g id="edge15" class="edge"><title>Node13&#45;&gt;Node9</title>
<path fill="none" stroke="midnightblue" d="M663.584,-112.444C615.485,-102.964 537.905,-87.6747 486.194,-77.4835"/>
<polygon fill="midnightblue" stroke="midnightblue" points="486.701,-74.0162 476.213,-75.5164 485.347,-80.8841 486.701,-74.0162"/>
</g>
<!-- Node14&#45;&gt;Node9 -->
<g id="edge18" class="edge"><title>Node14&#45;&gt;Node9</title>
<path fill="none" stroke="midnightblue" d="M433,-224.075C433,-197.945 433,-121.211 433,-85.577"/>
<polygon fill="midnightblue" stroke="midnightblue" points="436.5,-85.5681 433,-75.5681 429.5,-85.5681 436.5,-85.5681"/>
</g>
<!-- Node15 -->
<g id="node15" class="node"><title>Node15</title>
<g id="a_node15"><a xlink:href="xml_8h.html" target="_top" xlink:title="Classes providing support for XML data files. ">
<polygon fill="white" stroke="black" points="331.5,-168.5 331.5,-187.5 370.5,-187.5 370.5,-168.5 331.5,-168.5"/>
<text text-anchor="middle" x="351" y="-175.5" font-family="FreeSans" font-size="10.00">xml.h</text>
</a>
</g>
</g>
<!-- Node14&#45;&gt;Node15 -->
<g id="edge19" class="edge"><title>Node14&#45;&gt;Node15</title>
<path fill="none" stroke="midnightblue" d="M419.825,-224.324C407.153,-215.979 387.767,-203.212 372.794,-193.352"/>
<polygon fill="midnightblue" stroke="midnightblue" points="374.419,-190.231 364.142,-187.655 370.569,-196.078 374.419,-190.231"/>
</g>
<!-- Node15&#45;&gt;Node6 -->
<g id="edge20" class="edge"><title>Node15&#45;&gt;Node6</title>
<path fill="none" stroke="midnightblue" d="M332.972,-168.391C318.774,-160.726 299.517,-148.22 288,-132 278.321,-118.37 273.533,-99.8287 271.188,-86.0367"/>
<polygon fill="midnightblue" stroke="midnightblue" points="274.604,-85.1926 269.739,-75.7804 267.672,-86.1716 274.604,-85.1926"/>
</g>
<!-- Node15&#45;&gt;Node12 -->
<g id="edge21" class="edge"><title>Node15&#45;&gt;Node12</title>
<path fill="none" stroke="midnightblue" d="M351,-168.083C351,-161.006 351,-150.861 351,-141.986"/>
<polygon fill="midnightblue" stroke="midnightblue" points="354.5,-141.751 351,-131.751 347.5,-141.751 354.5,-141.751"/>
</g>
<!-- Node16&#45;&gt;Node9 -->
<g id="edge23" class="edge"><title>Node16&#45;&gt;Node9</title>
<path fill="none" stroke="midnightblue" d="M511.33,-168.368C497.241,-150.135 464.238,-107.426 445.885,-83.6752"/>
<polygon fill="midnightblue" stroke="midnightblue" points="448.523,-81.3642 439.639,-75.5914 442.984,-85.6444 448.523,-81.3642"/>
</g>
<!-- Node16&#45;&gt;Node12 -->
<g id="edge24" class="edge"><title>Node16&#45;&gt;Node12</title>
<path fill="none" stroke="midnightblue" d="M491.538,-168.444C463.322,-159.32 418.46,-144.813 387.032,-134.651"/>
<polygon fill="midnightblue" stroke="midnightblue" points="387.93,-131.263 377.338,-131.516 385.776,-137.923 387.93,-131.263"/>
</g>
<!-- Node17 -->
<g id="node17" class="node"><title>Node17</title>
<polygon fill="white" stroke="#bfbfbf" points="499,-112.5 499,-131.5 557,-131.5 557,-112.5 499,-112.5"/>
<text text-anchor="middle" x="528" y="-119.5" font-family="FreeSans" font-size="10.00">stdexcept</text>
</g>
<!-- Node16&#45;&gt;Node17 -->
<g id="edge25" class="edge"><title>Node16&#45;&gt;Node17</title>
<path fill="none" stroke="midnightblue" d="M519.651,-168.083C520.976,-160.927 522.882,-150.635 524.539,-141.691"/>
<polygon fill="midnightblue" stroke="midnightblue" points="528,-142.221 526.379,-131.751 521.117,-140.947 528,-142.221"/>
</g>
<!-- Node18 -->
<g id="node18" class="node"><title>Node18</title>
<polygon fill="white" stroke="#bfbfbf" points="575.5,-112.5 575.5,-131.5 626.5,-131.5 626.5,-112.5 575.5,-112.5"/>
<text text-anchor="middle" x="601" y="-119.5" font-family="FreeSans" font-size="10.00">numeric</text>
</g>
<!-- Node16&#45;&gt;Node18 -->
<g id="edge26" class="edge"><title>Node16&#45;&gt;Node18</title>
<path fill="none" stroke="midnightblue" d="M531.335,-168.324C544.162,-159.979 563.785,-147.212 578.94,-137.352"/>
<polygon fill="midnightblue" stroke="midnightblue" points="581.224,-140.042 587.698,-131.655 577.407,-134.174 581.224,-140.042"/>
</g>
</g>
</svg>
