<?xml version="1.0" encoding="UTF-8" standalone="no"?>
<!DOCTYPE svg PUBLIC "-//W3C//DTD SVG 1.1//EN"
 "http://www.w3.org/Graphics/SVG/1.1/DTD/svg11.dtd">
<!-- Generated by graphviz version 2.36.0 (20140111.2315)
 -->
<!-- Title: plots.h Pages: 1 -->
<svg width="569pt" height="308pt"
 viewBox="0.00 0.00 569.00 308.00" xmlns="http://www.w3.org/2000/svg" xmlns:xlink="http://www.w3.org/1999/xlink">
<g id="graph0" class="graph" transform="scale(1 1) rotate(0) translate(4 304)">
<title>plots.h</title>
<polygon fill="white" stroke="none" points="-4,4 -4,-304 565,-304 565,4 -4,4"/>
<!-- Node1 -->
<g id="node1" class="node"><title>Node1</title>
<polygon fill="#bfbfbf" stroke="black" points="404,-280.5 404,-299.5 448,-299.5 448,-280.5 404,-280.5"/>
<text text-anchor="middle" x="426" y="-287.5" font-family="FreeSans" font-size="10.00">plots.h</text>
</g>
<!-- Node2 -->
<g id="node2" class="node"><title>Node2</title>
<g id="a_node2"><a xlink:href="Array_8h.html" target="_top" xlink:title="Header file for class Cantera::Array2D. ">
<polygon fill="white" stroke="black" points="234.5,-224.5 234.5,-243.5 339.5,-243.5 339.5,-224.5 234.5,-224.5"/>
<text text-anchor="middle" x="287" y="-231.5" font-family="FreeSans" font-size="10.00">cantera/base/Array.h</text>
</a>
</g>
</g>
<!-- Node1&#45;&gt;Node2 -->
<g id="edge1" class="edge"><title>Node1&#45;&gt;Node2</title>
<path fill="none" stroke="midnightblue" d="M403.975,-280.444C380.896,-271.478 344.438,-257.314 318.359,-247.183"/>
<polygon fill="midnightblue" stroke="midnightblue" points="319.511,-243.875 308.922,-243.516 316.976,-250.4 319.511,-243.875"/>
</g>
<!-- Node17 -->
<g id="node17" class="node"><title>Node17</title>
<g id="a_node17"><a xlink:href="ctexceptions_8h.html" target="_top" xlink:title="Definitions for the classes that are thrown when Cantera experiences an error condition (also contain...">
<polygon fill="white" stroke="black" points="357.5,-224.5 357.5,-243.5 494.5,-243.5 494.5,-224.5 357.5,-224.5"/>
<text text-anchor="middle" x="426" y="-231.5" font-family="FreeSans" font-size="10.00">cantera/base/ctexceptions.h</text>
</a>
</g>
</g>
<!-- Node1&#45;&gt;Node17 -->
<g id="edge17" class="edge"><title>Node1&#45;&gt;Node17</title>
<path fill="none" stroke="midnightblue" d="M426,-280.083C426,-273.006 426,-262.861 426,-253.986"/>
<polygon fill="midnightblue" stroke="midnightblue" points="429.5,-253.751 426,-243.751 422.5,-253.751 429.5,-253.751"/>
</g>
<!-- Node19 -->
<g id="node19" class="node"><title>Node19</title>
<polygon fill="white" stroke="#bfbfbf" points="512.5,-224.5 512.5,-243.5 561.5,-243.5 561.5,-224.5 512.5,-224.5"/>
<text text-anchor="middle" x="537" y="-231.5" font-family="FreeSans" font-size="10.00">fstream</text>
</g>
<!-- Node1&#45;&gt;Node19 -->
<g id="edge20" class="edge"><title>Node1&#45;&gt;Node19</title>
<path fill="none" stroke="midnightblue" d="M443.834,-280.324C461.716,-271.625 489.475,-258.12 510.046,-248.113"/>
<polygon fill="midnightblue" stroke="midnightblue" points="511.749,-251.177 519.21,-243.655 508.687,-244.882 511.749,-251.177"/>
</g>
<!-- Node3 -->
<g id="node3" class="node"><title>Node3</title>
<g id="a_node3"><a xlink:href="utilities_8h.html" target="_top" xlink:title="Various templated functions that carry out common vector operations (see Templated Utility Functions)...">
<polygon fill="white" stroke="black" points="188,-168.5 188,-187.5 242,-187.5 242,-168.5 188,-168.5"/>
<text text-anchor="middle" x="215" y="-175.5" font-family="FreeSans" font-size="10.00">utilities.h</text>
</a>
</g>
</g>
<!-- Node2&#45;&gt;Node3 -->
<g id="edge2" class="edge"><title>Node2&#45;&gt;Node3</title>
<path fill="none" stroke="midnightblue" d="M275.432,-224.324C264.58,-216.185 248.119,-203.839 235.117,-194.087"/>
<polygon fill="midnightblue" stroke="midnightblue" points="236.879,-191.034 226.779,-187.834 232.679,-196.634 236.879,-191.034"/>
</g>
<!-- Node15 -->
<g id="node15" class="node"><title>Node15</title>
<polygon fill="white" stroke="#bfbfbf" points="260.5,-168.5 260.5,-187.5 313.5,-187.5 313.5,-168.5 260.5,-168.5"/>
<text text-anchor="middle" x="287" y="-175.5" font-family="FreeSans" font-size="10.00">iostream</text>
</g>
<!-- Node2&#45;&gt;Node15 -->
<g id="edge15" class="edge"><title>Node2&#45;&gt;Node15</title>
<path fill="none" stroke="midnightblue" d="M287,-224.083C287,-217.006 287,-206.861 287,-197.986"/>
<polygon fill="midnightblue" stroke="midnightblue" points="290.5,-197.751 287,-187.751 283.5,-197.751 290.5,-197.751"/>
</g>
<!-- Node16 -->
<g id="node16" class="node"><title>Node16</title>
<polygon fill="white" stroke="#bfbfbf" points="331.5,-168.5 331.5,-187.5 376.5,-187.5 376.5,-168.5 331.5,-168.5"/>
<text text-anchor="middle" x="354" y="-175.5" font-family="FreeSans" font-size="10.00">cstring</text>
</g>
<!-- Node2&#45;&gt;Node16 -->
<g id="edge16" class="edge"><title>Node2&#45;&gt;Node16</title>
<path fill="none" stroke="midnightblue" d="M297.765,-224.324C307.766,-216.263 322.887,-204.077 334.93,-194.369"/>
<polygon fill="midnightblue" stroke="midnightblue" points="337.45,-196.834 343.039,-187.834 333.057,-191.384 337.45,-196.834"/>
</g>
<!-- Node4 -->
<g id="node4" class="node"><title>Node4</title>
<g id="a_node4"><a xlink:href="ct__defs_8h.html" target="_top" xlink:title="This file contains definitions of terms that are used in internal routines and are unlikely to need m...">
<polygon fill="white" stroke="black" points="183,-56.5 183,-75.5 239,-75.5 239,-56.5 183,-56.5"/>
<text text-anchor="middle" x="211" y="-63.5" font-family="FreeSans" font-size="10.00">ct_defs.h</text>
</a>
</g>
</g>
<!-- Node3&#45;&gt;Node4 -->
<g id="edge3" class="edge"><title>Node3&#45;&gt;Node4</title>
<path fill="none" stroke="midnightblue" d="M204.286,-168.305C195.062,-160.069 182.409,-146.789 177,-132 170.684,-114.732 182.306,-96.2675 193.642,-83.4482"/>
<polygon fill="midnightblue" stroke="midnightblue" points="196.473,-85.5529 200.859,-75.9086 191.416,-80.7126 196.473,-85.5529"/>
</g>
<!-- Node12 -->
<g id="node12" class="node"><title>Node12</title>
<g id="a_node12"><a xlink:href="global_8h.html" target="_top" xlink:title="This file contains definitions for utility functions and text for modules, inputfiles, logs, textlogs, (see Input File Handling, Diagnostic Output, and Writing messages to the screen). ">
<polygon fill="white" stroke="black" points="186,-112.5 186,-131.5 236,-131.5 236,-112.5 186,-112.5"/>
<text text-anchor="middle" x="211" y="-119.5" font-family="FreeSans" font-size="10.00">global.h</text>
</a>
</g>
</g>
<!-- Node3&#45;&gt;Node12 -->
<g id="edge11" class="edge"><title>Node3&#45;&gt;Node12</title>
<path fill="none" stroke="midnightblue" d="M214.339,-168.083C213.815,-161.006 213.064,-150.861 212.406,-141.986"/>
<polygon fill="midnightblue" stroke="midnightblue" points="215.877,-141.465 211.648,-131.751 208.897,-141.982 215.877,-141.465"/>
</g>
<!-- Node13 -->
<g id="node13" class="node"><title>Node13</title>
<polygon fill="white" stroke="#bfbfbf" points="254,-112.5 254,-131.5 312,-131.5 312,-112.5 254,-112.5"/>
<text text-anchor="middle" x="283" y="-119.5" font-family="FreeSans" font-size="10.00">stdexcept</text>
</g>
<!-- Node3&#45;&gt;Node13 -->
<g id="edge13" class="edge"><title>Node3&#45;&gt;Node13</title>
<path fill="none" stroke="midnightblue" d="M225.925,-168.324C236.175,-160.185 251.721,-147.839 264.001,-138.087"/>
<polygon fill="midnightblue" stroke="midnightblue" points="266.221,-140.794 271.876,-131.834 261.868,-135.312 266.221,-140.794"/>
</g>
<!-- Node14 -->
<g id="node14" class="node"><title>Node14</title>
<polygon fill="white" stroke="#bfbfbf" points="330.5,-112.5 330.5,-131.5 381.5,-131.5 381.5,-112.5 330.5,-112.5"/>
<text text-anchor="middle" x="356" y="-119.5" font-family="FreeSans" font-size="10.00">numeric</text>
</g>
<!-- Node3&#45;&gt;Node14 -->
<g id="edge14" class="edge"><title>Node3&#45;&gt;Node14</title>
<path fill="none" stroke="midnightblue" d="M237.342,-168.444C260.753,-159.478 297.736,-145.314 324.19,-135.183"/>
<polygon fill="midnightblue" stroke="midnightblue" points="325.676,-138.361 333.763,-131.516 323.172,-131.824 325.676,-138.361"/>
</g>
<!-- Node5 -->
<g id="node5" class="node"><title>Node5</title>
<g id="a_node5"><a xlink:href="config_8h_source.html" target="_top" xlink:title="config.h">
<polygon fill="white" stroke="black" points="0,-0.5 0,-19.5 50,-19.5 50,-0.5 0,-0.5"/>
<text text-anchor="middle" x="25" y="-7.5" font-family="FreeSans" font-size="10.00">config.h</text>
</a>
</g>
</g>
<!-- Node4&#45;&gt;Node5 -->
<g id="edge4" class="edge"><title>Node4&#45;&gt;Node5</title>
<path fill="none" stroke="midnightblue" d="M182.751,-56.7986C149.914,-47.2655 95.6986,-31.5254 60.1639,-21.2089"/>
<polygon fill="midnightblue" stroke="midnightblue" points="60.8047,-17.7505 50.2254,-18.3235 58.853,-24.4729 60.8047,-17.7505"/>
</g>
<!-- Node6 -->
<g id="node6" class="node"><title>Node6</title>
<polygon fill="white" stroke="#bfbfbf" points="68,-0.5 68,-19.5 112,-19.5 112,-0.5 68,-0.5"/>
<text text-anchor="middle" x="90" y="-7.5" font-family="FreeSans" font-size="10.00">cmath</text>
</g>
<!-- Node4&#45;&gt;Node6 -->
<g id="edge5" class="edge"><title>Node4&#45;&gt;Node6</title>
<path fill="none" stroke="midnightblue" d="M191.827,-56.4435C172.091,-47.6356 141.115,-33.8116 118.507,-23.722"/>
<polygon fill="midnightblue" stroke="midnightblue" points="119.641,-20.3957 109.083,-19.5164 116.789,-26.788 119.641,-20.3957"/>
</g>
<!-- Node7 -->
<g id="node7" class="node"><title>Node7</title>
<polygon fill="white" stroke="#bfbfbf" points="130,-0.5 130,-19.5 174,-19.5 174,-0.5 130,-0.5"/>
<text text-anchor="middle" x="152" y="-7.5" font-family="FreeSans" font-size="10.00">cstdlib</text>
</g>
<!-- Node4&#45;&gt;Node7 -->
<g id="edge6" class="edge"><title>Node4&#45;&gt;Node7</title>
<path fill="none" stroke="midnightblue" d="M201.521,-56.324C192.799,-48.3414 179.657,-36.3128 169.102,-26.6529"/>
<polygon fill="midnightblue" stroke="midnightblue" points="171.392,-24.0036 161.652,-19.8339 166.666,-29.1674 171.392,-24.0036"/>
</g>
<!-- Node8 -->
<g id="node8" class="node"><title>Node8</title>
<polygon fill="white" stroke="#bfbfbf" points="192.5,-0.5 192.5,-19.5 235.5,-19.5 235.5,-0.5 192.5,-0.5"/>
<text text-anchor="middle" x="214" y="-7.5" font-family="FreeSans" font-size="10.00">vector</text>
</g>
<!-- Node4&#45;&gt;Node8 -->
<g id="edge7" class="edge"><title>Node4&#45;&gt;Node8</title>
<path fill="none" stroke="midnightblue" d="M211.495,-56.083C211.889,-49.0059 212.452,-38.8611 212.945,-29.9865"/>
<polygon fill="midnightblue" stroke="midnightblue" points="216.454,-29.9299 213.514,-19.7511 209.464,-29.5415 216.454,-29.9299"/>
</g>
<!-- Node9 -->
<g id="node9" class="node"><title>Node9</title>
<polygon fill="white" stroke="#bfbfbf" points="253.5,-0.5 253.5,-19.5 288.5,-19.5 288.5,-0.5 253.5,-0.5"/>
<text text-anchor="middle" x="271" y="-7.5" font-family="FreeSans" font-size="10.00">map</text>
</g>
<!-- Node4&#45;&gt;Node9 -->
<g id="edge8" class="edge"><title>Node4&#45;&gt;Node9</title>
<path fill="none" stroke="midnightblue" d="M220.64,-56.324C229.51,-48.3414 242.875,-36.3128 253.608,-26.6529"/>
<polygon fill="midnightblue" stroke="midnightblue" points="256.093,-29.1251 261.185,-19.8339 251.41,-23.922 256.093,-29.1251"/>
</g>
<!-- Node10 -->
<g id="node10" class="node"><title>Node10</title>
<polygon fill="white" stroke="#bfbfbf" points="384,-0.5 384,-19.5 424,-19.5 424,-0.5 384,-0.5"/>
<text text-anchor="middle" x="404" y="-7.5" font-family="FreeSans" font-size="10.00">string</text>
</g>
<!-- Node4&#45;&gt;Node10 -->
<g id="edge9" class="edge"><title>Node4&#45;&gt;Node10</title>
<path fill="none" stroke="midnightblue" d="M239.064,-57.1479C275.091,-47.0678 337.337,-29.6517 374.189,-19.3408"/>
<polygon fill="midnightblue" stroke="midnightblue" points="375.18,-22.6981 383.867,-16.6331 373.294,-15.957 375.18,-22.6981"/>
</g>
<!-- Node11 -->
<g id="node11" class="node"><title>Node11</title>
<polygon fill="white" stroke="#bfbfbf" points="307,-0.5 307,-19.5 363,-19.5 363,-0.5 307,-0.5"/>
<text text-anchor="middle" x="335" y="-7.5" font-family="FreeSans" font-size="10.00">algorithm</text>
</g>
<!-- Node4&#45;&gt;Node11 -->
<g id="edge10" class="edge"><title>Node4&#45;&gt;Node11</title>
<path fill="none" stroke="midnightblue" d="M230.648,-56.4435C250.965,-47.5961 282.903,-33.6875 306.098,-23.5865"/>
<polygon fill="midnightblue" stroke="midnightblue" points="307.673,-26.7181 315.444,-19.5164 304.878,-20.3002 307.673,-26.7181"/>
</g>
<!-- Node12&#45;&gt;Node4 -->
<g id="edge12" class="edge"><title>Node12&#45;&gt;Node4</title>
<path fill="none" stroke="midnightblue" d="M211,-112.083C211,-105.006 211,-94.8611 211,-85.9865"/>
<polygon fill="midnightblue" stroke="midnightblue" points="214.5,-85.751 211,-75.7511 207.5,-85.7511 214.5,-85.751"/>
</g>
<!-- Node17&#45;&gt;Node10 -->
<g id="edge19" class="edge"><title>Node17&#45;&gt;Node10</title>
<path fill="none" stroke="midnightblue" d="M425.138,-224.297C421.901,-191.633 410.428,-75.8661 405.879,-29.9573"/>
<polygon fill="midnightblue" stroke="midnightblue" points="409.35,-29.4898 404.88,-19.8837 402.384,-30.1802 409.35,-29.4898"/>
</g>
<!-- Node18 -->
<g id="node18" class="node"><title>Node18</title>
<polygon fill="white" stroke="#bfbfbf" points="438,-168.5 438,-187.5 496,-187.5 496,-168.5 438,-168.5"/>
<text text-anchor="middle" x="467" y="-175.5" font-family="FreeSans" font-size="10.00">exception</text>
</g>
<!-- Node17&#45;&gt;Node18 -->
<g id="edge18" class="edge"><title>Node17&#45;&gt;Node18</title>
<path fill="none" stroke="midnightblue" d="M432.77,-224.083C438.562,-216.455 447.058,-205.264 454.138,-195.941"/>
<polygon fill="midnightblue" stroke="midnightblue" points="457.096,-197.832 460.356,-187.751 451.521,-193.599 457.096,-197.832"/>
</g>
</g>
</svg>
