<?xml version="1.0" encoding="UTF-8" standalone="no"?>
<!DOCTYPE svg PUBLIC "-//W3C//DTD SVG 1.1//EN"
 "http://www.w3.org/Graphics/SVG/1.1/DTD/svg11.dtd">
<!-- Generated by graphviz version 2.36.0 (20140111.2315)
 -->
<!-- Title: ReactionStoichMgr.cpp Pages: 1 -->
<svg width="731pt" height="468pt"
 viewBox="0.00 0.00 731.00 468.00" xmlns="http://www.w3.org/2000/svg" xmlns:xlink="http://www.w3.org/1999/xlink">
<g id="graph0" class="graph" transform="scale(1 1) rotate(0) translate(4 464)">
<title>ReactionStoichMgr.cpp</title>
<polygon fill="white" stroke="none" points="-4,4 -4,-464 727,-464 727,4 -4,4"/>
<!-- Node1 -->
<g id="node1" class="node"><title>Node1</title>
<polygon fill="#bfbfbf" stroke="black" points="307.5,-440.5 307.5,-459.5 424.5,-459.5 424.5,-440.5 307.5,-440.5"/>
<text text-anchor="middle" x="366" y="-447.5" font-family="FreeSans" font-size="10.00">ReactionStoichMgr.cpp</text>
</g>
<!-- Node2 -->
<g id="node2" class="node"><title>Node2</title>
<g id="a_node2"><a xlink:href="ReactionStoichMgr_8h.html" target="_top" xlink:title="Header file declaring class ReactionStoichMgr. ">
<polygon fill="white" stroke="black" points="126,-373 126,-403 252,-403 252,-373 126,-373"/>
<text text-anchor="start" x="134" y="-391" font-family="FreeSans" font-size="10.00">cantera/kinetics/Reaction</text>
<text text-anchor="middle" x="189" y="-380" font-family="FreeSans" font-size="10.00">StoichMgr.h</text>
</a>
</g>
</g>
<!-- Node1&#45;&gt;Node2 -->
<g id="edge1" class="edge"><title>Node1&#45;&gt;Node2</title>
<path fill="none" stroke="midnightblue" d="M340.64,-440.403C314.453,-431.526 272.875,-417.432 239.874,-406.245"/>
<polygon fill="midnightblue" stroke="midnightblue" points="240.969,-402.921 230.375,-403.025 238.722,-409.551 240.969,-402.921"/>
</g>
<!-- Node8 -->
<g id="node8" class="node"><title>Node8</title>
<g id="a_node8"><a xlink:href="ctexceptions_8h.html" target="_top" xlink:title="Definitions for the classes that are thrown when Cantera experiences an error condition (also contain...">
<polygon fill="white" stroke="black" points="-0.5,-242.5 -0.5,-261.5 136.5,-261.5 136.5,-242.5 -0.5,-242.5"/>
<text text-anchor="middle" x="68" y="-249.5" font-family="FreeSans" font-size="10.00">cantera/base/ctexceptions.h</text>
</a>
</g>
</g>
<!-- Node1&#45;&gt;Node8 -->
<g id="edge11" class="edge"><title>Node1&#45;&gt;Node8</title>
<path fill="none" stroke="midnightblue" d="M307.356,-444.967C255.731,-439.898 179.294,-428.646 117,-404 65.3011,-383.546 38.5599,-384.844 12,-336 5.20588,-323.506 6.25213,-317.009 12,-304 18.7141,-288.804 32.4397,-276.186 44.6214,-267.302"/>
<polygon fill="midnightblue" stroke="midnightblue" points="46.8152,-270.042 53.0963,-261.51 42.8654,-264.263 46.8152,-270.042"/>
</g>
<!-- Node10 -->
<g id="node10" class="node"><title>Node10</title>
<g id="a_node10"><a xlink:href="ReactionData_8h.html" target="_top" xlink:title="cantera/kinetics/Reaction\lData.h">
<polygon fill="white" stroke="black" points="303,-237 303,-267 429,-267 429,-237 303,-237"/>
<text text-anchor="start" x="311" y="-255" font-family="FreeSans" font-size="10.00">cantera/kinetics/Reaction</text>
<text text-anchor="middle" x="366" y="-244" font-family="FreeSans" font-size="10.00">Data.h</text>
</a>
</g>
</g>
<!-- Node1&#45;&gt;Node10 -->
<g id="edge12" class="edge"><title>Node1&#45;&gt;Node10</title>
<path fill="none" stroke="midnightblue" d="M366,-440.325C366,-411.913 366,-320.968 366,-277.107"/>
<polygon fill="midnightblue" stroke="midnightblue" points="369.5,-277.037 366,-267.037 362.5,-277.037 369.5,-277.037"/>
</g>
<!-- Node16 -->
<g id="node16" class="node"><title>Node16</title>
<g id="a_node16"><a xlink:href="Reaction_8h.html" target="_top" xlink:title="cantera/kinetics/Reaction.h">
<polygon fill="white" stroke="black" points="394,-378.5 394,-397.5 528,-397.5 528,-378.5 394,-378.5"/>
<text text-anchor="middle" x="461" y="-385.5" font-family="FreeSans" font-size="10.00">cantera/kinetics/Reaction.h</text>
</a>
</g>
</g>
<!-- Node1&#45;&gt;Node16 -->
<g id="edge21" class="edge"><title>Node1&#45;&gt;Node16</title>
<path fill="none" stroke="midnightblue" d="M379.611,-440.403C395.061,-430.646 420.49,-414.585 438.816,-403.011"/>
<polygon fill="midnightblue" stroke="midnightblue" points="440.828,-405.88 447.414,-397.581 437.09,-399.961 440.828,-405.88"/>
</g>
<!-- Node22 -->
<g id="node22" class="node"><title>Node22</title>
<polygon fill="white" stroke="#bfbfbf" points="546.5,-378.5 546.5,-397.5 595.5,-397.5 595.5,-378.5 546.5,-378.5"/>
<text text-anchor="middle" x="571" y="-385.5" font-family="FreeSans" font-size="10.00">fstream</text>
</g>
<!-- Node1&#45;&gt;Node22 -->
<g id="edge33" class="edge"><title>Node1&#45;&gt;Node22</title>
<path fill="none" stroke="midnightblue" d="M405.582,-440.459C440.586,-432.464 492.809,-419.454 537,-404 539.128,-403.256 541.308,-402.436 543.487,-401.574"/>
<polygon fill="midnightblue" stroke="midnightblue" points="544.998,-404.735 552.862,-397.636 542.287,-398.281 544.998,-404.735"/>
</g>
<!-- Node3 -->
<g id="node3" class="node"><title>Node3</title>
<g id="a_node3"><a xlink:href="StoichManager_8h.html" target="_top" xlink:title="cantera/kinetics/StoichManager.h">
<polygon fill="white" stroke="black" points="21.5,-310.5 21.5,-329.5 182.5,-329.5 182.5,-310.5 21.5,-310.5"/>
<text text-anchor="middle" x="102" y="-317.5" font-family="FreeSans" font-size="10.00">cantera/kinetics/StoichManager.h</text>
</a>
</g>
</g>
<!-- Node2&#45;&gt;Node3 -->
<g id="edge2" class="edge"><title>Node2&#45;&gt;Node3</title>
<path fill="none" stroke="midnightblue" d="M170.122,-372.679C155.886,-361.879 136.402,-347.098 121.918,-336.11"/>
<polygon fill="midnightblue" stroke="midnightblue" points="123.72,-333.084 113.637,-329.828 119.489,-338.661 123.72,-333.084"/>
</g>
<!-- Node4 -->
<g id="node4" class="node"><title>Node4</title>
<g id="a_node4"><a xlink:href="stringUtils_8h.html" target="_top" xlink:title="Contains declarations for string manipulation functions within Cantera. ">
<polygon fill="white" stroke="black" points="140.5,-174.5 140.5,-193.5 265.5,-193.5 265.5,-174.5 140.5,-174.5"/>
<text text-anchor="middle" x="203" y="-181.5" font-family="FreeSans" font-size="10.00">cantera/base/stringUtils.h</text>
</a>
</g>
</g>
<!-- Node3&#45;&gt;Node4 -->
<g id="edge3" class="edge"><title>Node3&#45;&gt;Node4</title>
<path fill="none" stroke="midnightblue" d="M109.864,-310.174C118.683,-300.162 133.286,-283.244 145,-268 161.991,-245.889 180.194,-219.312 191.584,-202.293"/>
<polygon fill="midnightblue" stroke="midnightblue" points="194.536,-204.175 197.16,-193.911 188.707,-200.299 194.536,-204.175"/>
</g>
<!-- Node3&#45;&gt;Node8 -->
<g id="edge8" class="edge"><title>Node3&#45;&gt;Node8</title>
<path fill="none" stroke="midnightblue" d="M97.5551,-310.372C92.4419,-300.446 83.905,-283.874 77.3172,-271.086"/>
<polygon fill="midnightblue" stroke="midnightblue" points="80.2455,-269.128 72.5545,-261.841 74.0227,-272.334 80.2455,-269.128"/>
</g>
<!-- Node5 -->
<g id="node5" class="node"><title>Node5</title>
<g id="a_node5"><a xlink:href="ct__defs_8h.html" target="_top" xlink:title="This file contains definitions of terms that are used in internal routines and are unlikely to need m...">
<polygon fill="white" stroke="red" points="262,-56.5 262,-75.5 318,-75.5 318,-56.5 262,-56.5"/>
<text text-anchor="middle" x="290" y="-63.5" font-family="FreeSans" font-size="10.00">ct_defs.h</text>
</a>
</g>
</g>
<!-- Node4&#45;&gt;Node5 -->
<g id="edge4" class="edge"><title>Node4&#45;&gt;Node5</title>
<path fill="none" stroke="midnightblue" d="M209.539,-174.281C223.969,-155.041 258.743,-108.677 277.502,-83.6641"/>
<polygon fill="midnightblue" stroke="midnightblue" points="280.421,-85.6048 283.621,-75.5048 274.821,-81.4048 280.421,-85.6048"/>
</g>
<!-- Node7 -->
<g id="node7" class="node"><title>Node7</title>
<polygon fill="white" stroke="#bfbfbf" points="168,-0.5 168,-19.5 208,-19.5 208,-0.5 168,-0.5"/>
<text text-anchor="middle" x="188" y="-7.5" font-family="FreeSans" font-size="10.00">string</text>
</g>
<!-- Node4&#45;&gt;Node7 -->
<g id="edge7" class="edge"><title>Node4&#45;&gt;Node7</title>
<path fill="none" stroke="midnightblue" d="M202.236,-174.234C199.908,-147.548 192.873,-66.8773 189.648,-29.8931"/>
<polygon fill="midnightblue" stroke="midnightblue" points="193.101,-29.2023 188.745,-19.5442 186.127,-29.8105 193.101,-29.2023"/>
</g>
<!-- Node6 -->
<g id="node6" class="node"><title>Node6</title>
<g id="a_node6"><a xlink:href="config_8h_source.html" target="_top" xlink:title="config.h">
<polygon fill="white" stroke="black" points="425,-0.5 425,-19.5 475,-19.5 475,-0.5 425,-0.5"/>
<text text-anchor="middle" x="450" y="-7.5" font-family="FreeSans" font-size="10.00">config.h</text>
</a>
</g>
</g>
<!-- Node5&#45;&gt;Node6 -->
<g id="edge5" class="edge"><title>Node5&#45;&gt;Node6</title>
<path fill="none" stroke="midnightblue" d="M315.352,-56.4435C342.269,-47.3591 384.996,-32.9388 415.087,-22.7831"/>
<polygon fill="midnightblue" stroke="midnightblue" points="416.41,-26.0305 424.766,-19.5164 414.172,-19.3981 416.41,-26.0305"/>
</g>
<!-- Node5&#45;&gt;Node7 -->
<g id="edge6" class="edge"><title>Node5&#45;&gt;Node7</title>
<path fill="none" stroke="midnightblue" d="M273.612,-56.324C257.329,-47.7034 232.133,-34.3643 213.284,-24.3855"/>
<polygon fill="midnightblue" stroke="midnightblue" points="214.823,-21.2402 204.347,-19.6545 211.548,-27.4267 214.823,-21.2402"/>
</g>
<!-- Node8&#45;&gt;Node7 -->
<g id="edge10" class="edge"><title>Node8&#45;&gt;Node7</title>
<path fill="none" stroke="midnightblue" d="M72.2709,-242.458C89.6191,-207.762 155.03,-76.9408 179.067,-28.8656"/>
<polygon fill="midnightblue" stroke="midnightblue" points="182.313,-30.1997 183.655,-19.6902 176.052,-27.0692 182.313,-30.1997"/>
</g>
<!-- Node9 -->
<g id="node9" class="node"><title>Node9</title>
<polygon fill="white" stroke="#bfbfbf" points="26,-174.5 26,-193.5 84,-193.5 84,-174.5 26,-174.5"/>
<text text-anchor="middle" x="55" y="-181.5" font-family="FreeSans" font-size="10.00">exception</text>
</g>
<!-- Node8&#45;&gt;Node9 -->
<g id="edge9" class="edge"><title>Node8&#45;&gt;Node9</title>
<path fill="none" stroke="midnightblue" d="M66.3005,-242.372C64.3842,-232.643 61.2101,-216.528 58.713,-203.85"/>
<polygon fill="midnightblue" stroke="midnightblue" points="62.1081,-202.976 56.7414,-193.841 55.2401,-204.329 62.1081,-202.976"/>
</g>
<!-- Node11 -->
<g id="node11" class="node"><title>Node11</title>
<g id="a_node11"><a xlink:href="reaction__defs_8h.html" target="_top" xlink:title="This file defines some constants used to specify reaction types. ">
<polygon fill="white" stroke="black" points="455,-169 455,-199 577,-199 577,-169 455,-169"/>
<text text-anchor="start" x="463" y="-187" font-family="FreeSans" font-size="10.00">cantera/kinetics/reaction</text>
<text text-anchor="middle" x="516" y="-176" font-family="FreeSans" font-size="10.00">_defs.h</text>
</a>
</g>
</g>
<!-- Node10&#45;&gt;Node11 -->
<g id="edge13" class="edge"><title>Node10&#45;&gt;Node11</title>
<path fill="none" stroke="midnightblue" d="M398.179,-236.841C420.598,-226.977 450.693,-213.735 474.856,-203.104"/>
<polygon fill="midnightblue" stroke="midnightblue" points="476.389,-206.253 484.132,-199.022 473.569,-199.846 476.389,-206.253"/>
</g>
<!-- Node12 -->
<g id="node12" class="node"><title>Node12</title>
<g id="a_node12"><a xlink:href="utilities_8h.html" target="_top" xlink:title="Various templated functions that carry out common vector operations (see Templated Utility Functions)...">
<polygon fill="white" stroke="black" points="312.5,-174.5 312.5,-193.5 425.5,-193.5 425.5,-174.5 312.5,-174.5"/>
<text text-anchor="middle" x="369" y="-181.5" font-family="FreeSans" font-size="10.00">cantera/base/utilities.h</text>
</a>
</g>
</g>
<!-- Node10&#45;&gt;Node12 -->
<g id="edge15" class="edge"><title>Node10&#45;&gt;Node12</title>
<path fill="none" stroke="midnightblue" d="M366.651,-236.679C367.086,-227.101 367.664,-214.394 368.137,-203.977"/>
<polygon fill="midnightblue" stroke="midnightblue" points="371.641,-203.977 368.599,-193.828 364.648,-203.659 371.641,-203.977"/>
</g>
<!-- Node11&#45;&gt;Node5 -->
<g id="edge14" class="edge"><title>Node11&#45;&gt;Node5</title>
<path fill="none" stroke="midnightblue" d="M516.086,-168.829C515.379,-152.72 511.659,-126.754 496,-112 472.145,-89.5243 380.876,-76.4743 328.172,-70.6603"/>
<polygon fill="midnightblue" stroke="midnightblue" points="328.491,-67.1746 318.176,-69.5933 327.748,-74.1351 328.491,-67.1746"/>
</g>
<!-- Node12&#45;&gt;Node5 -->
<g id="edge16" class="edge"><title>Node12&#45;&gt;Node5</title>
<path fill="none" stroke="midnightblue" d="M340.284,-174.409C320.326,-166.767 295.2,-153.418 283,-132 274.933,-117.837 278.119,-99.109 282.472,-85.3949"/>
<polygon fill="midnightblue" stroke="midnightblue" points="285.886,-86.2483 286.021,-75.6543 279.309,-83.8523 285.886,-86.2483"/>
</g>
<!-- Node13 -->
<g id="node13" class="node"><title>Node13</title>
<g id="a_node13"><a xlink:href="global_8h.html" target="_top" xlink:title="This file contains definitions for utility functions and text for modules, inputfiles, logs, textlogs, (see Input File Handling, Diagnostic Output, and Writing messages to the screen). ">
<polygon fill="white" stroke="black" points="292,-112.5 292,-131.5 342,-131.5 342,-112.5 292,-112.5"/>
<text text-anchor="middle" x="317" y="-119.5" font-family="FreeSans" font-size="10.00">global.h</text>
</a>
</g>
</g>
<!-- Node12&#45;&gt;Node13 -->
<g id="edge17" class="edge"><title>Node12&#45;&gt;Node13</title>
<path fill="none" stroke="midnightblue" d="M361.55,-174.403C353.672,-165.314 341.055,-150.756 331.256,-139.449"/>
<polygon fill="midnightblue" stroke="midnightblue" points="333.631,-136.845 324.437,-131.581 328.341,-141.43 333.631,-136.845"/>
</g>
<!-- Node14 -->
<g id="node14" class="node"><title>Node14</title>
<polygon fill="white" stroke="#bfbfbf" points="360,-112.5 360,-131.5 418,-131.5 418,-112.5 360,-112.5"/>
<text text-anchor="middle" x="389" y="-119.5" font-family="FreeSans" font-size="10.00">stdexcept</text>
</g>
<!-- Node12&#45;&gt;Node14 -->
<g id="edge19" class="edge"><title>Node12&#45;&gt;Node14</title>
<path fill="none" stroke="midnightblue" d="M371.866,-174.403C374.747,-165.76 379.277,-152.17 382.955,-141.134"/>
<polygon fill="midnightblue" stroke="midnightblue" points="386.298,-142.174 386.14,-131.581 379.657,-139.961 386.298,-142.174"/>
</g>
<!-- Node15 -->
<g id="node15" class="node"><title>Node15</title>
<polygon fill="white" stroke="#bfbfbf" points="436.5,-112.5 436.5,-131.5 487.5,-131.5 487.5,-112.5 436.5,-112.5"/>
<text text-anchor="middle" x="462" y="-119.5" font-family="FreeSans" font-size="10.00">numeric</text>
</g>
<!-- Node12&#45;&gt;Node15 -->
<g id="edge20" class="edge"><title>Node12&#45;&gt;Node15</title>
<path fill="none" stroke="midnightblue" d="M382.325,-174.403C397.38,-164.691 422.116,-148.732 440.037,-137.17"/>
<polygon fill="midnightblue" stroke="midnightblue" points="442.195,-139.943 448.7,-131.581 438.4,-134.061 442.195,-139.943"/>
</g>
<!-- Node13&#45;&gt;Node5 -->
<g id="edge18" class="edge"><title>Node13&#45;&gt;Node5</title>
<path fill="none" stroke="midnightblue" d="M312.541,-112.083C308.846,-104.691 303.477,-93.9533 298.906,-84.8111"/>
<polygon fill="midnightblue" stroke="midnightblue" points="301.978,-83.1301 294.376,-75.7511 295.717,-86.2606 301.978,-83.1301"/>
</g>
<!-- Node16&#45;&gt;Node12 -->
<g id="edge22" class="edge"><title>Node16&#45;&gt;Node12</title>
<path fill="none" stroke="midnightblue" d="M461.853,-378.399C463.84,-354.07 466.624,-283.458 438,-236 428.252,-219.838 411.251,-207.181 396.565,-198.519"/>
<polygon fill="midnightblue" stroke="midnightblue" points="398.245,-195.449 387.805,-193.646 394.842,-201.566 398.245,-195.449"/>
</g>
<!-- Node17 -->
<g id="node17" class="node"><title>Node17</title>
<g id="a_node17"><a xlink:href="smart__ptr_8h_source.html" target="_top" xlink:title="cantera/base/smart\l_ptr.h">
<polygon fill="white" stroke="black" points="624.5,-305 624.5,-335 723.5,-335 723.5,-305 624.5,-305"/>
<text text-anchor="start" x="632.5" y="-323" font-family="FreeSans" font-size="10.00">cantera/base/smart</text>
<text text-anchor="middle" x="674" y="-312" font-family="FreeSans" font-size="10.00">_ptr.h</text>
</a>
</g>
</g>
<!-- Node16&#45;&gt;Node17 -->
<g id="edge23" class="edge"><title>Node16&#45;&gt;Node17</title>
<path fill="none" stroke="midnightblue" d="M488.846,-378.372C521.731,-368.182 577.222,-350.988 618.898,-338.074"/>
<polygon fill="midnightblue" stroke="midnightblue" points="620.121,-341.359 628.637,-335.056 618.049,-334.673 620.121,-341.359"/>
</g>
<!-- Node19 -->
<g id="node19" class="node"><title>Node19</title>
<g id="a_node19"><a xlink:href="RxnRates_8h.html" target="_top" xlink:title="cantera/kinetics/RxnRates.h">
<polygon fill="white" stroke="black" points="200.5,-310.5 200.5,-329.5 337.5,-329.5 337.5,-310.5 200.5,-310.5"/>
<text text-anchor="middle" x="269" y="-317.5" font-family="FreeSans" font-size="10.00">cantera/kinetics/RxnRates.h</text>
</a>
</g>
</g>
<!-- Node16&#45;&gt;Node19 -->
<g id="edge26" class="edge"><title>Node16&#45;&gt;Node19</title>
<path fill="none" stroke="midnightblue" d="M435.899,-378.372C402.028,-366.728 341.551,-345.939 303.447,-332.841"/>
<polygon fill="midnightblue" stroke="midnightblue" points="304.397,-329.467 293.803,-329.526 302.122,-336.087 304.397,-329.467"/>
</g>
<!-- Node21 -->
<g id="node21" class="node"><title>Node21</title>
<g id="a_node21"><a xlink:href="Falloff_8h_source.html" target="_top" xlink:title="cantera/kinetics/Falloff.h">
<polygon fill="white" stroke="black" points="485.5,-310.5 485.5,-329.5 606.5,-329.5 606.5,-310.5 485.5,-310.5"/>
<text text-anchor="middle" x="546" y="-317.5" font-family="FreeSans" font-size="10.00">cantera/kinetics/Falloff.h</text>
</a>
</g>
</g>
<!-- Node16&#45;&gt;Node21 -->
<g id="edge31" class="edge"><title>Node16&#45;&gt;Node21</title>
<path fill="none" stroke="midnightblue" d="M472.112,-378.372C485.984,-367.6 509.937,-349.002 526.802,-335.906"/>
<polygon fill="midnightblue" stroke="midnightblue" points="529.133,-338.528 534.885,-329.63 524.84,-332.999 529.133,-338.528"/>
</g>
<!-- Node17&#45;&gt;Node6 -->
<g id="edge24" class="edge"><title>Node17&#45;&gt;Node6</title>
<path fill="none" stroke="midnightblue" d="M660.066,-304.951C651.179,-295.283 640.049,-281.749 633,-268 615.537,-233.936 610,-223.279 610,-185 610,-185 610,-185 610,-121 610,-60.8597 532.29,-31.119 485.185,-18.6154"/>
<polygon fill="midnightblue" stroke="midnightblue" points="485.905,-15.1875 475.352,-16.1363 484.193,-21.9751 485.905,-15.1875"/>
</g>
<!-- Node18 -->
<g id="node18" class="node"><title>Node18</title>
<polygon fill="white" stroke="#bfbfbf" points="641.5,-242.5 641.5,-261.5 706.5,-261.5 706.5,-242.5 641.5,-242.5"/>
<text text-anchor="middle" x="674" y="-249.5" font-family="FreeSans" font-size="10.00">tr1/memory</text>
</g>
<!-- Node17&#45;&gt;Node18 -->
<g id="edge25" class="edge"><title>Node17&#45;&gt;Node18</title>
<path fill="none" stroke="midnightblue" d="M674,-304.679C674,-295.101 674,-282.394 674,-271.977"/>
<polygon fill="midnightblue" stroke="midnightblue" points="677.5,-271.828 674,-261.828 670.5,-271.828 677.5,-271.828"/>
</g>
<!-- Node19&#45;&gt;Node4 -->
<g id="edge29" class="edge"><title>Node19&#45;&gt;Node4</title>
<path fill="none" stroke="midnightblue" d="M258.32,-310.402C247.497,-301.097 231.091,-285.258 222,-268 211.206,-247.508 206.507,-221.009 204.486,-203.532"/>
<polygon fill="midnightblue" stroke="midnightblue" points="207.962,-203.117 203.508,-193.504 200.996,-203.797 207.962,-203.117"/>
</g>
<!-- Node19&#45;&gt;Node8 -->
<g id="edge28" class="edge"><title>Node19&#45;&gt;Node8</title>
<path fill="none" stroke="midnightblue" d="M242.723,-310.372C207.113,-298.679 143.413,-277.762 103.554,-264.674"/>
<polygon fill="midnightblue" stroke="midnightblue" points="104.558,-261.32 93.9652,-261.526 102.374,-267.971 104.558,-261.32"/>
</g>
<!-- Node19&#45;&gt;Node10 -->
<g id="edge27" class="edge"><title>Node19&#45;&gt;Node10</title>
<path fill="none" stroke="midnightblue" d="M281.681,-310.372C295.538,-300.943 318.21,-285.517 336.556,-273.034"/>
<polygon fill="midnightblue" stroke="midnightblue" points="338.859,-275.701 345.158,-267.181 334.921,-269.913 338.859,-275.701"/>
</g>
<!-- Node20 -->
<g id="node20" class="node"><title>Node20</title>
<polygon fill="white" stroke="#bfbfbf" points="231.5,-242.5 231.5,-261.5 284.5,-261.5 284.5,-242.5 231.5,-242.5"/>
<text text-anchor="middle" x="258" y="-249.5" font-family="FreeSans" font-size="10.00">iostream</text>
</g>
<!-- Node19&#45;&gt;Node20 -->
<g id="edge30" class="edge"><title>Node19&#45;&gt;Node20</title>
<path fill="none" stroke="midnightblue" d="M267.562,-310.372C265.94,-300.643 263.255,-284.528 261.142,-271.85"/>
<polygon fill="midnightblue" stroke="midnightblue" points="264.57,-271.13 259.474,-261.841 257.665,-272.28 264.57,-271.13"/>
</g>
<!-- Node21&#45;&gt;Node11 -->
<g id="edge32" class="edge"><title>Node21&#45;&gt;Node11</title>
<path fill="none" stroke="midnightblue" d="M544.032,-310.208C539.484,-289.895 528.119,-239.132 521.339,-208.846"/>
<polygon fill="midnightblue" stroke="midnightblue" points="524.751,-208.065 519.15,-199.071 517.92,-209.594 524.751,-208.065"/>
</g>
</g>
</svg>
