<?xml version="1.0" encoding="UTF-8" standalone="no"?>
<!DOCTYPE svg PUBLIC "-//W3C//DTD SVG 1.1//EN"
 "http://www.w3.org/Graphics/SVG/1.1/DTD/svg11.dtd">
<!-- Generated by graphviz version 2.36.0 (20140111.2315)
 -->
<!-- Title: Reaction.h Pages: 1 -->
<svg width="1818pt" height="196pt"
 viewBox="0.00 0.00 1818.00 196.00" xmlns="http://www.w3.org/2000/svg" xmlns:xlink="http://www.w3.org/1999/xlink">
<g id="graph0" class="graph" transform="scale(1 1) rotate(0) translate(4 192)">
<title>Reaction.h</title>
<polygon fill="white" stroke="none" points="-4,4 -4,-192 1814,-192 1814,4 -4,4"/>
<!-- Node1 -->
<g id="node1" class="node"><title>Node1</title>
<polygon fill="#bfbfbf" stroke="black" points="394,-168.5 394,-187.5 456,-187.5 456,-168.5 394,-168.5"/>
<text text-anchor="middle" x="425" y="-175.5" font-family="FreeSans" font-size="10.00">Reaction.h</text>
</g>
<!-- Node2 -->
<g id="node2" class="node"><title>Node2</title>
<g id="a_node2"><a xlink:href="AqueousKinetics_8cpp.html" target="_top" xlink:title="Homogeneous kinetics in an aqueous phase, either condensed or dilute in salts. ">
<polygon fill="white" stroke="black" points="-0.5,-112.5 -0.5,-131.5 106.5,-131.5 106.5,-112.5 -0.5,-112.5"/>
<text text-anchor="middle" x="53" y="-119.5" font-family="FreeSans" font-size="10.00">AqueousKinetics.cpp</text>
</a>
</g>
</g>
<!-- Node1&#45;&gt;Node2 -->
<g id="edge1" class="edge"><title>Node1&#45;&gt;Node2</title>
<path fill="none" stroke="midnightblue" d="M383.656,-170.998C315.992,-161.176 181.652,-141.675 106.709,-130.796"/>
<polygon fill="midnightblue" stroke="midnightblue" points="383.524,-174.516 393.923,-172.489 384.53,-167.589 383.524,-174.516"/>
</g>
<!-- Node3 -->
<g id="node3" class="node"><title>Node3</title>
<g id="a_node3"><a xlink:href="BulkKinetics_8cpp_source.html" target="_top" xlink:title="BulkKinetics.cpp">
<polygon fill="white" stroke="black" points="124.5,-112.5 124.5,-131.5 213.5,-131.5 213.5,-112.5 124.5,-112.5"/>
<text text-anchor="middle" x="169" y="-119.5" font-family="FreeSans" font-size="10.00">BulkKinetics.cpp</text>
</a>
</g>
</g>
<!-- Node1&#45;&gt;Node3 -->
<g id="edge2" class="edge"><title>Node1&#45;&gt;Node3</title>
<path fill="none" stroke="midnightblue" d="M383.838,-168.317C335.92,-158.21 257.279,-141.621 209.602,-131.564"/>
<polygon fill="midnightblue" stroke="midnightblue" points="383.358,-171.793 393.865,-170.433 384.803,-164.944 383.358,-171.793"/>
</g>
<!-- Node4 -->
<g id="node4" class="node"><title>Node4</title>
<g id="a_node4"><a xlink:href="importKinetics_8cpp.html" target="_top" xlink:title="Declarations of global routines for the importing of kinetics data from XML files (see Input File Han...">
<polygon fill="white" stroke="black" points="232,-112.5 232,-131.5 328,-131.5 328,-112.5 232,-112.5"/>
<text text-anchor="middle" x="280" y="-119.5" font-family="FreeSans" font-size="10.00">importKinetics.cpp</text>
</a>
</g>
</g>
<!-- Node1&#45;&gt;Node4 -->
<g id="edge3" class="edge"><title>Node1&#45;&gt;Node4</title>
<path fill="none" stroke="midnightblue" d="M392.525,-164.906C365.264,-154.754 327.008,-140.506 302.868,-131.516"/>
<polygon fill="midnightblue" stroke="midnightblue" points="391.432,-168.233 402.024,-168.444 393.875,-161.674 391.432,-168.233"/>
</g>
<!-- Node5 -->
<g id="node5" class="node"><title>Node5</title>
<g id="a_node5"><a xlink:href="Kinetics_8cpp.html" target="_top" xlink:title="Declarations for the base class for kinetics managers (see Kinetics Managers and class Kinetics )...">
<polygon fill="white" stroke="black" points="346.5,-112.5 346.5,-131.5 415.5,-131.5 415.5,-112.5 346.5,-112.5"/>
<text text-anchor="middle" x="381" y="-119.5" font-family="FreeSans" font-size="10.00">Kinetics.cpp</text>
</a>
</g>
</g>
<!-- Node1&#45;&gt;Node5 -->
<g id="edge4" class="edge"><title>Node1&#45;&gt;Node5</title>
<path fill="none" stroke="midnightblue" d="M411.265,-160.144C403.599,-150.736 394.367,-139.405 388.131,-131.751"/>
<polygon fill="midnightblue" stroke="midnightblue" points="408.704,-162.541 417.734,-168.083 414.131,-158.12 408.704,-162.541"/>
</g>
<!-- Node6 -->
<g id="node6" class="node"><title>Node6</title>
<g id="a_node6"><a xlink:href="Reaction_8cpp.html" target="_top" xlink:title="Reaction.cpp">
<polygon fill="white" stroke="black" points="433.5,-112.5 433.5,-131.5 506.5,-131.5 506.5,-112.5 433.5,-112.5"/>
<text text-anchor="middle" x="470" y="-119.5" font-family="FreeSans" font-size="10.00">Reaction.cpp</text>
</a>
</g>
</g>
<!-- Node1&#45;&gt;Node6 -->
<g id="edge5" class="edge"><title>Node1&#45;&gt;Node6</title>
<path fill="none" stroke="midnightblue" d="M439.047,-160.144C446.887,-150.736 456.329,-139.405 462.707,-131.751"/>
<polygon fill="midnightblue" stroke="midnightblue" points="436.144,-158.16 432.431,-168.083 441.521,-162.641 436.144,-158.16"/>
</g>
<!-- Node7 -->
<g id="node7" class="node"><title>Node7</title>
<g id="a_node7"><a xlink:href="ReactionStoichMgr_8cpp.html" target="_top" xlink:title="ReactionStoichMgr.cpp">
<polygon fill="white" stroke="black" points="524.5,-112.5 524.5,-131.5 641.5,-131.5 641.5,-112.5 524.5,-112.5"/>
<text text-anchor="middle" x="583" y="-119.5" font-family="FreeSans" font-size="10.00">ReactionStoichMgr.cpp</text>
</a>
</g>
</g>
<!-- Node1&#45;&gt;Node7 -->
<g id="edge6" class="edge"><title>Node1&#45;&gt;Node7</title>
<path fill="none" stroke="midnightblue" d="M459.608,-165.172C489.359,-155.004 531.547,-140.585 558.082,-131.516"/>
<polygon fill="midnightblue" stroke="midnightblue" points="458.366,-161.898 450.036,-168.444 460.63,-168.521 458.366,-161.898"/>
</g>
<!-- Node8 -->
<g id="node8" class="node"><title>Node8</title>
<g id="a_node8"><a xlink:href="GasKinetics_8h.html" target="_top" xlink:title="GasKinetics.h">
<polygon fill="white" stroke="black" points="660,-112.5 660,-131.5 736,-131.5 736,-112.5 660,-112.5"/>
<text text-anchor="middle" x="698" y="-119.5" font-family="FreeSans" font-size="10.00">GasKinetics.h</text>
</a>
</g>
</g>
<!-- Node1&#45;&gt;Node8 -->
<g id="edge7" class="edge"><title>Node1&#45;&gt;Node8</title>
<path fill="none" stroke="midnightblue" d="M466.034,-168.883C518.584,-158.489 608.942,-140.616 659.991,-130.518"/>
<polygon fill="midnightblue" stroke="midnightblue" points="465.182,-165.484 456.051,-170.858 466.54,-172.351 465.182,-165.484"/>
</g>
<!-- Node17 -->
<g id="node17" class="node"><title>Node17</title>
<g id="a_node17"><a xlink:href="InterfaceKinetics_8h.html" target="_top" xlink:title="InterfaceKinetics.h">
<polygon fill="white" stroke="black" points="1116.5,-112.5 1116.5,-131.5 1213.5,-131.5 1213.5,-112.5 1116.5,-112.5"/>
<text text-anchor="middle" x="1165" y="-119.5" font-family="FreeSans" font-size="10.00">InterfaceKinetics.h</text>
</a>
</g>
</g>
<!-- Node1&#45;&gt;Node17 -->
<g id="edge16" class="edge"><title>Node1&#45;&gt;Node17</title>
<path fill="none" stroke="midnightblue" d="M466.448,-173.975C593.881,-164.676 979.527,-136.535 1116.27,-126.556"/>
<polygon fill="midnightblue" stroke="midnightblue" points="466.043,-170.496 456.324,-174.714 466.552,-177.477 466.043,-170.496"/>
</g>
<!-- Node9 -->
<g id="node9" class="node"><title>Node9</title>
<g id="a_node9"><a xlink:href="GasKinetics_8cpp.html" target="_top" xlink:title="Homogeneous kinetics in ideal gases. ">
<polygon fill="white" stroke="black" points="517,-56.5 517,-75.5 603,-75.5 603,-56.5 517,-56.5"/>
<text text-anchor="middle" x="560" y="-63.5" font-family="FreeSans" font-size="10.00">GasKinetics.cpp</text>
</a>
</g>
</g>
<!-- Node8&#45;&gt;Node9 -->
<g id="edge8" class="edge"><title>Node8&#45;&gt;Node9</title>
<path fill="none" stroke="midnightblue" d="M666.751,-108.772C640.829,-98.6287 604.638,-84.4669 581.764,-75.5164"/>
<polygon fill="midnightblue" stroke="midnightblue" points="665.546,-112.059 676.133,-112.444 668.096,-105.54 665.546,-112.059"/>
</g>
<!-- Node10 -->
<g id="node10" class="node"><title>Node10</title>
<g id="a_node10"><a xlink:href="KineticsFactory_8cpp.html" target="_top" xlink:title="KineticsFactory.cpp">
<polygon fill="white" stroke="black" points="587.5,-0.5 587.5,-19.5 688.5,-19.5 688.5,-0.5 587.5,-0.5"/>
<text text-anchor="middle" x="638" y="-7.5" font-family="FreeSans" font-size="10.00">KineticsFactory.cpp</text>
</a>
</g>
</g>
<!-- Node8&#45;&gt;Node10 -->
<g id="edge9" class="edge"><title>Node8&#45;&gt;Node10</title>
<path fill="none" stroke="midnightblue" d="M676.72,-106.092C667.087,-98.2353 656.439,-87.7843 650,-76 639.985,-57.6725 638.145,-32.5513 637.918,-19.5595"/>
<polygon fill="midnightblue" stroke="midnightblue" points="674.732,-108.978 684.793,-112.298 678.998,-103.428 674.732,-108.978"/>
</g>
<!-- Node11 -->
<g id="node11" class="node"><title>Node11</title>
<g id="a_node11"><a xlink:href="IdealGasMix_8h.html" target="_top" xlink:title="IdealGasMix.h">
<polygon fill="white" stroke="black" points="659.5,-56.5 659.5,-75.5 736.5,-75.5 736.5,-56.5 659.5,-56.5"/>
<text text-anchor="middle" x="698" y="-63.5" font-family="FreeSans" font-size="10.00">IdealGasMix.h</text>
</a>
</g>
</g>
<!-- Node8&#45;&gt;Node11 -->
<g id="edge10" class="edge"><title>Node8&#45;&gt;Node11</title>
<path fill="none" stroke="midnightblue" d="M698,-101.805C698,-92.9102 698,-82.7798 698,-75.7511"/>
<polygon fill="midnightblue" stroke="midnightblue" points="694.5,-102.083 698,-112.083 701.5,-102.083 694.5,-102.083"/>
</g>
<!-- Node12 -->
<g id="node12" class="node"><title>Node12</title>
<g id="a_node12"><a xlink:href="kinetics_8h_source.html" target="_top" xlink:title="kinetics.h">
<polygon fill="white" stroke="black" points="1136.5,-56.5 1136.5,-75.5 1193.5,-75.5 1193.5,-56.5 1136.5,-56.5"/>
<text text-anchor="middle" x="1165" y="-63.5" font-family="FreeSans" font-size="10.00">kinetics.h</text>
</a>
</g>
</g>
<!-- Node8&#45;&gt;Node12 -->
<g id="edge11" class="edge"><title>Node8&#45;&gt;Node12</title>
<path fill="none" stroke="midnightblue" d="M746.213,-116.841C823.858,-109.905 981.33,-94.8603 1114,-76 1121.3,-74.9623 1129.15,-73.666 1136.46,-72.3832"/>
<polygon fill="midnightblue" stroke="midnightblue" points="745.899,-113.355 736.247,-117.725 746.518,-120.327 745.899,-113.355"/>
</g>
<!-- Node13 -->
<g id="node13" class="node"><title>Node13</title>
<g id="a_node13"><a xlink:href="ExtraGlobalRxn_8cpp_source.html" target="_top" xlink:title="ExtraGlobalRxn.cpp">
<polygon fill="white" stroke="black" points="1590.5,-0.5 1590.5,-19.5 1691.5,-19.5 1691.5,-0.5 1590.5,-0.5"/>
<text text-anchor="middle" x="1641" y="-7.5" font-family="FreeSans" font-size="10.00">ExtraGlobalRxn.cpp</text>
</a>
</g>
</g>
<!-- Node12&#45;&gt;Node13 -->
<g id="edge12" class="edge"><title>Node12&#45;&gt;Node13</title>
<path fill="none" stroke="midnightblue" d="M1203.43,-56.1673C1370.78,-28.9754 1416.09,-39.9042 1580,-20 1583.4,-19.587 1586.9,-19.1367 1590.43,-18.6648"/>
<polygon fill="midnightblue" stroke="midnightblue" points="1202.85,-52.7167 1193.55,-57.7945 1203.98,-59.6237 1202.85,-52.7167"/>
</g>
<!-- Node14 -->
<g id="node14" class="node"><title>Node14</title>
<g id="a_node14"><a xlink:href="RxnMolChange_8cpp.html" target="_top" xlink:title="RxnMolChange.cpp">
<polygon fill="white" stroke="black" points="1710,-0.5 1710,-19.5 1810,-19.5 1810,-0.5 1710,-0.5"/>
<text text-anchor="middle" x="1760" y="-7.5" font-family="FreeSans" font-size="10.00">RxnMolChange.cpp</text>
</a>
</g>
</g>
<!-- Node12&#45;&gt;Node14 -->
<g id="edge13" class="edge"><title>Node12&#45;&gt;Node14</title>
<path fill="none" stroke="midnightblue" d="M1203.46,-56.2064C1423.63,-23.0084 1483.11,-44.0862 1700,-20 1703.25,-19.6396 1706.58,-19.2345 1709.95,-18.8008"/>
<polygon fill="midnightblue" stroke="midnightblue" points="1202.89,-52.7528 1193.54,-57.7233 1203.95,-59.6725 1202.89,-52.7528"/>
</g>
<!-- Node15 -->
<g id="node15" class="node"><title>Node15</title>
<g id="a_node15"><a xlink:href="Interface_8h.html" target="_top" xlink:title="Declaration and Definition for the class Interface. ">
<polygon fill="white" stroke="black" points="1113,-0.5 1113,-19.5 1175,-19.5 1175,-0.5 1113,-0.5"/>
<text text-anchor="middle" x="1144" y="-7.5" font-family="FreeSans" font-size="10.00">Interface.h</text>
</a>
</g>
</g>
<!-- Node12&#45;&gt;Node15 -->
<g id="edge14" class="edge"><title>Node12&#45;&gt;Node15</title>
<path fill="none" stroke="midnightblue" d="M1157.88,-46.6897C1154.34,-37.589 1150.23,-27.0141 1147.4,-19.7511"/>
<polygon fill="midnightblue" stroke="midnightblue" points="1154.65,-48.0315 1161.53,-56.083 1161.17,-45.4944 1154.65,-48.0315"/>
</g>
<!-- Node16 -->
<g id="node16" class="node"><title>Node16</title>
<g id="a_node16"><a xlink:href="PureFluid_8h.html" target="_top" xlink:title="PureFluid.h">
<polygon fill="white" stroke="black" points="1193.5,-0.5 1193.5,-19.5 1258.5,-19.5 1258.5,-0.5 1193.5,-0.5"/>
<text text-anchor="middle" x="1226" y="-7.5" font-family="FreeSans" font-size="10.00">PureFluid.h</text>
</a>
</g>
</g>
<!-- Node12&#45;&gt;Node16 -->
<g id="edge15" class="edge"><title>Node12&#45;&gt;Node16</title>
<path fill="none" stroke="midnightblue" d="M1182.47,-49.5372C1193.34,-39.9087 1206.94,-27.8694 1216.02,-19.8339"/>
<polygon fill="midnightblue" stroke="midnightblue" points="1179.97,-47.0749 1174.8,-56.324 1184.61,-52.3162 1179.97,-47.0749"/>
</g>
<!-- Node17&#45;&gt;Node10 -->
<g id="edge19" class="edge"><title>Node17&#45;&gt;Node10</title>
<path fill="none" stroke="midnightblue" d="M1106.04,-120.479C1030.01,-118.36 894.447,-109.647 784,-76 765.366,-70.3233 762.657,-64.2262 745,-56 715.955,-42.4687 681.713,-28.3867 659.935,-19.6579"/>
<polygon fill="midnightblue" stroke="midnightblue" points="1106.28,-123.986 1116.36,-120.736 1106.45,-116.988 1106.28,-123.986"/>
</g>
<!-- Node17&#45;&gt;Node12 -->
<g id="edge25" class="edge"><title>Node17&#45;&gt;Node12</title>
<path fill="none" stroke="midnightblue" d="M1165,-101.805C1165,-92.9102 1165,-82.7798 1165,-75.7511"/>
<polygon fill="midnightblue" stroke="midnightblue" points="1161.5,-102.083 1165,-112.083 1168.5,-102.083 1161.5,-102.083"/>
</g>
<!-- Node17&#45;&gt;Node13 -->
<g id="edge17" class="edge"><title>Node17&#45;&gt;Node13</title>
<path fill="none" stroke="midnightblue" d="M1223.82,-117.469C1289.28,-112.47 1397.75,-100.986 1488,-76 1539.73,-61.6777 1597.06,-33.8545 1624.54,-19.7095"/>
<polygon fill="midnightblue" stroke="midnightblue" points="1223.41,-113.99 1213.69,-118.217 1223.92,-120.971 1223.41,-113.99"/>
</g>
<!-- Node17&#45;&gt;Node14 -->
<g id="edge20" class="edge"><title>Node17&#45;&gt;Node14</title>
<path fill="none" stroke="midnightblue" d="M1223.76,-121.037C1343.77,-120.304 1612.61,-114.29 1695,-76 1722.21,-63.3551 1744.51,-34.2275 1754.44,-19.6456"/>
<polygon fill="midnightblue" stroke="midnightblue" points="1223.64,-117.538 1213.66,-121.088 1223.68,-124.538 1223.64,-117.538"/>
</g>
<!-- Node18 -->
<g id="node18" class="node"><title>Node18</title>
<g id="a_node18"><a xlink:href="InterfaceKinetics_8cpp.html" target="_top" xlink:title="InterfaceKinetics.cpp">
<polygon fill="white" stroke="black" points="771.5,-0.5 771.5,-19.5 878.5,-19.5 878.5,-0.5 771.5,-0.5"/>
<text text-anchor="middle" x="825" y="-7.5" font-family="FreeSans" font-size="10.00">InterfaceKinetics.cpp</text>
</a>
</g>
</g>
<!-- Node17&#45;&gt;Node18 -->
<g id="edge18" class="edge"><title>Node17&#45;&gt;Node18</title>
<path fill="none" stroke="midnightblue" d="M1106,-116.952C1055.36,-111.895 981.226,-100.67 921,-76 886.17,-61.7327 851,-33.6261 834.572,-19.5113"/>
<polygon fill="midnightblue" stroke="midnightblue" points="1105.83,-120.451 1116.12,-117.911 1106.49,-113.483 1105.83,-120.451"/>
</g>
<!-- Node19 -->
<g id="node19" class="node"><title>Node19</title>
<g id="a_node19"><a xlink:href="EdgeKinetics_8h.html" target="_top" xlink:title="EdgeKinetics.h">
<polygon fill="white" stroke="black" points="793,-56.5 793,-75.5 873,-75.5 873,-56.5 793,-56.5"/>
<text text-anchor="middle" x="833" y="-63.5" font-family="FreeSans" font-size="10.00">EdgeKinetics.h</text>
</a>
</g>
</g>
<!-- Node17&#45;&gt;Node19 -->
<g id="edge21" class="edge"><title>Node17&#45;&gt;Node19</title>
<path fill="none" stroke="midnightblue" d="M1106.14,-111.554C1049.86,-102.503 962.622,-88.4223 887,-76 882.498,-75.2605 877.786,-74.4819 873.101,-73.7049"/>
<polygon fill="midnightblue" stroke="midnightblue" points="1105.85,-115.052 1116.28,-113.184 1106.96,-108.141 1105.85,-115.052"/>
</g>
<!-- Node21 -->
<g id="node21" class="node"><title>Node21</title>
<g id="a_node21"><a xlink:href="ElectrodeKinetics_8h.html" target="_top" xlink:title="ElectrodeKinetics.h">
<polygon fill="white" stroke="black" points="1211.5,-56.5 1211.5,-75.5 1310.5,-75.5 1310.5,-56.5 1211.5,-56.5"/>
<text text-anchor="middle" x="1261" y="-63.5" font-family="FreeSans" font-size="10.00">ElectrodeKinetics.h</text>
</a>
</g>
</g>
<!-- Node17&#45;&gt;Node21 -->
<g id="edge26" class="edge"><title>Node17&#45;&gt;Node21</title>
<path fill="none" stroke="midnightblue" d="M1189.57,-107.177C1207.24,-97.2407 1230.51,-84.1492 1245.61,-75.6545"/>
<polygon fill="midnightblue" stroke="midnightblue" points="1187.42,-104.371 1180.42,-112.324 1190.86,-110.472 1187.42,-104.371"/>
</g>
<!-- Node23 -->
<g id="node23" class="node"><title>Node23</title>
<g id="a_node23"><a xlink:href="ExtraGlobalRxn_8h_source.html" target="_top" xlink:title="ExtraGlobalRxn.h">
<polygon fill="white" stroke="black" points="1596,-56.5 1596,-75.5 1686,-75.5 1686,-56.5 1596,-56.5"/>
<text text-anchor="middle" x="1641" y="-63.5" font-family="FreeSans" font-size="10.00">ExtraGlobalRxn.h</text>
</a>
</g>
</g>
<!-- Node17&#45;&gt;Node23 -->
<g id="edge28" class="edge"><title>Node17&#45;&gt;Node23</title>
<path fill="none" stroke="midnightblue" d="M1223.85,-114.324C1320.15,-103.399 1509.33,-81.9372 1595.86,-72.1204"/>
<polygon fill="midnightblue" stroke="midnightblue" points="1223.25,-110.87 1213.7,-115.475 1224.03,-117.825 1223.25,-110.87"/>
</g>
<!-- Node24 -->
<g id="node24" class="node"><title>Node24</title>
<g id="a_node24"><a xlink:href="ImplicitSurfChem_8h.html" target="_top" xlink:title="Declarations for the implicit integration of surface site density equations (see Kinetics Managers an...">
<polygon fill="white" stroke="black" points="929.5,-56.5 929.5,-75.5 1028.5,-75.5 1028.5,-56.5 929.5,-56.5"/>
<text text-anchor="middle" x="979" y="-63.5" font-family="FreeSans" font-size="10.00">ImplicitSurfChem.h</text>
</a>
</g>
</g>
<!-- Node17&#45;&gt;Node24 -->
<g id="edge31" class="edge"><title>Node17&#45;&gt;Node24</title>
<path fill="none" stroke="midnightblue" d="M1125.62,-109.568C1090.53,-99.381 1039.98,-84.7034 1008.33,-75.5164"/>
<polygon fill="midnightblue" stroke="midnightblue" points="1124.95,-113.017 1135.53,-112.444 1126.9,-106.294 1124.95,-113.017"/>
</g>
<!-- Node27 -->
<g id="node27" class="node"><title>Node27</title>
<g id="a_node27"><a xlink:href="solveSP_8h.html" target="_top" xlink:title="Header file for implicit surface problem solver (see Chemical Kinetics and class solveSP). ">
<polygon fill="white" stroke="black" points="1046.5,-56.5 1046.5,-75.5 1105.5,-75.5 1105.5,-56.5 1046.5,-56.5"/>
<text text-anchor="middle" x="1076" y="-63.5" font-family="FreeSans" font-size="10.00">solveSP.h</text>
</a>
</g>
</g>
<!-- Node17&#45;&gt;Node27 -->
<g id="edge35" class="edge"><title>Node17&#45;&gt;Node27</title>
<path fill="none" stroke="midnightblue" d="M1141.76,-106.901C1125.44,-96.9986 1104.13,-84.0705 1090.26,-75.6545"/>
<polygon fill="midnightblue" stroke="midnightblue" points="1140.34,-110.129 1150.7,-112.324 1143.97,-104.144 1140.34,-110.129"/>
</g>
<!-- Node28 -->
<g id="node28" class="node"><title>Node28</title>
<g id="a_node28"><a xlink:href="Inlet1D_8h.html" target="_top" xlink:title="Boundary objects for one&#45;dimensional simulations. ">
<polygon fill="white" stroke="black" points="1424.5,-56.5 1424.5,-75.5 1479.5,-75.5 1479.5,-56.5 1424.5,-56.5"/>
<text text-anchor="middle" x="1452" y="-63.5" font-family="FreeSans" font-size="10.00">Inlet1D.h</text>
</a>
</g>
</g>
<!-- Node17&#45;&gt;Node28 -->
<g id="edge38" class="edge"><title>Node17&#45;&gt;Node28</title>
<path fill="none" stroke="midnightblue" d="M1220.36,-110.584C1281.55,-99.0711 1377.64,-80.9906 1424.48,-72.1772"/>
<polygon fill="midnightblue" stroke="midnightblue" points="1219.66,-107.155 1210.48,-112.444 1220.95,-114.034 1219.66,-107.155"/>
</g>
<!-- Node31 -->
<g id="node31" class="node"><title>Node31</title>
<g id="a_node31"><a xlink:href="surface_8h_source.html" target="_top" xlink:title="surface.h">
<polygon fill="white" stroke="black" points="1329,-56.5 1329,-75.5 1385,-75.5 1385,-56.5 1329,-56.5"/>
<text text-anchor="middle" x="1357" y="-63.5" font-family="FreeSans" font-size="10.00">surface.h</text>
</a>
</g>
</g>
<!-- Node17&#45;&gt;Node31 -->
<g id="edge41" class="edge"><title>Node17&#45;&gt;Node31</title>
<path fill="none" stroke="midnightblue" d="M1205.39,-109.639C1242.44,-99.22 1296.35,-84.0581 1328.91,-74.9015"/>
<polygon fill="midnightblue" stroke="midnightblue" points="1204.1,-106.367 1195.42,-112.444 1206,-113.105 1204.1,-106.367"/>
</g>
<!-- Node19&#45;&gt;Node10 -->
<g id="edge23" class="edge"><title>Node19&#45;&gt;Node10</title>
<path fill="none" stroke="midnightblue" d="M792.19,-53.6986C755.387,-43.507 702.071,-28.7429 668.754,-19.5164"/>
<polygon fill="midnightblue" stroke="midnightblue" points="791.53,-57.1477 802.102,-56.4435 793.398,-50.4016 791.53,-57.1477"/>
</g>
<!-- Node19&#45;&gt;Node18 -->
<g id="edge22" class="edge"><title>Node19&#45;&gt;Node18</title>
<path fill="none" stroke="midnightblue" d="M830.2,-46.1005C828.872,-37.1357 827.349,-26.8579 826.296,-19.7511"/>
<polygon fill="midnightblue" stroke="midnightblue" points="826.751,-46.7039 831.679,-56.083 833.676,-45.678 826.751,-46.7039"/>
</g>
<!-- Node20 -->
<g id="node20" class="node"><title>Node20</title>
<g id="a_node20"><a xlink:href="Edge_8h.html" target="_top" xlink:title="Edge.h">
<polygon fill="white" stroke="black" points="707,-0.5 707,-19.5 753,-19.5 753,-0.5 707,-0.5"/>
<text text-anchor="middle" x="730" y="-7.5" font-family="FreeSans" font-size="10.00">Edge.h</text>
</a>
</g>
</g>
<!-- Node19&#45;&gt;Node20 -->
<g id="edge24" class="edge"><title>Node19&#45;&gt;Node20</title>
<path fill="none" stroke="midnightblue" d="M807.421,-51.5895C788.377,-41.6052 762.936,-28.2672 746.508,-19.6545"/>
<polygon fill="midnightblue" stroke="midnightblue" points="805.969,-54.7805 816.451,-56.324 809.22,-48.5808 805.969,-54.7805"/>
</g>
<!-- Node22 -->
<g id="node22" class="node"><title>Node22</title>
<g id="a_node22"><a xlink:href="ElectrodeKinetics_8cpp.html" target="_top" xlink:title="ElectrodeKinetics.cpp">
<polygon fill="white" stroke="black" points="1277,-0.5 1277,-19.5 1387,-19.5 1387,-0.5 1277,-0.5"/>
<text text-anchor="middle" x="1332" y="-7.5" font-family="FreeSans" font-size="10.00">ElectrodeKinetics.cpp</text>
</a>
</g>
</g>
<!-- Node21&#45;&gt;Node22 -->
<g id="edge27" class="edge"><title>Node21&#45;&gt;Node22</title>
<path fill="none" stroke="midnightblue" d="M1280.59,-50.1008C1293.37,-40.3824 1309.61,-28.0269 1320.39,-19.8339"/>
<polygon fill="midnightblue" stroke="midnightblue" points="1278.25,-47.4844 1272.41,-56.324 1282.49,-53.0561 1278.25,-47.4844"/>
</g>
<!-- Node23&#45;&gt;Node13 -->
<g id="edge29" class="edge"><title>Node23&#45;&gt;Node13</title>
<path fill="none" stroke="midnightblue" d="M1641,-45.8045C1641,-36.9102 1641,-26.7798 1641,-19.7511"/>
<polygon fill="midnightblue" stroke="midnightblue" points="1637.5,-46.083 1641,-56.083 1644.5,-46.083 1637.5,-46.083"/>
</g>
<!-- Node23&#45;&gt;Node14 -->
<g id="edge30" class="edge"><title>Node23&#45;&gt;Node14</title>
<path fill="none" stroke="midnightblue" d="M1669.14,-52.2321C1691.4,-42.1312 1721.86,-28.3091 1741.23,-19.5164"/>
<polygon fill="midnightblue" stroke="midnightblue" points="1667.52,-49.124 1659.86,-56.4435 1670.41,-55.4984 1667.52,-49.124"/>
</g>
<!-- Node24&#45;&gt;Node18 -->
<g id="edge33" class="edge"><title>Node24&#45;&gt;Node18</title>
<path fill="none" stroke="midnightblue" d="M944.889,-53.0392C915.913,-42.8786 875.038,-28.5457 849.288,-19.5164"/>
<polygon fill="midnightblue" stroke="midnightblue" points="944.003,-56.4373 954.598,-56.4435 946.32,-49.8317 944.003,-56.4373"/>
</g>
<!-- Node25 -->
<g id="node25" class="node"><title>Node25</title>
<g id="a_node25"><a xlink:href="ImplicitSurfChem_8cpp.html" target="_top" xlink:title="Definitions for the implicit integration of surface site density equations (see Kinetics Managers and...">
<polygon fill="white" stroke="black" points="985,-0.5 985,-19.5 1095,-19.5 1095,-0.5 985,-0.5"/>
<text text-anchor="middle" x="1040" y="-7.5" font-family="FreeSans" font-size="10.00">ImplicitSurfChem.cpp</text>
</a>
</g>
</g>
<!-- Node24&#45;&gt;Node25 -->
<g id="edge32" class="edge"><title>Node24&#45;&gt;Node25</title>
<path fill="none" stroke="midnightblue" d="M996.467,-49.5372C1007.34,-39.9087 1020.94,-27.8694 1030.02,-19.8339"/>
<polygon fill="midnightblue" stroke="midnightblue" points="993.968,-47.0749 988.801,-56.324 998.608,-52.3162 993.968,-47.0749"/>
</g>
<!-- Node26 -->
<g id="node26" class="node"><title>Node26</title>
<g id="a_node26"><a xlink:href="solveSP_8cpp_source.html" target="_top" xlink:title="solveSP.cpp">
<polygon fill="white" stroke="black" points="897,-0.5 897,-19.5 967,-19.5 967,-0.5 897,-0.5"/>
<text text-anchor="middle" x="932" y="-7.5" font-family="FreeSans" font-size="10.00">solveSP.cpp</text>
</a>
</g>
</g>
<!-- Node24&#45;&gt;Node26 -->
<g id="edge34" class="edge"><title>Node24&#45;&gt;Node26</title>
<path fill="none" stroke="midnightblue" d="M964.579,-48.4314C956.342,-38.9673 946.346,-27.4827 939.617,-19.7511"/>
<polygon fill="midnightblue" stroke="midnightblue" points="962.034,-50.8378 971.239,-56.083 967.314,-46.2421 962.034,-50.8378"/>
</g>
<!-- Node27&#45;&gt;Node25 -->
<g id="edge36" class="edge"><title>Node27&#45;&gt;Node25</title>
<path fill="none" stroke="midnightblue" d="M1064.38,-47.5656C1058.18,-38.2747 1050.83,-27.2484 1045.83,-19.7511"/>
<polygon fill="midnightblue" stroke="midnightblue" points="1061.6,-49.7039 1070.06,-56.083 1067.42,-45.821 1061.6,-49.7039"/>
</g>
<!-- Node27&#45;&gt;Node26 -->
<g id="edge37" class="edge"><title>Node27&#45;&gt;Node26</title>
<path fill="none" stroke="midnightblue" d="M1043.75,-52.9058C1016.68,-42.7536 978.683,-28.5063 954.71,-19.5164"/>
<polygon fill="midnightblue" stroke="midnightblue" points="1042.59,-56.2094 1053.18,-56.4435 1045.05,-49.6551 1042.59,-56.2094"/>
</g>
<!-- Node29 -->
<g id="node29" class="node"><title>Node29</title>
<g id="a_node29"><a xlink:href="boundaries1D_8cpp.html" target="_top" xlink:title="boundaries1D.cpp">
<polygon fill="white" stroke="black" points="1405.5,-0.5 1405.5,-19.5 1498.5,-19.5 1498.5,-0.5 1405.5,-0.5"/>
<text text-anchor="middle" x="1452" y="-7.5" font-family="FreeSans" font-size="10.00">boundaries1D.cpp</text>
</a>
</g>
</g>
<!-- Node28&#45;&gt;Node29 -->
<g id="edge39" class="edge"><title>Node28&#45;&gt;Node29</title>
<path fill="none" stroke="midnightblue" d="M1452,-45.8045C1452,-36.9102 1452,-26.7798 1452,-19.7511"/>
<polygon fill="midnightblue" stroke="midnightblue" points="1448.5,-46.083 1452,-56.083 1455.5,-46.083 1448.5,-46.083"/>
</g>
<!-- Node30 -->
<g id="node30" class="node"><title>Node30</title>
<g id="a_node30"><a xlink:href="onedim_8h.html" target="_top" xlink:title="onedim.h">
<polygon fill="white" stroke="black" points="1516,-0.5 1516,-19.5 1572,-19.5 1572,-0.5 1516,-0.5"/>
<text text-anchor="middle" x="1544" y="-7.5" font-family="FreeSans" font-size="10.00">onedim.h</text>
</a>
</g>
</g>
<!-- Node28&#45;&gt;Node30 -->
<g id="edge40" class="edge"><title>Node28&#45;&gt;Node30</title>
<path fill="none" stroke="midnightblue" d="M1475.55,-51.1774C1492.48,-41.2407 1514.78,-28.1492 1529.26,-19.6545"/>
<polygon fill="midnightblue" stroke="midnightblue" points="1473.63,-48.2435 1466.78,-56.324 1477.18,-54.2804 1473.63,-48.2435"/>
</g>
</g>
</svg>
