<?xml version="1.0" encoding="UTF-8" standalone="no"?>
<!DOCTYPE svg PUBLIC "-//W3C//DTD SVG 1.1//EN"
 "http://www.w3.org/Graphics/SVG/1.1/DTD/svg11.dtd">
<!-- Generated by graphviz version 2.36.0 (20140111.2315)
 -->
<!-- Title: ReactionData.h Pages: 1 -->
<svg width="1499pt" height="364pt"
 viewBox="0.00 0.00 1499.00 364.00" xmlns="http://www.w3.org/2000/svg" xmlns:xlink="http://www.w3.org/1999/xlink">
<g id="graph0" class="graph" transform="scale(1 1) rotate(0) translate(4 360)">
<title>ReactionData.h</title>
<polygon fill="white" stroke="none" points="-4,4 -4,-360 1495,-360 1495,4 -4,4"/>
<!-- Node1 -->
<g id="node1" class="node"><title>Node1</title>
<polygon fill="#bfbfbf" stroke="black" points="218.5,-336.5 218.5,-355.5 301.5,-355.5 301.5,-336.5 218.5,-336.5"/>
<text text-anchor="middle" x="260" y="-343.5" font-family="FreeSans" font-size="10.00">ReactionData.h</text>
</g>
<!-- Node2 -->
<g id="node2" class="node"><title>Node2</title>
<g id="a_node2"><a xlink:href="importKinetics_8cpp.html" target="_top" xlink:title="Declarations of global routines for the importing of kinetics data from XML files (see Input File Han...">
<polygon fill="white" stroke="black" points="0,-168.5 0,-187.5 96,-187.5 96,-168.5 0,-168.5"/>
<text text-anchor="middle" x="48" y="-175.5" font-family="FreeSans" font-size="10.00">importKinetics.cpp</text>
</a>
</g>
</g>
<!-- Node1&#45;&gt;Node2 -->
<g id="edge1" class="edge"><title>Node1&#45;&gt;Node2</title>
<path fill="none" stroke="midnightblue" d="M240.861,-330.014C197.543,-296.095 93.1125,-214.324 58.9897,-187.605"/>
<polygon fill="midnightblue" stroke="midnightblue" points="238.869,-332.899 248.9,-336.309 243.185,-327.388 238.869,-332.899"/>
</g>
<!-- Node3 -->
<g id="node3" class="node"><title>Node3</title>
<g id="a_node3"><a xlink:href="InterfaceKinetics_8cpp.html" target="_top" xlink:title="InterfaceKinetics.cpp">
<polygon fill="white" stroke="black" points="1321.5,-56.5 1321.5,-75.5 1428.5,-75.5 1428.5,-56.5 1321.5,-56.5"/>
<text text-anchor="middle" x="1375" y="-63.5" font-family="FreeSans" font-size="10.00">InterfaceKinetics.cpp</text>
</a>
</g>
</g>
<!-- Node1&#45;&gt;Node3 -->
<g id="edge2" class="edge"><title>Node1&#45;&gt;Node3</title>
<path fill="none" stroke="midnightblue" d="M311.943,-343.125C545.967,-334.344 1491,-295.16 1491,-235 1491,-235 1491,-235 1491,-177 1491,-125.378 1429.76,-90.7008 1396.28,-75.5966"/>
<polygon fill="midnightblue" stroke="midnightblue" points="311.526,-339.638 301.663,-343.509 311.786,-346.634 311.526,-339.638"/>
</g>
<!-- Node4 -->
<g id="node4" class="node"><title>Node4</title>
<g id="a_node4"><a xlink:href="Kinetics_8cpp.html" target="_top" xlink:title="Declarations for the base class for kinetics managers (see Kinetics Managers and class Kinetics )...">
<polygon fill="white" stroke="black" points="114.5,-168.5 114.5,-187.5 183.5,-187.5 183.5,-168.5 114.5,-168.5"/>
<text text-anchor="middle" x="149" y="-175.5" font-family="FreeSans" font-size="10.00">Kinetics.cpp</text>
</a>
</g>
</g>
<!-- Node1&#45;&gt;Node4 -->
<g id="edge3" class="edge"><title>Node1&#45;&gt;Node4</title>
<path fill="none" stroke="midnightblue" d="M248.172,-327.312C224.507,-291.921 172.112,-213.565 154.729,-187.568"/>
<polygon fill="midnightblue" stroke="midnightblue" points="245.564,-329.708 254.032,-336.075 251.383,-325.817 245.564,-329.708"/>
</g>
<!-- Node5 -->
<g id="node5" class="node"><title>Node5</title>
<g id="a_node5"><a xlink:href="ReactionStoichMgr_8cpp.html" target="_top" xlink:title="ReactionStoichMgr.cpp">
<polygon fill="white" stroke="black" points="201.5,-168.5 201.5,-187.5 318.5,-187.5 318.5,-168.5 201.5,-168.5"/>
<text text-anchor="middle" x="260" y="-175.5" font-family="FreeSans" font-size="10.00">ReactionStoichMgr.cpp</text>
</a>
</g>
</g>
<!-- Node1&#45;&gt;Node5 -->
<g id="edge4" class="edge"><title>Node1&#45;&gt;Node5</title>
<path fill="none" stroke="midnightblue" d="M260,-325.93C260,-289.92 260,-213.231 260,-187.568"/>
<polygon fill="midnightblue" stroke="midnightblue" points="256.5,-326.075 260,-336.075 263.5,-326.075 256.5,-326.075"/>
</g>
<!-- Node6 -->
<g id="node6" class="node"><title>Node6</title>
<g id="a_node6"><a xlink:href="RxnRates_8h.html" target="_top" xlink:title="RxnRates.h">
<polygon fill="white" stroke="black" points="432.5,-280.5 432.5,-299.5 497.5,-299.5 497.5,-280.5 432.5,-280.5"/>
<text text-anchor="middle" x="465" y="-287.5" font-family="FreeSans" font-size="10.00">RxnRates.h</text>
</a>
</g>
</g>
<!-- Node1&#45;&gt;Node6 -->
<g id="edge5" class="edge"><title>Node1&#45;&gt;Node6</title>
<path fill="none" stroke="midnightblue" d="M302.408,-333.829C341.114,-323.633 397.493,-308.782 432.669,-299.516"/>
<polygon fill="midnightblue" stroke="midnightblue" points="301.261,-330.512 292.483,-336.444 303.045,-337.281 301.261,-330.512"/>
</g>
<!-- Node7 -->
<g id="node7" class="node"><title>Node7</title>
<g id="a_node7"><a xlink:href="RxnRates_8cpp.html" target="_top" xlink:title="RxnRates.cpp">
<polygon fill="white" stroke="black" points="604,-224.5 604,-243.5 680,-243.5 680,-224.5 604,-224.5"/>
<text text-anchor="middle" x="642" y="-231.5" font-family="FreeSans" font-size="10.00">RxnRates.cpp</text>
</a>
</g>
</g>
<!-- Node6&#45;&gt;Node7 -->
<g id="edge6" class="edge"><title>Node6&#45;&gt;Node7</title>
<path fill="none" stroke="midnightblue" d="M502.903,-277.436C536.275,-267.255 584.101,-252.664 614.085,-243.516"/>
<polygon fill="midnightblue" stroke="midnightblue" points="501.59,-274.178 493.046,-280.444 503.632,-280.873 501.59,-274.178"/>
</g>
<!-- Node8 -->
<g id="node8" class="node"><title>Node8</title>
<g id="a_node8"><a xlink:href="RateCoeffMgr_8h.html" target="_top" xlink:title="RateCoeffMgr.h">
<polygon fill="white" stroke="black" points="502.5,-224.5 502.5,-243.5 585.5,-243.5 585.5,-224.5 502.5,-224.5"/>
<text text-anchor="middle" x="544" y="-231.5" font-family="FreeSans" font-size="10.00">RateCoeffMgr.h</text>
</a>
</g>
</g>
<!-- Node6&#45;&gt;Node8 -->
<g id="edge7" class="edge"><title>Node6&#45;&gt;Node8</title>
<path fill="none" stroke="midnightblue" d="M486.034,-274.622C500.466,-264.757 519.141,-251.992 531.339,-243.655"/>
<polygon fill="midnightblue" stroke="midnightblue" points="483.973,-271.791 477.693,-280.324 487.923,-277.57 483.973,-271.791"/>
</g>
<!-- Node26 -->
<g id="node26" class="node"><title>Node26</title>
<g id="a_node26"><a xlink:href="Reaction_8h.html" target="_top" xlink:title="Reaction.h">
<polygon fill="white" stroke="black" points="354,-224.5 354,-243.5 416,-243.5 416,-224.5 354,-224.5"/>
<text text-anchor="middle" x="385" y="-231.5" font-family="FreeSans" font-size="10.00">Reaction.h</text>
</a>
</g>
</g>
<!-- Node6&#45;&gt;Node26 -->
<g id="edge37" class="edge"><title>Node6&#45;&gt;Node26</title>
<path fill="none" stroke="midnightblue" d="M443.699,-274.622C429.085,-264.757 410.173,-251.992 397.821,-243.655"/>
<polygon fill="midnightblue" stroke="midnightblue" points="441.9,-277.63 452.147,-280.324 445.816,-271.828 441.9,-277.63"/>
</g>
<!-- Node8&#45;&gt;Node3 -->
<g id="edge8" class="edge"><title>Node8&#45;&gt;Node3</title>
<path fill="none" stroke="midnightblue" d="M595.894,-223.976C755.567,-202.176 797.851,-204.956 954,-188 1167.09,-164.862 1290.51,-292.118 1433,-132 1451,-111.776 1415.47,-88.0552 1392.47,-75.6151"/>
<polygon fill="midnightblue" stroke="midnightblue" points="595.138,-220.547 585.709,-225.378 596.092,-227.482 595.138,-220.547"/>
</g>
<!-- Node9 -->
<g id="node9" class="node"><title>Node9</title>
<g id="a_node9"><a xlink:href="BulkKinetics_8h.html" target="_top" xlink:title="BulkKinetics.h">
<polygon fill="white" stroke="black" points="505,-168.5 505,-187.5 583,-187.5 583,-168.5 505,-168.5"/>
<text text-anchor="middle" x="544" y="-175.5" font-family="FreeSans" font-size="10.00">BulkKinetics.h</text>
</a>
</g>
</g>
<!-- Node8&#45;&gt;Node9 -->
<g id="edge9" class="edge"><title>Node8&#45;&gt;Node9</title>
<path fill="none" stroke="midnightblue" d="M544,-213.805C544,-204.91 544,-194.78 544,-187.751"/>
<polygon fill="midnightblue" stroke="midnightblue" points="540.5,-214.083 544,-224.083 547.5,-214.083 540.5,-214.083"/>
</g>
<!-- Node18 -->
<g id="node18" class="node"><title>Node18</title>
<g id="a_node18"><a xlink:href="InterfaceKinetics_8h.html" target="_top" xlink:title="InterfaceKinetics.h">
<polygon fill="white" stroke="black" points="848.5,-168.5 848.5,-187.5 945.5,-187.5 945.5,-168.5 848.5,-168.5"/>
<text text-anchor="middle" x="897" y="-175.5" font-family="FreeSans" font-size="10.00">InterfaceKinetics.h</text>
</a>
</g>
</g>
<!-- Node8&#45;&gt;Node18 -->
<g id="edge19" class="edge"><title>Node8&#45;&gt;Node18</title>
<path fill="none" stroke="midnightblue" d="M595.849,-223.899C691.288,-208.458 790.59,-194.053 848.294,-185.849"/>
<polygon fill="midnightblue" stroke="midnightblue" points="595.043,-220.484 585.733,-225.542 596.165,-227.393 595.043,-220.484"/>
</g>
<!-- Node10 -->
<g id="node10" class="node"><title>Node10</title>
<g id="a_node10"><a xlink:href="BulkKinetics_8cpp_source.html" target="_top" xlink:title="BulkKinetics.cpp">
<polygon fill="white" stroke="black" points="340.5,-112.5 340.5,-131.5 429.5,-131.5 429.5,-112.5 340.5,-112.5"/>
<text text-anchor="middle" x="385" y="-119.5" font-family="FreeSans" font-size="10.00">BulkKinetics.cpp</text>
</a>
</g>
</g>
<!-- Node9&#45;&gt;Node10 -->
<g id="edge10" class="edge"><title>Node9&#45;&gt;Node10</title>
<path fill="none" stroke="midnightblue" d="M509.173,-165.172C479.234,-155.004 436.779,-140.585 410.076,-131.516"/>
<polygon fill="midnightblue" stroke="midnightblue" points="508.212,-168.542 518.806,-168.444 510.463,-161.914 508.212,-168.542"/>
</g>
<!-- Node11 -->
<g id="node11" class="node"><title>Node11</title>
<g id="a_node11"><a xlink:href="GasKinetics_8h.html" target="_top" xlink:title="GasKinetics.h">
<polygon fill="white" stroke="red" points="600,-112.5 600,-131.5 676,-131.5 676,-112.5 600,-112.5"/>
<text text-anchor="middle" x="638" y="-119.5" font-family="FreeSans" font-size="10.00">GasKinetics.h</text>
</a>
</g>
</g>
<!-- Node9&#45;&gt;Node11 -->
<g id="edge11" class="edge"><title>Node9&#45;&gt;Node11</title>
<path fill="none" stroke="midnightblue" d="M568.062,-163.177C585.359,-153.241 608.148,-140.149 622.935,-131.655"/>
<polygon fill="midnightblue" stroke="midnightblue" points="566.03,-160.308 559.103,-168.324 569.517,-166.378 566.03,-160.308"/>
</g>
<!-- Node16 -->
<g id="node16" class="node"><title>Node16</title>
<g id="a_node16"><a xlink:href="AqueousKinetics_8h.html" target="_top" xlink:title="AqueousKinetics.h">
<polygon fill="white" stroke="black" points="448,-112.5 448,-131.5 544,-131.5 544,-112.5 448,-112.5"/>
<text text-anchor="middle" x="496" y="-119.5" font-family="FreeSans" font-size="10.00">AqueousKinetics.h</text>
</a>
</g>
</g>
<!-- Node9&#45;&gt;Node16 -->
<g id="edge16" class="edge"><title>Node9&#45;&gt;Node16</title>
<path fill="none" stroke="midnightblue" d="M529.272,-160.431C520.86,-150.967 510.651,-139.483 503.779,-131.751"/>
<polygon fill="midnightblue" stroke="midnightblue" points="526.814,-162.934 536.074,-168.083 532.046,-158.284 526.814,-162.934"/>
</g>
<!-- Node12 -->
<g id="node12" class="node"><title>Node12</title>
<g id="a_node12"><a xlink:href="KineticsFactory_8cpp.html" target="_top" xlink:title="KineticsFactory.cpp">
<polygon fill="white" stroke="black" points="784.5,-56.5 784.5,-75.5 885.5,-75.5 885.5,-56.5 784.5,-56.5"/>
<text text-anchor="middle" x="835" y="-63.5" font-family="FreeSans" font-size="10.00">KineticsFactory.cpp</text>
</a>
</g>
</g>
<!-- Node11&#45;&gt;Node12 -->
<g id="edge12" class="edge"><title>Node11&#45;&gt;Node12</title>
<path fill="none" stroke="midnightblue" d="M679.229,-109.699C716.409,-99.507 770.271,-84.7429 803.931,-75.5164"/>
<polygon fill="midnightblue" stroke="midnightblue" points="677.934,-106.424 669.215,-112.444 679.785,-113.175 677.934,-106.424"/>
</g>
<!-- Node13 -->
<g id="node13" class="node"><title>Node13</title>
<g id="a_node13"><a xlink:href="kinetics_8h_source.html" target="_top" xlink:title="kinetics.h">
<polygon fill="white" stroke="red" points="600.5,-56.5 600.5,-75.5 657.5,-75.5 657.5,-56.5 600.5,-56.5"/>
<text text-anchor="middle" x="629" y="-63.5" font-family="FreeSans" font-size="10.00">kinetics.h</text>
</a>
</g>
</g>
<!-- Node11&#45;&gt;Node13 -->
<g id="edge13" class="edge"><title>Node11&#45;&gt;Node13</title>
<path fill="none" stroke="midnightblue" d="M634.85,-102.101C633.356,-93.1357 631.643,-82.8579 630.459,-75.7511"/>
<polygon fill="midnightblue" stroke="midnightblue" points="631.417,-102.794 636.514,-112.083 638.322,-101.644 631.417,-102.794"/>
</g>
<!-- Node14 -->
<g id="node14" class="node"><title>Node14</title>
<g id="a_node14"><a xlink:href="ExtraGlobalRxn_8cpp_source.html" target="_top" xlink:title="ExtraGlobalRxn.cpp">
<polygon fill="white" stroke="black" points="564.5,-0.5 564.5,-19.5 665.5,-19.5 665.5,-0.5 564.5,-0.5"/>
<text text-anchor="middle" x="615" y="-7.5" font-family="FreeSans" font-size="10.00">ExtraGlobalRxn.cpp</text>
</a>
</g>
</g>
<!-- Node13&#45;&gt;Node14 -->
<g id="edge14" class="edge"><title>Node13&#45;&gt;Node14</title>
<path fill="none" stroke="midnightblue" d="M624.177,-46.3956C621.835,-37.362 619.132,-26.936 617.269,-19.7511"/>
<polygon fill="midnightblue" stroke="midnightblue" points="620.79,-47.2814 626.688,-56.083 627.566,-45.5246 620.79,-47.2814"/>
</g>
<!-- Node15 -->
<g id="node15" class="node"><title>Node15</title>
<g id="a_node15"><a xlink:href="RxnMolChange_8cpp.html" target="_top" xlink:title="RxnMolChange.cpp">
<polygon fill="white" stroke="black" points="684,-0.5 684,-19.5 784,-19.5 784,-0.5 684,-0.5"/>
<text text-anchor="middle" x="734" y="-7.5" font-family="FreeSans" font-size="10.00">RxnMolChange.cpp</text>
</a>
</g>
</g>
<!-- Node13&#45;&gt;Node15 -->
<g id="edge15" class="edge"><title>Node13&#45;&gt;Node15</title>
<path fill="none" stroke="midnightblue" d="M654.81,-51.7261C674.253,-41.7271 700.348,-28.3065 717.172,-19.6545"/>
<polygon fill="midnightblue" stroke="midnightblue" points="653.162,-48.6379 645.87,-56.324 656.364,-54.8629 653.162,-48.6379"/>
</g>
<!-- Node16&#45;&gt;Node12 -->
<g id="edge18" class="edge"><title>Node16&#45;&gt;Node12</title>
<path fill="none" stroke="midnightblue" d="M554.274,-111.717C619.139,-101.385 722.914,-84.8545 784.468,-75.0494"/>
<polygon fill="midnightblue" stroke="midnightblue" points="553.535,-108.291 544.21,-113.32 554.637,-115.204 553.535,-108.291"/>
</g>
<!-- Node17 -->
<g id="node17" class="node"><title>Node17</title>
<g id="a_node17"><a xlink:href="AqueousKinetics_8cpp.html" target="_top" xlink:title="Homogeneous kinetics in an aqueous phase, either condensed or dilute in salts. ">
<polygon fill="white" stroke="black" points="347.5,-56.5 347.5,-75.5 454.5,-75.5 454.5,-56.5 347.5,-56.5"/>
<text text-anchor="middle" x="401" y="-63.5" font-family="FreeSans" font-size="10.00">AqueousKinetics.cpp</text>
</a>
</g>
</g>
<!-- Node16&#45;&gt;Node17 -->
<g id="edge17" class="edge"><title>Node16&#45;&gt;Node17</title>
<path fill="none" stroke="midnightblue" d="M471.682,-107.177C454.201,-97.2407 431.17,-84.1492 416.226,-75.6545"/>
<polygon fill="midnightblue" stroke="midnightblue" points="470.313,-110.425 480.737,-112.324 473.773,-104.339 470.313,-110.425"/>
</g>
<!-- Node18&#45;&gt;Node3 -->
<g id="edge21" class="edge"><title>Node18&#45;&gt;Node3</title>
<path fill="none" stroke="midnightblue" d="M955.872,-173.427C1047.66,-167.291 1220.32,-153.313 1278,-132 1296.35,-125.219 1342.16,-91.7182 1363.6,-75.6401"/>
<polygon fill="midnightblue" stroke="midnightblue" points="955.38,-169.952 945.631,-174.102 955.84,-176.937 955.38,-169.952"/>
</g>
<!-- Node18&#45;&gt;Node12 -->
<g id="edge22" class="edge"><title>Node18&#45;&gt;Node12</title>
<path fill="none" stroke="midnightblue" d="M909.024,-160.028C917.108,-146.346 924.817,-126.984 916,-112 905.231,-93.6984 884.032,-82.3062 866.023,-75.5639"/>
<polygon fill="midnightblue" stroke="midnightblue" points="906.056,-158.171 903.565,-168.469 911.934,-161.972 906.056,-158.171"/>
</g>
<!-- Node18&#45;&gt;Node13 -->
<g id="edge27" class="edge"><title>Node18&#45;&gt;Node13</title>
<path fill="none" stroke="midnightblue" d="M848.729,-165.99C817.863,-158.201 777.326,-146.563 743,-132 704.409,-115.627 662.4,-89.2113 641.823,-75.6473"/>
<polygon fill="midnightblue" stroke="midnightblue" points="848.255,-169.478 858.803,-168.483 849.936,-162.683 848.255,-169.478"/>
</g>
<!-- Node18&#45;&gt;Node14 -->
<g id="edge20" class="edge"><title>Node18&#45;&gt;Node14</title>
<path fill="none" stroke="midnightblue" d="M837.799,-177.086C757.986,-175.796 622.239,-168.169 591,-132 562.303,-98.7741 594.956,-41.1702 609.105,-19.5374"/>
<polygon fill="midnightblue" stroke="midnightblue" points="838.151,-180.591 848.197,-177.223 838.244,-173.591 838.151,-180.591"/>
</g>
<!-- Node18&#45;&gt;Node15 -->
<g id="edge23" class="edge"><title>Node18&#45;&gt;Node15</title>
<path fill="none" stroke="midnightblue" d="M850.766,-165.505C817.659,-154.9 781.738,-137.001 799,-112 826.847,-71.6676 923.596,-95.0676 894,-56 880.67,-38.4044 826.123,-25.7673 784.387,-18.4469"/>
<polygon fill="midnightblue" stroke="midnightblue" points="849.848,-168.885 860.434,-168.433 851.877,-162.185 849.848,-168.885"/>
</g>
<!-- Node19 -->
<g id="node19" class="node"><title>Node19</title>
<g id="a_node19"><a xlink:href="EdgeKinetics_8h.html" target="_top" xlink:title="EdgeKinetics.h">
<polygon fill="white" stroke="red" points="1189,-112.5 1189,-131.5 1269,-131.5 1269,-112.5 1189,-112.5"/>
<text text-anchor="middle" x="1229" y="-119.5" font-family="FreeSans" font-size="10.00">EdgeKinetics.h</text>
</a>
</g>
</g>
<!-- Node18&#45;&gt;Node19 -->
<g id="edge24" class="edge"><title>Node18&#45;&gt;Node19</title>
<path fill="none" stroke="midnightblue" d="M955.627,-167.992C1012.71,-159.14 1101.88,-145.092 1179,-132 1182.22,-131.454 1185.55,-130.877 1188.9,-130.291"/>
<polygon fill="midnightblue" stroke="midnightblue" points="955.049,-164.54 945.703,-169.529 956.121,-171.457 955.049,-164.54"/>
</g>
<!-- Node20 -->
<g id="node20" class="node"><title>Node20</title>
<g id="a_node20"><a xlink:href="ElectrodeKinetics_8h.html" target="_top" xlink:title="ElectrodeKinetics.h">
<polygon fill="white" stroke="red" points="808.5,-112.5 808.5,-131.5 907.5,-131.5 907.5,-112.5 808.5,-112.5"/>
<text text-anchor="middle" x="858" y="-119.5" font-family="FreeSans" font-size="10.00">ElectrodeKinetics.h</text>
</a>
</g>
</g>
<!-- Node18&#45;&gt;Node20 -->
<g id="edge28" class="edge"><title>Node18&#45;&gt;Node20</title>
<path fill="none" stroke="midnightblue" d="M884.618,-159.855C877.865,-150.505 869.791,-139.327 864.32,-131.751"/>
<polygon fill="midnightblue" stroke="midnightblue" points="881.868,-162.025 890.56,-168.083 887.542,-157.927 881.868,-162.025"/>
</g>
<!-- Node21 -->
<g id="node21" class="node"><title>Node21</title>
<g id="a_node21"><a xlink:href="ExtraGlobalRxn_8h_source.html" target="_top" xlink:title="ExtraGlobalRxn.h">
<polygon fill="white" stroke="black" points="676,-56.5 676,-75.5 766,-75.5 766,-56.5 676,-56.5"/>
<text text-anchor="middle" x="721" y="-63.5" font-family="FreeSans" font-size="10.00">ExtraGlobalRxn.h</text>
</a>
</g>
</g>
<!-- Node18&#45;&gt;Node21 -->
<g id="edge29" class="edge"><title>Node18&#45;&gt;Node21</title>
<path fill="none" stroke="midnightblue" d="M839.992,-165.827C815.479,-158.999 787.568,-148.331 766,-132 745.866,-116.755 731.428,-89.8458 724.899,-75.915"/>
<polygon fill="midnightblue" stroke="midnightblue" points="839.344,-169.275 849.905,-168.436 841.125,-162.506 839.344,-169.275"/>
</g>
<!-- Node22 -->
<g id="node22" class="node"><title>Node22</title>
<g id="a_node22"><a xlink:href="ImplicitSurfChem_8h.html" target="_top" xlink:title="Declarations for the implicit integration of surface site density equations (see Kinetics Managers an...">
<polygon fill="white" stroke="red" points="1325.5,-112.5 1325.5,-131.5 1424.5,-131.5 1424.5,-112.5 1325.5,-112.5"/>
<text text-anchor="middle" x="1375" y="-119.5" font-family="FreeSans" font-size="10.00">ImplicitSurfChem.h</text>
</a>
</g>
</g>
<!-- Node18&#45;&gt;Node22 -->
<g id="edge32" class="edge"><title>Node18&#45;&gt;Node22</title>
<path fill="none" stroke="midnightblue" d="M956.227,-171.153C1036.65,-163.08 1184.84,-147.724 1311,-132 1315.68,-131.417 1320.54,-130.783 1325.41,-130.131"/>
<polygon fill="midnightblue" stroke="midnightblue" points="955.415,-167.717 945.813,-172.196 956.112,-174.682 955.415,-167.717"/>
</g>
<!-- Node23 -->
<g id="node23" class="node"><title>Node23</title>
<g id="a_node23"><a xlink:href="solveSP_8h.html" target="_top" xlink:title="Header file for implicit surface problem solver (see Chemical Kinetics and class solveSP). ">
<polygon fill="white" stroke="red" points="964.5,-112.5 964.5,-131.5 1023.5,-131.5 1023.5,-112.5 964.5,-112.5"/>
<text text-anchor="middle" x="994" y="-119.5" font-family="FreeSans" font-size="10.00">solveSP.h</text>
</a>
</g>
</g>
<!-- Node18&#45;&gt;Node23 -->
<g id="edge34" class="edge"><title>Node18&#45;&gt;Node23</title>
<path fill="none" stroke="midnightblue" d="M921.335,-163.453C939.243,-153.483 963.054,-140.228 978.454,-131.655"/>
<polygon fill="midnightblue" stroke="midnightblue" points="919.62,-160.402 912.585,-168.324 923.025,-166.518 919.62,-160.402"/>
</g>
<!-- Node24 -->
<g id="node24" class="node"><title>Node24</title>
<g id="a_node24"><a xlink:href="Inlet1D_8h.html" target="_top" xlink:title="Boundary objects for one&#45;dimensional simulations. ">
<polygon fill="white" stroke="red" points="1041.5,-112.5 1041.5,-131.5 1096.5,-131.5 1096.5,-112.5 1041.5,-112.5"/>
<text text-anchor="middle" x="1069" y="-119.5" font-family="FreeSans" font-size="10.00">Inlet1D.h</text>
</a>
</g>
</g>
<!-- Node18&#45;&gt;Node24 -->
<g id="edge35" class="edge"><title>Node18&#45;&gt;Node24</title>
<path fill="none" stroke="midnightblue" d="M933.832,-165.436C966.262,-155.255 1012.74,-140.664 1041.87,-131.516"/>
<polygon fill="midnightblue" stroke="midnightblue" points="932.746,-162.109 924.254,-168.444 934.843,-168.787 932.746,-162.109"/>
</g>
<!-- Node25 -->
<g id="node25" class="node"><title>Node25</title>
<g id="a_node25"><a xlink:href="surface_8h_source.html" target="_top" xlink:title="surface.h">
<polygon fill="white" stroke="black" points="1115,-112.5 1115,-131.5 1171,-131.5 1171,-112.5 1115,-112.5"/>
<text text-anchor="middle" x="1143" y="-119.5" font-family="FreeSans" font-size="10.00">surface.h</text>
</a>
</g>
</g>
<!-- Node18&#45;&gt;Node25 -->
<g id="edge36" class="edge"><title>Node18&#45;&gt;Node25</title>
<path fill="none" stroke="midnightblue" d="M947.722,-166.315C989.875,-157.366 1051.41,-144.143 1105,-132 1108.17,-131.281 1111.49,-130.515 1114.79,-129.745"/>
<polygon fill="midnightblue" stroke="midnightblue" points="946.762,-162.941 937.705,-168.439 948.214,-169.789 946.762,-162.941"/>
</g>
<!-- Node19&#45;&gt;Node3 -->
<g id="edge25" class="edge"><title>Node19&#45;&gt;Node3</title>
<path fill="none" stroke="midnightblue" d="M1261.7,-108.906C1289.15,-98.7536 1327.67,-84.5063 1351.97,-75.5164"/>
<polygon fill="midnightblue" stroke="midnightblue" points="1260.3,-105.692 1252.13,-112.444 1262.73,-112.257 1260.3,-105.692"/>
</g>
<!-- Node19&#45;&gt;Node12 -->
<g id="edge26" class="edge"><title>Node19&#45;&gt;Node12</title>
<path fill="none" stroke="midnightblue" d="M1179.3,-112.047C1179.2,-112.031 1179.1,-112.016 1179,-112 1074.99,-95.8462 952.688,-80.7776 885.529,-72.8398"/>
<polygon fill="midnightblue" stroke="midnightblue" points="1178.48,-115.459 1188.91,-113.609 1179.6,-108.55 1178.48,-115.459"/>
</g>
<!-- Node21&#45;&gt;Node14 -->
<g id="edge30" class="edge"><title>Node21&#45;&gt;Node14</title>
<path fill="none" stroke="midnightblue" d="M694.944,-51.7261C675.316,-41.7271 648.972,-28.3065 631.988,-19.6545"/>
<polygon fill="midnightblue" stroke="midnightblue" points="693.47,-54.9033 703.969,-56.324 696.648,-48.666 693.47,-54.9033"/>
</g>
<!-- Node21&#45;&gt;Node15 -->
<g id="edge31" class="edge"><title>Node21&#45;&gt;Node15</title>
<path fill="none" stroke="midnightblue" d="M725.55,-46.1005C727.708,-37.1357 730.182,-26.8579 731.893,-19.7511"/>
<polygon fill="midnightblue" stroke="midnightblue" points="722.085,-45.5415 723.147,-56.083 728.89,-47.18 722.085,-45.5415"/>
</g>
<!-- Node22&#45;&gt;Node3 -->
<g id="edge33" class="edge"><title>Node22&#45;&gt;Node3</title>
<path fill="none" stroke="midnightblue" d="M1375,-101.805C1375,-92.9102 1375,-82.7798 1375,-75.7511"/>
<polygon fill="midnightblue" stroke="midnightblue" points="1371.5,-102.083 1375,-112.083 1378.5,-102.083 1371.5,-102.083"/>
</g>
<!-- Node26&#45;&gt;Node2 -->
<g id="edge40" class="edge"><title>Node26&#45;&gt;Node2</title>
<path fill="none" stroke="midnightblue" d="M344.007,-226.431C281.524,-216.419 162.717,-197.382 96.1943,-186.723"/>
<polygon fill="midnightblue" stroke="midnightblue" points="343.472,-229.89 353.9,-228.017 344.58,-222.978 343.472,-229.89"/>
</g>
<!-- Node26&#45;&gt;Node4 -->
<g id="edge41" class="edge"><title>Node26&#45;&gt;Node4</title>
<path fill="none" stroke="midnightblue" d="M343.841,-223.582C298.42,-213.189 226.122,-196.646 183.538,-186.903"/>
<polygon fill="midnightblue" stroke="midnightblue" points="343.132,-227.01 353.661,-225.829 344.694,-220.187 343.132,-227.01"/>
</g>
<!-- Node26&#45;&gt;Node5 -->
<g id="edge43" class="edge"><title>Node26&#45;&gt;Node5</title>
<path fill="none" stroke="midnightblue" d="M355.759,-220.368C332.35,-210.255 300.159,-196.349 279.714,-187.516"/>
<polygon fill="midnightblue" stroke="midnightblue" points="354.625,-223.691 365.193,-224.444 357.401,-217.265 354.625,-223.691"/>
</g>
<!-- Node26&#45;&gt;Node10 -->
<g id="edge39" class="edge"><title>Node26&#45;&gt;Node10</title>
<path fill="none" stroke="midnightblue" d="M385,-214.348C385,-190.254 385,-149.308 385,-131.591"/>
<polygon fill="midnightblue" stroke="midnightblue" points="381.5,-214.368 385,-224.368 388.5,-214.369 381.5,-214.368"/>
</g>
<!-- Node26&#45;&gt;Node11 -->
<g id="edge44" class="edge"><title>Node26&#45;&gt;Node11</title>
<path fill="none" stroke="midnightblue" d="M426.136,-227.649C478.441,-220.239 565.186,-205.74 592,-188 613.445,-173.812 628.011,-145.928 634.373,-131.739"/>
<polygon fill="midnightblue" stroke="midnightblue" points="425.585,-224.191 416.162,-229.035 426.549,-231.125 425.585,-224.191"/>
</g>
<!-- Node26&#45;&gt;Node17 -->
<g id="edge38" class="edge"><title>Node26&#45;&gt;Node17</title>
<path fill="none" stroke="midnightblue" d="M368.227,-216.87C345.839,-193.3 311.18,-148.303 331,-112 340.623,-94.374 360.433,-82.622 376.531,-75.5617"/>
<polygon fill="midnightblue" stroke="midnightblue" points="366.01,-219.606 375.525,-224.264 370.992,-214.688 366.01,-219.606"/>
</g>
<!-- Node26&#45;&gt;Node18 -->
<g id="edge45" class="edge"><title>Node26&#45;&gt;Node18</title>
<path fill="none" stroke="midnightblue" d="M426.48,-228.625C520.191,-218.742 747.88,-194.727 848.181,-184.149"/>
<polygon fill="midnightblue" stroke="midnightblue" points="425.835,-225.174 416.257,-229.703 426.569,-232.135 425.835,-225.174"/>
</g>
<!-- Node27 -->
<g id="node27" class="node"><title>Node27</title>
<g id="a_node27"><a xlink:href="Reaction_8cpp.html" target="_top" xlink:title="Reaction.cpp">
<polygon fill="white" stroke="black" points="413.5,-168.5 413.5,-187.5 486.5,-187.5 486.5,-168.5 413.5,-168.5"/>
<text text-anchor="middle" x="450" y="-175.5" font-family="FreeSans" font-size="10.00">Reaction.cpp</text>
</a>
</g>
</g>
<!-- Node26&#45;&gt;Node27 -->
<g id="edge42" class="edge"><title>Node26&#45;&gt;Node27</title>
<path fill="none" stroke="midnightblue" d="M403.273,-217.82C414.918,-208.145 429.599,-195.948 439.367,-187.834"/>
<polygon fill="midnightblue" stroke="midnightblue" points="400.899,-215.242 395.443,-224.324 405.372,-220.626 400.899,-215.242"/>
</g>
</g>
</svg>
