<?xml version="1.0" encoding="UTF-8" standalone="no"?>
<!DOCTYPE svg PUBLIC "-//W3C//DTD SVG 1.1//EN"
 "http://www.w3.org/Graphics/SVG/1.1/DTD/svg11.dtd">
<!-- Generated by graphviz version 2.36.0 (20140111.2315)
 -->
<!-- Title: RedlichKwongMFTP.cpp Pages: 1 -->
<svg width="914pt" height="432pt"
 viewBox="0.00 0.00 914.38 432.00" xmlns="http://www.w3.org/2000/svg" xmlns:xlink="http://www.w3.org/1999/xlink">
<g id="graph0" class="graph" transform="scale(1 1) rotate(0) translate(4 428)">
<title>RedlichKwongMFTP.cpp</title>
<polygon fill="white" stroke="none" points="-4,4 -4,-428 910.379,-428 910.379,4 -4,4"/>
<!-- Node1 -->
<g id="node1" class="node"><title>Node1</title>
<polygon fill="#bfbfbf" stroke="black" points="254.5,-404.5 254.5,-423.5 377.5,-423.5 377.5,-404.5 254.5,-404.5"/>
<text text-anchor="middle" x="316" y="-411.5" font-family="FreeSans" font-size="10.00">RedlichKwongMFTP.cpp</text>
</g>
<!-- Node2 -->
<g id="node2" class="node"><title>Node2</title>
<g id="a_node2"><a xlink:href="RedlichKwongMFTP_8h.html" target="_top" xlink:title="Definition file for a derived class of ThermoPhase that assumes either an ideal gas or ideal solution...">
<polygon fill="white" stroke="black" points="294,-337 294,-367 440,-367 440,-337 294,-337"/>
<text text-anchor="start" x="302" y="-355" font-family="FreeSans" font-size="10.00">cantera/thermo/RedlichKwong</text>
<text text-anchor="middle" x="367" y="-344" font-family="FreeSans" font-size="10.00">MFTP.h</text>
</a>
</g>
</g>
<!-- Node1&#45;&gt;Node2 -->
<g id="edge1" class="edge"><title>Node1&#45;&gt;Node2</title>
<path fill="none" stroke="midnightblue" d="M323.307,-404.403C329.827,-396.733 339.658,-385.167 348.344,-374.948"/>
<polygon fill="midnightblue" stroke="midnightblue" points="351.171,-377.027 354.98,-367.141 345.837,-372.493 351.171,-377.027"/>
</g>
<!-- Node19 -->
<g id="node19" class="node"><title>Node19</title>
<g id="a_node19"><a xlink:href="mix__defs_8h.html" target="_top" xlink:title="cantera/thermo/mix\l_defs.h">
<polygon fill="white" stroke="black" points="138,-337 138,-367 238,-367 238,-337 138,-337"/>
<text text-anchor="start" x="146" y="-355" font-family="FreeSans" font-size="10.00">cantera/thermo/mix</text>
<text text-anchor="middle" x="188" y="-344" font-family="FreeSans" font-size="10.00">_defs.h</text>
</a>
</g>
</g>
<!-- Node1&#45;&gt;Node19 -->
<g id="edge24" class="edge"><title>Node1&#45;&gt;Node19</title>
<path fill="none" stroke="midnightblue" d="M297.661,-404.403C279.434,-395.86 250.897,-382.483 227.503,-371.517"/>
<polygon fill="midnightblue" stroke="midnightblue" points="228.707,-368.216 218.167,-367.141 225.736,-374.554 228.707,-368.216"/>
</g>
<!-- Node20 -->
<g id="node20" class="node"><title>Node20</title>
<g id="a_node20"><a xlink:href="ThermoFactory_8h.html" target="_top" xlink:title="Headers for the factory class that can create known ThermoPhase objects (see Thermodynamic Properties...">
<polygon fill="white" stroke="black" points="545,-224.5 545,-243.5 703,-243.5 703,-224.5 545,-224.5"/>
<text text-anchor="middle" x="624" y="-231.5" font-family="FreeSans" font-size="10.00">cantera/thermo/ThermoFactory.h</text>
</a>
</g>
</g>
<!-- Node1&#45;&gt;Node20 -->
<g id="edge25" class="edge"><title>Node1&#45;&gt;Node20</title>
<path fill="none" stroke="midnightblue" d="M366.632,-404.43C398.523,-397.625 439.792,-386.168 473,-368 530.77,-336.393 585.334,-279.223 610.091,-251.271"/>
<polygon fill="midnightblue" stroke="midnightblue" points="612.851,-253.432 616.788,-243.596 607.577,-248.83 612.851,-253.432"/>
</g>
<!-- Node26 -->
<g id="node26" class="node"><title>Node26</title>
<g id="a_node26"><a xlink:href="RootFind_8h.html" target="_top" xlink:title="Header file for implicit nonlinear solver of a one dimensional function (see Numerical Utilities with...">
<polygon fill="white" stroke="black" points="186,-280.5 186,-299.5 326,-299.5 326,-280.5 186,-280.5"/>
<text text-anchor="middle" x="256" y="-287.5" font-family="FreeSans" font-size="10.00">cantera/numerics/RootFind.h</text>
</a>
</g>
</g>
<!-- Node1&#45;&gt;Node26 -->
<g id="edge36" class="edge"><title>Node1&#45;&gt;Node26</title>
<path fill="none" stroke="midnightblue" d="M309.158,-404.437C302.384,-395.667 292.032,-381.452 285,-368 274.998,-348.869 266.699,-325.491 261.578,-309.548"/>
<polygon fill="midnightblue" stroke="midnightblue" points="264.871,-308.35 258.558,-299.842 258.187,-310.43 264.871,-308.35"/>
</g>
<!-- Node27 -->
<g id="node27" class="node"><title>Node27</title>
<g id="a_node27"><a xlink:href="stringUtils_8h.html" target="_top" xlink:title="Contains declarations for string manipulation functions within Cantera. ">
<polygon fill="white" stroke="black" points="32.5,-112.5 32.5,-131.5 157.5,-131.5 157.5,-112.5 32.5,-112.5"/>
<text text-anchor="middle" x="95" y="-119.5" font-family="FreeSans" font-size="10.00">cantera/base/stringUtils.h</text>
</a>
</g>
</g>
<!-- Node1&#45;&gt;Node27 -->
<g id="edge38" class="edge"><title>Node1&#45;&gt;Node27</title>
<path fill="none" stroke="midnightblue" d="M266.277,-404.458C177.287,-387.748 0,-347.382 0,-291 0,-291 0,-291 0,-233 0,-189.739 42.6084,-155.086 70.7548,-136.915"/>
<polygon fill="midnightblue" stroke="midnightblue" points="72.6613,-139.851 79.3127,-131.604 68.9703,-133.903 72.6613,-139.851"/>
</g>
<!-- Node28 -->
<g id="node28" class="node"><title>Node28</title>
<g id="a_node28"><a xlink:href="ctml_8h.html" target="_top" xlink:title="CTML (&quot;Cantera Markup Language&quot;) is the variant of XML that Cantera uses to store data...">
<polygon fill="white" stroke="black" points="425.5,-224.5 425.5,-243.5 526.5,-243.5 526.5,-224.5 425.5,-224.5"/>
<text text-anchor="middle" x="476" y="-231.5" font-family="FreeSans" font-size="10.00">cantera/base/ctml.h</text>
</a>
</g>
</g>
<!-- Node1&#45;&gt;Node28 -->
<g id="edge41" class="edge"><title>Node1&#45;&gt;Node28</title>
<path fill="none" stroke="midnightblue" d="M377.769,-405.745C403.235,-399.655 430.948,-388.482 449,-368 477.343,-335.842 479.037,-282.218 477.645,-253.881"/>
<polygon fill="midnightblue" stroke="midnightblue" points="481.125,-253.471 476.955,-243.731 474.141,-253.945 481.125,-253.471"/>
</g>
<!-- Node3 -->
<g id="node3" class="node"><title>Node3</title>
<g id="a_node3"><a xlink:href="MixtureFugacityTP_8h.html" target="_top" xlink:title="Header file for a derived class of ThermoPhase that handles non&#45;ideal mixtures based on the fugacity ...">
<polygon fill="white" stroke="black" points="344.5,-280.5 344.5,-299.5 449.5,-299.5 449.5,-280.5 344.5,-280.5"/>
<text text-anchor="middle" x="397" y="-287.5" font-family="FreeSans" font-size="10.00">MixtureFugacityTP.h</text>
</a>
</g>
</g>
<!-- Node2&#45;&gt;Node3 -->
<g id="edge2" class="edge"><title>Node2&#45;&gt;Node3</title>
<path fill="none" stroke="midnightblue" d="M374.11,-336.781C378.289,-328.422 383.611,-317.777 388.072,-308.856"/>
<polygon fill="midnightblue" stroke="midnightblue" points="391.293,-310.24 392.635,-299.731 385.032,-307.11 391.293,-310.24"/>
</g>
<!-- Node16 -->
<g id="node16" class="node"><title>Node16</title>
<g id="a_node16"><a xlink:href="Array_8h.html" target="_top" xlink:title="Header file for class Cantera::Array2D. ">
<polygon fill="white" stroke="black" points="62.5,-280.5 62.5,-299.5 167.5,-299.5 167.5,-280.5 62.5,-280.5"/>
<text text-anchor="middle" x="115" y="-287.5" font-family="FreeSans" font-size="10.00">cantera/base/Array.h</text>
</a>
</g>
</g>
<!-- Node2&#45;&gt;Node16 -->
<g id="edge20" class="edge"><title>Node2&#45;&gt;Node16</title>
<path fill="none" stroke="midnightblue" d="M307.917,-336.933C262.895,-326.213 201.815,-311.67 160.539,-301.843"/>
<polygon fill="midnightblue" stroke="midnightblue" points="161.292,-298.424 150.753,-299.513 159.671,-305.234 161.292,-298.424"/>
</g>
<!-- Node4 -->
<g id="node4" class="node"><title>Node4</title>
<g id="a_node4"><a xlink:href="ThermoPhase_8h.html" target="_top" xlink:title="Header file for class ThermoPhase, the base class for phases with thermodynamic properties, and the text for the Module thermoprops (see Thermodynamic Properties and class ThermoPhase). ">
<polygon fill="white" stroke="black" points="396,-168.5 396,-187.5 480,-187.5 480,-168.5 396,-168.5"/>
<text text-anchor="middle" x="438" y="-175.5" font-family="FreeSans" font-size="10.00">ThermoPhase.h</text>
</a>
</g>
</g>
<!-- Node3&#45;&gt;Node4 -->
<g id="edge3" class="edge"><title>Node3&#45;&gt;Node4</title>
<path fill="none" stroke="midnightblue" d="M399.008,-280.433C402.068,-267.852 408.356,-243.734 416,-224 419.573,-214.776 424.314,-204.864 428.48,-196.698"/>
<polygon fill="midnightblue" stroke="midnightblue" points="431.62,-198.247 433.159,-187.765 425.419,-194.999 431.62,-198.247"/>
</g>
<!-- Node12 -->
<g id="node12" class="node"><title>Node12</title>
<g id="a_node12"><a xlink:href="ResidEval_8h.html" target="_top" xlink:title="cantera/numerics/ResidEval.h">
<polygon fill="white" stroke="black" points="212.5,-224.5 212.5,-243.5 355.5,-243.5 355.5,-224.5 212.5,-224.5"/>
<text text-anchor="middle" x="284" y="-231.5" font-family="FreeSans" font-size="10.00">cantera/numerics/ResidEval.h</text>
</a>
</g>
</g>
<!-- Node3&#45;&gt;Node12 -->
<g id="edge12" class="edge"><title>Node3&#45;&gt;Node12</title>
<path fill="none" stroke="midnightblue" d="M379.095,-280.444C360.746,-271.675 331.995,-257.935 310.906,-247.858"/>
<polygon fill="midnightblue" stroke="midnightblue" points="312.353,-244.67 301.821,-243.516 309.335,-250.986 312.353,-244.67"/>
</g>
<!-- Node5 -->
<g id="node5" class="node"><title>Node5</title>
<g id="a_node5"><a xlink:href="Phase_8h.html" target="_top" xlink:title="Header file for class Phase. ">
<polygon fill="white" stroke="red" points="506.5,-112.5 506.5,-131.5 557.5,-131.5 557.5,-112.5 506.5,-112.5"/>
<text text-anchor="middle" x="532" y="-119.5" font-family="FreeSans" font-size="10.00">Phase.h</text>
</a>
</g>
</g>
<!-- Node4&#45;&gt;Node5 -->
<g id="edge4" class="edge"><title>Node4&#45;&gt;Node5</title>
<path fill="none" stroke="midnightblue" d="M453.103,-168.324C467.903,-159.822 490.694,-146.729 507.982,-136.797"/>
<polygon fill="midnightblue" stroke="midnightblue" points="510.007,-139.671 516.935,-131.655 506.52,-133.601 510.007,-139.671"/>
</g>
<!-- Node8 -->
<g id="node8" class="node"><title>Node8</title>
<g id="a_node8"><a xlink:href="SpeciesThermo_8h.html" target="_top" xlink:title="Virtual base class for the calculation of multiple&#45;species thermodynamic reference&#45;state property man...">
<polygon fill="white" stroke="red" points="396,-112.5 396,-131.5 488,-131.5 488,-112.5 396,-112.5"/>
<text text-anchor="middle" x="442" y="-119.5" font-family="FreeSans" font-size="10.00">SpeciesThermo.h</text>
</a>
</g>
</g>
<!-- Node4&#45;&gt;Node8 -->
<g id="edge7" class="edge"><title>Node4&#45;&gt;Node8</title>
<path fill="none" stroke="midnightblue" d="M438.661,-168.083C439.185,-161.006 439.936,-150.861 440.594,-141.986"/>
<polygon fill="midnightblue" stroke="midnightblue" points="444.103,-141.982 441.352,-131.751 437.123,-141.465 444.103,-141.982"/>
</g>
<!-- Node6 -->
<g id="node6" class="node"><title>Node6</title>
<g id="a_node6"><a xlink:href="ctexceptions_8h.html" target="_top" xlink:title="Definitions for the classes that are thrown when Cantera experiences an error condition (also contain...">
<polygon fill="white" stroke="red" points="364.5,-56.5 364.5,-75.5 501.5,-75.5 501.5,-56.5 364.5,-56.5"/>
<text text-anchor="middle" x="433" y="-63.5" font-family="FreeSans" font-size="10.00">cantera/base/ctexceptions.h</text>
</a>
</g>
</g>
<!-- Node5&#45;&gt;Node6 -->
<g id="edge5" class="edge"><title>Node5&#45;&gt;Node6</title>
<path fill="none" stroke="midnightblue" d="M516.094,-112.324C500.362,-103.743 476.058,-90.486 457.791,-80.5224"/>
<polygon fill="midnightblue" stroke="midnightblue" points="459.322,-77.3704 448.867,-75.6545 455.97,-83.5157 459.322,-77.3704"/>
</g>
<!-- Node7 -->
<g id="node7" class="node"><title>Node7</title>
<polygon fill="white" stroke="#bfbfbf" points="263,-0.5 263,-19.5 303,-19.5 303,-0.5 263,-0.5"/>
<text text-anchor="middle" x="283" y="-7.5" font-family="FreeSans" font-size="10.00">string</text>
</g>
<!-- Node6&#45;&gt;Node7 -->
<g id="edge6" class="edge"><title>Node6&#45;&gt;Node7</title>
<path fill="none" stroke="midnightblue" d="M409.232,-56.4435C383.187,-47.0673 341.352,-32.0068 313.05,-21.818"/>
<polygon fill="midnightblue" stroke="midnightblue" points="313.884,-18.3983 303.289,-18.3042 311.513,-24.9845 313.884,-18.3983"/>
</g>
<!-- Node9 -->
<g id="node9" class="node"><title>Node9</title>
<g id="a_node9"><a xlink:href="ct__defs_8h.html" target="_top" xlink:title="This file contains definitions of terms that are used in internal routines and are unlikely to need m...">
<polygon fill="white" stroke="red" points="226,-56.5 226,-75.5 340,-75.5 340,-56.5 226,-56.5"/>
<text text-anchor="middle" x="283" y="-63.5" font-family="FreeSans" font-size="10.00">cantera/base/ct_defs.h</text>
</a>
</g>
</g>
<!-- Node8&#45;&gt;Node9 -->
<g id="edge8" class="edge"><title>Node8&#45;&gt;Node9</title>
<path fill="none" stroke="midnightblue" d="M416.806,-112.444C390.057,-103.359 347.597,-88.9388 317.695,-78.7831"/>
<polygon fill="midnightblue" stroke="midnightblue" points="318.671,-75.4182 308.076,-75.5164 316.419,-82.0464 318.671,-75.4182"/>
</g>
<!-- Node9&#45;&gt;Node7 -->
<g id="edge11" class="edge"><title>Node9&#45;&gt;Node7</title>
<path fill="none" stroke="midnightblue" d="M283,-56.083C283,-49.0059 283,-38.8611 283,-29.9865"/>
<polygon fill="midnightblue" stroke="midnightblue" points="286.5,-29.751 283,-19.7511 279.5,-29.7511 286.5,-29.751"/>
</g>
<!-- Node10 -->
<g id="node10" class="node"><title>Node10</title>
<g id="a_node10"><a xlink:href="config_8h_source.html" target="_top" xlink:title="config.h">
<polygon fill="white" stroke="black" points="704,-0.5 704,-19.5 754,-19.5 754,-0.5 704,-0.5"/>
<text text-anchor="middle" x="729" y="-7.5" font-family="FreeSans" font-size="10.00">config.h</text>
</a>
</g>
</g>
<!-- Node9&#45;&gt;Node10 -->
<g id="edge9" class="edge"><title>Node9&#45;&gt;Node10</title>
<path fill="none" stroke="midnightblue" d="M340.375,-57.8039C345.321,-57.1909 350.249,-56.5828 355,-56 479.464,-40.7332 627.293,-23.0913 693.664,-15.1967"/>
<polygon fill="midnightblue" stroke="midnightblue" points="694.083,-18.6715 703.6,-14.0152 693.257,-11.7205 694.083,-18.6715"/>
</g>
<!-- Node11 -->
<g id="node11" class="node"><title>Node11</title>
<polygon fill="white" stroke="#bfbfbf" points="449.5,-0.5 449.5,-19.5 492.5,-19.5 492.5,-0.5 449.5,-0.5"/>
<text text-anchor="middle" x="471" y="-7.5" font-family="FreeSans" font-size="10.00">vector</text>
</g>
<!-- Node9&#45;&gt;Node11 -->
<g id="edge10" class="edge"><title>Node9&#45;&gt;Node11</title>
<path fill="none" stroke="midnightblue" d="M312.789,-56.4435C347.373,-46.5098 404.17,-30.1958 439.477,-20.0544"/>
<polygon fill="midnightblue" stroke="midnightblue" points="440.617,-23.3685 449.263,-17.2437 438.685,-16.6405 440.617,-23.3685"/>
</g>
<!-- Node12&#45;&gt;Node6 -->
<g id="edge14" class="edge"><title>Node12&#45;&gt;Node6</title>
<path fill="none" stroke="midnightblue" d="M290.982,-224.259C307.249,-204.013 349.17,-152.542 387,-112 396.337,-101.994 407.271,-91.2599 416.136,-82.7859"/>
<polygon fill="midnightblue" stroke="midnightblue" points="418.737,-85.1427 423.59,-75.7247 413.923,-80.0608 418.737,-85.1427"/>
</g>
<!-- Node12&#45;&gt;Node9 -->
<g id="edge13" class="edge"><title>Node12&#45;&gt;Node9</title>
<path fill="none" stroke="midnightblue" d="M282.668,-224.28C280.509,-211.508 275.598,-187.155 267,-168 255.911,-143.296 233.377,-137.311 243,-112 247.335,-100.598 256.031,-90.2394 264.21,-82.343"/>
<polygon fill="midnightblue" stroke="midnightblue" points="266.642,-84.8633 271.734,-75.5728 261.959,-79.6595 266.642,-84.8633"/>
</g>
<!-- Node13 -->
<g id="node13" class="node"><title>Node13</title>
<g id="a_node13"><a xlink:href="utilities_8h.html" target="_top" xlink:title="Various templated functions that carry out common vector operations (see Templated Utility Functions)...">
<polygon fill="white" stroke="red" points="85.5,-168.5 85.5,-187.5 198.5,-187.5 198.5,-168.5 85.5,-168.5"/>
<text text-anchor="middle" x="142" y="-175.5" font-family="FreeSans" font-size="10.00">cantera/base/utilities.h</text>
</a>
</g>
</g>
<!-- Node12&#45;&gt;Node13 -->
<g id="edge15" class="edge"><title>Node12&#45;&gt;Node13</title>
<path fill="none" stroke="midnightblue" d="M261.5,-224.444C237.923,-215.478 200.678,-201.314 174.036,-191.183"/>
<polygon fill="midnightblue" stroke="midnightblue" points="174.986,-187.8 164.395,-187.516 172.498,-194.342 174.986,-187.8"/>
</g>
<!-- Node15 -->
<g id="node15" class="node"><title>Node15</title>
<polygon fill="white" stroke="#bfbfbf" points="217,-168.5 217,-187.5 259,-187.5 259,-168.5 217,-168.5"/>
<text text-anchor="middle" x="238" y="-175.5" font-family="FreeSans" font-size="10.00">cstdio</text>
</g>
<!-- Node12&#45;&gt;Node15 -->
<g id="edge19" class="edge"><title>Node12&#45;&gt;Node15</title>
<path fill="none" stroke="midnightblue" d="M276.404,-224.083C269.773,-216.298 259.979,-204.801 251.942,-195.367"/>
<polygon fill="midnightblue" stroke="midnightblue" points="254.604,-193.094 245.455,-187.751 249.275,-197.633 254.604,-193.094"/>
</g>
<!-- Node13&#45;&gt;Node9 -->
<g id="edge16" class="edge"><title>Node13&#45;&gt;Node9</title>
<path fill="none" stroke="midnightblue" d="M149.864,-168.401C162.031,-155.357 186.476,-130.168 210,-112 225.175,-100.28 243.557,-88.963 258.079,-80.6099"/>
<polygon fill="midnightblue" stroke="midnightblue" points="260.007,-83.5406 266.992,-75.5742 256.564,-77.4461 260.007,-83.5406"/>
</g>
<!-- Node14 -->
<g id="node14" class="node"><title>Node14</title>
<g id="a_node14"><a xlink:href="global_8h.html" target="_top" xlink:title="This file contains definitions for utility functions and text for modules, inputfiles, logs, textlogs, (see Input File Handling, Diagnostic Output, and Writing messages to the screen). ">
<polygon fill="white" stroke="black" points="252,-112.5 252,-131.5 302,-131.5 302,-112.5 252,-112.5"/>
<text text-anchor="middle" x="277" y="-119.5" font-family="FreeSans" font-size="10.00">global.h</text>
</a>
</g>
</g>
<!-- Node13&#45;&gt;Node14 -->
<g id="edge17" class="edge"><title>Node13&#45;&gt;Node14</title>
<path fill="none" stroke="midnightblue" d="M163.391,-168.444C185.707,-159.517 220.903,-145.439 246.208,-135.317"/>
<polygon fill="midnightblue" stroke="midnightblue" points="247.724,-138.48 255.709,-131.516 245.124,-131.981 247.724,-138.48"/>
</g>
<!-- Node14&#45;&gt;Node9 -->
<g id="edge18" class="edge"><title>Node14&#45;&gt;Node9</title>
<path fill="none" stroke="midnightblue" d="M277.991,-112.083C278.786,-104.927 279.929,-94.6353 280.923,-85.6911"/>
<polygon fill="midnightblue" stroke="midnightblue" points="284.402,-86.0765 282.028,-75.7511 277.445,-85.3034 284.402,-86.0765"/>
</g>
<!-- Node16&#45;&gt;Node13 -->
<g id="edge21" class="edge"><title>Node16&#45;&gt;Node13</title>
<path fill="none" stroke="midnightblue" d="M125.714,-280.305C134.938,-272.069 147.591,-258.789 153,-244 158.584,-228.733 154.586,-210.399 149.919,-197.1"/>
<polygon fill="midnightblue" stroke="midnightblue" points="153.126,-195.69 146.204,-187.669 146.613,-198.256 153.126,-195.69"/>
</g>
<!-- Node17 -->
<g id="node17" class="node"><title>Node17</title>
<polygon fill="white" stroke="#bfbfbf" points="91.5,-224.5 91.5,-243.5 144.5,-243.5 144.5,-224.5 91.5,-224.5"/>
<text text-anchor="middle" x="118" y="-231.5" font-family="FreeSans" font-size="10.00">iostream</text>
</g>
<!-- Node16&#45;&gt;Node17 -->
<g id="edge22" class="edge"><title>Node16&#45;&gt;Node17</title>
<path fill="none" stroke="midnightblue" d="M115.495,-280.083C115.889,-273.006 116.452,-262.861 116.945,-253.986"/>
<polygon fill="midnightblue" stroke="midnightblue" points="120.454,-253.93 117.514,-243.751 113.464,-253.542 120.454,-253.93"/>
</g>
<!-- Node18 -->
<g id="node18" class="node"><title>Node18</title>
<polygon fill="white" stroke="#bfbfbf" points="28.5,-224.5 28.5,-243.5 73.5,-243.5 73.5,-224.5 28.5,-224.5"/>
<text text-anchor="middle" x="51" y="-231.5" font-family="FreeSans" font-size="10.00">cstring</text>
</g>
<!-- Node16&#45;&gt;Node18 -->
<g id="edge23" class="edge"><title>Node16&#45;&gt;Node18</title>
<path fill="none" stroke="midnightblue" d="M104.717,-280.324C95.1637,-272.263 80.7203,-260.077 69.2157,-250.369"/>
<polygon fill="midnightblue" stroke="midnightblue" points="71.3698,-247.608 61.4698,-243.834 66.8557,-252.958 71.3698,-247.608"/>
</g>
<!-- Node20&#45;&gt;Node4 -->
<g id="edge26" class="edge"><title>Node20&#45;&gt;Node4</title>
<path fill="none" stroke="midnightblue" d="M594.528,-224.444C562.829,-215.241 512.268,-200.562 477.225,-190.388"/>
<polygon fill="midnightblue" stroke="midnightblue" points="477.914,-186.943 467.334,-187.516 475.962,-193.666 477.914,-186.943"/>
</g>
<!-- Node21 -->
<g id="node21" class="node"><title>Node21</title>
<g id="a_node21"><a xlink:href="xml_8h.html" target="_top" xlink:title="Classes providing support for XML data files. ">
<polygon fill="white" stroke="black" points="498,-168.5 498,-187.5 596,-187.5 596,-168.5 498,-168.5"/>
<text text-anchor="middle" x="547" y="-175.5" font-family="FreeSans" font-size="10.00">cantera/base/xml.h</text>
</a>
</g>
</g>
<!-- Node20&#45;&gt;Node21 -->
<g id="edge27" class="edge"><title>Node20&#45;&gt;Node21</title>
<path fill="none" stroke="midnightblue" d="M611.629,-224.324C599.842,-216.058 581.868,-203.453 567.864,-193.632"/>
<polygon fill="midnightblue" stroke="midnightblue" points="569.538,-190.531 559.341,-187.655 565.518,-196.262 569.538,-190.531"/>
</g>
<!-- Node22 -->
<g id="node22" class="node"><title>Node22</title>
<g id="a_node22"><a xlink:href="ct__thread_8h.html" target="_top" xlink:title="cantera/base/ct_thread.h">
<polygon fill="white" stroke="black" points="715.5,-168.5 715.5,-187.5 838.5,-187.5 838.5,-168.5 715.5,-168.5"/>
<text text-anchor="middle" x="777" y="-175.5" font-family="FreeSans" font-size="10.00">cantera/base/ct_thread.h</text>
</a>
</g>
</g>
<!-- Node20&#45;&gt;Node22 -->
<g id="edge30" class="edge"><title>Node20&#45;&gt;Node22</title>
<path fill="none" stroke="midnightblue" d="M648.243,-224.444C673.871,-215.399 714.485,-201.064 743.238,-190.916"/>
<polygon fill="midnightblue" stroke="midnightblue" points="744.605,-194.145 752.87,-187.516 742.275,-187.544 744.605,-194.145"/>
</g>
<!-- Node25 -->
<g id="node25" class="node"><title>Node25</title>
<g id="a_node25"><a xlink:href="FactoryBase_8h.html" target="_top" xlink:title="File contains the FactoryBase class declarations. ">
<polygon fill="white" stroke="black" points="531.5,-56.5 531.5,-75.5 668.5,-75.5 668.5,-56.5 531.5,-56.5"/>
<text text-anchor="middle" x="600" y="-63.5" font-family="FreeSans" font-size="10.00">cantera/base/FactoryBase.h</text>
</a>
</g>
</g>
<!-- Node20&#45;&gt;Node25 -->
<g id="edge34" class="edge"><title>Node20&#45;&gt;Node25</title>
<path fill="none" stroke="midnightblue" d="M622.71,-224.075C618.932,-197.945 607.838,-121.211 602.686,-85.577"/>
<polygon fill="midnightblue" stroke="midnightblue" points="606.134,-84.9644 601.239,-75.5681 599.206,-85.9661 606.134,-84.9644"/>
</g>
<!-- Node21&#45;&gt;Node6 -->
<g id="edge28" class="edge"><title>Node21&#45;&gt;Node6</title>
<path fill="none" stroke="midnightblue" d="M553.971,-168.205C563.607,-154.905 578.472,-129.387 566,-112 553.063,-93.9648 532.503,-83.0663 511.379,-76.5092"/>
<polygon fill="midnightblue" stroke="midnightblue" points="512.233,-73.1137 501.659,-73.792 510.348,-79.8552 512.233,-73.1137"/>
</g>
<!-- Node21&#45;&gt;Node14 -->
<g id="edge29" class="edge"><title>Node21&#45;&gt;Node14</title>
<path fill="none" stroke="midnightblue" d="M504.218,-168.444C451.049,-157.81 361.324,-139.865 312.034,-130.007"/>
<polygon fill="midnightblue" stroke="midnightblue" points="312.65,-126.561 302.158,-128.032 311.277,-133.425 312.65,-126.561"/>
</g>
<!-- Node22&#45;&gt;Node10 -->
<g id="edge31" class="edge"><title>Node22&#45;&gt;Node10</title>
<path fill="none" stroke="midnightblue" d="M836.252,-168.465C876.624,-159.757 919.781,-142.97 902,-112 872.405,-60.4522 805.219,-32.716 763.825,-19.9728"/>
<polygon fill="midnightblue" stroke="midnightblue" points="764.729,-16.5904 754.148,-17.1214 762.751,-23.305 764.729,-16.5904"/>
</g>
<!-- Node23 -->
<g id="node23" class="node"><title>Node23</title>
<polygon fill="white" stroke="#bfbfbf" points="788,-112.5 788,-131.5 894,-131.5 894,-112.5 788,-112.5"/>
<text text-anchor="middle" x="841" y="-119.5" font-family="FreeSans" font-size="10.00">boost/shared_ptr.hpp</text>
</g>
<!-- Node22&#45;&gt;Node23 -->
<g id="edge32" class="edge"><title>Node22&#45;&gt;Node23</title>
<path fill="none" stroke="midnightblue" d="M787.283,-168.324C796.836,-160.263 811.28,-148.077 822.784,-138.369"/>
<polygon fill="midnightblue" stroke="midnightblue" points="825.144,-140.958 830.53,-131.834 820.63,-135.608 825.144,-140.958"/>
</g>
<!-- Node24 -->
<g id="node24" class="node"><title>Node24</title>
<polygon fill="white" stroke="#bfbfbf" points="652.5,-112.5 652.5,-131.5 769.5,-131.5 769.5,-112.5 652.5,-112.5"/>
<text text-anchor="middle" x="711" y="-119.5" font-family="FreeSans" font-size="10.00">boost/thread/mutex.hpp</text>
</g>
<!-- Node22&#45;&gt;Node24 -->
<g id="edge33" class="edge"><title>Node22&#45;&gt;Node24</title>
<path fill="none" stroke="midnightblue" d="M766.396,-168.324C756.544,-160.263 741.649,-148.077 729.785,-138.369"/>
<polygon fill="midnightblue" stroke="midnightblue" points="731.753,-135.457 721.797,-131.834 727.32,-140.875 731.753,-135.457"/>
</g>
<!-- Node25&#45;&gt;Node11 -->
<g id="edge35" class="edge"><title>Node25&#45;&gt;Node11</title>
<path fill="none" stroke="midnightblue" d="M579.56,-56.4435C558.33,-47.5566 524.901,-33.5632 500.745,-23.4514"/>
<polygon fill="midnightblue" stroke="midnightblue" points="501.921,-20.1493 491.345,-19.5164 499.218,-26.6064 501.921,-20.1493"/>
</g>
<!-- Node26&#45;&gt;Node12 -->
<g id="edge37" class="edge"><title>Node26&#45;&gt;Node12</title>
<path fill="none" stroke="midnightblue" d="M260.624,-280.083C264.456,-272.691 270.024,-261.953 274.765,-252.811"/>
<polygon fill="midnightblue" stroke="midnightblue" points="277.966,-254.24 279.462,-243.751 271.752,-251.018 277.966,-254.24"/>
</g>
<!-- Node27&#45;&gt;Node7 -->
<g id="edge40" class="edge"><title>Node27&#45;&gt;Node7</title>
<path fill="none" stroke="midnightblue" d="M109.752,-112.368C142.287,-93.3318 220.421,-47.6153 259.67,-24.6505"/>
<polygon fill="midnightblue" stroke="midnightblue" points="261.453,-27.6625 268.316,-19.5914 257.918,-21.6207 261.453,-27.6625"/>
</g>
<!-- Node27&#45;&gt;Node9 -->
<g id="edge39" class="edge"><title>Node27&#45;&gt;Node9</title>
<path fill="none" stroke="midnightblue" d="M124.789,-112.444C156.829,-103.241 207.933,-88.5617 243.353,-78.3879"/>
<polygon fill="midnightblue" stroke="midnightblue" points="244.705,-81.6412 253.35,-75.5164 242.773,-74.9132 244.705,-81.6412"/>
</g>
<!-- Node28&#45;&gt;Node9 -->
<g id="edge42" class="edge"><title>Node28&#45;&gt;Node9</title>
<path fill="none" stroke="midnightblue" d="M453.376,-224.481C434.487,-216.712 407.446,-204.015 387,-188 347.554,-157.102 311.927,-109.455 294.417,-84.1563"/>
<polygon fill="midnightblue" stroke="midnightblue" points="297.141,-81.9371 288.623,-75.636 291.352,-85.8733 297.141,-81.9371"/>
</g>
<!-- Node28&#45;&gt;Node21 -->
<g id="edge43" class="edge"><title>Node28&#45;&gt;Node21</title>
<path fill="none" stroke="midnightblue" d="M487.407,-224.324C498.109,-216.185 514.341,-203.839 527.163,-194.087"/>
<polygon fill="midnightblue" stroke="midnightblue" points="529.544,-196.673 535.385,-187.834 525.307,-191.102 529.544,-196.673"/>
</g>
</g>
</svg>
