<?xml version="1.0" encoding="UTF-8" standalone="no"?>
<!DOCTYPE svg PUBLIC "-//W3C//DTD SVG 1.1//EN"
 "http://www.w3.org/Graphics/SVG/1.1/DTD/svg11.dtd">
<!-- Generated by graphviz version 2.36.0 (20140111.2315)
 -->
<!-- Title: SpeciesThermoFactory.h Pages: 1 -->
<svg width="1139pt" height="84pt"
 viewBox="0.00 0.00 1139.00 84.00" xmlns="http://www.w3.org/2000/svg" xmlns:xlink="http://www.w3.org/1999/xlink">
<g id="graph0" class="graph" transform="scale(1 1) rotate(0) translate(4 80)">
<title>SpeciesThermoFactory.h</title>
<polygon fill="white" stroke="none" points="-4,4 -4,-80 1135,-80 1135,4 -4,4"/>
<!-- Node1 -->
<g id="node1" class="node"><title>Node1</title>
<polygon fill="#bfbfbf" stroke="black" points="521,-56.5 521,-75.5 645,-75.5 645,-56.5 521,-56.5"/>
<text text-anchor="middle" x="583" y="-63.5" font-family="FreeSans" font-size="10.00">SpeciesThermoFactory.h</text>
</g>
<!-- Node2 -->
<g id="node2" class="node"><title>Node2</title>
<g id="a_node2"><a xlink:href="FixedChemPotSSTP_8cpp.html" target="_top" xlink:title="Definition file for the FixedChemPotSSTP class, which represents a fixed&#45;composition incompressible s...">
<polygon fill="white" stroke="black" points="-0.5,-0.5 -0.5,-19.5 124.5,-19.5 124.5,-0.5 -0.5,-0.5"/>
<text text-anchor="middle" x="62" y="-7.5" font-family="FreeSans" font-size="10.00">FixedChemPotSSTP.cpp</text>
</a>
</g>
</g>
<!-- Node1&#45;&gt;Node2 -->
<g id="edge1" class="edge"><title>Node1&#45;&gt;Node2</title>
<path fill="none" stroke="midnightblue" d="M510.889,-58.3207C422.142,-49.9742 266.868,-34.9602 134,-20 130.996,-19.6617 127.922,-19.3078 124.818,-18.9441"/>
<polygon fill="midnightblue" stroke="midnightblue" points="510.565,-61.8056 520.849,-59.2557 511.22,-54.8363 510.565,-61.8056"/>
</g>
<!-- Node3 -->
<g id="node3" class="node"><title>Node3</title>
<g id="a_node3"><a xlink:href="GeneralSpeciesThermo_8cpp.html" target="_top" xlink:title="Declarations for a completely general species thermodynamic property manager for a phase (see Species...">
<polygon fill="white" stroke="black" points="143,-0.5 143,-19.5 279,-19.5 279,-0.5 143,-0.5"/>
<text text-anchor="middle" x="211" y="-7.5" font-family="FreeSans" font-size="10.00">GeneralSpeciesThermo.cpp</text>
</a>
</g>
</g>
<!-- Node1&#45;&gt;Node3 -->
<g id="edge2" class="edge"><title>Node1&#45;&gt;Node3</title>
<path fill="none" stroke="midnightblue" d="M513.969,-54.9794C443.7,-44.7791 335.945,-29.1372 269.669,-19.5164"/>
<polygon fill="midnightblue" stroke="midnightblue" points="513.656,-58.4706 524.055,-56.4435 514.662,-51.5432 513.656,-58.4706"/>
</g>
<!-- Node4 -->
<g id="node4" class="node"><title>Node4</title>
<g id="a_node4"><a xlink:href="LatticeSolidPhase_8cpp.html" target="_top" xlink:title="Definitions for a simple thermodynamics model of a bulk solid phase derived from ThermoPhase, assuming an ideal solution model based on a lattice of solid atoms (see Thermodynamic Properties and class LatticeSolidPhase). ">
<polygon fill="white" stroke="black" points="297.5,-0.5 297.5,-19.5 410.5,-19.5 410.5,-0.5 297.5,-0.5"/>
<text text-anchor="middle" x="354" y="-7.5" font-family="FreeSans" font-size="10.00">LatticeSolidPhase.cpp</text>
</a>
</g>
</g>
<!-- Node1&#45;&gt;Node4 -->
<g id="edge3" class="edge"><title>Node1&#45;&gt;Node4</title>
<path fill="none" stroke="midnightblue" d="M536.727,-54.0884C493.463,-43.8865 429.745,-28.8612 390.116,-19.5164"/>
<polygon fill="midnightblue" stroke="midnightblue" points="536.178,-57.5549 546.714,-56.4435 537.785,-50.7418 536.178,-57.5549"/>
</g>
<!-- Node5 -->
<g id="node5" class="node"><title>Node5</title>
<g id="a_node5"><a xlink:href="Species_8cpp_source.html" target="_top" xlink:title="Species.cpp">
<polygon fill="white" stroke="black" points="428.5,-0.5 428.5,-19.5 497.5,-19.5 497.5,-0.5 428.5,-0.5"/>
<text text-anchor="middle" x="463" y="-7.5" font-family="FreeSans" font-size="10.00">Species.cpp</text>
</a>
</g>
</g>
<!-- Node1&#45;&gt;Node5 -->
<g id="edge4" class="edge"><title>Node1&#45;&gt;Node5</title>
<path fill="none" stroke="midnightblue" d="M554.627,-52.2321C532.18,-42.1312 501.465,-28.3091 481.925,-19.5164"/>
<polygon fill="midnightblue" stroke="midnightblue" points="553.43,-55.5316 563.986,-56.4435 556.303,-49.1481 553.43,-55.5316"/>
</g>
<!-- Node6 -->
<g id="node6" class="node"><title>Node6</title>
<g id="a_node6"><a xlink:href="SpeciesThermoFactory_8cpp.html" target="_top" xlink:title="Definitions for factory to build instances of classes that manage the standard&#45;state thermodynamic pr...">
<polygon fill="white" stroke="black" points="516,-0.5 516,-19.5 650,-19.5 650,-0.5 516,-0.5"/>
<text text-anchor="middle" x="583" y="-7.5" font-family="FreeSans" font-size="10.00">SpeciesThermoFactory.cpp</text>
</a>
</g>
</g>
<!-- Node1&#45;&gt;Node6 -->
<g id="edge5" class="edge"><title>Node1&#45;&gt;Node6</title>
<path fill="none" stroke="midnightblue" d="M583,-45.8045C583,-36.9102 583,-26.7798 583,-19.7511"/>
<polygon fill="midnightblue" stroke="midnightblue" points="579.5,-46.083 583,-56.083 586.5,-46.083 579.5,-46.083"/>
</g>
<!-- Node7 -->
<g id="node7" class="node"><title>Node7</title>
<g id="a_node7"><a xlink:href="ThermoFactory_8cpp.html" target="_top" xlink:title="Definitions for the factory class that can create known ThermoPhase objects (see Thermodynamic Proper...">
<polygon fill="white" stroke="black" points="668,-0.5 668,-19.5 768,-19.5 768,-0.5 668,-0.5"/>
<text text-anchor="middle" x="718" y="-7.5" font-family="FreeSans" font-size="10.00">ThermoFactory.cpp</text>
</a>
</g>
</g>
<!-- Node1&#45;&gt;Node7 -->
<g id="edge6" class="edge"><title>Node1&#45;&gt;Node7</title>
<path fill="none" stroke="midnightblue" d="M613.906,-52.6377C639.24,-42.504 674.431,-28.4274 696.709,-19.5164"/>
<polygon fill="midnightblue" stroke="midnightblue" points="612.376,-49.4799 604.391,-56.4435 614.976,-55.9792 612.376,-49.4799"/>
</g>
<!-- Node8 -->
<g id="node8" class="node"><title>Node8</title>
<g id="a_node8"><a xlink:href="VPSSMgr_8cpp.html" target="_top" xlink:title="Definition file for a virtual base class that manages the calculation of standard state properties fo...">
<polygon fill="white" stroke="black" points="786.5,-0.5 786.5,-19.5 863.5,-19.5 863.5,-0.5 786.5,-0.5"/>
<text text-anchor="middle" x="825" y="-7.5" font-family="FreeSans" font-size="10.00">VPSSMgr.cpp</text>
</a>
</g>
</g>
<!-- Node1&#45;&gt;Node8 -->
<g id="edge7" class="edge"><title>Node1&#45;&gt;Node8</title>
<path fill="none" stroke="midnightblue" d="M631.323,-54.2172C677.051,-44.0134 744.779,-28.9006 786.834,-19.5164"/>
<polygon fill="midnightblue" stroke="midnightblue" points="630.343,-50.8496 621.346,-56.4435 631.868,-57.6816 630.343,-50.8496"/>
</g>
<!-- Node9 -->
<g id="node9" class="node"><title>Node9</title>
<g id="a_node9"><a xlink:href="VPSSMgr__IdealGas_8cpp.html" target="_top" xlink:title="Definition file for a derived class that handles the calculation of standard state thermo properties ...">
<polygon fill="white" stroke="black" points="881.5,-0.5 881.5,-19.5 1002.5,-19.5 1002.5,-0.5 881.5,-0.5"/>
<text text-anchor="middle" x="942" y="-7.5" font-family="FreeSans" font-size="10.00">VPSSMgr_IdealGas.cpp</text>
</a>
</g>
</g>
<!-- Node1&#45;&gt;Node9 -->
<g id="edge8" class="edge"><title>Node1&#45;&gt;Node9</title>
<path fill="none" stroke="midnightblue" d="M650.036,-54.9166C717.858,-44.715 821.553,-29.1174 885.382,-19.5164"/>
<polygon fill="midnightblue" stroke="midnightblue" points="649.253,-51.4949 639.885,-56.4435 650.294,-58.4171 649.253,-51.4949"/>
</g>
<!-- Node10 -->
<g id="node10" class="node"><title>Node10</title>
<g id="a_node10"><a xlink:href="VPSSMgrFactory_8cpp.html" target="_top" xlink:title="Definitions for factory to build instances of classes that manage the calculation of standard state p...">
<polygon fill="white" stroke="black" points="1021,-0.5 1021,-19.5 1131,-19.5 1131,-0.5 1021,-0.5"/>
<text text-anchor="middle" x="1076" y="-7.5" font-family="FreeSans" font-size="10.00">VPSSMgrFactory.cpp</text>
</a>
</g>
</g>
<!-- Node1&#45;&gt;Node10 -->
<g id="edge9" class="edge"><title>Node1&#45;&gt;Node10</title>
<path fill="none" stroke="midnightblue" d="M655.168,-58.1416C740.313,-49.8813 886.099,-35.2089 1011,-20 1014.17,-19.6144 1017.42,-19.2055 1020.7,-18.783"/>
<polygon fill="midnightblue" stroke="midnightblue" points="654.708,-54.6698 645.091,-59.1168 655.382,-61.6373 654.708,-54.6698"/>
</g>
</g>
</svg>
