<?xml version="1.0" encoding="UTF-8" standalone="no"?>
<!DOCTYPE svg PUBLIC "-//W3C//DTD SVG 1.1//EN"
 "http://www.w3.org/Graphics/SVG/1.1/DTD/svg11.dtd">
<!-- Generated by graphviz version 2.36.0 (20140111.2315)
 -->
<!-- Title: StatMech.h Pages: 1 -->
<svg width="838pt" height="320pt"
 viewBox="0.00 0.00 838.00 320.00" xmlns="http://www.w3.org/2000/svg" xmlns:xlink="http://www.w3.org/1999/xlink">
<g id="graph0" class="graph" transform="scale(1 1) rotate(0) translate(4 316)">
<title>StatMech.h</title>
<polygon fill="white" stroke="none" points="-4,4 -4,-316 834,-316 834,4 -4,4"/>
<!-- Node1 -->
<g id="node1" class="node"><title>Node1</title>
<polygon fill="#bfbfbf" stroke="black" points="302,-292.5 302,-311.5 368,-311.5 368,-292.5 302,-292.5"/>
<text text-anchor="middle" x="335" y="-299.5" font-family="FreeSans" font-size="10.00">StatMech.h</text>
</g>
<!-- Node2 -->
<g id="node2" class="node"><title>Node2</title>
<g id="a_node2"><a xlink:href="global_8h.html" target="_top" xlink:title="This file contains definitions for utility functions and text for modules, inputfiles, logs, textlogs, (see Input File Handling, Diagnostic Output, and Writing messages to the screen). ">
<polygon fill="white" stroke="black" points="281,-124.5 281,-143.5 389,-143.5 389,-124.5 281,-124.5"/>
<text text-anchor="middle" x="335" y="-131.5" font-family="FreeSans" font-size="10.00">cantera/base/global.h</text>
</a>
</g>
</g>
<!-- Node1&#45;&gt;Node2 -->
<g id="edge1" class="edge"><title>Node1&#45;&gt;Node2</title>
<path fill="none" stroke="midnightblue" d="M335,-292.075C335,-265.945 335,-189.211 335,-153.577"/>
<polygon fill="midnightblue" stroke="midnightblue" points="338.5,-153.568 335,-143.568 331.5,-153.568 338.5,-153.568"/>
</g>
<!-- Node11 -->
<g id="node11" class="node"><title>Node11</title>
<g id="a_node11"><a xlink:href="SpeciesThermoInterpType_8h.html" target="_top" xlink:title="Pure Virtual Base class for individual species reference state thermodynamic managers and text for th...">
<polygon fill="white" stroke="black" points="74.5,-236.5 74.5,-255.5 211.5,-255.5 211.5,-236.5 74.5,-236.5"/>
<text text-anchor="middle" x="143" y="-243.5" font-family="FreeSans" font-size="10.00">SpeciesThermoInterpType.h</text>
</a>
</g>
</g>
<!-- Node1&#45;&gt;Node11 -->
<g id="edge10" class="edge"><title>Node1&#45;&gt;Node11</title>
<path fill="none" stroke="midnightblue" d="M304.577,-292.444C271.715,-283.201 219.215,-268.436 183.026,-258.257"/>
<polygon fill="midnightblue" stroke="midnightblue" points="183.855,-254.855 173.281,-255.516 181.96,-261.593 183.855,-254.855"/>
</g>
<!-- Node13 -->
<g id="node13" class="node"><title>Node13</title>
<g id="a_node13"><a xlink:href="SpeciesThermoMgr_8h.html" target="_top" xlink:title="This file contains descriptions of templated subclasses of the virtual base class, SpeciesThermo, which includes SpeciesThermoDuo (see Managers for Calculating Reference&#45;State Thermodynamics and class SpeciesThermoDuo) ">
<polygon fill="white" stroke="black" points="411,-236.5 411,-255.5 519,-255.5 519,-236.5 411,-236.5"/>
<text text-anchor="middle" x="465" y="-243.5" font-family="FreeSans" font-size="10.00">SpeciesThermoMgr.h</text>
</a>
</g>
</g>
<!-- Node1&#45;&gt;Node13 -->
<g id="edge13" class="edge"><title>Node1&#45;&gt;Node13</title>
<path fill="none" stroke="midnightblue" d="M355.599,-292.444C376.993,-283.557 410.681,-269.563 435.024,-259.451"/>
<polygon fill="midnightblue" stroke="midnightblue" points="436.605,-262.585 444.497,-255.516 433.92,-256.12 436.605,-262.585"/>
</g>
<!-- Node3 -->
<g id="node3" class="node"><title>Node3</title>
<g id="a_node3"><a xlink:href="ct__defs_8h.html" target="_top" xlink:title="This file contains definitions of terms that are used in internal routines and are unlikely to need m...">
<polygon fill="white" stroke="black" points="352,-62.5 352,-81.5 408,-81.5 408,-62.5 352,-62.5"/>
<text text-anchor="middle" x="380" y="-69.5" font-family="FreeSans" font-size="10.00">ct_defs.h</text>
</a>
</g>
</g>
<!-- Node2&#45;&gt;Node3 -->
<g id="edge2" class="edge"><title>Node2&#45;&gt;Node3</title>
<path fill="none" stroke="midnightblue" d="M341.447,-124.403C348.197,-115.403 358.969,-101.041 367.413,-89.7824"/>
<polygon fill="midnightblue" stroke="midnightblue" points="370.365,-91.6806 373.565,-81.5806 364.765,-87.4806 370.365,-91.6806"/>
</g>
<!-- Node4 -->
<g id="node4" class="node"><title>Node4</title>
<g id="a_node4"><a xlink:href="config_8h_source.html" target="_top" xlink:title="config.h">
<polygon fill="white" stroke="black" points="222,-0.5 222,-19.5 272,-19.5 272,-0.5 222,-0.5"/>
<text text-anchor="middle" x="247" y="-7.5" font-family="FreeSans" font-size="10.00">config.h</text>
</a>
</g>
</g>
<!-- Node3&#45;&gt;Node4 -->
<g id="edge3" class="edge"><title>Node3&#45;&gt;Node4</title>
<path fill="none" stroke="midnightblue" d="M360.944,-62.4035C338.525,-52.2896 301.095,-35.4036 275.287,-23.761"/>
<polygon fill="midnightblue" stroke="midnightblue" points="276.575,-20.5025 266.02,-19.5806 273.696,-26.8832 276.575,-20.5025"/>
</g>
<!-- Node5 -->
<g id="node5" class="node"><title>Node5</title>
<polygon fill="white" stroke="#bfbfbf" points="418,-0.5 418,-19.5 462,-19.5 462,-0.5 418,-0.5"/>
<text text-anchor="middle" x="440" y="-7.5" font-family="FreeSans" font-size="10.00">cmath</text>
</g>
<!-- Node3&#45;&gt;Node5 -->
<g id="edge4" class="edge"><title>Node3&#45;&gt;Node5</title>
<path fill="none" stroke="midnightblue" d="M388.597,-62.4035C397.864,-53.1361 412.817,-38.1828 424.212,-26.7876"/>
<polygon fill="midnightblue" stroke="midnightblue" points="426.823,-29.1266 431.419,-19.5806 421.873,-24.1768 426.823,-29.1266"/>
</g>
<!-- Node6 -->
<g id="node6" class="node"><title>Node6</title>
<polygon fill="white" stroke="#bfbfbf" points="480,-0.5 480,-19.5 524,-19.5 524,-0.5 480,-0.5"/>
<text text-anchor="middle" x="502" y="-7.5" font-family="FreeSans" font-size="10.00">cstdlib</text>
</g>
<!-- Node3&#45;&gt;Node6 -->
<g id="edge5" class="edge"><title>Node3&#45;&gt;Node6</title>
<path fill="none" stroke="midnightblue" d="M397.48,-62.4035C417.863,-52.3787 451.775,-35.7006 475.425,-24.0699"/>
<polygon fill="midnightblue" stroke="midnightblue" points="477.124,-27.1346 484.553,-19.5806 474.035,-20.8531 477.124,-27.1346"/>
</g>
<!-- Node7 -->
<g id="node7" class="node"><title>Node7</title>
<polygon fill="white" stroke="#bfbfbf" points="542.5,-0.5 542.5,-19.5 585.5,-19.5 585.5,-0.5 542.5,-0.5"/>
<text text-anchor="middle" x="564" y="-7.5" font-family="FreeSans" font-size="10.00">vector</text>
</g>
<!-- Node3&#45;&gt;Node7 -->
<g id="edge6" class="edge"><title>Node3&#45;&gt;Node7</title>
<path fill="none" stroke="midnightblue" d="M406.363,-62.4035C439.646,-51.5504 496.843,-32.8991 532.423,-21.2969"/>
<polygon fill="midnightblue" stroke="midnightblue" points="533.862,-24.5092 542.284,-18.0814 531.691,-17.8541 533.862,-24.5092"/>
</g>
<!-- Node8 -->
<g id="node8" class="node"><title>Node8</title>
<polygon fill="white" stroke="#bfbfbf" points="290.5,-0.5 290.5,-19.5 325.5,-19.5 325.5,-0.5 290.5,-0.5"/>
<text text-anchor="middle" x="308" y="-7.5" font-family="FreeSans" font-size="10.00">map</text>
</g>
<!-- Node3&#45;&gt;Node8 -->
<g id="edge7" class="edge"><title>Node3&#45;&gt;Node8</title>
<path fill="none" stroke="midnightblue" d="M369.684,-62.4035C358.349,-52.9579 339.927,-37.6056 326.161,-26.1342"/>
<polygon fill="midnightblue" stroke="midnightblue" points="328.22,-23.2937 318.297,-19.5806 323.738,-28.6713 328.22,-23.2937"/>
</g>
<!-- Node9 -->
<g id="node9" class="node"><title>Node9</title>
<polygon fill="white" stroke="#bfbfbf" points="633,-0.5 633,-19.5 673,-19.5 673,-0.5 633,-0.5"/>
<text text-anchor="middle" x="653" y="-7.5" font-family="FreeSans" font-size="10.00">string</text>
</g>
<!-- Node3&#45;&gt;Node9 -->
<g id="edge8" class="edge"><title>Node3&#45;&gt;Node9</title>
<path fill="none" stroke="midnightblue" d="M408.188,-64.8049C460.041,-53.4086 570.095,-29.2209 623.159,-17.5585"/>
<polygon fill="midnightblue" stroke="midnightblue" points="623.962,-20.9656 632.978,-15.4005 622.459,-14.1288 623.962,-20.9656"/>
</g>
<!-- Node10 -->
<g id="node10" class="node"><title>Node10</title>
<polygon fill="white" stroke="#bfbfbf" points="344,-0.5 344,-19.5 400,-19.5 400,-0.5 344,-0.5"/>
<text text-anchor="middle" x="372" y="-7.5" font-family="FreeSans" font-size="10.00">algorithm</text>
</g>
<!-- Node3&#45;&gt;Node10 -->
<g id="edge9" class="edge"><title>Node3&#45;&gt;Node10</title>
<path fill="none" stroke="midnightblue" d="M378.854,-62.4035C377.725,-53.9381 375.964,-40.7283 374.509,-29.8199"/>
<polygon fill="midnightblue" stroke="midnightblue" points="377.935,-29.0303 373.144,-19.5806 370.997,-29.9555 377.935,-29.0303"/>
</g>
<!-- Node11&#45;&gt;Node3 -->
<g id="edge11" class="edge"><title>Node11&#45;&gt;Node3</title>
<path fill="none" stroke="midnightblue" d="M141.43,-236.31C137.998,-214.319 132.338,-155.944 162,-124 174.226,-110.834 282.513,-90.0818 341.721,-79.5701"/>
<polygon fill="midnightblue" stroke="midnightblue" points="342.582,-82.9724 351.824,-77.7913 341.368,-76.0785 342.582,-82.9724"/>
</g>
<!-- Node12 -->
<g id="node12" class="node"><title>Node12</title>
<g id="a_node12"><a xlink:href="speciesThermoTypes_8h.html" target="_top" xlink:title="Contains const definitions for types of species reference&#45;state thermodynamics managers (see Species ...">
<polygon fill="white" stroke="black" points="-0.5,-180.5 -0.5,-199.5 114.5,-199.5 114.5,-180.5 -0.5,-180.5"/>
<text text-anchor="middle" x="57" y="-187.5" font-family="FreeSans" font-size="10.00">speciesThermoTypes.h</text>
</a>
</g>
</g>
<!-- Node11&#45;&gt;Node12 -->
<g id="edge12" class="edge"><title>Node11&#45;&gt;Node12</title>
<path fill="none" stroke="midnightblue" d="M129.183,-236.324C115.767,-227.9 95.1759,-214.971 79.4144,-205.074"/>
<polygon fill="midnightblue" stroke="midnightblue" points="81.1132,-202.008 70.7831,-199.655 77.3908,-207.936 81.1132,-202.008"/>
</g>
<!-- Node14 -->
<g id="node14" class="node"><title>Node14</title>
<g id="a_node14"><a xlink:href="ctexceptions_8h.html" target="_top" xlink:title="Definitions for the classes that are thrown when Cantera experiences an error condition (also contain...">
<polygon fill="white" stroke="black" points="693.5,-180.5 693.5,-199.5 830.5,-199.5 830.5,-180.5 693.5,-180.5"/>
<text text-anchor="middle" x="762" y="-187.5" font-family="FreeSans" font-size="10.00">cantera/base/ctexceptions.h</text>
</a>
</g>
</g>
<!-- Node13&#45;&gt;Node14 -->
<g id="edge14" class="edge"><title>Node13&#45;&gt;Node14</title>
<path fill="none" stroke="midnightblue" d="M512.061,-236.444C564.415,-226.925 648.99,-211.547 705.04,-201.356"/>
<polygon fill="midnightblue" stroke="midnightblue" points="705.947,-204.749 715.16,-199.516 704.695,-197.862 705.947,-204.749"/>
</g>
<!-- Node16 -->
<g id="node16" class="node"><title>Node16</title>
<g id="a_node16"><a xlink:href="stringUtils_8h.html" target="_top" xlink:title="Contains declarations for string manipulation functions within Cantera. ">
<polygon fill="white" stroke="black" points="590.5,-124.5 590.5,-143.5 715.5,-143.5 715.5,-124.5 590.5,-124.5"/>
<text text-anchor="middle" x="653" y="-131.5" font-family="FreeSans" font-size="10.00">cantera/base/stringUtils.h</text>
</a>
</g>
</g>
<!-- Node13&#45;&gt;Node16 -->
<g id="edge17" class="edge"><title>Node13&#45;&gt;Node16</title>
<path fill="none" stroke="midnightblue" d="M479.752,-236.368C512.287,-217.332 590.421,-171.615 629.67,-148.65"/>
<polygon fill="midnightblue" stroke="midnightblue" points="631.453,-151.662 638.316,-143.591 627.918,-145.621 631.453,-151.662"/>
</g>
<!-- Node17 -->
<g id="node17" class="node"><title>Node17</title>
<g id="a_node17"><a xlink:href="SpeciesThermo_8h.html" target="_top" xlink:title="Virtual base class for the calculation of multiple&#45;species thermodynamic reference&#45;state property man...">
<polygon fill="white" stroke="black" points="171,-124.5 171,-143.5 263,-143.5 263,-124.5 171,-124.5"/>
<text text-anchor="middle" x="217" y="-131.5" font-family="FreeSans" font-size="10.00">SpeciesThermo.h</text>
</a>
</g>
</g>
<!-- Node13&#45;&gt;Node17 -->
<g id="edge20" class="edge"><title>Node13&#45;&gt;Node17</title>
<path fill="none" stroke="midnightblue" d="M445.54,-236.368C401.987,-217.051 296.493,-170.259 245.516,-147.648"/>
<polygon fill="midnightblue" stroke="midnightblue" points="246.93,-144.447 236.37,-143.591 244.092,-150.845 246.93,-144.447"/>
</g>
<!-- Node20 -->
<g id="node20" class="node"><title>Node20</title>
<g id="a_node20"><a xlink:href="utilities_8h.html" target="_top" xlink:title="Various templated functions that carry out common vector operations (see Templated Utility Functions)...">
<polygon fill="white" stroke="black" points="408.5,-180.5 408.5,-199.5 521.5,-199.5 521.5,-180.5 408.5,-180.5"/>
<text text-anchor="middle" x="465" y="-187.5" font-family="FreeSans" font-size="10.00">cantera/base/utilities.h</text>
</a>
</g>
</g>
<!-- Node13&#45;&gt;Node20 -->
<g id="edge25" class="edge"><title>Node13&#45;&gt;Node20</title>
<path fill="none" stroke="midnightblue" d="M465,-236.083C465,-229.006 465,-218.861 465,-209.986"/>
<polygon fill="midnightblue" stroke="midnightblue" points="468.5,-209.751 465,-199.751 461.5,-209.751 468.5,-209.751"/>
</g>
<!-- Node14&#45;&gt;Node9 -->
<g id="edge16" class="edge"><title>Node14&#45;&gt;Node9</title>
<path fill="none" stroke="midnightblue" d="M773.047,-180.354C787.315,-168.07 809.179,-144.751 799,-124 774.806,-74.6812 717.569,-40.7513 682.376,-23.7101"/>
<polygon fill="midnightblue" stroke="midnightblue" points="683.621,-20.4279 673.081,-19.3527 680.65,-26.7662 683.621,-20.4279"/>
</g>
<!-- Node15 -->
<g id="node15" class="node"><title>Node15</title>
<polygon fill="white" stroke="#bfbfbf" points="733,-124.5 733,-143.5 791,-143.5 791,-124.5 733,-124.5"/>
<text text-anchor="middle" x="762" y="-131.5" font-family="FreeSans" font-size="10.00">exception</text>
</g>
<!-- Node14&#45;&gt;Node15 -->
<g id="edge15" class="edge"><title>Node14&#45;&gt;Node15</title>
<path fill="none" stroke="midnightblue" d="M762,-180.083C762,-173.006 762,-162.861 762,-153.986"/>
<polygon fill="midnightblue" stroke="midnightblue" points="765.5,-153.751 762,-143.751 758.5,-153.751 765.5,-153.751"/>
</g>
<!-- Node16&#45;&gt;Node3 -->
<g id="edge18" class="edge"><title>Node16&#45;&gt;Node3</title>
<path fill="none" stroke="midnightblue" d="M614.176,-124.467C562.009,-113.002 469.872,-92.7521 418.086,-81.3705"/>
<polygon fill="midnightblue" stroke="midnightblue" points="418.809,-77.9459 408.29,-79.2176 417.306,-84.7827 418.809,-77.9459"/>
</g>
<!-- Node16&#45;&gt;Node9 -->
<g id="edge19" class="edge"><title>Node16&#45;&gt;Node9</title>
<path fill="none" stroke="midnightblue" d="M653,-124.226C653,-104.53 653,-56.4371 653,-29.7004"/>
<polygon fill="midnightblue" stroke="midnightblue" points="656.5,-29.6944 653,-19.6944 649.5,-29.6945 656.5,-29.6944"/>
</g>
<!-- Node17&#45;&gt;Node3 -->
<g id="edge21" class="edge"><title>Node17&#45;&gt;Node3</title>
<path fill="none" stroke="midnightblue" d="M240.354,-124.403C268.314,-114.111 315.326,-96.8064 346.991,-85.1504"/>
<polygon fill="midnightblue" stroke="midnightblue" points="348.514,-88.3196 356.689,-81.5806 346.096,-81.7505 348.514,-88.3196"/>
</g>
<!-- Node18 -->
<g id="node18" class="node"><title>Node18</title>
<g id="a_node18"><a xlink:href="smart__ptr_8h_source.html" target="_top" xlink:title="cantera/base/smart\l_ptr.h">
<polygon fill="white" stroke="black" points="167.5,-57 167.5,-87 266.5,-87 266.5,-57 167.5,-57"/>
<text text-anchor="start" x="175.5" y="-75" font-family="FreeSans" font-size="10.00">cantera/base/smart</text>
<text text-anchor="middle" x="217" y="-64" font-family="FreeSans" font-size="10.00">_ptr.h</text>
</a>
</g>
</g>
<!-- Node17&#45;&gt;Node18 -->
<g id="edge22" class="edge"><title>Node17&#45;&gt;Node18</title>
<path fill="none" stroke="midnightblue" d="M217,-124.403C217,-117.341 217,-106.975 217,-97.399"/>
<polygon fill="midnightblue" stroke="midnightblue" points="220.5,-97.1408 217,-87.1408 213.5,-97.1408 220.5,-97.1408"/>
</g>
<!-- Node18&#45;&gt;Node4 -->
<g id="edge23" class="edge"><title>Node18&#45;&gt;Node4</title>
<path fill="none" stroke="midnightblue" d="M224.11,-56.7808C228.289,-48.4217 233.611,-37.7773 238.072,-28.8565"/>
<polygon fill="midnightblue" stroke="midnightblue" points="241.293,-30.2401 242.635,-19.7305 235.032,-27.1095 241.293,-30.2401"/>
</g>
<!-- Node19 -->
<g id="node19" class="node"><title>Node19</title>
<polygon fill="white" stroke="#bfbfbf" points="138.5,-0.5 138.5,-19.5 203.5,-19.5 203.5,-0.5 138.5,-0.5"/>
<text text-anchor="middle" x="171" y="-7.5" font-family="FreeSans" font-size="10.00">tr1/memory</text>
</g>
<!-- Node18&#45;&gt;Node19 -->
<g id="edge24" class="edge"><title>Node18&#45;&gt;Node19</title>
<path fill="none" stroke="midnightblue" d="M206.099,-56.7808C199.414,-48.0621 190.824,-36.8574 183.815,-27.7153"/>
<polygon fill="midnightblue" stroke="midnightblue" points="186.555,-25.5371 177.693,-19.7305 181,-29.7961 186.555,-25.5371"/>
</g>
<!-- Node20&#45;&gt;Node2 -->
<g id="edge27" class="edge"><title>Node20&#45;&gt;Node2</title>
<path fill="none" stroke="midnightblue" d="M444.401,-180.444C423.007,-171.557 389.319,-157.563 364.976,-147.451"/>
<polygon fill="midnightblue" stroke="midnightblue" points="366.08,-144.12 355.503,-143.516 363.395,-150.585 366.08,-144.12"/>
</g>
<!-- Node20&#45;&gt;Node3 -->
<g id="edge26" class="edge"><title>Node20&#45;&gt;Node3</title>
<path fill="none" stroke="midnightblue" d="M458.611,-180.281C444.513,-161.041 410.539,-114.677 392.211,-89.6641"/>
<polygon fill="midnightblue" stroke="midnightblue" points="394.966,-87.5023 386.232,-81.5048 389.319,-91.6398 394.966,-87.5023"/>
</g>
<!-- Node21 -->
<g id="node21" class="node"><title>Node21</title>
<polygon fill="white" stroke="#bfbfbf" points="515,-124.5 515,-143.5 573,-143.5 573,-124.5 515,-124.5"/>
<text text-anchor="middle" x="544" y="-131.5" font-family="FreeSans" font-size="10.00">stdexcept</text>
</g>
<!-- Node20&#45;&gt;Node21 -->
<g id="edge28" class="edge"><title>Node20&#45;&gt;Node21</title>
<path fill="none" stroke="midnightblue" d="M477.693,-180.324C489.901,-171.979 508.578,-159.212 523.003,-149.352"/>
<polygon fill="midnightblue" stroke="midnightblue" points="525.058,-152.187 531.339,-143.655 521.108,-146.408 525.058,-152.187"/>
</g>
<!-- Node22 -->
<g id="node22" class="node"><title>Node22</title>
<polygon fill="white" stroke="#bfbfbf" points="445.5,-124.5 445.5,-143.5 496.5,-143.5 496.5,-124.5 445.5,-124.5"/>
<text text-anchor="middle" x="471" y="-131.5" font-family="FreeSans" font-size="10.00">numeric</text>
</g>
<!-- Node20&#45;&gt;Node22 -->
<g id="edge29" class="edge"><title>Node20&#45;&gt;Node22</title>
<path fill="none" stroke="midnightblue" d="M465.991,-180.083C466.786,-172.927 467.929,-162.635 468.923,-153.691"/>
<polygon fill="midnightblue" stroke="midnightblue" points="472.402,-154.076 470.028,-143.751 465.445,-153.303 472.402,-154.076"/>
</g>
</g>
</svg>
