<?xml version="1.0" encoding="UTF-8" standalone="no"?>
<!DOCTYPE svg PUBLIC "-//W3C//DTD SVG 1.1//EN"
 "http://www.w3.org/Graphics/SVG/1.1/DTD/svg11.dtd">
<!-- Generated by graphviz version 2.36.0 (20140111.2315)
 -->
<!-- Title: ValueCache.cpp Pages: 1 -->
<svg width="669pt" height="196pt"
 viewBox="0.00 0.00 669.00 196.00" xmlns="http://www.w3.org/2000/svg" xmlns:xlink="http://www.w3.org/1999/xlink">
<g id="graph0" class="graph" transform="scale(1 1) rotate(0) translate(4 192)">
<title>ValueCache.cpp</title>
<polygon fill="white" stroke="none" points="-4,4 -4,-192 665,-192 665,4 -4,4"/>
<!-- Node1 -->
<g id="node1" class="node"><title>Node1</title>
<polygon fill="#bfbfbf" stroke="black" points="326,-168.5 326,-187.5 412,-187.5 412,-168.5 326,-168.5"/>
<text text-anchor="middle" x="369" y="-175.5" font-family="FreeSans" font-size="10.00">ValueCache.cpp</text>
</g>
<!-- Node2 -->
<g id="node2" class="node"><title>Node2</title>
<g id="a_node2"><a xlink:href="ValueCache_8h.html" target="_top" xlink:title="cantera/base/ValueCache.h">
<polygon fill="white" stroke="black" points="214,-112.5 214,-131.5 348,-131.5 348,-112.5 214,-112.5"/>
<text text-anchor="middle" x="281" y="-119.5" font-family="FreeSans" font-size="10.00">cantera/base/ValueCache.h</text>
</a>
</g>
</g>
<!-- Node1&#45;&gt;Node2 -->
<g id="edge1" class="edge"><title>Node1&#45;&gt;Node2</title>
<path fill="none" stroke="midnightblue" d="M354.861,-168.324C341.134,-159.9 320.064,-146.971 303.936,-137.074"/>
<polygon fill="midnightblue" stroke="midnightblue" points="305.457,-133.902 295.104,-131.655 301.796,-139.868 305.457,-133.902"/>
</g>
<!-- Node12 -->
<g id="node12" class="node"><title>Node12</title>
<g id="a_node12"><a xlink:href="ct__thread_8h.html" target="_top" xlink:title="cantera/base/ct_thread.h">
<polygon fill="white" stroke="black" points="396.5,-112.5 396.5,-131.5 519.5,-131.5 519.5,-112.5 396.5,-112.5"/>
<text text-anchor="middle" x="458" y="-119.5" font-family="FreeSans" font-size="10.00">cantera/base/ct_thread.h</text>
</a>
</g>
</g>
<!-- Node1&#45;&gt;Node12 -->
<g id="edge11" class="edge"><title>Node1&#45;&gt;Node12</title>
<path fill="none" stroke="midnightblue" d="M383.299,-168.324C397.183,-159.9 418.492,-146.971 434.804,-137.074"/>
<polygon fill="midnightblue" stroke="midnightblue" points="437.002,-139.834 443.736,-131.655 433.371,-133.85 437.002,-139.834"/>
</g>
<!-- Node3 -->
<g id="node3" class="node"><title>Node3</title>
<g id="a_node3"><a xlink:href="ct__defs_8h.html" target="_top" xlink:title="This file contains definitions of terms that are used in internal routines and are unlikely to need m...">
<polygon fill="white" stroke="black" points="179,-56.5 179,-75.5 235,-75.5 235,-56.5 179,-56.5"/>
<text text-anchor="middle" x="207" y="-63.5" font-family="FreeSans" font-size="10.00">ct_defs.h</text>
</a>
</g>
</g>
<!-- Node2&#45;&gt;Node3 -->
<g id="edge2" class="edge"><title>Node2&#45;&gt;Node3</title>
<path fill="none" stroke="midnightblue" d="M269.111,-112.324C257.85,-104.107 240.713,-91.6017 227.291,-81.8069"/>
<polygon fill="midnightblue" stroke="midnightblue" points="229.247,-78.9014 219.106,-75.8339 225.12,-84.5559 229.247,-78.9014"/>
</g>
<!-- Node11 -->
<g id="node11" class="node"><title>Node11</title>
<polygon fill="white" stroke="#bfbfbf" points="261.5,-56.5 261.5,-75.5 300.5,-75.5 300.5,-56.5 261.5,-56.5"/>
<text text-anchor="middle" x="281" y="-63.5" font-family="FreeSans" font-size="10.00">limits</text>
</g>
<!-- Node2&#45;&gt;Node11 -->
<g id="edge10" class="edge"><title>Node2&#45;&gt;Node11</title>
<path fill="none" stroke="midnightblue" d="M281,-112.083C281,-105.006 281,-94.8611 281,-85.9865"/>
<polygon fill="midnightblue" stroke="midnightblue" points="284.5,-85.751 281,-75.7511 277.5,-85.7511 284.5,-85.751"/>
</g>
<!-- Node4 -->
<g id="node4" class="node"><title>Node4</title>
<g id="a_node4"><a xlink:href="config_8h_source.html" target="_top" xlink:title="config.h">
<polygon fill="white" stroke="black" points="371,-0.5 371,-19.5 421,-19.5 421,-0.5 371,-0.5"/>
<text text-anchor="middle" x="396" y="-7.5" font-family="FreeSans" font-size="10.00">config.h</text>
</a>
</g>
</g>
<!-- Node3&#45;&gt;Node4 -->
<g id="edge3" class="edge"><title>Node3&#45;&gt;Node4</title>
<path fill="none" stroke="midnightblue" d="M235.295,-56.9157C268.899,-47.3146 324.948,-31.3006 361.181,-20.9482"/>
<polygon fill="midnightblue" stroke="midnightblue" points="362.187,-24.3011 370.84,-18.1884 360.264,-17.5704 362.187,-24.3011"/>
</g>
<!-- Node5 -->
<g id="node5" class="node"><title>Node5</title>
<polygon fill="white" stroke="#bfbfbf" points="0,-0.5 0,-19.5 44,-19.5 44,-0.5 0,-0.5"/>
<text text-anchor="middle" x="22" y="-7.5" font-family="FreeSans" font-size="10.00">cmath</text>
</g>
<!-- Node3&#45;&gt;Node5 -->
<g id="edge4" class="edge"><title>Node3&#45;&gt;Node5</title>
<path fill="none" stroke="midnightblue" d="M178.902,-56.7986C145.323,-46.9969 89.2637,-30.6337 54.0332,-20.3502"/>
<polygon fill="midnightblue" stroke="midnightblue" points="54.8308,-16.9371 44.2507,-17.4948 52.8694,-23.6566 54.8308,-16.9371"/>
</g>
<!-- Node6 -->
<g id="node6" class="node"><title>Node6</title>
<polygon fill="white" stroke="#bfbfbf" points="62,-0.5 62,-19.5 106,-19.5 106,-0.5 62,-0.5"/>
<text text-anchor="middle" x="84" y="-7.5" font-family="FreeSans" font-size="10.00">cstdlib</text>
</g>
<!-- Node3&#45;&gt;Node6 -->
<g id="edge5" class="edge"><title>Node3&#45;&gt;Node6</title>
<path fill="none" stroke="midnightblue" d="M187.51,-56.4435C167.358,-47.5961 135.677,-33.6875 112.669,-23.5865"/>
<polygon fill="midnightblue" stroke="midnightblue" points="113.962,-20.3316 103.399,-19.5164 111.148,-26.7411 113.962,-20.3316"/>
</g>
<!-- Node7 -->
<g id="node7" class="node"><title>Node7</title>
<polygon fill="white" stroke="#bfbfbf" points="124.5,-0.5 124.5,-19.5 167.5,-19.5 167.5,-0.5 124.5,-0.5"/>
<text text-anchor="middle" x="146" y="-7.5" font-family="FreeSans" font-size="10.00">vector</text>
</g>
<!-- Node3&#45;&gt;Node7 -->
<g id="edge6" class="edge"><title>Node3&#45;&gt;Node7</title>
<path fill="none" stroke="midnightblue" d="M197.199,-56.324C188.182,-48.3414 174.594,-36.3128 163.682,-26.6529"/>
<polygon fill="midnightblue" stroke="midnightblue" points="165.787,-23.8416 155.979,-19.8339 161.147,-29.083 165.787,-23.8416"/>
</g>
<!-- Node8 -->
<g id="node8" class="node"><title>Node8</title>
<polygon fill="white" stroke="#bfbfbf" points="185.5,-0.5 185.5,-19.5 220.5,-19.5 220.5,-0.5 185.5,-0.5"/>
<text text-anchor="middle" x="203" y="-7.5" font-family="FreeSans" font-size="10.00">map</text>
</g>
<!-- Node3&#45;&gt;Node8 -->
<g id="edge7" class="edge"><title>Node3&#45;&gt;Node8</title>
<path fill="none" stroke="midnightblue" d="M206.339,-56.083C205.815,-49.0059 205.064,-38.8611 204.406,-29.9865"/>
<polygon fill="midnightblue" stroke="midnightblue" points="207.877,-29.4652 203.648,-19.7511 200.897,-29.9823 207.877,-29.4652"/>
</g>
<!-- Node9 -->
<g id="node9" class="node"><title>Node9</title>
<polygon fill="white" stroke="#bfbfbf" points="239,-0.5 239,-19.5 279,-19.5 279,-0.5 239,-0.5"/>
<text text-anchor="middle" x="259" y="-7.5" font-family="FreeSans" font-size="10.00">string</text>
</g>
<!-- Node3&#45;&gt;Node9 -->
<g id="edge8" class="edge"><title>Node3&#45;&gt;Node9</title>
<path fill="none" stroke="midnightblue" d="M215.587,-56.083C223.159,-48.2195 234.378,-36.5688 243.514,-27.0813"/>
<polygon fill="midnightblue" stroke="midnightblue" points="246.158,-29.3821 250.573,-19.7511 241.115,-24.5266 246.158,-29.3821"/>
</g>
<!-- Node10 -->
<g id="node10" class="node"><title>Node10</title>
<polygon fill="white" stroke="#bfbfbf" points="297,-0.5 297,-19.5 353,-19.5 353,-0.5 297,-0.5"/>
<text text-anchor="middle" x="325" y="-7.5" font-family="FreeSans" font-size="10.00">algorithm</text>
</g>
<!-- Node3&#45;&gt;Node10 -->
<g id="edge9" class="edge"><title>Node3&#45;&gt;Node10</title>
<path fill="none" stroke="midnightblue" d="M225.697,-56.4435C244.944,-47.6356 275.152,-33.8116 297.2,-23.722"/>
<polygon fill="midnightblue" stroke="midnightblue" points="298.753,-26.8603 306.39,-19.5164 295.84,-20.4951 298.753,-26.8603"/>
</g>
<!-- Node12&#45;&gt;Node4 -->
<g id="edge12" class="edge"><title>Node12&#45;&gt;Node4</title>
<path fill="none" stroke="midnightblue" d="M445.657,-112.464C434.86,-104.336 419.598,-91.1236 411,-76 402.861,-61.6847 399.136,-43.2195 397.432,-29.6304"/>
<polygon fill="midnightblue" stroke="midnightblue" points="400.903,-29.1621 396.424,-19.5605 393.938,-29.8595 400.903,-29.1621"/>
</g>
<!-- Node13 -->
<g id="node13" class="node"><title>Node13</title>
<polygon fill="white" stroke="#bfbfbf" points="420,-56.5 420,-75.5 526,-75.5 526,-56.5 420,-56.5"/>
<text text-anchor="middle" x="473" y="-63.5" font-family="FreeSans" font-size="10.00">boost/shared_ptr.hpp</text>
</g>
<!-- Node12&#45;&gt;Node13 -->
<g id="edge13" class="edge"><title>Node12&#45;&gt;Node13</title>
<path fill="none" stroke="midnightblue" d="M460.477,-112.083C462.486,-104.849 465.386,-94.4087 467.89,-85.3968"/>
<polygon fill="midnightblue" stroke="midnightblue" points="471.265,-86.323 470.569,-75.7511 464.52,-84.4495 471.265,-86.323"/>
</g>
<!-- Node14 -->
<g id="node14" class="node"><title>Node14</title>
<polygon fill="white" stroke="#bfbfbf" points="544.5,-56.5 544.5,-75.5 661.5,-75.5 661.5,-56.5 544.5,-56.5"/>
<text text-anchor="middle" x="603" y="-63.5" font-family="FreeSans" font-size="10.00">boost/thread/mutex.hpp</text>
</g>
<!-- Node12&#45;&gt;Node14 -->
<g id="edge14" class="edge"><title>Node12&#45;&gt;Node14</title>
<path fill="none" stroke="midnightblue" d="M480.976,-112.444C505.157,-103.438 543.418,-89.1891 570.646,-79.049"/>
<polygon fill="midnightblue" stroke="midnightblue" points="571.982,-82.2864 580.132,-75.5164 569.539,-75.7265 571.982,-82.2864"/>
</g>
</g>
</svg>
