<?xml version="1.0" encoding="UTF-8" standalone="no"?>
<!DOCTYPE svg PUBLIC "-//W3C//DTD SVG 1.1//EN"
 "http://www.w3.org/Graphics/SVG/1.1/DTD/svg11.dtd">
<!-- Generated by graphviz version 2.36.0 (20140111.2315)
 -->
<!-- Title: vcs_MultiPhaseEquil.cpp Pages: 1 -->
<svg width="1168pt" height="456pt"
 viewBox="0.00 0.00 1168.00 456.00" xmlns="http://www.w3.org/2000/svg" xmlns:xlink="http://www.w3.org/1999/xlink">
<g id="graph0" class="graph" transform="scale(1 1) rotate(0) translate(4 452)">
<title>vcs_MultiPhaseEquil.cpp</title>
<polygon fill="white" stroke="none" points="-4,4 -4,-452 1164,-452 1164,4 -4,4"/>
<!-- Node1 -->
<g id="node1" class="node"><title>Node1</title>
<polygon fill="#bfbfbf" stroke="black" points="682.5,-428.5 682.5,-447.5 805.5,-447.5 805.5,-428.5 682.5,-428.5"/>
<text text-anchor="middle" x="744" y="-435.5" font-family="FreeSans" font-size="10.00">vcs_MultiPhaseEquil.cpp</text>
</g>
<!-- Node2 -->
<g id="node2" class="node"><title>Node2</title>
<g id="a_node2"><a xlink:href="vcs__MultiPhaseEquil_8h.html" target="_top" xlink:title="Interface class for the vcsnonlinear solver. ">
<polygon fill="white" stroke="black" points="290.5,-293 290.5,-323 433.5,-323 433.5,-293 290.5,-293"/>
<text text-anchor="start" x="298.5" y="-311" font-family="FreeSans" font-size="10.00">cantera/equil/vcs_MultiPhase</text>
<text text-anchor="middle" x="362" y="-300" font-family="FreeSans" font-size="10.00">Equil.h</text>
</a>
</g>
</g>
<!-- Node1&#45;&gt;Node2 -->
<g id="edge1" class="edge"><title>Node1&#45;&gt;Node2</title>
<path fill="none" stroke="midnightblue" d="M682.017,-430.348C634.456,-423.973 567.722,-412.245 512,-392 467.382,-375.789 420.134,-347.559 390.854,-328.58"/>
<polygon fill="midnightblue" stroke="midnightblue" points="392.647,-325.57 382.366,-323.01 388.807,-331.423 392.647,-325.57"/>
</g>
<!-- Node19 -->
<g id="node19" class="node"><title>Node19</title>
<g id="a_node19"><a xlink:href="vcs__VolPhase_8h.html" target="_top" xlink:title="Header for the object representing each phase within vcs. ">
<polygon fill="white" stroke="black" points="-0.5,-180.5 -0.5,-199.5 142.5,-199.5 142.5,-180.5 -0.5,-180.5"/>
<text text-anchor="middle" x="71" y="-187.5" font-family="FreeSans" font-size="10.00">cantera/equil/vcs_VolPhase.h</text>
</a>
</g>
</g>
<!-- Node1&#45;&gt;Node19 -->
<g id="edge25" class="edge"><title>Node1&#45;&gt;Node19</title>
<path fill="none" stroke="midnightblue" d="M682.467,-432.56C620.358,-426.997 522.144,-415.225 440,-392 366.041,-371.089 349.018,-359.788 281,-324 208.472,-285.839 127.987,-231.106 91.2623,-205.387"/>
<polygon fill="midnightblue" stroke="midnightblue" points="93.0919,-202.395 82.8998,-199.502 89.063,-208.119 93.0919,-202.395"/>
</g>
<!-- Node21 -->
<g id="node21" class="node"><title>Node21</title>
<g id="a_node21"><a xlink:href="vcs__species__thermo_8h.html" target="_top" xlink:title="cantera/equil/vcs_species\l_thermo.h">
<polygon fill="white" stroke="black" points="1033.5,-293 1033.5,-323 1160.5,-323 1160.5,-293 1033.5,-293"/>
<text text-anchor="start" x="1041.5" y="-311" font-family="FreeSans" font-size="10.00">cantera/equil/vcs_species</text>
<text text-anchor="middle" x="1097" y="-300" font-family="FreeSans" font-size="10.00">_thermo.h</text>
</a>
</g>
</g>
<!-- Node1&#45;&gt;Node21 -->
<g id="edge30" class="edge"><title>Node1&#45;&gt;Node21</title>
<path fill="none" stroke="midnightblue" d="M805.502,-431.567C874.949,-424.631 982.971,-411.186 1019,-392 1045.79,-377.734 1068.5,-350.737 1082.38,-331.404"/>
<polygon fill="midnightblue" stroke="midnightblue" points="1085.3,-333.344 1088.13,-323.134 1079.55,-329.351 1085.3,-333.344"/>
</g>
<!-- Node22 -->
<g id="node22" class="node"><title>Node22</title>
<g id="a_node22"><a xlink:href="clockWC_8h.html" target="_top" xlink:title="Declarations for a simple class that implements an Ansi C wall clock timer (see Cantera::clockWC). ">
<polygon fill="white" stroke="black" points="539,-366.5 539,-385.5 661,-385.5 661,-366.5 539,-366.5"/>
<text text-anchor="middle" x="600" y="-373.5" font-family="FreeSans" font-size="10.00">cantera/base/clockWC.h</text>
</a>
</g>
</g>
<!-- Node1&#45;&gt;Node22 -->
<g id="edge32" class="edge"><title>Node1&#45;&gt;Node22</title>
<path fill="none" stroke="midnightblue" d="M723.368,-428.403C698.881,-418.2 657.853,-401.105 629.891,-389.454"/>
<polygon fill="midnightblue" stroke="midnightblue" points="631.17,-386.196 620.593,-385.581 628.478,-392.658 631.17,-386.196"/>
</g>
<!-- Node24 -->
<g id="node24" class="node"><title>Node24</title>
<g id="a_node24"><a xlink:href="stringUtils_8h.html" target="_top" xlink:title="Contains declarations for string manipulation functions within Cantera. ">
<polygon fill="white" stroke="black" points="765.5,-124.5 765.5,-143.5 890.5,-143.5 890.5,-124.5 765.5,-124.5"/>
<text text-anchor="middle" x="828" y="-131.5" font-family="FreeSans" font-size="10.00">cantera/base/stringUtils.h</text>
</a>
</g>
</g>
<!-- Node1&#45;&gt;Node24 -->
<g id="edge34" class="edge"><title>Node1&#45;&gt;Node24</title>
<path fill="none" stroke="midnightblue" d="M805.772,-433.004C868.46,-427.669 959.766,-415.958 985,-392 1012.52,-365.874 1005,-346.945 1005,-309 1005,-309 1005,-309 1005,-245 1005,-214.775 1006.58,-201.165 985,-180 962.539,-157.97 930.055,-146.583 900.455,-140.752"/>
<polygon fill="midnightblue" stroke="midnightblue" points="901.007,-137.295 890.547,-138.98 899.774,-144.186 901.007,-137.295"/>
</g>
<!-- Node25 -->
<g id="node25" class="node"><title>Node25</title>
<g id="a_node25"><a xlink:href="speciesThermoTypes_8h.html" target="_top" xlink:title="Contains const definitions for types of species reference&#45;state thermodynamics managers (see Species ...">
<polygon fill="white" stroke="black" points="827,-361 827,-391 977,-391 977,-361 827,-361"/>
<text text-anchor="start" x="835" y="-379" font-family="FreeSans" font-size="10.00">cantera/thermo/speciesThermo</text>
<text text-anchor="middle" x="902" y="-368" font-family="FreeSans" font-size="10.00">Types.h</text>
</a>
</g>
</g>
<!-- Node1&#45;&gt;Node25 -->
<g id="edge37" class="edge"><title>Node1&#45;&gt;Node25</title>
<path fill="none" stroke="midnightblue" d="M766.638,-428.403C789.713,-419.641 826.175,-405.794 855.446,-394.679"/>
<polygon fill="midnightblue" stroke="midnightblue" points="856.961,-397.848 865.067,-391.025 854.475,-391.303 856.961,-397.848"/>
</g>
<!-- Node26 -->
<g id="node26" class="node"><title>Node26</title>
<g id="a_node26"><a xlink:href="IdealSolidSolnPhase_8h.html" target="_top" xlink:title="Header file for an ideal solid solution model with incompressible thermodynamics (see Thermodynamic P...">
<polygon fill="white" stroke="black" points="452,-293 452,-323 580,-323 580,-293 452,-293"/>
<text text-anchor="start" x="460" y="-311" font-family="FreeSans" font-size="10.00">cantera/thermo/IdealSolid</text>
<text text-anchor="middle" x="516" y="-300" font-family="FreeSans" font-size="10.00">SolnPhase.h</text>
</a>
</g>
</g>
<!-- Node1&#45;&gt;Node26 -->
<g id="edge38" class="edge"><title>Node1&#45;&gt;Node26</title>
<path fill="none" stroke="midnightblue" d="M682.269,-431.688C626.699,-425.587 550.679,-413.527 530,-392 515.19,-376.583 512.735,-351.683 513.35,-333.172"/>
<polygon fill="midnightblue" stroke="midnightblue" points="516.847,-333.335 513.997,-323.131 509.861,-332.885 516.847,-333.335"/>
</g>
<!-- Node27 -->
<g id="node27" class="node"><title>Node27</title>
<g id="a_node27"><a xlink:href="IdealMolalSoln_8h.html" target="_top" xlink:title="ThermoPhase object for the ideal molal equation of state (see Thermodynamic Properties and class Idea...">
<polygon fill="white" stroke="black" points="679.5,-361 679.5,-391 808.5,-391 808.5,-361 679.5,-361"/>
<text text-anchor="start" x="687.5" y="-379" font-family="FreeSans" font-size="10.00">cantera/thermo/IdealMolal</text>
<text text-anchor="middle" x="744" y="-368" font-family="FreeSans" font-size="10.00">Soln.h</text>
</a>
</g>
</g>
<!-- Node1&#45;&gt;Node27 -->
<g id="edge40" class="edge"><title>Node1&#45;&gt;Node27</title>
<path fill="none" stroke="midnightblue" d="M744,-428.403C744,-421.341 744,-410.975 744,-401.399"/>
<polygon fill="midnightblue" stroke="midnightblue" points="747.5,-401.141 744,-391.141 740.5,-401.141 747.5,-401.141"/>
</g>
<!-- Node31 -->
<g id="node31" class="node"><title>Node31</title>
<polygon fill="white" stroke="#bfbfbf" points="1071,-366.5 1071,-385.5 1113,-385.5 1113,-366.5 1071,-366.5"/>
<text text-anchor="middle" x="1092" y="-373.5" font-family="FreeSans" font-size="10.00">cstdio</text>
</g>
<!-- Node1&#45;&gt;Node31 -->
<g id="edge46" class="edge"><title>Node1&#45;&gt;Node31</title>
<path fill="none" stroke="midnightblue" d="M805.57,-432.933C869.413,-427.611 971.642,-415.977 1057,-392 1059.65,-391.255 1062.37,-390.354 1065.06,-389.369"/>
<polygon fill="midnightblue" stroke="midnightblue" points="1066.55,-392.541 1074.52,-385.556 1063.94,-386.048 1066.55,-392.541"/>
</g>
<!-- Node3 -->
<g id="node3" class="node"><title>Node3</title>
<g id="a_node3"><a xlink:href="MultiPhase_8h.html" target="_top" xlink:title="Headers for the MultiPhase object that is used to set up multiphase equilibrium problems (see Equilib...">
<polygon fill="white" stroke="black" points="417,-236.5 417,-255.5 489,-255.5 489,-236.5 417,-236.5"/>
<text text-anchor="middle" x="453" y="-243.5" font-family="FreeSans" font-size="10.00">MultiPhase.h</text>
</a>
</g>
</g>
<!-- Node2&#45;&gt;Node3 -->
<g id="edge2" class="edge"><title>Node2&#45;&gt;Node3</title>
<path fill="none" stroke="midnightblue" d="M383.566,-292.781C397.966,-283.286 416.837,-270.843 431.271,-261.327"/>
<polygon fill="midnightblue" stroke="midnightblue" points="433.602,-263.982 440.024,-255.556 429.749,-258.138 433.602,-263.982"/>
</g>
<!-- Node14 -->
<g id="node14" class="node"><title>Node14</title>
<g id="a_node14"><a xlink:href="vcs__solve_8h.html" target="_top" xlink:title="Header file for the internal object that holds the vcs equilibrium problem (see Class VCS_SOLVE and E...">
<polygon fill="white" stroke="black" points="329.5,-236.5 329.5,-255.5 394.5,-255.5 394.5,-236.5 329.5,-236.5"/>
<text text-anchor="middle" x="362" y="-243.5" font-family="FreeSans" font-size="10.00">vcs_solve.h</text>
</a>
</g>
</g>
<!-- Node2&#45;&gt;Node14 -->
<g id="edge16" class="edge"><title>Node2&#45;&gt;Node14</title>
<path fill="none" stroke="midnightblue" d="M362,-292.781C362,-284.781 362,-274.689 362,-266.017"/>
<polygon fill="midnightblue" stroke="midnightblue" points="365.5,-265.73 362,-255.731 358.5,-265.731 365.5,-265.73"/>
</g>
<!-- Node18 -->
<g id="node18" class="node"><title>Node18</title>
<g id="a_node18"><a xlink:href="vcs__prob_8h.html" target="_top" xlink:title="Header for the Interface class for the vcs thermo equilibrium solver package,. ">
<polygon fill="white" stroke="black" points="211,-236.5 211,-255.5 273,-255.5 273,-236.5 211,-236.5"/>
<text text-anchor="middle" x="242" y="-243.5" font-family="FreeSans" font-size="10.00">vcs_prob.h</text>
</a>
</g>
</g>
<!-- Node2&#45;&gt;Node18 -->
<g id="edge23" class="edge"><title>Node2&#45;&gt;Node18</title>
<path fill="none" stroke="midnightblue" d="M333.865,-292.933C314.072,-283.036 287.761,-269.88 268.37,-260.185"/>
<polygon fill="midnightblue" stroke="midnightblue" points="269.71,-256.942 259.2,-255.6 266.579,-263.203 269.71,-256.942"/>
</g>
<!-- Node4 -->
<g id="node4" class="node"><title>Node4</title>
<g id="a_node4"><a xlink:href="DenseMatrix_8h.html" target="_top" xlink:title="Headers for the DenseMatrix object, which deals with dense rectangular matrices and description of th...">
<polygon fill="white" stroke="black" points="375.5,-180.5 375.5,-199.5 530.5,-199.5 530.5,-180.5 375.5,-180.5"/>
<text text-anchor="middle" x="453" y="-187.5" font-family="FreeSans" font-size="10.00">cantera/numerics/DenseMatrix.h</text>
</a>
</g>
</g>
<!-- Node3&#45;&gt;Node4 -->
<g id="edge3" class="edge"><title>Node3&#45;&gt;Node4</title>
<path fill="none" stroke="midnightblue" d="M453,-236.083C453,-229.006 453,-218.861 453,-209.986"/>
<polygon fill="midnightblue" stroke="midnightblue" points="456.5,-209.751 453,-199.751 449.5,-209.751 456.5,-209.751"/>
</g>
<!-- Node11 -->
<g id="node11" class="node"><title>Node11</title>
<g id="a_node11"><a xlink:href="ThermoPhase_8h.html" target="_top" xlink:title="Header file for class ThermoPhase, the base class for phases with thermodynamic properties, and the text for the Module thermoprops (see Thermodynamic Properties and class ThermoPhase). ">
<polygon fill="white" stroke="black" points="739,-180.5 739,-199.5 891,-199.5 891,-180.5 739,-180.5"/>
<text text-anchor="middle" x="815" y="-187.5" font-family="FreeSans" font-size="10.00">cantera/thermo/ThermoPhase.h</text>
</a>
</g>
</g>
<!-- Node3&#45;&gt;Node11 -->
<g id="edge11" class="edge"><title>Node3&#45;&gt;Node11</title>
<path fill="none" stroke="midnightblue" d="M489.033,-239.625C549.279,-230.638 671.36,-212.427 747.826,-201.02"/>
<polygon fill="midnightblue" stroke="midnightblue" points="748.466,-204.464 757.84,-199.527 747.433,-197.54 748.466,-204.464"/>
</g>
<!-- Node5 -->
<g id="node5" class="node"><title>Node5</title>
<g id="a_node5"><a xlink:href="ct__defs_8h.html" target="_top" xlink:title="This file contains definitions of terms that are used in internal routines and are unlikely to need m...">
<polygon fill="white" stroke="red" points="570,-62.5 570,-81.5 684,-81.5 684,-62.5 570,-62.5"/>
<text text-anchor="middle" x="627" y="-69.5" font-family="FreeSans" font-size="10.00">cantera/base/ct_defs.h</text>
</a>
</g>
</g>
<!-- Node4&#45;&gt;Node5 -->
<g id="edge4" class="edge"><title>Node4&#45;&gt;Node5</title>
<path fill="none" stroke="midnightblue" d="M464.755,-180.361C482.1,-167.69 515.666,-143.46 545,-124 564.503,-111.062 587.12,-97.0684 603.655,-87.0182"/>
<polygon fill="midnightblue" stroke="midnightblue" points="605.874,-89.7659 612.618,-81.5942 602.25,-83.7771 605.874,-89.7659"/>
</g>
<!-- Node9 -->
<g id="node9" class="node"><title>Node9</title>
<g id="a_node9"><a xlink:href="ctexceptions_8h.html" target="_top" xlink:title="Definitions for the classes that are thrown when Cantera experiences an error condition (also contain...">
<polygon fill="white" stroke="red" points="403.5,-62.5 403.5,-81.5 540.5,-81.5 540.5,-62.5 403.5,-62.5"/>
<text text-anchor="middle" x="472" y="-69.5" font-family="FreeSans" font-size="10.00">cantera/base/ctexceptions.h</text>
</a>
</g>
</g>
<!-- Node4&#45;&gt;Node9 -->
<g id="edge8" class="edge"><title>Node4&#45;&gt;Node9</title>
<path fill="none" stroke="midnightblue" d="M446.42,-180.131C437.953,-167.583 425.109,-143.953 432,-124 436.603,-110.673 446.282,-98.1747 454.966,-88.886"/>
<polygon fill="midnightblue" stroke="midnightblue" points="457.628,-91.1725 462.188,-81.6094 452.66,-86.2412 457.628,-91.1725"/>
</g>
<!-- Node10 -->
<g id="node10" class="node"><title>Node10</title>
<g id="a_node10"><a xlink:href="Array_8h.html" target="_top" xlink:title="Header file for class Cantera::Array2D. ">
<polygon fill="white" stroke="red" points="142.5,-124.5 142.5,-143.5 247.5,-143.5 247.5,-124.5 142.5,-124.5"/>
<text text-anchor="middle" x="195" y="-131.5" font-family="FreeSans" font-size="10.00">cantera/base/Array.h</text>
</a>
</g>
</g>
<!-- Node4&#45;&gt;Node10 -->
<g id="edge10" class="edge"><title>Node4&#45;&gt;Node10</title>
<path fill="none" stroke="midnightblue" d="M412.119,-180.444C367.017,-171.004 294.388,-155.802 245.698,-145.611"/>
<polygon fill="midnightblue" stroke="midnightblue" points="246.195,-142.139 235.69,-143.516 244.76,-148.991 246.195,-142.139"/>
</g>
<!-- Node6 -->
<g id="node6" class="node"><title>Node6</title>
<polygon fill="white" stroke="#bfbfbf" points="826,-0.5 826,-19.5 870,-19.5 870,-0.5 826,-0.5"/>
<text text-anchor="middle" x="848" y="-7.5" font-family="FreeSans" font-size="10.00">cstdlib</text>
</g>
<!-- Node5&#45;&gt;Node6 -->
<g id="edge5" class="edge"><title>Node5&#45;&gt;Node6</title>
<path fill="none" stroke="midnightblue" d="M658.664,-62.4035C700.563,-51.0281 774.017,-31.086 816.056,-19.6726"/>
<polygon fill="midnightblue" stroke="midnightblue" points="817.045,-23.0308 825.779,-17.0329 815.211,-16.2754 817.045,-23.0308"/>
</g>
<!-- Node7 -->
<g id="node7" class="node"><title>Node7</title>
<polygon fill="white" stroke="#bfbfbf" points="422.5,-0.5 422.5,-19.5 465.5,-19.5 465.5,-0.5 422.5,-0.5"/>
<text text-anchor="middle" x="444" y="-7.5" font-family="FreeSans" font-size="10.00">vector</text>
</g>
<!-- Node5&#45;&gt;Node7 -->
<g id="edge6" class="edge"><title>Node5&#45;&gt;Node7</title>
<path fill="none" stroke="midnightblue" d="M600.781,-62.4035C567.679,-51.5504 510.792,-32.8991 475.405,-21.2969"/>
<polygon fill="midnightblue" stroke="midnightblue" points="476.191,-17.8711 465.598,-18.0814 474.01,-24.5228 476.191,-17.8711"/>
</g>
<!-- Node8 -->
<g id="node8" class="node"><title>Node8</title>
<polygon fill="white" stroke="#bfbfbf" points="529,-0.5 529,-19.5 569,-19.5 569,-0.5 529,-0.5"/>
<text text-anchor="middle" x="549" y="-7.5" font-family="FreeSans" font-size="10.00">string</text>
</g>
<!-- Node5&#45;&gt;Node8 -->
<g id="edge7" class="edge"><title>Node5&#45;&gt;Node8</title>
<path fill="none" stroke="midnightblue" d="M615.825,-62.4035C603.429,-52.8688 583.21,-37.3154 568.254,-25.8106"/>
<polygon fill="midnightblue" stroke="midnightblue" points="570.215,-22.9035 560.155,-19.5806 565.947,-28.4519 570.215,-22.9035"/>
</g>
<!-- Node9&#45;&gt;Node8 -->
<g id="edge9" class="edge"><title>Node9&#45;&gt;Node8</title>
<path fill="none" stroke="midnightblue" d="M483.032,-62.4035C495.268,-52.8688 515.229,-37.3154 529.993,-25.8106"/>
<polygon fill="midnightblue" stroke="midnightblue" points="532.252,-28.4879 537.988,-19.5806 527.949,-22.9663 532.252,-28.4879"/>
</g>
<!-- Node12 -->
<g id="node12" class="node"><title>Node12</title>
<g id="a_node12"><a xlink:href="Phase_8h.html" target="_top" xlink:title="Header file for class Phase. ">
<polygon fill="white" stroke="red" points="441.5,-124.5 441.5,-143.5 492.5,-143.5 492.5,-124.5 441.5,-124.5"/>
<text text-anchor="middle" x="467" y="-131.5" font-family="FreeSans" font-size="10.00">Phase.h</text>
</a>
</g>
</g>
<!-- Node11&#45;&gt;Node12 -->
<g id="edge12" class="edge"><title>Node11&#45;&gt;Node12</title>
<path fill="none" stroke="midnightblue" d="M759.858,-180.444C687.752,-169.255 563.48,-149.971 502.645,-140.531"/>
<polygon fill="midnightblue" stroke="midnightblue" points="503.165,-137.07 492.746,-138.995 502.091,-143.987 503.165,-137.07"/>
</g>
<!-- Node13 -->
<g id="node13" class="node"><title>Node13</title>
<g id="a_node13"><a xlink:href="SpeciesThermo_8h.html" target="_top" xlink:title="Virtual base class for the calculation of multiple&#45;species thermodynamic reference&#45;state property man...">
<polygon fill="white" stroke="red" points="587,-124.5 587,-143.5 679,-143.5 679,-124.5 587,-124.5"/>
<text text-anchor="middle" x="633" y="-131.5" font-family="FreeSans" font-size="10.00">SpeciesThermo.h</text>
</a>
</g>
</g>
<!-- Node11&#45;&gt;Node13 -->
<g id="edge14" class="edge"><title>Node11&#45;&gt;Node13</title>
<path fill="none" stroke="midnightblue" d="M786.162,-180.444C755.144,-171.241 705.671,-156.562 671.382,-146.388"/>
<polygon fill="midnightblue" stroke="midnightblue" points="672.286,-143.006 661.704,-143.516 670.295,-149.716 672.286,-143.006"/>
</g>
<!-- Node12&#45;&gt;Node9 -->
<g id="edge13" class="edge"><title>Node12&#45;&gt;Node9</title>
<path fill="none" stroke="midnightblue" d="M467.716,-124.403C468.422,-115.938 469.523,-102.728 470.432,-91.8199"/>
<polygon fill="midnightblue" stroke="midnightblue" points="473.942,-91.8367 471.285,-81.5806 466.966,-91.2554 473.942,-91.8367"/>
</g>
<!-- Node13&#45;&gt;Node5 -->
<g id="edge15" class="edge"><title>Node13&#45;&gt;Node5</title>
<path fill="none" stroke="midnightblue" d="M632.14,-124.403C631.294,-115.938 629.973,-102.728 628.882,-91.8199"/>
<polygon fill="midnightblue" stroke="midnightblue" points="632.336,-91.1827 627.858,-81.5806 625.371,-91.8793 632.336,-91.1827"/>
</g>
<!-- Node14&#45;&gt;Node5 -->
<g id="edge17" class="edge"><title>Node14&#45;&gt;Node5</title>
<path fill="none" stroke="midnightblue" d="M394.595,-238.231C442.55,-228.046 527.686,-209.015 539,-200 568.692,-176.34 555.948,-154.905 578,-124 587.229,-111.066 599.648,-98.1762 609.674,-88.5911"/>
<polygon fill="midnightblue" stroke="midnightblue" points="612.166,-91.0533 617.095,-81.6748 607.393,-85.9325 612.166,-91.0533"/>
</g>
<!-- Node14&#45;&gt;Node10 -->
<g id="edge22" class="edge"><title>Node14&#45;&gt;Node10</title>
<path fill="none" stroke="midnightblue" d="M329.326,-241.125C299.836,-236.118 256.784,-224.867 228,-200 213.958,-187.869 205.175,-168.311 200.234,-153.813"/>
<polygon fill="midnightblue" stroke="midnightblue" points="203.474,-152.443 197.181,-143.92 196.786,-154.508 203.474,-152.443"/>
</g>
<!-- Node15 -->
<g id="node15" class="node"><title>Node15</title>
<g id="a_node15"><a xlink:href="vcs__defs_8h.html" target="_top" xlink:title="Defines and definitions within the vcs package. ">
<polygon fill="white" stroke="black" points="237,-180.5 237,-199.5 357,-199.5 357,-180.5 237,-180.5"/>
<text text-anchor="middle" x="297" y="-187.5" font-family="FreeSans" font-size="10.00">cantera/equil/vcs_defs.h</text>
</a>
</g>
</g>
<!-- Node14&#45;&gt;Node15 -->
<g id="edge18" class="edge"><title>Node14&#45;&gt;Node15</title>
<path fill="none" stroke="midnightblue" d="M351.557,-236.324C341.854,-228.263 327.185,-216.077 315.5,-206.369"/>
<polygon fill="midnightblue" stroke="midnightblue" points="317.562,-203.532 307.633,-199.834 313.089,-208.916 317.562,-203.532"/>
</g>
<!-- Node16 -->
<g id="node16" class="node"><title>Node16</title>
<g id="a_node16"><a xlink:href="vcs__internal_8h.html" target="_top" xlink:title="Internal declarations for the VCSnonideal package. ">
<polygon fill="white" stroke="black" points="587,-180.5 587,-199.5 721,-199.5 721,-180.5 587,-180.5"/>
<text text-anchor="middle" x="654" y="-187.5" font-family="FreeSans" font-size="10.00">cantera/equil/vcs_internal.h</text>
</a>
</g>
</g>
<!-- Node14&#45;&gt;Node16 -->
<g id="edge19" class="edge"><title>Node14&#45;&gt;Node16</title>
<path fill="none" stroke="midnightblue" d="M394.659,-238.559C399.14,-237.69 403.682,-236.817 408,-236 472.455,-223.8 546.517,-210.326 596.395,-201.331"/>
<polygon fill="midnightblue" stroke="midnightblue" points="597.128,-204.756 606.349,-199.538 595.886,-197.866 597.128,-204.756"/>
</g>
<!-- Node17 -->
<g id="node17" class="node"><title>Node17</title>
<g id="a_node17"><a xlink:href="global_8h.html" target="_top" xlink:title="This file contains definitions for utility functions and text for modules, inputfiles, logs, textlogs, (see Input File Handling, Diagnostic Output, and Writing messages to the screen). ">
<polygon fill="white" stroke="black" points="697,-124.5 697,-143.5 747,-143.5 747,-124.5 697,-124.5"/>
<text text-anchor="middle" x="722" y="-131.5" font-family="FreeSans" font-size="10.00">global.h</text>
</a>
</g>
</g>
<!-- Node16&#45;&gt;Node17 -->
<g id="edge20" class="edge"><title>Node16&#45;&gt;Node17</title>
<path fill="none" stroke="midnightblue" d="M664.925,-180.324C675.175,-172.185 690.721,-159.839 703.001,-150.087"/>
<polygon fill="midnightblue" stroke="midnightblue" points="705.221,-152.794 710.876,-143.834 700.868,-147.312 705.221,-152.794"/>
</g>
<!-- Node17&#45;&gt;Node5 -->
<g id="edge21" class="edge"><title>Node17&#45;&gt;Node5</title>
<path fill="none" stroke="midnightblue" d="M708.389,-124.403C692.939,-114.646 667.51,-98.5854 649.184,-87.0109"/>
<polygon fill="midnightblue" stroke="midnightblue" points="650.91,-83.9613 640.586,-81.5806 647.172,-89.8798 650.91,-83.9613"/>
</g>
<!-- Node18&#45;&gt;Node10 -->
<g id="edge24" class="edge"><title>Node18&#45;&gt;Node10</title>
<path fill="none" stroke="midnightblue" d="M227.922,-236.259C216.647,-228.355 201.654,-215.584 195,-200 188.768,-185.406 189.383,-167.232 191.203,-153.814"/>
<polygon fill="midnightblue" stroke="midnightblue" points="194.672,-154.29 192.891,-143.846 187.77,-153.121 194.672,-154.29"/>
</g>
<!-- Node19&#45;&gt;Node10 -->
<g id="edge29" class="edge"><title>Node19&#45;&gt;Node10</title>
<path fill="none" stroke="midnightblue" d="M90.6482,-180.444C110.965,-171.596 142.903,-157.687 166.098,-147.586"/>
<polygon fill="midnightblue" stroke="midnightblue" points="167.673,-150.718 175.444,-143.516 164.878,-144.3 167.673,-150.718"/>
</g>
<!-- Node20 -->
<g id="node20" class="node"><title>Node20</title>
<g id="a_node20"><a xlink:href="vcs__SpeciesProperties_8h.html" target="_top" xlink:title="cantera/equil/vcs_Species\lProperties.h">
<polygon fill="white" stroke="black" points="256.5,-57 256.5,-87 385.5,-87 385.5,-57 256.5,-57"/>
<text text-anchor="start" x="264.5" y="-75" font-family="FreeSans" font-size="10.00">cantera/equil/vcs_Species</text>
<text text-anchor="middle" x="321" y="-64" font-family="FreeSans" font-size="10.00">Properties.h</text>
</a>
</g>
</g>
<!-- Node19&#45;&gt;Node20 -->
<g id="edge26" class="edge"><title>Node19&#45;&gt;Node20</title>
<path fill="none" stroke="midnightblue" d="M76.7811,-180.406C86.64,-166.427 108.075,-138.838 133,-124 167.398,-103.523 210.18,-91.0787 246.239,-83.6167"/>
<polygon fill="midnightblue" stroke="midnightblue" points="247.088,-87.0165 256.218,-81.6416 245.729,-80.1497 247.088,-87.0165"/>
</g>
<!-- Node20&#45;&gt;Node7 -->
<g id="edge27" class="edge"><title>Node20&#45;&gt;Node7</title>
<path fill="none" stroke="midnightblue" d="M349.838,-56.9327C370.219,-46.9907 397.342,-33.7601 417.242,-24.0526"/>
<polygon fill="midnightblue" stroke="midnightblue" points="418.917,-27.13 426.37,-19.6 415.848,-20.8386 418.917,-27.13"/>
</g>
<!-- Node20&#45;&gt;Node8 -->
<g id="edge28" class="edge"><title>Node20&#45;&gt;Node8</title>
<path fill="none" stroke="midnightblue" d="M374.456,-56.9327C419.379,-45.1107 481.973,-28.6387 518.715,-18.9696"/>
<polygon fill="midnightblue" stroke="midnightblue" points="520.019,-22.2459 528.799,-16.3162 518.237,-15.4764 520.019,-22.2459"/>
</g>
<!-- Node21&#45;&gt;Node6 -->
<g id="edge31" class="edge"><title>Node21&#45;&gt;Node6</title>
<path fill="none" stroke="midnightblue" d="M1091.54,-292.959C1083.65,-271.386 1070,-228.633 1070,-191 1070,-191 1070,-191 1070,-133 1070,-47.3595 941.543,-21.4156 880.058,-13.9029"/>
<polygon fill="midnightblue" stroke="midnightblue" points="880.428,-10.4224 870.098,-12.7761 879.641,-17.3781 880.428,-10.4224"/>
</g>
<!-- Node23 -->
<g id="node23" class="node"><title>Node23</title>
<polygon fill="white" stroke="#bfbfbf" points="598.5,-298.5 598.5,-317.5 641.5,-317.5 641.5,-298.5 598.5,-298.5"/>
<text text-anchor="middle" x="620" y="-305.5" font-family="FreeSans" font-size="10.00">time.h</text>
</g>
<!-- Node22&#45;&gt;Node23 -->
<g id="edge33" class="edge"><title>Node22&#45;&gt;Node23</title>
<path fill="none" stroke="midnightblue" d="M602.615,-366.372C605.593,-356.544 610.545,-340.202 614.404,-327.467"/>
<polygon fill="midnightblue" stroke="midnightblue" points="617.77,-328.426 617.321,-317.841 611.071,-326.396 617.77,-328.426"/>
</g>
<!-- Node24&#45;&gt;Node5 -->
<g id="edge35" class="edge"><title>Node24&#45;&gt;Node5</title>
<path fill="none" stroke="midnightblue" d="M799.202,-124.403C764.126,-113.933 704.737,-96.2049 665.693,-84.5501"/>
<polygon fill="midnightblue" stroke="midnightblue" points="666.328,-81.0872 655.745,-81.5806 664.326,-87.7948 666.328,-81.0872"/>
</g>
<!-- Node24&#45;&gt;Node8 -->
<g id="edge36" class="edge"><title>Node24&#45;&gt;Node8</title>
<path fill="none" stroke="midnightblue" d="M815.08,-124.366C791.6,-108.967 740.004,-76.4639 693,-56 654.762,-39.3524 608.383,-26.0051 578.783,-18.2929"/>
<polygon fill="midnightblue" stroke="midnightblue" points="579.609,-14.8916 569.053,-15.8039 577.874,-21.6732 579.609,-14.8916"/>
</g>
<!-- Node26&#45;&gt;Node11 -->
<g id="edge39" class="edge"><title>Node26&#45;&gt;Node11</title>
<path fill="none" stroke="midnightblue" d="M552.364,-292.892C611.532,-269.937 727.636,-224.894 783.5,-203.221"/>
<polygon fill="midnightblue" stroke="midnightblue" points="784.829,-206.459 792.886,-199.579 782.297,-199.933 784.829,-206.459"/>
</g>
<!-- Node28 -->
<g id="node28" class="node"><title>Node28</title>
<g id="a_node28"><a xlink:href="MolalityVPSSTP_8h.html" target="_top" xlink:title="Header for intermediate ThermoPhase object for phases which employ molality based activity coefficien...">
<polygon fill="white" stroke="black" points="732,-298.5 732,-317.5 828,-317.5 828,-298.5 732,-298.5"/>
<text text-anchor="middle" x="780" y="-305.5" font-family="FreeSans" font-size="10.00">MolalityVPSSTP.h</text>
</a>
</g>
</g>
<!-- Node27&#45;&gt;Node28 -->
<g id="edge41" class="edge"><title>Node27&#45;&gt;Node28</title>
<path fill="none" stroke="midnightblue" d="M751.811,-360.679C757.258,-350.694 764.56,-337.307 770.367,-326.66"/>
<polygon fill="midnightblue" stroke="midnightblue" points="773.469,-328.283 775.185,-317.828 767.323,-324.931 773.469,-328.283"/>
</g>
<!-- Node29 -->
<g id="node29" class="node"><title>Node29</title>
<g id="a_node29"><a xlink:href="VPStandardStateTP_8h.html" target="_top" xlink:title="Header file for a derived class of ThermoPhase that handles variable pressure standard state methods ...">
<polygon fill="white" stroke="black" points="759,-236.5 759,-255.5 871,-255.5 871,-236.5 759,-236.5"/>
<text text-anchor="middle" x="815" y="-243.5" font-family="FreeSans" font-size="10.00">VPStandardStateTP.h</text>
</a>
</g>
</g>
<!-- Node28&#45;&gt;Node29 -->
<g id="edge42" class="edge"><title>Node28&#45;&gt;Node29</title>
<path fill="none" stroke="midnightblue" d="M785.015,-298.403C790.161,-289.582 798.312,-275.608 804.818,-264.455"/>
<polygon fill="midnightblue" stroke="midnightblue" points="807.979,-265.982 809.995,-255.581 801.933,-262.455 807.979,-265.982"/>
</g>
<!-- Node29&#45;&gt;Node11 -->
<g id="edge43" class="edge"><title>Node29&#45;&gt;Node11</title>
<path fill="none" stroke="midnightblue" d="M815,-236.083C815,-229.006 815,-218.861 815,-209.986"/>
<polygon fill="midnightblue" stroke="midnightblue" points="818.5,-209.751 815,-199.751 811.5,-209.751 818.5,-209.751"/>
</g>
<!-- Node30 -->
<g id="node30" class="node"><title>Node30</title>
<g id="a_node30"><a xlink:href="VPSSMgr_8h.html" target="_top" xlink:title="Declaration file for a virtual base class that manages the calculation of standard state properties f...">
<polygon fill="white" stroke="red" points="909.5,-180.5 909.5,-199.5 976.5,-199.5 976.5,-180.5 909.5,-180.5"/>
<text text-anchor="middle" x="943" y="-187.5" font-family="FreeSans" font-size="10.00">VPSSMgr.h</text>
</a>
</g>
</g>
<!-- Node29&#45;&gt;Node30 -->
<g id="edge44" class="edge"><title>Node29&#45;&gt;Node30</title>
<path fill="none" stroke="midnightblue" d="M835.282,-236.444C856.347,-227.557 889.517,-213.563 913.486,-203.451"/>
<polygon fill="midnightblue" stroke="midnightblue" points="914.96,-206.628 922.813,-199.516 912.239,-200.179 914.96,-206.628"/>
</g>
<!-- Node30&#45;&gt;Node17 -->
<g id="edge45" class="edge"><title>Node30&#45;&gt;Node17</title>
<path fill="none" stroke="midnightblue" d="M909.161,-181.1C873.638,-172.753 815.914,-159.039 757.069,-144.23"/>
<polygon fill="midnightblue" stroke="midnightblue" points="757.787,-140.802 747.235,-141.748 756.074,-147.589 757.787,-140.802"/>
</g>
</g>
</svg>
