<?xml version="1.0" encoding="UTF-8" standalone="no"?>
<!DOCTYPE svg PUBLIC "-//W3C//DTD SVG 1.1//EN"
 "http://www.w3.org/Graphics/SVG/1.1/DTD/svg11.dtd">
<!-- Generated by graphviz version 2.36.0 (20140111.2315)
 -->
<!-- Title: vcs_SpeciesProperties.h Pages: 1 -->
<svg width="1618pt" height="140pt"
 viewBox="0.00 0.00 1618.00 140.00" xmlns="http://www.w3.org/2000/svg" xmlns:xlink="http://www.w3.org/1999/xlink">
<g id="graph0" class="graph" transform="scale(1 1) rotate(0) translate(4 136)">
<title>vcs_SpeciesProperties.h</title>
<polygon fill="white" stroke="none" points="-4,4 -4,-136 1614,-136 1614,4 -4,4"/>
<!-- Node1 -->
<g id="node1" class="node"><title>Node1</title>
<polygon fill="#bfbfbf" stroke="black" points="710,-112.5 710,-131.5 832,-131.5 832,-112.5 710,-112.5"/>
<text text-anchor="middle" x="771" y="-119.5" font-family="FreeSans" font-size="10.00">vcs_SpeciesProperties.h</text>
</g>
<!-- Node2 -->
<g id="node2" class="node"><title>Node2</title>
<g id="a_node2"><a xlink:href="vcs__SpeciesProperties_8cpp.html" target="_top" xlink:title="vcs_SpeciesProperties.cpp">
<polygon fill="white" stroke="black" points="642,-56.5 642,-75.5 774,-75.5 774,-56.5 642,-56.5"/>
<text text-anchor="middle" x="708" y="-63.5" font-family="FreeSans" font-size="10.00">vcs_SpeciesProperties.cpp</text>
</a>
</g>
</g>
<!-- Node1&#45;&gt;Node2 -->
<g id="edge1" class="edge"><title>Node1&#45;&gt;Node2</title>
<path fill="none" stroke="midnightblue" d="M752.96,-105.537C741.727,-95.9087 727.681,-83.8694 718.306,-75.8339"/>
<polygon fill="midnightblue" stroke="midnightblue" points="751.008,-108.473 760.878,-112.324 755.563,-103.159 751.008,-108.473"/>
</g>
<!-- Node3 -->
<g id="node3" class="node"><title>Node3</title>
<g id="a_node3"><a xlink:href="vcs__VolPhase_8h.html" target="_top" xlink:title="Header for the object representing each phase within vcs. ">
<polygon fill="white" stroke="black" points="792,-56.5 792,-75.5 876,-75.5 876,-56.5 792,-56.5"/>
<text text-anchor="middle" x="834" y="-63.5" font-family="FreeSans" font-size="10.00">vcs_VolPhase.h</text>
</a>
</g>
</g>
<!-- Node1&#45;&gt;Node3 -->
<g id="edge2" class="edge"><title>Node1&#45;&gt;Node3</title>
<path fill="none" stroke="midnightblue" d="M789.04,-105.537C800.273,-95.9087 814.319,-83.8694 823.694,-75.8339"/>
<polygon fill="midnightblue" stroke="midnightblue" points="786.437,-103.159 781.122,-112.324 790.992,-108.473 786.437,-103.159"/>
</g>
<!-- Node4 -->
<g id="node4" class="node"><title>Node4</title>
<g id="a_node4"><a xlink:href="vcs__elem__rearrange_8cpp.html" target="_top" xlink:title="Contains implementations for rearranging the element columns, and it contains the algorithm for choos...">
<polygon fill="white" stroke="black" points="-0.5,-0.5 -0.5,-19.5 120.5,-19.5 120.5,-0.5 -0.5,-0.5"/>
<text text-anchor="middle" x="60" y="-7.5" font-family="FreeSans" font-size="10.00">vcs_elem_rearrange.cpp</text>
</a>
</g>
</g>
<!-- Node3&#45;&gt;Node4 -->
<g id="edge3" class="edge"><title>Node3&#45;&gt;Node4</title>
<path fill="none" stroke="midnightblue" d="M781.802,-56.0036C492.1,-23.1824 415.611,-46.543 129,-20 126.233,-19.7438 123.407,-19.4609 120.554,-19.1584"/>
<polygon fill="midnightblue" stroke="midnightblue" points="781.423,-59.483 791.756,-57.1439 782.22,-52.5285 781.423,-59.483"/>
</g>
<!-- Node5 -->
<g id="node5" class="node"><title>Node5</title>
<g id="a_node5"><a xlink:href="vcs__Gibbs_8cpp.html" target="_top" xlink:title="Functions which calculate the extrinsic Gibbs Free energies. ">
<polygon fill="white" stroke="black" points="138.5,-0.5 138.5,-19.5 217.5,-19.5 217.5,-0.5 138.5,-0.5"/>
<text text-anchor="middle" x="178" y="-7.5" font-family="FreeSans" font-size="10.00">vcs_Gibbs.cpp</text>
</a>
</g>
</g>
<!-- Node3&#45;&gt;Node5 -->
<g id="edge4" class="edge"><title>Node3&#45;&gt;Node5</title>
<path fill="none" stroke="midnightblue" d="M781.781,-55.9882C535.413,-27.061 469.513,-50.0182 227,-20 223.91,-19.6175 220.72,-19.1646 217.519,-18.6687"/>
<polygon fill="midnightblue" stroke="midnightblue" points="781.409,-59.4686 791.753,-57.1756 782.237,-52.5177 781.409,-59.4686"/>
</g>
<!-- Node6 -->
<g id="node6" class="node"><title>Node6</title>
<g id="a_node6"><a xlink:href="vcs__inest_8cpp.html" target="_top" xlink:title="Implementation methods for obtaining a good initial guess. ">
<polygon fill="white" stroke="black" points="236,-0.5 236,-19.5 310,-19.5 310,-0.5 236,-0.5"/>
<text text-anchor="middle" x="273" y="-7.5" font-family="FreeSans" font-size="10.00">vcs_inest.cpp</text>
</a>
</g>
</g>
<!-- Node3&#45;&gt;Node6 -->
<g id="edge5" class="edge"><title>Node3&#45;&gt;Node6</title>
<path fill="none" stroke="midnightblue" d="M781.529,-55.9364C576.025,-30.5615 520.649,-47.4551 319,-20 316.097,-19.6048 313.101,-19.1427 310.096,-18.6405"/>
<polygon fill="midnightblue" stroke="midnightblue" points="781.39,-59.4463 791.747,-57.2175 782.26,-52.5007 781.39,-59.4463"/>
</g>
<!-- Node7 -->
<g id="node7" class="node"><title>Node7</title>
<g id="a_node7"><a xlink:href="vcs__MultiPhaseEquil_8cpp.html" target="_top" xlink:title="Driver routine for the VCSnonideal equilibrium solver package. ">
<polygon fill="white" stroke="black" points="328.5,-0.5 328.5,-19.5 451.5,-19.5 451.5,-0.5 328.5,-0.5"/>
<text text-anchor="middle" x="390" y="-7.5" font-family="FreeSans" font-size="10.00">vcs_MultiPhaseEquil.cpp</text>
</a>
</g>
</g>
<!-- Node3&#45;&gt;Node7 -->
<g id="edge6" class="edge"><title>Node3&#45;&gt;Node7</title>
<path fill="none" stroke="midnightblue" d="M781.711,-55.8911C638.775,-35.5384 600.778,-36.6719 461,-20 457.916,-19.6321 454.757,-19.2502 451.567,-18.8606"/>
<polygon fill="midnightblue" stroke="midnightblue" points="781.337,-59.3732 791.732,-57.3285 782.331,-52.4441 781.337,-59.3732"/>
</g>
<!-- Node8 -->
<g id="node8" class="node"><title>Node8</title>
<g id="a_node8"><a xlink:href="vcs__nondim_8cpp.html" target="_top" xlink:title="Nondimensionalization routines within VCSnonideal. ">
<polygon fill="white" stroke="black" points="470,-0.5 470,-19.5 556,-19.5 556,-0.5 470,-0.5"/>
<text text-anchor="middle" x="513" y="-7.5" font-family="FreeSans" font-size="10.00">vcs_nondim.cpp</text>
</a>
</g>
</g>
<!-- Node3&#45;&gt;Node8 -->
<g id="edge7" class="edge"><title>Node3&#45;&gt;Node8</title>
<path fill="none" stroke="midnightblue" d="M782.003,-55.845C684.554,-39.2536 658.706,-35.8461 565,-20 562.109,-19.5112 559.129,-19.0039 556.126,-18.4905"/>
<polygon fill="midnightblue" stroke="midnightblue" points="781.535,-59.3157 791.982,-57.5472 782.713,-52.4153 781.535,-59.3157"/>
</g>
<!-- Node9 -->
<g id="node9" class="node"><title>Node9</title>
<g id="a_node9"><a xlink:href="vcs__phaseStability_8cpp.html" target="_top" xlink:title="Implementation class for functions associated with determining the stability of a phase (see Class VC...">
<polygon fill="white" stroke="black" points="574,-0.5 574,-19.5 688,-19.5 688,-0.5 574,-0.5"/>
<text text-anchor="middle" x="631" y="-7.5" font-family="FreeSans" font-size="10.00">vcs_phaseStability.cpp</text>
</a>
</g>
</g>
<!-- Node3&#45;&gt;Node9 -->
<g id="edge8" class="edge"><title>Node3&#45;&gt;Node9</title>
<path fill="none" stroke="midnightblue" d="M792.006,-53.8291C753.677,-43.6333 697.848,-28.7823 663.015,-19.5164"/>
<polygon fill="midnightblue" stroke="midnightblue" points="791.27,-57.2551 801.834,-56.4435 793.07,-50.4904 791.27,-57.2551"/>
</g>
<!-- Node10 -->
<g id="node10" class="node"><title>Node10</title>
<g id="a_node10"><a xlink:href="vcs__prep_8cpp.html" target="_top" xlink:title="This file contains some prepatory functions. ">
<polygon fill="white" stroke="black" points="706.5,-0.5 706.5,-19.5 779.5,-19.5 779.5,-0.5 706.5,-0.5"/>
<text text-anchor="middle" x="743" y="-7.5" font-family="FreeSans" font-size="10.00">vcs_prep.cpp</text>
</a>
</g>
</g>
<!-- Node3&#45;&gt;Node10 -->
<g id="edge9" class="edge"><title>Node3&#45;&gt;Node10</title>
<path fill="none" stroke="midnightblue" d="M810.706,-51.1774C793.961,-41.2407 771.9,-28.1492 757.584,-19.6545"/>
<polygon fill="midnightblue" stroke="midnightblue" points="808.993,-54.2307 819.379,-56.324 812.566,-48.2108 808.993,-54.2307"/>
</g>
<!-- Node11 -->
<g id="node11" class="node"><title>Node11</title>
<g id="a_node11"><a xlink:href="vcs__prob_8cpp.html" target="_top" xlink:title="Implementation for the Interface class for the vcs thermo equilibrium solver package,. ">
<polygon fill="white" stroke="black" points="797.5,-0.5 797.5,-19.5 870.5,-19.5 870.5,-0.5 797.5,-0.5"/>
<text text-anchor="middle" x="834" y="-7.5" font-family="FreeSans" font-size="10.00">vcs_prob.cpp</text>
</a>
</g>
</g>
<!-- Node3&#45;&gt;Node11 -->
<g id="edge10" class="edge"><title>Node3&#45;&gt;Node11</title>
<path fill="none" stroke="midnightblue" d="M834,-45.8045C834,-36.9102 834,-26.7798 834,-19.7511"/>
<polygon fill="midnightblue" stroke="midnightblue" points="830.5,-46.083 834,-56.083 837.5,-46.083 830.5,-46.083"/>
</g>
<!-- Node12 -->
<g id="node12" class="node"><title>Node12</title>
<g id="a_node12"><a xlink:href="vcs__report_8cpp.html" target="_top" xlink:title="vcs_report.cpp">
<polygon fill="white" stroke="black" points="888.5,-0.5 888.5,-19.5 967.5,-19.5 967.5,-0.5 888.5,-0.5"/>
<text text-anchor="middle" x="928" y="-7.5" font-family="FreeSans" font-size="10.00">vcs_report.cpp</text>
</a>
</g>
</g>
<!-- Node3&#45;&gt;Node12 -->
<g id="edge11" class="edge"><title>Node3&#45;&gt;Node12</title>
<path fill="none" stroke="midnightblue" d="M858.062,-51.1774C875.359,-41.2407 898.148,-28.1492 912.935,-19.6545"/>
<polygon fill="midnightblue" stroke="midnightblue" points="856.03,-48.3078 849.103,-56.324 859.517,-54.3775 856.03,-48.3078"/>
</g>
<!-- Node13 -->
<g id="node13" class="node"><title>Node13</title>
<g id="a_node13"><a xlink:href="vcs__rxnadj_8cpp.html" target="_top" xlink:title="Routines for carrying out various adjustments to the reaction steps. ">
<polygon fill="white" stroke="black" points="986,-0.5 986,-19.5 1066,-19.5 1066,-0.5 986,-0.5"/>
<text text-anchor="middle" x="1026" y="-7.5" font-family="FreeSans" font-size="10.00">vcs_rxnadj.cpp</text>
</a>
</g>
</g>
<!-- Node3&#45;&gt;Node13 -->
<g id="edge12" class="edge"><title>Node3&#45;&gt;Node13</title>
<path fill="none" stroke="midnightblue" d="M874.183,-53.6986C910.419,-43.507 962.914,-28.7429 995.719,-19.5164"/>
<polygon fill="midnightblue" stroke="midnightblue" points="873.102,-50.3667 864.423,-56.4435 874.997,-57.1053 873.102,-50.3667"/>
</g>
<!-- Node14 -->
<g id="node14" class="node"><title>Node14</title>
<g id="a_node14"><a xlink:href="vcs__solve_8cpp.html" target="_top" xlink:title="vcs_solve.cpp">
<polygon fill="white" stroke="black" points="1084,-0.5 1084,-19.5 1160,-19.5 1160,-0.5 1084,-0.5"/>
<text text-anchor="middle" x="1122" y="-7.5" font-family="FreeSans" font-size="10.00">vcs_solve.cpp</text>
</a>
</g>
</g>
<!-- Node3&#45;&gt;Node14 -->
<g id="edge13" class="edge"><title>Node3&#45;&gt;Node14</title>
<path fill="none" stroke="midnightblue" d="M886.249,-55.3156C935.073,-46.249 1009.99,-32.2937 1075,-20 1077.86,-19.4597 1080.81,-18.8989 1083.78,-18.3333"/>
<polygon fill="midnightblue" stroke="midnightblue" points="885.433,-51.9072 876.24,-57.1737 886.711,-58.7897 885.433,-51.9072"/>
</g>
<!-- Node15 -->
<g id="node15" class="node"><title>Node15</title>
<g id="a_node15"><a xlink:href="vcs__solve__TP_8cpp.html" target="_top" xlink:title="Implementation file that contains the main algorithm for finding an equilibrium. ">
<polygon fill="white" stroke="black" points="1178,-0.5 1178,-19.5 1272,-19.5 1272,-0.5 1178,-0.5"/>
<text text-anchor="middle" x="1225" y="-7.5" font-family="FreeSans" font-size="10.00">vcs_solve_TP.cpp</text>
</a>
</g>
</g>
<!-- Node3&#45;&gt;Node15 -->
<g id="edge14" class="edge"><title>Node3&#45;&gt;Node15</title>
<path fill="none" stroke="midnightblue" d="M886.23,-58.4084C952.185,-49.9871 1069.12,-34.7319 1169,-20 1171.92,-19.5689 1174.93,-19.1153 1177.96,-18.6503"/>
<polygon fill="midnightblue" stroke="midnightblue" points="885.57,-54.9641 876.092,-59.7002 886.455,-61.908 885.57,-54.9641"/>
</g>
<!-- Node16 -->
<g id="node16" class="node"><title>Node16</title>
<g id="a_node16"><a xlink:href="vcs__species__thermo_8cpp.html" target="_top" xlink:title="Implementation for the VCS_SPECIES_THERMO object. ">
<polygon fill="white" stroke="black" points="1290,-0.5 1290,-19.5 1412,-19.5 1412,-0.5 1290,-0.5"/>
<text text-anchor="middle" x="1351" y="-7.5" font-family="FreeSans" font-size="10.00">vcs_species_thermo.cpp</text>
</a>
</g>
</g>
<!-- Node3&#45;&gt;Node16 -->
<g id="edge15" class="edge"><title>Node3&#45;&gt;Node16</title>
<path fill="none" stroke="midnightblue" d="M886.252,-60.2102C969.745,-52.4508 1138.36,-36.346 1281,-20 1283.92,-19.6652 1286.91,-19.3141 1289.93,-18.9526"/>
<polygon fill="midnightblue" stroke="midnightblue" points="885.892,-56.7285 876.258,-61.137 886.538,-63.6986 885.892,-56.7285"/>
</g>
<!-- Node17 -->
<g id="node17" class="node"><title>Node17</title>
<g id="a_node17"><a xlink:href="vcs__TP_8cpp.html" target="_top" xlink:title="vcs_TP.cpp">
<polygon fill="white" stroke="black" points="1430.5,-0.5 1430.5,-19.5 1497.5,-19.5 1497.5,-0.5 1430.5,-0.5"/>
<text text-anchor="middle" x="1464" y="-7.5" font-family="FreeSans" font-size="10.00">vcs_TP.cpp</text>
</a>
</g>
</g>
<!-- Node3&#45;&gt;Node17 -->
<g id="edge16" class="edge"><title>Node3&#45;&gt;Node17</title>
<path fill="none" stroke="midnightblue" d="M886.321,-63.2684C989.195,-59.3612 1224.85,-47.925 1421,-20 1424.02,-19.57 1427.15,-19.0546 1430.27,-18.4911"/>
<polygon fill="midnightblue" stroke="midnightblue" points="886.062,-59.7755 876.199,-63.6447 886.322,-66.7707 886.062,-59.7755"/>
</g>
<!-- Node18 -->
<g id="node18" class="node"><title>Node18</title>
<g id="a_node18"><a xlink:href="vcs__VolPhase_8cpp.html" target="_top" xlink:title="vcs_VolPhase.cpp">
<polygon fill="white" stroke="black" points="1515.5,-0.5 1515.5,-19.5 1610.5,-19.5 1610.5,-0.5 1515.5,-0.5"/>
<text text-anchor="middle" x="1563" y="-7.5" font-family="FreeSans" font-size="10.00">vcs_VolPhase.cpp</text>
</a>
</g>
</g>
<!-- Node3&#45;&gt;Node18 -->
<g id="edge17" class="edge"><title>Node3&#45;&gt;Node18</title>
<path fill="none" stroke="midnightblue" d="M886.308,-63.0968C999.568,-58.625 1275.85,-45.8231 1506,-20 1509.09,-19.6537 1512.26,-19.2593 1515.46,-18.8335"/>
<polygon fill="midnightblue" stroke="midnightblue" points="886.04,-59.6045 876.184,-63.4913 886.313,-66.5991 886.04,-59.6045"/>
</g>
</g>
</svg>
