<?xml version="1.0" encoding="UTF-8" standalone="no"?>
<!DOCTYPE svg PUBLIC "-//W3C//DTD SVG 1.1//EN"
 "http://www.w3.org/Graphics/SVG/1.1/DTD/svg11.dtd">
<!-- Generated by graphviz version 2.36.0 (20140111.2315)
 -->
<!-- Title: vcs_SpeciesProperties.h Pages: 1 -->
<svg width="130pt" height="84pt"
 viewBox="0.00 0.00 130.00 84.00" xmlns="http://www.w3.org/2000/svg" xmlns:xlink="http://www.w3.org/1999/xlink">
<g id="graph0" class="graph" transform="scale(1 1) rotate(0) translate(4 80)">
<title>vcs_SpeciesProperties.h</title>
<polygon fill="white" stroke="none" points="-4,4 -4,-80 126,-80 126,4 -4,4"/>
<!-- Node1 -->
<g id="node1" class="node"><title>Node1</title>
<polygon fill="#bfbfbf" stroke="black" points="0,-56.5 0,-75.5 122,-75.5 122,-56.5 0,-56.5"/>
<text text-anchor="middle" x="61" y="-63.5" font-family="FreeSans" font-size="10.00">vcs_SpeciesProperties.h</text>
</g>
<!-- Node2 -->
<g id="node2" class="node"><title>Node2</title>
<polygon fill="white" stroke="#bfbfbf" points="9.5,-0.5 9.5,-19.5 52.5,-19.5 52.5,-0.5 9.5,-0.5"/>
<text text-anchor="middle" x="31" y="-7.5" font-family="FreeSans" font-size="10.00">vector</text>
</g>
<!-- Node1&#45;&gt;Node2 -->
<g id="edge1" class="edge"><title>Node1&#45;&gt;Node2</title>
<path fill="none" stroke="midnightblue" d="M56.0461,-56.083C51.8959,-48.6127 45.8469,-37.7244 40.7333,-28.5199"/>
<polygon fill="midnightblue" stroke="midnightblue" points="43.7777,-26.7929 35.8617,-19.7511 37.6586,-30.1924 43.7777,-26.7929"/>
</g>
<!-- Node3 -->
<g id="node3" class="node"><title>Node3</title>
<polygon fill="white" stroke="#bfbfbf" points="71,-0.5 71,-19.5 111,-19.5 111,-0.5 71,-0.5"/>
<text text-anchor="middle" x="91" y="-7.5" font-family="FreeSans" font-size="10.00">string</text>
</g>
<!-- Node1&#45;&gt;Node3 -->
<g id="edge2" class="edge"><title>Node1&#45;&gt;Node3</title>
<path fill="none" stroke="midnightblue" d="M65.9539,-56.083C70.1041,-48.6127 76.1531,-37.7244 81.2667,-28.5199"/>
<polygon fill="midnightblue" stroke="midnightblue" points="84.3414,-30.1924 86.1383,-19.7511 78.2223,-26.7929 84.3414,-30.1924"/>
</g>
</g>
</svg>
