<?xml version="1.0" encoding="UTF-8" standalone="no"?>
<!DOCTYPE svg PUBLIC "-//W3C//DTD SVG 1.1//EN"
 "http://www.w3.org/Graphics/SVG/1.1/DTD/svg11.dtd">
<!-- Generated by graphviz version 2.36.0 (20140111.2315)
 -->
<!-- Title: vcs_solve_TP.cpp Pages: 1 -->
<svg width="986pt" height="376pt"
 viewBox="0.00 0.00 986.00 376.00" xmlns="http://www.w3.org/2000/svg" xmlns:xlink="http://www.w3.org/1999/xlink">
<g id="graph0" class="graph" transform="scale(1 1) rotate(0) translate(4 372)">
<title>vcs_solve_TP.cpp</title>
<polygon fill="white" stroke="none" points="-4,4 -4,-372 982,-372 982,4 -4,4"/>
<!-- Node1 -->
<g id="node1" class="node"><title>Node1</title>
<polygon fill="#bfbfbf" stroke="black" points="565,-348.5 565,-367.5 659,-367.5 659,-348.5 565,-348.5"/>
<text text-anchor="middle" x="612" y="-355.5" font-family="FreeSans" font-size="10.00">vcs_solve_TP.cpp</text>
</g>
<!-- Node2 -->
<g id="node2" class="node"><title>Node2</title>
<g id="a_node2"><a xlink:href="vcs__solve_8h.html" target="_top" xlink:title="Header file for the internal object that holds the vcs equilibrium problem (see Class VCS_SOLVE and E...">
<polygon fill="white" stroke="black" points="287,-292.5 287,-311.5 411,-311.5 411,-292.5 287,-292.5"/>
<text text-anchor="middle" x="349" y="-299.5" font-family="FreeSans" font-size="10.00">cantera/equil/vcs_solve.h</text>
</a>
</g>
</g>
<!-- Node1&#45;&gt;Node2 -->
<g id="edge1" class="edge"><title>Node1&#45;&gt;Node2</title>
<path fill="none" stroke="midnightblue" d="M570.327,-348.444C524.255,-338.984 450.004,-323.738 400.369,-313.547"/>
<polygon fill="midnightblue" stroke="midnightblue" points="400.978,-310.099 390.478,-311.516 399.57,-316.956 400.978,-310.099"/>
</g>
<!-- Node20 -->
<g id="node20" class="node"><title>Node20</title>
<g id="a_node20"><a xlink:href="vcs__VolPhase_8h.html" target="_top" xlink:title="Header for the object representing each phase within vcs. ">
<polygon fill="white" stroke="black" points="440.5,-292.5 440.5,-311.5 583.5,-311.5 583.5,-292.5 440.5,-292.5"/>
<text text-anchor="middle" x="512" y="-299.5" font-family="FreeSans" font-size="10.00">cantera/equil/vcs_VolPhase.h</text>
</a>
</g>
</g>
<!-- Node1&#45;&gt;Node20 -->
<g id="edge22" class="edge"><title>Node1&#45;&gt;Node20</title>
<path fill="none" stroke="midnightblue" d="M595.933,-348.324C580.042,-339.743 555.493,-326.486 537.042,-316.522"/>
<polygon fill="midnightblue" stroke="midnightblue" points="538.489,-313.326 528.027,-311.655 535.163,-319.486 538.489,-313.326"/>
</g>
<!-- Node22 -->
<g id="node22" class="node"><title>Node22</title>
<g id="a_node22"><a xlink:href="ctexceptions_8h.html" target="_top" xlink:title="Definitions for the classes that are thrown when Cantera experiences an error condition (also contain...">
<polygon fill="white" stroke="black" points="640.5,-292.5 640.5,-311.5 777.5,-311.5 777.5,-292.5 640.5,-292.5"/>
<text text-anchor="middle" x="709" y="-299.5" font-family="FreeSans" font-size="10.00">cantera/base/ctexceptions.h</text>
</a>
</g>
</g>
<!-- Node1&#45;&gt;Node22 -->
<g id="edge27" class="edge"><title>Node1&#45;&gt;Node22</title>
<path fill="none" stroke="midnightblue" d="M627.585,-348.324C642.999,-339.743 666.812,-326.486 684.71,-316.522"/>
<polygon fill="midnightblue" stroke="midnightblue" points="686.419,-319.577 693.454,-311.655 683.014,-313.461 686.419,-319.577"/>
</g>
<!-- Node24 -->
<g id="node24" class="node"><title>Node24</title>
<g id="a_node24"><a xlink:href="clockWC_8h.html" target="_top" xlink:title="Declarations for a simple class that implements an Ansi C wall clock timer (see Cantera::clockWC). ">
<polygon fill="white" stroke="black" points="796,-292.5 796,-311.5 918,-311.5 918,-292.5 796,-292.5"/>
<text text-anchor="middle" x="857" y="-299.5" font-family="FreeSans" font-size="10.00">cantera/base/clockWC.h</text>
</a>
</g>
</g>
<!-- Node1&#45;&gt;Node24 -->
<g id="edge30" class="edge"><title>Node1&#45;&gt;Node24</title>
<path fill="none" stroke="midnightblue" d="M650.821,-348.444C693.561,-339.023 762.332,-323.866 808.566,-313.675"/>
<polygon fill="midnightblue" stroke="midnightblue" points="809.348,-317.087 818.361,-311.516 807.842,-310.251 809.348,-317.087"/>
</g>
<!-- Node26 -->
<g id="node26" class="node"><title>Node26</title>
<g id="a_node26"><a xlink:href="stringUtils_8h.html" target="_top" xlink:title="Contains declarations for string manipulation functions within Cantera. ">
<polygon fill="white" stroke="black" points="555.5,-124.5 555.5,-143.5 680.5,-143.5 680.5,-124.5 555.5,-124.5"/>
<text text-anchor="middle" x="618" y="-131.5" font-family="FreeSans" font-size="10.00">cantera/base/stringUtils.h</text>
</a>
</g>
</g>
<!-- Node1&#45;&gt;Node26 -->
<g id="edge32" class="edge"><title>Node1&#45;&gt;Node26</title>
<path fill="none" stroke="midnightblue" d="M612.235,-348.297C613.118,-315.633 616.247,-199.866 617.488,-153.957"/>
<polygon fill="midnightblue" stroke="midnightblue" points="620.988,-153.975 617.76,-143.884 613.991,-153.785 620.988,-153.975"/>
</g>
<!-- Node27 -->
<g id="node27" class="node"><title>Node27</title>
<g id="a_node27"><a xlink:href="ctlapack_8h.html" target="_top" xlink:title="cantera/numerics/ctlapack.h">
<polygon fill="white" stroke="black" points="0,-236.5 0,-255.5 138,-255.5 138,-236.5 0,-236.5"/>
<text text-anchor="middle" x="69" y="-243.5" font-family="FreeSans" font-size="10.00">cantera/numerics/ctlapack.h</text>
</a>
</g>
</g>
<!-- Node1&#45;&gt;Node27 -->
<g id="edge35" class="edge"><title>Node1&#45;&gt;Node27</title>
<path fill="none" stroke="midnightblue" d="M564.823,-353.155C499.733,-347.282 378.975,-334.339 278,-312 214.418,-297.934 142.305,-273.572 101.575,-259.002"/>
<polygon fill="midnightblue" stroke="midnightblue" points="102.757,-255.708 92.1626,-255.609 100.383,-262.293 102.757,-255.708"/>
</g>
<!-- Node28 -->
<g id="node28" class="node"><title>Node28</title>
<polygon fill="white" stroke="#bfbfbf" points="936,-292.5 936,-311.5 978,-311.5 978,-292.5 936,-292.5"/>
<text text-anchor="middle" x="957" y="-299.5" font-family="FreeSans" font-size="10.00">cstdio</text>
</g>
<!-- Node1&#45;&gt;Node28 -->
<g id="edge37" class="edge"><title>Node1&#45;&gt;Node28</title>
<path fill="none" stroke="midnightblue" d="M659.091,-352.495C719.022,-346.273 825.825,-333.549 925.832,-311.973"/>
<polygon fill="midnightblue" stroke="midnightblue" points="926.779,-315.349 935.798,-309.788 925.28,-308.511 926.779,-315.349"/>
</g>
<!-- Node3 -->
<g id="node3" class="node"><title>Node3</title>
<g id="a_node3"><a xlink:href="ct__defs_8h.html" target="_top" xlink:title="This file contains definitions of terms that are used in internal routines and are unlikely to need m...">
<polygon fill="white" stroke="black" points="286,-62.5 286,-81.5 400,-81.5 400,-62.5 286,-62.5"/>
<text text-anchor="middle" x="343" y="-69.5" font-family="FreeSans" font-size="10.00">cantera/base/ct_defs.h</text>
</a>
</g>
</g>
<!-- Node2&#45;&gt;Node3 -->
<g id="edge2" class="edge"><title>Node2&#45;&gt;Node3</title>
<path fill="none" stroke="midnightblue" d="M317.617,-292.411C278.073,-279.67 212.02,-251.529 185,-200 174.833,-180.61 188.117,-135.035 198,-124 217.898,-101.78 248.063,-89.2414 275.735,-82.1653"/>
<polygon fill="midnightblue" stroke="midnightblue" points="276.862,-85.4959 285.794,-79.7977 275.258,-78.6821 276.862,-85.4959"/>
</g>
<!-- Node11 -->
<g id="node11" class="node"><title>Node11</title>
<g id="a_node11"><a xlink:href="vcs__defs_8h.html" target="_top" xlink:title="Defines and definitions within the vcs package. ">
<polygon fill="white" stroke="black" points="289,-236.5 289,-255.5 409,-255.5 409,-236.5 289,-236.5"/>
<text text-anchor="middle" x="349" y="-243.5" font-family="FreeSans" font-size="10.00">cantera/equil/vcs_defs.h</text>
</a>
</g>
</g>
<!-- Node2&#45;&gt;Node11 -->
<g id="edge10" class="edge"><title>Node2&#45;&gt;Node11</title>
<path fill="none" stroke="midnightblue" d="M349,-292.083C349,-285.006 349,-274.861 349,-265.986"/>
<polygon fill="midnightblue" stroke="midnightblue" points="352.5,-265.751 349,-255.751 345.5,-265.751 352.5,-265.751"/>
</g>
<!-- Node12 -->
<g id="node12" class="node"><title>Node12</title>
<g id="a_node12"><a xlink:href="vcs__internal_8h.html" target="_top" xlink:title="Internal declarations for the VCSnonideal package. ">
<polygon fill="white" stroke="black" points="194,-180.5 194,-199.5 328,-199.5 328,-180.5 194,-180.5"/>
<text text-anchor="middle" x="261" y="-187.5" font-family="FreeSans" font-size="10.00">cantera/equil/vcs_internal.h</text>
</a>
</g>
</g>
<!-- Node2&#45;&gt;Node12 -->
<g id="edge11" class="edge"><title>Node2&#45;&gt;Node12</title>
<path fill="none" stroke="midnightblue" d="M328.305,-292.347C312.856,-284.876 292.362,-272.65 280,-256 270.035,-242.578 265.278,-224.014 263.018,-210.16"/>
<polygon fill="midnightblue" stroke="midnightblue" points="266.435,-209.299 261.648,-199.847 259.496,-210.221 266.435,-209.299"/>
</g>
<!-- Node14 -->
<g id="node14" class="node"><title>Node14</title>
<g id="a_node14"><a xlink:href="Array_8h.html" target="_top" xlink:title="Header file for class Cantera::Array2D. ">
<polygon fill="white" stroke="black" points="427.5,-236.5 427.5,-255.5 532.5,-255.5 532.5,-236.5 427.5,-236.5"/>
<text text-anchor="middle" x="480" y="-243.5" font-family="FreeSans" font-size="10.00">cantera/base/Array.h</text>
</a>
</g>
</g>
<!-- Node2&#45;&gt;Node14 -->
<g id="edge14" class="edge"><title>Node2&#45;&gt;Node14</title>
<path fill="none" stroke="midnightblue" d="M369.757,-292.444C391.316,-283.557 425.263,-269.563 449.794,-259.451"/>
<polygon fill="midnightblue" stroke="midnightblue" points="451.428,-262.563 459.34,-255.516 448.761,-256.092 451.428,-262.563"/>
</g>
<!-- Node4 -->
<g id="node4" class="node"><title>Node4</title>
<g id="a_node4"><a xlink:href="config_8h_source.html" target="_top" xlink:title="config.h">
<polygon fill="white" stroke="black" points="253,-0.5 253,-19.5 303,-19.5 303,-0.5 253,-0.5"/>
<text text-anchor="middle" x="278" y="-7.5" font-family="FreeSans" font-size="10.00">config.h</text>
</a>
</g>
</g>
<!-- Node3&#45;&gt;Node4 -->
<g id="edge3" class="edge"><title>Node3&#45;&gt;Node4</title>
<path fill="none" stroke="midnightblue" d="M333.687,-62.4035C323.551,-53.047 307.136,-37.8948 294.748,-26.4599"/>
<polygon fill="midnightblue" stroke="midnightblue" points="297.018,-23.7916 287.296,-19.5806 292.27,-28.9352 297.018,-23.7916"/>
</g>
<!-- Node5 -->
<g id="node5" class="node"><title>Node5</title>
<polygon fill="white" stroke="#bfbfbf" points="321,-0.5 321,-19.5 365,-19.5 365,-0.5 321,-0.5"/>
<text text-anchor="middle" x="343" y="-7.5" font-family="FreeSans" font-size="10.00">cmath</text>
</g>
<!-- Node3&#45;&gt;Node5 -->
<g id="edge4" class="edge"><title>Node3&#45;&gt;Node5</title>
<path fill="none" stroke="midnightblue" d="M343,-62.4035C343,-53.9381 343,-40.7283 343,-29.8199"/>
<polygon fill="midnightblue" stroke="midnightblue" points="346.5,-29.5806 343,-19.5806 339.5,-29.5806 346.5,-29.5806"/>
</g>
<!-- Node6 -->
<g id="node6" class="node"><title>Node6</title>
<polygon fill="white" stroke="#bfbfbf" points="383,-0.5 383,-19.5 427,-19.5 427,-0.5 383,-0.5"/>
<text text-anchor="middle" x="405" y="-7.5" font-family="FreeSans" font-size="10.00">cstdlib</text>
</g>
<!-- Node3&#45;&gt;Node6 -->
<g id="edge5" class="edge"><title>Node3&#45;&gt;Node6</title>
<path fill="none" stroke="midnightblue" d="M351.883,-62.4035C361.459,-53.1361 376.911,-38.1828 388.686,-26.7876"/>
<polygon fill="midnightblue" stroke="midnightblue" points="391.381,-29.05 396.133,-19.5806 386.513,-24.0197 391.381,-29.05"/>
</g>
<!-- Node7 -->
<g id="node7" class="node"><title>Node7</title>
<polygon fill="white" stroke="#bfbfbf" points="500.5,-0.5 500.5,-19.5 543.5,-19.5 543.5,-0.5 500.5,-0.5"/>
<text text-anchor="middle" x="522" y="-7.5" font-family="FreeSans" font-size="10.00">vector</text>
</g>
<!-- Node3&#45;&gt;Node7 -->
<g id="edge6" class="edge"><title>Node3&#45;&gt;Node7</title>
<path fill="none" stroke="midnightblue" d="M368.646,-62.4035C400.849,-51.6093 456.064,-33.1016 490.715,-21.4867"/>
<polygon fill="midnightblue" stroke="midnightblue" points="491.964,-24.7594 500.333,-18.2626 489.739,-18.1223 491.964,-24.7594"/>
</g>
<!-- Node8 -->
<g id="node8" class="node"><title>Node8</title>
<polygon fill="white" stroke="#bfbfbf" points="445.5,-0.5 445.5,-19.5 480.5,-19.5 480.5,-0.5 445.5,-0.5"/>
<text text-anchor="middle" x="463" y="-7.5" font-family="FreeSans" font-size="10.00">map</text>
</g>
<!-- Node3&#45;&gt;Node8 -->
<g id="edge7" class="edge"><title>Node3&#45;&gt;Node8</title>
<path fill="none" stroke="midnightblue" d="M360.193,-62.4035C380.243,-52.3787 413.599,-35.7006 436.86,-24.0699"/>
<polygon fill="midnightblue" stroke="midnightblue" points="438.46,-27.1833 445.839,-19.5806 435.329,-20.9223 438.46,-27.1833"/>
</g>
<!-- Node9 -->
<g id="node9" class="node"><title>Node9</title>
<polygon fill="white" stroke="#bfbfbf" points="580,-0.5 580,-19.5 620,-19.5 620,-0.5 580,-0.5"/>
<text text-anchor="middle" x="600" y="-7.5" font-family="FreeSans" font-size="10.00">string</text>
</g>
<!-- Node3&#45;&gt;Node9 -->
<g id="edge8" class="edge"><title>Node3&#45;&gt;Node9</title>
<path fill="none" stroke="midnightblue" d="M379.549,-62.4672C430.697,-50.526 522.661,-29.0557 570.016,-18.0002"/>
<polygon fill="midnightblue" stroke="midnightblue" points="571.015,-21.361 579.958,-15.6791 569.424,-14.5443 571.015,-21.361"/>
</g>
<!-- Node10 -->
<g id="node10" class="node"><title>Node10</title>
<polygon fill="white" stroke="#bfbfbf" points="179,-0.5 179,-19.5 235,-19.5 235,-0.5 179,-0.5"/>
<text text-anchor="middle" x="207" y="-7.5" font-family="FreeSans" font-size="10.00">algorithm</text>
</g>
<!-- Node3&#45;&gt;Node10 -->
<g id="edge9" class="edge"><title>Node3&#45;&gt;Node10</title>
<path fill="none" stroke="midnightblue" d="M323.515,-62.4035C300.59,-52.2896 262.315,-35.4036 235.925,-23.761"/>
<polygon fill="midnightblue" stroke="midnightblue" points="237.011,-20.4148 226.449,-19.5806 234.186,-26.8193 237.011,-20.4148"/>
</g>
<!-- Node13 -->
<g id="node13" class="node"><title>Node13</title>
<g id="a_node13"><a xlink:href="global_8h.html" target="_top" xlink:title="This file contains definitions for utility functions and text for modules, inputfiles, logs, textlogs, (see Input File Handling, Diagnostic Output, and Writing messages to the screen). ">
<polygon fill="white" stroke="black" points="207,-124.5 207,-143.5 315,-143.5 315,-124.5 207,-124.5"/>
<text text-anchor="middle" x="261" y="-131.5" font-family="FreeSans" font-size="10.00">cantera/base/global.h</text>
</a>
</g>
</g>
<!-- Node12&#45;&gt;Node13 -->
<g id="edge12" class="edge"><title>Node12&#45;&gt;Node13</title>
<path fill="none" stroke="midnightblue" d="M261,-180.083C261,-173.006 261,-162.861 261,-153.986"/>
<polygon fill="midnightblue" stroke="midnightblue" points="264.5,-153.751 261,-143.751 257.5,-153.751 264.5,-153.751"/>
</g>
<!-- Node13&#45;&gt;Node3 -->
<g id="edge13" class="edge"><title>Node13&#45;&gt;Node3</title>
<path fill="none" stroke="midnightblue" d="M272.749,-124.403C285.901,-114.78 307.434,-99.0242 323.198,-87.4891"/>
<polygon fill="midnightblue" stroke="midnightblue" points="325.27,-90.3103 331.273,-81.5806 321.136,-84.6611 325.27,-90.3103"/>
</g>
<!-- Node15 -->
<g id="node15" class="node"><title>Node15</title>
<g id="a_node15"><a xlink:href="utilities_8h.html" target="_top" xlink:title="Various templated functions that carry out common vector operations (see Templated Utility Functions)...">
<polygon fill="white" stroke="black" points="346,-180.5 346,-199.5 400,-199.5 400,-180.5 346,-180.5"/>
<text text-anchor="middle" x="373" y="-187.5" font-family="FreeSans" font-size="10.00">utilities.h</text>
</a>
</g>
</g>
<!-- Node14&#45;&gt;Node15 -->
<g id="edge15" class="edge"><title>Node14&#45;&gt;Node15</title>
<path fill="none" stroke="midnightblue" d="M462.809,-236.324C445.649,-227.664 419.054,-214.242 399.253,-204.249"/>
<polygon fill="midnightblue" stroke="midnightblue" points="400.653,-201.035 390.149,-199.655 397.499,-207.285 400.653,-201.035"/>
</g>
<!-- Node18 -->
<g id="node18" class="node"><title>Node18</title>
<polygon fill="white" stroke="#bfbfbf" points="418.5,-180.5 418.5,-199.5 471.5,-199.5 471.5,-180.5 418.5,-180.5"/>
<text text-anchor="middle" x="445" y="-187.5" font-family="FreeSans" font-size="10.00">iostream</text>
</g>
<!-- Node14&#45;&gt;Node18 -->
<g id="edge20" class="edge"><title>Node14&#45;&gt;Node18</title>
<path fill="none" stroke="midnightblue" d="M474.22,-236.083C469.328,-228.534 462.173,-217.495 456.167,-208.23"/>
<polygon fill="midnightblue" stroke="midnightblue" points="459.048,-206.239 450.672,-199.751 453.174,-210.046 459.048,-206.239"/>
</g>
<!-- Node19 -->
<g id="node19" class="node"><title>Node19</title>
<polygon fill="white" stroke="#bfbfbf" points="489.5,-180.5 489.5,-199.5 534.5,-199.5 534.5,-180.5 489.5,-180.5"/>
<text text-anchor="middle" x="512" y="-187.5" font-family="FreeSans" font-size="10.00">cstring</text>
</g>
<!-- Node14&#45;&gt;Node19 -->
<g id="edge21" class="edge"><title>Node14&#45;&gt;Node19</title>
<path fill="none" stroke="midnightblue" d="M485.284,-236.083C489.711,-228.613 496.163,-217.724 501.618,-208.52"/>
<polygon fill="midnightblue" stroke="midnightblue" points="504.727,-210.138 506.814,-199.751 498.705,-206.57 504.727,-210.138"/>
</g>
<!-- Node15&#45;&gt;Node3 -->
<g id="edge16" class="edge"><title>Node15&#45;&gt;Node3</title>
<path fill="none" stroke="midnightblue" d="M370.745,-180.281C365.878,-161.463 354.301,-116.697 347.743,-91.3399"/>
<polygon fill="midnightblue" stroke="midnightblue" points="351.092,-90.3099 345.2,-81.5048 344.315,-92.0626 351.092,-90.3099"/>
</g>
<!-- Node15&#45;&gt;Node13 -->
<g id="edge17" class="edge"><title>Node15&#45;&gt;Node13</title>
<path fill="none" stroke="midnightblue" d="M355.005,-180.324C336.962,-171.625 308.953,-158.12 288.197,-148.113"/>
<polygon fill="midnightblue" stroke="midnightblue" points="289.478,-144.845 278.95,-143.655 286.438,-151.15 289.478,-144.845"/>
</g>
<!-- Node16 -->
<g id="node16" class="node"><title>Node16</title>
<polygon fill="white" stroke="#bfbfbf" points="371,-124.5 371,-143.5 429,-143.5 429,-124.5 371,-124.5"/>
<text text-anchor="middle" x="400" y="-131.5" font-family="FreeSans" font-size="10.00">stdexcept</text>
</g>
<!-- Node15&#45;&gt;Node16 -->
<g id="edge18" class="edge"><title>Node15&#45;&gt;Node16</title>
<path fill="none" stroke="midnightblue" d="M377.459,-180.083C381.154,-172.691 386.523,-161.953 391.094,-152.811"/>
<polygon fill="midnightblue" stroke="midnightblue" points="394.283,-154.261 395.624,-143.751 388.022,-151.13 394.283,-154.261"/>
</g>
<!-- Node17 -->
<g id="node17" class="node"><title>Node17</title>
<polygon fill="white" stroke="#bfbfbf" points="447.5,-124.5 447.5,-143.5 498.5,-143.5 498.5,-124.5 447.5,-124.5"/>
<text text-anchor="middle" x="473" y="-131.5" font-family="FreeSans" font-size="10.00">numeric</text>
</g>
<!-- Node15&#45;&gt;Node17 -->
<g id="edge19" class="edge"><title>Node15&#45;&gt;Node17</title>
<path fill="none" stroke="midnightblue" d="M389.067,-180.324C404.958,-171.743 429.507,-158.486 447.958,-148.522"/>
<polygon fill="midnightblue" stroke="midnightblue" points="449.837,-151.486 456.973,-143.655 446.511,-145.326 449.837,-151.486"/>
</g>
<!-- Node20&#45;&gt;Node14 -->
<g id="edge26" class="edge"><title>Node20&#45;&gt;Node14</title>
<path fill="none" stroke="midnightblue" d="M506.716,-292.083C502.289,-284.613 495.837,-273.724 490.382,-264.52"/>
<polygon fill="midnightblue" stroke="midnightblue" points="493.295,-262.57 485.186,-255.751 487.273,-266.138 493.295,-262.57"/>
</g>
<!-- Node21 -->
<g id="node21" class="node"><title>Node21</title>
<g id="a_node21"><a xlink:href="vcs__SpeciesProperties_8h.html" target="_top" xlink:title="cantera/equil/vcs_Species\lProperties.h">
<polygon fill="white" stroke="black" points="460.5,-57 460.5,-87 589.5,-87 589.5,-57 460.5,-57"/>
<text text-anchor="start" x="468.5" y="-75" font-family="FreeSans" font-size="10.00">cantera/equil/vcs_Species</text>
<text text-anchor="middle" x="525" y="-64" font-family="FreeSans" font-size="10.00">Properties.h</text>
</a>
</g>
</g>
<!-- Node20&#45;&gt;Node21 -->
<g id="edge23" class="edge"><title>Node20&#45;&gt;Node21</title>
<path fill="none" stroke="midnightblue" d="M519.563,-292.425C526.587,-283.869 536.603,-270.011 541,-256 558.221,-201.123 543.238,-132.746 532.879,-97.1236"/>
<polygon fill="midnightblue" stroke="midnightblue" points="536.11,-95.7205 529.853,-87.1711 529.413,-97.7568 536.11,-95.7205"/>
</g>
<!-- Node21&#45;&gt;Node7 -->
<g id="edge24" class="edge"><title>Node21&#45;&gt;Node7</title>
<path fill="none" stroke="midnightblue" d="M524.289,-56.7808C523.885,-48.6913 523.373,-38.4617 522.936,-29.725"/>
<polygon fill="midnightblue" stroke="midnightblue" points="526.432,-29.5432 522.437,-19.7305 519.44,-29.8929 526.432,-29.5432"/>
</g>
<!-- Node21&#45;&gt;Node9 -->
<g id="edge25" class="edge"><title>Node21&#45;&gt;Node9</title>
<path fill="none" stroke="midnightblue" d="M542.774,-56.7808C554.346,-47.5228 569.423,-35.4618 581.196,-26.0435"/>
<polygon fill="midnightblue" stroke="midnightblue" points="583.465,-28.7106 589.087,-19.7305 579.092,-23.2445 583.465,-28.7106"/>
</g>
<!-- Node22&#45;&gt;Node9 -->
<g id="edge29" class="edge"><title>Node22&#45;&gt;Node9</title>
<path fill="none" stroke="midnightblue" d="M709,-292.442C709,-273.936 709,-228.812 709,-191 709,-191 709,-191 709,-133 709,-83.1076 657.679,-44.2432 625.468,-24.7635"/>
<polygon fill="midnightblue" stroke="midnightblue" points="626.957,-21.5806 616.555,-19.5696 623.432,-27.6286 626.957,-21.5806"/>
</g>
<!-- Node23 -->
<g id="node23" class="node"><title>Node23</title>
<polygon fill="white" stroke="#bfbfbf" points="737,-236.5 737,-255.5 795,-255.5 795,-236.5 737,-236.5"/>
<text text-anchor="middle" x="766" y="-243.5" font-family="FreeSans" font-size="10.00">exception</text>
</g>
<!-- Node22&#45;&gt;Node23 -->
<g id="edge28" class="edge"><title>Node22&#45;&gt;Node23</title>
<path fill="none" stroke="midnightblue" d="M718.158,-292.324C726.501,-284.42 739.032,-272.548 749.177,-262.938"/>
<polygon fill="midnightblue" stroke="midnightblue" points="751.823,-265.252 756.675,-255.834 747.009,-260.171 751.823,-265.252"/>
</g>
<!-- Node25 -->
<g id="node25" class="node"><title>Node25</title>
<polygon fill="white" stroke="#bfbfbf" points="835.5,-236.5 835.5,-255.5 878.5,-255.5 878.5,-236.5 835.5,-236.5"/>
<text text-anchor="middle" x="857" y="-243.5" font-family="FreeSans" font-size="10.00">time.h</text>
</g>
<!-- Node24&#45;&gt;Node25 -->
<g id="edge31" class="edge"><title>Node24&#45;&gt;Node25</title>
<path fill="none" stroke="midnightblue" d="M857,-292.083C857,-285.006 857,-274.861 857,-265.986"/>
<polygon fill="midnightblue" stroke="midnightblue" points="860.5,-265.751 857,-255.751 853.5,-265.751 860.5,-265.751"/>
</g>
<!-- Node26&#45;&gt;Node3 -->
<g id="edge33" class="edge"><title>Node26&#45;&gt;Node3</title>
<path fill="none" stroke="midnightblue" d="M578.891,-124.467C529.716,-113.738 445.28,-95.3157 391.892,-83.6673"/>
<polygon fill="midnightblue" stroke="midnightblue" points="392.49,-80.2156 381.974,-81.5034 390.998,-87.0547 392.49,-80.2156"/>
</g>
<!-- Node26&#45;&gt;Node9 -->
<g id="edge34" class="edge"><title>Node26&#45;&gt;Node9</title>
<path fill="none" stroke="midnightblue" d="M616.705,-124.226C613.799,-104.53 606.704,-56.4371 602.759,-29.7004"/>
<polygon fill="midnightblue" stroke="midnightblue" points="606.205,-29.0765 601.283,-19.6944 599.28,-30.0982 606.205,-29.0765"/>
</g>
<!-- Node27&#45;&gt;Node3 -->
<g id="edge36" class="edge"><title>Node27&#45;&gt;Node3</title>
<path fill="none" stroke="midnightblue" d="M72.3575,-236.422C81.5158,-214.181 109.146,-154.287 152,-124 188.278,-98.3606 236.697,-85.6105 275.707,-79.2704"/>
<polygon fill="midnightblue" stroke="midnightblue" points="276.562,-82.6807 285.924,-77.7196 275.512,-75.76 276.562,-82.6807"/>
</g>
</g>
</svg>
