<?xml version="1.0" encoding="UTF-8" standalone="no"?>
<!DOCTYPE svg PUBLIC "-//W3C//DTD SVG 1.1//EN"
 "http://www.w3.org/Graphics/SVG/1.1/DTD/svg11.dtd">
<!-- Generated by graphviz version 2.36.0 (20140111.2315)
 -->
<!-- Title: vcs_Gibbs.cpp Pages: 1 -->
<svg width="477pt" height="376pt"
 viewBox="0.00 0.00 477.00 376.00" xmlns="http://www.w3.org/2000/svg" xmlns:xlink="http://www.w3.org/1999/xlink">
<g id="graph0" class="graph" transform="scale(1 1) rotate(0) translate(4 372)">
<title>vcs_Gibbs.cpp</title>
<polygon fill="white" stroke="none" points="-4,4 -4,-372 473,-372 473,4 -4,4"/>
<!-- Node1 -->
<g id="node1" class="node"><title>Node1</title>
<polygon fill="#bfbfbf" stroke="black" points="282.5,-348.5 282.5,-367.5 361.5,-367.5 361.5,-348.5 282.5,-348.5"/>
<text text-anchor="middle" x="322" y="-355.5" font-family="FreeSans" font-size="10.00">vcs_Gibbs.cpp</text>
</g>
<!-- Node2 -->
<g id="node2" class="node"><title>Node2</title>
<g id="a_node2"><a xlink:href="vcs__solve_8h.html" target="_top" xlink:title="Header file for the internal object that holds the vcs equilibrium problem (see Class VCS_SOLVE and E...">
<polygon fill="white" stroke="black" points="184,-292.5 184,-311.5 308,-311.5 308,-292.5 184,-292.5"/>
<text text-anchor="middle" x="246" y="-299.5" font-family="FreeSans" font-size="10.00">cantera/equil/vcs_solve.h</text>
</a>
</g>
</g>
<!-- Node1&#45;&gt;Node2 -->
<g id="edge1" class="edge"><title>Node1&#45;&gt;Node2</title>
<path fill="none" stroke="midnightblue" d="M309.789,-348.324C298.224,-340.107 280.625,-327.602 266.839,-317.807"/>
<polygon fill="midnightblue" stroke="midnightblue" points="268.612,-314.773 258.433,-311.834 264.557,-320.479 268.612,-314.773"/>
</g>
<!-- Node20 -->
<g id="node20" class="node"><title>Node20</title>
<g id="a_node20"><a xlink:href="vcs__VolPhase_8h.html" target="_top" xlink:title="Header for the object representing each phase within vcs. ">
<polygon fill="white" stroke="black" points="326.5,-292.5 326.5,-311.5 469.5,-311.5 469.5,-292.5 326.5,-292.5"/>
<text text-anchor="middle" x="398" y="-299.5" font-family="FreeSans" font-size="10.00">cantera/equil/vcs_VolPhase.h</text>
</a>
</g>
</g>
<!-- Node1&#45;&gt;Node20 -->
<g id="edge22" class="edge"><title>Node1&#45;&gt;Node20</title>
<path fill="none" stroke="midnightblue" d="M334.211,-348.324C345.776,-340.107 363.375,-327.602 377.161,-317.807"/>
<polygon fill="midnightblue" stroke="midnightblue" points="379.443,-320.479 385.567,-311.834 375.388,-314.773 379.443,-320.479"/>
</g>
<!-- Node3 -->
<g id="node3" class="node"><title>Node3</title>
<g id="a_node3"><a xlink:href="ct__defs_8h.html" target="_top" xlink:title="This file contains definitions of terms that are used in internal routines and are unlikely to need m...">
<polygon fill="white" stroke="black" points="117,-62.5 117,-81.5 231,-81.5 231,-62.5 117,-62.5"/>
<text text-anchor="middle" x="174" y="-69.5" font-family="FreeSans" font-size="10.00">cantera/base/ct_defs.h</text>
</a>
</g>
</g>
<!-- Node2&#45;&gt;Node3 -->
<g id="edge2" class="edge"><title>Node2&#45;&gt;Node3</title>
<path fill="none" stroke="midnightblue" d="M183.802,-296.173C128.74,-290.455 54.3425,-278.689 36,-256 10.575,-224.55 -30.8806,-242.609 70,-124 85.9306,-105.27 110.369,-92.7971 131.554,-84.8773"/>
<polygon fill="midnightblue" stroke="midnightblue" points="132.742,-88.1698 141.016,-81.5528 130.421,-81.5655 132.742,-88.1698"/>
</g>
<!-- Node11 -->
<g id="node11" class="node"><title>Node11</title>
<g id="a_node11"><a xlink:href="vcs__defs_8h.html" target="_top" xlink:title="Defines and definitions within the vcs package. ">
<polygon fill="white" stroke="black" points="197,-236.5 197,-255.5 317,-255.5 317,-236.5 197,-236.5"/>
<text text-anchor="middle" x="257" y="-243.5" font-family="FreeSans" font-size="10.00">cantera/equil/vcs_defs.h</text>
</a>
</g>
</g>
<!-- Node2&#45;&gt;Node11 -->
<g id="edge10" class="edge"><title>Node2&#45;&gt;Node11</title>
<path fill="none" stroke="midnightblue" d="M247.816,-292.083C249.274,-284.927 251.371,-274.635 253.193,-265.691"/>
<polygon fill="midnightblue" stroke="midnightblue" points="256.651,-266.248 255.217,-255.751 249.792,-264.851 256.651,-266.248"/>
</g>
<!-- Node12 -->
<g id="node12" class="node"><title>Node12</title>
<g id="a_node12"><a xlink:href="vcs__internal_8h.html" target="_top" xlink:title="Internal declarations for the VCSnonideal package. ">
<polygon fill="white" stroke="black" points="45,-236.5 45,-255.5 179,-255.5 179,-236.5 45,-236.5"/>
<text text-anchor="middle" x="112" y="-243.5" font-family="FreeSans" font-size="10.00">cantera/equil/vcs_internal.h</text>
</a>
</g>
</g>
<!-- Node2&#45;&gt;Node12 -->
<g id="edge11" class="edge"><title>Node2&#45;&gt;Node12</title>
<path fill="none" stroke="midnightblue" d="M224.767,-292.444C202.616,-283.517 167.681,-269.439 142.564,-259.317"/>
<polygon fill="midnightblue" stroke="midnightblue" points="143.717,-256.008 133.133,-255.516 141.1,-262.501 143.717,-256.008"/>
</g>
<!-- Node14 -->
<g id="node14" class="node"><title>Node14</title>
<g id="a_node14"><a xlink:href="Array_8h.html" target="_top" xlink:title="Header file for class Cantera::Array2D. ">
<polygon fill="white" stroke="black" points="335.5,-236.5 335.5,-255.5 440.5,-255.5 440.5,-236.5 335.5,-236.5"/>
<text text-anchor="middle" x="388" y="-243.5" font-family="FreeSans" font-size="10.00">cantera/base/Array.h</text>
</a>
</g>
</g>
<!-- Node2&#45;&gt;Node14 -->
<g id="edge14" class="edge"><title>Node2&#45;&gt;Node14</title>
<path fill="none" stroke="midnightblue" d="M268.5,-292.444C292.077,-283.478 329.322,-269.314 355.964,-259.183"/>
<polygon fill="midnightblue" stroke="midnightblue" points="357.502,-262.342 365.605,-255.516 355.014,-255.8 357.502,-262.342"/>
</g>
<!-- Node4 -->
<g id="node4" class="node"><title>Node4</title>
<g id="a_node4"><a xlink:href="config_8h_source.html" target="_top" xlink:title="config.h">
<polygon fill="white" stroke="black" points="252,-0.5 252,-19.5 302,-19.5 302,-0.5 252,-0.5"/>
<text text-anchor="middle" x="277" y="-7.5" font-family="FreeSans" font-size="10.00">config.h</text>
</a>
</g>
</g>
<!-- Node3&#45;&gt;Node4 -->
<g id="edge3" class="edge"><title>Node3&#45;&gt;Node4</title>
<path fill="none" stroke="midnightblue" d="M188.757,-62.4035C205.661,-52.5569 233.583,-36.2915 253.49,-24.6949"/>
<polygon fill="midnightblue" stroke="midnightblue" points="255.391,-27.6384 262.27,-19.5806 251.867,-21.5898 255.391,-27.6384"/>
</g>
<!-- Node5 -->
<g id="node5" class="node"><title>Node5</title>
<polygon fill="white" stroke="#bfbfbf" points="0,-0.5 0,-19.5 44,-19.5 44,-0.5 0,-0.5"/>
<text text-anchor="middle" x="22" y="-7.5" font-family="FreeSans" font-size="10.00">cmath</text>
</g>
<!-- Node3&#45;&gt;Node5 -->
<g id="edge4" class="edge"><title>Node3&#45;&gt;Node5</title>
<path fill="none" stroke="midnightblue" d="M152.222,-62.4035C126.262,-52.1559 82.6887,-34.9561 53.1654,-23.3021"/>
<polygon fill="midnightblue" stroke="midnightblue" points="54.3242,-19.9968 43.7375,-19.5806 51.7539,-26.5079 54.3242,-19.9968"/>
</g>
<!-- Node6 -->
<g id="node6" class="node"><title>Node6</title>
<polygon fill="white" stroke="#bfbfbf" points="62,-0.5 62,-19.5 106,-19.5 106,-0.5 62,-0.5"/>
<text text-anchor="middle" x="84" y="-7.5" font-family="FreeSans" font-size="10.00">cstdlib</text>
</g>
<!-- Node3&#45;&gt;Node6 -->
<g id="edge5" class="edge"><title>Node3&#45;&gt;Node6</title>
<path fill="none" stroke="midnightblue" d="M161.105,-62.4035C146.536,-52.6905 122.598,-36.7319 105.255,-25.1697"/>
<polygon fill="midnightblue" stroke="midnightblue" points="107.133,-22.2155 96.8709,-19.5806 103.25,-28.0398 107.133,-22.2155"/>
</g>
<!-- Node7 -->
<g id="node7" class="node"><title>Node7</title>
<polygon fill="white" stroke="#bfbfbf" points="378.5,-0.5 378.5,-19.5 421.5,-19.5 421.5,-0.5 378.5,-0.5"/>
<text text-anchor="middle" x="400" y="-7.5" font-family="FreeSans" font-size="10.00">vector</text>
</g>
<!-- Node3&#45;&gt;Node7 -->
<g id="edge6" class="edge"><title>Node3&#45;&gt;Node7</title>
<path fill="none" stroke="midnightblue" d="M207.892,-62.4288C244.87,-53.0129 306.051,-37.2463 368.338,-20.1266"/>
<polygon fill="midnightblue" stroke="midnightblue" points="369.631,-23.4008 378.341,-17.3682 367.77,-16.6527 369.631,-23.4008"/>
</g>
<!-- Node8 -->
<g id="node8" class="node"><title>Node8</title>
<polygon fill="white" stroke="#bfbfbf" points="124.5,-0.5 124.5,-19.5 159.5,-19.5 159.5,-0.5 124.5,-0.5"/>
<text text-anchor="middle" x="142" y="-7.5" font-family="FreeSans" font-size="10.00">map</text>
</g>
<!-- Node3&#45;&gt;Node8 -->
<g id="edge7" class="edge"><title>Node3&#45;&gt;Node8</title>
<path fill="none" stroke="midnightblue" d="M169.415,-62.4035C164.71,-53.5816 157.257,-39.6075 151.309,-28.4548"/>
<polygon fill="midnightblue" stroke="midnightblue" points="154.37,-26.7571 146.576,-19.5806 148.194,-30.0512 154.37,-26.7571"/>
</g>
<!-- Node9 -->
<g id="node9" class="node"><title>Node9</title>
<polygon fill="white" stroke="#bfbfbf" points="320,-0.5 320,-19.5 360,-19.5 360,-0.5 320,-0.5"/>
<text text-anchor="middle" x="340" y="-7.5" font-family="FreeSans" font-size="10.00">string</text>
</g>
<!-- Node3&#45;&gt;Node9 -->
<g id="edge8" class="edge"><title>Node3&#45;&gt;Node9</title>
<path fill="none" stroke="midnightblue" d="M197.784,-62.4035C227.391,-51.702 277.975,-33.4187 310.155,-21.7873"/>
<polygon fill="midnightblue" stroke="midnightblue" points="311.692,-24.9535 319.907,-18.2626 309.313,-18.3703 311.692,-24.9535"/>
</g>
<!-- Node10 -->
<g id="node10" class="node"><title>Node10</title>
<polygon fill="white" stroke="#bfbfbf" points="178,-0.5 178,-19.5 234,-19.5 234,-0.5 178,-0.5"/>
<text text-anchor="middle" x="206" y="-7.5" font-family="FreeSans" font-size="10.00">algorithm</text>
</g>
<!-- Node3&#45;&gt;Node10 -->
<g id="edge9" class="edge"><title>Node3&#45;&gt;Node10</title>
<path fill="none" stroke="midnightblue" d="M178.585,-62.4035C183.29,-53.5816 190.743,-39.6075 196.691,-28.4548"/>
<polygon fill="midnightblue" stroke="midnightblue" points="199.806,-30.0512 201.424,-19.5806 193.63,-26.7571 199.806,-30.0512"/>
</g>
<!-- Node13 -->
<g id="node13" class="node"><title>Node13</title>
<g id="a_node13"><a xlink:href="global_8h.html" target="_top" xlink:title="This file contains definitions for utility functions and text for modules, inputfiles, logs, textlogs, (see Input File Handling, Diagnostic Output, and Writing messages to the screen). ">
<polygon fill="white" stroke="black" points="79,-124.5 79,-143.5 187,-143.5 187,-124.5 79,-124.5"/>
<text text-anchor="middle" x="133" y="-131.5" font-family="FreeSans" font-size="10.00">cantera/base/global.h</text>
</a>
</g>
</g>
<!-- Node12&#45;&gt;Node13 -->
<g id="edge12" class="edge"><title>Node12&#45;&gt;Node13</title>
<path fill="none" stroke="midnightblue" d="M113.648,-236.368C117.037,-218.617 124.855,-177.666 129.45,-153.597"/>
<polygon fill="midnightblue" stroke="midnightblue" points="132.922,-154.07 131.36,-143.591 126.047,-152.758 132.922,-154.07"/>
</g>
<!-- Node13&#45;&gt;Node3 -->
<g id="edge13" class="edge"><title>Node13&#45;&gt;Node3</title>
<path fill="none" stroke="midnightblue" d="M138.874,-124.403C144.963,-115.493 154.645,-101.325 162.303,-90.1177"/>
<polygon fill="midnightblue" stroke="midnightblue" points="165.384,-91.8117 168.137,-81.5806 159.605,-87.8624 165.384,-91.8117"/>
</g>
<!-- Node15 -->
<g id="node15" class="node"><title>Node15</title>
<g id="a_node15"><a xlink:href="utilities_8h.html" target="_top" xlink:title="Various templated functions that carry out common vector operations (see Templated Utility Functions)...">
<polygon fill="white" stroke="black" points="245,-180.5 245,-199.5 299,-199.5 299,-180.5 245,-180.5"/>
<text text-anchor="middle" x="272" y="-187.5" font-family="FreeSans" font-size="10.00">utilities.h</text>
</a>
</g>
</g>
<!-- Node14&#45;&gt;Node15 -->
<g id="edge15" class="edge"><title>Node14&#45;&gt;Node15</title>
<path fill="none" stroke="midnightblue" d="M369.619,-236.444C350.784,-227.675 321.269,-213.935 299.621,-203.858"/>
<polygon fill="midnightblue" stroke="midnightblue" points="300.838,-200.564 290.295,-199.516 297.883,-206.91 300.838,-200.564"/>
</g>
<!-- Node18 -->
<g id="node18" class="node"><title>Node18</title>
<polygon fill="white" stroke="#bfbfbf" points="320.5,-180.5 320.5,-199.5 373.5,-199.5 373.5,-180.5 320.5,-180.5"/>
<text text-anchor="middle" x="347" y="-187.5" font-family="FreeSans" font-size="10.00">iostream</text>
</g>
<!-- Node14&#45;&gt;Node18 -->
<g id="edge20" class="edge"><title>Node14&#45;&gt;Node18</title>
<path fill="none" stroke="midnightblue" d="M381.23,-236.083C375.438,-228.455 366.942,-217.264 359.862,-207.941"/>
<polygon fill="midnightblue" stroke="midnightblue" points="362.479,-205.599 353.644,-199.751 356.904,-209.832 362.479,-205.599"/>
</g>
<!-- Node19 -->
<g id="node19" class="node"><title>Node19</title>
<polygon fill="white" stroke="#bfbfbf" points="391.5,-180.5 391.5,-199.5 436.5,-199.5 436.5,-180.5 391.5,-180.5"/>
<text text-anchor="middle" x="414" y="-187.5" font-family="FreeSans" font-size="10.00">cstring</text>
</g>
<!-- Node14&#45;&gt;Node19 -->
<g id="edge21" class="edge"><title>Node14&#45;&gt;Node19</title>
<path fill="none" stroke="midnightblue" d="M392.293,-236.083C395.852,-228.691 401.022,-217.953 405.424,-208.811"/>
<polygon fill="midnightblue" stroke="midnightblue" points="408.602,-210.279 409.787,-199.751 402.295,-207.243 408.602,-210.279"/>
</g>
<!-- Node15&#45;&gt;Node3 -->
<g id="edge16" class="edge"><title>Node15&#45;&gt;Node3</title>
<path fill="none" stroke="midnightblue" d="M264.634,-180.281C248.308,-160.957 208.865,-114.269 187.801,-89.3362"/>
<polygon fill="midnightblue" stroke="midnightblue" points="190.312,-86.8849 181.185,-81.5048 184.965,-91.4024 190.312,-86.8849"/>
</g>
<!-- Node15&#45;&gt;Node13 -->
<g id="edge17" class="edge"><title>Node15&#45;&gt;Node13</title>
<path fill="none" stroke="midnightblue" d="M249.975,-180.444C226.896,-171.478 190.438,-157.314 164.359,-147.183"/>
<polygon fill="midnightblue" stroke="midnightblue" points="165.511,-143.875 154.922,-143.516 162.976,-150.4 165.511,-143.875"/>
</g>
<!-- Node16 -->
<g id="node16" class="node"><title>Node16</title>
<polygon fill="white" stroke="#bfbfbf" points="243,-124.5 243,-143.5 301,-143.5 301,-124.5 243,-124.5"/>
<text text-anchor="middle" x="272" y="-131.5" font-family="FreeSans" font-size="10.00">stdexcept</text>
</g>
<!-- Node15&#45;&gt;Node16 -->
<g id="edge18" class="edge"><title>Node15&#45;&gt;Node16</title>
<path fill="none" stroke="midnightblue" d="M272,-180.083C272,-173.006 272,-162.861 272,-153.986"/>
<polygon fill="midnightblue" stroke="midnightblue" points="275.5,-153.751 272,-143.751 268.5,-153.751 275.5,-153.751"/>
</g>
<!-- Node17 -->
<g id="node17" class="node"><title>Node17</title>
<polygon fill="white" stroke="#bfbfbf" points="319.5,-124.5 319.5,-143.5 370.5,-143.5 370.5,-124.5 319.5,-124.5"/>
<text text-anchor="middle" x="345" y="-131.5" font-family="FreeSans" font-size="10.00">numeric</text>
</g>
<!-- Node15&#45;&gt;Node17 -->
<g id="edge19" class="edge"><title>Node15&#45;&gt;Node17</title>
<path fill="none" stroke="midnightblue" d="M283.729,-180.324C294.837,-172.107 311.742,-159.602 324.983,-149.807"/>
<polygon fill="midnightblue" stroke="midnightblue" points="327.1,-152.595 333.058,-143.834 322.937,-146.967 327.1,-152.595"/>
</g>
<!-- Node20&#45;&gt;Node14 -->
<g id="edge26" class="edge"><title>Node20&#45;&gt;Node14</title>
<path fill="none" stroke="midnightblue" d="M396.349,-292.083C395.024,-284.927 393.118,-274.635 391.461,-265.691"/>
<polygon fill="midnightblue" stroke="midnightblue" points="394.883,-264.947 389.621,-255.751 388,-266.221 394.883,-264.947"/>
</g>
<!-- Node21 -->
<g id="node21" class="node"><title>Node21</title>
<g id="a_node21"><a xlink:href="vcs__SpeciesProperties_8h.html" target="_top" xlink:title="cantera/equil/vcs_Species\lProperties.h">
<polygon fill="white" stroke="black" points="335.5,-57 335.5,-87 464.5,-87 464.5,-57 335.5,-57"/>
<text text-anchor="start" x="343.5" y="-75" font-family="FreeSans" font-size="10.00">cantera/equil/vcs_Species</text>
<text text-anchor="middle" x="400" y="-64" font-family="FreeSans" font-size="10.00">Properties.h</text>
</a>
</g>
</g>
<!-- Node20&#45;&gt;Node21 -->
<g id="edge23" class="edge"><title>Node20&#45;&gt;Node21</title>
<path fill="none" stroke="midnightblue" d="M413.734,-292.236C425.889,-284.481 441.812,-271.929 449,-256 473.713,-201.236 438.206,-131.446 415.839,-95.9605"/>
<polygon fill="midnightblue" stroke="midnightblue" points="418.596,-93.7795 410.21,-87.3043 412.728,-97.5957 418.596,-93.7795"/>
</g>
<!-- Node21&#45;&gt;Node7 -->
<g id="edge24" class="edge"><title>Node21&#45;&gt;Node7</title>
<path fill="none" stroke="midnightblue" d="M400,-56.7808C400,-48.7812 400,-38.6887 400,-30.0168"/>
<polygon fill="midnightblue" stroke="midnightblue" points="403.5,-29.7305 400,-19.7305 396.5,-29.7306 403.5,-29.7305"/>
</g>
<!-- Node21&#45;&gt;Node9 -->
<g id="edge25" class="edge"><title>Node21&#45;&gt;Node9</title>
<path fill="none" stroke="midnightblue" d="M385.781,-56.7808C376.792,-47.7925 365.162,-36.162 355.873,-26.8731"/>
<polygon fill="midnightblue" stroke="midnightblue" points="358.277,-24.3267 348.731,-19.7305 353.327,-29.2765 358.277,-24.3267"/>
</g>
</g>
</svg>
