<?xml version="1.0" encoding="UTF-8" standalone="no"?>
<!DOCTYPE svg PUBLIC "-//W3C//DTD SVG 1.1//EN"
 "http://www.w3.org/Graphics/SVG/1.1/DTD/svg11.dtd">
<!-- Generated by graphviz version 2.40.1 (20161225.0304)
 -->
<!-- Title: PDSS_IdealGas.h Pages: 1 -->
<svg width="510pt" height="196pt"
 viewBox="0.00 0.00 509.50 196.00" xmlns="http://www.w3.org/2000/svg" xmlns:xlink="http://www.w3.org/1999/xlink">
<g id="graph0" class="graph" transform="scale(1 1) rotate(0) translate(4 192)">
<title>PDSS_IdealGas.h</title>
<polygon fill="#ffffff" stroke="transparent" points="-4,4 -4,-192 505.5,-192 505.5,4 -4,4"/>
<!-- Node0 -->
<g id="node1" class="node">
<title>Node0</title>
<polygon fill="#bfbfbf" stroke="#000000" points="198,-168.5 198,-187.5 296,-187.5 296,-168.5 198,-168.5"/>
<text text-anchor="middle" x="247" y="-175.5" font-family="Helvetica,sans-Serif" font-size="10.00" fill="#000000">PDSS_IdealGas.h</text>
</g>
<!-- Node1 -->
<g id="node2" class="node">
<title>Node1</title>
<g id="a_node2"><a xlink:href="../../d7/dfa/PDSS_8h.html" target="_top" xlink:title="Declarations for the virtual base class PDSS (pressure dependent standard state) which handles calcul...">
<polygon fill="#ffffff" stroke="#000000" points="221,-112.5 221,-131.5 273,-131.5 273,-112.5 221,-112.5"/>
<text text-anchor="middle" x="247" y="-119.5" font-family="Helvetica,sans-Serif" font-size="10.00" fill="#000000">PDSS.h</text>
</a>
</g>
</g>
<!-- Node0&#45;&gt;Node1 -->
<g id="edge1" class="edge">
<title>Node0&#45;&gt;Node1</title>
<path fill="none" stroke="#191970" d="M247,-168.2455C247,-160.9382 247,-150.6944 247,-141.7046"/>
<polygon fill="#191970" stroke="#191970" points="250.5001,-141.6426 247,-131.6427 243.5001,-141.6427 250.5001,-141.6426"/>
</g>
<!-- Node2 -->
<g id="node3" class="node">
<title>Node2</title>
<g id="a_node3"><a xlink:href="../../d9/ddc/ct__defs_8h.html" target="_top" xlink:title="This file contains definitions of terms that are used in internal routines and are unlikely to need m...">
<polygon fill="#ffffff" stroke="#000000" points="188,-56.5 188,-75.5 306,-75.5 306,-56.5 188,-56.5"/>
<text text-anchor="middle" x="247" y="-63.5" font-family="Helvetica,sans-Serif" font-size="10.00" fill="#000000">cantera/base/ct_defs.h</text>
</a>
</g>
</g>
<!-- Node1&#45;&gt;Node2 -->
<g id="edge2" class="edge">
<title>Node1&#45;&gt;Node2</title>
<path fill="none" stroke="#191970" d="M247,-112.2455C247,-104.9382 247,-94.6944 247,-85.7046"/>
<polygon fill="#191970" stroke="#191970" points="250.5001,-85.6426 247,-75.6427 243.5001,-85.6427 250.5001,-85.6426"/>
</g>
<!-- Node3 -->
<g id="node4" class="node">
<title>Node3</title>
<g id="a_node4"><a xlink:href="../../db/d16/config_8h_source.html" target="_top" xlink:title="config.h">
<polygon fill="#ffffff" stroke="#000000" points="0,-.5 0,-19.5 52,-19.5 52,-.5 0,-.5"/>
<text text-anchor="middle" x="26" y="-7.5" font-family="Helvetica,sans-Serif" font-size="10.00" fill="#000000">config.h</text>
</a>
</g>
</g>
<!-- Node2&#45;&gt;Node3 -->
<g id="edge3" class="edge">
<title>Node2&#45;&gt;Node3</title>
<path fill="none" stroke="#191970" d="M206.6193,-56.455C171.0092,-47.9391 117.4759,-34.8987 62.2983,-20.2852"/>
<polygon fill="#191970" stroke="#191970" points="62.9091,-16.826 52.3453,-17.6366 61.1089,-23.5906 62.9091,-16.826"/>
</g>
<!-- Node4 -->
<g id="node5" class="node">
<title>Node4</title>
<polygon fill="#ffffff" stroke="#bfbfbf" points="70,-.5 70,-19.5 114,-19.5 114,-.5 70,-.5"/>
<text text-anchor="middle" x="92" y="-7.5" font-family="Helvetica,sans-Serif" font-size="10.00" fill="#000000">cmath</text>
</g>
<!-- Node2&#45;&gt;Node4 -->
<g id="edge4" class="edge">
<title>Node2&#45;&gt;Node4</title>
<path fill="none" stroke="#191970" d="M220.3546,-56.3733C193.5647,-46.6944 152.2597,-31.7712 123.7783,-21.4812"/>
<polygon fill="#191970" stroke="#191970" points="124.8781,-18.1572 114.2838,-18.0509 122.4995,-24.7407 124.8781,-18.1572"/>
</g>
<!-- Node5 -->
<g id="node6" class="node">
<title>Node5</title>
<polygon fill="#ffffff" stroke="#bfbfbf" points="132.5,-.5 132.5,-19.5 177.5,-19.5 177.5,-.5 132.5,-.5"/>
<text text-anchor="middle" x="155" y="-7.5" font-family="Helvetica,sans-Serif" font-size="10.00" fill="#000000">cstdlib</text>
</g>
<!-- Node2&#45;&gt;Node5 -->
<g id="edge5" class="edge">
<title>Node2&#45;&gt;Node5</title>
<path fill="none" stroke="#191970" d="M230.9748,-56.2455C216.8592,-47.6534 196.0737,-35.0014 179.8101,-25.1018"/>
<polygon fill="#191970" stroke="#191970" points="181.2034,-21.8525 170.8415,-19.6427 177.5637,-27.8319 181.2034,-21.8525"/>
</g>
<!-- Node6 -->
<g id="node7" class="node">
<title>Node6</title>
<polygon fill="#ffffff" stroke="#bfbfbf" points="196,-.5 196,-19.5 240,-19.5 240,-.5 196,-.5"/>
<text text-anchor="middle" x="218" y="-7.5" font-family="Helvetica,sans-Serif" font-size="10.00" fill="#000000">vector</text>
</g>
<!-- Node2&#45;&gt;Node6 -->
<g id="edge6" class="edge">
<title>Node2&#45;&gt;Node6</title>
<path fill="none" stroke="#191970" d="M241.9486,-56.2455C237.9981,-48.617 232.3903,-37.7881 227.5942,-28.5267"/>
<polygon fill="#191970" stroke="#191970" points="230.7001,-26.9131 222.9935,-19.6427 224.4841,-30.1321 230.7001,-26.9131"/>
</g>
<!-- Node7 -->
<g id="node8" class="node">
<title>Node7</title>
<polygon fill="#ffffff" stroke="#bfbfbf" points="258,-.5 258,-19.5 294,-19.5 294,-.5 258,-.5"/>
<text text-anchor="middle" x="276" y="-7.5" font-family="Helvetica,sans-Serif" font-size="10.00" fill="#000000">map</text>
</g>
<!-- Node2&#45;&gt;Node7 -->
<g id="edge7" class="edge">
<title>Node2&#45;&gt;Node7</title>
<path fill="none" stroke="#191970" d="M252.0514,-56.2455C256.0019,-48.617 261.6097,-37.7881 266.4058,-28.5267"/>
<polygon fill="#191970" stroke="#191970" points="269.5159,-30.1321 271.0065,-19.6427 263.2999,-26.9131 269.5159,-30.1321"/>
</g>
<!-- Node8 -->
<g id="node9" class="node">
<title>Node8</title>
<polygon fill="#ffffff" stroke="#bfbfbf" points="312.5,-.5 312.5,-19.5 353.5,-19.5 353.5,-.5 312.5,-.5"/>
<text text-anchor="middle" x="333" y="-7.5" font-family="Helvetica,sans-Serif" font-size="10.00" fill="#000000">string</text>
</g>
<!-- Node2&#45;&gt;Node8 -->
<g id="edge8" class="edge">
<title>Node2&#45;&gt;Node8</title>
<path fill="none" stroke="#191970" d="M261.9801,-56.2455C275.1751,-47.6534 294.6051,-35.0014 309.8079,-25.1018"/>
<polygon fill="#191970" stroke="#191970" points="311.7215,-28.0325 318.1916,-19.6427 307.9017,-22.1665 311.7215,-28.0325"/>
</g>
<!-- Node9 -->
<g id="node10" class="node">
<title>Node9</title>
<polygon fill="#ffffff" stroke="#bfbfbf" points="372,-.5 372,-19.5 430,-19.5 430,-.5 372,-.5"/>
<text text-anchor="middle" x="401" y="-7.5" font-family="Helvetica,sans-Serif" font-size="10.00" fill="#000000">algorithm</text>
</g>
<!-- Node2&#45;&gt;Node9 -->
<g id="edge9" class="edge">
<title>Node2&#45;&gt;Node9</title>
<path fill="none" stroke="#191970" d="M273.4735,-56.3733C298.8597,-47.1419 337.3645,-33.1402 365.422,-22.9375"/>
<polygon fill="#191970" stroke="#191970" points="366.6701,-26.2079 374.8719,-19.5011 364.2778,-19.6293 366.6701,-26.2079"/>
</g>
<!-- Node10 -->
<g id="node11" class="node">
<title>Node10</title>
<polygon fill="#ffffff" stroke="#bfbfbf" points="448.5,-.5 448.5,-19.5 501.5,-19.5 501.5,-.5 448.5,-.5"/>
<text text-anchor="middle" x="475" y="-7.5" font-family="Helvetica,sans-Serif" font-size="10.00" fill="#000000">memory</text>
</g>
<!-- Node2&#45;&gt;Node10 -->
<g id="edge10" class="edge">
<title>Node2&#45;&gt;Node10</title>
<path fill="none" stroke="#191970" d="M288.6798,-56.4677C325.5124,-47.9426 380.9238,-34.8716 438.3151,-20.1114"/>
<polygon fill="#191970" stroke="#191970" points="439.4859,-23.4239 448.2923,-17.5334 437.7346,-16.6466 439.4859,-23.4239"/>
</g>
</g>
</svg>
