<?xml version="1.0" encoding="UTF-8" standalone="no"?>
<!DOCTYPE svg PUBLIC "-//W3C//DTD SVG 1.1//EN"
 "http://www.w3.org/Graphics/SVG/1.1/DTD/svg11.dtd">
<!-- Generated by graphviz version 2.40.1 (20161225.0304)
 -->
<!-- Title: SurfPhase.h Pages: 1 -->
<svg width="1156pt" height="140pt"
 viewBox="0.00 0.00 1156.00 140.00" xmlns="http://www.w3.org/2000/svg" xmlns:xlink="http://www.w3.org/1999/xlink">
<g id="graph0" class="graph" transform="scale(1 1) rotate(0) translate(4 136)">
<title>SurfPhase.h</title>
<polygon fill="#ffffff" stroke="transparent" points="-4,4 -4,-136 1152,-136 1152,4 -4,4"/>
<!-- Node30 -->
<g id="node1" class="node">
<title>Node30</title>
<polygon fill="#bfbfbf" stroke="#000000" points="575,-112.5 575,-131.5 647,-131.5 647,-112.5 575,-112.5"/>
<text text-anchor="middle" x="611" y="-119.5" font-family="Helvetica,sans-Serif" font-size="10.00" fill="#000000">SurfPhase.h</text>
</g>
<!-- Node31 -->
<g id="node2" class="node">
<title>Node31</title>
<g id="a_node2"><a xlink:href="../../d7/d3f/ImplicitSurfChem_8cpp.html" target="_top" xlink:title="Definitions for the implicit integration of surface site density equations (see Kinetics Managers and...">
<polygon fill="#ffffff" stroke="#000000" points="0,-56.5 0,-75.5 112,-75.5 112,-56.5 0,-56.5"/>
<text text-anchor="middle" x="56" y="-63.5" font-family="Helvetica,sans-Serif" font-size="10.00" fill="#000000">ImplicitSurfChem.cpp</text>
</a>
</g>
</g>
<!-- Node30&#45;&gt;Node31 -->
<g id="edge1" class="edge">
<title>Node30&#45;&gt;Node31</title>
<path fill="none" stroke="#191970" d="M564.8926,-118.5848C477.9231,-111.9403 283.7648,-96.1425 121,-76 118.1672,-75.6494 115.2679,-75.272 112.3419,-74.8762"/>
<polygon fill="#191970" stroke="#191970" points="564.7216,-122.0818 574.958,-119.3494 565.2519,-115.1019 564.7216,-122.0818"/>
</g>
<!-- Node32 -->
<g id="node3" class="node">
<title>Node32</title>
<g id="a_node3"><a xlink:href="../../d3/db3/InterfaceKinetics_8cpp.html" target="_top" xlink:title="InterfaceKinetics.cpp">
<polygon fill="#ffffff" stroke="#000000" points="130.5,-56.5 130.5,-75.5 239.5,-75.5 239.5,-56.5 130.5,-56.5"/>
<text text-anchor="middle" x="185" y="-63.5" font-family="Helvetica,sans-Serif" font-size="10.00" fill="#000000">InterfaceKinetics.cpp</text>
</a>
</g>
</g>
<!-- Node30&#45;&gt;Node32 -->
<g id="edge2" class="edge">
<title>Node30&#45;&gt;Node32</title>
<path fill="none" stroke="#191970" d="M564.9113,-116.5716C496.0754,-108.367 362.3612,-92.0555 249,-76 245.9936,-75.5742 242.9095,-75.127 239.7974,-74.6676"/>
<polygon fill="#191970" stroke="#191970" points="564.6445,-120.0644 574.9879,-117.7699 565.4712,-113.1134 564.6445,-120.0644"/>
</g>
<!-- Node33 -->
<g id="node4" class="node">
<title>Node33</title>
<g id="a_node4"><a xlink:href="../../d3/dc9/solveSP_8cpp_source.html" target="_top" xlink:title="solveSP.cpp">
<polygon fill="#ffffff" stroke="#000000" points="258,-56.5 258,-75.5 330,-75.5 330,-56.5 258,-56.5"/>
<text text-anchor="middle" x="294" y="-63.5" font-family="Helvetica,sans-Serif" font-size="10.00" fill="#000000">solveSP.cpp</text>
</a>
</g>
</g>
<!-- Node30&#45;&gt;Node33 -->
<g id="edge3" class="edge">
<title>Node30&#45;&gt;Node33</title>
<path fill="none" stroke="#191970" d="M564.5075,-114.3779C511.1838,-105.5459 421.1681,-90.3616 344,-76 339.4744,-75.1578 334.7244,-74.2451 330.0278,-73.3253"/>
<polygon fill="#191970" stroke="#191970" points="564.2314,-117.8797 574.6684,-116.0575 565.3731,-110.9734 564.2314,-117.8797"/>
</g>
<!-- Node34 -->
<g id="node5" class="node">
<title>Node34</title>
<g id="a_node5"><a xlink:href="../../d4/d7e/SurfPhase_8cpp.html" target="_top" xlink:title="Definitions for a simple thermodynamic model of a surface phase derived from ThermoPhase, assuming an ideal solution model (see Thermodynamic Properties and class SurfPhase). ">
<polygon fill="#ffffff" stroke="#000000" points="351,-.5 351,-19.5 433,-19.5 433,-.5 351,-.5"/>
<text text-anchor="middle" x="392" y="-7.5" font-family="Helvetica,sans-Serif" font-size="10.00" fill="#000000">SurfPhase.cpp</text>
</a>
</g>
</g>
<!-- Node30&#45;&gt;Node34 -->
<g id="edge4" class="edge">
<title>Node30&#45;&gt;Node34</title>
<path fill="none" stroke="#191970" d="M564.316,-119.6302C502.9646,-115.4265 400.2469,-104.2617 377,-76 363.5636,-59.6651 376.4379,-33.6718 385.2663,-19.6779"/>
<polygon fill="#191970" stroke="#191970" points="564.3196,-123.1377 574.5251,-120.2919 564.7724,-116.1524 564.3196,-123.1377"/>
</g>
<!-- Node35 -->
<g id="node6" class="node">
<title>Node35</title>
<g id="a_node6"><a xlink:href="../../d2/d3a/ThermoFactory_8cpp.html" target="_top" xlink:title="Definitions for the factory class that can create known ThermoPhase objects (see Thermodynamic Proper...">
<polygon fill="#ffffff" stroke="#000000" points="676.5,-.5 676.5,-19.5 779.5,-19.5 779.5,-.5 676.5,-.5"/>
<text text-anchor="middle" x="728" y="-7.5" font-family="Helvetica,sans-Serif" font-size="10.00" fill="#000000">ThermoFactory.cpp</text>
</a>
</g>
</g>
<!-- Node30&#45;&gt;Node35 -->
<g id="edge5" class="edge">
<title>Node30&#45;&gt;Node35</title>
<path fill="none" stroke="#191970" d="M657.3982,-119.8354C754.6875,-114.8207 972.9098,-100.8943 995,-76 1000.8998,-69.3513 1000.727,-62.7981 995,-56 981.2868,-39.7222 853.4934,-23.4671 779.7915,-15.3398"/>
<polygon fill="#191970" stroke="#191970" points="657.0708,-116.3474 647.2604,-120.3482 657.4245,-123.3385 657.0708,-116.3474"/>
</g>
<!-- Node36 -->
<g id="node7" class="node">
<title>Node36</title>
<g id="a_node7"><a xlink:href="../../d7/de6/ConstPressureReactor_8cpp.html" target="_top" xlink:title="A constant pressure zero&#45;dimensional reactor. ">
<polygon fill="#ffffff" stroke="#000000" points="481.5,-56.5 481.5,-75.5 618.5,-75.5 618.5,-56.5 481.5,-56.5"/>
<text text-anchor="middle" x="550" y="-63.5" font-family="Helvetica,sans-Serif" font-size="10.00" fill="#000000">ConstPressureReactor.cpp</text>
</a>
</g>
</g>
<!-- Node30&#45;&gt;Node36 -->
<g id="edge6" class="edge">
<title>Node30&#45;&gt;Node36</title>
<path fill="none" stroke="#191970" d="M592.8751,-105.3607C582.322,-95.6727 569.3888,-83.7995 560.5036,-75.6427"/>
<polygon fill="#191970" stroke="#191970" points="590.6411,-108.0611 600.3746,-112.2455 595.375,-102.9045 590.6411,-108.0611"/>
</g>
<!-- Node37 -->
<g id="node8" class="node">
<title>Node37</title>
<g id="a_node8"><a xlink:href="../../d3/d68/Reactor_8cpp.html" target="_top" xlink:title="A zero&#45;dimensional reactor. ">
<polygon fill="#ffffff" stroke="#000000" points="637,-56.5 637,-75.5 707,-75.5 707,-56.5 637,-56.5"/>
<text text-anchor="middle" x="672" y="-63.5" font-family="Helvetica,sans-Serif" font-size="10.00" fill="#000000">Reactor.cpp</text>
</a>
</g>
</g>
<!-- Node30&#45;&gt;Node37 -->
<g id="edge7" class="edge">
<title>Node30&#45;&gt;Node37</title>
<path fill="none" stroke="#191970" d="M629.1249,-105.3607C639.678,-95.6727 652.6112,-83.7995 661.4964,-75.6427"/>
<polygon fill="#191970" stroke="#191970" points="626.625,-102.9045 621.6254,-112.2455 631.3589,-108.0611 626.625,-102.9045"/>
</g>
<!-- Node38 -->
<g id="node9" class="node">
<title>Node38</title>
<g id="a_node9"><a xlink:href="../../df/ddb/ReactorSurface_8cpp.html" target="_top" xlink:title="ReactorSurface.cpp">
<polygon fill="#ffffff" stroke="#000000" points="725.5,-56.5 725.5,-75.5 830.5,-75.5 830.5,-56.5 725.5,-56.5"/>
<text text-anchor="middle" x="778" y="-63.5" font-family="Helvetica,sans-Serif" font-size="10.00" fill="#000000">ReactorSurface.cpp</text>
</a>
</g>
</g>
<!-- Node30&#45;&gt;Node38 -->
<g id="edge8" class="edge">
<title>Node30&#45;&gt;Node38</title>
<path fill="none" stroke="#191970" d="M649.1998,-109.1905C679.7954,-98.9309 722.0278,-84.7691 749.6663,-75.5011"/>
<polygon fill="#191970" stroke="#191970" points="648.0767,-105.8755 639.7083,-112.3733 650.3022,-112.5123 648.0767,-105.8755"/>
</g>
<!-- Node39 -->
<g id="node10" class="node">
<title>Node39</title>
<g id="a_node10"><a xlink:href="../../de/ddf/Wall_8cpp.html" target="_top" xlink:title="Wall.cpp">
<polygon fill="#ffffff" stroke="#000000" points="848.5,-56.5 848.5,-75.5 903.5,-75.5 903.5,-56.5 848.5,-56.5"/>
<text text-anchor="middle" x="876" y="-63.5" font-family="Helvetica,sans-Serif" font-size="10.00" fill="#000000">Wall.cpp</text>
</a>
</g>
</g>
<!-- Node30&#45;&gt;Node39 -->
<g id="edge9" class="edge">
<title>Node30&#45;&gt;Node39</title>
<path fill="none" stroke="#191970" d="M657.0953,-113.6093C703.2853,-104.9881 776.334,-90.7735 839,-76 841.9792,-75.2977 845.0824,-74.5248 848.1688,-73.7295"/>
<polygon fill="#191970" stroke="#191970" points="656.2849,-110.1999 647.0922,-115.4672 657.5632,-117.0822 656.2849,-110.1999"/>
</g>
<!-- Node40 -->
<g id="node11" class="node">
<title>Node40</title>
<g id="a_node11"><a xlink:href="../../d7/d91/Interface_8h.html" target="_top" xlink:title="Declaration and Definition for the class Interface. ">
<polygon fill="#ffffff" stroke="#000000" points="922,-56.5 922,-75.5 986,-75.5 986,-56.5 922,-56.5"/>
<text text-anchor="middle" x="954" y="-63.5" font-family="Helvetica,sans-Serif" font-size="10.00" fill="#000000">Interface.h</text>
</a>
</g>
</g>
<!-- Node30&#45;&gt;Node40 -->
<g id="edge10" class="edge">
<title>Node30&#45;&gt;Node40</title>
<path fill="none" stroke="#191970" d="M657.4737,-116.1029C716.7816,-108.3014 822.4281,-93.4771 912,-76 915.237,-75.3684 918.602,-74.6585 921.9553,-73.9159"/>
<polygon fill="#191970" stroke="#191970" points="656.7679,-112.6653 647.3056,-117.4313 657.6748,-119.6063 656.7679,-112.6653"/>
</g>
<!-- Node41 -->
<g id="node12" class="node">
<title>Node41</title>
<g id="a_node12"><a xlink:href="../../d0/de5/Inlet1D_8h.html" target="_top" xlink:title="Boundary objects for one&#45;dimensional simulations. ">
<polygon fill="#ffffff" stroke="#000000" points="1042.5,-56.5 1042.5,-75.5 1099.5,-75.5 1099.5,-56.5 1042.5,-56.5"/>
<text text-anchor="middle" x="1071" y="-63.5" font-family="Helvetica,sans-Serif" font-size="10.00" fill="#000000">Inlet1D.h</text>
</a>
</g>
</g>
<!-- Node30&#45;&gt;Node41 -->
<g id="edge11" class="edge">
<title>Node30&#45;&gt;Node41</title>
<path fill="none" stroke="#191970" d="M657.5291,-118.6795C734.837,-112.7578 894.4601,-98.8106 1028,-76 1032.6841,-75.1999 1037.6216,-74.2008 1042.4148,-73.146"/>
<polygon fill="#191970" stroke="#191970" points="656.8859,-115.218 647.1782,-119.4619 657.4136,-122.1981 656.8859,-115.218"/>
</g>
<!-- Node44 -->
<g id="node15" class="node">
<title>Node44</title>
<g id="a_node15"><a xlink:href="../../d6/d72/EdgePhase_8h.html" target="_top" xlink:title="Declarations for the EdgePhase ThermoPhase object, which models the interface between two surfaces (s...">
<polygon fill="#ffffff" stroke="#000000" points="386.5,-56.5 386.5,-75.5 463.5,-75.5 463.5,-56.5 386.5,-56.5"/>
<text text-anchor="middle" x="425" y="-63.5" font-family="Helvetica,sans-Serif" font-size="10.00" fill="#000000">EdgePhase.h</text>
</a>
</g>
</g>
<!-- Node30&#45;&gt;Node44 -->
<g id="edge14" class="edge">
<title>Node30&#45;&gt;Node44</title>
<path fill="none" stroke="#191970" d="M569.3363,-109.4561C535.1933,-99.1765 487.6069,-84.8494 456.5573,-75.5011"/>
<polygon fill="#191970" stroke="#191970" points="568.441,-112.8417 579.0255,-112.3733 570.4591,-106.1389 568.441,-112.8417"/>
</g>
<!-- Node42 -->
<g id="node13" class="node">
<title>Node42</title>
<g id="a_node13"><a xlink:href="../../d6/d01/boundaries1D_8cpp.html" target="_top" xlink:title="boundaries1D.cpp">
<polygon fill="#ffffff" stroke="#000000" points="974,-.5 974,-19.5 1072,-19.5 1072,-.5 974,-.5"/>
<text text-anchor="middle" x="1023" y="-7.5" font-family="Helvetica,sans-Serif" font-size="10.00" fill="#000000">boundaries1D.cpp</text>
</a>
</g>
</g>
<!-- Node41&#45;&gt;Node42 -->
<g id="edge12" class="edge">
<title>Node41&#45;&gt;Node42</title>
<path fill="none" stroke="#191970" d="M1056.0003,-48.5004C1047.8378,-38.9775 1038.0511,-27.5596 1031.2651,-19.6427"/>
<polygon fill="#191970" stroke="#191970" points="1053.4737,-50.9307 1062.639,-56.2455 1058.7885,-46.3752 1053.4737,-50.9307"/>
</g>
<!-- Node43 -->
<g id="node14" class="node">
<title>Node43</title>
<g id="a_node14"><a xlink:href="../../d4/d07/onedim_8h.html" target="_top" xlink:title="onedim.h">
<polygon fill="#ffffff" stroke="#000000" points="1090,-.5 1090,-19.5 1148,-19.5 1148,-.5 1090,-.5"/>
<text text-anchor="middle" x="1119" y="-7.5" font-family="Helvetica,sans-Serif" font-size="10.00" fill="#000000">onedim.h</text>
</a>
</g>
</g>
<!-- Node41&#45;&gt;Node43 -->
<g id="edge13" class="edge">
<title>Node41&#45;&gt;Node43</title>
<path fill="none" stroke="#191970" d="M1085.9997,-48.5004C1094.1622,-38.9775 1103.9489,-27.5596 1110.7349,-19.6427"/>
<polygon fill="#191970" stroke="#191970" points="1083.2115,-46.3752 1079.361,-56.2455 1088.5263,-50.9307 1083.2115,-46.3752"/>
</g>
<!-- Node44&#45;&gt;Node34 -->
<g id="edge15" class="edge">
<title>Node44&#45;&gt;Node34</title>
<path fill="none" stroke="#191970" d="M414.1746,-47.6296C408.6701,-38.2887 402.2063,-27.3197 397.6823,-19.6427"/>
<polygon fill="#191970" stroke="#191970" points="411.1595,-49.4071 419.2518,-56.2455 417.1903,-45.8532 411.1595,-49.4071"/>
</g>
<!-- Node44&#45;&gt;Node35 -->
<g id="edge16" class="edge">
<title>Node44&#45;&gt;Node35</title>
<path fill="none" stroke="#191970" d="M473.9022,-55.6669C549.6667,-40.9038 626.8841,-27.3071 676.4244,-18.7707"/>
<polygon fill="#191970" stroke="#191970" points="472.8501,-52.3063 463.7087,-57.6621 474.1948,-59.176 472.8501,-52.3063"/>
</g>
</g>
</svg>
