<?xml version="1.0" encoding="UTF-8" standalone="no"?>
<!DOCTYPE svg PUBLIC "-//W3C//DTD SVG 1.1//EN"
 "http://www.w3.org/Graphics/SVG/1.1/DTD/svg11.dtd">
<!-- Generated by graphviz version 2.40.1 (20161225.0304)
 -->
<!-- Title: vcs_prep.cpp Pages: 1 -->
<svg width="1081pt" height="487pt"
 viewBox="0.00 0.00 1081.44 487.00" xmlns="http://www.w3.org/2000/svg" xmlns:xlink="http://www.w3.org/1999/xlink">
<g id="graph0" class="graph" transform="scale(1 1) rotate(0) translate(4 483)">
<title>vcs_prep.cpp</title>
<polygon fill="#ffffff" stroke="transparent" points="-4,4 -4,-483 1077.4397,-483 1077.4397,4 -4,4"/>
<!-- Node0 -->
<g id="node1" class="node">
<title>Node0</title>
<polygon fill="#bfbfbf" stroke="#000000" points="331.5,-459.5 331.5,-478.5 407.5,-478.5 407.5,-459.5 331.5,-459.5"/>
<text text-anchor="middle" x="369.5" y="-466.5" font-family="Helvetica,sans-Serif" font-size="10.00" fill="#000000">vcs_prep.cpp</text>
</g>
<!-- Node1 -->
<g id="node2" class="node">
<title>Node1</title>
<g id="a_node2"><a xlink:href="../../d4/d51/vcs__solve_8h.html" target="_top" xlink:title="Header file for the internal object that holds the vcs equilibrium problem (see Class VCS_SOLVE and E...">
<polygon fill="#ffffff" stroke="#000000" points="305,-347.5 305,-366.5 434,-366.5 434,-347.5 305,-347.5"/>
<text text-anchor="middle" x="369.5" y="-354.5" font-family="Helvetica,sans-Serif" font-size="10.00" fill="#000000">cantera/equil/vcs_solve.h</text>
</a>
</g>
</g>
<!-- Node0&#45;&gt;Node1 -->
<g id="edge1" class="edge">
<title>Node0&#45;&gt;Node1</title>
<path fill="none" stroke="#191970" d="M369.5,-459.4509C369.5,-441.184 369.5,-400.9553 369.5,-376.6976"/>
<polygon fill="#191970" stroke="#191970" points="373.0001,-376.5249 369.5,-366.5249 366.0001,-376.5249 373.0001,-376.5249"/>
</g>
<!-- Node23 -->
<g id="node22" class="node">
<title>Node23</title>
<g id="a_node22"><a xlink:href="../../d7/dfb/vcs__VolPhase_8h.html" target="_top" xlink:title="Header for the object representing each phase within vcs. ">
<polygon fill="#ffffff" stroke="#000000" points="138.5,-347.5 138.5,-366.5 286.5,-366.5 286.5,-347.5 138.5,-347.5"/>
<text text-anchor="middle" x="212.5" y="-354.5" font-family="Helvetica,sans-Serif" font-size="10.00" fill="#000000">cantera/equil/vcs_VolPhase.h</text>
</a>
</g>
</g>
<!-- Node0&#45;&gt;Node23 -->
<g id="edge25" class="edge">
<title>Node0&#45;&gt;Node23</title>
<path fill="none" stroke="#191970" d="M356.1143,-459.4509C329.0016,-440.1094 267.3751,-396.1465 234.3544,-372.5904"/>
<polygon fill="#191970" stroke="#191970" points="236.0253,-369.4831 225.8519,-366.5249 231.9601,-375.1817 236.0253,-369.4831"/>
</g>
<!-- Node25 -->
<g id="node24" class="node">
<title>Node25</title>
<g id="a_node24"><a xlink:href="../../d4/d71/MultiPhase_8h.html" target="_top" xlink:title="Headers for the MultiPhase object that is used to set up multiphase equilibrium problems (see Equilfu...">
<polygon fill="#ffffff" stroke="#000000" points="529.5,-403.5 529.5,-422.5 663.5,-422.5 663.5,-403.5 529.5,-403.5"/>
<text text-anchor="middle" x="596.5" y="-410.5" font-family="Helvetica,sans-Serif" font-size="10.00" fill="#000000">cantera/equil/MultiPhase.h</text>
</a>
</g>
</g>
<!-- Node0&#45;&gt;Node25 -->
<g id="edge29" class="edge">
<title>Node0&#45;&gt;Node25</title>
<path fill="none" stroke="#191970" d="M407.7508,-459.5637C446.3529,-450.0407 506.0908,-435.3036 547.9972,-424.9654"/>
<polygon fill="#191970" stroke="#191970" points="548.8415,-428.3622 557.7121,-422.5688 547.1648,-421.5659 548.8415,-428.3622"/>
</g>
<!-- Node2 -->
<g id="node3" class="node">
<title>Node2</title>
<g id="a_node3"><a xlink:href="../../d9/ddc/ct__defs_8h.html" target="_top" xlink:title="This file contains definitions of terms that are used in internal routines and are unlikely to need m...">
<polygon fill="#ffffff" stroke="#000000" points="476.5,-56.5 476.5,-75.5 594.5,-75.5 594.5,-56.5 476.5,-56.5"/>
<text text-anchor="middle" x="535.5" y="-63.5" font-family="Helvetica,sans-Serif" font-size="10.00" fill="#000000">cantera/base/ct_defs.h</text>
</a>
</g>
</g>
<!-- Node1&#45;&gt;Node2 -->
<g id="edge2" class="edge">
<title>Node1&#45;&gt;Node2</title>
<path fill="none" stroke="#191970" d="M368.6499,-347.4668C366.6043,-319.7148 363.5987,-237.2576 393.5,-179 417.6962,-131.8578 471.3903,-97.885 505.3794,-80.1254"/>
<polygon fill="#191970" stroke="#191970" points="507.0675,-83.1937 514.4027,-75.5487 503.901,-76.9508 507.0675,-83.1937"/>
</g>
<!-- Node11 -->
<g id="node12" class="node">
<title>Node11</title>
<g id="a_node12"><a xlink:href="../../da/d80/vcs__defs_8h.html" target="_top" xlink:title="Defines and definitions within the vcs package. ">
<polygon fill="#ffffff" stroke="#000000" points="89.5,-291.5 89.5,-310.5 213.5,-310.5 213.5,-291.5 89.5,-291.5"/>
<text text-anchor="middle" x="151.5" y="-298.5" font-family="Helvetica,sans-Serif" font-size="10.00" fill="#000000">cantera/equil/vcs_defs.h</text>
</a>
</g>
</g>
<!-- Node1&#45;&gt;Node11 -->
<g id="edge11" class="edge">
<title>Node1&#45;&gt;Node11</title>
<path fill="none" stroke="#191970" d="M332.0245,-347.3733C294.9897,-337.8598 238.2318,-323.2797 198.2639,-313.0127"/>
<polygon fill="#191970" stroke="#191970" points="199.0429,-309.5993 188.4865,-310.5011 197.3012,-316.3792 199.0429,-309.5993"/>
</g>
<!-- Node12 -->
<g id="node13" class="node">
<title>Node12</title>
<g id="a_node13"><a xlink:href="../../df/da3/vcs__internal_8h.html" target="_top" xlink:title="Internal declarations for the VCSnonideal package. ">
<polygon fill="#ffffff" stroke="#000000" points="397.5,-291.5 397.5,-310.5 535.5,-310.5 535.5,-291.5 397.5,-291.5"/>
<text text-anchor="middle" x="466.5" y="-298.5" font-family="Helvetica,sans-Serif" font-size="10.00" fill="#000000">cantera/equil/vcs_internal.h</text>
</a>
</g>
</g>
<!-- Node1&#45;&gt;Node12 -->
<g id="edge12" class="edge">
<title>Node1&#45;&gt;Node12</title>
<path fill="none" stroke="#191970" d="M386.3961,-347.2455C401.418,-338.5731 423.6043,-325.7645 440.821,-315.825"/>
<polygon fill="#191970" stroke="#191970" points="442.8871,-318.6737 449.7975,-310.6427 439.3872,-312.6114 442.8871,-318.6737"/>
</g>
<!-- Node17 -->
<g id="node16" class="node">
<title>Node17</title>
<g id="a_node16"><a xlink:href="../../df/dd0/Array_8h.html" target="_top" xlink:title="Header file for class Cantera::Array2D. ">
<polygon fill="#ffffff" stroke="#000000" points="232,-291.5 232,-310.5 341,-310.5 341,-291.5 232,-291.5"/>
<text text-anchor="middle" x="286.5" y="-298.5" font-family="Helvetica,sans-Serif" font-size="10.00" fill="#000000">cantera/base/Array.h</text>
</a>
</g>
</g>
<!-- Node1&#45;&gt;Node17 -->
<g id="edge17" class="edge">
<title>Node1&#45;&gt;Node17</title>
<path fill="none" stroke="#191970" d="M355.0425,-347.2455C342.4268,-338.7337 323.9056,-326.2375 309.2955,-316.3801"/>
<polygon fill="#191970" stroke="#191970" points="311.0391,-313.3343 300.7918,-310.6427 307.1239,-319.1371 311.0391,-313.3343"/>
</g>
<!-- Node3 -->
<g id="node4" class="node">
<title>Node3</title>
<g id="a_node4"><a xlink:href="../../db/d16/config_8h_source.html" target="_top" xlink:title="config.h">
<polygon fill="#ffffff" stroke="#000000" points="288.5,-.5 288.5,-19.5 340.5,-19.5 340.5,-.5 288.5,-.5"/>
<text text-anchor="middle" x="314.5" y="-7.5" font-family="Helvetica,sans-Serif" font-size="10.00" fill="#000000">config.h</text>
</a>
</g>
</g>
<!-- Node2&#45;&gt;Node3 -->
<g id="edge3" class="edge">
<title>Node2&#45;&gt;Node3</title>
<path fill="none" stroke="#191970" d="M495.1193,-56.455C459.5092,-47.9391 405.9759,-34.8987 350.7983,-20.2852"/>
<polygon fill="#191970" stroke="#191970" points="351.4091,-16.826 340.8453,-17.6366 349.6089,-23.5906 351.4091,-16.826"/>
</g>
<!-- Node4 -->
<g id="node5" class="node">
<title>Node4</title>
<polygon fill="#ffffff" stroke="#bfbfbf" points="358.5,-.5 358.5,-19.5 402.5,-19.5 402.5,-.5 358.5,-.5"/>
<text text-anchor="middle" x="380.5" y="-7.5" font-family="Helvetica,sans-Serif" font-size="10.00" fill="#000000">cmath</text>
</g>
<!-- Node2&#45;&gt;Node4 -->
<g id="edge4" class="edge">
<title>Node2&#45;&gt;Node4</title>
<path fill="none" stroke="#191970" d="M508.8546,-56.3733C482.0647,-46.6944 440.7597,-31.7712 412.2783,-21.4812"/>
<polygon fill="#191970" stroke="#191970" points="413.3781,-18.1572 402.7838,-18.0509 410.9995,-24.7407 413.3781,-18.1572"/>
</g>
<!-- Node5 -->
<g id="node6" class="node">
<title>Node5</title>
<polygon fill="#ffffff" stroke="#bfbfbf" points="421,-.5 421,-19.5 466,-19.5 466,-.5 421,-.5"/>
<text text-anchor="middle" x="443.5" y="-7.5" font-family="Helvetica,sans-Serif" font-size="10.00" fill="#000000">cstdlib</text>
</g>
<!-- Node2&#45;&gt;Node5 -->
<g id="edge5" class="edge">
<title>Node2&#45;&gt;Node5</title>
<path fill="none" stroke="#191970" d="M519.4748,-56.2455C505.3592,-47.6534 484.5737,-35.0014 468.3101,-25.1018"/>
<polygon fill="#191970" stroke="#191970" points="469.7034,-21.8525 459.3415,-19.6427 466.0637,-27.8319 469.7034,-21.8525"/>
</g>
<!-- Node6 -->
<g id="node7" class="node">
<title>Node6</title>
<polygon fill="#ffffff" stroke="#bfbfbf" points="484.5,-.5 484.5,-19.5 528.5,-19.5 528.5,-.5 484.5,-.5"/>
<text text-anchor="middle" x="506.5" y="-7.5" font-family="Helvetica,sans-Serif" font-size="10.00" fill="#000000">vector</text>
</g>
<!-- Node2&#45;&gt;Node6 -->
<g id="edge6" class="edge">
<title>Node2&#45;&gt;Node6</title>
<path fill="none" stroke="#191970" d="M530.4486,-56.2455C526.4981,-48.617 520.8903,-37.7881 516.0942,-28.5267"/>
<polygon fill="#191970" stroke="#191970" points="519.2001,-26.9131 511.4935,-19.6427 512.9841,-30.1321 519.2001,-26.9131"/>
</g>
<!-- Node7 -->
<g id="node8" class="node">
<title>Node7</title>
<polygon fill="#ffffff" stroke="#bfbfbf" points="546.5,-.5 546.5,-19.5 582.5,-19.5 582.5,-.5 546.5,-.5"/>
<text text-anchor="middle" x="564.5" y="-7.5" font-family="Helvetica,sans-Serif" font-size="10.00" fill="#000000">map</text>
</g>
<!-- Node2&#45;&gt;Node7 -->
<g id="edge7" class="edge">
<title>Node2&#45;&gt;Node7</title>
<path fill="none" stroke="#191970" d="M540.5514,-56.2455C544.5019,-48.617 550.1097,-37.7881 554.9058,-28.5267"/>
<polygon fill="#191970" stroke="#191970" points="558.0159,-30.1321 559.5065,-19.6427 551.7999,-26.9131 558.0159,-30.1321"/>
</g>
<!-- Node8 -->
<g id="node9" class="node">
<title>Node8</title>
<polygon fill="#ffffff" stroke="#bfbfbf" points="601,-.5 601,-19.5 642,-19.5 642,-.5 601,-.5"/>
<text text-anchor="middle" x="621.5" y="-7.5" font-family="Helvetica,sans-Serif" font-size="10.00" fill="#000000">string</text>
</g>
<!-- Node2&#45;&gt;Node8 -->
<g id="edge8" class="edge">
<title>Node2&#45;&gt;Node8</title>
<path fill="none" stroke="#191970" d="M550.4801,-56.2455C563.6751,-47.6534 583.1051,-35.0014 598.3079,-25.1018"/>
<polygon fill="#191970" stroke="#191970" points="600.2215,-28.0325 606.6916,-19.6427 596.4017,-22.1665 600.2215,-28.0325"/>
</g>
<!-- Node9 -->
<g id="node10" class="node">
<title>Node9</title>
<polygon fill="#ffffff" stroke="#bfbfbf" points="660.5,-.5 660.5,-19.5 718.5,-19.5 718.5,-.5 660.5,-.5"/>
<text text-anchor="middle" x="689.5" y="-7.5" font-family="Helvetica,sans-Serif" font-size="10.00" fill="#000000">algorithm</text>
</g>
<!-- Node2&#45;&gt;Node9 -->
<g id="edge9" class="edge">
<title>Node2&#45;&gt;Node9</title>
<path fill="none" stroke="#191970" d="M561.9735,-56.3733C587.3597,-47.1419 625.8645,-33.1402 653.922,-22.9375"/>
<polygon fill="#191970" stroke="#191970" points="655.1701,-26.2079 663.3719,-19.5011 652.7778,-19.6293 655.1701,-26.2079"/>
</g>
<!-- Node10 -->
<g id="node11" class="node">
<title>Node10</title>
<polygon fill="#ffffff" stroke="#bfbfbf" points="737,-.5 737,-19.5 790,-19.5 790,-.5 737,-.5"/>
<text text-anchor="middle" x="763.5" y="-7.5" font-family="Helvetica,sans-Serif" font-size="10.00" fill="#000000">memory</text>
</g>
<!-- Node2&#45;&gt;Node10 -->
<g id="edge10" class="edge">
<title>Node2&#45;&gt;Node10</title>
<path fill="none" stroke="#191970" d="M577.1798,-56.4677C614.0124,-47.9426 669.4238,-34.8716 726.8151,-20.1114"/>
<polygon fill="#191970" stroke="#191970" points="727.9859,-23.4239 736.7923,-17.5334 726.2346,-16.6466 727.9859,-23.4239"/>
</g>
<!-- Node13 -->
<g id="node14" class="node">
<title>Node13</title>
<g id="a_node14"><a xlink:href="../../d2/d49/global_8h.html" target="_top" xlink:title="This file contains definitions for utility functions and text for modules, inputfiles, logs, textlogs, (see Input File Handling, Diagnostic Output, and Writing messages to the screen). ">
<polygon fill="#ffffff" stroke="#000000" points="402.5,-179.5 402.5,-198.5 514.5,-198.5 514.5,-179.5 402.5,-179.5"/>
<text text-anchor="middle" x="458.5" y="-186.5" font-family="Helvetica,sans-Serif" font-size="10.00" fill="#000000">cantera/base/global.h</text>
</a>
</g>
</g>
<!-- Node12&#45;&gt;Node13 -->
<g id="edge13" class="edge">
<title>Node12&#45;&gt;Node13</title>
<path fill="none" stroke="#191970" d="M465.8179,-291.4509C464.5131,-273.184 461.6397,-232.9553 459.907,-208.6976"/>
<polygon fill="#191970" stroke="#191970" points="463.384,-208.2501 459.1803,-198.5249 456.4018,-208.7489 463.384,-208.2501"/>
</g>
<!-- Node13&#45;&gt;Node2 -->
<g id="edge14" class="edge">
<title>Node13&#45;&gt;Node2</title>
<path fill="none" stroke="#191970" d="M459.7816,-179.2709C462.1707,-163.9081 468.4007,-133.5641 482.5,-112 490.2093,-100.2092 501.7664,-89.6854 512.1229,-81.6894"/>
<polygon fill="#191970" stroke="#191970" points="514.4371,-84.3325 520.4292,-75.595 510.2961,-78.6887 514.4371,-84.3325"/>
</g>
<!-- Node14 -->
<g id="node15" class="node">
<title>Node14</title>
<g id="a_node15"><a xlink:href="../../db/def/fmt_8h.html" target="_top" xlink:title="Wrapper for either system&#45;installed or local headers for fmt. ">
<polygon fill="#ffffff" stroke="#ff0000" points="525,-118 525,-137 624,-137 624,-118 525,-118"/>
<text text-anchor="middle" x="574.5" y="-125" font-family="Helvetica,sans-Serif" font-size="10.00" fill="#000000">cantera/base/fmt.h</text>
</a>
</g>
</g>
<!-- Node13&#45;&gt;Node14 -->
<g id="edge15" class="edge">
<title>Node13&#45;&gt;Node14</title>
<path fill="none" stroke="#191970" d="M476.625,-179.3906C495.6083,-169.3262 525.6373,-153.4057 547.4307,-141.8514"/>
<polygon fill="#191970" stroke="#191970" points="549.3066,-144.8184 556.5023,-137.0419 546.0277,-138.6338 549.3066,-144.8184"/>
</g>
<!-- Node14&#45;&gt;Node2 -->
<g id="edge16" class="edge">
<title>Node14&#45;&gt;Node2</title>
<path fill="none" stroke="#191970" d="M568.4063,-117.8906C562.7157,-108.917 554.0728,-95.2879 547.0726,-84.2491"/>
<polygon fill="#191970" stroke="#191970" points="549.9909,-82.3155 541.6797,-75.7449 544.0793,-86.0644 549.9909,-82.3155"/>
</g>
<!-- Node18 -->
<g id="node17" class="node">
<title>Node18</title>
<g id="a_node17"><a xlink:href="../../de/df0/utilities_8h.html" target="_top" xlink:title="Various templated functions that carry out common vector operations (see Templated Utility Functions)...">
<polygon fill="#ffffff" stroke="#000000" points="151,-235.5 151,-254.5 206,-254.5 206,-235.5 151,-235.5"/>
<text text-anchor="middle" x="178.5" y="-242.5" font-family="Helvetica,sans-Serif" font-size="10.00" fill="#000000">utilities.h</text>
</a>
</g>
</g>
<!-- Node17&#45;&gt;Node18 -->
<g id="edge18" class="edge">
<title>Node17&#45;&gt;Node18</title>
<path fill="none" stroke="#191970" d="M267.6878,-291.2455C250.6527,-282.4125 225.3425,-269.2887 206.0319,-259.2758"/>
<polygon fill="#191970" stroke="#191970" points="207.5853,-256.1388 197.0966,-254.6427 204.363,-262.353 207.5853,-256.1388"/>
</g>
<!-- Node21 -->
<g id="node20" class="node">
<title>Node21</title>
<polygon fill="#ffffff" stroke="#bfbfbf" points="224,-235.5 224,-254.5 279,-254.5 279,-235.5 224,-235.5"/>
<text text-anchor="middle" x="251.5" y="-242.5" font-family="Helvetica,sans-Serif" font-size="10.00" fill="#000000">iostream</text>
</g>
<!-- Node17&#45;&gt;Node21 -->
<g id="edge23" class="edge">
<title>Node17&#45;&gt;Node21</title>
<path fill="none" stroke="#191970" d="M280.4035,-291.2455C275.5855,-283.5367 268.7249,-272.5598 262.8968,-263.2348"/>
<polygon fill="#191970" stroke="#191970" points="265.7947,-261.2677 257.5267,-254.6427 259.8587,-264.9777 265.7947,-261.2677"/>
</g>
<!-- Node22 -->
<g id="node21" class="node">
<title>Node22</title>
<polygon fill="#ffffff" stroke="#bfbfbf" points="297.5,-235.5 297.5,-254.5 343.5,-254.5 343.5,-235.5 297.5,-235.5"/>
<text text-anchor="middle" x="320.5" y="-242.5" font-family="Helvetica,sans-Serif" font-size="10.00" fill="#000000">cstring</text>
</g>
<!-- Node17&#45;&gt;Node22 -->
<g id="edge24" class="edge">
<title>Node17&#45;&gt;Node22</title>
<path fill="none" stroke="#191970" d="M292.4223,-291.2455C297.1027,-283.5367 303.7673,-272.5598 309.4289,-263.2348"/>
<polygon fill="#191970" stroke="#191970" points="312.4475,-265.007 314.6455,-254.6427 306.4639,-261.3741 312.4475,-265.007"/>
</g>
<!-- Node18&#45;&gt;Node2 -->
<g id="edge19" class="edge">
<title>Node18&#45;&gt;Node2</title>
<path fill="none" stroke="#191970" d="M177.0105,-235.3326C175.4197,-221.3518 174.648,-195.3746 187.5,-179 223.1758,-133.5458 383.8996,-95.6271 473.9194,-77.4897"/>
<polygon fill="#191970" stroke="#191970" points="474.6115,-80.9207 483.7348,-75.534 473.2436,-74.0557 474.6115,-80.9207"/>
</g>
<!-- Node18&#45;&gt;Node13 -->
<g id="edge20" class="edge">
<title>Node18&#45;&gt;Node13</title>
<path fill="none" stroke="#191970" d="M206.3483,-237.0137C209.0947,-236.3015 211.8465,-235.6175 214.5,-235 274.401,-221.0603 343.3199,-208.3708 392.6005,-199.8675"/>
<polygon fill="#191970" stroke="#191970" points="393.2321,-203.3104 402.4968,-198.1706 392.0491,-196.4111 393.2321,-203.3104"/>
</g>
<!-- Node19 -->
<g id="node18" class="node">
<title>Node19</title>
<polygon fill="#ffffff" stroke="#bfbfbf" points="267,-179.5 267,-198.5 326,-198.5 326,-179.5 267,-179.5"/>
<text text-anchor="middle" x="296.5" y="-186.5" font-family="Helvetica,sans-Serif" font-size="10.00" fill="#000000">stdexcept</text>
</g>
<!-- Node18&#45;&gt;Node19 -->
<g id="edge21" class="edge">
<title>Node18&#45;&gt;Node19</title>
<path fill="none" stroke="#191970" d="M198.7849,-235.3733C217.6421,-226.4241 245.946,-212.9917 267.2455,-202.8835"/>
<polygon fill="#191970" stroke="#191970" points="268.9461,-205.9506 276.4798,-198.5011 265.9449,-199.6266 268.9461,-205.9506"/>
</g>
<!-- Node20 -->
<g id="node19" class="node">
<title>Node20</title>
<polygon fill="#ffffff" stroke="#bfbfbf" points="196.5,-179.5 196.5,-198.5 248.5,-198.5 248.5,-179.5 196.5,-179.5"/>
<text text-anchor="middle" x="222.5" y="-186.5" font-family="Helvetica,sans-Serif" font-size="10.00" fill="#000000">numeric</text>
</g>
<!-- Node18&#45;&gt;Node20 -->
<g id="edge22" class="edge">
<title>Node18&#45;&gt;Node20</title>
<path fill="none" stroke="#191970" d="M186.1642,-235.2455C192.3473,-227.3761 201.2063,-216.101 208.6289,-206.6542"/>
<polygon fill="#191970" stroke="#191970" points="211.4975,-208.6683 214.9236,-198.6427 205.9932,-204.3435 211.4975,-208.6683"/>
</g>
<!-- Node23&#45;&gt;Node17 -->
<g id="edge28" class="edge">
<title>Node23&#45;&gt;Node17</title>
<path fill="none" stroke="#191970" d="M225.3898,-347.2455C236.4254,-338.8943 252.5292,-326.7076 265.4353,-316.9408"/>
<polygon fill="#191970" stroke="#191970" points="267.8959,-319.4681 273.7579,-310.6427 263.6717,-313.8862 267.8959,-319.4681"/>
</g>
<!-- Node24 -->
<g id="node23" class="node">
<title>Node24</title>
<g id="a_node23"><a xlink:href="../../d0/d2e/vcs__SpeciesProperties_8h.html" target="_top" xlink:title="cantera/equil/vcs_Species\lProperties.h">
<polygon fill="#ffffff" stroke="#000000" points="0,-112.5 0,-142.5 133,-142.5 133,-112.5 0,-112.5"/>
<text text-anchor="start" x="8" y="-130.5" font-family="Helvetica,sans-Serif" font-size="10.00" fill="#000000">cantera/equil/vcs_Species</text>
<text text-anchor="middle" x="66.5" y="-119.5" font-family="Helvetica,sans-Serif" font-size="10.00" fill="#000000">Properties.h</text>
</a>
</g>
</g>
<!-- Node23&#45;&gt;Node24 -->
<g id="edge26" class="edge">
<title>Node23&#45;&gt;Node24</title>
<path fill="none" stroke="#191970" d="M169.7365,-347.4614C135.5903,-338.9164 91.6731,-325.5216 80.5,-311 44.8821,-264.7077 52.9951,-190.9544 60.5451,-152.5675"/>
<polygon fill="#191970" stroke="#191970" points="63.9806,-153.2379 62.6228,-142.7304 57.1318,-151.7912 63.9806,-153.2379"/>
</g>
<!-- Node24&#45;&gt;Node2 -->
<g id="edge27" class="edge">
<title>Node24&#45;&gt;Node2</title>
<path fill="none" stroke="#191970" d="M133.2256,-115.3558C140.398,-114.1673 147.5947,-113.0242 154.5,-112 263.1438,-95.8855 389.8524,-81.4502 466.3104,-73.2136"/>
<polygon fill="#191970" stroke="#191970" points="466.7292,-76.6888 476.2987,-72.142 465.9824,-69.7288 466.7292,-76.6888"/>
</g>
<!-- Node26 -->
<g id="node25" class="node">
<title>Node26</title>
<g id="a_node25"><a xlink:href="../../d1/df7/DenseMatrix_8h.html" target="_top" xlink:title="Headers for the DenseMatrix object, which deals with dense rectangular matrices and description of th...">
<polygon fill="#ffffff" stroke="#000000" points="693.5,-347.5 693.5,-366.5 853.5,-366.5 853.5,-347.5 693.5,-347.5"/>
<text text-anchor="middle" x="773.5" y="-354.5" font-family="Helvetica,sans-Serif" font-size="10.00" fill="#000000">cantera/numerics/DenseMatrix.h</text>
</a>
</g>
</g>
<!-- Node25&#45;&gt;Node26 -->
<g id="edge30" class="edge">
<title>Node25&#45;&gt;Node26</title>
<path fill="none" stroke="#191970" d="M626.9274,-403.3733C656.4872,-394.021 701.5226,-379.7725 733.8695,-369.5385"/>
<polygon fill="#191970" stroke="#191970" points="734.9913,-372.8546 743.4697,-366.5011 732.8797,-366.1807 734.9913,-372.8546"/>
</g>
<!-- Node29 -->
<g id="node28" class="node">
<title>Node29</title>
<g id="a_node28"><a xlink:href="../../d7/d01/ThermoPhase_8h.html" target="_top" xlink:title="Header file for class ThermoPhase, the base class for phases with thermodynamic properties, and the text for the Module thermoprops (see Thermodynamic Properties and class ThermoPhase). ">
<polygon fill="#ffffff" stroke="#000000" points="517.5,-347.5 517.5,-366.5 675.5,-366.5 675.5,-347.5 517.5,-347.5"/>
<text text-anchor="middle" x="596.5" y="-354.5" font-family="Helvetica,sans-Serif" font-size="10.00" fill="#000000">cantera/thermo/ThermoPhase.h</text>
</a>
</g>
</g>
<!-- Node25&#45;&gt;Node29 -->
<g id="edge36" class="edge">
<title>Node25&#45;&gt;Node29</title>
<path fill="none" stroke="#191970" d="M596.5,-403.2455C596.5,-395.9382 596.5,-385.6944 596.5,-376.7046"/>
<polygon fill="#191970" stroke="#191970" points="600.0001,-376.6426 596.5,-366.6427 593.0001,-376.6427 600.0001,-376.6426"/>
</g>
<!-- Node26&#45;&gt;Node2 -->
<g id="edge31" class="edge">
<title>Node26&#45;&gt;Node2</title>
<path fill="none" stroke="#191970" d="M830.9574,-347.4717C917.5527,-331.4613 1071.5,-295.8479 1071.5,-245 1071.5,-245 1071.5,-245 1071.5,-189 1071.5,-153.7513 1079.2586,-134.9444 1052.5,-112 1019.2482,-83.488 738.2723,-71.7509 605.0516,-67.7547"/>
<polygon fill="#191970" stroke="#191970" points="605.0459,-64.2531 594.9474,-67.4579 604.8403,-71.2501 605.0459,-64.2531"/>
</g>
<!-- Node26&#45;&gt;Node17 -->
<g id="edge35" class="edge">
<title>Node26&#45;&gt;Node17</title>
<path fill="none" stroke="#191970" d="M693.3547,-347.7841C597.6481,-336.7788 439.4542,-318.5882 351.167,-308.436"/>
<polygon fill="#191970" stroke="#191970" points="351.3515,-304.9343 341.0171,-307.2689 350.5518,-311.8884 351.3515,-304.9343"/>
</g>
<!-- Node27 -->
<g id="node26" class="node">
<title>Node27</title>
<g id="a_node26"><a xlink:href="../../db/d98/ctexceptions_8h.html" target="_top" xlink:title="Definitions for the classes that are thrown when Cantera experiences an error condition (also contain...">
<polygon fill="#ffffff" stroke="#000000" points="586,-179.5 586,-198.5 727,-198.5 727,-179.5 586,-179.5"/>
<text text-anchor="middle" x="656.5" y="-186.5" font-family="Helvetica,sans-Serif" font-size="10.00" fill="#000000">cantera/base/ctexceptions.h</text>
</a>
</g>
</g>
<!-- Node26&#45;&gt;Node27 -->
<g id="edge32" class="edge">
<title>Node26&#45;&gt;Node27</title>
<path fill="none" stroke="#191970" d="M773.0489,-347.3413C771.5463,-325.1517 765.0859,-269.7748 737.5,-235 726.2639,-220.8357 709.3938,-210.27 693.9534,-202.861"/>
<polygon fill="#191970" stroke="#191970" points="695.1435,-199.5586 684.5875,-198.6519 692.274,-205.9435 695.1435,-199.5586"/>
</g>
<!-- Node27&#45;&gt;Node14 -->
<g id="edge33" class="edge">
<title>Node27&#45;&gt;Node14</title>
<path fill="none" stroke="#191970" d="M643.6875,-179.3906C630.8099,-169.7324 610.7416,-154.6812 595.528,-143.271"/>
<polygon fill="#191970" stroke="#191970" points="597.3226,-140.2419 587.2225,-137.0419 593.1225,-145.8419 597.3226,-140.2419"/>
</g>
<!-- Node28 -->
<g id="node27" class="node">
<title>Node28</title>
<polygon fill="#ffffff" stroke="#bfbfbf" points="642,-118 642,-137 701,-137 701,-118 642,-118"/>
<text text-anchor="middle" x="671.5" y="-125" font-family="Helvetica,sans-Serif" font-size="10.00" fill="#000000">exception</text>
</g>
<!-- Node27&#45;&gt;Node28 -->
<g id="edge34" class="edge">
<title>Node27&#45;&gt;Node28</title>
<path fill="none" stroke="#191970" d="M658.8438,-179.3906C660.9449,-170.776 664.0925,-157.8708 666.723,-147.0858"/>
<polygon fill="#191970" stroke="#191970" points="670.1539,-147.7894 669.1232,-137.2449 663.3532,-146.1307 670.1539,-147.7894"/>
</g>
<!-- Node29&#45;&gt;Node13 -->
<g id="edge50" class="edge">
<title>Node29&#45;&gt;Node13</title>
<path fill="none" stroke="#191970" d="M588.8485,-347.0789C578.7964,-334.0941 560.537,-310.6741 544.5,-291 520.0419,-260.9949 490.8655,-226.6951 473.5552,-206.4958"/>
<polygon fill="#191970" stroke="#191970" points="476.0805,-204.0641 466.9113,-198.7559 470.769,-208.6235 476.0805,-204.0641"/>
</g>
<!-- Node30 -->
<g id="node29" class="node">
<title>Node30</title>
<g id="a_node29"><a xlink:href="../../da/d84/Phase_8h.html" target="_top" xlink:title="Header file for class Phase. ">
<polygon fill="#ffffff" stroke="#000000" points="802,-235.5 802,-254.5 855,-254.5 855,-235.5 802,-235.5"/>
<text text-anchor="middle" x="828.5" y="-242.5" font-family="Helvetica,sans-Serif" font-size="10.00" fill="#000000">Phase.h</text>
</a>
</g>
</g>
<!-- Node29&#45;&gt;Node30 -->
<g id="edge37" class="edge">
<title>Node29&#45;&gt;Node30</title>
<path fill="none" stroke="#191970" d="M625.6782,-347.3475C650.3366,-338.83 686.354,-325.5354 716.5,-311 748.4835,-295.5786 783.4551,-274.1854 805.663,-259.9845"/>
<polygon fill="#191970" stroke="#191970" points="807.5681,-262.9207 814.0742,-254.5589 803.7736,-257.0384 807.5681,-262.9207"/>
</g>
<!-- Node40 -->
<g id="node33" class="node">
<title>Node40</title>
<g id="a_node33"><a xlink:href="../../d6/d7a/MultiSpeciesThermo_8h.html" target="_top" xlink:title="Header for a general species thermodynamic property manager for a phase (see MultiSpeciesThermo). ">
<polygon fill="#ffffff" stroke="#000000" points="591.5,-291.5 591.5,-310.5 707.5,-310.5 707.5,-291.5 591.5,-291.5"/>
<text text-anchor="middle" x="649.5" y="-298.5" font-family="Helvetica,sans-Serif" font-size="10.00" fill="#000000">MultiSpeciesThermo.h</text>
</a>
</g>
</g>
<!-- Node29&#45;&gt;Node40 -->
<g id="edge45" class="edge">
<title>Node29&#45;&gt;Node40</title>
<path fill="none" stroke="#191970" d="M605.7319,-347.2455C613.3317,-339.2155 624.2877,-327.6394 633.3368,-318.0781"/>
<polygon fill="#191970" stroke="#191970" points="636.0421,-320.3115 640.3739,-310.6427 630.958,-315.4998 636.0421,-320.3115"/>
</g>
<!-- Node30&#45;&gt;Node27 -->
<g id="edge38" class="edge">
<title>Node30&#45;&gt;Node27</title>
<path fill="none" stroke="#191970" d="M801.625,-236.25C773.112,-226.9667 727.7929,-212.2116 695.3851,-201.6603"/>
<polygon fill="#191970" stroke="#191970" points="696.3672,-198.2992 685.7749,-198.5314 694.2,-204.9553 696.3672,-198.2992"/>
</g>
<!-- Node31 -->
<g id="node30" class="node">
<title>Node31</title>
<g id="a_node30"><a xlink:href="../../d9/dda/Elements_8h.html" target="_top" xlink:title="Contains the getElementWeight function and the definitions of element constraint types. ">
<polygon fill="#ffffff" stroke="#000000" points="758,-118 758,-137 895,-137 895,-118 758,-118"/>
<text text-anchor="middle" x="826.5" y="-125" font-family="Helvetica,sans-Serif" font-size="10.00" fill="#000000">cantera/thermo/Elements.h</text>
</a>
</g>
</g>
<!-- Node30&#45;&gt;Node31 -->
<g id="edge39" class="edge">
<title>Node30&#45;&gt;Node31</title>
<path fill="none" stroke="#191970" d="M851.2523,-235.402C874.7889,-223.9359 906.5455,-203.2329 894.5,-179 886.6053,-163.1176 871.2143,-150.8241 857.069,-142.2377"/>
<polygon fill="#191970" stroke="#191970" points="858.4715,-139.0098 848.0447,-137.13 855.0235,-145.1017 858.4715,-139.0098"/>
</g>
<!-- Node32 -->
<g id="node31" class="node">
<title>Node32</title>
<g id="a_node31"><a xlink:href="../../d7/dd9/Species_8h.html" target="_top" xlink:title="Declaration for class Cantera::Species. ">
<polygon fill="#ffffff" stroke="#ff0000" points="913.5,-118 913.5,-137 1043.5,-137 1043.5,-118 913.5,-118"/>
<text text-anchor="middle" x="978.5" y="-125" font-family="Helvetica,sans-Serif" font-size="10.00" fill="#000000">cantera/thermo/Species.h</text>
</a>
</g>
</g>
<!-- Node30&#45;&gt;Node32 -->
<g id="edge41" class="edge">
<title>Node30&#45;&gt;Node32</title>
<path fill="none" stroke="#191970" d="M849.1448,-235.3506C866.1456,-226.9303 890.4618,-213.7707 909.5,-199 930.4301,-182.7616 951.0781,-160.2771 964.2512,-144.8829"/>
<polygon fill="#191970" stroke="#191970" points="967.0002,-147.052 970.755,-137.1448 961.6415,-142.5481 967.0002,-147.052"/>
</g>
<!-- Node38 -->
<g id="node32" class="node">
<title>Node38</title>
<g id="a_node32"><a xlink:href="../../d6/df6/ValueCache_8h.html" target="_top" xlink:title="cantera/base/ValueCache.h">
<polygon fill="#ffffff" stroke="#ff0000" points="745.5,-179.5 745.5,-198.5 885.5,-198.5 885.5,-179.5 745.5,-179.5"/>
<text text-anchor="middle" x="815.5" y="-186.5" font-family="Helvetica,sans-Serif" font-size="10.00" fill="#000000">cantera/base/ValueCache.h</text>
</a>
</g>
</g>
<!-- Node30&#45;&gt;Node38 -->
<g id="edge43" class="edge">
<title>Node30&#45;&gt;Node38</title>
<path fill="none" stroke="#191970" d="M826.2356,-235.2455C824.5206,-227.8579 822.1088,-217.4689 820.0056,-208.4087"/>
<polygon fill="#191970" stroke="#191970" points="823.4092,-207.5922 817.7385,-198.6427 816.5905,-209.1751 823.4092,-207.5922"/>
</g>
<!-- Node31&#45;&gt;Node2 -->
<g id="edge40" class="edge">
<title>Node31&#45;&gt;Node2</title>
<path fill="none" stroke="#191970" d="M781.3505,-117.9581C729.9522,-107.0956 645.9795,-89.3488 590.7242,-77.6711"/>
<polygon fill="#191970" stroke="#191970" points="591.263,-74.2077 580.7554,-75.5643 589.8155,-81.0565 591.263,-74.2077"/>
</g>
<!-- Node32&#45;&gt;Node2 -->
<g id="edge42" class="edge">
<title>Node32&#45;&gt;Node2</title>
<path fill="none" stroke="#191970" d="M935.9604,-117.9635C925.6908,-115.8348 914.7283,-113.7058 904.5,-112 800.5006,-94.6562 679.0151,-80.7199 604.6818,-72.9023"/>
<polygon fill="#191970" stroke="#191970" points="604.8222,-69.3981 594.5127,-71.8401 604.0949,-76.3602 604.8222,-69.3981"/>
</g>
<!-- Node38&#45;&gt;Node2 -->
<g id="edge44" class="edge">
<title>Node38&#45;&gt;Node2</title>
<path fill="none" stroke="#191970" d="M801.1545,-179.384C787.6601,-170.249 766.9743,-156.0144 749.5,-143 731.7419,-129.7742 730.2978,-121.9156 710.5,-112 677.5361,-95.4901 638.0173,-84.4502 604.8814,-77.3347"/>
<polygon fill="#191970" stroke="#191970" points="605.3191,-73.8512 594.8171,-75.2507 603.8997,-80.7058 605.3191,-73.8512"/>
</g>
<!-- Node41 -->
<g id="node34" class="node">
<title>Node41</title>
<g id="a_node34"><a xlink:href="../../d4/d87/SpeciesThermoInterpType_8h.html" target="_top" xlink:title="Pure Virtual Base class for individual species reference state thermodynamic managers and text for th...">
<polygon fill="#ffffff" stroke="#ff0000" points="585,-235.5 585,-254.5 728,-254.5 728,-235.5 585,-235.5"/>
<text text-anchor="middle" x="656.5" y="-242.5" font-family="Helvetica,sans-Serif" font-size="10.00" fill="#000000">SpeciesThermoInterpType.h</text>
</a>
</g>
</g>
<!-- Node40&#45;&gt;Node41 -->
<g id="edge46" class="edge">
<title>Node40&#45;&gt;Node41</title>
<path fill="none" stroke="#191970" d="M650.7193,-291.2455C651.6327,-283.9382 652.9132,-273.6944 654.0369,-264.7046"/>
<polygon fill="#191970" stroke="#191970" points="657.5272,-264.9996 655.2947,-254.6427 650.5813,-264.1313 657.5272,-264.9996"/>
</g>
<!-- Node41&#45;&gt;Node2 -->
<g id="edge47" class="edge">
<title>Node41&#45;&gt;Node2</title>
<path fill="none" stroke="#191970" d="M629.9749,-235.4184C595.6503,-221.3244 537.7334,-191.3172 516.5,-143 508.1508,-124.0012 516.2185,-100.6835 524.2664,-84.7177"/>
<polygon fill="#191970" stroke="#191970" points="527.3989,-86.284 529.1278,-75.8312 521.2578,-82.9245 527.3989,-86.284"/>
</g>
<!-- Node41&#45;&gt;Node13 -->
<g id="edge49" class="edge">
<title>Node41&#45;&gt;Node13</title>
<path fill="none" stroke="#191970" d="M622.4626,-235.3733C589.1106,-225.9404 538.1473,-211.5265 501.8998,-201.2747"/>
<polygon fill="#191970" stroke="#191970" points="502.6684,-197.8548 492.0933,-198.5011 500.7632,-204.5906 502.6684,-197.8548"/>
</g>
<!-- Node41&#45;&gt;Node27 -->
<g id="edge48" class="edge">
<title>Node41&#45;&gt;Node27</title>
<path fill="none" stroke="#191970" d="M656.5,-235.2455C656.5,-227.9382 656.5,-217.6944 656.5,-208.7046"/>
<polygon fill="#191970" stroke="#191970" points="660.0001,-208.6426 656.5,-198.6427 653.0001,-208.6427 660.0001,-208.6426"/>
</g>
</g>
</svg>
