<?xml version="1.0" encoding="UTF-8" standalone="no"?>
<!DOCTYPE svg PUBLIC "-//W3C//DTD SVG 1.1//EN"
 "http://www.w3.org/Graphics/SVG/1.1/DTD/svg11.dtd">
<!-- Generated by graphviz version 2.40.1 (20161225.0304)
 -->
<!-- Title: StoichSubstance.cpp Pages: 1 -->
<svg width="680pt" height="364pt"
 viewBox="0.00 0.00 679.88 364.00" xmlns="http://www.w3.org/2000/svg" xmlns:xlink="http://www.w3.org/1999/xlink">
<g id="graph0" class="graph" transform="scale(1 1) rotate(0) translate(4 360)">
<title>StoichSubstance.cpp</title>
<polygon fill="#ffffff" stroke="transparent" points="-4,4 -4,-360 675.882,-360 675.882,4 -4,4"/>
<!-- Node0 -->
<g id="node1" class="node">
<title>Node0</title>
<polygon fill="#bfbfbf" stroke="#000000" points="236.0335,-336.5 236.0335,-355.5 346.0335,-355.5 346.0335,-336.5 236.0335,-336.5"/>
<text text-anchor="middle" x="291.0335" y="-343.5" font-family="Helvetica,sans-Serif" font-size="10.00" fill="#000000">StoichSubstance.cpp</text>
</g>
<!-- Node1 -->
<g id="node2" class="node">
<title>Node1</title>
<g id="a_node2"><a xlink:href="../../d8/dfb/StoichSubstance_8h.html" target="_top" xlink:title="Header file for the StoichSubstance class, which represents a fixed&#45;composition incompressible substa...">
<polygon fill="#ffffff" stroke="#000000" points="89.0335,-280.5 89.0335,-299.5 259.0335,-299.5 259.0335,-280.5 89.0335,-280.5"/>
<text text-anchor="middle" x="174.0335" y="-287.5" font-family="Helvetica,sans-Serif" font-size="10.00" fill="#000000">cantera/thermo/StoichSubstance.h</text>
</a>
</g>
</g>
<!-- Node0&#45;&gt;Node1 -->
<g id="edge1" class="edge">
<title>Node0&#45;&gt;Node1</title>
<path fill="none" stroke="#191970" d="M270.9205,-336.3733C252.2232,-327.4241 224.1591,-313.9917 203.0401,-303.8835"/>
<polygon fill="#191970" stroke="#191970" points="204.4152,-300.6614 193.8841,-299.5011 201.393,-306.9755 204.4152,-300.6614"/>
</g>
<!-- Node32 -->
<g id="node11" class="node">
<title>Node32</title>
<g id="a_node11"><a xlink:href="../../dc/d8e/ThermoFactory_8h.html" target="_top" xlink:title="Headers for the factory class that can create known ThermoPhase objects (see Thermodynamic Properties...">
<polygon fill="#ffffff" stroke="#000000" points="361.5335,-224.5 361.5335,-243.5 524.5335,-243.5 524.5335,-224.5 361.5335,-224.5"/>
<text text-anchor="middle" x="443.0335" y="-231.5" font-family="Helvetica,sans-Serif" font-size="10.00" fill="#000000">cantera/thermo/ThermoFactory.h</text>
</a>
</g>
</g>
<!-- Node0&#45;&gt;Node32 -->
<g id="edge10" class="edge">
<title>Node0&#45;&gt;Node32</title>
<path fill="none" stroke="#191970" d="M303.9929,-336.4509C330.2421,-317.1094 389.9061,-273.1465 421.8751,-249.5904"/>
<polygon fill="#191970" stroke="#191970" points="424.1325,-252.2746 430.1069,-243.5249 419.9801,-246.6392 424.1325,-252.2746"/>
</g>
<!-- Node37 -->
<g id="node17" class="node">
<title>Node37</title>
<g id="a_node17"><a xlink:href="../../dc/deb/ctml_8h.html" target="_top" xlink:title="CTML (&quot;Cantera Markup Language&quot;) is the variant of XML that Cantera uses to store data...">
<polygon fill="#ffffff" stroke="#000000" points="239.0335,-224.5 239.0335,-243.5 343.0335,-243.5 343.0335,-224.5 239.0335,-224.5"/>
<text text-anchor="middle" x="291.0335" y="-231.5" font-family="Helvetica,sans-Serif" font-size="10.00" fill="#000000">cantera/base/ctml.h</text>
</a>
</g>
</g>
<!-- Node0&#45;&gt;Node37 -->
<g id="edge22" class="edge">
<title>Node0&#45;&gt;Node37</title>
<path fill="none" stroke="#191970" d="M291.0335,-336.4509C291.0335,-318.184 291.0335,-277.9553 291.0335,-253.6976"/>
<polygon fill="#191970" stroke="#191970" points="294.5336,-253.5249 291.0335,-243.5249 287.5336,-253.5249 294.5336,-253.5249"/>
</g>
<!-- Node2 -->
<g id="node3" class="node">
<title>Node2</title>
<g id="a_node3"><a xlink:href="../../de/d38/SingleSpeciesTP_8h.html" target="_top" xlink:title="Header for the SingleSpeciesTP class, which is a filter class for ThermoPhase, that eases the constru...">
<polygon fill="#ffffff" stroke="#000000" points="119.5335,-224.5 119.5335,-243.5 220.5335,-243.5 220.5335,-224.5 119.5335,-224.5"/>
<text text-anchor="middle" x="170.0335" y="-231.5" font-family="Helvetica,sans-Serif" font-size="10.00" fill="#000000">SingleSpeciesTP.h</text>
</a>
</g>
</g>
<!-- Node1&#45;&gt;Node2 -->
<g id="edge2" class="edge">
<title>Node1&#45;&gt;Node2</title>
<path fill="none" stroke="#191970" d="M173.3367,-280.2455C172.8148,-272.9382 172.0831,-262.6944 171.441,-253.7046"/>
<polygon fill="#191970" stroke="#191970" points="174.9259,-253.3679 170.7223,-243.6427 167.9437,-253.8667 174.9259,-253.3679"/>
</g>
<!-- Node3 -->
<g id="node4" class="node">
<title>Node3</title>
<g id="a_node4"><a xlink:href="../../d7/d01/ThermoPhase_8h.html" target="_top" xlink:title="Header file for class ThermoPhase, the base class for phases with thermodynamic properties, and the text for the Module thermoprops (see Thermodynamic Properties and class ThermoPhase). ">
<polygon fill="#ffffff" stroke="#000000" points="130.0335,-168.5 130.0335,-187.5 218.0335,-187.5 218.0335,-168.5 130.0335,-168.5"/>
<text text-anchor="middle" x="174.0335" y="-175.5" font-family="Helvetica,sans-Serif" font-size="10.00" fill="#000000">ThermoPhase.h</text>
</a>
</g>
</g>
<!-- Node2&#45;&gt;Node3 -->
<g id="edge3" class="edge">
<title>Node2&#45;&gt;Node3</title>
<path fill="none" stroke="#191970" d="M170.7302,-224.2455C171.2522,-216.9382 171.9839,-206.6944 172.626,-197.7046"/>
<polygon fill="#191970" stroke="#191970" points="176.1233,-197.8667 173.3447,-187.6427 169.1411,-197.3679 176.1233,-197.8667"/>
</g>
<!-- Node4 -->
<g id="node5" class="node">
<title>Node4</title>
<g id="a_node5"><a xlink:href="../../da/d84/Phase_8h.html" target="_top" xlink:title="Header file for class Phase. ">
<polygon fill="#ffffff" stroke="#ff0000" points="147.5335,-112.5 147.5335,-131.5 200.5335,-131.5 200.5335,-112.5 147.5335,-112.5"/>
<text text-anchor="middle" x="174.0335" y="-119.5" font-family="Helvetica,sans-Serif" font-size="10.00" fill="#000000">Phase.h</text>
</a>
</g>
</g>
<!-- Node3&#45;&gt;Node4 -->
<g id="edge4" class="edge">
<title>Node3&#45;&gt;Node4</title>
<path fill="none" stroke="#191970" d="M174.0335,-168.2455C174.0335,-160.9382 174.0335,-150.6944 174.0335,-141.7046"/>
<polygon fill="#191970" stroke="#191970" points="177.5336,-141.6426 174.0335,-131.6427 170.5336,-141.6427 177.5336,-141.6426"/>
</g>
<!-- Node29 -->
<g id="node7" class="node">
<title>Node29</title>
<g id="a_node7"><a xlink:href="../../d6/d7a/MultiSpeciesThermo_8h.html" target="_top" xlink:title="Header for a general species thermodynamic property manager for a phase (see MultiSpeciesThermo). ">
<polygon fill="#ffffff" stroke="#ff0000" points="13.0335,-112.5 13.0335,-131.5 129.0335,-131.5 129.0335,-112.5 13.0335,-112.5"/>
<text text-anchor="middle" x="71.0335" y="-119.5" font-family="Helvetica,sans-Serif" font-size="10.00" fill="#000000">MultiSpeciesThermo.h</text>
</a>
</g>
</g>
<!-- Node3&#45;&gt;Node29 -->
<g id="edge6" class="edge">
<title>Node3&#45;&gt;Node29</title>
<path fill="none" stroke="#191970" d="M156.0923,-168.2455C139.9935,-159.4928 116.1456,-146.527 97.7944,-136.5496"/>
<polygon fill="#191970" stroke="#191970" points="99.2264,-133.3444 88.7691,-131.6427 95.8828,-139.4942 99.2264,-133.3444"/>
</g>
<!-- Node22 -->
<g id="node8" class="node">
<title>Node22</title>
<g id="a_node8"><a xlink:href="../../d2/d49/global_8h.html" target="_top" xlink:title="This file contains definitions for utility functions and text for modules, inputfiles, logs, textlogs, (see Input File Handling, Diagnostic Output, and Writing messages to the screen). ">
<polygon fill="#ffffff" stroke="#ff0000" points="219.0335,-112.5 219.0335,-131.5 331.0335,-131.5 331.0335,-112.5 219.0335,-112.5"/>
<text text-anchor="middle" x="275.0335" y="-119.5" font-family="Helvetica,sans-Serif" font-size="10.00" fill="#000000">cantera/base/global.h</text>
</a>
</g>
</g>
<!-- Node3&#45;&gt;Node22 -->
<g id="edge7" class="edge">
<title>Node3&#45;&gt;Node22</title>
<path fill="none" stroke="#191970" d="M191.6263,-168.2455C207.4125,-159.4928 230.7974,-146.527 248.7922,-136.5496"/>
<polygon fill="#191970" stroke="#191970" points="250.5938,-139.5528 257.6422,-131.6427 247.1994,-133.4308 250.5938,-139.5528"/>
</g>
<!-- Node5 -->
<g id="node6" class="node">
<title>Node5</title>
<g id="a_node6"><a xlink:href="../../db/d98/ctexceptions_8h.html" target="_top" xlink:title="Definitions for the classes that are thrown when Cantera experiences an error condition (also contain...">
<polygon fill="#ffffff" stroke="#ff0000" points="304.5335,-56.5 304.5335,-75.5 445.5335,-75.5 445.5335,-56.5 304.5335,-56.5"/>
<text text-anchor="middle" x="375.0335" y="-63.5" font-family="Helvetica,sans-Serif" font-size="10.00" fill="#000000">cantera/base/ctexceptions.h</text>
</a>
</g>
</g>
<!-- Node4&#45;&gt;Node5 -->
<g id="edge5" class="edge">
<title>Node4&#45;&gt;Node5</title>
<path fill="none" stroke="#191970" d="M200.7247,-114.5636C233.9995,-105.2931 291.3324,-89.3197 331.1168,-78.2355"/>
<polygon fill="#191970" stroke="#191970" points="332.1343,-81.5854 340.8281,-75.5299 330.2556,-74.8422 332.1343,-81.5854"/>
</g>
<!-- Node7 -->
<g id="node9" class="node">
<title>Node7</title>
<g id="a_node9"><a xlink:href="../../d9/ddc/ct__defs_8h.html" target="_top" xlink:title="This file contains definitions of terms that are used in internal routines and are unlikely to need m...">
<polygon fill="#ffffff" stroke="#ff0000" points="229.5335,-56.5 229.5335,-75.5 286.5335,-75.5 286.5335,-56.5 229.5335,-56.5"/>
<text text-anchor="middle" x="258.0335" y="-63.5" font-family="Helvetica,sans-Serif" font-size="10.00" fill="#000000">ct_defs.h</text>
</a>
</g>
</g>
<!-- Node22&#45;&gt;Node7 -->
<g id="edge8" class="edge">
<title>Node22&#45;&gt;Node7</title>
<path fill="none" stroke="#191970" d="M272.0723,-112.2455C269.8296,-104.8579 266.6758,-94.4689 263.9254,-85.4087"/>
<polygon fill="#191970" stroke="#191970" points="267.2147,-84.1948 260.9607,-75.6427 260.5165,-86.2282 267.2147,-84.1948"/>
</g>
<!-- Node11 -->
<g id="node10" class="node">
<title>Node11</title>
<polygon fill="#ffffff" stroke="#bfbfbf" points="455.0335,-.5 455.0335,-19.5 499.0335,-19.5 499.0335,-.5 455.0335,-.5"/>
<text text-anchor="middle" x="477.0335" y="-7.5" font-family="Helvetica,sans-Serif" font-size="10.00" fill="#000000">vector</text>
</g>
<!-- Node7&#45;&gt;Node11 -->
<g id="edge9" class="edge">
<title>Node7&#45;&gt;Node11</title>
<path fill="none" stroke="#191970" d="M286.6606,-58.4389C289.8222,-57.6121 292.9954,-56.7858 296.0335,-56 348.1727,-42.5144 408.8519,-27.163 445.0386,-18.0445"/>
<polygon fill="#191970" stroke="#191970" points="446.1645,-21.3703 455.007,-15.5341 444.455,-14.5822 446.1645,-21.3703"/>
</g>
<!-- Node32&#45;&gt;Node3 -->
<g id="edge11" class="edge">
<title>Node32&#45;&gt;Node3</title>
<path fill="none" stroke="#191970" d="M397.0964,-224.4369C350.3478,-214.7048 277.9034,-199.6235 228.3416,-189.3058"/>
<polygon fill="#191970" stroke="#191970" points="228.9433,-185.8561 218.4398,-187.2444 227.5166,-192.7091 228.9433,-185.8561"/>
</g>
<!-- Node33 -->
<g id="node12" class="node">
<title>Node33</title>
<g id="a_node12"><a xlink:href="../../d0/d62/xml_8h.html" target="_top" xlink:title="Classes providing support for XML data files. ">
<polygon fill="#ffffff" stroke="#000000" points="262.5335,-168.5 262.5335,-187.5 363.5335,-187.5 363.5335,-168.5 262.5335,-168.5"/>
<text text-anchor="middle" x="313.0335" y="-175.5" font-family="Helvetica,sans-Serif" font-size="10.00" fill="#000000">cantera/base/xml.h</text>
</a>
</g>
</g>
<!-- Node32&#45;&gt;Node33 -->
<g id="edge12" class="edge">
<title>Node32&#45;&gt;Node33</title>
<path fill="none" stroke="#191970" d="M420.6857,-224.3733C399.6302,-215.3032 367.8839,-201.6279 344.316,-191.4755"/>
<polygon fill="#191970" stroke="#191970" points="345.6585,-188.243 335.0897,-187.5011 342.8891,-194.6719 345.6585,-188.243"/>
</g>
<!-- Node34 -->
<g id="node13" class="node">
<title>Node34</title>
<g id="a_node13"><a xlink:href="../../d6/dd5/FactoryBase_8h.html" target="_top" xlink:title="File contains the FactoryBase class declarations. ">
<polygon fill="#ffffff" stroke="#000000" points="404.0335,-168.5 404.0335,-187.5 546.0335,-187.5 546.0335,-168.5 404.0335,-168.5"/>
<text text-anchor="middle" x="475.0335" y="-175.5" font-family="Helvetica,sans-Serif" font-size="10.00" fill="#000000">cantera/base/FactoryBase.h</text>
</a>
</g>
</g>
<!-- Node32&#45;&gt;Node34 -->
<g id="edge15" class="edge">
<title>Node32&#45;&gt;Node34</title>
<path fill="none" stroke="#191970" d="M448.6075,-224.2455C452.9666,-216.617 459.1546,-205.7881 464.4468,-196.5267"/>
<polygon fill="#191970" stroke="#191970" points="467.6008,-198.0616 469.5234,-187.6427 461.5231,-194.5886 467.6008,-198.0616"/>
</g>
<!-- Node33&#45;&gt;Node5 -->
<g id="edge13" class="edge">
<title>Node33&#45;&gt;Node5</title>
<path fill="none" stroke="#191970" d="M318.951,-168.2004C324.5059,-158.9357 332.9916,-144.6133 340.0335,-132 348.7998,-116.2979 358.3375,-98.2434 365.2394,-84.9912"/>
<polygon fill="#191970" stroke="#191970" points="368.4512,-86.4004 369.947,-75.9117 362.2368,-83.1783 368.4512,-86.4004"/>
</g>
<!-- Node33&#45;&gt;Node22 -->
<g id="edge14" class="edge">
<title>Node33&#45;&gt;Node22</title>
<path fill="none" stroke="#191970" d="M306.4144,-168.2455C301.1289,-160.4564 293.5794,-149.3308 287.2097,-139.9439"/>
<polygon fill="#191970" stroke="#191970" points="290.088,-137.9522 281.5767,-131.6427 284.2956,-141.8827 290.088,-137.9522"/>
</g>
<!-- Node34&#45;&gt;Node5 -->
<g id="edge20" class="edge">
<title>Node34&#45;&gt;Node5</title>
<path fill="none" stroke="#191970" d="M474.5161,-168.4606C473.3134,-154.6393 469.3161,-128.8587 456.0335,-112 444.8444,-97.7985 427.9803,-87.228 412.5317,-79.8256"/>
<polygon fill="#191970" stroke="#191970" points="413.7157,-76.5207 403.1591,-75.6217 410.851,-82.9077 413.7157,-76.5207"/>
</g>
<!-- Node34&#45;&gt;Node22 -->
<g id="edge21" class="edge">
<title>Node34&#45;&gt;Node22</title>
<path fill="none" stroke="#191970" d="M440.6523,-168.3733C406.9634,-158.9404 355.4853,-144.5265 318.8717,-134.2747"/>
<polygon fill="#191970" stroke="#191970" points="319.5394,-130.8271 308.9661,-131.5011 317.652,-137.5679 319.5394,-130.8271"/>
</g>
<!-- Node34&#45;&gt;Node11 -->
<g id="edge16" class="edge">
<title>Node34&#45;&gt;Node11</title>
<path fill="none" stroke="#191970" d="M546.5306,-169.5706C593.0231,-162.4498 647.5961,-150.4193 662.0335,-132 708.7971,-72.339 573.9894,-32.2459 509.4032,-16.9408"/>
<polygon fill="#191970" stroke="#191970" points="509.8434,-13.4507 499.3129,-14.6161 508.2718,-20.272 509.8434,-13.4507"/>
</g>
<!-- Node35 -->
<g id="node14" class="node">
<title>Node35</title>
<polygon fill="#ffffff" stroke="#bfbfbf" points="503.0335,-112.5 503.0335,-131.5 547.0335,-131.5 547.0335,-112.5 503.0335,-112.5"/>
<text text-anchor="middle" x="525.0335" y="-119.5" font-family="Helvetica,sans-Serif" font-size="10.00" fill="#000000">mutex</text>
</g>
<!-- Node34&#45;&gt;Node35 -->
<g id="edge17" class="edge">
<title>Node34&#45;&gt;Node35</title>
<path fill="none" stroke="#191970" d="M483.7428,-168.2455C490.8408,-160.2958 501.0419,-148.8706 509.5285,-139.3656"/>
<polygon fill="#191970" stroke="#191970" points="512.3746,-141.4331 516.424,-131.6427 507.153,-136.771 512.3746,-141.4331"/>
</g>
<!-- Node23 -->
<g id="node15" class="node">
<title>Node23</title>
<polygon fill="#ffffff" stroke="#bfbfbf" points="565.5335,-112.5 565.5335,-131.5 652.5335,-131.5 652.5335,-112.5 565.5335,-112.5"/>
<text text-anchor="middle" x="609.0335" y="-119.5" font-family="Helvetica,sans-Serif" font-size="10.00" fill="#000000">unordered_map</text>
</g>
<!-- Node34&#45;&gt;Node23 -->
<g id="edge18" class="edge">
<title>Node34&#45;&gt;Node23</title>
<path fill="none" stroke="#191970" d="M498.0689,-168.3733C519.7723,-159.3032 552.4953,-145.6279 576.7884,-135.4755"/>
<polygon fill="#191970" stroke="#191970" points="578.4216,-138.5865 586.2987,-131.5011 575.7224,-132.1278 578.4216,-138.5865"/>
</g>
<!-- Node36 -->
<g id="node16" class="node">
<title>Node36</title>
<polygon fill="#ffffff" stroke="#bfbfbf" points="387.5335,-112.5 387.5335,-131.5 446.5335,-131.5 446.5335,-112.5 387.5335,-112.5"/>
<text text-anchor="middle" x="417.0335" y="-119.5" font-family="Helvetica,sans-Serif" font-size="10.00" fill="#000000">functional</text>
</g>
<!-- Node34&#45;&gt;Node36 -->
<g id="edge19" class="edge">
<title>Node34&#45;&gt;Node36</title>
<path fill="none" stroke="#191970" d="M464.9307,-168.2455C456.5307,-160.1352 444.3841,-148.4075 434.4251,-138.7919"/>
<polygon fill="#191970" stroke="#191970" points="436.6457,-136.0707 427.0205,-131.6427 431.7835,-141.1066 436.6457,-136.0707"/>
</g>
<!-- Node37&#45;&gt;Node7 -->
<g id="edge23" class="edge">
<title>Node37&#45;&gt;Node7</title>
<path fill="none" stroke="#191970" d="M243.6718,-224.495C169.1248,-208.4118 30.1771,-173.4971 4.0335,-132 -.7047,-124.4792 -1.6644,-118.8225 4.0335,-112 30.9732,-79.7432 154.7795,-70.0606 219.053,-67.1889"/>
<polygon fill="#191970" stroke="#191970" points="219.3597,-70.6793 229.2069,-66.7699 219.071,-63.6853 219.3597,-70.6793"/>
</g>
<!-- Node37&#45;&gt;Node33 -->
<g id="edge24" class="edge">
<title>Node37&#45;&gt;Node33</title>
<path fill="none" stroke="#191970" d="M294.8656,-224.2455C297.7994,-216.7776 301.9382,-206.2427 305.5245,-197.1137"/>
<polygon fill="#191970" stroke="#191970" points="308.8463,-198.23 309.2453,-187.6427 302.3311,-195.6704 308.8463,-198.23"/>
</g>
</g>
</svg>
