<?xml version="1.0" encoding="UTF-8" standalone="no"?>
<!DOCTYPE svg PUBLIC "-//W3C//DTD SVG 1.1//EN"
 "http://www.w3.org/Graphics/SVG/1.1/DTD/svg11.dtd">
<!-- Generated by graphviz version 2.40.1 (20161225.0304)
 -->
<!-- Title: GasKinetics.h Pages: 1 -->
<svg width="1175pt" height="319pt"
 viewBox="0.00 0.00 1174.50 319.00" xmlns="http://www.w3.org/2000/svg" xmlns:xlink="http://www.w3.org/1999/xlink">
<g id="graph0" class="graph" transform="scale(1 1) rotate(0) translate(4 315)">
<title>GasKinetics.h</title>
<polygon fill="#ffffff" stroke="transparent" points="-4,4 -4,-315 1170.5,-315 1170.5,4 -4,4"/>
<!-- Node0 -->
<g id="node1" class="node">
<title>Node0</title>
<polygon fill="#bfbfbf" stroke="#000000" points="587,-291.5 587,-310.5 665,-310.5 665,-291.5 587,-291.5"/>
<text text-anchor="middle" x="626" y="-298.5" font-family="Helvetica,sans-Serif" font-size="10.00" fill="#000000">GasKinetics.h</text>
</g>
<!-- Node1 -->
<g id="node2" class="node">
<title>Node1</title>
<g id="a_node2"><a xlink:href="../../d2/d78/BulkKinetics_8h.html" target="_top" xlink:title="BulkKinetics.h">
<polygon fill="#ffffff" stroke="#000000" points="396.5,-235.5 396.5,-254.5 475.5,-254.5 475.5,-235.5 396.5,-235.5"/>
<text text-anchor="middle" x="436" y="-242.5" font-family="Helvetica,sans-Serif" font-size="10.00" fill="#000000">BulkKinetics.h</text>
</a>
</g>
</g>
<!-- Node0&#45;&gt;Node1 -->
<g id="edge1" class="edge">
<title>Node0&#45;&gt;Node1</title>
<path fill="none" stroke="#191970" d="M593.3378,-291.3733C561.4702,-281.9807 512.8469,-267.6496 478.093,-257.4064"/>
<polygon fill="#191970" stroke="#191970" points="478.8175,-253.9711 468.236,-254.5011 476.8385,-260.6855 478.8175,-253.9711"/>
</g>
<!-- Node34 -->
<g id="node11" class="node">
<title>Node34</title>
<g id="a_node11"><a xlink:href="../../d8/d5d/Reaction_8h.html" target="_top" xlink:title="cantera/kinetics/Reaction.h">
<polygon fill="#ffffff" stroke="#000000" points="497.5,-123.5 497.5,-142.5 634.5,-142.5 634.5,-123.5 497.5,-123.5"/>
<text text-anchor="middle" x="566" y="-130.5" font-family="Helvetica,sans-Serif" font-size="10.00" fill="#000000">cantera/kinetics/Reaction.h</text>
</a>
</g>
</g>
<!-- Node0&#45;&gt;Node34 -->
<g id="edge38" class="edge">
<title>Node0&#45;&gt;Node34</title>
<path fill="none" stroke="#191970" d="M622.309,-291.1453C618.836,-281.8416 613.5098,-267.4928 609,-255 595.9071,-218.7304 581.0335,-176.2311 572.6578,-152.1751"/>
<polygon fill="#191970" stroke="#191970" points="575.8868,-150.8044 569.2965,-142.5088 569.2751,-153.1036 575.8868,-150.8044"/>
</g>
<!-- Node43 -->
<g id="node17" class="node">
<title>Node43</title>
<g id="a_node17"><a xlink:href="../../d9/d77/ThirdBodyCalc_8h.html" target="_top" xlink:title="ThirdBodyCalc.h">
<polygon fill="#ffffff" stroke="#000000" points="618,-235.5 618,-254.5 708,-254.5 708,-235.5 618,-235.5"/>
<text text-anchor="middle" x="663" y="-242.5" font-family="Helvetica,sans-Serif" font-size="10.00" fill="#000000">ThirdBodyCalc.h</text>
</a>
</g>
</g>
<!-- Node0&#45;&gt;Node43 -->
<g id="edge23" class="edge">
<title>Node0&#45;&gt;Node43</title>
<path fill="none" stroke="#191970" d="M632.4449,-291.2455C637.5382,-283.5367 644.7908,-272.5598 650.952,-263.2348"/>
<polygon fill="#191970" stroke="#191970" points="654.0365,-264.9155 656.6289,-254.6427 648.1962,-261.0566 654.0365,-264.9155"/>
</g>
<!-- Node45 -->
<g id="node19" class="node">
<title>Node45</title>
<g id="a_node19"><a xlink:href="../../dc/d02/FalloffMgr_8h.html" target="_top" xlink:title="FalloffMgr.h">
<polygon fill="#ffffff" stroke="#000000" points="799.5,-179.5 799.5,-198.5 868.5,-198.5 868.5,-179.5 799.5,-179.5"/>
<text text-anchor="middle" x="834" y="-186.5" font-family="Helvetica,sans-Serif" font-size="10.00" fill="#000000">FalloffMgr.h</text>
</a>
</g>
</g>
<!-- Node0&#45;&gt;Node45 -->
<g id="edge26" class="edge">
<title>Node0&#45;&gt;Node45</title>
<path fill="none" stroke="#191970" d="M645.6593,-291.385C664.1805,-282.2508 692.6444,-268.0166 717,-255 748.958,-237.9203 785.2223,-217.2608 808.7934,-203.6585"/>
<polygon fill="#191970" stroke="#191970" points="810.5659,-206.6766 817.4693,-198.6396 807.0607,-200.6174 810.5659,-206.6766"/>
</g>
<!-- Node2 -->
<g id="node3" class="node">
<title>Node2</title>
<g id="a_node3"><a xlink:href="../../d5/db4/Kinetics_8h.html" target="_top" xlink:title="Base class for kinetics managers and also contains the kineticsmgr module documentation (see Kinetics...">
<polygon fill="#ffffff" stroke="#000000" points="334,-179.5 334,-198.5 394,-198.5 394,-179.5 334,-179.5"/>
<text text-anchor="middle" x="364" y="-186.5" font-family="Helvetica,sans-Serif" font-size="10.00" fill="#000000">Kinetics.h</text>
</a>
</g>
</g>
<!-- Node1&#45;&gt;Node2 -->
<g id="edge2" class="edge">
<title>Node1&#45;&gt;Node2</title>
<path fill="none" stroke="#191970" d="M423.4586,-235.2455C412.7213,-226.8943 397.0527,-214.7076 384.4953,-204.9408"/>
<polygon fill="#191970" stroke="#191970" points="386.4401,-202.0194 376.3977,-198.6427 382.1425,-207.5449 386.4401,-202.0194"/>
</g>
<!-- Node42 -->
<g id="node16" class="node">
<title>Node42</title>
<g id="a_node16"><a xlink:href="../../d4/d81/RateCoeffMgr_8h.html" target="_top" xlink:title="RateCoeffMgr.h">
<polygon fill="#ffffff" stroke="#000000" points="392.5,-123.5 392.5,-142.5 479.5,-142.5 479.5,-123.5 392.5,-123.5"/>
<text text-anchor="middle" x="436" y="-130.5" font-family="Helvetica,sans-Serif" font-size="10.00" fill="#000000">RateCoeffMgr.h</text>
</a>
</g>
</g>
<!-- Node1&#45;&gt;Node42 -->
<g id="edge21" class="edge">
<title>Node1&#45;&gt;Node42</title>
<path fill="none" stroke="#191970" d="M436,-235.4509C436,-217.184 436,-176.9553 436,-152.6976"/>
<polygon fill="#191970" stroke="#191970" points="439.5001,-152.5249 436,-142.5249 432.5001,-152.5249 439.5001,-152.5249"/>
</g>
<!-- Node3 -->
<g id="node4" class="node">
<title>Node3</title>
<g id="a_node4"><a xlink:href="../../d7/d01/ThermoPhase_8h.html" target="_top" xlink:title="Header file for class ThermoPhase, the base class for phases with thermodynamic properties, and the text for the Module thermoprops (see Thermodynamic Properties and class ThermoPhase). ">
<polygon fill="#ffffff" stroke="#000000" points="178,-123.5 178,-142.5 336,-142.5 336,-123.5 178,-123.5"/>
<text text-anchor="middle" x="257" y="-130.5" font-family="Helvetica,sans-Serif" font-size="10.00" fill="#000000">cantera/thermo/ThermoPhase.h</text>
</a>
</g>
</g>
<!-- Node2&#45;&gt;Node3 -->
<g id="edge3" class="edge">
<title>Node2&#45;&gt;Node3</title>
<path fill="none" stroke="#191970" d="M345.362,-179.2455C328.5614,-170.4527 303.6366,-157.4079 284.5382,-147.4125"/>
<polygon fill="#191970" stroke="#191970" points="285.9073,-144.1787 275.4244,-142.6427 282.6614,-150.3807 285.9073,-144.1787"/>
</g>
<!-- Node22 -->
<g id="node8" class="node">
<title>Node22</title>
<g id="a_node8"><a xlink:href="../../d2/d49/global_8h.html" target="_top" xlink:title="This file contains definitions for utility functions and text for modules, inputfiles, logs, textlogs, (see Input File Handling, Diagnostic Output, and Writing messages to the screen). ">
<polygon fill="#ffffff" stroke="#ff0000" points="554,-6 554,-25 666,-25 666,-6 554,-6"/>
<text text-anchor="middle" x="610" y="-13" font-family="Helvetica,sans-Serif" font-size="10.00" fill="#000000">cantera/base/global.h</text>
</a>
</g>
</g>
<!-- Node2&#45;&gt;Node22 -->
<g id="edge20" class="edge">
<title>Node2&#45;&gt;Node22</title>
<path fill="none" stroke="#191970" d="M362.3299,-179.2213C359.0183,-156.285 354.3008,-98.5862 384,-67 405.5635,-44.0664 485.1772,-29.9294 543.8352,-22.4025"/>
<polygon fill="#191970" stroke="#191970" points="544.2993,-25.8719 553.7898,-21.1622 543.4337,-18.9256 544.2993,-25.8719"/>
</g>
<!-- Node32 -->
<g id="node9" class="node">
<title>Node32</title>
<g id="a_node9"><a xlink:href="../../dd/dfd/StoichManager_8h.html" target="_top" xlink:title="StoichManager.h">
<polygon fill="#ffffff" stroke="#000000" points="0,-67.5 0,-86.5 92,-86.5 92,-67.5 0,-67.5"/>
<text text-anchor="middle" x="46" y="-74.5" font-family="Helvetica,sans-Serif" font-size="10.00" fill="#000000">StoichManager.h</text>
</a>
</g>
</g>
<!-- Node2&#45;&gt;Node32 -->
<g id="edge8" class="edge">
<title>Node2&#45;&gt;Node32</title>
<path fill="none" stroke="#191970" d="M333.8812,-184.4073C294.9432,-177.9067 225.4364,-164.3765 169,-143 132.7872,-129.2836 93.8604,-106.9768 69.716,-92.1472"/>
<polygon fill="#191970" stroke="#191970" points="71.2627,-88.9874 60.9234,-86.6745 67.5637,-94.9302 71.2627,-88.9874"/>
</g>
<!-- Node2&#45;&gt;Node34 -->
<g id="edge11" class="edge">
<title>Node2&#45;&gt;Node34</title>
<path fill="none" stroke="#191970" d="M394.2414,-180.6162C427.9863,-171.2612 482.9086,-156.0352 521.5441,-145.3244"/>
<polygon fill="#191970" stroke="#191970" points="522.7833,-148.613 531.4848,-142.5686 520.9132,-141.8674 522.7833,-148.613"/>
</g>
<!-- Node4 -->
<g id="node5" class="node">
<title>Node4</title>
<g id="a_node5"><a xlink:href="../../da/d84/Phase_8h.html" target="_top" xlink:title="Header file for class Phase. ">
<polygon fill="#ffffff" stroke="#ff0000" points="244.5,-67.5 244.5,-86.5 297.5,-86.5 297.5,-67.5 244.5,-67.5"/>
<text text-anchor="middle" x="271" y="-74.5" font-family="Helvetica,sans-Serif" font-size="10.00" fill="#000000">Phase.h</text>
</a>
</g>
</g>
<!-- Node3&#45;&gt;Node4 -->
<g id="edge4" class="edge">
<title>Node3&#45;&gt;Node4</title>
<path fill="none" stroke="#191970" d="M259.4386,-123.2455C261.2855,-115.8579 263.8828,-105.4689 266.1478,-96.4087"/>
<polygon fill="#191970" stroke="#191970" points="269.5594,-97.193 268.5893,-86.6427 262.7684,-95.4952 269.5594,-97.193"/>
</g>
<!-- Node29 -->
<g id="node7" class="node">
<title>Node29</title>
<g id="a_node7"><a xlink:href="../../d6/d7a/MultiSpeciesThermo_8h.html" target="_top" xlink:title="Header for a general species thermodynamic property manager for a phase (see MultiSpeciesThermo). ">
<polygon fill="#ffffff" stroke="#ff0000" points="110,-67.5 110,-86.5 226,-86.5 226,-67.5 110,-67.5"/>
<text text-anchor="middle" x="168" y="-74.5" font-family="Helvetica,sans-Serif" font-size="10.00" fill="#000000">MultiSpeciesThermo.h</text>
</a>
</g>
</g>
<!-- Node3&#45;&gt;Node29 -->
<g id="edge6" class="edge">
<title>Node3&#45;&gt;Node29</title>
<path fill="none" stroke="#191970" d="M241.4974,-123.2455C227.842,-114.6534 207.7343,-102.0014 192.0011,-92.1018"/>
<polygon fill="#191970" stroke="#191970" points="193.6529,-89.006 183.325,-86.6427 189.9249,-94.9307 193.6529,-89.006"/>
</g>
<!-- Node3&#45;&gt;Node22 -->
<g id="edge7" class="edge">
<title>Node3&#45;&gt;Node22</title>
<path fill="none" stroke="#191970" d="M267.2552,-123.4541C283.4965,-108.8938 316.7193,-81.3214 350,-67 412.6413,-40.0442 489.8893,-27.0388 543.8395,-20.8657"/>
<polygon fill="#191970" stroke="#191970" points="544.4111,-24.3241 553.9702,-19.7554 543.6484,-17.3658 544.4111,-24.3241"/>
</g>
<!-- Node5 -->
<g id="node6" class="node">
<title>Node5</title>
<g id="a_node6"><a xlink:href="../../db/d98/ctexceptions_8h.html" target="_top" xlink:title="Definitions for the classes that are thrown when Cantera experiences an error condition (also contain...">
<polygon fill="#ffffff" stroke="#ff0000" points="296.5,-6 296.5,-25 437.5,-25 437.5,-6 296.5,-6"/>
<text text-anchor="middle" x="367" y="-13" font-family="Helvetica,sans-Serif" font-size="10.00" fill="#000000">cantera/base/ctexceptions.h</text>
</a>
</g>
</g>
<!-- Node4&#45;&gt;Node5 -->
<g id="edge5" class="edge">
<title>Node4&#45;&gt;Node5</title>
<path fill="none" stroke="#191970" d="M286,-67.3906C301.3581,-57.5519 325.4521,-42.1167 343.3745,-30.6351"/>
<polygon fill="#191970" stroke="#191970" points="345.573,-33.3833 352.1053,-25.0419 341.797,-27.4891 345.573,-33.3833"/>
</g>
<!-- Node32&#45;&gt;Node5 -->
<g id="edge10" class="edge">
<title>Node32&#45;&gt;Node5</title>
<path fill="none" stroke="#191970" d="M92.3333,-68.1231C148.9921,-57.2679 245.0062,-38.8726 307.1909,-26.9588"/>
<polygon fill="#191970" stroke="#191970" points="308.0864,-30.3509 317.2492,-25.0317 306.7692,-23.476 308.0864,-30.3509"/>
</g>
<!-- Node33 -->
<g id="node10" class="node">
<title>Node33</title>
<g id="a_node10"><a xlink:href="../../dd/dc3/stringUtils_8h.html" target="_top" xlink:title="Contains declarations for string manipulation functions within Cantera. ">
<polygon fill="#ffffff" stroke="#ff0000" points="113.5,-6 113.5,-25 242.5,-25 242.5,-6 113.5,-6"/>
<text text-anchor="middle" x="178" y="-13" font-family="Helvetica,sans-Serif" font-size="10.00" fill="#000000">cantera/base/stringUtils.h</text>
</a>
</g>
</g>
<!-- Node32&#45;&gt;Node33 -->
<g id="edge9" class="edge">
<title>Node32&#45;&gt;Node33</title>
<path fill="none" stroke="#191970" d="M66.625,-67.3906C88.5173,-57.1908 123.3193,-40.9763 148.1927,-29.3875"/>
<polygon fill="#191970" stroke="#191970" points="149.9335,-32.4377 157.5198,-25.0419 146.9772,-26.0926 149.9335,-32.4377"/>
</g>
<!-- Node35 -->
<g id="node12" class="node">
<title>Node35</title>
<g id="a_node12"><a xlink:href="../../de/df0/utilities_8h.html" target="_top" xlink:title="Various templated functions that carry out common vector operations (see Templated Utility Functions)...">
<polygon fill="#ffffff" stroke="#ff0000" points="552,-67.5 552,-86.5 668,-86.5 668,-67.5 552,-67.5"/>
<text text-anchor="middle" x="610" y="-74.5" font-family="Helvetica,sans-Serif" font-size="10.00" fill="#000000">cantera/base/utilities.h</text>
</a>
</g>
</g>
<!-- Node34&#45;&gt;Node35 -->
<g id="edge12" class="edge">
<title>Node34&#45;&gt;Node35</title>
<path fill="none" stroke="#191970" d="M573.6642,-123.2455C579.8473,-115.3761 588.7063,-104.101 596.1289,-94.6542"/>
<polygon fill="#191970" stroke="#191970" points="598.9975,-96.6683 602.4236,-86.6427 593.4932,-92.3435 598.9975,-96.6683"/>
</g>
<!-- Node38 -->
<g id="node13" class="node">
<title>Node38</title>
<g id="a_node13"><a xlink:href="../../da/d70/RxnRates_8h.html" target="_top" xlink:title="cantera/kinetics/RxnRates.h">
<polygon fill="#ffffff" stroke="#ff0000" points="392.5,-67.5 392.5,-86.5 533.5,-86.5 533.5,-67.5 392.5,-67.5"/>
<text text-anchor="middle" x="463" y="-74.5" font-family="Helvetica,sans-Serif" font-size="10.00" fill="#000000">cantera/kinetics/RxnRates.h</text>
</a>
</g>
</g>
<!-- Node34&#45;&gt;Node38 -->
<g id="edge14" class="edge">
<title>Node34&#45;&gt;Node38</title>
<path fill="none" stroke="#191970" d="M548.0588,-123.2455C531.96,-114.4928 508.1121,-101.527 489.7609,-91.5496"/>
<polygon fill="#191970" stroke="#191970" points="491.1929,-88.3444 480.7356,-86.6427 487.8493,-94.4942 491.1929,-88.3444"/>
</g>
<!-- Node41 -->
<g id="node15" class="node">
<title>Node41</title>
<g id="a_node15"><a xlink:href="../../de/d72/Falloff_8h_source.html" target="_top" xlink:title="cantera/kinetics/Falloff.h">
<polygon fill="#ffffff" stroke="#000000" points="724,-67.5 724,-86.5 848,-86.5 848,-67.5 724,-67.5"/>
<text text-anchor="middle" x="786" y="-74.5" font-family="Helvetica,sans-Serif" font-size="10.00" fill="#000000">cantera/kinetics/Falloff.h</text>
</a>
</g>
</g>
<!-- Node34&#45;&gt;Node41 -->
<g id="edge18" class="edge">
<title>Node34&#45;&gt;Node41</title>
<path fill="none" stroke="#191970" d="M603.8193,-123.3733C641.1938,-113.8598 698.4724,-99.2797 738.8071,-89.0127"/>
<polygon fill="#191970" stroke="#191970" points="739.8466,-92.3598 748.6742,-86.5011 738.1198,-85.5761 739.8466,-92.3598"/>
</g>
<!-- Node35&#45;&gt;Node22 -->
<g id="edge13" class="edge">
<title>Node35&#45;&gt;Node22</title>
<path fill="none" stroke="#191970" d="M610,-67.3906C610,-58.8657 610,-46.1392 610,-35.4235"/>
<polygon fill="#191970" stroke="#191970" points="613.5001,-35.2448 610,-25.2449 606.5001,-35.2449 613.5001,-35.2448"/>
</g>
<!-- Node38&#45;&gt;Node5 -->
<g id="edge16" class="edge">
<title>Node38&#45;&gt;Node5</title>
<path fill="none" stroke="#191970" d="M448,-67.3906C432.6419,-57.5519 408.5479,-42.1167 390.6255,-30.6351"/>
<polygon fill="#191970" stroke="#191970" points="392.203,-27.4891 381.8947,-25.0419 388.427,-33.3833 392.203,-27.4891"/>
</g>
<!-- Node38&#45;&gt;Node33 -->
<g id="edge17" class="edge">
<title>Node38&#45;&gt;Node33</title>
<path fill="none" stroke="#191970" d="M418.7815,-67.4581C368.5473,-56.6181 286.5427,-38.9224 232.4228,-27.2439"/>
<polygon fill="#191970" stroke="#191970" points="232.8356,-23.7524 222.3223,-25.0643 231.359,-30.595 232.8356,-23.7524"/>
</g>
<!-- Node39 -->
<g id="node14" class="node">
<title>Node39</title>
<g id="a_node14"><a xlink:href="../../df/de6/reaction__defs_8h.html" target="_top" xlink:title="This file defines some constants used to specify reaction types. ">
<polygon fill="#ffffff" stroke="#ff0000" points="724,-.5 724,-30.5 848,-30.5 848,-.5 724,-.5"/>
<text text-anchor="start" x="732" y="-18.5" font-family="Helvetica,sans-Serif" font-size="10.00" fill="#000000">cantera/kinetics/reaction</text>
<text text-anchor="middle" x="786" y="-7.5" font-family="Helvetica,sans-Serif" font-size="10.00" fill="#000000">_defs.h</text>
</a>
</g>
</g>
<!-- Node38&#45;&gt;Node39 -->
<g id="edge15" class="edge">
<title>Node38&#45;&gt;Node39</title>
<path fill="none" stroke="#191970" d="M513.1144,-67.4581C566.911,-57.2151 652.8575,-40.8507 713.9109,-29.2259"/>
<polygon fill="#191970" stroke="#191970" points="714.6973,-32.6392 723.8661,-27.3304 713.3879,-25.7627 714.6973,-32.6392"/>
</g>
<!-- Node41&#45;&gt;Node39 -->
<g id="edge19" class="edge">
<title>Node41&#45;&gt;Node39</title>
<path fill="none" stroke="#191970" d="M786,-67.3906C786,-60.2234 786,-50.0862 786,-40.671"/>
<polygon fill="#191970" stroke="#191970" points="789.5001,-40.5446 786,-30.5446 782.5001,-40.5446 789.5001,-40.5446"/>
</g>
<!-- Node42&#45;&gt;Node38 -->
<g id="edge22" class="edge">
<title>Node42&#45;&gt;Node38</title>
<path fill="none" stroke="#191970" d="M440.703,-123.2455C444.3424,-115.6973 449.4924,-105.0158 453.9262,-95.8197"/>
<polygon fill="#191970" stroke="#191970" points="457.1605,-97.1704 458.3509,-86.6427 450.8551,-94.1303 457.1605,-97.1704"/>
</g>
<!-- Node43&#45;&gt;Node35 -->
<g id="edge24" class="edge">
<title>Node43&#45;&gt;Node35</title>
<path fill="none" stroke="#191970" d="M663.0379,-235.4032C662.7996,-214.2496 660.4347,-162.3644 644,-123 639.6837,-112.6617 632.569,-102.5021 625.9605,-94.3714"/>
<polygon fill="#191970" stroke="#191970" points="628.5601,-92.0262 619.3954,-86.7103 623.2448,-96.5811 628.5601,-92.0262"/>
</g>
<!-- Node44 -->
<g id="node18" class="node">
<title>Node44</title>
<polygon fill="#ffffff" stroke="#bfbfbf" points="691.5,-179.5 691.5,-198.5 740.5,-198.5 740.5,-179.5 691.5,-179.5"/>
<text text-anchor="middle" x="716" y="-186.5" font-family="Helvetica,sans-Serif" font-size="10.00" fill="#000000">cassert</text>
</g>
<!-- Node43&#45;&gt;Node44 -->
<g id="edge25" class="edge">
<title>Node43&#45;&gt;Node44</title>
<path fill="none" stroke="#191970" d="M672.2319,-235.2455C679.8317,-227.2155 690.7877,-215.6394 699.8368,-206.0781"/>
<polygon fill="#191970" stroke="#191970" points="702.5421,-208.3115 706.8739,-198.6427 697.458,-203.4998 702.5421,-208.3115"/>
</g>
<!-- Node45&#45;&gt;Node22 -->
<g id="edge37" class="edge">
<title>Node45&#45;&gt;Node22</title>
<path fill="none" stroke="#191970" d="M821.8027,-179.4867C795.4228,-158.9195 731.079,-108.7952 677,-67 661.5736,-55.0776 644.1086,-41.6555 630.8784,-31.5034"/>
<polygon fill="#191970" stroke="#191970" points="632.9246,-28.6619 622.8598,-25.3528 628.6643,-34.2162 632.9246,-28.6619"/>
</g>
<!-- Node45&#45;&gt;Node39 -->
<g id="edge27" class="edge">
<title>Node45&#45;&gt;Node39</title>
<path fill="none" stroke="#191970" d="M839.8113,-179.2314C851.7799,-157.7352 876.4874,-105.2093 857,-67 850.4864,-54.2286 839.1608,-43.8854 827.4436,-35.9119"/>
<polygon fill="#191970" stroke="#191970" points="829.2304,-32.9009 818.9056,-30.5239 825.4946,-38.8206 829.2304,-32.9009"/>
</g>
<!-- Node46 -->
<g id="node20" class="node">
<title>Node46</title>
<g id="a_node20"><a xlink:href="../../d1/dbb/FalloffFactory_8h.html" target="_top" xlink:title="Parameterizations for reaction falloff functions. ">
<polygon fill="#ffffff" stroke="#000000" points="904.5,-123.5 904.5,-142.5 989.5,-142.5 989.5,-123.5 904.5,-123.5"/>
<text text-anchor="middle" x="947" y="-130.5" font-family="Helvetica,sans-Serif" font-size="10.00" fill="#000000">FalloffFactory.h</text>
</a>
</g>
</g>
<!-- Node45&#45;&gt;Node46 -->
<g id="edge28" class="edge">
<title>Node45&#45;&gt;Node46</title>
<path fill="none" stroke="#191970" d="M853.4254,-179.3733C871.4021,-170.4644 898.3441,-157.1127 918.709,-147.0203"/>
<polygon fill="#191970" stroke="#191970" points="920.4222,-150.0776 927.8281,-142.5011 917.3139,-143.8055 920.4222,-150.0776"/>
</g>
<!-- Node46&#45;&gt;Node41 -->
<g id="edge36" class="edge">
<title>Node46&#45;&gt;Node41</title>
<path fill="none" stroke="#191970" d="M919.3231,-123.3733C892.6672,-114.1016 852.1762,-100.0178 822.8116,-89.804"/>
<polygon fill="#191970" stroke="#191970" points="823.9105,-86.4807 813.3157,-86.5011 821.6109,-93.0921 823.9105,-86.4807"/>
</g>
<!-- Node47 -->
<g id="node21" class="node">
<title>Node47</title>
<g id="a_node21"><a xlink:href="../../d6/dd5/FactoryBase_8h.html" target="_top" xlink:title="File contains the FactoryBase class declarations. ">
<polygon fill="#ffffff" stroke="#000000" points="904,-67.5 904,-86.5 1046,-86.5 1046,-67.5 904,-67.5"/>
<text text-anchor="middle" x="975" y="-74.5" font-family="Helvetica,sans-Serif" font-size="10.00" fill="#000000">cantera/base/FactoryBase.h</text>
</a>
</g>
</g>
<!-- Node46&#45;&gt;Node47 -->
<g id="edge29" class="edge">
<title>Node46&#45;&gt;Node47</title>
<path fill="none" stroke="#191970" d="M951.8772,-123.2455C955.6513,-115.6973 960.9921,-105.0158 965.5901,-95.8197"/>
<polygon fill="#191970" stroke="#191970" points="968.837,-97.1522 970.1787,-86.6427 962.576,-94.0217 968.837,-97.1522"/>
</g>
<!-- Node47&#45;&gt;Node5 -->
<g id="edge34" class="edge">
<title>Node47&#45;&gt;Node5</title>
<path fill="none" stroke="#191970" d="M903.766,-69.7946C789.9614,-58.2831 567.7989,-35.8111 448.0741,-23.7008"/>
<polygon fill="#191970" stroke="#191970" points="448.1735,-20.193 437.872,-22.6688 447.469,-27.1575 448.1735,-20.193"/>
</g>
<!-- Node47&#45;&gt;Node22 -->
<g id="edge35" class="edge">
<title>Node47&#45;&gt;Node22</title>
<path fill="none" stroke="#191970" d="M918.3692,-67.4581C852.9071,-56.4282 745.3184,-38.3002 676.0897,-26.6357"/>
<polygon fill="#191970" stroke="#191970" points="676.6061,-23.1734 666.1636,-24.9632 675.443,-30.0761 676.6061,-23.1734"/>
</g>
<!-- Node11 -->
<g id="node22" class="node">
<title>Node11</title>
<polygon fill="#ffffff" stroke="#bfbfbf" points="878,-6 878,-25 922,-25 922,-6 878,-6"/>
<text text-anchor="middle" x="900" y="-13" font-family="Helvetica,sans-Serif" font-size="10.00" fill="#000000">vector</text>
</g>
<!-- Node47&#45;&gt;Node11 -->
<g id="edge30" class="edge">
<title>Node47&#45;&gt;Node11</title>
<path fill="none" stroke="#191970" d="M963.2813,-67.3906C951.6812,-57.8786 933.7021,-43.1357 919.8679,-31.7917"/>
<polygon fill="#191970" stroke="#191970" points="921.836,-28.8792 911.884,-25.2449 917.3974,-34.2921 921.836,-28.8792"/>
</g>
<!-- Node48 -->
<g id="node23" class="node">
<title>Node48</title>
<polygon fill="#ffffff" stroke="#bfbfbf" points="940,-6 940,-25 984,-25 984,-6 940,-6"/>
<text text-anchor="middle" x="962" y="-13" font-family="Helvetica,sans-Serif" font-size="10.00" fill="#000000">mutex</text>
</g>
<!-- Node47&#45;&gt;Node48 -->
<g id="edge31" class="edge">
<title>Node47&#45;&gt;Node48</title>
<path fill="none" stroke="#191970" d="M972.9688,-67.3906C971.1478,-58.776 968.4198,-45.8708 966.1401,-35.0858"/>
<polygon fill="#191970" stroke="#191970" points="969.5524,-34.3048 964.0599,-25.2449 962.7038,-35.7525 969.5524,-34.3048"/>
</g>
<!-- Node23 -->
<g id="node24" class="node">
<title>Node23</title>
<polygon fill="#ffffff" stroke="#bfbfbf" points="1002.5,-6 1002.5,-25 1089.5,-25 1089.5,-6 1002.5,-6"/>
<text text-anchor="middle" x="1046" y="-13" font-family="Helvetica,sans-Serif" font-size="10.00" fill="#000000">unordered_map</text>
</g>
<!-- Node47&#45;&gt;Node23 -->
<g id="edge32" class="edge">
<title>Node47&#45;&gt;Node23</title>
<path fill="none" stroke="#191970" d="M986.0938,-67.3906C996.9715,-57.9683 1013.7748,-43.4134 1026.82,-32.1137"/>
<polygon fill="#191970" stroke="#191970" points="1029.4827,-34.4377 1034.7498,-25.2449 1024.8996,-29.1466 1029.4827,-34.4377"/>
</g>
<!-- Node49 -->
<g id="node25" class="node">
<title>Node49</title>
<polygon fill="#ffffff" stroke="#bfbfbf" points="1107.5,-6 1107.5,-25 1166.5,-25 1166.5,-6 1107.5,-6"/>
<text text-anchor="middle" x="1137" y="-13" font-family="Helvetica,sans-Serif" font-size="10.00" fill="#000000">functional</text>
</g>
<!-- Node47&#45;&gt;Node49 -->
<g id="edge33" class="edge">
<title>Node47&#45;&gt;Node49</title>
<path fill="none" stroke="#191970" d="M1001.7009,-67.3752C1026.8765,-58.234 1065.6207,-43.9951 1099,-31 1100.6433,-30.3602 1102.324,-29.6993 1104.0196,-29.0273"/>
<polygon fill="#191970" stroke="#191970" points="1105.7592,-32.1005 1113.7355,-25.1271 1103.1515,-25.6043 1105.7592,-32.1005"/>
</g>
</g>
</svg>
