<?xml version="1.0" encoding="UTF-8" standalone="no"?>
<!DOCTYPE svg PUBLIC "-//W3C//DTD SVG 1.1//EN"
 "http://www.w3.org/Graphics/SVG/1.1/DTD/svg11.dtd">
<!-- Generated by graphviz version 2.43.0 (0)
 -->
<!-- Title: IonFlow.h Pages: 1 -->
<svg width="1164pt" height="476pt"
 viewBox="0.00 0.00 1164.00 476.00" xmlns="http://www.w3.org/2000/svg" xmlns:xlink="http://www.w3.org/1999/xlink">
<g id="graph0" class="graph" transform="scale(1 1) rotate(0) translate(4 472)">
<title>IonFlow.h</title>
<polygon fill="white" stroke="transparent" points="-4,4 -4,-472 1160,-472 1160,4 -4,4"/>
<!-- Node1 -->
<g id="node1" class="node">
<title>Node1</title>
<g id="a_node1"><a xlink:title=" ">
<polygon fill="#bfbfbf" stroke="black" points="739,-448.5 739,-467.5 802,-467.5 802,-448.5 739,-448.5"/>
<text text-anchor="middle" x="770.5" y="-455.5" font-family="Helvetica,sans-Serif" font-size="10.00">IonFlow.h</text>
</a>
</g>
</g>
<!-- Node2 -->
<g id="node2" class="node">
<title>Node2</title>
<g id="a_node2"><a xlink:href="../../d7/d7c/StFlow_8h.html" target="_top" xlink:title=" ">
<polygon fill="white" stroke="black" points="707.5,-392.5 707.5,-411.5 833.5,-411.5 833.5,-392.5 707.5,-392.5"/>
<text text-anchor="middle" x="770.5" y="-399.5" font-family="Helvetica,sans-Serif" font-size="10.00">cantera/oneD/StFlow.h</text>
</a>
</g>
</g>
<!-- Node1&#45;&gt;Node2 -->
<g id="edge1" class="edge">
<title>Node1&#45;&gt;Node2</title>
<path fill="none" stroke="midnightblue" d="M770.5,-448.08C770.5,-441.01 770.5,-430.86 770.5,-421.99"/>
<polygon fill="midnightblue" stroke="midnightblue" points="774,-421.75 770.5,-411.75 767,-421.75 774,-421.75"/>
</g>
<!-- Node3 -->
<g id="node3" class="node">
<title>Node3</title>
<g id="a_node3"><a xlink:href="../../db/dce/Domain1D_8h.html" target="_top" xlink:title=" ">
<polygon fill="white" stroke="black" points="1079,-224.5 1079,-243.5 1156,-243.5 1156,-224.5 1079,-224.5"/>
<text text-anchor="middle" x="1117.5" y="-231.5" font-family="Helvetica,sans-Serif" font-size="10.00">Domain1D.h</text>
</a>
</g>
</g>
<!-- Node2&#45;&gt;Node3 -->
<g id="edge2" class="edge">
<title>Node2&#45;&gt;Node3</title>
<path fill="none" stroke="midnightblue" d="M821.77,-392.46C856.83,-385.46 903.79,-373.77 942.5,-356 1005.13,-327.24 1069.43,-276.13 1099.69,-250.52"/>
<polygon fill="midnightblue" stroke="midnightblue" points="1102.3,-252.89 1107.62,-243.73 1097.75,-247.58 1102.3,-252.89"/>
</g>
<!-- Node21 -->
<g id="node12" class="node">
<title>Node21</title>
<g id="a_node12"><a xlink:href="../../df/dd0/Array_8h.html" target="_top" xlink:title="Header file for class Cantera::Array2D.">
<polygon fill="white" stroke="black" points="78.5,-280.5 78.5,-299.5 194.5,-299.5 194.5,-280.5 78.5,-280.5"/>
<text text-anchor="middle" x="136.5" y="-287.5" font-family="Helvetica,sans-Serif" font-size="10.00">cantera/base/Array.h</text>
</a>
</g>
</g>
<!-- Node2&#45;&gt;Node21 -->
<g id="edge17" class="edge">
<title>Node2&#45;&gt;Node21</title>
<path fill="none" stroke="midnightblue" d="M721.28,-392.46C606.25,-372.5 320.15,-322.86 195.79,-301.29"/>
<polygon fill="midnightblue" stroke="midnightblue" points="196.14,-297.8 185.69,-299.53 194.94,-304.69 196.14,-297.8"/>
</g>
<!-- Node27 -->
<g id="node18" class="node">
<title>Node27</title>
<g id="a_node18"><a xlink:href="../../de/dbd/IdealGasPhase_8h.html" target="_top" xlink:title="ThermoPhase object for the ideal gas equation of state &#45; workhorse for Cantera (see Thermodynamic Pro...">
<polygon fill="white" stroke="black" points="593.5,-336.5 593.5,-355.5 769.5,-355.5 769.5,-336.5 593.5,-336.5"/>
<text text-anchor="middle" x="681.5" y="-343.5" font-family="Helvetica,sans-Serif" font-size="10.00">cantera/thermo/IdealGasPhase.h</text>
</a>
</g>
</g>
<!-- Node2&#45;&gt;Node27 -->
<g id="edge25" class="edge">
<title>Node2&#45;&gt;Node27</title>
<path fill="none" stroke="midnightblue" d="M756.2,-392.32C742.32,-383.9 721.01,-370.97 704.7,-361.07"/>
<polygon fill="midnightblue" stroke="midnightblue" points="706.13,-357.85 695.76,-355.65 702.5,-363.83 706.13,-357.85"/>
</g>
<!-- Node45 -->
<g id="node22" class="node">
<title>Node45</title>
<g id="a_node22"><a xlink:href="../../d5/db4/Kinetics_8h.html" target="_top" xlink:title="Base class for kinetics managers and also contains the kineticsmgr module documentation (see Kinetics...">
<polygon fill="white" stroke="black" points="787.5,-336.5 787.5,-355.5 933.5,-355.5 933.5,-336.5 787.5,-336.5"/>
<text text-anchor="middle" x="860.5" y="-343.5" font-family="Helvetica,sans-Serif" font-size="10.00">cantera/kinetics/Kinetics.h</text>
</a>
</g>
</g>
<!-- Node2&#45;&gt;Node45 -->
<g id="edge31" class="edge">
<title>Node2&#45;&gt;Node45</title>
<path fill="none" stroke="midnightblue" d="M784.96,-392.32C799,-383.9 820.55,-370.97 837.04,-361.07"/>
<polygon fill="midnightblue" stroke="midnightblue" points="839.3,-363.8 846.08,-355.65 835.7,-357.8 839.3,-363.8"/>
</g>
<!-- Node4 -->
<g id="node4" class="node">
<title>Node4</title>
<g id="a_node4"><a xlink:href="../../dd/dc3/stringUtils_8h.html" target="_top" xlink:title="Contains declarations for string manipulation functions within Cantera.">
<polygon fill="white" stroke="black" points="844.5,-168.5 844.5,-187.5 986.5,-187.5 986.5,-168.5 844.5,-168.5"/>
<text text-anchor="middle" x="915.5" y="-175.5" font-family="Helvetica,sans-Serif" font-size="10.00">cantera/base/stringUtils.h</text>
</a>
</g>
</g>
<!-- Node3&#45;&gt;Node4 -->
<g id="edge3" class="edge">
<title>Node3&#45;&gt;Node4</title>
<path fill="none" stroke="midnightblue" d="M1085.49,-224.44C1050.77,-215.16 995.21,-200.31 957.12,-190.13"/>
<polygon fill="midnightblue" stroke="midnightblue" points="957.92,-186.72 947.36,-187.52 956.11,-193.48 957.92,-186.72"/>
</g>
<!-- Node17 -->
<g id="node8" class="node">
<title>Node17</title>
<g id="a_node8"><a xlink:href="../../db/d98/ctexceptions_8h.html" target="_top" xlink:title="Definitions for the classes that are thrown when Cantera experiences an error condition (also contain...">
<polygon fill="white" stroke="black" points="658.5,-168.5 658.5,-187.5 812.5,-187.5 812.5,-168.5 658.5,-168.5"/>
<text text-anchor="middle" x="735.5" y="-175.5" font-family="Helvetica,sans-Serif" font-size="10.00">cantera/base/ctexceptions.h</text>
</a>
</g>
</g>
<!-- Node3&#45;&gt;Node17 -->
<g id="edge9" class="edge">
<title>Node3&#45;&gt;Node17</title>
<path fill="none" stroke="midnightblue" d="M1078.76,-225.56C1075.63,-225.01 1072.51,-224.49 1069.5,-224 983.51,-210.16 884.59,-197.2 816.85,-188.77"/>
<polygon fill="midnightblue" stroke="midnightblue" points="817.03,-185.27 806.68,-187.51 816.17,-192.22 817.03,-185.27"/>
</g>
<!-- Node19 -->
<g id="node10" class="node">
<title>Node19</title>
<g id="a_node10"><a xlink:href="../../d2/d49/global_8h.html" target="_top" xlink:title="This file contains definitions for utility functions and text for modules, inputfiles,...">
<polygon fill="white" stroke="black" points="513.5,-168.5 513.5,-187.5 635.5,-187.5 635.5,-168.5 513.5,-168.5"/>
<text text-anchor="middle" x="574.5" y="-175.5" font-family="Helvetica,sans-Serif" font-size="10.00">cantera/base/global.h</text>
</a>
</g>
</g>
<!-- Node3&#45;&gt;Node19 -->
<g id="edge12" class="edge">
<title>Node3&#45;&gt;Node19</title>
<path fill="none" stroke="midnightblue" d="M1078.78,-225.4C1075.65,-224.89 1072.52,-224.41 1069.5,-224 883.86,-198.71 835.87,-207.16 649.5,-188 648.39,-187.89 647.27,-187.77 646.15,-187.65"/>
<polygon fill="midnightblue" stroke="midnightblue" points="646.2,-184.14 635.88,-186.54 645.44,-191.1 646.2,-184.14"/>
</g>
<!-- Node20 -->
<g id="node11" class="node">
<title>Node20</title>
<g id="a_node11"><a xlink:href="../../da/dbc/refine_8h_source.html" target="_top" xlink:title=" ">
<polygon fill="white" stroke="black" points="847,-112.5 847,-131.5 900,-131.5 900,-112.5 847,-112.5"/>
<text text-anchor="middle" x="873.5" y="-119.5" font-family="Helvetica,sans-Serif" font-size="10.00">refine.h</text>
</a>
</g>
</g>
<!-- Node3&#45;&gt;Node20 -->
<g id="edge15" class="edge">
<title>Node3&#45;&gt;Node20</title>
<path fill="none" stroke="midnightblue" d="M1102.8,-224.33C1080.2,-211.18 1035.36,-185.87 995.5,-168 967.26,-155.34 934.27,-143.33 909.72,-134.91"/>
<polygon fill="midnightblue" stroke="midnightblue" points="910.69,-131.54 900.09,-131.64 908.44,-138.17 910.69,-131.54"/>
</g>
<!-- Node5 -->
<g id="node5" class="node">
<title>Node5</title>
<g id="a_node5"><a xlink:href="../../d9/ddc/ct__defs_8h.html" target="_top" xlink:title="This file contains definitions of terms that are used in internal routines and are unlikely to need m...">
<polygon fill="white" stroke="red" points="622,-56.5 622,-75.5 683,-75.5 683,-56.5 622,-56.5"/>
<text text-anchor="middle" x="652.5" y="-63.5" font-family="Helvetica,sans-Serif" font-size="10.00">ct_defs.h</text>
</a>
</g>
</g>
<!-- Node4&#45;&gt;Node5 -->
<g id="edge4" class="edge">
<title>Node4&#45;&gt;Node5</title>
<path fill="none" stroke="midnightblue" d="M901.2,-168.48C874.94,-152.92 819.88,-120.71 799.5,-112 764.44,-97.02 722.74,-84.74 692.72,-76.82"/>
<polygon fill="midnightblue" stroke="midnightblue" points="693.57,-73.43 683.01,-74.3 691.81,-80.2 693.57,-73.43"/>
</g>
<!-- Node11 -->
<g id="node6" class="node">
<title>Node11</title>
<g id="a_node6"><a xlink:title=" ">
<polygon fill="white" stroke="#bfbfbf" points="630.5,-0.5 630.5,-19.5 674.5,-19.5 674.5,-0.5 630.5,-0.5"/>
<text text-anchor="middle" x="652.5" y="-7.5" font-family="Helvetica,sans-Serif" font-size="10.00">string</text>
</a>
</g>
</g>
<!-- Node4&#45;&gt;Node11 -->
<g id="edge8" class="edge">
<title>Node4&#45;&gt;Node11</title>
<path fill="none" stroke="midnightblue" d="M917.31,-168.42C919.64,-154.96 922.02,-128.67 909.5,-112 855,-39.44 740.58,-18.96 684.65,-13.22"/>
<polygon fill="midnightblue" stroke="midnightblue" points="684.88,-9.72 674.6,-12.28 684.23,-16.69 684.88,-9.72"/>
</g>
<!-- Node14 -->
<g id="node7" class="node">
<title>Node14</title>
<g id="a_node7"><a xlink:href="../../db/def/fmt_8h.html" target="_top" xlink:title="Wrapper for either system&#45;installed or local headers for fmt.">
<polygon fill="white" stroke="red" points="681,-112.5 681,-131.5 790,-131.5 790,-112.5 681,-112.5"/>
<text text-anchor="middle" x="735.5" y="-119.5" font-family="Helvetica,sans-Serif" font-size="10.00">cantera/base/fmt.h</text>
</a>
</g>
</g>
<!-- Node4&#45;&gt;Node14 -->
<g id="edge6" class="edge">
<title>Node4&#45;&gt;Node14</title>
<path fill="none" stroke="midnightblue" d="M886.98,-168.44C856.43,-159.28 807.79,-144.69 773.9,-134.52"/>
<polygon fill="midnightblue" stroke="midnightblue" points="774.47,-131.04 763.89,-131.52 772.46,-137.74 774.47,-131.04"/>
</g>
<!-- Node5&#45;&gt;Node11 -->
<g id="edge5" class="edge">
<title>Node5&#45;&gt;Node11</title>
<path fill="none" stroke="midnightblue" d="M652.5,-56.08C652.5,-49.01 652.5,-38.86 652.5,-29.99"/>
<polygon fill="midnightblue" stroke="midnightblue" points="656,-29.75 652.5,-19.75 649,-29.75 656,-29.75"/>
</g>
<!-- Node14&#45;&gt;Node5 -->
<g id="edge7" class="edge">
<title>Node14&#45;&gt;Node5</title>
<path fill="none" stroke="midnightblue" d="M722.16,-112.32C709.34,-103.98 689.72,-91.21 674.56,-81.35"/>
<polygon fill="midnightblue" stroke="midnightblue" points="676.09,-78.17 665.8,-75.65 672.28,-84.04 676.09,-78.17"/>
</g>
<!-- Node17&#45;&gt;Node14 -->
<g id="edge10" class="edge">
<title>Node17&#45;&gt;Node14</title>
<path fill="none" stroke="midnightblue" d="M735.5,-168.08C735.5,-161.01 735.5,-150.86 735.5,-141.99"/>
<polygon fill="midnightblue" stroke="midnightblue" points="739,-141.75 735.5,-131.75 732,-141.75 739,-141.75"/>
</g>
<!-- Node18 -->
<g id="node9" class="node">
<title>Node18</title>
<g id="a_node9"><a xlink:title=" ">
<polygon fill="white" stroke="#bfbfbf" points="598,-112.5 598,-131.5 663,-131.5 663,-112.5 598,-112.5"/>
<text text-anchor="middle" x="630.5" y="-119.5" font-family="Helvetica,sans-Serif" font-size="10.00">exception</text>
</a>
</g>
</g>
<!-- Node17&#45;&gt;Node18 -->
<g id="edge11" class="edge">
<title>Node17&#45;&gt;Node18</title>
<path fill="none" stroke="midnightblue" d="M718.63,-168.32C701.79,-159.66 675.69,-146.24 656.26,-136.25"/>
<polygon fill="midnightblue" stroke="midnightblue" points="657.82,-133.12 647.33,-131.65 654.62,-139.34 657.82,-133.12"/>
</g>
<!-- Node19&#45;&gt;Node5 -->
<g id="edge13" class="edge">
<title>Node19&#45;&gt;Node5</title>
<path fill="none" stroke="midnightblue" d="M574.6,-168.24C575.15,-154.99 577.8,-129.53 589.5,-112 598.33,-98.78 612.45,-88.17 625.09,-80.58"/>
<polygon fill="midnightblue" stroke="midnightblue" points="626.94,-83.55 633.93,-75.59 623.5,-77.45 626.94,-83.55"/>
</g>
<!-- Node19&#45;&gt;Node14 -->
<g id="edge14" class="edge">
<title>Node19&#45;&gt;Node14</title>
<path fill="none" stroke="midnightblue" d="M600.01,-168.44C627.1,-159.36 670.09,-144.94 700.37,-134.78"/>
<polygon fill="midnightblue" stroke="midnightblue" points="701.74,-138.01 710.11,-131.52 699.51,-131.38 701.74,-138.01"/>
</g>
<!-- Node20&#45;&gt;Node5 -->
<g id="edge16" class="edge">
<title>Node20&#45;&gt;Node5</title>
<path fill="none" stroke="midnightblue" d="M846.84,-114.49C808.61,-105.14 737.88,-87.86 693.11,-76.92"/>
<polygon fill="midnightblue" stroke="midnightblue" points="693.7,-73.46 683.15,-74.49 692.03,-80.26 693.7,-73.46"/>
</g>
<!-- Node22 -->
<g id="node13" class="node">
<title>Node22</title>
<g id="a_node13"><a xlink:href="../../de/df0/utilities_8h.html" target="_top" xlink:title="Various templated functions that carry out common vector operations (see Templated Utility Functions)...">
<polygon fill="white" stroke="black" points="75.5,-224.5 75.5,-243.5 137.5,-243.5 137.5,-224.5 75.5,-224.5"/>
<text text-anchor="middle" x="106.5" y="-231.5" font-family="Helvetica,sans-Serif" font-size="10.00">utilities.h</text>
</a>
</g>
</g>
<!-- Node21&#45;&gt;Node22 -->
<g id="edge18" class="edge">
<title>Node21&#45;&gt;Node22</title>
<path fill="none" stroke="midnightblue" d="M131.55,-280.08C127.4,-272.61 121.35,-261.72 116.23,-252.52"/>
<polygon fill="midnightblue" stroke="midnightblue" points="119.28,-250.79 111.36,-243.75 113.16,-254.19 119.28,-250.79"/>
</g>
<!-- Node25 -->
<g id="node16" class="node">
<title>Node25</title>
<g id="a_node16"><a xlink:title=" ">
<polygon fill="white" stroke="#bfbfbf" points="243.5,-168.5 243.5,-187.5 303.5,-187.5 303.5,-168.5 243.5,-168.5"/>
<text text-anchor="middle" x="273.5" y="-175.5" font-family="Helvetica,sans-Serif" font-size="10.00">iostream</text>
</a>
</g>
</g>
<!-- Node21&#45;&gt;Node25 -->
<g id="edge23" class="edge">
<title>Node21&#45;&gt;Node25</title>
<path fill="none" stroke="midnightblue" d="M141.08,-280.42C148.61,-266.95 164.78,-240.66 184.5,-224 200.91,-210.14 222.31,-199.15 240.01,-191.5"/>
<polygon fill="midnightblue" stroke="midnightblue" points="241.52,-194.66 249.41,-187.59 238.83,-188.2 241.52,-194.66"/>
</g>
<!-- Node26 -->
<g id="node17" class="node">
<title>Node26</title>
<g id="a_node17"><a xlink:title=" ">
<polygon fill="white" stroke="#bfbfbf" points="7.5,-224.5 7.5,-243.5 57.5,-243.5 57.5,-224.5 7.5,-224.5"/>
<text text-anchor="middle" x="32.5" y="-231.5" font-family="Helvetica,sans-Serif" font-size="10.00">cstring</text>
</a>
</g>
</g>
<!-- Node21&#45;&gt;Node26 -->
<g id="edge24" class="edge">
<title>Node21&#45;&gt;Node26</title>
<path fill="none" stroke="midnightblue" d="M119.79,-280.32C103.19,-271.7 77.5,-258.36 58.28,-248.39"/>
<polygon fill="midnightblue" stroke="midnightblue" points="59.66,-245.16 49.17,-243.65 56.43,-251.37 59.66,-245.16"/>
</g>
<!-- Node22&#45;&gt;Node5 -->
<g id="edge19" class="edge">
<title>Node22&#45;&gt;Node5</title>
<path fill="none" stroke="midnightblue" d="M120.59,-224.46C143.66,-210.8 191.24,-183.96 234.5,-168 368.63,-118.51 535.98,-86.55 611.8,-73.58"/>
<polygon fill="midnightblue" stroke="midnightblue" points="612.6,-76.99 621.88,-71.88 611.44,-70.09 612.6,-76.99"/>
</g>
<!-- Node22&#45;&gt;Node19 -->
<g id="edge20" class="edge">
<title>Node22&#45;&gt;Node19</title>
<path fill="none" stroke="midnightblue" d="M137.57,-229.42C211.56,-220.88 399.74,-199.16 503.37,-187.21"/>
<polygon fill="midnightblue" stroke="midnightblue" points="503.9,-190.67 513.43,-186.05 503.1,-183.72 503.9,-190.67"/>
</g>
<!-- Node23 -->
<g id="node14" class="node">
<title>Node23</title>
<g id="a_node14"><a xlink:title=" ">
<polygon fill="white" stroke="#bfbfbf" points="0,-168.5 0,-187.5 65,-187.5 65,-168.5 0,-168.5"/>
<text text-anchor="middle" x="32.5" y="-175.5" font-family="Helvetica,sans-Serif" font-size="10.00">stdexcept</text>
</a>
</g>
</g>
<!-- Node22&#45;&gt;Node23 -->
<g id="edge21" class="edge">
<title>Node22&#45;&gt;Node23</title>
<path fill="none" stroke="midnightblue" d="M94.61,-224.32C83.35,-216.11 66.21,-203.6 52.79,-193.81"/>
<polygon fill="midnightblue" stroke="midnightblue" points="54.75,-190.9 44.61,-187.83 50.62,-196.56 54.75,-190.9"/>
</g>
<!-- Node24 -->
<g id="node15" class="node">
<title>Node24</title>
<g id="a_node15"><a xlink:title=" ">
<polygon fill="white" stroke="#bfbfbf" points="83.5,-168.5 83.5,-187.5 139.5,-187.5 139.5,-168.5 83.5,-168.5"/>
<text text-anchor="middle" x="111.5" y="-175.5" font-family="Helvetica,sans-Serif" font-size="10.00">numeric</text>
</a>
</g>
</g>
<!-- Node22&#45;&gt;Node24 -->
<g id="edge22" class="edge">
<title>Node22&#45;&gt;Node24</title>
<path fill="none" stroke="midnightblue" d="M107.33,-224.08C107.98,-217.01 108.92,-206.86 109.74,-197.99"/>
<polygon fill="midnightblue" stroke="midnightblue" points="113.25,-198.03 110.69,-187.75 106.28,-197.39 113.25,-198.03"/>
</g>
<!-- Node28 -->
<g id="node19" class="node">
<title>Node28</title>
<g id="a_node19"><a xlink:href="../../d7/d01/ThermoPhase_8h.html" target="_top" xlink:title="Header file for class ThermoPhase, the base class for phases with thermodynamic properties,...">
<polygon fill="white" stroke="black" points="740.5,-280.5 740.5,-299.5 832.5,-299.5 832.5,-280.5 740.5,-280.5"/>
<text text-anchor="middle" x="786.5" y="-287.5" font-family="Helvetica,sans-Serif" font-size="10.00">ThermoPhase.h</text>
</a>
</g>
</g>
<!-- Node27&#45;&gt;Node28 -->
<g id="edge26" class="edge">
<title>Node27&#45;&gt;Node28</title>
<path fill="none" stroke="midnightblue" d="M698.37,-336.32C715.21,-327.66 741.31,-314.24 760.74,-304.25"/>
<polygon fill="midnightblue" stroke="midnightblue" points="762.38,-307.34 769.67,-299.65 759.18,-301.12 762.38,-307.34"/>
</g>
<!-- Node28&#45;&gt;Node19 -->
<g id="edge30" class="edge">
<title>Node28&#45;&gt;Node19</title>
<path fill="none" stroke="midnightblue" d="M793.01,-280.4C802.39,-266.9 817.13,-240.57 803.5,-224 793.36,-211.67 708.95,-197.47 645.53,-188.38"/>
<polygon fill="midnightblue" stroke="midnightblue" points="645.94,-184.9 635.55,-186.96 644.96,-191.83 645.94,-184.9"/>
</g>
<!-- Node29 -->
<g id="node20" class="node">
<title>Node29</title>
<g id="a_node20"><a xlink:href="../../da/d84/Phase_8h.html" target="_top" xlink:title="Header file for class Phase.">
<polygon fill="white" stroke="red" points="889,-224.5 889,-243.5 944,-243.5 944,-224.5 889,-224.5"/>
<text text-anchor="middle" x="916.5" y="-231.5" font-family="Helvetica,sans-Serif" font-size="10.00">Phase.h</text>
</a>
</g>
</g>
<!-- Node28&#45;&gt;Node29 -->
<g id="edge27" class="edge">
<title>Node28&#45;&gt;Node29</title>
<path fill="none" stroke="midnightblue" d="M807.1,-280.44C828.49,-271.56 862.18,-257.56 886.52,-247.45"/>
<polygon fill="midnightblue" stroke="midnightblue" points="888.11,-250.58 896,-243.52 885.42,-244.12 888.11,-250.58"/>
</g>
<!-- Node42 -->
<g id="node21" class="node">
<title>Node42</title>
<g id="a_node21"><a xlink:href="../../d6/d7a/MultiSpeciesThermo_8h.html" target="_top" xlink:title="Header for a general species thermodynamic property manager for a phase (see MultiSpeciesThermo).">
<polygon fill="white" stroke="red" points="669,-224.5 669,-243.5 794,-243.5 794,-224.5 669,-224.5"/>
<text text-anchor="middle" x="731.5" y="-231.5" font-family="Helvetica,sans-Serif" font-size="10.00">MultiSpeciesThermo.h</text>
</a>
</g>
</g>
<!-- Node28&#45;&gt;Node42 -->
<g id="edge29" class="edge">
<title>Node28&#45;&gt;Node42</title>
<path fill="none" stroke="midnightblue" d="M777.42,-280.08C769.33,-272.14 757.3,-260.34 747.59,-250.8"/>
<polygon fill="midnightblue" stroke="midnightblue" points="750,-248.26 740.41,-243.75 745.1,-253.25 750,-248.26"/>
</g>
<!-- Node29&#45;&gt;Node17 -->
<g id="edge28" class="edge">
<title>Node29&#45;&gt;Node17</title>
<path fill="none" stroke="midnightblue" d="M888.62,-224.68C857.84,-215.5 808.11,-200.66 773.72,-190.4"/>
<polygon fill="midnightblue" stroke="midnightblue" points="774.6,-187.01 764.01,-187.51 772.6,-193.72 774.6,-187.01"/>
</g>
<!-- Node45&#45;&gt;Node19 -->
<g id="edge50" class="edge">
<title>Node45&#45;&gt;Node19</title>
<path fill="none" stroke="midnightblue" d="M860.45,-336.28C859.82,-313.7 854.77,-253.05 819.5,-224 806.11,-212.97 713.19,-198.08 645.74,-188.51"/>
<polygon fill="midnightblue" stroke="midnightblue" points="645.96,-185 635.57,-187.08 644.99,-191.93 645.96,-185"/>
</g>
<!-- Node45&#45;&gt;Node28 -->
<g id="edge32" class="edge">
<title>Node45&#45;&gt;Node28</title>
<path fill="none" stroke="midnightblue" d="M848.61,-336.32C837.35,-328.11 820.21,-315.6 806.79,-305.81"/>
<polygon fill="midnightblue" stroke="midnightblue" points="808.75,-302.9 798.61,-299.83 804.62,-308.56 808.75,-302.9"/>
</g>
<!-- Node46 -->
<g id="node23" class="node">
<title>Node46</title>
<g id="a_node23"><a xlink:href="../../dd/dfd/StoichManager_8h.html" target="_top" xlink:title=" ">
<polygon fill="white" stroke="black" points="962.5,-224.5 962.5,-243.5 1060.5,-243.5 1060.5,-224.5 962.5,-224.5"/>
<text text-anchor="middle" x="1011.5" y="-231.5" font-family="Helvetica,sans-Serif" font-size="10.00">StoichManager.h</text>
</a>
</g>
</g>
<!-- Node45&#45;&gt;Node46 -->
<g id="edge33" class="edge">
<title>Node45&#45;&gt;Node46</title>
<path fill="none" stroke="midnightblue" d="M872.35,-336.37C898.15,-317.57 959.65,-272.77 991.55,-249.53"/>
<polygon fill="midnightblue" stroke="midnightblue" points="993.68,-252.31 999.71,-243.59 989.56,-246.65 993.68,-252.31"/>
</g>
<!-- Node47 -->
<g id="node24" class="node">
<title>Node47</title>
<g id="a_node24"><a xlink:href="../../d8/d5d/Reaction_8h.html" target="_top" xlink:title=" ">
<polygon fill="white" stroke="black" points="337,-280.5 337,-299.5 486,-299.5 486,-280.5 337,-280.5"/>
<text text-anchor="middle" x="411.5" y="-287.5" font-family="Helvetica,sans-Serif" font-size="10.00">cantera/kinetics/Reaction.h</text>
</a>
</g>
</g>
<!-- Node45&#45;&gt;Node47 -->
<g id="edge36" class="edge">
<title>Node45&#45;&gt;Node47</title>
<path fill="none" stroke="midnightblue" d="M789.35,-336.44C708.56,-326.73 577.02,-310.91 492.39,-300.73"/>
<polygon fill="midnightblue" stroke="midnightblue" points="492.66,-297.24 482.31,-299.52 491.82,-304.19 492.66,-297.24"/>
</g>
<!-- Node46&#45;&gt;Node4 -->
<g id="edge34" class="edge">
<title>Node46&#45;&gt;Node4</title>
<path fill="none" stroke="midnightblue" d="M996.08,-224.32C980.96,-215.82 957.68,-202.73 940.03,-192.8"/>
<polygon fill="midnightblue" stroke="midnightblue" points="941.32,-189.51 930.89,-187.65 937.89,-195.61 941.32,-189.51"/>
</g>
<!-- Node46&#45;&gt;Node17 -->
<g id="edge35" class="edge">
<title>Node46&#45;&gt;Node17</title>
<path fill="none" stroke="midnightblue" d="M967.77,-224.44C919.32,-214.96 841.17,-199.67 789.08,-189.48"/>
<polygon fill="midnightblue" stroke="midnightblue" points="789.51,-186 779.03,-187.52 788.17,-192.87 789.51,-186"/>
</g>
<!-- Node47&#45;&gt;Node22 -->
<g id="edge37" class="edge">
<title>Node47&#45;&gt;Node22</title>
<path fill="none" stroke="midnightblue" d="M363.17,-280.44C303.71,-269.92 203.79,-252.23 147.77,-242.31"/>
<polygon fill="midnightblue" stroke="midnightblue" points="148.3,-238.85 137.84,-240.55 147.08,-245.74 148.3,-238.85"/>
</g>
<!-- Node33 -->
<g id="node25" class="node">
<title>Node33</title>
<g id="a_node25"><a xlink:href="../../dd/d2a/AnyMap_8h.html" target="_top" xlink:title=" ">
<polygon fill="white" stroke="red" points="194,-224.5 194,-243.5 325,-243.5 325,-224.5 194,-224.5"/>
<text text-anchor="middle" x="259.5" y="-231.5" font-family="Helvetica,sans-Serif" font-size="10.00">cantera/base/AnyMap.h</text>
</a>
</g>
</g>
<!-- Node47&#45;&gt;Node33 -->
<g id="edge38" class="edge">
<title>Node47&#45;&gt;Node33</title>
<path fill="none" stroke="midnightblue" d="M387.42,-280.44C361.96,-271.4 321.61,-257.06 293.04,-246.92"/>
<polygon fill="midnightblue" stroke="midnightblue" points="294.07,-243.57 283.47,-243.52 291.72,-250.16 294.07,-243.57"/>
</g>
<!-- Node48 -->
<g id="node26" class="node">
<title>Node48</title>
<g id="a_node26"><a xlink:href="../../da/d70/RxnRates_8h.html" target="_top" xlink:title=" ">
<polygon fill="white" stroke="red" points="498,-224.5 498,-243.5 651,-243.5 651,-224.5 498,-224.5"/>
<text text-anchor="middle" x="574.5" y="-231.5" font-family="Helvetica,sans-Serif" font-size="10.00">cantera/kinetics/RxnRates.h</text>
</a>
</g>
</g>
<!-- Node47&#45;&gt;Node48 -->
<g id="edge43" class="edge">
<title>Node47&#45;&gt;Node48</title>
<path fill="none" stroke="midnightblue" d="M437.33,-280.44C464.75,-271.36 508.28,-256.94 538.93,-246.78"/>
<polygon fill="midnightblue" stroke="midnightblue" points="540.4,-249.98 548.79,-243.52 538.2,-243.34 540.4,-249.98"/>
</g>
<!-- Node50 -->
<g id="node27" class="node">
<title>Node50</title>
<g id="a_node27"><a xlink:href="../../de/d72/Falloff_8h_source.html" target="_top" xlink:title=" ">
<polygon fill="white" stroke="red" points="343.5,-224.5 343.5,-243.5 479.5,-243.5 479.5,-224.5 343.5,-224.5"/>
<text text-anchor="middle" x="411.5" y="-231.5" font-family="Helvetica,sans-Serif" font-size="10.00">cantera/kinetics/Falloff.h</text>
</a>
</g>
</g>
<!-- Node47&#45;&gt;Node50 -->
<g id="edge48" class="edge">
<title>Node47&#45;&gt;Node50</title>
<path fill="none" stroke="midnightblue" d="M411.5,-280.08C411.5,-273.01 411.5,-262.86 411.5,-253.99"/>
<polygon fill="midnightblue" stroke="midnightblue" points="415,-253.75 411.5,-243.75 408,-253.75 415,-253.75"/>
</g>
<!-- Node33&#45;&gt;Node5 -->
<g id="edge39" class="edge">
<title>Node33&#45;&gt;Node5</title>
<path fill="none" stroke="midnightblue" d="M280.02,-224.39C301.56,-215.34 336.42,-200.69 366.5,-188 460.3,-148.43 571.33,-101.4 623.14,-79.45"/>
<polygon fill="midnightblue" stroke="midnightblue" points="624.55,-82.65 632.4,-75.52 621.82,-76.2 624.55,-82.65"/>
</g>
<!-- Node33&#45;&gt;Node11 -->
<g id="edge42" class="edge">
<title>Node33&#45;&gt;Node11</title>
<path fill="none" stroke="midnightblue" d="M273.24,-224.39C293.49,-211.76 332.63,-187.57 366.5,-168 461.87,-112.89 577.38,-50.91 627.4,-24.3"/>
<polygon fill="midnightblue" stroke="midnightblue" points="629.05,-27.39 636.24,-19.61 625.76,-21.21 629.05,-27.39"/>
</g>
<!-- Node33&#45;&gt;Node17 -->
<g id="edge41" class="edge">
<title>Node33&#45;&gt;Node17</title>
<path fill="none" stroke="midnightblue" d="M325.35,-225.07C328.44,-224.71 331.5,-224.35 334.5,-224 442.44,-211.47 566.8,-197.6 648.05,-188.62"/>
<polygon fill="midnightblue" stroke="midnightblue" points="648.68,-192.07 658.23,-187.49 647.91,-185.11 648.68,-192.07"/>
</g>
<!-- Node33&#45;&gt;Node19 -->
<g id="edge40" class="edge">
<title>Node33&#45;&gt;Node19</title>
<path fill="none" stroke="midnightblue" d="M309.41,-224.44C365.17,-214.89 455.39,-199.42 514.83,-189.23"/>
<polygon fill="midnightblue" stroke="midnightblue" points="515.56,-192.66 524.82,-187.52 514.37,-185.76 515.56,-192.66"/>
</g>
<!-- Node48&#45;&gt;Node4 -->
<g id="edge45" class="edge">
<title>Node48&#45;&gt;Node4</title>
<path fill="none" stroke="midnightblue" d="M628.53,-224.44C689.14,-214.85 787.36,-199.29 851.7,-189.1"/>
<polygon fill="midnightblue" stroke="midnightblue" points="852.39,-192.54 861.72,-187.52 851.3,-185.62 852.39,-192.54"/>
</g>
<!-- Node48&#45;&gt;Node17 -->
<g id="edge44" class="edge">
<title>Node48&#45;&gt;Node17</title>
<path fill="none" stroke="midnightblue" d="M600.01,-224.44C627.1,-215.36 670.09,-200.94 700.37,-190.78"/>
<polygon fill="midnightblue" stroke="midnightblue" points="701.74,-194.01 710.11,-187.52 699.51,-187.38 701.74,-194.01"/>
</g>
<!-- Node48&#45;&gt;Node19 -->
<g id="edge46" class="edge">
<title>Node48&#45;&gt;Node19</title>
<path fill="none" stroke="midnightblue" d="M574.5,-224.08C574.5,-217.01 574.5,-206.86 574.5,-197.99"/>
<polygon fill="midnightblue" stroke="midnightblue" points="578,-197.75 574.5,-187.75 571,-197.75 578,-197.75"/>
</g>
<!-- Node48&#45;&gt;Node25 -->
<g id="edge47" class="edge">
<title>Node48&#45;&gt;Node25</title>
<path fill="none" stroke="midnightblue" d="M526.81,-224.44C467.94,-213.88 368.88,-196.11 313.69,-186.21"/>
<polygon fill="midnightblue" stroke="midnightblue" points="314.05,-182.72 303.59,-184.4 312.82,-189.61 314.05,-182.72"/>
</g>
<!-- Node50&#45;&gt;Node19 -->
<g id="edge49" class="edge">
<title>Node50&#45;&gt;Node19</title>
<path fill="none" stroke="midnightblue" d="M437.33,-224.44C464.75,-215.36 508.28,-200.94 538.93,-190.78"/>
<polygon fill="midnightblue" stroke="midnightblue" points="540.4,-193.98 548.79,-187.52 538.2,-187.34 540.4,-193.98"/>
</g>
</g>
</svg>
