<?xml version="1.0" encoding="UTF-8" standalone="no"?>
<!DOCTYPE svg PUBLIC "-//W3C//DTD SVG 1.1//EN"
 "http://www.w3.org/Graphics/SVG/1.1/DTD/svg11.dtd">
<!-- Generated by graphviz version 2.43.0 (0)
 -->
<!-- Title: IDA_Solver.h Pages: 1 -->
<svg width="643pt" height="420pt"
 viewBox="0.00 0.00 642.96 420.00" xmlns="http://www.w3.org/2000/svg" xmlns:xlink="http://www.w3.org/1999/xlink">
<g id="graph0" class="graph" transform="scale(1 1) rotate(0) translate(4 416)">
<title>IDA_Solver.h</title>
<polygon fill="white" stroke="transparent" points="-4,4 -4,-416 638.96,-416 638.96,4 -4,4"/>
<!-- Node1 -->
<g id="node1" class="node">
<title>Node1</title>
<g id="a_node1"><a xlink:title="Header file for class IDA_Solver.">
<polygon fill="#bfbfbf" stroke="black" points="453.46,-392.5 453.46,-411.5 531.46,-411.5 531.46,-392.5 453.46,-392.5"/>
<text text-anchor="middle" x="492.46" y="-399.5" font-family="Helvetica,sans-Serif" font-size="10.00">IDA_Solver.h</text>
</a>
</g>
</g>
<!-- Node2 -->
<g id="node2" class="node">
<title>Node2</title>
<g id="a_node2"><a xlink:href="../../d6/d87/DAE__Solver_8h.html" target="_top" xlink:title="Header file for class DAE_Solver.">
<polygon fill="white" stroke="black" points="384.96,-336.5 384.96,-355.5 465.96,-355.5 465.96,-336.5 384.96,-336.5"/>
<text text-anchor="middle" x="425.46" y="-343.5" font-family="Helvetica,sans-Serif" font-size="10.00">DAE_Solver.h</text>
</a>
</g>
</g>
<!-- Node1&#45;&gt;Node2 -->
<g id="edge1" class="edge">
<title>Node1&#45;&gt;Node2</title>
<path fill="none" stroke="midnightblue" d="M481.7,-392.32C471.7,-384.26 456.58,-372.08 444.53,-362.37"/>
<polygon fill="midnightblue" stroke="midnightblue" points="446.41,-359.38 436.42,-355.83 442.01,-364.83 446.41,-359.38"/>
</g>
<!-- Node28 -->
<g id="node12" class="node">
<title>Node28</title>
<g id="a_node12"><a xlink:title=" ">
<polygon fill="white" stroke="#bfbfbf" points="483.96,-336.5 483.96,-355.5 634.96,-355.5 634.96,-336.5 483.96,-336.5"/>
<text text-anchor="middle" x="559.46" y="-343.5" font-family="Helvetica,sans-Serif" font-size="10.00">sundials/sundials_nvector.h</text>
</a>
</g>
</g>
<!-- Node1&#45;&gt;Node28 -->
<g id="edge17" class="edge">
<title>Node1&#45;&gt;Node28</title>
<path fill="none" stroke="midnightblue" d="M503.23,-392.32C513.23,-384.26 528.35,-372.08 540.39,-362.37"/>
<polygon fill="midnightblue" stroke="midnightblue" points="542.91,-364.83 548.5,-355.83 538.52,-359.38 542.91,-364.83"/>
</g>
<!-- Node3 -->
<g id="node3" class="node">
<title>Node3</title>
<g id="a_node3"><a xlink:href="../../d8/d05/ResidJacEval_8h.html" target="_top" xlink:title="Dense, Square (not sparse) matrices.">
<polygon fill="white" stroke="black" points="311.46,-280.5 311.46,-299.5 399.46,-299.5 399.46,-280.5 311.46,-280.5"/>
<text text-anchor="middle" x="355.46" y="-287.5" font-family="Helvetica,sans-Serif" font-size="10.00">ResidJacEval.h</text>
</a>
</g>
</g>
<!-- Node2&#45;&gt;Node3 -->
<g id="edge2" class="edge">
<title>Node2&#45;&gt;Node3</title>
<path fill="none" stroke="midnightblue" d="M414.22,-336.32C403.66,-328.18 387.66,-315.84 375.02,-306.09"/>
<polygon fill="midnightblue" stroke="midnightblue" points="376.97,-303.17 366.91,-299.83 372.69,-308.71 376.97,-303.17"/>
</g>
<!-- Node20 -->
<g id="node8" class="node">
<title>Node20</title>
<g id="a_node8"><a xlink:href="../../d2/d49/global_8h.html" target="_top" xlink:title="This file contains definitions for utility functions and text for modules, inputfiles,...">
<polygon fill="white" stroke="red" points="348.46,-56.5 348.46,-75.5 404.46,-75.5 404.46,-56.5 348.46,-56.5"/>
<text text-anchor="middle" x="376.46" y="-63.5" font-family="Helvetica,sans-Serif" font-size="10.00">global.h</text>
</a>
</g>
</g>
<!-- Node2&#45;&gt;Node20 -->
<g id="edge16" class="edge">
<title>Node2&#45;&gt;Node20</title>
<path fill="none" stroke="midnightblue" d="M431.72,-336.37C444.08,-318.44 470.46,-275.44 470.46,-235 470.46,-235 470.46,-235 470.46,-177 470.46,-133.93 428.3,-99.21 400.45,-80.98"/>
<polygon fill="midnightblue" stroke="midnightblue" points="402.31,-78.01 391.98,-75.65 398.58,-83.94 402.31,-78.01"/>
</g>
<!-- Node4 -->
<g id="node4" class="node">
<title>Node4</title>
<g id="a_node4"><a xlink:href="../../da/d61/ResidEval_8h.html" target="_top" xlink:title=" ">
<polygon fill="white" stroke="black" points="318.46,-224.5 318.46,-243.5 392.46,-243.5 392.46,-224.5 318.46,-224.5"/>
<text text-anchor="middle" x="355.46" y="-231.5" font-family="Helvetica,sans-Serif" font-size="10.00">ResidEval.h</text>
</a>
</g>
</g>
<!-- Node3&#45;&gt;Node4 -->
<g id="edge3" class="edge">
<title>Node3&#45;&gt;Node4</title>
<path fill="none" stroke="midnightblue" d="M355.46,-280.08C355.46,-273.01 355.46,-262.86 355.46,-253.99"/>
<polygon fill="midnightblue" stroke="midnightblue" points="358.96,-253.75 355.46,-243.75 351.96,-253.75 358.96,-253.75"/>
</g>
<!-- Node24 -->
<g id="node10" class="node">
<title>Node24</title>
<g id="a_node10"><a xlink:href="../../d1/df7/DenseMatrix_8h.html" target="_top" xlink:title="Headers for the DenseMatrix object, which deals with dense rectangular matrices and description of th...">
<polygon fill="white" stroke="black" points="105.46,-224.5 105.46,-243.5 193.46,-243.5 193.46,-224.5 105.46,-224.5"/>
<text text-anchor="middle" x="149.46" y="-231.5" font-family="Helvetica,sans-Serif" font-size="10.00">DenseMatrix.h</text>
</a>
</g>
</g>
<!-- Node3&#45;&gt;Node24 -->
<g id="edge11" class="edge">
<title>Node3&#45;&gt;Node24</title>
<path fill="none" stroke="midnightblue" d="M322.82,-280.44C287.41,-271.16 230.75,-256.31 191.91,-246.13"/>
<polygon fill="midnightblue" stroke="midnightblue" points="192.51,-242.67 181.95,-243.52 190.74,-249.44 192.51,-242.67"/>
</g>
<!-- Node5 -->
<g id="node5" class="node">
<title>Node5</title>
<g id="a_node5"><a xlink:href="../../d9/ddc/ct__defs_8h.html" target="_top" xlink:title="This file contains definitions of terms that are used in internal routines and are unlikely to need m...">
<polygon fill="white" stroke="red" points="284.96,-0.5 284.96,-19.5 411.96,-19.5 411.96,-0.5 284.96,-0.5"/>
<text text-anchor="middle" x="348.46" y="-7.5" font-family="Helvetica,sans-Serif" font-size="10.00">cantera/base/ct_defs.h</text>
</a>
</g>
</g>
<!-- Node4&#45;&gt;Node5 -->
<g id="edge4" class="edge">
<title>Node4&#45;&gt;Node5</title>
<path fill="none" stroke="midnightblue" d="M373.85,-224.47C387.56,-217 405.28,-204.71 413.46,-188 439.27,-135.31 440.69,-107.97 413.46,-56 406.18,-42.11 392.45,-31.65 379.48,-24.33"/>
<polygon fill="midnightblue" stroke="midnightblue" points="380.76,-21.05 370.27,-19.55 377.53,-27.27 380.76,-21.05"/>
</g>
<!-- Node14 -->
<g id="node6" class="node">
<title>Node14</title>
<g id="a_node6"><a xlink:href="../../db/d98/ctexceptions_8h.html" target="_top" xlink:title="Definitions for the classes that are thrown when Cantera experiences an error condition (also contain...">
<polygon fill="white" stroke="red" points="148.46,-168.5 148.46,-187.5 302.46,-187.5 302.46,-168.5 148.46,-168.5"/>
<text text-anchor="middle" x="225.46" y="-175.5" font-family="Helvetica,sans-Serif" font-size="10.00">cantera/base/ctexceptions.h</text>
</a>
</g>
</g>
<!-- Node4&#45;&gt;Node14 -->
<g id="edge5" class="edge">
<title>Node4&#45;&gt;Node14</title>
<path fill="none" stroke="midnightblue" d="M334.86,-224.44C313.47,-215.56 279.78,-201.56 255.44,-191.45"/>
<polygon fill="midnightblue" stroke="midnightblue" points="256.54,-188.12 245.96,-187.52 253.86,-194.58 256.54,-188.12"/>
</g>
<!-- Node19 -->
<g id="node7" class="node">
<title>Node19</title>
<g id="a_node7"><a xlink:href="../../de/df0/utilities_8h.html" target="_top" xlink:title="Various templated functions that carry out common vector operations (see Templated Utility Functions)...">
<polygon fill="white" stroke="red" points="261.46,-112.5 261.46,-131.5 389.46,-131.5 389.46,-112.5 261.46,-112.5"/>
<text text-anchor="middle" x="325.46" y="-119.5" font-family="Helvetica,sans-Serif" font-size="10.00">cantera/base/utilities.h</text>
</a>
</g>
</g>
<!-- Node4&#45;&gt;Node19 -->
<g id="edge6" class="edge">
<title>Node4&#45;&gt;Node19</title>
<path fill="none" stroke="midnightblue" d="M353.11,-224.37C348.25,-206.54 337,-165.3 330.45,-141.27"/>
<polygon fill="midnightblue" stroke="midnightblue" points="333.81,-140.32 327.81,-131.59 327.06,-142.16 333.81,-140.32"/>
</g>
<!-- Node23 -->
<g id="node9" class="node">
<title>Node23</title>
<g id="a_node9"><a xlink:title=" ">
<polygon fill="white" stroke="#bfbfbf" points="358.46,-168.5 358.46,-187.5 404.46,-187.5 404.46,-168.5 358.46,-168.5"/>
<text text-anchor="middle" x="381.46" y="-175.5" font-family="Helvetica,sans-Serif" font-size="10.00">cstdio</text>
</a>
</g>
</g>
<!-- Node4&#45;&gt;Node23 -->
<g id="edge10" class="edge">
<title>Node4&#45;&gt;Node23</title>
<path fill="none" stroke="midnightblue" d="M359.76,-224.08C363.31,-216.69 368.48,-205.95 372.89,-196.81"/>
<polygon fill="midnightblue" stroke="midnightblue" points="376.06,-198.28 377.25,-187.75 369.76,-195.24 376.06,-198.28"/>
</g>
<!-- Node19&#45;&gt;Node5 -->
<g id="edge7" class="edge">
<title>Node19&#45;&gt;Node5</title>
<path fill="none" stroke="midnightblue" d="M327.27,-112.37C330.98,-94.62 339.54,-53.67 344.57,-29.6"/>
<polygon fill="midnightblue" stroke="midnightblue" points="348.05,-30.1 346.67,-19.59 341.19,-28.66 348.05,-30.1"/>
</g>
<!-- Node19&#45;&gt;Node20 -->
<g id="edge8" class="edge">
<title>Node19&#45;&gt;Node20</title>
<path fill="none" stroke="midnightblue" d="M333.88,-112.08C341.31,-104.22 352.31,-92.57 361.27,-83.08"/>
<polygon fill="midnightblue" stroke="midnightblue" points="363.88,-85.42 368.2,-75.75 358.79,-80.62 363.88,-85.42"/>
</g>
<!-- Node20&#45;&gt;Node5 -->
<g id="edge9" class="edge">
<title>Node20&#45;&gt;Node5</title>
<path fill="none" stroke="midnightblue" d="M371.84,-56.08C368.01,-48.69 362.44,-37.95 357.7,-28.81"/>
<polygon fill="midnightblue" stroke="midnightblue" points="360.71,-27.02 353,-19.75 354.5,-30.24 360.71,-27.02"/>
</g>
<!-- Node24&#45;&gt;Node5 -->
<g id="edge12" class="edge">
<title>Node24&#45;&gt;Node5</title>
<path fill="none" stroke="midnightblue" d="M105.34,-229.47C54.17,-223.49 -20.1,-207.81 5.46,-168 64.65,-75.82 192.93,-37.07 274.74,-21.29"/>
<polygon fill="midnightblue" stroke="midnightblue" points="275.54,-24.7 284.73,-19.43 274.26,-17.82 275.54,-24.7"/>
</g>
<!-- Node24&#45;&gt;Node14 -->
<g id="edge13" class="edge">
<title>Node24&#45;&gt;Node14</title>
<path fill="none" stroke="midnightblue" d="M161.67,-224.32C173.24,-216.11 190.84,-203.6 204.62,-193.81"/>
<polygon fill="midnightblue" stroke="midnightblue" points="206.9,-196.48 213.03,-187.83 202.85,-190.77 206.9,-196.48"/>
</g>
<!-- Node25 -->
<g id="node11" class="node">
<title>Node25</title>
<g id="a_node11"><a xlink:href="../../df/dd0/Array_8h.html" target="_top" xlink:title="Header file for class Cantera::Array2D.">
<polygon fill="white" stroke="red" points="14.46,-168.5 14.46,-187.5 130.46,-187.5 130.46,-168.5 14.46,-168.5"/>
<text text-anchor="middle" x="72.46" y="-175.5" font-family="Helvetica,sans-Serif" font-size="10.00">cantera/base/Array.h</text>
</a>
</g>
</g>
<!-- Node24&#45;&gt;Node25 -->
<g id="edge14" class="edge">
<title>Node24&#45;&gt;Node25</title>
<path fill="none" stroke="midnightblue" d="M137.09,-224.32C125.3,-216.06 107.33,-203.45 93.33,-193.63"/>
<polygon fill="midnightblue" stroke="midnightblue" points="95,-190.53 84.8,-187.65 90.98,-196.26 95,-190.53"/>
</g>
<!-- Node25&#45;&gt;Node19 -->
<g id="edge15" class="edge">
<title>Node25&#45;&gt;Node19</title>
<path fill="none" stroke="midnightblue" d="M112.55,-168.44C156.78,-159 228,-143.8 275.75,-133.61"/>
<polygon fill="midnightblue" stroke="midnightblue" points="276.51,-137.03 285.56,-131.52 275.05,-130.18 276.51,-137.03"/>
</g>
</g>
</svg>
