<?xml version="1.0" encoding="UTF-8" standalone="no"?>
<!DOCTYPE svg PUBLIC "-//W3C//DTD SVG 1.1//EN"
 "http://www.w3.org/Graphics/SVG/1.1/DTD/svg11.dtd">
<!-- Generated by graphviz version 2.43.0 (0)
 -->
<!-- Title: MMCollisionInt.cpp Pages: 1 -->
<svg width="642pt" height="308pt"
 viewBox="0.00 0.00 641.91 308.00" xmlns="http://www.w3.org/2000/svg" xmlns:xlink="http://www.w3.org/1999/xlink">
<g id="graph0" class="graph" transform="scale(1 1) rotate(0) translate(4 304)">
<title>MMCollisionInt.cpp</title>
<polygon fill="white" stroke="transparent" points="-4,4 -4,-304 637.91,-304 637.91,4 -4,4"/>
<!-- Node1 -->
<g id="node1" class="node">
<title>Node1</title>
<g id="a_node1"><a xlink:title=" ">
<polygon fill="#bfbfbf" stroke="black" points="169,-280.5 169,-299.5 279,-299.5 279,-280.5 169,-280.5"/>
<text text-anchor="middle" x="224" y="-287.5" font-family="Helvetica,sans-Serif" font-size="10.00">MMCollisionInt.cpp</text>
</a>
</g>
</g>
<!-- Node2 -->
<g id="node2" class="node">
<title>Node2</title>
<g id="a_node2"><a xlink:href="../../df/df6/MMCollisionInt_8h.html" target="_top" xlink:title="Monk and Monchick collision integrals.">
<polygon fill="white" stroke="black" points="0,-112.5 0,-131.5 98,-131.5 98,-112.5 0,-112.5"/>
<text text-anchor="middle" x="49" y="-119.5" font-family="Helvetica,sans-Serif" font-size="10.00">MMCollisionInt.h</text>
</a>
</g>
</g>
<!-- Node1&#45;&gt;Node2 -->
<g id="edge1" class="edge">
<title>Node1&#45;&gt;Node2</title>
<path fill="none" stroke="midnightblue" d="M168.8,-287.85C134.16,-284.04 91.38,-273.14 66,-244 41.12,-215.43 42.68,-167.84 45.9,-141.67"/>
<polygon fill="midnightblue" stroke="midnightblue" points="49.39,-141.99 47.35,-131.59 42.46,-140.99 49.39,-141.99"/>
</g>
<!-- Node12 -->
<g id="node12" class="node">
<title>Node12</title>
<g id="a_node12"><a xlink:href="../../de/df0/utilities_8h.html" target="_top" xlink:title="Various templated functions that carry out common vector operations (see Templated Utility Functions)...">
<polygon fill="white" stroke="black" points="237,-224.5 237,-243.5 365,-243.5 365,-224.5 237,-224.5"/>
<text text-anchor="middle" x="301" y="-231.5" font-family="Helvetica,sans-Serif" font-size="10.00">cantera/base/utilities.h</text>
</a>
</g>
</g>
<!-- Node1&#45;&gt;Node12 -->
<g id="edge11" class="edge">
<title>Node1&#45;&gt;Node12</title>
<path fill="none" stroke="midnightblue" d="M236.37,-280.32C248.16,-272.06 266.13,-259.45 280.14,-249.63"/>
<polygon fill="midnightblue" stroke="midnightblue" points="282.48,-252.26 288.66,-243.65 278.46,-246.53 282.48,-252.26"/>
</g>
<!-- Node19 -->
<g id="node19" class="node">
<title>Node19</title>
<g id="a_node19"><a xlink:href="../../d7/dcd/polyfit_8h.html" target="_top" xlink:title=" ">
<polygon fill="white" stroke="black" points="75,-224.5 75,-243.5 219,-243.5 219,-224.5 75,-224.5"/>
<text text-anchor="middle" x="147" y="-231.5" font-family="Helvetica,sans-Serif" font-size="10.00">cantera/numerics/polyfit.h</text>
</a>
</g>
</g>
<!-- Node1&#45;&gt;Node19 -->
<g id="edge21" class="edge">
<title>Node1&#45;&gt;Node19</title>
<path fill="none" stroke="midnightblue" d="M211.63,-280.32C199.84,-272.06 181.87,-259.45 167.86,-249.63"/>
<polygon fill="midnightblue" stroke="midnightblue" points="169.54,-246.53 159.34,-243.65 165.52,-252.26 169.54,-246.53"/>
</g>
<!-- Node20 -->
<g id="node20" class="node">
<title>Node20</title>
<g id="a_node20"><a xlink:href="../../dd/dc3/stringUtils_8h.html" target="_top" xlink:title="Contains declarations for string manipulation functions within Cantera.">
<polygon fill="white" stroke="black" points="426,-168.5 426,-187.5 568,-187.5 568,-168.5 426,-168.5"/>
<text text-anchor="middle" x="497" y="-175.5" font-family="Helvetica,sans-Serif" font-size="10.00">cantera/base/stringUtils.h</text>
</a>
</g>
</g>
<!-- Node1&#45;&gt;Node20 -->
<g id="edge23" class="edge">
<title>Node1&#45;&gt;Node20</title>
<path fill="none" stroke="midnightblue" d="M259.52,-280.43C290.35,-272.51 335.88,-259.61 374,-244 410.3,-229.13 450.06,-206.96 474.27,-192.74"/>
<polygon fill="midnightblue" stroke="midnightblue" points="476.23,-195.65 483.04,-187.53 472.66,-189.63 476.23,-195.65"/>
</g>
<!-- Node3 -->
<g id="node3" class="node">
<title>Node3</title>
<g id="a_node3"><a xlink:href="../../d9/ddc/ct__defs_8h.html" target="_top" xlink:title="This file contains definitions of terms that are used in internal routines and are unlikely to need m...">
<polygon fill="white" stroke="black" points="176.5,-56.5 176.5,-75.5 303.5,-75.5 303.5,-56.5 176.5,-56.5"/>
<text text-anchor="middle" x="240" y="-63.5" font-family="Helvetica,sans-Serif" font-size="10.00">cantera/base/ct_defs.h</text>
</a>
</g>
</g>
<!-- Node2&#45;&gt;Node3 -->
<g id="edge2" class="edge">
<title>Node2&#45;&gt;Node3</title>
<path fill="none" stroke="midnightblue" d="M79.26,-112.44C111.96,-103.2 164.18,-88.44 200.18,-78.26"/>
<polygon fill="midnightblue" stroke="midnightblue" points="201.21,-81.61 209.88,-75.52 199.3,-74.87 201.21,-81.61"/>
</g>
<!-- Node4 -->
<g id="node4" class="node">
<title>Node4</title>
<g id="a_node4"><a xlink:href="../../db/d16/config_8h_source.html" target="_top" xlink:title=" ">
<polygon fill="white" stroke="black" points="435.5,-0.5 435.5,-19.5 490.5,-19.5 490.5,-0.5 435.5,-0.5"/>
<text text-anchor="middle" x="463" y="-7.5" font-family="Helvetica,sans-Serif" font-size="10.00">config.h</text>
</a>
</g>
</g>
<!-- Node3&#45;&gt;Node4 -->
<g id="edge3" class="edge">
<title>Node3&#45;&gt;Node4</title>
<path fill="none" stroke="midnightblue" d="M275.31,-56.47C310.76,-47.91 367.19,-34.26 425.39,-20.15"/>
<polygon fill="midnightblue" stroke="midnightblue" points="426.23,-23.54 435.12,-17.79 424.58,-16.74 426.23,-23.54"/>
</g>
<!-- Node5 -->
<g id="node5" class="node">
<title>Node5</title>
<g id="a_node5"><a xlink:title=" ">
<polygon fill="white" stroke="#bfbfbf" points="23.5,-0.5 23.5,-19.5 70.5,-19.5 70.5,-0.5 23.5,-0.5"/>
<text text-anchor="middle" x="47" y="-7.5" font-family="Helvetica,sans-Serif" font-size="10.00">cmath</text>
</a>
</g>
</g>
<!-- Node3&#45;&gt;Node5 -->
<g id="edge4" class="edge">
<title>Node3&#45;&gt;Node5</title>
<path fill="none" stroke="midnightblue" d="M209.43,-56.47C179,-47.98 130.71,-34.49 80.49,-20.42"/>
<polygon fill="midnightblue" stroke="midnightblue" points="81.34,-17.02 70.76,-17.69 79.45,-23.76 81.34,-17.02"/>
</g>
<!-- Node6 -->
<g id="node6" class="node">
<title>Node6</title>
<g id="a_node6"><a xlink:title=" ">
<polygon fill="white" stroke="#bfbfbf" points="88.5,-0.5 88.5,-19.5 137.5,-19.5 137.5,-0.5 88.5,-0.5"/>
<text text-anchor="middle" x="113" y="-7.5" font-family="Helvetica,sans-Serif" font-size="10.00">cstdlib</text>
</a>
</g>
</g>
<!-- Node3&#45;&gt;Node6 -->
<g id="edge5" class="edge">
<title>Node3&#45;&gt;Node6</title>
<path fill="none" stroke="midnightblue" d="M219.88,-56.44C198.98,-47.56 166.07,-33.56 142.28,-23.45"/>
<polygon fill="midnightblue" stroke="midnightblue" points="143.6,-20.21 133.03,-19.52 140.86,-26.65 143.6,-20.21"/>
</g>
<!-- Node7 -->
<g id="node7" class="node">
<title>Node7</title>
<g id="a_node7"><a xlink:title=" ">
<polygon fill="white" stroke="#bfbfbf" points="155.5,-0.5 155.5,-19.5 202.5,-19.5 202.5,-0.5 155.5,-0.5"/>
<text text-anchor="middle" x="179" y="-7.5" font-family="Helvetica,sans-Serif" font-size="10.00">vector</text>
</a>
</g>
</g>
<!-- Node3&#45;&gt;Node7 -->
<g id="edge6" class="edge">
<title>Node3&#45;&gt;Node7</title>
<path fill="none" stroke="midnightblue" d="M230.2,-56.32C221.18,-48.34 207.59,-36.31 196.68,-26.65"/>
<polygon fill="midnightblue" stroke="midnightblue" points="198.79,-23.84 188.98,-19.83 194.15,-29.08 198.79,-23.84"/>
</g>
<!-- Node8 -->
<g id="node8" class="node">
<title>Node8</title>
<g id="a_node8"><a xlink:title=" ">
<polygon fill="white" stroke="#bfbfbf" points="221,-0.5 221,-19.5 259,-19.5 259,-0.5 221,-0.5"/>
<text text-anchor="middle" x="240" y="-7.5" font-family="Helvetica,sans-Serif" font-size="10.00">map</text>
</a>
</g>
</g>
<!-- Node3&#45;&gt;Node8 -->
<g id="edge7" class="edge">
<title>Node3&#45;&gt;Node8</title>
<path fill="none" stroke="midnightblue" d="M240,-56.08C240,-49.01 240,-38.86 240,-29.99"/>
<polygon fill="midnightblue" stroke="midnightblue" points="243.5,-29.75 240,-19.75 236.5,-29.75 243.5,-29.75"/>
</g>
<!-- Node9 -->
<g id="node9" class="node">
<title>Node9</title>
<g id="a_node9"><a xlink:title=" ">
<polygon fill="white" stroke="#bfbfbf" points="569,-0.5 569,-19.5 613,-19.5 613,-0.5 569,-0.5"/>
<text text-anchor="middle" x="591" y="-7.5" font-family="Helvetica,sans-Serif" font-size="10.00">string</text>
</a>
</g>
</g>
<!-- Node3&#45;&gt;Node9 -->
<g id="edge8" class="edge">
<title>Node3&#45;&gt;Node9</title>
<path fill="none" stroke="midnightblue" d="M295.62,-56.44C369.84,-45.03 498.85,-25.18 558.74,-15.96"/>
<polygon fill="midnightblue" stroke="midnightblue" points="559.4,-19.4 568.75,-14.42 558.34,-12.48 559.4,-19.4"/>
</g>
<!-- Node10 -->
<g id="node10" class="node">
<title>Node10</title>
<g id="a_node10"><a xlink:title=" ">
<polygon fill="white" stroke="#bfbfbf" points="277,-0.5 277,-19.5 341,-19.5 341,-0.5 277,-0.5"/>
<text text-anchor="middle" x="309" y="-7.5" font-family="Helvetica,sans-Serif" font-size="10.00">algorithm</text>
</a>
</g>
</g>
<!-- Node3&#45;&gt;Node10 -->
<g id="edge9" class="edge">
<title>Node3&#45;&gt;Node10</title>
<path fill="none" stroke="midnightblue" d="M251.09,-56.32C261.49,-48.18 277.26,-35.84 289.72,-26.09"/>
<polygon fill="midnightblue" stroke="midnightblue" points="291.99,-28.75 297.71,-19.83 287.68,-23.24 291.99,-28.75"/>
</g>
<!-- Node11 -->
<g id="node11" class="node">
<title>Node11</title>
<g id="a_node11"><a xlink:title=" ">
<polygon fill="white" stroke="#bfbfbf" points="359,-0.5 359,-19.5 417,-19.5 417,-0.5 359,-0.5"/>
<text text-anchor="middle" x="388" y="-7.5" font-family="Helvetica,sans-Serif" font-size="10.00">memory</text>
</a>
</g>
</g>
<!-- Node3&#45;&gt;Node11 -->
<g id="edge10" class="edge">
<title>Node3&#45;&gt;Node11</title>
<path fill="none" stroke="midnightblue" d="M263.45,-56.44C288.13,-47.44 327.19,-33.19 354.98,-23.05"/>
<polygon fill="midnightblue" stroke="midnightblue" points="356.46,-26.23 364.66,-19.52 354.06,-19.66 356.46,-26.23"/>
</g>
<!-- Node12&#45;&gt;Node3 -->
<g id="edge12" class="edge">
<title>Node12&#45;&gt;Node3</title>
<path fill="none" stroke="midnightblue" d="M290.04,-224.24C280.49,-215.96 267.1,-202.65 260,-188 243.8,-154.59 240.39,-110.55 239.86,-85.87"/>
<polygon fill="midnightblue" stroke="midnightblue" points="243.36,-85.69 239.79,-75.71 236.36,-85.74 243.36,-85.69"/>
</g>
<!-- Node13 -->
<g id="node13" class="node">
<title>Node13</title>
<g id="a_node13"><a xlink:href="../../d2/d49/global_8h.html" target="_top" xlink:title="This file contains definitions for utility functions and text for modules, inputfiles,...">
<polygon fill="white" stroke="black" points="352,-168.5 352,-187.5 408,-187.5 408,-168.5 352,-168.5"/>
<text text-anchor="middle" x="380" y="-175.5" font-family="Helvetica,sans-Serif" font-size="10.00">global.h</text>
</a>
</g>
</g>
<!-- Node12&#45;&gt;Node13 -->
<g id="edge13" class="edge">
<title>Node12&#45;&gt;Node13</title>
<path fill="none" stroke="midnightblue" d="M313.69,-224.32C325.9,-215.98 344.58,-203.21 359,-193.35"/>
<polygon fill="midnightblue" stroke="midnightblue" points="361.06,-196.19 367.34,-187.65 357.11,-190.41 361.06,-196.19"/>
</g>
<!-- Node17 -->
<g id="node17" class="node">
<title>Node17</title>
<g id="a_node17"><a xlink:title=" ">
<polygon fill="white" stroke="#bfbfbf" points="268.5,-168.5 268.5,-187.5 333.5,-187.5 333.5,-168.5 268.5,-168.5"/>
<text text-anchor="middle" x="301" y="-175.5" font-family="Helvetica,sans-Serif" font-size="10.00">stdexcept</text>
</a>
</g>
</g>
<!-- Node12&#45;&gt;Node17 -->
<g id="edge19" class="edge">
<title>Node12&#45;&gt;Node17</title>
<path fill="none" stroke="midnightblue" d="M301,-224.08C301,-217.01 301,-206.86 301,-197.99"/>
<polygon fill="midnightblue" stroke="midnightblue" points="304.5,-197.75 301,-187.75 297.5,-197.75 304.5,-197.75"/>
</g>
<!-- Node18 -->
<g id="node18" class="node">
<title>Node18</title>
<g id="a_node18"><a xlink:title=" ">
<polygon fill="white" stroke="#bfbfbf" points="156,-168.5 156,-187.5 212,-187.5 212,-168.5 156,-168.5"/>
<text text-anchor="middle" x="184" y="-175.5" font-family="Helvetica,sans-Serif" font-size="10.00">numeric</text>
</a>
</g>
</g>
<!-- Node12&#45;&gt;Node18 -->
<g id="edge20" class="edge">
<title>Node12&#45;&gt;Node18</title>
<path fill="none" stroke="midnightblue" d="M282.46,-224.44C263.38,-215.64 233.43,-201.81 211.56,-191.72"/>
<polygon fill="midnightblue" stroke="midnightblue" points="213,-188.53 202.45,-187.52 210.07,-194.88 213,-188.53"/>
</g>
<!-- Node13&#45;&gt;Node3 -->
<g id="edge14" class="edge">
<title>Node13&#45;&gt;Node3</title>
<path fill="none" stroke="midnightblue" d="M361.73,-168.35C345.31,-160.14 320.93,-146.88 302,-132 283.52,-117.48 265.31,-97.52 253.46,-83.57"/>
<polygon fill="midnightblue" stroke="midnightblue" points="256.04,-81.2 246.95,-75.76 250.66,-85.68 256.04,-81.2"/>
</g>
<!-- Node14 -->
<g id="node14" class="node">
<title>Node14</title>
<g id="a_node14"><a xlink:href="../../db/def/fmt_8h.html" target="_top" xlink:title="Wrapper for either system&#45;installed or local headers for fmt.">
<polygon fill="white" stroke="black" points="344.5,-112.5 344.5,-131.5 453.5,-131.5 453.5,-112.5 344.5,-112.5"/>
<text text-anchor="middle" x="399" y="-119.5" font-family="Helvetica,sans-Serif" font-size="10.00">cantera/base/fmt.h</text>
</a>
</g>
</g>
<!-- Node13&#45;&gt;Node14 -->
<g id="edge15" class="edge">
<title>Node13&#45;&gt;Node14</title>
<path fill="none" stroke="midnightblue" d="M383.14,-168.08C385.68,-160.85 389.36,-150.41 392.53,-141.4"/>
<polygon fill="midnightblue" stroke="midnightblue" points="395.9,-142.35 395.92,-131.75 389.3,-140.02 395.9,-142.35"/>
</g>
<!-- Node14&#45;&gt;Node3 -->
<g id="edge16" class="edge">
<title>Node14&#45;&gt;Node3</title>
<path fill="none" stroke="midnightblue" d="M373.81,-112.44C347.06,-103.36 304.6,-88.94 274.69,-78.78"/>
<polygon fill="midnightblue" stroke="midnightblue" points="275.67,-75.42 265.08,-75.52 273.42,-82.05 275.67,-75.42"/>
</g>
<!-- Node15 -->
<g id="node15" class="node">
<title>Node15</title>
<g id="a_node15"><a xlink:title=" ">
<polygon fill="white" stroke="#bfbfbf" points="321.5,-56.5 321.5,-75.5 458.5,-75.5 458.5,-56.5 321.5,-56.5"/>
<text text-anchor="middle" x="390" y="-63.5" font-family="Helvetica,sans-Serif" font-size="10.00">cantera/ext/fmt/format.h</text>
</a>
</g>
</g>
<!-- Node14&#45;&gt;Node15 -->
<g id="edge17" class="edge">
<title>Node14&#45;&gt;Node15</title>
<path fill="none" stroke="midnightblue" d="M397.51,-112.08C396.32,-104.93 394.61,-94.64 393.12,-85.69"/>
<polygon fill="midnightblue" stroke="midnightblue" points="396.55,-85.04 391.46,-75.75 389.65,-86.19 396.55,-85.04"/>
</g>
<!-- Node16 -->
<g id="node16" class="node">
<title>Node16</title>
<g id="a_node16"><a xlink:title=" ">
<polygon fill="white" stroke="#bfbfbf" points="476.5,-56.5 476.5,-75.5 621.5,-75.5 621.5,-56.5 476.5,-56.5"/>
<text text-anchor="middle" x="549" y="-63.5" font-family="Helvetica,sans-Serif" font-size="10.00">cantera/ext/fmt/ostream.h</text>
</a>
</g>
</g>
<!-- Node14&#45;&gt;Node16 -->
<g id="edge18" class="edge">
<title>Node14&#45;&gt;Node16</title>
<path fill="none" stroke="midnightblue" d="M422.77,-112.44C447.89,-103.4 487.71,-89.06 515.9,-78.92"/>
<polygon fill="midnightblue" stroke="midnightblue" points="517.12,-82.2 525.34,-75.52 514.75,-75.61 517.12,-82.2"/>
</g>
<!-- Node19&#45;&gt;Node3 -->
<g id="edge22" class="edge">
<title>Node19&#45;&gt;Node3</title>
<path fill="none" stroke="midnightblue" d="M145.05,-224.22C142.62,-211.37 139.62,-186.92 147,-168 161.52,-130.79 196.89,-99.01 219.58,-81.5"/>
<polygon fill="midnightblue" stroke="midnightblue" points="221.68,-84.3 227.59,-75.51 217.49,-78.7 221.68,-84.3"/>
</g>
<!-- Node20&#45;&gt;Node3 -->
<g id="edge24" class="edge">
<title>Node20&#45;&gt;Node3</title>
<path fill="none" stroke="midnightblue" d="M451.9,-168.48C418.84,-161.28 373.39,-149.32 336,-132 320.45,-124.8 283.13,-98.43 259.86,-81.57"/>
<polygon fill="midnightblue" stroke="midnightblue" points="261.86,-78.69 251.71,-75.63 257.74,-84.35 261.86,-78.69"/>
</g>
<!-- Node20&#45;&gt;Node9 -->
<g id="edge26" class="edge">
<title>Node20&#45;&gt;Node9</title>
<path fill="none" stroke="midnightblue" d="M518.19,-168.46C549.6,-154.48 607.35,-123.45 631,-76 639.8,-58.35 624.85,-39.26 610.8,-26.37"/>
<polygon fill="midnightblue" stroke="midnightblue" points="612.69,-23.38 602.81,-19.55 608.14,-28.7 612.69,-23.38"/>
</g>
<!-- Node20&#45;&gt;Node14 -->
<g id="edge25" class="edge">
<title>Node20&#45;&gt;Node14</title>
<path fill="none" stroke="midnightblue" d="M481.25,-168.32C465.68,-159.74 441.62,-146.49 423.54,-136.52"/>
<polygon fill="midnightblue" stroke="midnightblue" points="425.15,-133.42 414.71,-131.65 421.78,-139.55 425.15,-133.42"/>
</g>
</g>
</svg>
