<?xml version="1.0" encoding="UTF-8" standalone="no"?>
<!DOCTYPE svg PUBLIC "-//W3C//DTD SVG 1.1//EN"
 "http://www.w3.org/Graphics/SVG/1.1/DTD/svg11.dtd">
<!-- Generated by graphviz version 2.43.0 (0)
 -->
<!-- Title: FlowDeviceFactory.cpp Pages: 1 -->
<svg width="799pt" height="375pt"
 viewBox="0.00 0.00 798.50 375.00" xmlns="http://www.w3.org/2000/svg" xmlns:xlink="http://www.w3.org/1999/xlink">
<g id="graph0" class="graph" transform="scale(1 1) rotate(0) translate(4 371)">
<title>FlowDeviceFactory.cpp</title>
<polygon fill="white" stroke="transparent" points="-4,4 -4,-371 794.5,-371 794.5,4 -4,4"/>
<!-- Node1 -->
<g id="node1" class="node">
<title>Node1</title>
<g id="a_node1"><a xlink:title=" ">
<polygon fill="#bfbfbf" stroke="black" points="283,-347.5 283,-366.5 411,-366.5 411,-347.5 283,-347.5"/>
<text text-anchor="middle" x="347" y="-354.5" font-family="Helvetica,sans-Serif" font-size="10.00">FlowDeviceFactory.cpp</text>
</a>
</g>
</g>
<!-- Node2 -->
<g id="node2" class="node">
<title>Node2</title>
<g id="a_node2"><a xlink:href="../../d5/d6c/FlowDeviceFactory_8h.html" target="_top" xlink:title=" ">
<polygon fill="white" stroke="black" points="362.5,-280.5 362.5,-310.5 507.5,-310.5 507.5,-280.5 362.5,-280.5"/>
<text text-anchor="start" x="370.5" y="-298.5" font-family="Helvetica,sans-Serif" font-size="10.00">cantera/zeroD/FlowDevice</text>
<text text-anchor="middle" x="435" y="-287.5" font-family="Helvetica,sans-Serif" font-size="10.00">Factory.h</text>
</a>
</g>
</g>
<!-- Node1&#45;&gt;Node2 -->
<g id="edge1" class="edge">
<title>Node1&#45;&gt;Node2</title>
<path fill="none" stroke="midnightblue" d="M359.61,-347.48C371.64,-339.34 390.2,-326.79 405.9,-316.18"/>
<polygon fill="midnightblue" stroke="midnightblue" points="407.94,-319.02 414.26,-310.52 404.02,-313.22 407.94,-319.02"/>
</g>
<!-- Node24 -->
<g id="node16" class="node">
<title>Node24</title>
<g id="a_node16"><a xlink:href="../../de/d80/flowControllers_8h.html" target="_top" xlink:title="Some flow devices derived from class FlowDevice.">
<polygon fill="white" stroke="black" points="174,-286 174,-305 344,-305 344,-286 174,-286"/>
<text text-anchor="middle" x="259" y="-293" font-family="Helvetica,sans-Serif" font-size="10.00">cantera/zeroD/flowControllers.h</text>
</a>
</g>
</g>
<!-- Node1&#45;&gt;Node24 -->
<g id="edge24" class="edge">
<title>Node1&#45;&gt;Node24</title>
<path fill="none" stroke="midnightblue" d="M334.39,-347.48C320.28,-337.93 297.17,-322.31 280.25,-310.87"/>
<polygon fill="midnightblue" stroke="midnightblue" points="281.83,-307.71 271.58,-305.01 277.91,-313.51 281.83,-307.71"/>
</g>
<!-- Node3 -->
<g id="node3" class="node">
<title>Node3</title>
<g id="a_node3"><a xlink:href="../../d6/dd5/FactoryBase_8h.html" target="_top" xlink:title="File contains the FactoryBase class declarations.">
<polygon fill="white" stroke="black" points="444.5,-224.5 444.5,-243.5 595.5,-243.5 595.5,-224.5 444.5,-224.5"/>
<text text-anchor="middle" x="520" y="-231.5" font-family="Helvetica,sans-Serif" font-size="10.00">cantera/base/FactoryBase.h</text>
</a>
</g>
</g>
<!-- Node2&#45;&gt;Node3 -->
<g id="edge2" class="edge">
<title>Node2&#45;&gt;Node3</title>
<path fill="none" stroke="midnightblue" d="M455.14,-280.4C468.39,-271.13 485.68,-259.03 499.08,-249.65"/>
<polygon fill="midnightblue" stroke="midnightblue" points="501.45,-252.26 507.63,-243.66 497.43,-246.53 501.45,-252.26"/>
</g>
<!-- Node22 -->
<g id="node14" class="node">
<title>Node22</title>
<g id="a_node14"><a xlink:href="../../d5/dff/FlowDevice_8h.html" target="_top" xlink:title=" ">
<polygon fill="white" stroke="black" points="235,-224.5 235,-243.5 389,-243.5 389,-224.5 235,-224.5"/>
<text text-anchor="middle" x="312" y="-231.5" font-family="Helvetica,sans-Serif" font-size="10.00">cantera/zeroD/FlowDevice.h</text>
</a>
</g>
</g>
<!-- Node2&#45;&gt;Node22 -->
<g id="edge16" class="edge">
<title>Node2&#45;&gt;Node22</title>
<path fill="none" stroke="midnightblue" d="M405.85,-280.4C385.58,-270.59 358.76,-257.62 338.98,-248.05"/>
<polygon fill="midnightblue" stroke="midnightblue" points="340.42,-244.86 329.9,-243.66 337.38,-251.16 340.42,-244.86"/>
</g>
<!-- Node4 -->
<g id="node4" class="node">
<title>Node4</title>
<g id="a_node4"><a xlink:title=" ">
<polygon fill="white" stroke="#bfbfbf" points="222.5,-0.5 222.5,-19.5 269.5,-19.5 269.5,-0.5 222.5,-0.5"/>
<text text-anchor="middle" x="246" y="-7.5" font-family="Helvetica,sans-Serif" font-size="10.00">vector</text>
</a>
</g>
</g>
<!-- Node3&#45;&gt;Node4 -->
<g id="edge3" class="edge">
<title>Node3&#45;&gt;Node4</title>
<path fill="none" stroke="midnightblue" d="M519.28,-224.2C517.81,-210.91 513.47,-185.39 501,-168 444.38,-89.06 334.54,-41.71 279.36,-21.89"/>
<polygon fill="midnightblue" stroke="midnightblue" points="280.31,-18.52 269.71,-18.51 277.99,-25.12 280.31,-18.52"/>
</g>
<!-- Node5 -->
<g id="node5" class="node">
<title>Node5</title>
<g id="a_node5"><a xlink:title=" ">
<polygon fill="white" stroke="#bfbfbf" points="548,-168.5 548,-187.5 596,-187.5 596,-168.5 548,-168.5"/>
<text text-anchor="middle" x="572" y="-175.5" font-family="Helvetica,sans-Serif" font-size="10.00">mutex</text>
</a>
</g>
</g>
<!-- Node3&#45;&gt;Node5 -->
<g id="edge4" class="edge">
<title>Node3&#45;&gt;Node5</title>
<path fill="none" stroke="midnightblue" d="M528.59,-224.08C536.16,-216.22 547.38,-204.57 556.51,-195.08"/>
<polygon fill="midnightblue" stroke="midnightblue" points="559.16,-197.38 563.57,-187.75 554.12,-192.53 559.16,-197.38"/>
</g>
<!-- Node6 -->
<g id="node6" class="node">
<title>Node6</title>
<g id="a_node6"><a xlink:title=" ">
<polygon fill="white" stroke="#bfbfbf" points="614.5,-168.5 614.5,-187.5 707.5,-187.5 707.5,-168.5 614.5,-168.5"/>
<text text-anchor="middle" x="661" y="-175.5" font-family="Helvetica,sans-Serif" font-size="10.00">unordered_map</text>
</a>
</g>
</g>
<!-- Node3&#45;&gt;Node6 -->
<g id="edge5" class="edge">
<title>Node3&#45;&gt;Node6</title>
<path fill="none" stroke="midnightblue" d="M542.34,-224.44C565.75,-215.48 602.74,-201.31 629.19,-191.18"/>
<polygon fill="midnightblue" stroke="midnightblue" points="630.68,-194.36 638.76,-187.52 628.17,-187.82 630.68,-194.36"/>
</g>
<!-- Node7 -->
<g id="node7" class="node">
<title>Node7</title>
<g id="a_node7"><a xlink:title=" ">
<polygon fill="white" stroke="#bfbfbf" points="725.5,-168.5 725.5,-187.5 790.5,-187.5 790.5,-168.5 725.5,-168.5"/>
<text text-anchor="middle" x="758" y="-175.5" font-family="Helvetica,sans-Serif" font-size="10.00">functional</text>
</a>
</g>
</g>
<!-- Node3&#45;&gt;Node7 -->
<g id="edge6" class="edge">
<title>Node3&#45;&gt;Node7</title>
<path fill="none" stroke="midnightblue" d="M557.71,-224.44C600.64,-214.7 670.59,-198.83 715.44,-188.66"/>
<polygon fill="midnightblue" stroke="midnightblue" points="716.46,-192.01 725.44,-186.39 714.91,-185.19 716.46,-192.01"/>
</g>
<!-- Node8 -->
<g id="node8" class="node">
<title>Node8</title>
<g id="a_node8"><a xlink:href="../../db/d98/ctexceptions_8h.html" target="_top" xlink:title="Definitions for the classes that are thrown when Cantera experiences an error condition (also contain...">
<polygon fill="white" stroke="black" points="198,-168.5 198,-187.5 352,-187.5 352,-168.5 198,-168.5"/>
<text text-anchor="middle" x="275" y="-175.5" font-family="Helvetica,sans-Serif" font-size="10.00">cantera/base/ctexceptions.h</text>
</a>
</g>
</g>
<!-- Node3&#45;&gt;Node8 -->
<g id="edge7" class="edge">
<title>Node3&#45;&gt;Node8</title>
<path fill="none" stroke="midnightblue" d="M481.18,-224.44C438.44,-215.02 369.67,-199.87 323.43,-189.68"/>
<polygon fill="midnightblue" stroke="midnightblue" points="324.16,-186.25 313.64,-187.52 322.65,-193.09 324.16,-186.25"/>
</g>
<!-- Node21 -->
<g id="node13" class="node">
<title>Node21</title>
<g id="a_node13"><a xlink:href="../../d2/d49/global_8h.html" target="_top" xlink:title="This file contains definitions for utility functions and text for modules, inputfiles,...">
<polygon fill="white" stroke="black" points="370,-168.5 370,-187.5 492,-187.5 492,-168.5 370,-168.5"/>
<text text-anchor="middle" x="431" y="-175.5" font-family="Helvetica,sans-Serif" font-size="10.00">cantera/base/global.h</text>
</a>
</g>
</g>
<!-- Node3&#45;&gt;Node21 -->
<g id="edge13" class="edge">
<title>Node3&#45;&gt;Node21</title>
<path fill="none" stroke="midnightblue" d="M505.7,-224.32C491.82,-215.9 470.51,-202.97 454.2,-193.07"/>
<polygon fill="midnightblue" stroke="midnightblue" points="455.63,-189.85 445.26,-187.65 452,-195.83 455.63,-189.85"/>
</g>
<!-- Node9 -->
<g id="node9" class="node">
<title>Node9</title>
<g id="a_node9"><a xlink:href="../../db/def/fmt_8h.html" target="_top" xlink:title="Wrapper for either system&#45;installed or local headers for fmt.">
<polygon fill="white" stroke="red" points="198.5,-112.5 198.5,-131.5 307.5,-131.5 307.5,-112.5 198.5,-112.5"/>
<text text-anchor="middle" x="253" y="-119.5" font-family="Helvetica,sans-Serif" font-size="10.00">cantera/base/fmt.h</text>
</a>
</g>
</g>
<!-- Node8&#45;&gt;Node9 -->
<g id="edge8" class="edge">
<title>Node8&#45;&gt;Node9</title>
<path fill="none" stroke="midnightblue" d="M271.37,-168.08C268.39,-160.77 264.07,-150.18 260.38,-141.1"/>
<polygon fill="midnightblue" stroke="midnightblue" points="263.58,-139.69 256.57,-131.75 257.1,-142.33 263.58,-139.69"/>
</g>
<!-- Node20 -->
<g id="node12" class="node">
<title>Node20</title>
<g id="a_node12"><a xlink:title=" ">
<polygon fill="white" stroke="#bfbfbf" points="325.5,-112.5 325.5,-131.5 390.5,-131.5 390.5,-112.5 325.5,-112.5"/>
<text text-anchor="middle" x="358" y="-119.5" font-family="Helvetica,sans-Serif" font-size="10.00">exception</text>
</a>
</g>
</g>
<!-- Node8&#45;&gt;Node20 -->
<g id="edge12" class="edge">
<title>Node8&#45;&gt;Node20</title>
<path fill="none" stroke="midnightblue" d="M288.34,-168.32C301.16,-159.98 320.78,-147.21 335.94,-137.35"/>
<polygon fill="midnightblue" stroke="midnightblue" points="338.22,-140.04 344.7,-131.65 334.41,-134.17 338.22,-140.04"/>
</g>
<!-- Node10 -->
<g id="node10" class="node">
<title>Node10</title>
<g id="a_node10"><a xlink:href="../../d9/ddc/ct__defs_8h.html" target="_top" xlink:title="This file contains definitions of terms that are used in internal routines and are unlikely to need m...">
<polygon fill="white" stroke="red" points="180.5,-56.5 180.5,-75.5 241.5,-75.5 241.5,-56.5 180.5,-56.5"/>
<text text-anchor="middle" x="211" y="-63.5" font-family="Helvetica,sans-Serif" font-size="10.00">ct_defs.h</text>
</a>
</g>
</g>
<!-- Node9&#45;&gt;Node10 -->
<g id="edge9" class="edge">
<title>Node9&#45;&gt;Node10</title>
<path fill="none" stroke="midnightblue" d="M246.06,-112.08C240.07,-104.38 231.25,-93.03 223.95,-83.65"/>
<polygon fill="midnightblue" stroke="midnightblue" points="226.71,-81.5 217.81,-75.75 221.18,-85.79 226.71,-81.5"/>
</g>
<!-- Node10&#45;&gt;Node4 -->
<g id="edge10" class="edge">
<title>Node10&#45;&gt;Node4</title>
<path fill="none" stroke="midnightblue" d="M216.78,-56.08C221.67,-48.53 228.83,-37.49 234.83,-28.23"/>
<polygon fill="midnightblue" stroke="midnightblue" points="237.83,-30.05 240.33,-19.75 231.95,-26.24 237.83,-30.05"/>
</g>
<!-- Node15 -->
<g id="node11" class="node">
<title>Node15</title>
<g id="a_node11"><a xlink:title=" ">
<polygon fill="white" stroke="#bfbfbf" points="154,-0.5 154,-19.5 198,-19.5 198,-0.5 154,-0.5"/>
<text text-anchor="middle" x="176" y="-7.5" font-family="Helvetica,sans-Serif" font-size="10.00">string</text>
</a>
</g>
</g>
<!-- Node10&#45;&gt;Node15 -->
<g id="edge11" class="edge">
<title>Node10&#45;&gt;Node15</title>
<path fill="none" stroke="midnightblue" d="M205.22,-56.08C200.33,-48.53 193.17,-37.49 187.17,-28.23"/>
<polygon fill="midnightblue" stroke="midnightblue" points="190.05,-26.24 181.67,-19.75 184.17,-30.05 190.05,-26.24"/>
</g>
<!-- Node21&#45;&gt;Node9 -->
<g id="edge15" class="edge">
<title>Node21&#45;&gt;Node9</title>
<path fill="none" stroke="midnightblue" d="M402.8,-168.44C372.59,-159.28 324.49,-144.69 290.97,-134.52"/>
<polygon fill="midnightblue" stroke="midnightblue" points="291.66,-131.07 281.07,-131.52 289.63,-137.77 291.66,-131.07"/>
</g>
<!-- Node21&#45;&gt;Node10 -->
<g id="edge14" class="edge">
<title>Node21&#45;&gt;Node10</title>
<path fill="none" stroke="midnightblue" d="M429.37,-168.36C426.26,-154.31 418.09,-126.62 400,-112 357.56,-77.7 293.27,-68.78 251.71,-66.86"/>
<polygon fill="midnightblue" stroke="midnightblue" points="251.77,-63.36 241.66,-66.51 251.53,-70.36 251.77,-63.36"/>
</g>
<!-- Node22&#45;&gt;Node8 -->
<g id="edge23" class="edge">
<title>Node22&#45;&gt;Node8</title>
<path fill="none" stroke="midnightblue" d="M305.89,-224.08C300.72,-216.53 293.15,-205.49 286.81,-196.23"/>
<polygon fill="midnightblue" stroke="midnightblue" points="289.54,-194.02 281,-187.75 283.76,-197.98 289.54,-194.02"/>
</g>
<!-- Node22&#45;&gt;Node10 -->
<g id="edge17" class="edge">
<title>Node22&#45;&gt;Node10</title>
<path fill="none" stroke="midnightblue" d="M246.77,-224.47C224.73,-218.12 202.35,-207.1 189,-188 166.97,-156.48 186.82,-109.43 200.53,-84.29"/>
<polygon fill="midnightblue" stroke="midnightblue" points="203.62,-85.95 205.56,-75.53 197.55,-82.47 203.62,-85.95"/>
</g>
<!-- Node22&#45;&gt;Node21 -->
<g id="edge18" class="edge">
<title>Node22&#45;&gt;Node21</title>
<path fill="none" stroke="midnightblue" d="M330.86,-224.44C350.27,-215.64 380.73,-201.81 402.96,-191.72"/>
<polygon fill="midnightblue" stroke="midnightblue" points="404.57,-194.84 412.23,-187.52 401.68,-188.46 404.57,-194.84"/>
</g>
<!-- Node23 -->
<g id="node15" class="node">
<title>Node23</title>
<g id="a_node15"><a xlink:href="../../dd/dc3/stringUtils_8h.html" target="_top" xlink:title="Contains declarations for string manipulation functions within Cantera.">
<polygon fill="white" stroke="black" points="0,-168.5 0,-187.5 142,-187.5 142,-168.5 0,-168.5"/>
<text text-anchor="middle" x="71" y="-175.5" font-family="Helvetica,sans-Serif" font-size="10.00">cantera/base/stringUtils.h</text>
</a>
</g>
</g>
<!-- Node22&#45;&gt;Node23 -->
<g id="edge19" class="edge">
<title>Node22&#45;&gt;Node23</title>
<path fill="none" stroke="midnightblue" d="M273.81,-224.44C231.86,-215.04 164.41,-199.93 118.93,-189.74"/>
<polygon fill="midnightblue" stroke="midnightblue" points="119.53,-186.29 109.01,-187.52 118,-193.12 119.53,-186.29"/>
</g>
<!-- Node23&#45;&gt;Node9 -->
<g id="edge21" class="edge">
<title>Node23&#45;&gt;Node9</title>
<path fill="none" stroke="midnightblue" d="M99.84,-168.44C130.86,-159.24 180.33,-144.56 214.62,-134.39"/>
<polygon fill="midnightblue" stroke="midnightblue" points="215.71,-137.72 224.3,-131.52 213.71,-131.01 215.71,-137.72"/>
</g>
<!-- Node23&#45;&gt;Node10 -->
<g id="edge20" class="edge">
<title>Node23&#45;&gt;Node10</title>
<path fill="none" stroke="midnightblue" d="M81.99,-168.37C105.81,-149.65 162.44,-105.15 192.12,-81.83"/>
<polygon fill="midnightblue" stroke="midnightblue" points="194.36,-84.52 200.07,-75.59 190.04,-79.02 194.36,-84.52"/>
</g>
<!-- Node23&#45;&gt;Node15 -->
<g id="edge22" class="edge">
<title>Node23&#45;&gt;Node15</title>
<path fill="none" stroke="midnightblue" d="M76.65,-168.08C93.39,-141.61 142.98,-63.21 165.11,-28.21"/>
<polygon fill="midnightblue" stroke="midnightblue" points="168.19,-29.89 170.58,-19.57 162.28,-26.15 168.19,-29.89"/>
</g>
<!-- Node24&#45;&gt;Node8 -->
<g id="edge26" class="edge">
<title>Node24&#45;&gt;Node8</title>
<path fill="none" stroke="midnightblue" d="M249.84,-285.88C236.96,-272.65 216.11,-246.52 226,-224 231.39,-211.73 241.96,-201.34 251.9,-193.65"/>
<polygon fill="midnightblue" stroke="midnightblue" points="254.25,-196.27 260.34,-187.6 250.17,-190.58 254.25,-196.27"/>
</g>
<!-- Node24&#45;&gt;Node22 -->
<g id="edge25" class="edge">
<title>Node24&#45;&gt;Node22</title>
<path fill="none" stroke="midnightblue" d="M266.59,-285.98C274.7,-276.87 287.73,-262.24 297.76,-250.98"/>
<polygon fill="midnightblue" stroke="midnightblue" points="300.38,-253.3 304.42,-243.51 295.16,-248.65 300.38,-253.3"/>
</g>
</g>
</svg>
