<?xml version="1.0" encoding="UTF-8" standalone="no"?>
<!DOCTYPE svg PUBLIC "-//W3C//DTD SVG 1.1//EN"
 "http://www.w3.org/Graphics/SVG/1.1/DTD/svg11.dtd">
<!-- Generated by graphviz version 2.40.1 (20161225.0304)
 -->
<!-- Title: HighPressureGasTransport.cpp Pages: 1 -->
<svg width="863pt" height="677pt"
 viewBox="0.00 0.00 863.00 677.00" xmlns="http://www.w3.org/2000/svg" xmlns:xlink="http://www.w3.org/1999/xlink">
<g id="graph0" class="graph" transform="scale(1 1) rotate(0) translate(4 673)">
<title>HighPressureGasTransport.cpp</title>
<polygon fill="#ffffff" stroke="transparent" points="-4,4 -4,-673 859,-673 859,4 -4,4"/>
<!-- Node0 -->
<g id="node1" class="node">
<title>Node0</title>
<polygon fill="#bfbfbf" stroke="#000000" points="434,-649.5 434,-668.5 591,-668.5 591,-649.5 434,-649.5"/>
<text text-anchor="middle" x="512.5" y="-656.5" font-family="Helvetica,sans-Serif" font-size="10.00" fill="#000000">HighPressureGasTransport.cpp</text>
</g>
<!-- Node1 -->
<g id="node2" class="node">
<title>Node1</title>
<g id="a_node2"><a xlink:href="../../d0/de4/HighPressureGasTransport_8h.html" target="_top" xlink:title="Interface for class HighPressureGasTransport. ">
<polygon fill="#ffffff" stroke="#000000" points="488,-515.5 488,-545.5 643,-545.5 643,-515.5 488,-515.5"/>
<text text-anchor="start" x="496" y="-533.5" font-family="Helvetica,sans-Serif" font-size="10.00" fill="#000000">cantera/transport/HighPressure</text>
<text text-anchor="middle" x="565.5" y="-522.5" font-family="Helvetica,sans-Serif" font-size="10.00" fill="#000000">GasTransport.h</text>
</a>
</g>
</g>
<!-- Node0&#45;&gt;Node1 -->
<g id="edge1" class="edge">
<title>Node0&#45;&gt;Node1</title>
<path fill="none" stroke="#191970" d="M516.4836,-649.3416C524.6668,-629.5012 543.5895,-583.6227 555.3845,-555.0252"/>
<polygon fill="#191970" stroke="#191970" points="558.6527,-556.2807 559.2301,-545.7016 552.1815,-553.6116 558.6527,-556.2807"/>
</g>
<!-- Node35 -->
<g id="node14" class="node">
<title>Node35</title>
<g id="a_node14"><a xlink:href="../../de/df0/utilities_8h.html" target="_top" xlink:title="Various templated functions that carry out common vector operations (see Templated Utility Functions)...">
<polygon fill="#ffffff" stroke="#ff0000" points="503,-224.5 503,-243.5 558,-243.5 558,-224.5 503,-224.5"/>
<text text-anchor="middle" x="530.5" y="-231.5" font-family="Helvetica,sans-Serif" font-size="10.00" fill="#000000">utilities.h</text>
</a>
</g>
</g>
<!-- Node0&#45;&gt;Node35 -->
<g id="edge24" class="edge">
<title>Node0&#45;&gt;Node35</title>
<path fill="none" stroke="#191970" d="M543.9133,-649.4567C590.2507,-633.2057 671.5,-595.4504 671.5,-530.5 671.5,-530.5 671.5,-530.5 671.5,-346 671.5,-292.8918 609.4091,-260.948 567.634,-245.4662"/>
<polygon fill="#191970" stroke="#191970" points="568.6157,-242.1008 558.0209,-242.0577 566.2763,-248.6984 568.6157,-242.1008"/>
</g>
<!-- Node40 -->
<g id="node15" class="node">
<title>Node40</title>
<g id="a_node15"><a xlink:href="../../da/dd1/MultiTransport_8h.html" target="_top" xlink:title="Interface for class MultiTransport. ">
<polygon fill="#ffffff" stroke="#000000" points="400,-459.5 400,-478.5 567,-478.5 567,-459.5 400,-459.5"/>
<text text-anchor="middle" x="483.5" y="-466.5" font-family="Helvetica,sans-Serif" font-size="10.00" fill="#000000">cantera/transport/MultiTransport.h</text>
</a>
</g>
</g>
<!-- Node0&#45;&gt;Node40 -->
<g id="edge52" class="edge">
<title>Node0&#45;&gt;Node40</title>
<path fill="none" stroke="#191970" d="M508.6186,-649.2329C501.1704,-629.905 485.1138,-585.2493 479.5,-546 477.5492,-532.361 478.9027,-528.7648 479.5,-515 479.8727,-506.4107 480.6352,-496.9445 481.3955,-488.8439"/>
<polygon fill="#191970" stroke="#191970" points="484.8819,-489.1529 482.394,-478.8544 477.9166,-488.4567 484.8819,-489.1529"/>
</g>
<!-- Node41 -->
<g id="node16" class="node">
<title>Node41</title>
<g id="a_node16"><a xlink:href="../../df/d55/ctlapack_8h.html" target="_top" xlink:title="cantera/numerics/ctlapack.h">
<polygon fill="#ffffff" stroke="#000000" points="714,-112.5 714,-131.5 855,-131.5 855,-112.5 714,-112.5"/>
<text text-anchor="middle" x="784.5" y="-119.5" font-family="Helvetica,sans-Serif" font-size="10.00" fill="#000000">cantera/numerics/ctlapack.h</text>
</a>
</g>
</g>
<!-- Node0&#45;&gt;Node41 -->
<g id="edge22" class="edge">
<title>Node0&#45;&gt;Node41</title>
<path fill="none" stroke="#191970" d="M574.0327,-649.4495C608.4352,-642.4898 651.3337,-631.0463 686.5,-613 737.7616,-586.6941 786.5,-588.1173 786.5,-530.5 786.5,-530.5 786.5,-530.5 786.5,-234 786.5,-201.7064 785.6585,-164.1836 785.0672,-141.8029"/>
<polygon fill="#191970" stroke="#191970" points="788.5599,-141.4874 784.7866,-131.5873 781.5626,-141.6797 788.5599,-141.4874"/>
</g>
<!-- Node42 -->
<g id="node17" class="node">
<title>Node42</title>
<g id="a_node17"><a xlink:href="../../d7/d96/TransportParams_8h.html" target="_top" xlink:title="Class that holds the data that is read in from the XML file, and which is used for processing of the ...">
<polygon fill="#ffffff" stroke="#000000" points="357.5,-392.5 357.5,-422.5 495.5,-422.5 495.5,-392.5 357.5,-392.5"/>
<text text-anchor="start" x="365.5" y="-410.5" font-family="Helvetica,sans-Serif" font-size="10.00" fill="#000000">cantera/transport/Transport</text>
<text text-anchor="middle" x="426.5" y="-399.5" font-family="Helvetica,sans-Serif" font-size="10.00" fill="#000000">Params.h</text>
</a>
</g>
</g>
<!-- Node0&#45;&gt;Node42 -->
<g id="edge25" class="edge">
<title>Node0&#45;&gt;Node42</title>
<path fill="none" stroke="#191970" d="M502.6073,-649.2236C477.781,-623.903 413.2098,-552.9836 390.5,-479 385.299,-462.0562 394.2141,-444.2498 404.4717,-430.6453"/>
<polygon fill="#191970" stroke="#191970" points="407.2967,-432.7196 410.9178,-422.7628 401.8779,-428.2883 407.2967,-432.7196"/>
</g>
<!-- Node43 -->
<g id="node18" class="node">
<title>Node43</title>
<g id="a_node18"><a xlink:href="../../de/dbd/IdealGasPhase_8h.html" target="_top" xlink:title="ThermoPhase object for the ideal gas equation of state &#45; workhorse for Cantera (see Thermodynamic Pro...">
<polygon fill="#ffffff" stroke="#000000" points="0,-588 0,-607 163,-607 163,-588 0,-588"/>
<text text-anchor="middle" x="81.5" y="-595" font-family="Helvetica,sans-Serif" font-size="10.00" fill="#000000">cantera/thermo/IdealGasPhase.h</text>
</a>
</g>
</g>
<!-- Node0&#45;&gt;Node43 -->
<g id="edge28" class="edge">
<title>Node0&#45;&gt;Node43</title>
<path fill="none" stroke="#191970" d="M436.4348,-649.4659C367.4585,-640.6403 263.0318,-626.8302 172.5,-613 163.8672,-611.6812 154.7863,-610.2215 145.8394,-608.7407"/>
<polygon fill="#191970" stroke="#191970" points="146.2662,-605.2636 135.8259,-607.0663 145.1117,-612.1677 146.2662,-605.2636"/>
</g>
<!-- Node44 -->
<g id="node19" class="node">
<title>Node44</title>
<g id="a_node19"><a xlink:href="../../d3/da4/TransportFactory_8h.html" target="_top" xlink:title="Header file defining class TransportFactory (see TransportFactory) ">
<polygon fill="#ffffff" stroke="#000000" points="181.5,-582.5 181.5,-612.5 319.5,-612.5 319.5,-582.5 181.5,-582.5"/>
<text text-anchor="start" x="189.5" y="-600.5" font-family="Helvetica,sans-Serif" font-size="10.00" fill="#000000">cantera/transport/Transport</text>
<text text-anchor="middle" x="250.5" y="-589.5" font-family="Helvetica,sans-Serif" font-size="10.00" fill="#000000">Factory.h</text>
</a>
</g>
</g>
<!-- Node0&#45;&gt;Node44 -->
<g id="edge30" class="edge">
<title>Node0&#45;&gt;Node44</title>
<path fill="none" stroke="#191970" d="M471.85,-649.4581C432.6001,-640.2449 372.2521,-626.0792 324.4765,-614.8647"/>
<polygon fill="#191970" stroke="#191970" points="325.02,-611.3972 314.4847,-612.5193 323.4203,-618.212 325.02,-611.3972"/>
</g>
<!-- Node54 -->
<g id="node28" class="node">
<title>Node54</title>
<g id="a_node28"><a xlink:href="../../dd/dc3/stringUtils_8h.html" target="_top" xlink:title="Contains declarations for string manipulation functions within Cantera. ">
<polygon fill="#ffffff" stroke="#000000" points="629,-168.5 629,-187.5 758,-187.5 758,-168.5 629,-168.5"/>
<text text-anchor="middle" x="693.5" y="-175.5" font-family="Helvetica,sans-Serif" font-size="10.00" fill="#000000">cantera/base/stringUtils.h</text>
</a>
</g>
</g>
<!-- Node0&#45;&gt;Node54 -->
<g id="edge48" class="edge">
<title>Node0&#45;&gt;Node54</title>
<path fill="none" stroke="#191970" d="M561.4497,-649.4504C619.7938,-634.8931 709.5,-601.041 709.5,-530.5 709.5,-530.5 709.5,-530.5 709.5,-290 709.5,-257.2342 702.7061,-219.6134 697.9725,-197.3778"/>
<polygon fill="#191970" stroke="#191970" points="701.3698,-196.5307 695.7924,-187.5228 694.5351,-198.0428 701.3698,-196.5307"/>
</g>
<!-- Node2 -->
<g id="node3" class="node">
<title>Node2</title>
<g id="a_node3"><a xlink:href="../../d1/d2e/GasTransport_8h.html" target="_top" xlink:title="GasTransport.h">
<polygon fill="#ffffff" stroke="#000000" points="513.5,-398 513.5,-417 599.5,-417 599.5,-398 513.5,-398"/>
<text text-anchor="middle" x="556.5" y="-405" font-family="Helvetica,sans-Serif" font-size="10.00" fill="#000000">GasTransport.h</text>
</a>
</g>
</g>
<!-- Node1&#45;&gt;Node2 -->
<g id="edge2" class="edge">
<title>Node1&#45;&gt;Node2</title>
<path fill="none" stroke="#191970" d="M570.792,-515.3868C575.1712,-500.882 580.1312,-478.3808 576.5,-459 574.3986,-447.7842 569.931,-435.8706 565.7503,-426.33"/>
<polygon fill="#191970" stroke="#191970" points="568.8321,-424.6557 561.4519,-417.0541 562.4808,-427.5989 568.8321,-424.6557"/>
</g>
<!-- Node33 -->
<g id="node11" class="node">
<title>Node33</title>
<g id="a_node11"><a xlink:href="../../d1/df7/DenseMatrix_8h.html" target="_top" xlink:title="Headers for the DenseMatrix object, which deals with dense rectangular matrices and description of th...">
<polygon fill="#ffffff" stroke="#000000" points="456.5,-336.5 456.5,-355.5 616.5,-355.5 616.5,-336.5 456.5,-336.5"/>
<text text-anchor="middle" x="536.5" y="-343.5" font-family="Helvetica,sans-Serif" font-size="10.00" fill="#000000">cantera/numerics/DenseMatrix.h</text>
</a>
</g>
</g>
<!-- Node1&#45;&gt;Node33 -->
<g id="edge19" class="edge">
<title>Node1&#45;&gt;Node33</title>
<path fill="none" stroke="#191970" d="M577.8034,-515.1622C597.3905,-488.7478 631.24,-433.5132 608.5,-392 600.7413,-377.836 586.5591,-367.3995 572.8205,-360.0818"/>
<polygon fill="#191970" stroke="#191970" points="573.9854,-356.7555 563.4644,-355.5066 570.9102,-363.0438 573.9854,-356.7555"/>
</g>
<!-- Node1&#45;&gt;Node40 -->
<g id="edge20" class="edge">
<title>Node1&#45;&gt;Node40</title>
<path fill="none" stroke="#191970" d="M545.2303,-515.2977C532.8994,-506.0495 517.1734,-494.2551 504.6803,-484.8853"/>
<polygon fill="#191970" stroke="#191970" points="506.7293,-482.047 496.6292,-478.8469 502.5292,-487.647 506.7293,-482.047"/>
</g>
<!-- Node3 -->
<g id="node4" class="node">
<title>Node3</title>
<g id="a_node4"><a xlink:href="../../da/dbb/TransportBase_8h.html" target="_top" xlink:title="Headers for the Transport object, which is the virtual base class for all transport property evaluato...">
<polygon fill="#ffffff" stroke="#000000" points="198.5,-336.5 198.5,-355.5 288.5,-355.5 288.5,-336.5 198.5,-336.5"/>
<text text-anchor="middle" x="243.5" y="-343.5" font-family="Helvetica,sans-Serif" font-size="10.00" fill="#000000">TransportBase.h</text>
</a>
</g>
</g>
<!-- Node2&#45;&gt;Node3 -->
<g id="edge3" class="edge">
<title>Node2&#45;&gt;Node3</title>
<path fill="none" stroke="#191970" d="M526.6863,-397.9719C519.467,-395.8429 511.7425,-393.7116 504.5,-392 434.1855,-375.3825 351.9285,-361.8434 298.8369,-353.8585"/>
<polygon fill="#191970" stroke="#191970" points="299.0262,-350.3482 288.6196,-352.3364 297.9947,-357.2718 299.0262,-350.3482"/>
</g>
<!-- Node2&#45;&gt;Node33 -->
<g id="edge11" class="edge">
<title>Node2&#45;&gt;Node33</title>
<path fill="none" stroke="#191970" d="M553.375,-397.8906C550.5735,-389.276 546.3767,-376.3708 542.8694,-365.5858"/>
<polygon fill="#191970" stroke="#191970" points="546.0902,-364.1722 539.6691,-355.7449 539.4333,-366.3371 546.0902,-364.1722"/>
</g>
<!-- Node4 -->
<g id="node5" class="node">
<title>Node4</title>
<g id="a_node5"><a xlink:href="../../d7/d01/ThermoPhase_8h.html" target="_top" xlink:title="Header file for class ThermoPhase, the base class for phases with thermodynamic properties, and the text for the Module thermoprops (see Thermodynamic Properties and class ThermoPhase). ">
<polygon fill="#ffffff" stroke="#ff0000" points="147.5,-280.5 147.5,-299.5 305.5,-299.5 305.5,-280.5 147.5,-280.5"/>
<text text-anchor="middle" x="226.5" y="-287.5" font-family="Helvetica,sans-Serif" font-size="10.00" fill="#000000">cantera/thermo/ThermoPhase.h</text>
</a>
</g>
</g>
<!-- Node3&#45;&gt;Node4 -->
<g id="edge4" class="edge">
<title>Node3&#45;&gt;Node4</title>
<path fill="none" stroke="#191970" d="M240.5388,-336.2455C238.2962,-328.8579 235.1423,-318.4689 232.3919,-309.4087"/>
<polygon fill="#191970" stroke="#191970" points="235.6812,-308.1948 229.4272,-299.6427 228.983,-310.2282 235.6812,-308.1948"/>
</g>
<!-- Node23 -->
<g id="node6" class="node">
<title>Node23</title>
<g id="a_node6"><a xlink:href="../../d2/d49/global_8h.html" target="_top" xlink:title="This file contains definitions for utility functions and text for modules, inputfiles, logs, textlogs, (see Input File Handling, Diagnostic Output, and Writing messages to the screen). ">
<polygon fill="#ffffff" stroke="#000000" points="262.5,-168.5 262.5,-187.5 374.5,-187.5 374.5,-168.5 262.5,-168.5"/>
<text text-anchor="middle" x="318.5" y="-175.5" font-family="Helvetica,sans-Serif" font-size="10.00" fill="#000000">cantera/base/global.h</text>
</a>
</g>
</g>
<!-- Node4&#45;&gt;Node23 -->
<g id="edge5" class="edge">
<title>Node4&#45;&gt;Node23</title>
<path fill="none" stroke="#191970" d="M232.7471,-280.2557C241.357,-267.0638 257.615,-242.9895 273.5,-224 281.9518,-213.8965 292.1639,-203.3419 300.722,-194.8951"/>
<polygon fill="#191970" stroke="#191970" points="303.2867,-197.2831 308.0186,-187.8037 298.4081,-192.2633 303.2867,-197.2831"/>
</g>
<!-- Node8 -->
<g id="node7" class="node">
<title>Node8</title>
<g id="a_node7"><a xlink:href="../../d9/ddc/ct__defs_8h.html" target="_top" xlink:title="This file contains definitions of terms that are used in internal routines and are unlikely to need m...">
<polygon fill="#ffffff" stroke="#ff0000" points="553,-56.5 553,-75.5 610,-75.5 610,-56.5 553,-56.5"/>
<text text-anchor="middle" x="581.5" y="-63.5" font-family="Helvetica,sans-Serif" font-size="10.00" fill="#000000">ct_defs.h</text>
</a>
</g>
</g>
<!-- Node23&#45;&gt;Node8 -->
<g id="edge6" class="edge">
<title>Node23&#45;&gt;Node8</title>
<path fill="none" stroke="#191970" d="M329.985,-168.3157C347.41,-154.0746 382.0487,-127.4993 415.5,-112 457.0579,-92.7445 508.3056,-80.0644 542.7744,-72.984"/>
<polygon fill="#191970" stroke="#191970" points="543.7806,-76.3524 552.9037,-70.9653 542.4124,-69.4874 543.7806,-76.3524"/>
</g>
<!-- Node7 -->
<g id="node10" class="node">
<title>Node7</title>
<g id="a_node10"><a xlink:href="../../db/def/fmt_8h.html" target="_top" xlink:title="Wrapper for either system&#45;installed or local headers for fmt. ">
<polygon fill="#ffffff" stroke="#ff0000" points="425,-112.5 425,-131.5 524,-131.5 524,-112.5 425,-112.5"/>
<text text-anchor="middle" x="474.5" y="-119.5" font-family="Helvetica,sans-Serif" font-size="10.00" fill="#000000">cantera/base/fmt.h</text>
</a>
</g>
</g>
<!-- Node23&#45;&gt;Node7 -->
<g id="edge9" class="edge">
<title>Node23&#45;&gt;Node7</title>
<path fill="none" stroke="#191970" d="M345.3174,-168.3733C371.0332,-159.1419 410.038,-145.1402 438.4599,-134.9375"/>
<polygon fill="#191970" stroke="#191970" points="439.8032,-138.174 448.0326,-131.5011 437.4381,-131.5857 439.8032,-138.174"/>
</g>
<!-- Node12 -->
<g id="node8" class="node">
<title>Node12</title>
<polygon fill="#ffffff" stroke="#bfbfbf" points="261.5,-.5 261.5,-19.5 305.5,-19.5 305.5,-.5 261.5,-.5"/>
<text text-anchor="middle" x="283.5" y="-7.5" font-family="Helvetica,sans-Serif" font-size="10.00" fill="#000000">vector</text>
</g>
<!-- Node8&#45;&gt;Node12 -->
<g id="edge7" class="edge">
<title>Node8&#45;&gt;Node12</title>
<path fill="none" stroke="#191970" d="M552.9265,-60.6305C497.2469,-50.1672 374.554,-27.1108 315.9281,-16.0939"/>
<polygon fill="#191970" stroke="#191970" points="316.232,-12.5898 305.7575,-14.1826 314.9391,-19.4694 316.232,-12.5898"/>
</g>
<!-- Node14 -->
<g id="node9" class="node">
<title>Node14</title>
<polygon fill="#ffffff" stroke="#bfbfbf" points="599,-.5 599,-19.5 640,-19.5 640,-.5 599,-.5"/>
<text text-anchor="middle" x="619.5" y="-7.5" font-family="Helvetica,sans-Serif" font-size="10.00" fill="#000000">string</text>
</g>
<!-- Node8&#45;&gt;Node14 -->
<g id="edge8" class="edge">
<title>Node8&#45;&gt;Node14</title>
<path fill="none" stroke="#191970" d="M588.1191,-56.2455C593.4046,-48.4564 600.9541,-37.3308 607.3238,-27.9439"/>
<polygon fill="#191970" stroke="#191970" points="610.2379,-29.8827 612.9568,-19.6427 604.4455,-25.9522 610.2379,-29.8827"/>
</g>
<!-- Node7&#45;&gt;Node8 -->
<g id="edge10" class="edge">
<title>Node7&#45;&gt;Node8</title>
<path fill="none" stroke="#191970" d="M493.138,-112.2455C509.9386,-103.4527 534.8634,-90.4079 553.9618,-80.4125"/>
<polygon fill="#191970" stroke="#191970" points="555.8386,-83.3807 563.0756,-75.6427 552.5927,-77.1787 555.8386,-83.3807"/>
</g>
<!-- Node33&#45;&gt;Node8 -->
<g id="edge12" class="edge">
<title>Node33&#45;&gt;Node8</title>
<path fill="none" stroke="#191970" d="M548.9187,-336.3196C559.0665,-327.7851 573.0666,-314.4813 581.5,-300 596.8615,-273.6224 600.5,-264.5246 600.5,-234 600.5,-234 600.5,-234 600.5,-178 600.5,-145.2688 592.5148,-107.9052 586.8978,-85.6716"/>
<polygon fill="#191970" stroke="#191970" points="590.2289,-84.5763 584.3035,-75.7934 583.4585,-86.3545 590.2289,-84.5763"/>
</g>
<!-- Node6 -->
<g id="node12" class="node">
<title>Node6</title>
<g id="a_node12"><a xlink:href="../../db/d98/ctexceptions_8h.html" target="_top" xlink:title="Definitions for the classes that are thrown when Cantera experiences an error condition (also contain...">
<polygon fill="#ffffff" stroke="#ff0000" points="393,-168.5 393,-187.5 534,-187.5 534,-168.5 393,-168.5"/>
<text text-anchor="middle" x="463.5" y="-175.5" font-family="Helvetica,sans-Serif" font-size="10.00" fill="#000000">cantera/base/ctexceptions.h</text>
</a>
</g>
</g>
<!-- Node33&#45;&gt;Node6 -->
<g id="edge13" class="edge">
<title>Node33&#45;&gt;Node6</title>
<path fill="none" stroke="#191970" d="M502.6035,-336.4632C484.6299,-329.4893 464.1198,-318.0275 453.5,-300 434.6234,-267.9564 446.2276,-222.7118 455.4608,-197.2884"/>
<polygon fill="#191970" stroke="#191970" points="458.8256,-198.2915 459.1769,-187.7024 452.2989,-195.7613 458.8256,-198.2915"/>
</g>
<!-- Node34 -->
<g id="node13" class="node">
<title>Node34</title>
<g id="a_node13"><a xlink:href="../../df/dd0/Array_8h.html" target="_top" xlink:title="Header file for class Cantera::Array2D. ">
<polygon fill="#ffffff" stroke="#ff0000" points="463,-280.5 463,-299.5 572,-299.5 572,-280.5 463,-280.5"/>
<text text-anchor="middle" x="517.5" y="-287.5" font-family="Helvetica,sans-Serif" font-size="10.00" fill="#000000">cantera/base/Array.h</text>
</a>
</g>
</g>
<!-- Node33&#45;&gt;Node34 -->
<g id="edge15" class="edge">
<title>Node33&#45;&gt;Node34</title>
<path fill="none" stroke="#191970" d="M533.1905,-336.2455C530.6567,-328.7776 527.0823,-318.2427 523.985,-309.1137"/>
<polygon fill="#191970" stroke="#191970" points="527.2991,-307.9879 520.7716,-299.6427 520.6702,-310.237 527.2991,-307.9879"/>
</g>
<!-- Node6&#45;&gt;Node7 -->
<g id="edge14" class="edge">
<title>Node6&#45;&gt;Node7</title>
<path fill="none" stroke="#191970" d="M465.4161,-168.2455C466.8514,-160.9382 468.8636,-150.6944 470.6295,-141.7046"/>
<polygon fill="#191970" stroke="#191970" points="474.1127,-142.1298 472.6059,-131.6427 467.244,-140.7805 474.1127,-142.1298"/>
</g>
<!-- Node34&#45;&gt;Node35 -->
<g id="edge16" class="edge">
<title>Node34&#45;&gt;Node35</title>
<path fill="none" stroke="#191970" d="M519.7644,-280.2455C521.4794,-272.8579 523.8912,-262.4689 525.9944,-253.4087"/>
<polygon fill="#191970" stroke="#191970" points="529.4095,-254.1751 528.2615,-243.6427 522.5908,-252.5922 529.4095,-254.1751"/>
</g>
<!-- Node35&#45;&gt;Node23 -->
<g id="edge18" class="edge">
<title>Node35&#45;&gt;Node23</title>
<path fill="none" stroke="#191970" d="M502.7847,-226.679C467.6643,-217.4019 406.6388,-201.282 364.4907,-190.1485"/>
<polygon fill="#191970" stroke="#191970" points="365.3031,-186.7431 354.7408,-187.573 363.5153,-193.511 365.3031,-186.7431"/>
</g>
<!-- Node35&#45;&gt;Node8 -->
<g id="edge17" class="edge">
<title>Node35&#45;&gt;Node8</title>
<path fill="none" stroke="#191970" d="M533.3881,-224.4862C541.4849,-197.8144 564.5268,-121.9117 575.5212,-85.695"/>
<polygon fill="#191970" stroke="#191970" points="578.9607,-86.4134 578.5165,-75.8279 572.2626,-84.38 578.9607,-86.4134"/>
</g>
<!-- Node40&#45;&gt;Node2 -->
<g id="edge21" class="edge">
<title>Node40&#45;&gt;Node2</title>
<path fill="none" stroke="#191970" d="M494.9063,-459.3906C506.1969,-449.8786 523.6967,-435.1357 537.1619,-423.7917"/>
<polygon fill="#191970" stroke="#191970" points="539.5402,-426.3646 544.9329,-417.2449 535.0301,-421.0111 539.5402,-426.3646"/>
</g>
<!-- Node41&#45;&gt;Node8 -->
<g id="edge23" class="edge">
<title>Node41&#45;&gt;Node8</title>
<path fill="none" stroke="#191970" d="M749.6031,-112.3733C713.5437,-102.4259 657.4048,-86.9393 620.0546,-76.6358"/>
<polygon fill="#191970" stroke="#191970" points="620.6212,-73.1614 610.0505,-73.876 618.7596,-79.9093 620.6212,-73.1614"/>
</g>
<!-- Node42&#45;&gt;Node3 -->
<g id="edge27" class="edge">
<title>Node42&#45;&gt;Node3</title>
<path fill="none" stroke="#191970" d="M381.7332,-392.4554C351.0652,-382.149 310.8229,-368.6249 281.6728,-358.8286"/>
<polygon fill="#191970" stroke="#191970" points="282.4525,-355.3983 271.8585,-355.5303 280.2226,-362.0336 282.4525,-355.3983"/>
</g>
<!-- Node42&#45;&gt;Node33 -->
<g id="edge26" class="edge">
<title>Node42&#45;&gt;Node33</title>
<path fill="none" stroke="#191970" d="M453.409,-392.4554C470.7968,-382.734 493.3049,-370.15 510.5084,-360.5317"/>
<polygon fill="#191970" stroke="#191970" points="512.4335,-363.4653 519.4539,-355.5303 509.0174,-357.3554 512.4335,-363.4653"/>
</g>
<!-- Node43&#45;&gt;Node4 -->
<g id="edge29" class="edge">
<title>Node43&#45;&gt;Node4</title>
<path fill="none" stroke="#191970" d="M81.5,-587.8281C81.5,-566.4175 81.5,-513.395 81.5,-469 81.5,-469 81.5,-469 81.5,-407.5 81.5,-353.4291 143.1156,-319.9228 186.0161,-303.1468"/>
<polygon fill="#191970" stroke="#191970" points="187.2622,-306.4175 195.3939,-299.6259 184.8017,-299.8642 187.2622,-306.4175"/>
</g>
<!-- Node44&#45;&gt;Node3 -->
<g id="edge31" class="edge">
<title>Node44&#45;&gt;Node3</title>
<path fill="none" stroke="#191970" d="M215.4676,-582.3603C200.6138,-573.9673 184.8344,-561.9543 176.5,-546 144.8089,-485.3344 144.6166,-452.5648 176.5,-392 183.6929,-378.3365 196.9802,-367.9486 209.8367,-360.5328"/>
<polygon fill="#191970" stroke="#191970" points="211.8368,-363.4336 219.0288,-355.6538 208.555,-357.2506 211.8368,-363.4336"/>
</g>
<!-- Node45 -->
<g id="node20" class="node">
<title>Node45</title>
<g id="a_node20"><a xlink:href="../../d6/dd5/FactoryBase_8h.html" target="_top" xlink:title="File contains the FactoryBase class declarations. ">
<polygon fill="#ffffff" stroke="#000000" points="52.5,-224.5 52.5,-243.5 194.5,-243.5 194.5,-224.5 52.5,-224.5"/>
<text text-anchor="middle" x="123.5" y="-231.5" font-family="Helvetica,sans-Serif" font-size="10.00" fill="#000000">cantera/base/FactoryBase.h</text>
</a>
</g>
</g>
<!-- Node44&#45;&gt;Node45 -->
<g id="edge32" class="edge">
<title>Node44&#45;&gt;Node45</title>
<path fill="none" stroke="#191970" d="M213.0955,-582.396C195.2164,-573.7679 174.4986,-561.5467 159.5,-546 132.7245,-518.246 119.5,-507.5644 119.5,-469 119.5,-469 119.5,-469 119.5,-346 119.5,-313.691 121.183,-276.1727 122.3656,-253.7971"/>
<polygon fill="#191970" stroke="#191970" points="125.8728,-253.7613 122.9269,-243.5843 118.8833,-253.3771 125.8728,-253.7613"/>
</g>
<!-- Node48 -->
<g id="node24" class="node">
<title>Node48</title>
<g id="a_node24"><a xlink:href="../../dd/d7e/LiquidTransportParams_8h.html" target="_top" xlink:title="Header file defining class LiquidTransportParams. ">
<polygon fill="#ffffff" stroke="#000000" points="186,-521 186,-540 315,-540 315,-521 186,-521"/>
<text text-anchor="middle" x="250.5" y="-528" font-family="Helvetica,sans-Serif" font-size="10.00" fill="#000000">LiquidTransportParams.h</text>
</a>
</g>
</g>
<!-- Node44&#45;&gt;Node48 -->
<g id="edge39" class="edge">
<title>Node44&#45;&gt;Node48</title>
<path fill="none" stroke="#191970" d="M250.5,-582.2967C250.5,-572.7699 250.5,-560.3954 250.5,-550.1306"/>
<polygon fill="#191970" stroke="#191970" points="254.0001,-550.0549 250.5,-540.055 247.0001,-550.055 254.0001,-550.0549"/>
</g>
<!-- Node45&#45;&gt;Node23 -->
<g id="edge38" class="edge">
<title>Node45&#45;&gt;Node23</title>
<path fill="none" stroke="#191970" d="M157.0217,-224.3733C189.8683,-214.9404 240.0595,-200.5265 275.7578,-190.2747"/>
<polygon fill="#191970" stroke="#191970" points="276.7703,-193.6255 285.4157,-187.5011 274.8381,-186.8974 276.7703,-193.6255"/>
</g>
<!-- Node45&#45;&gt;Node12 -->
<g id="edge33" class="edge">
<title>Node45&#45;&gt;Node12</title>
<path fill="none" stroke="#191970" d="M70.2549,-224.4155C32.5372,-214.9385 -8.5656,-197.4868 8.5,-168 61.8191,-75.8728 191.4271,-32.786 251.7014,-17.2092"/>
<polygon fill="#191970" stroke="#191970" points="252.5839,-20.5964 261.4379,-14.7779 250.8879,-13.805 252.5839,-20.5964"/>
</g>
<!-- Node45&#45;&gt;Node6 -->
<g id="edge37" class="edge">
<title>Node45&#45;&gt;Node6</title>
<path fill="none" stroke="#191970" d="M181.5618,-224.4369C240.8503,-214.6717 332.8384,-199.5207 395.4965,-189.2006"/>
<polygon fill="#191970" stroke="#191970" points="396.3795,-192.6024 405.6777,-187.5237 395.2418,-185.6954 396.3795,-192.6024"/>
</g>
<!-- Node46 -->
<g id="node21" class="node">
<title>Node46</title>
<polygon fill="#ffffff" stroke="#bfbfbf" points="17.5,-168.5 17.5,-187.5 61.5,-187.5 61.5,-168.5 17.5,-168.5"/>
<text text-anchor="middle" x="39.5" y="-175.5" font-family="Helvetica,sans-Serif" font-size="10.00" fill="#000000">mutex</text>
</g>
<!-- Node45&#45;&gt;Node46 -->
<g id="edge34" class="edge">
<title>Node45&#45;&gt;Node46</title>
<path fill="none" stroke="#191970" d="M108.8683,-224.2455C96.1006,-215.7337 77.3562,-203.2375 62.5701,-193.3801"/>
<polygon fill="#191970" stroke="#191970" points="64.226,-190.2775 53.964,-187.6427 60.3431,-196.1019 64.226,-190.2775"/>
</g>
<!-- Node24 -->
<g id="node22" class="node">
<title>Node24</title>
<polygon fill="#ffffff" stroke="#bfbfbf" points="80,-168.5 80,-187.5 167,-187.5 167,-168.5 80,-168.5"/>
<text text-anchor="middle" x="123.5" y="-175.5" font-family="Helvetica,sans-Serif" font-size="10.00" fill="#000000">unordered_map</text>
</g>
<!-- Node45&#45;&gt;Node24 -->
<g id="edge35" class="edge">
<title>Node45&#45;&gt;Node24</title>
<path fill="none" stroke="#191970" d="M123.5,-224.2455C123.5,-216.9382 123.5,-206.6944 123.5,-197.7046"/>
<polygon fill="#191970" stroke="#191970" points="127.0001,-197.6426 123.5,-187.6427 120.0001,-197.6427 127.0001,-197.6426"/>
</g>
<!-- Node47 -->
<g id="node23" class="node">
<title>Node47</title>
<polygon fill="#ffffff" stroke="#bfbfbf" points="185,-168.5 185,-187.5 244,-187.5 244,-168.5 185,-168.5"/>
<text text-anchor="middle" x="214.5" y="-175.5" font-family="Helvetica,sans-Serif" font-size="10.00" fill="#000000">functional</text>
</g>
<!-- Node45&#45;&gt;Node47 -->
<g id="edge36" class="edge">
<title>Node45&#45;&gt;Node47</title>
<path fill="none" stroke="#191970" d="M139.351,-224.2455C153.3132,-215.6534 173.8728,-203.0014 189.9596,-193.1018"/>
<polygon fill="#191970" stroke="#191970" points="192.1484,-195.8645 198.8307,-187.6427 188.4797,-189.9029 192.1484,-195.8645"/>
</g>
<!-- Node48&#45;&gt;Node42 -->
<g id="edge40" class="edge">
<title>Node48&#45;&gt;Node42</title>
<path fill="none" stroke="#191970" d="M264.3104,-520.8484C292.7129,-500.999 358.2338,-455.2088 396.7441,-428.2953"/>
<polygon fill="#191970" stroke="#191970" points="398.7987,-431.1295 404.9905,-422.5322 394.7888,-425.3918 398.7987,-431.1295"/>
</g>
<!-- Node49 -->
<g id="node25" class="node">
<title>Node49</title>
<g id="a_node25"><a xlink:href="../../d7/d81/LiquidTranInteraction_8h.html" target="_top" xlink:title="Header file defining the class LiquidTranInteraction and classes which derive from LiquidTranInteract...">
<polygon fill="#ffffff" stroke="#000000" points="186,-459.5 186,-478.5 305,-478.5 305,-459.5 186,-459.5"/>
<text text-anchor="middle" x="245.5" y="-466.5" font-family="Helvetica,sans-Serif" font-size="10.00" fill="#000000">LiquidTranInteraction.h</text>
</a>
</g>
</g>
<!-- Node48&#45;&gt;Node49 -->
<g id="edge41" class="edge">
<title>Node48&#45;&gt;Node49</title>
<path fill="none" stroke="#191970" d="M249.7188,-520.8906C249.0257,-512.3657 247.991,-499.6392 247.1198,-488.9235"/>
<polygon fill="#191970" stroke="#191970" points="250.5912,-488.4283 246.2923,-478.7449 243.6142,-488.9956 250.5912,-488.4283"/>
</g>
<!-- Node49&#45;&gt;Node42 -->
<g id="edge42" class="edge">
<title>Node49&#45;&gt;Node42</title>
<path fill="none" stroke="#191970" d="M273.7813,-459.3906C300.0919,-450.4508 340.0012,-436.8905 372.4239,-425.8739"/>
<polygon fill="#191970" stroke="#191970" points="373.8801,-429.0757 382.2224,-422.5446 371.628,-422.4479 373.8801,-429.0757"/>
</g>
<!-- Node50 -->
<g id="node26" class="node">
<title>Node50</title>
<g id="a_node26"><a xlink:href="../../d7/d6c/LiquidTransportData_8h.html" target="_top" xlink:title="Header file defining class LiquidTransportData. ">
<polygon fill="#ffffff" stroke="#ff0000" points="186,-398 186,-417 301,-417 301,-398 186,-398"/>
<text text-anchor="middle" x="243.5" y="-405" font-family="Helvetica,sans-Serif" font-size="10.00" fill="#000000">LiquidTransportData.h</text>
</a>
</g>
</g>
<!-- Node49&#45;&gt;Node50 -->
<g id="edge43" class="edge">
<title>Node49&#45;&gt;Node50</title>
<path fill="none" stroke="#191970" d="M245.1875,-459.3906C244.9103,-450.8657 244.4964,-438.1392 244.1479,-427.4235"/>
<polygon fill="#191970" stroke="#191970" points="247.6402,-427.1258 243.8169,-417.2449 240.6439,-427.3534 247.6402,-427.1258"/>
</g>
<!-- Node53 -->
<g id="node27" class="node">
<title>Node53</title>
<g id="a_node27"><a xlink:href="../../d0/d62/xml_8h.html" target="_top" xlink:title="Classes providing support for XML data files. ">
<polygon fill="#ffffff" stroke="#000000" points="283,-224.5 283,-243.5 384,-243.5 384,-224.5 283,-224.5"/>
<text text-anchor="middle" x="333.5" y="-231.5" font-family="Helvetica,sans-Serif" font-size="10.00" fill="#000000">cantera/base/xml.h</text>
</a>
</g>
</g>
<!-- Node49&#45;&gt;Node53 -->
<g id="edge45" class="edge">
<title>Node49&#45;&gt;Node53</title>
<path fill="none" stroke="#191970" d="M266.9773,-459.3642C281.479,-451.6749 299.701,-439.4608 309.5,-423 341.7129,-368.8875 339.2857,-290.723 335.926,-254.2142"/>
<polygon fill="#191970" stroke="#191970" points="339.3692,-253.4881 334.8452,-243.9077 332.4073,-254.2183 339.3692,-253.4881"/>
</g>
<!-- Node50&#45;&gt;Node3 -->
<g id="edge44" class="edge">
<title>Node50&#45;&gt;Node3</title>
<path fill="none" stroke="#191970" d="M243.5,-397.8906C243.5,-389.3657 243.5,-376.6392 243.5,-365.9235"/>
<polygon fill="#191970" stroke="#191970" points="247.0001,-365.7448 243.5,-355.7449 240.0001,-365.7449 247.0001,-365.7448"/>
</g>
<!-- Node53&#45;&gt;Node23 -->
<g id="edge47" class="edge">
<title>Node53&#45;&gt;Node23</title>
<path fill="none" stroke="#191970" d="M330.8872,-224.2455C328.9084,-216.8579 326.1256,-206.4689 323.6988,-197.4087"/>
<polygon fill="#191970" stroke="#191970" points="327.0511,-196.3966 321.0829,-187.6427 320.2895,-198.2078 327.0511,-196.3966"/>
</g>
<!-- Node53&#45;&gt;Node6 -->
<g id="edge46" class="edge">
<title>Node53&#45;&gt;Node6</title>
<path fill="none" stroke="#191970" d="M355.8478,-224.3733C376.9033,-215.3032 408.6495,-201.6279 432.2175,-191.4755"/>
<polygon fill="#191970" stroke="#191970" points="433.6444,-194.6719 441.4438,-187.5011 430.875,-188.243 433.6444,-194.6719"/>
</g>
<!-- Node54&#45;&gt;Node8 -->
<g id="edge49" class="edge">
<title>Node54&#45;&gt;Node8</title>
<path fill="none" stroke="#191970" d="M683.9509,-168.4509C664.9401,-149.4401 622.1423,-106.6423 598.316,-82.816"/>
<polygon fill="#191970" stroke="#191970" points="600.5709,-80.1211 591.0249,-75.5249 595.6211,-85.0709 600.5709,-80.1211"/>
</g>
<!-- Node54&#45;&gt;Node14 -->
<g id="edge51" class="edge">
<title>Node54&#45;&gt;Node14</title>
<path fill="none" stroke="#191970" d="M689.3094,-168.4862C677.5105,-141.6994 643.8392,-65.2565 627.9699,-29.2289"/>
<polygon fill="#191970" stroke="#191970" points="631.0631,-27.5686 623.8289,-19.8279 624.657,-30.3903 631.0631,-27.5686"/>
</g>
<!-- Node54&#45;&gt;Node7 -->
<g id="edge50" class="edge">
<title>Node54&#45;&gt;Node7</title>
<path fill="none" stroke="#191970" d="M655.8526,-168.3733C618.648,-158.8598 561.6297,-144.2797 521.4784,-134.0127"/>
<polygon fill="#191970" stroke="#191970" points="522.2116,-130.5877 511.6562,-131.5011 520.4773,-137.3695 522.2116,-130.5877"/>
</g>
</g>
</svg>
