<?xml version="1.0" encoding="UTF-8" standalone="no"?>
<!DOCTYPE svg PUBLIC "-//W3C//DTD SVG 1.1//EN"
 "http://www.w3.org/Graphics/SVG/1.1/DTD/svg11.dtd">
<!-- Generated by graphviz version 2.40.1 (20161225.0304)
 -->
<!-- Title: ThermoFactory.h Pages: 1 -->
<svg width="905pt" height="476pt"
 viewBox="0.00 0.00 904.64 476.00" xmlns="http://www.w3.org/2000/svg" xmlns:xlink="http://www.w3.org/1999/xlink">
<g id="graph0" class="graph" transform="scale(1 1) rotate(0) translate(4 472)">
<title>ThermoFactory.h</title>
<polygon fill="#ffffff" stroke="transparent" points="-4,4 -4,-472 900.6402,-472 900.6402,4 -4,4"/>
<!-- Node0 -->
<g id="node1" class="node">
<title>Node0</title>
<polygon fill="#bfbfbf" stroke="#000000" points="341.5,-448.5 341.5,-467.5 434.5,-467.5 434.5,-448.5 341.5,-448.5"/>
<text text-anchor="middle" x="388" y="-455.5" font-family="Helvetica,sans-Serif" font-size="10.00" fill="#000000">ThermoFactory.h</text>
</g>
<!-- Node1 -->
<g id="node2" class="node">
<title>Node1</title>
<g id="a_node2"><a xlink:href="../../d7/d01/ThermoPhase_8h.html" target="_top" xlink:title="Header file for class ThermoPhase, the base class for phases with thermodynamic properties, and the text for the Module thermoprops (see Thermodynamic Properties and class ThermoPhase). ">
<polygon fill="#ffffff" stroke="#000000" points="210,-392.5 210,-411.5 298,-411.5 298,-392.5 210,-392.5"/>
<text text-anchor="middle" x="254" y="-399.5" font-family="Helvetica,sans-Serif" font-size="10.00" fill="#000000">ThermoPhase.h</text>
</a>
</g>
</g>
<!-- Node0&#45;&gt;Node1 -->
<g id="edge1" class="edge">
<title>Node0&#45;&gt;Node1</title>
<path fill="none" stroke="#191970" d="M364.9646,-448.3733C343.2612,-439.3032 310.5382,-425.6279 286.245,-415.4755"/>
<polygon fill="#191970" stroke="#191970" points="287.3111,-412.1278 276.7348,-411.5011 284.6119,-418.5865 287.3111,-412.1278"/>
</g>
<!-- Node30 -->
<g id="node19" class="node">
<title>Node30</title>
<g id="a_node19"><a xlink:href="../../d0/d62/xml_8h.html" target="_top" xlink:title="Classes providing support for XML data files. ">
<polygon fill="#ffffff" stroke="#000000" points="321.5,-224.5 321.5,-243.5 422.5,-243.5 422.5,-224.5 321.5,-224.5"/>
<text text-anchor="middle" x="372" y="-231.5" font-family="Helvetica,sans-Serif" font-size="10.00" fill="#000000">cantera/base/xml.h</text>
</a>
</g>
</g>
<!-- Node0&#45;&gt;Node30 -->
<g id="edge30" class="edge">
<title>Node0&#45;&gt;Node30</title>
<path fill="none" stroke="#191970" d="M387.3125,-448.375C384.8918,-414.4851 376.7308,-300.2317 373.4167,-253.8332"/>
<polygon fill="#191970" stroke="#191970" points="376.8886,-253.3143 372.6849,-243.5891 369.9064,-253.8131 376.8886,-253.3143"/>
</g>
<!-- Node31 -->
<g id="node20" class="node">
<title>Node31</title>
<g id="a_node20"><a xlink:href="../../d6/dd5/FactoryBase_8h.html" target="_top" xlink:title="File contains the FactoryBase class declarations. ">
<polygon fill="#ffffff" stroke="#000000" points="743,-224.5 743,-243.5 885,-243.5 885,-224.5 743,-224.5"/>
<text text-anchor="middle" x="814" y="-231.5" font-family="Helvetica,sans-Serif" font-size="10.00" fill="#000000">cantera/base/FactoryBase.h</text>
</a>
</g>
</g>
<!-- Node0&#45;&gt;Node31 -->
<g id="edge33" class="edge">
<title>Node0&#45;&gt;Node31</title>
<path fill="none" stroke="#191970" d="M406.3047,-448.375C473.4871,-413.0491 706.73,-290.4049 786.7819,-248.3118"/>
<polygon fill="#191970" stroke="#191970" points="788.5414,-251.3411 795.7635,-243.5891 785.2836,-245.1454 788.5414,-251.3411"/>
</g>
<!-- Node2 -->
<g id="node3" class="node">
<title>Node2</title>
<g id="a_node3"><a xlink:href="../../da/d84/Phase_8h.html" target="_top" xlink:title="Header file for class Phase. ">
<polygon fill="#ffffff" stroke="#000000" points="424.5,-336.5 424.5,-355.5 477.5,-355.5 477.5,-336.5 424.5,-336.5"/>
<text text-anchor="middle" x="451" y="-343.5" font-family="Helvetica,sans-Serif" font-size="10.00" fill="#000000">Phase.h</text>
</a>
</g>
</g>
<!-- Node1&#45;&gt;Node2 -->
<g id="edge2" class="edge">
<title>Node1&#45;&gt;Node2</title>
<path fill="none" stroke="#191970" d="M287.8655,-392.3733C323.1607,-382.3401 378.2794,-366.6718 414.5182,-356.3704"/>
<polygon fill="#191970" stroke="#191970" points="415.5447,-359.7174 424.2066,-353.6164 413.6307,-352.9842 415.5447,-359.7174"/>
</g>
<!-- Node20 -->
<g id="node12" class="node">
<title>Node20</title>
<g id="a_node12"><a xlink:href="../../d2/d49/global_8h.html" target="_top" xlink:title="This file contains definitions for utility functions and text for modules, inputfiles, logs, textlogs, (see Input File Handling, Diagnostic Output, and Writing messages to the screen). ">
<polygon fill="#ffffff" stroke="#000000" points="214,-168.5 214,-187.5 326,-187.5 326,-168.5 214,-168.5"/>
<text text-anchor="middle" x="270" y="-175.5" font-family="Helvetica,sans-Serif" font-size="10.00" fill="#000000">cantera/base/global.h</text>
</a>
</g>
</g>
<!-- Node1&#45;&gt;Node20 -->
<g id="edge29" class="edge">
<title>Node1&#45;&gt;Node20</title>
<path fill="none" stroke="#191970" d="M246.3735,-392.3554C231.1777,-371.9414 199.5321,-322.7294 211,-280 219.652,-247.7625 241.2417,-215.1846 255.763,-195.7953"/>
<polygon fill="#191970" stroke="#191970" points="258.723,-197.6879 262.0509,-187.6293 253.1767,-193.4172 258.723,-197.6879"/>
</g>
<!-- Node27 -->
<g id="node16" class="node">
<title>Node27</title>
<g id="a_node16"><a xlink:href="../../d6/d7a/MultiSpeciesThermo_8h.html" target="_top" xlink:title="Header for a general species thermodynamic property manager for a phase (see MultiSpeciesThermo). ">
<polygon fill="#ffffff" stroke="#000000" points="45,-336.5 45,-355.5 161,-355.5 161,-336.5 45,-336.5"/>
<text text-anchor="middle" x="103" y="-343.5" font-family="Helvetica,sans-Serif" font-size="10.00" fill="#000000">MultiSpeciesThermo.h</text>
</a>
</g>
</g>
<!-- Node1&#45;&gt;Node27 -->
<g id="edge23" class="edge">
<title>Node1&#45;&gt;Node27</title>
<path fill="none" stroke="#191970" d="M228.0422,-392.3733C203.2593,-383.1822 165.7254,-369.2624 138.246,-359.0713"/>
<polygon fill="#191970" stroke="#191970" points="139.2121,-355.6968 128.6191,-355.5011 136.7781,-362.26 139.2121,-355.6968"/>
</g>
<!-- Node3 -->
<g id="node4" class="node">
<title>Node3</title>
<g id="a_node4"><a xlink:href="../../db/d98/ctexceptions_8h.html" target="_top" xlink:title="Definitions for the classes that are thrown when Cantera experiences an error condition (also contain...">
<polygon fill="#ffffff" stroke="#000000" points="344.5,-168.5 344.5,-187.5 485.5,-187.5 485.5,-168.5 344.5,-168.5"/>
<text text-anchor="middle" x="415" y="-175.5" font-family="Helvetica,sans-Serif" font-size="10.00" fill="#000000">cantera/base/ctexceptions.h</text>
</a>
</g>
</g>
<!-- Node2&#45;&gt;Node3 -->
<g id="edge3" class="edge">
<title>Node2&#45;&gt;Node3</title>
<path fill="none" stroke="#191970" d="M450.16,-336.3764C448.2031,-315.5948 442.6751,-265.0786 432,-224 429.6511,-214.9614 426.1942,-205.2234 423.0099,-197.0447"/>
<polygon fill="#191970" stroke="#191970" points="426.2202,-195.6473 419.2262,-187.689 419.7308,-198.2718 426.2202,-195.6473"/>
</g>
<!-- Node17 -->
<g id="node9" class="node">
<title>Node17</title>
<g id="a_node9"><a xlink:href="../../d9/dda/Elements_8h.html" target="_top" xlink:title="Contains the getElementWeight function and the definitions of element constraint types. ">
<polygon fill="#ffffff" stroke="#000000" points="724.5,-112.5 724.5,-131.5 861.5,-131.5 861.5,-112.5 724.5,-112.5"/>
<text text-anchor="middle" x="793" y="-119.5" font-family="Helvetica,sans-Serif" font-size="10.00" fill="#000000">cantera/thermo/Elements.h</text>
</a>
</g>
</g>
<!-- Node2&#45;&gt;Node17 -->
<g id="edge8" class="edge">
<title>Node2&#45;&gt;Node17</title>
<path fill="none" stroke="#191970" d="M477.5404,-343.0255C511.95,-338.236 572.8876,-326.5134 618,-300 655.671,-277.8601 742.5815,-180.1508 777.7827,-139.665"/>
<polygon fill="#191970" stroke="#191970" points="780.5707,-141.7921 784.4731,-131.9422 775.2799,-137.2087 780.5707,-141.7921"/>
</g>
<!-- Node18 -->
<g id="node10" class="node">
<title>Node18</title>
<g id="a_node10"><a xlink:href="../../d7/dd9/Species_8h.html" target="_top" xlink:title="Declaration for class Cantera::Species. ">
<polygon fill="#ffffff" stroke="#000000" points="479,-280.5 479,-299.5 609,-299.5 609,-280.5 479,-280.5"/>
<text text-anchor="middle" x="544" y="-287.5" font-family="Helvetica,sans-Serif" font-size="10.00" fill="#000000">cantera/thermo/Species.h</text>
</a>
</g>
</g>
<!-- Node2&#45;&gt;Node18 -->
<g id="edge10" class="edge">
<title>Node2&#45;&gt;Node18</title>
<path fill="none" stroke="#191970" d="M467.1994,-336.2455C481.6018,-327.5731 502.8732,-314.7645 519.3799,-304.825"/>
<polygon fill="#191970" stroke="#191970" points="521.225,-307.7996 527.9863,-299.6427 517.614,-301.8028 521.225,-307.7996"/>
</g>
<!-- Node25 -->
<g id="node14" class="node">
<title>Node25</title>
<g id="a_node14"><a xlink:href="../../d6/df6/ValueCache_8h.html" target="_top" xlink:title="cantera/base/ValueCache.h">
<polygon fill="#ffffff" stroke="#000000" points="220,-280.5 220,-299.5 360,-299.5 360,-280.5 220,-280.5"/>
<text text-anchor="middle" x="290" y="-287.5" font-family="Helvetica,sans-Serif" font-size="10.00" fill="#000000">cantera/base/ValueCache.h</text>
</a>
</g>
</g>
<!-- Node2&#45;&gt;Node25 -->
<g id="edge20" class="edge">
<title>Node2&#45;&gt;Node25</title>
<path fill="none" stroke="#191970" d="M424.4141,-336.7527C397.8538,-327.5144 356.8016,-313.2353 327.0523,-302.8878"/>
<polygon fill="#191970" stroke="#191970" points="328.0288,-299.5218 317.434,-299.5423 325.7292,-306.1333 328.0288,-299.5218"/>
</g>
<!-- Node4 -->
<g id="node5" class="node">
<title>Node4</title>
<g id="a_node5"><a xlink:href="../../db/def/fmt_8h.html" target="_top" xlink:title="Wrapper for either system&#45;installed or local headers for fmt. ">
<polygon fill="#ffffff" stroke="#ff0000" points="306.5,-112.5 306.5,-131.5 405.5,-131.5 405.5,-112.5 306.5,-112.5"/>
<text text-anchor="middle" x="356" y="-119.5" font-family="Helvetica,sans-Serif" font-size="10.00" fill="#000000">cantera/base/fmt.h</text>
</a>
</g>
</g>
<!-- Node3&#45;&gt;Node4 -->
<g id="edge4" class="edge">
<title>Node3&#45;&gt;Node4</title>
<path fill="none" stroke="#191970" d="M404.723,-168.2455C396.1782,-160.1352 383.8222,-148.4075 373.6915,-138.7919"/>
<polygon fill="#191970" stroke="#191970" points="375.8218,-135.9884 366.1592,-131.6427 371.0028,-141.0655 375.8218,-135.9884"/>
</g>
<!-- Node16 -->
<g id="node8" class="node">
<title>Node16</title>
<polygon fill="#ffffff" stroke="#bfbfbf" points="423.5,-112.5 423.5,-131.5 482.5,-131.5 482.5,-112.5 423.5,-112.5"/>
<text text-anchor="middle" x="453" y="-119.5" font-family="Helvetica,sans-Serif" font-size="10.00" fill="#000000">exception</text>
</g>
<!-- Node3&#45;&gt;Node16 -->
<g id="edge7" class="edge">
<title>Node3&#45;&gt;Node16</title>
<path fill="none" stroke="#191970" d="M421.6191,-168.2455C426.9046,-160.4564 434.4541,-149.3308 440.8238,-139.9439"/>
<polygon fill="#191970" stroke="#191970" points="443.7379,-141.8827 446.4568,-131.6427 437.9455,-137.9522 443.7379,-141.8827"/>
</g>
<!-- Node5 -->
<g id="node6" class="node">
<title>Node5</title>
<g id="a_node6"><a xlink:href="../../d9/ddc/ct__defs_8h.html" target="_top" xlink:title="This file contains definitions of terms that are used in internal routines and are unlikely to need m...">
<polygon fill="#ffffff" stroke="#ff0000" points="408.5,-56.5 408.5,-75.5 465.5,-75.5 465.5,-56.5 408.5,-56.5"/>
<text text-anchor="middle" x="437" y="-63.5" font-family="Helvetica,sans-Serif" font-size="10.00" fill="#000000">ct_defs.h</text>
</a>
</g>
</g>
<!-- Node4&#45;&gt;Node5 -->
<g id="edge5" class="edge">
<title>Node4&#45;&gt;Node5</title>
<path fill="none" stroke="#191970" d="M370.1091,-112.2455C382.4209,-103.7337 400.4958,-91.2375 414.7538,-81.3801"/>
<polygon fill="#191970" stroke="#191970" points="416.8174,-84.2085 423.0526,-75.6427 412.8366,-78.4506 416.8174,-84.2085"/>
</g>
<!-- Node9 -->
<g id="node7" class="node">
<title>Node9</title>
<polygon fill="#ffffff" stroke="#bfbfbf" points="674,-.5 674,-19.5 718,-19.5 718,-.5 674,-.5"/>
<text text-anchor="middle" x="696" y="-7.5" font-family="Helvetica,sans-Serif" font-size="10.00" fill="#000000">vector</text>
</g>
<!-- Node5&#45;&gt;Node9 -->
<g id="edge6" class="edge">
<title>Node5&#45;&gt;Node9</title>
<path fill="none" stroke="#191970" d="M465.7071,-59.7931C514.5014,-49.2429 613.2582,-27.8901 664.1254,-16.8918"/>
<polygon fill="#191970" stroke="#191970" points="664.8903,-20.3074 673.9248,-14.773 663.411,-13.4655 664.8903,-20.3074"/>
</g>
<!-- Node17&#45;&gt;Node5 -->
<g id="edge9" class="edge">
<title>Node17&#45;&gt;Node5</title>
<path fill="none" stroke="#191970" d="M732.2059,-112.4369C658.8038,-100.8905 537.5338,-81.8143 475.762,-72.0974"/>
<polygon fill="#191970" stroke="#191970" points="476.0819,-68.6048 465.6594,-70.5082 474.9941,-75.5197 476.0819,-68.6048"/>
</g>
<!-- Node18&#45;&gt;Node5 -->
<g id="edge11" class="edge">
<title>Node18&#45;&gt;Node5</title>
<path fill="none" stroke="#191970" d="M561.7533,-280.4212C596.2377,-260.5198 666.5731,-212.8121 639,-168 603.4196,-110.1745 523.8213,-83.938 475.8508,-72.9932"/>
<polygon fill="#191970" stroke="#191970" points="476.3461,-69.5195 465.832,-70.8246 474.8652,-76.361 476.3461,-69.5195"/>
</g>
<!-- Node19 -->
<g id="node11" class="node">
<title>Node19</title>
<g id="a_node11"><a xlink:href="../../dd/d2a/AnyMap_8h.html" target="_top" xlink:title="cantera/base/AnyMap.h">
<polygon fill="#ffffff" stroke="#ff0000" points="481,-224.5 481,-243.5 603,-243.5 603,-224.5 481,-224.5"/>
<text text-anchor="middle" x="542" y="-231.5" font-family="Helvetica,sans-Serif" font-size="10.00" fill="#000000">cantera/base/AnyMap.h</text>
</a>
</g>
</g>
<!-- Node18&#45;&gt;Node19 -->
<g id="edge12" class="edge">
<title>Node18&#45;&gt;Node19</title>
<path fill="none" stroke="#191970" d="M543.6516,-280.2455C543.3907,-272.9382 543.0248,-262.6944 542.7037,-253.7046"/>
<polygon fill="#191970" stroke="#191970" points="546.1992,-253.5113 542.3444,-243.6427 539.2036,-253.7613 546.1992,-253.5113"/>
</g>
<!-- Node19&#45;&gt;Node3 -->
<g id="edge17" class="edge">
<title>Node19&#45;&gt;Node3</title>
<path fill="none" stroke="#191970" d="M520.1679,-224.3733C499.6897,-215.3435 468.8601,-201.7494 445.8681,-191.6111"/>
<polygon fill="#191970" stroke="#191970" points="447.1093,-188.3333 436.5472,-187.5011 444.285,-194.7383 447.1093,-188.3333"/>
</g>
<!-- Node19&#45;&gt;Node5 -->
<g id="edge13" class="edge">
<title>Node19&#45;&gt;Node5</title>
<path fill="none" stroke="#191970" d="M539.7495,-224.3445C534.3437,-202.6278 519.0311,-148.9485 492,-112 483.4167,-100.2676 471.219,-89.6668 460.4907,-81.6067"/>
<polygon fill="#191970" stroke="#191970" points="462.4608,-78.7124 452.299,-75.7142 458.3732,-84.395 462.4608,-78.7124"/>
</g>
<!-- Node19&#45;&gt;Node9 -->
<g id="edge18" class="edge">
<title>Node19&#45;&gt;Node9</title>
<path fill="none" stroke="#191970" d="M578.7162,-224.4641C599.0383,-217.4521 623.2883,-205.9521 639,-188 679.6879,-141.5102 691.3828,-65.7144 694.7048,-29.9191"/>
<polygon fill="#191970" stroke="#191970" points="698.2064,-30.038 695.5153,-19.7906 691.2287,-29.4795 698.2064,-30.038"/>
</g>
<!-- Node19&#45;&gt;Node20 -->
<g id="edge14" class="edge">
<title>Node19&#45;&gt;Node20</title>
<path fill="none" stroke="#191970" d="M495.5506,-224.4369C448.7065,-214.7925 376.3461,-199.8948 326.2738,-189.5858"/>
<polygon fill="#191970" stroke="#191970" points="326.7582,-186.1122 316.2578,-187.5237 325.3466,-192.9684 326.7582,-186.1122"/>
</g>
<!-- Node21 -->
<g id="node13" class="node">
<title>Node21</title>
<polygon fill="#ffffff" stroke="#bfbfbf" points="542.5,-168.5 542.5,-187.5 629.5,-187.5 629.5,-168.5 542.5,-168.5"/>
<text text-anchor="middle" x="586" y="-175.5" font-family="Helvetica,sans-Serif" font-size="10.00" fill="#000000">unordered_map</text>
</g>
<!-- Node19&#45;&gt;Node21 -->
<g id="edge19" class="edge">
<title>Node19&#45;&gt;Node21</title>
<path fill="none" stroke="#191970" d="M549.6642,-224.2455C555.8473,-216.3761 564.7063,-205.101 572.1289,-195.6542"/>
<polygon fill="#191970" stroke="#191970" points="574.9975,-197.6683 578.4236,-187.6427 569.4932,-193.3435 574.9975,-197.6683"/>
</g>
<!-- Node20&#45;&gt;Node4 -->
<g id="edge16" class="edge">
<title>Node20&#45;&gt;Node4</title>
<path fill="none" stroke="#191970" d="M284.9801,-168.2455C298.1751,-159.6534 317.6051,-147.0014 332.8079,-137.1018"/>
<polygon fill="#191970" stroke="#191970" points="334.7215,-140.0325 341.1916,-131.6427 330.9017,-134.1665 334.7215,-140.0325"/>
</g>
<!-- Node20&#45;&gt;Node5 -->
<g id="edge15" class="edge">
<title>Node20&#45;&gt;Node5</title>
<path fill="none" stroke="#191970" d="M271.4904,-168.492C274.2172,-154.2335 281.3414,-127.3513 298,-112 325.7102,-86.4645 367.938,-75.0778 398.578,-70.0163"/>
<polygon fill="#191970" stroke="#191970" points="399.1164,-73.4748 408.4871,-68.531 398.0787,-66.5522 399.1164,-73.4748"/>
</g>
<!-- Node25&#45;&gt;Node5 -->
<g id="edge21" class="edge">
<title>Node25&#45;&gt;Node5</title>
<path fill="none" stroke="#191970" d="M274.4443,-280.4902C244.1962,-260.7159 182.3243,-213.2304 205,-168 240.6605,-96.8691 341.7144,-75.3338 397.9748,-68.8198"/>
<polygon fill="#191970" stroke="#191970" points="398.6856,-72.2645 408.2649,-67.7383 397.9538,-65.3029 398.6856,-72.2645"/>
</g>
<!-- Node26 -->
<g id="node15" class="node">
<title>Node26</title>
<polygon fill="#ffffff" stroke="#bfbfbf" points="264.5,-224.5 264.5,-243.5 303.5,-243.5 303.5,-224.5 264.5,-224.5"/>
<text text-anchor="middle" x="284" y="-231.5" font-family="Helvetica,sans-Serif" font-size="10.00" fill="#000000">limits</text>
</g>
<!-- Node25&#45;&gt;Node26 -->
<g id="edge22" class="edge">
<title>Node25&#45;&gt;Node26</title>
<path fill="none" stroke="#191970" d="M288.9549,-280.2455C288.172,-272.9382 287.0744,-262.6944 286.1112,-253.7046"/>
<polygon fill="#191970" stroke="#191970" points="289.5786,-253.2129 285.0331,-243.6427 282.6185,-253.9587 289.5786,-253.2129"/>
</g>
<!-- Node28 -->
<g id="node17" class="node">
<title>Node28</title>
<g id="a_node17"><a xlink:href="../../d4/d87/SpeciesThermoInterpType_8h.html" target="_top" xlink:title="Pure Virtual Base class for individual species reference state thermodynamic managers and text for th...">
<polygon fill="#ffffff" stroke="#000000" points="20.5,-224.5 20.5,-243.5 163.5,-243.5 163.5,-224.5 20.5,-224.5"/>
<text text-anchor="middle" x="92" y="-231.5" font-family="Helvetica,sans-Serif" font-size="10.00" fill="#000000">SpeciesThermoInterpType.h</text>
</a>
</g>
</g>
<!-- Node27&#45;&gt;Node28 -->
<g id="edge24" class="edge">
<title>Node27&#45;&gt;Node28</title>
<path fill="none" stroke="#191970" d="M102.0621,-336.4509C100.2681,-318.184 96.317,-277.9553 93.9346,-253.6976"/>
<polygon fill="#191970" stroke="#191970" points="97.3962,-253.1349 92.9355,-243.5249 90.4298,-253.8191 97.3962,-253.1349"/>
</g>
<!-- Node28&#45;&gt;Node3 -->
<g id="edge27" class="edge">
<title>Node28&#45;&gt;Node3</title>
<path fill="none" stroke="#191970" d="M147.1587,-224.4369C203.3667,-214.6918 290.5112,-199.5832 350.0282,-189.2645"/>
<polygon fill="#191970" stroke="#191970" points="350.8137,-192.6806 360.0688,-187.5237 349.6179,-185.7835 350.8137,-192.6806"/>
</g>
<!-- Node28&#45;&gt;Node5 -->
<g id="edge25" class="edge">
<title>Node28&#45;&gt;Node5</title>
<path fill="none" stroke="#191970" d="M100.4173,-224.483C108.2475,-215.4179 120.0234,-201.2305 129,-188 150.7895,-155.8847 140.2767,-134.3563 172,-112 207.7946,-86.7745 333.3853,-73.8202 397.98,-68.6966"/>
<polygon fill="#191970" stroke="#191970" points="398.4725,-72.1692 408.1748,-67.9129 397.9359,-65.1897 398.4725,-72.1692"/>
</g>
<!-- Node28&#45;&gt;Node20 -->
<g id="edge28" class="edge">
<title>Node28&#45;&gt;Node20</title>
<path fill="none" stroke="#191970" d="M122.5993,-224.3733C152.3261,-215.021 197.6159,-200.7725 230.1456,-190.5385"/>
<polygon fill="#191970" stroke="#191970" points="231.3113,-193.8409 239.8,-187.5011 229.2105,-187.1636 231.3113,-193.8409"/>
</g>
<!-- Node29 -->
<g id="node18" class="node">
<title>Node29</title>
<g id="a_node18"><a xlink:href="../../d4/d0c/speciesThermoTypes_8h.html" target="_top" xlink:title="Contains const definitions for types of species reference&#45;state thermodynamics managers (see Species ...">
<polygon fill="#ffffff" stroke="#000000" points="0,-168.5 0,-187.5 120,-187.5 120,-168.5 0,-168.5"/>
<text text-anchor="middle" x="60" y="-175.5" font-family="Helvetica,sans-Serif" font-size="10.00" fill="#000000">speciesThermoTypes.h</text>
</a>
</g>
</g>
<!-- Node28&#45;&gt;Node29 -->
<g id="edge26" class="edge">
<title>Node28&#45;&gt;Node29</title>
<path fill="none" stroke="#191970" d="M86.426,-224.2455C82.0669,-216.617 75.8789,-205.7881 70.5867,-196.5267"/>
<polygon fill="#191970" stroke="#191970" points="73.5104,-194.5886 65.5101,-187.6427 67.4327,-198.0616 73.5104,-194.5886"/>
</g>
<!-- Node30&#45;&gt;Node3 -->
<g id="edge31" class="edge">
<title>Node30&#45;&gt;Node3</title>
<path fill="none" stroke="#191970" d="M379.49,-224.2455C385.5326,-216.3761 394.1903,-205.101 401.4441,-195.6542"/>
<polygon fill="#191970" stroke="#191970" points="404.2815,-197.7058 407.5958,-187.6427 398.7295,-193.4426 404.2815,-197.7058"/>
</g>
<!-- Node30&#45;&gt;Node20 -->
<g id="edge32" class="edge">
<title>Node30&#45;&gt;Node20</title>
<path fill="none" stroke="#191970" d="M354.233,-224.2455C338.2905,-215.4928 314.6741,-202.527 296.5011,-192.5496"/>
<polygon fill="#191970" stroke="#191970" points="298.0137,-189.3873 287.5634,-187.6427 294.6448,-195.5233 298.0137,-189.3873"/>
</g>
<!-- Node31&#45;&gt;Node3 -->
<g id="edge38" class="edge">
<title>Node31&#45;&gt;Node3</title>
<path fill="none" stroke="#191970" d="M745.8628,-224.4369C675.7121,-214.5912 566.552,-199.2705 492.9918,-188.9462"/>
<polygon fill="#191970" stroke="#191970" points="493.2456,-185.4476 482.8562,-187.5237 492.2726,-192.3797 493.2456,-185.4476"/>
</g>
<!-- Node31&#45;&gt;Node9 -->
<g id="edge34" class="edge">
<title>Node31&#45;&gt;Node9</title>
<path fill="none" stroke="#191970" d="M845.5032,-224.3744C862.8159,-217.2912 882.796,-205.7494 893,-188 906.2389,-164.9715 878.2434,-120.4493 871,-112 831.8157,-66.2924 766.7751,-36.1014 727.9857,-21.1153"/>
<polygon fill="#191970" stroke="#191970" points="728.845,-17.6995 718.2529,-17.4618 726.3849,-24.253 728.845,-17.6995"/>
</g>
<!-- Node31&#45;&gt;Node20 -->
<g id="edge39" class="edge">
<title>Node31&#45;&gt;Node20</title>
<path fill="none" stroke="#191970" d="M742.6018,-228.3497C651.061,-220.8319 487.1948,-206.4548 336.0754,-187.9439"/>
<polygon fill="#191970" stroke="#191970" points="336.494,-184.4691 326.1407,-186.7187 335.6371,-191.4165 336.494,-184.4691"/>
</g>
<!-- Node31&#45;&gt;Node21 -->
<g id="edge36" class="edge">
<title>Node31&#45;&gt;Node21</title>
<path fill="none" stroke="#191970" d="M775.0645,-224.4369C736.208,-214.8932 676.407,-200.2052 634.4911,-189.9101"/>
<polygon fill="#191970" stroke="#191970" points="635.3212,-186.51 624.7749,-187.5237 633.6514,-193.308 635.3212,-186.51"/>
</g>
<!-- Node32 -->
<g id="node21" class="node">
<title>Node32</title>
<polygon fill="#ffffff" stroke="#bfbfbf" points="762,-168.5 762,-187.5 806,-187.5 806,-168.5 762,-168.5"/>
<text text-anchor="middle" x="784" y="-175.5" font-family="Helvetica,sans-Serif" font-size="10.00" fill="#000000">mutex</text>
</g>
<!-- Node31&#45;&gt;Node32 -->
<g id="edge35" class="edge">
<title>Node31&#45;&gt;Node32</title>
<path fill="none" stroke="#191970" d="M808.7744,-224.2455C804.6877,-216.617 798.8865,-205.7881 793.925,-196.5267"/>
<polygon fill="#191970" stroke="#191970" points="796.9732,-194.8047 789.1657,-187.6427 790.8028,-198.1103 796.9732,-194.8047"/>
</g>
<!-- Node33 -->
<g id="node22" class="node">
<title>Node33</title>
<polygon fill="#ffffff" stroke="#bfbfbf" points="824.5,-168.5 824.5,-187.5 883.5,-187.5 883.5,-168.5 824.5,-168.5"/>
<text text-anchor="middle" x="854" y="-175.5" font-family="Helvetica,sans-Serif" font-size="10.00" fill="#000000">functional</text>
</g>
<!-- Node31&#45;&gt;Node33 -->
<g id="edge37" class="edge">
<title>Node31&#45;&gt;Node33</title>
<path fill="none" stroke="#191970" d="M820.9675,-224.2455C826.5311,-216.4564 834.478,-205.3308 841.1829,-195.9439"/>
<polygon fill="#191970" stroke="#191970" points="844.148,-197.8144 847.1124,-187.6427 838.4519,-193.7457 844.148,-197.8144"/>
</g>
</g>
</svg>
