<?xml version="1.0" encoding="UTF-8" standalone="no"?>
<!DOCTYPE svg PUBLIC "-//W3C//DTD SVG 1.1//EN"
 "http://www.w3.org/Graphics/SVG/1.1/DTD/svg11.dtd">
<!-- Generated by graphviz version 2.40.1 (20161225.0304)
 -->
<!-- Title: WaterPropsIAPWSphi.h Pages: 1 -->
<svg width="1021pt" height="196pt"
 viewBox="0.00 0.00 1020.50 196.00" xmlns="http://www.w3.org/2000/svg" xmlns:xlink="http://www.w3.org/1999/xlink">
<g id="graph0" class="graph" transform="scale(1 1) rotate(0) translate(4 192)">
<title>WaterPropsIAPWSphi.h</title>
<polygon fill="#ffffff" stroke="transparent" points="-4,4 -4,-192 1016.5,-192 1016.5,4 -4,4"/>
<!-- Node2 -->
<g id="node1" class="node">
<title>Node2</title>
<polygon fill="#bfbfbf" stroke="#000000" points="353,-168.5 353,-187.5 476,-187.5 476,-168.5 353,-168.5"/>
<text text-anchor="middle" x="414.5" y="-175.5" font-family="Helvetica,sans-Serif" font-size="10.00" fill="#000000">WaterPropsIAPWSphi.h</text>
</g>
<!-- Node3 -->
<g id="node2" class="node">
<title>Node3</title>
<g id="a_node2"><a xlink:href="../../d4/d30/WaterPropsIAPWSphi_8cpp.html" target="_top" xlink:title="Definitions for Lowest level of the classes which support a real water model (see class WaterPropsIAP...">
<polygon fill="#ffffff" stroke="#000000" points="277.5,-112.5 277.5,-131.5 411.5,-131.5 411.5,-112.5 277.5,-112.5"/>
<text text-anchor="middle" x="344.5" y="-119.5" font-family="Helvetica,sans-Serif" font-size="10.00" fill="#000000">WaterPropsIAPWSphi.cpp</text>
</a>
</g>
</g>
<!-- Node2&#45;&gt;Node3 -->
<g id="edge1" class="edge">
<title>Node2&#45;&gt;Node3</title>
<path fill="none" stroke="#191970" d="M394.41,-161.928C382.1747,-152.1397 366.9493,-139.9595 356.5533,-131.6427"/>
<polygon fill="#191970" stroke="#191970" points="392.3118,-164.7316 402.3069,-168.2455 396.6847,-159.2655 392.3118,-164.7316"/>
</g>
<!-- Node4 -->
<g id="node3" class="node">
<title>Node4</title>
<g id="a_node3"><a xlink:href="../../d2/d86/WaterPropsIAPWS_8h.html" target="_top" xlink:title="Headers for a class for calculating the equation of state of water from the IAPWS 1995 Formulation ba...">
<polygon fill="#ffffff" stroke="#000000" points="429.5,-112.5 429.5,-131.5 539.5,-131.5 539.5,-112.5 429.5,-112.5"/>
<text text-anchor="middle" x="484.5" y="-119.5" font-family="Helvetica,sans-Serif" font-size="10.00" fill="#000000">WaterPropsIAPWS.h</text>
</a>
</g>
</g>
<!-- Node2&#45;&gt;Node4 -->
<g id="edge2" class="edge">
<title>Node2&#45;&gt;Node4</title>
<path fill="none" stroke="#191970" d="M434.59,-161.928C446.8253,-152.1397 462.0507,-139.9595 472.4467,-131.6427"/>
<polygon fill="#191970" stroke="#191970" points="432.3153,-159.2655 426.6931,-168.2455 436.6882,-164.7316 432.3153,-159.2655"/>
</g>
<!-- Node5 -->
<g id="node4" class="node">
<title>Node5</title>
<g id="a_node4"><a xlink:href="../../d2/db8/PDSS__Water_8cpp.html" target="_top" xlink:title="PDSS_Water.cpp">
<polygon fill="#ffffff" stroke="#000000" points="0,-.5 0,-19.5 95,-19.5 95,-.5 0,-.5"/>
<text text-anchor="middle" x="47.5" y="-7.5" font-family="Helvetica,sans-Serif" font-size="10.00" fill="#000000">PDSS_Water.cpp</text>
</a>
</g>
</g>
<!-- Node4&#45;&gt;Node5 -->
<g id="edge3" class="edge">
<title>Node4&#45;&gt;Node5</title>
<path fill="none" stroke="#191970" d="M434.4174,-110.1186C396.2818,-100.9968 342.5139,-87.9757 295.5,-76 219.2953,-56.5886 130.284,-32.5709 82.3488,-19.5257"/>
<polygon fill="#191970" stroke="#191970" points="433.711,-113.5483 444.2506,-112.4671 435.3372,-106.7397 433.711,-113.5483"/>
</g>
<!-- Node6 -->
<g id="node5" class="node">
<title>Node6</title>
<g id="a_node5"><a xlink:href="../../d4/d76/WaterPropsIAPWS_8cpp.html" target="_top" xlink:title="Definitions for a class for calculating the equation of state of water from the IAPWS 1995 Formulatio...">
<polygon fill="#ffffff" stroke="#000000" points="304.5,-56.5 304.5,-75.5 424.5,-75.5 424.5,-56.5 304.5,-56.5"/>
<text text-anchor="middle" x="364.5" y="-63.5" font-family="Helvetica,sans-Serif" font-size="10.00" fill="#000000">WaterPropsIAPWS.cpp</text>
</a>
</g>
</g>
<!-- Node4&#45;&gt;Node6 -->
<g id="edge4" class="edge">
<title>Node4&#45;&gt;Node6</title>
<path fill="none" stroke="#191970" d="M454.7376,-108.1109C432.9768,-97.9559 404.0318,-84.4482 384.8595,-75.5011"/>
<polygon fill="#191970" stroke="#191970" points="453.3293,-111.316 463.8713,-112.3733 456.2895,-104.9727 453.3293,-111.316"/>
</g>
<!-- Node7 -->
<g id="node6" class="node">
<title>Node7</title>
<g id="a_node6"><a xlink:href="../../d8/d6d/PDSS__Water_8h.html" target="_top" xlink:title="Implementation of a pressure dependent standard state virtual function for a Pure Water Phase (see Sp...">
<polygon fill="#ffffff" stroke="#000000" points="442.5,-56.5 442.5,-75.5 526.5,-75.5 526.5,-56.5 442.5,-56.5"/>
<text text-anchor="middle" x="484.5" y="-63.5" font-family="Helvetica,sans-Serif" font-size="10.00" fill="#000000">PDSS_Water.h</text>
</a>
</g>
</g>
<!-- Node4&#45;&gt;Node7 -->
<g id="edge5" class="edge">
<title>Node4&#45;&gt;Node7</title>
<path fill="none" stroke="#191970" d="M484.5,-102.1575C484.5,-93.155 484.5,-82.9199 484.5,-75.6427"/>
<polygon fill="#191970" stroke="#191970" points="481.0001,-102.2455 484.5,-112.2455 488.0001,-102.2456 481.0001,-102.2455"/>
</g>
<!-- Node15 -->
<g id="node14" class="node">
<title>Node15</title>
<g id="a_node14"><a xlink:href="../../dd/da3/WaterSSTP_8h.html" target="_top" xlink:title="Declares a ThermoPhase class consisting of pure water (see Thermodynamic Properties and class WaterSS...">
<polygon fill="#ffffff" stroke="#000000" points="814.5,-56.5 814.5,-75.5 892.5,-75.5 892.5,-56.5 814.5,-56.5"/>
<text text-anchor="middle" x="853.5" y="-63.5" font-family="Helvetica,sans-Serif" font-size="10.00" fill="#000000">WaterSSTP.h</text>
</a>
</g>
</g>
<!-- Node4&#45;&gt;Node15 -->
<g id="edge14" class="edge">
<title>Node4&#45;&gt;Node15</title>
<path fill="none" stroke="#191970" d="M549.7725,-112.0942C626.4657,-100.4551 751.2357,-81.5198 814.3231,-71.9455"/>
<polygon fill="#191970" stroke="#191970" points="549.1046,-108.6553 539.743,-113.6162 550.155,-115.5761 549.1046,-108.6553"/>
</g>
<!-- Node17 -->
<g id="node16" class="node">
<title>Node17</title>
<g id="a_node16"><a xlink:href="../../df/d3f/WaterTransport_8h.html" target="_top" xlink:title="Header file defining class WaterTransport. ">
<polygon fill="#ffffff" stroke="#000000" points="623.5,-56.5 623.5,-75.5 717.5,-75.5 717.5,-56.5 623.5,-56.5"/>
<text text-anchor="middle" x="670.5" y="-63.5" font-family="Helvetica,sans-Serif" font-size="10.00" fill="#000000">WaterTransport.h</text>
</a>
</g>
</g>
<!-- Node4&#45;&gt;Node17 -->
<g id="edge17" class="edge">
<title>Node4&#45;&gt;Node17</title>
<path fill="none" stroke="#191970" d="M526.1637,-109.4561C560.3067,-99.1765 607.8931,-84.8494 638.9427,-75.5011"/>
<polygon fill="#191970" stroke="#191970" points="525.0409,-106.1389 516.4745,-112.3733 527.059,-112.8417 525.0409,-106.1389"/>
</g>
<!-- Node7&#45;&gt;Node5 -->
<g id="edge9" class="edge">
<title>Node7&#45;&gt;Node5</title>
<path fill="none" stroke="#191970" d="M432.0038,-55.8811C285.8788,-34.0948 246.2574,-40.5087 103.5,-20 100.7628,-19.6068 97.9545,-19.1799 95.1233,-18.7315"/>
<polygon fill="#191970" stroke="#191970" points="431.837,-59.3955 442.2475,-57.4282 432.8824,-52.474 431.837,-59.3955"/>
</g>
<!-- Node8 -->
<g id="node7" class="node">
<title>Node8</title>
<g id="a_node7"><a xlink:href="../../dc/ddc/DebyeHuckel_8cpp.html" target="_top" xlink:title="Declarations for the DebyeHuckel ThermoPhase object, which models dilute electrolyte solutions (see T...">
<polygon fill="#ffffff" stroke="#000000" points="113,-.5 113,-19.5 208,-19.5 208,-.5 113,-.5"/>
<text text-anchor="middle" x="160.5" y="-7.5" font-family="Helvetica,sans-Serif" font-size="10.00" fill="#000000">DebyeHuckel.cpp</text>
</a>
</g>
</g>
<!-- Node7&#45;&gt;Node8 -->
<g id="edge6" class="edge">
<title>Node7&#45;&gt;Node8</title>
<path fill="none" stroke="#191970" d="M432.611,-55.8765C336.0965,-38.4767 310.3394,-35.8801 217.5,-20 214.43,-19.4749 211.2677,-18.9303 208.0805,-18.3787"/>
<polygon fill="#191970" stroke="#191970" points="432.0297,-59.3281 442.4932,-57.665 433.2764,-52.44 432.0297,-59.3281"/>
</g>
<!-- Node9 -->
<g id="node8" class="node">
<title>Node9</title>
<g id="a_node8"><a xlink:href="../../d0/d0e/HMWSoln_8cpp.html" target="_top" xlink:title="Definitions for the HMWSoln ThermoPhase object, which models concentrated electrolyte solutions (see ...">
<polygon fill="#ffffff" stroke="#000000" points="226.5,-.5 226.5,-19.5 306.5,-19.5 306.5,-.5 226.5,-.5"/>
<text text-anchor="middle" x="266.5" y="-7.5" font-family="Helvetica,sans-Serif" font-size="10.00" fill="#000000">HMWSoln.cpp</text>
</a>
</g>
</g>
<!-- Node7&#45;&gt;Node9 -->
<g id="edge7" class="edge">
<title>Node7&#45;&gt;Node9</title>
<path fill="none" stroke="#191970" d="M437.2061,-53.8511C397.0907,-43.5462 340.3465,-28.9697 303.4865,-19.5011"/>
<polygon fill="#191970" stroke="#191970" points="436.4681,-57.2751 447.0245,-56.3733 438.2098,-50.4952 436.4681,-57.2751"/>
</g>
<!-- Node10 -->
<g id="node9" class="node">
<title>Node10</title>
<g id="a_node9"><a xlink:href="../../d1/d3f/PDSS__HKFT_8cpp.html" target="_top" xlink:title="Definitions for the class PDSS_HKFT (pressure dependent standard state) which handles calculations fo...">
<polygon fill="#ffffff" stroke="#000000" points="324.5,-.5 324.5,-19.5 418.5,-19.5 418.5,-.5 324.5,-.5"/>
<text text-anchor="middle" x="371.5" y="-7.5" font-family="Helvetica,sans-Serif" font-size="10.00" fill="#000000">PDSS_HKFT.cpp</text>
</a>
</g>
</g>
<!-- Node7&#45;&gt;Node10 -->
<g id="edge8" class="edge">
<title>Node7&#45;&gt;Node10</title>
<path fill="none" stroke="#191970" d="M455.9208,-51.8368C435.4942,-41.7139 408.5638,-28.3679 390.6719,-19.5011"/>
<polygon fill="#191970" stroke="#191970" points="454.5604,-55.0688 465.0746,-56.3733 457.6687,-48.7968 454.5604,-55.0688"/>
</g>
<!-- Node11 -->
<g id="node10" class="node">
<title>Node11</title>
<g id="a_node10"><a xlink:href="../../d0/d6d/PDSSFactory_8cpp.html" target="_top" xlink:title="PDSSFactory.cpp">
<polygon fill="#ffffff" stroke="#000000" points="436.5,-.5 436.5,-19.5 532.5,-19.5 532.5,-.5 436.5,-.5"/>
<text text-anchor="middle" x="484.5" y="-7.5" font-family="Helvetica,sans-Serif" font-size="10.00" fill="#000000">PDSSFactory.cpp</text>
</a>
</g>
</g>
<!-- Node7&#45;&gt;Node11 -->
<g id="edge10" class="edge">
<title>Node7&#45;&gt;Node11</title>
<path fill="none" stroke="#191970" d="M484.5,-46.1575C484.5,-37.155 484.5,-26.9199 484.5,-19.6427"/>
<polygon fill="#191970" stroke="#191970" points="481.0001,-46.2455 484.5,-56.2455 488.0001,-46.2456 481.0001,-46.2455"/>
</g>
<!-- Node12 -->
<g id="node11" class="node">
<title>Node12</title>
<g id="a_node11"><a xlink:href="../../d9/da4/VPStandardStateTP_8cpp.html" target="_top" xlink:title="Definition file for a derived class of ThermoPhase that handles variable pressure standard state meth...">
<polygon fill="#ffffff" stroke="#000000" points="551,-.5 551,-19.5 676,-19.5 676,-.5 551,-.5"/>
<text text-anchor="middle" x="613.5" y="-7.5" font-family="Helvetica,sans-Serif" font-size="10.00" fill="#000000">VPStandardStateTP.cpp</text>
</a>
</g>
</g>
<!-- Node7&#45;&gt;Node12 -->
<g id="edge11" class="edge">
<title>Node7&#45;&gt;Node12</title>
<path fill="none" stroke="#191970" d="M515.8671,-52.3833C539.3284,-42.1985 570.8185,-28.5284 591.6135,-19.5011"/>
<polygon fill="#191970" stroke="#191970" points="514.4551,-49.1806 506.6759,-56.3733 517.2426,-55.6017 514.4551,-49.1806"/>
</g>
<!-- Node13 -->
<g id="node12" class="node">
<title>Node13</title>
<g id="a_node12"><a xlink:href="../../d4/d61/WaterProps_8cpp.html" target="_top" xlink:title="WaterProps.cpp">
<polygon fill="#ffffff" stroke="#000000" points="694.5,-.5 694.5,-19.5 782.5,-19.5 782.5,-.5 694.5,-.5"/>
<text text-anchor="middle" x="738.5" y="-7.5" font-family="Helvetica,sans-Serif" font-size="10.00" fill="#000000">WaterProps.cpp</text>
</a>
</g>
</g>
<!-- Node7&#45;&gt;Node13 -->
<g id="edge12" class="edge">
<title>Node7&#45;&gt;Node13</title>
<path fill="none" stroke="#191970" d="M536.6803,-54.4957C583.5218,-44.1684 651.4676,-29.1883 695.3208,-19.5198"/>
<polygon fill="#191970" stroke="#191970" points="535.74,-51.1189 526.7281,-56.6899 537.2471,-57.9547 535.74,-51.1189"/>
</g>
<!-- Node14 -->
<g id="node13" class="node">
<title>Node14</title>
<g id="a_node13"><a xlink:href="../../d7/d8a/WaterTransport_8cpp.html" target="_top" xlink:title="WaterTransport.cpp">
<polygon fill="#ffffff" stroke="#000000" points="801,-.5 801,-19.5 906,-19.5 906,-.5 801,-.5"/>
<text text-anchor="middle" x="853.5" y="-7.5" font-family="Helvetica,sans-Serif" font-size="10.00" fill="#000000">WaterTransport.cpp</text>
</a>
</g>
</g>
<!-- Node7&#45;&gt;Node14 -->
<g id="edge13" class="edge">
<title>Node7&#45;&gt;Node14</title>
<path fill="none" stroke="#191970" d="M536.9005,-58.3306C598.0357,-49.3404 702.145,-33.9 791.5,-20 794.5166,-19.5307 797.6149,-19.0445 800.7412,-18.5506"/>
<polygon fill="#191970" stroke="#191970" points="536.1178,-54.9079 526.7329,-59.8245 537.1355,-61.8335 536.1178,-54.9079"/>
</g>
<!-- Node15&#45;&gt;Node14 -->
<g id="edge16" class="edge">
<title>Node15&#45;&gt;Node14</title>
<path fill="none" stroke="#191970" d="M853.5,-46.1575C853.5,-37.155 853.5,-26.9199 853.5,-19.6427"/>
<polygon fill="#191970" stroke="#191970" points="850.0001,-46.2455 853.5,-56.2455 857.0001,-46.2456 850.0001,-46.2455"/>
</g>
<!-- Node16 -->
<g id="node15" class="node">
<title>Node16</title>
<g id="a_node15"><a xlink:href="../../db/de5/WaterSSTP_8cpp.html" target="_top" xlink:title="Definitions for a ThermoPhase class consisting of pure water (see Thermodynamic Properties and class ...">
<polygon fill="#ffffff" stroke="#000000" points="924.5,-.5 924.5,-19.5 1012.5,-19.5 1012.5,-.5 924.5,-.5"/>
<text text-anchor="middle" x="968.5" y="-7.5" font-family="Helvetica,sans-Serif" font-size="10.00" fill="#000000">WaterSSTP.cpp</text>
</a>
</g>
</g>
<!-- Node15&#45;&gt;Node16 -->
<g id="edge15" class="edge">
<title>Node15&#45;&gt;Node16</title>
<path fill="none" stroke="#191970" d="M882.3033,-51.9741C903.125,-41.8348 930.6978,-28.408 948.9888,-19.5011"/>
<polygon fill="#191970" stroke="#191970" points="880.7276,-48.8484 873.2692,-56.3733 883.7922,-55.1419 880.7276,-48.8484"/>
</g>
<!-- Node17&#45;&gt;Node14 -->
<g id="edge18" class="edge">
<title>Node17&#45;&gt;Node14</title>
<path fill="none" stroke="#191970" d="M711.925,-53.3235C745.4856,-43.0536 792.034,-28.8093 822.4517,-19.5011"/>
<polygon fill="#191970" stroke="#191970" points="710.4969,-50.1002 701.9588,-56.3733 712.5453,-56.7938 710.4969,-50.1002"/>
</g>
</g>
</svg>
