<?xml version="1.0" encoding="UTF-8" standalone="no"?>
<!DOCTYPE svg PUBLIC "-//W3C//DTD SVG 1.1//EN"
 "http://www.w3.org/Graphics/SVG/1.1/DTD/svg11.dtd">
<!-- Generated by graphviz version 2.40.1 (20161225.0304)
 -->
<!-- Title: RedlichKwongMFTP Pages: 1 -->
<svg width="116pt" height="196pt"
 viewBox="0.00 0.00 116.00 196.00" xmlns="http://www.w3.org/2000/svg" xmlns:xlink="http://www.w3.org/1999/xlink">
<g id="graph0" class="graph" transform="scale(1 1) rotate(0) translate(4 192)">
<title>RedlichKwongMFTP</title>
<polygon fill="#ffffff" stroke="transparent" points="-4,4 -4,-192 112,-192 112,4 -4,4"/>
<!-- Node0 -->
<g id="node1" class="node">
<title>Node0</title>
<polygon fill="#bfbfbf" stroke="#000000" points="0,-.5 0,-19.5 108,-19.5 108,-.5 0,-.5"/>
<text text-anchor="middle" x="54" y="-7.5" font-family="Helvetica,sans-Serif" font-size="10.00" fill="#000000">RedlichKwongMFTP</text>
</g>
<!-- Node1 -->
<g id="node2" class="node">
<title>Node1</title>
<g id="a_node2"><a xlink:href="../../dc/d01/classCantera_1_1MixtureFugacityTP.html" target="_top" xlink:title="This is a filter class for ThermoPhase that implements some preparatory steps for efficiently handlin...">
<polygon fill="#ffffff" stroke="#000000" points="4,-56.5 4,-75.5 104,-75.5 104,-56.5 4,-56.5"/>
<text text-anchor="middle" x="54" y="-63.5" font-family="Helvetica,sans-Serif" font-size="10.00" fill="#000000">MixtureFugacityTP</text>
</a>
</g>
</g>
<!-- Node1&#45;&gt;Node0 -->
<g id="edge1" class="edge">
<title>Node1&#45;&gt;Node0</title>
<path fill="none" stroke="#191970" d="M54,-46.1575C54,-37.155 54,-26.9199 54,-19.6427"/>
<polygon fill="#191970" stroke="#191970" points="50.5001,-46.2455 54,-56.2455 57.5001,-46.2456 50.5001,-46.2455"/>
</g>
<!-- Node2 -->
<g id="node3" class="node">
<title>Node2</title>
<g id="a_node3"><a xlink:href="../../dc/d38/classCantera_1_1ThermoPhase.html" target="_top" xlink:title="Base class for a phase with thermodynamic properties. ">
<polygon fill="#ffffff" stroke="#000000" points="14.5,-112.5 14.5,-131.5 93.5,-131.5 93.5,-112.5 14.5,-112.5"/>
<text text-anchor="middle" x="54" y="-119.5" font-family="Helvetica,sans-Serif" font-size="10.00" fill="#000000">ThermoPhase</text>
</a>
</g>
</g>
<!-- Node2&#45;&gt;Node1 -->
<g id="edge2" class="edge">
<title>Node2&#45;&gt;Node1</title>
<path fill="none" stroke="#191970" d="M54,-102.1575C54,-93.155 54,-82.9199 54,-75.6427"/>
<polygon fill="#191970" stroke="#191970" points="50.5001,-102.2455 54,-112.2455 57.5001,-102.2456 50.5001,-102.2455"/>
</g>
<!-- Node3 -->
<g id="node4" class="node">
<title>Node3</title>
<g id="a_node4"><a xlink:href="../../d6/d0e/classCantera_1_1Phase.html" target="_top" xlink:title="Class Phase is the base class for phases of matter, managing the species and elements in a phase...">
<polygon fill="#ffffff" stroke="#000000" points="31.5,-168.5 31.5,-187.5 76.5,-187.5 76.5,-168.5 31.5,-168.5"/>
<text text-anchor="middle" x="54" y="-175.5" font-family="Helvetica,sans-Serif" font-size="10.00" fill="#000000">Phase</text>
</a>
</g>
</g>
<!-- Node3&#45;&gt;Node2 -->
<g id="edge3" class="edge">
<title>Node3&#45;&gt;Node2</title>
<path fill="none" stroke="#191970" d="M54,-158.1575C54,-149.155 54,-138.9199 54,-131.6427"/>
<polygon fill="#191970" stroke="#191970" points="50.5001,-158.2455 54,-168.2455 57.5001,-158.2456 50.5001,-158.2455"/>
</g>
</g>
</svg>
