<?xml version="1.0" encoding="UTF-8" standalone="no"?>
<!DOCTYPE svg PUBLIC "-//W3C//DTD SVG 1.1//EN"
 "http://www.w3.org/Graphics/SVG/1.1/DTD/svg11.dtd">
<!-- Generated by graphviz version 2.40.1 (20161225.0304)
 -->
<!-- Title: MolarityIonicVPSSTP.h Pages: 1 -->
<svg width="416pt" height="140pt"
 viewBox="0.00 0.00 415.50 140.00" xmlns="http://www.w3.org/2000/svg" xmlns:xlink="http://www.w3.org/1999/xlink">
<g id="graph0" class="graph" transform="scale(1 1) rotate(0) translate(4 136)">
<title>MolarityIonicVPSSTP.h</title>
<polygon fill="#ffffff" stroke="transparent" points="-4,4 -4,-136 411.5,-136 411.5,4 -4,4"/>
<!-- Node39 -->
<g id="node1" class="node">
<title>Node39</title>
<polygon fill="#bfbfbf" stroke="#000000" points="140.5,-112.5 140.5,-131.5 260.5,-131.5 260.5,-112.5 140.5,-112.5"/>
<text text-anchor="middle" x="200.5" y="-119.5" font-family="Helvetica,sans-Serif" font-size="10.00" fill="#000000">MolarityIonicVPSSTP.h</text>
</g>
<!-- Node40 -->
<g id="node2" class="node">
<title>Node40</title>
<g id="a_node2"><a xlink:href="../../d5/d8a/MolarityIonicVPSSTP_8cpp.html" target="_top" xlink:title="Definitions for intermediate ThermoPhase object for phases which employ excess Gibbs free energy form...">
<polygon fill="#ffffff" stroke="#000000" points="0,-56.5 0,-75.5 131,-75.5 131,-56.5 0,-56.5"/>
<text text-anchor="middle" x="65.5" y="-63.5" font-family="Helvetica,sans-Serif" font-size="10.00" fill="#000000">MolarityIonicVPSSTP.cpp</text>
</a>
</g>
</g>
<!-- Node39&#45;&gt;Node40 -->
<g id="edge1" class="edge">
<title>Node39&#45;&gt;Node40</title>
<path fill="none" stroke="#191970" d="M168.0009,-108.5189C143.4146,-98.3201 110.2634,-84.5685 88.4045,-75.5011"/>
<polygon fill="#191970" stroke="#191970" points="166.7148,-111.7745 177.2927,-112.3733 169.3969,-105.3087 166.7148,-111.7745"/>
</g>
<!-- Node41 -->
<g id="node3" class="node">
<title>Node41</title>
<g id="a_node3"><a xlink:href="../../d2/d3a/ThermoFactory_8cpp.html" target="_top" xlink:title="Definitions for the factory class that can create known ThermoPhase objects (see Thermodynamic Proper...">
<polygon fill="#ffffff" stroke="#000000" points="149,-56.5 149,-75.5 252,-75.5 252,-56.5 149,-56.5"/>
<text text-anchor="middle" x="200.5" y="-63.5" font-family="Helvetica,sans-Serif" font-size="10.00" fill="#000000">ThermoFactory.cpp</text>
</a>
</g>
</g>
<!-- Node39&#45;&gt;Node41 -->
<g id="edge2" class="edge">
<title>Node39&#45;&gt;Node41</title>
<path fill="none" stroke="#191970" d="M200.5,-102.1575C200.5,-93.155 200.5,-82.9199 200.5,-75.6427"/>
<polygon fill="#191970" stroke="#191970" points="197.0001,-102.2455 200.5,-112.2455 204.0001,-102.2456 197.0001,-102.2455"/>
</g>
<!-- Node42 -->
<g id="node4" class="node">
<title>Node42</title>
<g id="a_node4"><a xlink:href="../../d1/d62/MixedSolventElectrolyte_8h.html" target="_top" xlink:title="(see Thermodynamic Properties and class MixedSolventElectrolyte ). ">
<polygon fill="#ffffff" stroke="#000000" points="270.5,-56.5 270.5,-75.5 402.5,-75.5 402.5,-56.5 270.5,-56.5"/>
<text text-anchor="middle" x="336.5" y="-63.5" font-family="Helvetica,sans-Serif" font-size="10.00" fill="#000000">MixedSolventElectrolyte.h</text>
</a>
</g>
</g>
<!-- Node39&#45;&gt;Node42 -->
<g id="edge3" class="edge">
<title>Node39&#45;&gt;Node42</title>
<path fill="none" stroke="#191970" d="M233.2399,-108.5189C258.0083,-98.3201 291.405,-84.5685 313.4258,-75.5011"/>
<polygon fill="#191970" stroke="#191970" points="231.7934,-105.3293 223.8792,-112.3733 234.4587,-111.8021 231.7934,-105.3293"/>
</g>
<!-- Node43 -->
<g id="node5" class="node">
<title>Node43</title>
<g id="a_node5"><a xlink:href="../../dc/d31/MixedSolventElectrolyte_8cpp.html" target="_top" xlink:title="see Thermodynamic Properties and class MixedSolventElectrolyte ). ">
<polygon fill="#ffffff" stroke="#000000" points="265.5,-.5 265.5,-19.5 407.5,-19.5 407.5,-.5 265.5,-.5"/>
<text text-anchor="middle" x="336.5" y="-7.5" font-family="Helvetica,sans-Serif" font-size="10.00" fill="#000000">MixedSolventElectrolyte.cpp</text>
</a>
</g>
</g>
<!-- Node42&#45;&gt;Node43 -->
<g id="edge4" class="edge">
<title>Node42&#45;&gt;Node43</title>
<path fill="none" stroke="#191970" d="M336.5,-46.1575C336.5,-37.155 336.5,-26.9199 336.5,-19.6427"/>
<polygon fill="#191970" stroke="#191970" points="333.0001,-46.2455 336.5,-56.2455 340.0001,-46.2456 333.0001,-46.2455"/>
</g>
</g>
</svg>
