<?xml version="1.0" encoding="UTF-8" standalone="no"?>
<!DOCTYPE svg PUBLIC "-//W3C//DTD SVG 1.1//EN"
 "http://www.w3.org/Graphics/SVG/1.1/DTD/svg11.dtd">
<!-- Generated by graphviz version 2.40.1 (20161225.0304)
 -->
<!-- Title: PureFluidPhase.h Pages: 1 -->
<svg width="755pt" height="476pt"
 viewBox="0.00 0.00 754.50 476.00" xmlns="http://www.w3.org/2000/svg" xmlns:xlink="http://www.w3.org/1999/xlink">
<g id="graph0" class="graph" transform="scale(1 1) rotate(0) translate(4 472)">
<title>PureFluidPhase.h</title>
<polygon fill="#ffffff" stroke="transparent" points="-4,4 -4,-472 750.5,-472 750.5,4 -4,4"/>
<!-- Node0 -->
<g id="node1" class="node">
<title>Node0</title>
<polygon fill="#bfbfbf" stroke="#000000" points="503,-448.5 503,-467.5 599,-467.5 599,-448.5 503,-448.5"/>
<text text-anchor="middle" x="551" y="-455.5" font-family="Helvetica,sans-Serif" font-size="10.00" fill="#000000">PureFluidPhase.h</text>
</g>
<!-- Node1 -->
<g id="node2" class="node">
<title>Node1</title>
<g id="a_node2"><a xlink:href="../../d7/d01/ThermoPhase_8h.html" target="_top" xlink:title="Header file for class ThermoPhase, the base class for phases with thermodynamic properties, and the text for the Module thermoprops (see Thermodynamic Properties and class ThermoPhase). ">
<polygon fill="#ffffff" stroke="#000000" points="464,-392.5 464,-411.5 552,-411.5 552,-392.5 464,-392.5"/>
<text text-anchor="middle" x="508" y="-399.5" font-family="Helvetica,sans-Serif" font-size="10.00" fill="#000000">ThermoPhase.h</text>
</a>
</g>
</g>
<!-- Node0&#45;&gt;Node1 -->
<g id="edge1" class="edge">
<title>Node0&#45;&gt;Node1</title>
<path fill="none" stroke="#191970" d="M543.51,-448.2455C537.4674,-440.3761 528.8097,-429.101 521.5559,-419.6542"/>
<polygon fill="#191970" stroke="#191970" points="524.2705,-417.4426 515.4042,-411.6427 518.7185,-421.7058 524.2705,-417.4426"/>
</g>
<!-- Node30 -->
<g id="node18" class="node">
<title>Node30</title>
<g id="a_node18"><a xlink:href="../../d5/d68/Sub_8h.html" target="_top" xlink:title="cantera/tpx/Sub.h">
<polygon fill="#ffffff" stroke="#000000" points="651.5,-224.5 651.5,-243.5 746.5,-243.5 746.5,-224.5 651.5,-224.5"/>
<text text-anchor="middle" x="699" y="-231.5" font-family="Helvetica,sans-Serif" font-size="10.00" fill="#000000">cantera/tpx/Sub.h</text>
</a>
</g>
</g>
<!-- Node0&#45;&gt;Node30 -->
<g id="edge28" class="edge">
<title>Node0&#45;&gt;Node30</title>
<path fill="none" stroke="#191970" d="M557.3594,-448.375C580.0356,-414.0543 657.1676,-297.3139 687.0431,-252.097"/>
<polygon fill="#191970" stroke="#191970" points="690.0719,-253.8619 692.6643,-243.5891 684.2315,-250.0031 690.0719,-253.8619"/>
</g>
<!-- Node2 -->
<g id="node3" class="node">
<title>Node2</title>
<g id="a_node3"><a xlink:href="../../da/d84/Phase_8h.html" target="_top" xlink:title="Header file for class Phase. ">
<polygon fill="#ffffff" stroke="#000000" points="254.5,-336.5 254.5,-355.5 307.5,-355.5 307.5,-336.5 254.5,-336.5"/>
<text text-anchor="middle" x="281" y="-343.5" font-family="Helvetica,sans-Serif" font-size="10.00" fill="#000000">Phase.h</text>
</a>
</g>
</g>
<!-- Node1&#45;&gt;Node2 -->
<g id="edge2" class="edge">
<title>Node1&#45;&gt;Node2</title>
<path fill="none" stroke="#191970" d="M469.2352,-392.4369C426.6534,-381.9321 358.8075,-365.1948 317.252,-354.9432"/>
<polygon fill="#191970" stroke="#191970" points="318.0853,-351.5439 307.538,-352.5468 316.4086,-358.3402 318.0853,-351.5439"/>
</g>
<!-- Node20 -->
<g id="node12" class="node">
<title>Node20</title>
<g id="a_node12"><a xlink:href="../../d2/d49/global_8h.html" target="_top" xlink:title="This file contains definitions for utility functions and text for modules, inputfiles, logs, textlogs, (see Input File Handling, Diagnostic Output, and Writing messages to the screen). ">
<polygon fill="#ffffff" stroke="#000000" points="439,-168.5 439,-187.5 551,-187.5 551,-168.5 439,-168.5"/>
<text text-anchor="middle" x="495" y="-175.5" font-family="Helvetica,sans-Serif" font-size="10.00" fill="#000000">cantera/base/global.h</text>
</a>
</g>
</g>
<!-- Node1&#45;&gt;Node20 -->
<g id="edge27" class="edge">
<title>Node1&#45;&gt;Node20</title>
<path fill="none" stroke="#191970" d="M501.2364,-392.3137C495.4132,-383.3586 487.4235,-369.4428 484,-356 469.5197,-299.1415 473.9454,-282.1179 482,-224 483.2357,-215.0835 485.7581,-205.4647 488.255,-197.3395"/>
<polygon fill="#191970" stroke="#191970" points="491.6247,-198.296 491.4124,-187.7033 484.9726,-196.1164 491.6247,-198.296"/>
</g>
<!-- Node27 -->
<g id="node15" class="node">
<title>Node27</title>
<g id="a_node15"><a xlink:href="../../d6/d7a/MultiSpeciesThermo_8h.html" target="_top" xlink:title="Header for a general species thermodynamic property manager for a phase (see MultiSpeciesThermo). ">
<polygon fill="#ffffff" stroke="#000000" points="493,-336.5 493,-355.5 609,-355.5 609,-336.5 493,-336.5"/>
<text text-anchor="middle" x="551" y="-343.5" font-family="Helvetica,sans-Serif" font-size="10.00" fill="#000000">MultiSpeciesThermo.h</text>
</a>
</g>
</g>
<!-- Node1&#45;&gt;Node27 -->
<g id="edge21" class="edge">
<title>Node1&#45;&gt;Node27</title>
<path fill="none" stroke="#191970" d="M515.49,-392.2455C521.5326,-384.3761 530.1903,-373.101 537.4441,-363.6542"/>
<polygon fill="#191970" stroke="#191970" points="540.2815,-365.7058 543.5958,-355.6427 534.7295,-361.4426 540.2815,-365.7058"/>
</g>
<!-- Node3 -->
<g id="node4" class="node">
<title>Node3</title>
<g id="a_node4"><a xlink:href="../../db/d98/ctexceptions_8h.html" target="_top" xlink:title="Definitions for the classes that are thrown when Cantera experiences an error condition (also contain...">
<polygon fill="#ffffff" stroke="#000000" points="279.5,-168.5 279.5,-187.5 420.5,-187.5 420.5,-168.5 279.5,-168.5"/>
<text text-anchor="middle" x="350" y="-175.5" font-family="Helvetica,sans-Serif" font-size="10.00" fill="#000000">cantera/base/ctexceptions.h</text>
</a>
</g>
</g>
<!-- Node2&#45;&gt;Node3 -->
<g id="edge3" class="edge">
<title>Node2&#45;&gt;Node3</title>
<path fill="none" stroke="#191970" d="M305.2193,-336.4093C321.4807,-328.8074 342.1967,-316.6793 355,-300 376.0757,-272.5439 379.6566,-257.755 372,-224 369.856,-214.548 365.522,-204.7672 361.2633,-196.6675"/>
<polygon fill="#191970" stroke="#191970" points="364.2071,-194.7615 356.2583,-187.7567 358.1039,-198.1895 364.2071,-194.7615"/>
</g>
<!-- Node17 -->
<g id="node9" class="node">
<title>Node17</title>
<g id="a_node9"><a xlink:href="../../d9/dda/Elements_8h.html" target="_top" xlink:title="Contains the getElementWeight function and the definitions of element constraint types. ">
<polygon fill="#ffffff" stroke="#000000" points="47.5,-112.5 47.5,-131.5 184.5,-131.5 184.5,-112.5 47.5,-112.5"/>
<text text-anchor="middle" x="116" y="-119.5" font-family="Helvetica,sans-Serif" font-size="10.00" fill="#000000">cantera/thermo/Elements.h</text>
</a>
</g>
</g>
<!-- Node2&#45;&gt;Node17 -->
<g id="edge8" class="edge">
<title>Node2&#45;&gt;Node17</title>
<path fill="none" stroke="#191970" d="M259.3688,-336.4964C243.3169,-328.5835 221.7461,-316.0329 207,-300 162.2668,-251.3631 133.7373,-176.614 122.0526,-141.4961"/>
<polygon fill="#191970" stroke="#191970" points="125.2519,-140.0131 118.8515,-131.5701 118.5898,-142.1617 125.2519,-140.0131"/>
</g>
<!-- Node18 -->
<g id="node10" class="node">
<title>Node18</title>
<g id="a_node10"><a xlink:href="../../d7/dd9/Species_8h.html" target="_top" xlink:title="Declaration for class Cantera::Species. ">
<polygon fill="#ffffff" stroke="#000000" points="216,-280.5 216,-299.5 346,-299.5 346,-280.5 216,-280.5"/>
<text text-anchor="middle" x="281" y="-287.5" font-family="Helvetica,sans-Serif" font-size="10.00" fill="#000000">cantera/thermo/Species.h</text>
</a>
</g>
</g>
<!-- Node2&#45;&gt;Node18 -->
<g id="edge10" class="edge">
<title>Node2&#45;&gt;Node18</title>
<path fill="none" stroke="#191970" d="M281,-336.2455C281,-328.9382 281,-318.6944 281,-309.7046"/>
<polygon fill="#191970" stroke="#191970" points="284.5001,-309.6426 281,-299.6427 277.5001,-309.6427 284.5001,-309.6426"/>
</g>
<!-- Node25 -->
<g id="node13" class="node">
<title>Node25</title>
<g id="a_node13"><a xlink:href="../../d6/df6/ValueCache_8h.html" target="_top" xlink:title="cantera/base/ValueCache.h">
<polygon fill="#ffffff" stroke="#000000" points="0,-280.5 0,-299.5 140,-299.5 140,-280.5 0,-280.5"/>
<text text-anchor="middle" x="70" y="-287.5" font-family="Helvetica,sans-Serif" font-size="10.00" fill="#000000">cantera/base/ValueCache.h</text>
</a>
</g>
</g>
<!-- Node2&#45;&gt;Node25 -->
<g id="edge18" class="edge">
<title>Node2&#45;&gt;Node25</title>
<path fill="none" stroke="#191970" d="M254.2767,-338.9076C219.4741,-329.6709 158.099,-313.3817 115.8039,-302.1565"/>
<polygon fill="#191970" stroke="#191970" points="116.5863,-298.743 106.0231,-299.5606 114.7906,-305.5088 116.5863,-298.743"/>
</g>
<!-- Node4 -->
<g id="node5" class="node">
<title>Node4</title>
<g id="a_node5"><a xlink:href="../../db/def/fmt_8h.html" target="_top" xlink:title="Wrapper for either system&#45;installed or local headers for fmt. ">
<polygon fill="#ffffff" stroke="#ff0000" points="359.5,-112.5 359.5,-131.5 458.5,-131.5 458.5,-112.5 359.5,-112.5"/>
<text text-anchor="middle" x="409" y="-119.5" font-family="Helvetica,sans-Serif" font-size="10.00" fill="#000000">cantera/base/fmt.h</text>
</a>
</g>
</g>
<!-- Node3&#45;&gt;Node4 -->
<g id="edge4" class="edge">
<title>Node3&#45;&gt;Node4</title>
<path fill="none" stroke="#191970" d="M360.277,-168.2455C368.8218,-160.1352 381.1778,-148.4075 391.3085,-138.7919"/>
<polygon fill="#191970" stroke="#191970" points="393.9972,-141.0655 398.8408,-131.6427 389.1782,-135.9884 393.9972,-141.0655"/>
</g>
<!-- Node16 -->
<g id="node8" class="node">
<title>Node16</title>
<polygon fill="#ffffff" stroke="#bfbfbf" points="282.5,-112.5 282.5,-131.5 341.5,-131.5 341.5,-112.5 282.5,-112.5"/>
<text text-anchor="middle" x="312" y="-119.5" font-family="Helvetica,sans-Serif" font-size="10.00" fill="#000000">exception</text>
</g>
<!-- Node3&#45;&gt;Node16 -->
<g id="edge7" class="edge">
<title>Node3&#45;&gt;Node16</title>
<path fill="none" stroke="#191970" d="M343.3809,-168.2455C338.0954,-160.4564 330.5459,-149.3308 324.1762,-139.9439"/>
<polygon fill="#191970" stroke="#191970" points="327.0545,-137.9522 318.5432,-131.6427 321.2621,-141.8827 327.0545,-137.9522"/>
</g>
<!-- Node5 -->
<g id="node6" class="node">
<title>Node5</title>
<g id="a_node6"><a xlink:href="../../d9/ddc/ct__defs_8h.html" target="_top" xlink:title="This file contains definitions of terms that are used in internal routines and are unlikely to need m...">
<polygon fill="#ffffff" stroke="#ff0000" points="297.5,-56.5 297.5,-75.5 354.5,-75.5 354.5,-56.5 297.5,-56.5"/>
<text text-anchor="middle" x="326" y="-63.5" font-family="Helvetica,sans-Serif" font-size="10.00" fill="#000000">ct_defs.h</text>
</a>
</g>
</g>
<!-- Node4&#45;&gt;Node5 -->
<g id="edge5" class="edge">
<title>Node4&#45;&gt;Node5</title>
<path fill="none" stroke="#191970" d="M394.5425,-112.2455C381.9268,-103.7337 363.4056,-91.2375 348.7955,-81.3801"/>
<polygon fill="#191970" stroke="#191970" points="350.5391,-78.3343 340.2918,-75.6427 346.6239,-84.1371 350.5391,-78.3343"/>
</g>
<!-- Node12 -->
<g id="node7" class="node">
<title>Node12</title>
<polygon fill="#ffffff" stroke="#bfbfbf" points="466,-.5 466,-19.5 524,-19.5 524,-.5 466,-.5"/>
<text text-anchor="middle" x="495" y="-7.5" font-family="Helvetica,sans-Serif" font-size="10.00" fill="#000000">algorithm</text>
</g>
<!-- Node5&#45;&gt;Node12 -->
<g id="edge6" class="edge">
<title>Node5&#45;&gt;Node12</title>
<path fill="none" stroke="#191970" d="M354.6685,-56.5004C382.7107,-47.2083 425.6013,-32.996 456.5839,-22.7296"/>
<polygon fill="#191970" stroke="#191970" points="457.7993,-26.0141 466.1908,-19.5462 455.5975,-19.3694 457.7993,-26.0141"/>
</g>
<!-- Node17&#45;&gt;Node5 -->
<g id="edge9" class="edge">
<title>Node17&#45;&gt;Node5</title>
<path fill="none" stroke="#191970" d="M152.1003,-112.3733C189.8854,-102.2972 248.9832,-86.5378 287.605,-76.2387"/>
<polygon fill="#191970" stroke="#191970" points="288.678,-79.5749 297.4385,-73.6164 286.8743,-72.8113 288.678,-79.5749"/>
</g>
<!-- Node18&#45;&gt;Node5 -->
<g id="edge11" class="edge">
<title>Node18&#45;&gt;Node5</title>
<path fill="none" stroke="#191970" d="M265.382,-280.4791C253.7528,-272.3972 238.7668,-259.6339 232,-244 228.4692,-235.8425 230.7671,-232.803 232,-224 239.1805,-172.7307 234.5389,-154.5692 264,-112 272.7524,-99.3534 286.1155,-88.8019 298.1974,-81.0083"/>
<polygon fill="#191970" stroke="#191970" points="300.3662,-83.7856 307.0891,-75.597 296.7271,-77.8059 300.3662,-83.7856"/>
</g>
<!-- Node19 -->
<g id="node11" class="node">
<title>Node19</title>
<g id="a_node11"><a xlink:href="../../dd/d2a/AnyMap_8h.html" target="_top" xlink:title="cantera/base/AnyMap.h">
<polygon fill="#ffffff" stroke="#ff0000" points="241,-224.5 241,-243.5 363,-243.5 363,-224.5 241,-224.5"/>
<text text-anchor="middle" x="302" y="-231.5" font-family="Helvetica,sans-Serif" font-size="10.00" fill="#000000">cantera/base/AnyMap.h</text>
</a>
</g>
</g>
<!-- Node18&#45;&gt;Node19 -->
<g id="edge12" class="edge">
<title>Node18&#45;&gt;Node19</title>
<path fill="none" stroke="#191970" d="M284.6579,-280.2455C287.4584,-272.7776 291.409,-262.2427 294.8324,-253.1137"/>
<polygon fill="#191970" stroke="#191970" points="298.1499,-254.2349 298.384,-243.6427 291.5955,-251.777 298.1499,-254.2349"/>
</g>
<!-- Node19&#45;&gt;Node3 -->
<g id="edge17" class="edge">
<title>Node19&#45;&gt;Node3</title>
<path fill="none" stroke="#191970" d="M310.361,-224.2455C317.175,-216.2958 326.9681,-204.8706 335.1152,-195.3656"/>
<polygon fill="#191970" stroke="#191970" points="337.8843,-197.513 341.7349,-187.6427 332.5695,-192.9575 337.8843,-197.513"/>
</g>
<!-- Node19&#45;&gt;Node5 -->
<g id="edge13" class="edge">
<title>Node19&#45;&gt;Node5</title>
<path fill="none" stroke="#191970" d="M292.9259,-224.3243C285.4037,-215.5913 275.2769,-201.9994 271,-188 266.3023,-172.6231 265.3029,-130.0027 274,-112 279.8985,-99.7903 290.6549,-89.4283 300.8605,-81.648"/>
<polygon fill="#191970" stroke="#191970" points="303.0586,-84.3798 309.185,-75.7358 299.0053,-78.6727 303.0586,-84.3798"/>
</g>
<!-- Node19&#45;&gt;Node20 -->
<g id="edge14" class="edge">
<title>Node19&#45;&gt;Node20</title>
<path fill="none" stroke="#191970" d="M335.1779,-224.3733C367.5487,-214.9807 416.9398,-200.6496 452.2424,-190.4064"/>
<polygon fill="#191970" stroke="#191970" points="453.6265,-193.6492 462.2551,-187.5011 451.6758,-186.9264 453.6265,-193.6492"/>
</g>
<!-- Node20&#45;&gt;Node4 -->
<g id="edge16" class="edge">
<title>Node20&#45;&gt;Node4</title>
<path fill="none" stroke="#191970" d="M480.0199,-168.2455C466.8249,-159.6534 447.3949,-147.0014 432.1921,-137.1018"/>
<polygon fill="#191970" stroke="#191970" points="434.0983,-134.1665 423.8084,-131.6427 430.2785,-140.0325 434.0983,-134.1665"/>
</g>
<!-- Node20&#45;&gt;Node5 -->
<g id="edge15" class="edge">
<title>Node20&#45;&gt;Node5</title>
<path fill="none" stroke="#191970" d="M493.6769,-168.4851C491.1966,-154.2174 484.5188,-127.3235 468,-112 439.6656,-85.7159 396.1505,-74.4446 364.7594,-69.6146"/>
<polygon fill="#191970" stroke="#191970" points="365.0033,-66.1151 354.6179,-68.2112 364.0437,-73.049 365.0033,-66.1151"/>
</g>
<!-- Node25&#45;&gt;Node5 -->
<g id="edge19" class="edge">
<title>Node25&#45;&gt;Node5</title>
<path fill="none" stroke="#191970" d="M61.5935,-280.1916C54.6094,-271.3736 45.1671,-257.7315 41,-244 23.9591,-187.847 -.0817,-156.6469 38,-112 54.0052,-93.2355 212.469,-76.3885 287.2764,-69.4094"/>
<polygon fill="#191970" stroke="#191970" points="287.6162,-72.893 297.2533,-68.4909 286.9745,-65.9224 287.6162,-72.893"/>
</g>
<!-- Node26 -->
<g id="node14" class="node">
<title>Node26</title>
<polygon fill="#ffffff" stroke="#bfbfbf" points="50.5,-224.5 50.5,-243.5 89.5,-243.5 89.5,-224.5 50.5,-224.5"/>
<text text-anchor="middle" x="70" y="-231.5" font-family="Helvetica,sans-Serif" font-size="10.00" fill="#000000">limits</text>
</g>
<!-- Node25&#45;&gt;Node26 -->
<g id="edge20" class="edge">
<title>Node25&#45;&gt;Node26</title>
<path fill="none" stroke="#191970" d="M70,-280.2455C70,-272.9382 70,-262.6944 70,-253.7046"/>
<polygon fill="#191970" stroke="#191970" points="73.5001,-253.6426 70,-243.6427 66.5001,-253.6427 73.5001,-253.6426"/>
</g>
<!-- Node28 -->
<g id="node16" class="node">
<title>Node28</title>
<g id="a_node16"><a xlink:href="../../d4/d87/SpeciesThermoInterpType_8h.html" target="_top" xlink:title="Pure Virtual Base class for individual species reference state thermodynamic managers and text for th...">
<polygon fill="#ffffff" stroke="#000000" points="490.5,-224.5 490.5,-243.5 633.5,-243.5 633.5,-224.5 490.5,-224.5"/>
<text text-anchor="middle" x="562" y="-231.5" font-family="Helvetica,sans-Serif" font-size="10.00" fill="#000000">SpeciesThermoInterpType.h</text>
</a>
</g>
</g>
<!-- Node27&#45;&gt;Node28 -->
<g id="edge22" class="edge">
<title>Node27&#45;&gt;Node28</title>
<path fill="none" stroke="#191970" d="M551.9379,-336.4509C553.7319,-318.184 557.683,-277.9553 560.0654,-253.6976"/>
<polygon fill="#191970" stroke="#191970" points="563.5702,-253.8191 561.0645,-243.5249 556.6038,-253.1349 563.5702,-253.8191"/>
</g>
<!-- Node28&#45;&gt;Node3 -->
<g id="edge25" class="edge">
<title>Node28&#45;&gt;Node3</title>
<path fill="none" stroke="#191970" d="M525.5559,-224.3733C489.6931,-214.9001 434.8122,-200.4032 395.9718,-190.1435"/>
<polygon fill="#191970" stroke="#191970" points="396.5308,-186.6712 385.9685,-187.5011 394.743,-193.439 396.5308,-186.6712"/>
</g>
<!-- Node28&#45;&gt;Node5 -->
<g id="edge23" class="edge">
<title>Node28&#45;&gt;Node5</title>
<path fill="none" stroke="#191970" d="M630.477,-224.4102C675.023,-215.176 720.9191,-198.0494 698,-168 657.218,-114.5305 451.4714,-82.1789 364.6947,-70.7192"/>
<polygon fill="#191970" stroke="#191970" points="365.0882,-67.241 354.721,-69.4252 364.1875,-74.1828 365.0882,-67.241"/>
</g>
<!-- Node28&#45;&gt;Node20 -->
<g id="edge26" class="edge">
<title>Node28&#45;&gt;Node20</title>
<path fill="none" stroke="#191970" d="M550.3295,-224.2455C540.4339,-215.9746 526.0373,-203.9416 514.4099,-194.2232"/>
<polygon fill="#191970" stroke="#191970" points="516.4542,-191.3703 506.5368,-187.6427 511.965,-196.7413 516.4542,-191.3703"/>
</g>
<!-- Node29 -->
<g id="node17" class="node">
<title>Node29</title>
<g id="a_node17"><a xlink:href="../../d4/d0c/speciesThermoTypes_8h.html" target="_top" xlink:title="Contains const definitions for types of species reference&#45;state thermodynamics managers (see Species ...">
<polygon fill="#ffffff" stroke="#000000" points="569,-168.5 569,-187.5 689,-187.5 689,-168.5 569,-168.5"/>
<text text-anchor="middle" x="629" y="-175.5" font-family="Helvetica,sans-Serif" font-size="10.00" fill="#000000">speciesThermoTypes.h</text>
</a>
</g>
</g>
<!-- Node28&#45;&gt;Node29 -->
<g id="edge24" class="edge">
<title>Node28&#45;&gt;Node29</title>
<path fill="none" stroke="#191970" d="M573.6705,-224.2455C583.5661,-215.9746 597.9627,-203.9416 609.5901,-194.2232"/>
<polygon fill="#191970" stroke="#191970" points="612.035,-196.7413 617.4632,-187.6427 607.5458,-191.3703 612.035,-196.7413"/>
</g>
<!-- Node30&#45;&gt;Node3 -->
<g id="edge29" class="edge">
<title>Node30&#45;&gt;Node3</title>
<path fill="none" stroke="#191970" d="M651.3529,-225.4215C648.5277,-224.9346 645.7272,-224.4575 643,-224 568.2332,-211.4567 482.5514,-198.126 423.2402,-189.0624"/>
<polygon fill="#191970" stroke="#191970" points="423.6321,-185.5818 413.2185,-187.5333 422.5761,-192.5017 423.6321,-185.5818"/>
</g>
<!-- Node30&#45;&gt;Node12 -->
<g id="edge30" class="edge">
<title>Node30&#45;&gt;Node12</title>
<path fill="none" stroke="#191970" d="M705.4858,-224.1015C713.3571,-210.7348 724.4714,-186.4631 715,-168 676.2853,-92.5314 582.9083,-44.973 531.1177,-23.4605"/>
<polygon fill="#191970" stroke="#191970" points="532.2307,-20.1351 521.6482,-19.6252 529.6029,-26.6232 532.2307,-20.1351"/>
</g>
</g>
</svg>
