<?xml version="1.0" encoding="UTF-8" standalone="no"?>
<!DOCTYPE svg PUBLIC "-//W3C//DTD SVG 1.1//EN"
 "http://www.w3.org/Graphics/SVG/1.1/DTD/svg11.dtd">
<!-- Generated by graphviz version 2.40.1 (20161225.0304)
 -->
<!-- Title: PDSS_SSVol Pages: 1 -->
<svg width="258pt" height="276pt"
 viewBox="0.00 0.00 257.50 276.00" xmlns="http://www.w3.org/2000/svg" xmlns:xlink="http://www.w3.org/1999/xlink">
<g id="graph0" class="graph" transform="scale(1 1) rotate(0) translate(4 272)">
<title>PDSS_SSVol</title>
<polygon fill="#ffffff" stroke="transparent" points="-4,4 -4,-272 253.5,-272 253.5,4 -4,4"/>
<!-- Node3 -->
<g id="node1" class="node">
<title>Node3</title>
<polygon fill="#bfbfbf" stroke="#000000" points="93.5,-.5 93.5,-19.5 170.5,-19.5 170.5,-.5 93.5,-.5"/>
<text text-anchor="middle" x="132" y="-7.5" font-family="Helvetica,sans-Serif" font-size="10.00" fill="#000000">PDSS_SSVol</text>
</g>
<!-- Node4 -->
<g id="node2" class="node">
<title>Node4</title>
<g id="a_node2"><a xlink:href="classCantera_1_1PDSS__Nondimensional.html" target="_top" xlink:title="Base class for PDSS classes which compute nondimensional properties directly. ">
<polygon fill="#ffffff" stroke="#000000" points="72.5,-57.5 72.5,-76.5 191.5,-76.5 191.5,-57.5 72.5,-57.5"/>
<text text-anchor="middle" x="132" y="-64.5" font-family="Helvetica,sans-Serif" font-size="10.00" fill="#000000">PDSS_Nondimensional</text>
</a>
</g>
</g>
<!-- Node4&#45;&gt;Node3 -->
<g id="edge1" class="edge">
<title>Node4&#45;&gt;Node3</title>
<path fill="none" stroke="#191970" d="M132,-47.2342C132,-37.8491 132,-27.0651 132,-19.5265"/>
<polygon fill="#191970" stroke="#191970" points="128.5001,-47.3307 132,-57.3307 135.5001,-47.3308 128.5001,-47.3307"/>
</g>
<!-- Node5 -->
<g id="node3" class="node">
<title>Node5</title>
<g id="a_node3"><a xlink:href="classCantera_1_1PDSS.html" target="_top" xlink:title="Virtual base class for a species with a pressure dependent standard state. ">
<polygon fill="#ffffff" stroke="#000000" points="110,-114.5 110,-133.5 154,-133.5 154,-114.5 110,-114.5"/>
<text text-anchor="middle" x="132" y="-121.5" font-family="Helvetica,sans-Serif" font-size="10.00" fill="#000000">PDSS</text>
</a>
</g>
</g>
<!-- Node5&#45;&gt;Node4 -->
<g id="edge2" class="edge">
<title>Node5&#45;&gt;Node4</title>
<path fill="none" stroke="#191970" d="M132,-104.2342C132,-94.8491 132,-84.0651 132,-76.5265"/>
<polygon fill="#191970" stroke="#191970" points="128.5001,-104.3307 132,-114.3307 135.5001,-104.3308 128.5001,-104.3307"/>
</g>
<!-- Node6 -->
<g id="node4" class="node">
<title>Node6</title>
<g id="a_node4"><a xlink:href="classCantera_1_1VPSSMgr.html" target="_top" xlink:title="Virtual base class for the classes that manage the calculation of standard state properties for all t...">
<polygon fill="#ffffff" stroke="#000000" points="113,-181.5 113,-200.5 173,-200.5 173,-181.5 113,-181.5"/>
<text text-anchor="middle" x="143" y="-188.5" font-family="Helvetica,sans-Serif" font-size="10.00" fill="#000000">VPSSMgr</text>
</a>
</g>
</g>
<!-- Node6&#45;&gt;Node5 -->
<g id="edge3" class="edge">
<title>Node6&#45;&gt;Node5</title>
<path fill="none" stroke="#9a32cd" stroke-dasharray="5,2" d="M135.2053,-171.6653C134.3116,-168.7996 133.5316,-165.8512 133,-163 131.1627,-153.1457 131.1156,-141.6505 131.4028,-133.7053"/>
<polygon fill="#9a32cd" stroke="#9a32cd" points="132.0172,-173.1425 138.7014,-181.3627 138.6024,-170.7683 132.0172,-173.1425"/>
<text text-anchor="middle" x="168.5" y="-155" font-family="Helvetica,sans-Serif" font-size="10.00" fill="#000000"> m_vpssmgr_ptr</text>
</g>
<!-- Node7 -->
<g id="node5" class="node">
<title>Node7</title>
<g id="a_node5"><a xlink:href="classCantera_1_1MultiSpeciesThermo.html" target="_top" xlink:title="A species thermodynamic property manager for a phase. ">
<polygon fill="#ffffff" stroke="#000000" points="0,-248.5 0,-267.5 106,-267.5 106,-248.5 0,-248.5"/>
<text text-anchor="middle" x="53" y="-255.5" font-family="Helvetica,sans-Serif" font-size="10.00" fill="#000000">MultiSpeciesThermo</text>
</a>
</g>
</g>
<!-- Node7&#45;&gt;Node5 -->
<g id="edge6" class="edge">
<title>Node7&#45;&gt;Node5</title>
<path fill="none" stroke="#9a32cd" stroke-dasharray="5,2" d="M45.588,-238.7575C40.5667,-222.419 36.4159,-198.8504 46,-181 59.3878,-156.0654 89.0092,-140.197 109.7261,-131.7018"/>
<polygon fill="#9a32cd" stroke="#9a32cd" points="42.3143,-240.0006 48.8778,-248.3175 48.9333,-237.7228 42.3143,-240.0006"/>
<text text-anchor="middle" x="75" y="-188.5" font-family="Helvetica,sans-Serif" font-size="10.00" fill="#000000"> m_spthermo</text>
</g>
<!-- Node7&#45;&gt;Node6 -->
<g id="edge4" class="edge">
<title>Node7&#45;&gt;Node6</title>
<path fill="none" stroke="#9a32cd" stroke-dasharray="5,2" d="M65.2236,-239.8878C70.6741,-232.7456 77.5472,-224.8648 85,-219 94.6657,-211.3938 106.7335,-205.1546 117.3546,-200.5118"/>
<polygon fill="#9a32cd" stroke="#9a32cd" points="62.1464,-238.1716 59.144,-248.3321 67.8273,-242.2617 62.1464,-238.1716"/>
<text text-anchor="middle" x="114" y="-222" font-family="Helvetica,sans-Serif" font-size="10.00" fill="#000000"> m_spthermo</text>
</g>
<!-- Node8 -->
<g id="node6" class="node">
<title>Node8</title>
<g id="a_node6"><a xlink:href="classCantera_1_1VPStandardStateTP.html" target="_top" xlink:title="This is a filter class for ThermoPhase that implements some prepatory steps for efficiently handling ...">
<polygon fill="#ffffff" stroke="#ff0000" points="144.5,-248.5 144.5,-267.5 249.5,-267.5 249.5,-248.5 144.5,-248.5"/>
<text text-anchor="middle" x="197" y="-255.5" font-family="Helvetica,sans-Serif" font-size="10.00" fill="#000000">VPStandardStateTP</text>
</a>
</g>
</g>
<!-- Node8&#45;&gt;Node5 -->
<g id="edge7" class="edge">
<title>Node8&#45;&gt;Node5</title>
<path fill="none" stroke="#9a32cd" stroke-dasharray="5,2" d="M204.823,-238.9376C212.7997,-216.1601 221.7088,-177.8876 204,-152 198.1314,-143.421 172.9746,-134.966 154.0379,-129.6299"/>
<polygon fill="#9a32cd" stroke="#9a32cd" points="201.4768,-237.8912 201.2128,-248.4828 208.0242,-240.3676 201.4768,-237.8912"/>
<text text-anchor="middle" x="227.5" y="-188.5" font-family="Helvetica,sans-Serif" font-size="10.00" fill="#000000"> m_tp</text>
</g>
<!-- Node8&#45;&gt;Node6 -->
<g id="edge5" class="edge">
<title>Node8&#45;&gt;Node6</title>
<path fill="none" stroke="#9a32cd" stroke-dasharray="5,2" d="M165.4091,-242.8904C160.3216,-239.2757 155.5645,-234.9876 152,-230 145.8587,-221.4067 143.8374,-209.269 143.2086,-200.8252"/>
<polygon fill="#9a32cd" stroke="#9a32cd" points="163.7959,-246.0096 174.1307,-248.3428 167.5066,-240.074 163.7959,-246.0096"/>
<text text-anchor="middle" x="178" y="-222" font-family="Helvetica,sans-Serif" font-size="10.00" fill="#000000"> m_vptp_ptr</text>
</g>
</g>
</svg>
