<?xml version="1.0" encoding="UTF-8" standalone="no"?>
<!DOCTYPE svg PUBLIC "-//W3C//DTD SVG 1.1//EN"
 "http://www.w3.org/Graphics/SVG/1.1/DTD/svg11.dtd">
<!-- Generated by graphviz version 2.40.1 (20161225.0304)
 -->
<!-- Title: InterfaceKinetics Pages: 1 -->
<svg width="432pt" height="297pt"
 viewBox="0.00 0.00 432.00 297.00" xmlns="http://www.w3.org/2000/svg" xmlns:xlink="http://www.w3.org/1999/xlink">
<g id="graph0" class="graph" transform="scale(1 1) rotate(0) translate(4 293)">
<title>InterfaceKinetics</title>
<polygon fill="#ffffff" stroke="transparent" points="-4,4 -4,-293 428,-293 428,4 -4,4"/>
<!-- Node5 -->
<g id="node1" class="node">
<title>Node5</title>
<polygon fill="#bfbfbf" stroke="#000000" points="146,-.5 146,-19.5 236,-19.5 236,-.5 146,-.5"/>
<text text-anchor="middle" x="191" y="-7.5" font-family="Helvetica,sans-Serif" font-size="10.00" fill="#000000">InterfaceKinetics</text>
</g>
<!-- Node6 -->
<g id="node2" class="node">
<title>Node6</title>
<g id="a_node2"><a xlink:href="classCantera_1_1Kinetics.html" target="_top" xlink:title="Public interface for kinetics managers. ">
<polygon fill="#ffffff" stroke="#000000" points="0,-162.5 0,-181.5 52,-181.5 52,-162.5 0,-162.5"/>
<text text-anchor="middle" x="26" y="-169.5" font-family="Helvetica,sans-Serif" font-size="10.00" fill="#000000">Kinetics</text>
</a>
</g>
</g>
<!-- Node6&#45;&gt;Node5 -->
<g id="edge1" class="edge">
<title>Node6&#45;&gt;Node5</title>
<path fill="none" stroke="#191970" d="M25.1046,-152.0089C25.1482,-128.9093 28.683,-91.0061 49,-67 73.2833,-38.3074 114.1054,-23.9192 145.7642,-16.7884"/>
<polygon fill="#191970" stroke="#191970" points="21.6116,-152.3853 25.3174,-162.3108 28.6101,-152.2406 21.6116,-152.3853"/>
</g>
<!-- Node7 -->
<g id="node3" class="node">
<title>Node7</title>
<g id="a_node3"><a xlink:href="classCantera_1_1ValueCache.html" target="_top" xlink:title="ValueCache">
<polygon fill="#ffffff" stroke="#000000" points="14,-268.5 14,-287.5 84,-287.5 84,-268.5 14,-268.5"/>
<text text-anchor="middle" x="49" y="-275.5" font-family="Helvetica,sans-Serif" font-size="10.00" fill="#000000">ValueCache</text>
</a>
</g>
</g>
<!-- Node7&#45;&gt;Node6 -->
<g id="edge2" class="edge">
<title>Node7&#45;&gt;Node6</title>
<path fill="none" stroke="#9a32cd" stroke-dasharray="5,2" d="M29.9773,-260.7374C27.124,-257.1595 24.604,-253.1918 23,-249 14.2508,-226.1347 19.5432,-196.6125 23.273,-181.6349"/>
<polygon fill="#9a32cd" stroke="#9a32cd" points="27.6085,-263.3311 36.9655,-268.3008 32.7499,-258.5807 27.6085,-263.3311"/>
<text text-anchor="middle" x="44.5" y="-241" font-family="Helvetica,sans-Serif" font-size="10.00" fill="#000000"> m_cache</text>
</g>
<!-- Node10 -->
<g id="node6" class="node">
<title>Node10</title>
<g id="a_node6"><a xlink:href="classCantera_1_1Phase.html" target="_top" xlink:title="Class Phase is the base class for phases of matter, managing the species and elements in a phase...">
<polygon fill="#ffffff" stroke="#000000" points="70,-200.5 70,-219.5 114,-219.5 114,-200.5 70,-200.5"/>
<text text-anchor="middle" x="92" y="-207.5" font-family="Helvetica,sans-Serif" font-size="10.00" fill="#000000">Phase</text>
</a>
</g>
</g>
<!-- Node7&#45;&gt;Node10 -->
<g id="edge8" class="edge">
<title>Node7&#45;&gt;Node10</title>
<path fill="none" stroke="#9a32cd" stroke-dasharray="5,2" d="M62.55,-259.9497C65.0991,-256.3714 67.688,-252.6057 70,-249 76.2103,-239.3148 82.593,-227.7932 86.873,-219.7956"/>
<polygon fill="#9a32cd" stroke="#9a32cd" points="59.5506,-258.1222 56.4754,-268.2609 65.202,-262.2528 59.5506,-258.1222"/>
<text text-anchor="middle" x="98.5" y="-241" font-family="Helvetica,sans-Serif" font-size="10.00" fill="#000000"> m_cache</text>
</g>
<!-- Node8 -->
<g id="node4" class="node">
<title>Node8</title>
<g id="a_node4"><a xlink:href="classCantera_1_1SurfPhase.html" target="_top" xlink:title="A simple thermodynamic model for a surface phase, assuming an ideal solution model. ">
<polygon fill="#ffffff" stroke="#000000" points="58,-67.5 58,-86.5 120,-86.5 120,-67.5 58,-67.5"/>
<text text-anchor="middle" x="89" y="-74.5" font-family="Helvetica,sans-Serif" font-size="10.00" fill="#000000">SurfPhase</text>
</a>
</g>
</g>
<!-- Node8&#45;&gt;Node5 -->
<g id="edge3" class="edge">
<title>Node8&#45;&gt;Node5</title>
<path fill="none" stroke="#9a32cd" stroke-dasharray="5,2" d="M112.0461,-61.8619C131.7856,-48.8957 159.6099,-30.619 176.413,-19.5817"/>
<polygon fill="#9a32cd" stroke="#9a32cd" points="110.0507,-58.985 103.6141,-67.4005 113.8938,-64.8357 110.0507,-58.985"/>
<text text-anchor="middle" x="164" y="-41" font-family="Helvetica,sans-Serif" font-size="10.00" fill="#000000"> m_surf</text>
</g>
<!-- Node9 -->
<g id="node5" class="node">
<title>Node9</title>
<g id="a_node5"><a xlink:href="classCantera_1_1ThermoPhase.html" target="_top" xlink:title="Base class for a phase with thermodynamic properties. ">
<polygon fill="#ffffff" stroke="#000000" points="54.5,-124.5 54.5,-143.5 131.5,-143.5 131.5,-124.5 54.5,-124.5"/>
<text text-anchor="middle" x="93" y="-131.5" font-family="Helvetica,sans-Serif" font-size="10.00" fill="#000000">ThermoPhase</text>
</a>
</g>
</g>
<!-- Node9&#45;&gt;Node8 -->
<g id="edge4" class="edge">
<title>Node9&#45;&gt;Node8</title>
<path fill="none" stroke="#191970" d="M91.6129,-114.2342C90.9543,-104.8491 90.1976,-94.0651 89.6685,-86.5265"/>
<polygon fill="#191970" stroke="#191970" points="88.1299,-114.6003 92.3215,-124.3307 95.1127,-114.1102 88.1299,-114.6003"/>
</g>
<!-- Node10&#45;&gt;Node9 -->
<g id="edge5" class="edge">
<title>Node10&#45;&gt;Node9</title>
<path fill="none" stroke="#191970" d="M92.2614,-190.1362C92.4576,-175.2258 92.7178,-155.4488 92.8712,-143.7874"/>
<polygon fill="#191970" stroke="#191970" points="88.7586,-190.3293 92.1267,-200.3745 95.758,-190.4215 88.7586,-190.3293"/>
</g>
<!-- Node11 -->
<g id="node7" class="node">
<title>Node11</title>
<g id="a_node7"><a xlink:href="classCantera_1_1XML__Node.html" target="_top" xlink:title="Class XML_Node is a tree&#45;based representation of the contents of an XML file. ">
<polygon fill="#ffffff" stroke="#000000" points="125.5,-268.5 125.5,-287.5 190.5,-287.5 190.5,-268.5 125.5,-268.5"/>
<text text-anchor="middle" x="158" y="-275.5" font-family="Helvetica,sans-Serif" font-size="10.00" fill="#000000">XML_Node</text>
</a>
</g>
</g>
<!-- Node11&#45;&gt;Node10 -->
<g id="edge6" class="edge">
<title>Node11&#45;&gt;Node10</title>
<path fill="none" stroke="#9a32cd" stroke-dasharray="5,2" d="M144.1824,-260.6275C138.2063,-253.4147 130.9902,-245.0911 124,-238 117.6775,-231.5862 110.1136,-224.9265 103.9274,-219.7118"/>
<polygon fill="#9a32cd" stroke="#9a32cd" points="141.515,-262.8948 150.5405,-268.4439 146.9454,-258.4776 141.515,-262.8948"/>
<text text-anchor="middle" x="150.5" y="-241" font-family="Helvetica,sans-Serif" font-size="10.00" fill="#000000"> m_xml</text>
</g>
<!-- Node11&#45;&gt;Node11 -->
<g id="edge7" class="edge">
<title>Node11&#45;&gt;Node11</title>
<path fill="none" stroke="#9a32cd" stroke-dasharray="5,2" d="M200.6447,-283.3827C205.4145,-282.3675 208.5,-280.5732 208.5,-278 208.5,-273.8828 200.6012,-271.7599 190.5425,-271.6312"/>
<polygon fill="#9a32cd" stroke="#9a32cd" points="200.1551,-279.9138 190.5425,-284.3688 200.8352,-286.8806 200.1551,-279.9138"/>
<text text-anchor="middle" x="229" y="-281" font-family="Helvetica,sans-Serif" font-size="10.00" fill="#000000"> m_root</text>
<text text-anchor="middle" x="229" y="-270" font-family="Helvetica,sans-Serif" font-size="10.00" fill="#000000">m_parent</text>
</g>
<!-- Node12 -->
<g id="node8" class="node">
<title>Node12</title>
<g id="a_node8"><a xlink:href="classCantera_1_1MultiSpeciesThermo.html" target="_top" xlink:title="A species thermodynamic property manager for a phase. ">
<polygon fill="#ffffff" stroke="#000000" points="132,-200.5 132,-219.5 238,-219.5 238,-200.5 132,-200.5"/>
<text text-anchor="middle" x="185" y="-207.5" font-family="Helvetica,sans-Serif" font-size="10.00" fill="#000000">MultiSpeciesThermo</text>
</a>
</g>
</g>
<!-- Node12&#45;&gt;Node9 -->
<g id="edge9" class="edge">
<title>Node12&#45;&gt;Node9</title>
<path fill="none" stroke="#9a32cd" stroke-dasharray="5,2" d="M165.5373,-193.9221C147.0442,-178.6452 119.8547,-156.1843 104.5573,-143.5473"/>
<polygon fill="#9a32cd" stroke="#9a32cd" points="163.4094,-196.7041 173.3481,-200.3745 167.8676,-191.3073 163.4094,-196.7041"/>
<text text-anchor="middle" x="179" y="-169.5" font-family="Helvetica,sans-Serif" font-size="10.00" fill="#000000"> m_spthermo</text>
</g>
<!-- Node13 -->
<g id="node9" class="node">
<title>Node13</title>
<g id="a_node9"><a xlink:href="classCantera_1_1Rate1.html" target="_top" xlink:title="Rate1\&lt; Cantera::SurfaceArrhenius \&gt;">
<polygon fill="#ffffff" stroke="#000000" points="138,-67.5 138,-86.5 314,-86.5 314,-67.5 138,-67.5"/>
<text text-anchor="middle" x="226" y="-74.5" font-family="Helvetica,sans-Serif" font-size="10.00" fill="#000000">Rate1&lt; Cantera::SurfaceArrhenius &gt;</text>
</a>
</g>
</g>
<!-- Node13&#45;&gt;Node5 -->
<g id="edge10" class="edge">
<title>Node13&#45;&gt;Node5</title>
<path fill="none" stroke="#9a32cd" stroke-dasharray="5,2" d="M216.1986,-58.2374C209.6291,-45.6614 201.2517,-29.6246 196.0053,-19.5817"/>
<polygon fill="#9a32cd" stroke="#9a32cd" points="213.2529,-60.1576 220.9854,-67.4005 219.4573,-56.9165 213.2529,-60.1576"/>
<text text-anchor="middle" x="230.5" y="-41" font-family="Helvetica,sans-Serif" font-size="10.00" fill="#000000"> m_rates</text>
</g>
<!-- Node14 -->
<g id="node10" class="node">
<title>Node14</title>
<g id="a_node10"><a xlink:href="classCantera_1_1ImplicitSurfChem.html" target="_top" xlink:title="Advances the surface coverages of the associated set of SurfacePhase objects in time. ">
<polygon fill="#ffffff" stroke="#000000" points="332,-67.5 332,-86.5 424,-86.5 424,-67.5 332,-67.5"/>
<text text-anchor="middle" x="378" y="-74.5" font-family="Helvetica,sans-Serif" font-size="10.00" fill="#000000">ImplicitSurfChem</text>
</a>
</g>
</g>
<!-- Node14&#45;&gt;Node5 -->
<g id="edge11" class="edge">
<title>Node14&#45;&gt;Node5</title>
<path fill="none" stroke="#9a32cd" stroke-dasharray="5,2" d="M341.4819,-63.916C305.1335,-50.8928 250.2137,-31.2156 217.7428,-19.5817"/>
<polygon fill="#9a32cd" stroke="#9a32cd" points="340.6129,-67.3224 351.2075,-67.4005 342.974,-60.7326 340.6129,-67.3224"/>
<text text-anchor="middle" x="325" y="-41" font-family="Helvetica,sans-Serif" font-size="10.00" fill="#000000"> m_integrator</text>
</g>
<!-- Node15 -->
<g id="node11" class="node">
<title>Node15</title>
<g id="a_node11"><a xlink:href="classCantera_1_1FuncEval.html" target="_top" xlink:title="Virtual base class for ODE right&#45;hand&#45;side function evaluators. ">
<polygon fill="#ffffff" stroke="#000000" points="349,-124.5 349,-143.5 407,-143.5 407,-124.5 349,-124.5"/>
<text text-anchor="middle" x="378" y="-131.5" font-family="Helvetica,sans-Serif" font-size="10.00" fill="#000000">FuncEval</text>
</a>
</g>
</g>
<!-- Node15&#45;&gt;Node14 -->
<g id="edge12" class="edge">
<title>Node15&#45;&gt;Node14</title>
<path fill="none" stroke="#191970" d="M378,-114.2342C378,-104.8491 378,-94.0651 378,-86.5265"/>
<polygon fill="#191970" stroke="#191970" points="374.5001,-114.3307 378,-124.3307 381.5001,-114.3308 374.5001,-114.3307"/>
</g>
</g>
</svg>
