<?xml version="1.0" encoding="UTF-8" standalone="no"?>
<!DOCTYPE svg PUBLIC "-//W3C//DTD SVG 1.1//EN"
 "http://www.w3.org/Graphics/SVG/1.1/DTD/svg11.dtd">
<!-- Generated by graphviz version 2.40.1 (20161225.0304)
 -->
<!-- Title: VPSSMgr Pages: 1 -->
<svg width="241pt" height="180pt"
 viewBox="0.00 0.00 241.00 180.00" xmlns="http://www.w3.org/2000/svg" xmlns:xlink="http://www.w3.org/1999/xlink">
<g id="graph0" class="graph" transform="scale(1 1) rotate(0) translate(4 176)">
<title>VPSSMgr</title>
<polygon fill="#ffffff" stroke="transparent" points="-4,4 -4,-176 237,-176 237,4 -4,4"/>
<!-- Node0 -->
<g id="node1" class="node">
<title>Node0</title>
<polygon fill="#bfbfbf" stroke="#000000" points="0,-76.5 0,-95.5 60,-95.5 60,-76.5 0,-76.5"/>
<text text-anchor="middle" x="30" y="-83.5" font-family="Helvetica,sans-Serif" font-size="10.00" fill="#000000">VPSSMgr</text>
</g>
<!-- Node1 -->
<g id="node2" class="node">
<title>Node1</title>
<g id="a_node2"><a xlink:href="classCantera_1_1VPSSMgr__ConstVol.html" target="_top" xlink:title="Constant Molar Volume e VPSS species thermo manager class. ">
<polygon fill="#ffffff" stroke="#000000" points="111.5,-152.5 111.5,-171.5 217.5,-171.5 217.5,-152.5 111.5,-152.5"/>
<text text-anchor="middle" x="164.5" y="-159.5" font-family="Helvetica,sans-Serif" font-size="10.00" fill="#000000">VPSSMgr_ConstVol</text>
</a>
</g>
</g>
<!-- Node0&#45;&gt;Node1 -->
<g id="edge1" class="edge">
<title>Node0&#45;&gt;Node1</title>
<path fill="none" stroke="#191970" d="M45.3548,-102.8155C57.8495,-115.5543 76.5451,-132.5864 96,-143 103.1812,-146.8439 111.2127,-149.9687 119.1786,-152.4896"/>
<polygon fill="#191970" stroke="#191970" points="47.8551,-100.3657 38.425,-95.5362 42.785,-105.1923 47.8551,-100.3657"/>
</g>
<!-- Node2 -->
<g id="node3" class="node">
<title>Node2</title>
<g id="a_node3"><a xlink:href="classCantera_1_1VPSSMgr__General.html" target="_top" xlink:title="Class that handles the calculation of standard state thermo properties for a set of species belonging...">
<polygon fill="#ffffff" stroke="#000000" points="115,-114.5 115,-133.5 214,-133.5 214,-114.5 115,-114.5"/>
<text text-anchor="middle" x="164.5" y="-121.5" font-family="Helvetica,sans-Serif" font-size="10.00" fill="#000000">VPSSMgr_General</text>
</a>
</g>
</g>
<!-- Node0&#45;&gt;Node2 -->
<g id="edge2" class="edge">
<title>Node0&#45;&gt;Node2</title>
<path fill="none" stroke="#191970" d="M70.0101,-97.5857C78.5812,-100.0486 87.5879,-102.6226 96,-105 107.0448,-108.1215 119.1051,-111.4825 129.9854,-114.4971"/>
<polygon fill="#191970" stroke="#191970" points="70.7885,-94.1677 60.2105,-94.7638 68.8515,-100.8943 70.7885,-94.1677"/>
</g>
<!-- Node3 -->
<g id="node4" class="node">
<title>Node3</title>
<g id="a_node4"><a xlink:href="classCantera_1_1VPSSMgr__IdealGas.html" target="_top" xlink:title="A VPSSMgr where all species in the phase obey an ideal gas equation of state. ">
<polygon fill="#ffffff" stroke="#000000" points="112.5,-76.5 112.5,-95.5 216.5,-95.5 216.5,-76.5 112.5,-76.5"/>
<text text-anchor="middle" x="164.5" y="-83.5" font-family="Helvetica,sans-Serif" font-size="10.00" fill="#000000">VPSSMgr_IdealGas</text>
</a>
</g>
</g>
<!-- Node0&#45;&gt;Node3 -->
<g id="edge3" class="edge">
<title>Node0&#45;&gt;Node3</title>
<path fill="none" stroke="#191970" d="M70.3927,-86C83.627,-86 98.5217,-86 112.4905,-86"/>
<polygon fill="#191970" stroke="#191970" points="70.1845,-82.5001 60.1844,-86 70.1844,-89.5001 70.1845,-82.5001"/>
</g>
<!-- Node4 -->
<g id="node5" class="node">
<title>Node4</title>
<g id="a_node5"><a xlink:href="classCantera_1_1VPSSMgr__Water__ConstVol.html" target="_top" xlink:title="Handles the calculation of standard state thermo properties for real water and a set of species which...">
<polygon fill="#ffffff" stroke="#000000" points="96,-38.5 96,-57.5 233,-57.5 233,-38.5 96,-38.5"/>
<text text-anchor="middle" x="164.5" y="-45.5" font-family="Helvetica,sans-Serif" font-size="10.00" fill="#000000">VPSSMgr_Water_ConstVol</text>
</a>
</g>
</g>
<!-- Node0&#45;&gt;Node4 -->
<g id="edge4" class="edge">
<title>Node0&#45;&gt;Node4</title>
<path fill="none" stroke="#191970" d="M70.0101,-74.4143C78.5812,-71.9514 87.5879,-69.3774 96,-67 107.0448,-63.8785 119.1051,-60.5175 129.9854,-57.5029"/>
<polygon fill="#191970" stroke="#191970" points="68.8515,-71.1057 60.2105,-77.2362 70.7885,-77.8323 68.8515,-71.1057"/>
</g>
<!-- Node5 -->
<g id="node6" class="node">
<title>Node5</title>
<g id="a_node6"><a xlink:href="classCantera_1_1VPSSMgr__Water__HKFT.html" target="_top" xlink:title="Manages standard state thermo properties for real water and a set of species which have the HKFT equa...">
<polygon fill="#ffffff" stroke="#000000" points="103,-.5 103,-19.5 226,-19.5 226,-.5 103,-.5"/>
<text text-anchor="middle" x="164.5" y="-7.5" font-family="Helvetica,sans-Serif" font-size="10.00" fill="#000000">VPSSMgr_Water_HKFT</text>
</a>
</g>
</g>
<!-- Node0&#45;&gt;Node5 -->
<g id="edge5" class="edge">
<title>Node0&#45;&gt;Node5</title>
<path fill="none" stroke="#191970" d="M45.3548,-69.1845C57.8495,-56.4457 76.5451,-39.4136 96,-29 103.1812,-25.1561 111.2127,-22.0313 119.1786,-19.5104"/>
<polygon fill="#191970" stroke="#191970" points="42.785,-66.8077 38.425,-76.4638 47.8551,-71.6343 42.785,-66.8077"/>
</g>
</g>
</svg>
