<?xml version="1.0" encoding="UTF-8" standalone="no"?>
<!DOCTYPE svg PUBLIC "-//W3C//DTD SVG 1.1//EN"
 "http://www.w3.org/Graphics/SVG/1.1/DTD/svg11.dtd">
<!-- Generated by graphviz version 2.40.1 (20161225.0304)
 -->
<!-- Title: clockWC.h Pages: 1 -->
<svg width="539pt" height="84pt"
 viewBox="0.00 0.00 539.00 84.00" xmlns="http://www.w3.org/2000/svg" xmlns:xlink="http://www.w3.org/1999/xlink">
<g id="graph0" class="graph" transform="scale(1 1) rotate(0) translate(4 80)">
<title>clockWC.h</title>
<polygon fill="#ffffff" stroke="transparent" points="-4,4 -4,-80 535,-80 535,4 -4,4"/>
<!-- Node2 -->
<g id="node1" class="node">
<title>Node2</title>
<polygon fill="#bfbfbf" stroke="#000000" points="220.5,-56.5 220.5,-75.5 285.5,-75.5 285.5,-56.5 220.5,-56.5"/>
<text text-anchor="middle" x="253" y="-63.5" font-family="Helvetica,sans-Serif" font-size="10.00" fill="#000000">clockWC.h</text>
</g>
<!-- Node3 -->
<g id="node2" class="node">
<title>Node3</title>
<g id="a_node2"><a xlink:href="clockWC_8cpp.html" target="_top" xlink:title="Definitions for a simple class that implements an Ansi C wall clock timer (see Cantera::clockWC). ">
<polygon fill="#ffffff" stroke="#000000" points="0,-.5 0,-19.5 76,-19.5 76,-.5 0,-.5"/>
<text text-anchor="middle" x="38" y="-7.5" font-family="Helvetica,sans-Serif" font-size="10.00" fill="#000000">clockWC.cpp</text>
</a>
</g>
</g>
<!-- Node2&#45;&gt;Node3 -->
<g id="edge1" class="edge">
<title>Node2&#45;&gt;Node3</title>
<path fill="none" stroke="#191970" d="M210.4386,-54.9142C170.756,-44.5783 112.1921,-29.3244 74.5669,-19.5244"/>
<polygon fill="#191970" stroke="#191970" points="209.7868,-58.3612 220.3461,-57.4948 211.5512,-51.5872 209.7868,-58.3612"/>
</g>
<!-- Node4 -->
<g id="node3" class="node">
<title>Node4</title>
<g id="a_node3"><a xlink:href="vcs__inest_8cpp.html" target="_top" xlink:title="Implementation methods for obtaining a good initial guess. ">
<polygon fill="#ffffff" stroke="#000000" points="94.5,-.5 94.5,-19.5 171.5,-19.5 171.5,-.5 94.5,-.5"/>
<text text-anchor="middle" x="133" y="-7.5" font-family="Helvetica,sans-Serif" font-size="10.00" fill="#000000">vcs_inest.cpp</text>
</a>
</g>
</g>
<!-- Node2&#45;&gt;Node4 -->
<g id="edge2" class="edge">
<title>Node2&#45;&gt;Node4</title>
<path fill="none" stroke="#191970" d="M223.2376,-52.1109C201.4768,-41.9559 172.5318,-28.4482 153.3595,-19.5011"/>
<polygon fill="#191970" stroke="#191970" points="221.8293,-55.316 232.3713,-56.3733 224.7895,-48.9727 221.8293,-55.316"/>
</g>
<!-- Node5 -->
<g id="node4" class="node">
<title>Node5</title>
<g id="a_node4"><a xlink:href="vcs__MultiPhaseEquil_8cpp.html" target="_top" xlink:title="Driver routine for the VCSnonideal equilibrium solver package. ">
<polygon fill="#ffffff" stroke="#000000" points="189.5,-.5 189.5,-19.5 316.5,-19.5 316.5,-.5 189.5,-.5"/>
<text text-anchor="middle" x="253" y="-7.5" font-family="Helvetica,sans-Serif" font-size="10.00" fill="#000000">vcs_MultiPhaseEquil.cpp</text>
</a>
</g>
</g>
<!-- Node2&#45;&gt;Node5 -->
<g id="edge3" class="edge">
<title>Node2&#45;&gt;Node5</title>
<path fill="none" stroke="#191970" d="M253,-46.1575C253,-37.155 253,-26.9199 253,-19.6427"/>
<polygon fill="#191970" stroke="#191970" points="249.5001,-46.2455 253,-56.2455 256.5001,-46.2456 249.5001,-46.2455"/>
</g>
<!-- Node6 -->
<g id="node5" class="node">
<title>Node6</title>
<g id="a_node5"><a xlink:href="vcs__solve_8cpp.html" target="_top" xlink:title="vcs_solve.cpp">
<polygon fill="#ffffff" stroke="#000000" points="335,-.5 335,-19.5 415,-19.5 415,-.5 335,-.5"/>
<text text-anchor="middle" x="375" y="-7.5" font-family="Helvetica,sans-Serif" font-size="10.00" fill="#000000">vcs_solve.cpp</text>
</a>
</g>
</g>
<!-- Node2&#45;&gt;Node6 -->
<g id="edge4" class="edge">
<title>Node2&#45;&gt;Node6</title>
<path fill="none" stroke="#191970" d="M283.2584,-52.1109C305.3819,-41.9559 334.8094,-28.4482 354.3011,-19.5011"/>
<polygon fill="#191970" stroke="#191970" points="281.6007,-49.0206 273.9725,-56.3733 284.521,-55.3824 281.6007,-49.0206"/>
</g>
<!-- Node7 -->
<g id="node6" class="node">
<title>Node7</title>
<g id="a_node6"><a xlink:href="vcs__solve__TP_8cpp.html" target="_top" xlink:title="Implementation file that contains the main algorithm for finding an equilibrium. ">
<polygon fill="#ffffff" stroke="#000000" points="433,-.5 433,-19.5 531,-19.5 531,-.5 433,-.5"/>
<text text-anchor="middle" x="482" y="-7.5" font-family="Helvetica,sans-Serif" font-size="10.00" fill="#000000">vcs_solve_TP.cpp</text>
</a>
</g>
</g>
<!-- Node2&#45;&gt;Node7 -->
<g id="edge5" class="edge">
<title>Node2&#45;&gt;Node7</title>
<path fill="none" stroke="#191970" d="M295.534,-55.5987C337.8283,-45.256 402.1547,-29.5255 443.1209,-19.5076"/>
<polygon fill="#191970" stroke="#191970" points="294.6925,-52.2012 285.8101,-57.9766 296.3553,-59.0009 294.6925,-52.2012"/>
</g>
</g>
</svg>
