<?xml version="1.0" encoding="UTF-8" standalone="no"?>
<!DOCTYPE svg PUBLIC "-//W3C//DTD SVG 1.1//EN"
 "http://www.w3.org/Graphics/SVG/1.1/DTD/svg11.dtd">
<!-- Generated by graphviz version 2.40.1 (20161225.0304)
 -->
<!-- Title: ct2ctml.cpp Pages: 1 -->
<svg width="1136pt" height="375pt"
 viewBox="0.00 0.00 1136.00 375.00" xmlns="http://www.w3.org/2000/svg" xmlns:xlink="http://www.w3.org/1999/xlink">
<g id="graph0" class="graph" transform="scale(1 1) rotate(0) translate(4 371)">
<title>ct2ctml.cpp</title>
<polygon fill="#ffffff" stroke="transparent" points="-4,4 -4,-371 1132,-371 1132,4 -4,4"/>
<!-- Node0 -->
<g id="node1" class="node">
<title>Node0</title>
<polygon fill="#bfbfbf" stroke="#000000" points="652.5,-347.5 652.5,-366.5 720.5,-366.5 720.5,-347.5 652.5,-347.5"/>
<text text-anchor="middle" x="686.5" y="-354.5" font-family="Helvetica,sans-Serif" font-size="10.00" fill="#000000">ct2ctml.cpp</text>
</g>
<!-- Node1 -->
<g id="node2" class="node">
<title>Node1</title>
<g id="a_node2"><a xlink:href="ctml_8h.html" target="_top" xlink:title="CTML (&quot;Cantera Markup Language&quot;) is the variant of XML that Cantera uses to store data...">
<polygon fill="#ffffff" stroke="#000000" points="190,-286 190,-305 293,-305 293,-286 190,-286"/>
<text text-anchor="middle" x="241.5" y="-293" font-family="Helvetica,sans-Serif" font-size="10.00" fill="#000000">cantera/base/ctml.h</text>
</a>
</g>
</g>
<!-- Node0&#45;&gt;Node1 -->
<g id="edge1" class="edge">
<title>Node0&#45;&gt;Node1</title>
<path fill="none" stroke="#191970" d="M652.3205,-352.2763C577.5054,-341.9367 398.346,-317.1765 303.2432,-304.0331"/>
<polygon fill="#191970" stroke="#191970" points="303.5763,-300.5459 293.1913,-302.6439 302.6179,-307.48 303.5763,-300.5459"/>
</g>
<!-- Node6 -->
<g id="node7" class="node">
<title>Node6</title>
<polygon fill="#ffffff" stroke="#bfbfbf" points="417.5,-.5 417.5,-19.5 461.5,-19.5 461.5,-.5 417.5,-.5"/>
<text text-anchor="middle" x="439.5" y="-7.5" font-family="Helvetica,sans-Serif" font-size="10.00" fill="#000000">vector</text>
</g>
<!-- Node0&#45;&gt;Node6 -->
<g id="edge29" class="edge">
<title>Node0&#45;&gt;Node6</title>
<path fill="none" stroke="#191970" d="M652.4162,-351.8377C606.2916,-344.2812 527.1493,-329.1204 504.5,-311 474.5453,-287.035 465.5,-272.3615 465.5,-234 465.5,-234 465.5,-234 465.5,-122 465.5,-88.7204 454.4729,-51.2857 446.7813,-29.2224"/>
<polygon fill="#191970" stroke="#191970" points="450.0329,-27.9219 443.3364,-19.7117 443.4513,-30.3059 450.0329,-27.9219"/>
</g>
<!-- Node8 -->
<g id="node9" class="node">
<title>Node8</title>
<polygon fill="#ffffff" stroke="#bfbfbf" points="483,-.5 483,-19.5 524,-19.5 524,-.5 483,-.5"/>
<text text-anchor="middle" x="503.5" y="-7.5" font-family="Helvetica,sans-Serif" font-size="10.00" fill="#000000">string</text>
</g>
<!-- Node0&#45;&gt;Node8 -->
<g id="edge25" class="edge">
<title>Node0&#45;&gt;Node8</title>
<path fill="none" stroke="#191970" d="M652.1519,-352.0809C609.032,-345.145 538.7271,-331.0589 522.5,-311 487.5402,-267.7848 497.5,-89.2119 501.9171,-29.5272"/>
<polygon fill="#191970" stroke="#191970" points="505.4081,-29.7767 502.6885,-19.5368 498.4289,-29.2377 505.4081,-29.7767"/>
</g>
<!-- Node16 -->
<g id="node15" class="node">
<title>Node16</title>
<polygon fill="#ffffff" stroke="#bfbfbf" points="0,-112.5 0,-131.5 59,-131.5 59,-112.5 0,-112.5"/>
<text text-anchor="middle" x="29.5" y="-119.5" font-family="Helvetica,sans-Serif" font-size="10.00" fill="#000000">exception</text>
</g>
<!-- Node0&#45;&gt;Node16 -->
<g id="edge26" class="edge">
<title>Node0&#45;&gt;Node16</title>
<path fill="none" stroke="#191970" d="M652.4473,-355.2416C545.8512,-349.5525 223.1272,-330.8604 180.5,-311 110.1369,-278.2172 99.6156,-252.5502 56.5,-188 46.842,-173.5406 39.6544,-155.0806 35.1335,-141.3623"/>
<polygon fill="#191970" stroke="#191970" points="38.3926,-140.0554 32.0834,-131.544 31.7077,-142.1322 38.3926,-140.0554"/>
</g>
<!-- Node18 -->
<g id="node17" class="node">
<title>Node18</title>
<g id="a_node17"><a xlink:href="stringUtils_8h.html" target="_top" xlink:title="Contains declarations for string manipulation functions within Cantera. ">
<polygon fill="#ffffff" stroke="#000000" points="308.5,-168.5 308.5,-187.5 436.5,-187.5 436.5,-168.5 308.5,-168.5"/>
<text text-anchor="middle" x="372.5" y="-175.5" font-family="Helvetica,sans-Serif" font-size="10.00" fill="#000000">cantera/base/stringUtils.h</text>
</a>
</g>
</g>
<!-- Node0&#45;&gt;Node18 -->
<g id="edge19" class="edge">
<title>Node0&#45;&gt;Node18</title>
<path fill="none" stroke="#191970" d="M652.3268,-353.7535C595.205,-347.77 483.4396,-333.5165 451.5,-311 411.2281,-282.6094 388.1037,-226.6006 378.233,-197.1422"/>
<polygon fill="#191970" stroke="#191970" points="381.5603,-196.0557 375.1889,-187.5907 374.8908,-198.1814 381.5603,-196.0557"/>
</g>
<!-- Node20 -->
<g id="node19" class="node">
<title>Node20</title>
<polygon fill="#ffffff" stroke="#bfbfbf" points="531.5,-280.5 531.5,-310.5 643.5,-310.5 643.5,-280.5 531.5,-280.5"/>
<text text-anchor="start" x="539.5" y="-298.5" font-family="Helvetica,sans-Serif" font-size="10.00" fill="#000000">../../ext/libexecstream</text>
<text text-anchor="middle" x="587.5" y="-287.5" font-family="Helvetica,sans-Serif" font-size="10.00" fill="#000000">/exec&#45;stream.h</text>
</g>
<!-- Node0&#45;&gt;Node20 -->
<g id="edge24" class="edge">
<title>Node0&#45;&gt;Node20</title>
<path fill="none" stroke="#191970" d="M671.0313,-347.3906C657.5087,-338.9903 637.4189,-326.5103 620.3302,-315.8945"/>
<polygon fill="#191970" stroke="#191970" points="622.0595,-312.8484 611.7181,-310.5446 618.3656,-318.7945 622.0595,-312.8484"/>
</g>
<!-- Node21 -->
<g id="node20" class="node">
<title>Node21</title>
<polygon fill="#ffffff" stroke="#bfbfbf" points="662,-286 662,-305 711,-305 711,-286 662,-286"/>
<text text-anchor="middle" x="686.5" y="-293" font-family="Helvetica,sans-Serif" font-size="10.00" fill="#000000">istream</text>
</g>
<!-- Node0&#45;&gt;Node21 -->
<g id="edge27" class="edge">
<title>Node0&#45;&gt;Node21</title>
<path fill="none" stroke="#191970" d="M686.5,-347.3906C686.5,-338.8657 686.5,-326.1392 686.5,-315.4235"/>
<polygon fill="#191970" stroke="#191970" points="690.0001,-315.2448 686.5,-305.2449 683.0001,-315.2449 690.0001,-315.2448"/>
</g>
<!-- Node22 -->
<g id="node21" class="node">
<title>Node22</title>
<polygon fill="#ffffff" stroke="#bfbfbf" points="729.5,-286 729.5,-305 781.5,-305 781.5,-286 729.5,-286"/>
<text text-anchor="middle" x="755.5" y="-293" font-family="Helvetica,sans-Serif" font-size="10.00" fill="#000000">ostream</text>
</g>
<!-- Node0&#45;&gt;Node22 -->
<g id="edge28" class="edge">
<title>Node0&#45;&gt;Node22</title>
<path fill="none" stroke="#191970" d="M697.2813,-347.3906C707.8526,-337.9683 724.1825,-323.4134 736.8603,-312.1137"/>
<polygon fill="#191970" stroke="#191970" points="739.4304,-314.5114 744.5667,-305.2449 734.7728,-309.2858 739.4304,-314.5114"/>
</g>
<!-- Node23 -->
<g id="node22" class="node">
<title>Node23</title>
<polygon fill="#ffffff" stroke="#bfbfbf" points="800,-286 800,-305 843,-305 843,-286 800,-286"/>
<text text-anchor="middle" x="821.5" y="-293" font-family="Helvetica,sans-Serif" font-size="10.00" fill="#000000">cstdio</text>
</g>
<!-- Node0&#45;&gt;Node23 -->
<g id="edge30" class="edge">
<title>Node0&#45;&gt;Node23</title>
<path fill="none" stroke="#191970" d="M708.9542,-347.4322C730.1115,-338.3313 762.6352,-324.1197 790.5,-311 791.4799,-310.5386 792.4753,-310.0655 793.4791,-309.5846"/>
<polygon fill="#191970" stroke="#191970" points="795.1037,-312.6863 802.5518,-305.1513 792.0304,-306.397 795.1037,-312.6863"/>
</g>
<!-- Node24 -->
<g id="node23" class="node">
<title>Node24</title>
<polygon fill="#ffffff" stroke="#bfbfbf" points="861.5,-286 861.5,-305 911.5,-305 911.5,-286 861.5,-286"/>
<text text-anchor="middle" x="886.5" y="-293" font-family="Helvetica,sans-Serif" font-size="10.00" fill="#000000">fstream</text>
</g>
<!-- Node0&#45;&gt;Node24 -->
<g id="edge31" class="edge">
<title>Node0&#45;&gt;Node24</title>
<path fill="none" stroke="#191970" d="M720.6919,-349.196C754.6031,-341.0679 807.8173,-327.2614 852.5,-311 854.1345,-310.4052 855.7996,-309.7649 857.4709,-309.0952"/>
<polygon fill="#191970" stroke="#191970" points="859.1205,-312.1967 866.9422,-305.0502 856.3711,-305.7592 859.1205,-312.1967"/>
</g>
<!-- Node25 -->
<g id="node24" class="node">
<title>Node25</title>
<polygon fill="#ffffff" stroke="#bfbfbf" points="929.5,-286 929.5,-305 981.5,-305 981.5,-286 929.5,-286"/>
<text text-anchor="middle" x="955.5" y="-293" font-family="Helvetica,sans-Serif" font-size="10.00" fill="#000000">sstream</text>
</g>
<!-- Node0&#45;&gt;Node25 -->
<g id="edge32" class="edge">
<title>Node0&#45;&gt;Node25</title>
<path fill="none" stroke="#191970" d="M720.8062,-352.698C766.9447,-346.3633 851.2031,-332.8545 920.5,-311 922.4014,-310.4004 924.3377,-309.7284 926.2748,-309.0093"/>
<polygon fill="#191970" stroke="#191970" points="927.8593,-312.1435 935.8072,-305.1376 925.2251,-305.658 927.8593,-312.1435"/>
</g>
<!-- Node26 -->
<g id="node25" class="node">
<title>Node26</title>
<polygon fill="#ffffff" stroke="#bfbfbf" points="1000,-286 1000,-305 1059,-305 1059,-286 1000,-286"/>
<text text-anchor="middle" x="1029.5" y="-293" font-family="Helvetica,sans-Serif" font-size="10.00" fill="#000000">functional</text>
</g>
<!-- Node0&#45;&gt;Node26 -->
<g id="edge33" class="edge">
<title>Node0&#45;&gt;Node26</title>
<path fill="none" stroke="#191970" d="M720.7614,-354.3791C777.609,-349.4636 894.6618,-336.9302 990.5,-311 993.1132,-310.293 995.7895,-309.4646 998.4554,-308.5651"/>
<polygon fill="#191970" stroke="#191970" points="999.7526,-311.8174 1007.9336,-305.0853 997.34,-305.2462 999.7526,-311.8174"/>
</g>
<!-- Node27 -->
<g id="node26" class="node">
<title>Node27</title>
<polygon fill="#ffffff" stroke="#bfbfbf" points="1077,-286 1077,-305 1128,-305 1128,-286 1077,-286"/>
<text text-anchor="middle" x="1102.5" y="-293" font-family="Helvetica,sans-Serif" font-size="10.00" fill="#000000">unistd.h</text>
</g>
<!-- Node0&#45;&gt;Node27 -->
<g id="edge34" class="edge">
<title>Node0&#45;&gt;Node27</title>
<path fill="none" stroke="#191970" d="M720.7459,-354.2337C801.7678,-347.4706 1003.3052,-329.3094 1068.5,-311 1070.4674,-310.4475 1072.4654,-309.7963 1074.4566,-309.079"/>
<polygon fill="#191970" stroke="#191970" points="1076.2579,-312.1234 1084.1844,-305.0934 1073.604,-305.646 1076.2579,-312.1234"/>
</g>
<!-- Node2 -->
<g id="node3" class="node">
<title>Node2</title>
<g id="a_node3"><a xlink:href="ct__defs_8h.html" target="_top" xlink:title="This file contains definitions of terms that are used in internal routines and are unlikely to need m...">
<polygon fill="#ffffff" stroke="#000000" points="224,-56.5 224,-75.5 281,-75.5 281,-56.5 224,-56.5"/>
<text text-anchor="middle" x="252.5" y="-63.5" font-family="Helvetica,sans-Serif" font-size="10.00" fill="#000000">ct_defs.h</text>
</a>
</g>
</g>
<!-- Node1&#45;&gt;Node2 -->
<g id="edge2" class="edge">
<title>Node1&#45;&gt;Node2</title>
<path fill="none" stroke="#191970" d="M241.9587,-285.9309C243.6115,-251.4475 249.2841,-133.0953 251.552,-85.7785"/>
<polygon fill="#191970" stroke="#191970" points="255.0565,-85.7661 252.0394,-75.61 248.0646,-85.4309 255.0565,-85.7661"/>
</g>
<!-- Node11 -->
<g id="node12" class="node">
<title>Node11</title>
<g id="a_node12"><a xlink:href="xml_8h.html" target="_top" xlink:title="Classes providing support for XML data files. ">
<polygon fill="#ffffff" stroke="#000000" points="168,-224.5 168,-243.5 209,-243.5 209,-224.5 168,-224.5"/>
<text text-anchor="middle" x="188.5" y="-231.5" font-family="Helvetica,sans-Serif" font-size="10.00" fill="#000000">xml.h</text>
</a>
</g>
</g>
<!-- Node1&#45;&gt;Node11 -->
<g id="edge11" class="edge">
<title>Node1&#45;&gt;Node11</title>
<path fill="none" stroke="#191970" d="M233.2188,-285.8906C225.3307,-276.7376 213.2686,-262.7409 203.6588,-251.59"/>
<polygon fill="#191970" stroke="#191970" points="206.0775,-249.0352 196.898,-243.7449 200.7749,-253.6049 206.0775,-249.0352"/>
</g>
<!-- Node3 -->
<g id="node4" class="node">
<title>Node3</title>
<g id="a_node4"><a xlink:href="config_8h_source.html" target="_top" xlink:title="config.h">
<polygon fill="#ffffff" stroke="#000000" points="164,-.5 164,-19.5 215,-19.5 215,-.5 164,-.5"/>
<text text-anchor="middle" x="189.5" y="-7.5" font-family="Helvetica,sans-Serif" font-size="10.00" fill="#000000">config.h</text>
</a>
</g>
</g>
<!-- Node2&#45;&gt;Node3 -->
<g id="edge3" class="edge">
<title>Node2&#45;&gt;Node3</title>
<path fill="none" stroke="#191970" d="M241.5262,-56.2455C232.3118,-48.0549 218.9468,-36.1749 208.0703,-26.5069"/>
<polygon fill="#191970" stroke="#191970" points="210.1474,-23.6704 200.348,-19.6427 205.4968,-28.9023 210.1474,-23.6704"/>
</g>
<!-- Node4 -->
<g id="node5" class="node">
<title>Node4</title>
<polygon fill="#ffffff" stroke="#bfbfbf" points="233.5,-.5 233.5,-19.5 277.5,-19.5 277.5,-.5 233.5,-.5"/>
<text text-anchor="middle" x="255.5" y="-7.5" font-family="Helvetica,sans-Serif" font-size="10.00" fill="#000000">cmath</text>
</g>
<!-- Node2&#45;&gt;Node4 -->
<g id="edge4" class="edge">
<title>Node2&#45;&gt;Node4</title>
<path fill="none" stroke="#191970" d="M253.0226,-56.2455C253.414,-48.9382 253.9628,-38.6944 254.4444,-29.7046"/>
<polygon fill="#191970" stroke="#191970" points="257.9434,-29.8156 254.9834,-19.6427 250.9534,-29.4411 257.9434,-29.8156"/>
</g>
<!-- Node5 -->
<g id="node6" class="node">
<title>Node5</title>
<polygon fill="#ffffff" stroke="#bfbfbf" points="296,-.5 296,-19.5 341,-19.5 341,-.5 296,-.5"/>
<text text-anchor="middle" x="318.5" y="-7.5" font-family="Helvetica,sans-Serif" font-size="10.00" fill="#000000">cstdlib</text>
</g>
<!-- Node2&#45;&gt;Node5 -->
<g id="edge5" class="edge">
<title>Node2&#45;&gt;Node5</title>
<path fill="none" stroke="#191970" d="M263.9963,-56.2455C273.7442,-47.9746 287.9259,-35.9416 299.3798,-26.2232"/>
<polygon fill="#191970" stroke="#191970" points="301.7747,-28.7813 307.1354,-19.6427 297.2459,-23.4437 301.7747,-28.7813"/>
</g>
<!-- Node2&#45;&gt;Node6 -->
<g id="edge6" class="edge">
<title>Node2&#45;&gt;Node6</title>
<path fill="none" stroke="#191970" d="M281.3089,-57.3727C315.4372,-47.1525 372.1196,-30.1781 407.5612,-19.5646"/>
<polygon fill="#191970" stroke="#191970" points="408.8181,-22.8418 417.3937,-16.6201 406.8099,-16.136 408.8181,-22.8418"/>
</g>
<!-- Node7 -->
<g id="node8" class="node">
<title>Node7</title>
<polygon fill="#ffffff" stroke="#bfbfbf" points="359,-.5 359,-19.5 394,-19.5 394,-.5 359,-.5"/>
<text text-anchor="middle" x="376.5" y="-7.5" font-family="Helvetica,sans-Serif" font-size="10.00" fill="#000000">map</text>
</g>
<!-- Node2&#45;&gt;Node7 -->
<g id="edge7" class="edge">
<title>Node2&#45;&gt;Node7</title>
<path fill="none" stroke="#191970" d="M273.8164,-56.3733C294.6867,-46.9479 326.5687,-32.5496 349.2656,-22.2994"/>
<polygon fill="#191970" stroke="#191970" points="350.9999,-25.3566 358.673,-18.0509 348.1187,-18.977 350.9999,-25.3566"/>
</g>
<!-- Node2&#45;&gt;Node8 -->
<g id="edge8" class="edge">
<title>Node2&#45;&gt;Node8</title>
<path fill="none" stroke="#191970" d="M281.2494,-60.7534C323.1271,-52.926 403.2456,-37.2514 470.5,-20 471.3879,-19.7722 472.2877,-19.5359 473.1947,-19.293"/>
<polygon fill="#191970" stroke="#191970" points="474.3158,-22.6131 482.981,-16.5169 472.4054,-15.8788 474.3158,-22.6131"/>
</g>
<!-- Node9 -->
<g id="node10" class="node">
<title>Node9</title>
<polygon fill="#ffffff" stroke="#bfbfbf" points="19.5,-.5 19.5,-19.5 75.5,-19.5 75.5,-.5 19.5,-.5"/>
<text text-anchor="middle" x="47.5" y="-7.5" font-family="Helvetica,sans-Serif" font-size="10.00" fill="#000000">algorithm</text>
</g>
<!-- Node2&#45;&gt;Node9 -->
<g id="edge9" class="edge">
<title>Node2&#45;&gt;Node9</title>
<path fill="none" stroke="#191970" d="M223.9956,-58.2134C187.8896,-48.3503 125.5542,-31.3221 85.4498,-20.3668"/>
<polygon fill="#191970" stroke="#191970" points="86.3312,-16.9794 75.7623,-17.7204 84.4865,-23.732 86.3312,-16.9794"/>
</g>
<!-- Node10 -->
<g id="node11" class="node">
<title>Node10</title>
<polygon fill="#ffffff" stroke="#bfbfbf" points="93.5,-.5 93.5,-19.5 145.5,-19.5 145.5,-.5 93.5,-.5"/>
<text text-anchor="middle" x="119.5" y="-7.5" font-family="Helvetica,sans-Serif" font-size="10.00" fill="#000000">memory</text>
</g>
<!-- Node2&#45;&gt;Node10 -->
<g id="edge10" class="edge">
<title>Node2&#45;&gt;Node10</title>
<path fill="none" stroke="#191970" d="M229.6365,-56.3733C208.095,-47.3032 175.6162,-33.6279 151.5044,-23.4755"/>
<polygon fill="#191970" stroke="#191970" points="152.6397,-20.156 142.0652,-19.5011 149.9233,-26.6075 152.6397,-20.156"/>
</g>
<!-- Node12 -->
<g id="node13" class="node">
<title>Node12</title>
<g id="a_node13"><a xlink:href="ctexceptions_8h.html" target="_top" xlink:title="Definitions for the classes that are thrown when Cantera experiences an error condition (also contain...">
<polygon fill="#ffffff" stroke="#000000" points="65.5,-168.5 65.5,-187.5 145.5,-187.5 145.5,-168.5 65.5,-168.5"/>
<text text-anchor="middle" x="105.5" y="-175.5" font-family="Helvetica,sans-Serif" font-size="10.00" fill="#000000">ctexceptions.h</text>
</a>
</g>
</g>
<!-- Node11&#45;&gt;Node12 -->
<g id="edge12" class="edge">
<title>Node11&#45;&gt;Node12</title>
<path fill="none" stroke="#191970" d="M174.0425,-224.2455C161.4268,-215.7337 142.9056,-203.2375 128.2955,-193.3801"/>
<polygon fill="#191970" stroke="#191970" points="130.0391,-190.3343 119.7918,-187.6427 126.1239,-196.1371 130.0391,-190.3343"/>
</g>
<!-- Node17 -->
<g id="node16" class="node">
<title>Node17</title>
<g id="a_node16"><a xlink:href="global_8h.html" target="_top" xlink:title="This file contains definitions for utility functions and text for modules, inputfiles, logs, textlogs, (see Input File Handling, Diagnostic Output, and Writing messages to the screen). ">
<polygon fill="#ffffff" stroke="#000000" points="163.5,-168.5 163.5,-187.5 213.5,-187.5 213.5,-168.5 163.5,-168.5"/>
<text text-anchor="middle" x="188.5" y="-175.5" font-family="Helvetica,sans-Serif" font-size="10.00" fill="#000000">global.h</text>
</a>
</g>
</g>
<!-- Node11&#45;&gt;Node17 -->
<g id="edge16" class="edge">
<title>Node11&#45;&gt;Node17</title>
<path fill="none" stroke="#191970" d="M188.5,-224.2455C188.5,-216.9382 188.5,-206.6944 188.5,-197.7046"/>
<polygon fill="#191970" stroke="#191970" points="192.0001,-197.6426 188.5,-187.6427 185.0001,-197.6427 192.0001,-197.6426"/>
</g>
<!-- Node13 -->
<g id="node14" class="node">
<title>Node13</title>
<g id="a_node14"><a xlink:href="fmt_8h.html" target="_top" xlink:title="Wrapper for either system&#45;installed or local headers for fmt. ">
<polygon fill="#ffffff" stroke="#ff0000" points="77.5,-112.5 77.5,-131.5 175.5,-131.5 175.5,-112.5 77.5,-112.5"/>
<text text-anchor="middle" x="126.5" y="-119.5" font-family="Helvetica,sans-Serif" font-size="10.00" fill="#000000">cantera/base/fmt.h</text>
</a>
</g>
</g>
<!-- Node12&#45;&gt;Node13 -->
<g id="edge13" class="edge">
<title>Node12&#45;&gt;Node13</title>
<path fill="none" stroke="#191970" d="M109.1579,-168.2455C111.9584,-160.7776 115.909,-150.2427 119.3324,-141.1137"/>
<polygon fill="#191970" stroke="#191970" points="122.6499,-142.2349 122.884,-131.6427 116.0955,-139.777 122.6499,-142.2349"/>
</g>
<!-- Node12&#45;&gt;Node16 -->
<g id="edge15" class="edge">
<title>Node12&#45;&gt;Node16</title>
<path fill="none" stroke="#191970" d="M92.2618,-168.2455C80.819,-159.814 64.0704,-147.4729 50.7525,-137.6598"/>
<polygon fill="#191970" stroke="#191970" points="52.7133,-134.757 42.5865,-131.6427 48.5609,-140.3924 52.7133,-134.757"/>
</g>
<!-- Node13&#45;&gt;Node2 -->
<g id="edge14" class="edge">
<title>Node13&#45;&gt;Node2</title>
<path fill="none" stroke="#191970" d="M148.1602,-112.3733C168.4772,-103.3435 199.064,-89.7494 221.875,-79.6111"/>
<polygon fill="#191970" stroke="#191970" points="223.4059,-82.7609 231.1225,-75.5011 220.5628,-76.3642 223.4059,-82.7609"/>
</g>
<!-- Node17&#45;&gt;Node2 -->
<g id="edge17" class="edge">
<title>Node17&#45;&gt;Node2</title>
<path fill="none" stroke="#191970" d="M193.9566,-168.4509C204.5838,-149.8533 228.2189,-108.4919 241.9878,-84.3964"/>
<polygon fill="#191970" stroke="#191970" points="245.1346,-85.9438 247.0572,-75.5249 239.0569,-82.4708 245.1346,-85.9438"/>
</g>
<!-- Node17&#45;&gt;Node13 -->
<g id="edge18" class="edge">
<title>Node17&#45;&gt;Node13</title>
<path fill="none" stroke="#191970" d="M177.7004,-168.2455C168.6322,-160.0549 155.4794,-148.1749 144.7755,-138.5069"/>
<polygon fill="#191970" stroke="#191970" points="146.9429,-135.7482 137.1758,-131.6427 142.2509,-140.9429 146.9429,-135.7482"/>
</g>
<!-- Node18&#45;&gt;Node2 -->
<g id="edge20" class="edge">
<title>Node18&#45;&gt;Node2</title>
<path fill="none" stroke="#191970" d="M352.4511,-168.4077C336.6366,-160.201 314.6313,-147.3055 298.5,-132 283.8467,-118.0968 271.0686,-98.8381 262.7237,-84.7123"/>
<polygon fill="#191970" stroke="#191970" points="265.6814,-82.8336 257.6861,-75.8819 259.6012,-86.3022 265.6814,-82.8336"/>
</g>
<!-- Node18&#45;&gt;Node8 -->
<g id="edge23" class="edge">
<title>Node18&#45;&gt;Node8</title>
<path fill="none" stroke="#191970" d="M394.633,-168.4815C410.7341,-160.6364 432.1414,-148.1791 446.5,-132 473.7921,-101.2476 490.4873,-55.1675 498.2646,-29.335"/>
<polygon fill="#191970" stroke="#191970" points="501.662,-30.1849 501.0566,-19.6073 494.9336,-28.2537 501.662,-30.1849"/>
</g>
<!-- Node18&#45;&gt;Node13 -->
<g id="edge21" class="edge">
<title>Node18&#45;&gt;Node13</title>
<path fill="none" stroke="#191970" d="M330.4906,-168.4369C288.3896,-158.8529 223.4995,-144.0812 178.2479,-133.78"/>
<polygon fill="#191970" stroke="#191970" points="178.8636,-130.3307 168.3361,-131.5237 177.3098,-137.1561 178.8636,-130.3307"/>
</g>
<!-- Node19 -->
<g id="node18" class="node">
<title>Node19</title>
<polygon fill="#ffffff" stroke="#bfbfbf" points="308,-112.5 308,-131.5 437,-131.5 437,-112.5 308,-112.5"/>
<text text-anchor="middle" x="372.5" y="-119.5" font-family="Helvetica,sans-Serif" font-size="10.00" fill="#000000">boost/algorithm/string.hpp</text>
</g>
<!-- Node18&#45;&gt;Node19 -->
<g id="edge22" class="edge">
<title>Node18&#45;&gt;Node19</title>
<path fill="none" stroke="#191970" d="M372.5,-168.2455C372.5,-160.9382 372.5,-150.6944 372.5,-141.7046"/>
<polygon fill="#191970" stroke="#191970" points="376.0001,-141.6426 372.5,-131.6427 369.0001,-141.6427 376.0001,-141.6426"/>
</g>
</g>
</svg>
