<?xml version="1.0" encoding="UTF-8" standalone="no"?>
<!DOCTYPE svg PUBLIC "-//W3C//DTD SVG 1.1//EN"
 "http://www.w3.org/Graphics/SVG/1.1/DTD/svg11.dtd">
<!-- Generated by graphviz version 2.40.1 (20161225.0304)
 -->
<!-- Title: EdgePhase.h Pages: 1 -->
<svg width="649pt" height="308pt"
 viewBox="0.00 0.00 649.23 308.00" xmlns="http://www.w3.org/2000/svg" xmlns:xlink="http://www.w3.org/1999/xlink">
<g id="graph0" class="graph" transform="scale(1 1) rotate(0) translate(4 304)">
<title>EdgePhase.h</title>
<polygon fill="#ffffff" stroke="transparent" points="-4,4 -4,-304 645.23,-304 645.23,4 -4,4"/>
<!-- Node0 -->
<g id="node1" class="node">
<title>Node0</title>
<polygon fill="#bfbfbf" stroke="#000000" points="452.73,-280.5 452.73,-299.5 527.73,-299.5 527.73,-280.5 452.73,-280.5"/>
<text text-anchor="middle" x="490.23" y="-287.5" font-family="Helvetica,sans-Serif" font-size="10.00" fill="#000000">EdgePhase.h</text>
</g>
<!-- Node1 -->
<g id="node2" class="node">
<title>Node1</title>
<g id="a_node2"><a xlink:href="SurfPhase_8h.html" target="_top" xlink:title="Header for a simple thermodynamics model of a surface phase derived from ThermoPhase, assuming an ideal solution model (see Thermodynamic Properties and class SurfPhase). ">
<polygon fill="#ffffff" stroke="#000000" points="454.73,-224.5 454.73,-243.5 525.73,-243.5 525.73,-224.5 454.73,-224.5"/>
<text text-anchor="middle" x="490.23" y="-231.5" font-family="Helvetica,sans-Serif" font-size="10.00" fill="#000000">SurfPhase.h</text>
</a>
</g>
</g>
<!-- Node0&#45;&gt;Node1 -->
<g id="edge1" class="edge">
<title>Node0&#45;&gt;Node1</title>
<path fill="none" stroke="#191970" d="M490.23,-280.2455C490.23,-272.9382 490.23,-262.6944 490.23,-253.7046"/>
<polygon fill="#191970" stroke="#191970" points="493.7301,-253.6426 490.23,-243.6427 486.7301,-253.6427 493.7301,-253.6426"/>
</g>
<!-- Node2 -->
<g id="node3" class="node">
<title>Node2</title>
<g id="a_node3"><a xlink:href="mix__defs_8h.html" target="_top" xlink:title="mix_defs.h">
<polygon fill="#ffffff" stroke="#000000" points="410.73,-168.5 410.73,-187.5 475.73,-187.5 475.73,-168.5 410.73,-168.5"/>
<text text-anchor="middle" x="443.23" y="-175.5" font-family="Helvetica,sans-Serif" font-size="10.00" fill="#000000">mix_defs.h</text>
</a>
</g>
</g>
<!-- Node1&#45;&gt;Node2 -->
<g id="edge2" class="edge">
<title>Node1&#45;&gt;Node2</title>
<path fill="none" stroke="#191970" d="M482.0432,-224.2455C475.3711,-216.2958 465.782,-204.8706 457.8046,-195.3656"/>
<polygon fill="#191970" stroke="#191970" points="460.4326,-193.0524 451.3229,-187.6427 455.0707,-197.5525 460.4326,-193.0524"/>
</g>
<!-- Node3 -->
<g id="node4" class="node">
<title>Node3</title>
<g id="a_node4"><a xlink:href="ThermoPhase_8h.html" target="_top" xlink:title="Header file for class ThermoPhase, the base class for phases with thermodynamic properties, and the text for the Module thermoprops (see Thermodynamic Properties and class ThermoPhase). ">
<polygon fill="#ffffff" stroke="#000000" points="494.23,-168.5 494.23,-187.5 580.23,-187.5 580.23,-168.5 494.23,-168.5"/>
<text text-anchor="middle" x="537.23" y="-175.5" font-family="Helvetica,sans-Serif" font-size="10.00" fill="#000000">ThermoPhase.h</text>
</a>
</g>
</g>
<!-- Node1&#45;&gt;Node3 -->
<g id="edge3" class="edge">
<title>Node1&#45;&gt;Node3</title>
<path fill="none" stroke="#191970" d="M498.4167,-224.2455C505.0888,-216.2958 514.6779,-204.8706 522.6553,-195.3656"/>
<polygon fill="#191970" stroke="#191970" points="525.3892,-197.5525 529.137,-187.6427 520.0273,-193.0524 525.3892,-197.5525"/>
</g>
<!-- Node4 -->
<g id="node5" class="node">
<title>Node4</title>
<g id="a_node5"><a xlink:href="Phase_8h.html" target="_top" xlink:title="Header file for class Phase. ">
<polygon fill="#ffffff" stroke="#000000" points="202.73,-112.5 202.73,-131.5 255.73,-131.5 255.73,-112.5 202.73,-112.5"/>
<text text-anchor="middle" x="229.23" y="-119.5" font-family="Helvetica,sans-Serif" font-size="10.00" fill="#000000">Phase.h</text>
</a>
</g>
</g>
<!-- Node3&#45;&gt;Node4 -->
<g id="edge4" class="edge">
<title>Node3&#45;&gt;Node4</title>
<path fill="none" stroke="#191970" d="M494.1367,-169.8393C490.7852,-169.2138 487.4528,-168.5947 484.23,-168 406.5845,-153.6719 315.5429,-137.368 265.972,-128.5326"/>
<polygon fill="#191970" stroke="#191970" points="266.5022,-125.0721 256.0433,-126.764 265.2745,-131.9636 266.5022,-125.0721"/>
</g>
<!-- Node23 -->
<g id="node10" class="node">
<title>Node23</title>
<g id="a_node10"><a xlink:href="MultiSpeciesThermo_8h.html" target="_top" xlink:title="Header for a general species thermodynamic property manager for a phase (see MultiSpeciesThermo). ">
<polygon fill="#ffffff" stroke="#000000" points="480.23,-112.5 480.23,-131.5 594.23,-131.5 594.23,-112.5 480.23,-112.5"/>
<text text-anchor="middle" x="537.23" y="-119.5" font-family="Helvetica,sans-Serif" font-size="10.00" fill="#000000">MultiSpeciesThermo.h</text>
</a>
</g>
</g>
<!-- Node3&#45;&gt;Node23 -->
<g id="edge9" class="edge">
<title>Node3&#45;&gt;Node23</title>
<path fill="none" stroke="#191970" d="M537.23,-168.2455C537.23,-160.9382 537.23,-150.6944 537.23,-141.7046"/>
<polygon fill="#191970" stroke="#191970" points="540.7301,-141.6426 537.23,-131.6427 533.7301,-141.6427 540.7301,-141.6426"/>
</g>
<!-- Node26 -->
<g id="node12" class="node">
<title>Node26</title>
<g id="a_node12"><a xlink:href="global_8h.html" target="_top" xlink:title="This file contains definitions for utility functions and text for modules, inputfiles, logs, textlogs, (see Input File Handling, Diagnostic Output, and Writing messages to the screen). ">
<polygon fill="#ffffff" stroke="#ff0000" points="531.23,-.5 531.23,-19.5 641.23,-19.5 641.23,-.5 531.23,-.5"/>
<text text-anchor="middle" x="586.23" y="-7.5" font-family="Helvetica,sans-Serif" font-size="10.00" fill="#000000">cantera/base/global.h</text>
</a>
</g>
</g>
<!-- Node3&#45;&gt;Node26 -->
<g id="edge13" class="edge">
<title>Node3&#45;&gt;Node26</title>
<path fill="none" stroke="#191970" d="M558.5364,-168.3644C573.2895,-160.606 592.19,-148.3077 603.23,-132 622.4406,-103.6227 625.9946,-88.8477 616.23,-56 613.1973,-45.7984 607.1056,-35.7475 601.199,-27.6555"/>
<polygon fill="#191970" stroke="#191970" points="603.9264,-25.4613 595.016,-19.7291 598.407,-29.7667 603.9264,-25.4613"/>
</g>
<!-- Node5 -->
<g id="node6" class="node">
<title>Node5</title>
<g id="a_node6"><a xlink:href="ctexceptions_8h.html" target="_top" xlink:title="Definitions for the classes that are thrown when Cantera experiences an error condition (also contain...">
<polygon fill="#ffffff" stroke="#ff0000" points="169.23,-.5 169.23,-19.5 309.23,-19.5 309.23,-.5 169.23,-.5"/>
<text text-anchor="middle" x="239.23" y="-7.5" font-family="Helvetica,sans-Serif" font-size="10.00" fill="#000000">cantera/base/ctexceptions.h</text>
</a>
</g>
</g>
<!-- Node4&#45;&gt;Node5 -->
<g id="edge5" class="edge">
<title>Node4&#45;&gt;Node5</title>
<path fill="none" stroke="#191970" d="M202.4307,-120.6184C148.3089,-117.2087 29.0003,-106.3469 4.23,-76 -1.3908,-69.1138 -1.4196,-62.8626 4.23,-56 23.7124,-32.3342 98.73,-20.6694 158.8358,-15.0324"/>
<polygon fill="#191970" stroke="#191970" points="159.4558,-18.491 169.104,-14.1134 158.8318,-11.5188 159.4558,-18.491"/>
</g>
<!-- Node19 -->
<g id="node7" class="node">
<title>Node19</title>
<g id="a_node7"><a xlink:href="Elements_8h.html" target="_top" xlink:title="Contains the getElementWeight function and the definitions of element constraint types. ">
<polygon fill="#ffffff" stroke="#ff0000" points="13.23,-56.5 13.23,-75.5 147.23,-75.5 147.23,-56.5 13.23,-56.5"/>
<text text-anchor="middle" x="80.23" y="-63.5" font-family="Helvetica,sans-Serif" font-size="10.00" fill="#000000">cantera/thermo/Elements.h</text>
</a>
</g>
</g>
<!-- Node4&#45;&gt;Node19 -->
<g id="edge6" class="edge">
<title>Node4&#45;&gt;Node19</title>
<path fill="none" stroke="#191970" d="M203.6159,-112.3733C179.1613,-103.1822 142.1245,-89.2624 115.0091,-79.0713"/>
<polygon fill="#191970" stroke="#191970" points="116.1018,-75.7431 105.5097,-75.5011 113.6391,-82.2956 116.1018,-75.7431"/>
</g>
<!-- Node20 -->
<g id="node8" class="node">
<title>Node20</title>
<g id="a_node8"><a xlink:href="Species_8h.html" target="_top" xlink:title="Declaration for class Cantera::Species. ">
<polygon fill="#ffffff" stroke="#ff0000" points="165.23,-56.5 165.23,-75.5 293.23,-75.5 293.23,-56.5 165.23,-56.5"/>
<text text-anchor="middle" x="229.23" y="-63.5" font-family="Helvetica,sans-Serif" font-size="10.00" fill="#000000">cantera/thermo/Species.h</text>
</a>
</g>
</g>
<!-- Node4&#45;&gt;Node20 -->
<g id="edge7" class="edge">
<title>Node4&#45;&gt;Node20</title>
<path fill="none" stroke="#191970" d="M229.23,-112.2455C229.23,-104.9382 229.23,-94.6944 229.23,-85.7046"/>
<polygon fill="#191970" stroke="#191970" points="232.7301,-85.6426 229.23,-75.6427 225.7301,-85.6427 232.7301,-85.6426"/>
</g>
<!-- Node21 -->
<g id="node9" class="node">
<title>Node21</title>
<g id="a_node9"><a xlink:href="ValueCache_8h.html" target="_top" xlink:title="cantera/base/ValueCache.h">
<polygon fill="#ffffff" stroke="#ff0000" points="311.73,-56.5 311.73,-75.5 448.73,-75.5 448.73,-56.5 311.73,-56.5"/>
<text text-anchor="middle" x="380.23" y="-63.5" font-family="Helvetica,sans-Serif" font-size="10.00" fill="#000000">cantera/base/ValueCache.h</text>
</a>
</g>
</g>
<!-- Node4&#45;&gt;Node21 -->
<g id="edge8" class="edge">
<title>Node4&#45;&gt;Node21</title>
<path fill="none" stroke="#191970" d="M255.1878,-112.3733C279.9707,-103.1822 317.5046,-89.2624 344.984,-79.0713"/>
<polygon fill="#191970" stroke="#191970" points="346.4519,-82.26 354.6109,-75.5011 344.0178,-75.6968 346.4519,-82.26"/>
</g>
<!-- Node24 -->
<g id="node11" class="node">
<title>Node24</title>
<g id="a_node11"><a xlink:href="SpeciesThermoInterpType_8h.html" target="_top" xlink:title="Pure Virtual Base class for individual species reference state thermodynamic managers and text for th...">
<polygon fill="#ffffff" stroke="#ff0000" points="467.23,-56.5 467.23,-75.5 607.23,-75.5 607.23,-56.5 467.23,-56.5"/>
<text text-anchor="middle" x="537.23" y="-63.5" font-family="Helvetica,sans-Serif" font-size="10.00" fill="#000000">SpeciesThermoInterpType.h</text>
</a>
</g>
</g>
<!-- Node23&#45;&gt;Node24 -->
<g id="edge10" class="edge">
<title>Node23&#45;&gt;Node24</title>
<path fill="none" stroke="#191970" d="M537.23,-112.2455C537.23,-104.9382 537.23,-94.6944 537.23,-85.7046"/>
<polygon fill="#191970" stroke="#191970" points="540.7301,-85.6426 537.23,-75.6427 533.7301,-85.6427 540.7301,-85.6426"/>
</g>
<!-- Node24&#45;&gt;Node5 -->
<g id="edge11" class="edge">
<title>Node24&#45;&gt;Node5</title>
<path fill="none" stroke="#191970" d="M486.3405,-56.4369C434.6973,-46.7321 354.7473,-31.708 299.855,-21.3926"/>
<polygon fill="#191970" stroke="#191970" points="300.3839,-17.9308 289.9095,-19.5237 299.091,-24.8104 300.3839,-17.9308"/>
</g>
<!-- Node24&#45;&gt;Node26 -->
<g id="edge12" class="edge">
<title>Node24&#45;&gt;Node26</title>
<path fill="none" stroke="#191970" d="M545.7651,-56.2455C552.7211,-48.2958 562.7182,-36.8706 571.0351,-27.3656"/>
<polygon fill="#191970" stroke="#191970" points="573.8416,-29.4732 577.7926,-19.6427 568.5735,-24.8637 573.8416,-29.4732"/>
</g>
</g>
</svg>
