<?xml version="1.0" encoding="UTF-8" standalone="no"?>
<!DOCTYPE svg PUBLIC "-//W3C//DTD SVG 1.1//EN"
 "http://www.w3.org/Graphics/SVG/1.1/DTD/svg11.dtd">
<!-- Generated by graphviz version 2.40.1 (20161225.0304)
 -->
<!-- Title: FactoryBase.h Pages: 1 -->
<svg width="542pt" height="252pt"
 viewBox="0.00 0.00 541.50 252.00" xmlns="http://www.w3.org/2000/svg" xmlns:xlink="http://www.w3.org/1999/xlink">
<g id="graph0" class="graph" transform="scale(1 1) rotate(0) translate(4 248)">
<title>FactoryBase.h</title>
<polygon fill="#ffffff" stroke="transparent" points="-4,4 -4,-248 537.5,-248 537.5,4 -4,4"/>
<!-- Node0 -->
<g id="node1" class="node">
<title>Node0</title>
<polygon fill="#bfbfbf" stroke="#000000" points="89,-224.5 89,-243.5 169,-243.5 169,-224.5 89,-224.5"/>
<text text-anchor="middle" x="129" y="-231.5" font-family="Helvetica,sans-Serif" font-size="10.00" fill="#000000">FactoryBase.h</text>
</g>
<!-- Node1 -->
<g id="node2" class="node">
<title>Node1</title>
<polygon fill="#ffffff" stroke="#bfbfbf" points="0,-.5 0,-19.5 44,-19.5 44,-.5 0,-.5"/>
<text text-anchor="middle" x="22" y="-7.5" font-family="Helvetica,sans-Serif" font-size="10.00" fill="#000000">vector</text>
</g>
<!-- Node0&#45;&gt;Node1 -->
<g id="edge1" class="edge">
<title>Node0&#45;&gt;Node1</title>
<path fill="none" stroke="#191970" d="M104.558,-224.4715C88.5497,-216.9608 68.528,-204.9153 57,-188 23.536,-138.8976 20.387,-65.4881 21.0453,-30.2711"/>
<polygon fill="#191970" stroke="#191970" points="24.556,-29.9887 21.3762,-19.8823 17.5595,-29.7658 24.556,-29.9887"/>
</g>
<!-- Node2 -->
<g id="node3" class="node">
<title>Node2</title>
<polygon fill="#ffffff" stroke="#bfbfbf" points="66,-168.5 66,-187.5 110,-187.5 110,-168.5 66,-168.5"/>
<text text-anchor="middle" x="88" y="-175.5" font-family="Helvetica,sans-Serif" font-size="10.00" fill="#000000">mutex</text>
</g>
<!-- Node0&#45;&gt;Node2 -->
<g id="edge2" class="edge">
<title>Node0&#45;&gt;Node2</title>
<path fill="none" stroke="#191970" d="M121.8583,-224.2455C116.1556,-216.4564 108.01,-205.3308 101.1375,-195.9439"/>
<polygon fill="#191970" stroke="#191970" points="103.7913,-193.6437 95.0598,-187.6427 98.1432,-197.7789 103.7913,-193.6437"/>
</g>
<!-- Node3 -->
<g id="node4" class="node">
<title>Node3</title>
<polygon fill="#ffffff" stroke="#bfbfbf" points="128.5,-168.5 128.5,-187.5 211.5,-187.5 211.5,-168.5 128.5,-168.5"/>
<text text-anchor="middle" x="170" y="-175.5" font-family="Helvetica,sans-Serif" font-size="10.00" fill="#000000">unordered_map</text>
</g>
<!-- Node0&#45;&gt;Node3 -->
<g id="edge3" class="edge">
<title>Node0&#45;&gt;Node3</title>
<path fill="none" stroke="#191970" d="M136.1417,-224.2455C141.8444,-216.4564 149.99,-205.3308 156.8625,-195.9439"/>
<polygon fill="#191970" stroke="#191970" points="159.8568,-197.7789 162.9402,-187.6427 154.2087,-193.6437 159.8568,-197.7789"/>
</g>
<!-- Node4 -->
<g id="node5" class="node">
<title>Node4</title>
<g id="a_node5"><a xlink:href="ctexceptions_8h.html" target="_top" xlink:title="Definitions for the classes that are thrown when Cantera experiences an error condition (also contain...">
<polygon fill="#ffffff" stroke="#000000" points="250,-168.5 250,-187.5 390,-187.5 390,-168.5 250,-168.5"/>
<text text-anchor="middle" x="320" y="-175.5" font-family="Helvetica,sans-Serif" font-size="10.00" fill="#000000">cantera/base/ctexceptions.h</text>
</a>
</g>
</g>
<!-- Node0&#45;&gt;Node4 -->
<g id="edge4" class="edge">
<title>Node0&#45;&gt;Node4</title>
<path fill="none" stroke="#191970" d="M161.8341,-224.3733C193.8695,-214.9807 242.7487,-200.6496 277.6855,-190.4064"/>
<polygon fill="#191970" stroke="#191970" points="278.9831,-193.6733 287.5944,-187.5011 277.0136,-186.9561 278.9831,-193.6733"/>
</g>
<!-- Node5 -->
<g id="node6" class="node">
<title>Node5</title>
<g id="a_node6"><a xlink:href="fmt_8h.html" target="_top" xlink:title="Wrapper for either system&#45;installed or local headers for fmt. ">
<polygon fill="#ffffff" stroke="#000000" points="271,-112.5 271,-131.5 369,-131.5 369,-112.5 271,-112.5"/>
<text text-anchor="middle" x="320" y="-119.5" font-family="Helvetica,sans-Serif" font-size="10.00" fill="#000000">cantera/base/fmt.h</text>
</a>
</g>
</g>
<!-- Node4&#45;&gt;Node5 -->
<g id="edge5" class="edge">
<title>Node4&#45;&gt;Node5</title>
<path fill="none" stroke="#191970" d="M320,-168.2455C320,-160.9382 320,-150.6944 320,-141.7046"/>
<polygon fill="#191970" stroke="#191970" points="323.5001,-141.6426 320,-131.6427 316.5001,-141.6427 323.5001,-141.6426"/>
</g>
<!-- Node16 -->
<g id="node17" class="node">
<title>Node16</title>
<polygon fill="#ffffff" stroke="#bfbfbf" points="387.5,-112.5 387.5,-131.5 446.5,-131.5 446.5,-112.5 387.5,-112.5"/>
<text text-anchor="middle" x="417" y="-119.5" font-family="Helvetica,sans-Serif" font-size="10.00" fill="#000000">exception</text>
</g>
<!-- Node4&#45;&gt;Node16 -->
<g id="edge17" class="edge">
<title>Node4&#45;&gt;Node16</title>
<path fill="none" stroke="#191970" d="M336.8961,-168.2455C351.918,-159.5731 374.1043,-146.7645 391.321,-136.825"/>
<polygon fill="#191970" stroke="#191970" points="393.3871,-139.6737 400.2975,-131.6427 389.8872,-133.6114 393.3871,-139.6737"/>
</g>
<!-- Node6 -->
<g id="node7" class="node">
<title>Node6</title>
<g id="a_node7"><a xlink:href="ct__defs_8h.html" target="_top" xlink:title="This file contains definitions of terms that are used in internal routines and are unlikely to need m...">
<polygon fill="#ffffff" stroke="#000000" points="188.5,-56.5 188.5,-75.5 245.5,-75.5 245.5,-56.5 188.5,-56.5"/>
<text text-anchor="middle" x="217" y="-63.5" font-family="Helvetica,sans-Serif" font-size="10.00" fill="#000000">ct_defs.h</text>
</a>
</g>
</g>
<!-- Node5&#45;&gt;Node6 -->
<g id="edge6" class="edge">
<title>Node5&#45;&gt;Node6</title>
<path fill="none" stroke="#191970" d="M302.0588,-112.2455C285.96,-103.4928 262.1121,-90.527 243.7609,-80.5496"/>
<polygon fill="#191970" stroke="#191970" points="245.1929,-77.3444 234.7356,-75.6427 241.8493,-83.4942 245.1929,-77.3444"/>
</g>
<!-- Node14 -->
<g id="node15" class="node">
<title>Node14</title>
<polygon fill="#ffffff" stroke="#bfbfbf" points="264,-56.5 264,-75.5 386,-75.5 386,-56.5 264,-56.5"/>
<text text-anchor="middle" x="325" y="-63.5" font-family="Helvetica,sans-Serif" font-size="10.00" fill="#000000">cantera/ext/fmt/format.h</text>
</g>
<!-- Node5&#45;&gt;Node14 -->
<g id="edge15" class="edge">
<title>Node5&#45;&gt;Node14</title>
<path fill="none" stroke="#191970" d="M320.8709,-112.2455C321.5234,-104.9382 322.438,-94.6944 323.2407,-85.7046"/>
<polygon fill="#191970" stroke="#191970" points="326.7358,-85.9143 324.139,-75.6427 319.7635,-85.2918 326.7358,-85.9143"/>
</g>
<!-- Node15 -->
<g id="node16" class="node">
<title>Node15</title>
<polygon fill="#ffffff" stroke="#bfbfbf" points="404.5,-56.5 404.5,-75.5 533.5,-75.5 533.5,-56.5 404.5,-56.5"/>
<text text-anchor="middle" x="469" y="-63.5" font-family="Helvetica,sans-Serif" font-size="10.00" fill="#000000">cantera/ext/fmt/ostream.h</text>
</g>
<!-- Node5&#45;&gt;Node15 -->
<g id="edge16" class="edge">
<title>Node5&#45;&gt;Node15</title>
<path fill="none" stroke="#191970" d="M345.614,-112.3733C370.0687,-103.1822 407.1054,-89.2624 434.2209,-79.0713"/>
<polygon fill="#191970" stroke="#191970" points="435.5909,-82.2956 443.7202,-75.5011 433.1281,-75.7431 435.5909,-82.2956"/>
</g>
<!-- Node6&#45;&gt;Node1 -->
<g id="edge10" class="edge">
<title>Node6&#45;&gt;Node1</title>
<path fill="none" stroke="#191970" d="M188.4612,-58.354C157.5883,-50.0043 106.6953,-36.0148 54.1458,-20.2721"/>
<polygon fill="#191970" stroke="#191970" points="54.9033,-16.845 44.3188,-17.3132 52.8851,-23.5478 54.9033,-16.845"/>
</g>
<!-- Node7 -->
<g id="node8" class="node">
<title>Node7</title>
<g id="a_node8"><a xlink:href="config_8h_source.html" target="_top" xlink:title="config.h">
<polygon fill="#ffffff" stroke="#000000" points="62.5,-.5 62.5,-19.5 113.5,-19.5 113.5,-.5 62.5,-.5"/>
<text text-anchor="middle" x="88" y="-7.5" font-family="Helvetica,sans-Serif" font-size="10.00" fill="#000000">config.h</text>
</a>
</g>
</g>
<!-- Node6&#45;&gt;Node7 -->
<g id="edge7" class="edge">
<title>Node6&#45;&gt;Node7</title>
<path fill="none" stroke="#191970" d="M194.8241,-56.3733C174.0234,-47.3435 142.7083,-33.7494 119.3542,-23.6111"/>
<polygon fill="#191970" stroke="#191970" points="120.4532,-20.2727 109.8865,-19.5011 117.6657,-26.6938 120.4532,-20.2727"/>
</g>
<!-- Node8 -->
<g id="node9" class="node">
<title>Node8</title>
<polygon fill="#ffffff" stroke="#bfbfbf" points="132,-.5 132,-19.5 176,-19.5 176,-.5 132,-.5"/>
<text text-anchor="middle" x="154" y="-7.5" font-family="Helvetica,sans-Serif" font-size="10.00" fill="#000000">cmath</text>
</g>
<!-- Node6&#45;&gt;Node8 -->
<g id="edge8" class="edge">
<title>Node6&#45;&gt;Node8</title>
<path fill="none" stroke="#191970" d="M206.0262,-56.2455C196.8118,-48.0549 183.4468,-36.1749 172.5703,-26.5069"/>
<polygon fill="#191970" stroke="#191970" points="174.6474,-23.6704 164.848,-19.6427 169.9968,-28.9023 174.6474,-23.6704"/>
</g>
<!-- Node9 -->
<g id="node10" class="node">
<title>Node9</title>
<polygon fill="#ffffff" stroke="#bfbfbf" points="194.5,-.5 194.5,-19.5 239.5,-19.5 239.5,-.5 194.5,-.5"/>
<text text-anchor="middle" x="217" y="-7.5" font-family="Helvetica,sans-Serif" font-size="10.00" fill="#000000">cstdlib</text>
</g>
<!-- Node6&#45;&gt;Node9 -->
<g id="edge9" class="edge">
<title>Node6&#45;&gt;Node9</title>
<path fill="none" stroke="#191970" d="M217,-56.2455C217,-48.9382 217,-38.6944 217,-29.7046"/>
<polygon fill="#191970" stroke="#191970" points="220.5001,-29.6426 217,-19.6427 213.5001,-29.6427 220.5001,-29.6426"/>
</g>
<!-- Node10 -->
<g id="node11" class="node">
<title>Node10</title>
<polygon fill="#ffffff" stroke="#bfbfbf" points="257.5,-.5 257.5,-19.5 292.5,-19.5 292.5,-.5 257.5,-.5"/>
<text text-anchor="middle" x="275" y="-7.5" font-family="Helvetica,sans-Serif" font-size="10.00" fill="#000000">map</text>
</g>
<!-- Node6&#45;&gt;Node10 -->
<g id="edge11" class="edge">
<title>Node6&#45;&gt;Node10</title>
<path fill="none" stroke="#191970" d="M227.1028,-56.2455C235.5028,-48.1352 247.6494,-36.4075 257.6084,-26.7919"/>
<polygon fill="#191970" stroke="#191970" points="260.25,-29.1066 265.0129,-19.6427 255.3878,-24.0707 260.25,-29.1066"/>
</g>
<!-- Node11 -->
<g id="node12" class="node">
<title>Node11</title>
<polygon fill="#ffffff" stroke="#bfbfbf" points="310.5,-.5 310.5,-19.5 351.5,-19.5 351.5,-.5 310.5,-.5"/>
<text text-anchor="middle" x="331" y="-7.5" font-family="Helvetica,sans-Serif" font-size="10.00" fill="#000000">string</text>
</g>
<!-- Node6&#45;&gt;Node11 -->
<g id="edge12" class="edge">
<title>Node6&#45;&gt;Node11</title>
<path fill="none" stroke="#191970" d="M236.5973,-56.3733C254.7331,-47.4644 281.9135,-34.1127 302.4587,-24.0203"/>
<polygon fill="#191970" stroke="#191970" points="304.2261,-27.0517 311.6584,-19.5011 301.1397,-20.7688 304.2261,-27.0517"/>
</g>
<!-- Node12 -->
<g id="node13" class="node">
<title>Node12</title>
<polygon fill="#ffffff" stroke="#bfbfbf" points="370,-.5 370,-19.5 426,-19.5 426,-.5 370,-.5"/>
<text text-anchor="middle" x="398" y="-7.5" font-family="Helvetica,sans-Serif" font-size="10.00" fill="#000000">algorithm</text>
</g>
<!-- Node6&#45;&gt;Node12 -->
<g id="edge13" class="edge">
<title>Node6&#45;&gt;Node12</title>
<path fill="none" stroke="#191970" d="M245.68,-57.1266C276.6176,-47.5548 326.0181,-32.2706 360.1298,-21.7168"/>
<polygon fill="#191970" stroke="#191970" points="361.2334,-25.0391 369.7521,-18.7397 359.1644,-18.3518 361.2334,-25.0391"/>
</g>
<!-- Node13 -->
<g id="node14" class="node">
<title>Node13</title>
<polygon fill="#ffffff" stroke="#bfbfbf" points="444,-.5 444,-19.5 496,-19.5 496,-.5 444,-.5"/>
<text text-anchor="middle" x="470" y="-7.5" font-family="Helvetica,sans-Serif" font-size="10.00" fill="#000000">memory</text>
</g>
<!-- Node6&#45;&gt;Node13 -->
<g id="edge14" class="edge">
<title>Node6&#45;&gt;Node13</title>
<path fill="none" stroke="#191970" d="M245.5883,-58.2805C248.7572,-57.4833 251.9427,-56.7073 255,-56 331.3799,-38.3288 353.9652,-39.1268 433.6759,-20.1762"/>
<polygon fill="#191970" stroke="#191970" points="434.785,-23.5093 443.6873,-17.7647 433.1457,-16.7039 434.785,-23.5093"/>
</g>
</g>
</svg>
