<?xml version="1.0" encoding="UTF-8" standalone="no"?>
<!DOCTYPE svg PUBLIC "-//W3C//DTD SVG 1.1//EN"
 "http://www.w3.org/Graphics/SVG/1.1/DTD/svg11.dtd">
<!-- Generated by graphviz version 2.40.1 (20161225.0304)
 -->
<!-- Title: FuncEval.h Pages: 1 -->
<svg width="1169pt" height="196pt"
 viewBox="0.00 0.00 1169.00 196.00" xmlns="http://www.w3.org/2000/svg" xmlns:xlink="http://www.w3.org/1999/xlink">
<g id="graph0" class="graph" transform="scale(1 1) rotate(0) translate(4 192)">
<title>FuncEval.h</title>
<polygon fill="#ffffff" stroke="transparent" points="-4,4 -4,-192 1165,-192 1165,4 -4,4"/>
<!-- Node16 -->
<g id="node1" class="node">
<title>Node16</title>
<polygon fill="#bfbfbf" stroke="#000000" points="458.5,-168.5 458.5,-187.5 524.5,-187.5 524.5,-168.5 458.5,-168.5"/>
<text text-anchor="middle" x="491.5" y="-175.5" font-family="Helvetica,sans-Serif" font-size="10.00" fill="#000000">FuncEval.h</text>
</g>
<!-- Node17 -->
<g id="node2" class="node">
<title>Node17</title>
<g id="a_node2"><a xlink:href="FuncEval_8cpp_source.html" target="_top" xlink:title="FuncEval.cpp">
<polygon fill="#ffffff" stroke="#000000" points="363,-112.5 363,-131.5 440,-131.5 440,-112.5 363,-112.5"/>
<text text-anchor="middle" x="401.5" y="-119.5" font-family="Helvetica,sans-Serif" font-size="10.00" fill="#000000">FuncEval.cpp</text>
</a>
</g>
</g>
<!-- Node16&#45;&gt;Node17 -->
<g id="edge1" class="edge">
<title>Node16&#45;&gt;Node17</title>
<path fill="none" stroke="#191970" d="M467.0216,-162.769C451.0734,-152.8456 430.749,-140.1994 416.9972,-131.6427"/>
<polygon fill="#191970" stroke="#191970" points="465.4835,-165.9342 475.8232,-168.2455 469.1817,-159.9908 465.4835,-165.9342"/>
</g>
<!-- Node18 -->
<g id="node3" class="node">
<title>Node18</title>
<g id="a_node3"><a xlink:href="Integrator_8h.html" target="_top" xlink:title="Integrator.h">
<polygon fill="#ffffff" stroke="#000000" points="458.5,-112.5 458.5,-131.5 524.5,-131.5 524.5,-112.5 458.5,-112.5"/>
<text text-anchor="middle" x="491.5" y="-119.5" font-family="Helvetica,sans-Serif" font-size="10.00" fill="#000000">Integrator.h</text>
</a>
</g>
</g>
<!-- Node16&#45;&gt;Node18 -->
<g id="edge2" class="edge">
<title>Node16&#45;&gt;Node18</title>
<path fill="none" stroke="#191970" d="M491.5,-158.1575C491.5,-149.155 491.5,-138.9199 491.5,-131.6427"/>
<polygon fill="#191970" stroke="#191970" points="488.0001,-158.2455 491.5,-168.2455 495.0001,-158.2456 488.0001,-158.2455"/>
</g>
<!-- Node27 -->
<g id="node12" class="node">
<title>Node27</title>
<g id="a_node12"><a xlink:href="ReactorNet_8h.html" target="_top" xlink:title="ReactorNet.h">
<polygon fill="#ffffff" stroke="#000000" points="728,-56.5 728,-75.5 803,-75.5 803,-56.5 728,-56.5"/>
<text text-anchor="middle" x="765.5" y="-63.5" font-family="Helvetica,sans-Serif" font-size="10.00" fill="#000000">ReactorNet.h</text>
</a>
</g>
</g>
<!-- Node16&#45;&gt;Node27 -->
<g id="edge19" class="edge">
<title>Node16&#45;&gt;Node27</title>
<path fill="none" stroke="#191970" d="M524.325,-164.5825C580.4269,-141.6503 693.4157,-95.4651 742.198,-75.5249"/>
<polygon fill="#191970" stroke="#191970" points="522.7933,-161.4274 514.8611,-168.4509 525.442,-167.907 522.7933,-161.4274"/>
</g>
<!-- Node19 -->
<g id="node4" class="node">
<title>Node19</title>
<g id="a_node4"><a xlink:href="ODE__integrators_8cpp.html" target="_top" xlink:title="ODE_integrators.cpp">
<polygon fill="#ffffff" stroke="#000000" points="477.5,-.5 477.5,-19.5 585.5,-19.5 585.5,-.5 477.5,-.5"/>
<text text-anchor="middle" x="531.5" y="-7.5" font-family="Helvetica,sans-Serif" font-size="10.00" fill="#000000">ODE_integrators.cpp</text>
</a>
</g>
</g>
<!-- Node18&#45;&gt;Node19 -->
<g id="edge3" class="edge">
<title>Node18&#45;&gt;Node19</title>
<path fill="none" stroke="#191970" d="M500.2807,-103.1562C503.9699,-94.9094 508.1685,-85.0653 511.5,-76 518.7688,-56.2211 525.4961,-32.4429 528.9909,-19.513"/>
<polygon fill="#191970" stroke="#191970" points="497.0922,-101.7128 496.126,-112.2635 503.4608,-104.6182 497.0922,-101.7128"/>
</g>
<!-- Node20 -->
<g id="node5" class="node">
<title>Node20</title>
<g id="a_node5"><a xlink:href="integrators_8h.html" target="_top" xlink:title="ODE integrators. ">
<polygon fill="#ffffff" stroke="#000000" points="134,-56.5 134,-75.5 205,-75.5 205,-56.5 134,-56.5"/>
<text text-anchor="middle" x="169.5" y="-63.5" font-family="Helvetica,sans-Serif" font-size="10.00" fill="#000000">integrators.h</text>
</a>
</g>
</g>
<!-- Node18&#45;&gt;Node20 -->
<g id="edge4" class="edge">
<title>Node18&#45;&gt;Node20</title>
<path fill="none" stroke="#191970" d="M448.1453,-112.0686C343.0124,-92.2211 314.1636,-95.1241 213.5,-76 210.8833,-75.5029 208.1856,-74.9614 205.4745,-74.3962"/>
<polygon fill="#191970" stroke="#191970" points="447.7396,-115.5544 458.2191,-113.9954 449.0546,-108.679 447.7396,-115.5544"/>
</g>
<!-- Node21 -->
<g id="node6" class="node">
<title>Node21</title>
<g id="a_node6"><a xlink:href="ImplicitSurfChem_8h.html" target="_top" xlink:title="Declarations for the implicit integration of surface site density equations (see Kinetics Managers an...">
<polygon fill="#ffffff" stroke="#000000" points="223,-56.5 223,-75.5 324,-75.5 324,-56.5 223,-56.5"/>
<text text-anchor="middle" x="273.5" y="-63.5" font-family="Helvetica,sans-Serif" font-size="10.00" fill="#000000">ImplicitSurfChem.h</text>
</a>
</g>
</g>
<!-- Node18&#45;&gt;Node21 -->
<g id="edge5" class="edge">
<title>Node18&#45;&gt;Node21</title>
<path fill="none" stroke="#191970" d="M448.6008,-110.98C408.3607,-100.6431 348.8083,-85.3453 310.5772,-75.5244"/>
<polygon fill="#191970" stroke="#191970" points="447.8341,-114.3966 458.3905,-113.4948 449.5758,-107.6168 447.8341,-114.3966"/>
</g>
<!-- Node25 -->
<g id="node10" class="node">
<title>Node25</title>
<g id="a_node10"><a xlink:href="CVodesIntegrator_8h.html" target="_top" xlink:title="CVodesIntegrator.h">
<polygon fill="#ffffff" stroke="#000000" points="402,-56.5 402,-75.5 503,-75.5 503,-56.5 402,-56.5"/>
<text text-anchor="middle" x="452.5" y="-63.5" font-family="Helvetica,sans-Serif" font-size="10.00" fill="#000000">CVodesIntegrator.h</text>
</a>
</g>
</g>
<!-- Node18&#45;&gt;Node25 -->
<g id="edge9" class="edge">
<title>Node18&#45;&gt;Node25</title>
<path fill="none" stroke="#191970" d="M478.9092,-103.9209C472.3605,-94.5176 464.6176,-83.3997 459.2154,-75.6427"/>
<polygon fill="#191970" stroke="#191970" points="476.1196,-106.0397 484.7067,-112.2455 481.8639,-102.0392 476.1196,-106.0397"/>
</g>
<!-- Node18&#45;&gt;Node27 -->
<g id="edge12" class="edge">
<title>Node18&#45;&gt;Node27</title>
<path fill="none" stroke="#191970" d="M534.3555,-113.2412C587.5327,-102.3729 677.3572,-84.0146 727.9491,-73.6746"/>
<polygon fill="#191970" stroke="#191970" points="533.6474,-109.8135 524.5508,-115.2451 535.0491,-116.6717 533.6474,-109.8135"/>
</g>
<!-- Node22 -->
<g id="node7" class="node">
<title>Node22</title>
<g id="a_node7"><a xlink:href="ImplicitSurfChem_8cpp.html" target="_top" xlink:title="Definitions for the implicit integration of surface site density equations (see Kinetics Managers and...">
<polygon fill="#ffffff" stroke="#000000" points="218,-.5 218,-19.5 329,-19.5 329,-.5 218,-.5"/>
<text text-anchor="middle" x="273.5" y="-7.5" font-family="Helvetica,sans-Serif" font-size="10.00" fill="#000000">ImplicitSurfChem.cpp</text>
</a>
</g>
</g>
<!-- Node21&#45;&gt;Node22 -->
<g id="edge6" class="edge">
<title>Node21&#45;&gt;Node22</title>
<path fill="none" stroke="#191970" d="M273.5,-46.1575C273.5,-37.155 273.5,-26.9199 273.5,-19.6427"/>
<polygon fill="#191970" stroke="#191970" points="270.0001,-46.2455 273.5,-56.2455 277.0001,-46.2456 270.0001,-46.2455"/>
</g>
<!-- Node23 -->
<g id="node8" class="node">
<title>Node23</title>
<g id="a_node8"><a xlink:href="InterfaceKinetics_8cpp.html" target="_top" xlink:title="InterfaceKinetics.cpp">
<polygon fill="#ffffff" stroke="#000000" points="0,-.5 0,-19.5 109,-19.5 109,-.5 0,-.5"/>
<text text-anchor="middle" x="54.5" y="-7.5" font-family="Helvetica,sans-Serif" font-size="10.00" fill="#000000">InterfaceKinetics.cpp</text>
</a>
</g>
</g>
<!-- Node21&#45;&gt;Node23 -->
<g id="edge7" class="edge">
<title>Node21&#45;&gt;Node23</title>
<path fill="none" stroke="#191970" d="M225.9892,-53.8511C185.6898,-43.5462 128.6852,-28.9697 91.6562,-19.5011"/>
<polygon fill="#191970" stroke="#191970" points="225.2972,-57.2867 235.8526,-56.3733 227.0314,-50.5049 225.2972,-57.2867"/>
</g>
<!-- Node24 -->
<g id="node9" class="node">
<title>Node24</title>
<g id="a_node9"><a xlink:href="solveSP_8cpp_source.html" target="_top" xlink:title="solveSP.cpp">
<polygon fill="#ffffff" stroke="#000000" points="127.5,-.5 127.5,-19.5 199.5,-19.5 199.5,-.5 127.5,-.5"/>
<text text-anchor="middle" x="163.5" y="-7.5" font-family="Helvetica,sans-Serif" font-size="10.00" fill="#000000">solveSP.cpp</text>
</a>
</g>
</g>
<!-- Node21&#45;&gt;Node24 -->
<g id="edge8" class="edge">
<title>Node21&#45;&gt;Node24</title>
<path fill="none" stroke="#191970" d="M245.2086,-51.5971C225.4889,-41.558 199.72,-28.4393 182.441,-19.6427"/>
<polygon fill="#191970" stroke="#191970" points="243.8399,-54.8277 254.3395,-56.2455 247.0157,-48.5896 243.8399,-54.8277"/>
</g>
<!-- Node25&#45;&gt;Node19 -->
<g id="edge11" class="edge">
<title>Node25&#45;&gt;Node19</title>
<path fill="none" stroke="#191970" d="M474.7756,-50.2097C488.6505,-40.3743 506.0515,-28.0394 517.8969,-19.6427"/>
<polygon fill="#191970" stroke="#191970" points="472.3949,-47.6071 466.2607,-56.2455 476.4431,-53.3178 472.3949,-47.6071"/>
</g>
<!-- Node26 -->
<g id="node11" class="node">
<title>Node26</title>
<g id="a_node11"><a xlink:href="CVodesIntegrator_8cpp.html" target="_top" xlink:title="CVodesIntegrator.cpp">
<polygon fill="#ffffff" stroke="#000000" points="347.5,-.5 347.5,-19.5 459.5,-19.5 459.5,-.5 347.5,-.5"/>
<text text-anchor="middle" x="403.5" y="-7.5" font-family="Helvetica,sans-Serif" font-size="10.00" fill="#000000">CVodesIntegrator.cpp</text>
</a>
</g>
</g>
<!-- Node25&#45;&gt;Node26 -->
<g id="edge10" class="edge">
<title>Node25&#45;&gt;Node26</title>
<path fill="none" stroke="#191970" d="M437.1878,-48.5004C428.8553,-38.9775 418.8647,-27.5596 411.9373,-19.6427"/>
<polygon fill="#191970" stroke="#191970" points="434.7457,-51.0245 443.9649,-56.2455 440.0138,-46.415 434.7457,-51.0245"/>
</g>
<!-- Node28 -->
<g id="node13" class="node">
<title>Node28</title>
<g id="a_node13"><a xlink:href="Reactor_8cpp.html" target="_top" xlink:title="A zero&#45;dimensional reactor. ">
<polygon fill="#ffffff" stroke="#000000" points="681.5,-.5 681.5,-19.5 751.5,-19.5 751.5,-.5 681.5,-.5"/>
<text text-anchor="middle" x="716.5" y="-7.5" font-family="Helvetica,sans-Serif" font-size="10.00" fill="#000000">Reactor.cpp</text>
</a>
</g>
</g>
<!-- Node27&#45;&gt;Node28 -->
<g id="edge13" class="edge">
<title>Node27&#45;&gt;Node28</title>
<path fill="none" stroke="#191970" d="M750.1878,-48.5004C741.8553,-38.9775 731.8647,-27.5596 724.9373,-19.6427"/>
<polygon fill="#191970" stroke="#191970" points="747.7457,-51.0245 756.9649,-56.2455 753.0138,-46.415 747.7457,-51.0245"/>
</g>
<!-- Node29 -->
<g id="node14" class="node">
<title>Node29</title>
<g id="a_node14"><a xlink:href="ReactorBase_8cpp.html" target="_top" xlink:title="ReactorBase.cpp">
<polygon fill="#ffffff" stroke="#000000" points="769.5,-.5 769.5,-19.5 861.5,-19.5 861.5,-.5 769.5,-.5"/>
<text text-anchor="middle" x="815.5" y="-7.5" font-family="Helvetica,sans-Serif" font-size="10.00" fill="#000000">ReactorBase.cpp</text>
</a>
</g>
</g>
<!-- Node27&#45;&gt;Node29 -->
<g id="edge14" class="edge">
<title>Node27&#45;&gt;Node29</title>
<path fill="none" stroke="#191970" d="M781.1247,-48.5004C789.6273,-38.9775 799.8218,-27.5596 806.8905,-19.6427"/>
<polygon fill="#191970" stroke="#191970" points="778.2587,-46.4551 774.2093,-56.2455 783.4803,-51.1172 778.2587,-46.4551"/>
</g>
<!-- Node30 -->
<g id="node15" class="node">
<title>Node30</title>
<g id="a_node15"><a xlink:href="ReactorNet_8cpp.html" target="_top" xlink:title="ReactorNet.cpp">
<polygon fill="#ffffff" stroke="#000000" points="879.5,-.5 879.5,-19.5 965.5,-19.5 965.5,-.5 879.5,-.5"/>
<text text-anchor="middle" x="922.5" y="-7.5" font-family="Helvetica,sans-Serif" font-size="10.00" fill="#000000">ReactorNet.cpp</text>
</a>
</g>
</g>
<!-- Node27&#45;&gt;Node30 -->
<g id="edge15" class="edge">
<title>Node27&#45;&gt;Node30</title>
<path fill="none" stroke="#191970" d="M802.1619,-52.9231C830.8624,-42.686 870.1044,-28.6889 895.8629,-19.5011"/>
<polygon fill="#191970" stroke="#191970" points="800.7322,-49.7171 792.4893,-56.3733 803.0839,-56.3102 800.7322,-49.7171"/>
</g>
<!-- Node31 -->
<g id="node16" class="node">
<title>Node31</title>
<g id="a_node16"><a xlink:href="ReactorSurface_8cpp.html" target="_top" xlink:title="ReactorSurface.cpp">
<polygon fill="#ffffff" stroke="#000000" points="983.5,-.5 983.5,-19.5 1087.5,-19.5 1087.5,-.5 983.5,-.5"/>
<text text-anchor="middle" x="1035.5" y="-7.5" font-family="Helvetica,sans-Serif" font-size="10.00" fill="#000000">ReactorSurface.cpp</text>
</a>
</g>
</g>
<!-- Node27&#45;&gt;Node31 -->
<g id="edge16" class="edge">
<title>Node27&#45;&gt;Node31</title>
<path fill="none" stroke="#191970" d="M812.8892,-56.1711C862.5382,-45.8736 940.0164,-29.804 989.2388,-19.5949"/>
<polygon fill="#191970" stroke="#191970" points="812.1231,-52.7554 803.0423,-58.2134 813.5448,-59.6096 812.1231,-52.7554"/>
</g>
<!-- Node32 -->
<g id="node17" class="node">
<title>Node32</title>
<g id="a_node17"><a xlink:href="Wall_8cpp.html" target="_top" xlink:title="Wall.cpp">
<polygon fill="#ffffff" stroke="#000000" points="1106,-.5 1106,-19.5 1161,-19.5 1161,-.5 1106,-.5"/>
<text text-anchor="middle" x="1133.5" y="-7.5" font-family="Helvetica,sans-Serif" font-size="10.00" fill="#000000">Wall.cpp</text>
</a>
</g>
</g>
<!-- Node27&#45;&gt;Node32 -->
<g id="edge17" class="edge">
<title>Node27&#45;&gt;Node32</title>
<path fill="none" stroke="#191970" d="M813.7919,-61.2161C878.5378,-54.3641 996.8751,-40.3014 1096.5,-20 1099.4992,-19.3888 1102.6153,-18.6744 1105.7093,-17.9136"/>
<polygon fill="#191970" stroke="#191970" points="813.0713,-57.7723 803.4894,-62.2933 813.7992,-64.7344 813.0713,-57.7723"/>
</g>
<!-- Node33 -->
<g id="node18" class="node">
<title>Node33</title>
<g id="a_node18"><a xlink:href="zerodim_8h_source.html" target="_top" xlink:title="zerodim.h">
<polygon fill="#ffffff" stroke="#000000" points="604,-.5 604,-19.5 663,-19.5 663,-.5 604,-.5"/>
<text text-anchor="middle" x="633.5" y="-7.5" font-family="Helvetica,sans-Serif" font-size="10.00" fill="#000000">zerodim.h</text>
</a>
</g>
</g>
<!-- Node27&#45;&gt;Node33 -->
<g id="edge18" class="edge">
<title>Node27&#45;&gt;Node33</title>
<path fill="none" stroke="#191970" d="M733.4035,-52.3833C709.3965,-42.1985 677.1741,-28.5284 655.8955,-19.5011"/>
<polygon fill="#191970" stroke="#191970" points="732.2356,-55.6897 742.8084,-56.3733 734.9695,-49.2457 732.2356,-55.6897"/>
</g>
</g>
</svg>
