<?xml version="1.0" encoding="UTF-8" standalone="no"?>
<!DOCTYPE svg PUBLIC "-//W3C//DTD SVG 1.1//EN"
 "http://www.w3.org/Graphics/SVG/1.1/DTD/svg11.dtd">
<!-- Generated by graphviz version 2.40.1 (20161225.0304)
 -->
<!-- Title: GasTransport.cpp Pages: 1 -->
<svg width="826pt" height="487pt"
 viewBox="0.00 0.00 826.00 487.00" xmlns="http://www.w3.org/2000/svg" xmlns:xlink="http://www.w3.org/1999/xlink">
<g id="graph0" class="graph" transform="scale(1 1) rotate(0) translate(4 483)">
<title>GasTransport.cpp</title>
<polygon fill="#ffffff" stroke="transparent" points="-4,4 -4,-483 822,-483 822,4 -4,4"/>
<!-- Node0 -->
<g id="node1" class="node">
<title>Node0</title>
<polygon fill="#bfbfbf" stroke="#000000" points="530.5,-459.5 530.5,-478.5 625.5,-478.5 625.5,-459.5 530.5,-459.5"/>
<text text-anchor="middle" x="578" y="-466.5" font-family="Helvetica,sans-Serif" font-size="10.00" fill="#000000">GasTransport.cpp</text>
</g>
<!-- Node1 -->
<g id="node2" class="node">
<title>Node1</title>
<g id="a_node2"><a xlink:href="GasTransport_8h.html" target="_top" xlink:title="cantera/transport/GasTransport.h">
<polygon fill="#ffffff" stroke="#000000" points="341.5,-398 341.5,-417 502.5,-417 502.5,-398 341.5,-398"/>
<text text-anchor="middle" x="422" y="-405" font-family="Helvetica,sans-Serif" font-size="10.00" fill="#000000">cantera/transport/GasTransport.h</text>
</a>
</g>
</g>
<!-- Node0&#45;&gt;Node1 -->
<g id="edge1" class="edge">
<title>Node0&#45;&gt;Node1</title>
<path fill="none" stroke="#191970" d="M553.625,-459.3906C527.2944,-449.0103 485.162,-432.4004 455.6771,-420.7766"/>
<polygon fill="#191970" stroke="#191970" points="456.7907,-417.4534 446.2038,-417.0419 454.2233,-423.9657 456.7907,-417.4534"/>
</g>
<!-- Node34 -->
<g id="node17" class="node">
<title>Node34</title>
<g id="a_node17"><a xlink:href="MMCollisionInt_8h.html" target="_top" xlink:title="Monk and Monchick collision integrals. ">
<polygon fill="#ffffff" stroke="#000000" points="0,-336.5 0,-355.5 90,-355.5 90,-336.5 0,-336.5"/>
<text text-anchor="middle" x="45" y="-343.5" font-family="Helvetica,sans-Serif" font-size="10.00" fill="#000000">MMCollisionInt.h</text>
</a>
</g>
</g>
<!-- Node0&#45;&gt;Node34 -->
<g id="edge22" class="edge">
<title>Node0&#45;&gt;Node34</title>
<path fill="none" stroke="#191970" d="M530.1561,-461.1806C480.4204,-452.7889 400.4244,-438.5518 332,-423 244.3878,-403.0871 143.152,-374.6306 87.3785,-358.4714"/>
<polygon fill="#191970" stroke="#191970" points="88.0864,-355.0324 77.5069,-355.602 86.1326,-361.7542 88.0864,-355.0324"/>
</g>
<!-- Node35 -->
<g id="node18" class="node">
<title>Node35</title>
<g id="a_node18"><a xlink:href="stringUtils_8h.html" target="_top" xlink:title="Contains declarations for string manipulation functions within Cantera. ">
<polygon fill="#ffffff" stroke="#000000" points="515,-168.5 515,-187.5 643,-187.5 643,-168.5 515,-168.5"/>
<text text-anchor="middle" x="579" y="-175.5" font-family="Helvetica,sans-Serif" font-size="10.00" fill="#000000">cantera/base/stringUtils.h</text>
</a>
</g>
</g>
<!-- Node0&#45;&gt;Node35 -->
<g id="edge24" class="edge">
<title>Node0&#45;&gt;Node35</title>
<path fill="none" stroke="#191970" d="M578.0333,-459.3179C578.1756,-417.8919 578.7351,-255.0833 578.9314,-197.9482"/>
<polygon fill="#191970" stroke="#191970" points="582.4321,-197.7305 578.9666,-187.7185 575.4322,-197.7063 582.4321,-197.7305"/>
</g>
<!-- Node37 -->
<g id="node20" class="node">
<title>Node37</title>
<g id="a_node20"><a xlink:href="polyfit_8h.html" target="_top" xlink:title="cantera/numerics/polyfit.h">
<polygon fill="#ffffff" stroke="#000000" points="606.5,-280.5 606.5,-299.5 735.5,-299.5 735.5,-280.5 606.5,-280.5"/>
<text text-anchor="middle" x="671" y="-287.5" font-family="Helvetica,sans-Serif" font-size="10.00" fill="#000000">cantera/numerics/polyfit.h</text>
</a>
</g>
</g>
<!-- Node0&#45;&gt;Node37 -->
<g id="edge29" class="edge">
<title>Node0&#45;&gt;Node37</title>
<path fill="none" stroke="#191970" d="M583.0001,-459.3762C597.8233,-430.8455 641.7155,-346.3648 661.335,-308.6024"/>
<polygon fill="#191970" stroke="#191970" points="664.4706,-310.1589 665.9752,-299.6714 658.2589,-306.9315 664.4706,-310.1589"/>
</g>
<!-- Node38 -->
<g id="node21" class="node">
<title>Node38</title>
<g id="a_node21"><a xlink:href="TransportData_8h.html" target="_top" xlink:title="cantera/transport/Transport\lData.h">
<polygon fill="#ffffff" stroke="#000000" points="684,-392.5 684,-422.5 818,-422.5 818,-392.5 684,-392.5"/>
<text text-anchor="start" x="692" y="-410.5" font-family="Helvetica,sans-Serif" font-size="10.00" fill="#000000">cantera/transport/Transport</text>
<text text-anchor="middle" x="751" y="-399.5" font-family="Helvetica,sans-Serif" font-size="10.00" fill="#000000">Data.h</text>
</a>
</g>
</g>
<!-- Node0&#45;&gt;Node38 -->
<g id="edge31" class="edge">
<title>Node0&#45;&gt;Node38</title>
<path fill="none" stroke="#191970" d="M605.0313,-459.3906C630.0706,-450.4893 667.9957,-437.0073 698.9129,-426.0165"/>
<polygon fill="#191970" stroke="#191970" points="700.4295,-429.192 708.6794,-422.5446 698.0847,-422.5964 700.4295,-429.192"/>
</g>
<!-- Node2 -->
<g id="node3" class="node">
<title>Node2</title>
<g id="a_node3"><a xlink:href="TransportBase_8h.html" target="_top" xlink:title="Headers for the Transport object, which is the virtual base class for all transport property evaluato...">
<polygon fill="#ffffff" stroke="#000000" points="377.5,-336.5 377.5,-355.5 466.5,-355.5 466.5,-336.5 377.5,-336.5"/>
<text text-anchor="middle" x="422" y="-343.5" font-family="Helvetica,sans-Serif" font-size="10.00" fill="#000000">TransportBase.h</text>
</a>
</g>
</g>
<!-- Node1&#45;&gt;Node2 -->
<g id="edge2" class="edge">
<title>Node1&#45;&gt;Node2</title>
<path fill="none" stroke="#191970" d="M422,-397.8906C422,-389.3657 422,-376.6392 422,-365.9235"/>
<polygon fill="#191970" stroke="#191970" points="425.5001,-365.7448 422,-355.7449 418.5001,-365.7449 425.5001,-365.7448"/>
</g>
<!-- Node27 -->
<g id="node12" class="node">
<title>Node27</title>
<g id="a_node12"><a xlink:href="DenseMatrix_8h.html" target="_top" xlink:title="Headers for the DenseMatrix object, which deals with dense rectangular matrices and description of th...">
<polygon fill="#ffffff" stroke="#000000" points="171,-336.5 171,-355.5 329,-355.5 329,-336.5 171,-336.5"/>
<text text-anchor="middle" x="250" y="-343.5" font-family="Helvetica,sans-Serif" font-size="10.00" fill="#000000">cantera/numerics/DenseMatrix.h</text>
</a>
</g>
</g>
<!-- Node1&#45;&gt;Node27 -->
<g id="edge13" class="edge">
<title>Node1&#45;&gt;Node27</title>
<path fill="none" stroke="#191970" d="M395.125,-397.8906C365.8414,-387.42 318.831,-370.6111 286.2863,-358.9745"/>
<polygon fill="#191970" stroke="#191970" points="287.2809,-355.6131 276.6863,-355.5419 284.9241,-362.2045 287.2809,-355.6131"/>
</g>
<!-- Node3 -->
<g id="node4" class="node">
<title>Node3</title>
<g id="a_node4"><a xlink:href="ThermoPhase_8h.html" target="_top" xlink:title="Header file for class ThermoPhase, the base class for phases with thermodynamic properties, and the text for the Module thermoprops (see Thermodynamic Properties and class ThermoPhase). ">
<polygon fill="#ffffff" stroke="#000000" points="345,-280.5 345,-299.5 499,-299.5 499,-280.5 345,-280.5"/>
<text text-anchor="middle" x="422" y="-287.5" font-family="Helvetica,sans-Serif" font-size="10.00" fill="#000000">cantera/thermo/ThermoPhase.h</text>
</a>
</g>
</g>
<!-- Node2&#45;&gt;Node3 -->
<g id="edge3" class="edge">
<title>Node2&#45;&gt;Node3</title>
<path fill="none" stroke="#191970" d="M422,-336.2455C422,-328.9382 422,-318.6944 422,-309.7046"/>
<polygon fill="#191970" stroke="#191970" points="425.5001,-309.6426 422,-299.6427 418.5001,-309.6427 425.5001,-309.6426"/>
</g>
<!-- Node4 -->
<g id="node5" class="node">
<title>Node4</title>
<g id="a_node5"><a xlink:href="Phase_8h.html" target="_top" xlink:title="Header file for class Phase. ">
<polygon fill="#ffffff" stroke="#ff0000" points="497.5,-224.5 497.5,-243.5 550.5,-243.5 550.5,-224.5 497.5,-224.5"/>
<text text-anchor="middle" x="524" y="-231.5" font-family="Helvetica,sans-Serif" font-size="10.00" fill="#000000">Phase.h</text>
</a>
</g>
</g>
<!-- Node3&#45;&gt;Node4 -->
<g id="edge4" class="edge">
<title>Node3&#45;&gt;Node4</title>
<path fill="none" stroke="#191970" d="M439.767,-280.2455C455.7095,-271.4928 479.3259,-258.527 497.4989,-248.5496"/>
<polygon fill="#191970" stroke="#191970" points="499.3552,-251.5233 506.4366,-243.6427 495.9863,-245.3873 499.3552,-251.5233"/>
</g>
<!-- Node23 -->
<g id="node10" class="node">
<title>Node23</title>
<g id="a_node10"><a xlink:href="MultiSpeciesThermo_8h.html" target="_top" xlink:title="Header for a general species thermodynamic property manager for a phase (see MultiSpeciesThermo). ">
<polygon fill="#ffffff" stroke="#ff0000" points="365,-224.5 365,-243.5 479,-243.5 479,-224.5 365,-224.5"/>
<text text-anchor="middle" x="422" y="-231.5" font-family="Helvetica,sans-Serif" font-size="10.00" fill="#000000">MultiSpeciesThermo.h</text>
</a>
</g>
</g>
<!-- Node3&#45;&gt;Node23 -->
<g id="edge9" class="edge">
<title>Node3&#45;&gt;Node23</title>
<path fill="none" stroke="#191970" d="M422,-280.2455C422,-272.9382 422,-262.6944 422,-253.7046"/>
<polygon fill="#191970" stroke="#191970" points="425.5001,-253.6426 422,-243.6427 418.5001,-253.6427 425.5001,-253.6426"/>
</g>
<!-- Node26 -->
<g id="node11" class="node">
<title>Node26</title>
<g id="a_node11"><a xlink:href="global_8h.html" target="_top" xlink:title="This file contains definitions for utility functions and text for modules, inputfiles, logs, textlogs, (see Input File Handling, Diagnostic Output, and Writing messages to the screen). ">
<polygon fill="#ffffff" stroke="#000000" points="229,-168.5 229,-187.5 339,-187.5 339,-168.5 229,-168.5"/>
<text text-anchor="middle" x="284" y="-175.5" font-family="Helvetica,sans-Serif" font-size="10.00" fill="#000000">cantera/base/global.h</text>
</a>
</g>
</g>
<!-- Node3&#45;&gt;Node26 -->
<g id="edge10" class="edge">
<title>Node3&#45;&gt;Node26</title>
<path fill="none" stroke="#191970" d="M407.1768,-280.4891C393.5278,-271.542 372.8969,-257.5335 356,-244 336.5278,-228.4038 315.6565,-208.9351 301.4256,-195.1962"/>
<polygon fill="#191970" stroke="#191970" points="303.4805,-192.3118 293.8748,-187.8417 298.5963,-197.3263 303.4805,-192.3118"/>
</g>
<!-- Node5 -->
<g id="node6" class="node">
<title>Node5</title>
<g id="a_node6"><a xlink:href="ctexceptions_8h.html" target="_top" xlink:title="Definitions for the classes that are thrown when Cantera experiences an error condition (also contain...">
<polygon fill="#ffffff" stroke="#ff0000" points="357,-168.5 357,-187.5 497,-187.5 497,-168.5 357,-168.5"/>
<text text-anchor="middle" x="427" y="-175.5" font-family="Helvetica,sans-Serif" font-size="10.00" fill="#000000">cantera/base/ctexceptions.h</text>
</a>
</g>
</g>
<!-- Node4&#45;&gt;Node5 -->
<g id="edge5" class="edge">
<title>Node4&#45;&gt;Node5</title>
<path fill="none" stroke="#191970" d="M507.1039,-224.2455C492.082,-215.5731 469.8957,-202.7645 452.679,-192.825"/>
<polygon fill="#191970" stroke="#191970" points="454.1128,-189.6114 443.7025,-187.6427 450.6129,-195.6737 454.1128,-189.6114"/>
</g>
<!-- Node6 -->
<g id="node7" class="node">
<title>Node6</title>
<g id="a_node7"><a xlink:href="fmt_8h.html" target="_top" xlink:title="Wrapper for either system&#45;installed or local headers for fmt. ">
<polygon fill="#ffffff" stroke="#ff0000" points="318,-112.5 318,-131.5 416,-131.5 416,-112.5 318,-112.5"/>
<text text-anchor="middle" x="367" y="-119.5" font-family="Helvetica,sans-Serif" font-size="10.00" fill="#000000">cantera/base/fmt.h</text>
</a>
</g>
</g>
<!-- Node5&#45;&gt;Node6 -->
<g id="edge6" class="edge">
<title>Node5&#45;&gt;Node6</title>
<path fill="none" stroke="#191970" d="M416.5488,-168.2455C407.7731,-160.0549 395.0446,-148.1749 384.686,-138.5069"/>
<polygon fill="#191970" stroke="#191970" points="387.0301,-135.9072 377.3314,-131.6427 382.2539,-141.0246 387.0301,-135.9072"/>
</g>
<!-- Node7 -->
<g id="node8" class="node">
<title>Node7</title>
<g id="a_node8"><a xlink:href="ct__defs_8h.html" target="_top" xlink:title="This file contains definitions of terms that are used in internal routines and are unlikely to need m...">
<polygon fill="#ffffff" stroke="#ff0000" points="338.5,-56.5 338.5,-75.5 395.5,-75.5 395.5,-56.5 338.5,-56.5"/>
<text text-anchor="middle" x="367" y="-63.5" font-family="Helvetica,sans-Serif" font-size="10.00" fill="#000000">ct_defs.h</text>
</a>
</g>
</g>
<!-- Node6&#45;&gt;Node7 -->
<g id="edge7" class="edge">
<title>Node6&#45;&gt;Node7</title>
<path fill="none" stroke="#191970" d="M367,-112.2455C367,-104.9382 367,-94.6944 367,-85.7046"/>
<polygon fill="#191970" stroke="#191970" points="370.5001,-85.6426 367,-75.6427 363.5001,-85.6427 370.5001,-85.6426"/>
</g>
<!-- Node13 -->
<g id="node9" class="node">
<title>Node13</title>
<polygon fill="#ffffff" stroke="#bfbfbf" points="477.5,-.5 477.5,-19.5 518.5,-19.5 518.5,-.5 477.5,-.5"/>
<text text-anchor="middle" x="498" y="-7.5" font-family="Helvetica,sans-Serif" font-size="10.00" fill="#000000">string</text>
</g>
<!-- Node7&#45;&gt;Node13 -->
<g id="edge8" class="edge">
<title>Node7&#45;&gt;Node13</title>
<path fill="none" stroke="#191970" d="M389.5197,-56.3733C411.2516,-47.0833 444.285,-32.9621 468.1893,-22.7435"/>
<polygon fill="#191970" stroke="#191970" points="469.6771,-25.914 477.4964,-18.7649 466.9255,-19.4774 469.6771,-25.914"/>
</g>
<!-- Node26&#45;&gt;Node6 -->
<g id="edge12" class="edge">
<title>Node26&#45;&gt;Node6</title>
<path fill="none" stroke="#191970" d="M298.4575,-168.2455C311.0732,-159.7337 329.5944,-147.2375 344.2045,-137.3801"/>
<polygon fill="#191970" stroke="#191970" points="346.3761,-140.1371 352.7082,-131.6427 342.4609,-134.3343 346.3761,-140.1371"/>
</g>
<!-- Node26&#45;&gt;Node7 -->
<g id="edge11" class="edge">
<title>Node26&#45;&gt;Node7</title>
<path fill="none" stroke="#191970" d="M285.964,-168.2563C289.0708,-154.6381 296.1299,-129.6079 309,-112 317.8838,-99.8458 330.7816,-89.1832 342.1597,-81.1919"/>
<polygon fill="#191970" stroke="#191970" points="344.1139,-84.0956 350.4728,-75.6212 340.2171,-78.2805 344.1139,-84.0956"/>
</g>
<!-- Node27&#45;&gt;Node5 -->
<g id="edge15" class="edge">
<title>Node27&#45;&gt;Node5</title>
<path fill="none" stroke="#191970" d="M256.9157,-336.323C272.7671,-314.5623 313.6329,-260.7986 356,-224 369.7352,-212.0701 386.801,-200.9155 400.7586,-192.579"/>
<polygon fill="#191970" stroke="#191970" points="402.5423,-195.5905 409.4157,-187.5278 399.0146,-189.5444 402.5423,-195.5905"/>
</g>
<!-- Node27&#45;&gt;Node7 -->
<g id="edge14" class="edge">
<title>Node27&#45;&gt;Node7</title>
<path fill="none" stroke="#191970" d="M182.9051,-336.4525C125.1333,-323.9965 51,-295.9447 51,-234 51,-234 51,-234 51,-178 51,-119.7508 244.1641,-84.1218 328.4442,-71.3487"/>
<polygon fill="#191970" stroke="#191970" points="329.0227,-74.8012 338.3998,-69.8697 327.994,-67.8772 329.0227,-74.8012"/>
</g>
<!-- Node28 -->
<g id="node13" class="node">
<title>Node28</title>
<g id="a_node13"><a xlink:href="Array_8h.html" target="_top" xlink:title="Header file for class Cantera::Array2D. ">
<polygon fill="#ffffff" stroke="#000000" points="141.5,-280.5 141.5,-299.5 248.5,-299.5 248.5,-280.5 141.5,-280.5"/>
<text text-anchor="middle" x="195" y="-287.5" font-family="Helvetica,sans-Serif" font-size="10.00" fill="#000000">cantera/base/Array.h</text>
</a>
</g>
</g>
<!-- Node27&#45;&gt;Node28 -->
<g id="edge16" class="edge">
<title>Node27&#45;&gt;Node28</title>
<path fill="none" stroke="#191970" d="M240.4197,-336.2455C232.4542,-328.1352 220.9359,-316.4075 211.4921,-306.7919"/>
<polygon fill="#191970" stroke="#191970" points="213.9747,-304.3247 204.4705,-299.6427 208.9805,-309.2297 213.9747,-304.3247"/>
</g>
<!-- Node29 -->
<g id="node14" class="node">
<title>Node29</title>
<g id="a_node14"><a xlink:href="utilities_8h.html" target="_top" xlink:title="Various templated functions that carry out common vector operations (see Templated Utility Functions)...">
<polygon fill="#ffffff" stroke="#ff0000" points="215,-224.5 215,-243.5 271,-243.5 271,-224.5 215,-224.5"/>
<text text-anchor="middle" x="243" y="-231.5" font-family="Helvetica,sans-Serif" font-size="10.00" fill="#000000">utilities.h</text>
</a>
</g>
</g>
<!-- Node28&#45;&gt;Node29 -->
<g id="edge17" class="edge">
<title>Node28&#45;&gt;Node29</title>
<path fill="none" stroke="#191970" d="M203.361,-280.2455C210.175,-272.2958 219.9681,-260.8706 228.1152,-251.3656"/>
<polygon fill="#191970" stroke="#191970" points="230.8843,-253.513 234.7349,-243.6427 225.5695,-248.9575 230.8843,-253.513"/>
</g>
<!-- Node32 -->
<g id="node15" class="node">
<title>Node32</title>
<polygon fill="#ffffff" stroke="#bfbfbf" points="79,-224.5 79,-243.5 133,-243.5 133,-224.5 79,-224.5"/>
<text text-anchor="middle" x="106" y="-231.5" font-family="Helvetica,sans-Serif" font-size="10.00" fill="#000000">iostream</text>
</g>
<!-- Node28&#45;&gt;Node32 -->
<g id="edge20" class="edge">
<title>Node28&#45;&gt;Node32</title>
<path fill="none" stroke="#191970" d="M179.4974,-280.2455C165.842,-271.6534 145.7343,-259.0014 130.0011,-249.1018"/>
<polygon fill="#191970" stroke="#191970" points="131.6529,-246.006 121.325,-243.6427 127.9249,-251.9307 131.6529,-246.006"/>
</g>
<!-- Node33 -->
<g id="node16" class="node">
<title>Node33</title>
<polygon fill="#ffffff" stroke="#bfbfbf" points="151,-224.5 151,-243.5 197,-243.5 197,-224.5 151,-224.5"/>
<text text-anchor="middle" x="174" y="-231.5" font-family="Helvetica,sans-Serif" font-size="10.00" fill="#000000">cstring</text>
</g>
<!-- Node28&#45;&gt;Node33 -->
<g id="edge21" class="edge">
<title>Node28&#45;&gt;Node33</title>
<path fill="none" stroke="#191970" d="M191.3421,-280.2455C188.5416,-272.7776 184.591,-262.2427 181.1676,-253.1137"/>
<polygon fill="#191970" stroke="#191970" points="184.4045,-251.777 177.616,-243.6427 177.8501,-254.2349 184.4045,-251.777"/>
</g>
<!-- Node29&#45;&gt;Node7 -->
<g id="edge18" class="edge">
<title>Node29&#45;&gt;Node7</title>
<path fill="none" stroke="#191970" d="M234.8615,-224.2855C224.8891,-211.1274 210.4288,-187.0913 220,-168 242.2688,-123.5811 294.1022,-94.848 329.859,-79.5409"/>
<polygon fill="#191970" stroke="#191970" points="331.5669,-82.6227 339.48,-75.5776 328.9007,-76.1504 331.5669,-82.6227"/>
</g>
<!-- Node29&#45;&gt;Node26 -->
<g id="edge19" class="edge">
<title>Node29&#45;&gt;Node26</title>
<path fill="none" stroke="#191970" d="M250.1417,-224.2455C255.8444,-216.4564 263.99,-205.3308 270.8625,-195.9439"/>
<polygon fill="#191970" stroke="#191970" points="273.8568,-197.7789 276.9402,-187.6427 268.2087,-193.6437 273.8568,-197.7789"/>
</g>
<!-- Node34&#45;&gt;Node7 -->
<g id="edge23" class="edge">
<title>Node34&#45;&gt;Node7</title>
<path fill="none" stroke="#191970" d="M40.2783,-336.3774C31.377,-317.3222 13,-273.2317 13,-234 13,-234 13,-234 13,-178 13,-131.9062 51.0652,-131.1341 93,-112 134.257,-93.1752 262.7281,-77.1874 328.0378,-70.0249"/>
<polygon fill="#191970" stroke="#191970" points="328.7663,-73.4667 338.332,-68.9118 328.0137,-66.5072 328.7663,-73.4667"/>
</g>
<!-- Node35&#45;&gt;Node6 -->
<g id="edge26" class="edge">
<title>Node35&#45;&gt;Node6</title>
<path fill="none" stroke="#191970" d="M542.5559,-168.3733C506.6931,-158.9001 451.8122,-144.4032 412.9718,-134.1435"/>
<polygon fill="#191970" stroke="#191970" points="413.5308,-130.6712 402.9685,-131.5011 411.743,-137.439 413.5308,-130.6712"/>
</g>
<!-- Node35&#45;&gt;Node7 -->
<g id="edge25" class="edge">
<title>Node35&#45;&gt;Node7</title>
<path fill="none" stroke="#191970" d="M549.5893,-168.4024C525.642,-160.1045 491.2921,-147.0873 463,-132 435.4223,-117.2936 406.1591,-96.2937 387.2934,-81.9565"/>
<polygon fill="#191970" stroke="#191970" points="389.2199,-79.0226 379.1604,-75.6975 384.9507,-84.5701 389.2199,-79.0226"/>
</g>
<!-- Node35&#45;&gt;Node13 -->
<g id="edge28" class="edge">
<title>Node35&#45;&gt;Node13</title>
<path fill="none" stroke="#191970" d="M589.2444,-168.2249C601.3818,-155.3978 618.9023,-132.1482 610,-112 592.62,-72.6645 551.7486,-41.9648 524.486,-24.9171"/>
<polygon fill="#191970" stroke="#191970" points="526.1825,-21.8527 515.8157,-19.6663 522.5563,-27.8403 526.1825,-21.8527"/>
</g>
<!-- Node36 -->
<g id="node19" class="node">
<title>Node36</title>
<polygon fill="#ffffff" stroke="#bfbfbf" points="472.5,-112.5 472.5,-131.5 601.5,-131.5 601.5,-112.5 472.5,-112.5"/>
<text text-anchor="middle" x="537" y="-119.5" font-family="Helvetica,sans-Serif" font-size="10.00" fill="#000000">boost/algorithm/string.hpp</text>
</g>
<!-- Node35&#45;&gt;Node36 -->
<g id="edge27" class="edge">
<title>Node35&#45;&gt;Node36</title>
<path fill="none" stroke="#191970" d="M571.6842,-168.2455C565.7821,-160.3761 557.3258,-149.101 550.2406,-139.6542"/>
<polygon fill="#191970" stroke="#191970" points="553.0321,-137.5427 544.232,-131.6427 547.432,-141.7427 553.0321,-137.5427"/>
</g>
<!-- Node37&#45;&gt;Node7 -->
<g id="edge30" class="edge">
<title>Node37&#45;&gt;Node7</title>
<path fill="none" stroke="#191970" d="M671.4042,-280.1838C672.0951,-248.5148 669.3335,-148.9674 610,-112 576.4813,-91.1164 465.6611,-76.4936 405.9405,-69.9171"/>
<polygon fill="#191970" stroke="#191970" points="406.0814,-66.4121 395.7638,-68.8199 405.331,-73.3718 406.0814,-66.4121"/>
</g>
<!-- Node38&#45;&gt;Node7 -->
<g id="edge32" class="edge">
<title>Node38&#45;&gt;Node7</title>
<path fill="none" stroke="#191970" d="M753.757,-392.3491C757.573,-370.025 764,-326.9428 764,-290 764,-290 764,-290 764,-178 764,-104.067 505.743,-76.5368 405.8229,-68.6521"/>
<polygon fill="#191970" stroke="#191970" points="405.7889,-65.1394 395.5513,-67.8672 405.2555,-72.1191 405.7889,-65.1394"/>
</g>
</g>
</svg>
