<?xml version="1.0" encoding="UTF-8" standalone="no"?>
<!DOCTYPE svg PUBLIC "-//W3C//DTD SVG 1.1//EN"
 "http://www.w3.org/Graphics/SVG/1.1/DTD/svg11.dtd">
<!-- Generated by graphviz version 2.40.1 (20161225.0304)
 -->
<!-- Title: IdealGasPhase.h Pages: 1 -->
<svg width="839pt" height="196pt"
 viewBox="0.00 0.00 839.00 196.00" xmlns="http://www.w3.org/2000/svg" xmlns:xlink="http://www.w3.org/1999/xlink">
<g id="graph0" class="graph" transform="scale(1 1) rotate(0) translate(4 192)">
<title>IdealGasPhase.h</title>
<polygon fill="#ffffff" stroke="transparent" points="-4,4 -4,-192 835,-192 835,4 -4,4"/>
<!-- Node26 -->
<g id="node1" class="node">
<title>Node26</title>
<polygon fill="#bfbfbf" stroke="#000000" points="343,-168.5 343,-187.5 435,-187.5 435,-168.5 343,-168.5"/>
<text text-anchor="middle" x="389" y="-175.5" font-family="Helvetica,sans-Serif" font-size="10.00" fill="#000000">IdealGasPhase.h</text>
</g>
<!-- Node27 -->
<g id="node2" class="node">
<title>Node27</title>
<g id="a_node2"><a xlink:href="IdealGasPhase_8cpp.html" target="_top" xlink:title="ThermoPhase object for the ideal gas equation of state &#45; workhorse for Cantera (see Thermodynamic Pro...">
<polygon fill="#ffffff" stroke="#000000" points="0,-112.5 0,-131.5 102,-131.5 102,-112.5 0,-112.5"/>
<text text-anchor="middle" x="51" y="-119.5" font-family="Helvetica,sans-Serif" font-size="10.00" fill="#000000">IdealGasPhase.cpp</text>
</a>
</g>
</g>
<!-- Node26&#45;&gt;Node27 -->
<g id="edge1" class="edge">
<title>Node26&#45;&gt;Node27</title>
<path fill="none" stroke="#191970" d="M332.6616,-168.6976C276.4981,-159.4194 187.7793,-144.7505 111,-132 108.0831,-131.5156 105.0864,-131.0175 102.0624,-130.5146"/>
<polygon fill="#191970" stroke="#191970" points="332.3227,-172.189 342.7595,-170.3656 333.4636,-165.2826 332.3227,-172.189"/>
</g>
<!-- Node28 -->
<g id="node3" class="node">
<title>Node28</title>
<g id="a_node3"><a xlink:href="ThermoFactory_8cpp.html" target="_top" xlink:title="Definitions for the factory class that can create known ThermoPhase objects (see Thermodynamic Proper...">
<polygon fill="#ffffff" stroke="#000000" points="120.5,-112.5 120.5,-131.5 221.5,-131.5 221.5,-112.5 120.5,-112.5"/>
<text text-anchor="middle" x="171" y="-119.5" font-family="Helvetica,sans-Serif" font-size="10.00" fill="#000000">ThermoFactory.cpp</text>
</a>
</g>
</g>
<!-- Node26&#45;&gt;Node28 -->
<g id="edge2" class="edge">
<title>Node26&#45;&gt;Node28</title>
<path fill="none" stroke="#191970" d="M341.7061,-165.8511C301.5907,-155.5462 244.8465,-140.9697 207.9865,-131.5011"/>
<polygon fill="#191970" stroke="#191970" points="340.9681,-169.2751 351.5245,-168.3733 342.7098,-162.4952 340.9681,-169.2751"/>
</g>
<!-- Node29 -->
<g id="node4" class="node">
<title>Node29</title>
<g id="a_node4"><a xlink:href="HighPressureGasTransport_8cpp.html" target="_top" xlink:title="Implementation file for class HighPressureGasTransport. ">
<polygon fill="#ffffff" stroke="#000000" points="240,-112.5 240,-131.5 394,-131.5 394,-112.5 240,-112.5"/>
<text text-anchor="middle" x="317" y="-119.5" font-family="Helvetica,sans-Serif" font-size="10.00" fill="#000000">HighPressureGasTransport.cpp</text>
</a>
</g>
</g>
<!-- Node26&#45;&gt;Node29 -->
<g id="edge3" class="edge">
<title>Node26&#45;&gt;Node29</title>
<path fill="none" stroke="#191970" d="M368.336,-161.928C355.7511,-152.1397 340.0908,-139.9595 329.3977,-131.6427"/>
<polygon fill="#191970" stroke="#191970" points="366.4162,-164.8688 376.4586,-168.2455 370.7138,-159.3434 366.4162,-164.8688"/>
</g>
<!-- Node30 -->
<g id="node5" class="node">
<title>Node30</title>
<g id="a_node5"><a xlink:href="MultiTransport_8cpp.html" target="_top" xlink:title="Implementation file for class MultiTransport. ">
<polygon fill="#ffffff" stroke="#000000" points="412,-112.5 412,-131.5 510,-131.5 510,-112.5 412,-112.5"/>
<text text-anchor="middle" x="461" y="-119.5" font-family="Helvetica,sans-Serif" font-size="10.00" fill="#000000">MultiTransport.cpp</text>
</a>
</g>
</g>
<!-- Node26&#45;&gt;Node30 -->
<g id="edge4" class="edge">
<title>Node26&#45;&gt;Node30</title>
<path fill="none" stroke="#191970" d="M409.664,-161.928C422.2489,-152.1397 437.9092,-139.9595 448.6023,-131.6427"/>
<polygon fill="#191970" stroke="#191970" points="407.2862,-159.3434 401.5414,-168.2455 411.5838,-164.8688 407.2862,-159.3434"/>
</g>
<!-- Node31 -->
<g id="node6" class="node">
<title>Node31</title>
<g id="a_node6"><a xlink:href="IdealGasMix_8h.html" target="_top" xlink:title="IdealGasMix.h">
<polygon fill="#ffffff" stroke="#000000" points="528,-112.5 528,-131.5 608,-131.5 608,-112.5 528,-112.5"/>
<text text-anchor="middle" x="568" y="-119.5" font-family="Helvetica,sans-Serif" font-size="10.00" fill="#000000">IdealGasMix.h</text>
</a>
</g>
</g>
<!-- Node26&#45;&gt;Node31 -->
<g id="edge5" class="edge">
<title>Node26&#45;&gt;Node31</title>
<path fill="none" stroke="#191970" d="M429.5195,-165.3235C462.3466,-155.0536 507.8776,-140.8093 537.6303,-131.5011"/>
<polygon fill="#191970" stroke="#191970" points="428.27,-162.0471 419.7712,-168.3733 430.3601,-168.7278 428.27,-162.0471"/>
</g>
<!-- Node32 -->
<g id="node7" class="node">
<title>Node32</title>
<g id="a_node7"><a xlink:href="StFlow_8h.html" target="_top" xlink:title="StFlow.h">
<polygon fill="#ffffff" stroke="#000000" points="626,-112.5 626,-131.5 682,-131.5 682,-112.5 626,-112.5"/>
<text text-anchor="middle" x="654" y="-119.5" font-family="Helvetica,sans-Serif" font-size="10.00" fill="#000000">StFlow.h</text>
</a>
</g>
</g>
<!-- Node26&#45;&gt;Node32 -->
<g id="edge6" class="edge">
<title>Node26&#45;&gt;Node32</title>
<path fill="none" stroke="#191970" d="M444.8814,-167.7741C491.1744,-159.0519 558.5963,-145.7687 617,-132 619.8497,-131.3282 622.8128,-130.5919 625.7662,-129.8331"/>
<polygon fill="#191970" stroke="#191970" points="444.2279,-164.3356 435.0443,-169.6188 445.5182,-171.2156 444.2279,-164.3356"/>
</g>
<!-- Node33 -->
<g id="node8" class="node">
<title>Node33</title>
<g id="a_node8"><a xlink:href="boundaries1D_8cpp.html" target="_top" xlink:title="boundaries1D.cpp">
<polygon fill="#ffffff" stroke="#000000" points="558.5,-.5 558.5,-19.5 653.5,-19.5 653.5,-.5 558.5,-.5"/>
<text text-anchor="middle" x="606" y="-7.5" font-family="Helvetica,sans-Serif" font-size="10.00" fill="#000000">boundaries1D.cpp</text>
</a>
</g>
</g>
<!-- Node32&#45;&gt;Node33 -->
<g id="edge7" class="edge">
<title>Node32&#45;&gt;Node33</title>
<path fill="none" stroke="#191970" d="M616.1724,-111.4909C568.883,-98.3107 493.9576,-77.2695 493,-76 471.5886,-47.6143 518.5866,-29.2689 558.3547,-19.2963"/>
<polygon fill="#191970" stroke="#191970" points="615.2349,-114.8629 625.8074,-114.1741 617.1129,-108.1195 615.2349,-114.8629"/>
</g>
<!-- Node34 -->
<g id="node9" class="node">
<title>Node34</title>
<g id="a_node9"><a xlink:href="refine_8cpp.html" target="_top" xlink:title="refine.cpp">
<polygon fill="#ffffff" stroke="#000000" points="502.5,-56.5 502.5,-75.5 561.5,-75.5 561.5,-56.5 502.5,-56.5"/>
<text text-anchor="middle" x="532" y="-63.5" font-family="Helvetica,sans-Serif" font-size="10.00" fill="#000000">refine.cpp</text>
</a>
</g>
</g>
<!-- Node32&#45;&gt;Node34 -->
<g id="edge8" class="edge">
<title>Node32&#45;&gt;Node34</title>
<path fill="none" stroke="#191970" d="M623.7416,-108.1109C601.6181,-97.9559 572.1906,-84.4482 552.6989,-75.5011"/>
<polygon fill="#191970" stroke="#191970" points="622.479,-111.3824 633.0275,-112.3733 625.3993,-105.0206 622.479,-111.3824"/>
</g>
<!-- Node35 -->
<g id="node10" class="node">
<title>Node35</title>
<g id="a_node10"><a xlink:href="Sim1D_8cpp.html" target="_top" xlink:title="Sim1D.cpp">
<polygon fill="#ffffff" stroke="#000000" points="579.5,-56.5 579.5,-75.5 644.5,-75.5 644.5,-56.5 579.5,-56.5"/>
<text text-anchor="middle" x="612" y="-63.5" font-family="Helvetica,sans-Serif" font-size="10.00" fill="#000000">Sim1D.cpp</text>
</a>
</g>
</g>
<!-- Node32&#45;&gt;Node35 -->
<g id="edge9" class="edge">
<title>Node32&#45;&gt;Node35</title>
<path fill="none" stroke="#191970" d="M640.6584,-104.2112C633.5604,-94.7472 625.1097,-83.4797 619.232,-75.6427"/>
<polygon fill="#191970" stroke="#191970" points="637.8841,-106.3455 646.6842,-112.2455 643.4841,-102.1455 637.8841,-106.3455"/>
</g>
<!-- Node36 -->
<g id="node11" class="node">
<title>Node36</title>
<g id="a_node11"><a xlink:href="StFlow_8cpp.html" target="_top" xlink:title="StFlow.cpp">
<polygon fill="#ffffff" stroke="#000000" points="663,-56.5 663,-75.5 729,-75.5 729,-56.5 663,-56.5"/>
<text text-anchor="middle" x="696" y="-63.5" font-family="Helvetica,sans-Serif" font-size="10.00" fill="#000000">StFlow.cpp</text>
</a>
</g>
</g>
<!-- Node32&#45;&gt;Node36 -->
<g id="edge10" class="edge">
<title>Node32&#45;&gt;Node36</title>
<path fill="none" stroke="#191970" d="M667.3416,-104.2112C674.4396,-94.7472 682.8903,-83.4797 688.768,-75.6427"/>
<polygon fill="#191970" stroke="#191970" points="664.5159,-102.1455 661.3158,-112.2455 670.1159,-106.3455 664.5159,-102.1455"/>
</g>
<!-- Node37 -->
<g id="node12" class="node">
<title>Node37</title>
<g id="a_node12"><a xlink:href="Inlet1D_8h.html" target="_top" xlink:title="Boundary objects for one&#45;dimensional simulations. ">
<polygon fill="#ffffff" stroke="#000000" points="747,-56.5 747,-75.5 803,-75.5 803,-56.5 747,-56.5"/>
<text text-anchor="middle" x="775" y="-63.5" font-family="Helvetica,sans-Serif" font-size="10.00" fill="#000000">Inlet1D.h</text>
</a>
</g>
</g>
<!-- Node32&#45;&gt;Node37 -->
<g id="edge11" class="edge">
<title>Node32&#45;&gt;Node37</title>
<path fill="none" stroke="#191970" d="M684.0104,-108.1109C705.9525,-97.9559 735.1388,-84.4482 754.4708,-75.5011"/>
<polygon fill="#191970" stroke="#191970" points="682.4058,-104.9968 674.8006,-112.3733 685.3459,-111.3494 682.4058,-104.9968"/>
</g>
<!-- Node38 -->
<g id="node13" class="node">
<title>Node38</title>
<g id="a_node13"><a xlink:href="dupe_files/onedim_8h.html" target="_top" xlink:title="onedim.h">
<polygon fill="#ffffff" stroke="#000000" points="775,-.5 775,-19.5 831,-19.5 831,-.5 775,-.5"/>
<text text-anchor="middle" x="803" y="-7.5" font-family="Helvetica,sans-Serif" font-size="10.00" fill="#000000">onedim.h</text>
</a>
</g>
</g>
<!-- Node32&#45;&gt;Node38 -->
<g id="edge14" class="edge">
<title>Node32&#45;&gt;Node38</title>
<path fill="none" stroke="#191970" d="M691.9657,-116.2525C733.9491,-109.0297 797.5846,-95.2108 812,-76 824.4936,-59.3503 814.9686,-33.4849 808.212,-19.5947"/>
<polygon fill="#191970" stroke="#191970" points="691.3503,-112.8067 682.0622,-117.9039 692.5017,-119.7113 691.3503,-112.8067"/>
</g>
<!-- Node37&#45;&gt;Node33 -->
<g id="edge12" class="edge">
<title>Node37&#45;&gt;Node33</title>
<path fill="none" stroke="#191970" d="M737.1341,-53.4527C706.2121,-43.2064 663.1595,-28.9404 634.9456,-19.5914"/>
<polygon fill="#191970" stroke="#191970" points="736.1198,-56.8037 746.7132,-56.6269 738.3217,-50.159 736.1198,-56.8037"/>
</g>
<!-- Node37&#45;&gt;Node38 -->
<g id="edge13" class="edge">
<title>Node37&#45;&gt;Node38</title>
<path fill="none" stroke="#191970" d="M784.4781,-47.0437C789.0835,-37.8331 794.4201,-27.1598 798.1787,-19.6427"/>
<polygon fill="#191970" stroke="#191970" points="781.2189,-45.736 779.8772,-56.2455 787.4799,-48.8665 781.2189,-45.736"/>
</g>
</g>
</svg>
