<?xml version="1.0" encoding="UTF-8" standalone="no"?>
<!DOCTYPE svg PUBLIC "-//W3C//DTD SVG 1.1//EN"
 "http://www.w3.org/Graphics/SVG/1.1/DTD/svg11.dtd">
<!-- Generated by graphviz version 2.40.1 (20161225.0304)
 -->
<!-- Title: IdealMolalSoln.cpp Pages: 1 -->
<svg width="537pt" height="431pt"
 viewBox="0.00 0.00 536.85 431.00" xmlns="http://www.w3.org/2000/svg" xmlns:xlink="http://www.w3.org/1999/xlink">
<g id="graph0" class="graph" transform="scale(1 1) rotate(0) translate(4 427)">
<title>IdealMolalSoln.cpp</title>
<polygon fill="#ffffff" stroke="transparent" points="-4,4 -4,-427 532.8463,-427 532.8463,4 -4,4"/>
<!-- Node0 -->
<g id="node1" class="node">
<title>Node0</title>
<polygon fill="#bfbfbf" stroke="#000000" points="239,-403.5 239,-422.5 338,-422.5 338,-403.5 239,-403.5"/>
<text text-anchor="middle" x="288.5" y="-410.5" font-family="Helvetica,sans-Serif" font-size="10.00" fill="#000000">IdealMolalSoln.cpp</text>
</g>
<!-- Node1 -->
<g id="node2" class="node">
<title>Node1</title>
<g id="a_node2"><a xlink:href="IdealMolalSoln_8h.html" target="_top" xlink:title="ThermoPhase object for the ideal molal equation of state (see Thermodynamic Properties and class Idea...">
<polygon fill="#ffffff" stroke="#000000" points="97,-336.5 97,-366.5 226,-366.5 226,-336.5 97,-336.5"/>
<text text-anchor="start" x="105" y="-354.5" font-family="Helvetica,sans-Serif" font-size="10.00" fill="#000000">cantera/thermo/IdealMolal</text>
<text text-anchor="middle" x="161.5" y="-343.5" font-family="Helvetica,sans-Serif" font-size="10.00" fill="#000000">Soln.h</text>
</a>
</g>
</g>
<!-- Node0&#45;&gt;Node1 -->
<g id="edge1" class="edge">
<title>Node0&#45;&gt;Node1</title>
<path fill="none" stroke="#191970" d="M268.6563,-403.3906C250.8318,-394.7591 224.1124,-381.8202 201.8145,-371.0224"/>
<polygon fill="#191970" stroke="#191970" points="203.0934,-367.7529 192.5677,-366.5446 200.0425,-374.0531 203.0934,-367.7529"/>
</g>
<!-- Node31 -->
<g id="node11" class="node">
<title>Node31</title>
<g id="a_node11"><a xlink:href="ThermoFactory_8h.html" target="_top" xlink:title="Headers for the factory class that can create known ThermoPhase objects (see Thermodynamic Properties...">
<polygon fill="#ffffff" stroke="#000000" points="190,-224.5 190,-243.5 349,-243.5 349,-224.5 190,-224.5"/>
<text text-anchor="middle" x="269.5" y="-231.5" font-family="Helvetica,sans-Serif" font-size="10.00" fill="#000000">cantera/thermo/ThermoFactory.h</text>
</a>
</g>
</g>
<!-- Node0&#45;&gt;Node31 -->
<g id="edge12" class="edge">
<title>Node0&#45;&gt;Node31</title>
<path fill="none" stroke="#191970" d="M287.4785,-403.3762C284.4887,-375.2097 275.7108,-292.5126 271.6305,-254.0713"/>
<polygon fill="#191970" stroke="#191970" points="275.0626,-253.2461 270.5266,-243.6714 268.1017,-253.985 275.0626,-253.2461"/>
</g>
<!-- Node36 -->
<g id="node17" class="node">
<title>Node36</title>
<g id="a_node17"><a xlink:href="ctml_8h.html" target="_top" xlink:title="CTML (&quot;Cantera Markup Language&quot;) is the variant of XML that Cantera uses to store data...">
<polygon fill="#ffffff" stroke="#000000" points="367,-224.5 367,-243.5 470,-243.5 470,-224.5 367,-224.5"/>
<text text-anchor="middle" x="418.5" y="-231.5" font-family="Helvetica,sans-Serif" font-size="10.00" fill="#000000">cantera/base/ctml.h</text>
</a>
</g>
</g>
<!-- Node0&#45;&gt;Node36 -->
<g id="edge22" class="edge">
<title>Node0&#45;&gt;Node36</title>
<path fill="none" stroke="#191970" d="M292.271,-403.2941C298.3463,-388.2216 311.1827,-358.5743 326.5,-336 348.7421,-303.22 380.8555,-270.0339 400.6646,-250.7707"/>
<polygon fill="#191970" stroke="#191970" points="403.3036,-253.089 408.0937,-243.6389 398.4559,-248.0393 403.3036,-253.089"/>
</g>
<!-- Node37 -->
<g id="node18" class="node">
<title>Node37</title>
<polygon fill="#ffffff" stroke="#bfbfbf" points="335.5,-342 335.5,-361 389.5,-361 389.5,-342 335.5,-342"/>
<text text-anchor="middle" x="362.5" y="-349" font-family="Helvetica,sans-Serif" font-size="10.00" fill="#000000">iostream</text>
</g>
<!-- Node0&#45;&gt;Node37 -->
<g id="edge25" class="edge">
<title>Node0&#45;&gt;Node37</title>
<path fill="none" stroke="#191970" d="M300.0625,-403.3906C311.5079,-393.8786 329.2473,-379.1357 342.897,-367.7917"/>
<polygon fill="#191970" stroke="#191970" points="345.3208,-370.3283 350.7745,-361.2449 340.8467,-364.9447 345.3208,-370.3283"/>
</g>
<!-- Node2 -->
<g id="node3" class="node">
<title>Node2</title>
<g id="a_node3"><a xlink:href="MolalityVPSSTP_8h.html" target="_top" xlink:title="Header for intermediate ThermoPhase object for phases which employ molality based activity coefficien...">
<polygon fill="#ffffff" stroke="#000000" points="82.5,-280.5 82.5,-299.5 180.5,-299.5 180.5,-280.5 82.5,-280.5"/>
<text text-anchor="middle" x="131.5" y="-287.5" font-family="Helvetica,sans-Serif" font-size="10.00" fill="#000000">MolalityVPSSTP.h</text>
</a>
</g>
</g>
<!-- Node1&#45;&gt;Node2 -->
<g id="edge2" class="edge">
<title>Node1&#45;&gt;Node2</title>
<path fill="none" stroke="#191970" d="M154.0843,-336.2977C150.0501,-328.0277 145.0227,-317.7215 140.736,-308.9339"/>
<polygon fill="#191970" stroke="#191970" points="143.8334,-307.3001 136.3034,-299.8469 137.542,-310.3691 143.8334,-307.3001"/>
</g>
<!-- Node3 -->
<g id="node4" class="node">
<title>Node3</title>
<g id="a_node4"><a xlink:href="VPStandardStateTP_8h.html" target="_top" xlink:title="Header file for a derived class of ThermoPhase that handles variable pressure standard state methods ...">
<polygon fill="#ffffff" stroke="#000000" points="46,-224.5 46,-243.5 159,-243.5 159,-224.5 46,-224.5"/>
<text text-anchor="middle" x="102.5" y="-231.5" font-family="Helvetica,sans-Serif" font-size="10.00" fill="#000000">VPStandardStateTP.h</text>
</a>
</g>
</g>
<!-- Node2&#45;&gt;Node3 -->
<g id="edge3" class="edge">
<title>Node2&#45;&gt;Node3</title>
<path fill="none" stroke="#191970" d="M126.4486,-280.2455C122.4981,-272.617 116.8903,-261.7881 112.0942,-252.5267"/>
<polygon fill="#191970" stroke="#191970" points="115.2001,-250.9131 107.4935,-243.6427 108.9841,-254.1321 115.2001,-250.9131"/>
</g>
<!-- Node4 -->
<g id="node5" class="node">
<title>Node4</title>
<g id="a_node5"><a xlink:href="ThermoPhase_8h.html" target="_top" xlink:title="Header file for class ThermoPhase, the base class for phases with thermodynamic properties, and the text for the Module thermoprops (see Thermodynamic Properties and class ThermoPhase). ">
<polygon fill="#ffffff" stroke="#ff0000" points="128.5,-168.5 128.5,-187.5 214.5,-187.5 214.5,-168.5 128.5,-168.5"/>
<text text-anchor="middle" x="171.5" y="-175.5" font-family="Helvetica,sans-Serif" font-size="10.00" fill="#000000">ThermoPhase.h</text>
</a>
</g>
</g>
<!-- Node3&#45;&gt;Node4 -->
<g id="edge4" class="edge">
<title>Node3&#45;&gt;Node4</title>
<path fill="none" stroke="#191970" d="M114.5189,-224.2455C124.7098,-215.9746 139.5362,-203.9416 151.5107,-194.2232"/>
<polygon fill="#191970" stroke="#191970" points="154.0598,-196.662 159.6188,-187.6427 149.6486,-191.2268 154.0598,-196.662"/>
</g>
<!-- Node28 -->
<g id="node9" class="node">
<title>Node28</title>
<g id="a_node9"><a xlink:href="VPSSMgr_8h.html" target="_top" xlink:title="Declaration file for a virtual base class that manages the calculation of standard state properties f...">
<polygon fill="#ffffff" stroke="#ff0000" points="42.5,-168.5 42.5,-187.5 110.5,-187.5 110.5,-168.5 42.5,-168.5"/>
<text text-anchor="middle" x="76.5" y="-175.5" font-family="Helvetica,sans-Serif" font-size="10.00" fill="#000000">VPSSMgr.h</text>
</a>
</g>
</g>
<!-- Node3&#45;&gt;Node28 -->
<g id="edge8" class="edge">
<title>Node3&#45;&gt;Node28</title>
<path fill="none" stroke="#191970" d="M97.9711,-224.2455C94.4666,-216.6973 89.5073,-206.0158 85.2377,-196.8197"/>
<polygon fill="#191970" stroke="#191970" points="88.3627,-195.2389 80.977,-187.6427 82.0136,-198.1867 88.3627,-195.2389"/>
</g>
<!-- Node30 -->
<g id="node10" class="node">
<title>Node30</title>
<g id="a_node10"><a xlink:href="PDSS_8h.html" target="_top" xlink:title="Declarations for the virtual base class PDSS (pressure dependent standard state) which handles calcul...">
<polygon fill="#ffffff" stroke="#ff0000" points="0,-112.5 0,-131.5 53,-131.5 53,-112.5 0,-112.5"/>
<text text-anchor="middle" x="26.5" y="-119.5" font-family="Helvetica,sans-Serif" font-size="10.00" fill="#000000">PDSS.h</text>
</a>
</g>
</g>
<!-- Node3&#45;&gt;Node30 -->
<g id="edge10" class="edge">
<title>Node3&#45;&gt;Node30</title>
<path fill="none" stroke="#191970" d="M78.2527,-224.3605C62.7554,-216.8621 43.7123,-204.8745 33.5,-188 25.1207,-174.1543 23.8288,-155.6346 24.3697,-141.7373"/>
<polygon fill="#191970" stroke="#191970" points="27.8606,-141.9884 25.096,-131.7606 20.8791,-141.4801 27.8606,-141.9884"/>
</g>
<!-- Node27 -->
<g id="node6" class="node">
<title>Node27</title>
<g id="a_node6"><a xlink:href="global_8h.html" target="_top" xlink:title="This file contains definitions for utility functions and text for modules, inputfiles, logs, textlogs, (see Input File Handling, Diagnostic Output, and Writing messages to the screen). ">
<polygon fill="#ffffff" stroke="#ff0000" points="77.5,-112.5 77.5,-131.5 187.5,-131.5 187.5,-112.5 77.5,-112.5"/>
<text text-anchor="middle" x="132.5" y="-119.5" font-family="Helvetica,sans-Serif" font-size="10.00" fill="#000000">cantera/base/global.h</text>
</a>
</g>
</g>
<!-- Node4&#45;&gt;Node27 -->
<g id="edge5" class="edge">
<title>Node4&#45;&gt;Node27</title>
<path fill="none" stroke="#191970" d="M164.7067,-168.2455C159.2822,-160.4564 151.5339,-149.3308 144.9967,-139.9439"/>
<polygon fill="#191970" stroke="#191970" points="147.8025,-137.8485 139.2154,-131.6427 142.0583,-141.849 147.8025,-137.8485"/>
</g>
<!-- Node8 -->
<g id="node7" class="node">
<title>Node8</title>
<g id="a_node7"><a xlink:href="ct__defs_8h.html" target="_top" xlink:title="This file contains definitions of terms that are used in internal routines and are unlikely to need m...">
<polygon fill="#ffffff" stroke="#ff0000" points="278,-56.5 278,-75.5 335,-75.5 335,-56.5 278,-56.5"/>
<text text-anchor="middle" x="306.5" y="-63.5" font-family="Helvetica,sans-Serif" font-size="10.00" fill="#000000">ct_defs.h</text>
</a>
</g>
</g>
<!-- Node27&#45;&gt;Node8 -->
<g id="edge6" class="edge">
<title>Node27&#45;&gt;Node8</title>
<path fill="none" stroke="#191970" d="M162.4117,-112.3733C191.6083,-102.9767 236.1627,-88.6373 267.9927,-78.3932"/>
<polygon fill="#191970" stroke="#191970" points="269.3975,-81.6179 277.8444,-75.2225 267.2529,-74.9545 269.3975,-81.6179"/>
</g>
<!-- Node12 -->
<g id="node8" class="node">
<title>Node12</title>
<polygon fill="#ffffff" stroke="#bfbfbf" points="312.5,-.5 312.5,-19.5 356.5,-19.5 356.5,-.5 312.5,-.5"/>
<text text-anchor="middle" x="334.5" y="-7.5" font-family="Helvetica,sans-Serif" font-size="10.00" fill="#000000">vector</text>
</g>
<!-- Node8&#45;&gt;Node12 -->
<g id="edge7" class="edge">
<title>Node8&#45;&gt;Node12</title>
<path fill="none" stroke="#191970" d="M311.3772,-56.2455C315.1513,-48.6973 320.4921,-38.0158 325.0901,-28.8197"/>
<polygon fill="#191970" stroke="#191970" points="328.337,-30.1522 329.6787,-19.6427 322.076,-27.0217 328.337,-30.1522"/>
</g>
<!-- Node28&#45;&gt;Node27 -->
<g id="edge9" class="edge">
<title>Node28&#45;&gt;Node27</title>
<path fill="none" stroke="#191970" d="M86.2545,-168.2455C94.3648,-160.1352 106.0925,-148.4075 115.7081,-138.7919"/>
<polygon fill="#191970" stroke="#191970" points="118.2611,-141.1887 122.8573,-131.6427 113.3113,-136.2389 118.2611,-141.1887"/>
</g>
<!-- Node30&#45;&gt;Node8 -->
<g id="edge11" class="edge">
<title>Node30&#45;&gt;Node8</title>
<path fill="none" stroke="#191970" d="M53.1229,-115.4797C58.2186,-114.2832 63.5175,-113.0741 68.5,-112 138.4909,-96.9112 220.5696,-81.5611 267.7567,-72.9613"/>
<polygon fill="#191970" stroke="#191970" points="268.6305,-76.3599 277.8439,-71.1289 267.3793,-69.4726 268.6305,-76.3599"/>
</g>
<!-- Node31&#45;&gt;Node4 -->
<g id="edge13" class="edge">
<title>Node31&#45;&gt;Node4</title>
<path fill="none" stroke="#191970" d="M252.4297,-224.2455C237.253,-215.5731 214.8379,-202.7645 197.4437,-192.825"/>
<polygon fill="#191970" stroke="#191970" points="198.7936,-189.5653 188.3747,-187.6427 195.3206,-195.643 198.7936,-189.5653"/>
</g>
<!-- Node32 -->
<g id="node12" class="node">
<title>Node32</title>
<g id="a_node12"><a xlink:href="xml_8h.html" target="_top" xlink:title="Classes providing support for XML data files. ">
<polygon fill="#ffffff" stroke="#000000" points="232.5,-168.5 232.5,-187.5 332.5,-187.5 332.5,-168.5 232.5,-168.5"/>
<text text-anchor="middle" x="282.5" y="-175.5" font-family="Helvetica,sans-Serif" font-size="10.00" fill="#000000">cantera/base/xml.h</text>
</a>
</g>
</g>
<!-- Node31&#45;&gt;Node32 -->
<g id="edge14" class="edge">
<title>Node31&#45;&gt;Node32</title>
<path fill="none" stroke="#191970" d="M271.7644,-224.2455C273.4794,-216.8579 275.8912,-206.4689 277.9944,-197.4087"/>
<polygon fill="#191970" stroke="#191970" points="281.4095,-198.1751 280.2615,-187.6427 274.5908,-196.5922 281.4095,-198.1751"/>
</g>
<!-- Node33 -->
<g id="node14" class="node">
<title>Node33</title>
<g id="a_node14"><a xlink:href="FactoryBase_8h.html" target="_top" xlink:title="File contains the FactoryBase class declarations. ">
<polygon fill="#ffffff" stroke="#000000" points="350.5,-168.5 350.5,-187.5 490.5,-187.5 490.5,-168.5 350.5,-168.5"/>
<text text-anchor="middle" x="420.5" y="-175.5" font-family="Helvetica,sans-Serif" font-size="10.00" fill="#000000">cantera/base/FactoryBase.h</text>
</a>
</g>
</g>
<!-- Node31&#45;&gt;Node33 -->
<g id="edge17" class="edge">
<title>Node31&#45;&gt;Node33</title>
<path fill="none" stroke="#191970" d="M295.4578,-224.3733C320.2407,-215.1822 357.7746,-201.2624 385.254,-191.0713"/>
<polygon fill="#191970" stroke="#191970" points="386.7219,-194.26 394.8809,-187.5011 384.2879,-187.6968 386.7219,-194.26"/>
</g>
<!-- Node32&#45;&gt;Node27 -->
<g id="edge16" class="edge">
<title>Node32&#45;&gt;Node27</title>
<path fill="none" stroke="#191970" d="M256.7141,-168.3733C232.0953,-159.1822 194.81,-145.2624 167.5125,-135.0713"/>
<polygon fill="#191970" stroke="#191970" points="168.542,-131.7198 157.9494,-131.5011 166.0937,-138.2777 168.542,-131.7198"/>
</g>
<!-- Node6 -->
<g id="node13" class="node">
<title>Node6</title>
<g id="a_node13"><a xlink:href="ctexceptions_8h.html" target="_top" xlink:title="Definitions for the classes that are thrown when Cantera experiences an error condition (also contain...">
<polygon fill="#ffffff" stroke="#ff0000" points="205.5,-112.5 205.5,-131.5 345.5,-131.5 345.5,-112.5 205.5,-112.5"/>
<text text-anchor="middle" x="275.5" y="-119.5" font-family="Helvetica,sans-Serif" font-size="10.00" fill="#000000">cantera/base/ctexceptions.h</text>
</a>
</g>
</g>
<!-- Node32&#45;&gt;Node6 -->
<g id="edge15" class="edge">
<title>Node32&#45;&gt;Node6</title>
<path fill="none" stroke="#191970" d="M281.2807,-168.2455C280.3673,-160.9382 279.0868,-150.6944 277.9631,-141.7046"/>
<polygon fill="#191970" stroke="#191970" points="281.4187,-141.1313 276.7053,-131.6427 274.4728,-141.9996 281.4187,-141.1313"/>
</g>
<!-- Node33&#45;&gt;Node12 -->
<g id="edge18" class="edge">
<title>Node33&#45;&gt;Node12</title>
<path fill="none" stroke="#191970" d="M460.4657,-168.4726C494.2825,-158.2855 534.8447,-139.7488 518.5,-112 485.5504,-56.0607 409.6501,-28.6283 366.3287,-17.0845"/>
<polygon fill="#191970" stroke="#191970" points="367.1305,-13.6771 356.5767,-14.608 365.4075,-20.4618 367.1305,-13.6771"/>
</g>
<!-- Node33&#45;&gt;Node6 -->
<g id="edge21" class="edge">
<title>Node33&#45;&gt;Node6</title>
<path fill="none" stroke="#191970" d="M395.5736,-168.3733C371.8798,-159.2226 336.0489,-145.3844 309.6932,-135.2057"/>
<polygon fill="#191970" stroke="#191970" points="310.6906,-131.8389 300.1011,-131.5011 308.1686,-138.3689 310.6906,-131.8389"/>
</g>
<!-- Node34 -->
<g id="node15" class="node">
<title>Node34</title>
<polygon fill="#ffffff" stroke="#bfbfbf" points="465.5,-112.5 465.5,-131.5 509.5,-131.5 509.5,-112.5 465.5,-112.5"/>
<text text-anchor="middle" x="487.5" y="-119.5" font-family="Helvetica,sans-Serif" font-size="10.00" fill="#000000">mutex</text>
</g>
<!-- Node33&#45;&gt;Node34 -->
<g id="edge19" class="edge">
<title>Node33&#45;&gt;Node34</title>
<path fill="none" stroke="#191970" d="M432.1705,-168.2455C442.0661,-159.9746 456.4627,-147.9416 468.0901,-138.2232"/>
<polygon fill="#191970" stroke="#191970" points="470.535,-140.7413 475.9632,-131.6427 466.0458,-135.3703 470.535,-140.7413"/>
</g>
<!-- Node35 -->
<g id="node16" class="node">
<title>Node35</title>
<polygon fill="#ffffff" stroke="#bfbfbf" points="364,-112.5 364,-131.5 447,-131.5 447,-112.5 364,-112.5"/>
<text text-anchor="middle" x="405.5" y="-119.5" font-family="Helvetica,sans-Serif" font-size="10.00" fill="#000000">unordered_map</text>
</g>
<!-- Node33&#45;&gt;Node35 -->
<g id="edge20" class="edge">
<title>Node33&#45;&gt;Node35</title>
<path fill="none" stroke="#191970" d="M417.8872,-168.2455C415.9084,-160.8579 413.1256,-150.4689 410.6988,-141.4087"/>
<polygon fill="#191970" stroke="#191970" points="414.0511,-140.3966 408.0829,-131.6427 407.2895,-142.2078 414.0511,-140.3966"/>
</g>
<!-- Node36&#45;&gt;Node8 -->
<g id="edge23" class="edge">
<title>Node36&#45;&gt;Node8</title>
<path fill="none" stroke="#191970" d="M445.5857,-224.492C463.1798,-217.0507 485.3851,-205.0774 499.5,-188 521.6815,-161.1629 540.354,-139.1044 518.5,-112 497.1801,-85.558 400.657,-73.541 345.4898,-68.7486"/>
<polygon fill="#191970" stroke="#191970" points="345.6248,-65.2479 335.3699,-67.9101 345.0467,-72.224 345.6248,-65.2479"/>
</g>
<!-- Node36&#45;&gt;Node32 -->
<g id="edge24" class="edge">
<title>Node36&#45;&gt;Node32</title>
<path fill="none" stroke="#191970" d="M395.1208,-224.3733C372.9955,-215.2629 339.5866,-201.5062 314.8981,-191.3404"/>
<polygon fill="#191970" stroke="#191970" points="316.1536,-188.0723 305.5742,-187.5011 313.4883,-194.5451 316.1536,-188.0723"/>
</g>
</g>
</svg>
