<?xml version="1.0" encoding="UTF-8" standalone="no"?>
<!DOCTYPE svg PUBLIC "-//W3C//DTD SVG 1.1//EN"
 "http://www.w3.org/Graphics/SVG/1.1/DTD/svg11.dtd">
<!-- Generated by graphviz version 2.40.1 (20161225.0304)
 -->
<!-- Title: IncompressibleSolid.h Pages: 1 -->
<svg width="1112pt" height="431pt"
 viewBox="0.00 0.00 1111.50 431.00" xmlns="http://www.w3.org/2000/svg" xmlns:xlink="http://www.w3.org/1999/xlink">
<g id="graph0" class="graph" transform="scale(1 1) rotate(0) translate(4 427)">
<title>IncompressibleSolid.h</title>
<polygon fill="#ffffff" stroke="transparent" points="-4,4 -4,-427 1107.5,-427 1107.5,4 -4,4"/>
<!-- Node0 -->
<g id="node1" class="node">
<title>Node0</title>
<polygon fill="#bfbfbf" stroke="#000000" points="291.5,-403.5 291.5,-422.5 404.5,-422.5 404.5,-403.5 291.5,-403.5"/>
<text text-anchor="middle" x="348" y="-410.5" font-family="Helvetica,sans-Serif" font-size="10.00" fill="#000000">IncompressibleSolid.h</text>
</g>
<!-- Node1 -->
<g id="node2" class="node">
<title>Node1</title>
<g id="a_node2"><a xlink:href="ConstDensityThermo_8h.html" target="_top" xlink:title="Header for a Thermo manager for incompressible ThermoPhases (see Thermodynamic Properties and ConstDe...">
<polygon fill="#ffffff" stroke="#000000" points="210.5,-291.5 210.5,-310.5 361.5,-310.5 361.5,-291.5 210.5,-291.5"/>
<text text-anchor="middle" x="286" y="-298.5" font-family="Helvetica,sans-Serif" font-size="10.00" fill="#000000">thermo/ConstDensityThermo.h</text>
</a>
</g>
</g>
<!-- Node0&#45;&gt;Node1 -->
<g id="edge1" class="edge">
<title>Node0&#45;&gt;Node1</title>
<path fill="none" stroke="#191970" d="M342.7139,-403.4509C332.4188,-384.8533 309.5223,-343.4919 296.1837,-319.3964"/>
<polygon fill="#191970" stroke="#191970" points="299.178,-317.5787 291.2727,-310.5249 293.0538,-320.969 299.178,-317.5787"/>
</g>
<!-- Node29 -->
<g id="node16" class="node">
<title>Node29</title>
<g id="a_node16"><a xlink:href="importKinetics_8h.html" target="_top" xlink:title="Definitions of global routines for the importing of data from XML files (see Input File Handling)...">
<polygon fill="#ffffff" stroke="#000000" points="339,-347.5 339,-366.5 463,-366.5 463,-347.5 339,-347.5"/>
<text text-anchor="middle" x="401" y="-354.5" font-family="Helvetica,sans-Serif" font-size="10.00" fill="#000000">kinetics/importKinetics.h</text>
</a>
</g>
</g>
<!-- Node0&#45;&gt;Node29 -->
<g id="edge23" class="edge">
<title>Node0&#45;&gt;Node29</title>
<path fill="none" stroke="#191970" d="M357.2319,-403.2455C364.8317,-395.2155 375.7877,-383.6394 384.8368,-374.0781"/>
<polygon fill="#191970" stroke="#191970" points="387.5421,-376.3115 391.8739,-366.6427 382.458,-371.4998 387.5421,-376.3115"/>
</g>
<!-- Node2 -->
<g id="node3" class="node">
<title>Node2</title>
<g id="a_node3"><a xlink:href="ThermoPhase_8h.html" target="_top" xlink:title="Header file for class ThermoPhase, the base class for phases with thermodynamic properties, and the text for the Module thermoprops (see Thermodynamic Properties and class ThermoPhase). ">
<polygon fill="#ffffff" stroke="#000000" points="243,-230 243,-249 329,-249 329,-230 243,-230"/>
<text text-anchor="middle" x="286" y="-237" font-family="Helvetica,sans-Serif" font-size="10.00" fill="#000000">ThermoPhase.h</text>
</a>
</g>
</g>
<!-- Node1&#45;&gt;Node2 -->
<g id="edge2" class="edge">
<title>Node1&#45;&gt;Node2</title>
<path fill="none" stroke="#191970" d="M286,-291.3906C286,-282.8657 286,-270.1392 286,-259.4235"/>
<polygon fill="#191970" stroke="#191970" points="289.5001,-259.2448 286,-249.2449 282.5001,-259.2449 289.5001,-259.2448"/>
</g>
<!-- Node26 -->
<g id="node13" class="node">
<title>Node26</title>
<g id="a_node13"><a xlink:href="utilities_8h.html" target="_top" xlink:title="Various templated functions that carry out common vector operations (see Templated Utility Functions)...">
<polygon fill="#ffffff" stroke="#000000" points="80.5,-112.5 80.5,-131.5 195.5,-131.5 195.5,-112.5 80.5,-112.5"/>
<text text-anchor="middle" x="138" y="-119.5" font-family="Helvetica,sans-Serif" font-size="10.00" fill="#000000">cantera/base/utilities.h</text>
</a>
</g>
</g>
<!-- Node1&#45;&gt;Node26 -->
<g id="edge18" class="edge">
<title>Node1&#45;&gt;Node26</title>
<path fill="none" stroke="#191970" d="M273.7468,-291.4642C262.7462,-282.6104 246.4594,-268.7588 234,-255 199.6112,-217.0248 166.1449,-166.7397 149.2882,-140.2013"/>
<polygon fill="#191970" stroke="#191970" points="152.1441,-138.168 143.8583,-131.5652 146.2181,-141.8939 152.1441,-138.168"/>
</g>
<!-- Node3 -->
<g id="node4" class="node">
<title>Node3</title>
<g id="a_node4"><a xlink:href="Phase_8h.html" target="_top" xlink:title="Header file for class Phase. ">
<polygon fill="#ffffff" stroke="#000000" points="782.5,-112.5 782.5,-131.5 835.5,-131.5 835.5,-112.5 782.5,-112.5"/>
<text text-anchor="middle" x="809" y="-119.5" font-family="Helvetica,sans-Serif" font-size="10.00" fill="#000000">Phase.h</text>
</a>
</g>
</g>
<!-- Node2&#45;&gt;Node3 -->
<g id="edge3" class="edge">
<title>Node2&#45;&gt;Node3</title>
<path fill="none" stroke="#191970" d="M329.1775,-230.7815C412.7534,-213.73 602.5959,-174.1419 772.4381,-132.0414"/>
<polygon fill="#191970" stroke="#191970" points="773.4464,-135.3973 782.3058,-129.5868 771.7567,-128.6043 773.4464,-135.3973"/>
</g>
<!-- Node22 -->
<g id="node10" class="node">
<title>Node22</title>
<g id="a_node10"><a xlink:href="MultiSpeciesThermo_8h.html" target="_top" xlink:title="Header for a general species thermodynamic property manager for a phase (see MultiSpeciesThermo). ">
<polygon fill="#ffffff" stroke="#000000" points="227,-168.5 227,-187.5 341,-187.5 341,-168.5 227,-168.5"/>
<text text-anchor="middle" x="284" y="-175.5" font-family="Helvetica,sans-Serif" font-size="10.00" fill="#000000">MultiSpeciesThermo.h</text>
</a>
</g>
</g>
<!-- Node2&#45;&gt;Node22 -->
<g id="edge11" class="edge">
<title>Node2&#45;&gt;Node22</title>
<path fill="none" stroke="#191970" d="M285.6875,-229.8906C285.4103,-221.3657 284.9964,-208.6392 284.6479,-197.9235"/>
<polygon fill="#191970" stroke="#191970" points="288.1402,-197.6258 284.3169,-187.7449 281.1439,-197.8534 288.1402,-197.6258"/>
</g>
<!-- Node25 -->
<g id="node12" class="node">
<title>Node25</title>
<g id="a_node12"><a xlink:href="global_8h.html" target="_top" xlink:title="This file contains definitions for utility functions and text for modules, inputfiles, logs, textlogs, (see Input File Handling, Diagnostic Output, and Writing messages to the screen). ">
<polygon fill="#ffffff" stroke="#ff0000" points="0,-56.5 0,-75.5 110,-75.5 110,-56.5 0,-56.5"/>
<text text-anchor="middle" x="55" y="-63.5" font-family="Helvetica,sans-Serif" font-size="10.00" fill="#000000">cantera/base/global.h</text>
</a>
</g>
</g>
<!-- Node2&#45;&gt;Node25 -->
<g id="edge17" class="edge">
<title>Node2&#45;&gt;Node25</title>
<path fill="none" stroke="#191970" d="M244.0408,-229.9269C195.0313,-216.521 115.0641,-187.3348 71,-132 60.5684,-118.9002 56.7869,-100.0205 55.4874,-85.8067"/>
<polygon fill="#191970" stroke="#191970" points="58.9692,-85.3886 54.8977,-75.6073 51.9808,-85.7927 58.9692,-85.3886"/>
</g>
<!-- Node4 -->
<g id="node5" class="node">
<title>Node4</title>
<g id="a_node5"><a xlink:href="ctexceptions_8h.html" target="_top" xlink:title="Definitions for the classes that are thrown when Cantera experiences an error condition (also contain...">
<polygon fill="#ffffff" stroke="#ff0000" points="510,-56.5 510,-75.5 650,-75.5 650,-56.5 510,-56.5"/>
<text text-anchor="middle" x="580" y="-63.5" font-family="Helvetica,sans-Serif" font-size="10.00" fill="#000000">cantera/base/ctexceptions.h</text>
</a>
</g>
</g>
<!-- Node3&#45;&gt;Node4 -->
<g id="edge4" class="edge">
<title>Node3&#45;&gt;Node4</title>
<path fill="none" stroke="#191970" d="M782.2932,-114.4631C779.1648,-113.6154 776.0149,-112.7777 773,-112 725.3897,-99.7182 670.8679,-86.831 631.9449,-77.8321"/>
<polygon fill="#191970" stroke="#191970" points="632.4307,-74.3523 621.9,-75.5159 630.8579,-81.1733 632.4307,-74.3523"/>
</g>
<!-- Node18 -->
<g id="node6" class="node">
<title>Node18</title>
<g id="a_node6"><a xlink:href="Elements_8h.html" target="_top" xlink:title="Contains the getElementWeight function and the definitions of element constraint types. ">
<polygon fill="#ffffff" stroke="#000000" points="668,-56.5 668,-75.5 802,-75.5 802,-56.5 668,-56.5"/>
<text text-anchor="middle" x="735" y="-63.5" font-family="Helvetica,sans-Serif" font-size="10.00" fill="#000000">cantera/thermo/Elements.h</text>
</a>
</g>
</g>
<!-- Node3&#45;&gt;Node18 -->
<g id="edge5" class="edge">
<title>Node3&#45;&gt;Node18</title>
<path fill="none" stroke="#191970" d="M796.1102,-112.2455C785.0746,-103.8943 768.9708,-91.7076 756.0647,-81.9408"/>
<polygon fill="#191970" stroke="#191970" points="757.8283,-78.8862 747.7421,-75.6427 753.6041,-84.4681 757.8283,-78.8862"/>
</g>
<!-- Node19 -->
<g id="node8" class="node">
<title>Node19</title>
<g id="a_node8"><a xlink:href="Species_8h.html" target="_top" xlink:title="Declaration for class Cantera::Species. ">
<polygon fill="#ffffff" stroke="#000000" points="820,-56.5 820,-75.5 948,-75.5 948,-56.5 820,-56.5"/>
<text text-anchor="middle" x="884" y="-63.5" font-family="Helvetica,sans-Serif" font-size="10.00" fill="#000000">cantera/thermo/Species.h</text>
</a>
</g>
</g>
<!-- Node3&#45;&gt;Node19 -->
<g id="edge7" class="edge">
<title>Node3&#45;&gt;Node19</title>
<path fill="none" stroke="#191970" d="M822.064,-112.2455C833.3562,-103.814 849.8845,-91.4729 863.0271,-81.6598"/>
<polygon fill="#191970" stroke="#191970" points="865.1669,-84.4301 871.0857,-75.6427 860.9789,-78.8211 865.1669,-84.4301"/>
</g>
<!-- Node20 -->
<g id="node9" class="node">
<title>Node20</title>
<g id="a_node9"><a xlink:href="ValueCache_8h.html" target="_top" xlink:title="cantera/base/ValueCache.h">
<polygon fill="#ffffff" stroke="#ff0000" points="966.5,-56.5 966.5,-75.5 1103.5,-75.5 1103.5,-56.5 966.5,-56.5"/>
<text text-anchor="middle" x="1035" y="-63.5" font-family="Helvetica,sans-Serif" font-size="10.00" fill="#000000">cantera/base/ValueCache.h</text>
</a>
</g>
</g>
<!-- Node3&#45;&gt;Node20 -->
<g id="edge9" class="edge">
<title>Node3&#45;&gt;Node20</title>
<path fill="none" stroke="#191970" d="M835.8127,-115.3562C872.9582,-106.152 940.695,-89.3676 986.759,-77.9535"/>
<polygon fill="#191970" stroke="#191970" points="987.6635,-81.3353 996.5282,-75.5328 985.9799,-74.5408 987.6635,-81.3353"/>
</g>
<!-- Node6 -->
<g id="node7" class="node">
<title>Node6</title>
<g id="a_node7"><a xlink:href="ct__defs_8h.html" target="_top" xlink:title="This file contains definitions of terms that are used in internal routines and are unlikely to need m...">
<polygon fill="#ffffff" stroke="#ff0000" points="399.5,-.5 399.5,-19.5 456.5,-19.5 456.5,-.5 399.5,-.5"/>
<text text-anchor="middle" x="428" y="-7.5" font-family="Helvetica,sans-Serif" font-size="10.00" fill="#000000">ct_defs.h</text>
</a>
</g>
</g>
<!-- Node18&#45;&gt;Node6 -->
<g id="edge6" class="edge">
<title>Node18&#45;&gt;Node6</title>
<path fill="none" stroke="#191970" d="M682.5736,-56.4369C621.2759,-45.2555 521.2676,-27.013 466.6301,-17.0465"/>
<polygon fill="#191970" stroke="#191970" points="467.1197,-13.5782 456.654,-15.2268 465.8635,-20.4645 467.1197,-13.5782"/>
</g>
<!-- Node19&#45;&gt;Node6 -->
<g id="edge8" class="edge">
<title>Node19&#45;&gt;Node6</title>
<path fill="none" stroke="#191970" d="M819.9139,-57.1598C816.9012,-56.7635 813.9181,-56.3751 811,-56 685.2697,-39.8391 536.0825,-22.4286 466.8618,-14.4515"/>
<polygon fill="#191970" stroke="#191970" points="467.1824,-10.9653 456.8477,-13.299 466.382,-17.9194 467.1824,-10.9653"/>
</g>
<!-- Node20&#45;&gt;Node6 -->
<g id="edge10" class="edge">
<title>Node20&#45;&gt;Node6</title>
<path fill="none" stroke="#191970" d="M966.1145,-57.0138C963.0354,-56.6609 959.9863,-56.3211 957,-56 773.7978,-36.2992 554.1976,-19.3206 466.7138,-12.8228"/>
<polygon fill="#191970" stroke="#191970" points="466.9423,-9.3302 456.7113,-12.0828 466.4258,-16.3111 466.9423,-9.3302"/>
</g>
<!-- Node23 -->
<g id="node11" class="node">
<title>Node23</title>
<g id="a_node11"><a xlink:href="SpeciesThermoInterpType_8h.html" target="_top" xlink:title="Pure Virtual Base class for individual species reference state thermodynamic managers and text for th...">
<polygon fill="#ffffff" stroke="#ff0000" points="214,-112.5 214,-131.5 354,-131.5 354,-112.5 214,-112.5"/>
<text text-anchor="middle" x="284" y="-119.5" font-family="Helvetica,sans-Serif" font-size="10.00" fill="#000000">SpeciesThermoInterpType.h</text>
</a>
</g>
</g>
<!-- Node22&#45;&gt;Node23 -->
<g id="edge12" class="edge">
<title>Node22&#45;&gt;Node23</title>
<path fill="none" stroke="#191970" d="M284,-168.2455C284,-160.9382 284,-150.6944 284,-141.7046"/>
<polygon fill="#191970" stroke="#191970" points="287.5001,-141.6426 284,-131.6427 280.5001,-141.6427 287.5001,-141.6426"/>
</g>
<!-- Node23&#45;&gt;Node4 -->
<g id="edge14" class="edge">
<title>Node23&#45;&gt;Node4</title>
<path fill="none" stroke="#191970" d="M334.5479,-112.4369C385.8445,-102.7321 465.2579,-87.708 519.7818,-77.3926"/>
<polygon fill="#191970" stroke="#191970" points="520.4855,-80.8217 529.6606,-75.5237 519.1842,-73.9437 520.4855,-80.8217"/>
</g>
<!-- Node23&#45;&gt;Node6 -->
<g id="edge13" class="edge">
<title>Node23&#45;&gt;Node6</title>
<path fill="none" stroke="#191970" d="M293.1439,-112.4387C306.2041,-99.0371 331.254,-74.2626 355,-56 369.9032,-44.5382 387.7396,-33.2585 402.051,-24.7373"/>
<polygon fill="#191970" stroke="#191970" points="404.0232,-27.6383 410.8804,-19.5618 400.4833,-21.5993 404.0232,-27.6383"/>
</g>
<!-- Node23&#45;&gt;Node25 -->
<g id="edge15" class="edge">
<title>Node23&#45;&gt;Node25</title>
<path fill="none" stroke="#191970" d="M244.8937,-112.4369C205.8668,-102.8932 145.8035,-88.2052 103.7038,-77.9101"/>
<polygon fill="#191970" stroke="#191970" points="104.4902,-74.4993 93.945,-75.5237 102.8274,-81.299 104.4902,-74.4993"/>
</g>
<!-- Node25&#45;&gt;Node6 -->
<g id="edge16" class="edge">
<title>Node25&#45;&gt;Node6</title>
<path fill="none" stroke="#191970" d="M110.0374,-57.737C186.4036,-46.2718 322.6026,-25.8237 389.1898,-15.8267"/>
<polygon fill="#191970" stroke="#191970" points="389.8896,-19.261 399.2591,-14.315 388.8502,-12.3386 389.8896,-19.261"/>
</g>
<!-- Node26&#45;&gt;Node6 -->
<g id="edge19" class="edge">
<title>Node26&#45;&gt;Node6</title>
<path fill="none" stroke="#191970" d="M137.7888,-112.2688C138.0422,-97.7187 140.819,-70.4608 157,-56 190.6912,-25.8905 322.8267,-15.1556 389.3279,-11.6073"/>
<polygon fill="#191970" stroke="#191970" points="389.6017,-15.098 399.4123,-11.0976 389.2483,-8.1069 389.6017,-15.098"/>
</g>
<!-- Node26&#45;&gt;Node25 -->
<g id="edge20" class="edge">
<title>Node26&#45;&gt;Node25</title>
<path fill="none" stroke="#191970" d="M123.5425,-112.2455C110.9268,-103.7337 92.4056,-91.2375 77.7955,-81.3801"/>
<polygon fill="#191970" stroke="#191970" points="79.5391,-78.3343 69.2918,-75.6427 75.6239,-84.1371 79.5391,-78.3343"/>
</g>
<!-- Node27 -->
<g id="node14" class="node">
<title>Node27</title>
<polygon fill="#ffffff" stroke="#bfbfbf" points="166.5,-56.5 166.5,-75.5 225.5,-75.5 225.5,-56.5 166.5,-56.5"/>
<text text-anchor="middle" x="196" y="-63.5" font-family="Helvetica,sans-Serif" font-size="10.00" fill="#000000">stdexcept</text>
</g>
<!-- Node26&#45;&gt;Node27 -->
<g id="edge21" class="edge">
<title>Node26&#45;&gt;Node27</title>
<path fill="none" stroke="#191970" d="M148.1028,-112.2455C156.5028,-104.1352 168.6494,-92.4075 178.6084,-82.7919"/>
<polygon fill="#191970" stroke="#191970" points="181.25,-85.1066 186.0129,-75.6427 176.3878,-80.0707 181.25,-85.1066"/>
</g>
<!-- Node28 -->
<g id="node15" class="node">
<title>Node28</title>
<polygon fill="#ffffff" stroke="#bfbfbf" points="243.5,-56.5 243.5,-75.5 294.5,-75.5 294.5,-56.5 243.5,-56.5"/>
<text text-anchor="middle" x="269" y="-63.5" font-family="Helvetica,sans-Serif" font-size="10.00" fill="#000000">numeric</text>
</g>
<!-- Node26&#45;&gt;Node28 -->
<g id="edge22" class="edge">
<title>Node26&#45;&gt;Node28</title>
<path fill="none" stroke="#191970" d="M160.5197,-112.3733C181.7372,-103.3032 213.7276,-89.6279 237.4769,-79.4755"/>
<polygon fill="#191970" stroke="#191970" points="238.9548,-82.6502 246.7742,-75.5011 236.2033,-76.2136 238.9548,-82.6502"/>
</g>
<!-- Node30 -->
<g id="node17" class="node">
<title>Node30</title>
<g id="a_node17"><a xlink:href="Kinetics_8h.html" target="_top" xlink:title="Base class for kinetics managers and also contains the kineticsmgr module documentation (see Kinetics...">
<polygon fill="#ffffff" stroke="#000000" points="385,-291.5 385,-310.5 445,-310.5 445,-291.5 385,-291.5"/>
<text text-anchor="middle" x="415" y="-298.5" font-family="Helvetica,sans-Serif" font-size="10.00" fill="#000000">Kinetics.h</text>
</a>
</g>
</g>
<!-- Node29&#45;&gt;Node30 -->
<g id="edge24" class="edge">
<title>Node29&#45;&gt;Node30</title>
<path fill="none" stroke="#191970" d="M403.4386,-347.2455C405.2855,-339.8579 407.8828,-329.4689 410.1478,-320.4087"/>
<polygon fill="#191970" stroke="#191970" points="413.5594,-321.193 412.5893,-310.6427 406.7684,-319.4952 413.5594,-321.193"/>
</g>
<!-- Node30&#45;&gt;Node2 -->
<g id="edge25" class="edge">
<title>Node30&#45;&gt;Node2</title>
<path fill="none" stroke="#191970" d="M394.8438,-291.3906C373.449,-281.1908 339.438,-264.9763 315.1298,-253.3875"/>
<polygon fill="#191970" stroke="#191970" points="316.5476,-250.186 306.0147,-249.0419 313.5352,-256.5047 316.5476,-250.186"/>
</g>
<!-- Node30&#45;&gt;Node25 -->
<g id="edge37" class="edge">
<title>Node30&#45;&gt;Node25</title>
<path fill="none" stroke="#191970" d="M384.9561,-293.782C337.2392,-282.2553 248.0628,-260.435 234,-255 174.8397,-232.1357 158.0893,-226.9073 108,-188 81.4145,-167.3495 69.627,-163.2057 57,-132 51.0876,-117.3884 50.9494,-99.4328 52.0884,-85.9406"/>
<polygon fill="#191970" stroke="#191970" points="55.5858,-86.1617 53.2467,-75.8283 48.6313,-85.365 55.5858,-86.1617"/>
</g>
<!-- Node31 -->
<g id="node18" class="node">
<title>Node31</title>
<g id="a_node18"><a xlink:href="StoichManager_8h.html" target="_top" xlink:title="StoichManager.h">
<polygon fill="#ffffff" stroke="#000000" points="674,-112.5 674,-131.5 764,-131.5 764,-112.5 674,-112.5"/>
<text text-anchor="middle" x="719" y="-119.5" font-family="Helvetica,sans-Serif" font-size="10.00" fill="#000000">StoichManager.h</text>
</a>
</g>
</g>
<!-- Node30&#45;&gt;Node31 -->
<g id="edge26" class="edge">
<title>Node30&#45;&gt;Node31</title>
<path fill="none" stroke="#191970" d="M430.715,-291.4338C454.8087,-276.7927 502.3583,-247.9989 543,-224 596.0916,-192.6494 658.6249,-156.6202 693.0294,-136.8747"/>
<polygon fill="#191970" stroke="#191970" points="695.0231,-139.7661 701.9561,-131.7546 691.5403,-133.694 695.0231,-139.7661"/>
</g>
<!-- Node34 -->
<g id="node20" class="node">
<title>Node34</title>
<g id="a_node20"><a xlink:href="mix__defs_8h.html" target="_top" xlink:title="cantera/thermo/mix\l_defs.h">
<polygon fill="#ffffff" stroke="#000000" points="551.5,-224.5 551.5,-254.5 652.5,-254.5 652.5,-224.5 551.5,-224.5"/>
<text text-anchor="start" x="559.5" y="-242.5" font-family="Helvetica,sans-Serif" font-size="10.00" fill="#000000">cantera/thermo/mix</text>
<text text-anchor="middle" x="602" y="-231.5" font-family="Helvetica,sans-Serif" font-size="10.00" fill="#000000">_defs.h</text>
</a>
</g>
</g>
<!-- Node30&#45;&gt;Node34 -->
<g id="edge30" class="edge">
<title>Node30&#45;&gt;Node34</title>
<path fill="none" stroke="#191970" d="M444.2188,-291.3906C471.5188,-282.4123 512.9895,-268.7735 546.564,-257.7316"/>
<polygon fill="#191970" stroke="#191970" points="547.8487,-260.9936 556.2547,-254.5446 545.6617,-254.344 547.8487,-260.9936"/>
</g>
<!-- Node35 -->
<g id="node21" class="node">
<title>Node35</title>
<g id="a_node21"><a xlink:href="Reaction_8h.html" target="_top" xlink:title="cantera/kinetics/Reaction.h">
<polygon fill="#ffffff" stroke="#000000" points="359,-168.5 359,-187.5 495,-187.5 495,-168.5 359,-168.5"/>
<text text-anchor="middle" x="427" y="-175.5" font-family="Helvetica,sans-Serif" font-size="10.00" fill="#000000">cantera/kinetics/Reaction.h</text>
</a>
</g>
</g>
<!-- Node30&#45;&gt;Node35 -->
<g id="edge31" class="edge">
<title>Node30&#45;&gt;Node35</title>
<path fill="none" stroke="#191970" d="M415.9416,-291.3484C417.9044,-271.2295 422.4672,-224.4608 425.0771,-197.7098"/>
<polygon fill="#191970" stroke="#191970" points="428.5751,-197.8994 426.0628,-187.6068 421.6082,-197.2196 428.5751,-197.8994"/>
</g>
<!-- Node31&#45;&gt;Node4 -->
<g id="edge29" class="edge">
<title>Node31&#45;&gt;Node4</title>
<path fill="none" stroke="#191970" d="M695.105,-112.3733C672.4918,-103.2629 638.3458,-89.5062 613.1127,-79.3404"/>
<polygon fill="#191970" stroke="#191970" points="614.1666,-75.9917 603.5831,-75.5011 611.5507,-82.4845 614.1666,-75.9917"/>
</g>
<!-- Node32 -->
<g id="node19" class="node">
<title>Node32</title>
<g id="a_node19"><a xlink:href="stringUtils_8h.html" target="_top" xlink:title="Contains declarations for string manipulation functions within Cantera. ">
<polygon fill="#ffffff" stroke="#ff0000" points="364,-56.5 364,-75.5 492,-75.5 492,-56.5 364,-56.5"/>
<text text-anchor="middle" x="428" y="-63.5" font-family="Helvetica,sans-Serif" font-size="10.00" fill="#000000">cantera/base/stringUtils.h</text>
</a>
</g>
</g>
<!-- Node31&#45;&gt;Node32 -->
<g id="edge27" class="edge">
<title>Node31&#45;&gt;Node32</title>
<path fill="none" stroke="#191970" d="M673.8505,-113.3114C623.8048,-103.6806 542.8766,-88.1068 487.645,-77.4781"/>
<polygon fill="#191970" stroke="#191970" points="488.1256,-74.0064 477.6444,-75.5536 486.8028,-80.8803 488.1256,-74.0064"/>
</g>
<!-- Node32&#45;&gt;Node6 -->
<g id="edge28" class="edge">
<title>Node32&#45;&gt;Node6</title>
<path fill="none" stroke="#191970" d="M428,-56.2455C428,-48.9382 428,-38.6944 428,-29.7046"/>
<polygon fill="#191970" stroke="#191970" points="431.5001,-29.6426 428,-19.6427 424.5001,-29.6427 431.5001,-29.6426"/>
</g>
<!-- Node35&#45;&gt;Node26 -->
<g id="edge32" class="edge">
<title>Node35&#45;&gt;Node26</title>
<path fill="none" stroke="#191970" d="M377.6475,-168.4369C327.6678,-158.7522 250.3502,-143.7703 197.1258,-133.4569"/>
<polygon fill="#191970" stroke="#191970" points="197.6322,-129.99 187.1489,-131.5237 196.3005,-136.8622 197.6322,-129.99"/>
</g>
<!-- Node36 -->
<g id="node22" class="node">
<title>Node36</title>
<g id="a_node22"><a xlink:href="RxnRates_8h.html" target="_top" xlink:title="cantera/kinetics/RxnRates.h">
<polygon fill="#ffffff" stroke="#ff0000" points="514.5,-112.5 514.5,-131.5 655.5,-131.5 655.5,-112.5 514.5,-112.5"/>
<text text-anchor="middle" x="585" y="-119.5" font-family="Helvetica,sans-Serif" font-size="10.00" fill="#000000">cantera/kinetics/RxnRates.h</text>
</a>
</g>
</g>
<!-- Node35&#45;&gt;Node36 -->
<g id="edge33" class="edge">
<title>Node35&#45;&gt;Node36</title>
<path fill="none" stroke="#191970" d="M454.1612,-168.3733C480.2067,-159.1419 519.7116,-145.1402 548.4979,-134.9375"/>
<polygon fill="#191970" stroke="#191970" points="549.937,-138.1408 558.1933,-131.5011 547.5985,-131.5429 549.937,-138.1408"/>
</g>
<!-- Node39 -->
<g id="node23" class="node">
<title>Node39</title>
<g id="a_node23"><a xlink:href="Falloff_8h_source.html" target="_top" xlink:title="cantera/kinetics/Falloff.h">
<polygon fill="#ffffff" stroke="#ff0000" points="372,-112.5 372,-131.5 496,-131.5 496,-112.5 372,-112.5"/>
<text text-anchor="middle" x="434" y="-119.5" font-family="Helvetica,sans-Serif" font-size="10.00" fill="#000000">cantera/kinetics/Falloff.h</text>
</a>
</g>
</g>
<!-- Node35&#45;&gt;Node39 -->
<g id="edge36" class="edge">
<title>Node35&#45;&gt;Node39</title>
<path fill="none" stroke="#191970" d="M428.2193,-168.2455C429.1327,-160.9382 430.4132,-150.6944 431.5369,-141.7046"/>
<polygon fill="#191970" stroke="#191970" points="435.0272,-141.9996 432.7947,-131.6427 428.0813,-141.1313 435.0272,-141.9996"/>
</g>
<!-- Node36&#45;&gt;Node4 -->
<g id="edge34" class="edge">
<title>Node36&#45;&gt;Node4</title>
<path fill="none" stroke="#191970" d="M584.1291,-112.2455C583.4766,-104.9382 582.562,-94.6944 581.7593,-85.7046"/>
<polygon fill="#191970" stroke="#191970" points="585.2365,-85.2918 580.861,-75.6427 578.2642,-85.9143 585.2365,-85.2918"/>
</g>
<!-- Node36&#45;&gt;Node32 -->
<g id="edge35" class="edge">
<title>Node36&#45;&gt;Node32</title>
<path fill="none" stroke="#191970" d="M558.0107,-112.3733C532.1301,-103.1419 492.8752,-89.1402 464.2711,-78.9375"/>
<polygon fill="#191970" stroke="#191970" points="465.2317,-75.5642 454.6371,-75.5011 462.88,-82.1573 465.2317,-75.5642"/>
</g>
</g>
</svg>
