<?xml version="1.0" encoding="UTF-8" standalone="no"?>
<!DOCTYPE svg PUBLIC "-//W3C//DTD SVG 1.1//EN"
 "http://www.w3.org/Graphics/SVG/1.1/DTD/svg11.dtd">
<!-- Generated by graphviz version 2.40.1 (20161225.0304)
 -->
<!-- Title: LiquidTranInteraction.cpp Pages: 1 -->
<svg width="716pt" height="599pt"
 viewBox="0.00 0.00 716.00 599.00" xmlns="http://www.w3.org/2000/svg" xmlns:xlink="http://www.w3.org/1999/xlink">
<g id="graph0" class="graph" transform="scale(1 1) rotate(0) translate(4 595)">
<title>LiquidTranInteraction.cpp</title>
<polygon fill="#ffffff" stroke="transparent" points="-4,4 -4,-595 712,-595 712,4 -4,4"/>
<!-- Node0 -->
<g id="node1" class="node">
<title>Node0</title>
<polygon fill="#bfbfbf" stroke="#000000" points="245.5,-571.5 245.5,-590.5 371.5,-590.5 371.5,-571.5 245.5,-571.5"/>
<text text-anchor="middle" x="308.5" y="-578.5" font-family="Helvetica,sans-Serif" font-size="10.00" fill="#000000">LiquidTranInteraction.cpp</text>
</g>
<!-- Node1 -->
<g id="node2" class="node">
<title>Node1</title>
<g id="a_node2"><a xlink:href="LiquidTransportParams_8h.html" target="_top" xlink:title="Header file defining class LiquidTransportParams. ">
<polygon fill="#ffffff" stroke="#000000" points="345,-504.5 345,-534.5 464,-534.5 464,-504.5 345,-504.5"/>
<text text-anchor="start" x="353" y="-522.5" font-family="Helvetica,sans-Serif" font-size="10.00" fill="#000000">cantera/transport/Liquid</text>
<text text-anchor="middle" x="404.5" y="-511.5" font-family="Helvetica,sans-Serif" font-size="10.00" fill="#000000">TransportParams.h</text>
</a>
</g>
</g>
<!-- Node0&#45;&gt;Node1 -->
<g id="edge1" class="edge">
<title>Node0&#45;&gt;Node1</title>
<path fill="none" stroke="#191970" d="M323.5,-571.3906C336.4924,-563.0673 355.7368,-550.7389 372.2078,-540.1872"/>
<polygon fill="#191970" stroke="#191970" points="374.4834,-542.886 381.0158,-534.5446 370.7074,-536.9918 374.4834,-542.886"/>
</g>
<!-- Node39 -->
<g id="node17" class="node">
<title>Node39</title>
<g id="a_node17"><a xlink:href="IonsFromNeutralVPSSTP_8h.html" target="_top" xlink:title="Header for intermediate ThermoPhase object for phases which consist of ions whose thermodynamics is c...">
<polygon fill="#ffffff" stroke="#000000" points="122.5,-504.5 122.5,-534.5 280.5,-534.5 280.5,-504.5 122.5,-504.5"/>
<text text-anchor="start" x="130.5" y="-522.5" font-family="Helvetica,sans-Serif" font-size="10.00" fill="#000000">cantera/thermo/IonsFromNeutral</text>
<text text-anchor="middle" x="201.5" y="-511.5" font-family="Helvetica,sans-Serif" font-size="10.00" fill="#000000">VPSSTP.h</text>
</a>
</g>
</g>
<!-- Node0&#45;&gt;Node39 -->
<g id="edge24" class="edge">
<title>Node0&#45;&gt;Node39</title>
<path fill="none" stroke="#191970" d="M291.7813,-571.3906C277.0319,-562.9132 255.0538,-550.2809 236.4756,-539.6028"/>
<polygon fill="#191970" stroke="#191970" points="238.0892,-536.4933 227.6751,-534.5446 234.601,-542.5623 238.0892,-536.4933"/>
</g>
<!-- Node45 -->
<g id="node22" class="node">
<title>Node45</title>
<g id="a_node22"><a xlink:href="MargulesVPSSTP_8h.html" target="_top" xlink:title="(see Thermodynamic Properties and class MargulesVPSSTP). ">
<polygon fill="#ffffff" stroke="#000000" points="0,-448.5 0,-467.5 173,-467.5 173,-448.5 0,-448.5"/>
<text text-anchor="middle" x="86.5" y="-455.5" font-family="Helvetica,sans-Serif" font-size="10.00" fill="#000000">cantera/thermo/MargulesVPSSTP.h</text>
</a>
</g>
</g>
<!-- Node0&#45;&gt;Node45 -->
<g id="edge33" class="edge">
<title>Node0&#45;&gt;Node45</title>
<path fill="none" stroke="#191970" d="M245.3706,-572.7691C196.0853,-565.1562 132.8298,-552.3894 113.5,-535 97.2583,-520.3888 90.7867,-495.4379 88.2081,-477.9074"/>
<polygon fill="#191970" stroke="#191970" points="91.6459,-477.1699 87.0121,-467.6422 84.6929,-477.98 91.6459,-477.1699"/>
</g>
<!-- Node46 -->
<g id="node23" class="node">
<title>Node46</title>
<g id="a_node23"><a xlink:href="stringUtils_8h.html" target="_top" xlink:title="Contains declarations for string manipulation functions within Cantera. ">
<polygon fill="#ffffff" stroke="#000000" points="524.5,-168.5 524.5,-187.5 652.5,-187.5 652.5,-168.5 524.5,-168.5"/>
<text text-anchor="middle" x="588.5" y="-175.5" font-family="Helvetica,sans-Serif" font-size="10.00" fill="#000000">cantera/base/stringUtils.h</text>
</a>
</g>
</g>
<!-- Node0&#45;&gt;Node46 -->
<g id="edge35" class="edge">
<title>Node0&#45;&gt;Node46</title>
<path fill="none" stroke="#191970" d="M371.7687,-573.6495C479.3761,-559.369 686.5,-523.3888 686.5,-458 686.5,-458 686.5,-458 686.5,-290 686.5,-246.4482 644.0118,-211.6916 614.9879,-193.0299"/>
<polygon fill="#191970" stroke="#191970" points="616.8203,-190.0479 606.4747,-187.7631 613.1374,-196.0008 616.8203,-190.0479"/>
</g>
<!-- Node48 -->
<g id="node25" class="node">
<title>Node48</title>
<g id="a_node25"><a xlink:href="ctml_8h.html" target="_top" xlink:title="CTML (&quot;Cantera Markup Language&quot;) is the variant of XML that Cantera uses to store data...">
<polygon fill="#ffffff" stroke="#000000" points="241,-392.5 241,-411.5 344,-411.5 344,-392.5 241,-392.5"/>
<text text-anchor="middle" x="292.5" y="-399.5" font-family="Helvetica,sans-Serif" font-size="10.00" fill="#000000">cantera/base/ctml.h</text>
</a>
</g>
</g>
<!-- Node0&#45;&gt;Node48 -->
<g id="edge40" class="edge">
<title>Node0&#45;&gt;Node48</title>
<path fill="none" stroke="#191970" d="M307.6398,-571.3762C305.1221,-543.2097 297.7302,-460.5126 294.2941,-422.0713"/>
<polygon fill="#191970" stroke="#191970" points="297.741,-421.3201 293.3645,-411.6714 290.7688,-421.9433 297.741,-421.3201"/>
</g>
<!-- Node2 -->
<g id="node3" class="node">
<title>Node2</title>
<g id="a_node3"><a xlink:href="TransportParams_8h.html" target="_top" xlink:title="Class that holds the data that is read in from the XML file, and which is used for processing of the ...">
<polygon fill="#ffffff" stroke="#000000" points="362.5,-392.5 362.5,-411.5 462.5,-411.5 462.5,-392.5 362.5,-392.5"/>
<text text-anchor="middle" x="412.5" y="-399.5" font-family="Helvetica,sans-Serif" font-size="10.00" fill="#000000">TransportParams.h</text>
</a>
</g>
</g>
<!-- Node1&#45;&gt;Node2 -->
<g id="edge2" class="edge">
<title>Node1&#45;&gt;Node2</title>
<path fill="none" stroke="#191970" d="M405.5459,-504.1389C406.9872,-482.9692 409.5848,-444.8174 411.1648,-421.6112"/>
<polygon fill="#191970" stroke="#191970" points="414.6617,-421.7742 411.8491,-411.5595 407.6779,-421.2986 414.6617,-421.7742"/>
</g>
<!-- Node35 -->
<g id="node13" class="node">
<title>Node35</title>
<g id="a_node13"><a xlink:href="LiquidTranInteraction_8h.html" target="_top" xlink:title="Header file defining the class LiquidTranInteraction and classes which derive from LiquidTranInteract...">
<polygon fill="#ffffff" stroke="#000000" points="432.5,-448.5 432.5,-467.5 548.5,-467.5 548.5,-448.5 432.5,-448.5"/>
<text text-anchor="middle" x="490.5" y="-455.5" font-family="Helvetica,sans-Serif" font-size="10.00" fill="#000000">LiquidTranInteraction.h</text>
</a>
</g>
</g>
<!-- Node1&#45;&gt;Node35 -->
<g id="edge15" class="edge">
<title>Node1&#45;&gt;Node35</title>
<path fill="none" stroke="#191970" d="M425.7584,-504.2977C438.7718,-494.9917 455.3903,-483.1075 468.5317,-473.7099"/>
<polygon fill="#191970" stroke="#191970" points="470.8889,-476.3271 476.9871,-467.6633 466.8171,-470.6332 470.8889,-476.3271"/>
</g>
<!-- Node3 -->
<g id="node4" class="node">
<title>Node3</title>
<g id="a_node4"><a xlink:href="DenseMatrix_8h.html" target="_top" xlink:title="Headers for the DenseMatrix object, which deals with dense rectangular matrices and description of th...">
<polygon fill="#ffffff" stroke="#000000" points="210.5,-336.5 210.5,-355.5 368.5,-355.5 368.5,-336.5 210.5,-336.5"/>
<text text-anchor="middle" x="289.5" y="-343.5" font-family="Helvetica,sans-Serif" font-size="10.00" fill="#000000">cantera/numerics/DenseMatrix.h</text>
</a>
</g>
</g>
<!-- Node2&#45;&gt;Node3 -->
<g id="edge3" class="edge">
<title>Node2&#45;&gt;Node3</title>
<path fill="none" stroke="#191970" d="M391.3555,-392.3733C371.6108,-383.3838 341.9302,-369.8706 319.6945,-359.7471"/>
<polygon fill="#191970" stroke="#191970" points="320.92,-356.4594 310.3685,-355.5011 318.0194,-362.8302 320.92,-356.4594"/>
</g>
<!-- Node25 -->
<g id="node10" class="node">
<title>Node25</title>
<g id="a_node10"><a xlink:href="TransportBase_8h.html" target="_top" xlink:title="Headers for the Transport object, which is the virtual base class for all transport property evaluato...">
<polygon fill="#ffffff" stroke="#000000" points="563,-280.5 563,-299.5 652,-299.5 652,-280.5 563,-280.5"/>
<text text-anchor="middle" x="607.5" y="-287.5" font-family="Helvetica,sans-Serif" font-size="10.00" fill="#000000">TransportBase.h</text>
</a>
</g>
</g>
<!-- Node2&#45;&gt;Node25 -->
<g id="edge10" class="edge">
<title>Node2&#45;&gt;Node25</title>
<path fill="none" stroke="#191970" d="M430.063,-392.4416C446.9145,-383.2291 473.0444,-368.836 495.5,-356 525.8097,-338.6744 560.3832,-318.1891 583.0012,-304.6884"/>
<polygon fill="#191970" stroke="#191970" points="584.8391,-307.6675 591.6267,-299.5324 581.2475,-301.6591 584.8391,-307.6675"/>
</g>
<!-- Node4 -->
<g id="node5" class="node">
<title>Node4</title>
<g id="a_node5"><a xlink:href="ct__defs_8h.html" target="_top" xlink:title="This file contains definitions of terms that are used in internal routines and are unlikely to need m...">
<polygon fill="#ffffff" stroke="#ff0000" points="300.5,-56.5 300.5,-75.5 416.5,-75.5 416.5,-56.5 300.5,-56.5"/>
<text text-anchor="middle" x="358.5" y="-63.5" font-family="Helvetica,sans-Serif" font-size="10.00" fill="#000000">cantera/base/ct_defs.h</text>
</a>
</g>
</g>
<!-- Node3&#45;&gt;Node4 -->
<g id="edge4" class="edge">
<title>Node3&#45;&gt;Node4</title>
<path fill="none" stroke="#191970" d="M297.9977,-336.2186C305.0403,-327.4179 314.5171,-313.786 318.5,-300 325.5918,-275.4532 309.905,-269.1681 305.5,-244 303.9675,-235.2442 304.0678,-232.7728 305.5,-224 313.9695,-172.1197 337.1131,-114.2958 349.8358,-85.0968"/>
<polygon fill="#191970" stroke="#191970" points="353.1493,-86.2586 354.0052,-75.6984 346.7507,-83.42 353.1493,-86.2586"/>
</g>
<!-- Node13 -->
<g id="node7" class="node">
<title>Node13</title>
<g id="a_node7"><a xlink:href="ctexceptions_8h.html" target="_top" xlink:title="Definitions for the classes that are thrown when Cantera experiences an error condition (also contain...">
<polygon fill="#ffffff" stroke="#ff0000" points="366.5,-280.5 366.5,-299.5 506.5,-299.5 506.5,-280.5 366.5,-280.5"/>
<text text-anchor="middle" x="436.5" y="-287.5" font-family="Helvetica,sans-Serif" font-size="10.00" fill="#000000">cantera/base/ctexceptions.h</text>
</a>
</g>
</g>
<!-- Node3&#45;&gt;Node13 -->
<g id="edge6" class="edge">
<title>Node3&#45;&gt;Node13</title>
<path fill="none" stroke="#191970" d="M314.7702,-336.3733C338.8966,-327.1822 375.4362,-313.2624 402.1877,-303.0713"/>
<polygon fill="#191970" stroke="#191970" points="403.4607,-306.3318 411.5596,-299.5011 400.9687,-299.7904 403.4607,-306.3318"/>
</g>
<!-- Node18 -->
<g id="node9" class="node">
<title>Node18</title>
<g id="a_node9"><a xlink:href="Array_8h.html" target="_top" xlink:title="Header file for class Cantera::Array2D. ">
<polygon fill="#ffffff" stroke="#ff0000" points="203,-280.5 203,-299.5 310,-299.5 310,-280.5 203,-280.5"/>
<text text-anchor="middle" x="256.5" y="-287.5" font-family="Helvetica,sans-Serif" font-size="10.00" fill="#000000">cantera/base/Array.h</text>
</a>
</g>
</g>
<!-- Node3&#45;&gt;Node18 -->
<g id="edge9" class="edge">
<title>Node3&#45;&gt;Node18</title>
<path fill="none" stroke="#191970" d="M283.7518,-336.2455C279.2565,-328.617 272.8752,-317.7881 267.4175,-308.5267"/>
<polygon fill="#191970" stroke="#191970" points="270.2747,-306.4811 262.1823,-299.6427 264.2439,-310.035 270.2747,-306.4811"/>
</g>
<!-- Node10 -->
<g id="node6" class="node">
<title>Node10</title>
<polygon fill="#ffffff" stroke="#bfbfbf" points="434,-.5 434,-19.5 475,-19.5 475,-.5 434,-.5"/>
<text text-anchor="middle" x="454.5" y="-7.5" font-family="Helvetica,sans-Serif" font-size="10.00" fill="#000000">string</text>
</g>
<!-- Node4&#45;&gt;Node10 -->
<g id="edge5" class="edge">
<title>Node4&#45;&gt;Node10</title>
<path fill="none" stroke="#191970" d="M375.2219,-56.2455C390.0889,-47.5731 412.0466,-34.7645 429.0858,-24.825"/>
<polygon fill="#191970" stroke="#191970" points="431.0955,-27.7047 437.9697,-19.6427 427.5683,-21.6582 431.0955,-27.7047"/>
</g>
<!-- Node14 -->
<g id="node8" class="node">
<title>Node14</title>
<g id="a_node8"><a xlink:href="fmt_8h.html" target="_top" xlink:title="Wrapper for either system&#45;installed or local headers for fmt. ">
<polygon fill="#ffffff" stroke="#ff0000" points="386.5,-112.5 386.5,-131.5 484.5,-131.5 484.5,-112.5 386.5,-112.5"/>
<text text-anchor="middle" x="435.5" y="-119.5" font-family="Helvetica,sans-Serif" font-size="10.00" fill="#000000">cantera/base/fmt.h</text>
</a>
</g>
</g>
<!-- Node13&#45;&gt;Node14 -->
<g id="edge7" class="edge">
<title>Node13&#45;&gt;Node14</title>
<path fill="none" stroke="#191970" d="M449.2248,-280.2466C459.0407,-271.8582 471.8633,-258.7955 477.5,-244 491.5014,-207.248 466.5431,-163.5238 449.4784,-139.6771"/>
<polygon fill="#191970" stroke="#191970" points="452.2099,-137.4854 443.4223,-131.5669 446.6011,-141.6736 452.2099,-137.4854"/>
</g>
<!-- Node14&#45;&gt;Node4 -->
<g id="edge8" class="edge">
<title>Node14&#45;&gt;Node4</title>
<path fill="none" stroke="#191970" d="M422.0876,-112.2455C410.4943,-103.814 393.5252,-91.4729 380.0322,-81.6598"/>
<polygon fill="#191970" stroke="#191970" points="381.9047,-78.6938 371.7587,-75.6427 377.7874,-84.355 381.9047,-78.6938"/>
</g>
<!-- Node26 -->
<g id="node11" class="node">
<title>Node26</title>
<g id="a_node11"><a xlink:href="ThermoPhase_8h.html" target="_top" xlink:title="Header file for class ThermoPhase, the base class for phases with thermodynamic properties, and the text for the Module thermoprops (see Thermodynamic Properties and class ThermoPhase). ">
<polygon fill="#ffffff" stroke="#ff0000" points="314.5,-224.5 314.5,-243.5 468.5,-243.5 468.5,-224.5 314.5,-224.5"/>
<text text-anchor="middle" x="391.5" y="-231.5" font-family="Helvetica,sans-Serif" font-size="10.00" fill="#000000">cantera/thermo/ThermoPhase.h</text>
</a>
</g>
</g>
<!-- Node25&#45;&gt;Node26 -->
<g id="edge11" class="edge">
<title>Node25&#45;&gt;Node26</title>
<path fill="none" stroke="#191970" d="M570.3683,-280.3733C533.6733,-270.8598 477.4361,-256.2797 437.8349,-246.0127"/>
<polygon fill="#191970" stroke="#191970" points="438.7056,-242.6228 428.1472,-243.5011 436.9488,-249.3988 438.7056,-242.6228"/>
</g>
<!-- Node20 -->
<g id="node12" class="node">
<title>Node20</title>
<g id="a_node12"><a xlink:href="global_8h.html" target="_top" xlink:title="This file contains definitions for utility functions and text for modules, inputfiles, logs, textlogs, (see Input File Handling, Diagnostic Output, and Writing messages to the screen). ">
<polygon fill="#ffffff" stroke="#000000" points="366.5,-168.5 366.5,-187.5 416.5,-187.5 416.5,-168.5 366.5,-168.5"/>
<text text-anchor="middle" x="391.5" y="-175.5" font-family="Helvetica,sans-Serif" font-size="10.00" fill="#000000">global.h</text>
</a>
</g>
</g>
<!-- Node26&#45;&gt;Node20 -->
<g id="edge12" class="edge">
<title>Node26&#45;&gt;Node20</title>
<path fill="none" stroke="#191970" d="M391.5,-224.2455C391.5,-216.9382 391.5,-206.6944 391.5,-197.7046"/>
<polygon fill="#191970" stroke="#191970" points="395.0001,-197.6426 391.5,-187.6427 388.0001,-197.6427 395.0001,-197.6426"/>
</g>
<!-- Node20&#45;&gt;Node4 -->
<g id="edge13" class="edge">
<title>Node20&#45;&gt;Node4</title>
<path fill="none" stroke="#191970" d="M388.5622,-168.4979C385.6999,-159.205 381.2446,-144.6468 377.5,-132 372.8982,-116.4582 367.8262,-98.8122 364.0809,-85.6789"/>
<polygon fill="#191970" stroke="#191970" points="367.3886,-84.5145 361.2863,-75.8535 360.6556,-86.4296 367.3886,-84.5145"/>
</g>
<!-- Node20&#45;&gt;Node14 -->
<g id="edge14" class="edge">
<title>Node20&#45;&gt;Node14</title>
<path fill="none" stroke="#191970" d="M399.1642,-168.2455C405.3473,-160.3761 414.2063,-149.101 421.6289,-139.6542"/>
<polygon fill="#191970" stroke="#191970" points="424.4975,-141.6683 427.9236,-131.6427 418.9932,-137.3435 424.4975,-141.6683"/>
</g>
<!-- Node35&#45;&gt;Node2 -->
<g id="edge16" class="edge">
<title>Node35&#45;&gt;Node2</title>
<path fill="none" stroke="#191970" d="M476.9134,-448.2455C465.1695,-439.814 447.9801,-427.4729 434.3118,-417.6598"/>
<polygon fill="#191970" stroke="#191970" points="436.0954,-414.6316 425.9309,-411.6427 432.0129,-420.3179 436.0954,-414.6316"/>
</g>
<!-- Node36 -->
<g id="node14" class="node">
<title>Node36</title>
<g id="a_node14"><a xlink:href="LiquidTransportData_8h.html" target="_top" xlink:title="Header file defining class LiquidTransportData. ">
<polygon fill="#ffffff" stroke="#000000" points="525,-392.5 525,-411.5 638,-411.5 638,-392.5 525,-392.5"/>
<text text-anchor="middle" x="581.5" y="-399.5" font-family="Helvetica,sans-Serif" font-size="10.00" fill="#000000">LiquidTransportData.h</text>
</a>
</g>
</g>
<!-- Node35&#45;&gt;Node36 -->
<g id="edge17" class="edge">
<title>Node35&#45;&gt;Node36</title>
<path fill="none" stroke="#191970" d="M506.351,-448.2455C520.3132,-439.6534 540.8728,-427.0014 556.9596,-417.1018"/>
<polygon fill="#191970" stroke="#191970" points="559.1484,-419.8645 565.8307,-411.6427 555.4797,-413.9029 559.1484,-419.8645"/>
</g>
<!-- Node38 -->
<g id="node16" class="node">
<title>Node38</title>
<g id="a_node16"><a xlink:href="xml_8h.html" target="_top" xlink:title="Classes providing support for XML data files. ">
<polygon fill="#ffffff" stroke="#000000" points="386.5,-336.5 386.5,-355.5 486.5,-355.5 486.5,-336.5 386.5,-336.5"/>
<text text-anchor="middle" x="436.5" y="-343.5" font-family="Helvetica,sans-Serif" font-size="10.00" fill="#000000">cantera/base/xml.h</text>
</a>
</g>
</g>
<!-- Node35&#45;&gt;Node38 -->
<g id="edge21" class="edge">
<title>Node35&#45;&gt;Node38</title>
<path fill="none" stroke="#191970" d="M488.8522,-448.1867C486.3662,-434.9166 480.9172,-410.7541 471.5,-392 466.3531,-381.75 458.8252,-371.4832 452.0685,-363.2578"/>
<polygon fill="#191970" stroke="#191970" points="454.6,-360.8328 445.4385,-355.5112 449.2818,-365.3844 454.6,-360.8328"/>
</g>
<!-- Node36&#45;&gt;Node25 -->
<g id="edge18" class="edge">
<title>Node36&#45;&gt;Node25</title>
<path fill="none" stroke="#191970" d="M596.4965,-392.3308C607.6598,-384.1671 622.0381,-371.3661 628.5,-356 635.1014,-340.302 627.9716,-321.7734 620.2829,-308.3504"/>
<polygon fill="#191970" stroke="#191970" points="623.0611,-306.1935 614.774,-299.5923 617.1358,-309.9206 623.0611,-306.1935"/>
</g>
<!-- Node37 -->
<g id="node15" class="node">
<title>Node37</title>
<g id="a_node15"><a xlink:href="LTPspecies_8h.html" target="_top" xlink:title="Header file defining class LTPspecies and its child classes. ">
<polygon fill="#ffffff" stroke="#000000" points="543,-336.5 543,-355.5 620,-355.5 620,-336.5 543,-336.5"/>
<text text-anchor="middle" x="581.5" y="-343.5" font-family="Helvetica,sans-Serif" font-size="10.00" fill="#000000">LTPspecies.h</text>
</a>
</g>
</g>
<!-- Node36&#45;&gt;Node37 -->
<g id="edge19" class="edge">
<title>Node36&#45;&gt;Node37</title>
<path fill="none" stroke="#191970" d="M581.5,-392.2455C581.5,-384.9382 581.5,-374.6944 581.5,-365.7046"/>
<polygon fill="#191970" stroke="#191970" points="585.0001,-365.6426 581.5,-355.6427 578.0001,-365.6427 585.0001,-365.6426"/>
</g>
<!-- Node37&#45;&gt;Node25 -->
<g id="edge20" class="edge">
<title>Node37&#45;&gt;Node25</title>
<path fill="none" stroke="#191970" d="M586.0289,-336.2455C589.5334,-328.6973 594.4927,-318.0158 598.7623,-308.8197"/>
<polygon fill="#191970" stroke="#191970" points="601.9864,-310.1867 603.023,-299.6427 595.6373,-307.2389 601.9864,-310.1867"/>
</g>
<!-- Node38&#45;&gt;Node13 -->
<g id="edge22" class="edge">
<title>Node38&#45;&gt;Node13</title>
<path fill="none" stroke="#191970" d="M436.5,-336.2455C436.5,-328.9382 436.5,-318.6944 436.5,-309.7046"/>
<polygon fill="#191970" stroke="#191970" points="440.0001,-309.6426 436.5,-299.6427 433.0001,-309.6427 440.0001,-309.6426"/>
</g>
<!-- Node38&#45;&gt;Node20 -->
<g id="edge23" class="edge">
<title>Node38&#45;&gt;Node20</title>
<path fill="none" stroke="#191970" d="M468.0032,-336.3744C485.3159,-329.2912 505.296,-317.7494 515.5,-300 519.9302,-292.2938 518.1107,-288.4969 515.5,-280 506.6659,-251.2485 499.8556,-244.1226 477.5,-224 462.4562,-210.4588 442.7102,-199.5338 425.9335,-191.7342"/>
<polygon fill="#191970" stroke="#191970" points="427.0153,-188.3844 416.4568,-187.507 424.1636,-194.7772 427.0153,-188.3844"/>
</g>
<!-- Node40 -->
<g id="node18" class="node">
<title>Node40</title>
<g id="a_node18"><a xlink:href="GibbsExcessVPSSTP_8h.html" target="_top" xlink:title="Header for intermediate ThermoPhase object for phases which employ Gibbs excess free energy based for...">
<polygon fill="#ffffff" stroke="#000000" points="25,-336.5 25,-355.5 148,-355.5 148,-336.5 25,-336.5"/>
<text text-anchor="middle" x="86.5" y="-343.5" font-family="Helvetica,sans-Serif" font-size="10.00" fill="#000000">GibbsExcessVPSSTP.h</text>
</a>
</g>
</g>
<!-- Node39&#45;&gt;Node40 -->
<g id="edge25" class="edge">
<title>Node39&#45;&gt;Node40</title>
<path fill="none" stroke="#191970" d="M199.4293,-504.4647C196.8812,-489.419 191.5916,-465.9858 181.5,-448 161.9517,-413.1598 128.1094,-380.8372 106.5378,-362.2735"/>
<polygon fill="#191970" stroke="#191970" points="108.5608,-359.4013 98.6582,-355.6345 104.0505,-364.7545 108.5608,-359.4013"/>
</g>
<!-- Node40&#45;&gt;Node18 -->
<g id="edge32" class="edge">
<title>Node40&#45;&gt;Node18</title>
<path fill="none" stroke="#191970" d="M115.724,-336.3733C143.9925,-327.0613 186.9965,-312.8953 218.0344,-302.671"/>
<polygon fill="#191970" stroke="#191970" points="219.2544,-305.9542 227.6573,-299.5011 217.0643,-299.3056 219.2544,-305.9542"/>
</g>
<!-- Node41 -->
<g id="node19" class="node">
<title>Node41</title>
<g id="a_node19"><a xlink:href="VPStandardStateTP_8h.html" target="_top" xlink:title="Header file for a derived class of ThermoPhase that handles variable pressure standard state methods ...">
<polygon fill="#ffffff" stroke="#000000" points="32,-280.5 32,-299.5 145,-299.5 145,-280.5 32,-280.5"/>
<text text-anchor="middle" x="88.5" y="-287.5" font-family="Helvetica,sans-Serif" font-size="10.00" fill="#000000">VPStandardStateTP.h</text>
</a>
</g>
</g>
<!-- Node40&#45;&gt;Node41 -->
<g id="edge26" class="edge">
<title>Node40&#45;&gt;Node41</title>
<path fill="none" stroke="#191970" d="M86.8484,-336.2455C87.1093,-328.9382 87.4752,-318.6944 87.7963,-309.7046"/>
<polygon fill="#191970" stroke="#191970" points="91.2964,-309.7613 88.1556,-299.6427 84.3008,-309.5113 91.2964,-309.7613"/>
</g>
<!-- Node41&#45;&gt;Node26 -->
<g id="edge27" class="edge">
<title>Node41&#45;&gt;Node26</title>
<path fill="none" stroke="#191970" d="M140.2433,-280.4369C192.753,-270.7321 274.0444,-255.708 329.8577,-245.3926"/>
<polygon fill="#191970" stroke="#191970" points="330.7728,-248.7829 339.9701,-243.5237 329.5006,-241.8994 330.7728,-248.7829"/>
</g>
<!-- Node42 -->
<g id="node20" class="node">
<title>Node42</title>
<g id="a_node20"><a xlink:href="VPSSMgr_8h.html" target="_top" xlink:title="Declaration file for a virtual base class that manages the calculation of standard state properties f...">
<polygon fill="#ffffff" stroke="#ff0000" points="78.5,-224.5 78.5,-243.5 146.5,-243.5 146.5,-224.5 78.5,-224.5"/>
<text text-anchor="middle" x="112.5" y="-231.5" font-family="Helvetica,sans-Serif" font-size="10.00" fill="#000000">VPSSMgr.h</text>
</a>
</g>
</g>
<!-- Node41&#45;&gt;Node42 -->
<g id="edge28" class="edge">
<title>Node41&#45;&gt;Node42</title>
<path fill="none" stroke="#191970" d="M92.6805,-280.2455C95.881,-272.7776 100.396,-262.2427 104.3084,-253.1137"/>
<polygon fill="#191970" stroke="#191970" points="107.6452,-254.2129 108.3674,-243.6427 101.2112,-251.4554 107.6452,-254.2129"/>
</g>
<!-- Node44 -->
<g id="node21" class="node">
<title>Node44</title>
<g id="a_node21"><a xlink:href="PDSS_8h.html" target="_top" xlink:title="Declarations for the virtual base class PDSS (pressure dependent standard state) which handles calcul...">
<polygon fill="#ffffff" stroke="#ff0000" points="59,-168.5 59,-187.5 112,-187.5 112,-168.5 59,-168.5"/>
<text text-anchor="middle" x="85.5" y="-175.5" font-family="Helvetica,sans-Serif" font-size="10.00" fill="#000000">PDSS.h</text>
</a>
</g>
</g>
<!-- Node41&#45;&gt;Node44 -->
<g id="edge30" class="edge">
<title>Node41&#45;&gt;Node44</title>
<path fill="none" stroke="#191970" d="M83.2682,-280.4788C78.6047,-271.4109 72.1231,-257.2215 69.5,-244 66.3499,-228.1219 71.1808,-210.2912 76.3382,-197.1695"/>
<polygon fill="#191970" stroke="#191970" points="79.6406,-198.3507 80.398,-187.783 73.2158,-195.5718 79.6406,-198.3507"/>
</g>
<!-- Node42&#45;&gt;Node20 -->
<g id="edge29" class="edge">
<title>Node42&#45;&gt;Node20</title>
<path fill="none" stroke="#191970" d="M146.7109,-227.1333C200.0493,-216.4274 302.4857,-195.8667 356.3775,-185.0497"/>
<polygon fill="#191970" stroke="#191970" points="357.364,-188.4216 366.4797,-183.022 355.9864,-181.5584 357.364,-188.4216"/>
</g>
<!-- Node44&#45;&gt;Node4 -->
<g id="edge31" class="edge">
<title>Node44&#45;&gt;Node4</title>
<path fill="none" stroke="#191970" d="M93.6403,-168.2626C106.3629,-153.7043 132.427,-126.4359 160.5,-112 200.9194,-91.2153 250.7824,-79.7012 290.3573,-73.3904"/>
<polygon fill="#191970" stroke="#191970" points="291.0844,-76.8202 300.4453,-71.8579 290.0331,-69.8996 291.0844,-76.8202"/>
</g>
<!-- Node45&#45;&gt;Node40 -->
<g id="edge34" class="edge">
<title>Node45&#45;&gt;Node40</title>
<path fill="none" stroke="#191970" d="M86.5,-448.4509C86.5,-430.184 86.5,-389.9553 86.5,-365.6976"/>
<polygon fill="#191970" stroke="#191970" points="90.0001,-365.5249 86.5,-355.5249 83.0001,-365.5249 90.0001,-365.5249"/>
</g>
<!-- Node46&#45;&gt;Node4 -->
<g id="edge36" class="edge">
<title>Node46&#45;&gt;Node4</title>
<path fill="none" stroke="#191970" d="M576.884,-168.3129C559.624,-154.3076 525.7652,-128.3002 493.5,-112 465.3783,-97.7931 431.8597,-86.3446 405.2568,-78.4223"/>
<polygon fill="#191970" stroke="#191970" points="406.005,-74.9949 395.4253,-75.5603 404.0484,-81.7159 406.005,-74.9949"/>
</g>
<!-- Node46&#45;&gt;Node10 -->
<g id="edge39" class="edge">
<title>Node46&#45;&gt;Node10</title>
<path fill="none" stroke="#191970" d="M580.9116,-168.4862C559.2709,-141.3545 496.997,-63.2798 468.7435,-27.8576"/>
<polygon fill="#191970" stroke="#191970" points="471.3108,-25.4632 462.3389,-19.8279 465.8383,-29.8281 471.3108,-25.4632"/>
</g>
<!-- Node46&#45;&gt;Node14 -->
<g id="edge37" class="edge">
<title>Node46&#45;&gt;Node14</title>
<path fill="none" stroke="#191970" d="M562.1984,-168.3733C537.0872,-159.1822 499.0562,-145.2624 471.2128,-135.0713"/>
<polygon fill="#191970" stroke="#191970" points="472.0522,-131.6516 461.4584,-131.5011 469.6462,-138.2251 472.0522,-131.6516"/>
</g>
<!-- Node47 -->
<g id="node24" class="node">
<title>Node47</title>
<polygon fill="#ffffff" stroke="#bfbfbf" points="579,-112.5 579,-131.5 708,-131.5 708,-112.5 579,-112.5"/>
<text text-anchor="middle" x="643.5" y="-119.5" font-family="Helvetica,sans-Serif" font-size="10.00" fill="#000000">boost/algorithm/string.hpp</text>
</g>
<!-- Node46&#45;&gt;Node47 -->
<g id="edge38" class="edge">
<title>Node46&#45;&gt;Node47</title>
<path fill="none" stroke="#191970" d="M598.0803,-168.2455C606.0458,-160.1352 617.5641,-148.4075 627.0079,-138.7919"/>
<polygon fill="#191970" stroke="#191970" points="629.5195,-141.2297 634.0295,-131.6427 624.5253,-136.3247 629.5195,-141.2297"/>
</g>
<!-- Node48&#45;&gt;Node4 -->
<g id="edge41" class="edge">
<title>Node48&#45;&gt;Node4</title>
<path fill="none" stroke="#191970" d="M257.4233,-392.4224C238.1477,-385.3965 215.3977,-373.8965 201.5,-356 167.4387,-312.138 174.5,-289.5342 174.5,-234 174.5,-234 174.5,-234 174.5,-178 174.5,-120.7907 240.2051,-91.9604 293.0881,-78.0211"/>
<polygon fill="#191970" stroke="#191970" points="293.9457,-81.4145 302.7946,-75.5881 292.2437,-74.6246 293.9457,-81.4145"/>
</g>
<!-- Node48&#45;&gt;Node38 -->
<g id="edge42" class="edge">
<title>Node48&#45;&gt;Node38</title>
<path fill="none" stroke="#191970" d="M317.2545,-392.3733C340.7849,-383.2226 376.3687,-369.3844 402.5426,-359.2057"/>
<polygon fill="#191970" stroke="#191970" points="404.0171,-362.3877 412.0685,-355.5011 401.4799,-355.8636 404.0171,-362.3877"/>
</g>
</g>
</svg>
