<?xml version="1.0" encoding="UTF-8" standalone="no"?>
<!DOCTYPE svg PUBLIC "-//W3C//DTD SVG 1.1//EN"
 "http://www.w3.org/Graphics/SVG/1.1/DTD/svg11.dtd">
<!-- Generated by graphviz version 2.40.1 (20161225.0304)
 -->
<!-- Title: MultiPhase.h Pages: 1 -->
<svg width="897pt" height="420pt"
 viewBox="0.00 0.00 897.00 420.00" xmlns="http://www.w3.org/2000/svg" xmlns:xlink="http://www.w3.org/1999/xlink">
<g id="graph0" class="graph" transform="scale(1 1) rotate(0) translate(4 416)">
<title>MultiPhase.h</title>
<polygon fill="#ffffff" stroke="transparent" points="-4,4 -4,-416 893,-416 893,4 -4,4"/>
<!-- Node0 -->
<g id="node1" class="node">
<title>Node0</title>
<polygon fill="#bfbfbf" stroke="#000000" points="246,-392.5 246,-411.5 320,-411.5 320,-392.5 246,-392.5"/>
<text text-anchor="middle" x="283" y="-399.5" font-family="Helvetica,sans-Serif" font-size="10.00" fill="#000000">MultiPhase.h</text>
</g>
<!-- Node1 -->
<g id="node2" class="node">
<title>Node1</title>
<g id="a_node2"><a xlink:href="DenseMatrix_8h.html" target="_top" xlink:title="Headers for the DenseMatrix object, which deals with dense rectangular matrices and description of th...">
<polygon fill="#ffffff" stroke="#000000" points="117,-336.5 117,-355.5 275,-355.5 275,-336.5 117,-336.5"/>
<text text-anchor="middle" x="196" y="-343.5" font-family="Helvetica,sans-Serif" font-size="10.00" fill="#000000">cantera/numerics/DenseMatrix.h</text>
</a>
</g>
</g>
<!-- Node0&#45;&gt;Node1 -->
<g id="edge1" class="edge">
<title>Node0&#45;&gt;Node1</title>
<path fill="none" stroke="#191970" d="M267.8458,-392.2455C254.4973,-383.6534 234.8414,-371.0014 219.4617,-361.1018"/>
<polygon fill="#191970" stroke="#191970" points="221.2836,-358.1121 210.9806,-355.6427 217.4949,-363.9982 221.2836,-358.1121"/>
</g>
<!-- Node23 -->
<g id="node24" class="node">
<title>Node23</title>
<g id="a_node24"><a xlink:href="ThermoPhase_8h.html" target="_top" xlink:title="Header file for class ThermoPhase, the base class for phases with thermodynamic properties, and the text for the Module thermoprops (see Thermodynamic Properties and class ThermoPhase). ">
<polygon fill="#ffffff" stroke="#000000" points="305,-336.5 305,-355.5 459,-355.5 459,-336.5 305,-336.5"/>
<text text-anchor="middle" x="382" y="-343.5" font-family="Helvetica,sans-Serif" font-size="10.00" fill="#000000">cantera/thermo/ThermoPhase.h</text>
</a>
</g>
</g>
<!-- Node0&#45;&gt;Node23 -->
<g id="edge27" class="edge">
<title>Node0&#45;&gt;Node23</title>
<path fill="none" stroke="#191970" d="M300.2445,-392.2455C315.5761,-383.5731 338.2199,-370.7645 355.7916,-360.825"/>
<polygon fill="#191970" stroke="#191970" points="357.9724,-363.6126 364.9531,-355.6427 354.5259,-357.5198 357.9724,-363.6126"/>
</g>
<!-- Node2 -->
<g id="node3" class="node">
<title>Node2</title>
<g id="a_node3"><a xlink:href="ct__defs_8h.html" target="_top" xlink:title="This file contains definitions of terms that are used in internal routines and are unlikely to need m...">
<polygon fill="#ffffff" stroke="#000000" points="213,-56.5 213,-75.5 329,-75.5 329,-56.5 213,-56.5"/>
<text text-anchor="middle" x="271" y="-63.5" font-family="Helvetica,sans-Serif" font-size="10.00" fill="#000000">cantera/base/ct_defs.h</text>
</a>
</g>
</g>
<!-- Node1&#45;&gt;Node2 -->
<g id="edge2" class="edge">
<title>Node1&#45;&gt;Node2</title>
<path fill="none" stroke="#191970" d="M131.5508,-336.4911C74.4243,-323.9834 0,-295.8246 0,-234 0,-234 0,-234 0,-178 0,-132.231 133.6949,-95.5026 213.2752,-77.6945"/>
<polygon fill="#191970" stroke="#191970" points="214.1614,-81.0833 223.1745,-75.5142 212.6557,-74.2471 214.1614,-81.0833"/>
</g>
<!-- Node11 -->
<g id="node12" class="node">
<title>Node11</title>
<g id="a_node12"><a xlink:href="ctexceptions_8h.html" target="_top" xlink:title="Definitions for the classes that are thrown when Cantera experiences an error condition (also contain...">
<polygon fill="#ffffff" stroke="#000000" points="457,-168.5 457,-187.5 597,-187.5 597,-168.5 457,-168.5"/>
<text text-anchor="middle" x="527" y="-175.5" font-family="Helvetica,sans-Serif" font-size="10.00" fill="#000000">cantera/base/ctexceptions.h</text>
</a>
</g>
</g>
<!-- Node1&#45;&gt;Node11 -->
<g id="edge11" class="edge">
<title>Node1&#45;&gt;Node11</title>
<path fill="none" stroke="#191970" d="M265.2154,-336.4591C335.3774,-326.3206 435.7367,-310.3544 451,-300 488.1907,-274.7704 510.6671,-224.6606 520.7263,-197.1627"/>
<polygon fill="#191970" stroke="#191970" points="524.1013,-198.1135 524.0812,-187.5187 517.4899,-195.8136 524.1013,-198.1135"/>
</g>
<!-- Node16 -->
<g id="node17" class="node">
<title>Node16</title>
<g id="a_node17"><a xlink:href="Array_8h.html" target="_top" xlink:title="Header file for class Cantera::Array2D. ">
<polygon fill="#ffffff" stroke="#000000" points="119.5,-280.5 119.5,-299.5 226.5,-299.5 226.5,-280.5 119.5,-280.5"/>
<text text-anchor="middle" x="173" y="-287.5" font-family="Helvetica,sans-Serif" font-size="10.00" fill="#000000">cantera/base/Array.h</text>
</a>
</g>
</g>
<!-- Node1&#45;&gt;Node16 -->
<g id="edge17" class="edge">
<title>Node1&#45;&gt;Node16</title>
<path fill="none" stroke="#191970" d="M191.9937,-336.2455C188.9265,-328.7776 184.5997,-318.2427 180.8503,-309.1137"/>
<polygon fill="#191970" stroke="#191970" points="183.9972,-307.5631 176.9604,-299.6427 177.5221,-310.2226 183.9972,-307.5631"/>
</g>
<!-- Node3 -->
<g id="node4" class="node">
<title>Node3</title>
<g id="a_node4"><a xlink:href="config_8h_source.html" target="_top" xlink:title="config.h">
<polygon fill="#ffffff" stroke="#000000" points="24.5,-.5 24.5,-19.5 75.5,-19.5 75.5,-.5 24.5,-.5"/>
<text text-anchor="middle" x="50" y="-7.5" font-family="Helvetica,sans-Serif" font-size="10.00" fill="#000000">config.h</text>
</a>
</g>
</g>
<!-- Node2&#45;&gt;Node3 -->
<g id="edge3" class="edge">
<title>Node2&#45;&gt;Node3</title>
<path fill="none" stroke="#191970" d="M230.6193,-56.455C194.9355,-47.9214 141.2542,-34.8447 85.3133,-20.0152"/>
<polygon fill="#191970" stroke="#191970" points="86.1489,-16.6158 75.5849,-17.4244 84.3474,-23.38 86.1489,-16.6158"/>
</g>
<!-- Node4 -->
<g id="node5" class="node">
<title>Node4</title>
<polygon fill="#ffffff" stroke="#bfbfbf" points="94,-.5 94,-19.5 138,-19.5 138,-.5 94,-.5"/>
<text text-anchor="middle" x="116" y="-7.5" font-family="Helvetica,sans-Serif" font-size="10.00" fill="#000000">cmath</text>
</g>
<!-- Node2&#45;&gt;Node4 -->
<g id="edge4" class="edge">
<title>Node2&#45;&gt;Node4</title>
<path fill="none" stroke="#191970" d="M244.3546,-56.3733C217.5647,-46.6944 176.2597,-31.7712 147.7783,-21.4812"/>
<polygon fill="#191970" stroke="#191970" points="148.8781,-18.1572 138.2838,-18.0509 146.4995,-24.7407 148.8781,-18.1572"/>
</g>
<!-- Node5 -->
<g id="node6" class="node">
<title>Node5</title>
<polygon fill="#ffffff" stroke="#bfbfbf" points="156.5,-.5 156.5,-19.5 201.5,-19.5 201.5,-.5 156.5,-.5"/>
<text text-anchor="middle" x="179" y="-7.5" font-family="Helvetica,sans-Serif" font-size="10.00" fill="#000000">cstdlib</text>
</g>
<!-- Node2&#45;&gt;Node5 -->
<g id="edge5" class="edge">
<title>Node2&#45;&gt;Node5</title>
<path fill="none" stroke="#191970" d="M254.9748,-56.2455C240.8592,-47.6534 220.0737,-35.0014 203.8101,-25.1018"/>
<polygon fill="#191970" stroke="#191970" points="205.2034,-21.8525 194.8415,-19.6427 201.5637,-27.8319 205.2034,-21.8525"/>
</g>
<!-- Node6 -->
<g id="node7" class="node">
<title>Node6</title>
<polygon fill="#ffffff" stroke="#bfbfbf" points="220,-.5 220,-19.5 264,-19.5 264,-.5 220,-.5"/>
<text text-anchor="middle" x="242" y="-7.5" font-family="Helvetica,sans-Serif" font-size="10.00" fill="#000000">vector</text>
</g>
<!-- Node2&#45;&gt;Node6 -->
<g id="edge6" class="edge">
<title>Node2&#45;&gt;Node6</title>
<path fill="none" stroke="#191970" d="M265.9486,-56.2455C261.9981,-48.617 256.3903,-37.7881 251.5942,-28.5267"/>
<polygon fill="#191970" stroke="#191970" points="254.7001,-26.9131 246.9935,-19.6427 248.4841,-30.1321 254.7001,-26.9131"/>
</g>
<!-- Node7 -->
<g id="node8" class="node">
<title>Node7</title>
<polygon fill="#ffffff" stroke="#bfbfbf" points="282.5,-.5 282.5,-19.5 317.5,-19.5 317.5,-.5 282.5,-.5"/>
<text text-anchor="middle" x="300" y="-7.5" font-family="Helvetica,sans-Serif" font-size="10.00" fill="#000000">map</text>
</g>
<!-- Node2&#45;&gt;Node7 -->
<g id="edge7" class="edge">
<title>Node2&#45;&gt;Node7</title>
<path fill="none" stroke="#191970" d="M276.0514,-56.2455C280.0019,-48.617 285.6097,-37.7881 290.4058,-28.5267"/>
<polygon fill="#191970" stroke="#191970" points="293.5159,-30.1321 295.0065,-19.6427 287.2999,-26.9131 293.5159,-30.1321"/>
</g>
<!-- Node8 -->
<g id="node9" class="node">
<title>Node8</title>
<polygon fill="#ffffff" stroke="#bfbfbf" points="335.5,-.5 335.5,-19.5 376.5,-19.5 376.5,-.5 335.5,-.5"/>
<text text-anchor="middle" x="356" y="-7.5" font-family="Helvetica,sans-Serif" font-size="10.00" fill="#000000">string</text>
</g>
<!-- Node2&#45;&gt;Node8 -->
<g id="edge8" class="edge">
<title>Node2&#45;&gt;Node8</title>
<path fill="none" stroke="#191970" d="M285.8059,-56.2455C298.7256,-47.7337 317.6931,-35.2375 332.6552,-25.3801"/>
<polygon fill="#191970" stroke="#191970" points="334.9387,-28.067 341.3638,-19.6427 331.0876,-22.2216 334.9387,-28.067"/>
</g>
<!-- Node9 -->
<g id="node10" class="node">
<title>Node9</title>
<polygon fill="#ffffff" stroke="#bfbfbf" points="395,-.5 395,-19.5 451,-19.5 451,-.5 395,-.5"/>
<text text-anchor="middle" x="423" y="-7.5" font-family="Helvetica,sans-Serif" font-size="10.00" fill="#000000">algorithm</text>
</g>
<!-- Node2&#45;&gt;Node9 -->
<g id="edge9" class="edge">
<title>Node2&#45;&gt;Node9</title>
<path fill="none" stroke="#191970" d="M297.1297,-56.3733C322.0768,-47.1822 359.8592,-33.2624 387.5206,-23.0713"/>
<polygon fill="#191970" stroke="#191970" points="389.0378,-26.2424 397.2112,-19.5011 386.6178,-19.674 389.0378,-26.2424"/>
</g>
<!-- Node10 -->
<g id="node11" class="node">
<title>Node10</title>
<polygon fill="#ffffff" stroke="#bfbfbf" points="469,-.5 469,-19.5 521,-19.5 521,-.5 469,-.5"/>
<text text-anchor="middle" x="495" y="-7.5" font-family="Helvetica,sans-Serif" font-size="10.00" fill="#000000">memory</text>
</g>
<!-- Node2&#45;&gt;Node10 -->
<g id="edge10" class="edge">
<title>Node2&#45;&gt;Node10</title>
<path fill="none" stroke="#191970" d="M312.4125,-56.4183C348.6854,-47.9143 403.0453,-34.9025 458.9439,-20.2129"/>
<polygon fill="#191970" stroke="#191970" points="459.8829,-23.5849 468.6575,-17.6471 458.0952,-16.817 459.8829,-23.5849"/>
</g>
<!-- Node12 -->
<g id="node13" class="node">
<title>Node12</title>
<g id="a_node13"><a xlink:href="fmt_8h.html" target="_top" xlink:title="Wrapper for either system&#45;installed or local headers for fmt. ">
<polygon fill="#ffffff" stroke="#000000" points="319,-112.5 319,-131.5 417,-131.5 417,-112.5 319,-112.5"/>
<text text-anchor="middle" x="368" y="-119.5" font-family="Helvetica,sans-Serif" font-size="10.00" fill="#000000">cantera/base/fmt.h</text>
</a>
</g>
</g>
<!-- Node11&#45;&gt;Node12 -->
<g id="edge12" class="edge">
<title>Node11&#45;&gt;Node12</title>
<path fill="none" stroke="#191970" d="M499.6669,-168.3733C473.4566,-159.1419 433.7016,-145.1402 404.7332,-134.9375"/>
<polygon fill="#191970" stroke="#191970" points="405.5712,-131.5219 394.9764,-131.5011 403.2458,-138.1244 405.5712,-131.5219"/>
</g>
<!-- Node15 -->
<g id="node16" class="node">
<title>Node15</title>
<polygon fill="#ffffff" stroke="#bfbfbf" points="435.5,-112.5 435.5,-131.5 494.5,-131.5 494.5,-112.5 435.5,-112.5"/>
<text text-anchor="middle" x="465" y="-119.5" font-family="Helvetica,sans-Serif" font-size="10.00" fill="#000000">exception</text>
</g>
<!-- Node11&#45;&gt;Node15 -->
<g id="edge16" class="edge">
<title>Node11&#45;&gt;Node15</title>
<path fill="none" stroke="#191970" d="M516.2004,-168.2455C507.1322,-160.0549 493.9794,-148.1749 483.2755,-138.5069"/>
<polygon fill="#191970" stroke="#191970" points="485.4429,-135.7482 475.6758,-131.6427 480.7509,-140.9429 485.4429,-135.7482"/>
</g>
<!-- Node12&#45;&gt;Node2 -->
<g id="edge13" class="edge">
<title>Node12&#45;&gt;Node2</title>
<path fill="none" stroke="#191970" d="M351.1039,-112.2455C336.082,-103.5731 313.8957,-90.7645 296.679,-80.825"/>
<polygon fill="#191970" stroke="#191970" points="298.1128,-77.6114 287.7025,-75.6427 294.6129,-83.6737 298.1128,-77.6114"/>
</g>
<!-- Node13 -->
<g id="node14" class="node">
<title>Node13</title>
<polygon fill="#ffffff" stroke="#bfbfbf" points="495,-56.5 495,-75.5 617,-75.5 617,-56.5 495,-56.5"/>
<text text-anchor="middle" x="556" y="-63.5" font-family="Helvetica,sans-Serif" font-size="10.00" fill="#000000">cantera/ext/fmt/format.h</text>
</g>
<!-- Node12&#45;&gt;Node13 -->
<g id="edge14" class="edge">
<title>Node12&#45;&gt;Node13</title>
<path fill="none" stroke="#191970" d="M400.3184,-112.3733C431.8506,-102.9807 479.9621,-88.6496 514.3501,-78.4064"/>
<polygon fill="#191970" stroke="#191970" points="515.5187,-81.7103 524.1034,-75.5011 513.5203,-75.0016 515.5187,-81.7103"/>
</g>
<!-- Node14 -->
<g id="node15" class="node">
<title>Node14</title>
<polygon fill="#ffffff" stroke="#bfbfbf" points="347.5,-56.5 347.5,-75.5 476.5,-75.5 476.5,-56.5 347.5,-56.5"/>
<text text-anchor="middle" x="412" y="-63.5" font-family="Helvetica,sans-Serif" font-size="10.00" fill="#000000">cantera/ext/fmt/ostream.h</text>
</g>
<!-- Node12&#45;&gt;Node14 -->
<g id="edge15" class="edge">
<title>Node12&#45;&gt;Node14</title>
<path fill="none" stroke="#191970" d="M375.6642,-112.2455C381.8473,-104.3761 390.7063,-93.101 398.1289,-83.6542"/>
<polygon fill="#191970" stroke="#191970" points="400.9975,-85.6683 404.4236,-75.6427 395.4932,-81.3435 400.9975,-85.6683"/>
</g>
<!-- Node17 -->
<g id="node18" class="node">
<title>Node17</title>
<g id="a_node18"><a xlink:href="utilities_8h.html" target="_top" xlink:title="Various templated functions that carry out common vector operations (see Templated Utility Functions)...">
<polygon fill="#ffffff" stroke="#000000" points="73,-224.5 73,-243.5 129,-243.5 129,-224.5 73,-224.5"/>
<text text-anchor="middle" x="101" y="-231.5" font-family="Helvetica,sans-Serif" font-size="10.00" fill="#000000">utilities.h</text>
</a>
</g>
</g>
<!-- Node16&#45;&gt;Node17 -->
<g id="edge18" class="edge">
<title>Node16&#45;&gt;Node17</title>
<path fill="none" stroke="#191970" d="M160.4586,-280.2455C149.7213,-271.8943 134.0527,-259.7076 121.4953,-249.9408"/>
<polygon fill="#191970" stroke="#191970" points="123.4401,-247.0194 113.3977,-243.6427 119.1425,-252.5449 123.4401,-247.0194"/>
</g>
<!-- Node21 -->
<g id="node22" class="node">
<title>Node21</title>
<polygon fill="#ffffff" stroke="#bfbfbf" points="211,-224.5 211,-243.5 265,-243.5 265,-224.5 211,-224.5"/>
<text text-anchor="middle" x="238" y="-231.5" font-family="Helvetica,sans-Serif" font-size="10.00" fill="#000000">iostream</text>
</g>
<!-- Node16&#45;&gt;Node21 -->
<g id="edge25" class="edge">
<title>Node16&#45;&gt;Node21</title>
<path fill="none" stroke="#191970" d="M184.3221,-280.2455C193.9223,-271.9746 207.8892,-259.9416 219.1695,-250.2232"/>
<polygon fill="#191970" stroke="#191970" points="221.516,-252.8214 226.8076,-243.6427 216.947,-247.5182 221.516,-252.8214"/>
</g>
<!-- Node22 -->
<g id="node23" class="node">
<title>Node22</title>
<polygon fill="#ffffff" stroke="#bfbfbf" points="147,-224.5 147,-243.5 193,-243.5 193,-224.5 147,-224.5"/>
<text text-anchor="middle" x="170" y="-231.5" font-family="Helvetica,sans-Serif" font-size="10.00" fill="#000000">cstring</text>
</g>
<!-- Node16&#45;&gt;Node22 -->
<g id="edge26" class="edge">
<title>Node16&#45;&gt;Node22</title>
<path fill="none" stroke="#191970" d="M172.4774,-280.2455C172.086,-272.9382 171.5372,-262.6944 171.0556,-253.7046"/>
<polygon fill="#191970" stroke="#191970" points="174.5466,-253.4411 170.5166,-243.6427 167.5566,-253.8156 174.5466,-253.4411"/>
</g>
<!-- Node17&#45;&gt;Node2 -->
<g id="edge19" class="edge">
<title>Node17&#45;&gt;Node2</title>
<path fill="none" stroke="#191970" d="M116.4962,-224.3315C129.9505,-215.6032 149.6314,-202.014 165,-188 201.9306,-154.3244 238.7873,-108.4469 257.7933,-83.6513"/>
<polygon fill="#191970" stroke="#191970" points="260.698,-85.6134 263.955,-75.5316 255.1218,-81.3819 260.698,-85.6134"/>
</g>
<!-- Node18 -->
<g id="node19" class="node">
<title>Node18</title>
<g id="a_node19"><a xlink:href="global_8h.html" target="_top" xlink:title="This file contains definitions for utility functions and text for modules, inputfiles, logs, textlogs, (see Input File Handling, Diagnostic Output, and Writing messages to the screen). ">
<polygon fill="#ffffff" stroke="#000000" points="213,-168.5 213,-187.5 263,-187.5 263,-168.5 213,-168.5"/>
<text text-anchor="middle" x="238" y="-175.5" font-family="Helvetica,sans-Serif" font-size="10.00" fill="#000000">global.h</text>
</a>
</g>
</g>
<!-- Node17&#45;&gt;Node18 -->
<g id="edge20" class="edge">
<title>Node17&#45;&gt;Node18</title>
<path fill="none" stroke="#191970" d="M124.5511,-224.3733C146.8391,-215.2629 180.4937,-201.5062 205.3637,-191.3404"/>
<polygon fill="#191970" stroke="#191970" points="206.8239,-194.5247 214.7562,-187.5011 204.1753,-188.0451 206.8239,-194.5247"/>
</g>
<!-- Node19 -->
<g id="node20" class="node">
<title>Node19</title>
<polygon fill="#ffffff" stroke="#bfbfbf" points="28.5,-168.5 28.5,-187.5 87.5,-187.5 87.5,-168.5 28.5,-168.5"/>
<text text-anchor="middle" x="58" y="-175.5" font-family="Helvetica,sans-Serif" font-size="10.00" fill="#000000">stdexcept</text>
</g>
<!-- Node17&#45;&gt;Node19 -->
<g id="edge23" class="edge">
<title>Node17&#45;&gt;Node19</title>
<path fill="none" stroke="#191970" d="M93.51,-224.2455C87.4674,-216.3761 78.8097,-205.101 71.5559,-195.6542"/>
<polygon fill="#191970" stroke="#191970" points="74.2705,-193.4426 65.4042,-187.6427 68.7185,-197.7058 74.2705,-193.4426"/>
</g>
<!-- Node20 -->
<g id="node21" class="node">
<title>Node20</title>
<polygon fill="#ffffff" stroke="#bfbfbf" points="105.5,-168.5 105.5,-187.5 156.5,-187.5 156.5,-168.5 105.5,-168.5"/>
<text text-anchor="middle" x="131" y="-175.5" font-family="Helvetica,sans-Serif" font-size="10.00" fill="#000000">numeric</text>
</g>
<!-- Node17&#45;&gt;Node20 -->
<g id="edge24" class="edge">
<title>Node17&#45;&gt;Node20</title>
<path fill="none" stroke="#191970" d="M106.2256,-224.2455C110.3123,-216.617 116.1135,-205.7881 121.075,-196.5267"/>
<polygon fill="#191970" stroke="#191970" points="124.1972,-198.1103 125.8343,-187.6427 118.0268,-194.8047 124.1972,-198.1103"/>
</g>
<!-- Node18&#45;&gt;Node2 -->
<g id="edge21" class="edge">
<title>Node18&#45;&gt;Node2</title>
<path fill="none" stroke="#191970" d="M240.8136,-168.4509C246.2202,-150.1013 258.1563,-109.5908 265.293,-85.3693"/>
<polygon fill="#191970" stroke="#191970" points="268.7245,-86.1064 268.1936,-75.5249 262.0099,-84.128 268.7245,-86.1064"/>
</g>
<!-- Node18&#45;&gt;Node12 -->
<g id="edge22" class="edge">
<title>Node18&#45;&gt;Node12</title>
<path fill="none" stroke="#191970" d="M260.3478,-168.3733C281.4033,-159.3032 313.1495,-145.6279 336.7175,-135.4755"/>
<polygon fill="#191970" stroke="#191970" points="338.1444,-138.6719 345.9438,-131.5011 335.375,-132.243 338.1444,-138.6719"/>
</g>
<!-- Node23&#45;&gt;Node18 -->
<g id="edge43" class="edge">
<title>Node23&#45;&gt;Node18</title>
<path fill="none" stroke="#191970" d="M365.2927,-336.4379C351.6829,-328.0696 332.5668,-314.9373 319,-300 292.6077,-270.9417 296.1429,-256.4134 274,-224 267.3769,-214.3049 259.3809,-203.9702 252.6086,-195.5575"/>
<polygon fill="#191970" stroke="#191970" points="255.14,-193.1239 246.103,-187.5938 249.7189,-197.5525 255.14,-193.1239"/>
</g>
<!-- Node24 -->
<g id="node25" class="node">
<title>Node24</title>
<g id="a_node25"><a xlink:href="Phase_8h.html" target="_top" xlink:title="Header file for class Phase. ">
<polygon fill="#ffffff" stroke="#000000" points="598.5,-224.5 598.5,-243.5 651.5,-243.5 651.5,-224.5 598.5,-224.5"/>
<text text-anchor="middle" x="625" y="-231.5" font-family="Helvetica,sans-Serif" font-size="10.00" fill="#000000">Phase.h</text>
</a>
</g>
</g>
<!-- Node23&#45;&gt;Node24 -->
<g id="edge28" class="edge">
<title>Node23&#45;&gt;Node24</title>
<path fill="none" stroke="#191970" d="M416.099,-336.4996C443.6601,-328.3019 483.1383,-315.3731 516,-300 547.5599,-285.2359 581.5443,-263.6567 603.0241,-249.2365"/>
<polygon fill="#191970" stroke="#191970" points="605.1134,-252.0485 611.4206,-243.5355 601.1813,-246.2572 605.1134,-252.0485"/>
</g>
<!-- Node29 -->
<g id="node30" class="node">
<title>Node29</title>
<g id="a_node30"><a xlink:href="MultiSpeciesThermo_8h.html" target="_top" xlink:title="Header for a general species thermodynamic property manager for a phase (see MultiSpeciesThermo). ">
<polygon fill="#ffffff" stroke="#000000" points="328,-280.5 328,-299.5 442,-299.5 442,-280.5 328,-280.5"/>
<text text-anchor="middle" x="385" y="-287.5" font-family="Helvetica,sans-Serif" font-size="10.00" fill="#000000">MultiSpeciesThermo.h</text>
</a>
</g>
</g>
<!-- Node23&#45;&gt;Node29 -->
<g id="edge37" class="edge">
<title>Node23&#45;&gt;Node29</title>
<path fill="none" stroke="#191970" d="M382.5226,-336.2455C382.914,-328.9382 383.4628,-318.6944 383.9444,-309.7046"/>
<polygon fill="#191970" stroke="#191970" points="387.4434,-309.8156 384.4834,-299.6427 380.4534,-309.4411 387.4434,-309.8156"/>
</g>
<!-- Node24&#45;&gt;Node11 -->
<g id="edge29" class="edge">
<title>Node24&#45;&gt;Node11</title>
<path fill="none" stroke="#191970" d="M607.9297,-224.2455C592.753,-215.5731 570.3379,-202.7645 552.9437,-192.825"/>
<polygon fill="#191970" stroke="#191970" points="554.2936,-189.5653 543.8747,-187.6427 550.8206,-195.643 554.2936,-189.5653"/>
</g>
<!-- Node25 -->
<g id="node26" class="node">
<title>Node25</title>
<g id="a_node26"><a xlink:href="Elements_8h.html" target="_top" xlink:title="Contains the getElementWeight function and the definitions of element constraint types. ">
<polygon fill="#ffffff" stroke="#000000" points="513,-112.5 513,-131.5 647,-131.5 647,-112.5 513,-112.5"/>
<text text-anchor="middle" x="580" y="-119.5" font-family="Helvetica,sans-Serif" font-size="10.00" fill="#000000">cantera/thermo/Elements.h</text>
</a>
</g>
</g>
<!-- Node24&#45;&gt;Node25 -->
<g id="edge30" class="edge">
<title>Node24&#45;&gt;Node25</title>
<path fill="none" stroke="#191970" d="M622.9726,-224.3615C620.0564,-211.2894 614.1215,-187.3505 606,-168 602.0194,-158.5157 596.538,-148.515 591.6342,-140.2698"/>
<polygon fill="#191970" stroke="#191970" points="594.4838,-138.2218 586.2672,-131.533 588.5192,-141.8858 594.4838,-138.2218"/>
</g>
<!-- Node26 -->
<g id="node27" class="node">
<title>Node26</title>
<g id="a_node27"><a xlink:href="Species_8h.html" target="_top" xlink:title="Declaration for class Cantera::Species. ">
<polygon fill="#ffffff" stroke="#000000" points="761,-112.5 761,-131.5 889,-131.5 889,-112.5 761,-112.5"/>
<text text-anchor="middle" x="825" y="-119.5" font-family="Helvetica,sans-Serif" font-size="10.00" fill="#000000">cantera/thermo/Species.h</text>
</a>
</g>
</g>
<!-- Node24&#45;&gt;Node26 -->
<g id="edge32" class="edge">
<title>Node24&#45;&gt;Node26</title>
<path fill="none" stroke="#191970" d="M651.5286,-230.0587C694.8545,-223.1376 778.1691,-207.6502 800,-188 813.2079,-176.1114 819.4744,-156.5103 822.4253,-141.7511"/>
<polygon fill="#191970" stroke="#191970" points="825.9228,-142.0524 824.0957,-131.6163 819.016,-140.914 825.9228,-142.0524"/>
</g>
<!-- Node27 -->
<g id="node28" class="node">
<title>Node27</title>
<g id="a_node28"><a xlink:href="ValueCache_8h.html" target="_top" xlink:title="cantera/base/ValueCache.h">
<polygon fill="#ffffff" stroke="#000000" points="653.5,-168.5 653.5,-187.5 790.5,-187.5 790.5,-168.5 653.5,-168.5"/>
<text text-anchor="middle" x="722" y="-175.5" font-family="Helvetica,sans-Serif" font-size="10.00" fill="#000000">cantera/base/ValueCache.h</text>
</a>
</g>
</g>
<!-- Node24&#45;&gt;Node27 -->
<g id="edge34" class="edge">
<title>Node24&#45;&gt;Node27</title>
<path fill="none" stroke="#191970" d="M641.8961,-224.2455C656.918,-215.5731 679.1043,-202.7645 696.321,-192.825"/>
<polygon fill="#191970" stroke="#191970" points="698.3871,-195.6737 705.2975,-187.6427 694.8872,-189.6114 698.3871,-195.6737"/>
</g>
<!-- Node25&#45;&gt;Node2 -->
<g id="edge31" class="edge">
<title>Node25&#45;&gt;Node2</title>
<path fill="none" stroke="#191970" d="M527.2321,-112.4369C473.5715,-102.712 390.4373,-87.6456 333.509,-77.3285"/>
<polygon fill="#191970" stroke="#191970" points="334.0141,-73.8631 323.5503,-75.5237 332.7658,-80.7509 334.0141,-73.8631"/>
</g>
<!-- Node26&#45;&gt;Node2 -->
<g id="edge33" class="edge">
<title>Node26&#45;&gt;Node2</title>
<path fill="none" stroke="#191970" d="M760.9281,-113.0415C757.9116,-112.6769 754.9239,-112.3275 752,-112 572.1121,-91.8511 523.6936,-97.213 339.2418,-75.9577"/>
<polygon fill="#191970" stroke="#191970" points="339.5461,-72.4696 329.2087,-74.7909 338.7374,-79.4227 339.5461,-72.4696"/>
</g>
<!-- Node27&#45;&gt;Node2 -->
<g id="edge35" class="edge">
<title>Node27&#45;&gt;Node2</title>
<path fill="none" stroke="#191970" d="M715.648,-168.3473C705.2033,-153.3793 682.8579,-124.9486 656,-112 531.1435,-51.8046 481.8325,-92.3989 339.2025,-75.9189"/>
<polygon fill="#191970" stroke="#191970" points="339.5737,-72.4383 329.2211,-74.6906 338.7187,-79.3859 339.5737,-72.4383"/>
</g>
<!-- Node28 -->
<g id="node29" class="node">
<title>Node28</title>
<polygon fill="#ffffff" stroke="#bfbfbf" points="703,-112.5 703,-131.5 743,-131.5 743,-112.5 703,-112.5"/>
<text text-anchor="middle" x="723" y="-119.5" font-family="Helvetica,sans-Serif" font-size="10.00" fill="#000000">limits</text>
</g>
<!-- Node27&#45;&gt;Node28 -->
<g id="edge36" class="edge">
<title>Node27&#45;&gt;Node28</title>
<path fill="none" stroke="#191970" d="M722.1742,-168.2455C722.3047,-160.9382 722.4876,-150.6944 722.6481,-141.7046"/>
<polygon fill="#191970" stroke="#191970" points="726.1486,-141.7036 722.8278,-131.6427 719.1497,-141.5786 726.1486,-141.7036"/>
</g>
<!-- Node30 -->
<g id="node31" class="node">
<title>Node30</title>
<g id="a_node31"><a xlink:href="SpeciesThermoInterpType_8h.html" target="_top" xlink:title="Pure Virtual Base class for individual species reference state thermodynamic managers and text for th...">
<polygon fill="#ffffff" stroke="#000000" points="321,-224.5 321,-243.5 461,-243.5 461,-224.5 321,-224.5"/>
<text text-anchor="middle" x="391" y="-231.5" font-family="Helvetica,sans-Serif" font-size="10.00" fill="#000000">SpeciesThermoInterpType.h</text>
</a>
</g>
</g>
<!-- Node29&#45;&gt;Node30 -->
<g id="edge38" class="edge">
<title>Node29&#45;&gt;Node30</title>
<path fill="none" stroke="#191970" d="M386.0451,-280.2455C386.828,-272.9382 387.9256,-262.6944 388.8888,-253.7046"/>
<polygon fill="#191970" stroke="#191970" points="392.3815,-253.9587 389.9669,-243.6427 385.4214,-253.2129 392.3815,-253.9587"/>
</g>
<!-- Node30&#45;&gt;Node2 -->
<g id="edge39" class="edge">
<title>Node30&#45;&gt;Node2</title>
<path fill="none" stroke="#191970" d="M364.1904,-224.4593C346.7882,-217.0038 324.8507,-205.027 311,-188 286.3721,-157.7245 276.7213,-111.7933 273.0809,-85.784"/>
<polygon fill="#191970" stroke="#191970" points="276.5302,-85.1568 271.8306,-75.6613 269.5829,-86.015 276.5302,-85.1568"/>
</g>
<!-- Node30&#45;&gt;Node11 -->
<g id="edge41" class="edge">
<title>Node30&#45;&gt;Node11</title>
<path fill="none" stroke="#191970" d="M414.3792,-224.3733C436.5045,-215.2629 469.9134,-201.5062 494.6019,-191.3404"/>
<polygon fill="#191970" stroke="#191970" points="496.0117,-194.5451 503.9258,-187.5011 493.3464,-188.0723 496.0117,-194.5451"/>
</g>
<!-- Node30&#45;&gt;Node18 -->
<g id="edge42" class="edge">
<title>Node30&#45;&gt;Node18</title>
<path fill="none" stroke="#191970" d="M364.6984,-224.3733C339.2478,-215.058 300.5257,-200.8852 272.5894,-190.6602"/>
<polygon fill="#191970" stroke="#191970" points="273.791,-187.3729 263.1972,-187.2225 271.3849,-193.9465 273.791,-187.3729"/>
</g>
<!-- Node31 -->
<g id="node32" class="node">
<title>Node31</title>
<g id="a_node32"><a xlink:href="speciesThermoTypes_8h.html" target="_top" xlink:title="Contains const definitions for types of species reference&#45;state thermodynamics managers (see Species ...">
<polygon fill="#ffffff" stroke="#000000" points="319.5,-168.5 319.5,-187.5 438.5,-187.5 438.5,-168.5 319.5,-168.5"/>
<text text-anchor="middle" x="379" y="-175.5" font-family="Helvetica,sans-Serif" font-size="10.00" fill="#000000">speciesThermoTypes.h</text>
</a>
</g>
</g>
<!-- Node30&#45;&gt;Node31 -->
<g id="edge40" class="edge">
<title>Node30&#45;&gt;Node31</title>
<path fill="none" stroke="#191970" d="M388.9098,-224.2455C387.3439,-216.9382 385.1488,-206.6944 383.2224,-197.7046"/>
<polygon fill="#191970" stroke="#191970" points="386.584,-196.6873 381.0663,-187.6427 379.7393,-198.1541 386.584,-196.6873"/>
</g>
</g>
</svg>
