<?xml version="1.0" encoding="UTF-8" standalone="no"?>
<!DOCTYPE svg PUBLIC "-//W3C//DTD SVG 1.1//EN"
 "http://www.w3.org/Graphics/SVG/1.1/DTD/svg11.dtd">
<!-- Generated by graphviz version 2.40.1 (20161225.0304)
 -->
<!-- Title: PDSS_ConstVol.h Pages: 1 -->
<svg width="571pt" height="84pt"
 viewBox="0.00 0.00 570.50 84.00" xmlns="http://www.w3.org/2000/svg" xmlns:xlink="http://www.w3.org/1999/xlink">
<g id="graph0" class="graph" transform="scale(1 1) rotate(0) translate(4 80)">
<title>PDSS_ConstVol.h</title>
<polygon fill="#ffffff" stroke="transparent" points="-4,4 -4,-80 566.5,-80 566.5,4 -4,4"/>
<!-- Node12 -->
<g id="node1" class="node">
<title>Node12</title>
<polygon fill="#bfbfbf" stroke="#000000" points="210.5,-56.5 210.5,-75.5 308.5,-75.5 308.5,-56.5 210.5,-56.5"/>
<text text-anchor="middle" x="259.5" y="-63.5" font-family="Helvetica,sans-Serif" font-size="10.00" fill="#000000">PDSS_ConstVol.h</text>
</g>
<!-- Node13 -->
<g id="node2" class="node">
<title>Node13</title>
<g id="a_node2"><a xlink:href="PDSS__ConstVol_8cpp.html" target="_top" xlink:title="Implementation of a pressure dependent standard state virtual function. ">
<polygon fill="#ffffff" stroke="#000000" points="0,-.5 0,-19.5 109,-19.5 109,-.5 0,-.5"/>
<text text-anchor="middle" x="54.5" y="-7.5" font-family="Helvetica,sans-Serif" font-size="10.00" fill="#000000">PDSS_ConstVol.cpp</text>
</a>
</g>
</g>
<!-- Node12&#45;&gt;Node13 -->
<g id="edge1" class="edge">
<title>Node12&#45;&gt;Node13</title>
<path fill="none" stroke="#191970" d="M214.546,-53.7199C176.8513,-43.4228 123.7959,-28.9296 89.2809,-19.5011"/>
<polygon fill="#191970" stroke="#191970" points="213.6904,-57.1143 224.2592,-56.3733 215.535,-50.3617 213.6904,-57.1143"/>
</g>
<!-- Node14 -->
<g id="node3" class="node">
<title>Node14</title>
<g id="a_node3"><a xlink:href="VPSSMgr__ConstVol_8cpp.html" target="_top" xlink:title="Definition file for a derived class that handles the calculation of standard state thermo properties ...">
<polygon fill="#ffffff" stroke="#000000" points="127,-.5 127,-19.5 252,-19.5 252,-.5 127,-.5"/>
<text text-anchor="middle" x="189.5" y="-7.5" font-family="Helvetica,sans-Serif" font-size="10.00" fill="#000000">VPSSMgr_ConstVol.cpp</text>
</a>
</g>
</g>
<!-- Node12&#45;&gt;Node14 -->
<g id="edge2" class="edge">
<title>Node12&#45;&gt;Node14</title>
<path fill="none" stroke="#191970" d="M239.41,-49.928C227.1747,-40.1397 211.9493,-27.9595 201.5533,-19.6427"/>
<polygon fill="#191970" stroke="#191970" points="237.3118,-52.7316 247.3069,-56.2455 241.6847,-47.2655 237.3118,-52.7316"/>
</g>
<!-- Node15 -->
<g id="node4" class="node">
<title>Node15</title>
<g id="a_node4"><a xlink:href="VPSSMgr__General_8cpp.html" target="_top" xlink:title="Definition file for a derived class that handles the calculation of standard state thermo properties ...">
<polygon fill="#ffffff" stroke="#000000" points="270.5,-.5 270.5,-19.5 388.5,-19.5 388.5,-.5 270.5,-.5"/>
<text text-anchor="middle" x="329.5" y="-7.5" font-family="Helvetica,sans-Serif" font-size="10.00" fill="#000000">VPSSMgr_General.cpp</text>
</a>
</g>
</g>
<!-- Node12&#45;&gt;Node15 -->
<g id="edge3" class="edge">
<title>Node12&#45;&gt;Node15</title>
<path fill="none" stroke="#191970" d="M279.59,-49.928C291.8253,-40.1397 307.0507,-27.9595 317.4467,-19.6427"/>
<polygon fill="#191970" stroke="#191970" points="277.3153,-47.2655 271.6931,-56.2455 281.6882,-52.7316 277.3153,-47.2655"/>
</g>
<!-- Node16 -->
<g id="node5" class="node">
<title>Node16</title>
<g id="a_node5"><a xlink:href="VPSSMgr__Water__ConstVol_8cpp.html" target="_top" xlink:title="Definition file for a derived class that handles the calculation of standard state thermo properties ...">
<polygon fill="#ffffff" stroke="#000000" points="406.5,-.5 406.5,-19.5 562.5,-19.5 562.5,-.5 406.5,-.5"/>
<text text-anchor="middle" x="484.5" y="-7.5" font-family="Helvetica,sans-Serif" font-size="10.00" fill="#000000">VPSSMgr_Water_ConstVol.cpp</text>
</a>
</g>
</g>
<!-- Node12&#45;&gt;Node16 -->
<g id="edge4" class="edge">
<title>Node12&#45;&gt;Node16</title>
<path fill="none" stroke="#191970" d="M307.7866,-53.982C349.1861,-43.6781 408.0279,-29.0331 446.2353,-19.5237"/>
<polygon fill="#191970" stroke="#191970" points="306.7818,-50.6252 297.9232,-56.4369 308.4725,-57.418 306.7818,-50.6252"/>
</g>
</g>
</svg>
