<?xml version="1.0" encoding="UTF-8" standalone="no"?>
<!DOCTYPE svg PUBLIC "-//W3C//DTD SVG 1.1//EN"
 "http://www.w3.org/Graphics/SVG/1.1/DTD/svg11.dtd">
<!-- Generated by graphviz version 2.40.1 (20161225.0304)
 -->
<!-- Title: RedlichKwongMFTP.cpp Pages: 1 -->
<svg width="1141pt" height="487pt"
 viewBox="0.00 0.00 1140.74 487.00" xmlns="http://www.w3.org/2000/svg" xmlns:xlink="http://www.w3.org/1999/xlink">
<g id="graph0" class="graph" transform="scale(1 1) rotate(0) translate(4 483)">
<title>RedlichKwongMFTP.cpp</title>
<polygon fill="#ffffff" stroke="transparent" points="-4,4 -4,-483 1136.7428,-483 1136.7428,4 -4,4"/>
<!-- Node0 -->
<g id="node1" class="node">
<title>Node0</title>
<polygon fill="#bfbfbf" stroke="#000000" points="727.7428,-459.5 727.7428,-478.5 852.7428,-478.5 852.7428,-459.5 727.7428,-459.5"/>
<text text-anchor="middle" x="790.2428" y="-466.5" font-family="Helvetica,sans-Serif" font-size="10.00" fill="#000000">RedlichKwongMFTP.cpp</text>
</g>
<!-- Node1 -->
<g id="node2" class="node">
<title>Node1</title>
<g id="a_node2"><a xlink:href="RedlichKwongMFTP_8h.html" target="_top" xlink:title="cantera/thermo/RedlichKwong\lMFTP.h">
<polygon fill="#ffffff" stroke="#000000" points="655.2428,-392.5 655.2428,-422.5 803.2428,-422.5 803.2428,-392.5 655.2428,-392.5"/>
<text text-anchor="start" x="663.2428" y="-410.5" font-family="Helvetica,sans-Serif" font-size="10.00" fill="#000000">cantera/thermo/RedlichKwong</text>
<text text-anchor="middle" x="729.2428" y="-399.5" font-family="Helvetica,sans-Serif" font-size="10.00" fill="#000000">MFTP.h</text>
</a>
</g>
</g>
<!-- Node0&#45;&gt;Node1 -->
<g id="edge1" class="edge">
<title>Node0&#45;&gt;Node1</title>
<path fill="none" stroke="#191970" d="M780.7115,-459.3906C772.8381,-451.4527 761.3514,-439.8718 751.2261,-429.6635"/>
<polygon fill="#191970" stroke="#191970" points="753.6922,-427.1797 744.1651,-422.5446 748.7223,-432.1093 753.6922,-427.1797"/>
</g>
<!-- Node35 -->
<g id="node19" class="node">
<title>Node35</title>
<g id="a_node19"><a xlink:href="mix__defs_8h.html" target="_top" xlink:title="cantera/thermo/mix\l_defs.h">
<polygon fill="#ffffff" stroke="#000000" points="880.7428,-392.5 880.7428,-422.5 981.7428,-422.5 981.7428,-392.5 880.7428,-392.5"/>
<text text-anchor="start" x="888.7428" y="-410.5" font-family="Helvetica,sans-Serif" font-size="10.00" fill="#000000">cantera/thermo/mix</text>
<text text-anchor="middle" x="931.2428" y="-399.5" font-family="Helvetica,sans-Serif" font-size="10.00" fill="#000000">_defs.h</text>
</a>
</g>
</g>
<!-- Node0&#45;&gt;Node35 -->
<g id="edge25" class="edge">
<title>Node0&#45;&gt;Node35</title>
<path fill="none" stroke="#191970" d="M812.274,-459.3906C832.3285,-450.6435 862.5246,-437.4728 887.4762,-426.5897"/>
<polygon fill="#191970" stroke="#191970" points="888.9836,-429.7507 896.7503,-422.5446 886.1849,-423.3345 888.9836,-429.7507"/>
</g>
<!-- Node36 -->
<g id="node20" class="node">
<title>Node36</title>
<g id="a_node20"><a xlink:href="ThermoFactory_8h.html" target="_top" xlink:title="Headers for the factory class that can create known ThermoPhase objects (see Thermodynamic Properties...">
<polygon fill="#ffffff" stroke="#000000" points="321.7428,-336.5 321.7428,-355.5 480.7428,-355.5 480.7428,-336.5 321.7428,-336.5"/>
<text text-anchor="middle" x="401.2428" y="-343.5" font-family="Helvetica,sans-Serif" font-size="10.00" fill="#000000">cantera/thermo/ThermoFactory.h</text>
</a>
</g>
</g>
<!-- Node0&#45;&gt;Node36 -->
<g id="edge26" class="edge">
<title>Node0&#45;&gt;Node36</title>
<path fill="none" stroke="#191970" d="M760.0423,-459.4507C690.5959,-437.4921 519.5343,-383.4032 441.3725,-358.6888"/>
<polygon fill="#191970" stroke="#191970" points="442.014,-355.2209 431.424,-355.5432 439.9035,-361.8952 442.014,-355.2209"/>
</g>
<!-- Node41 -->
<g id="node25" class="node">
<title>Node41</title>
<g id="a_node25"><a xlink:href="stringUtils_8h.html" target="_top" xlink:title="Contains declarations for string manipulation functions within Cantera. ">
<polygon fill="#ffffff" stroke="#000000" points="647.2428,-168.5 647.2428,-187.5 775.2428,-187.5 775.2428,-168.5 647.2428,-168.5"/>
<text text-anchor="middle" x="711.2428" y="-175.5" font-family="Helvetica,sans-Serif" font-size="10.00" fill="#000000">cantera/base/stringUtils.h</text>
</a>
</g>
</g>
<!-- Node0&#45;&gt;Node41 -->
<g id="edge36" class="edge">
<title>Node0&#45;&gt;Node41</title>
<path fill="none" stroke="#191970" d="M799.1259,-459.32C816.2694,-439.5894 852.2428,-392.6316 852.2428,-346 852.2428,-346 852.2428,-346 852.2428,-290 852.2428,-238.6649 794.2288,-207.1046 752.6259,-191.0721"/>
<polygon fill="#191970" stroke="#191970" points="753.8312,-187.7862 743.2379,-187.6062 751.4068,-194.353 753.8312,-187.7862"/>
</g>
<!-- Node43 -->
<g id="node27" class="node">
<title>Node43</title>
<g id="a_node27"><a xlink:href="ctml_8h.html" target="_top" xlink:title="CTML (&quot;Cantera Markup Language&quot;) is the variant of XML that Cantera uses to store data...">
<polygon fill="#ffffff" stroke="#000000" points="171.7428,-280.5 171.7428,-299.5 274.7428,-299.5 274.7428,-280.5 171.7428,-280.5"/>
<text text-anchor="middle" x="223.2428" y="-287.5" font-family="Helvetica,sans-Serif" font-size="10.00" fill="#000000">cantera/base/ctml.h</text>
</a>
</g>
</g>
<!-- Node0&#45;&gt;Node43 -->
<g id="edge41" class="edge">
<title>Node0&#45;&gt;Node43</title>
<path fill="none" stroke="#191970" d="M727.6208,-463.2636C633.2926,-452.6689 451.0306,-424.4989 312.2428,-356 285.4112,-342.7573 258.3283,-321.2411 241.2052,-306.3945"/>
<polygon fill="#191970" stroke="#191970" points="243.4536,-303.7105 233.6442,-299.7074 238.8162,-308.954 243.4536,-303.7105"/>
</g>
<!-- Node44 -->
<g id="node28" class="node">
<title>Node44</title>
<polygon fill="#ffffff" stroke="#bfbfbf" points="999.7428,-398 999.7428,-417 1132.7428,-417 1132.7428,-398 999.7428,-398"/>
<text text-anchor="middle" x="1066.2428" y="-405" font-family="Helvetica,sans-Serif" font-size="10.00" fill="#000000">boost/math/tools/roots.hpp</text>
</g>
<!-- Node0&#45;&gt;Node44 -->
<g id="edge44" class="edge">
<title>Node0&#45;&gt;Node44</title>
<path fill="none" stroke="#191970" d="M833.065,-459.4581C881.7128,-448.6181 961.1278,-430.9224 1013.5386,-419.2439"/>
<polygon fill="#191970" stroke="#191970" points="1014.3208,-422.6555 1023.3202,-417.0643 1012.7983,-415.8231 1014.3208,-422.6555"/>
</g>
<!-- Node2 -->
<g id="node3" class="node">
<title>Node2</title>
<g id="a_node3"><a xlink:href="MixtureFugacityTP_8h.html" target="_top" xlink:title="Header file for a derived class of ThermoPhase that handles non&#45;ideal mixtures based on the fugacity ...">
<polygon fill="#ffffff" stroke="#000000" points="522.7428,-336.5 522.7428,-355.5 629.7428,-355.5 629.7428,-336.5 522.7428,-336.5"/>
<text text-anchor="middle" x="576.2428" y="-343.5" font-family="Helvetica,sans-Serif" font-size="10.00" fill="#000000">MixtureFugacityTP.h</text>
</a>
</g>
</g>
<!-- Node1&#45;&gt;Node2 -->
<g id="edge2" class="edge">
<title>Node1&#45;&gt;Node2</title>
<path fill="none" stroke="#191970" d="M691.8148,-392.4554C666.6222,-382.329 633.702,-369.0964 609.4432,-359.3453"/>
<polygon fill="#191970" stroke="#191970" points="610.5362,-356.0125 599.9524,-355.5303 607.9255,-362.5074 610.5362,-356.0125"/>
</g>
<!-- Node32 -->
<g id="node16" class="node">
<title>Node32</title>
<g id="a_node16"><a xlink:href="Array_8h.html" target="_top" xlink:title="Header file for class Cantera::Array2D. ">
<polygon fill="#ffffff" stroke="#000000" points="675.7428,-336.5 675.7428,-355.5 782.7428,-355.5 782.7428,-336.5 675.7428,-336.5"/>
<text text-anchor="middle" x="729.2428" y="-343.5" font-family="Helvetica,sans-Serif" font-size="10.00" fill="#000000">cantera/base/Array.h</text>
</a>
</g>
</g>
<!-- Node1&#45;&gt;Node32 -->
<g id="edge21" class="edge">
<title>Node1&#45;&gt;Node32</title>
<path fill="none" stroke="#191970" d="M729.2428,-392.2977C729.2428,-384.3834 729.2428,-374.6043 729.2428,-366.0759"/>
<polygon fill="#191970" stroke="#191970" points="732.7429,-365.8469 729.2428,-355.8469 725.7429,-365.847 732.7429,-365.8469"/>
</g>
<!-- Node3 -->
<g id="node4" class="node">
<title>Node3</title>
<g id="a_node4"><a xlink:href="ThermoPhase_8h.html" target="_top" xlink:title="Header file for class ThermoPhase, the base class for phases with thermodynamic properties, and the text for the Module thermoprops (see Thermodynamic Properties and class ThermoPhase). ">
<polygon fill="#ffffff" stroke="#000000" points="398.2428,-280.5 398.2428,-299.5 484.2428,-299.5 484.2428,-280.5 398.2428,-280.5"/>
<text text-anchor="middle" x="441.2428" y="-287.5" font-family="Helvetica,sans-Serif" font-size="10.00" fill="#000000">ThermoPhase.h</text>
</a>
</g>
</g>
<!-- Node2&#45;&gt;Node3 -->
<g id="edge3" class="edge">
<title>Node2&#45;&gt;Node3</title>
<path fill="none" stroke="#191970" d="M553.0355,-336.3733C531.0729,-327.2629 497.9096,-313.5062 473.4026,-303.3404"/>
<polygon fill="#191970" stroke="#191970" points="474.7252,-300.0999 464.1473,-299.5011 472.043,-306.5657 474.7252,-300.0999"/>
</g>
<!-- Node27 -->
<g id="node13" class="node">
<title>Node27</title>
<g id="a_node13"><a xlink:href="ResidEval_8h.html" target="_top" xlink:title="cantera/numerics/ResidEval.h">
<polygon fill="#ffffff" stroke="#000000" points="502.2428,-280.5 502.2428,-299.5 650.2428,-299.5 650.2428,-280.5 502.2428,-280.5"/>
<text text-anchor="middle" x="576.2428" y="-287.5" font-family="Helvetica,sans-Serif" font-size="10.00" fill="#000000">cantera/numerics/ResidEval.h</text>
</a>
</g>
</g>
<!-- Node2&#45;&gt;Node27 -->
<g id="edge14" class="edge">
<title>Node2&#45;&gt;Node27</title>
<path fill="none" stroke="#191970" d="M576.2428,-336.2455C576.2428,-328.9382 576.2428,-318.6944 576.2428,-309.7046"/>
<polygon fill="#191970" stroke="#191970" points="579.7429,-309.6426 576.2428,-299.6427 572.7429,-309.6427 579.7429,-309.6426"/>
</g>
<!-- Node4 -->
<g id="node5" class="node">
<title>Node4</title>
<g id="a_node5"><a xlink:href="Phase_8h.html" target="_top" xlink:title="Header file for class Phase. ">
<polygon fill="#ffffff" stroke="#ff0000" points="423.7428,-224.5 423.7428,-243.5 476.7428,-243.5 476.7428,-224.5 423.7428,-224.5"/>
<text text-anchor="middle" x="450.2428" y="-231.5" font-family="Helvetica,sans-Serif" font-size="10.00" fill="#000000">Phase.h</text>
</a>
</g>
</g>
<!-- Node3&#45;&gt;Node4 -->
<g id="edge4" class="edge">
<title>Node3&#45;&gt;Node4</title>
<path fill="none" stroke="#191970" d="M442.8105,-280.2455C443.9849,-272.9382 445.6312,-262.6944 447.076,-253.7046"/>
<polygon fill="#191970" stroke="#191970" points="450.5619,-254.0714 448.6931,-243.6427 443.6505,-252.9606 450.5619,-254.0714"/>
</g>
<!-- Node23 -->
<g id="node11" class="node">
<title>Node23</title>
<g id="a_node11"><a xlink:href="MultiSpeciesThermo_8h.html" target="_top" xlink:title="Header for a general species thermodynamic property manager for a phase (see MultiSpeciesThermo). ">
<polygon fill="#ffffff" stroke="#ff0000" points="291.2428,-224.5 291.2428,-243.5 405.2428,-243.5 405.2428,-224.5 291.2428,-224.5"/>
<text text-anchor="middle" x="348.2428" y="-231.5" font-family="Helvetica,sans-Serif" font-size="10.00" fill="#000000">MultiSpeciesThermo.h</text>
</a>
</g>
</g>
<!-- Node3&#45;&gt;Node23 -->
<g id="edge10" class="edge">
<title>Node3&#45;&gt;Node23</title>
<path fill="none" stroke="#191970" d="M425.0434,-280.2455C410.641,-271.5731 389.3696,-258.7645 372.8628,-248.825"/>
<polygon fill="#191970" stroke="#191970" points="374.6288,-245.8028 364.2565,-243.6427 371.0178,-251.7996 374.6288,-245.8028"/>
</g>
<!-- Node26 -->
<g id="node12" class="node">
<title>Node26</title>
<g id="a_node12"><a xlink:href="global_8h.html" target="_top" xlink:title="This file contains definitions for utility functions and text for modules, inputfiles, logs, textlogs, (see Input File Handling, Diagnostic Output, and Writing messages to the screen). ">
<polygon fill="#ffffff" stroke="#000000" points="443.2428,-168.5 443.2428,-187.5 553.2428,-187.5 553.2428,-168.5 443.2428,-168.5"/>
<text text-anchor="middle" x="498.2428" y="-175.5" font-family="Helvetica,sans-Serif" font-size="10.00" fill="#000000">cantera/base/global.h</text>
</a>
</g>
</g>
<!-- Node3&#45;&gt;Node26 -->
<g id="edge11" class="edge">
<title>Node3&#45;&gt;Node26</title>
<path fill="none" stroke="#191970" d="M453.6984,-280.4386C463.8116,-271.9767 477.6051,-258.7126 485.2428,-244 492.7254,-229.5861 495.9148,-211.3565 497.2672,-197.71"/>
<polygon fill="#191970" stroke="#191970" points="500.7744,-197.7411 498.0251,-187.5092 493.7937,-197.2223 500.7744,-197.7411"/>
</g>
<!-- Node5 -->
<g id="node6" class="node">
<title>Node5</title>
<g id="a_node6"><a xlink:href="ctexceptions_8h.html" target="_top" xlink:title="Definitions for the classes that are thrown when Cantera experiences an error condition (also contain...">
<polygon fill="#ffffff" stroke="#ff0000" points="285.2428,-168.5 285.2428,-187.5 425.2428,-187.5 425.2428,-168.5 285.2428,-168.5"/>
<text text-anchor="middle" x="355.2428" y="-175.5" font-family="Helvetica,sans-Serif" font-size="10.00" fill="#000000">cantera/base/ctexceptions.h</text>
</a>
</g>
</g>
<!-- Node4&#45;&gt;Node5 -->
<g id="edge5" class="edge">
<title>Node4&#45;&gt;Node5</title>
<path fill="none" stroke="#191970" d="M433.695,-224.2455C418.9829,-215.5731 397.254,-202.7645 380.3923,-192.825"/>
<polygon fill="#191970" stroke="#191970" points="381.9929,-189.7057 371.6009,-187.6427 378.4382,-195.736 381.9929,-189.7057"/>
</g>
<!-- Node6 -->
<g id="node7" class="node">
<title>Node6</title>
<g id="a_node7"><a xlink:href="fmt_8h.html" target="_top" xlink:title="Wrapper for either system&#45;installed or local headers for fmt. ">
<polygon fill="#ffffff" stroke="#ff0000" points="417.2428,-112.5 417.2428,-131.5 515.2428,-131.5 515.2428,-112.5 417.2428,-112.5"/>
<text text-anchor="middle" x="466.2428" y="-119.5" font-family="Helvetica,sans-Serif" font-size="10.00" fill="#000000">cantera/base/fmt.h</text>
</a>
</g>
</g>
<!-- Node5&#45;&gt;Node6 -->
<g id="edge6" class="edge">
<title>Node5&#45;&gt;Node6</title>
<path fill="none" stroke="#191970" d="M374.3244,-168.3733C391.9829,-159.4644 418.448,-146.1127 438.4526,-136.0203"/>
<polygon fill="#191970" stroke="#191970" points="440.0586,-139.1303 447.4102,-131.5011 436.9055,-132.8806 440.0586,-139.1303"/>
</g>
<!-- Node7 -->
<g id="node8" class="node">
<title>Node7</title>
<g id="a_node8"><a xlink:href="ct__defs_8h.html" target="_top" xlink:title="This file contains definitions of terms that are used in internal routines and are unlikely to need m...">
<polygon fill="#ffffff" stroke="#ff0000" points="533.7428,-56.5 533.7428,-75.5 590.7428,-75.5 590.7428,-56.5 533.7428,-56.5"/>
<text text-anchor="middle" x="562.2428" y="-63.5" font-family="Helvetica,sans-Serif" font-size="10.00" fill="#000000">ct_defs.h</text>
</a>
</g>
</g>
<!-- Node6&#45;&gt;Node7 -->
<g id="edge7" class="edge">
<title>Node6&#45;&gt;Node7</title>
<path fill="none" stroke="#191970" d="M482.9647,-112.2455C497.8317,-103.5731 519.7893,-90.7645 536.8285,-80.825"/>
<polygon fill="#191970" stroke="#191970" points="538.8382,-83.7047 545.7125,-75.6427 535.3111,-77.6582 538.8382,-83.7047"/>
</g>
<!-- Node11 -->
<g id="node9" class="node">
<title>Node11</title>
<polygon fill="#ffffff" stroke="#bfbfbf" points="289.2428,-.5 289.2428,-19.5 333.2428,-19.5 333.2428,-.5 289.2428,-.5"/>
<text text-anchor="middle" x="311.2428" y="-7.5" font-family="Helvetica,sans-Serif" font-size="10.00" fill="#000000">vector</text>
</g>
<!-- Node7&#45;&gt;Node11 -->
<g id="edge8" class="edge">
<title>Node7&#45;&gt;Node11</title>
<path fill="none" stroke="#191970" d="M533.4499,-59.5761C486.2044,-49.0352 392.5629,-28.1431 343.2825,-17.1483"/>
<polygon fill="#191970" stroke="#191970" points="343.9948,-13.7212 333.4726,-14.9596 342.4705,-20.5533 343.9948,-13.7212"/>
</g>
<!-- Node13 -->
<g id="node10" class="node">
<title>Node13</title>
<polygon fill="#ffffff" stroke="#bfbfbf" points="617.7428,-.5 617.7428,-19.5 658.7428,-19.5 658.7428,-.5 617.7428,-.5"/>
<text text-anchor="middle" x="638.2428" y="-7.5" font-family="Helvetica,sans-Serif" font-size="10.00" fill="#000000">string</text>
</g>
<!-- Node7&#45;&gt;Node13 -->
<g id="edge9" class="edge">
<title>Node7&#45;&gt;Node13</title>
<path fill="none" stroke="#191970" d="M575.481,-56.2455C586.9238,-47.814 603.6724,-35.4729 616.9903,-25.6598"/>
<polygon fill="#191970" stroke="#191970" points="619.1819,-28.3924 625.1563,-19.6427 615.0295,-22.757 619.1819,-28.3924"/>
</g>
<!-- Node26&#45;&gt;Node6 -->
<g id="edge13" class="edge">
<title>Node26&#45;&gt;Node6</title>
<path fill="none" stroke="#191970" d="M492.6688,-168.2455C488.3097,-160.617 482.1217,-149.7881 476.8295,-140.5267"/>
<polygon fill="#191970" stroke="#191970" points="479.7532,-138.5886 471.7529,-131.6427 473.6755,-142.0616 479.7532,-138.5886"/>
</g>
<!-- Node26&#45;&gt;Node7 -->
<g id="edge12" class="edge">
<title>Node26&#45;&gt;Node7</title>
<path fill="none" stroke="#191970" d="M503.6994,-168.4509C514.3266,-149.8533 537.9617,-108.4919 551.7306,-84.3964"/>
<polygon fill="#191970" stroke="#191970" points="554.8774,-85.9438 556.8,-75.5249 548.7997,-82.4708 554.8774,-85.9438"/>
</g>
<!-- Node27&#45;&gt;Node5 -->
<g id="edge16" class="edge">
<title>Node27&#45;&gt;Node5</title>
<path fill="none" stroke="#191970" d="M565.1665,-280.3235C548.6962,-266.3313 516.3407,-240.3401 485.2428,-224 458.3009,-209.8436 426.0596,-198.4036 400.4257,-190.4729"/>
<polygon fill="#191970" stroke="#191970" points="401.1796,-187.0445 390.5946,-187.5021 399.1546,-193.7452 401.1796,-187.0445"/>
</g>
<!-- Node27&#45;&gt;Node7 -->
<g id="edge15" class="edge">
<title>Node27&#45;&gt;Node7</title>
<path fill="none" stroke="#191970" d="M575.6412,-280.375C573.5231,-246.4851 566.3823,-132.2317 563.4824,-85.8332"/>
<polygon fill="#191970" stroke="#191970" points="566.9592,-85.3513 562.8421,-75.5891 559.9728,-85.788 566.9592,-85.3513"/>
</g>
<!-- Node28 -->
<g id="node14" class="node">
<title>Node28</title>
<g id="a_node14"><a xlink:href="utilities_8h.html" target="_top" xlink:title="Various templated functions that carry out common vector operations (see Templated Utility Functions)...">
<polygon fill="#ffffff" stroke="#ff0000" points="670.7428,-224.5 670.7428,-243.5 785.7428,-243.5 785.7428,-224.5 670.7428,-224.5"/>
<text text-anchor="middle" x="728.2428" y="-231.5" font-family="Helvetica,sans-Serif" font-size="10.00" fill="#000000">cantera/base/utilities.h</text>
</a>
</g>
</g>
<!-- Node27&#45;&gt;Node28 -->
<g id="edge17" class="edge">
<title>Node27&#45;&gt;Node28</title>
<path fill="none" stroke="#191970" d="M602.3725,-280.3733C627.3196,-271.1822 665.102,-257.2624 692.7634,-247.0713"/>
<polygon fill="#191970" stroke="#191970" points="694.2806,-250.2424 702.454,-243.5011 691.8606,-243.674 694.2806,-250.2424"/>
</g>
<!-- Node31 -->
<g id="node15" class="node">
<title>Node31</title>
<polygon fill="#ffffff" stroke="#bfbfbf" points="609.7428,-224.5 609.7428,-243.5 652.7428,-243.5 652.7428,-224.5 609.7428,-224.5"/>
<text text-anchor="middle" x="631.2428" y="-231.5" font-family="Helvetica,sans-Serif" font-size="10.00" fill="#000000">cstdio</text>
</g>
<!-- Node27&#45;&gt;Node31 -->
<g id="edge20" class="edge">
<title>Node27&#45;&gt;Node31</title>
<path fill="none" stroke="#191970" d="M585.8231,-280.2455C593.7885,-272.1352 605.3068,-260.4075 614.7507,-250.7919"/>
<polygon fill="#191970" stroke="#191970" points="617.2623,-253.2297 621.7723,-243.6427 612.2681,-248.3247 617.2623,-253.2297"/>
</g>
<!-- Node28&#45;&gt;Node7 -->
<g id="edge18" class="edge">
<title>Node28&#45;&gt;Node7</title>
<path fill="none" stroke="#191970" d="M699.6484,-224.3702C680.5121,-216.8143 655.7249,-204.7564 638.2428,-188 610.225,-161.1453 616.1396,-144.7031 595.2428,-112 589.1799,-102.5118 581.9347,-92.3035 575.7795,-83.9198"/>
<polygon fill="#191970" stroke="#191970" points="578.4121,-81.5945 569.6359,-75.6591 572.7952,-85.772 578.4121,-81.5945"/>
</g>
<!-- Node28&#45;&gt;Node26 -->
<g id="edge19" class="edge">
<title>Node28&#45;&gt;Node26</title>
<path fill="none" stroke="#191970" d="M688.9657,-224.4369C649.7684,-214.8932 589.4428,-200.2052 547.1593,-189.9101"/>
<polygon fill="#191970" stroke="#191970" points="547.902,-186.4888 537.3579,-187.5237 546.246,-193.2901 547.902,-186.4888"/>
</g>
<!-- Node32&#45;&gt;Node28 -->
<g id="edge22" class="edge">
<title>Node32&#45;&gt;Node28</title>
<path fill="none" stroke="#191970" d="M719.8809,-336.3788C712.1193,-327.6808 701.6678,-314.1096 697.2428,-300 691.8357,-282.7588 702.095,-264.2261 712.2319,-251.2019"/>
<polygon fill="#191970" stroke="#191970" points="714.9468,-253.4116 718.7097,-243.5075 709.5918,-248.9033 714.9468,-253.4116"/>
</g>
<!-- Node33 -->
<g id="node17" class="node">
<title>Node33</title>
<polygon fill="#ffffff" stroke="#bfbfbf" points="770.2428,-280.5 770.2428,-299.5 824.2428,-299.5 824.2428,-280.5 770.2428,-280.5"/>
<text text-anchor="middle" x="797.2428" y="-287.5" font-family="Helvetica,sans-Serif" font-size="10.00" fill="#000000">iostream</text>
</g>
<!-- Node32&#45;&gt;Node33 -->
<g id="edge23" class="edge">
<title>Node32&#45;&gt;Node33</title>
<path fill="none" stroke="#191970" d="M741.0875,-336.2455C751.1307,-327.9746 765.7422,-315.9416 777.5432,-306.2232"/>
<polygon fill="#191970" stroke="#191970" points="780.0395,-308.7015 785.5338,-299.6427 775.5895,-303.298 780.0395,-308.7015"/>
</g>
<!-- Node34 -->
<g id="node18" class="node">
<title>Node34</title>
<polygon fill="#ffffff" stroke="#bfbfbf" points="706.2428,-280.5 706.2428,-299.5 752.2428,-299.5 752.2428,-280.5 706.2428,-280.5"/>
<text text-anchor="middle" x="729.2428" y="-287.5" font-family="Helvetica,sans-Serif" font-size="10.00" fill="#000000">cstring</text>
</g>
<!-- Node32&#45;&gt;Node34 -->
<g id="edge24" class="edge">
<title>Node32&#45;&gt;Node34</title>
<path fill="none" stroke="#191970" d="M729.2428,-336.2455C729.2428,-328.9382 729.2428,-318.6944 729.2428,-309.7046"/>
<polygon fill="#191970" stroke="#191970" points="732.7429,-309.6426 729.2428,-299.6427 725.7429,-309.6427 732.7429,-309.6426"/>
</g>
<!-- Node36&#45;&gt;Node3 -->
<g id="edge27" class="edge">
<title>Node36&#45;&gt;Node3</title>
<path fill="none" stroke="#191970" d="M408.2103,-336.2455C413.7739,-328.4564 421.7208,-317.3308 428.4257,-307.9439"/>
<polygon fill="#191970" stroke="#191970" points="431.3908,-309.8144 434.3552,-299.6427 425.6947,-305.7457 431.3908,-309.8144"/>
</g>
<!-- Node37 -->
<g id="node21" class="node">
<title>Node37</title>
<g id="a_node21"><a xlink:href="xml_8h.html" target="_top" xlink:title="Classes providing support for XML data files. ">
<polygon fill="#ffffff" stroke="#000000" points="173.2428,-224.5 173.2428,-243.5 273.2428,-243.5 273.2428,-224.5 173.2428,-224.5"/>
<text text-anchor="middle" x="223.2428" y="-231.5" font-family="Helvetica,sans-Serif" font-size="10.00" fill="#000000">cantera/base/xml.h</text>
</a>
</g>
</g>
<!-- Node36&#45;&gt;Node37 -->
<g id="edge28" class="edge">
<title>Node36&#45;&gt;Node37</title>
<path fill="none" stroke="#191970" d="M393.5108,-336.2966C381.9115,-322.2709 358.7395,-296.2383 334.2428,-280 312.8323,-265.8075 286.3365,-254.6253 264.6016,-246.8412"/>
<polygon fill="#191970" stroke="#191970" points="265.5804,-243.4762 254.9856,-243.5052 263.2861,-250.0895 265.5804,-243.4762"/>
</g>
<!-- Node38 -->
<g id="node22" class="node">
<title>Node38</title>
<g id="a_node22"><a xlink:href="FactoryBase_8h.html" target="_top" xlink:title="File contains the FactoryBase class declarations. ">
<polygon fill="#ffffff" stroke="#000000" points="15.2428,-224.5 15.2428,-243.5 155.2428,-243.5 155.2428,-224.5 15.2428,-224.5"/>
<text text-anchor="middle" x="85.2428" y="-231.5" font-family="Helvetica,sans-Serif" font-size="10.00" fill="#000000">cantera/base/FactoryBase.h</text>
</a>
</g>
</g>
<!-- Node36&#45;&gt;Node38 -->
<g id="edge31" class="edge">
<title>Node36&#45;&gt;Node38</title>
<path fill="none" stroke="#191970" d="M386.996,-336.2718C365.4475,-321.9747 322.867,-295.3288 283.2428,-280 242.3034,-264.1624 194.4038,-252.8556 155.9725,-245.4155"/>
<polygon fill="#191970" stroke="#191970" points="156.3842,-241.9315 145.9081,-243.5131 155.084,-248.8097 156.3842,-241.9315"/>
</g>
<!-- Node37&#45;&gt;Node5 -->
<g id="edge29" class="edge">
<title>Node37&#45;&gt;Node5</title>
<path fill="none" stroke="#191970" d="M245.9344,-224.3733C267.3139,-215.3032 299.5485,-201.6279 323.479,-191.4755"/>
<polygon fill="#191970" stroke="#191970" points="325.0084,-194.6287 332.8473,-187.5011 322.2745,-188.1846 325.0084,-194.6287"/>
</g>
<!-- Node37&#45;&gt;Node26 -->
<g id="edge30" class="edge">
<title>Node37&#45;&gt;Node26</title>
<path fill="none" stroke="#191970" d="M270.2045,-224.4369C317.6641,-214.7724 391.0293,-199.8326 441.6651,-189.5213"/>
<polygon fill="#191970" stroke="#191970" points="442.3743,-192.9488 451.4748,-187.5237 440.9774,-186.0895 442.3743,-192.9488"/>
</g>
<!-- Node38&#45;&gt;Node5 -->
<g id="edge35" class="edge">
<title>Node38&#45;&gt;Node5</title>
<path fill="none" stroke="#191970" d="M131.3507,-224.4369C177.8503,-214.7925 249.6787,-199.8948 299.3828,-189.5858"/>
<polygon fill="#191970" stroke="#191970" points="300.2443,-192.9817 309.3251,-187.5237 298.8226,-186.1275 300.2443,-192.9817"/>
</g>
<!-- Node38&#45;&gt;Node11 -->
<g id="edge32" class="edge">
<title>Node38&#45;&gt;Node11</title>
<path fill="none" stroke="#191970" d="M67.18,-224.4979C46.57,-212.3255 17.2893,-190.1441 30.2428,-168 85.0059,-74.3815 217.8808,-31.9603 279.227,-16.8712"/>
<polygon fill="#191970" stroke="#191970" points="280.205,-20.2364 289.1268,-14.5222 278.5889,-13.4255 280.205,-20.2364"/>
</g>
<!-- Node39 -->
<g id="node23" class="node">
<title>Node39</title>
<polygon fill="#ffffff" stroke="#bfbfbf" points="39.2428,-168.5 39.2428,-187.5 83.2428,-187.5 83.2428,-168.5 39.2428,-168.5"/>
<text text-anchor="middle" x="61.2428" y="-175.5" font-family="Helvetica,sans-Serif" font-size="10.00" fill="#000000">mutex</text>
</g>
<!-- Node38&#45;&gt;Node39 -->
<g id="edge33" class="edge">
<title>Node38&#45;&gt;Node39</title>
<path fill="none" stroke="#191970" d="M81.0623,-224.2455C77.8618,-216.7776 73.3468,-206.2427 69.4344,-197.1137"/>
<polygon fill="#191970" stroke="#191970" points="72.5316,-195.4554 65.3754,-187.6427 66.0976,-198.2129 72.5316,-195.4554"/>
</g>
<!-- Node40 -->
<g id="node24" class="node">
<title>Node40</title>
<polygon fill="#ffffff" stroke="#bfbfbf" points="101.7428,-168.5 101.7428,-187.5 184.7428,-187.5 184.7428,-168.5 101.7428,-168.5"/>
<text text-anchor="middle" x="143.2428" y="-175.5" font-family="Helvetica,sans-Serif" font-size="10.00" fill="#000000">unordered_map</text>
</g>
<!-- Node38&#45;&gt;Node40 -->
<g id="edge34" class="edge">
<title>Node38&#45;&gt;Node40</title>
<path fill="none" stroke="#191970" d="M95.3456,-224.2455C103.7456,-216.1352 115.8921,-204.4075 125.8512,-194.7919"/>
<polygon fill="#191970" stroke="#191970" points="128.4928,-197.1066 133.2557,-187.6427 123.6306,-192.0707 128.4928,-197.1066"/>
</g>
<!-- Node41&#45;&gt;Node6 -->
<g id="edge38" class="edge">
<title>Node41&#45;&gt;Node6</title>
<path fill="none" stroke="#191970" d="M669.4042,-168.4369C627.4743,-158.8529 562.848,-144.0812 517.7804,-133.78"/>
<polygon fill="#191970" stroke="#191970" points="518.4373,-130.34 507.9088,-131.5237 516.8775,-137.164 518.4373,-130.34"/>
</g>
<!-- Node41&#45;&gt;Node7 -->
<g id="edge37" class="edge">
<title>Node41&#45;&gt;Node7</title>
<path fill="none" stroke="#191970" d="M700.4962,-168.1442C685.7778,-154.8259 658.3112,-130.609 633.2428,-112 618.3447,-100.9407 600.8608,-89.5947 586.9709,-80.9381"/>
<polygon fill="#191970" stroke="#191970" points="588.7743,-77.9382 578.4256,-75.6678 585.0997,-83.8962 588.7743,-77.9382"/>
</g>
<!-- Node41&#45;&gt;Node13 -->
<g id="edge40" class="edge">
<title>Node41&#45;&gt;Node13</title>
<path fill="none" stroke="#191970" d="M707.1088,-168.4862C695.4693,-141.6994 662.253,-65.2565 646.5982,-29.2289"/>
<polygon fill="#191970" stroke="#191970" points="649.7086,-27.6046 642.5132,-19.8279 643.2885,-30.3943 649.7086,-27.6046"/>
</g>
<!-- Node42 -->
<g id="node26" class="node">
<title>Node42</title>
<polygon fill="#ffffff" stroke="#bfbfbf" points="723.7428,-112.5 723.7428,-131.5 852.7428,-131.5 852.7428,-112.5 723.7428,-112.5"/>
<text text-anchor="middle" x="788.2428" y="-119.5" font-family="Helvetica,sans-Serif" font-size="10.00" fill="#000000">boost/algorithm/string.hpp</text>
</g>
<!-- Node41&#45;&gt;Node42 -->
<g id="edge39" class="edge">
<title>Node41&#45;&gt;Node42</title>
<path fill="none" stroke="#191970" d="M724.6552,-168.2455C736.2485,-159.814 753.2175,-147.4729 766.7106,-137.6598"/>
<polygon fill="#191970" stroke="#191970" points="768.9553,-140.355 774.9841,-131.6427 764.8381,-134.6938 768.9553,-140.355"/>
</g>
<!-- Node43&#45;&gt;Node7 -->
<g id="edge42" class="edge">
<title>Node43&#45;&gt;Node7</title>
<path fill="none" stroke="#191970" d="M171.6781,-286.3869C114.2167,-281.1614 26.6682,-269.2091 6.2428,-244 -11.3793,-222.2508 12.062,-182.6321 30.2428,-168 106.9059,-106.3007 413.7666,-77.3124 523.215,-68.7867"/>
<polygon fill="#191970" stroke="#191970" points="523.7721,-72.2544 533.4763,-68.0026 523.2387,-65.2748 523.7721,-72.2544"/>
</g>
<!-- Node43&#45;&gt;Node37 -->
<g id="edge43" class="edge">
<title>Node43&#45;&gt;Node37</title>
<path fill="none" stroke="#191970" d="M223.2428,-280.2455C223.2428,-272.9382 223.2428,-262.6944 223.2428,-253.7046"/>
<polygon fill="#191970" stroke="#191970" points="226.7429,-253.6426 223.2428,-243.6427 219.7429,-253.6427 226.7429,-253.6426"/>
</g>
</g>
</svg>
