<?xml version="1.0" encoding="UTF-8" standalone="no"?>
<!DOCTYPE svg PUBLIC "-//W3C//DTD SVG 1.1//EN"
 "http://www.w3.org/Graphics/SVG/1.1/DTD/svg11.dtd">
<!-- Generated by graphviz version 2.40.1 (20161225.0304)
 -->
<!-- Title: refine.cpp Pages: 1 -->
<svg width="983pt" height="476pt"
 viewBox="0.00 0.00 983.00 476.00" xmlns="http://www.w3.org/2000/svg" xmlns:xlink="http://www.w3.org/1999/xlink">
<g id="graph0" class="graph" transform="scale(1 1) rotate(0) translate(4 472)">
<title>refine.cpp</title>
<polygon fill="#ffffff" stroke="transparent" points="-4,4 -4,-472 979,-472 979,4 -4,4"/>
<!-- Node0 -->
<g id="node1" class="node">
<title>Node0</title>
<polygon fill="#bfbfbf" stroke="#000000" points="235.5,-448.5 235.5,-467.5 294.5,-467.5 294.5,-448.5 235.5,-448.5"/>
<text text-anchor="middle" x="265" y="-455.5" font-family="Helvetica,sans-Serif" font-size="10.00" fill="#000000">refine.cpp</text>
</g>
<!-- Node1 -->
<g id="node2" class="node">
<title>Node1</title>
<g id="a_node2"><a xlink:href="refine_8h_source.html" target="_top" xlink:title="cantera/oneD/refine.h">
<polygon fill="#ffffff" stroke="#000000" points="0,-168.5 0,-187.5 110,-187.5 110,-168.5 0,-168.5"/>
<text text-anchor="middle" x="55" y="-175.5" font-family="Helvetica,sans-Serif" font-size="10.00" fill="#000000">cantera/oneD/refine.h</text>
</a>
</g>
</g>
<!-- Node0&#45;&gt;Node1 -->
<g id="edge1" class="edge">
<title>Node0&#45;&gt;Node1</title>
<path fill="none" stroke="#191970" d="M235.4991,-451.614C168.3753,-436.2335 10,-394.7759 10,-346 10,-346 10,-346 10,-290 10,-254.7698 29.4078,-217.5087 42.7324,-196.0783"/>
<polygon fill="#191970" stroke="#191970" points="45.6822,-197.9621 48.1655,-187.6623 39.8012,-194.1655 45.6822,-197.9621"/>
</g>
<!-- Node11 -->
<g id="node12" class="node">
<title>Node11</title>
<g id="a_node12"><a xlink:href="StFlow_8h.html" target="_top" xlink:title="cantera/oneD/StFlow.h">
<polygon fill="#ffffff" stroke="#000000" points="486.5,-392.5 486.5,-411.5 603.5,-411.5 603.5,-392.5 486.5,-392.5"/>
<text text-anchor="middle" x="545" y="-399.5" font-family="Helvetica,sans-Serif" font-size="10.00" fill="#000000">cantera/oneD/StFlow.h</text>
</a>
</g>
</g>
<!-- Node0&#45;&gt;Node11 -->
<g id="edge11" class="edge">
<title>Node0&#45;&gt;Node11</title>
<path fill="none" stroke="#191970" d="M294.6998,-452.06C340.4683,-442.9063 429.0679,-425.1864 487.6292,-413.4742"/>
<polygon fill="#191970" stroke="#191970" points="488.3577,-416.8979 497.477,-411.5046 486.9848,-410.0338 488.3577,-416.8979"/>
</g>
<!-- Node2 -->
<g id="node3" class="node">
<title>Node2</title>
<g id="a_node3"><a xlink:href="ct__defs_8h.html" target="_top" xlink:title="This file contains definitions of terms that are used in internal routines and are unlikely to need m...">
<polygon fill="#ffffff" stroke="#000000" points="360,-56.5 360,-75.5 476,-75.5 476,-56.5 360,-56.5"/>
<text text-anchor="middle" x="418" y="-63.5" font-family="Helvetica,sans-Serif" font-size="10.00" fill="#000000">cantera/base/ct_defs.h</text>
</a>
</g>
</g>
<!-- Node1&#45;&gt;Node2 -->
<g id="edge2" class="edge">
<title>Node1&#45;&gt;Node2</title>
<path fill="none" stroke="#191970" d="M61.1477,-168.4724C71.2598,-153.6759 92.9063,-125.4759 119,-112 158.0532,-91.8313 273.855,-78.3719 349.3517,-71.4702"/>
<polygon fill="#191970" stroke="#191970" points="350.0776,-74.9192 359.725,-70.5398 349.4523,-67.9472 350.0776,-74.9192"/>
</g>
<!-- Node3 -->
<g id="node4" class="node">
<title>Node3</title>
<g id="a_node4"><a xlink:href="config_8h_source.html" target="_top" xlink:title="config.h">
<polygon fill="#ffffff" stroke="#000000" points="462.5,-.5 462.5,-19.5 513.5,-19.5 513.5,-.5 462.5,-.5"/>
<text text-anchor="middle" x="488" y="-7.5" font-family="Helvetica,sans-Serif" font-size="10.00" fill="#000000">config.h</text>
</a>
</g>
</g>
<!-- Node2&#45;&gt;Node3 -->
<g id="edge3" class="edge">
<title>Node2&#45;&gt;Node3</title>
<path fill="none" stroke="#191970" d="M430.1931,-56.2455C440.6321,-47.8943 455.8655,-35.7076 468.074,-25.9408"/>
<polygon fill="#191970" stroke="#191970" points="470.3244,-28.6227 475.9467,-19.6427 465.9515,-23.1566 470.3244,-28.6227"/>
</g>
<!-- Node4 -->
<g id="node5" class="node">
<title>Node4</title>
<polygon fill="#ffffff" stroke="#bfbfbf" points="532,-.5 532,-19.5 576,-19.5 576,-.5 532,-.5"/>
<text text-anchor="middle" x="554" y="-7.5" font-family="Helvetica,sans-Serif" font-size="10.00" fill="#000000">cmath</text>
</g>
<!-- Node2&#45;&gt;Node4 -->
<g id="edge4" class="edge">
<title>Node2&#45;&gt;Node4</title>
<path fill="none" stroke="#191970" d="M441.3792,-56.3733C463.7727,-47.1524 497.725,-33.1721 522.4958,-22.9723"/>
<polygon fill="#191970" stroke="#191970" points="523.9123,-26.1742 531.8264,-19.1303 521.247,-19.7015 523.9123,-26.1742"/>
</g>
<!-- Node5 -->
<g id="node6" class="node">
<title>Node5</title>
<polygon fill="#ffffff" stroke="#bfbfbf" points="594.5,-.5 594.5,-19.5 639.5,-19.5 639.5,-.5 594.5,-.5"/>
<text text-anchor="middle" x="617" y="-7.5" font-family="Helvetica,sans-Serif" font-size="10.00" fill="#000000">cstdlib</text>
</g>
<!-- Node2&#45;&gt;Node5 -->
<g id="edge5" class="edge">
<title>Node2&#45;&gt;Node5</title>
<path fill="none" stroke="#191970" d="M453.9346,-56.4816C485.7706,-47.9646 533.7397,-34.927 584.4651,-20.0883"/>
<polygon fill="#191970" stroke="#191970" points="585.6957,-23.3747 594.3034,-17.1975 583.7223,-16.6586 585.6957,-23.3747"/>
</g>
<!-- Node6 -->
<g id="node7" class="node">
<title>Node6</title>
<polygon fill="#ffffff" stroke="#bfbfbf" points="202,-.5 202,-19.5 246,-19.5 246,-.5 202,-.5"/>
<text text-anchor="middle" x="224" y="-7.5" font-family="Helvetica,sans-Serif" font-size="10.00" fill="#000000">vector</text>
</g>
<!-- Node2&#45;&gt;Node6 -->
<g id="edge6" class="edge">
<title>Node2&#45;&gt;Node6</title>
<path fill="none" stroke="#191970" d="M383.4775,-56.4799C350.628,-47.3543 299.848,-33.0741 256,-20 255.8989,-19.9699 255.7976,-19.9396 255.6962,-19.9093"/>
<polygon fill="#191970" stroke="#191970" points="256.5965,-16.5249 246.0107,-16.9615 254.5583,-23.2216 256.5965,-16.5249"/>
</g>
<!-- Node7 -->
<g id="node8" class="node">
<title>Node7</title>
<polygon fill="#ffffff" stroke="#bfbfbf" points="264.5,-.5 264.5,-19.5 299.5,-19.5 299.5,-.5 264.5,-.5"/>
<text text-anchor="middle" x="282" y="-7.5" font-family="Helvetica,sans-Serif" font-size="10.00" fill="#000000">map</text>
</g>
<!-- Node2&#45;&gt;Node7 -->
<g id="edge7" class="edge">
<title>Node2&#45;&gt;Node7</title>
<path fill="none" stroke="#191970" d="M394.6208,-56.3733C370.8864,-46.6003 334.1674,-31.4807 309.1576,-21.1825"/>
<polygon fill="#191970" stroke="#191970" points="310.4541,-17.9313 299.8746,-17.3601 307.7888,-24.4041 310.4541,-17.9313"/>
</g>
<!-- Node8 -->
<g id="node9" class="node">
<title>Node8</title>
<polygon fill="#ffffff" stroke="#bfbfbf" points="121.5,-.5 121.5,-19.5 162.5,-19.5 162.5,-.5 121.5,-.5"/>
<text text-anchor="middle" x="142" y="-7.5" font-family="Helvetica,sans-Serif" font-size="10.00" fill="#000000">string</text>
</g>
<!-- Node2&#45;&gt;Node8 -->
<g id="edge8" class="edge">
<title>Node2&#45;&gt;Node8</title>
<path fill="none" stroke="#191970" d="M370.8675,-56.4369C314.1852,-44.9361 220.6846,-25.965 172.6215,-16.2131"/>
<polygon fill="#191970" stroke="#191970" points="173.028,-12.7243 162.5317,-14.1658 171.636,-19.5845 173.028,-12.7243"/>
</g>
<!-- Node9 -->
<g id="node10" class="node">
<title>Node9</title>
<polygon fill="#ffffff" stroke="#bfbfbf" points="318,-.5 318,-19.5 374,-19.5 374,-.5 318,-.5"/>
<text text-anchor="middle" x="346" y="-7.5" font-family="Helvetica,sans-Serif" font-size="10.00" fill="#000000">algorithm</text>
</g>
<!-- Node2&#45;&gt;Node9 -->
<g id="edge9" class="edge">
<title>Node2&#45;&gt;Node9</title>
<path fill="none" stroke="#191970" d="M405.4586,-56.2455C394.7213,-47.8943 379.0527,-35.7076 366.4953,-25.9408"/>
<polygon fill="#191970" stroke="#191970" points="368.4401,-23.0194 358.3977,-19.6427 364.1425,-28.5449 368.4401,-23.0194"/>
</g>
<!-- Node10 -->
<g id="node11" class="node">
<title>Node10</title>
<polygon fill="#ffffff" stroke="#bfbfbf" points="392,-.5 392,-19.5 444,-19.5 444,-.5 392,-.5"/>
<text text-anchor="middle" x="418" y="-7.5" font-family="Helvetica,sans-Serif" font-size="10.00" fill="#000000">memory</text>
</g>
<!-- Node2&#45;&gt;Node10 -->
<g id="edge10" class="edge">
<title>Node2&#45;&gt;Node10</title>
<path fill="none" stroke="#191970" d="M418,-56.2455C418,-48.9382 418,-38.6944 418,-29.7046"/>
<polygon fill="#191970" stroke="#191970" points="421.5001,-29.6426 418,-19.6427 414.5001,-29.6427 421.5001,-29.6426"/>
</g>
<!-- Node12 -->
<g id="node13" class="node">
<title>Node12</title>
<g id="a_node13"><a xlink:href="Domain1D_8h.html" target="_top" xlink:title="Domain1D.h">
<polygon fill="#ffffff" stroke="#000000" points="146.5,-224.5 146.5,-243.5 217.5,-243.5 217.5,-224.5 146.5,-224.5"/>
<text text-anchor="middle" x="182" y="-231.5" font-family="Helvetica,sans-Serif" font-size="10.00" fill="#000000">Domain1D.h</text>
</a>
</g>
</g>
<!-- Node11&#45;&gt;Node12 -->
<g id="edge12" class="edge">
<title>Node11&#45;&gt;Node12</title>
<path fill="none" stroke="#191970" d="M524.4435,-392.4862C463.5649,-364.311 283.9832,-281.1988 212.1747,-247.9651"/>
<polygon fill="#191970" stroke="#191970" points="213.3263,-244.6415 202.781,-243.6177 210.3862,-250.9941 213.3263,-244.6415"/>
</g>
<!-- Node21 -->
<g id="node20" class="node">
<title>Node21</title>
<g id="a_node20"><a xlink:href="Array_8h.html" target="_top" xlink:title="Header file for class Cantera::Array2D. ">
<polygon fill="#ffffff" stroke="#000000" points="831.5,-280.5 831.5,-299.5 938.5,-299.5 938.5,-280.5 831.5,-280.5"/>
<text text-anchor="middle" x="885" y="-287.5" font-family="Helvetica,sans-Serif" font-size="10.00" fill="#000000">cantera/base/Array.h</text>
</a>
</g>
</g>
<!-- Node11&#45;&gt;Node21 -->
<g id="edge26" class="edge">
<title>Node11&#45;&gt;Node21</title>
<path fill="none" stroke="#191970" d="M603.6735,-394.5515C667.1917,-385.9224 763.9803,-370.9653 798,-356 825.0434,-344.1036 851.4008,-322.2339 867.8862,-306.9414"/>
<polygon fill="#191970" stroke="#191970" points="870.7328,-309.0636 875.5586,-299.6316 865.9042,-303.9955 870.7328,-309.0636"/>
</g>
<!-- Node27 -->
<g id="node26" class="node">
<title>Node27</title>
<g id="a_node26"><a xlink:href="IdealGasPhase_8h.html" target="_top" xlink:title="ThermoPhase object for the ideal gas equation of state &#45; workhorse for Cantera (see Thermodynamic Pro...">
<polygon fill="#ffffff" stroke="#000000" points="629,-336.5 629,-355.5 789,-355.5 789,-336.5 629,-336.5"/>
<text text-anchor="middle" x="709" y="-343.5" font-family="Helvetica,sans-Serif" font-size="10.00" fill="#000000">cantera/thermo/IdealGasPhase.h</text>
</a>
</g>
</g>
<!-- Node11&#45;&gt;Node27 -->
<g id="edge34" class="edge">
<title>Node11&#45;&gt;Node27</title>
<path fill="none" stroke="#191970" d="M573.1926,-392.3733C600.3453,-383.1016 641.5907,-369.0178 671.5025,-358.804"/>
<polygon fill="#191970" stroke="#191970" points="672.8428,-362.0449 681.1753,-355.5011 670.5808,-355.4204 672.8428,-362.0449"/>
</g>
<!-- Node38 -->
<g id="node31" class="node">
<title>Node38</title>
<g id="a_node31"><a xlink:href="Kinetics_8h.html" target="_top" xlink:title="Base class for kinetics managers and also contains the kineticsmgr module documentation (see Kinetics...">
<polygon fill="#ffffff" stroke="#000000" points="479,-336.5 479,-355.5 611,-355.5 611,-336.5 479,-336.5"/>
<text text-anchor="middle" x="545" y="-343.5" font-family="Helvetica,sans-Serif" font-size="10.00" fill="#000000">cantera/kinetics/Kinetics.h</text>
</a>
</g>
</g>
<!-- Node11&#45;&gt;Node38 -->
<g id="edge41" class="edge">
<title>Node11&#45;&gt;Node38</title>
<path fill="none" stroke="#191970" d="M545,-392.2455C545,-384.9382 545,-374.6944 545,-365.7046"/>
<polygon fill="#191970" stroke="#191970" points="548.5001,-365.6426 545,-355.6427 541.5001,-365.6427 548.5001,-365.6426"/>
</g>
<!-- Node12&#45;&gt;Node1 -->
<g id="edge25" class="edge">
<title>Node12&#45;&gt;Node1</title>
<path fill="none" stroke="#191970" d="M160.1679,-224.3733C139.6897,-215.3435 108.8601,-201.7494 85.8681,-191.6111"/>
<polygon fill="#191970" stroke="#191970" points="87.1093,-188.3333 76.5472,-187.5011 84.285,-194.7383 87.1093,-188.3333"/>
</g>
<!-- Node13 -->
<g id="node14" class="node">
<title>Node13</title>
<g id="a_node14"><a xlink:href="stringUtils_8h.html" target="_top" xlink:title="Contains declarations for string manipulation functions within Cantera. ">
<polygon fill="#ffffff" stroke="#000000" points="128,-168.5 128,-187.5 256,-187.5 256,-168.5 128,-168.5"/>
<text text-anchor="middle" x="192" y="-175.5" font-family="Helvetica,sans-Serif" font-size="10.00" fill="#000000">cantera/base/stringUtils.h</text>
</a>
</g>
</g>
<!-- Node12&#45;&gt;Node13 -->
<g id="edge13" class="edge">
<title>Node12&#45;&gt;Node13</title>
<path fill="none" stroke="#191970" d="M183.7419,-224.2455C185.0467,-216.9382 186.876,-206.6944 188.4813,-197.7046"/>
<polygon fill="#191970" stroke="#191970" points="191.9656,-198.1022 190.2781,-187.6427 185.0746,-196.8717 191.9656,-198.1022"/>
</g>
<!-- Node18 -->
<g id="node17" class="node">
<title>Node18</title>
<g id="a_node17"><a xlink:href="ctexceptions_8h.html" target="_top" xlink:title="Definitions for the classes that are thrown when Cantera experiences an error condition (also contain...">
<polygon fill="#ffffff" stroke="#000000" points="274,-168.5 274,-187.5 414,-187.5 414,-168.5 274,-168.5"/>
<text text-anchor="middle" x="344" y="-175.5" font-family="Helvetica,sans-Serif" font-size="10.00" fill="#000000">cantera/base/ctexceptions.h</text>
</a>
</g>
</g>
<!-- Node12&#45;&gt;Node18 -->
<g id="edge19" class="edge">
<title>Node12&#45;&gt;Node18</title>
<path fill="none" stroke="#191970" d="M209.8488,-224.3733C236.6703,-215.1016 277.4127,-201.0178 306.9598,-190.804"/>
<polygon fill="#191970" stroke="#191970" points="308.2069,-194.0762 316.5146,-187.5011 305.9198,-187.4603 308.2069,-194.0762"/>
</g>
<!-- Node20 -->
<g id="node19" class="node">
<title>Node20</title>
<g id="a_node19"><a xlink:href="global_8h.html" target="_top" xlink:title="This file contains definitions for utility functions and text for modules, inputfiles, logs, textlogs, (see Input File Handling, Diagnostic Output, and Writing messages to the screen). ">
<polygon fill="#ffffff" stroke="#000000" points="536,-168.5 536,-187.5 646,-187.5 646,-168.5 536,-168.5"/>
<text text-anchor="middle" x="591" y="-175.5" font-family="Helvetica,sans-Serif" font-size="10.00" fill="#000000">cantera/base/global.h</text>
</a>
</g>
</g>
<!-- Node12&#45;&gt;Node20 -->
<g id="edge22" class="edge">
<title>Node12&#45;&gt;Node20</title>
<path fill="none" stroke="#191970" d="M217.8017,-225.7292C220.9056,-225.1078 224.0038,-224.5211 227,-224 255.6762,-219.0129 428.964,-197.6973 525.7423,-185.9123"/>
<polygon fill="#191970" stroke="#191970" points="526.2158,-189.3806 535.7197,-184.6981 525.3701,-182.4319 526.2158,-189.3806"/>
</g>
<!-- Node13&#45;&gt;Node2 -->
<g id="edge14" class="edge">
<title>Node13&#45;&gt;Node2</title>
<path fill="none" stroke="#191970" d="M206.9744,-168.3284C228.2614,-154.7958 268.7207,-129.8667 305,-112 330.1598,-99.6094 359.5221,-87.7306 382.0093,-79.1487"/>
<polygon fill="#191970" stroke="#191970" points="383.3852,-82.3705 391.5049,-75.5644 380.9131,-75.8215 383.3852,-82.3705"/>
</g>
<!-- Node13&#45;&gt;Node8 -->
<g id="edge18" class="edge">
<title>Node13&#45;&gt;Node8</title>
<path fill="none" stroke="#191970" d="M164.3041,-168.4275C147.9537,-161.1781 128.6261,-149.4435 119,-132 100.6945,-98.8284 118.3719,-53.6902 131.2479,-28.6589"/>
<polygon fill="#191970" stroke="#191970" points="134.5015,-30.001 136.1899,-19.5416 128.3474,-26.6652 134.5015,-30.001"/>
</g>
<!-- Node14 -->
<g id="node15" class="node">
<title>Node14</title>
<g id="a_node15"><a xlink:href="fmt_8h.html" target="_top" xlink:title="Wrapper for either system&#45;installed or local headers for fmt. ">
<polygon fill="#ffffff" stroke="#ff0000" points="391,-112.5 391,-131.5 489,-131.5 489,-112.5 391,-112.5"/>
<text text-anchor="middle" x="440" y="-119.5" font-family="Helvetica,sans-Serif" font-size="10.00" fill="#000000">cantera/base/fmt.h</text>
</a>
</g>
</g>
<!-- Node13&#45;&gt;Node14 -->
<g id="edge15" class="edge">
<title>Node13&#45;&gt;Node14</title>
<path fill="none" stroke="#191970" d="M234.3509,-168.4369C276.7942,-158.8529 342.2119,-144.0812 387.8313,-133.78"/>
<polygon fill="#191970" stroke="#191970" points="388.8403,-137.1404 397.8237,-131.5237 387.2984,-130.3123 388.8403,-137.1404"/>
</g>
<!-- Node17 -->
<g id="node16" class="node">
<title>Node17</title>
<polygon fill="#ffffff" stroke="#bfbfbf" points="127.5,-112.5 127.5,-131.5 256.5,-131.5 256.5,-112.5 127.5,-112.5"/>
<text text-anchor="middle" x="192" y="-119.5" font-family="Helvetica,sans-Serif" font-size="10.00" fill="#000000">boost/algorithm/string.hpp</text>
</g>
<!-- Node13&#45;&gt;Node17 -->
<g id="edge17" class="edge">
<title>Node13&#45;&gt;Node17</title>
<path fill="none" stroke="#191970" d="M192,-168.2455C192,-160.9382 192,-150.6944 192,-141.7046"/>
<polygon fill="#191970" stroke="#191970" points="195.5001,-141.6426 192,-131.6427 188.5001,-141.6427 195.5001,-141.6426"/>
</g>
<!-- Node14&#45;&gt;Node2 -->
<g id="edge16" class="edge">
<title>Node14&#45;&gt;Node2</title>
<path fill="none" stroke="#191970" d="M436.1679,-112.2455C433.2341,-104.7776 429.0953,-94.2427 425.509,-85.1137"/>
<polygon fill="#191970" stroke="#191970" points="428.7024,-83.6704 421.7882,-75.6427 422.1871,-86.23 428.7024,-83.6704"/>
</g>
<!-- Node18&#45;&gt;Node14 -->
<g id="edge20" class="edge">
<title>Node18&#45;&gt;Node14</title>
<path fill="none" stroke="#191970" d="M360.7219,-168.2455C375.5889,-159.5731 397.5466,-146.7645 414.5858,-136.825"/>
<polygon fill="#191970" stroke="#191970" points="416.5955,-139.7047 423.4697,-131.6427 413.0683,-133.6582 416.5955,-139.7047"/>
</g>
<!-- Node19 -->
<g id="node18" class="node">
<title>Node19</title>
<polygon fill="#ffffff" stroke="#bfbfbf" points="313.5,-112.5 313.5,-131.5 372.5,-131.5 372.5,-112.5 313.5,-112.5"/>
<text text-anchor="middle" x="343" y="-119.5" font-family="Helvetica,sans-Serif" font-size="10.00" fill="#000000">exception</text>
</g>
<!-- Node18&#45;&gt;Node19 -->
<g id="edge21" class="edge">
<title>Node18&#45;&gt;Node19</title>
<path fill="none" stroke="#191970" d="M343.8258,-168.2455C343.6953,-160.9382 343.5124,-150.6944 343.3519,-141.7046"/>
<polygon fill="#191970" stroke="#191970" points="346.8503,-141.5786 343.1722,-131.6427 339.8514,-141.7036 346.8503,-141.5786"/>
</g>
<!-- Node20&#45;&gt;Node2 -->
<g id="edge23" class="edge">
<title>Node20&#45;&gt;Node2</title>
<path fill="none" stroke="#191970" d="M578.3282,-168.422C560.6726,-155.2133 527.5123,-130.8962 498,-112 480.6811,-100.9111 460.6173,-89.3775 444.9152,-80.6331"/>
<polygon fill="#191970" stroke="#191970" points="446.2112,-77.3504 435.7657,-75.5777 442.8258,-83.4774 446.2112,-77.3504"/>
</g>
<!-- Node20&#45;&gt;Node14 -->
<g id="edge24" class="edge">
<title>Node20&#45;&gt;Node14</title>
<path fill="none" stroke="#191970" d="M565.0422,-168.3733C540.2593,-159.1822 502.7254,-145.2624 475.246,-135.0713"/>
<polygon fill="#191970" stroke="#191970" points="476.2121,-131.6968 465.6191,-131.5011 473.7781,-138.26 476.2121,-131.6968"/>
</g>
<!-- Node22 -->
<g id="node21" class="node">
<title>Node22</title>
<g id="a_node21"><a xlink:href="utilities_8h.html" target="_top" xlink:title="Various templated functions that carry out common vector operations (see Templated Utility Functions)...">
<polygon fill="#ffffff" stroke="#000000" points="855,-224.5 855,-243.5 911,-243.5 911,-224.5 855,-224.5"/>
<text text-anchor="middle" x="883" y="-231.5" font-family="Helvetica,sans-Serif" font-size="10.00" fill="#000000">utilities.h</text>
</a>
</g>
</g>
<!-- Node21&#45;&gt;Node22 -->
<g id="edge27" class="edge">
<title>Node21&#45;&gt;Node22</title>
<path fill="none" stroke="#191970" d="M884.6516,-280.2455C884.3907,-272.9382 884.0248,-262.6944 883.7037,-253.7046"/>
<polygon fill="#191970" stroke="#191970" points="887.1992,-253.5113 883.3444,-243.6427 880.2036,-253.7613 887.1992,-253.5113"/>
</g>
<!-- Node25 -->
<g id="node24" class="node">
<title>Node25</title>
<polygon fill="#ffffff" stroke="#bfbfbf" points="443,-168.5 443,-187.5 497,-187.5 497,-168.5 443,-168.5"/>
<text text-anchor="middle" x="470" y="-175.5" font-family="Helvetica,sans-Serif" font-size="10.00" fill="#000000">iostream</text>
</g>
<!-- Node21&#45;&gt;Node25 -->
<g id="edge32" class="edge">
<title>Node21&#45;&gt;Node25</title>
<path fill="none" stroke="#191970" d="M871.988,-280.3298C851.4621,-265.6032 809.7974,-237.8118 770,-224 666.8563,-188.2036 634.7777,-205.4346 527,-188 520.6215,-186.9682 513.8504,-185.8237 507.2866,-184.6882"/>
<polygon fill="#191970" stroke="#191970" points="507.6823,-181.2044 497.2288,-182.9289 506.4761,-188.0997 507.6823,-181.2044"/>
</g>
<!-- Node26 -->
<g id="node25" class="node">
<title>Node26</title>
<polygon fill="#ffffff" stroke="#bfbfbf" points="929,-224.5 929,-243.5 975,-243.5 975,-224.5 929,-224.5"/>
<text text-anchor="middle" x="952" y="-231.5" font-family="Helvetica,sans-Serif" font-size="10.00" fill="#000000">cstring</text>
</g>
<!-- Node21&#45;&gt;Node26 -->
<g id="edge33" class="edge">
<title>Node21&#45;&gt;Node26</title>
<path fill="none" stroke="#191970" d="M896.6705,-280.2455C906.5661,-271.9746 920.9627,-259.9416 932.5901,-250.2232"/>
<polygon fill="#191970" stroke="#191970" points="935.035,-252.7413 940.4632,-243.6427 930.5458,-247.3703 935.035,-252.7413"/>
</g>
<!-- Node22&#45;&gt;Node2 -->
<g id="edge28" class="edge">
<title>Node22&#45;&gt;Node2</title>
<path fill="none" stroke="#191970" d="M888.1473,-224.2773C894.7939,-210.2275 904.0509,-184.1652 891,-168 840.8781,-105.9174 604.6936,-79.8066 486.1785,-70.4669"/>
<polygon fill="#191970" stroke="#191970" points="486.3626,-66.9708 476.1233,-69.6925 485.825,-73.9501 486.3626,-66.9708"/>
</g>
<!-- Node22&#45;&gt;Node20 -->
<g id="edge29" class="edge">
<title>Node22&#45;&gt;Node20</title>
<path fill="none" stroke="#191970" d="M854.5784,-227.0225C850.0454,-225.9704 845.4005,-224.9281 841,-224 778.5846,-210.8366 706.9527,-197.8733 656.4094,-189.0805"/>
<polygon fill="#191970" stroke="#191970" points="656.7241,-185.583 646.2733,-187.3239 655.5287,-192.4802 656.7241,-185.583"/>
</g>
<!-- Node23 -->
<g id="node22" class="node">
<title>Node23</title>
<polygon fill="#ffffff" stroke="#bfbfbf" points="753.5,-168.5 753.5,-187.5 812.5,-187.5 812.5,-168.5 753.5,-168.5"/>
<text text-anchor="middle" x="783" y="-175.5" font-family="Helvetica,sans-Serif" font-size="10.00" fill="#000000">stdexcept</text>
</g>
<!-- Node22&#45;&gt;Node23 -->
<g id="edge30" class="edge">
<title>Node22&#45;&gt;Node23</title>
<path fill="none" stroke="#191970" d="M865.5813,-224.2455C849.9515,-215.4928 826.7981,-202.527 808.9815,-192.5496"/>
<polygon fill="#191970" stroke="#191970" points="810.6543,-189.475 800.2191,-187.6427 807.234,-195.5825 810.6543,-189.475"/>
</g>
<!-- Node24 -->
<g id="node23" class="node">
<title>Node24</title>
<polygon fill="#ffffff" stroke="#bfbfbf" points="830.5,-168.5 830.5,-187.5 881.5,-187.5 881.5,-168.5 830.5,-168.5"/>
<text text-anchor="middle" x="856" y="-175.5" font-family="Helvetica,sans-Serif" font-size="10.00" fill="#000000">numeric</text>
</g>
<!-- Node22&#45;&gt;Node24 -->
<g id="edge31" class="edge">
<title>Node22&#45;&gt;Node24</title>
<path fill="none" stroke="#191970" d="M878.297,-224.2455C874.6576,-216.6973 869.5076,-206.0158 865.0738,-196.8197"/>
<polygon fill="#191970" stroke="#191970" points="868.1449,-195.1303 860.6491,-187.6427 861.8395,-198.1704 868.1449,-195.1303"/>
</g>
<!-- Node28 -->
<g id="node27" class="node">
<title>Node28</title>
<g id="a_node27"><a xlink:href="mix__defs_8h.html" target="_top" xlink:title="mix_defs.h">
<polygon fill="#ffffff" stroke="#000000" points="748.5,-280.5 748.5,-299.5 813.5,-299.5 813.5,-280.5 748.5,-280.5"/>
<text text-anchor="middle" x="781" y="-287.5" font-family="Helvetica,sans-Serif" font-size="10.00" fill="#000000">mix_defs.h</text>
</a>
</g>
</g>
<!-- Node27&#45;&gt;Node28 -->
<g id="edge35" class="edge">
<title>Node27&#45;&gt;Node28</title>
<path fill="none" stroke="#191970" d="M721.5414,-336.2455C732.2787,-327.8943 747.9473,-315.7076 760.5047,-305.9408"/>
<polygon fill="#191970" stroke="#191970" points="762.8575,-308.5449 768.6023,-299.6427 758.5599,-303.0194 762.8575,-308.5449"/>
</g>
<!-- Node29 -->
<g id="node28" class="node">
<title>Node29</title>
<g id="a_node28"><a xlink:href="ThermoPhase_8h.html" target="_top" xlink:title="Header file for class ThermoPhase, the base class for phases with thermodynamic properties, and the text for the Module thermoprops (see Thermodynamic Properties and class ThermoPhase). ">
<polygon fill="#ffffff" stroke="#000000" points="644,-280.5 644,-299.5 730,-299.5 730,-280.5 644,-280.5"/>
<text text-anchor="middle" x="687" y="-287.5" font-family="Helvetica,sans-Serif" font-size="10.00" fill="#000000">ThermoPhase.h</text>
</a>
</g>
</g>
<!-- Node27&#45;&gt;Node29 -->
<g id="edge36" class="edge">
<title>Node27&#45;&gt;Node29</title>
<path fill="none" stroke="#191970" d="M705.1679,-336.2455C702.2341,-328.7776 698.0953,-318.2427 694.509,-309.1137"/>
<polygon fill="#191970" stroke="#191970" points="697.7024,-307.6704 690.7882,-299.6427 691.1871,-310.23 697.7024,-307.6704"/>
</g>
<!-- Node29&#45;&gt;Node20 -->
<g id="edge40" class="edge">
<title>Node29&#45;&gt;Node20</title>
<path fill="none" stroke="#191970" d="M716.9518,-280.4247C747.7797,-268.9793 788.8412,-248.2953 770,-224 755.924,-205.8493 701.6052,-193.6129 656.4591,-186.3527"/>
<polygon fill="#191970" stroke="#191970" points="656.8132,-182.8658 646.3947,-184.7904 655.7394,-189.783 656.8132,-182.8658"/>
</g>
<!-- Node30 -->
<g id="node29" class="node">
<title>Node30</title>
<g id="a_node29"><a xlink:href="Phase_8h.html" target="_top" xlink:title="Header file for class Phase. ">
<polygon fill="#ffffff" stroke="#ff0000" points="537.5,-224.5 537.5,-243.5 590.5,-243.5 590.5,-224.5 537.5,-224.5"/>
<text text-anchor="middle" x="564" y="-231.5" font-family="Helvetica,sans-Serif" font-size="10.00" fill="#000000">Phase.h</text>
</a>
</g>
</g>
<!-- Node29&#45;&gt;Node30 -->
<g id="edge37" class="edge">
<title>Node29&#45;&gt;Node30</title>
<path fill="none" stroke="#191970" d="M665.8555,-280.3733C646.1108,-271.3838 616.4302,-257.8706 594.1945,-247.7471"/>
<polygon fill="#191970" stroke="#191970" points="595.42,-244.4594 584.8685,-243.5011 592.5194,-250.8302 595.42,-244.4594"/>
</g>
<!-- Node35 -->
<g id="node30" class="node">
<title>Node35</title>
<g id="a_node30"><a xlink:href="MultiSpeciesThermo_8h.html" target="_top" xlink:title="Header for a general species thermodynamic property manager for a phase (see MultiSpeciesThermo). ">
<polygon fill="#ffffff" stroke="#ff0000" points="647,-224.5 647,-243.5 761,-243.5 761,-224.5 647,-224.5"/>
<text text-anchor="middle" x="704" y="-231.5" font-family="Helvetica,sans-Serif" font-size="10.00" fill="#000000">MultiSpeciesThermo.h</text>
</a>
</g>
</g>
<!-- Node29&#45;&gt;Node35 -->
<g id="edge39" class="edge">
<title>Node29&#45;&gt;Node35</title>
<path fill="none" stroke="#191970" d="M689.9612,-280.2455C692.2038,-272.8579 695.3577,-262.4689 698.1081,-253.4087"/>
<polygon fill="#191970" stroke="#191970" points="701.517,-254.2282 701.0728,-243.6427 694.8188,-252.1948 701.517,-254.2282"/>
</g>
<!-- Node30&#45;&gt;Node18 -->
<g id="edge38" class="edge">
<title>Node30&#45;&gt;Node18</title>
<path fill="none" stroke="#191970" d="M537.2846,-226.496C534.1578,-225.6423 531.0106,-224.7943 528,-224 482.6009,-212.0218 430.6898,-199.1157 393.6065,-190.0317"/>
<polygon fill="#191970" stroke="#191970" points="394.1032,-186.5501 383.5581,-187.5748 392.4407,-193.3498 394.1032,-186.5501"/>
</g>
<!-- Node38&#45;&gt;Node20 -->
<g id="edge54" class="edge">
<title>Node38&#45;&gt;Node20</title>
<path fill="none" stroke="#191970" d="M552.4176,-336.2731C565.1504,-318.894 590.6935,-280.8678 600,-244 603.8918,-228.5826 601.0066,-210.6867 597.5016,-197.4226"/>
<polygon fill="#191970" stroke="#191970" points="600.7615,-196.1068 594.5468,-187.5261 594.0541,-198.1095 600.7615,-196.1068"/>
</g>
<!-- Node38&#45;&gt;Node28 -->
<g id="edge46" class="edge">
<title>Node38&#45;&gt;Node28</title>
<path fill="none" stroke="#191970" d="M585.1301,-336.4961C622.2941,-327.6921 679.3736,-314.1637 738.5431,-300.107"/>
<polygon fill="#191970" stroke="#191970" points="739.5213,-303.4721 748.4414,-297.7552 737.9031,-296.6617 739.5213,-303.4721"/>
</g>
<!-- Node38&#45;&gt;Node29 -->
<g id="edge42" class="edge">
<title>Node38&#45;&gt;Node29</title>
<path fill="none" stroke="#191970" d="M569.4107,-336.3733C592.6142,-327.2226 627.7038,-313.3844 653.5142,-303.2057"/>
<polygon fill="#191970" stroke="#191970" points="654.8892,-306.4258 662.9079,-299.5011 652.3211,-299.9139 654.8892,-306.4258"/>
</g>
<!-- Node39 -->
<g id="node32" class="node">
<title>Node39</title>
<g id="a_node32"><a xlink:href="StoichManager_8h.html" target="_top" xlink:title="StoichManager.h">
<polygon fill="#ffffff" stroke="#000000" points="38,-224.5 38,-243.5 128,-243.5 128,-224.5 38,-224.5"/>
<text text-anchor="middle" x="83" y="-231.5" font-family="Helvetica,sans-Serif" font-size="10.00" fill="#000000">StoichManager.h</text>
</a>
</g>
</g>
<!-- Node38&#45;&gt;Node39 -->
<g id="edge43" class="edge">
<title>Node38&#45;&gt;Node39</title>
<path fill="none" stroke="#191970" d="M505.6101,-336.4509C421.4792,-316.0556 224.4158,-268.2826 132.2067,-245.9289"/>
<polygon fill="#191970" stroke="#191970" points="132.8333,-242.4795 122.2902,-243.5249 131.184,-249.2824 132.8333,-242.4795"/>
</g>
<!-- Node40 -->
<g id="node33" class="node">
<title>Node40</title>
<g id="a_node33"><a xlink:href="Reaction_8h.html" target="_top" xlink:title="cantera/kinetics/Reaction.h">
<polygon fill="#ffffff" stroke="#000000" points="422,-280.5 422,-299.5 558,-299.5 558,-280.5 422,-280.5"/>
<text text-anchor="middle" x="490" y="-287.5" font-family="Helvetica,sans-Serif" font-size="10.00" fill="#000000">cantera/kinetics/Reaction.h</text>
</a>
</g>
</g>
<!-- Node38&#45;&gt;Node40 -->
<g id="edge47" class="edge">
<title>Node38&#45;&gt;Node40</title>
<path fill="none" stroke="#191970" d="M535.4197,-336.2455C527.4542,-328.1352 515.9359,-316.4075 506.4921,-306.7919"/>
<polygon fill="#191970" stroke="#191970" points="508.9747,-304.3247 499.4705,-299.6427 503.9805,-309.2297 508.9747,-304.3247"/>
</g>
<!-- Node39&#45;&gt;Node13 -->
<g id="edge44" class="edge">
<title>Node39&#45;&gt;Node13</title>
<path fill="none" stroke="#191970" d="M101.9864,-224.2455C119.1792,-215.4125 144.7238,-202.2887 164.2132,-192.2758"/>
<polygon fill="#191970" stroke="#191970" points="165.9359,-195.3257 173.2312,-187.6427 162.737,-189.0993 165.9359,-195.3257"/>
</g>
<!-- Node39&#45;&gt;Node18 -->
<g id="edge45" class="edge">
<title>Node39&#45;&gt;Node18</title>
<path fill="none" stroke="#191970" d="M127.5709,-224.4369C172.4268,-214.8127 241.6649,-199.957 289.7008,-189.6504"/>
<polygon fill="#191970" stroke="#191970" points="290.5697,-193.0437 299.6129,-187.5237 289.1011,-186.1995 290.5697,-193.0437"/>
</g>
<!-- Node40&#45;&gt;Node22 -->
<g id="edge48" class="edge">
<title>Node40&#45;&gt;Node22</title>
<path fill="none" stroke="#191970" d="M557.1126,-280.4369C639.9351,-268.6352 777.963,-248.9671 844.6347,-239.4668"/>
<polygon fill="#191970" stroke="#191970" points="845.2969,-242.9079 854.7031,-238.0321 844.3093,-235.9779 845.2969,-242.9079"/>
</g>
<!-- Node41 -->
<g id="node34" class="node">
<title>Node41</title>
<g id="a_node34"><a xlink:href="RxnRates_8h.html" target="_top" xlink:title="cantera/kinetics/RxnRates.h">
<polygon fill="#ffffff" stroke="#ff0000" points="235.5,-224.5 235.5,-243.5 376.5,-243.5 376.5,-224.5 235.5,-224.5"/>
<text text-anchor="middle" x="306" y="-231.5" font-family="Helvetica,sans-Serif" font-size="10.00" fill="#000000">cantera/kinetics/RxnRates.h</text>
</a>
</g>
</g>
<!-- Node40&#45;&gt;Node41 -->
<g id="edge49" class="edge">
<title>Node40&#45;&gt;Node41</title>
<path fill="none" stroke="#191970" d="M458.3693,-280.3733C427.6404,-271.021 380.824,-256.7725 347.1978,-246.5385"/>
<polygon fill="#191970" stroke="#191970" points="347.8038,-243.0644 337.218,-243.5011 345.7656,-249.7612 347.8038,-243.0644"/>
</g>
<!-- Node43 -->
<g id="node35" class="node">
<title>Node43</title>
<g id="a_node35"><a xlink:href="Falloff_8h_source.html" target="_top" xlink:title="cantera/kinetics/Falloff.h">
<polygon fill="#ffffff" stroke="#ff0000" points="395,-224.5 395,-243.5 519,-243.5 519,-224.5 395,-224.5"/>
<text text-anchor="middle" x="457" y="-231.5" font-family="Helvetica,sans-Serif" font-size="10.00" fill="#000000">cantera/kinetics/Falloff.h</text>
</a>
</g>
</g>
<!-- Node40&#45;&gt;Node43 -->
<g id="edge53" class="edge">
<title>Node40&#45;&gt;Node43</title>
<path fill="none" stroke="#191970" d="M484.2518,-280.2455C479.7565,-272.617 473.3752,-261.7881 467.9175,-252.5267"/>
<polygon fill="#191970" stroke="#191970" points="470.7747,-250.4811 462.6823,-243.6427 464.7439,-254.035 470.7747,-250.4811"/>
</g>
<!-- Node41&#45;&gt;Node13 -->
<g id="edge51" class="edge">
<title>Node41&#45;&gt;Node13</title>
<path fill="none" stroke="#191970" d="M286.4027,-224.3733C268.2669,-215.4644 241.0865,-202.1127 220.5413,-192.0203"/>
<polygon fill="#191970" stroke="#191970" points="221.8603,-188.7688 211.3416,-187.5011 218.7739,-195.0517 221.8603,-188.7688"/>
</g>
<!-- Node41&#45;&gt;Node18 -->
<g id="edge50" class="edge">
<title>Node41&#45;&gt;Node18</title>
<path fill="none" stroke="#191970" d="M312.6191,-224.2455C317.9046,-216.4564 325.4541,-205.3308 331.8238,-195.9439"/>
<polygon fill="#191970" stroke="#191970" points="334.7379,-197.8827 337.4568,-187.6427 328.9455,-193.9522 334.7379,-197.8827"/>
</g>
<!-- Node41&#45;&gt;Node25 -->
<g id="edge52" class="edge">
<title>Node41&#45;&gt;Node25</title>
<path fill="none" stroke="#191970" d="M334.1926,-224.3733C361.5921,-215.0173 403.3417,-200.7614 433.3154,-190.5264"/>
<polygon fill="#191970" stroke="#191970" points="434.6588,-193.7662 442.9912,-187.2225 432.3967,-187.1418 434.6588,-193.7662"/>
</g>
</g>
</svg>
