<?xml version="1.0" encoding="UTF-8" standalone="no"?>
<!DOCTYPE svg PUBLIC "-//W3C//DTD SVG 1.1//EN"
 "http://www.w3.org/Graphics/SVG/1.1/DTD/svg11.dtd">
<!-- Generated by graphviz version 2.40.1 (20161225.0304)
 -->
<!-- Title: SurfPhase.cpp Pages: 1 -->
<svg width="1168pt" height="532pt"
 viewBox="0.00 0.00 1167.50 532.00" xmlns="http://www.w3.org/2000/svg" xmlns:xlink="http://www.w3.org/1999/xlink">
<g id="graph0" class="graph" transform="scale(1 1) rotate(0) translate(4 528)">
<title>SurfPhase.cpp</title>
<polygon fill="#ffffff" stroke="transparent" points="-4,4 -4,-528 1163.5,-528 1163.5,4 -4,4"/>
<!-- Node0 -->
<g id="node1" class="node">
<title>Node0</title>
<polygon fill="#bfbfbf" stroke="#000000" points="689.5,-504.5 689.5,-523.5 770.5,-523.5 770.5,-504.5 689.5,-504.5"/>
<text text-anchor="middle" x="730" y="-511.5" font-family="Helvetica,sans-Serif" font-size="10.00" fill="#000000">SurfPhase.cpp</text>
</g>
<!-- Node1 -->
<g id="node2" class="node">
<title>Node1</title>
<g id="a_node2"><a xlink:href="SurfPhase_8h.html" target="_top" xlink:title="Header for a simple thermodynamics model of a surface phase derived from ThermoPhase, assuming an ideal solution model (see Thermodynamic Properties and class SurfPhase). ">
<polygon fill="#ffffff" stroke="#000000" points="409.5,-392.5 409.5,-411.5 548.5,-411.5 548.5,-392.5 409.5,-392.5"/>
<text text-anchor="middle" x="479" y="-399.5" font-family="Helvetica,sans-Serif" font-size="10.00" fill="#000000">cantera/thermo/SurfPhase.h</text>
</a>
</g>
</g>
<!-- Node0&#45;&gt;Node1 -->
<g id="edge1" class="edge">
<title>Node0&#45;&gt;Node1</title>
<path fill="none" stroke="#191970" d="M689.375,-508.8211C636.5299,-501.4542 547.7916,-486.7393 521,-468 504.5424,-456.4888 493.0839,-436.2543 486.3405,-421.2152"/>
<polygon fill="#191970" stroke="#191970" points="489.4971,-419.6908 482.4218,-411.8047 483.035,-422.3817 489.4971,-419.6908"/>
</g>
<!-- Node27 -->
<g id="node17" class="node">
<title>Node27</title>
<g id="a_node17"><a xlink:href="EdgePhase_8h.html" target="_top" xlink:title="Declarations for the EdgePhase ThermoPhase object, which models the interface between two surfaces (s...">
<polygon fill="#ffffff" stroke="#000000" points="530.5,-448.5 530.5,-467.5 673.5,-467.5 673.5,-448.5 530.5,-448.5"/>
<text text-anchor="middle" x="602" y="-455.5" font-family="Helvetica,sans-Serif" font-size="10.00" fill="#000000">cantera/thermo/EdgePhase.h</text>
</a>
</g>
</g>
<!-- Node0&#45;&gt;Node27 -->
<g id="edge24" class="edge">
<title>Node0&#45;&gt;Node27</title>
<path fill="none" stroke="#191970" d="M707.996,-504.3733C687.3565,-495.3435 656.2842,-481.7494 633.1111,-471.6111"/>
<polygon fill="#191970" stroke="#191970" points="634.2813,-468.3028 623.7169,-467.5011 631.4755,-474.7159 634.2813,-468.3028"/>
</g>
<!-- Node28 -->
<g id="node18" class="node">
<title>Node28</title>
<g id="a_node18"><a xlink:href="ThermoFactory_8h.html" target="_top" xlink:title="Headers for the factory class that can create known ThermoPhase objects (see Thermodynamic Properties...">
<polygon fill="#ffffff" stroke="#000000" points="566.5,-392.5 566.5,-411.5 725.5,-411.5 725.5,-392.5 566.5,-392.5"/>
<text text-anchor="middle" x="646" y="-399.5" font-family="Helvetica,sans-Serif" font-size="10.00" fill="#000000">cantera/thermo/ThermoFactory.h</text>
</a>
</g>
</g>
<!-- Node0&#45;&gt;Node28 -->
<g id="edge26" class="edge">
<title>Node0&#45;&gt;Node28</title>
<path fill="none" stroke="#191970" d="M723.4777,-504.4749C714.5558,-491.5313 697.9455,-467.7375 683,-448 675.7612,-438.4402 667.4106,-428.0103 660.4766,-419.5024"/>
<polygon fill="#191970" stroke="#191970" points="663.1564,-417.2507 654.1083,-411.7387 657.7442,-421.6901 663.1564,-417.2507"/>
</g>
<!-- Node33 -->
<g id="node23" class="node">
<title>Node33</title>
<g id="a_node23"><a xlink:href="stringUtils_8h.html" target="_top" xlink:title="Contains declarations for string manipulation functions within Cantera. ">
<polygon fill="#ffffff" stroke="#000000" points="1031,-168.5 1031,-187.5 1159,-187.5 1159,-168.5 1031,-168.5"/>
<text text-anchor="middle" x="1095" y="-175.5" font-family="Helvetica,sans-Serif" font-size="10.00" fill="#000000">cantera/base/stringUtils.h</text>
</a>
</g>
</g>
<!-- Node0&#45;&gt;Node33 -->
<g id="edge36" class="edge">
<title>Node0&#45;&gt;Node33</title>
<path fill="none" stroke="#191970" d="M770.7886,-508.1317C855.3599,-494.816 1042,-458.9755 1042,-402 1042,-402 1042,-402 1042,-290 1042,-253.8604 1064.8252,-216.9196 1080.5175,-195.7933"/>
<polygon fill="#191970" stroke="#191970" points="1083.3812,-197.8112 1086.7188,-187.7558 1077.839,-193.5352 1083.3812,-197.8112"/>
</g>
<!-- Node35 -->
<g id="node25" class="node">
<title>Node35</title>
<g id="a_node25"><a xlink:href="ctml_8h.html" target="_top" xlink:title="CTML (&quot;Cantera Markup Language&quot;) is the variant of XML that Cantera uses to store data...">
<polygon fill="#ffffff" stroke="#000000" points="701.5,-280.5 701.5,-299.5 804.5,-299.5 804.5,-280.5 701.5,-280.5"/>
<text text-anchor="middle" x="753" y="-287.5" font-family="Helvetica,sans-Serif" font-size="10.00" fill="#000000">cantera/base/ctml.h</text>
</a>
</g>
</g>
<!-- Node0&#45;&gt;Node35 -->
<g id="edge41" class="edge">
<title>Node0&#45;&gt;Node35</title>
<path fill="none" stroke="#191970" d="M730.9883,-504.375C734.4754,-470.4133 746.2492,-355.7472 750.9937,-309.5392"/>
<polygon fill="#191970" stroke="#191970" points="754.4756,-309.8944 752.0154,-299.5891 747.5122,-309.1793 754.4756,-309.8944"/>
</g>
<!-- Node36 -->
<g id="node26" class="node">
<title>Node36</title>
<g id="a_node26"><a xlink:href="utilities_8h.html" target="_top" xlink:title="Various templated functions that carry out common vector operations (see Templated Utility Functions)...">
<polygon fill="#ffffff" stroke="#000000" points="846.5,-224.5 846.5,-243.5 961.5,-243.5 961.5,-224.5 846.5,-224.5"/>
<text text-anchor="middle" x="904" y="-231.5" font-family="Helvetica,sans-Serif" font-size="10.00" fill="#000000">cantera/base/utilities.h</text>
</a>
</g>
</g>
<!-- Node0&#45;&gt;Node36 -->
<g id="edge44" class="edge">
<title>Node0&#45;&gt;Node36</title>
<path fill="none" stroke="#191970" d="M759.076,-504.4277C798.4865,-489.4059 864,-456.2726 864,-402 864,-402 864,-402 864,-346 864,-311.4432 881.097,-274.1996 892.9358,-252.5529"/>
<polygon fill="#191970" stroke="#191970" points="896.0287,-254.1941 897.9249,-243.7703 889.9422,-250.7365 896.0287,-254.1941"/>
</g>
<!-- Node2 -->
<g id="node3" class="node">
<title>Node2</title>
<g id="a_node3"><a xlink:href="mix__defs_8h.html" target="_top" xlink:title="mix_defs.h">
<polygon fill="#ffffff" stroke="#000000" points="352.5,-336.5 352.5,-355.5 417.5,-355.5 417.5,-336.5 352.5,-336.5"/>
<text text-anchor="middle" x="385" y="-343.5" font-family="Helvetica,sans-Serif" font-size="10.00" fill="#000000">mix_defs.h</text>
</a>
</g>
</g>
<!-- Node1&#45;&gt;Node2 -->
<g id="edge2" class="edge">
<title>Node1&#45;&gt;Node2</title>
<path fill="none" stroke="#191970" d="M462.6264,-392.2455C448.0692,-383.5731 426.569,-370.7645 409.8848,-360.825"/>
<polygon fill="#191970" stroke="#191970" points="411.5683,-357.7539 401.1859,-355.6427 407.9856,-363.7676 411.5683,-357.7539"/>
</g>
<!-- Node3 -->
<g id="node4" class="node">
<title>Node3</title>
<g id="a_node4"><a xlink:href="ThermoPhase_8h.html" target="_top" xlink:title="Header file for class ThermoPhase, the base class for phases with thermodynamic properties, and the text for the Module thermoprops (see Thermodynamic Properties and class ThermoPhase). ">
<polygon fill="#ffffff" stroke="#000000" points="436,-336.5 436,-355.5 522,-355.5 522,-336.5 436,-336.5"/>
<text text-anchor="middle" x="479" y="-343.5" font-family="Helvetica,sans-Serif" font-size="10.00" fill="#000000">ThermoPhase.h</text>
</a>
</g>
</g>
<!-- Node1&#45;&gt;Node3 -->
<g id="edge3" class="edge">
<title>Node1&#45;&gt;Node3</title>
<path fill="none" stroke="#191970" d="M479,-392.2455C479,-384.9382 479,-374.6944 479,-365.7046"/>
<polygon fill="#191970" stroke="#191970" points="482.5001,-365.6426 479,-355.6427 475.5001,-365.6427 482.5001,-365.6426"/>
</g>
<!-- Node4 -->
<g id="node5" class="node">
<title>Node4</title>
<g id="a_node5"><a xlink:href="Phase_8h.html" target="_top" xlink:title="Header file for class Phase. ">
<polygon fill="#ffffff" stroke="#000000" points="227.5,-224.5 227.5,-243.5 280.5,-243.5 280.5,-224.5 227.5,-224.5"/>
<text text-anchor="middle" x="254" y="-231.5" font-family="Helvetica,sans-Serif" font-size="10.00" fill="#000000">Phase.h</text>
</a>
</g>
</g>
<!-- Node3&#45;&gt;Node4 -->
<g id="edge4" class="edge">
<title>Node3&#45;&gt;Node4</title>
<path fill="none" stroke="#191970" d="M437.6971,-336.4153C397.8589,-326.7375 340.7747,-311.6021 321,-300 299.5743,-287.4292 279.9514,-266.4894 267.5557,-251.5679"/>
<polygon fill="#191970" stroke="#191970" points="270.1295,-249.1834 261.1336,-243.5865 264.6757,-253.5717 270.1295,-249.1834"/>
</g>
<!-- Node23 -->
<g id="node14" class="node">
<title>Node23</title>
<g id="a_node14"><a xlink:href="MultiSpeciesThermo_8h.html" target="_top" xlink:title="Header for a general species thermodynamic property manager for a phase (see MultiSpeciesThermo). ">
<polygon fill="#ffffff" stroke="#000000" points="330,-280.5 330,-299.5 444,-299.5 444,-280.5 330,-280.5"/>
<text text-anchor="middle" x="387" y="-287.5" font-family="Helvetica,sans-Serif" font-size="10.00" fill="#000000">MultiSpeciesThermo.h</text>
</a>
</g>
</g>
<!-- Node3&#45;&gt;Node23 -->
<g id="edge16" class="edge">
<title>Node3&#45;&gt;Node23</title>
<path fill="none" stroke="#191970" d="M462.9748,-336.2455C448.8592,-327.6534 428.0737,-315.0014 411.8101,-305.1018"/>
<polygon fill="#191970" stroke="#191970" points="413.2034,-301.8525 402.8415,-299.6427 409.5637,-307.8319 413.2034,-301.8525"/>
</g>
<!-- Node26 -->
<g id="node16" class="node">
<title>Node26</title>
<g id="a_node16"><a xlink:href="global_8h.html" target="_top" xlink:title="This file contains definitions for utility functions and text for modules, inputfiles, logs, textlogs, (see Input File Handling, Diagnostic Output, and Writing messages to the screen). ">
<polygon fill="#ffffff" stroke="#000000" points="478,-168.5 478,-187.5 588,-187.5 588,-168.5 478,-168.5"/>
<text text-anchor="middle" x="533" y="-175.5" font-family="Helvetica,sans-Serif" font-size="10.00" fill="#000000">cantera/base/global.h</text>
</a>
</g>
</g>
<!-- Node3&#45;&gt;Node26 -->
<g id="edge23" class="edge">
<title>Node3&#45;&gt;Node26</title>
<path fill="none" stroke="#191970" d="M478.9214,-336.386C479.0787,-315.1982 481.2919,-263.2491 498,-224 502.4341,-213.5838 509.757,-203.415 516.5616,-195.2983"/>
<polygon fill="#191970" stroke="#191970" points="519.3163,-197.4667 523.3222,-187.6584 514.0741,-192.8278 519.3163,-197.4667"/>
</g>
<!-- Node5 -->
<g id="node6" class="node">
<title>Node5</title>
<g id="a_node6"><a xlink:href="ctexceptions_8h.html" target="_top" xlink:title="Definitions for the classes that are thrown when Cantera experiences an error condition (also contain...">
<polygon fill="#ffffff" stroke="#ff0000" points="320,-168.5 320,-187.5 460,-187.5 460,-168.5 320,-168.5"/>
<text text-anchor="middle" x="390" y="-175.5" font-family="Helvetica,sans-Serif" font-size="10.00" fill="#000000">cantera/base/ctexceptions.h</text>
</a>
</g>
</g>
<!-- Node4&#45;&gt;Node5 -->
<g id="edge5" class="edge">
<title>Node4&#45;&gt;Node5</title>
<path fill="none" stroke="#191970" d="M277.3792,-224.3733C299.5045,-215.2629 332.9134,-201.5062 357.6019,-191.3404"/>
<polygon fill="#191970" stroke="#191970" points="359.0117,-194.5451 366.9258,-187.5011 356.3464,-188.0723 359.0117,-194.5451"/>
</g>
<!-- Node19 -->
<g id="node11" class="node">
<title>Node19</title>
<g id="a_node11"><a xlink:href="Elements_8h.html" target="_top" xlink:title="Contains the getElementWeight function and the definitions of element constraint types. ">
<polygon fill="#ffffff" stroke="#000000" points="0,-112.5 0,-131.5 134,-131.5 134,-112.5 0,-112.5"/>
<text text-anchor="middle" x="67" y="-119.5" font-family="Helvetica,sans-Serif" font-size="10.00" fill="#000000">cantera/thermo/Elements.h</text>
</a>
</g>
</g>
<!-- Node4&#45;&gt;Node19 -->
<g id="edge10" class="edge">
<title>Node4&#45;&gt;Node19</title>
<path fill="none" stroke="#191970" d="M238.0565,-224.4509C205.349,-204.8615 130.4719,-160.0152 91.5346,-136.6945"/>
<polygon fill="#191970" stroke="#191970" points="93.2805,-133.6605 82.9032,-131.5249 89.6838,-139.6658 93.2805,-133.6605"/>
</g>
<!-- Node20 -->
<g id="node12" class="node">
<title>Node20</title>
<g id="a_node12"><a xlink:href="Species_8h.html" target="_top" xlink:title="Declaration for class Cantera::Species. ">
<polygon fill="#ffffff" stroke="#000000" points="152,-112.5 152,-131.5 280,-131.5 280,-112.5 152,-112.5"/>
<text text-anchor="middle" x="216" y="-119.5" font-family="Helvetica,sans-Serif" font-size="10.00" fill="#000000">cantera/thermo/Species.h</text>
</a>
</g>
</g>
<!-- Node4&#45;&gt;Node20 -->
<g id="edge12" class="edge">
<title>Node4&#45;&gt;Node20</title>
<path fill="none" stroke="#191970" d="M250.7601,-224.4509C244.5063,-206.0186 230.6658,-165.2254 222.461,-141.043"/>
<polygon fill="#191970" stroke="#191970" points="225.7591,-139.8701 219.2317,-131.5249 219.1303,-142.1192 225.7591,-139.8701"/>
</g>
<!-- Node21 -->
<g id="node13" class="node">
<title>Node21</title>
<g id="a_node13"><a xlink:href="ValueCache_8h.html" target="_top" xlink:title="cantera/base/ValueCache.h">
<polygon fill="#ffffff" stroke="#ff0000" points="298.5,-112.5 298.5,-131.5 435.5,-131.5 435.5,-112.5 298.5,-112.5"/>
<text text-anchor="middle" x="367" y="-119.5" font-family="Helvetica,sans-Serif" font-size="10.00" fill="#000000">cantera/base/ValueCache.h</text>
</a>
</g>
</g>
<!-- Node4&#45;&gt;Node21 -->
<g id="edge14" class="edge">
<title>Node4&#45;&gt;Node21</title>
<path fill="none" stroke="#191970" d="M255.2581,-224.3608C257.5302,-210.415 263.5081,-184.4811 278,-168 290.7693,-153.4779 309.2339,-142.8934 326.0384,-135.5654"/>
<polygon fill="#191970" stroke="#191970" points="327.7531,-138.6456 335.6851,-131.6219 325.1043,-132.1661 327.7531,-138.6456"/>
</g>
<!-- Node6 -->
<g id="node7" class="node">
<title>Node6</title>
<g id="a_node7"><a xlink:href="fmt_8h.html" target="_top" xlink:title="Wrapper for either system&#45;installed or local headers for fmt. ">
<polygon fill="#ffffff" stroke="#ff0000" points="561,-112.5 561,-131.5 659,-131.5 659,-112.5 561,-112.5"/>
<text text-anchor="middle" x="610" y="-119.5" font-family="Helvetica,sans-Serif" font-size="10.00" fill="#000000">cantera/base/fmt.h</text>
</a>
</g>
</g>
<!-- Node5&#45;&gt;Node6 -->
<g id="edge6" class="edge">
<title>Node5&#45;&gt;Node6</title>
<path fill="none" stroke="#191970" d="M427.8193,-168.3733C465.1938,-158.8598 522.4724,-144.2797 562.8071,-134.0127"/>
<polygon fill="#191970" stroke="#191970" points="563.8466,-137.3598 572.6742,-131.5011 562.1198,-130.5761 563.8466,-137.3598"/>
</g>
<!-- Node7 -->
<g id="node8" class="node">
<title>Node7</title>
<g id="a_node8"><a xlink:href="ct__defs_8h.html" target="_top" xlink:title="This file contains definitions of terms that are used in internal routines and are unlikely to need m...">
<polygon fill="#ffffff" stroke="#ff0000" points="581.5,-56.5 581.5,-75.5 638.5,-75.5 638.5,-56.5 581.5,-56.5"/>
<text text-anchor="middle" x="610" y="-63.5" font-family="Helvetica,sans-Serif" font-size="10.00" fill="#000000">ct_defs.h</text>
</a>
</g>
</g>
<!-- Node6&#45;&gt;Node7 -->
<g id="edge7" class="edge">
<title>Node6&#45;&gt;Node7</title>
<path fill="none" stroke="#191970" d="M610,-112.2455C610,-104.9382 610,-94.6944 610,-85.7046"/>
<polygon fill="#191970" stroke="#191970" points="613.5001,-85.6426 610,-75.6427 606.5001,-85.6427 613.5001,-85.6426"/>
</g>
<!-- Node11 -->
<g id="node9" class="node">
<title>Node11</title>
<polygon fill="#ffffff" stroke="#bfbfbf" points="730,-.5 730,-19.5 774,-19.5 774,-.5 730,-.5"/>
<text text-anchor="middle" x="752" y="-7.5" font-family="Helvetica,sans-Serif" font-size="10.00" fill="#000000">vector</text>
</g>
<!-- Node7&#45;&gt;Node11 -->
<g id="edge8" class="edge">
<title>Node7&#45;&gt;Node11</title>
<path fill="none" stroke="#191970" d="M634.4107,-56.3733C658.1768,-47.0007 694.4121,-32.7107 720.3747,-22.472"/>
<polygon fill="#191970" stroke="#191970" points="721.756,-25.6896 729.7747,-18.7649 719.1879,-19.1777 721.756,-25.6896"/>
</g>
<!-- Node13 -->
<g id="node10" class="node">
<title>Node13</title>
<polygon fill="#ffffff" stroke="#bfbfbf" points="886.5,-.5 886.5,-19.5 927.5,-19.5 927.5,-.5 886.5,-.5"/>
<text text-anchor="middle" x="907" y="-7.5" font-family="Helvetica,sans-Serif" font-size="10.00" fill="#000000">string</text>
</g>
<!-- Node7&#45;&gt;Node13 -->
<g id="edge9" class="edge">
<title>Node7&#45;&gt;Node13</title>
<path fill="none" stroke="#191970" d="M638.7475,-60.5796C694.9369,-49.985 818.8578,-26.6194 876.4572,-15.7589"/>
<polygon fill="#191970" stroke="#191970" points="877.2309,-19.1748 886.4092,-13.8824 875.9338,-12.296 877.2309,-19.1748"/>
</g>
<!-- Node19&#45;&gt;Node7 -->
<g id="edge11" class="edge">
<title>Node19&#45;&gt;Node7</title>
<path fill="none" stroke="#191970" d="M134.1221,-113.0473C137.1214,-112.6854 140.0914,-112.3345 143,-112 301.5944,-93.7602 491.0136,-76.4921 571.1489,-69.3947"/>
<polygon fill="#191970" stroke="#191970" points="571.6157,-72.8672 581.2691,-68.5011 570.9999,-65.8944 571.6157,-72.8672"/>
</g>
<!-- Node20&#45;&gt;Node7 -->
<g id="edge13" class="edge">
<title>Node20&#45;&gt;Node7</title>
<path fill="none" stroke="#191970" d="M280.1798,-112.878C362.5589,-101.1693 502.9389,-81.2168 570.8743,-71.561"/>
<polygon fill="#191970" stroke="#191970" points="571.7276,-74.975 581.1355,-70.1026 570.7425,-68.0446 571.7276,-74.975"/>
</g>
<!-- Node21&#45;&gt;Node7 -->
<g id="edge15" class="edge">
<title>Node21&#45;&gt;Node7</title>
<path fill="none" stroke="#191970" d="M408.4971,-112.4369C454.1473,-101.9167 526.9217,-85.1456 571.3887,-74.8981"/>
<polygon fill="#191970" stroke="#191970" points="572.2799,-78.2845 581.2385,-72.6282 570.7079,-71.4633 572.2799,-78.2845"/>
</g>
<!-- Node24 -->
<g id="node15" class="node">
<title>Node24</title>
<g id="a_node15"><a xlink:href="SpeciesThermoInterpType_8h.html" target="_top" xlink:title="Pure Virtual Base class for individual species reference state thermodynamic managers and text for th...">
<polygon fill="#ffffff" stroke="#ff0000" points="311,-224.5 311,-243.5 451,-243.5 451,-224.5 311,-224.5"/>
<text text-anchor="middle" x="381" y="-231.5" font-family="Helvetica,sans-Serif" font-size="10.00" fill="#000000">SpeciesThermoInterpType.h</text>
</a>
</g>
</g>
<!-- Node23&#45;&gt;Node24 -->
<g id="edge17" class="edge">
<title>Node23&#45;&gt;Node24</title>
<path fill="none" stroke="#191970" d="M385.9549,-280.2455C385.172,-272.9382 384.0744,-262.6944 383.1112,-253.7046"/>
<polygon fill="#191970" stroke="#191970" points="386.5786,-253.2129 382.0331,-243.6427 379.6185,-253.9587 386.5786,-253.2129"/>
</g>
<!-- Node24&#45;&gt;Node5 -->
<g id="edge19" class="edge">
<title>Node24&#45;&gt;Node5</title>
<path fill="none" stroke="#191970" d="M382.5677,-224.2455C383.7421,-216.9382 385.3884,-206.6944 386.8332,-197.7046"/>
<polygon fill="#191970" stroke="#191970" points="390.3191,-198.0714 388.4503,-187.6427 383.4078,-196.9606 390.3191,-198.0714"/>
</g>
<!-- Node24&#45;&gt;Node7 -->
<g id="edge18" class="edge">
<title>Node24&#45;&gt;Node7</title>
<path fill="none" stroke="#191970" d="M356.7658,-224.2935C330.274,-212.2547 293.743,-190.549 311,-168 348.2177,-119.3691 385.8972,-151.344 444,-132 491.7342,-116.108 545.6279,-93.8552 578.708,-79.6841"/>
<polygon fill="#191970" stroke="#191970" points="580.4772,-82.7329 588.2761,-75.5616 577.7074,-76.3042 580.4772,-82.7329"/>
</g>
<!-- Node24&#45;&gt;Node26 -->
<g id="edge20" class="edge">
<title>Node24&#45;&gt;Node26</title>
<path fill="none" stroke="#191970" d="M407.1297,-224.3733C432.0768,-215.1822 469.8592,-201.2624 497.5206,-191.0713"/>
<polygon fill="#191970" stroke="#191970" points="499.0378,-194.2424 507.2112,-187.5011 496.6178,-187.674 499.0378,-194.2424"/>
</g>
<!-- Node26&#45;&gt;Node6 -->
<g id="edge22" class="edge">
<title>Node26&#45;&gt;Node6</title>
<path fill="none" stroke="#191970" d="M546.4124,-168.2455C558.0057,-159.814 574.9748,-147.4729 588.4678,-137.6598"/>
<polygon fill="#191970" stroke="#191970" points="590.7126,-140.355 596.7413,-131.6427 586.5953,-134.6938 590.7126,-140.355"/>
</g>
<!-- Node26&#45;&gt;Node7 -->
<g id="edge21" class="edge">
<title>Node26&#45;&gt;Node7</title>
<path fill="none" stroke="#191970" d="M533.9267,-168.2632C535.6155,-154.6532 540.1866,-129.6326 552,-112 560.3225,-99.5778 573.0598,-88.9457 584.4801,-81.0423"/>
<polygon fill="#191970" stroke="#191970" points="586.4187,-83.9566 592.8617,-75.546 582.58,-78.1029 586.4187,-83.9566"/>
</g>
<!-- Node27&#45;&gt;Node1 -->
<g id="edge25" class="edge">
<title>Node27&#45;&gt;Node1</title>
<path fill="none" stroke="#191970" d="M580.8555,-448.3733C561.1108,-439.3838 531.4302,-425.8706 509.1945,-415.7471"/>
<polygon fill="#191970" stroke="#191970" points="510.42,-412.4594 499.8685,-411.5011 507.5194,-418.8302 510.42,-412.4594"/>
</g>
<!-- Node28&#45;&gt;Node3 -->
<g id="edge27" class="edge">
<title>Node28&#45;&gt;Node3</title>
<path fill="none" stroke="#191970" d="M617.2917,-392.3733C589.6423,-383.1016 547.6424,-369.0178 517.1834,-358.804"/>
<polygon fill="#191970" stroke="#191970" points="517.9276,-355.3621 507.3337,-355.5011 515.7021,-361.9989 517.9276,-355.3621"/>
</g>
<!-- Node29 -->
<g id="node19" class="node">
<title>Node29</title>
<g id="a_node19"><a xlink:href="xml_8h.html" target="_top" xlink:title="Classes providing support for XML data files. ">
<polygon fill="#ffffff" stroke="#000000" points="507,-224.5 507,-243.5 607,-243.5 607,-224.5 507,-224.5"/>
<text text-anchor="middle" x="557" y="-231.5" font-family="Helvetica,sans-Serif" font-size="10.00" fill="#000000">cantera/base/xml.h</text>
</a>
</g>
</g>
<!-- Node28&#45;&gt;Node29 -->
<g id="edge28" class="edge">
<title>Node28&#45;&gt;Node29</title>
<path fill="none" stroke="#191970" d="M640.96,-392.4862C626.7084,-365.5845 585.9247,-288.5994 566.9422,-252.7673"/>
<polygon fill="#191970" stroke="#191970" points="569.9806,-251.026 562.2064,-243.8279 563.795,-254.303 569.9806,-251.026"/>
</g>
<!-- Node30 -->
<g id="node20" class="node">
<title>Node30</title>
<g id="a_node20"><a xlink:href="FactoryBase_8h.html" target="_top" xlink:title="File contains the FactoryBase class declarations. ">
<polygon fill="#ffffff" stroke="#000000" points="625,-224.5 625,-243.5 765,-243.5 765,-224.5 625,-224.5"/>
<text text-anchor="middle" x="695" y="-231.5" font-family="Helvetica,sans-Serif" font-size="10.00" fill="#000000">cantera/base/FactoryBase.h</text>
</a>
</g>
</g>
<!-- Node28&#45;&gt;Node30 -->
<g id="edge31" class="edge">
<title>Node28&#45;&gt;Node30</title>
<path fill="none" stroke="#191970" d="M648.7748,-392.4862C656.5541,-365.8144 678.6924,-289.9117 689.2556,-253.695"/>
<polygon fill="#191970" stroke="#191970" points="692.6935,-254.4079 692.1335,-243.8279 685.9735,-252.4479 692.6935,-254.4079"/>
</g>
<!-- Node29&#45;&gt;Node5 -->
<g id="edge29" class="edge">
<title>Node29&#45;&gt;Node5</title>
<path fill="none" stroke="#191970" d="M528.2917,-224.3733C500.6423,-215.1016 458.6424,-201.0178 428.1834,-190.804"/>
<polygon fill="#191970" stroke="#191970" points="428.9276,-187.3621 418.3337,-187.5011 426.7021,-193.9989 428.9276,-187.3621"/>
</g>
<!-- Node29&#45;&gt;Node26 -->
<g id="edge30" class="edge">
<title>Node29&#45;&gt;Node26</title>
<path fill="none" stroke="#191970" d="M552.8195,-224.2455C549.619,-216.7776 545.104,-206.2427 541.1916,-197.1137"/>
<polygon fill="#191970" stroke="#191970" points="544.2888,-195.4554 537.1326,-187.6427 537.8548,-198.2129 544.2888,-195.4554"/>
</g>
<!-- Node30&#45;&gt;Node5 -->
<g id="edge35" class="edge">
<title>Node30&#45;&gt;Node5</title>
<path fill="none" stroke="#191970" d="M642.9152,-224.4369C590.0588,-214.7321 508.2309,-199.708 452.0491,-189.3926"/>
<polygon fill="#191970" stroke="#191970" points="452.3377,-185.8872 441.87,-187.5237 451.0735,-192.7721 452.3377,-185.8872"/>
</g>
<!-- Node30&#45;&gt;Node11 -->
<g id="edge32" class="edge">
<title>Node30&#45;&gt;Node11</title>
<path fill="none" stroke="#191970" d="M674.2148,-224.3756C660.313,-216.6917 643.1309,-204.4793 635,-188 631.0669,-180.0286 631.7776,-176.2842 635,-168 642.8686,-147.7714 654.4795,-148.9796 668,-132 696.0001,-96.8361 724.9254,-52.8137 740.4584,-28.4239"/>
<polygon fill="#191970" stroke="#191970" points="743.5155,-30.1381 745.9026,-19.8156 737.5993,-26.3964 743.5155,-30.1381"/>
</g>
<!-- Node31 -->
<g id="node21" class="node">
<title>Node31</title>
<polygon fill="#ffffff" stroke="#bfbfbf" points="746,-168.5 746,-187.5 790,-187.5 790,-168.5 746,-168.5"/>
<text text-anchor="middle" x="768" y="-175.5" font-family="Helvetica,sans-Serif" font-size="10.00" fill="#000000">mutex</text>
</g>
<!-- Node30&#45;&gt;Node31 -->
<g id="edge33" class="edge">
<title>Node30&#45;&gt;Node31</title>
<path fill="none" stroke="#191970" d="M707.7156,-224.2455C718.602,-215.8943 734.4883,-203.7076 747.22,-193.9408"/>
<polygon fill="#191970" stroke="#191970" points="749.6261,-196.5063 755.4301,-187.6427 745.3654,-190.9523 749.6261,-196.5063"/>
</g>
<!-- Node32 -->
<g id="node22" class="node">
<title>Node32</title>
<polygon fill="#ffffff" stroke="#bfbfbf" points="644.5,-168.5 644.5,-187.5 727.5,-187.5 727.5,-168.5 644.5,-168.5"/>
<text text-anchor="middle" x="686" y="-175.5" font-family="Helvetica,sans-Serif" font-size="10.00" fill="#000000">unordered_map</text>
</g>
<!-- Node30&#45;&gt;Node32 -->
<g id="edge34" class="edge">
<title>Node30&#45;&gt;Node32</title>
<path fill="none" stroke="#191970" d="M693.4323,-224.2455C692.2579,-216.9382 690.6116,-206.6944 689.1668,-197.7046"/>
<polygon fill="#191970" stroke="#191970" points="692.5922,-196.9606 687.5497,-187.6427 685.6809,-198.0714 692.5922,-196.9606"/>
</g>
<!-- Node33&#45;&gt;Node6 -->
<g id="edge38" class="edge">
<title>Node33&#45;&gt;Node6</title>
<path fill="none" stroke="#191970" d="M1030.9177,-169.1295C1027.904,-168.7413 1024.9197,-168.3629 1022,-168 896.7419,-152.4306 749.7471,-136.6049 669.5825,-128.181"/>
<polygon fill="#191970" stroke="#191970" points="669.5076,-124.654 659.197,-127.0918 668.7774,-131.6158 669.5076,-124.654"/>
</g>
<!-- Node33&#45;&gt;Node7 -->
<g id="edge37" class="edge">
<title>Node33&#45;&gt;Node7</title>
<path fill="none" stroke="#191970" d="M1066.1464,-168.4241C1023.5958,-154.5574 941.3418,-128.7208 870,-112 792.129,-93.7489 699.6291,-79.0081 648.6144,-71.4708"/>
<polygon fill="#191970" stroke="#191970" points="649.0811,-68.0019 638.6797,-70.0167 648.0673,-74.9281 649.0811,-68.0019"/>
</g>
<!-- Node33&#45;&gt;Node13 -->
<g id="edge40" class="edge">
<title>Node33&#45;&gt;Node13</title>
<path fill="none" stroke="#191970" d="M1077.0465,-168.3868C1061.7249,-159.7952 1039.4654,-146.3739 1022,-132 981.7915,-98.9087 941.6172,-52.4851 921.0669,-27.5254"/>
<polygon fill="#191970" stroke="#191970" points="923.6789,-25.1902 914.6486,-19.6491 918.2525,-29.6122 923.6789,-25.1902"/>
</g>
<!-- Node34 -->
<g id="node24" class="node">
<title>Node34</title>
<polygon fill="#ffffff" stroke="#bfbfbf" points="1030.5,-112.5 1030.5,-131.5 1159.5,-131.5 1159.5,-112.5 1030.5,-112.5"/>
<text text-anchor="middle" x="1095" y="-119.5" font-family="Helvetica,sans-Serif" font-size="10.00" fill="#000000">boost/algorithm/string.hpp</text>
</g>
<!-- Node33&#45;&gt;Node34 -->
<g id="edge39" class="edge">
<title>Node33&#45;&gt;Node34</title>
<path fill="none" stroke="#191970" d="M1095,-168.2455C1095,-160.9382 1095,-150.6944 1095,-141.7046"/>
<polygon fill="#191970" stroke="#191970" points="1098.5001,-141.6426 1095,-131.6427 1091.5001,-141.6427 1098.5001,-141.6426"/>
</g>
<!-- Node35&#45;&gt;Node7 -->
<g id="edge42" class="edge">
<title>Node35&#45;&gt;Node7</title>
<path fill="none" stroke="#191970" d="M762.2587,-280.3019C781.482,-258.9464 822.0806,-206.6835 799,-168 766.4968,-113.524 693.7203,-86.4053 648.5559,-74.3419"/>
<polygon fill="#191970" stroke="#191970" points="649.3665,-70.9367 638.8117,-71.8579 647.6372,-77.7197 649.3665,-70.9367"/>
</g>
<!-- Node35&#45;&gt;Node29 -->
<g id="edge43" class="edge">
<title>Node35&#45;&gt;Node29</title>
<path fill="none" stroke="#191970" d="M719.3064,-280.3733C686.2913,-270.9404 635.8427,-256.5265 599.9614,-246.2747"/>
<polygon fill="#191970" stroke="#191970" points="600.8307,-242.8831 590.2539,-243.5011 598.9076,-249.6137 600.8307,-242.8831"/>
</g>
<!-- Node36&#45;&gt;Node7 -->
<g id="edge45" class="edge">
<title>Node36&#45;&gt;Node7</title>
<path fill="none" stroke="#191970" d="M897.9289,-224.1673C892.2146,-214.8792 883.4459,-200.541 876,-188 856.0742,-154.4393 863.6485,-134.8415 832,-112 803.1407,-91.1715 704.2693,-76.8149 648.7041,-70.1805"/>
<polygon fill="#191970" stroke="#191970" points="648.8688,-66.6761 638.5308,-68.9943 648.0581,-73.629 648.8688,-66.6761"/>
</g>
<!-- Node36&#45;&gt;Node26 -->
<g id="edge46" class="edge">
<title>Node36&#45;&gt;Node26</title>
<path fill="none" stroke="#191970" d="M846.4383,-225.3114C779.3182,-215.1801 668.6266,-198.4719 598.3388,-187.8625"/>
<polygon fill="#191970" stroke="#191970" points="598.682,-184.3747 588.2716,-186.3429 597.6372,-191.2963 598.682,-184.3747"/>
</g>
<!-- Node37 -->
<g id="node27" class="node">
<title>Node37</title>
<polygon fill="#ffffff" stroke="#bfbfbf" points="884.5,-168.5 884.5,-187.5 943.5,-187.5 943.5,-168.5 884.5,-168.5"/>
<text text-anchor="middle" x="914" y="-175.5" font-family="Helvetica,sans-Serif" font-size="10.00" fill="#000000">stdexcept</text>
</g>
<!-- Node36&#45;&gt;Node37 -->
<g id="edge47" class="edge">
<title>Node36&#45;&gt;Node37</title>
<path fill="none" stroke="#191970" d="M905.7419,-224.2455C907.0467,-216.9382 908.876,-206.6944 910.4813,-197.7046"/>
<polygon fill="#191970" stroke="#191970" points="913.9656,-198.1022 912.2781,-187.6427 907.0746,-196.8717 913.9656,-198.1022"/>
</g>
<!-- Node38 -->
<g id="node28" class="node">
<title>Node38</title>
<polygon fill="#ffffff" stroke="#bfbfbf" points="961.5,-168.5 961.5,-187.5 1012.5,-187.5 1012.5,-168.5 961.5,-168.5"/>
<text text-anchor="middle" x="987" y="-175.5" font-family="Helvetica,sans-Serif" font-size="10.00" fill="#000000">numeric</text>
</g>
<!-- Node36&#45;&gt;Node38 -->
<g id="edge48" class="edge">
<title>Node36&#45;&gt;Node38</title>
<path fill="none" stroke="#191970" d="M918.4575,-224.2455C931.0732,-215.7337 949.5944,-203.2375 964.2045,-193.3801"/>
<polygon fill="#191970" stroke="#191970" points="966.3761,-196.1371 972.7082,-187.6427 962.4609,-190.3343 966.3761,-196.1371"/>
</g>
</g>
</svg>
