<?xml version="1.0" encoding="UTF-8" standalone="no"?>
<!DOCTYPE svg PUBLIC "-//W3C//DTD SVG 1.1//EN"
 "http://www.w3.org/Graphics/SVG/1.1/DTD/svg11.dtd">
<!-- Generated by graphviz version 2.40.1 (20161225.0304)
 -->
<!-- Title: transport.h Pages: 1 -->
<svg width="663pt" height="476pt"
 viewBox="0.00 0.00 663.50 476.00" xmlns="http://www.w3.org/2000/svg" xmlns:xlink="http://www.w3.org/1999/xlink">
<g id="graph0" class="graph" transform="scale(1 1) rotate(0) translate(4 472)">
<title>transport.h</title>
<polygon fill="#ffffff" stroke="transparent" points="-4,4 -4,-472 659.4955,-472 659.4955,4 -4,4"/>
<!-- Node0 -->
<g id="node1" class="node">
<title>Node0</title>
<polygon fill="#bfbfbf" stroke="#000000" points="209.4955,-448.5 209.4955,-467.5 272.4955,-467.5 272.4955,-448.5 209.4955,-448.5"/>
<text text-anchor="middle" x="240.9955" y="-455.5" font-family="Helvetica,sans-Serif" font-size="10.00" fill="#000000">transport.h</text>
</g>
<!-- Node1 -->
<g id="node2" class="node">
<title>Node1</title>
<g id="a_node2"><a xlink:href="TransportFactory_8h.html" target="_top" xlink:title="Header file defining class TransportFactory (see TransportFactory) ">
<polygon fill="#ffffff" stroke="#000000" points="170.9955,-392.5 170.9955,-411.5 310.9955,-411.5 310.9955,-392.5 170.9955,-392.5"/>
<text text-anchor="middle" x="240.9955" y="-399.5" font-family="Helvetica,sans-Serif" font-size="10.00" fill="#000000">transport/TransportFactory.h</text>
</a>
</g>
</g>
<!-- Node0&#45;&gt;Node1 -->
<g id="edge1" class="edge">
<title>Node0&#45;&gt;Node1</title>
<path fill="none" stroke="#191970" d="M240.9955,-448.2455C240.9955,-440.9382 240.9955,-430.6944 240.9955,-421.7046"/>
<polygon fill="#191970" stroke="#191970" points="244.4956,-421.6426 240.9955,-411.6427 237.4956,-421.6427 244.4956,-421.6426"/>
</g>
<!-- Node2 -->
<g id="node3" class="node">
<title>Node2</title>
<g id="a_node3"><a xlink:href="TransportBase_8h.html" target="_top" xlink:title="Headers for the Transport object, which is the virtual base class for all transport property evaluato...">
<polygon fill="#ffffff" stroke="#000000" points="127.4955,-168.5 127.4955,-187.5 216.4955,-187.5 216.4955,-168.5 127.4955,-168.5"/>
<text text-anchor="middle" x="171.9955" y="-175.5" font-family="Helvetica,sans-Serif" font-size="10.00" fill="#000000">TransportBase.h</text>
</a>
</g>
</g>
<!-- Node1&#45;&gt;Node2 -->
<g id="edge2" class="edge">
<title>Node1&#45;&gt;Node2</title>
<path fill="none" stroke="#191970" d="M221.448,-392.4468C193.0807,-377.3429 141.6428,-344.9772 120.9955,-300 106.8255,-269.1327 98.0911,-254.5195 112.9955,-224 119.3996,-210.8865 131.5477,-200.4229 143.164,-192.8092"/>
<polygon fill="#191970" stroke="#191970" points="145.1054,-195.7252 151.8394,-187.5457 141.4744,-189.7405 145.1054,-195.7252"/>
</g>
<!-- Node27 -->
<g id="node9" class="node">
<title>Node27</title>
<g id="a_node9"><a xlink:href="FactoryBase_8h.html" target="_top" xlink:title="File contains the FactoryBase class declarations. ">
<polygon fill="#ffffff" stroke="#000000" points="399.9955,-336.5 399.9955,-355.5 539.9955,-355.5 539.9955,-336.5 399.9955,-336.5"/>
<text text-anchor="middle" x="469.9955" y="-343.5" font-family="Helvetica,sans-Serif" font-size="10.00" fill="#000000">cantera/base/FactoryBase.h</text>
</a>
</g>
</g>
<!-- Node1&#45;&gt;Node27 -->
<g id="edge8" class="edge">
<title>Node1&#45;&gt;Node27</title>
<path fill="none" stroke="#191970" d="M280.1018,-392.4369C319.1287,-382.8932 379.192,-368.2052 421.2917,-357.9101"/>
<polygon fill="#191970" stroke="#191970" points="422.1682,-361.299 431.0505,-355.5237 420.5053,-354.4993 422.1682,-361.299"/>
</g>
<!-- Node30 -->
<g id="node13" class="node">
<title>Node30</title>
<g id="a_node13"><a xlink:href="LiquidTransportParams_8h.html" target="_top" xlink:title="Header file defining class LiquidTransportParams. ">
<polygon fill="#ffffff" stroke="#000000" points="178.4955,-336.5 178.4955,-355.5 303.4955,-355.5 303.4955,-336.5 178.4955,-336.5"/>
<text text-anchor="middle" x="240.9955" y="-343.5" font-family="Helvetica,sans-Serif" font-size="10.00" fill="#000000">LiquidTransportParams.h</text>
</a>
</g>
</g>
<!-- Node1&#45;&gt;Node30 -->
<g id="edge13" class="edge">
<title>Node1&#45;&gt;Node30</title>
<path fill="none" stroke="#191970" d="M240.9955,-392.2455C240.9955,-384.9382 240.9955,-374.6944 240.9955,-365.7046"/>
<polygon fill="#191970" stroke="#191970" points="244.4956,-365.6426 240.9955,-355.6427 237.4956,-365.6427 244.4956,-365.6426"/>
</g>
<!-- Node3 -->
<g id="node4" class="node">
<title>Node3</title>
<g id="a_node4"><a xlink:href="ThermoPhase_8h.html" target="_top" xlink:title="Header file for class ThermoPhase, the base class for phases with thermodynamic properties, and the text for the Module thermoprops (see Thermodynamic Properties and class ThermoPhase). ">
<polygon fill="#ffffff" stroke="#000000" points="121.9955,-112.5 121.9955,-131.5 275.9955,-131.5 275.9955,-112.5 121.9955,-112.5"/>
<text text-anchor="middle" x="198.9955" y="-119.5" font-family="Helvetica,sans-Serif" font-size="10.00" fill="#000000">cantera/thermo/ThermoPhase.h</text>
</a>
</g>
</g>
<!-- Node2&#45;&gt;Node3 -->
<g id="edge3" class="edge">
<title>Node2&#45;&gt;Node3</title>
<path fill="none" stroke="#191970" d="M176.6986,-168.2455C180.3379,-160.6973 185.4879,-150.0158 189.9217,-140.8197"/>
<polygon fill="#191970" stroke="#191970" points="193.156,-142.1704 194.3464,-131.6427 186.8506,-139.1303 193.156,-142.1704"/>
</g>
<!-- Node4 -->
<g id="node5" class="node">
<title>Node4</title>
<g id="a_node5"><a xlink:href="Phase_8h.html" target="_top" xlink:title="Header file for class Phase. ">
<polygon fill="#ffffff" stroke="#ff0000" points="274.4955,-56.5 274.4955,-75.5 327.4955,-75.5 327.4955,-56.5 274.4955,-56.5"/>
<text text-anchor="middle" x="300.9955" y="-63.5" font-family="Helvetica,sans-Serif" font-size="10.00" fill="#000000">Phase.h</text>
</a>
</g>
</g>
<!-- Node3&#45;&gt;Node4 -->
<g id="edge4" class="edge">
<title>Node3&#45;&gt;Node4</title>
<path fill="none" stroke="#191970" d="M216.7626,-112.2455C232.705,-103.4928 256.3214,-90.527 274.4944,-80.5496"/>
<polygon fill="#191970" stroke="#191970" points="276.3507,-83.5233 283.4321,-75.6427 272.9819,-77.3873 276.3507,-83.5233"/>
</g>
<!-- Node23 -->
<g id="node7" class="node">
<title>Node23</title>
<g id="a_node7"><a xlink:href="MultiSpeciesThermo_8h.html" target="_top" xlink:title="Header for a general species thermodynamic property manager for a phase (see MultiSpeciesThermo). ">
<polygon fill="#ffffff" stroke="#ff0000" points="141.9955,-56.5 141.9955,-75.5 255.9955,-75.5 255.9955,-56.5 141.9955,-56.5"/>
<text text-anchor="middle" x="198.9955" y="-63.5" font-family="Helvetica,sans-Serif" font-size="10.00" fill="#000000">MultiSpeciesThermo.h</text>
</a>
</g>
</g>
<!-- Node3&#45;&gt;Node23 -->
<g id="edge6" class="edge">
<title>Node3&#45;&gt;Node23</title>
<path fill="none" stroke="#191970" d="M198.9955,-112.2455C198.9955,-104.9382 198.9955,-94.6944 198.9955,-85.7046"/>
<polygon fill="#191970" stroke="#191970" points="202.4956,-85.6426 198.9955,-75.6427 195.4956,-85.6427 202.4956,-85.6426"/>
</g>
<!-- Node26 -->
<g id="node8" class="node">
<title>Node26</title>
<g id="a_node8"><a xlink:href="global_8h.html" target="_top" xlink:title="This file contains definitions for utility functions and text for modules, inputfiles, logs, textlogs, (see Input File Handling, Diagnostic Output, and Writing messages to the screen). ">
<polygon fill="#ffffff" stroke="#ff0000" points="13.9955,-56.5 13.9955,-75.5 123.9955,-75.5 123.9955,-56.5 13.9955,-56.5"/>
<text text-anchor="middle" x="68.9955" y="-63.5" font-family="Helvetica,sans-Serif" font-size="10.00" fill="#000000">cantera/base/global.h</text>
</a>
</g>
</g>
<!-- Node3&#45;&gt;Node26 -->
<g id="edge7" class="edge">
<title>Node3&#45;&gt;Node26</title>
<path fill="none" stroke="#191970" d="M176.6477,-112.3733C155.5922,-103.3032 123.846,-89.6279 100.278,-79.4755"/>
<polygon fill="#191970" stroke="#191970" points="101.6205,-76.243 91.0517,-75.5011 98.8511,-82.6719 101.6205,-76.243"/>
</g>
<!-- Node5 -->
<g id="node6" class="node">
<title>Node5</title>
<g id="a_node6"><a xlink:href="ctexceptions_8h.html" target="_top" xlink:title="Definitions for the classes that are thrown when Cantera experiences an error condition (also contain...">
<polygon fill="#ffffff" stroke="#ff0000" points="257.9955,-.5 257.9955,-19.5 397.9955,-19.5 397.9955,-.5 257.9955,-.5"/>
<text text-anchor="middle" x="327.9955" y="-7.5" font-family="Helvetica,sans-Serif" font-size="10.00" fill="#000000">cantera/base/ctexceptions.h</text>
</a>
</g>
</g>
<!-- Node4&#45;&gt;Node5 -->
<g id="edge5" class="edge">
<title>Node4&#45;&gt;Node5</title>
<path fill="none" stroke="#191970" d="M305.6986,-56.2455C309.3379,-48.6973 314.4879,-38.0158 318.9217,-28.8197"/>
<polygon fill="#191970" stroke="#191970" points="322.156,-30.1704 323.3464,-19.6427 315.8506,-27.1303 322.156,-30.1704"/>
</g>
<!-- Node27&#45;&gt;Node5 -->
<g id="edge12" class="edge">
<title>Node27&#45;&gt;Node5</title>
<path fill="none" stroke="#191970" d="M462.1403,-336.3119C455.2117,-327.3557 445.2675,-313.4392 438.9955,-300 426.0864,-272.3394 419.9955,-264.5246 419.9955,-234 419.9955,-234 419.9955,-234 419.9955,-122 419.9955,-79.5397 380.0254,-44.3942 352.7765,-25.3678"/>
<polygon fill="#191970" stroke="#191970" points="354.6955,-22.4405 344.4433,-19.768 350.7912,-28.2506 354.6955,-22.4405"/>
</g>
<!-- Node11 -->
<g id="node10" class="node">
<title>Node11</title>
<polygon fill="#ffffff" stroke="#bfbfbf" points="447.9955,-280.5 447.9955,-299.5 491.9955,-299.5 491.9955,-280.5 447.9955,-280.5"/>
<text text-anchor="middle" x="469.9955" y="-287.5" font-family="Helvetica,sans-Serif" font-size="10.00" fill="#000000">vector</text>
</g>
<!-- Node27&#45;&gt;Node11 -->
<g id="edge9" class="edge">
<title>Node27&#45;&gt;Node11</title>
<path fill="none" stroke="#191970" d="M469.9955,-336.2455C469.9955,-328.9382 469.9955,-318.6944 469.9955,-309.7046"/>
<polygon fill="#191970" stroke="#191970" points="473.4956,-309.6426 469.9955,-299.6427 466.4956,-309.6427 473.4956,-309.6426"/>
</g>
<!-- Node28 -->
<g id="node11" class="node">
<title>Node28</title>
<polygon fill="#ffffff" stroke="#bfbfbf" points="509.9955,-280.5 509.9955,-299.5 553.9955,-299.5 553.9955,-280.5 509.9955,-280.5"/>
<text text-anchor="middle" x="531.9955" y="-287.5" font-family="Helvetica,sans-Serif" font-size="10.00" fill="#000000">mutex</text>
</g>
<!-- Node27&#45;&gt;Node28 -->
<g id="edge10" class="edge">
<title>Node27&#45;&gt;Node28</title>
<path fill="none" stroke="#191970" d="M480.7951,-336.2455C489.8633,-328.0549 503.0162,-316.1749 513.72,-306.5069"/>
<polygon fill="#191970" stroke="#191970" points="516.2447,-308.9429 521.3197,-299.6427 511.5526,-303.7482 516.2447,-308.9429"/>
</g>
<!-- Node29 -->
<g id="node12" class="node">
<title>Node29</title>
<polygon fill="#ffffff" stroke="#bfbfbf" points="572.4955,-280.5 572.4955,-299.5 655.4955,-299.5 655.4955,-280.5 572.4955,-280.5"/>
<text text-anchor="middle" x="613.9955" y="-287.5" font-family="Helvetica,sans-Serif" font-size="10.00" fill="#000000">unordered_map</text>
</g>
<!-- Node27&#45;&gt;Node29 -->
<g id="edge11" class="edge">
<title>Node27&#45;&gt;Node29</title>
<path fill="none" stroke="#191970" d="M494.75,-336.3733C518.2804,-327.2226 553.8642,-313.3844 580.0381,-303.2057"/>
<polygon fill="#191970" stroke="#191970" points="581.5126,-306.3877 589.5641,-299.5011 578.9754,-299.8636 581.5126,-306.3877"/>
</g>
<!-- Node31 -->
<g id="node14" class="node">
<title>Node31</title>
<g id="a_node14"><a xlink:href="TransportParams_8h.html" target="_top" xlink:title="Class that holds the data that is read in from the XML file, and which is used for processing of the ...">
<polygon fill="#ffffff" stroke="#000000" points="252.9955,-224.5 252.9955,-243.5 352.9955,-243.5 352.9955,-224.5 252.9955,-224.5"/>
<text text-anchor="middle" x="302.9955" y="-231.5" font-family="Helvetica,sans-Serif" font-size="10.00" fill="#000000">TransportParams.h</text>
</a>
</g>
</g>
<!-- Node30&#45;&gt;Node31 -->
<g id="edge14" class="edge">
<title>Node30&#45;&gt;Node31</title>
<path fill="none" stroke="#191970" d="M246.2816,-336.4509C256.5767,-317.8533 279.4732,-276.4919 292.8118,-252.3964"/>
<polygon fill="#191970" stroke="#191970" points="295.9417,-253.969 297.7228,-243.5249 289.8175,-250.5787 295.9417,-253.969"/>
</g>
<!-- Node39 -->
<g id="node16" class="node">
<title>Node39</title>
<g id="a_node16"><a xlink:href="LiquidTranInteraction_8h.html" target="_top" xlink:title="Header file defining the class LiquidTranInteraction and classes which derive from LiquidTranInteract...">
<polygon fill="#ffffff" stroke="#000000" points="129.9955,-280.5 129.9955,-299.5 245.9955,-299.5 245.9955,-280.5 129.9955,-280.5"/>
<text text-anchor="middle" x="187.9955" y="-287.5" font-family="Helvetica,sans-Serif" font-size="10.00" fill="#000000">LiquidTranInteraction.h</text>
</a>
</g>
</g>
<!-- Node30&#45;&gt;Node39 -->
<g id="edge18" class="edge">
<title>Node30&#45;&gt;Node39</title>
<path fill="none" stroke="#191970" d="M231.7636,-336.2455C224.1638,-328.2155 213.2078,-316.6394 204.1588,-307.0781"/>
<polygon fill="#191970" stroke="#191970" points="206.5375,-304.4998 197.1216,-299.6427 201.4535,-309.3115 206.5375,-304.4998"/>
</g>
<!-- Node31&#45;&gt;Node2 -->
<g id="edge17" class="edge">
<title>Node31&#45;&gt;Node2</title>
<path fill="none" stroke="#191970" d="M280.4758,-224.3733C259.2583,-215.3032 227.2679,-201.6279 203.5187,-191.4755"/>
<polygon fill="#191970" stroke="#191970" points="204.7922,-188.2136 194.2214,-187.5011 202.0407,-194.6502 204.7922,-188.2136"/>
</g>
<!-- Node32 -->
<g id="node15" class="node">
<title>Node32</title>
<g id="a_node15"><a xlink:href="DenseMatrix_8h.html" target="_top" xlink:title="Headers for the DenseMatrix object, which deals with dense rectangular matrices and description of th...">
<polygon fill="#ffffff" stroke="#ff0000" points="233.9955,-168.5 233.9955,-187.5 391.9955,-187.5 391.9955,-168.5 233.9955,-168.5"/>
<text text-anchor="middle" x="312.9955" y="-175.5" font-family="Helvetica,sans-Serif" font-size="10.00" fill="#000000">cantera/numerics/DenseMatrix.h</text>
</a>
</g>
</g>
<!-- Node31&#45;&gt;Node32 -->
<g id="edge15" class="edge">
<title>Node31&#45;&gt;Node32</title>
<path fill="none" stroke="#191970" d="M304.7374,-224.2455C306.0423,-216.9382 307.8715,-206.6944 309.4769,-197.7046"/>
<polygon fill="#191970" stroke="#191970" points="312.9611,-198.1022 311.2736,-187.6427 306.0701,-196.8717 312.9611,-198.1022"/>
</g>
<!-- Node32&#45;&gt;Node5 -->
<g id="edge16" class="edge">
<title>Node32&#45;&gt;Node5</title>
<path fill="none" stroke="#191970" d="M316.8859,-168.2913C324.6739,-147.7559 341.0973,-98.3271 336.9955,-56 336.1537,-47.3132 334.4376,-37.8313 332.7275,-29.7451"/>
<polygon fill="#191970" stroke="#191970" points="336.0966,-28.7743 330.482,-19.7895 329.2681,-30.3146 336.0966,-28.7743"/>
</g>
<!-- Node39&#45;&gt;Node31 -->
<g id="edge19" class="edge">
<title>Node39&#45;&gt;Node31</title>
<path fill="none" stroke="#191970" d="M207.7647,-280.3733C226.1424,-271.4241 253.7268,-257.9917 274.4848,-247.8835"/>
<polygon fill="#191970" stroke="#191970" points="276.0259,-251.026 283.4843,-243.5011 272.9613,-244.7325 276.0259,-251.026"/>
</g>
<!-- Node40 -->
<g id="node17" class="node">
<title>Node40</title>
<g id="a_node17"><a xlink:href="LiquidTransportData_8h.html" target="_top" xlink:title="Header file defining class LiquidTransportData. ">
<polygon fill="#ffffff" stroke="#ff0000" points="121.4955,-224.5 121.4955,-243.5 234.4955,-243.5 234.4955,-224.5 121.4955,-224.5"/>
<text text-anchor="middle" x="177.9955" y="-231.5" font-family="Helvetica,sans-Serif" font-size="10.00" fill="#000000">LiquidTransportData.h</text>
</a>
</g>
</g>
<!-- Node39&#45;&gt;Node40 -->
<g id="edge20" class="edge">
<title>Node39&#45;&gt;Node40</title>
<path fill="none" stroke="#191970" d="M186.2537,-280.2455C184.9488,-272.9382 183.1195,-262.6944 181.5142,-253.7046"/>
<polygon fill="#191970" stroke="#191970" points="184.9209,-252.8717 179.7174,-243.6427 178.0299,-254.1022 184.9209,-252.8717"/>
</g>
<!-- Node42 -->
<g id="node18" class="node">
<title>Node42</title>
<g id="a_node18"><a xlink:href="xml_8h.html" target="_top" xlink:title="Classes providing support for XML data files. ">
<polygon fill="#ffffff" stroke="#000000" points="3.9955,-112.5 3.9955,-131.5 103.9955,-131.5 103.9955,-112.5 3.9955,-112.5"/>
<text text-anchor="middle" x="53.9955" y="-119.5" font-family="Helvetica,sans-Serif" font-size="10.00" fill="#000000">cantera/base/xml.h</text>
</a>
</g>
</g>
<!-- Node39&#45;&gt;Node42 -->
<g id="edge22" class="edge">
<title>Node39&#45;&gt;Node42</title>
<path fill="none" stroke="#191970" d="M165.6241,-280.4913C149.3364,-272.6512 127.6519,-260.1959 112.9955,-244 85.231,-213.3189 67.7684,-167.2122 59.5572,-141.356"/>
<polygon fill="#191970" stroke="#191970" points="62.8552,-140.1709 56.6014,-131.6186 56.157,-142.2042 62.8552,-140.1709"/>
</g>
<!-- Node40&#45;&gt;Node2 -->
<g id="edge21" class="edge">
<title>Node40&#45;&gt;Node2</title>
<path fill="none" stroke="#191970" d="M176.9504,-224.2455C176.1675,-216.9382 175.0699,-206.6944 174.1067,-197.7046"/>
<polygon fill="#191970" stroke="#191970" points="177.5742,-197.2129 173.0287,-187.6427 170.614,-197.9587 177.5742,-197.2129"/>
</g>
<!-- Node42&#45;&gt;Node5 -->
<g id="edge23" class="edge">
<title>Node42&#45;&gt;Node5</title>
<path fill="none" stroke="#191970" d="M38.1473,-112.4742C18.2025,-99.3261 -11.5588,-75.0789 4.9955,-56 20.7388,-37.8559 157.4519,-23.5591 247.8982,-15.9781"/>
<polygon fill="#191970" stroke="#191970" points="248.1886,-19.4662 257.8662,-15.154 247.6117,-12.49 248.1886,-19.4662"/>
</g>
<!-- Node42&#45;&gt;Node26 -->
<g id="edge24" class="edge">
<title>Node42&#45;&gt;Node26</title>
<path fill="none" stroke="#191970" d="M56.6083,-112.2455C58.5872,-104.8579 61.3699,-94.4689 63.7968,-85.4087"/>
<polygon fill="#191970" stroke="#191970" points="67.2061,-86.2078 66.4127,-75.6427 60.4444,-84.3966 67.2061,-86.2078"/>
</g>
</g>
</svg>
