<?xml version="1.0" encoding="UTF-8" standalone="no"?>
<!DOCTYPE svg PUBLIC "-//W3C//DTD SVG 1.1//EN"
 "http://www.w3.org/Graphics/SVG/1.1/DTD/svg11.dtd">
<!-- Generated by graphviz version 2.40.1 (20161225.0304)
 -->
<!-- Title: TransportParams.h Pages: 1 -->
<svg width="941pt" height="476pt"
 viewBox="0.00 0.00 941.00 476.00" xmlns="http://www.w3.org/2000/svg" xmlns:xlink="http://www.w3.org/1999/xlink">
<g id="graph0" class="graph" transform="scale(1 1) rotate(0) translate(4 472)">
<title>TransportParams.h</title>
<polygon fill="#ffffff" stroke="transparent" points="-4,4 -4,-472 937,-472 937,4 -4,4"/>
<!-- Node0 -->
<g id="node1" class="node">
<title>Node0</title>
<polygon fill="#bfbfbf" stroke="#000000" points="644,-448.5 644,-467.5 744,-467.5 744,-448.5 644,-448.5"/>
<text text-anchor="middle" x="694" y="-455.5" font-family="Helvetica,sans-Serif" font-size="10.00" fill="#000000">TransportParams.h</text>
</g>
<!-- Node1 -->
<g id="node2" class="node">
<title>Node1</title>
<g id="a_node2"><a xlink:href="DenseMatrix_8h.html" target="_top" xlink:title="Headers for the DenseMatrix object, which deals with dense rectangular matrices and description of th...">
<polygon fill="#ffffff" stroke="#000000" points="714,-336.5 714,-355.5 872,-355.5 872,-336.5 714,-336.5"/>
<text text-anchor="middle" x="793" y="-343.5" font-family="Helvetica,sans-Serif" font-size="10.00" fill="#000000">cantera/numerics/DenseMatrix.h</text>
</a>
</g>
</g>
<!-- Node0&#45;&gt;Node1 -->
<g id="edge1" class="edge">
<title>Node0&#45;&gt;Node1</title>
<path fill="none" stroke="#191970" d="M702.4407,-448.4509C719.1719,-429.5227 756.7465,-387.014 777.8602,-363.1279"/>
<polygon fill="#191970" stroke="#191970" points="780.5802,-365.3354 784.5807,-355.5249 775.3354,-360.6994 780.5802,-365.3354"/>
</g>
<!-- Node23 -->
<g id="node24" class="node">
<title>Node23</title>
<g id="a_node24"><a xlink:href="TransportBase_8h.html" target="_top" xlink:title="Headers for the Transport object, which is the virtual base class for all transport property evaluato...">
<polygon fill="#ffffff" stroke="#000000" points="613.5,-392.5 613.5,-411.5 702.5,-411.5 702.5,-392.5 613.5,-392.5"/>
<text text-anchor="middle" x="658" y="-399.5" font-family="Helvetica,sans-Serif" font-size="10.00" fill="#000000">TransportBase.h</text>
</a>
</g>
</g>
<!-- Node0&#45;&gt;Node23 -->
<g id="edge27" class="edge">
<title>Node0&#45;&gt;Node23</title>
<path fill="none" stroke="#191970" d="M687.7293,-448.2455C682.7736,-440.5367 675.717,-429.5598 669.7224,-420.2348"/>
<polygon fill="#191970" stroke="#191970" points="672.5506,-418.1618 664.1989,-411.6427 666.6624,-421.9471 672.5506,-418.1618"/>
</g>
<!-- Node2 -->
<g id="node3" class="node">
<title>Node2</title>
<g id="a_node3"><a xlink:href="ct__defs_8h.html" target="_top" xlink:title="This file contains definitions of terms that are used in internal routines and are unlikely to need m...">
<polygon fill="#ffffff" stroke="#000000" points="619,-56.5 619,-75.5 735,-75.5 735,-56.5 619,-56.5"/>
<text text-anchor="middle" x="677" y="-63.5" font-family="Helvetica,sans-Serif" font-size="10.00" fill="#000000">cantera/base/ct_defs.h</text>
</a>
</g>
</g>
<!-- Node1&#45;&gt;Node2 -->
<g id="edge2" class="edge">
<title>Node1&#45;&gt;Node2</title>
<path fill="none" stroke="#191970" d="M824.4187,-336.45C865.6954,-321.727 933,-289.2492 933,-234 933,-234 933,-234 933,-178 933,-134.0682 804.8602,-96.2381 729.8966,-77.8658"/>
<polygon fill="#191970" stroke="#191970" points="730.6795,-74.4543 720.1374,-75.51 729.0369,-81.2589 730.6795,-74.4543"/>
</g>
<!-- Node11 -->
<g id="node12" class="node">
<title>Node11</title>
<g id="a_node12"><a xlink:href="ctexceptions_8h.html" target="_top" xlink:title="Definitions for the classes that are thrown when Cantera experiences an error condition (also contain...">
<polygon fill="#ffffff" stroke="#000000" points="416,-168.5 416,-187.5 556,-187.5 556,-168.5 416,-168.5"/>
<text text-anchor="middle" x="486" y="-175.5" font-family="Helvetica,sans-Serif" font-size="10.00" fill="#000000">cantera/base/ctexceptions.h</text>
</a>
</g>
</g>
<!-- Node1&#45;&gt;Node11 -->
<g id="edge11" class="edge">
<title>Node1&#45;&gt;Node11</title>
<path fill="none" stroke="#191970" d="M775.8003,-336.4961C749.8558,-322.4851 698.8594,-296.2 653,-280 589.1698,-257.4518 553.8555,-290.86 505,-244 492.5197,-232.0295 488.0822,-212.4393 486.5801,-197.7049"/>
<polygon fill="#191970" stroke="#191970" points="490.0639,-197.341 485.919,-187.5905 483.0788,-197.7976 490.0639,-197.341"/>
</g>
<!-- Node16 -->
<g id="node17" class="node">
<title>Node16</title>
<g id="a_node17"><a xlink:href="Array_8h.html" target="_top" xlink:title="Header file for class Cantera::Array2D. ">
<polygon fill="#ffffff" stroke="#000000" points="747.5,-280.5 747.5,-299.5 854.5,-299.5 854.5,-280.5 747.5,-280.5"/>
<text text-anchor="middle" x="801" y="-287.5" font-family="Helvetica,sans-Serif" font-size="10.00" fill="#000000">cantera/base/Array.h</text>
</a>
</g>
</g>
<!-- Node1&#45;&gt;Node16 -->
<g id="edge17" class="edge">
<title>Node1&#45;&gt;Node16</title>
<path fill="none" stroke="#191970" d="M794.3935,-336.2455C795.4374,-328.9382 796.9008,-318.6944 798.1851,-309.7046"/>
<polygon fill="#191970" stroke="#191970" points="801.673,-310.0372 799.6225,-299.6427 794.7434,-309.0472 801.673,-310.0372"/>
</g>
<!-- Node3 -->
<g id="node4" class="node">
<title>Node3</title>
<g id="a_node4"><a xlink:href="config_8h_source.html" target="_top" xlink:title="config.h">
<polygon fill="#ffffff" stroke="#000000" points="430.5,-.5 430.5,-19.5 481.5,-19.5 481.5,-.5 430.5,-.5"/>
<text text-anchor="middle" x="456" y="-7.5" font-family="Helvetica,sans-Serif" font-size="10.00" fill="#000000">config.h</text>
</a>
</g>
</g>
<!-- Node2&#45;&gt;Node3 -->
<g id="edge3" class="edge">
<title>Node2&#45;&gt;Node3</title>
<path fill="none" stroke="#191970" d="M636.6193,-56.455C600.9355,-47.9214 547.2542,-34.8447 491.3133,-20.0152"/>
<polygon fill="#191970" stroke="#191970" points="492.1489,-16.6158 481.5849,-17.4244 490.3474,-23.38 492.1489,-16.6158"/>
</g>
<!-- Node4 -->
<g id="node5" class="node">
<title>Node4</title>
<polygon fill="#ffffff" stroke="#bfbfbf" points="500,-.5 500,-19.5 544,-19.5 544,-.5 500,-.5"/>
<text text-anchor="middle" x="522" y="-7.5" font-family="Helvetica,sans-Serif" font-size="10.00" fill="#000000">cmath</text>
</g>
<!-- Node2&#45;&gt;Node4 -->
<g id="edge4" class="edge">
<title>Node2&#45;&gt;Node4</title>
<path fill="none" stroke="#191970" d="M650.3546,-56.3733C623.5647,-46.6944 582.2597,-31.7712 553.7783,-21.4812"/>
<polygon fill="#191970" stroke="#191970" points="554.8781,-18.1572 544.2838,-18.0509 552.4995,-24.7407 554.8781,-18.1572"/>
</g>
<!-- Node5 -->
<g id="node6" class="node">
<title>Node5</title>
<polygon fill="#ffffff" stroke="#bfbfbf" points="562.5,-.5 562.5,-19.5 607.5,-19.5 607.5,-.5 562.5,-.5"/>
<text text-anchor="middle" x="585" y="-7.5" font-family="Helvetica,sans-Serif" font-size="10.00" fill="#000000">cstdlib</text>
</g>
<!-- Node2&#45;&gt;Node5 -->
<g id="edge5" class="edge">
<title>Node2&#45;&gt;Node5</title>
<path fill="none" stroke="#191970" d="M660.9748,-56.2455C646.8592,-47.6534 626.0737,-35.0014 609.8101,-25.1018"/>
<polygon fill="#191970" stroke="#191970" points="611.2034,-21.8525 600.8415,-19.6427 607.5637,-27.8319 611.2034,-21.8525"/>
</g>
<!-- Node6 -->
<g id="node7" class="node">
<title>Node6</title>
<polygon fill="#ffffff" stroke="#bfbfbf" points="626,-.5 626,-19.5 670,-19.5 670,-.5 626,-.5"/>
<text text-anchor="middle" x="648" y="-7.5" font-family="Helvetica,sans-Serif" font-size="10.00" fill="#000000">vector</text>
</g>
<!-- Node2&#45;&gt;Node6 -->
<g id="edge6" class="edge">
<title>Node2&#45;&gt;Node6</title>
<path fill="none" stroke="#191970" d="M671.9486,-56.2455C667.9981,-48.617 662.3903,-37.7881 657.5942,-28.5267"/>
<polygon fill="#191970" stroke="#191970" points="660.7001,-26.9131 652.9935,-19.6427 654.4841,-30.1321 660.7001,-26.9131"/>
</g>
<!-- Node7 -->
<g id="node8" class="node">
<title>Node7</title>
<polygon fill="#ffffff" stroke="#bfbfbf" points="688.5,-.5 688.5,-19.5 723.5,-19.5 723.5,-.5 688.5,-.5"/>
<text text-anchor="middle" x="706" y="-7.5" font-family="Helvetica,sans-Serif" font-size="10.00" fill="#000000">map</text>
</g>
<!-- Node2&#45;&gt;Node7 -->
<g id="edge7" class="edge">
<title>Node2&#45;&gt;Node7</title>
<path fill="none" stroke="#191970" d="M682.0514,-56.2455C686.0019,-48.617 691.6097,-37.7881 696.4058,-28.5267"/>
<polygon fill="#191970" stroke="#191970" points="699.5159,-30.1321 701.0065,-19.6427 693.2999,-26.9131 699.5159,-30.1321"/>
</g>
<!-- Node8 -->
<g id="node9" class="node">
<title>Node8</title>
<polygon fill="#ffffff" stroke="#bfbfbf" points="741.5,-.5 741.5,-19.5 782.5,-19.5 782.5,-.5 741.5,-.5"/>
<text text-anchor="middle" x="762" y="-7.5" font-family="Helvetica,sans-Serif" font-size="10.00" fill="#000000">string</text>
</g>
<!-- Node2&#45;&gt;Node8 -->
<g id="edge8" class="edge">
<title>Node2&#45;&gt;Node8</title>
<path fill="none" stroke="#191970" d="M691.8059,-56.2455C704.7256,-47.7337 723.6931,-35.2375 738.6552,-25.3801"/>
<polygon fill="#191970" stroke="#191970" points="740.9387,-28.067 747.3638,-19.6427 737.0876,-22.2216 740.9387,-28.067"/>
</g>
<!-- Node9 -->
<g id="node10" class="node">
<title>Node9</title>
<polygon fill="#ffffff" stroke="#bfbfbf" points="801,-.5 801,-19.5 857,-19.5 857,-.5 801,-.5"/>
<text text-anchor="middle" x="829" y="-7.5" font-family="Helvetica,sans-Serif" font-size="10.00" fill="#000000">algorithm</text>
</g>
<!-- Node2&#45;&gt;Node9 -->
<g id="edge9" class="edge">
<title>Node2&#45;&gt;Node9</title>
<path fill="none" stroke="#191970" d="M703.1297,-56.3733C728.0768,-47.1822 765.8592,-33.2624 793.5206,-23.0713"/>
<polygon fill="#191970" stroke="#191970" points="795.0378,-26.2424 803.2112,-19.5011 792.6178,-19.674 795.0378,-26.2424"/>
</g>
<!-- Node10 -->
<g id="node11" class="node">
<title>Node10</title>
<polygon fill="#ffffff" stroke="#bfbfbf" points="875,-.5 875,-19.5 927,-19.5 927,-.5 875,-.5"/>
<text text-anchor="middle" x="901" y="-7.5" font-family="Helvetica,sans-Serif" font-size="10.00" fill="#000000">memory</text>
</g>
<!-- Node2&#45;&gt;Node10 -->
<g id="edge10" class="edge">
<title>Node2&#45;&gt;Node10</title>
<path fill="none" stroke="#191970" d="M718.4125,-56.4183C754.6854,-47.9143 809.0453,-34.9025 864.9439,-20.2129"/>
<polygon fill="#191970" stroke="#191970" points="865.8829,-23.5849 874.6575,-17.6471 864.0952,-16.817 865.8829,-23.5849"/>
</g>
<!-- Node12 -->
<g id="node13" class="node">
<title>Node12</title>
<g id="a_node13"><a xlink:href="fmt_8h.html" target="_top" xlink:title="Wrapper for either system&#45;installed or local headers for fmt. ">
<polygon fill="#ffffff" stroke="#000000" points="532,-112.5 532,-131.5 630,-131.5 630,-112.5 532,-112.5"/>
<text text-anchor="middle" x="581" y="-119.5" font-family="Helvetica,sans-Serif" font-size="10.00" fill="#000000">cantera/base/fmt.h</text>
</a>
</g>
</g>
<!-- Node11&#45;&gt;Node12 -->
<g id="edge12" class="edge">
<title>Node11&#45;&gt;Node12</title>
<path fill="none" stroke="#191970" d="M502.5477,-168.2455C517.2599,-159.5731 538.9888,-146.7645 555.8505,-136.825"/>
<polygon fill="#191970" stroke="#191970" points="557.8046,-139.736 564.6419,-131.6427 554.2498,-133.7057 557.8046,-139.736"/>
</g>
<!-- Node15 -->
<g id="node16" class="node">
<title>Node15</title>
<polygon fill="#ffffff" stroke="#bfbfbf" points="454.5,-112.5 454.5,-131.5 513.5,-131.5 513.5,-112.5 454.5,-112.5"/>
<text text-anchor="middle" x="484" y="-119.5" font-family="Helvetica,sans-Serif" font-size="10.00" fill="#000000">exception</text>
</g>
<!-- Node11&#45;&gt;Node15 -->
<g id="edge16" class="edge">
<title>Node11&#45;&gt;Node15</title>
<path fill="none" stroke="#191970" d="M485.6516,-168.2455C485.3907,-160.9382 485.0248,-150.6944 484.7037,-141.7046"/>
<polygon fill="#191970" stroke="#191970" points="488.1992,-141.5113 484.3444,-131.6427 481.2036,-141.7613 488.1992,-141.5113"/>
</g>
<!-- Node12&#45;&gt;Node2 -->
<g id="edge13" class="edge">
<title>Node12&#45;&gt;Node2</title>
<path fill="none" stroke="#191970" d="M597.7219,-112.2455C612.5889,-103.5731 634.5466,-90.7645 651.5858,-80.825"/>
<polygon fill="#191970" stroke="#191970" points="653.5955,-83.7047 660.4697,-75.6427 650.0683,-77.6582 653.5955,-83.7047"/>
</g>
<!-- Node13 -->
<g id="node14" class="node">
<title>Node13</title>
<polygon fill="#ffffff" stroke="#bfbfbf" points="479,-56.5 479,-75.5 601,-75.5 601,-56.5 479,-56.5"/>
<text text-anchor="middle" x="540" y="-63.5" font-family="Helvetica,sans-Serif" font-size="10.00" fill="#000000">cantera/ext/fmt/format.h</text>
</g>
<!-- Node12&#45;&gt;Node13 -->
<g id="edge14" class="edge">
<title>Node12&#45;&gt;Node13</title>
<path fill="none" stroke="#191970" d="M573.8583,-112.2455C568.1556,-104.4564 560.01,-93.3308 553.1375,-83.9439"/>
<polygon fill="#191970" stroke="#191970" points="555.7913,-81.6437 547.0598,-75.6427 550.1432,-85.7789 555.7913,-81.6437"/>
</g>
<!-- Node14 -->
<g id="node15" class="node">
<title>Node14</title>
<polygon fill="#ffffff" stroke="#bfbfbf" points="331.5,-56.5 331.5,-75.5 460.5,-75.5 460.5,-56.5 331.5,-56.5"/>
<text text-anchor="middle" x="396" y="-63.5" font-family="Helvetica,sans-Serif" font-size="10.00" fill="#000000">cantera/ext/fmt/ostream.h</text>
</g>
<!-- Node12&#45;&gt;Node14 -->
<g id="edge15" class="edge">
<title>Node12&#45;&gt;Node14</title>
<path fill="none" stroke="#191970" d="M549.1974,-112.3733C518.1683,-102.9807 470.8246,-88.6496 436.9853,-78.4064"/>
<polygon fill="#191970" stroke="#191970" points="437.9728,-75.0485 427.3876,-75.5011 435.9447,-81.7483 437.9728,-75.0485"/>
</g>
<!-- Node17 -->
<g id="node18" class="node">
<title>Node17</title>
<g id="a_node18"><a xlink:href="utilities_8h.html" target="_top" xlink:title="Various templated functions that carry out common vector operations (see Templated Utility Functions)...">
<polygon fill="#ffffff" stroke="#000000" points="846,-224.5 846,-243.5 902,-243.5 902,-224.5 846,-224.5"/>
<text text-anchor="middle" x="874" y="-231.5" font-family="Helvetica,sans-Serif" font-size="10.00" fill="#000000">utilities.h</text>
</a>
</g>
</g>
<!-- Node16&#45;&gt;Node17 -->
<g id="edge18" class="edge">
<title>Node16&#45;&gt;Node17</title>
<path fill="none" stroke="#191970" d="M813.7156,-280.2455C824.602,-271.8943 840.4883,-259.7076 853.22,-249.9408"/>
<polygon fill="#191970" stroke="#191970" points="855.6261,-252.5063 861.4301,-243.6427 851.3654,-246.9523 855.6261,-252.5063"/>
</g>
<!-- Node21 -->
<g id="node22" class="node">
<title>Node21</title>
<polygon fill="#ffffff" stroke="#bfbfbf" points="710,-224.5 710,-243.5 764,-243.5 764,-224.5 710,-224.5"/>
<text text-anchor="middle" x="737" y="-231.5" font-family="Helvetica,sans-Serif" font-size="10.00" fill="#000000">iostream</text>
</g>
<!-- Node16&#45;&gt;Node21 -->
<g id="edge25" class="edge">
<title>Node16&#45;&gt;Node21</title>
<path fill="none" stroke="#191970" d="M789.8521,-280.2455C780.4913,-272.0549 766.9142,-260.1749 755.8651,-250.5069"/>
<polygon fill="#191970" stroke="#191970" points="757.8508,-247.5937 748.0202,-243.6427 753.2412,-252.8618 757.8508,-247.5937"/>
</g>
<!-- Node22 -->
<g id="node23" class="node">
<title>Node22</title>
<polygon fill="#ffffff" stroke="#bfbfbf" points="782,-224.5 782,-243.5 828,-243.5 828,-224.5 782,-224.5"/>
<text text-anchor="middle" x="805" y="-231.5" font-family="Helvetica,sans-Serif" font-size="10.00" fill="#000000">cstring</text>
</g>
<!-- Node16&#45;&gt;Node22 -->
<g id="edge26" class="edge">
<title>Node16&#45;&gt;Node22</title>
<path fill="none" stroke="#191970" d="M801.6967,-280.2455C802.2187,-272.9382 802.9504,-262.6944 803.5925,-253.7046"/>
<polygon fill="#191970" stroke="#191970" points="807.0898,-253.8667 804.3112,-243.6427 800.1076,-253.3679 807.0898,-253.8667"/>
</g>
<!-- Node17&#45;&gt;Node2 -->
<g id="edge19" class="edge">
<title>Node17&#45;&gt;Node2</title>
<path fill="none" stroke="#191970" d="M845.7496,-226.187C823.0688,-218.9246 791.2777,-206.4297 768,-188 730.8928,-158.621 701.1629,-110.6288 686.6525,-84.4523"/>
<polygon fill="#191970" stroke="#191970" points="689.6869,-82.7053 681.8529,-75.5723 683.5288,-86.0338 689.6869,-82.7053"/>
</g>
<!-- Node18 -->
<g id="node19" class="node">
<title>Node18</title>
<g id="a_node19"><a xlink:href="global_8h.html" target="_top" xlink:title="This file contains definitions for utility functions and text for modules, inputfiles, logs, textlogs, (see Input File Handling, Diagnostic Output, and Writing messages to the screen). ">
<polygon fill="#ffffff" stroke="#000000" points="670,-168.5 670,-187.5 720,-187.5 720,-168.5 670,-168.5"/>
<text text-anchor="middle" x="695" y="-175.5" font-family="Helvetica,sans-Serif" font-size="10.00" fill="#000000">global.h</text>
</a>
</g>
</g>
<!-- Node17&#45;&gt;Node18 -->
<g id="edge20" class="edge">
<title>Node17&#45;&gt;Node18</title>
<path fill="none" stroke="#191970" d="M845.6369,-225.1266C814.2791,-215.3164 763.7415,-199.5057 729.9596,-188.9371"/>
<polygon fill="#191970" stroke="#191970" points="730.6422,-185.4834 720.0533,-185.8379 728.5521,-192.1641 730.6422,-185.4834"/>
</g>
<!-- Node19 -->
<g id="node20" class="node">
<title>Node19</title>
<polygon fill="#ffffff" stroke="#bfbfbf" points="845.5,-168.5 845.5,-187.5 904.5,-187.5 904.5,-168.5 845.5,-168.5"/>
<text text-anchor="middle" x="875" y="-175.5" font-family="Helvetica,sans-Serif" font-size="10.00" fill="#000000">stdexcept</text>
</g>
<!-- Node17&#45;&gt;Node19 -->
<g id="edge23" class="edge">
<title>Node17&#45;&gt;Node19</title>
<path fill="none" stroke="#191970" d="M874.1742,-224.2455C874.3047,-216.9382 874.4876,-206.6944 874.6481,-197.7046"/>
<polygon fill="#191970" stroke="#191970" points="878.1486,-197.7036 874.8278,-187.6427 871.1497,-197.5786 878.1486,-197.7036"/>
</g>
<!-- Node20 -->
<g id="node21" class="node">
<title>Node20</title>
<polygon fill="#ffffff" stroke="#bfbfbf" points="776.5,-168.5 776.5,-187.5 827.5,-187.5 827.5,-168.5 776.5,-168.5"/>
<text text-anchor="middle" x="802" y="-175.5" font-family="Helvetica,sans-Serif" font-size="10.00" fill="#000000">numeric</text>
</g>
<!-- Node17&#45;&gt;Node20 -->
<g id="edge24" class="edge">
<title>Node17&#45;&gt;Node20</title>
<path fill="none" stroke="#191970" d="M861.4586,-224.2455C850.7213,-215.8943 835.0527,-203.7076 822.4953,-193.9408"/>
<polygon fill="#191970" stroke="#191970" points="824.4401,-191.0194 814.3977,-187.6427 820.1425,-196.5449 824.4401,-191.0194"/>
</g>
<!-- Node18&#45;&gt;Node2 -->
<g id="edge21" class="edge">
<title>Node18&#45;&gt;Node2</title>
<path fill="none" stroke="#191970" d="M693.4653,-168.4509C690.5296,-150.184 684.0642,-109.9553 680.1657,-85.6976"/>
<polygon fill="#191970" stroke="#191970" points="683.5733,-84.8428 678.5308,-75.5249 676.662,-85.9536 683.5733,-84.8428"/>
</g>
<!-- Node18&#45;&gt;Node12 -->
<g id="edge22" class="edge">
<title>Node18&#45;&gt;Node12</title>
<path fill="none" stroke="#191970" d="M675.4027,-168.3733C657.2669,-159.4644 630.0865,-146.1127 609.5413,-136.0203"/>
<polygon fill="#191970" stroke="#191970" points="610.8603,-132.7688 600.3416,-131.5011 607.7739,-139.0517 610.8603,-132.7688"/>
</g>
<!-- Node24 -->
<g id="node25" class="node">
<title>Node24</title>
<g id="a_node25"><a xlink:href="ThermoPhase_8h.html" target="_top" xlink:title="Header file for class ThermoPhase, the base class for phases with thermodynamic properties, and the text for the Module thermoprops (see Thermodynamic Properties and class ThermoPhase). ">
<polygon fill="#ffffff" stroke="#000000" points="531,-336.5 531,-355.5 685,-355.5 685,-336.5 531,-336.5"/>
<text text-anchor="middle" x="608" y="-343.5" font-family="Helvetica,sans-Serif" font-size="10.00" fill="#000000">cantera/thermo/ThermoPhase.h</text>
</a>
</g>
</g>
<!-- Node23&#45;&gt;Node24 -->
<g id="edge28" class="edge">
<title>Node23&#45;&gt;Node24</title>
<path fill="none" stroke="#191970" d="M649.2907,-392.2455C642.1927,-384.2958 631.9916,-372.8706 623.505,-363.3656"/>
<polygon fill="#191970" stroke="#191970" points="625.8805,-360.771 616.6095,-355.6427 620.6589,-365.4331 625.8805,-360.771"/>
</g>
<!-- Node24&#45;&gt;Node18 -->
<g id="edge42" class="edge">
<title>Node24&#45;&gt;Node18</title>
<path fill="none" stroke="#191970" d="M620.2292,-336.206C630.2615,-327.6022 644.1983,-314.2604 653,-300 673.395,-266.9564 685.4272,-222.7239 691.0707,-197.6065"/>
<polygon fill="#191970" stroke="#191970" points="694.4972,-198.3201 693.1628,-187.8096 687.6515,-196.8582 694.4972,-198.3201"/>
</g>
<!-- Node25 -->
<g id="node26" class="node">
<title>Node25</title>
<g id="a_node26"><a xlink:href="Phase_8h.html" target="_top" xlink:title="Header file for class Phase. ">
<polygon fill="#ffffff" stroke="#000000" points="342.5,-224.5 342.5,-243.5 395.5,-243.5 395.5,-224.5 342.5,-224.5"/>
<text text-anchor="middle" x="369" y="-231.5" font-family="Helvetica,sans-Serif" font-size="10.00" fill="#000000">Phase.h</text>
</a>
</g>
</g>
<!-- Node24&#45;&gt;Node25 -->
<g id="edge29" class="edge">
<title>Node24&#45;&gt;Node25</title>
<path fill="none" stroke="#191970" d="M587.623,-336.4509C545.2913,-316.6135 447.6904,-270.8758 398.4895,-247.8194"/>
<polygon fill="#191970" stroke="#191970" points="399.8657,-244.599 389.3254,-243.5249 396.8953,-250.9376 399.8657,-244.599"/>
</g>
<!-- Node30 -->
<g id="node30" class="node">
<title>Node30</title>
<g id="a_node30"><a xlink:href="MultiSpeciesThermo_8h.html" target="_top" xlink:title="Header for a general species thermodynamic property manager for a phase (see MultiSpeciesThermo). ">
<polygon fill="#ffffff" stroke="#000000" points="530,-280.5 530,-299.5 644,-299.5 644,-280.5 530,-280.5"/>
<text text-anchor="middle" x="587" y="-287.5" font-family="Helvetica,sans-Serif" font-size="10.00" fill="#000000">MultiSpeciesThermo.h</text>
</a>
</g>
</g>
<!-- Node24&#45;&gt;Node30 -->
<g id="edge37" class="edge">
<title>Node24&#45;&gt;Node30</title>
<path fill="none" stroke="#191970" d="M604.3421,-336.2455C601.5416,-328.7776 597.591,-318.2427 594.1676,-309.1137"/>
<polygon fill="#191970" stroke="#191970" points="597.4045,-307.777 590.616,-299.6427 590.8501,-310.2349 597.4045,-307.777"/>
</g>
<!-- Node25&#45;&gt;Node11 -->
<g id="edge30" class="edge">
<title>Node25&#45;&gt;Node11</title>
<path fill="none" stroke="#191970" d="M389.113,-224.3733C407.8103,-215.4241 435.8744,-201.9917 456.9934,-191.8835"/>
<polygon fill="#191970" stroke="#191970" points="458.6405,-194.9755 466.1494,-187.5011 455.6183,-188.6614 458.6405,-194.9755"/>
</g>
<!-- Node26 -->
<g id="node27" class="node">
<title>Node26</title>
<g id="a_node27"><a xlink:href="Elements_8h.html" target="_top" xlink:title="Contains the getElementWeight function and the definitions of element constraint types. ">
<polygon fill="#ffffff" stroke="#000000" points="302,-112.5 302,-131.5 436,-131.5 436,-112.5 302,-112.5"/>
<text text-anchor="middle" x="369" y="-119.5" font-family="Helvetica,sans-Serif" font-size="10.00" fill="#000000">cantera/thermo/Elements.h</text>
</a>
</g>
</g>
<!-- Node25&#45;&gt;Node26 -->
<g id="edge31" class="edge">
<title>Node25&#45;&gt;Node26</title>
<path fill="none" stroke="#191970" d="M369,-224.4509C369,-206.184 369,-165.9553 369,-141.6976"/>
<polygon fill="#191970" stroke="#191970" points="372.5001,-141.5249 369,-131.5249 365.5001,-141.5249 372.5001,-141.5249"/>
</g>
<!-- Node27 -->
<g id="node28" class="node">
<title>Node27</title>
<g id="a_node28"><a xlink:href="Species_8h.html" target="_top" xlink:title="Declaration for class Cantera::Species. ">
<polygon fill="#ffffff" stroke="#000000" points="0,-112.5 0,-131.5 128,-131.5 128,-112.5 0,-112.5"/>
<text text-anchor="middle" x="64" y="-119.5" font-family="Helvetica,sans-Serif" font-size="10.00" fill="#000000">cantera/thermo/Species.h</text>
</a>
</g>
</g>
<!-- Node25&#45;&gt;Node27 -->
<g id="edge33" class="edge">
<title>Node25&#45;&gt;Node27</title>
<path fill="none" stroke="#191970" d="M342.9959,-224.4509C288.4115,-204.4069 161.8183,-157.9202 99.6912,-135.1063"/>
<polygon fill="#191970" stroke="#191970" points="100.5319,-131.6865 89.9383,-131.5249 98.1189,-138.2575 100.5319,-131.6865"/>
</g>
<!-- Node28 -->
<g id="node29" class="node">
<title>Node28</title>
<g id="a_node29"><a xlink:href="ValueCache_8h.html" target="_top" xlink:title="cantera/base/ValueCache.h">
<polygon fill="#ffffff" stroke="#ff0000" points="146.5,-112.5 146.5,-131.5 283.5,-131.5 283.5,-112.5 146.5,-112.5"/>
<text text-anchor="middle" x="215" y="-119.5" font-family="Helvetica,sans-Serif" font-size="10.00" fill="#000000">cantera/base/ValueCache.h</text>
</a>
</g>
</g>
<!-- Node25&#45;&gt;Node28 -->
<g id="edge35" class="edge">
<title>Node25&#45;&gt;Node28</title>
<path fill="none" stroke="#191970" d="M355.87,-224.4509C329.2755,-205.1094 268.8265,-161.1465 236.4368,-137.5904"/>
<polygon fill="#191970" stroke="#191970" points="238.2427,-134.5761 228.0967,-131.5249 234.1255,-140.2372 238.2427,-134.5761"/>
</g>
<!-- Node26&#45;&gt;Node2 -->
<g id="edge32" class="edge">
<title>Node26&#45;&gt;Node2</title>
<path fill="none" stroke="#191970" d="M421.5971,-112.4369C475.0841,-102.712 557.9492,-87.6456 614.6933,-77.3285"/>
<polygon fill="#191970" stroke="#191970" points="615.4072,-80.7562 624.6198,-75.5237 614.155,-73.8691 615.4072,-80.7562"/>
</g>
<!-- Node27&#45;&gt;Node2 -->
<g id="edge34" class="edge">
<title>Node27&#45;&gt;Node2</title>
<path fill="none" stroke="#191970" d="M128.0675,-113.0016C131.0852,-112.6476 134.0744,-112.3114 137,-112 343.37,-90.0318 398.7714,-99.2753 608.8091,-76.0597"/>
<polygon fill="#191970" stroke="#191970" points="609.3793,-79.5178 618.929,-74.9294 608.6022,-72.5611 609.3793,-79.5178"/>
</g>
<!-- Node28&#45;&gt;Node2 -->
<g id="edge36" class="edge">
<title>Node28&#45;&gt;Node2</title>
<path fill="none" stroke="#191970" d="M283.8968,-113.1123C286.9728,-112.7328 290.0182,-112.3604 293,-112 430.4705,-95.3828 467.6849,-94.5018 608.586,-76.1491"/>
<polygon fill="#191970" stroke="#191970" points="609.4519,-79.5657 618.9128,-74.7971 608.5431,-72.625 609.4519,-79.5657"/>
</g>
<!-- Node31 -->
<g id="node31" class="node">
<title>Node31</title>
<g id="a_node31"><a xlink:href="SpeciesThermoInterpType_8h.html" target="_top" xlink:title="Pure Virtual Base class for individual species reference state thermodynamic managers and text for th...">
<polygon fill="#ffffff" stroke="#ff0000" points="514,-224.5 514,-243.5 654,-243.5 654,-224.5 514,-224.5"/>
<text text-anchor="middle" x="584" y="-231.5" font-family="Helvetica,sans-Serif" font-size="10.00" fill="#000000">SpeciesThermoInterpType.h</text>
</a>
</g>
</g>
<!-- Node30&#45;&gt;Node31 -->
<g id="edge38" class="edge">
<title>Node30&#45;&gt;Node31</title>
<path fill="none" stroke="#191970" d="M586.4774,-280.2455C586.086,-272.9382 585.5372,-262.6944 585.0556,-253.7046"/>
<polygon fill="#191970" stroke="#191970" points="588.5466,-253.4411 584.5166,-243.6427 581.5566,-253.8156 588.5466,-253.4411"/>
</g>
<!-- Node31&#45;&gt;Node2 -->
<g id="edge39" class="edge">
<title>Node31&#45;&gt;Node2</title>
<path fill="none" stroke="#191970" d="M589.2665,-224.4862C604.1586,-197.5845 646.7753,-120.5994 666.611,-84.7673"/>
<polygon fill="#191970" stroke="#191970" points="669.7785,-86.272 671.5596,-75.8279 663.6542,-82.8817 669.7785,-86.272"/>
</g>
<!-- Node31&#45;&gt;Node11 -->
<g id="edge40" class="edge">
<title>Node31&#45;&gt;Node11</title>
<path fill="none" stroke="#191970" d="M566.9297,-224.2455C551.753,-215.5731 529.3379,-202.7645 511.9437,-192.825"/>
<polygon fill="#191970" stroke="#191970" points="513.2936,-189.5653 502.8747,-187.6427 509.8206,-195.643 513.2936,-189.5653"/>
</g>
<!-- Node31&#45;&gt;Node18 -->
<g id="edge41" class="edge">
<title>Node31&#45;&gt;Node18</title>
<path fill="none" stroke="#191970" d="M603.0816,-224.3733C620.7402,-215.4644 647.2053,-202.1127 667.2098,-192.0203"/>
<polygon fill="#191970" stroke="#191970" points="668.8158,-195.1303 676.1674,-187.5011 665.6628,-188.8806 668.8158,-195.1303"/>
</g>
</g>
</svg>
