<?xml version="1.0" encoding="UTF-8" standalone="no"?>
<!DOCTYPE svg PUBLIC "-//W3C//DTD SVG 1.1//EN"
 "http://www.w3.org/Graphics/SVG/1.1/DTD/svg11.dtd">
<!-- Generated by graphviz version 2.40.1 (20161225.0304)
 -->
<!-- Title: TransportData.cpp Pages: 1 -->
<svg width="756pt" height="375pt"
 viewBox="0.00 0.00 755.50 375.00" xmlns="http://www.w3.org/2000/svg" xmlns:xlink="http://www.w3.org/1999/xlink">
<g id="graph0" class="graph" transform="scale(1 1) rotate(0) translate(4 371)">
<title>TransportData.cpp</title>
<polygon fill="#ffffff" stroke="transparent" points="-4,4 -4,-371 751.5,-371 751.5,4 -4,4"/>
<!-- Node0 -->
<g id="node1" class="node">
<title>Node0</title>
<polygon fill="#bfbfbf" stroke="#000000" points="290,-347.5 290,-366.5 388,-366.5 388,-347.5 290,-347.5"/>
<text text-anchor="middle" x="339" y="-354.5" font-family="Helvetica,sans-Serif" font-size="10.00" fill="#000000">TransportData.cpp</text>
</g>
<!-- Node1 -->
<g id="node2" class="node">
<title>Node1</title>
<g id="a_node2"><a xlink:href="TransportData_8h.html" target="_top" xlink:title="cantera/transport/Transport\lData.h">
<polygon fill="#ffffff" stroke="#000000" points="46,-224.5 46,-254.5 180,-254.5 180,-224.5 46,-224.5"/>
<text text-anchor="start" x="54" y="-242.5" font-family="Helvetica,sans-Serif" font-size="10.00" fill="#000000">cantera/transport/Transport</text>
<text text-anchor="middle" x="113" y="-231.5" font-family="Helvetica,sans-Serif" font-size="10.00" fill="#000000">Data.h</text>
</a>
</g>
</g>
<!-- Node0&#45;&gt;Node1 -->
<g id="edge1" class="edge">
<title>Node0&#45;&gt;Node1</title>
<path fill="none" stroke="#191970" d="M289.8637,-351.9629C235.9975,-345.4538 154.2444,-332.3492 132,-311 119.5769,-299.0769 114.9547,-280.0333 113.37,-264.5967"/>
<polygon fill="#191970" stroke="#191970" points="116.8621,-264.3609 112.6996,-254.618 109.8779,-264.8301 116.8621,-264.3609"/>
</g>
<!-- Node11 -->
<g id="node12" class="node">
<title>Node11</title>
<g id="a_node12"><a xlink:href="Species_8h.html" target="_top" xlink:title="Declaration for class Cantera::Species. ">
<polygon fill="#ffffff" stroke="#000000" points="141,-291.5 141,-310.5 269,-310.5 269,-291.5 141,-291.5"/>
<text text-anchor="middle" x="205" y="-298.5" font-family="Helvetica,sans-Serif" font-size="10.00" fill="#000000">cantera/thermo/Species.h</text>
</a>
</g>
</g>
<!-- Node0&#45;&gt;Node11 -->
<g id="edge11" class="edge">
<title>Node0&#45;&gt;Node11</title>
<path fill="none" stroke="#191970" d="M315.9646,-347.3733C294.2612,-338.3032 261.5382,-324.6279 237.245,-314.4755"/>
<polygon fill="#191970" stroke="#191970" points="238.3111,-311.1278 227.7348,-310.5011 235.6119,-317.5865 238.3111,-311.1278"/>
</g>
<!-- Node12 -->
<g id="node13" class="node">
<title>Node12</title>
<g id="a_node13"><a xlink:href="ctexceptions_8h.html" target="_top" xlink:title="Definitions for the classes that are thrown when Cantera experiences an error condition (also contain...">
<polygon fill="#ffffff" stroke="#000000" points="346,-168.5 346,-187.5 486,-187.5 486,-168.5 346,-168.5"/>
<text text-anchor="middle" x="416" y="-175.5" font-family="Helvetica,sans-Serif" font-size="10.00" fill="#000000">cantera/base/ctexceptions.h</text>
</a>
</g>
</g>
<!-- Node0&#45;&gt;Node12 -->
<g id="edge13" class="edge">
<title>Node0&#45;&gt;Node12</title>
<path fill="none" stroke="#191970" d="M358.9271,-347.47C372.8646,-339.6922 390.6054,-327.3245 400,-311 420.5034,-275.3722 420.3216,-225.5412 418.2441,-198.1031"/>
<polygon fill="#191970" stroke="#191970" points="421.6993,-197.4565 417.2925,-187.8217 414.7291,-198.1017 421.6993,-197.4565"/>
</g>
<!-- Node17 -->
<g id="node18" class="node">
<title>Node17</title>
<g id="a_node18"><a xlink:href="stringUtils_8h.html" target="_top" xlink:title="Contains declarations for string manipulation functions within Cantera. ">
<polygon fill="#ffffff" stroke="#000000" points="504,-168.5 504,-187.5 632,-187.5 632,-168.5 504,-168.5"/>
<text text-anchor="middle" x="568" y="-175.5" font-family="Helvetica,sans-Serif" font-size="10.00" fill="#000000">cantera/base/stringUtils.h</text>
</a>
</g>
</g>
<!-- Node0&#45;&gt;Node17 -->
<g id="edge19" class="edge">
<title>Node0&#45;&gt;Node17</title>
<path fill="none" stroke="#191970" d="M357.844,-347.3944C374.2695,-338.7064 398.4554,-325.1411 418,-311 469.6191,-273.6521 524.1164,-221.7086 550.9801,-195.1417"/>
<polygon fill="#191970" stroke="#191970" points="553.7806,-197.2923 558.3962,-187.7557 548.8409,-192.3325 553.7806,-197.2923"/>
</g>
<!-- Node19 -->
<g id="node20" class="node">
<title>Node19</title>
<g id="a_node20"><a xlink:href="ctml_8h.html" target="_top" xlink:title="CTML (&quot;Cantera Markup Language&quot;) is the variant of XML that Cantera uses to store data...">
<polygon fill="#ffffff" stroke="#000000" points="287.5,-291.5 287.5,-310.5 390.5,-310.5 390.5,-291.5 287.5,-291.5"/>
<text text-anchor="middle" x="339" y="-298.5" font-family="Helvetica,sans-Serif" font-size="10.00" fill="#000000">cantera/base/ctml.h</text>
</a>
</g>
</g>
<!-- Node0&#45;&gt;Node19 -->
<g id="edge24" class="edge">
<title>Node0&#45;&gt;Node19</title>
<path fill="none" stroke="#191970" d="M339,-347.2455C339,-339.9382 339,-329.6944 339,-320.7046"/>
<polygon fill="#191970" stroke="#191970" points="342.5001,-320.6426 339,-310.6427 335.5001,-320.6427 342.5001,-320.6426"/>
</g>
<!-- Node2 -->
<g id="node3" class="node">
<title>Node2</title>
<g id="a_node3"><a xlink:href="ct__defs_8h.html" target="_top" xlink:title="This file contains definitions of terms that are used in internal routines and are unlikely to need m...">
<polygon fill="#ffffff" stroke="#000000" points="158,-56.5 158,-75.5 274,-75.5 274,-56.5 158,-56.5"/>
<text text-anchor="middle" x="216" y="-63.5" font-family="Helvetica,sans-Serif" font-size="10.00" fill="#000000">cantera/base/ct_defs.h</text>
</a>
</g>
</g>
<!-- Node1&#45;&gt;Node2 -->
<g id="edge2" class="edge">
<title>Node1&#45;&gt;Node2</title>
<path fill="none" stroke="#191970" d="M121.9604,-224.4065C140.8397,-192.6049 184.6483,-118.8108 205.1077,-84.3478"/>
<polygon fill="#191970" stroke="#191970" points="208.1237,-86.1236 210.2189,-75.738 202.1045,-82.5502 208.1237,-86.1236"/>
</g>
<!-- Node3 -->
<g id="node4" class="node">
<title>Node3</title>
<g id="a_node4"><a xlink:href="config_8h_source.html" target="_top" xlink:title="config.h">
<polygon fill="#ffffff" stroke="#000000" points="260.5,-.5 260.5,-19.5 311.5,-19.5 311.5,-.5 260.5,-.5"/>
<text text-anchor="middle" x="286" y="-7.5" font-family="Helvetica,sans-Serif" font-size="10.00" fill="#000000">config.h</text>
</a>
</g>
</g>
<!-- Node2&#45;&gt;Node3 -->
<g id="edge3" class="edge">
<title>Node2&#45;&gt;Node3</title>
<path fill="none" stroke="#191970" d="M228.1931,-56.2455C238.6321,-47.8943 253.8655,-35.7076 266.074,-25.9408"/>
<polygon fill="#191970" stroke="#191970" points="268.3244,-28.6227 273.9467,-19.6427 263.9515,-23.1566 268.3244,-28.6227"/>
</g>
<!-- Node4 -->
<g id="node5" class="node">
<title>Node4</title>
<polygon fill="#ffffff" stroke="#bfbfbf" points="330,-.5 330,-19.5 374,-19.5 374,-.5 330,-.5"/>
<text text-anchor="middle" x="352" y="-7.5" font-family="Helvetica,sans-Serif" font-size="10.00" fill="#000000">cmath</text>
</g>
<!-- Node2&#45;&gt;Node4 -->
<g id="edge4" class="edge">
<title>Node2&#45;&gt;Node4</title>
<path fill="none" stroke="#191970" d="M239.3792,-56.3733C261.7727,-47.1524 295.725,-33.1721 320.4958,-22.9723"/>
<polygon fill="#191970" stroke="#191970" points="321.9123,-26.1742 329.8264,-19.1303 319.247,-19.7015 321.9123,-26.1742"/>
</g>
<!-- Node5 -->
<g id="node6" class="node">
<title>Node5</title>
<polygon fill="#ffffff" stroke="#bfbfbf" points="392.5,-.5 392.5,-19.5 437.5,-19.5 437.5,-.5 392.5,-.5"/>
<text text-anchor="middle" x="415" y="-7.5" font-family="Helvetica,sans-Serif" font-size="10.00" fill="#000000">cstdlib</text>
</g>
<!-- Node2&#45;&gt;Node5 -->
<g id="edge5" class="edge">
<title>Node2&#45;&gt;Node5</title>
<path fill="none" stroke="#191970" d="M251.9346,-56.4816C283.7706,-47.9646 331.7397,-34.927 382.4651,-20.0883"/>
<polygon fill="#191970" stroke="#191970" points="383.6957,-23.3747 392.3034,-17.1975 381.7223,-16.6586 383.6957,-23.3747"/>
</g>
<!-- Node6 -->
<g id="node7" class="node">
<title>Node6</title>
<polygon fill="#ffffff" stroke="#bfbfbf" points="0,-.5 0,-19.5 44,-19.5 44,-.5 0,-.5"/>
<text text-anchor="middle" x="22" y="-7.5" font-family="Helvetica,sans-Serif" font-size="10.00" fill="#000000">vector</text>
</g>
<!-- Node2&#45;&gt;Node6 -->
<g id="edge6" class="edge">
<title>Node2&#45;&gt;Node6</title>
<path fill="none" stroke="#191970" d="M180.5964,-56.415C149.573,-47.9258 103.0404,-34.9764 54.13,-20.2723"/>
<polygon fill="#191970" stroke="#191970" points="54.905,-16.8503 44.3201,-17.3089 52.8807,-23.5512 54.905,-16.8503"/>
</g>
<!-- Node7 -->
<g id="node8" class="node">
<title>Node7</title>
<polygon fill="#ffffff" stroke="#bfbfbf" points="62.5,-.5 62.5,-19.5 97.5,-19.5 97.5,-.5 62.5,-.5"/>
<text text-anchor="middle" x="80" y="-7.5" font-family="Helvetica,sans-Serif" font-size="10.00" fill="#000000">map</text>
</g>
<!-- Node2&#45;&gt;Node7 -->
<g id="edge7" class="edge">
<title>Node2&#45;&gt;Node7</title>
<path fill="none" stroke="#191970" d="M192.6208,-56.3733C168.8864,-46.6003 132.1674,-31.4807 107.1576,-21.1825"/>
<polygon fill="#191970" stroke="#191970" points="108.4541,-17.9313 97.8746,-17.3601 105.7888,-24.4041 108.4541,-17.9313"/>
</g>
<!-- Node8 -->
<g id="node9" class="node">
<title>Node8</title>
<polygon fill="#ffffff" stroke="#bfbfbf" points="512.5,-.5 512.5,-19.5 553.5,-19.5 553.5,-.5 512.5,-.5"/>
<text text-anchor="middle" x="533" y="-7.5" font-family="Helvetica,sans-Serif" font-size="10.00" fill="#000000">string</text>
</g>
<!-- Node2&#45;&gt;Node8 -->
<g id="edge8" class="edge">
<title>Node2&#45;&gt;Node8</title>
<path fill="none" stroke="#191970" d="M270.1341,-56.4369C337.1099,-44.6052 448.8421,-24.867 502.4632,-15.3945"/>
<polygon fill="#191970" stroke="#191970" points="503.1435,-18.8286 512.3821,-13.6423 501.9257,-11.9353 503.1435,-18.8286"/>
</g>
<!-- Node9 -->
<g id="node10" class="node">
<title>Node9</title>
<polygon fill="#ffffff" stroke="#bfbfbf" points="116,-.5 116,-19.5 172,-19.5 172,-.5 116,-.5"/>
<text text-anchor="middle" x="144" y="-7.5" font-family="Helvetica,sans-Serif" font-size="10.00" fill="#000000">algorithm</text>
</g>
<!-- Node2&#45;&gt;Node9 -->
<g id="edge9" class="edge">
<title>Node2&#45;&gt;Node9</title>
<path fill="none" stroke="#191970" d="M203.4586,-56.2455C192.7213,-47.8943 177.0527,-35.7076 164.4953,-25.9408"/>
<polygon fill="#191970" stroke="#191970" points="166.4401,-23.0194 156.3977,-19.6427 162.1425,-28.5449 166.4401,-23.0194"/>
</g>
<!-- Node10 -->
<g id="node11" class="node">
<title>Node10</title>
<polygon fill="#ffffff" stroke="#bfbfbf" points="190,-.5 190,-19.5 242,-19.5 242,-.5 190,-.5"/>
<text text-anchor="middle" x="216" y="-7.5" font-family="Helvetica,sans-Serif" font-size="10.00" fill="#000000">memory</text>
</g>
<!-- Node2&#45;&gt;Node10 -->
<g id="edge10" class="edge">
<title>Node2&#45;&gt;Node10</title>
<path fill="none" stroke="#191970" d="M216,-56.2455C216,-48.9382 216,-38.6944 216,-29.7046"/>
<polygon fill="#191970" stroke="#191970" points="219.5001,-29.6426 216,-19.6427 212.5001,-29.6427 219.5001,-29.6426"/>
</g>
<!-- Node11&#45;&gt;Node2 -->
<g id="edge12" class="edge">
<title>Node11&#45;&gt;Node2</title>
<path fill="none" stroke="#191970" d="M205.4448,-291.4967C207.0858,-256.4391 212.8213,-133.9096 215.0779,-85.7"/>
<polygon fill="#191970" stroke="#191970" points="218.5781,-85.7743 215.5496,-75.6216 211.5858,-85.447 218.5781,-85.7743"/>
</g>
<!-- Node13 -->
<g id="node14" class="node">
<title>Node13</title>
<g id="a_node14"><a xlink:href="fmt_8h.html" target="_top" xlink:title="Wrapper for either system&#45;installed or local headers for fmt. ">
<polygon fill="#ffffff" stroke="#000000" points="312,-112.5 312,-131.5 410,-131.5 410,-112.5 312,-112.5"/>
<text text-anchor="middle" x="361" y="-119.5" font-family="Helvetica,sans-Serif" font-size="10.00" fill="#000000">cantera/base/fmt.h</text>
</a>
</g>
</g>
<!-- Node12&#45;&gt;Node13 -->
<g id="edge14" class="edge">
<title>Node12&#45;&gt;Node13</title>
<path fill="none" stroke="#191970" d="M406.4197,-168.2455C398.4542,-160.1352 386.9359,-148.4075 377.4921,-138.7919"/>
<polygon fill="#191970" stroke="#191970" points="379.9747,-136.3247 370.4705,-131.6427 374.9805,-141.2297 379.9747,-136.3247"/>
</g>
<!-- Node16 -->
<g id="node17" class="node">
<title>Node16</title>
<polygon fill="#ffffff" stroke="#bfbfbf" points="428.5,-112.5 428.5,-131.5 487.5,-131.5 487.5,-112.5 428.5,-112.5"/>
<text text-anchor="middle" x="458" y="-119.5" font-family="Helvetica,sans-Serif" font-size="10.00" fill="#000000">exception</text>
</g>
<!-- Node12&#45;&gt;Node16 -->
<g id="edge18" class="edge">
<title>Node12&#45;&gt;Node16</title>
<path fill="none" stroke="#191970" d="M423.3158,-168.2455C429.2179,-160.3761 437.6742,-149.101 444.7594,-139.6542"/>
<polygon fill="#191970" stroke="#191970" points="447.568,-141.7427 450.768,-131.6427 441.9679,-137.5427 447.568,-141.7427"/>
</g>
<!-- Node13&#45;&gt;Node2 -->
<g id="edge15" class="edge">
<title>Node13&#45;&gt;Node2</title>
<path fill="none" stroke="#191970" d="M336.0736,-112.3733C312.3798,-103.2226 276.5489,-89.3844 250.1932,-79.2057"/>
<polygon fill="#191970" stroke="#191970" points="251.1906,-75.8389 240.6011,-75.5011 248.6686,-82.3689 251.1906,-75.8389"/>
</g>
<!-- Node14 -->
<g id="node15" class="node">
<title>Node14</title>
<polygon fill="#ffffff" stroke="#bfbfbf" points="292,-56.5 292,-75.5 414,-75.5 414,-56.5 292,-56.5"/>
<text text-anchor="middle" x="353" y="-63.5" font-family="Helvetica,sans-Serif" font-size="10.00" fill="#000000">cantera/ext/fmt/format.h</text>
</g>
<!-- Node13&#45;&gt;Node14 -->
<g id="edge16" class="edge">
<title>Node13&#45;&gt;Node14</title>
<path fill="none" stroke="#191970" d="M359.6065,-112.2455C358.5626,-104.9382 357.0992,-94.6944 355.8149,-85.7046"/>
<polygon fill="#191970" stroke="#191970" points="359.2566,-85.0472 354.3775,-75.6427 352.327,-86.0372 359.2566,-85.0472"/>
</g>
<!-- Node15 -->
<g id="node16" class="node">
<title>Node15</title>
<polygon fill="#ffffff" stroke="#bfbfbf" points="432.5,-56.5 432.5,-75.5 561.5,-75.5 561.5,-56.5 432.5,-56.5"/>
<text text-anchor="middle" x="497" y="-63.5" font-family="Helvetica,sans-Serif" font-size="10.00" fill="#000000">cantera/ext/fmt/ostream.h</text>
</g>
<!-- Node13&#45;&gt;Node15 -->
<g id="edge17" class="edge">
<title>Node13&#45;&gt;Node15</title>
<path fill="none" stroke="#191970" d="M384.3792,-112.3733C406.5045,-103.2629 439.9134,-89.5062 464.6019,-79.3404"/>
<polygon fill="#191970" stroke="#191970" points="466.0117,-82.5451 473.9258,-75.5011 463.3464,-76.0723 466.0117,-82.5451"/>
</g>
<!-- Node17&#45;&gt;Node2 -->
<g id="edge20" class="edge">
<title>Node17&#45;&gt;Node2</title>
<path fill="none" stroke="#191970" d="M560.5269,-168.0222C548.7873,-153.1498 524.5056,-125.4769 497,-112 492.2107,-109.6534 366.1203,-89.5569 284.4895,-76.7145"/>
<polygon fill="#191970" stroke="#191970" points="284.6946,-73.2038 274.2724,-75.1084 283.6076,-80.1189 284.6946,-73.2038"/>
</g>
<!-- Node17&#45;&gt;Node8 -->
<g id="edge23" class="edge">
<title>Node17&#45;&gt;Node8</title>
<path fill="none" stroke="#191970" d="M570.502,-168.4493C575.5409,-147.3877 585.2679,-95.6745 571,-56 567.0564,-45.0341 559.2403,-34.8227 551.7169,-26.8204"/>
<polygon fill="#191970" stroke="#191970" points="554.0101,-24.1653 544.4453,-19.6084 549.0807,-29.1354 554.0101,-24.1653"/>
</g>
<!-- Node17&#45;&gt;Node13 -->
<g id="edge21" class="edge">
<title>Node17&#45;&gt;Node13</title>
<path fill="none" stroke="#191970" d="M532.4154,-168.3733C497.3984,-158.9001 443.8119,-144.4032 405.8875,-134.1435"/>
<polygon fill="#191970" stroke="#191970" points="406.6873,-130.7341 396.1202,-131.5011 404.8592,-137.4912 406.6873,-130.7341"/>
</g>
<!-- Node18 -->
<g id="node19" class="node">
<title>Node18</title>
<polygon fill="#ffffff" stroke="#bfbfbf" points="618.5,-112.5 618.5,-131.5 747.5,-131.5 747.5,-112.5 618.5,-112.5"/>
<text text-anchor="middle" x="683" y="-119.5" font-family="Helvetica,sans-Serif" font-size="10.00" fill="#000000">boost/algorithm/string.hpp</text>
</g>
<!-- Node17&#45;&gt;Node18 -->
<g id="edge22" class="edge">
<title>Node17&#45;&gt;Node18</title>
<path fill="none" stroke="#191970" d="M587.7692,-168.3733C606.1469,-159.4241 633.7312,-145.9917 654.4893,-135.8835"/>
<polygon fill="#191970" stroke="#191970" points="656.0304,-139.026 663.4888,-131.5011 652.9657,-132.7325 656.0304,-139.026"/>
</g>
<!-- Node19&#45;&gt;Node2 -->
<g id="edge25" class="edge">
<title>Node19&#45;&gt;Node2</title>
<path fill="none" stroke="#191970" d="M332.7391,-291.1533C326.8398,-281.8553 317.7709,-267.5105 310,-255 291.5795,-225.3445 285.1053,-218.9739 269,-188 250.6254,-152.6618 232.9523,-109.5625 223.376,-85.2007"/>
<polygon fill="#191970" stroke="#191970" points="226.5683,-83.7527 219.6806,-75.7023 220.0446,-86.2909 226.5683,-83.7527"/>
</g>
<!-- Node20 -->
<g id="node21" class="node">
<title>Node20</title>
<g id="a_node21"><a xlink:href="xml_8h.html" target="_top" xlink:title="Classes providing support for XML data files. ">
<polygon fill="#ffffff" stroke="#000000" points="318.5,-230 318.5,-249 359.5,-249 359.5,-230 318.5,-230"/>
<text text-anchor="middle" x="339" y="-237" font-family="Helvetica,sans-Serif" font-size="10.00" fill="#000000">xml.h</text>
</a>
</g>
</g>
<!-- Node19&#45;&gt;Node20 -->
<g id="edge26" class="edge">
<title>Node19&#45;&gt;Node20</title>
<path fill="none" stroke="#191970" d="M339,-291.3906C339,-282.8657 339,-270.1392 339,-259.4235"/>
<polygon fill="#191970" stroke="#191970" points="342.5001,-259.2448 339,-249.2449 335.5001,-259.2449 342.5001,-259.2448"/>
</g>
<!-- Node20&#45;&gt;Node12 -->
<g id="edge27" class="edge">
<title>Node20&#45;&gt;Node12</title>
<path fill="none" stroke="#191970" d="M351.0313,-229.8906C363.0107,-220.3227 381.6166,-205.4621 395.8525,-194.0919"/>
<polygon fill="#191970" stroke="#191970" points="398.4239,-196.5175 404.0532,-187.5419 394.0553,-191.0479 398.4239,-196.5175"/>
</g>
<!-- Node21 -->
<g id="node22" class="node">
<title>Node21</title>
<g id="a_node22"><a xlink:href="global_8h.html" target="_top" xlink:title="This file contains definitions for utility functions and text for modules, inputfiles, logs, textlogs, (see Input File Handling, Diagnostic Output, and Writing messages to the screen). ">
<polygon fill="#ffffff" stroke="#000000" points="278,-168.5 278,-187.5 328,-187.5 328,-168.5 278,-168.5"/>
<text text-anchor="middle" x="303" y="-175.5" font-family="Helvetica,sans-Serif" font-size="10.00" fill="#000000">global.h</text>
</a>
</g>
</g>
<!-- Node20&#45;&gt;Node21 -->
<g id="edge28" class="edge">
<title>Node20&#45;&gt;Node21</title>
<path fill="none" stroke="#191970" d="M333.375,-229.8906C328.1747,-221.0068 320.3034,-207.5601 313.8767,-196.5811"/>
<polygon fill="#191970" stroke="#191970" points="316.7767,-194.6069 308.7043,-187.7449 310.7356,-198.1432 316.7767,-194.6069"/>
</g>
<!-- Node21&#45;&gt;Node2 -->
<g id="edge29" class="edge">
<title>Node21&#45;&gt;Node2</title>
<path fill="none" stroke="#191970" d="M297.4075,-168.2182C289.6695,-154.9836 274.9525,-130.8613 260,-112 251.9053,-101.7892 241.9334,-91.2262 233.5306,-82.8014"/>
<polygon fill="#191970" stroke="#191970" points="235.9357,-80.2577 226.3538,-75.7369 231.0252,-85.2463 235.9357,-80.2577"/>
</g>
<!-- Node21&#45;&gt;Node13 -->
<g id="edge30" class="edge">
<title>Node21&#45;&gt;Node13</title>
<path fill="none" stroke="#191970" d="M313.1028,-168.2455C321.5028,-160.1352 333.6494,-148.4075 343.6084,-138.7919"/>
<polygon fill="#191970" stroke="#191970" points="346.25,-141.1066 351.0129,-131.6427 341.3878,-136.0707 346.25,-141.1066"/>
</g>
</g>
</svg>
