<?xml version="1.0" encoding="UTF-8" standalone="no"?>
<!DOCTYPE svg PUBLIC "-//W3C//DTD SVG 1.1//EN"
 "http://www.w3.org/Graphics/SVG/1.1/DTD/svg11.dtd">
<!-- Generated by graphviz version 2.40.1 (20161225.0304)
 -->
<!-- Title: TransportFactory.h Pages: 1 -->
<svg width="1109pt" height="644pt"
 viewBox="0.00 0.00 1109.39 644.00" xmlns="http://www.w3.org/2000/svg" xmlns:xlink="http://www.w3.org/1999/xlink">
<g id="graph0" class="graph" transform="scale(1 1) rotate(0) translate(4 640)">
<title>TransportFactory.h</title>
<polygon fill="#ffffff" stroke="transparent" points="-4,4 -4,-640 1105.3901,-640 1105.3901,4 -4,4"/>
<!-- Node0 -->
<g id="node1" class="node">
<title>Node0</title>
<polygon fill="#bfbfbf" stroke="#000000" points="321.8901,-616.5 321.8901,-635.5 420.8901,-635.5 420.8901,-616.5 321.8901,-616.5"/>
<text text-anchor="middle" x="371.3901" y="-623.5" font-family="Helvetica,sans-Serif" font-size="10.00" fill="#000000">TransportFactory.h</text>
</g>
<!-- Node1 -->
<g id="node2" class="node">
<title>Node1</title>
<g id="a_node2"><a xlink:href="TransportBase_8h.html" target="_top" xlink:title="Headers for the Transport object, which is the virtual base class for all transport property evaluato...">
<polygon fill="#ffffff" stroke="#000000" points="494.8901,-336.5 494.8901,-355.5 583.8901,-355.5 583.8901,-336.5 494.8901,-336.5"/>
<text text-anchor="middle" x="539.3901" y="-343.5" font-family="Helvetica,sans-Serif" font-size="10.00" fill="#000000">TransportBase.h</text>
</a>
</g>
</g>
<!-- Node0&#45;&gt;Node1 -->
<g id="edge1" class="edge">
<title>Node0&#45;&gt;Node1</title>
<path fill="none" stroke="#191970" d="M408.6266,-616.4945C474.8902,-598.4786 606.3901,-557.2745 606.3901,-514 606.3901,-514 606.3901,-514 606.3901,-458 606.3901,-427.4754 603.1751,-418.1264 587.3901,-392 580.4655,-380.5387 569.959,-370.0182 560.5394,-361.9397"/>
<polygon fill="#191970" stroke="#191970" points="562.6187,-359.119 552.6586,-355.5068 558.1921,-364.5418 562.6187,-359.119"/>
</g>
<!-- Node26 -->
<g id="node14" class="node">
<title>Node26</title>
<g id="a_node14"><a xlink:href="FactoryBase_8h.html" target="_top" xlink:title="File contains the FactoryBase class declarations. ">
<polygon fill="#ffffff" stroke="#000000" points="48.3901,-168.5 48.3901,-187.5 188.3901,-187.5 188.3901,-168.5 48.3901,-168.5"/>
<text text-anchor="middle" x="118.3901" y="-175.5" font-family="Helvetica,sans-Serif" font-size="10.00" fill="#000000">cantera/base/FactoryBase.h</text>
</a>
</g>
</g>
<!-- Node0&#45;&gt;Node26 -->
<g id="edge19" class="edge">
<title>Node0&#45;&gt;Node26</title>
<path fill="none" stroke="#191970" d="M346.2024,-616.3828C310.2172,-600.8068 248.3901,-566.4182 248.3901,-514 248.3901,-514 248.3901,-514 248.3901,-290 248.3901,-240.5666 193.77,-208.1607 155.3386,-191.4777"/>
<polygon fill="#191970" stroke="#191970" points="156.537,-188.1855 145.9598,-187.5743 153.8472,-194.6481 156.537,-188.1855"/>
</g>
<!-- Node29 -->
<g id="node17" class="node">
<title>Node29</title>
<g id="a_node17"><a xlink:href="LiquidTransportParams_8h.html" target="_top" xlink:title="Header file defining class LiquidTransportParams. ">
<polygon fill="#ffffff" stroke="#000000" points="308.8901,-560.5 308.8901,-579.5 433.8901,-579.5 433.8901,-560.5 308.8901,-560.5"/>
<text text-anchor="middle" x="371.3901" y="-567.5" font-family="Helvetica,sans-Serif" font-size="10.00" fill="#000000">LiquidTransportParams.h</text>
</a>
</g>
</g>
<!-- Node0&#45;&gt;Node29 -->
<g id="edge24" class="edge">
<title>Node0&#45;&gt;Node29</title>
<path fill="none" stroke="#191970" d="M371.3901,-616.2455C371.3901,-608.9382 371.3901,-598.6944 371.3901,-589.7046"/>
<polygon fill="#191970" stroke="#191970" points="374.8902,-589.6426 371.3901,-579.6427 367.8902,-589.6427 374.8902,-589.6426"/>
</g>
<!-- Node2 -->
<g id="node3" class="node">
<title>Node2</title>
<g id="a_node3"><a xlink:href="ThermoPhase_8h.html" target="_top" xlink:title="Header file for class ThermoPhase, the base class for phases with thermodynamic properties, and the text for the Module thermoprops (see Thermodynamic Properties and class ThermoPhase). ">
<polygon fill="#ffffff" stroke="#000000" points="494.3901,-280.5 494.3901,-299.5 648.3901,-299.5 648.3901,-280.5 494.3901,-280.5"/>
<text text-anchor="middle" x="571.3901" y="-287.5" font-family="Helvetica,sans-Serif" font-size="10.00" fill="#000000">cantera/thermo/ThermoPhase.h</text>
</a>
</g>
</g>
<!-- Node1&#45;&gt;Node2 -->
<g id="edge2" class="edge">
<title>Node1&#45;&gt;Node2</title>
<path fill="none" stroke="#191970" d="M544.9641,-336.2455C549.3233,-328.617 555.5112,-317.7881 560.8034,-308.5267"/>
<polygon fill="#191970" stroke="#191970" points="563.9575,-310.0616 565.88,-299.6427 557.8797,-306.5886 563.9575,-310.0616"/>
</g>
<!-- Node3 -->
<g id="node4" class="node">
<title>Node3</title>
<g id="a_node4"><a xlink:href="Phase_8h.html" target="_top" xlink:title="Header file for class Phase. ">
<polygon fill="#ffffff" stroke="#000000" points="715.8901,-168.5 715.8901,-187.5 768.8901,-187.5 768.8901,-168.5 715.8901,-168.5"/>
<text text-anchor="middle" x="742.3901" y="-175.5" font-family="Helvetica,sans-Serif" font-size="10.00" fill="#000000">Phase.h</text>
</a>
</g>
</g>
<!-- Node2&#45;&gt;Node3 -->
<g id="edge3" class="edge">
<title>Node2&#45;&gt;Node3</title>
<path fill="none" stroke="#191970" d="M607.5979,-280.4961C631.4538,-273.0857 662.567,-261.1462 686.3901,-244 704.3992,-231.0384 720.2636,-211.0721 730.4661,-196.4935"/>
<polygon fill="#191970" stroke="#191970" points="733.6271,-198.0663 736.3187,-187.8191 727.8243,-194.1512 733.6271,-198.0663"/>
</g>
<!-- Node22 -->
<g id="node11" class="node">
<title>Node22</title>
<g id="a_node11"><a xlink:href="MultiSpeciesThermo_8h.html" target="_top" xlink:title="Header for a general species thermodynamic property manager for a phase (see MultiSpeciesThermo). ">
<polygon fill="#ffffff" stroke="#000000" points="563.3901,-224.5 563.3901,-243.5 677.3901,-243.5 677.3901,-224.5 563.3901,-224.5"/>
<text text-anchor="middle" x="620.3901" y="-231.5" font-family="Helvetica,sans-Serif" font-size="10.00" fill="#000000">MultiSpeciesThermo.h</text>
</a>
</g>
</g>
<!-- Node2&#45;&gt;Node22 -->
<g id="edge12" class="edge">
<title>Node2&#45;&gt;Node22</title>
<path fill="none" stroke="#191970" d="M579.9253,-280.2455C586.8813,-272.2958 596.8784,-260.8706 605.1953,-251.3656"/>
<polygon fill="#191970" stroke="#191970" points="608.0017,-253.4732 611.9528,-243.6427 602.7337,-248.8637 608.0017,-253.4732"/>
</g>
<!-- Node25 -->
<g id="node13" class="node">
<title>Node25</title>
<g id="a_node13"><a xlink:href="global_8h.html" target="_top" xlink:title="This file contains definitions for utility functions and text for modules, inputfiles, logs, textlogs, (see Input File Handling, Diagnostic Output, and Writing messages to the screen). ">
<polygon fill="#ffffff" stroke="#ff0000" points="499.3901,-112.5 499.3901,-131.5 609.3901,-131.5 609.3901,-112.5 499.3901,-112.5"/>
<text text-anchor="middle" x="554.3901" y="-119.5" font-family="Helvetica,sans-Serif" font-size="10.00" fill="#000000">cantera/base/global.h</text>
</a>
</g>
</g>
<!-- Node2&#45;&gt;Node25 -->
<g id="edge18" class="edge">
<title>Node2&#45;&gt;Node25</title>
<path fill="none" stroke="#191970" d="M567.023,-280.3458C563.0722,-271.1839 557.4228,-256.931 554.3901,-244 546.6535,-211.0122 546.1943,-201.8117 548.3901,-168 548.9499,-159.3805 550.0937,-149.9095 551.234,-141.8133"/>
<polygon fill="#191970" stroke="#191970" points="554.7086,-142.243 552.7315,-131.8343 547.7861,-141.2041 554.7086,-142.243"/>
</g>
<!-- Node4 -->
<g id="node5" class="node">
<title>Node4</title>
<g id="a_node5"><a xlink:href="ctexceptions_8h.html" target="_top" xlink:title="Definitions for the classes that are thrown when Cantera experiences an error condition (also contain...">
<polygon fill="#ffffff" stroke="#ff0000" points="341.3901,-112.5 341.3901,-131.5 481.3901,-131.5 481.3901,-112.5 341.3901,-112.5"/>
<text text-anchor="middle" x="411.3901" y="-119.5" font-family="Helvetica,sans-Serif" font-size="10.00" fill="#000000">cantera/base/ctexceptions.h</text>
</a>
</g>
</g>
<!-- Node3&#45;&gt;Node4 -->
<g id="edge4" class="edge">
<title>Node3&#45;&gt;Node4</title>
<path fill="none" stroke="#191970" d="M715.7397,-170.2253C712.6012,-169.4202 709.4335,-168.6576 706.3901,-168 666.0459,-159.2821 561.7286,-143.6083 488.6483,-133.0073"/>
<polygon fill="#191970" stroke="#191970" points="488.9518,-129.5148 478.5535,-131.5464 487.9491,-136.4427 488.9518,-129.5148"/>
</g>
<!-- Node18 -->
<g id="node6" class="node">
<title>Node18</title>
<g id="a_node6"><a xlink:href="Elements_8h.html" target="_top" xlink:title="Contains the getElementWeight function and the definitions of element constraint types. ">
<polygon fill="#ffffff" stroke="#000000" points="821.3901,-112.5 821.3901,-131.5 955.3901,-131.5 955.3901,-112.5 821.3901,-112.5"/>
<text text-anchor="middle" x="888.3901" y="-119.5" font-family="Helvetica,sans-Serif" font-size="10.00" fill="#000000">cantera/thermo/Elements.h</text>
</a>
</g>
</g>
<!-- Node3&#45;&gt;Node18 -->
<g id="edge5" class="edge">
<title>Node3&#45;&gt;Node18</title>
<path fill="none" stroke="#191970" d="M767.4884,-168.3733C791.3456,-159.2226 827.4236,-145.3844 853.9611,-135.2057"/>
<polygon fill="#191970" stroke="#191970" points="855.536,-138.3503 863.6194,-131.5011 853.0291,-131.8145 855.536,-138.3503"/>
</g>
<!-- Node19 -->
<g id="node9" class="node">
<title>Node19</title>
<g id="a_node9"><a xlink:href="Species_8h.html" target="_top" xlink:title="Declaration for class Cantera::Species. ">
<polygon fill="#ffffff" stroke="#000000" points="973.3901,-112.5 973.3901,-131.5 1101.3901,-131.5 1101.3901,-112.5 973.3901,-112.5"/>
<text text-anchor="middle" x="1037.3901" y="-119.5" font-family="Helvetica,sans-Serif" font-size="10.00" fill="#000000">cantera/thermo/Species.h</text>
</a>
</g>
</g>
<!-- Node3&#45;&gt;Node19 -->
<g id="edge8" class="edge">
<title>Node3&#45;&gt;Node19</title>
<path fill="none" stroke="#191970" d="M769.0897,-172.9316C815.8055,-164.0635 913.4534,-145.527 977.1686,-133.4319"/>
<polygon fill="#191970" stroke="#191970" points="977.9184,-136.8521 987.0902,-131.5485 976.6128,-129.975 977.9184,-136.8521"/>
</g>
<!-- Node20 -->
<g id="node10" class="node">
<title>Node20</title>
<g id="a_node10"><a xlink:href="ValueCache_8h.html" target="_top" xlink:title="cantera/base/ValueCache.h">
<polygon fill="#ffffff" stroke="#ff0000" points="665.8901,-112.5 665.8901,-131.5 802.8901,-131.5 802.8901,-112.5 665.8901,-112.5"/>
<text text-anchor="middle" x="734.3901" y="-119.5" font-family="Helvetica,sans-Serif" font-size="10.00" fill="#000000">cantera/base/ValueCache.h</text>
</a>
</g>
</g>
<!-- Node3&#45;&gt;Node20 -->
<g id="edge10" class="edge">
<title>Node3&#45;&gt;Node20</title>
<path fill="none" stroke="#191970" d="M740.9966,-168.2455C739.9527,-160.9382 738.4893,-150.6944 737.2051,-141.7046"/>
<polygon fill="#191970" stroke="#191970" points="740.6468,-141.0472 735.7677,-131.6427 733.7171,-142.0372 740.6468,-141.0472"/>
</g>
<!-- Node6 -->
<g id="node7" class="node">
<title>Node6</title>
<g id="a_node7"><a xlink:href="ct__defs_8h.html" target="_top" xlink:title="This file contains definitions of terms that are used in internal routines and are unlikely to need m...">
<polygon fill="#ffffff" stroke="#ff0000" points="608.8901,-56.5 608.8901,-75.5 665.8901,-75.5 665.8901,-56.5 608.8901,-56.5"/>
<text text-anchor="middle" x="637.3901" y="-63.5" font-family="Helvetica,sans-Serif" font-size="10.00" fill="#000000">ct_defs.h</text>
</a>
</g>
</g>
<!-- Node18&#45;&gt;Node6 -->
<g id="edge6" class="edge">
<title>Node18&#45;&gt;Node6</title>
<path fill="none" stroke="#191970" d="M845.5269,-112.4369C797.884,-101.8074 721.6388,-84.7965 675.8508,-74.5809"/>
<polygon fill="#191970" stroke="#191970" points="676.5324,-71.1469 666.0102,-72.3853 675.008,-77.979 676.5324,-71.1469"/>
</g>
<!-- Node10 -->
<g id="node8" class="node">
<title>Node10</title>
<polygon fill="#ffffff" stroke="#bfbfbf" points="289.3901,-.5 289.3901,-19.5 333.3901,-19.5 333.3901,-.5 289.3901,-.5"/>
<text text-anchor="middle" x="311.3901" y="-7.5" font-family="Helvetica,sans-Serif" font-size="10.00" fill="#000000">vector</text>
</g>
<!-- Node6&#45;&gt;Node10 -->
<g id="edge7" class="edge">
<title>Node6&#45;&gt;Node10</title>
<path fill="none" stroke="#191970" d="M608.7455,-61.0795C548.1083,-50.6632 407.1407,-26.4479 343.5388,-15.5225"/>
<polygon fill="#191970" stroke="#191970" points="344.1113,-12.0696 333.6631,-13.826 342.9262,-18.9686 344.1113,-12.0696"/>
</g>
<!-- Node19&#45;&gt;Node6 -->
<g id="edge9" class="edge">
<title>Node19&#45;&gt;Node6</title>
<path fill="none" stroke="#191970" d="M973.1232,-113.0026C889.3101,-101.2688 745.2824,-81.1049 676.3584,-71.4556"/>
<polygon fill="#191970" stroke="#191970" points="676.7445,-67.9756 666.3558,-70.0552 675.7739,-74.908 676.7445,-67.9756"/>
</g>
<!-- Node20&#45;&gt;Node6 -->
<g id="edge11" class="edge">
<title>Node20&#45;&gt;Node6</title>
<path fill="none" stroke="#191970" d="M717.494,-112.2455C702.4722,-103.5731 680.2858,-90.7645 663.0691,-80.825"/>
<polygon fill="#191970" stroke="#191970" points="664.503,-77.6114 654.0926,-75.6427 661.0031,-83.6737 664.503,-77.6114"/>
</g>
<!-- Node23 -->
<g id="node12" class="node">
<title>Node23</title>
<g id="a_node12"><a xlink:href="SpeciesThermoInterpType_8h.html" target="_top" xlink:title="Pure Virtual Base class for individual species reference state thermodynamic managers and text for th...">
<polygon fill="#ffffff" stroke="#ff0000" points="557.3901,-168.5 557.3901,-187.5 697.3901,-187.5 697.3901,-168.5 557.3901,-168.5"/>
<text text-anchor="middle" x="627.3901" y="-175.5" font-family="Helvetica,sans-Serif" font-size="10.00" fill="#000000">SpeciesThermoInterpType.h</text>
</a>
</g>
</g>
<!-- Node22&#45;&gt;Node23 -->
<g id="edge13" class="edge">
<title>Node22&#45;&gt;Node23</title>
<path fill="none" stroke="#191970" d="M621.6094,-224.2455C622.5229,-216.9382 623.8033,-206.6944 624.9271,-197.7046"/>
<polygon fill="#191970" stroke="#191970" points="628.4173,-197.9996 626.1848,-187.6427 621.4714,-197.1313 628.4173,-197.9996"/>
</g>
<!-- Node23&#45;&gt;Node4 -->
<g id="edge15" class="edge">
<title>Node23&#45;&gt;Node4</title>
<path fill="none" stroke="#191970" d="M590.2584,-168.3733C553.5635,-158.8598 497.3263,-144.2797 457.725,-134.0127"/>
<polygon fill="#191970" stroke="#191970" points="458.5957,-130.6228 448.0373,-131.5011 456.8389,-137.3988 458.5957,-130.6228"/>
</g>
<!-- Node23&#45;&gt;Node6 -->
<g id="edge14" class="edge">
<title>Node23&#45;&gt;Node6</title>
<path fill="none" stroke="#191970" d="M628.2427,-168.4509C629.8737,-150.184 633.4656,-109.9553 635.6314,-85.6976"/>
<polygon fill="#191970" stroke="#191970" points="639.1364,-85.7966 636.5397,-75.5249 632.1642,-85.174 639.1364,-85.7966"/>
</g>
<!-- Node23&#45;&gt;Node25 -->
<g id="edge16" class="edge">
<title>Node23&#45;&gt;Node25</title>
<path fill="none" stroke="#191970" d="M614.6745,-168.2455C603.7881,-159.8943 587.9019,-147.7076 575.1701,-137.9408"/>
<polygon fill="#191970" stroke="#191970" points="577.0247,-134.9523 566.96,-131.6427 572.7641,-140.5063 577.0247,-134.9523"/>
</g>
<!-- Node25&#45;&gt;Node6 -->
<g id="edge17" class="edge">
<title>Node25&#45;&gt;Node6</title>
<path fill="none" stroke="#191970" d="M568.8476,-112.2455C581.4634,-103.7337 599.9846,-91.2375 614.5947,-81.3801"/>
<polygon fill="#191970" stroke="#191970" points="616.7662,-84.1371 623.0983,-75.6427 612.8511,-78.3343 616.7662,-84.1371"/>
</g>
<!-- Node26&#45;&gt;Node4 -->
<g id="edge23" class="edge">
<title>Node26&#45;&gt;Node4</title>
<path fill="none" stroke="#191970" d="M168.4257,-168.4369C219.0971,-158.7522 297.4849,-143.7703 351.446,-133.4569"/>
<polygon fill="#191970" stroke="#191970" points="352.3958,-136.8388 361.5609,-131.5237 351.0816,-129.9633 352.3958,-136.8388"/>
</g>
<!-- Node26&#45;&gt;Node10 -->
<g id="edge20" class="edge">
<title>Node26&#45;&gt;Node10</title>
<path fill="none" stroke="#191970" d="M69.1251,-168.4342C29.9802,-158.5019 -15.0674,-140.3834 5.3901,-112 38.2367,-66.4278 207.5495,-29.637 279.2503,-15.8546"/>
<polygon fill="#191970" stroke="#191970" points="279.9193,-19.2902 289.093,-13.9898 278.6162,-12.4126 279.9193,-19.2902"/>
</g>
<!-- Node27 -->
<g id="node15" class="node">
<title>Node27</title>
<polygon fill="#ffffff" stroke="#bfbfbf" points="14.3901,-112.5 14.3901,-131.5 58.3901,-131.5 58.3901,-112.5 14.3901,-112.5"/>
<text text-anchor="middle" x="36.3901" y="-119.5" font-family="Helvetica,sans-Serif" font-size="10.00" fill="#000000">mutex</text>
</g>
<!-- Node26&#45;&gt;Node27 -->
<g id="edge21" class="edge">
<title>Node26&#45;&gt;Node27</title>
<path fill="none" stroke="#191970" d="M104.1068,-168.2455C91.6431,-159.7337 73.345,-147.2375 58.911,-137.3801"/>
<polygon fill="#191970" stroke="#191970" points="60.7417,-134.392 50.5098,-131.6427 56.7939,-140.1726 60.7417,-134.392"/>
</g>
<!-- Node28 -->
<g id="node16" class="node">
<title>Node28</title>
<polygon fill="#ffffff" stroke="#bfbfbf" points="76.8901,-112.5 76.8901,-131.5 159.8901,-131.5 159.8901,-112.5 76.8901,-112.5"/>
<text text-anchor="middle" x="118.3901" y="-119.5" font-family="Helvetica,sans-Serif" font-size="10.00" fill="#000000">unordered_map</text>
</g>
<!-- Node26&#45;&gt;Node28 -->
<g id="edge22" class="edge">
<title>Node26&#45;&gt;Node28</title>
<path fill="none" stroke="#191970" d="M118.3901,-168.2455C118.3901,-160.9382 118.3901,-150.6944 118.3901,-141.7046"/>
<polygon fill="#191970" stroke="#191970" points="121.8902,-141.6426 118.3901,-131.6427 114.8902,-141.6427 121.8902,-141.6426"/>
</g>
<!-- Node30 -->
<g id="node18" class="node">
<title>Node30</title>
<g id="a_node18"><a xlink:href="TransportParams_8h.html" target="_top" xlink:title="Class that holds the data that is read in from the XML file, and which is used for processing of the ...">
<polygon fill="#ffffff" stroke="#000000" points="302.3901,-448.5 302.3901,-467.5 402.3901,-467.5 402.3901,-448.5 302.3901,-448.5"/>
<text text-anchor="middle" x="352.3901" y="-455.5" font-family="Helvetica,sans-Serif" font-size="10.00" fill="#000000">TransportParams.h</text>
</a>
</g>
</g>
<!-- Node29&#45;&gt;Node30 -->
<g id="edge25" class="edge">
<title>Node29&#45;&gt;Node30</title>
<path fill="none" stroke="#191970" d="M369.7702,-560.4509C366.6713,-542.184 359.8468,-501.9553 355.7317,-477.6976"/>
<polygon fill="#191970" stroke="#191970" points="359.1293,-476.7986 354.006,-467.5249 352.2279,-477.9694 359.1293,-476.7986"/>
</g>
<!-- Node38 -->
<g id="node21" class="node">
<title>Node38</title>
<g id="a_node21"><a xlink:href="LiquidTranInteraction_8h.html" target="_top" xlink:title="Header file defining the class LiquidTranInteraction and classes which derive from LiquidTranInteract...">
<polygon fill="#ffffff" stroke="#000000" points="378.3901,-504.5 378.3901,-523.5 494.3901,-523.5 494.3901,-504.5 378.3901,-504.5"/>
<text text-anchor="middle" x="436.3901" y="-511.5" font-family="Helvetica,sans-Serif" font-size="10.00" fill="#000000">LiquidTranInteraction.h</text>
</a>
</g>
</g>
<!-- Node29&#45;&gt;Node38 -->
<g id="edge31" class="edge">
<title>Node29&#45;&gt;Node38</title>
<path fill="none" stroke="#191970" d="M382.7123,-560.2455C392.3124,-551.9746 406.2793,-539.9416 417.5596,-530.2232"/>
<polygon fill="#191970" stroke="#191970" points="419.9061,-532.8214 425.1977,-523.6427 415.3371,-527.5182 419.9061,-532.8214"/>
</g>
<!-- Node30&#45;&gt;Node1 -->
<g id="edge30" class="edge">
<title>Node30&#45;&gt;Node1</title>
<path fill="none" stroke="#191970" d="M368.3336,-448.4509C401.0411,-428.8615 475.9183,-384.0152 514.8555,-360.6945"/>
<polygon fill="#191970" stroke="#191970" points="516.7064,-363.6658 523.487,-355.5249 513.1096,-357.6605 516.7064,-363.6658"/>
</g>
<!-- Node31 -->
<g id="node19" class="node">
<title>Node31</title>
<g id="a_node19"><a xlink:href="DenseMatrix_8h.html" target="_top" xlink:title="Headers for the DenseMatrix object, which deals with dense rectangular matrices and description of th...">
<polygon fill="#ffffff" stroke="#000000" points="225.3901,-168.5 225.3901,-187.5 383.3901,-187.5 383.3901,-168.5 225.3901,-168.5"/>
<text text-anchor="middle" x="304.3901" y="-175.5" font-family="Helvetica,sans-Serif" font-size="10.00" fill="#000000">cantera/numerics/DenseMatrix.h</text>
</a>
</g>
</g>
<!-- Node30&#45;&gt;Node31 -->
<g id="edge26" class="edge">
<title>Node30&#45;&gt;Node31</title>
<path fill="none" stroke="#191970" d="M350.0977,-448.4772C345.6736,-429.2372 336.3901,-384.3016 336.3901,-346 336.3901,-346 336.3901,-346 336.3901,-290 336.3901,-256.132 322.6946,-218.643 313.223,-196.7657"/>
<polygon fill="#191970" stroke="#191970" points="316.405,-195.3077 309.1118,-187.6226 310.0207,-198.1784 316.405,-195.3077"/>
</g>
<!-- Node31&#45;&gt;Node4 -->
<g id="edge28" class="edge">
<title>Node31&#45;&gt;Node4</title>
<path fill="none" stroke="#191970" d="M323.0281,-168.2455C339.8288,-159.4527 364.7536,-146.4079 383.8519,-136.4125"/>
<polygon fill="#191970" stroke="#191970" points="385.7288,-139.3807 392.9657,-131.6427 382.4828,-133.1787 385.7288,-139.3807"/>
</g>
<!-- Node31&#45;&gt;Node6 -->
<g id="edge27" class="edge">
<title>Node31&#45;&gt;Node6</title>
<path fill="none" stroke="#191970" d="M305.5691,-168.1238C307.889,-153.3843 314.4891,-125.8825 332.3901,-112 373.2271,-80.3304 525.8554,-70.2672 598.4952,-67.2323"/>
<polygon fill="#191970" stroke="#191970" points="598.755,-70.7249 608.6094,-66.8338 598.4793,-63.7304 598.755,-70.7249"/>
</g>
<!-- Node32 -->
<g id="node20" class="node">
<title>Node32</title>
<g id="a_node20"><a xlink:href="Array_8h.html" target="_top" xlink:title="Header file for class Cantera::Array2D. ">
<polygon fill="#ffffff" stroke="#ff0000" points="177.8901,-112.5 177.8901,-131.5 284.8901,-131.5 284.8901,-112.5 177.8901,-112.5"/>
<text text-anchor="middle" x="231.3901" y="-119.5" font-family="Helvetica,sans-Serif" font-size="10.00" fill="#000000">cantera/base/Array.h</text>
</a>
</g>
</g>
<!-- Node31&#45;&gt;Node32 -->
<g id="edge29" class="edge">
<title>Node31&#45;&gt;Node32</title>
<path fill="none" stroke="#191970" d="M291.6745,-168.2455C280.7881,-159.8943 264.9019,-147.7076 252.1701,-137.9408"/>
<polygon fill="#191970" stroke="#191970" points="254.0247,-134.9523 243.96,-131.6427 249.7641,-140.5063 254.0247,-134.9523"/>
</g>
<!-- Node38&#45;&gt;Node30 -->
<g id="edge32" class="edge">
<title>Node38&#45;&gt;Node30</title>
<path fill="none" stroke="#191970" d="M421.7585,-504.2455C408.9907,-495.7337 390.2464,-483.2375 375.4603,-473.3801"/>
<polygon fill="#191970" stroke="#191970" points="377.1161,-470.2775 366.8541,-467.6427 373.2332,-476.1019 377.1161,-470.2775"/>
</g>
<!-- Node39 -->
<g id="node22" class="node">
<title>Node39</title>
<g id="a_node22"><a xlink:href="LiquidTransportData_8h.html" target="_top" xlink:title="Header file defining class LiquidTransportData. ">
<polygon fill="#ffffff" stroke="#000000" points="462.8901,-448.5 462.8901,-467.5 575.8901,-467.5 575.8901,-448.5 462.8901,-448.5"/>
<text text-anchor="middle" x="519.3901" y="-455.5" font-family="Helvetica,sans-Serif" font-size="10.00" fill="#000000">LiquidTransportData.h</text>
</a>
</g>
</g>
<!-- Node38&#45;&gt;Node39 -->
<g id="edge33" class="edge">
<title>Node38&#45;&gt;Node39</title>
<path fill="none" stroke="#191970" d="M450.8476,-504.2455C463.4634,-495.7337 481.9846,-483.2375 496.5947,-473.3801"/>
<polygon fill="#191970" stroke="#191970" points="498.7662,-476.1371 505.0983,-467.6427 494.8511,-470.3343 498.7662,-476.1371"/>
</g>
<!-- Node41 -->
<g id="node24" class="node">
<title>Node41</title>
<g id="a_node24"><a xlink:href="xml_8h.html" target="_top" xlink:title="Classes providing support for XML data files. ">
<polygon fill="#ffffff" stroke="#000000" points="401.3901,-168.5 401.3901,-187.5 501.3901,-187.5 501.3901,-168.5 401.3901,-168.5"/>
<text text-anchor="middle" x="451.3901" y="-175.5" font-family="Helvetica,sans-Serif" font-size="10.00" fill="#000000">cantera/base/xml.h</text>
</a>
</g>
</g>
<!-- Node38&#45;&gt;Node41 -->
<g id="edge37" class="edge">
<title>Node38&#45;&gt;Node41</title>
<path fill="none" stroke="#191970" d="M436.1036,-504.4127C435.5506,-485.0567 434.3901,-439.9227 434.3901,-402 434.3901,-402 434.3901,-402 434.3901,-290 434.3901,-257.192 441.6086,-219.584 446.6381,-197.3624"/>
<polygon fill="#191970" stroke="#191970" points="450.0718,-198.0502 448.9544,-187.5144 443.2577,-196.4474 450.0718,-198.0502"/>
</g>
<!-- Node39&#45;&gt;Node1 -->
<g id="edge34" class="edge">
<title>Node39&#45;&gt;Node1</title>
<path fill="none" stroke="#191970" d="M509.9957,-448.1545C498.8799,-435.2514 482.8898,-411.9196 491.3901,-392 496.5057,-380.0122 506.4477,-369.6498 515.9628,-361.8114"/>
<polygon fill="#191970" stroke="#191970" points="518.2698,-364.4532 524.0828,-355.5954 514.0148,-358.8949 518.2698,-364.4532"/>
</g>
<!-- Node40 -->
<g id="node23" class="node">
<title>Node40</title>
<g id="a_node23"><a xlink:href="LTPspecies_8h.html" target="_top" xlink:title="Header file defining class LTPspecies and its child classes. ">
<polygon fill="#ffffff" stroke="#000000" points="500.8901,-392.5 500.8901,-411.5 577.8901,-411.5 577.8901,-392.5 500.8901,-392.5"/>
<text text-anchor="middle" x="539.3901" y="-399.5" font-family="Helvetica,sans-Serif" font-size="10.00" fill="#000000">LTPspecies.h</text>
</a>
</g>
</g>
<!-- Node39&#45;&gt;Node40 -->
<g id="edge35" class="edge">
<title>Node39&#45;&gt;Node40</title>
<path fill="none" stroke="#191970" d="M522.8739,-448.2455C525.541,-440.7776 529.3035,-430.2427 532.5638,-421.1137"/>
<polygon fill="#191970" stroke="#191970" points="535.879,-422.2373 535.9463,-411.6427 529.2868,-419.8829 535.879,-422.2373"/>
</g>
<!-- Node40&#45;&gt;Node1 -->
<g id="edge36" class="edge">
<title>Node40&#45;&gt;Node1</title>
<path fill="none" stroke="#191970" d="M539.3901,-392.2455C539.3901,-384.9382 539.3901,-374.6944 539.3901,-365.7046"/>
<polygon fill="#191970" stroke="#191970" points="542.8902,-365.6426 539.3901,-355.6427 535.8902,-365.6427 542.8902,-365.6426"/>
</g>
<!-- Node41&#45;&gt;Node4 -->
<g id="edge38" class="edge">
<title>Node41&#45;&gt;Node4</title>
<path fill="none" stroke="#191970" d="M444.4227,-168.2455C438.859,-160.4564 430.9121,-149.3308 424.2072,-139.9439"/>
<polygon fill="#191970" stroke="#191970" points="426.9383,-137.7457 418.2778,-131.6427 421.2421,-141.8144 426.9383,-137.7457"/>
</g>
<!-- Node41&#45;&gt;Node25 -->
<g id="edge39" class="edge">
<title>Node41&#45;&gt;Node25</title>
<path fill="none" stroke="#191970" d="M469.3314,-168.2455C485.4301,-159.4928 509.278,-146.527 527.6292,-136.5496"/>
<polygon fill="#191970" stroke="#191970" points="529.5408,-139.4942 536.6545,-131.6427 526.1972,-133.3444 529.5408,-139.4942"/>
</g>
</g>
</svg>
