<?xml version="1.0" encoding="UTF-8" standalone="no"?>
<!DOCTYPE svg PUBLIC "-//W3C//DTD SVG 1.1//EN"
 "http://www.w3.org/Graphics/SVG/1.1/DTD/svg11.dtd">
<!-- Generated by graphviz version 2.40.1 (20161225.0304)
 -->
<!-- Title: vcs_species_thermo.cpp Pages: 1 -->
<svg width="773pt" height="431pt"
 viewBox="0.00 0.00 772.50 431.00" xmlns="http://www.w3.org/2000/svg" xmlns:xlink="http://www.w3.org/1999/xlink">
<g id="graph0" class="graph" transform="scale(1 1) rotate(0) translate(4 427)">
<title>vcs_species_thermo.cpp</title>
<polygon fill="#ffffff" stroke="transparent" points="-4,4 -4,-427 768.5,-427 768.5,4 -4,4"/>
<!-- Node0 -->
<g id="node1" class="node">
<title>Node0</title>
<polygon fill="#bfbfbf" stroke="#000000" points="392.5,-403.5 392.5,-422.5 517.5,-422.5 517.5,-403.5 392.5,-403.5"/>
<text text-anchor="middle" x="455" y="-410.5" font-family="Helvetica,sans-Serif" font-size="10.00" fill="#000000">vcs_species_thermo.cpp</text>
</g>
<!-- Node1 -->
<g id="node2" class="node">
<title>Node1</title>
<g id="a_node2"><a xlink:href="vcs__species__thermo_8h.html" target="_top" xlink:title="cantera/equil/vcs_species\l_thermo.h">
<polygon fill="#ffffff" stroke="#000000" points="0,-112.5 0,-142.5 130,-142.5 130,-112.5 0,-112.5"/>
<text text-anchor="start" x="8" y="-130.5" font-family="Helvetica,sans-Serif" font-size="10.00" fill="#000000">cantera/equil/vcs_species</text>
<text text-anchor="middle" x="65" y="-119.5" font-family="Helvetica,sans-Serif" font-size="10.00" fill="#000000">_thermo.h</text>
</a>
</g>
</g>
<!-- Node0&#45;&gt;Node1 -->
<g id="edge1" class="edge">
<title>Node0&#45;&gt;Node1</title>
<path fill="none" stroke="#191970" d="M392.338,-404.5657C297.3881,-390.0053 128,-356.2828 128,-301 128,-301 128,-301 128,-245 128,-208.877 104.587,-173.1294 86.307,-150.724"/>
<polygon fill="#191970" stroke="#191970" points="88.745,-148.1871 79.6118,-142.8173 83.4029,-152.7106 88.745,-148.1871"/>
</g>
<!-- Node3 -->
<g id="node4" class="node">
<title>Node3</title>
<g id="a_node4"><a xlink:href="vcs__defs_8h.html" target="_top" xlink:title="Defines and definitions within the vcs package. ">
<polygon fill="#ffffff" stroke="#000000" points="641.5,-347.5 641.5,-366.5 764.5,-366.5 764.5,-347.5 641.5,-347.5"/>
<text text-anchor="middle" x="703" y="-354.5" font-family="Helvetica,sans-Serif" font-size="10.00" fill="#000000">cantera/equil/vcs_defs.h</text>
</a>
</g>
</g>
<!-- Node0&#45;&gt;Node3 -->
<g id="edge3" class="edge">
<title>Node0&#45;&gt;Node3</title>
<path fill="none" stroke="#191970" d="M497.3509,-403.4369C539.7942,-393.8529 605.2119,-379.0812 650.8313,-368.78"/>
<polygon fill="#191970" stroke="#191970" points="651.8403,-372.1404 660.8237,-366.5237 650.2984,-365.3123 651.8403,-372.1404"/>
</g>
<!-- Node4 -->
<g id="node5" class="node">
<title>Node4</title>
<g id="a_node5"><a xlink:href="vcs__VolPhase_8h.html" target="_top" xlink:title="Header for the object representing each phase within vcs. ">
<polygon fill="#ffffff" stroke="#000000" points="244,-347.5 244,-366.5 390,-366.5 390,-347.5 244,-347.5"/>
<text text-anchor="middle" x="317" y="-354.5" font-family="Helvetica,sans-Serif" font-size="10.00" fill="#000000">cantera/equil/vcs_VolPhase.h</text>
</a>
</g>
</g>
<!-- Node0&#45;&gt;Node4 -->
<g id="edge4" class="edge">
<title>Node0&#45;&gt;Node4</title>
<path fill="none" stroke="#191970" d="M431.277,-403.3733C408.8263,-394.2629 374.9261,-380.5062 349.8745,-370.3404"/>
<polygon fill="#191970" stroke="#191970" points="350.9957,-367.0182 340.4135,-366.5011 348.3635,-373.5045 350.9957,-367.0182"/>
</g>
<!-- Node24 -->
<g id="node23" class="node">
<title>Node24</title>
<g id="a_node23"><a xlink:href="ctexceptions_8h.html" target="_top" xlink:title="Definitions for the classes that are thrown when Cantera experiences an error condition (also contain...">
<polygon fill="#ffffff" stroke="#000000" points="483,-347.5 483,-366.5 623,-366.5 623,-347.5 483,-347.5"/>
<text text-anchor="middle" x="553" y="-354.5" font-family="Helvetica,sans-Serif" font-size="10.00" fill="#000000">cantera/base/ctexceptions.h</text>
</a>
</g>
</g>
<!-- Node0&#45;&gt;Node24 -->
<g id="edge26" class="edge">
<title>Node0&#45;&gt;Node24</title>
<path fill="none" stroke="#191970" d="M472.0703,-403.2455C487.247,-394.5731 509.6621,-381.7645 527.0563,-371.825"/>
<polygon fill="#191970" stroke="#191970" points="529.1794,-374.643 536.1253,-366.6427 525.7064,-368.5653 529.1794,-374.643"/>
</g>
<!-- Node26 -->
<g id="node25" class="node">
<title>Node26</title>
<g id="a_node25"><a xlink:href="vcs__internal_8h.html" target="_top" xlink:title="Internal declarations for the VCSnonideal package. ">
<polygon fill="#ffffff" stroke="#000000" points="389,-291.5 389,-310.5 525,-310.5 525,-291.5 389,-291.5"/>
<text text-anchor="middle" x="457" y="-298.5" font-family="Helvetica,sans-Serif" font-size="10.00" fill="#000000">cantera/equil/vcs_internal.h</text>
</a>
</g>
</g>
<!-- Node0&#45;&gt;Node26 -->
<g id="edge29" class="edge">
<title>Node0&#45;&gt;Node26</title>
<path fill="none" stroke="#191970" d="M455.1705,-403.4509C455.4967,-385.184 456.2151,-344.9553 456.6483,-320.6976"/>
<polygon fill="#191970" stroke="#191970" points="460.1507,-320.5858 456.8299,-310.5249 453.1518,-320.4608 460.1507,-320.5858"/>
</g>
<!-- Node2 -->
<g id="node3" class="node">
<title>Node2</title>
<polygon fill="#ffffff" stroke="#bfbfbf" points="42.5,-.5 42.5,-19.5 87.5,-19.5 87.5,-.5 42.5,-.5"/>
<text text-anchor="middle" x="65" y="-7.5" font-family="Helvetica,sans-Serif" font-size="10.00" fill="#000000">cstdlib</text>
</g>
<!-- Node1&#45;&gt;Node2 -->
<g id="edge2" class="edge">
<title>Node1&#45;&gt;Node2</title>
<path fill="none" stroke="#191970" d="M65,-112.1389C65,-90.9692 65,-52.8174 65,-29.6112"/>
<polygon fill="#191970" stroke="#191970" points="68.5001,-29.5594 65,-19.5595 61.5001,-29.5595 68.5001,-29.5594"/>
</g>
<!-- Node5 -->
<g id="node6" class="node">
<title>Node5</title>
<g id="a_node6"><a xlink:href="vcs__SpeciesProperties_8h.html" target="_top" xlink:title="cantera/equil/vcs_Species\lProperties.h">
<polygon fill="#ffffff" stroke="#000000" points="148.5,-112.5 148.5,-142.5 279.5,-142.5 279.5,-112.5 148.5,-112.5"/>
<text text-anchor="start" x="156.5" y="-130.5" font-family="Helvetica,sans-Serif" font-size="10.00" fill="#000000">cantera/equil/vcs_Species</text>
<text text-anchor="middle" x="214" y="-119.5" font-family="Helvetica,sans-Serif" font-size="10.00" fill="#000000">Properties.h</text>
</a>
</g>
</g>
<!-- Node4&#45;&gt;Node5 -->
<g id="edge5" class="edge">
<title>Node4&#45;&gt;Node5</title>
<path fill="none" stroke="#191970" d="M296.8919,-347.3444C282.7322,-339.5042 264.4966,-327.1135 254,-311 221.766,-261.517 215.1209,-190.1997 213.9913,-152.7131"/>
<polygon fill="#191970" stroke="#191970" points="217.4896,-152.5856 213.7987,-142.6545 210.4909,-152.7197 217.4896,-152.5856"/>
</g>
<!-- Node14 -->
<g id="node15" class="node">
<title>Node14</title>
<g id="a_node15"><a xlink:href="Array_8h.html" target="_top" xlink:title="Header file for class Cantera::Array2D. ">
<polygon fill="#ffffff" stroke="#000000" points="263.5,-291.5 263.5,-310.5 370.5,-310.5 370.5,-291.5 263.5,-291.5"/>
<text text-anchor="middle" x="317" y="-298.5" font-family="Helvetica,sans-Serif" font-size="10.00" fill="#000000">cantera/base/Array.h</text>
</a>
</g>
</g>
<!-- Node4&#45;&gt;Node14 -->
<g id="edge15" class="edge">
<title>Node4&#45;&gt;Node14</title>
<path fill="none" stroke="#191970" d="M317,-347.2455C317,-339.9382 317,-329.6944 317,-320.7046"/>
<polygon fill="#191970" stroke="#191970" points="320.5001,-320.6426 317,-310.6427 313.5001,-320.6427 320.5001,-320.6426"/>
</g>
<!-- Node6 -->
<g id="node7" class="node">
<title>Node6</title>
<g id="a_node7"><a xlink:href="ct__defs_8h.html" target="_top" xlink:title="This file contains definitions of terms that are used in internal routines and are unlikely to need m...">
<polygon fill="#ffffff" stroke="#000000" points="254,-56.5 254,-75.5 370,-75.5 370,-56.5 254,-56.5"/>
<text text-anchor="middle" x="312" y="-63.5" font-family="Helvetica,sans-Serif" font-size="10.00" fill="#000000">cantera/base/ct_defs.h</text>
</a>
</g>
</g>
<!-- Node5&#45;&gt;Node6 -->
<g id="edge6" class="edge">
<title>Node5&#45;&gt;Node6</title>
<path fill="none" stroke="#191970" d="M237.9735,-112.4554C253.1776,-102.9141 272.7759,-90.6151 287.9875,-81.0691"/>
<polygon fill="#191970" stroke="#191970" points="290.2037,-83.8105 296.8135,-75.5303 286.4828,-77.8813 290.2037,-83.8105"/>
</g>
<!-- Node6&#45;&gt;Node2 -->
<g id="edge9" class="edge">
<title>Node6&#45;&gt;Node2</title>
<path fill="none" stroke="#191970" d="M259.7084,-56.4182C217.9742,-48.4194 157.8636,-36.1163 97.3246,-20.1769"/>
<polygon fill="#191970" stroke="#191970" points="98.1716,-16.7805 87.6076,-17.5876 96.3692,-23.5445 98.1716,-16.7805"/>
</g>
<!-- Node7 -->
<g id="node8" class="node">
<title>Node7</title>
<g id="a_node8"><a xlink:href="config_8h_source.html" target="_top" xlink:title="config.h">
<polygon fill="#ffffff" stroke="#000000" points="105.5,-.5 105.5,-19.5 156.5,-19.5 156.5,-.5 105.5,-.5"/>
<text text-anchor="middle" x="131" y="-7.5" font-family="Helvetica,sans-Serif" font-size="10.00" fill="#000000">config.h</text>
</a>
</g>
</g>
<!-- Node6&#45;&gt;Node7 -->
<g id="edge7" class="edge">
<title>Node6&#45;&gt;Node7</title>
<path fill="none" stroke="#191970" d="M280.885,-56.3733C249.1,-46.5392 199.8172,-31.2915 166.5213,-20.99"/>
<polygon fill="#191970" stroke="#191970" points="167.3262,-17.5754 156.7384,-17.9633 165.2571,-24.2627 167.3262,-17.5754"/>
</g>
<!-- Node8 -->
<g id="node9" class="node">
<title>Node8</title>
<polygon fill="#ffffff" stroke="#bfbfbf" points="175,-.5 175,-19.5 219,-19.5 219,-.5 175,-.5"/>
<text text-anchor="middle" x="197" y="-7.5" font-family="Helvetica,sans-Serif" font-size="10.00" fill="#000000">cmath</text>
</g>
<!-- Node6&#45;&gt;Node8 -->
<g id="edge8" class="edge">
<title>Node6&#45;&gt;Node8</title>
<path fill="none" stroke="#191970" d="M292.2308,-56.3733C273.8531,-47.4241 246.2688,-33.9917 225.5107,-23.8835"/>
<polygon fill="#191970" stroke="#191970" points="227.0343,-20.7325 216.5112,-19.5011 223.9696,-27.026 227.0343,-20.7325"/>
</g>
<!-- Node9 -->
<g id="node10" class="node">
<title>Node9</title>
<polygon fill="#ffffff" stroke="#bfbfbf" points="237,-.5 237,-19.5 281,-19.5 281,-.5 237,-.5"/>
<text text-anchor="middle" x="259" y="-7.5" font-family="Helvetica,sans-Serif" font-size="10.00" fill="#000000">vector</text>
</g>
<!-- Node6&#45;&gt;Node9 -->
<g id="edge10" class="edge">
<title>Node6&#45;&gt;Node9</title>
<path fill="none" stroke="#191970" d="M302.7681,-56.2455C295.1683,-48.2155 284.2123,-36.6394 275.1632,-27.0781"/>
<polygon fill="#191970" stroke="#191970" points="277.542,-24.4998 268.1261,-19.6427 272.4579,-29.3115 277.542,-24.4998"/>
</g>
<!-- Node10 -->
<g id="node11" class="node">
<title>Node10</title>
<polygon fill="#ffffff" stroke="#bfbfbf" points="299.5,-.5 299.5,-19.5 334.5,-19.5 334.5,-.5 299.5,-.5"/>
<text text-anchor="middle" x="317" y="-7.5" font-family="Helvetica,sans-Serif" font-size="10.00" fill="#000000">map</text>
</g>
<!-- Node6&#45;&gt;Node10 -->
<g id="edge11" class="edge">
<title>Node6&#45;&gt;Node10</title>
<path fill="none" stroke="#191970" d="M312.8709,-56.2455C313.5234,-48.9382 314.438,-38.6944 315.2407,-29.7046"/>
<polygon fill="#191970" stroke="#191970" points="318.7358,-29.9143 316.139,-19.6427 311.7635,-29.2918 318.7358,-29.9143"/>
</g>
<!-- Node11 -->
<g id="node12" class="node">
<title>Node11</title>
<polygon fill="#ffffff" stroke="#bfbfbf" points="352.5,-.5 352.5,-19.5 393.5,-19.5 393.5,-.5 352.5,-.5"/>
<text text-anchor="middle" x="373" y="-7.5" font-family="Helvetica,sans-Serif" font-size="10.00" fill="#000000">string</text>
</g>
<!-- Node6&#45;&gt;Node11 -->
<g id="edge12" class="edge">
<title>Node6&#45;&gt;Node11</title>
<path fill="none" stroke="#191970" d="M322.6254,-56.2455C331.5473,-48.0549 344.488,-36.1749 355.0192,-26.5069"/>
<polygon fill="#191970" stroke="#191970" points="357.4968,-28.9837 362.4964,-19.6427 352.7629,-23.8271 357.4968,-28.9837"/>
</g>
<!-- Node12 -->
<g id="node13" class="node">
<title>Node12</title>
<polygon fill="#ffffff" stroke="#bfbfbf" points="412,-.5 412,-19.5 468,-19.5 468,-.5 412,-.5"/>
<text text-anchor="middle" x="440" y="-7.5" font-family="Helvetica,sans-Serif" font-size="10.00" fill="#000000">algorithm</text>
</g>
<!-- Node6&#45;&gt;Node12 -->
<g id="edge13" class="edge">
<title>Node6&#45;&gt;Node12</title>
<path fill="none" stroke="#191970" d="M334.004,-56.3733C354.6435,-47.3435 385.7158,-33.7494 408.8889,-23.6111"/>
<polygon fill="#191970" stroke="#191970" points="410.5245,-26.7159 418.2831,-19.5011 407.7187,-20.3028 410.5245,-26.7159"/>
</g>
<!-- Node13 -->
<g id="node14" class="node">
<title>Node13</title>
<polygon fill="#ffffff" stroke="#bfbfbf" points="486,-.5 486,-19.5 538,-19.5 538,-.5 486,-.5"/>
<text text-anchor="middle" x="512" y="-7.5" font-family="Helvetica,sans-Serif" font-size="10.00" fill="#000000">memory</text>
</g>
<!-- Node6&#45;&gt;Node13 -->
<g id="edge14" class="edge">
<title>Node6&#45;&gt;Node13</title>
<path fill="none" stroke="#191970" d="M346.4644,-56.461C377.8356,-47.7628 425.687,-34.457 475.8981,-20.3001"/>
<polygon fill="#191970" stroke="#191970" points="476.9583,-23.6377 485.6319,-17.5533 475.0572,-16.9008 476.9583,-23.6377"/>
</g>
<!-- Node15 -->
<g id="node16" class="node">
<title>Node15</title>
<g id="a_node16"><a xlink:href="utilities_8h.html" target="_top" xlink:title="Various templated functions that carry out common vector operations (see Templated Utility Functions)...">
<polygon fill="#ffffff" stroke="#000000" points="280,-235.5 280,-254.5 336,-254.5 336,-235.5 280,-235.5"/>
<text text-anchor="middle" x="308" y="-242.5" font-family="Helvetica,sans-Serif" font-size="10.00" fill="#000000">utilities.h</text>
</a>
</g>
</g>
<!-- Node14&#45;&gt;Node15 -->
<g id="edge16" class="edge">
<title>Node14&#45;&gt;Node15</title>
<path fill="none" stroke="#191970" d="M315.4323,-291.2455C314.2579,-283.9382 312.6116,-273.6944 311.1668,-264.7046"/>
<polygon fill="#191970" stroke="#191970" points="314.5922,-263.9606 309.5497,-254.6427 307.6809,-265.0714 314.5922,-263.9606"/>
</g>
<!-- Node22 -->
<g id="node21" class="node">
<title>Node22</title>
<polygon fill="#ffffff" stroke="#bfbfbf" points="354,-235.5 354,-254.5 408,-254.5 408,-235.5 354,-235.5"/>
<text text-anchor="middle" x="381" y="-242.5" font-family="Helvetica,sans-Serif" font-size="10.00" fill="#000000">iostream</text>
</g>
<!-- Node14&#45;&gt;Node22 -->
<g id="edge24" class="edge">
<title>Node14&#45;&gt;Node22</title>
<path fill="none" stroke="#191970" d="M328.1479,-291.2455C337.5087,-283.0549 351.0858,-271.1749 362.1349,-261.5069"/>
<polygon fill="#191970" stroke="#191970" points="364.7588,-263.8618 369.9798,-254.6427 360.1492,-258.5937 364.7588,-263.8618"/>
</g>
<!-- Node23 -->
<g id="node22" class="node">
<title>Node23</title>
<polygon fill="#ffffff" stroke="#bfbfbf" points="426,-235.5 426,-254.5 472,-254.5 472,-235.5 426,-235.5"/>
<text text-anchor="middle" x="449" y="-242.5" font-family="Helvetica,sans-Serif" font-size="10.00" fill="#000000">cstring</text>
</g>
<!-- Node14&#45;&gt;Node23 -->
<g id="edge25" class="edge">
<title>Node14&#45;&gt;Node23</title>
<path fill="none" stroke="#191970" d="M339.6916,-291.3733C361.0711,-282.3032 393.3057,-268.6279 417.2362,-258.4755"/>
<polygon fill="#191970" stroke="#191970" points="418.7656,-261.6287 426.6045,-254.5011 416.0317,-255.1846 418.7656,-261.6287"/>
</g>
<!-- Node15&#45;&gt;Node6 -->
<g id="edge17" class="edge">
<title>Node15&#45;&gt;Node6</title>
<path fill="none" stroke="#191970" d="M308.2151,-235.3762C308.8445,-207.2097 310.6925,-124.5126 311.5515,-86.0713"/>
<polygon fill="#191970" stroke="#191970" points="315.0595,-85.7471 311.7839,-75.6714 308.0613,-85.5907 315.0595,-85.7471"/>
</g>
<!-- Node16 -->
<g id="node17" class="node">
<title>Node16</title>
<g id="a_node17"><a xlink:href="global_8h.html" target="_top" xlink:title="This file contains definitions for utility functions and text for modules, inputfiles, logs, textlogs, (see Input File Handling, Diagnostic Output, and Writing messages to the screen). ">
<polygon fill="#ffffff" stroke="#000000" points="475,-179.5 475,-198.5 525,-198.5 525,-179.5 475,-179.5"/>
<text text-anchor="middle" x="500" y="-186.5" font-family="Helvetica,sans-Serif" font-size="10.00" fill="#000000">global.h</text>
</a>
</g>
</g>
<!-- Node15&#45;&gt;Node16 -->
<g id="edge18" class="edge">
<title>Node15&#45;&gt;Node16</title>
<path fill="none" stroke="#191970" d="M336.3303,-236.737C370.5603,-226.7533 428.1442,-209.958 465.0855,-199.1834"/>
<polygon fill="#191970" stroke="#191970" points="466.3009,-202.4748 474.9209,-196.3147 464.3409,-195.7548 466.3009,-202.4748"/>
</g>
<!-- Node20 -->
<g id="node19" class="node">
<title>Node20</title>
<polygon fill="#ffffff" stroke="#bfbfbf" points="328.5,-179.5 328.5,-198.5 387.5,-198.5 387.5,-179.5 328.5,-179.5"/>
<text text-anchor="middle" x="358" y="-186.5" font-family="Helvetica,sans-Serif" font-size="10.00" fill="#000000">stdexcept</text>
</g>
<!-- Node15&#45;&gt;Node20 -->
<g id="edge22" class="edge">
<title>Node15&#45;&gt;Node20</title>
<path fill="none" stroke="#191970" d="M316.7093,-235.2455C323.8073,-227.2958 334.0084,-215.8706 342.495,-206.3656"/>
<polygon fill="#191970" stroke="#191970" points="345.3411,-208.4331 349.3905,-198.6427 340.1195,-203.771 345.3411,-208.4331"/>
</g>
<!-- Node21 -->
<g id="node20" class="node">
<title>Node21</title>
<polygon fill="#ffffff" stroke="#bfbfbf" points="405.5,-179.5 405.5,-198.5 456.5,-198.5 456.5,-179.5 405.5,-179.5"/>
<text text-anchor="middle" x="431" y="-186.5" font-family="Helvetica,sans-Serif" font-size="10.00" fill="#000000">numeric</text>
</g>
<!-- Node15&#45;&gt;Node21 -->
<g id="edge23" class="edge">
<title>Node15&#45;&gt;Node21</title>
<path fill="none" stroke="#191970" d="M329.1445,-235.3733C348.8892,-226.3838 378.5698,-212.8706 400.8055,-202.7471"/>
<polygon fill="#191970" stroke="#191970" points="402.4806,-205.8302 410.1315,-198.5011 399.58,-199.4594 402.4806,-205.8302"/>
</g>
<!-- Node16&#45;&gt;Node6 -->
<g id="edge19" class="edge">
<title>Node16&#45;&gt;Node6</title>
<path fill="none" stroke="#191970" d="M485.248,-179.3484C452.7125,-158.0619 374.5788,-106.9425 335.3299,-81.2637"/>
<polygon fill="#191970" stroke="#191970" points="336.9679,-78.1529 326.6835,-75.6068 333.1354,-84.0106 336.9679,-78.1529"/>
</g>
<!-- Node17 -->
<g id="node18" class="node">
<title>Node17</title>
<g id="a_node18"><a xlink:href="fmt_8h.html" target="_top" xlink:title="Wrapper for either system&#45;installed or local headers for fmt. ">
<polygon fill="#ffffff" stroke="#ff0000" points="451,-118 451,-137 549,-137 549,-118 451,-118"/>
<text text-anchor="middle" x="500" y="-125" font-family="Helvetica,sans-Serif" font-size="10.00" fill="#000000">cantera/base/fmt.h</text>
</a>
</g>
</g>
<!-- Node16&#45;&gt;Node17 -->
<g id="edge20" class="edge">
<title>Node16&#45;&gt;Node17</title>
<path fill="none" stroke="#191970" d="M500,-179.3906C500,-170.8657 500,-158.1392 500,-147.4235"/>
<polygon fill="#191970" stroke="#191970" points="503.5001,-147.2448 500,-137.2449 496.5001,-147.2449 503.5001,-147.2448"/>
</g>
<!-- Node17&#45;&gt;Node6 -->
<g id="edge21" class="edge">
<title>Node17&#45;&gt;Node6</title>
<path fill="none" stroke="#191970" d="M470.625,-117.8906C438.3414,-107.3298 386.3465,-90.3208 350.7453,-78.6747"/>
<polygon fill="#191970" stroke="#191970" points="351.7613,-75.3246 341.1687,-75.5419 349.5849,-81.9776 351.7613,-75.3246"/>
</g>
<!-- Node24&#45;&gt;Node17 -->
<g id="edge27" class="edge">
<title>Node24&#45;&gt;Node17</title>
<path fill="none" stroke="#191970" d="M553.5347,-347.385C554.7282,-320.0859 555.9625,-240.128 534,-179 529.6625,-166.9275 521.9448,-154.8821 514.9576,-145.4793"/>
<polygon fill="#191970" stroke="#191970" points="517.5299,-143.0867 508.6165,-137.3593 512.0129,-147.3951 517.5299,-143.0867"/>
</g>
<!-- Node25 -->
<g id="node24" class="node">
<title>Node25</title>
<polygon fill="#ffffff" stroke="#bfbfbf" points="581.5,-291.5 581.5,-310.5 640.5,-310.5 640.5,-291.5 581.5,-291.5"/>
<text text-anchor="middle" x="611" y="-298.5" font-family="Helvetica,sans-Serif" font-size="10.00" fill="#000000">exception</text>
</g>
<!-- Node24&#45;&gt;Node25 -->
<g id="edge28" class="edge">
<title>Node24&#45;&gt;Node25</title>
<path fill="none" stroke="#191970" d="M563.1028,-347.2455C571.5028,-339.1352 583.6494,-327.4075 593.6084,-317.7919"/>
<polygon fill="#191970" stroke="#191970" points="596.25,-320.1066 601.0129,-310.6427 591.3878,-315.0707 596.25,-320.1066"/>
</g>
<!-- Node26&#45;&gt;Node16 -->
<g id="edge30" class="edge">
<title>Node26&#45;&gt;Node16</title>
<path fill="none" stroke="#191970" d="M462.7358,-291.3987C468.0098,-282.2742 475.7801,-268.0465 481,-255 487.0903,-239.7781 492.1195,-221.8677 495.4705,-208.5482"/>
<polygon fill="#191970" stroke="#191970" points="498.9278,-209.142 497.8771,-198.5994 492.124,-207.4961 498.9278,-209.142"/>
</g>
</g>
</svg>
