<?xml version="1.0" encoding="UTF-8" standalone="no"?>
<!DOCTYPE svg PUBLIC "-//W3C//DTD SVG 1.1//EN"
 "http://www.w3.org/Graphics/SVG/1.1/DTD/svg11.dtd">
<!-- Generated by graphviz version 2.40.1 (20161225.0304)
 -->
<!-- Title: VPSSMgr_General.h Pages: 1 -->
<svg width="256pt" height="84pt"
 viewBox="0.00 0.00 256.00 84.00" xmlns="http://www.w3.org/2000/svg" xmlns:xlink="http://www.w3.org/1999/xlink">
<g id="graph0" class="graph" transform="scale(1 1) rotate(0) translate(4 80)">
<title>VPSSMgr_General.h</title>
<polygon fill="#ffffff" stroke="transparent" points="-4,4 -4,-80 252,-80 252,4 -4,4"/>
<!-- Node16 -->
<g id="node1" class="node">
<title>Node16</title>
<polygon fill="#bfbfbf" stroke="#000000" points="71.5,-56.5 71.5,-75.5 178.5,-75.5 178.5,-56.5 71.5,-56.5"/>
<text text-anchor="middle" x="125" y="-63.5" font-family="Helvetica,sans-Serif" font-size="10.00" fill="#000000">VPSSMgr_General.h</text>
</g>
<!-- Node17 -->
<g id="node2" class="node">
<title>Node17</title>
<g id="a_node2"><a xlink:href="VPSSMgr__General_8cpp.html" target="_top" xlink:title="Definition file for a derived class that handles the calculation of standard state thermo properties ...">
<polygon fill="#ffffff" stroke="#000000" points="0,-.5 0,-19.5 118,-19.5 118,-.5 0,-.5"/>
<text text-anchor="middle" x="59" y="-7.5" font-family="Helvetica,sans-Serif" font-size="10.00" fill="#000000">VPSSMgr_General.cpp</text>
</a>
</g>
</g>
<!-- Node16&#45;&gt;Node17 -->
<g id="edge1" class="edge">
<title>Node16&#45;&gt;Node17</title>
<path fill="none" stroke="#191970" d="M105.7245,-49.645C94.2462,-39.9058 80.0723,-27.8795 70.3646,-19.6427"/>
<polygon fill="#191970" stroke="#191970" points="103.6141,-52.4445 113.5037,-56.2455 108.143,-47.1069 103.6141,-52.4445"/>
</g>
<!-- Node18 -->
<g id="node3" class="node">
<title>Node18</title>
<g id="a_node3"><a xlink:href="VPSSMgrFactory_8cpp.html" target="_top" xlink:title="Definitions for factory to build instances of classes that manage the calculation of standard state p...">
<polygon fill="#ffffff" stroke="#000000" points="136,-.5 136,-19.5 248,-19.5 248,-.5 136,-.5"/>
<text text-anchor="middle" x="192" y="-7.5" font-family="Helvetica,sans-Serif" font-size="10.00" fill="#000000">VPSSMgrFactory.cpp</text>
</a>
</g>
</g>
<!-- Node16&#45;&gt;Node18 -->
<g id="edge2" class="edge">
<title>Node16&#45;&gt;Node18</title>
<path fill="none" stroke="#191970" d="M144.5676,-49.645C156.2198,-39.9058 170.6084,-27.8795 180.4632,-19.6427"/>
<polygon fill="#191970" stroke="#191970" points="142.0988,-47.1469 136.6705,-56.2455 146.5879,-52.5179 142.0988,-47.1469"/>
</g>
</g>
</svg>
