<?xml version="1.0" encoding="UTF-8" standalone="no"?>
<!DOCTYPE svg PUBLIC "-//W3C//DTD SVG 1.1//EN"
 "http://www.w3.org/Graphics/SVG/1.1/DTD/svg11.dtd">
<!-- Generated by graphviz version 2.40.1 (20161225.0304)
 -->
<!-- Title: VPSSMgrFactory.h Pages: 1 -->
<svg width="240pt" height="84pt"
 viewBox="0.00 0.00 239.50 84.00" xmlns="http://www.w3.org/2000/svg" xmlns:xlink="http://www.w3.org/1999/xlink">
<g id="graph0" class="graph" transform="scale(1 1) rotate(0) translate(4 80)">
<title>VPSSMgrFactory.h</title>
<polygon fill="#ffffff" stroke="transparent" points="-4,4 -4,-80 235.5,-80 235.5,4 -4,4"/>
<!-- Node21 -->
<g id="node1" class="node">
<title>Node21</title>
<polygon fill="#bfbfbf" stroke="#000000" points="62,-56.5 62,-75.5 163,-75.5 163,-56.5 62,-56.5"/>
<text text-anchor="middle" x="112.5" y="-63.5" font-family="Helvetica,sans-Serif" font-size="10.00" fill="#000000">VPSSMgrFactory.h</text>
</g>
<!-- Node22 -->
<g id="node2" class="node">
<title>Node22</title>
<g id="a_node2"><a xlink:href="ThermoFactory_8cpp.html" target="_top" xlink:title="Definitions for the factory class that can create known ThermoPhase objects (see Thermodynamic Proper...">
<polygon fill="#ffffff" stroke="#000000" points="0,-.5 0,-19.5 101,-19.5 101,-.5 0,-.5"/>
<text text-anchor="middle" x="50.5" y="-7.5" font-family="Helvetica,sans-Serif" font-size="10.00" fill="#000000">ThermoFactory.cpp</text>
</a>
</g>
</g>
<!-- Node21&#45;&gt;Node22 -->
<g id="edge1" class="edge">
<title>Node21&#45;&gt;Node22</title>
<path fill="none" stroke="#191970" d="M94.0779,-49.3607C83.3519,-39.6727 70.2066,-27.7995 61.1758,-19.6427"/>
<polygon fill="#191970" stroke="#191970" points="91.9334,-52.14 101.7004,-56.2455 96.6254,-46.9453 91.9334,-52.14"/>
</g>
<!-- Node23 -->
<g id="node3" class="node">
<title>Node23</title>
<g id="a_node3"><a xlink:href="VPSSMgrFactory_8cpp.html" target="_top" xlink:title="Definitions for factory to build instances of classes that manage the calculation of standard state p...">
<polygon fill="#ffffff" stroke="#000000" points="119.5,-.5 119.5,-19.5 231.5,-19.5 231.5,-.5 119.5,-.5"/>
<text text-anchor="middle" x="175.5" y="-7.5" font-family="Helvetica,sans-Serif" font-size="10.00" fill="#000000">VPSSMgrFactory.cpp</text>
</a>
</g>
</g>
<!-- Node21&#45;&gt;Node23 -->
<g id="edge2" class="edge">
<title>Node21&#45;&gt;Node23</title>
<path fill="none" stroke="#191970" d="M131.2192,-49.3607C142.1182,-39.6727 155.4755,-27.7995 164.652,-19.6427"/>
<polygon fill="#191970" stroke="#191970" points="128.6226,-46.9859 123.4738,-56.2455 133.2732,-52.2178 128.6226,-46.9859"/>
</g>
</g>
</svg>
