<?xml version="1.0" encoding="UTF-8" standalone="no"?>
<!DOCTYPE svg PUBLIC "-//W3C//DTD SVG 1.1//EN"
 "http://www.w3.org/Graphics/SVG/1.1/DTD/svg11.dtd">
<!-- Generated by graphviz version 2.36.0 (20140111.2315)
 -->
<!-- Title: BEulerInt.cpp Pages: 1 -->
<svg width="835pt" height="388pt"
 viewBox="0.00 0.00 835.00 388.00" xmlns="http://www.w3.org/2000/svg" xmlns:xlink="http://www.w3.org/1999/xlink">
<g id="graph0" class="graph" transform="scale(1 1) rotate(0) translate(4 384)">
<title>BEulerInt.cpp</title>
<polygon fill="white" stroke="none" points="-4,4 -4,-384 831,-384 831,4 -4,4"/>
<!-- Node1 -->
<g id="node1" class="node"><title>Node1</title>
<polygon fill="#bfbfbf" stroke="black" points="490,-360.5 490,-379.5 564,-379.5 564,-360.5 490,-360.5"/>
<text text-anchor="middle" x="527" y="-367.5" font-family="FreeSans" font-size="10.00">BEulerInt.cpp</text>
</g>
<!-- Node2 -->
<g id="node2" class="node"><title>Node2</title>
<g id="a_node2"><a xlink:href="BEulerInt_8h.html" target="_top" xlink:title="cantera/numerics/BEulerInt.h">
<polygon fill="white" stroke="black" points="456.5,-304.5 456.5,-323.5 597.5,-323.5 597.5,-304.5 456.5,-304.5"/>
<text text-anchor="middle" x="527" y="-311.5" font-family="FreeSans" font-size="10.00">cantera/numerics/BEulerInt.h</text>
</a>
</g>
</g>
<!-- Node1&#45;&gt;Node2 -->
<g id="edge1" class="edge"><title>Node1&#45;&gt;Node2</title>
<path fill="none" stroke="midnightblue" d="M527,-360.083C527,-353.006 527,-342.861 527,-333.986"/>
<polygon fill="midnightblue" stroke="midnightblue" points="530.5,-333.751 527,-323.751 523.5,-333.751 530.5,-333.751"/>
</g>
<!-- Node3 -->
<g id="node3" class="node"><title>Node3</title>
<g id="a_node3"><a xlink:href="ct__defs_8h.html" target="_top" xlink:title="This file contains definitions of terms that are used in internal routines and are unlikely to need m...">
<polygon fill="white" stroke="black" points="330,-56.5 330,-75.5 444,-75.5 444,-56.5 330,-56.5"/>
<text text-anchor="middle" x="387" y="-63.5" font-family="FreeSans" font-size="10.00">cantera/base/ct_defs.h</text>
</a>
</g>
</g>
<!-- Node2&#45;&gt;Node3 -->
<g id="edge2" class="edge"><title>Node2&#45;&gt;Node3</title>
<path fill="none" stroke="midnightblue" d="M563.972,-304.448C634.713,-286.252 778.275,-239.438 732,-168 701.708,-121.236 545.834,-90.5711 454.299,-76.2978"/>
<polygon fill="midnightblue" stroke="midnightblue" points="454.701,-72.8186 444.286,-74.7617 453.639,-79.7377 454.701,-72.8186"/>
</g>
<!-- Node11 -->
<g id="node11" class="node"><title>Node11</title>
<g id="a_node11"><a xlink:href="ctlapack_8h.html" target="_top" xlink:title="cantera/numerics/ctlapack.h">
<polygon fill="white" stroke="black" points="257,-242.5 257,-261.5 395,-261.5 395,-242.5 257,-242.5"/>
<text text-anchor="middle" x="326" y="-249.5" font-family="FreeSans" font-size="10.00">cantera/numerics/ctlapack.h</text>
</a>
</g>
</g>
<!-- Node2&#45;&gt;Node11 -->
<g id="edge10" class="edge"><title>Node2&#45;&gt;Node11</title>
<path fill="none" stroke="midnightblue" d="M498.202,-304.403C463.126,-293.933 403.737,-276.205 364.693,-264.55"/>
<polygon fill="midnightblue" stroke="midnightblue" points="365.328,-261.087 354.745,-261.581 363.326,-267.795 365.328,-261.087"/>
</g>
<!-- Node12 -->
<g id="node12" class="node"><title>Node12</title>
<g id="a_node12"><a xlink:href="utilities_8h.html" target="_top" xlink:title="Various templated functions that carry out common vector operations (see Templated Utility Functions)...">
<polygon fill="white" stroke="black" points="-0.5,-112.5 -0.5,-131.5 112.5,-131.5 112.5,-112.5 -0.5,-112.5"/>
<text text-anchor="middle" x="56" y="-119.5" font-family="FreeSans" font-size="10.00">cantera/base/utilities.h</text>
</a>
</g>
</g>
<!-- Node2&#45;&gt;Node12 -->
<g id="edge12" class="edge"><title>Node2&#45;&gt;Node12</title>
<path fill="none" stroke="midnightblue" d="M456.444,-312.781C394.528,-310.186 303.334,-300.424 231,-268 161.56,-236.873 97.4215,-170.347 70.0102,-139.427"/>
<polygon fill="midnightblue" stroke="midnightblue" points="72.4897,-136.945 63.2789,-131.709 67.2143,-141.546 72.4897,-136.945"/>
</g>
<!-- Node13 -->
<g id="node13" class="node"><title>Node13</title>
<g id="a_node13"><a xlink:href="ctexceptions_8h.html" target="_top" xlink:title="Definitions for the classes that are thrown when Cantera experiences an error condition (also contain...">
<polygon fill="white" stroke="black" points="689.5,-56.5 689.5,-75.5 826.5,-75.5 826.5,-56.5 689.5,-56.5"/>
<text text-anchor="middle" x="758" y="-63.5" font-family="FreeSans" font-size="10.00">cantera/base/ctexceptions.h</text>
</a>
</g>
</g>
<!-- Node2&#45;&gt;Node13 -->
<g id="edge15" class="edge"><title>Node2&#45;&gt;Node13</title>
<path fill="none" stroke="midnightblue" d="M597.618,-308.503C634.083,-303.18 677.594,-291.86 710,-268 763.2,-228.829 761.028,-197.453 770,-132 772.167,-116.19 768.439,-98.376 764.581,-85.4007"/>
<polygon fill="midnightblue" stroke="midnightblue" points="767.872,-84.2052 761.436,-75.7895 761.219,-86.3822 767.872,-84.2052"/>
</g>
<!-- Node15 -->
<g id="node15" class="node"><title>Node15</title>
<g id="a_node15"><a xlink:href="Integrator_8h.html" target="_top" xlink:title="cantera/numerics/Integrator.h">
<polygon fill="white" stroke="black" points="166.5,-174.5 166.5,-193.5 309.5,-193.5 309.5,-174.5 166.5,-174.5"/>
<text text-anchor="middle" x="238" y="-181.5" font-family="FreeSans" font-size="10.00">cantera/numerics/Integrator.h</text>
</a>
</g>
</g>
<!-- Node2&#45;&gt;Node15 -->
<g id="edge18" class="edge"><title>Node2&#45;&gt;Node15</title>
<path fill="none" stroke="midnightblue" d="M456.267,-311.016C383.187,-307.383 275.959,-297.1 248,-268 231.769,-251.106 232.03,-222.519 234.439,-203.7"/>
<polygon fill="midnightblue" stroke="midnightblue" points="237.92,-204.101 236.043,-193.674 231.007,-202.996 237.92,-204.101"/>
</g>
<!-- Node18 -->
<g id="node18" class="node"><title>Node18</title>
<g id="a_node18"><a xlink:href="ResidJacEval_8h.html" target="_top" xlink:title="Dense, Square (not sparse) matrices. ">
<polygon fill="white" stroke="black" points="589,-169 589,-199 723,-199 723,-169 589,-169"/>
<text text-anchor="start" x="597" y="-187" font-family="FreeSans" font-size="10.00">cantera/numerics/ResidJac</text>
<text text-anchor="middle" x="656" y="-176" font-family="FreeSans" font-size="10.00">Eval.h</text>
</a>
</g>
</g>
<!-- Node2&#45;&gt;Node18 -->
<g id="edge24" class="edge"><title>Node2&#45;&gt;Node18</title>
<path fill="none" stroke="midnightblue" d="M540.853,-304.468C553.972,-296.049 573.861,-282.382 589,-268 608.551,-249.427 627.538,-225.129 640.277,-207.627"/>
<polygon fill="midnightblue" stroke="midnightblue" points="643.363,-209.329 646.339,-199.161 637.672,-205.254 643.363,-209.329"/>
</g>
<!-- Node21 -->
<g id="node21" class="node"><title>Node21</title>
<g id="a_node21"><a xlink:href="GeneralMatrix_8h.html" target="_top" xlink:title="Declarations for the class GeneralMatrix which is a virtual base class for matrices handled by solver...">
<polygon fill="white" stroke="black" points="515,-112.5 515,-131.5 599,-131.5 599,-112.5 515,-112.5"/>
<text text-anchor="middle" x="557" y="-119.5" font-family="FreeSans" font-size="10.00">GeneralMatrix.h</text>
</a>
</g>
</g>
<!-- Node2&#45;&gt;Node21 -->
<g id="edge31" class="edge"><title>Node2&#45;&gt;Node21</title>
<path fill="none" stroke="midnightblue" d="M534.652,-304.452C541.742,-295.916 551.805,-282.073 556,-268 569.019,-224.32 564.123,-169.897 560.141,-141.775"/>
<polygon fill="midnightblue" stroke="midnightblue" points="563.577,-141.096 558.596,-131.746 556.659,-142.162 563.577,-141.096"/>
</g>
<!-- Node22 -->
<g id="node22" class="node"><title>Node22</title>
<g id="a_node22"><a xlink:href="NonlinearSolver_8h.html" target="_top" xlink:title="Class that calculates the solution to a nonlinear, dense, set of equations (see Numerical Utilities w...">
<polygon fill="white" stroke="black" points="413,-237 413,-267 547,-267 547,-237 413,-237"/>
<text text-anchor="start" x="421" y="-255" font-family="FreeSans" font-size="10.00">cantera/numerics/Nonlinear</text>
<text text-anchor="middle" x="480" y="-244" font-family="FreeSans" font-size="10.00">Solver.h</text>
</a>
</g>
</g>
<!-- Node2&#45;&gt;Node22 -->
<g id="edge32" class="edge"><title>Node2&#45;&gt;Node22</title>
<path fill="none" stroke="midnightblue" d="M520.266,-304.403C514.317,-296.809 505.377,-285.396 497.431,-275.252"/>
<polygon fill="midnightblue" stroke="midnightblue" points="499.999,-272.855 491.077,-267.141 494.488,-277.171 499.999,-272.855"/>
</g>
<!-- Node4 -->
<g id="node4" class="node"><title>Node4</title>
<g id="a_node4"><a xlink:href="config_8h_source.html" target="_top" xlink:title="config.h">
<polygon fill="white" stroke="black" points="480,-0.5 480,-19.5 530,-19.5 530,-0.5 480,-0.5"/>
<text text-anchor="middle" x="505" y="-7.5" font-family="FreeSans" font-size="10.00">config.h</text>
</a>
</g>
</g>
<!-- Node3&#45;&gt;Node4 -->
<g id="edge3" class="edge"><title>Node3&#45;&gt;Node4</title>
<path fill="none" stroke="midnightblue" d="M405.697,-56.4435C424.944,-47.6356 455.152,-33.8116 477.2,-23.722"/>
<polygon fill="midnightblue" stroke="midnightblue" points="478.753,-26.8603 486.39,-19.5164 475.84,-20.4951 478.753,-26.8603"/>
</g>
<!-- Node5 -->
<g id="node5" class="node"><title>Node5</title>
<polygon fill="white" stroke="#bfbfbf" points="241,-0.5 241,-19.5 285,-19.5 285,-0.5 241,-0.5"/>
<text text-anchor="middle" x="263" y="-7.5" font-family="FreeSans" font-size="10.00">cmath</text>
</g>
<!-- Node3&#45;&gt;Node5 -->
<g id="edge4" class="edge"><title>Node3&#45;&gt;Node5</title>
<path fill="none" stroke="midnightblue" d="M367.352,-56.4435C347.035,-47.5961 315.097,-33.6875 291.902,-23.5865"/>
<polygon fill="midnightblue" stroke="midnightblue" points="293.122,-20.3002 282.556,-19.5164 290.327,-26.7181 293.122,-20.3002"/>
</g>
<!-- Node6 -->
<g id="node6" class="node"><title>Node6</title>
<polygon fill="white" stroke="#bfbfbf" points="303,-0.5 303,-19.5 347,-19.5 347,-0.5 303,-0.5"/>
<text text-anchor="middle" x="325" y="-7.5" font-family="FreeSans" font-size="10.00">cstdlib</text>
</g>
<!-- Node3&#45;&gt;Node6 -->
<g id="edge5" class="edge"><title>Node3&#45;&gt;Node6</title>
<path fill="none" stroke="midnightblue" d="M377.039,-56.324C367.873,-48.3414 354.063,-36.3128 342.972,-26.6529"/>
<polygon fill="midnightblue" stroke="midnightblue" points="344.982,-23.7624 335.143,-19.8339 340.385,-29.041 344.982,-23.7624"/>
</g>
<!-- Node7 -->
<g id="node7" class="node"><title>Node7</title>
<polygon fill="white" stroke="#bfbfbf" points="365.5,-0.5 365.5,-19.5 408.5,-19.5 408.5,-0.5 365.5,-0.5"/>
<text text-anchor="middle" x="387" y="-7.5" font-family="FreeSans" font-size="10.00">vector</text>
</g>
<!-- Node3&#45;&gt;Node7 -->
<g id="edge6" class="edge"><title>Node3&#45;&gt;Node7</title>
<path fill="none" stroke="midnightblue" d="M387,-56.083C387,-49.0059 387,-38.8611 387,-29.9865"/>
<polygon fill="midnightblue" stroke="midnightblue" points="390.5,-29.751 387,-19.7511 383.5,-29.7511 390.5,-29.751"/>
</g>
<!-- Node8 -->
<g id="node8" class="node"><title>Node8</title>
<polygon fill="white" stroke="#bfbfbf" points="426.5,-0.5 426.5,-19.5 461.5,-19.5 461.5,-0.5 426.5,-0.5"/>
<text text-anchor="middle" x="444" y="-7.5" font-family="FreeSans" font-size="10.00">map</text>
</g>
<!-- Node3&#45;&gt;Node8 -->
<g id="edge7" class="edge"><title>Node3&#45;&gt;Node8</title>
<path fill="none" stroke="midnightblue" d="M396.158,-56.324C404.501,-48.4196 417.032,-36.5482 427.177,-26.9377"/>
<polygon fill="midnightblue" stroke="midnightblue" points="429.823,-29.2522 434.675,-19.8339 425.009,-24.1705 429.823,-29.2522"/>
</g>
<!-- Node9 -->
<g id="node9" class="node"><title>Node9</title>
<polygon fill="white" stroke="#bfbfbf" points="610,-0.5 610,-19.5 650,-19.5 650,-0.5 610,-0.5"/>
<text text-anchor="middle" x="630" y="-7.5" font-family="FreeSans" font-size="10.00">string</text>
</g>
<!-- Node3&#45;&gt;Node9 -->
<g id="edge8" class="edge"><title>Node3&#45;&gt;Node9</title>
<path fill="none" stroke="midnightblue" d="M425.504,-56.4435C473.947,-45.6785 556.107,-27.4206 600.095,-17.6454"/>
<polygon fill="midnightblue" stroke="midnightblue" points="600.899,-21.0523 609.902,-15.4662 599.381,-14.219 600.899,-21.0523"/>
</g>
<!-- Node10 -->
<g id="node10" class="node"><title>Node10</title>
<polygon fill="white" stroke="#bfbfbf" points="132,-0.5 132,-19.5 188,-19.5 188,-0.5 132,-0.5"/>
<text text-anchor="middle" x="160" y="-7.5" font-family="FreeSans" font-size="10.00">algorithm</text>
</g>
<!-- Node3&#45;&gt;Node10 -->
<g id="edge9" class="edge"><title>Node3&#45;&gt;Node10</title>
<path fill="none" stroke="midnightblue" d="M351.031,-56.4435C309.338,-46.5254 240.909,-30.2471 198.264,-20.1023"/>
<polygon fill="midnightblue" stroke="midnightblue" points="198.809,-16.6344 188.27,-17.7251 197.189,-23.4444 198.809,-16.6344"/>
</g>
<!-- Node11&#45;&gt;Node3 -->
<g id="edge11" class="edge"><title>Node11&#45;&gt;Node3</title>
<path fill="none" stroke="midnightblue" d="M329.22,-242.395C336.484,-222.877 354.556,-173.704 368,-132 373.016,-116.439 378.189,-98.6037 381.868,-85.5566"/>
<polygon fill="midnightblue" stroke="midnightblue" points="385.252,-86.4513 384.571,-75.8784 378.51,-84.5683 385.252,-86.4513"/>
</g>
<!-- Node12&#45;&gt;Node3 -->
<g id="edge13" class="edge"><title>Node12&#45;&gt;Node3</title>
<path fill="none" stroke="midnightblue" d="M108.448,-112.444C167.158,-102.865 262.228,-87.3556 324.682,-77.1667"/>
<polygon fill="midnightblue" stroke="midnightblue" points="325.491,-80.581 334.797,-75.5164 324.364,-73.6723 325.491,-80.581"/>
</g>
<!-- Node12&#45;&gt;Node10 -->
<g id="edge14" class="edge"><title>Node12&#45;&gt;Node10</title>
<path fill="none" stroke="midnightblue" d="M64.1607,-112.368C81.5515,-93.9744 122.493,-50.6712 144.824,-27.0519"/>
<polygon fill="midnightblue" stroke="midnightblue" points="147.55,-29.2625 151.877,-19.5914 142.464,-24.4534 147.55,-29.2625"/>
</g>
<!-- Node13&#45;&gt;Node9 -->
<g id="edge17" class="edge"><title>Node13&#45;&gt;Node9</title>
<path fill="none" stroke="midnightblue" d="M737.718,-56.4435C716.653,-47.5566 683.483,-33.5632 659.514,-23.4514"/>
<polygon fill="midnightblue" stroke="midnightblue" points="660.761,-20.1787 650.187,-19.5164 658.04,-26.6283 660.761,-20.1787"/>
</g>
<!-- Node14 -->
<g id="node14" class="node"><title>Node14</title>
<polygon fill="white" stroke="#bfbfbf" points="729,-0.5 729,-19.5 787,-19.5 787,-0.5 729,-0.5"/>
<text text-anchor="middle" x="758" y="-7.5" font-family="FreeSans" font-size="10.00">exception</text>
</g>
<!-- Node13&#45;&gt;Node14 -->
<g id="edge16" class="edge"><title>Node13&#45;&gt;Node14</title>
<path fill="none" stroke="midnightblue" d="M758,-56.083C758,-49.0059 758,-38.8611 758,-29.9865"/>
<polygon fill="midnightblue" stroke="midnightblue" points="761.5,-29.751 758,-19.7511 754.5,-29.7511 761.5,-29.751"/>
</g>
<!-- Node15&#45;&gt;Node3 -->
<g id="edge21" class="edge"><title>Node15&#45;&gt;Node3</title>
<path fill="none" stroke="midnightblue" d="M241.824,-174.437C248.726,-159.838 264.565,-129.972 286,-112 303.744,-97.1234 327.189,-86.2755 347.024,-78.9625"/>
<polygon fill="midnightblue" stroke="midnightblue" points="348.448,-82.1721 356.724,-75.5563 346.129,-75.5675 348.448,-82.1721"/>
</g>
<!-- Node16 -->
<g id="node16" class="node"><title>Node16</title>
<g id="a_node16"><a xlink:href="FuncEval_8h.html" target="_top" xlink:title="FuncEval.h">
<polygon fill="white" stroke="black" points="295,-112.5 295,-131.5 359,-131.5 359,-112.5 295,-112.5"/>
<text text-anchor="middle" x="327" y="-119.5" font-family="FreeSans" font-size="10.00">FuncEval.h</text>
</a>
</g>
</g>
<!-- Node15&#45;&gt;Node16 -->
<g id="edge19" class="edge"><title>Node15&#45;&gt;Node16</title>
<path fill="none" stroke="midnightblue" d="M250.752,-174.403C265.027,-164.78 288.397,-149.024 305.508,-137.489"/>
<polygon fill="midnightblue" stroke="midnightblue" points="307.937,-140.073 314.272,-131.581 304.024,-134.268 307.937,-140.073"/>
</g>
<!-- Node17 -->
<g id="node17" class="node"><title>Node17</title>
<g id="a_node17"><a xlink:href="global_8h.html" target="_top" xlink:title="This file contains definitions for utility functions and text for modules, inputfiles, logs, textlogs, HTML_logs (see Input File Handling, Diagnostic Output, Writing messages to the screen and Writing HTML Logfiles). ">
<polygon fill="white" stroke="black" points="131,-112.5 131,-131.5 239,-131.5 239,-112.5 131,-112.5"/>
<text text-anchor="middle" x="185" y="-119.5" font-family="FreeSans" font-size="10.00">cantera/base/global.h</text>
</a>
</g>
</g>
<!-- Node15&#45;&gt;Node17 -->
<g id="edge22" class="edge"><title>Node15&#45;&gt;Node17</title>
<path fill="none" stroke="midnightblue" d="M230.406,-174.403C222.299,-165.225 209.265,-150.47 199.237,-139.117"/>
<polygon fill="midnightblue" stroke="midnightblue" points="201.823,-136.758 192.58,-131.581 196.577,-141.392 201.823,-136.758"/>
</g>
<!-- Node16&#45;&gt;Node3 -->
<g id="edge20" class="edge"><title>Node16&#45;&gt;Node3</title>
<path fill="none" stroke="midnightblue" d="M336.64,-112.324C345.51,-104.341 358.875,-92.3128 369.608,-82.6529"/>
<polygon fill="midnightblue" stroke="midnightblue" points="372.093,-85.1251 377.185,-75.8339 367.41,-79.922 372.093,-85.1251"/>
</g>
<!-- Node17&#45;&gt;Node3 -->
<g id="edge23" class="edge"><title>Node17&#45;&gt;Node3</title>
<path fill="none" stroke="midnightblue" d="M217.008,-112.444C251.729,-103.162 307.288,-88.3093 345.377,-78.127"/>
<polygon fill="midnightblue" stroke="midnightblue" points="346.385,-81.4803 355.142,-75.5164 344.578,-74.7178 346.385,-81.4803"/>
</g>
<!-- Node19 -->
<g id="node19" class="node"><title>Node19</title>
<g id="a_node19"><a xlink:href="ResidEval_8h.html" target="_top" xlink:title="ResidEval.h">
<polygon fill="white" stroke="black" points="695,-112.5 695,-131.5 761,-131.5 761,-112.5 695,-112.5"/>
<text text-anchor="middle" x="728" y="-119.5" font-family="FreeSans" font-size="10.00">ResidEval.h</text>
</a>
</g>
</g>
<!-- Node18&#45;&gt;Node19 -->
<g id="edge25" class="edge"><title>Node18&#45;&gt;Node19</title>
<path fill="none" stroke="midnightblue" d="M673.063,-168.781C684.065,-159.613 698.365,-147.696 709.618,-138.319"/>
<polygon fill="midnightblue" stroke="midnightblue" points="712.082,-140.821 717.523,-131.731 707.6,-135.444 712.082,-140.821"/>
</g>
<!-- Node18&#45;&gt;Node21 -->
<g id="edge29" class="edge"><title>Node18&#45;&gt;Node21</title>
<path fill="none" stroke="midnightblue" d="M632.789,-168.933C616.832,-159.262 595.741,-146.479 579.86,-136.855"/>
<polygon fill="midnightblue" stroke="midnightblue" points="581.556,-133.79 571.19,-131.6 577.928,-139.776 581.556,-133.79"/>
</g>
<!-- Node19&#45;&gt;Node3 -->
<g id="edge26" class="edge"><title>Node19&#45;&gt;Node3</title>
<path fill="none" stroke="midnightblue" d="M694.904,-114.502C690.241,-113.633 685.503,-112.775 681,-112 603.312,-98.621 513.724,-85.1954 454.059,-76.5369"/>
<polygon fill="midnightblue" stroke="midnightblue" points="454.411,-73.0515 444.013,-75.083 453.408,-79.9793 454.411,-73.0515"/>
</g>
<!-- Node19&#45;&gt;Node13 -->
<g id="edge27" class="edge"><title>Node19&#45;&gt;Node13</title>
<path fill="none" stroke="midnightblue" d="M732.954,-112.083C737.104,-104.613 743.153,-93.7244 748.267,-84.5199"/>
<polygon fill="midnightblue" stroke="midnightblue" points="751.341,-86.1924 753.138,-75.7511 745.222,-82.7929 751.341,-86.1924"/>
</g>
<!-- Node20 -->
<g id="node20" class="node"><title>Node20</title>
<polygon fill="white" stroke="#bfbfbf" points="629,-56.5 629,-75.5 671,-75.5 671,-56.5 629,-56.5"/>
<text text-anchor="middle" x="650" y="-63.5" font-family="FreeSans" font-size="10.00">cstdio</text>
</g>
<!-- Node19&#45;&gt;Node20 -->
<g id="edge28" class="edge"><title>Node19&#45;&gt;Node20</title>
<path fill="none" stroke="midnightblue" d="M715.468,-112.324C703.414,-103.979 684.973,-91.2122 670.731,-81.3524"/>
<polygon fill="midnightblue" stroke="midnightblue" points="672.715,-78.469 662.501,-75.6545 668.731,-84.2243 672.715,-78.469"/>
</g>
<!-- Node21&#45;&gt;Node3 -->
<g id="edge30" class="edge"><title>Node21&#45;&gt;Node3</title>
<path fill="none" stroke="midnightblue" d="M530.063,-112.444C501.34,-103.32 455.671,-88.8133 423.679,-78.6509"/>
<polygon fill="midnightblue" stroke="midnightblue" points="424.401,-75.2081 413.811,-75.5164 422.282,-81.8797 424.401,-75.2081"/>
</g>
<!-- Node22&#45;&gt;Node18 -->
<g id="edge33" class="edge"><title>Node22&#45;&gt;Node18</title>
<path fill="none" stroke="midnightblue" d="M517.756,-236.841C544.527,-226.802 580.626,-213.265 609.223,-202.542"/>
<polygon fill="midnightblue" stroke="midnightblue" points="610.474,-205.81 618.608,-199.022 608.016,-199.256 610.474,-205.81"/>
</g>
<!-- Node23 -->
<g id="node23" class="node"><title>Node23</title>
<g id="a_node23"><a xlink:href="SquareMatrix_8h.html" target="_top" xlink:title="Dense, Square (not sparse) matrices. ">
<polygon fill="white" stroke="black" points="375,-174.5 375,-193.5 533,-193.5 533,-174.5 375,-174.5"/>
<text text-anchor="middle" x="454" y="-181.5" font-family="FreeSans" font-size="10.00">cantera/numerics/SquareMatrix.h</text>
</a>
</g>
</g>
<!-- Node22&#45;&gt;Node23 -->
<g id="edge34" class="edge"><title>Node22&#45;&gt;Node23</title>
<path fill="none" stroke="midnightblue" d="M474.358,-236.679C470.505,-226.898 465.366,-213.852 461.215,-203.315"/>
<polygon fill="midnightblue" stroke="midnightblue" points="464.4,-201.85 457.478,-193.828 457.887,-204.415 464.4,-201.85"/>
</g>
<!-- Node23&#45;&gt;Node21 -->
<g id="edge37" class="edge"><title>Node23&#45;&gt;Node21</title>
<path fill="none" stroke="midnightblue" d="M468.757,-174.403C485.661,-164.557 513.583,-148.291 533.49,-136.695"/>
<polygon fill="midnightblue" stroke="midnightblue" points="535.391,-139.638 542.27,-131.581 531.867,-133.59 535.391,-139.638"/>
</g>
<!-- Node24 -->
<g id="node24" class="node"><title>Node24</title>
<g id="a_node24"><a xlink:href="DenseMatrix_8h.html" target="_top" xlink:title="Headers for the DenseMatrix object, which deals with dense rectangular matrices and description of th...">
<polygon fill="white" stroke="red" points="415.5,-112.5 415.5,-131.5 492.5,-131.5 492.5,-112.5 415.5,-112.5"/>
<text text-anchor="middle" x="454" y="-119.5" font-family="FreeSans" font-size="10.00">DenseMatrix.h</text>
</a>
</g>
</g>
<!-- Node23&#45;&gt;Node24 -->
<g id="edge35" class="edge"><title>Node23&#45;&gt;Node24</title>
<path fill="none" stroke="midnightblue" d="M454,-174.403C454,-165.938 454,-152.728 454,-141.82"/>
<polygon fill="midnightblue" stroke="midnightblue" points="457.5,-141.581 454,-131.581 450.5,-141.581 457.5,-141.581"/>
</g>
<!-- Node24&#45;&gt;Node3 -->
<g id="edge36" class="edge"><title>Node24&#45;&gt;Node3</title>
<path fill="none" stroke="midnightblue" d="M443.235,-112.324C433.234,-104.263 418.113,-92.0765 406.07,-82.3695"/>
<polygon fill="midnightblue" stroke="midnightblue" points="407.943,-79.3841 397.961,-75.8339 403.55,-84.8343 407.943,-79.3841"/>
</g>
</g>
</svg>
