<?xml version="1.0" encoding="UTF-8" standalone="no"?>
<!DOCTYPE svg PUBLIC "-//W3C//DTD SVG 1.1//EN"
 "http://www.w3.org/Graphics/SVG/1.1/DTD/svg11.dtd">
<!-- Generated by graphviz version 2.36.0 (20140111.2315)
 -->
<!-- Title: Sim1D Pages: 1 -->
<svg width="297pt" height="177pt"
 viewBox="0.00 0.00 297.00 176.50" xmlns="http://www.w3.org/2000/svg" xmlns:xlink="http://www.w3.org/1999/xlink">
<g id="graph0" class="graph" transform="scale(1 1) rotate(0) translate(4 172.5)">
<title>Sim1D</title>
<polygon fill="white" stroke="none" points="-4,4 -4,-172.5 293,-172.5 293,4 -4,4"/>
<!-- Node1 -->
<g id="node1" class="node"><title>Node1</title>
<polygon fill="#bfbfbf" stroke="black" points="152,-0.5 152,-19.5 198,-19.5 198,-0.5 152,-0.5"/>
<text text-anchor="middle" x="175" y="-7.5" font-family="FreeSans" font-size="10.00">Sim1D</text>
</g>
<!-- Node2 -->
<g id="node2" class="node"><title>Node2</title>
<g id="a_node2"><a xlink:href="classCantera_1_1OneDim.html" target="_top" xlink:title="Container class for multiple&#45;domain 1D problems. ">
<polygon fill="white" stroke="black" points="105,-68.5 105,-87.5 157,-87.5 157,-68.5 105,-68.5"/>
<text text-anchor="middle" x="131" y="-75.5" font-family="FreeSans" font-size="10.00">OneDim</text>
</a>
</g>
</g>
<!-- Node2&#45;&gt;Node1 -->
<g id="edge1" class="edge"><title>Node2&#45;&gt;Node1</title>
<path fill="none" stroke="midnightblue" d="M150.789,-61.7617C154.54,-58.2049 158.171,-54.2139 161,-50 167.336,-40.5636 171.184,-27.9193 173.201,-19.6215"/>
<polygon fill="midnightblue" stroke="midnightblue" points="148.407,-59.1942 143.137,-68.3851 152.989,-64.4869 148.407,-59.1942"/>
</g>
<!-- Node4 -->
<g id="node4" class="node"><title>Node4</title>
<g id="a_node4"><a xlink:href="classCantera_1_1MultiJac.html" target="_top" xlink:title="Class MultiJac evaluates the Jacobian of a system of equations defined by a residual function supplie...">
<polygon fill="white" stroke="black" points="44.5,-0.5 44.5,-19.5 97.5,-19.5 97.5,-0.5 44.5,-0.5"/>
<text text-anchor="middle" x="71" y="-7.5" font-family="FreeSans" font-size="10.00">MultiJac</text>
</a>
</g>
</g>
<!-- Node2&#45;&gt;Node4 -->
<g id="edge7" class="edge"><title>Node2&#45;&gt;Node4</title>
<path fill="none" stroke="#9a32cd" stroke-dasharray="5,2" d="M95.2049,-69.6819C84.6557,-65.6798 74.2692,-59.5074 68,-50 62.0187,-40.9292 64.6859,-27.9625 67.5274,-19.5131"/>
<polygon fill="#9a32cd" stroke="#9a32cd" points="94.2337,-73.0461 104.825,-72.7806 96.3799,-66.3832 94.2337,-73.0461"/>
<text text-anchor="middle" x="86.5" y="-41.5" font-family="FreeSans" font-size="10.00"> m_resid</text>
</g>
<!-- Node3 -->
<g id="node3" class="node"><title>Node3</title>
<g id="a_node3"><a xlink:href="classCantera_1_1Func1.html" target="_top" xlink:title="Base class for &#39;functor&#39; classes that evaluate a function of one variable. ">
<polygon fill="white" stroke="black" points="98,-142.5 98,-161.5 142,-161.5 142,-142.5 98,-142.5"/>
<text text-anchor="middle" x="120" y="-149.5" font-family="FreeSans" font-size="10.00">Func1</text>
</a>
</g>
</g>
<!-- Node3&#45;&gt;Node2 -->
<g id="edge2" class="edge"><title>Node3&#45;&gt;Node2</title>
<path fill="none" stroke="#9a32cd" stroke-dasharray="5,2" d="M122.879,-132.156C125.086,-117.712 128.027,-98.4594 129.697,-87.531"/>
<polygon fill="#9a32cd" stroke="#9a32cd" points="119.356,-132.044 121.305,-142.458 126.275,-133.101 119.356,-132.044"/>
<text text-anchor="middle" x="153" y="-109.5" font-family="FreeSans" font-size="10.00"> m_interrupt</text>
</g>
<!-- Node3&#45;&gt;Node3 -->
<g id="edge3" class="edge"><title>Node3&#45;&gt;Node3</title>
<path fill="none" stroke="#9a32cd" stroke-dasharray="5,2" d="M152.111,-158.578C156.259,-157.44 159,-155.247 159,-152 159,-146.531 151.224,-144.053 142.051,-144.566"/>
<polygon fill="#9a32cd" stroke="#9a32cd" points="151.718,-155.099 142.051,-159.434 152.312,-162.074 151.718,-155.099"/>
<text text-anchor="middle" x="179.5" y="-160.5" font-family="FreeSans" font-size="10.00"> m_f1</text>
<text text-anchor="middle" x="179.5" y="-149.5" font-family="FreeSans" font-size="10.00">m_f2</text>
<text text-anchor="middle" x="179.5" y="-138.5" font-family="FreeSans" font-size="10.00">m_parent</text>
</g>
<!-- Node4&#45;&gt;Node2 -->
<g id="edge4" class="edge"><title>Node4&#45;&gt;Node2</title>
<path fill="none" stroke="#9a32cd" stroke-dasharray="5,2" d="M94.6616,-25.369C99.7458,-29.0968 104.836,-33.3777 109,-38 117.221,-47.1254 123.675,-59.8426 127.411,-68.2418"/>
<polygon fill="#9a32cd" stroke="#9a32cd" points="96.5101,-22.3933 86.2752,-19.655 92.5686,-28.1782 96.5101,-22.3933"/>
<text text-anchor="middle" x="132.5" y="-41.5" font-family="FreeSans" font-size="10.00"> m_jac</text>
</g>
<!-- Node5 -->
<g id="node5" class="node"><title>Node5</title>
<g id="a_node5"><a xlink:href="classCantera_1_1BandMatrix.html" target="_top" xlink:title="A class for banded matrices, involving matrix inversion processes. ">
<polygon fill="white" stroke="black" points="5.5,-68.5 5.5,-87.5 70.5,-87.5 70.5,-68.5 5.5,-68.5"/>
<text text-anchor="middle" x="38" y="-75.5" font-family="FreeSans" font-size="10.00">BandMatrix</text>
</a>
</g>
</g>
<!-- Node5&#45;&gt;Node4 -->
<g id="edge5" class="edge"><title>Node5&#45;&gt;Node4</title>
<path fill="none" stroke="midnightblue" d="M43.4074,-58.7838C45.6878,-52.0816 48.6061,-44.5361 52,-38 55.381,-31.4888 60.131,-24.7388 64.0357,-19.6166"/>
<polygon fill="midnightblue" stroke="midnightblue" points="40.0586,-57.7654 40.3724,-68.3556 46.7312,-59.8812 40.0586,-57.7654"/>
</g>
<!-- Node6 -->
<g id="node6" class="node"><title>Node6</title>
<g id="a_node6"><a xlink:href="classCantera_1_1GeneralMatrix.html" target="_top" xlink:title="Generic matrix. ">
<polygon fill="white" stroke="black" points="-0.5,-142.5 -0.5,-161.5 76.5,-161.5 76.5,-142.5 -0.5,-142.5"/>
<text text-anchor="middle" x="38" y="-149.5" font-family="FreeSans" font-size="10.00">GeneralMatrix</text>
</a>
</g>
</g>
<!-- Node6&#45;&gt;Node5 -->
<g id="edge6" class="edge"><title>Node6&#45;&gt;Node5</title>
<path fill="none" stroke="midnightblue" d="M38,-132.156C38,-117.712 38,-98.4594 38,-87.531"/>
<polygon fill="midnightblue" stroke="midnightblue" points="34.5001,-132.458 38,-142.458 41.5001,-132.458 34.5001,-132.458"/>
</g>
<!-- Node7 -->
<g id="node7" class="node"><title>Node7</title>
<g id="a_node7"><a xlink:href="classCantera_1_1MultiNewton.html" target="_top" xlink:title="Newton iterator for multi&#45;domain, one&#45;dimensional problems. ">
<polygon fill="white" stroke="black" points="219,-142.5 219,-161.5 289,-161.5 289,-142.5 219,-142.5"/>
<text text-anchor="middle" x="254" y="-149.5" font-family="FreeSans" font-size="10.00">MultiNewton</text>
</a>
</g>
</g>
<!-- Node7&#45;&gt;Node2 -->
<g id="edge8" class="edge"><title>Node7&#45;&gt;Node2</title>
<path fill="none" stroke="#9a32cd" stroke-dasharray="5,2" d="M232.71,-136.831C218.758,-127.716 200.019,-115.788 183,-106 171.713,-99.5089 158.713,-92.7589 148.535,-87.6316"/>
<polygon fill="#9a32cd" stroke="#9a32cd" points="230.842,-139.792 241.12,-142.365 234.69,-133.945 230.842,-139.792"/>
<text text-anchor="middle" x="221.5" y="-109.5" font-family="FreeSans" font-size="10.00"> m_newt</text>
</g>
</g>
</svg>
