<?xml version="1.0" encoding="UTF-8" standalone="no"?>
<!DOCTYPE svg PUBLIC "-//W3C//DTD SVG 1.1//EN"
 "http://www.w3.org/Graphics/SVG/1.1/DTD/svg11.dtd">
<!-- Generated by graphviz version 2.36.0 (20140111.2315)
 -->
<!-- Title: VCS_SOLVE Pages: 1 -->
<svg width="373pt" height="128pt"
 viewBox="0.00 0.00 373.00 128.00" xmlns="http://www.w3.org/2000/svg" xmlns:xlink="http://www.w3.org/1999/xlink">
<g id="graph0" class="graph" transform="scale(1 1) rotate(0) translate(4 124)">
<title>VCS_SOLVE</title>
<polygon fill="white" stroke="none" points="-4,4 -4,-124 369,-124 369,4 -4,4"/>
<!-- Node1 -->
<g id="node1" class="node"><title>Node1</title>
<polygon fill="#bfbfbf" stroke="black" points="114.5,-0.5 114.5,-19.5 187.5,-19.5 187.5,-0.5 114.5,-0.5"/>
<text text-anchor="middle" x="151" y="-7.5" font-family="FreeSans" font-size="10.00">VCS_SOLVE</text>
</g>
<!-- Node2 -->
<g id="node2" class="node"><title>Node2</title>
<g id="a_node2"><a xlink:href="classVCSnonideal_1_1IntStarStar.html" target="_top" xlink:title="A class for 2D int arrays stored in column&#45;major (Fortran&#45;compatible) form. ">
<polygon fill="white" stroke="black" points="0,-100.5 0,-119.5 64,-119.5 64,-100.5 0,-100.5"/>
<text text-anchor="middle" x="32" y="-107.5" font-family="FreeSans" font-size="10.00">IntStarStar</text>
</a>
</g>
</g>
<!-- Node2&#45;&gt;Node1 -->
<g id="edge1" class="edge"><title>Node2&#45;&gt;Node1</title>
<path fill="none" stroke="#9a32cd" stroke-dasharray="5,2" d="M32.0924,-89.9382C33.2104,-73.9737 37.3655,-51.665 51,-38 67.512,-21.4511 93.0414,-14.7471 114.172,-12.1568"/>
<polygon fill="#9a32cd" stroke="#9a32cd" points="28.5842,-90.1081 31.723,-100.227 35.5796,-90.3593 28.5842,-90.1081"/>
<text text-anchor="middle" x="99" y="-57.5" font-family="FreeSans" font-size="10.00"> m_phaseParticipation</text>
</g>
<!-- Node3 -->
<g id="node3" class="node"><title>Node3</title>
<g id="a_node3"><a xlink:href="classVCSnonideal_1_1VCS__COUNTERS.html" target="_top" xlink:title="Class to keep track of time and iterations. ">
<polygon fill="white" stroke="black" points="103.5,-100.5 103.5,-119.5 198.5,-119.5 198.5,-100.5 103.5,-100.5"/>
<text text-anchor="middle" x="151" y="-107.5" font-family="FreeSans" font-size="10.00">VCS_COUNTERS</text>
</a>
</g>
</g>
<!-- Node3&#45;&gt;Node1 -->
<g id="edge2" class="edge"><title>Node3&#45;&gt;Node1</title>
<path fill="none" stroke="#9a32cd" stroke-dasharray="5,2" d="M151,-90.2203C151,-68.9514 151,-35.2197 151,-19.5374"/>
<polygon fill="#9a32cd" stroke="#9a32cd" points="147.5,-90.3031 151,-100.303 154.5,-90.3032 147.5,-90.3031"/>
<text text-anchor="middle" x="175" y="-57.5" font-family="FreeSans" font-size="10.00"> m_VCount</text>
</g>
<!-- Node4 -->
<g id="node4" class="node"><title>Node4</title>
<g id="a_node4"><a xlink:href="classVCSnonideal_1_1DoubleStarStar.html" target="_top" xlink:title="A class for 2D double arrays stored in column&#45;major (Fortran&#45;compatible) form. ">
<polygon fill="white" stroke="black" points="216.5,-100.5 216.5,-119.5 299.5,-119.5 299.5,-100.5 216.5,-100.5"/>
<text text-anchor="middle" x="258" y="-107.5" font-family="FreeSans" font-size="10.00">DoubleStarStar</text>
</a>
</g>
</g>
<!-- Node4&#45;&gt;Node1 -->
<g id="edge3" class="edge"><title>Node4&#45;&gt;Node1</title>
<path fill="none" stroke="#9a32cd" stroke-dasharray="5,2" d="M247.551,-91.5032C237.602,-75.9605 221.441,-53.3857 203,-38 193.94,-30.4408 182.413,-24.1884 172.516,-19.6106"/>
<polygon fill="#9a32cd" stroke="#9a32cd" points="244.664,-93.4891 252.907,-100.145 250.614,-89.8012 244.664,-93.4891"/>
<text text-anchor="middle" x="303" y="-74" font-family="FreeSans" font-size="10.00"> m_formulaMatrix</text>
<text text-anchor="middle" x="303" y="-63" font-family="FreeSans" font-size="10.00">m_stoichCoeffRxnMatrix</text>
<text text-anchor="middle" x="303" y="-52" font-family="FreeSans" font-size="10.00">m_np_dLnActCoeffdMolNum</text>
<text text-anchor="middle" x="303" y="-41" font-family="FreeSans" font-size="10.00">m_deltaMolNumPhase</text>
</g>
</g>
</svg>
