<?xml version="1.0" encoding="UTF-8" standalone="no"?>
<!DOCTYPE svg PUBLIC "-//W3C//DTD SVG 1.1//EN"
 "http://www.w3.org/Graphics/SVG/1.1/DTD/svg11.dtd">
<!-- Generated by graphviz version 2.36.0 (20140111.2315)
 -->
<!-- Title: SolidTransport Pages: 1 -->
<svg width="234pt" height="346pt"
 viewBox="0.00 0.00 234.00 346.00" xmlns="http://www.w3.org/2000/svg" xmlns:xlink="http://www.w3.org/1999/xlink">
<g id="graph0" class="graph" transform="scale(1 1) rotate(0) translate(4 342)">
<title>SolidTransport</title>
<polygon fill="white" stroke="none" points="-4,4 -4,-342 230,-342 230,4 -4,4"/>
<!-- Node1 -->
<g id="node1" class="node"><title>Node1</title>
<polygon fill="#bfbfbf" stroke="black" points="61.5,-0.5 61.5,-19.5 140.5,-19.5 140.5,-0.5 61.5,-0.5"/>
<text text-anchor="middle" x="101" y="-7.5" font-family="FreeSans" font-size="10.00">SolidTransport</text>
</g>
<!-- Node2 -->
<g id="node2" class="node"><title>Node2</title>
<g id="a_node2"><a xlink:href="classCantera_1_1Transport.html" target="_top" xlink:title="Base class for transport property managers. ">
<polygon fill="white" stroke="black" points="27.5,-112.5 27.5,-131.5 84.5,-131.5 84.5,-112.5 27.5,-112.5"/>
<text text-anchor="middle" x="56" y="-119.5" font-family="FreeSans" font-size="10.00">Transport</text>
</a>
</g>
</g>
<!-- Node2&#45;&gt;Node1 -->
<g id="edge1" class="edge"><title>Node2&#45;&gt;Node1</title>
<path fill="none" stroke="midnightblue" d="M63.3644,-102.998C73.1831,-78.9968 90.1721,-37.4683 97.4853,-19.5914"/>
<polygon fill="midnightblue" stroke="midnightblue" points="60.078,-101.788 59.5311,-112.368 66.5569,-104.438 60.078,-101.788"/>
</g>
<!-- Node3 -->
<g id="node3" class="node"><title>Node3</title>
<g id="a_node3"><a xlink:href="classCantera_1_1ThermoPhase.html" target="_top" xlink:title="Base class for a phase with thermodynamic properties. ">
<polygon fill="white" stroke="black" points="54.5,-180.5 54.5,-199.5 131.5,-199.5 131.5,-180.5 54.5,-180.5"/>
<text text-anchor="middle" x="93" y="-187.5" font-family="FreeSans" font-size="10.00">ThermoPhase</text>
</a>
</g>
</g>
<!-- Node3&#45;&gt;Node2 -->
<g id="edge2" class="edge"><title>Node3&#45;&gt;Node2</title>
<path fill="none" stroke="#9a32cd" stroke-dasharray="5,2" d="M73.9003,-173.546C70.5257,-170.055 67.3467,-166.145 65,-162 59.5906,-152.446 57.4302,-139.829 56.5688,-131.57"/>
<polygon fill="#9a32cd" stroke="#9a32cd" points="71.6367,-176.22 81.3528,-180.444 76.3919,-171.083 71.6367,-176.22"/>
<text text-anchor="middle" x="88" y="-153.5" font-family="FreeSans" font-size="10.00"> m_thermo</text>
</g>
<!-- Node7 -->
<g id="node7" class="node"><title>Node7</title>
<g id="a_node7"><a xlink:href="classCantera_1_1LTPspecies.html" target="_top" xlink:title="Class LTPspecies holds transport parameters for a specific liquid&#45;phase species. ">
<polygon fill="white" stroke="black" points="102.5,-112.5 102.5,-131.5 169.5,-131.5 169.5,-112.5 102.5,-112.5"/>
<text text-anchor="middle" x="136" y="-119.5" font-family="FreeSans" font-size="10.00">LTPspecies</text>
</a>
</g>
</g>
<!-- Node3&#45;&gt;Node7 -->
<g id="edge8" class="edge"><title>Node3&#45;&gt;Node7</title>
<path fill="none" stroke="#9a32cd" stroke-dasharray="5,2" d="M104.665,-171.601C106.783,-168.414 108.965,-165.112 111,-162 117.777,-151.633 125.448,-139.626 130.484,-131.703"/>
<polygon fill="#9a32cd" stroke="#9a32cd" points="101.682,-169.766 99.0405,-180.027 107.504,-173.653 101.682,-169.766"/>
<text text-anchor="middle" x="142" y="-153.5" font-family="FreeSans" font-size="10.00"> m_thermo</text>
</g>
<!-- Node4 -->
<g id="node4" class="node"><title>Node4</title>
<g id="a_node4"><a xlink:href="classCantera_1_1Phase.html" target="_top" xlink:title="Base class for phases of matter. ">
<polygon fill="white" stroke="black" points="10,-248.5 10,-267.5 54,-267.5 54,-248.5 10,-248.5"/>
<text text-anchor="middle" x="32" y="-255.5" font-family="FreeSans" font-size="10.00">Phase</text>
</a>
</g>
</g>
<!-- Node4&#45;&gt;Node3 -->
<g id="edge3" class="edge"><title>Node4&#45;&gt;Node3</title>
<path fill="none" stroke="midnightblue" d="M47.0836,-240.68C59.0093,-227.777 75.2014,-210.258 84.8287,-199.841"/>
<polygon fill="midnightblue" stroke="midnightblue" points="44.1918,-238.652 39.9747,-248.372 49.3325,-243.403 44.1918,-238.652"/>
</g>
<!-- Node5 -->
<g id="node5" class="node"><title>Node5</title>
<g id="a_node5"><a xlink:href="classCantera_1_1XML__Node.html" target="_top" xlink:title="Class XML_Node is a tree&#45;based representation of the contents of an XML file. ">
<polygon fill="white" stroke="black" points="-0.5,-317.5 -0.5,-336.5 64.5,-336.5 64.5,-317.5 -0.5,-317.5"/>
<text text-anchor="middle" x="32" y="-324.5" font-family="FreeSans" font-size="10.00">XML_Node</text>
</a>
</g>
</g>
<!-- Node5&#45;&gt;Node4 -->
<g id="edge4" class="edge"><title>Node5&#45;&gt;Node4</title>
<path fill="none" stroke="#9a32cd" stroke-dasharray="5,2" d="M32,-307.018C32,-294.034 32,-277.442 32,-267.549"/>
<polygon fill="#9a32cd" stroke="#9a32cd" points="28.5001,-307.241 32,-317.241 35.5001,-307.241 28.5001,-307.241"/>
<text text-anchor="middle" x="47.5" y="-289.5" font-family="FreeSans" font-size="10.00"> m_xml</text>
</g>
<!-- Node5&#45;&gt;Node5 -->
<g id="edge5" class="edge"><title>Node5&#45;&gt;Node5</title>
<path fill="none" stroke="#9a32cd" stroke-dasharray="5,2" d="M74.791,-332.255C79.1888,-331.22 82,-329.468 82,-327 82,-322.949 74.4296,-320.829 64.7005,-320.639"/>
<polygon fill="#9a32cd" stroke="#9a32cd" points="74.2595,-328.792 64.7005,-333.361 75.0224,-335.75 74.2595,-328.792"/>
<text text-anchor="middle" x="102.5" y="-330" font-family="FreeSans" font-size="10.00"> m_root</text>
<text text-anchor="middle" x="102.5" y="-319" font-family="FreeSans" font-size="10.00">m_parent</text>
</g>
<!-- Node6 -->
<g id="node6" class="node"><title>Node6</title>
<g id="a_node6"><a xlink:href="classCantera_1_1SpeciesThermo.html" target="_top" xlink:title="Pure Virtual base class for the species thermo manager classes. ">
<polygon fill="white" stroke="black" points="72,-248.5 72,-267.5 156,-267.5 156,-248.5 72,-248.5"/>
<text text-anchor="middle" x="114" y="-255.5" font-family="FreeSans" font-size="10.00">SpeciesThermo</text>
</a>
</g>
</g>
<!-- Node6&#45;&gt;Node3 -->
<g id="edge6" class="edge"><title>Node6&#45;&gt;Node3</title>
<path fill="none" stroke="#9a32cd" stroke-dasharray="5,2" d="M108.211,-238.807C104.176,-226.124 98.9696,-209.762 95.8131,-199.841"/>
<polygon fill="#9a32cd" stroke="#9a32cd" points="104.887,-239.904 111.255,-248.372 111.558,-237.781 104.887,-239.904"/>
<text text-anchor="middle" x="134" y="-221.5" font-family="FreeSans" font-size="10.00"> m_spthermo</text>
</g>
<!-- Node7&#45;&gt;Node1 -->
<g id="edge7" class="edge"><title>Node7&#45;&gt;Node1</title>
<path fill="none" stroke="#9a32cd" stroke-dasharray="5,2" d="M130.169,-102.674C122.517,-78.6248 109.396,-37.3881 103.734,-19.5914"/>
<polygon fill="#9a32cd" stroke="#9a32cd" points="126.886,-103.9 133.254,-112.368 133.557,-101.778 126.886,-103.9"/>
<text text-anchor="middle" x="176.5" y="-85.5" font-family="FreeSans" font-size="10.00"> m_electConductivity</text>
<text text-anchor="middle" x="176.5" y="-74.5" font-family="FreeSans" font-size="10.00">m_defectDiffusivity</text>
<text text-anchor="middle" x="176.5" y="-63.5" font-family="FreeSans" font-size="10.00">m_ionConductivity</text>
<text text-anchor="middle" x="176.5" y="-52.5" font-family="FreeSans" font-size="10.00">m_thermalConductivity</text>
<text text-anchor="middle" x="176.5" y="-41.5" font-family="FreeSans" font-size="10.00">m_defectActivity</text>
</g>
</g>
</svg>
