<?xml version="1.0" encoding="UTF-8" standalone="no"?>
<!DOCTYPE svg PUBLIC "-//W3C//DTD SVG 1.1//EN"
 "http://www.w3.org/Graphics/SVG/1.1/DTD/svg11.dtd">
<!-- Generated by graphviz version 2.36.0 (20140111.2315)
 -->
<!-- Title: Gaussian Pages: 1 -->
<svg width="116pt" height="99pt"
 viewBox="0.00 0.00 116.00 98.50" xmlns="http://www.w3.org/2000/svg" xmlns:xlink="http://www.w3.org/1999/xlink">
<g id="graph0" class="graph" transform="scale(1 1) rotate(0) translate(4 94.5)">
<title>Gaussian</title>
<polygon fill="white" stroke="none" points="-4,4 -4,-94.5 112,-94.5 112,4 -4,4"/>
<!-- Node1 -->
<g id="node1" class="node"><title>Node1</title>
<polygon fill="#bfbfbf" stroke="black" points="-1,-0.5 -1,-19.5 55,-19.5 55,-0.5 -1,-0.5"/>
<text text-anchor="middle" x="27" y="-7.5" font-family="FreeSans" font-size="10.00">Gaussian</text>
</g>
<!-- Node2 -->
<g id="node2" class="node"><title>Node2</title>
<g id="a_node2"><a xlink:href="classCantera_1_1Func1.html" target="_top" xlink:title="Base class for &#39;functor&#39; classes that evaluate a function of one variable. ">
<polygon fill="white" stroke="black" points="5,-64.5 5,-83.5 49,-83.5 49,-64.5 5,-64.5"/>
<text text-anchor="middle" x="27" y="-71.5" font-family="FreeSans" font-size="10.00">Func1</text>
</a>
</g>
</g>
<!-- Node2&#45;&gt;Node1 -->
<g id="edge1" class="edge"><title>Node2&#45;&gt;Node1</title>
<path fill="none" stroke="midnightblue" d="M27,-54.0373C27,-42.5299 27,-28.4026 27,-19.5476"/>
<polygon fill="midnightblue" stroke="midnightblue" points="23.5001,-54.3791 27,-64.3792 30.5001,-54.3792 23.5001,-54.3791"/>
</g>
<!-- Node2&#45;&gt;Node2 -->
<g id="edge2" class="edge"><title>Node2&#45;&gt;Node2</title>
<path fill="none" stroke="#9a32cd" stroke-dasharray="5,2" d="M59.1113,-79.5914C63.2587,-78.6238 66,-76.76 66,-74 66,-69.3516 58.2241,-67.2452 49.051,-67.681"/>
<polygon fill="#9a32cd" stroke="#9a32cd" points="58.7725,-76.1067 49.051,-80.319 59.2774,-83.0885 58.7725,-76.1067"/>
<text text-anchor="middle" x="86.5" y="-82.5" font-family="FreeSans" font-size="10.00"> m_f1</text>
<text text-anchor="middle" x="86.5" y="-71.5" font-family="FreeSans" font-size="10.00">m_f2</text>
<text text-anchor="middle" x="86.5" y="-60.5" font-family="FreeSans" font-size="10.00">m_parent</text>
</g>
</g>
</svg>
