<?xml version="1.0" encoding="UTF-8" standalone="no"?>
<!DOCTYPE svg PUBLIC "-//W3C//DTD SVG 1.1//EN"
 "http://www.w3.org/Graphics/SVG/1.1/DTD/svg11.dtd">
<!-- Generated by graphviz version 2.36.0 (20140111.2315)
 -->
<!-- Title: RedlichKwongMFTP Pages: 1 -->
<svg width="238pt" height="292pt"
 viewBox="0.00 0.00 238.00 292.00" xmlns="http://www.w3.org/2000/svg" xmlns:xlink="http://www.w3.org/1999/xlink">
<g id="graph0" class="graph" transform="scale(1 1) rotate(0) translate(4 288)">
<title>RedlichKwongMFTP</title>
<polygon fill="white" stroke="none" points="-4,4 -4,-288 234,-288 234,4 -4,4"/>
<!-- Node1 -->
<g id="node1" class="node"><title>Node1</title>
<polygon fill="#bfbfbf" stroke="black" points="109.5,-0.5 109.5,-19.5 214.5,-19.5 214.5,-0.5 109.5,-0.5"/>
<text text-anchor="middle" x="162" y="-7.5" font-family="FreeSans" font-size="10.00">RedlichKwongMFTP</text>
</g>
<!-- Node2 -->
<g id="node2" class="node"><title>Node2</title>
<g id="a_node2"><a xlink:href="classCantera_1_1MixtureFugacityTP.html" target="_top" xlink:title="This is a filter class for ThermoPhase that implements some preparatory steps for efficiently handlin...">
<polygon fill="white" stroke="black" points="44,-68.5 44,-87.5 142,-87.5 142,-68.5 44,-68.5"/>
<text text-anchor="middle" x="93" y="-75.5" font-family="FreeSans" font-size="10.00">MixtureFugacityTP</text>
</a>
</g>
</g>
<!-- Node2&#45;&gt;Node1 -->
<g id="edge1" class="edge"><title>Node2&#45;&gt;Node1</title>
<path fill="none" stroke="midnightblue" d="M109.296,-61.4122C122.851,-48.4468 141.66,-30.4559 152.757,-19.8411"/>
<polygon fill="midnightblue" stroke="midnightblue" points="106.828,-58.9301 102.021,-68.3717 111.666,-63.9887 106.828,-58.9301"/>
</g>
<!-- Node3 -->
<g id="node3" class="node"><title>Node3</title>
<g id="a_node3"><a xlink:href="classCantera_1_1ThermoPhase.html" target="_top" xlink:title="Base class for a phase with thermodynamic properties. ">
<polygon fill="white" stroke="black" points="54.5,-126.5 54.5,-145.5 131.5,-145.5 131.5,-126.5 54.5,-126.5"/>
<text text-anchor="middle" x="93" y="-133.5" font-family="FreeSans" font-size="10.00">ThermoPhase</text>
</a>
</g>
</g>
<!-- Node3&#45;&gt;Node2 -->
<g id="edge2" class="edge"><title>Node3&#45;&gt;Node2</title>
<path fill="none" stroke="midnightblue" d="M93,-115.953C93,-106.287 93,-95.0312 93,-87.5052"/>
<polygon fill="midnightblue" stroke="midnightblue" points="89.5001,-116.25 93,-126.25 96.5001,-116.25 89.5001,-116.25"/>
</g>
<!-- Node4 -->
<g id="node4" class="node"><title>Node4</title>
<g id="a_node4"><a xlink:href="classCantera_1_1Phase.html" target="_top" xlink:title="Base class for phases of matter. ">
<polygon fill="white" stroke="black" points="10,-194.5 10,-213.5 54,-213.5 54,-194.5 10,-194.5"/>
<text text-anchor="middle" x="32" y="-201.5" font-family="FreeSans" font-size="10.00">Phase</text>
</a>
</g>
</g>
<!-- Node4&#45;&gt;Node3 -->
<g id="edge3" class="edge"><title>Node4&#45;&gt;Node3</title>
<path fill="none" stroke="midnightblue" d="M47.0836,-186.68C59.0093,-173.777 75.2014,-156.258 84.8287,-145.841"/>
<polygon fill="midnightblue" stroke="midnightblue" points="44.1918,-184.652 39.9747,-194.372 49.3325,-189.403 44.1918,-184.652"/>
</g>
<!-- Node5 -->
<g id="node5" class="node"><title>Node5</title>
<g id="a_node5"><a xlink:href="classCantera_1_1XML__Node.html" target="_top" xlink:title="Class XML_Node is a tree&#45;based representation of the contents of an XML file. ">
<polygon fill="white" stroke="black" points="-0.5,-263.5 -0.5,-282.5 64.5,-282.5 64.5,-263.5 -0.5,-263.5"/>
<text text-anchor="middle" x="32" y="-270.5" font-family="FreeSans" font-size="10.00">XML_Node</text>
</a>
</g>
</g>
<!-- Node5&#45;&gt;Node4 -->
<g id="edge4" class="edge"><title>Node5&#45;&gt;Node4</title>
<path fill="none" stroke="#9a32cd" stroke-dasharray="5,2" d="M32,-253.018C32,-240.034 32,-223.442 32,-213.549"/>
<polygon fill="#9a32cd" stroke="#9a32cd" points="28.5001,-253.241 32,-263.241 35.5001,-253.241 28.5001,-253.241"/>
<text text-anchor="middle" x="47.5" y="-235.5" font-family="FreeSans" font-size="10.00"> m_xml</text>
</g>
<!-- Node5&#45;&gt;Node5 -->
<g id="edge5" class="edge"><title>Node5&#45;&gt;Node5</title>
<path fill="none" stroke="#9a32cd" stroke-dasharray="5,2" d="M74.791,-278.255C79.1888,-277.22 82,-275.468 82,-273 82,-268.949 74.4296,-266.829 64.7005,-266.639"/>
<polygon fill="#9a32cd" stroke="#9a32cd" points="74.2595,-274.792 64.7005,-279.361 75.0224,-281.75 74.2595,-274.792"/>
<text text-anchor="middle" x="102.5" y="-276" font-family="FreeSans" font-size="10.00"> m_root</text>
<text text-anchor="middle" x="102.5" y="-265" font-family="FreeSans" font-size="10.00">m_parent</text>
</g>
<!-- Node6 -->
<g id="node6" class="node"><title>Node6</title>
<g id="a_node6"><a xlink:href="classCantera_1_1SpeciesThermo.html" target="_top" xlink:title="Pure Virtual base class for the species thermo manager classes. ">
<polygon fill="white" stroke="black" points="72,-194.5 72,-213.5 156,-213.5 156,-194.5 72,-194.5"/>
<text text-anchor="middle" x="114" y="-201.5" font-family="FreeSans" font-size="10.00">SpeciesThermo</text>
</a>
</g>
</g>
<!-- Node6&#45;&gt;Node3 -->
<g id="edge6" class="edge"><title>Node6&#45;&gt;Node3</title>
<path fill="none" stroke="#9a32cd" stroke-dasharray="5,2" d="M108.211,-184.807C104.176,-172.124 98.9696,-155.762 95.8131,-145.841"/>
<polygon fill="#9a32cd" stroke="#9a32cd" points="104.887,-185.904 111.255,-194.372 111.558,-183.781 104.887,-185.904"/>
<text text-anchor="middle" x="134" y="-167.5" font-family="FreeSans" font-size="10.00"> m_spthermo</text>
</g>
<!-- Node7 -->
<g id="node7" class="node"><title>Node7</title>
<g id="a_node7"><a xlink:href="classCantera_1_1Array2D.html" target="_top" xlink:title="A class for 2D arrays stored in column&#45;major (Fortran&#45;compatible) form. ">
<polygon fill="white" stroke="black" points="159.5,-68.5 159.5,-87.5 210.5,-87.5 210.5,-68.5 159.5,-68.5"/>
<text text-anchor="middle" x="185" y="-75.5" font-family="FreeSans" font-size="10.00">Array2D</text>
</a>
</g>
</g>
<!-- Node7&#45;&gt;Node1 -->
<g id="edge7" class="edge"><title>Node7&#45;&gt;Node1</title>
<path fill="none" stroke="#9a32cd" stroke-dasharray="5,2" d="M178.66,-58.8066C174.24,-46.1244 168.538,-29.7615 165.081,-19.8411"/>
<polygon fill="#9a32cd" stroke="#9a32cd" points="175.397,-60.0804 181.993,-68.3717 182.007,-57.7768 175.397,-60.0804"/>
<text text-anchor="middle" x="203" y="-41.5" font-family="FreeSans" font-size="10.00"> a_coeff_vec</text>
</g>
</g>
</svg>
