<?xml version="1.0" encoding="UTF-8" standalone="no"?>
<!DOCTYPE svg PUBLIC "-//W3C//DTD SVG 1.1//EN"
 "http://www.w3.org/Graphics/SVG/1.1/DTD/svg11.dtd">
<!-- Generated by graphviz version 2.36.0 (20140111.2315)
 -->
<!-- Title: PhaseCombo_Interaction Pages: 1 -->
<svg width="132pt" height="252pt"
 viewBox="0.00 0.00 132.00 252.00" xmlns="http://www.w3.org/2000/svg" xmlns:xlink="http://www.w3.org/1999/xlink">
<g id="graph0" class="graph" transform="scale(1 1) rotate(0) translate(4 248)">
<title>PhaseCombo_Interaction</title>
<polygon fill="white" stroke="none" points="-4,4 -4,-248 128,-248 128,4 -4,4"/>
<!-- Node1 -->
<g id="node1" class="node"><title>Node1</title>
<polygon fill="#bfbfbf" stroke="black" points="-0.5,-0.5 -0.5,-19.5 124.5,-19.5 124.5,-0.5 -0.5,-0.5"/>
<text text-anchor="middle" x="62" y="-7.5" font-family="FreeSans" font-size="10.00">PhaseCombo_Interaction</text>
</g>
<!-- Node2 -->
<g id="node2" class="node"><title>Node2</title>
<g id="a_node2"><a xlink:href="classCantera_1_1GibbsExcessVPSSTP.html" target="_top" xlink:title="GibbsExcessVPSSTP">
<polygon fill="white" stroke="black" points="7,-56.5 7,-75.5 117,-75.5 117,-56.5 7,-56.5"/>
<text text-anchor="middle" x="62" y="-63.5" font-family="FreeSans" font-size="10.00">GibbsExcessVPSSTP</text>
</a>
</g>
</g>
<!-- Node2&#45;&gt;Node1 -->
<g id="edge1" class="edge"><title>Node2&#45;&gt;Node1</title>
<path fill="none" stroke="midnightblue" d="M62,-45.8045C62,-36.9102 62,-26.7798 62,-19.7511"/>
<polygon fill="midnightblue" stroke="midnightblue" points="58.5001,-46.083 62,-56.083 65.5001,-46.083 58.5001,-46.083"/>
</g>
<!-- Node3 -->
<g id="node3" class="node"><title>Node3</title>
<g id="a_node3"><a xlink:href="classCantera_1_1VPStandardStateTP.html" target="_top" xlink:title="This is a filter class for ThermoPhase that implements some prepatory steps for efficiently handling ...">
<polygon fill="white" stroke="black" points="10,-112.5 10,-131.5 114,-131.5 114,-112.5 10,-112.5"/>
<text text-anchor="middle" x="62" y="-119.5" font-family="FreeSans" font-size="10.00">VPStandardStateTP</text>
</a>
</g>
</g>
<!-- Node3&#45;&gt;Node2 -->
<g id="edge2" class="edge"><title>Node3&#45;&gt;Node2</title>
<path fill="none" stroke="midnightblue" d="M62,-101.805C62,-92.9102 62,-82.7798 62,-75.7511"/>
<polygon fill="midnightblue" stroke="midnightblue" points="58.5001,-102.083 62,-112.083 65.5001,-102.083 58.5001,-102.083"/>
</g>
<!-- Node4 -->
<g id="node4" class="node"><title>Node4</title>
<g id="a_node4"><a xlink:href="classCantera_1_1ThermoPhase.html" target="_top" xlink:title="Base class for a phase with thermodynamic properties. ">
<polygon fill="white" stroke="black" points="23.5,-168.5 23.5,-187.5 100.5,-187.5 100.5,-168.5 23.5,-168.5"/>
<text text-anchor="middle" x="62" y="-175.5" font-family="FreeSans" font-size="10.00">ThermoPhase</text>
</a>
</g>
</g>
<!-- Node4&#45;&gt;Node3 -->
<g id="edge3" class="edge"><title>Node4&#45;&gt;Node3</title>
<path fill="none" stroke="midnightblue" d="M62,-157.805C62,-148.91 62,-138.78 62,-131.751"/>
<polygon fill="midnightblue" stroke="midnightblue" points="58.5001,-158.083 62,-168.083 65.5001,-158.083 58.5001,-158.083"/>
</g>
<!-- Node5 -->
<g id="node5" class="node"><title>Node5</title>
<g id="a_node5"><a xlink:href="classCantera_1_1Phase.html" target="_top" xlink:title="Base class for phases of matter. ">
<polygon fill="white" stroke="black" points="40,-224.5 40,-243.5 84,-243.5 84,-224.5 40,-224.5"/>
<text text-anchor="middle" x="62" y="-231.5" font-family="FreeSans" font-size="10.00">Phase</text>
</a>
</g>
</g>
<!-- Node5&#45;&gt;Node4 -->
<g id="edge4" class="edge"><title>Node5&#45;&gt;Node4</title>
<path fill="none" stroke="midnightblue" d="M62,-213.805C62,-204.91 62,-194.78 62,-187.751"/>
<polygon fill="midnightblue" stroke="midnightblue" points="58.5001,-214.083 62,-224.083 65.5001,-214.083 58.5001,-214.083"/>
</g>
</g>
</svg>
