<?xml version="1.0" encoding="UTF-8" standalone="no"?>
<!DOCTYPE svg PUBLIC "-//W3C//DTD SVG 1.1//EN"
 "http://www.w3.org/Graphics/SVG/1.1/DTD/svg11.dtd">
<!-- Generated by graphviz version 2.36.0 (20140111.2315)
 -->
<!-- Title: GRI30 Pages: 1 -->
<svg width="712pt" height="367pt"
 viewBox="0.00 0.00 712.00 367.00" xmlns="http://www.w3.org/2000/svg" xmlns:xlink="http://www.w3.org/1999/xlink">
<g id="graph0" class="graph" transform="scale(1 1) rotate(0) translate(4 363)">
<title>GRI30</title>
<polygon fill="white" stroke="none" points="-4,4 -4,-363 708,-363 708,4 -4,4"/>
<!-- Node1 -->
<g id="node1" class="node"><title>Node1</title>
<polygon fill="#bfbfbf" stroke="black" points="660,-251.5 660,-270.5 704,-270.5 704,-251.5 660,-251.5"/>
<text text-anchor="middle" x="682" y="-258.5" font-family="FreeSans" font-size="10.00">GRI30</text>
</g>
<!-- Node2 -->
<g id="node2" class="node"><title>Node2</title>
<g id="a_node2"><a xlink:href="classCantera_1_1IdealGasPhase.html" target="_top" xlink:title="Class IdealGasPhase represents low&#45;density gases that obey the ideal gas equation of state...">
<polygon fill="white" stroke="black" points="536,-251.5 536,-270.5 618,-270.5 618,-251.5 536,-251.5"/>
<text text-anchor="middle" x="577" y="-258.5" font-family="FreeSans" font-size="10.00">IdealGasPhase</text>
</a>
</g>
</g>
<!-- Node2&#45;&gt;Node1 -->
<g id="edge1" class="edge"><title>Node2&#45;&gt;Node1</title>
<path fill="none" stroke="midnightblue" d="M628.267,-261C639.408,-261 650.626,-261 659.834,-261"/>
<polygon fill="midnightblue" stroke="midnightblue" points="628.117,-257.5 618.117,-261 628.117,-264.5 628.117,-257.5"/>
</g>
<!-- Node3 -->
<g id="node3" class="node"><title>Node3</title>
<g id="a_node3"><a xlink:href="classCantera_1_1ThermoPhase.html" target="_top" xlink:title="Base class for a phase with thermodynamic properties. ">
<polygon fill="white" stroke="black" points="416.5,-251.5 416.5,-270.5 493.5,-270.5 493.5,-251.5 416.5,-251.5"/>
<text text-anchor="middle" x="455" y="-258.5" font-family="FreeSans" font-size="10.00">ThermoPhase</text>
</a>
</g>
</g>
<!-- Node3&#45;&gt;Node2 -->
<g id="edge2" class="edge"><title>Node3&#45;&gt;Node2</title>
<path fill="none" stroke="midnightblue" d="M503.912,-261C514.407,-261 525.417,-261 535.584,-261"/>
<polygon fill="midnightblue" stroke="midnightblue" points="503.64,-257.5 493.64,-261 503.639,-264.5 503.64,-257.5"/>
</g>
<!-- Node4 -->
<g id="node4" class="node"><title>Node4</title>
<g id="a_node4"><a xlink:href="classCantera_1_1Phase.html" target="_top" xlink:title="Base class for phases of matter. ">
<polygon fill="white" stroke="black" points="203,-274.5 203,-293.5 247,-293.5 247,-274.5 203,-274.5"/>
<text text-anchor="middle" x="225" y="-281.5" font-family="FreeSans" font-size="10.00">Phase</text>
</a>
</g>
</g>
<!-- Node4&#45;&gt;Node3 -->
<g id="edge3" class="edge"><title>Node4&#45;&gt;Node3</title>
<path fill="none" stroke="midnightblue" d="M257.085,-280.864C298.461,-276.69 371.576,-269.315 416.127,-264.821"/>
<polygon fill="midnightblue" stroke="midnightblue" points="256.639,-277.391 247.041,-281.877 257.342,-284.356 256.639,-277.391"/>
</g>
<!-- Node5 -->
<g id="node5" class="node"><title>Node5</title>
<g id="a_node5"><a xlink:href="classCantera_1_1XML__Node.html" target="_top" xlink:title="Class XML_Node is a tree&#45;based representation of the contents of an XML file. ">
<polygon fill="white" stroke="black" points="4.5,-299.5 4.5,-318.5 69.5,-318.5 69.5,-299.5 4.5,-299.5"/>
<text text-anchor="middle" x="37" y="-306.5" font-family="FreeSans" font-size="10.00">XML_Node</text>
</a>
</g>
</g>
<!-- Node5&#45;&gt;Node1 -->
<g id="edge17" class="edge"><title>Node5&#45;&gt;Node1</title>
<path fill="none" stroke="#9a32cd" stroke-dasharray="5,2" d="M79.6335,-313.579C117.291,-317.322 174.291,-322 224,-322 224,-322 224,-322 578,-322 617.903,-322 655.889,-287.688 672.388,-270.531"/>
<polygon fill="#9a32cd" stroke="#9a32cd" points="79.8502,-310.083 69.5472,-312.552 79.1414,-317.047 79.8502,-310.083"/>
<text text-anchor="middle" x="455" y="-325" font-family="FreeSans" font-size="10.00"> m_r</text>
</g>
<!-- Node5&#45;&gt;Node4 -->
<g id="edge4" class="edge"><title>Node5&#45;&gt;Node4</title>
<path fill="none" stroke="#9a32cd" stroke-dasharray="5,2" d="M79.3802,-299.273C83.6291,-298.434 87.8925,-297.656 92,-297 130.884,-290.788 176.717,-287.074 202.867,-285.293"/>
<polygon fill="#9a32cd" stroke="#9a32cd" points="78.6492,-295.85 69.5725,-301.315 80.0759,-302.703 78.6492,-295.85"/>
<text text-anchor="middle" x="115" y="-300" font-family="FreeSans" font-size="10.00"> m_xml</text>
</g>
<!-- Node5&#45;&gt;Node5 -->
<g id="edge5" class="edge"><title>Node5&#45;&gt;Node5</title>
<path fill="none" stroke="#9a32cd" stroke-dasharray="5,2" d="M22.6358,-328.766C23.764,-333.497 28.5521,-337 37,-337 50.8633,-337 54.8706,-327.565 49.0221,-318.757"/>
<polygon fill="#9a32cd" stroke="#9a32cd" points="26.1074,-329.292 24.9779,-318.757 19.2915,-327.697 26.1074,-329.292"/>
<text text-anchor="middle" x="37" y="-351" font-family="FreeSans" font-size="10.00"> m_root</text>
<text text-anchor="middle" x="37" y="-340" font-family="FreeSans" font-size="10.00">m_parent</text>
</g>
<!-- Node6 -->
<g id="node6" class="node"><title>Node6</title>
<g id="a_node6"><a xlink:href="classCantera_1_1SpeciesThermo.html" target="_top" xlink:title="Pure Virtual base class for the species thermo manager classes. ">
<polygon fill="white" stroke="black" points="183,-236.5 183,-255.5 267,-255.5 267,-236.5 183,-236.5"/>
<text text-anchor="middle" x="225" y="-243.5" font-family="FreeSans" font-size="10.00">SpeciesThermo</text>
</a>
</g>
</g>
<!-- Node6&#45;&gt;Node3 -->
<g id="edge6" class="edge"><title>Node6&#45;&gt;Node3</title>
<path fill="none" stroke="#9a32cd" stroke-dasharray="5,2" d="M277.273,-247.952C311.495,-249.434 357.48,-251.772 398,-255 403.946,-255.474 410.237,-256.062 416.373,-256.684"/>
<polygon fill="#9a32cd" stroke="#9a32cd" points="277.189,-244.445 267.05,-247.519 276.893,-251.439 277.189,-244.445"/>
<text text-anchor="middle" x="355" y="-258" font-family="FreeSans" font-size="10.00"> m_spthermo</text>
</g>
<!-- Node7 -->
<g id="node7" class="node"><title>Node7</title>
<g id="a_node7"><a xlink:href="classCantera_1_1GRI__30__Kinetics.html" target="_top" xlink:title="Kinetics manager implementing reaction mechanism GRI&#45;Mech 3.0. ">
<polygon fill="white" stroke="black" points="532.5,-187.5 532.5,-206.5 621.5,-206.5 621.5,-187.5 532.5,-187.5"/>
<text text-anchor="middle" x="577" y="-194.5" font-family="FreeSans" font-size="10.00">GRI_30_Kinetics</text>
</a>
</g>
</g>
<!-- Node7&#45;&gt;Node1 -->
<g id="edge7" class="edge"><title>Node7&#45;&gt;Node1</title>
<path fill="none" stroke="midnightblue" d="M602.322,-212.113C621.897,-224.276 648.814,-241.001 665.547,-251.398"/>
<polygon fill="midnightblue" stroke="midnightblue" points="603.985,-209.025 593.643,-206.72 600.29,-214.971 603.985,-209.025"/>
</g>
<!-- Node8 -->
<g id="node8" class="node"><title>Node8</title>
<g id="a_node8"><a xlink:href="classCantera_1_1GasKinetics.html" target="_top" xlink:title="Kinetics manager for elementary gas&#45;phase chemistry. ">
<polygon fill="white" stroke="black" points="421,-110.5 421,-129.5 489,-129.5 489,-110.5 421,-110.5"/>
<text text-anchor="middle" x="455" y="-117.5" font-family="FreeSans" font-size="10.00">GasKinetics</text>
</a>
</g>
</g>
<!-- Node8&#45;&gt;Node7 -->
<g id="edge8" class="edge"><title>Node8&#45;&gt;Node7</title>
<path fill="none" stroke="midnightblue" d="M479.774,-135.255C503.902,-150.737 540.523,-174.235 560.925,-187.327"/>
<polygon fill="midnightblue" stroke="midnightblue" points="481.505,-132.207 471.198,-129.752 477.724,-138.098 481.505,-132.207"/>
</g>
<!-- Node9 -->
<g id="node9" class="node"><title>Node9</title>
<g id="a_node9"><a xlink:href="classCantera_1_1Kinetics.html" target="_top" xlink:title="Public interface for kinetics managers. ">
<polygon fill="white" stroke="black" points="199.5,-198.5 199.5,-217.5 250.5,-217.5 250.5,-198.5 199.5,-198.5"/>
<text text-anchor="middle" x="225" y="-205.5" font-family="FreeSans" font-size="10.00">Kinetics</text>
</a>
</g>
</g>
<!-- Node9&#45;&gt;Node8 -->
<g id="edge9" class="edge"><title>Node9&#45;&gt;Node8</title>
<path fill="none" stroke="midnightblue" d="M260.847,-210.054C297.235,-210.679 354.903,-207.282 398,-184 421.641,-171.228 439.972,-144.269 448.594,-129.75"/>
<polygon fill="midnightblue" stroke="midnightblue" points="260.823,-206.552 250.727,-209.766 260.624,-213.549 260.823,-206.552"/>
</g>
<!-- Node10 -->
<g id="node10" class="node"><title>Node10</title>
<g id="a_node10"><a xlink:href="classCantera_1_1Rate1.html" target="_top" xlink:title="Rate1\&lt; ChebyshevRate \&gt;">
<polygon fill="white" stroke="black" points="162.5,-160.5 162.5,-179.5 287.5,-179.5 287.5,-160.5 162.5,-160.5"/>
<text text-anchor="middle" x="225" y="-167.5" font-family="FreeSans" font-size="10.00">Rate1&lt; ChebyshevRate &gt;</text>
</a>
</g>
</g>
<!-- Node10&#45;&gt;Node8 -->
<g id="edge10" class="edge"><title>Node10&#45;&gt;Node8</title>
<path fill="none" stroke="#9a32cd" stroke-dasharray="5,2" d="M297.861,-170.508C329.272,-168.912 366.139,-164.53 398,-154 414.415,-148.575 431.079,-137.606 441.91,-129.589"/>
<polygon fill="#9a32cd" stroke="#9a32cd" points="297.709,-167.012 287.867,-170.933 298.007,-174.005 297.709,-167.012"/>
<text text-anchor="middle" x="355" y="-172" font-family="FreeSans" font-size="10.00"> m_cheb_rates</text>
</g>
<!-- Node11 -->
<g id="node11" class="node"><title>Node11</title>
<g id="a_node11"><a xlink:href="classCantera_1_1Rate1.html" target="_top" xlink:title="Rate1\&lt; Cantera::Arrhenius \&gt;">
<polygon fill="white" stroke="black" points="156.5,-114.5 156.5,-133.5 293.5,-133.5 293.5,-114.5 156.5,-114.5"/>
<text text-anchor="middle" x="225" y="-121.5" font-family="FreeSans" font-size="10.00">Rate1&lt; Cantera::Arrhenius &gt;</text>
</a>
</g>
</g>
<!-- Node11&#45;&gt;Node8 -->
<g id="edge11" class="edge"><title>Node11&#45;&gt;Node8</title>
<path fill="none" stroke="#9a32cd" stroke-dasharray="5,2" d="M303.755,-121.19C306.538,-121.12 309.293,-121.057 312,-121 349.342,-120.217 392.218,-120.011 421,-119.973"/>
<polygon fill="#9a32cd" stroke="#9a32cd" points="303.499,-117.696 293.597,-121.464 303.688,-124.693 303.499,-117.696"/>
<text text-anchor="middle" x="355" y="-146" font-family="FreeSans" font-size="10.00"> m_falloff_low_rates</text>
<text text-anchor="middle" x="355" y="-135" font-family="FreeSans" font-size="10.00">m_falloff_high_rates</text>
<text text-anchor="middle" x="355" y="-124" font-family="FreeSans" font-size="10.00">m_rates</text>
</g>
<!-- Node12 -->
<g id="node12" class="node"><title>Node12</title>
<g id="a_node12"><a xlink:href="classCantera_1_1Rate1.html" target="_top" xlink:title="Rate1\&lt; Plog \&gt;">
<polygon fill="white" stroke="black" points="186,-76.5 186,-95.5 264,-95.5 264,-76.5 186,-76.5"/>
<text text-anchor="middle" x="225" y="-83.5" font-family="FreeSans" font-size="10.00">Rate1&lt; Plog &gt;</text>
</a>
</g>
</g>
<!-- Node12&#45;&gt;Node8 -->
<g id="edge12" class="edge"><title>Node12&#45;&gt;Node8</title>
<path fill="none" stroke="#9a32cd" stroke-dasharray="5,2" d="M274.469,-89.3794C309.089,-92.2726 356.66,-97.2266 398,-105 405.715,-106.451 413.928,-108.41 421.619,-110.433"/>
<polygon fill="#9a32cd" stroke="#9a32cd" points="274.411,-85.8634 264.162,-88.5468 273.847,-92.8407 274.411,-85.8634"/>
<text text-anchor="middle" x="355" y="-108" font-family="FreeSans" font-size="10.00"> m_plog_rates</text>
</g>
<!-- Node13 -->
<g id="node13" class="node"><title>Node13</title>
<g id="a_node13"><a xlink:href="classCantera_1_1FalloffMgr.html" target="_top" xlink:title="A falloff manager that implements any set of falloff functions. ">
<polygon fill="white" stroke="black" points="195.5,-38.5 195.5,-57.5 254.5,-57.5 254.5,-38.5 195.5,-38.5"/>
<text text-anchor="middle" x="225" y="-45.5" font-family="FreeSans" font-size="10.00">FalloffMgr</text>
</a>
</g>
</g>
<!-- Node13&#45;&gt;Node8 -->
<g id="edge13" class="edge"><title>Node13&#45;&gt;Node8</title>
<path fill="none" stroke="#9a32cd" stroke-dasharray="5,2" d="M264.614,-49.5847C300.474,-52.2317 354.698,-59.2776 398,-78 416.071,-85.8131 433.696,-100.557 444.203,-110.331"/>
<polygon fill="#9a32cd" stroke="#9a32cd" points="264.767,-46.0873 254.559,-48.9224 264.307,-53.0722 264.767,-46.0873"/>
<text text-anchor="middle" x="355" y="-81" font-family="FreeSans" font-size="10.00"> m_falloffn</text>
</g>
<!-- Node14 -->
<g id="node14" class="node"><title>Node14</title>
<g id="a_node14"><a xlink:href="classCantera_1_1FalloffFactory.html" target="_top" xlink:title="Factory class to construct falloff function calculators. ">
<polygon fill="white" stroke="red" points="0,-38.5 0,-57.5 74,-57.5 74,-38.5 0,-38.5"/>
<text text-anchor="middle" x="37" y="-45.5" font-family="FreeSans" font-size="10.00">FalloffFactory</text>
</a>
</g>
</g>
<!-- Node14&#45;&gt;Node13 -->
<g id="edge14" class="edge"><title>Node14&#45;&gt;Node13</title>
<path fill="none" stroke="#9a32cd" stroke-dasharray="5,2" d="M84.7013,-48C119.506,-48 165.926,-48 195.397,-48"/>
<polygon fill="#9a32cd" stroke="#9a32cd" points="84.3043,-44.5001 74.3042,-48 84.3042,-51.5001 84.3043,-44.5001"/>
<text text-anchor="middle" x="115" y="-51" font-family="FreeSans" font-size="10.00"> m_factory</text>
</g>
<!-- Node14&#45;&gt;Node14 -->
<g id="edge15" class="edge"><title>Node14&#45;&gt;Node14</title>
<path fill="none" stroke="#9a32cd" stroke-dasharray="5,2" d="M22.6358,-67.7663C23.764,-72.4965 28.5521,-76 37,-76 50.8633,-76 54.8706,-66.5653 49.0221,-57.7571"/>
<polygon fill="#9a32cd" stroke="#9a32cd" points="26.1074,-68.2915 24.9779,-57.7571 19.2915,-66.6966 26.1074,-68.2915"/>
<text text-anchor="middle" x="37" y="-79" font-family="FreeSans" font-size="10.00"> s_factory</text>
</g>
<!-- Node15 -->
<g id="node15" class="node"><title>Node15</title>
<g id="a_node15"><a xlink:href="classCantera_1_1ReactionStoichMgr.html" target="_top" xlink:title="Reaction mechanism stoichiometry manager. ">
<polygon fill="white" stroke="black" points="175.5,-0.5 175.5,-19.5 274.5,-19.5 274.5,-0.5 175.5,-0.5"/>
<text text-anchor="middle" x="225" y="-7.5" font-family="FreeSans" font-size="10.00">ReactionStoichMgr</text>
</a>
</g>
</g>
<!-- Node15&#45;&gt;Node8 -->
<g id="edge16" class="edge"><title>Node15&#45;&gt;Node8</title>
<path fill="none" stroke="#9a32cd" stroke-dasharray="5,2" d="M284.96,-9.22997C320.196,-11.3299 364.476,-18.6831 398,-40 425.182,-57.2841 442.863,-92.9795 450.173,-110.236"/>
<polygon fill="#9a32cd" stroke="#9a32cd" points="284.962,-5.7263 274.809,-8.75328 284.633,-12.7186 284.962,-5.7263"/>
<text text-anchor="middle" x="355" y="-43" font-family="FreeSans" font-size="10.00"> m_rxnstoich</text>
</g>
</g>
</svg>
