<?xml version="1.0" encoding="UTF-8" standalone="no"?>
<!DOCTYPE svg PUBLIC "-//W3C//DTD SVG 1.1//EN"
 "http://www.w3.org/Graphics/SVG/1.1/DTD/svg11.dtd">
<!-- Generated by graphviz version 2.36.0 (20140111.2315)
 -->
<!-- Title: clockWC.h Pages: 1 -->
<svg width="1153pt" height="84pt"
 viewBox="0.00 0.00 1153.00 84.00" xmlns="http://www.w3.org/2000/svg" xmlns:xlink="http://www.w3.org/1999/xlink">
<g id="graph0" class="graph" transform="scale(1 1) rotate(0) translate(4 80)">
<title>clockWC.h</title>
<polygon fill="white" stroke="none" points="-4,4 -4,-80 1149,-80 1149,4 -4,4"/>
<!-- Node1 -->
<g id="node1" class="node"><title>Node1</title>
<polygon fill="#bfbfbf" stroke="black" points="550.5,-56.5 550.5,-75.5 613.5,-75.5 613.5,-56.5 550.5,-56.5"/>
<text text-anchor="middle" x="582" y="-63.5" font-family="FreeSans" font-size="10.00">clockWC.h</text>
</g>
<!-- Node2 -->
<g id="node2" class="node"><title>Node2</title>
<g id="a_node2"><a xlink:href="clockWC_8cpp.html" target="_top" xlink:title="Definitions for a simple class that implements an Ansi C wall clock timer (see Cantera::clockWC). ">
<polygon fill="white" stroke="black" points="0,-0.5 0,-19.5 74,-19.5 74,-0.5 0,-0.5"/>
<text text-anchor="middle" x="37" y="-7.5" font-family="FreeSans" font-size="10.00">clockWC.cpp</text>
</a>
</g>
</g>
<!-- Node1&#45;&gt;Node2 -->
<g id="edge1" class="edge"><title>Node1&#45;&gt;Node2</title>
<path fill="none" stroke="midnightblue" d="M540.21,-62.6943C454.274,-57.6312 251.637,-44.0355 83,-20 80.0998,-19.5866 77.1056,-19.1116 74.1012,-18.6003"/>
<polygon fill="midnightblue" stroke="midnightblue" points="540.156,-66.197 550.343,-63.2834 540.563,-59.2088 540.156,-66.197"/>
</g>
<!-- Node3 -->
<g id="node3" class="node"><title>Node3</title>
<g id="a_node3"><a xlink:href="vcs__inest_8cpp.html" target="_top" xlink:title="Implementation methods for obtaining a good initial guess. ">
<polygon fill="white" stroke="black" points="92,-0.5 92,-19.5 166,-19.5 166,-0.5 92,-0.5"/>
<text text-anchor="middle" x="129" y="-7.5" font-family="FreeSans" font-size="10.00">vcs_inest.cpp</text>
</a>
</g>
</g>
<!-- Node1&#45;&gt;Node3 -->
<g id="edge2" class="edge"><title>Node1&#45;&gt;Node3</title>
<path fill="none" stroke="midnightblue" d="M540.2,-61.5334C466.289,-55.1466 307.788,-40.2951 175,-20 172.104,-19.5574 169.113,-19.0613 166.111,-18.5355"/>
<polygon fill="midnightblue" stroke="midnightblue" points="540.216,-65.0475 550.478,-62.4139 540.814,-58.073 540.216,-65.0475"/>
</g>
<!-- Node4 -->
<g id="node4" class="node"><title>Node4</title>
<g id="a_node4"><a xlink:href="vcs__MultiPhaseEquil_8cpp.html" target="_top" xlink:title="Driver routine for the VCSnonideal equilibrium solver package. ">
<polygon fill="white" stroke="black" points="184.5,-0.5 184.5,-19.5 307.5,-19.5 307.5,-0.5 184.5,-0.5"/>
<text text-anchor="middle" x="246" y="-7.5" font-family="FreeSans" font-size="10.00">vcs_MultiPhaseEquil.cpp</text>
</a>
</g>
</g>
<!-- Node1&#45;&gt;Node4 -->
<g id="edge3" class="edge"><title>Node1&#45;&gt;Node4</title>
<path fill="none" stroke="midnightblue" d="M540.363,-58.3084C479.443,-48.5176 366.014,-30.288 299.149,-19.5418"/>
<polygon fill="midnightblue" stroke="midnightblue" points="539.961,-61.7886 550.39,-59.9198 541.072,-54.8773 539.961,-61.7886"/>
</g>
<!-- Node5 -->
<g id="node5" class="node"><title>Node5</title>
<g id="a_node5"><a xlink:href="vcs__rank_8cpp.html" target="_top" xlink:title="vcs_rank.cpp">
<polygon fill="white" stroke="black" points="325.5,-0.5 325.5,-19.5 398.5,-19.5 398.5,-0.5 325.5,-0.5"/>
<text text-anchor="middle" x="362" y="-7.5" font-family="FreeSans" font-size="10.00">vcs_rank.cpp</text>
</a>
</g>
</g>
<!-- Node1&#45;&gt;Node5 -->
<g id="edge4" class="edge"><title>Node1&#45;&gt;Node5</title>
<path fill="none" stroke="midnightblue" d="M540.671,-54.8555C499.115,-44.6556 435.769,-29.1069 396.729,-19.5243"/>
<polygon fill="midnightblue" stroke="midnightblue" points="539.933,-58.2784 550.479,-57.2631 541.602,-51.4802 539.933,-58.2784"/>
</g>
<!-- Node6 -->
<g id="node6" class="node"><title>Node6</title>
<g id="a_node6"><a xlink:href="vcs__solve_8cpp.html" target="_top" xlink:title="vcs_solve.cpp">
<polygon fill="white" stroke="black" points="417,-0.5 417,-19.5 493,-19.5 493,-0.5 417,-0.5"/>
<text text-anchor="middle" x="455" y="-7.5" font-family="FreeSans" font-size="10.00">vcs_solve.cpp</text>
</a>
</g>
</g>
<!-- Node1&#45;&gt;Node6 -->
<g id="edge5" class="edge"><title>Node1&#45;&gt;Node6</title>
<path fill="none" stroke="midnightblue" d="M552.609,-52.503C528.8,-42.3795 495.894,-28.388 475.029,-19.5164"/>
<polygon fill="midnightblue" stroke="midnightblue" points="551.304,-55.7515 561.876,-56.4435 554.043,-49.3096 551.304,-55.7515"/>
</g>
<!-- Node7 -->
<g id="node7" class="node"><title>Node7</title>
<g id="a_node7"><a xlink:href="vcs__solve__phaseStability_8cpp.html" target="_top" xlink:title="vcs_solve_phaseStability.cpp">
<polygon fill="white" stroke="black" points="511.5,-0.5 511.5,-19.5 652.5,-19.5 652.5,-0.5 511.5,-0.5"/>
<text text-anchor="middle" x="582" y="-7.5" font-family="FreeSans" font-size="10.00">vcs_solve_phaseStability.cpp</text>
</a>
</g>
</g>
<!-- Node1&#45;&gt;Node7 -->
<g id="edge6" class="edge"><title>Node1&#45;&gt;Node7</title>
<path fill="none" stroke="midnightblue" d="M582,-45.8045C582,-36.9102 582,-26.7798 582,-19.7511"/>
<polygon fill="midnightblue" stroke="midnightblue" points="578.5,-46.083 582,-56.083 585.5,-46.083 578.5,-46.083"/>
</g>
<!-- Node8 -->
<g id="node8" class="node"><title>Node8</title>
<g id="a_node8"><a xlink:href="vcs__solve__TP_8cpp.html" target="_top" xlink:title="Implementation file that contains the main algorithm for finding an equilibrium. ">
<polygon fill="white" stroke="black" points="671,-0.5 671,-19.5 765,-19.5 765,-0.5 671,-0.5"/>
<text text-anchor="middle" x="718" y="-7.5" font-family="FreeSans" font-size="10.00">vcs_solve_TP.cpp</text>
</a>
</g>
</g>
<!-- Node1&#45;&gt;Node8 -->
<g id="edge7" class="edge"><title>Node1&#45;&gt;Node8</title>
<path fill="none" stroke="midnightblue" d="M613.135,-52.6377C638.657,-42.504 674.109,-28.4274 696.551,-19.5164"/>
<polygon fill="midnightblue" stroke="midnightblue" points="611.552,-49.5002 603.55,-56.4435 614.135,-56.0061 611.552,-49.5002"/>
</g>
<!-- Node9 -->
<g id="node9" class="node"><title>Node9</title>
<g id="a_node9"><a xlink:href="solveSP_8cpp_source.html" target="_top" xlink:title="solveSP.cpp">
<polygon fill="white" stroke="black" points="783,-0.5 783,-19.5 853,-19.5 853,-0.5 783,-0.5"/>
<text text-anchor="middle" x="818" y="-7.5" font-family="FreeSans" font-size="10.00">solveSP.cpp</text>
</a>
</g>
</g>
<!-- Node1&#45;&gt;Node9 -->
<g id="edge8" class="edge"><title>Node1&#45;&gt;Node9</title>
<path fill="none" stroke="midnightblue" d="M623.615,-55.4779C668.841,-45.1296 740.32,-28.7743 782.84,-19.0452"/>
<polygon fill="midnightblue" stroke="midnightblue" points="622.795,-52.0749 613.828,-57.7173 624.357,-58.8986 622.795,-52.0749"/>
</g>
<!-- Node10 -->
<g id="node10" class="node"><title>Node10</title>
<g id="a_node10"><a xlink:href="NonlinearSolver_8cpp.html" target="_top" xlink:title="Damped Newton solver for 0D and 1D problems. ">
<polygon fill="white" stroke="black" points="871,-0.5 871,-19.5 973,-19.5 973,-0.5 871,-0.5"/>
<text text-anchor="middle" x="922" y="-7.5" font-family="FreeSans" font-size="10.00">NonlinearSolver.cpp</text>
</a>
</g>
</g>
<!-- Node1&#45;&gt;Node10 -->
<g id="edge9" class="edge"><title>Node1&#45;&gt;Node10</title>
<path fill="none" stroke="midnightblue" d="M623.94,-58.3389C686.335,-48.4292 803.464,-29.8262 870.819,-19.1288"/>
<polygon fill="midnightblue" stroke="midnightblue" points="623.008,-54.943 613.681,-59.9683 624.106,-61.8563 623.008,-54.943"/>
</g>
<!-- Node11 -->
<g id="node11" class="node"><title>Node11</title>
<g id="a_node11"><a xlink:href="solveProb_8cpp.html" target="_top" xlink:title="Implicit solver for nonlinear problems. ">
<polygon fill="white" stroke="black" points="991.5,-0.5 991.5,-19.5 1068.5,-19.5 1068.5,-0.5 991.5,-0.5"/>
<text text-anchor="middle" x="1030" y="-7.5" font-family="FreeSans" font-size="10.00">solveProb.cpp</text>
</a>
</g>
</g>
<!-- Node1&#45;&gt;Node11 -->
<g id="edge10" class="edge"><title>Node1&#45;&gt;Node11</title>
<path fill="none" stroke="midnightblue" d="M623.778,-61.2502C696.547,-54.5044 851.191,-39.2176 981,-20 984.337,-19.506 987.794,-18.9536 991.258,-18.3722"/>
<polygon fill="midnightblue" stroke="midnightblue" points="623.285,-57.7807 613.648,-62.183 623.927,-64.7512 623.285,-57.7807"/>
</g>
<!-- Node12 -->
<g id="node12" class="node"><title>Node12</title>
<g id="a_node12"><a xlink:href="Cantera_8h.html" target="_top" xlink:title="Basic include file to be used in all Cantera application environments. ">
<polygon fill="white" stroke="black" points="1087,-0.5 1087,-19.5 1145,-19.5 1145,-0.5 1087,-0.5"/>
<text text-anchor="middle" x="1116" y="-7.5" font-family="FreeSans" font-size="10.00">Cantera.h</text>
</a>
</g>
</g>
<!-- Node1&#45;&gt;Node12 -->
<g id="edge11" class="edge"><title>Node1&#45;&gt;Node12</title>
<path fill="none" stroke="midnightblue" d="M623.84,-63.1219C709.394,-58.8588 910.342,-46.678 1077,-20 1080.16,-19.4948 1083.44,-18.8805 1086.7,-18.2127"/>
<polygon fill="midnightblue" stroke="midnightblue" points="623.565,-59.6311 613.748,-63.6145 623.906,-66.6228 623.565,-59.6311"/>
</g>
</g>
</svg>
