<?xml version="1.0" encoding="UTF-8" standalone="no"?>
<!DOCTYPE svg PUBLIC "-//W3C//DTD SVG 1.1//EN"
 "http://www.w3.org/Graphics/SVG/1.1/DTD/svg11.dtd">
<!-- Generated by graphviz version 2.36.0 (20140111.2315)
 -->
<!-- Title: ConstDensityThermo.cpp Pages: 1 -->
<svg width="522pt" height="444pt"
 viewBox="0.00 0.00 522.28 444.00" xmlns="http://www.w3.org/2000/svg" xmlns:xlink="http://www.w3.org/1999/xlink">
<g id="graph0" class="graph" transform="scale(1 1) rotate(0) translate(4 440)">
<title>ConstDensityThermo.cpp</title>
<polygon fill="white" stroke="none" points="-4,4 -4,-440 518.278,-440 518.278,4 -4,4"/>
<!-- Node1 -->
<g id="node1" class="node"><title>Node1</title>
<polygon fill="#bfbfbf" stroke="black" points="89,-416.5 89,-435.5 213,-435.5 213,-416.5 89,-416.5"/>
<text text-anchor="middle" x="151" y="-423.5" font-family="FreeSans" font-size="10.00">ConstDensityThermo.cpp</text>
</g>
<!-- Node2 -->
<g id="node2" class="node"><title>Node2</title>
<g id="a_node2"><a xlink:href="ct__defs_8h.html" target="_top" xlink:title="This file contains definitions of terms that are used in internal routines and are unlikely to need m...">
<polygon fill="white" stroke="black" points="207,-56.5 207,-75.5 321,-75.5 321,-56.5 207,-56.5"/>
<text text-anchor="middle" x="264" y="-63.5" font-family="FreeSans" font-size="10.00">cantera/base/ct_defs.h</text>
</a>
</g>
</g>
<!-- Node1&#45;&gt;Node2 -->
<g id="edge1" class="edge"><title>Node1&#45;&gt;Node2</title>
<path fill="none" stroke="midnightblue" d="M124.698,-416.38C81.4353,-400.355 0,-361.609 0,-297 0,-297 0,-297 0,-177 0,-91.9405 118.218,-71.4629 196.437,-67.2233"/>
<polygon fill="midnightblue" stroke="midnightblue" points="196.889,-70.7061 206.716,-66.746 196.564,-63.7136 196.889,-70.7061"/>
</g>
<!-- Node10 -->
<g id="node10" class="node"><title>Node10</title>
<g id="a_node10"><a xlink:href="mix__defs_8h.html" target="_top" xlink:title="cantera/thermo/mix\l_defs.h">
<polygon fill="white" stroke="black" points="28,-281 28,-311 128,-311 128,-281 28,-281"/>
<text text-anchor="start" x="36" y="-299" font-family="FreeSans" font-size="10.00">cantera/thermo/mix</text>
<text text-anchor="middle" x="78" y="-288" font-family="FreeSans" font-size="10.00">_defs.h</text>
</a>
</g>
</g>
<!-- Node1&#45;&gt;Node10 -->
<g id="edge9" class="edge"><title>Node1&#45;&gt;Node10</title>
<path fill="none" stroke="midnightblue" d="M145.982,-416.202C134.811,-396.614 107.584,-348.873 91.1766,-320.104"/>
<polygon fill="midnightblue" stroke="midnightblue" points="94.0604,-318.096 86.066,-311.143 87.9798,-321.564 94.0604,-318.096"/>
</g>
<!-- Node11 -->
<g id="node11" class="node"><title>Node11</title>
<g id="a_node11"><a xlink:href="ConstDensityThermo_8h.html" target="_top" xlink:title="Header for a Thermo manager for incompressible ThermoPhases (see Thermodynamic Properties and ConstDe...">
<polygon fill="white" stroke="black" points="142.5,-349 142.5,-379 283.5,-379 283.5,-349 142.5,-349"/>
<text text-anchor="start" x="150.5" y="-367" font-family="FreeSans" font-size="10.00">cantera/thermo/ConstDensity</text>
<text text-anchor="middle" x="213" y="-356" font-family="FreeSans" font-size="10.00">Thermo.h</text>
</a>
</g>
</g>
<!-- Node1&#45;&gt;Node11 -->
<g id="edge10" class="edge"><title>Node1&#45;&gt;Node11</title>
<path fill="none" stroke="midnightblue" d="M159.883,-416.403C167.966,-408.581 180.235,-396.708 190.946,-386.342"/>
<polygon fill="midnightblue" stroke="midnightblue" points="193.636,-388.61 198.388,-379.141 188.768,-383.58 193.636,-388.61"/>
</g>
<!-- Node18 -->
<g id="node18" class="node"><title>Node18</title>
<g id="a_node18"><a xlink:href="SpeciesThermo_8h.html" target="_top" xlink:title="Virtual base class for the calculation of multiple&#45;species thermodynamic reference&#45;state property man...">
<polygon fill="white" stroke="black" points="284,-224.5 284,-243.5 376,-243.5 376,-224.5 284,-224.5"/>
<text text-anchor="middle" x="330" y="-231.5" font-family="FreeSans" font-size="10.00">SpeciesThermo.h</text>
</a>
</g>
</g>
<!-- Node1&#45;&gt;Node18 -->
<g id="edge29" class="edge"><title>Node1&#45;&gt;Node18</title>
<path fill="none" stroke="midnightblue" d="M213.336,-418.671C240.877,-412.793 271.574,-401.531 292,-380 325.352,-344.845 330.29,-284.114 330.504,-253.615"/>
<polygon fill="midnightblue" stroke="midnightblue" points="334.003,-253.487 330.403,-243.522 327.003,-253.557 334.003,-253.487"/>
</g>
<!-- Node3 -->
<g id="node3" class="node"><title>Node3</title>
<g id="a_node3"><a xlink:href="config_8h_source.html" target="_top" xlink:title="config.h">
<polygon fill="white" stroke="black" points="239,-0.5 239,-19.5 289,-19.5 289,-0.5 239,-0.5"/>
<text text-anchor="middle" x="264" y="-7.5" font-family="FreeSans" font-size="10.00">config.h</text>
</a>
</g>
</g>
<!-- Node2&#45;&gt;Node3 -->
<g id="edge2" class="edge"><title>Node2&#45;&gt;Node3</title>
<path fill="none" stroke="midnightblue" d="M264,-56.083C264,-49.0059 264,-38.8611 264,-29.9865"/>
<polygon fill="midnightblue" stroke="midnightblue" points="267.5,-29.751 264,-19.7511 260.5,-29.7511 267.5,-29.751"/>
</g>
<!-- Node4 -->
<g id="node4" class="node"><title>Node4</title>
<polygon fill="white" stroke="#bfbfbf" points="307,-0.5 307,-19.5 351,-19.5 351,-0.5 307,-0.5"/>
<text text-anchor="middle" x="329" y="-7.5" font-family="FreeSans" font-size="10.00">cmath</text>
</g>
<!-- Node2&#45;&gt;Node4 -->
<g id="edge3" class="edge"><title>Node2&#45;&gt;Node4</title>
<path fill="none" stroke="midnightblue" d="M274.443,-56.324C284.146,-48.2631 298.815,-36.0765 310.5,-26.3695"/>
<polygon fill="midnightblue" stroke="midnightblue" points="312.911,-28.9163 318.367,-19.8339 308.438,-23.532 312.911,-28.9163"/>
</g>
<!-- Node5 -->
<g id="node5" class="node"><title>Node5</title>
<polygon fill="white" stroke="#bfbfbf" points="369,-0.5 369,-19.5 413,-19.5 413,-0.5 369,-0.5"/>
<text text-anchor="middle" x="391" y="-7.5" font-family="FreeSans" font-size="10.00">cstdlib</text>
</g>
<!-- Node2&#45;&gt;Node5 -->
<g id="edge4" class="edge"><title>Node2&#45;&gt;Node5</title>
<path fill="none" stroke="midnightblue" d="M284.124,-56.4435C305.024,-47.5566 337.935,-33.5632 361.716,-23.4514"/>
<polygon fill="midnightblue" stroke="midnightblue" points="363.138,-26.6504 370.971,-19.5164 360.398,-20.2085 363.138,-26.6504"/>
</g>
<!-- Node6 -->
<g id="node6" class="node"><title>Node6</title>
<polygon fill="white" stroke="#bfbfbf" points="66.5,-0.5 66.5,-19.5 109.5,-19.5 109.5,-0.5 66.5,-0.5"/>
<text text-anchor="middle" x="88" y="-7.5" font-family="FreeSans" font-size="10.00">vector</text>
</g>
<!-- Node2&#45;&gt;Node6 -->
<g id="edge5" class="edge"><title>Node2&#45;&gt;Node6</title>
<path fill="none" stroke="midnightblue" d="M236.112,-56.4435C204.314,-46.6872 152.456,-30.7764 119.301,-20.6036"/>
<polygon fill="midnightblue" stroke="midnightblue" points="120.241,-17.2311 109.654,-17.6439 118.188,-23.9232 120.241,-17.2311"/>
</g>
<!-- Node7 -->
<g id="node7" class="node"><title>Node7</title>
<polygon fill="white" stroke="#bfbfbf" points="127.5,-0.5 127.5,-19.5 162.5,-19.5 162.5,-0.5 127.5,-0.5"/>
<text text-anchor="middle" x="145" y="-7.5" font-family="FreeSans" font-size="10.00">map</text>
</g>
<!-- Node2&#45;&gt;Node7 -->
<g id="edge6" class="edge"><title>Node2&#45;&gt;Node7</title>
<path fill="none" stroke="midnightblue" d="M245.144,-56.4435C225.391,-47.4802 194.191,-33.3221 171.866,-23.1914"/>
<polygon fill="midnightblue" stroke="midnightblue" points="173.156,-19.9334 162.604,-18.9883 170.264,-26.3078 173.156,-19.9334"/>
</g>
<!-- Node8 -->
<g id="node8" class="node"><title>Node8</title>
<polygon fill="white" stroke="#bfbfbf" points="181,-0.5 181,-19.5 221,-19.5 221,-0.5 181,-0.5"/>
<text text-anchor="middle" x="201" y="-7.5" font-family="FreeSans" font-size="10.00">string</text>
</g>
<!-- Node2&#45;&gt;Node8 -->
<g id="edge7" class="edge"><title>Node2&#45;&gt;Node8</title>
<path fill="none" stroke="midnightblue" d="M253.878,-56.324C244.474,-48.2631 230.256,-36.0765 218.931,-26.3695"/>
<polygon fill="midnightblue" stroke="midnightblue" points="221.177,-23.6844 211.306,-19.8339 216.621,-28.9993 221.177,-23.6844"/>
</g>
<!-- Node9 -->
<g id="node9" class="node"><title>Node9</title>
<polygon fill="white" stroke="#bfbfbf" points="431,-0.5 431,-19.5 487,-19.5 487,-0.5 431,-0.5"/>
<text text-anchor="middle" x="459" y="-7.5" font-family="FreeSans" font-size="10.00">algorithm</text>
</g>
<!-- Node2&#45;&gt;Node9 -->
<g id="edge8" class="edge"><title>Node2&#45;&gt;Node9</title>
<path fill="none" stroke="midnightblue" d="M294.898,-56.4435C329.059,-46.9836 384.114,-31.7377 420.915,-21.5465"/>
<polygon fill="midnightblue" stroke="midnightblue" points="422.076,-24.857 430.779,-18.8151 420.207,-18.1109 422.076,-24.857"/>
</g>
<!-- Node11&#45;&gt;Node2 -->
<g id="edge11" class="edge"><title>Node11&#45;&gt;Node2</title>
<path fill="none" stroke="midnightblue" d="M199.712,-348.908C163.262,-308.519 68.0955,-190.235 125,-112 141.537,-89.2636 169.812,-77.7798 196.559,-72.0666"/>
<polygon fill="midnightblue" stroke="midnightblue" points="197.532,-75.4447 206.708,-70.1481 196.232,-68.5666 197.532,-75.4447"/>
</g>
<!-- Node11&#45;&gt;Node10 -->
<g id="edge12" class="edge"><title>Node11&#45;&gt;Node10</title>
<path fill="none" stroke="midnightblue" d="M184.039,-348.841C164.198,-339.141 137.675,-326.174 116.119,-315.636"/>
<polygon fill="midnightblue" stroke="midnightblue" points="117.434,-312.383 106.913,-311.135 114.36,-318.672 117.434,-312.383"/>
</g>
<!-- Node12 -->
<g id="node12" class="node"><title>Node12</title>
<g id="a_node12"><a xlink:href="ThermoPhase_8h.html" target="_top" xlink:title="Header file for class ThermoPhase, the base class for phases with thermodynamic properties, and the text for the Module thermoprops (see Thermodynamic Properties and class ThermoPhase). ">
<polygon fill="white" stroke="black" points="184,-286.5 184,-305.5 268,-305.5 268,-286.5 184,-286.5"/>
<text text-anchor="middle" x="226" y="-293.5" font-family="FreeSans" font-size="10.00">ThermoPhase.h</text>
</a>
</g>
</g>
<!-- Node11&#45;&gt;Node12 -->
<g id="edge13" class="edge"><title>Node11&#45;&gt;Node12</title>
<path fill="none" stroke="midnightblue" d="M215.821,-348.679C217.727,-338.999 220.264,-326.123 222.328,-315.645"/>
<polygon fill="midnightblue" stroke="midnightblue" points="225.762,-316.316 224.261,-305.828 218.894,-314.963 225.762,-316.316"/>
</g>
<!-- Node15 -->
<g id="node15" class="node"><title>Node15</title>
<g id="a_node15"><a xlink:href="utilities_8h.html" target="_top" xlink:title="Various templated functions that carry out common vector operations (see Templated Utility Functions)...">
<polygon fill="white" stroke="black" points="452,-112.5 452,-131.5 506,-131.5 506,-112.5 452,-112.5"/>
<text text-anchor="middle" x="479" y="-119.5" font-family="FreeSans" font-size="10.00">utilities.h</text>
</a>
</g>
</g>
<!-- Node11&#45;&gt;Node15 -->
<g id="edge28" class="edge"><title>Node11&#45;&gt;Node15</title>
<path fill="none" stroke="midnightblue" d="M268.046,-348.946C338.927,-327.549 459.14,-279.294 511,-188 520.261,-171.697 507.888,-152.342 495.934,-139.016"/>
<polygon fill="midnightblue" stroke="midnightblue" points="498.211,-136.336 488.743,-131.58 493.178,-141.202 498.211,-136.336"/>
</g>
<!-- Node11&#45;&gt;Node18 -->
<g id="edge27" class="edge"><title>Node11&#45;&gt;Node18</title>
<path fill="none" stroke="midnightblue" d="M233.231,-348.898C246.227,-339.311 263.038,-325.888 276,-312 293.345,-293.416 309.565,-268.958 319.613,-252.643"/>
<polygon fill="midnightblue" stroke="midnightblue" points="322.862,-254.034 325.027,-243.662 316.867,-250.42 322.862,-254.034"/>
</g>
<!-- Node13 -->
<g id="node13" class="node"><title>Node13</title>
<g id="a_node13"><a xlink:href="Phase_8h.html" target="_top" xlink:title="Header file for class Phase. ">
<polygon fill="white" stroke="black" points="208.5,-224.5 208.5,-243.5 259.5,-243.5 259.5,-224.5 208.5,-224.5"/>
<text text-anchor="middle" x="234" y="-231.5" font-family="FreeSans" font-size="10.00">Phase.h</text>
</a>
</g>
</g>
<!-- Node12&#45;&gt;Node13 -->
<g id="edge14" class="edge"><title>Node12&#45;&gt;Node13</title>
<path fill="none" stroke="midnightblue" d="M227.146,-286.403C228.275,-277.938 230.036,-264.728 231.491,-253.82"/>
<polygon fill="midnightblue" stroke="midnightblue" points="235.003,-253.955 232.856,-243.581 228.065,-253.03 235.003,-253.955"/>
</g>
<!-- Node12&#45;&gt;Node18 -->
<g id="edge25" class="edge"><title>Node12&#45;&gt;Node18</title>
<path fill="none" stroke="midnightblue" d="M240.901,-286.403C257.968,-276.557 286.161,-260.291 306.262,-248.695"/>
<polygon fill="midnightblue" stroke="midnightblue" points="308.214,-251.61 315.127,-243.581 304.716,-245.546 308.214,-251.61"/>
</g>
<!-- Node14 -->
<g id="node14" class="node"><title>Node14</title>
<g id="a_node14"><a xlink:href="vec__functions_8h.html" target="_top" xlink:title="Templates for operations on vector&#45;like objects. ">
<polygon fill="white" stroke="red" points="360,-168.5 360,-187.5 502,-187.5 502,-168.5 360,-168.5"/>
<text text-anchor="middle" x="431" y="-175.5" font-family="FreeSans" font-size="10.00">cantera/base/vec_functions.h</text>
</a>
</g>
</g>
<!-- Node13&#45;&gt;Node14 -->
<g id="edge15" class="edge"><title>Node13&#45;&gt;Node14</title>
<path fill="none" stroke="midnightblue" d="M259.754,-225.94C292.855,-216.867 350.718,-201.006 389.927,-190.259"/>
<polygon fill="midnightblue" stroke="midnightblue" points="390.994,-193.595 399.713,-187.576 389.144,-186.844 390.994,-193.595"/>
</g>
<!-- Node16 -->
<g id="node16" class="node"><title>Node16</title>
<g id="a_node16"><a xlink:href="ctml_8h.html" target="_top" xlink:title="CTML (&quot;Cantera Markup Language&quot;) is the variant of XML that Cantera uses to store data...">
<polygon fill="white" stroke="red" points="134.5,-112.5 134.5,-131.5 235.5,-131.5 235.5,-112.5 134.5,-112.5"/>
<text text-anchor="middle" x="185" y="-119.5" font-family="FreeSans" font-size="10.00">cantera/base/ctml.h</text>
</a>
</g>
</g>
<!-- Node13&#45;&gt;Node16 -->
<g id="edge21" class="edge"><title>Node13&#45;&gt;Node16</title>
<path fill="none" stroke="midnightblue" d="M208.839,-224.378C192.581,-217.343 172.707,-205.645 163,-188 154.602,-172.734 162.979,-153.696 171.706,-140.179"/>
<polygon fill="midnightblue" stroke="midnightblue" points="174.7,-142.007 177.601,-131.817 168.979,-137.973 174.7,-142.007"/>
</g>
<!-- Node17 -->
<g id="node17" class="node"><title>Node17</title>
<g id="a_node17"><a xlink:href="Elements_8h.html" target="_top" xlink:title="Contains the LookupWtElements function and the definitions of element constraint types. ">
<polygon fill="white" stroke="black" points="172,-168.5 172,-187.5 304,-187.5 304,-168.5 172,-168.5"/>
<text text-anchor="middle" x="238" y="-175.5" font-family="FreeSans" font-size="10.00">cantera/thermo/Elements.h</text>
</a>
</g>
</g>
<!-- Node13&#45;&gt;Node17 -->
<g id="edge23" class="edge"><title>Node13&#45;&gt;Node17</title>
<path fill="none" stroke="midnightblue" d="M234.661,-224.083C235.185,-217.006 235.936,-206.861 236.594,-197.986"/>
<polygon fill="midnightblue" stroke="midnightblue" points="240.103,-197.982 237.352,-187.751 233.123,-197.465 240.103,-197.982"/>
</g>
<!-- Node14&#45;&gt;Node2 -->
<g id="edge16" class="edge"><title>Node14&#45;&gt;Node2</title>
<path fill="none" stroke="midnightblue" d="M420.9,-168.472C405.34,-155.522 374.33,-130.455 346,-112 328.029,-100.293 306.774,-88.6878 290.408,-80.1954"/>
<polygon fill="midnightblue" stroke="midnightblue" points="291.894,-77.0242 281.398,-75.5778 288.701,-83.2537 291.894,-77.0242"/>
</g>
<!-- Node14&#45;&gt;Node9 -->
<g id="edge20" class="edge"><title>Node14&#45;&gt;Node9</title>
<path fill="none" stroke="midnightblue" d="M432.505,-168.075C436.913,-141.945 449.856,-65.2106 455.867,-29.577"/>
<polygon fill="midnightblue" stroke="midnightblue" points="459.343,-30.011 457.555,-19.5681 452.44,-28.8467 459.343,-30.011"/>
</g>
<!-- Node14&#45;&gt;Node15 -->
<g id="edge17" class="edge"><title>Node14&#45;&gt;Node15</title>
<path fill="none" stroke="midnightblue" d="M438.926,-168.083C445.846,-160.298 456.065,-148.801 464.452,-139.367"/>
<polygon fill="midnightblue" stroke="midnightblue" points="467.194,-141.55 471.221,-131.751 461.962,-136.9 467.194,-141.55"/>
</g>
<!-- Node15&#45;&gt;Node2 -->
<g id="edge18" class="edge"><title>Node15&#45;&gt;Node2</title>
<path fill="none" stroke="midnightblue" d="M451.77,-114.161C415.575,-105.07 351.175,-88.8951 308.028,-78.0581"/>
<polygon fill="midnightblue" stroke="midnightblue" points="308.637,-74.6026 298.086,-75.5611 306.932,-81.3917 308.637,-74.6026"/>
</g>
<!-- Node15&#45;&gt;Node9 -->
<g id="edge19" class="edge"><title>Node15&#45;&gt;Node9</title>
<path fill="none" stroke="midnightblue" d="M477.431,-112.368C474.203,-94.617 466.758,-53.6664 462.381,-29.5974"/>
<polygon fill="midnightblue" stroke="midnightblue" points="465.795,-28.804 460.562,-19.5914 458.907,-30.0562 465.795,-28.804"/>
</g>
<!-- Node16&#45;&gt;Node2 -->
<g id="edge22" class="edge"><title>Node16&#45;&gt;Node2</title>
<path fill="none" stroke="midnightblue" d="M197.693,-112.324C209.901,-103.979 228.578,-91.2122 243.003,-81.3524"/>
<polygon fill="midnightblue" stroke="midnightblue" points="245.058,-84.1871 251.339,-75.6545 241.108,-78.4082 245.058,-84.1871"/>
</g>
<!-- Node17&#45;&gt;Node2 -->
<g id="edge24" class="edge"><title>Node17&#45;&gt;Node2</title>
<path fill="none" stroke="midnightblue" d="M240.04,-168.368C244.236,-150.617 253.915,-109.666 259.604,-85.5974"/>
<polygon fill="midnightblue" stroke="midnightblue" points="263.075,-86.1284 261.969,-75.5914 256.263,-84.5182 263.075,-86.1284"/>
</g>
<!-- Node18&#45;&gt;Node2 -->
<g id="edge26" class="edge"><title>Node18&#45;&gt;Node2</title>
<path fill="none" stroke="midnightblue" d="M328.318,-224.423C325.723,-211.829 320.273,-187.696 313,-168 301.795,-137.658 284.525,-104.209 273.762,-84.4333"/>
<polygon fill="midnightblue" stroke="midnightblue" points="276.819,-82.7285 268.925,-75.6618 270.689,-86.1087 276.819,-82.7285"/>
</g>
</g>
</svg>
