<?xml version="1.0" encoding="UTF-8" standalone="no"?>
<!DOCTYPE svg PUBLIC "-//W3C//DTD SVG 1.1//EN"
 "http://www.w3.org/Graphics/SVG/1.1/DTD/svg11.dtd">
<!-- Generated by graphviz version 2.36.0 (20140111.2315)
 -->
<!-- Title: DebyeHuckel.h Pages: 1 -->
<svg width="401pt" height="252pt"
 viewBox="0.00 0.00 401.00 252.00" xmlns="http://www.w3.org/2000/svg" xmlns:xlink="http://www.w3.org/1999/xlink">
<g id="graph0" class="graph" transform="scale(1 1) rotate(0) translate(4 248)">
<title>DebyeHuckel.h</title>
<polygon fill="white" stroke="none" points="-4,4 -4,-248 397,-248 397,4 -4,4"/>
<!-- Node1 -->
<g id="node1" class="node"><title>Node1</title>
<polygon fill="#bfbfbf" stroke="black" points="119.5,-224.5 119.5,-243.5 200.5,-243.5 200.5,-224.5 119.5,-224.5"/>
<text text-anchor="middle" x="160" y="-231.5" font-family="FreeSans" font-size="10.00">DebyeHuckel.h</text>
</g>
<!-- Node2 -->
<g id="node2" class="node"><title>Node2</title>
<g id="a_node2"><a xlink:href="DebyeHuckel_8cpp.html" target="_top" xlink:title="Declarations for the DebyeHuckel ThermoPhase object, which models dilute electrolyte solutions (see T...">
<polygon fill="white" stroke="black" points="0,-168.5 0,-187.5 92,-187.5 92,-168.5 0,-168.5"/>
<text text-anchor="middle" x="46" y="-175.5" font-family="FreeSans" font-size="10.00">DebyeHuckel.cpp</text>
</a>
</g>
</g>
<!-- Node1&#45;&gt;Node2 -->
<g id="edge1" class="edge"><title>Node1&#45;&gt;Node2</title>
<path fill="none" stroke="midnightblue" d="M132.758,-220.096C111.46,-210.007 82.4583,-196.27 63.9791,-187.516"/>
<polygon fill="midnightblue" stroke="midnightblue" points="131.401,-223.326 141.936,-224.444 134.397,-217 131.401,-223.326"/>
</g>
<!-- Node3 -->
<g id="node3" class="node"><title>Node3</title>
<g id="a_node3"><a xlink:href="ThermoFactory_8cpp.html" target="_top" xlink:title="Definitions for the factory class that can create known ThermoPhase objects (see Thermodynamic Proper...">
<polygon fill="white" stroke="black" points="110,-168.5 110,-187.5 210,-187.5 210,-168.5 110,-168.5"/>
<text text-anchor="middle" x="160" y="-175.5" font-family="FreeSans" font-size="10.00">ThermoFactory.cpp</text>
</a>
</g>
</g>
<!-- Node1&#45;&gt;Node3 -->
<g id="edge2" class="edge"><title>Node1&#45;&gt;Node3</title>
<path fill="none" stroke="midnightblue" d="M160,-213.805C160,-204.91 160,-194.78 160,-187.751"/>
<polygon fill="midnightblue" stroke="midnightblue" points="156.5,-214.083 160,-224.083 163.5,-214.083 156.5,-214.083"/>
</g>
<!-- Node4 -->
<g id="node4" class="node"><title>Node4</title>
<g id="a_node4"><a xlink:href="electrolyteThermo_8h.html" target="_top" xlink:title="Support for thermo property calculation from C++ application programs. ">
<polygon fill="white" stroke="black" points="228.5,-168.5 228.5,-187.5 329.5,-187.5 329.5,-168.5 228.5,-168.5"/>
<text text-anchor="middle" x="279" y="-175.5" font-family="FreeSans" font-size="10.00">electrolyteThermo.h</text>
</a>
</g>
</g>
<!-- Node1&#45;&gt;Node4 -->
<g id="edge3" class="edge"><title>Node1&#45;&gt;Node4</title>
<path fill="none" stroke="midnightblue" d="M188.137,-220.232C210.396,-210.131 240.856,-196.309 260.232,-187.516"/>
<polygon fill="midnightblue" stroke="midnightblue" points="186.516,-217.124 178.856,-224.444 189.409,-223.498 186.516,-217.124"/>
</g>
<!-- Node5 -->
<g id="node5" class="node"><title>Node5</title>
<g id="a_node5"><a xlink:href="thermo_8h.html" target="_top" xlink:title="Support for thermo property calculation from C++ application programs. ">
<polygon fill="white" stroke="black" points="252,-112.5 252,-131.5 306,-131.5 306,-112.5 252,-112.5"/>
<text text-anchor="middle" x="279" y="-119.5" font-family="FreeSans" font-size="10.00">thermo.h</text>
</a>
</g>
</g>
<!-- Node4&#45;&gt;Node5 -->
<g id="edge4" class="edge"><title>Node4&#45;&gt;Node5</title>
<path fill="none" stroke="midnightblue" d="M279,-157.805C279,-148.91 279,-138.78 279,-131.751"/>
<polygon fill="midnightblue" stroke="midnightblue" points="275.5,-158.083 279,-168.083 282.5,-158.083 275.5,-158.083"/>
</g>
<!-- Node6 -->
<g id="node6" class="node"><title>Node6</title>
<g id="a_node6"><a xlink:href="Edge_8h.html" target="_top" xlink:title="Edge.h">
<polygon fill="white" stroke="black" points="205,-56.5 205,-75.5 251,-75.5 251,-56.5 205,-56.5"/>
<text text-anchor="middle" x="228" y="-63.5" font-family="FreeSans" font-size="10.00">Edge.h</text>
</a>
</g>
</g>
<!-- Node5&#45;&gt;Node6 -->
<g id="edge5" class="edge"><title>Node5&#45;&gt;Node6</title>
<path fill="none" stroke="midnightblue" d="M263.622,-104.718C254.633,-95.1997 243.641,-83.5608 236.265,-75.7511"/>
<polygon fill="midnightblue" stroke="midnightblue" points="261.168,-107.216 270.578,-112.083 266.257,-102.41 261.168,-107.216"/>
</g>
<!-- Node7 -->
<g id="node7" class="node"><title>Node7</title>
<g id="a_node7"><a xlink:href="Interface_8h.html" target="_top" xlink:title="Declaration and Definition for the class Interface. ">
<polygon fill="white" stroke="black" points="248,-0.5 248,-19.5 310,-19.5 310,-0.5 248,-0.5"/>
<text text-anchor="middle" x="279" y="-7.5" font-family="FreeSans" font-size="10.00">Interface.h</text>
</a>
</g>
</g>
<!-- Node5&#45;&gt;Node7 -->
<g id="edge6" class="edge"><title>Node5&#45;&gt;Node7</title>
<path fill="none" stroke="midnightblue" d="M279,-102.348C279,-78.2538 279,-37.3079 279,-19.5914"/>
<polygon fill="midnightblue" stroke="midnightblue" points="275.5,-102.368 279,-112.368 282.5,-102.369 275.5,-102.368"/>
</g>
<!-- Node8 -->
<g id="node8" class="node"><title>Node8</title>
<g id="a_node8"><a xlink:href="kinetics_8h_source.html" target="_top" xlink:title="kinetics.h">
<polygon fill="white" stroke="black" points="307.5,-56.5 307.5,-75.5 364.5,-75.5 364.5,-56.5 307.5,-56.5"/>
<text text-anchor="middle" x="336" y="-63.5" font-family="FreeSans" font-size="10.00">kinetics.h</text>
</a>
</g>
</g>
<!-- Node5&#45;&gt;Node8 -->
<g id="edge7" class="edge"><title>Node5&#45;&gt;Node8</title>
<path fill="none" stroke="midnightblue" d="M295.621,-105.253C305.734,-95.6731 318.277,-83.7906 326.675,-75.8339"/>
<polygon fill="midnightblue" stroke="midnightblue" points="293.01,-102.906 288.158,-112.324 297.825,-107.987 293.01,-102.906"/>
</g>
<!-- Node8&#45;&gt;Node7 -->
<g id="edge8" class="edge"><title>Node8&#45;&gt;Node7</title>
<path fill="none" stroke="midnightblue" d="M319.379,-49.2533C309.266,-39.6731 296.723,-27.7906 288.325,-19.8339"/>
<polygon fill="midnightblue" stroke="midnightblue" points="317.175,-51.9873 326.842,-56.324 321.99,-46.9056 317.175,-51.9873"/>
</g>
<!-- Node9 -->
<g id="node9" class="node"><title>Node9</title>
<g id="a_node9"><a xlink:href="PureFluid_8h.html" target="_top" xlink:title="PureFluid.h">
<polygon fill="white" stroke="black" points="328.5,-0.5 328.5,-19.5 393.5,-19.5 393.5,-0.5 328.5,-0.5"/>
<text text-anchor="middle" x="361" y="-7.5" font-family="FreeSans" font-size="10.00">PureFluid.h</text>
</a>
</g>
</g>
<!-- Node8&#45;&gt;Node9 -->
<g id="edge9" class="edge"><title>Node8&#45;&gt;Node9</title>
<path fill="none" stroke="midnightblue" d="M344.341,-46.9827C348.585,-37.8168 353.55,-27.0922 356.949,-19.7511"/>
<polygon fill="midnightblue" stroke="midnightblue" points="341.153,-45.5379 340.128,-56.083 347.506,-48.4788 341.153,-45.5379"/>
</g>
</g>
</svg>
