<?xml version="1.0" encoding="UTF-8" standalone="no"?>
<!DOCTYPE svg PUBLIC "-//W3C//DTD SVG 1.1//EN"
 "http://www.w3.org/Graphics/SVG/1.1/DTD/svg11.dtd">
<!-- Generated by graphviz version 2.36.0 (20140111.2315)
 -->
<!-- Title: FalloffMgr.h Pages: 1 -->
<svg width="585pt" height="252pt"
 viewBox="0.00 0.00 585.00 252.00" xmlns="http://www.w3.org/2000/svg" xmlns:xlink="http://www.w3.org/1999/xlink">
<g id="graph0" class="graph" transform="scale(1 1) rotate(0) translate(4 248)">
<title>FalloffMgr.h</title>
<polygon fill="white" stroke="none" points="-4,4 -4,-248 581,-248 581,4 -4,4"/>
<!-- Node1 -->
<g id="node1" class="node"><title>Node1</title>
<polygon fill="#bfbfbf" stroke="black" points="87,-224.5 87,-243.5 153,-243.5 153,-224.5 87,-224.5"/>
<text text-anchor="middle" x="120" y="-231.5" font-family="FreeSans" font-size="10.00">FalloffMgr.h</text>
</g>
<!-- Node2 -->
<g id="node2" class="node"><title>Node2</title>
<g id="a_node2"><a xlink:href="reaction__defs_8h.html" target="_top" xlink:title="This file defines some constants used to specify reaction types. ">
<polygon fill="white" stroke="black" points="0,-112.5 0,-131.5 82,-131.5 82,-112.5 0,-112.5"/>
<text text-anchor="middle" x="41" y="-119.5" font-family="FreeSans" font-size="10.00">reaction_defs.h</text>
</a>
</g>
</g>
<!-- Node1&#45;&gt;Node2 -->
<g id="edge1" class="edge"><title>Node1&#45;&gt;Node2</title>
<path fill="none" stroke="midnightblue" d="M113.801,-224.368C100.764,-206.215 70.3029,-163.802 53.202,-139.99"/>
<polygon fill="midnightblue" stroke="midnightblue" points="55.8464,-137.672 47.1702,-131.591 50.1607,-141.755 55.8464,-137.672"/>
</g>
<!-- Node11 -->
<g id="node11" class="node"><title>Node11</title>
<g id="a_node11"><a xlink:href="FalloffFactory_8h.html" target="_top" xlink:title="Parameterizations for reaction falloff functions. ">
<polygon fill="white" stroke="black" points="128,-168.5 128,-187.5 210,-187.5 210,-168.5 128,-168.5"/>
<text text-anchor="middle" x="169" y="-175.5" font-family="FreeSans" font-size="10.00">FalloffFactory.h</text>
</a>
</g>
</g>
<!-- Node1&#45;&gt;Node11 -->
<g id="edge10" class="edge"><title>Node1&#45;&gt;Node11</title>
<path fill="none" stroke="midnightblue" d="M128.091,-224.083C135.155,-216.298 145.588,-204.801 154.149,-195.367"/>
<polygon fill="midnightblue" stroke="midnightblue" points="156.931,-197.509 161.059,-187.751 151.747,-192.805 156.931,-197.509"/>
</g>
<!-- Node3 -->
<g id="node3" class="node"><title>Node3</title>
<g id="a_node3"><a xlink:href="ct__defs_8h.html" target="_top" xlink:title="This file contains definitions of terms that are used in internal routines and are unlikely to need m...">
<polygon fill="white" stroke="black" points="165,-56.5 165,-75.5 279,-75.5 279,-56.5 165,-56.5"/>
<text text-anchor="middle" x="222" y="-63.5" font-family="FreeSans" font-size="10.00">cantera/base/ct_defs.h</text>
</a>
</g>
</g>
<!-- Node2&#45;&gt;Node3 -->
<g id="edge2" class="edge"><title>Node2&#45;&gt;Node3</title>
<path fill="none" stroke="midnightblue" d="M69.68,-112.444C100.527,-103.241 149.728,-88.5617 183.829,-78.3879"/>
<polygon fill="midnightblue" stroke="midnightblue" points="184.872,-81.7293 193.454,-75.5164 182.871,-75.0215 184.872,-81.7293"/>
</g>
<!-- Node4 -->
<g id="node4" class="node"><title>Node4</title>
<g id="a_node4"><a xlink:href="config_8h_source.html" target="_top" xlink:title="config.h">
<polygon fill="white" stroke="black" points="418,-0.5 418,-19.5 468,-19.5 468,-0.5 418,-0.5"/>
<text text-anchor="middle" x="443" y="-7.5" font-family="FreeSans" font-size="10.00">config.h</text>
</a>
</g>
</g>
<!-- Node3&#45;&gt;Node4 -->
<g id="edge3" class="edge"><title>Node3&#45;&gt;Node4</title>
<path fill="none" stroke="midnightblue" d="M258.042,-56.4416C295.541,-47.4996 355.941,-32.9902 408,-20 408.099,-19.9753 408.198,-19.9506 408.297,-19.9258"/>
<polygon fill="midnightblue" stroke="midnightblue" points="408.937,-23.3741 417.776,-17.5321 407.223,-16.5872 408.937,-23.3741"/>
</g>
<!-- Node5 -->
<g id="node5" class="node"><title>Node5</title>
<polygon fill="white" stroke="#bfbfbf" points="108,-0.5 108,-19.5 152,-19.5 152,-0.5 108,-0.5"/>
<text text-anchor="middle" x="130" y="-7.5" font-family="FreeSans" font-size="10.00">cmath</text>
</g>
<!-- Node3&#45;&gt;Node5 -->
<g id="edge4" class="edge"><title>Node3&#45;&gt;Node5</title>
<path fill="none" stroke="midnightblue" d="M207.219,-56.324C192.733,-47.8215 170.427,-34.7288 153.507,-24.7975"/>
<polygon fill="midnightblue" stroke="midnightblue" points="155.141,-21.6981 144.745,-19.6545 151.597,-27.735 155.141,-21.6981"/>
</g>
<!-- Node6 -->
<g id="node6" class="node"><title>Node6</title>
<polygon fill="white" stroke="#bfbfbf" points="170,-0.5 170,-19.5 214,-19.5 214,-0.5 170,-0.5"/>
<text text-anchor="middle" x="192" y="-7.5" font-family="FreeSans" font-size="10.00">cstdlib</text>
</g>
<!-- Node3&#45;&gt;Node6 -->
<g id="edge5" class="edge"><title>Node3&#45;&gt;Node6</title>
<path fill="none" stroke="midnightblue" d="M217.046,-56.083C212.896,-48.6127 206.847,-37.7244 201.733,-28.5199"/>
<polygon fill="midnightblue" stroke="midnightblue" points="204.778,-26.7929 196.862,-19.7511 198.659,-30.1924 204.778,-26.7929"/>
</g>
<!-- Node7 -->
<g id="node7" class="node"><title>Node7</title>
<polygon fill="white" stroke="#bfbfbf" points="46.5,-0.5 46.5,-19.5 89.5,-19.5 89.5,-0.5 46.5,-0.5"/>
<text text-anchor="middle" x="68" y="-7.5" font-family="FreeSans" font-size="10.00">vector</text>
</g>
<!-- Node3&#45;&gt;Node7 -->
<g id="edge6" class="edge"><title>Node3&#45;&gt;Node7</title>
<path fill="none" stroke="midnightblue" d="M197.598,-56.4435C171.045,-47.1326 128.506,-32.2163 99.4603,-22.0315"/>
<polygon fill="midnightblue" stroke="midnightblue" points="100.392,-18.6495 89.7976,-18.6433 98.0762,-25.2552 100.392,-18.6495"/>
</g>
<!-- Node8 -->
<g id="node8" class="node"><title>Node8</title>
<polygon fill="white" stroke="#bfbfbf" points="232.5,-0.5 232.5,-19.5 267.5,-19.5 267.5,-0.5 232.5,-0.5"/>
<text text-anchor="middle" x="250" y="-7.5" font-family="FreeSans" font-size="10.00">map</text>
</g>
<!-- Node3&#45;&gt;Node8 -->
<g id="edge7" class="edge"><title>Node3&#45;&gt;Node8</title>
<path fill="none" stroke="midnightblue" d="M226.624,-56.083C230.456,-48.6913 236.024,-37.9533 240.765,-28.8111"/>
<polygon fill="midnightblue" stroke="midnightblue" points="243.966,-30.2398 245.462,-19.7511 237.752,-27.0175 243.966,-30.2398"/>
</g>
<!-- Node9 -->
<g id="node9" class="node"><title>Node9</title>
<polygon fill="white" stroke="#bfbfbf" points="286,-0.5 286,-19.5 326,-19.5 326,-0.5 286,-0.5"/>
<text text-anchor="middle" x="306" y="-7.5" font-family="FreeSans" font-size="10.00">string</text>
</g>
<!-- Node3&#45;&gt;Node9 -->
<g id="edge8" class="edge"><title>Node3&#45;&gt;Node9</title>
<path fill="none" stroke="midnightblue" d="M235.496,-56.324C248.6,-47.9002 268.712,-34.9709 284.107,-25.0741"/>
<polygon fill="midnightblue" stroke="midnightblue" points="286.018,-28.0063 292.537,-19.6545 282.233,-22.118 286.018,-28.0063"/>
</g>
<!-- Node10 -->
<g id="node10" class="node"><title>Node10</title>
<polygon fill="white" stroke="#bfbfbf" points="344,-0.5 344,-19.5 400,-19.5 400,-0.5 344,-0.5"/>
<text text-anchor="middle" x="372" y="-7.5" font-family="FreeSans" font-size="10.00">algorithm</text>
</g>
<!-- Node3&#45;&gt;Node10 -->
<g id="edge9" class="edge"><title>Node3&#45;&gt;Node10</title>
<path fill="none" stroke="midnightblue" d="M245.768,-56.4435C270.893,-47.3986 310.711,-33.064 338.9,-22.9158"/>
<polygon fill="midnightblue" stroke="midnightblue" points="340.12,-26.1968 348.343,-19.5164 337.749,-19.6106 340.12,-26.1968"/>
</g>
<!-- Node11&#45;&gt;Node2 -->
<g id="edge12" class="edge"><title>Node11&#45;&gt;Node2</title>
<path fill="none" stroke="midnightblue" d="M148.718,-168.444C127.653,-159.557 94.4832,-145.563 70.5145,-135.451"/>
<polygon fill="midnightblue" stroke="midnightblue" points="71.7612,-132.179 61.1871,-131.516 69.0403,-138.628 71.7612,-132.179"/>
</g>
<!-- Node11&#45;&gt;Node3 -->
<g id="edge11" class="edge"><title>Node11&#45;&gt;Node3</title>
<path fill="none" stroke="midnightblue" d="M197.372,-168.495C214.752,-161.653 235.596,-150.13 246,-132 254.84,-116.594 245.499,-97.3359 236.008,-83.7944"/>
<polygon fill="midnightblue" stroke="midnightblue" points="238.78,-81.6578 229.939,-75.8192 233.21,-85.8967 238.78,-81.6578"/>
</g>
<!-- Node12 -->
<g id="node12" class="node"><title>Node12</title>
<g id="a_node12"><a xlink:href="FactoryBase_8h.html" target="_top" xlink:title="File contains the FactoryBase class declarations. ">
<polygon fill="white" stroke="black" points="100.5,-112.5 100.5,-131.5 237.5,-131.5 237.5,-112.5 100.5,-112.5"/>
<text text-anchor="middle" x="169" y="-119.5" font-family="FreeSans" font-size="10.00">cantera/base/FactoryBase.h</text>
</a>
</g>
</g>
<!-- Node11&#45;&gt;Node12 -->
<g id="edge13" class="edge"><title>Node11&#45;&gt;Node12</title>
<path fill="none" stroke="midnightblue" d="M169,-168.083C169,-161.006 169,-150.861 169,-141.986"/>
<polygon fill="midnightblue" stroke="midnightblue" points="172.5,-141.751 169,-131.751 165.5,-141.751 172.5,-141.751"/>
</g>
<!-- Node13 -->
<g id="node13" class="node"><title>Node13</title>
<g id="a_node13"><a xlink:href="ct__thread_8h.html" target="_top" xlink:title="cantera/base/ct_thread.h">
<polygon fill="white" stroke="black" points="338.5,-112.5 338.5,-131.5 461.5,-131.5 461.5,-112.5 338.5,-112.5"/>
<text text-anchor="middle" x="400" y="-119.5" font-family="FreeSans" font-size="10.00">cantera/base/ct_thread.h</text>
</a>
</g>
</g>
<!-- Node11&#45;&gt;Node13 -->
<g id="edge15" class="edge"><title>Node11&#45;&gt;Node13</title>
<path fill="none" stroke="midnightblue" d="M205.603,-168.444C245.731,-159.063 310.198,-143.993 353.785,-133.804"/>
<polygon fill="midnightblue" stroke="midnightblue" points="354.628,-137.201 363.569,-131.516 353.034,-130.385 354.628,-137.201"/>
</g>
<!-- Node12&#45;&gt;Node7 -->
<g id="edge14" class="edge"><title>Node12&#45;&gt;Node7</title>
<path fill="none" stroke="midnightblue" d="M161.075,-112.368C144.186,-93.9744 104.425,-50.6712 82.7385,-27.0519"/>
<polygon fill="midnightblue" stroke="midnightblue" points="85.2299,-24.5903 75.8885,-19.5914 80.0737,-29.3246 85.2299,-24.5903"/>
</g>
<!-- Node13&#45;&gt;Node4 -->
<g id="edge16" class="edge"><title>Node13&#45;&gt;Node4</title>
<path fill="none" stroke="midnightblue" d="M405.05,-112.249C410.057,-103.334 417.721,-89.0079 423,-76 429.243,-60.6151 434.662,-42.5189 438.279,-29.3325"/>
<polygon fill="midnightblue" stroke="midnightblue" points="441.685,-30.1415 440.871,-19.578 434.92,-28.3435 441.685,-30.1415"/>
</g>
<!-- Node14 -->
<g id="node14" class="node"><title>Node14</title>
<polygon fill="white" stroke="#bfbfbf" points="471,-56.5 471,-75.5 577,-75.5 577,-56.5 471,-56.5"/>
<text text-anchor="middle" x="524" y="-63.5" font-family="FreeSans" font-size="10.00">boost/shared_ptr.hpp</text>
</g>
<!-- Node13&#45;&gt;Node14 -->
<g id="edge17" class="edge"><title>Node13&#45;&gt;Node14</title>
<path fill="none" stroke="midnightblue" d="M419.648,-112.444C439.965,-103.596 471.903,-89.6875 495.098,-79.5865"/>
<polygon fill="midnightblue" stroke="midnightblue" points="496.673,-82.7181 504.444,-75.5164 493.878,-76.3002 496.673,-82.7181"/>
</g>
<!-- Node15 -->
<g id="node15" class="node"><title>Node15</title>
<polygon fill="white" stroke="#bfbfbf" points="297.5,-56.5 297.5,-75.5 414.5,-75.5 414.5,-56.5 297.5,-56.5"/>
<text text-anchor="middle" x="356" y="-63.5" font-family="FreeSans" font-size="10.00">boost/thread/mutex.hpp</text>
</g>
<!-- Node13&#45;&gt;Node15 -->
<g id="edge18" class="edge"><title>Node13&#45;&gt;Node15</title>
<path fill="none" stroke="midnightblue" d="M392.734,-112.083C386.455,-104.377 377.212,-93.0333 369.569,-83.6531"/>
<polygon fill="midnightblue" stroke="midnightblue" points="372.161,-81.2926 363.131,-75.7511 366.734,-85.7143 372.161,-81.2926"/>
</g>
</g>
</svg>
