<?xml version="1.0" encoding="UTF-8" standalone="no"?>
<!DOCTYPE svg PUBLIC "-//W3C//DTD SVG 1.1//EN"
 "http://www.w3.org/Graphics/SVG/1.1/DTD/svg11.dtd">
<!-- Generated by graphviz version 2.36.0 (20140111.2315)
 -->
<!-- Title: GeneralSpeciesThermo.h Pages: 1 -->
<svg width="689pt" height="308pt"
 viewBox="0.00 0.00 688.56 308.00" xmlns="http://www.w3.org/2000/svg" xmlns:xlink="http://www.w3.org/1999/xlink">
<g id="graph0" class="graph" transform="scale(1 1) rotate(0) translate(4 304)">
<title>GeneralSpeciesThermo.h</title>
<polygon fill="white" stroke="none" points="-4,4 -4,-304 684.565,-304 684.565,4 -4,4"/>
<!-- Node1 -->
<g id="node1" class="node"><title>Node1</title>
<polygon fill="#bfbfbf" stroke="black" points="424.5,-280.5 424.5,-299.5 549.5,-299.5 549.5,-280.5 424.5,-280.5"/>
<text text-anchor="middle" x="487" y="-287.5" font-family="FreeSans" font-size="10.00">GeneralSpeciesThermo.h</text>
</g>
<!-- Node2 -->
<g id="node2" class="node"><title>Node2</title>
<g id="a_node2"><a xlink:href="ct__defs_8h.html" target="_top" xlink:title="This file contains definitions of terms that are used in internal routines and are unlikely to need m...">
<polygon fill="white" stroke="black" points="361,-56.5 361,-75.5 475,-75.5 475,-56.5 361,-56.5"/>
<text text-anchor="middle" x="418" y="-63.5" font-family="FreeSans" font-size="10.00">cantera/base/ct_defs.h</text>
</a>
</g>
</g>
<!-- Node1&#45;&gt;Node2 -->
<g id="edge1" class="edge"><title>Node1&#45;&gt;Node2</title>
<path fill="none" stroke="midnightblue" d="M534.433,-280.483C561.245,-273.894 594.245,-262.644 619,-244 668.397,-206.797 702.581,-159.513 663,-112 640.765,-85.3093 549.949,-74.3962 485.386,-69.9696"/>
<polygon fill="midnightblue" stroke="midnightblue" points="485.47,-66.4678 475.264,-69.3134 485.017,-73.4531 485.47,-66.4678"/>
</g>
<!-- Node10 -->
<g id="node10" class="node"><title>Node10</title>
<g id="a_node10"><a xlink:href="SpeciesThermoMgr_8h.html" target="_top" xlink:title="This file contains descriptions of templated subclasses of the virtual base class, SpeciesThermo, which includes SpeciesThermoDuo (see Managers for Calculating Reference&#45;State Thermodynamics and class SpeciesThermoDuo) ">
<polygon fill="white" stroke="black" points="173,-168.5 173,-187.5 281,-187.5 281,-168.5 173,-168.5"/>
<text text-anchor="middle" x="227" y="-175.5" font-family="FreeSans" font-size="10.00">SpeciesThermoMgr.h</text>
</a>
</g>
</g>
<!-- Node1&#45;&gt;Node10 -->
<g id="edge9" class="edge"><title>Node1&#45;&gt;Node10</title>
<path fill="none" stroke="midnightblue" d="M429.854,-280.493C394.375,-273.754 348.547,-262.344 311,-244 284.758,-231.179 258.833,-209.341 242.878,-194.551"/>
<polygon fill="midnightblue" stroke="midnightblue" points="245.158,-191.89 235.495,-187.545 240.339,-196.967 245.158,-191.89"/>
</g>
<!-- Node15 -->
<g id="node15" class="node"><title>Node15</title>
<g id="a_node15"><a xlink:href="NasaPoly1_8h.html" target="_top" xlink:title="Header for a single&#45;species standard state object derived from SpeciesThermoInterpType based on the N...">
<polygon fill="white" stroke="black" points="498,-224.5 498,-243.5 568,-243.5 568,-224.5 498,-224.5"/>
<text text-anchor="middle" x="533" y="-231.5" font-family="FreeSans" font-size="10.00">NasaPoly1.h</text>
</a>
</g>
</g>
<!-- Node1&#45;&gt;Node15 -->
<g id="edge19" class="edge"><title>Node1&#45;&gt;Node15</title>
<path fill="none" stroke="midnightblue" d="M494.596,-280.083C501.227,-272.298 511.021,-260.801 519.058,-251.367"/>
<polygon fill="midnightblue" stroke="midnightblue" points="521.725,-253.633 525.545,-243.751 516.396,-249.094 521.725,-253.633"/>
</g>
<!-- Node18 -->
<g id="node18" class="node"><title>Node18</title>
<g id="a_node18"><a xlink:href="speciesThermoTypes_8h.html" target="_top" xlink:title="Contains const definitions for types of species reference&#45;state thermodynamics managers (see Species ...">
<polygon fill="white" stroke="black" points="539.5,-112.5 539.5,-131.5 654.5,-131.5 654.5,-112.5 539.5,-112.5"/>
<text text-anchor="middle" x="597" y="-119.5" font-family="FreeSans" font-size="10.00">speciesThermoTypes.h</text>
</a>
</g>
</g>
<!-- Node1&#45;&gt;Node18 -->
<g id="edge33" class="edge"><title>Node1&#45;&gt;Node18</title>
<path fill="none" stroke="midnightblue" d="M516.698,-280.41C554.747,-267.531 618.578,-239.095 642,-188 650.493,-169.472 633.991,-150.568 618.634,-137.958"/>
<polygon fill="midnightblue" stroke="midnightblue" points="620.454,-134.943 610.386,-131.642 616.198,-140.501 620.454,-134.943"/>
</g>
<!-- Node20 -->
<g id="node20" class="node"><title>Node20</title>
<g id="a_node20"><a xlink:href="Nasa9Poly1_8h.html" target="_top" xlink:title="Header for a single&#45;species standard state object derived from SpeciesThermoInterpType based on the N...">
<polygon fill="white" stroke="black" points="404.5,-224.5 404.5,-243.5 479.5,-243.5 479.5,-224.5 404.5,-224.5"/>
<text text-anchor="middle" x="442" y="-231.5" font-family="FreeSans" font-size="10.00">Nasa9Poly1.h</text>
</a>
</g>
</g>
<!-- Node1&#45;&gt;Node20 -->
<g id="edge26" class="edge"><title>Node1&#45;&gt;Node20</title>
<path fill="none" stroke="midnightblue" d="M479.569,-280.083C473.147,-272.377 463.694,-261.033 455.878,-251.653"/>
<polygon fill="midnightblue" stroke="midnightblue" points="458.383,-249.193 449.293,-243.751 453.006,-253.674 458.383,-249.193"/>
</g>
<!-- Node21 -->
<g id="node21" class="node"><title>Node21</title>
<g id="a_node21"><a xlink:href="StatMech_8h.html" target="_top" xlink:title="Header for a single&#45;species standard state object derived from. ">
<polygon fill="white" stroke="black" points="320,-224.5 320,-243.5 386,-243.5 386,-224.5 320,-224.5"/>
<text text-anchor="middle" x="353" y="-231.5" font-family="FreeSans" font-size="10.00">StatMech.h</text>
</a>
</g>
</g>
<!-- Node1&#45;&gt;Node21 -->
<g id="edge29" class="edge"><title>Node1&#45;&gt;Node21</title>
<path fill="none" stroke="midnightblue" d="M465.767,-280.444C443.616,-271.517 408.681,-257.439 383.564,-247.317"/>
<polygon fill="midnightblue" stroke="midnightblue" points="384.717,-244.008 374.133,-243.516 382.1,-250.501 384.717,-244.008"/>
</g>
<!-- Node3 -->
<g id="node3" class="node"><title>Node3</title>
<g id="a_node3"><a xlink:href="config_8h_source.html" target="_top" xlink:title="config.h">
<polygon fill="white" stroke="black" points="454,-0.5 454,-19.5 504,-19.5 504,-0.5 454,-0.5"/>
<text text-anchor="middle" x="479" y="-7.5" font-family="FreeSans" font-size="10.00">config.h</text>
</a>
</g>
</g>
<!-- Node2&#45;&gt;Node3 -->
<g id="edge2" class="edge"><title>Node2&#45;&gt;Node3</title>
<path fill="none" stroke="midnightblue" d="M427.801,-56.324C436.818,-48.3414 450.406,-36.3128 461.318,-26.6529"/>
<polygon fill="midnightblue" stroke="midnightblue" points="463.853,-29.083 469.021,-19.8339 459.213,-23.8416 463.853,-29.083"/>
</g>
<!-- Node4 -->
<g id="node4" class="node"><title>Node4</title>
<polygon fill="white" stroke="#bfbfbf" points="522,-0.5 522,-19.5 566,-19.5 566,-0.5 522,-0.5"/>
<text text-anchor="middle" x="544" y="-7.5" font-family="FreeSans" font-size="10.00">cmath</text>
</g>
<!-- Node2&#45;&gt;Node4 -->
<g id="edge3" class="edge"><title>Node2&#45;&gt;Node4</title>
<path fill="none" stroke="midnightblue" d="M437.965,-56.4435C458.609,-47.5961 491.063,-33.6875 514.632,-23.5865"/>
<polygon fill="midnightblue" stroke="midnightblue" points="516.316,-26.6727 524.128,-19.5164 513.558,-20.2387 516.316,-26.6727"/>
</g>
<!-- Node5 -->
<g id="node5" class="node"><title>Node5</title>
<polygon fill="white" stroke="#bfbfbf" points="584,-0.5 584,-19.5 628,-19.5 628,-0.5 584,-0.5"/>
<text text-anchor="middle" x="606" y="-7.5" font-family="FreeSans" font-size="10.00">cstdlib</text>
</g>
<!-- Node2&#45;&gt;Node5 -->
<g id="edge4" class="edge"><title>Node2&#45;&gt;Node5</title>
<path fill="none" stroke="midnightblue" d="M447.789,-56.4435C482.279,-46.5369 538.861,-30.2846 574.188,-20.1375"/>
<polygon fill="midnightblue" stroke="midnightblue" points="575.342,-23.4477 583.987,-17.323 573.409,-16.7198 575.342,-23.4477"/>
</g>
<!-- Node6 -->
<g id="node6" class="node"><title>Node6</title>
<polygon fill="white" stroke="#bfbfbf" points="265.5,-0.5 265.5,-19.5 308.5,-19.5 308.5,-0.5 265.5,-0.5"/>
<text text-anchor="middle" x="287" y="-7.5" font-family="FreeSans" font-size="10.00">vector</text>
</g>
<!-- Node2&#45;&gt;Node6 -->
<g id="edge5" class="edge"><title>Node2&#45;&gt;Node6</title>
<path fill="none" stroke="midnightblue" d="M397.243,-56.4435C375.684,-47.5566 341.737,-33.5632 317.206,-23.4514"/>
<polygon fill="midnightblue" stroke="midnightblue" points="318.239,-20.0917 307.66,-19.5164 315.572,-26.5634 318.239,-20.0917"/>
</g>
<!-- Node7 -->
<g id="node7" class="node"><title>Node7</title>
<polygon fill="white" stroke="#bfbfbf" points="326.5,-0.5 326.5,-19.5 361.5,-19.5 361.5,-0.5 326.5,-0.5"/>
<text text-anchor="middle" x="344" y="-7.5" font-family="FreeSans" font-size="10.00">map</text>
</g>
<!-- Node2&#45;&gt;Node7 -->
<g id="edge6" class="edge"><title>Node2&#45;&gt;Node7</title>
<path fill="none" stroke="midnightblue" d="M406.111,-56.324C394.85,-48.1066 377.713,-35.6017 364.291,-25.8069"/>
<polygon fill="midnightblue" stroke="midnightblue" points="366.247,-22.9014 356.106,-19.8339 362.12,-28.5559 366.247,-22.9014"/>
</g>
<!-- Node8 -->
<g id="node8" class="node"><title>Node8</title>
<polygon fill="white" stroke="#bfbfbf" points="197,-0.5 197,-19.5 237,-19.5 237,-0.5 197,-0.5"/>
<text text-anchor="middle" x="217" y="-7.5" font-family="FreeSans" font-size="10.00">string</text>
</g>
<!-- Node2&#45;&gt;Node8 -->
<g id="edge7" class="edge"><title>Node2&#45;&gt;Node8</title>
<path fill="none" stroke="midnightblue" d="M386.151,-56.4435C347.904,-46.1681 284.246,-29.066 246.891,-19.0305"/>
<polygon fill="midnightblue" stroke="midnightblue" points="247.661,-15.6134 237.096,-16.3989 245.845,-22.3736 247.661,-15.6134"/>
</g>
<!-- Node9 -->
<g id="node9" class="node"><title>Node9</title>
<polygon fill="white" stroke="#bfbfbf" points="380,-0.5 380,-19.5 436,-19.5 436,-0.5 380,-0.5"/>
<text text-anchor="middle" x="408" y="-7.5" font-family="FreeSans" font-size="10.00">algorithm</text>
</g>
<!-- Node2&#45;&gt;Node9 -->
<g id="edge8" class="edge"><title>Node2&#45;&gt;Node9</title>
<path fill="none" stroke="midnightblue" d="M416.349,-56.083C415.024,-48.9272 413.118,-38.6353 411.461,-29.6911"/>
<polygon fill="midnightblue" stroke="midnightblue" points="414.883,-28.9466 409.621,-19.7511 408,-30.2212 414.883,-28.9466"/>
</g>
<!-- Node10&#45;&gt;Node2 -->
<g id="edge10" class="edge"><title>Node10&#45;&gt;Node2</title>
<path fill="none" stroke="midnightblue" d="M281.201,-168.773C325.073,-161.064 382.233,-148.296 399,-132 411.374,-119.974 415.805,-100.373 417.333,-85.8353"/>
<polygon fill="midnightblue" stroke="midnightblue" points="420.849,-85.717 418.033,-75.5034 413.865,-85.244 420.849,-85.717"/>
</g>
<!-- Node11 -->
<g id="node11" class="node"><title>Node11</title>
<g id="a_node11"><a xlink:href="ctexceptions_8h.html" target="_top" xlink:title="Definitions for the classes that are thrown when Cantera experiences an error condition (also contain...">
<polygon fill="white" stroke="black" points="-0.5,-112.5 -0.5,-131.5 136.5,-131.5 136.5,-112.5 -0.5,-112.5"/>
<text text-anchor="middle" x="68" y="-119.5" font-family="FreeSans" font-size="10.00">cantera/base/ctexceptions.h</text>
</a>
</g>
</g>
<!-- Node10&#45;&gt;Node11 -->
<g id="edge11" class="edge"><title>Node10&#45;&gt;Node11</title>
<path fill="none" stroke="midnightblue" d="M201.806,-168.444C175.057,-159.359 132.597,-144.939 102.695,-134.783"/>
<polygon fill="midnightblue" stroke="midnightblue" points="103.671,-131.418 93.0762,-131.516 101.419,-138.046 103.671,-131.418"/>
</g>
<!-- Node13 -->
<g id="node13" class="node"><title>Node13</title>
<g id="a_node13"><a xlink:href="stringUtils_8h.html" target="_top" xlink:title="Contains declarations for string manipulation functions within Cantera. ">
<polygon fill="white" stroke="black" points="154.5,-112.5 154.5,-131.5 279.5,-131.5 279.5,-112.5 154.5,-112.5"/>
<text text-anchor="middle" x="217" y="-119.5" font-family="FreeSans" font-size="10.00">cantera/base/stringUtils.h</text>
</a>
</g>
</g>
<!-- Node10&#45;&gt;Node13 -->
<g id="edge14" class="edge"><title>Node10&#45;&gt;Node13</title>
<path fill="none" stroke="midnightblue" d="M225.349,-168.083C224.024,-160.927 222.118,-150.635 220.461,-141.691"/>
<polygon fill="midnightblue" stroke="midnightblue" points="223.883,-140.947 218.621,-131.751 217,-142.221 223.883,-140.947"/>
</g>
<!-- Node14 -->
<g id="node14" class="node"><title>Node14</title>
<g id="a_node14"><a xlink:href="SpeciesThermo_8h.html" target="_top" xlink:title="Virtual base class for the calculation of multiple&#45;species thermodynamic reference&#45;state property man...">
<polygon fill="white" stroke="black" points="298,-112.5 298,-131.5 390,-131.5 390,-112.5 298,-112.5"/>
<text text-anchor="middle" x="344" y="-119.5" font-family="FreeSans" font-size="10.00">SpeciesThermo.h</text>
</a>
</g>
</g>
<!-- Node10&#45;&gt;Node14 -->
<g id="edge17" class="edge"><title>Node10&#45;&gt;Node14</title>
<path fill="none" stroke="midnightblue" d="M245.539,-168.444C264.623,-159.636 294.575,-145.812 316.436,-135.722"/>
<polygon fill="midnightblue" stroke="midnightblue" points="317.935,-138.885 325.548,-131.516 315.001,-132.529 317.935,-138.885"/>
</g>
<!-- Node11&#45;&gt;Node8 -->
<g id="edge13" class="edge"><title>Node11&#45;&gt;Node8</title>
<path fill="none" stroke="midnightblue" d="M68.1232,-112.185C68.7929,-98.3911 72.0815,-71.6658 87,-56 113.258,-28.4271 157.227,-17.7444 186.665,-13.6085"/>
<polygon fill="midnightblue" stroke="midnightblue" points="187.296,-17.0573 196.794,-12.3618 186.441,-10.1098 187.296,-17.0573"/>
</g>
<!-- Node12 -->
<g id="node12" class="node"><title>Node12</title>
<polygon fill="white" stroke="#bfbfbf" points="96,-56.5 96,-75.5 154,-75.5 154,-56.5 96,-56.5"/>
<text text-anchor="middle" x="125" y="-63.5" font-family="FreeSans" font-size="10.00">exception</text>
</g>
<!-- Node11&#45;&gt;Node12 -->
<g id="edge12" class="edge"><title>Node11&#45;&gt;Node12</title>
<path fill="none" stroke="midnightblue" d="M77.158,-112.324C85.5015,-104.42 98.0324,-92.5482 108.177,-82.9377"/>
<polygon fill="midnightblue" stroke="midnightblue" points="110.823,-85.2522 115.675,-75.8339 106.009,-80.1705 110.823,-85.2522"/>
</g>
<!-- Node13&#45;&gt;Node2 -->
<g id="edge15" class="edge"><title>Node13&#45;&gt;Node2</title>
<path fill="none" stroke="midnightblue" d="M248.849,-112.444C283.398,-103.162 338.682,-88.3093 376.583,-78.127"/>
<polygon fill="midnightblue" stroke="midnightblue" points="377.551,-81.4912 386.3,-75.5164 375.734,-74.7309 377.551,-81.4912"/>
</g>
<!-- Node13&#45;&gt;Node8 -->
<g id="edge16" class="edge"><title>Node13&#45;&gt;Node8</title>
<path fill="none" stroke="midnightblue" d="M217,-112.368C217,-94.617 217,-53.6664 217,-29.5974"/>
<polygon fill="midnightblue" stroke="midnightblue" points="220.5,-29.5914 217,-19.5914 213.5,-29.5915 220.5,-29.5914"/>
</g>
<!-- Node14&#45;&gt;Node2 -->
<g id="edge18" class="edge"><title>Node14&#45;&gt;Node2</title>
<path fill="none" stroke="midnightblue" d="M355.889,-112.324C367.15,-104.107 384.287,-91.6017 397.709,-81.8069"/>
<polygon fill="midnightblue" stroke="midnightblue" points="399.88,-84.5559 405.894,-75.8339 395.753,-78.9014 399.88,-84.5559"/>
</g>
<!-- Node16 -->
<g id="node16" class="node"><title>Node16</title>
<g id="a_node16"><a xlink:href="global_8h.html" target="_top" xlink:title="This file contains definitions for utility functions and text for modules, inputfiles, logs, textlogs, HTML_logs (see Input File Handling, Diagnostic Output, Writing messages to the screen and Writing HTML Logfiles). ">
<polygon fill="white" stroke="black" points="299,-168.5 299,-187.5 407,-187.5 407,-168.5 299,-168.5"/>
<text text-anchor="middle" x="353" y="-175.5" font-family="FreeSans" font-size="10.00">cantera/base/global.h</text>
</a>
</g>
</g>
<!-- Node15&#45;&gt;Node16 -->
<g id="edge20" class="edge"><title>Node15&#45;&gt;Node16</title>
<path fill="none" stroke="midnightblue" d="M504.478,-224.444C473.934,-215.28 425.292,-200.688 391.397,-190.519"/>
<polygon fill="midnightblue" stroke="midnightblue" points="391.972,-187.038 381.388,-187.516 389.961,-193.742 391.972,-187.038"/>
</g>
<!-- Node17 -->
<g id="node17" class="node"><title>Node17</title>
<g id="a_node17"><a xlink:href="SpeciesThermoInterpType_8h.html" target="_top" xlink:title="Pure Virtual Base class for individual species reference state thermodynamic managers and text for th...">
<polygon fill="white" stroke="black" points="425.5,-168.5 425.5,-187.5 562.5,-187.5 562.5,-168.5 425.5,-168.5"/>
<text text-anchor="middle" x="494" y="-175.5" font-family="FreeSans" font-size="10.00">SpeciesThermoInterpType.h</text>
</a>
</g>
</g>
<!-- Node15&#45;&gt;Node17 -->
<g id="edge22" class="edge"><title>Node15&#45;&gt;Node17</title>
<path fill="none" stroke="midnightblue" d="M526.56,-224.083C521.051,-216.455 512.969,-205.264 506.235,-195.941"/>
<polygon fill="midnightblue" stroke="midnightblue" points="509.013,-193.809 500.32,-187.751 503.338,-197.907 509.013,-193.809"/>
</g>
<!-- Node19 -->
<g id="node19" class="node"><title>Node19</title>
<polygon fill="white" stroke="#bfbfbf" points="580.5,-168.5 580.5,-187.5 633.5,-187.5 633.5,-168.5 580.5,-168.5"/>
<text text-anchor="middle" x="607" y="-175.5" font-family="FreeSans" font-size="10.00">iostream</text>
</g>
<!-- Node15&#45;&gt;Node19 -->
<g id="edge25" class="edge"><title>Node15&#45;&gt;Node19</title>
<path fill="none" stroke="midnightblue" d="M544.889,-224.324C556.15,-216.107 573.287,-203.602 586.709,-193.807"/>
<polygon fill="midnightblue" stroke="midnightblue" points="588.88,-196.556 594.894,-187.834 584.753,-190.901 588.88,-196.556"/>
</g>
<!-- Node16&#45;&gt;Node2 -->
<g id="edge21" class="edge"><title>Node16&#45;&gt;Node2</title>
<path fill="none" stroke="midnightblue" d="M382.881,-168.387C400.54,-161.587 421.451,-150.15 432,-132 440.495,-117.384 434.689,-98.2178 428.164,-84.4914"/>
<polygon fill="midnightblue" stroke="midnightblue" points="431.237,-82.8164 423.48,-75.6006 425.044,-86.0792 431.237,-82.8164"/>
</g>
<!-- Node17&#45;&gt;Node2 -->
<g id="edge23" class="edge"><title>Node17&#45;&gt;Node2</title>
<path fill="none" stroke="midnightblue" d="M488.036,-168.368C475.494,-150.215 446.19,-107.802 429.739,-83.9902"/>
<polygon fill="midnightblue" stroke="midnightblue" points="432.5,-81.8292 423.936,-75.5914 426.741,-85.8083 432.5,-81.8292"/>
</g>
<!-- Node17&#45;&gt;Node18 -->
<g id="edge24" class="edge"><title>Node17&#45;&gt;Node18</title>
<path fill="none" stroke="midnightblue" d="M510.549,-168.324C526.992,-159.703 552.435,-146.364 571.468,-136.386"/>
<polygon fill="midnightblue" stroke="midnightblue" points="573.261,-139.398 580.492,-131.655 570.011,-133.198 573.261,-139.398"/>
</g>
<!-- Node20&#45;&gt;Node16 -->
<g id="edge27" class="edge"><title>Node20&#45;&gt;Node16</title>
<path fill="none" stroke="midnightblue" d="M427.701,-224.324C413.817,-215.9 392.508,-202.971 376.196,-193.074"/>
<polygon fill="midnightblue" stroke="midnightblue" points="377.629,-189.85 367.264,-187.655 373.998,-195.834 377.629,-189.85"/>
</g>
<!-- Node20&#45;&gt;Node17 -->
<g id="edge28" class="edge"><title>Node20&#45;&gt;Node17</title>
<path fill="none" stroke="midnightblue" d="M450.587,-224.083C458.159,-216.22 469.378,-204.569 478.514,-195.081"/>
<polygon fill="midnightblue" stroke="midnightblue" points="481.158,-197.382 485.573,-187.751 476.115,-192.527 481.158,-197.382"/>
</g>
<!-- Node21&#45;&gt;Node10 -->
<g id="edge32" class="edge"><title>Node21&#45;&gt;Node10</title>
<path fill="none" stroke="midnightblue" d="M333.035,-224.444C312.391,-215.596 279.937,-201.687 256.368,-191.586"/>
<polygon fill="midnightblue" stroke="midnightblue" points="257.442,-188.239 246.872,-187.516 254.684,-194.673 257.442,-188.239"/>
</g>
<!-- Node21&#45;&gt;Node16 -->
<g id="edge30" class="edge"><title>Node21&#45;&gt;Node16</title>
<path fill="none" stroke="midnightblue" d="M353,-224.083C353,-217.006 353,-206.861 353,-197.986"/>
<polygon fill="midnightblue" stroke="midnightblue" points="356.5,-197.751 353,-187.751 349.5,-197.751 356.5,-197.751"/>
</g>
<!-- Node21&#45;&gt;Node17 -->
<g id="edge31" class="edge"><title>Node21&#45;&gt;Node17</title>
<path fill="none" stroke="midnightblue" d="M375.342,-224.444C398.753,-215.478 435.736,-201.314 462.19,-191.183"/>
<polygon fill="midnightblue" stroke="midnightblue" points="463.676,-194.361 471.763,-187.516 461.172,-187.824 463.676,-194.361"/>
</g>
</g>
</svg>
