<?xml version="1.0" encoding="UTF-8" standalone="no"?>
<!DOCTYPE svg PUBLIC "-//W3C//DTD SVG 1.1//EN"
 "http://www.w3.org/Graphics/SVG/1.1/DTD/svg11.dtd">
<!-- Generated by graphviz version 2.36.0 (20140111.2315)
 -->
<!-- Title: Transport Properties for Species in Phases Pages: 1 -->
<svg width="256pt" height="38pt"
 viewBox="0.00 0.00 256.00 38.00" xmlns="http://www.w3.org/2000/svg" xmlns:xlink="http://www.w3.org/1999/xlink">
<g id="graph0" class="graph" transform="scale(1 1) rotate(0) translate(4 34)">
<title>Transport Properties for Species in Phases</title>
<polygon fill="white" stroke="none" points="-4,4 -4,-34 252,-34 252,4 -4,4"/>
<!-- Node1 -->
<g id="node1" class="node"><title>Node1</title>
<g id="a_node1"><a xlink:href="group__phases.html" target="_top" xlink:title="These classes are used to represent the composition and state of a single phase of matter...">
<polygon fill="white" stroke="black" points="0,-0 0,-30 102,-30 102,-0 0,-0"/>
<text text-anchor="start" x="8" y="-18" font-family="FreeSans" font-size="10.00">Models of Phases of</text>
<text text-anchor="middle" x="51" y="-7" font-family="FreeSans" font-size="10.00"> Matter</text>
</a>
</g>
</g>
<!-- Node0 -->
<g id="node2" class="node"><title>Node0</title>
<polygon fill="#bfbfbf" stroke="black" points="138,-0 138,-30 248,-30 248,-0 138,-0"/>
<text text-anchor="start" x="146" y="-18" font-family="FreeSans" font-size="10.00">Transport Properties</text>
<text text-anchor="middle" x="193" y="-7" font-family="FreeSans" font-size="10.00"> for Species in Phases</text>
</g>
<!-- Node1&#45;&gt;Node0 -->
<g id="edge1" class="edge"><title>Node1&#45;&gt;Node0</title>
<path fill="none" stroke="midnightblue" d="M112.382,-15C120.879,-15 129.569,-15 137.938,-15"/>
<polygon fill="midnightblue" stroke="midnightblue" points="112.148,-11.5001 102.148,-15 112.148,-18.5001 112.148,-11.5001"/>
</g>
</g>
</svg>
