<?xml version="1.0" encoding="UTF-8" standalone="no"?>
<!DOCTYPE svg PUBLIC "-//W3C//DTD SVG 1.1//EN"
 "http://www.w3.org/Graphics/SVG/1.1/DTD/svg11.dtd">
<!-- Generated by graphviz version 2.36.0 (20140111.2315)
 -->
<!-- Title: IncompressibleSolid.h Pages: 1 -->
<svg width="572pt" height="476pt"
 viewBox="0.00 0.00 572.00 476.00" xmlns="http://www.w3.org/2000/svg" xmlns:xlink="http://www.w3.org/1999/xlink">
<g id="graph0" class="graph" transform="scale(1 1) rotate(0) translate(4 472)">
<title>IncompressibleSolid.h</title>
<polygon fill="white" stroke="none" points="-4,4 -4,-472 568,-472 568,4 -4,4"/>
<!-- Node1 -->
<g id="node1" class="node"><title>Node1</title>
<polygon fill="#bfbfbf" stroke="black" points="169,-448.5 169,-467.5 279,-467.5 279,-448.5 169,-448.5"/>
<text text-anchor="middle" x="224" y="-455.5" font-family="FreeSans" font-size="10.00">IncompressibleSolid.h</text>
</g>
<!-- Node2 -->
<g id="node2" class="node"><title>Node2</title>
<g id="a_node2"><a xlink:href="ConstDensityThermo_8h.html" target="_top" xlink:title="Header for a Thermo manager for incompressible ThermoPhases (see Thermodynamic Properties and ConstDe...">
<polygon fill="white" stroke="black" points="75,-336.5 75,-355.5 221,-355.5 221,-336.5 75,-336.5"/>
<text text-anchor="middle" x="148" y="-343.5" font-family="FreeSans" font-size="10.00">thermo/ConstDensityThermo.h</text>
</a>
</g>
</g>
<!-- Node1&#45;&gt;Node2 -->
<g id="edge1" class="edge"><title>Node1&#45;&gt;Node2</title>
<path fill="none" stroke="midnightblue" d="M218.036,-448.368C205.494,-430.215 176.19,-387.802 159.739,-363.99"/>
<polygon fill="midnightblue" stroke="midnightblue" points="162.5,-361.829 153.936,-355.591 156.741,-365.808 162.5,-361.829"/>
</g>
<!-- Node19 -->
<g id="node19" class="node"><title>Node19</title>
<g id="a_node19"><a xlink:href="importKinetics_8h.html" target="_top" xlink:title="Definitions of global routines for the importing of data from XML files (see Input File Handling)...">
<polygon fill="white" stroke="black" points="208,-392.5 208,-411.5 330,-411.5 330,-392.5 208,-392.5"/>
<text text-anchor="middle" x="269" y="-399.5" font-family="FreeSans" font-size="10.00">kinetics/importKinetics.h</text>
</a>
</g>
</g>
<!-- Node1&#45;&gt;Node19 -->
<g id="edge27" class="edge"><title>Node1&#45;&gt;Node19</title>
<path fill="none" stroke="midnightblue" d="M231.431,-448.083C237.853,-440.377 247.306,-429.033 255.122,-419.653"/>
<polygon fill="midnightblue" stroke="midnightblue" points="257.994,-421.674 261.707,-411.751 252.617,-417.193 257.994,-421.674"/>
</g>
<!-- Node3 -->
<g id="node3" class="node"><title>Node3</title>
<g id="a_node3"><a xlink:href="ct__defs_8h.html" target="_top" xlink:title="This file contains definitions of terms that are used in internal routines and are unlikely to need m...">
<polygon fill="white" stroke="black" points="212,-56.5 212,-75.5 326,-75.5 326,-56.5 212,-56.5"/>
<text text-anchor="middle" x="269" y="-63.5" font-family="FreeSans" font-size="10.00">cantera/base/ct_defs.h</text>
</a>
</g>
</g>
<!-- Node2&#45;&gt;Node3 -->
<g id="edge2" class="edge"><title>Node2&#45;&gt;Node3</title>
<path fill="none" stroke="midnightblue" d="M115.154,-336.458C71.552,-322.906 0,-291.985 0,-235 0,-235 0,-235 0,-177 0,-131.067 136.074,-94.8284 214.661,-77.7296"/>
<polygon fill="midnightblue" stroke="midnightblue" points="215.835,-81.0578 224.881,-75.5431 214.37,-74.2127 215.835,-81.0578"/>
</g>
<!-- Node11 -->
<g id="node11" class="node"><title>Node11</title>
<g id="a_node11"><a xlink:href="mix__defs_8h.html" target="_top" xlink:title="mix_defs.h">
<polygon fill="white" stroke="black" points="176,-280.5 176,-299.5 238,-299.5 238,-280.5 176,-280.5"/>
<text text-anchor="middle" x="207" y="-287.5" font-family="FreeSans" font-size="10.00">mix_defs.h</text>
</a>
</g>
</g>
<!-- Node2&#45;&gt;Node11 -->
<g id="edge10" class="edge"><title>Node2&#45;&gt;Node11</title>
<path fill="none" stroke="midnightblue" d="M157.479,-336.324C166.201,-328.341 179.343,-316.313 189.898,-306.653"/>
<polygon fill="midnightblue" stroke="midnightblue" points="192.334,-309.167 197.348,-299.834 187.608,-304.004 192.334,-309.167"/>
</g>
<!-- Node12 -->
<g id="node12" class="node"><title>Node12</title>
<g id="a_node12"><a xlink:href="ThermoPhase_8h.html" target="_top" xlink:title="Header file for class ThermoPhase, the base class for phases with thermodynamic properties, and the text for the Module thermoprops (see Thermodynamic Properties and class ThermoPhase). ">
<polygon fill="white" stroke="black" points="256,-280.5 256,-299.5 340,-299.5 340,-280.5 256,-280.5"/>
<text text-anchor="middle" x="298" y="-287.5" font-family="FreeSans" font-size="10.00">ThermoPhase.h</text>
</a>
</g>
</g>
<!-- Node2&#45;&gt;Node12 -->
<g id="edge11" class="edge"><title>Node2&#45;&gt;Node12</title>
<path fill="none" stroke="midnightblue" d="M171.768,-336.444C196.893,-327.399 236.711,-313.064 264.9,-302.916"/>
<polygon fill="midnightblue" stroke="midnightblue" points="266.12,-306.197 274.343,-299.516 263.749,-299.611 266.12,-306.197"/>
</g>
<!-- Node15 -->
<g id="node15" class="node"><title>Node15</title>
<g id="a_node15"><a xlink:href="utilities_8h.html" target="_top" xlink:title="Various templated functions that carry out common vector operations (see Templated Utility Functions)...">
<polygon fill="white" stroke="black" points="338,-112.5 338,-131.5 392,-131.5 392,-112.5 338,-112.5"/>
<text text-anchor="middle" x="365" y="-119.5" font-family="FreeSans" font-size="10.00">utilities.h</text>
</a>
</g>
</g>
<!-- Node2&#45;&gt;Node15 -->
<g id="edge26" class="edge"><title>Node2&#45;&gt;Node15</title>
<path fill="none" stroke="midnightblue" d="M145.255,-336.307C136.936,-308.086 115.103,-217.981 158,-168 208.299,-109.394 252.692,-149.129 328,-132 328.101,-131.977 328.202,-131.954 328.303,-131.931"/>
<polygon fill="midnightblue" stroke="midnightblue" points="329.002,-135.362 337.944,-129.68 327.41,-128.545 329.002,-135.362"/>
</g>
<!-- Node18 -->
<g id="node18" class="node"><title>Node18</title>
<g id="a_node18"><a xlink:href="SpeciesThermo_8h.html" target="_top" xlink:title="Virtual base class for the calculation of multiple&#45;species thermodynamic reference&#45;state property man...">
<polygon fill="white" stroke="black" points="28,-224.5 28,-243.5 120,-243.5 120,-224.5 28,-224.5"/>
<text text-anchor="middle" x="74" y="-231.5" font-family="FreeSans" font-size="10.00">SpeciesThermo.h</text>
</a>
</g>
</g>
<!-- Node2&#45;&gt;Node18 -->
<g id="edge25" class="edge"><title>Node2&#45;&gt;Node18</title>
<path fill="none" stroke="midnightblue" d="M142.193,-336.368C129.981,-318.215 101.448,-275.802 85.4298,-251.99"/>
<polygon fill="midnightblue" stroke="midnightblue" points="88.2655,-249.935 79.7797,-243.591 82.4575,-253.842 88.2655,-249.935"/>
</g>
<!-- Node4 -->
<g id="node4" class="node"><title>Node4</title>
<g id="a_node4"><a xlink:href="config_8h_source.html" target="_top" xlink:title="config.h">
<polygon fill="white" stroke="black" points="162,-0.5 162,-19.5 212,-19.5 212,-0.5 162,-0.5"/>
<text text-anchor="middle" x="187" y="-7.5" font-family="FreeSans" font-size="10.00">config.h</text>
</a>
</g>
</g>
<!-- Node3&#45;&gt;Node4 -->
<g id="edge3" class="edge"><title>Node3&#45;&gt;Node4</title>
<path fill="none" stroke="midnightblue" d="M255.825,-56.324C243.153,-47.979 223.767,-35.2122 208.794,-25.3524"/>
<polygon fill="midnightblue" stroke="midnightblue" points="210.419,-22.2313 200.142,-19.6545 206.569,-28.0776 210.419,-22.2313"/>
</g>
<!-- Node5 -->
<g id="node5" class="node"><title>Node5</title>
<polygon fill="white" stroke="#bfbfbf" points="230,-0.5 230,-19.5 274,-19.5 274,-0.5 230,-0.5"/>
<text text-anchor="middle" x="252" y="-7.5" font-family="FreeSans" font-size="10.00">cmath</text>
</g>
<!-- Node3&#45;&gt;Node5 -->
<g id="edge4" class="edge"><title>Node3&#45;&gt;Node5</title>
<path fill="none" stroke="midnightblue" d="M266.193,-56.083C263.915,-48.8486 260.629,-38.4087 257.792,-29.3968"/>
<polygon fill="midnightblue" stroke="midnightblue" points="261.096,-28.2385 254.755,-19.7511 254.419,-30.3406 261.096,-28.2385"/>
</g>
<!-- Node6 -->
<g id="node6" class="node"><title>Node6</title>
<polygon fill="white" stroke="#bfbfbf" points="292,-0.5 292,-19.5 336,-19.5 336,-0.5 292,-0.5"/>
<text text-anchor="middle" x="314" y="-7.5" font-family="FreeSans" font-size="10.00">cstdlib</text>
</g>
<!-- Node3&#45;&gt;Node6 -->
<g id="edge5" class="edge"><title>Node3&#45;&gt;Node6</title>
<path fill="none" stroke="midnightblue" d="M276.431,-56.083C282.853,-48.3768 292.306,-37.0333 300.122,-27.6531"/>
<polygon fill="midnightblue" stroke="midnightblue" points="302.994,-29.674 306.707,-19.7511 297.617,-25.1927 302.994,-29.674"/>
</g>
<!-- Node7 -->
<g id="node7" class="node"><title>Node7</title>
<polygon fill="white" stroke="#bfbfbf" points="354.5,-0.5 354.5,-19.5 397.5,-19.5 397.5,-0.5 354.5,-0.5"/>
<text text-anchor="middle" x="376" y="-7.5" font-family="FreeSans" font-size="10.00">vector</text>
</g>
<!-- Node3&#45;&gt;Node7 -->
<g id="edge6" class="edge"><title>Node3&#45;&gt;Node7</title>
<path fill="none" stroke="midnightblue" d="M286.191,-56.324C303.351,-47.6641 329.946,-34.2424 349.747,-24.249"/>
<polygon fill="midnightblue" stroke="midnightblue" points="351.501,-27.2847 358.851,-19.6545 348.347,-21.0354 351.501,-27.2847"/>
</g>
<!-- Node8 -->
<g id="node8" class="node"><title>Node8</title>
<polygon fill="white" stroke="#bfbfbf" points="108.5,-0.5 108.5,-19.5 143.5,-19.5 143.5,-0.5 108.5,-0.5"/>
<text text-anchor="middle" x="126" y="-7.5" font-family="FreeSans" font-size="10.00">map</text>
</g>
<!-- Node3&#45;&gt;Node8 -->
<g id="edge7" class="edge"><title>Node3&#45;&gt;Node8</title>
<path fill="none" stroke="midnightblue" d="M246.341,-56.4435C221.062,-46.8974 180.179,-31.4593 153.194,-21.2692"/>
<polygon fill="midnightblue" stroke="midnightblue" points="154.186,-17.9023 143.594,-17.6439 151.713,-24.451 154.186,-17.9023"/>
</g>
<!-- Node9 -->
<g id="node9" class="node"><title>Node9</title>
<polygon fill="white" stroke="#bfbfbf" points="494,-0.5 494,-19.5 534,-19.5 534,-0.5 494,-0.5"/>
<text text-anchor="middle" x="514" y="-7.5" font-family="FreeSans" font-size="10.00">string</text>
</g>
<!-- Node3&#45;&gt;Node9 -->
<g id="edge8" class="edge"><title>Node3&#45;&gt;Node9</title>
<path fill="none" stroke="midnightblue" d="M311.974,-56.4728C354.709,-47.8433 422.075,-33.8348 480,-20 481.269,-19.6968 482.564,-19.3815 483.871,-19.0582"/>
<polygon fill="midnightblue" stroke="midnightblue" points="485.084,-22.3607 493.905,-16.4924 483.35,-15.5789 485.084,-22.3607"/>
</g>
<!-- Node10 -->
<g id="node10" class="node"><title>Node10</title>
<polygon fill="white" stroke="#bfbfbf" points="416,-0.5 416,-19.5 472,-19.5 472,-0.5 416,-0.5"/>
<text text-anchor="middle" x="444" y="-7.5" font-family="FreeSans" font-size="10.00">algorithm</text>
</g>
<!-- Node3&#45;&gt;Node10 -->
<g id="edge9" class="edge"><title>Node3&#45;&gt;Node10</title>
<path fill="none" stroke="midnightblue" d="M296.729,-56.4435C326.426,-47.2801 373.716,-32.6876 406.669,-22.5192"/>
<polygon fill="midnightblue" stroke="midnightblue" points="407.877,-25.8094 416.4,-19.5164 405.813,-19.1206 407.877,-25.8094"/>
</g>
<!-- Node13 -->
<g id="node13" class="node"><title>Node13</title>
<g id="a_node13"><a xlink:href="Phase_8h.html" target="_top" xlink:title="Header file for class Phase. ">
<polygon fill="white" stroke="black" points="273.5,-224.5 273.5,-243.5 324.5,-243.5 324.5,-224.5 273.5,-224.5"/>
<text text-anchor="middle" x="299" y="-231.5" font-family="FreeSans" font-size="10.00">Phase.h</text>
</a>
</g>
</g>
<!-- Node12&#45;&gt;Node13 -->
<g id="edge12" class="edge"><title>Node12&#45;&gt;Node13</title>
<path fill="none" stroke="midnightblue" d="M298.165,-280.083C298.296,-273.006 298.484,-262.861 298.648,-253.986"/>
<polygon fill="midnightblue" stroke="midnightblue" points="302.152,-253.814 298.838,-243.751 295.153,-253.685 302.152,-253.814"/>
</g>
<!-- Node12&#45;&gt;Node18 -->
<g id="edge23" class="edge"><title>Node12&#45;&gt;Node18</title>
<path fill="none" stroke="midnightblue" d="M262.507,-280.444C223.676,-271.083 161.344,-256.056 119.082,-245.868"/>
<polygon fill="midnightblue" stroke="midnightblue" points="119.869,-242.458 109.327,-243.516 118.229,-249.263 119.869,-242.458"/>
</g>
<!-- Node14 -->
<g id="node14" class="node"><title>Node14</title>
<g id="a_node14"><a xlink:href="vec__functions_8h.html" target="_top" xlink:title="Templates for operations on vector&#45;like objects. ">
<polygon fill="white" stroke="red" points="355,-168.5 355,-187.5 497,-187.5 497,-168.5 355,-168.5"/>
<text text-anchor="middle" x="426" y="-175.5" font-family="FreeSans" font-size="10.00">cantera/base/vec_functions.h</text>
</a>
</g>
</g>
<!-- Node13&#45;&gt;Node14 -->
<g id="edge13" class="edge"><title>Node13&#45;&gt;Node14</title>
<path fill="none" stroke="midnightblue" d="M319.124,-224.444C340.024,-215.557 372.935,-201.563 396.716,-191.451"/>
<polygon fill="midnightblue" stroke="midnightblue" points="398.138,-194.65 405.971,-187.516 395.398,-188.208 398.138,-194.65"/>
</g>
<!-- Node16 -->
<g id="node16" class="node"><title>Node16</title>
<g id="a_node16"><a xlink:href="ctml_8h.html" target="_top" xlink:title="CTML (&quot;Cantera Markup Language&quot;) is the variant of XML that Cantera uses to store data...">
<polygon fill="white" stroke="red" points="218.5,-112.5 218.5,-131.5 319.5,-131.5 319.5,-112.5 218.5,-112.5"/>
<text text-anchor="middle" x="269" y="-119.5" font-family="FreeSans" font-size="10.00">cantera/base/ctml.h</text>
</a>
</g>
</g>
<!-- Node13&#45;&gt;Node16 -->
<g id="edge19" class="edge"><title>Node13&#45;&gt;Node16</title>
<path fill="none" stroke="midnightblue" d="M302.804,-224.295C307.806,-211.543 315.167,-187.213 308,-168 303.827,-156.812 295.48,-146.56 287.576,-138.676"/>
<polygon fill="midnightblue" stroke="midnightblue" points="289.701,-135.872 279.99,-131.635 284.938,-141.003 289.701,-135.872"/>
</g>
<!-- Node17 -->
<g id="node17" class="node"><title>Node17</title>
<g id="a_node17"><a xlink:href="Elements_8h.html" target="_top" xlink:title="Contains the LookupWtElements function and the definitions of element constraint types. ">
<polygon fill="white" stroke="black" points="167,-168.5 167,-187.5 299,-187.5 299,-168.5 167,-168.5"/>
<text text-anchor="middle" x="233" y="-175.5" font-family="FreeSans" font-size="10.00">cantera/thermo/Elements.h</text>
</a>
</g>
</g>
<!-- Node13&#45;&gt;Node17 -->
<g id="edge21" class="edge"><title>Node13&#45;&gt;Node17</title>
<path fill="none" stroke="midnightblue" d="M288.396,-224.324C278.544,-216.263 263.649,-204.077 251.785,-194.369"/>
<polygon fill="midnightblue" stroke="midnightblue" points="253.753,-191.457 243.797,-187.834 249.32,-196.875 253.753,-191.457"/>
</g>
<!-- Node14&#45;&gt;Node3 -->
<g id="edge14" class="edge"><title>Node14&#45;&gt;Node3</title>
<path fill="none" stroke="midnightblue" d="M424.984,-168.128C422.933,-154.255 417.032,-127.424 401,-112 383.291,-94.9617 358.874,-84.3602 335.852,-77.7698"/>
<polygon fill="midnightblue" stroke="midnightblue" points="336.658,-74.3626 326.095,-75.1839 334.865,-81.129 336.658,-74.3626"/>
</g>
<!-- Node14&#45;&gt;Node10 -->
<g id="edge18" class="edge"><title>Node14&#45;&gt;Node10</title>
<path fill="none" stroke="midnightblue" d="M426.968,-168.075C429.801,-141.945 438.122,-65.2106 441.986,-29.577"/>
<polygon fill="midnightblue" stroke="midnightblue" points="445.472,-29.8872 443.071,-19.5681 438.513,-29.1325 445.472,-29.8872"/>
</g>
<!-- Node14&#45;&gt;Node15 -->
<g id="edge15" class="edge"><title>Node14&#45;&gt;Node15</title>
<path fill="none" stroke="midnightblue" d="M416.199,-168.324C407.182,-160.341 393.594,-148.313 382.682,-138.653"/>
<polygon fill="midnightblue" stroke="midnightblue" points="384.787,-135.842 374.979,-131.834 380.147,-141.083 384.787,-135.842"/>
</g>
<!-- Node15&#45;&gt;Node3 -->
<g id="edge16" class="edge"><title>Node15&#45;&gt;Node3</title>
<path fill="none" stroke="midnightblue" d="M349.576,-112.324C334.46,-103.822 311.185,-90.7288 293.529,-80.7975"/>
<polygon fill="midnightblue" stroke="midnightblue" points="294.817,-77.5066 284.386,-75.6545 291.386,-83.6077 294.817,-77.5066"/>
</g>
<!-- Node15&#45;&gt;Node10 -->
<g id="edge17" class="edge"><title>Node15&#45;&gt;Node10</title>
<path fill="none" stroke="midnightblue" d="M371.199,-112.368C384.236,-94.2153 414.697,-51.8015 431.798,-27.9902"/>
<polygon fill="midnightblue" stroke="midnightblue" points="434.839,-29.7555 437.83,-19.5914 429.154,-25.6721 434.839,-29.7555"/>
</g>
<!-- Node16&#45;&gt;Node3 -->
<g id="edge20" class="edge"><title>Node16&#45;&gt;Node3</title>
<path fill="none" stroke="midnightblue" d="M269,-112.083C269,-105.006 269,-94.8611 269,-85.9865"/>
<polygon fill="midnightblue" stroke="midnightblue" points="272.5,-85.751 269,-75.7511 265.5,-85.7511 272.5,-85.751"/>
</g>
<!-- Node17&#45;&gt;Node3 -->
<g id="edge22" class="edge"><title>Node17&#45;&gt;Node3</title>
<path fill="none" stroke="midnightblue" d="M225.35,-168.336C215.116,-155.634 199.317,-131.367 209,-112 215.728,-98.5432 228.606,-88.0665 240.712,-80.6212"/>
<polygon fill="midnightblue" stroke="midnightblue" points="242.733,-83.4985 249.704,-75.5195 239.279,-77.4101 242.733,-83.4985"/>
</g>
<!-- Node18&#45;&gt;Node3 -->
<g id="edge24" class="edge"><title>Node18&#45;&gt;Node3</title>
<path fill="none" stroke="midnightblue" d="M79.6097,-224.388C88.3582,-211.328 106.207,-186.12 125,-168 162.688,-131.662 214.482,-98.6965 244.584,-80.884"/>
<polygon fill="midnightblue" stroke="midnightblue" points="246.679,-83.7134 253.55,-75.6481 243.149,-77.6687 246.679,-83.7134"/>
</g>
<!-- Node19&#45;&gt;Node12 -->
<g id="edge28" class="edge"><title>Node19&#45;&gt;Node12</title>
<path fill="none" stroke="midnightblue" d="M279.714,-392.305C288.938,-384.069 301.591,-370.789 307,-356 312.558,-340.804 309.178,-322.462 305.068,-309.142"/>
<polygon fill="midnightblue" stroke="midnightblue" points="308.37,-307.982 301.771,-299.693 301.761,-310.288 308.37,-307.982"/>
</g>
<!-- Node20 -->
<g id="node20" class="node"><title>Node20</title>
<g id="a_node20"><a xlink:href="Kinetics_8h.html" target="_top" xlink:title="Base class for kinetics managers and also contains the kineticsmgr module documentation (see Kinetics...">
<polygon fill="white" stroke="black" points="239.5,-336.5 239.5,-355.5 298.5,-355.5 298.5,-336.5 239.5,-336.5"/>
<text text-anchor="middle" x="269" y="-343.5" font-family="FreeSans" font-size="10.00">Kinetics.h</text>
</a>
</g>
</g>
<!-- Node19&#45;&gt;Node20 -->
<g id="edge29" class="edge"><title>Node19&#45;&gt;Node20</title>
<path fill="none" stroke="midnightblue" d="M269,-392.083C269,-385.006 269,-374.861 269,-365.986"/>
<polygon fill="midnightblue" stroke="midnightblue" points="272.5,-365.751 269,-355.751 265.5,-365.751 272.5,-365.751"/>
</g>
<!-- Node20&#45;&gt;Node11 -->
<g id="edge33" class="edge"><title>Node20&#45;&gt;Node11</title>
<path fill="none" stroke="midnightblue" d="M259.039,-336.324C249.873,-328.341 236.063,-316.313 224.972,-306.653"/>
<polygon fill="midnightblue" stroke="midnightblue" points="226.982,-303.762 217.143,-299.834 222.385,-309.041 226.982,-303.762"/>
</g>
<!-- Node20&#45;&gt;Node12 -->
<g id="edge32" class="edge"><title>Node20&#45;&gt;Node12</title>
<path fill="none" stroke="midnightblue" d="M273.789,-336.083C277.758,-328.691 283.525,-317.953 288.435,-308.811"/>
<polygon fill="midnightblue" stroke="midnightblue" points="291.653,-310.217 293.3,-299.751 285.486,-306.905 291.653,-310.217"/>
</g>
<!-- Node21 -->
<g id="node21" class="node"><title>Node21</title>
<g id="a_node21"><a xlink:href="ctexceptions_8h.html" target="_top" xlink:title="Definitions for the classes that are thrown when Cantera experiences an error condition (also contain...">
<polygon fill="white" stroke="red" points="486,-112.5 486,-131.5 564,-131.5 564,-112.5 486,-112.5"/>
<text text-anchor="middle" x="525" y="-119.5" font-family="FreeSans" font-size="10.00">ctexceptions.h</text>
</a>
</g>
</g>
<!-- Node20&#45;&gt;Node21 -->
<g id="edge30" class="edge"><title>Node20&#45;&gt;Node21</title>
<path fill="none" stroke="midnightblue" d="M291.97,-336.443C339.64,-317.466 449.564,-267.174 506,-188 515.703,-174.387 520.489,-155.844 522.827,-142.047"/>
<polygon fill="midnightblue" stroke="midnightblue" points="526.343,-142.176 524.268,-131.786 519.411,-141.202 526.343,-142.176"/>
</g>
<!-- Node21&#45;&gt;Node9 -->
<g id="edge31" class="edge"><title>Node21&#45;&gt;Node9</title>
<path fill="none" stroke="midnightblue" d="M524.137,-112.368C522.362,-94.617 518.267,-53.6664 515.86,-29.5974"/>
<polygon fill="midnightblue" stroke="midnightblue" points="519.337,-29.1935 514.859,-19.5914 512.372,-29.8901 519.337,-29.1935"/>
</g>
</g>
</svg>
