<?xml version="1.0" encoding="UTF-8" standalone="no"?>
<!DOCTYPE svg PUBLIC "-//W3C//DTD SVG 1.1//EN"
 "http://www.w3.org/Graphics/SVG/1.1/DTD/svg11.dtd">
<!-- Generated by graphviz version 2.36.0 (20140111.2315)
 -->
<!-- Title: Integrator.h Pages: 1 -->
<svg width="1226pt" height="196pt"
 viewBox="0.00 0.00 1226.00 196.00" xmlns="http://www.w3.org/2000/svg" xmlns:xlink="http://www.w3.org/1999/xlink">
<g id="graph0" class="graph" transform="scale(1 1) rotate(0) translate(4 192)">
<title>Integrator.h</title>
<polygon fill="white" stroke="none" points="-4,4 -4,-192 1222,-192 1222,4 -4,4"/>
<!-- Node1 -->
<g id="node1" class="node"><title>Node1</title>
<polygon fill="#bfbfbf" stroke="black" points="476.497,-168.5 476.497,-187.5 541.497,-187.5 541.497,-168.5 476.497,-168.5"/>
<text text-anchor="middle" x="508.997" y="-175.5" font-family="FreeSans" font-size="10.00">Integrator.h</text>
</g>
<!-- Node2 -->
<g id="node2" class="node"><title>Node2</title>
<g id="a_node2"><a xlink:href="ImplicitSurfChem_8cpp.html" target="_top" xlink:title="Definitions for the implicit integration of surface site density equations (see Kinetics Managers and...">
<polygon fill="white" stroke="black" points="247.997,-0.5 247.997,-19.5 357.997,-19.5 357.997,-0.5 247.997,-0.5"/>
<text text-anchor="middle" x="302.997" y="-7.5" font-family="FreeSans" font-size="10.00">ImplicitSurfChem.cpp</text>
</a>
</g>
</g>
<!-- Node1&#45;&gt;Node2 -->
<g id="edge1" class="edge"><title>Node1&#45;&gt;Node2</title>
<path fill="none" stroke="midnightblue" d="M466.187,-174.625C375.227,-169.203 165.516,-154.613 97.9973,-132 51.8851,-116.557 28.0234,-118.28 3.99734,-76 -0.394323,-68.2718 -1.80151,-62.7369 3.99734,-56 34.8185,-20.1931 170.118,-12.4923 247.736,-11.0758"/>
<polygon fill="midnightblue" stroke="midnightblue" points="466.229,-178.133 476.417,-175.226 466.639,-171.145 466.229,-178.133"/>
</g>
<!-- Node3 -->
<g id="node3" class="node"><title>Node3</title>
<g id="a_node3"><a xlink:href="CVodeInt_8h.html" target="_top" xlink:title="CVodeInt.h">
<polygon fill="white" stroke="black" points="106.997,-112.5 106.997,-131.5 170.997,-131.5 170.997,-112.5 106.997,-112.5"/>
<text text-anchor="middle" x="138.997" y="-119.5" font-family="FreeSans" font-size="10.00">CVodeInt.h</text>
</a>
</g>
</g>
<!-- Node1&#45;&gt;Node3 -->
<g id="edge2" class="edge"><title>Node1&#45;&gt;Node3</title>
<path fill="none" stroke="midnightblue" d="M466.458,-170.792C391.553,-159.86 237.748,-137.412 171.039,-127.676"/>
<polygon fill="midnightblue" stroke="midnightblue" points="466.086,-174.274 476.487,-172.255 467.097,-167.348 466.086,-174.274"/>
</g>
<!-- Node5 -->
<g id="node5" class="node"><title>Node5</title>
<g id="a_node5"><a xlink:href="ODE__integrators_8cpp.html" target="_top" xlink:title="ODE_integrators.cpp">
<polygon fill="white" stroke="black" points="433.497,-56.5 433.497,-75.5 538.497,-75.5 538.497,-56.5 433.497,-56.5"/>
<text text-anchor="middle" x="485.997" y="-63.5" font-family="FreeSans" font-size="10.00">ODE_integrators.cpp</text>
</a>
</g>
</g>
<!-- Node1&#45;&gt;Node5 -->
<g id="edge4" class="edge"><title>Node1&#45;&gt;Node5</title>
<path fill="none" stroke="midnightblue" d="M488.292,-161.951C479.326,-154.144 469.797,-143.775 464.997,-132 456.939,-112.233 470.595,-88.1283 479.413,-75.5584"/>
<polygon fill="midnightblue" stroke="midnightblue" points="486.242,-164.795 496.216,-168.369 490.648,-159.355 486.242,-164.795"/>
</g>
<!-- Node6 -->
<g id="node6" class="node"><title>Node6</title>
<g id="a_node6"><a xlink:href="ReactorNet_8cpp.html" target="_top" xlink:title="ReactorNet.cpp">
<polygon fill="white" stroke="black" points="776.497,-56.5 776.497,-75.5 859.497,-75.5 859.497,-56.5 776.497,-56.5"/>
<text text-anchor="middle" x="817.997" y="-63.5" font-family="FreeSans" font-size="10.00">ReactorNet.cpp</text>
</a>
</g>
</g>
<!-- Node1&#45;&gt;Node6 -->
<g id="edge5" class="edge"><title>Node1&#45;&gt;Node6</title>
<path fill="none" stroke="midnightblue" d="M551.993,-177.08C603.461,-175.457 690.855,-167.133 755.997,-132 781.528,-118.231 802.689,-90.1569 812.352,-75.8335"/>
<polygon fill="midnightblue" stroke="midnightblue" points="551.798,-173.583 541.886,-177.326 551.969,-180.581 551.798,-173.583"/>
</g>
<!-- Node7 -->
<g id="node7" class="node"><title>Node7</title>
<g id="a_node7"><a xlink:href="integrators_8h.html" target="_top" xlink:title="ODE integrators. ">
<polygon fill="white" stroke="black" points="474.497,-112.5 474.497,-131.5 543.497,-131.5 543.497,-112.5 474.497,-112.5"/>
<text text-anchor="middle" x="508.997" y="-119.5" font-family="FreeSans" font-size="10.00">integrators.h</text>
</a>
</g>
</g>
<!-- Node1&#45;&gt;Node7 -->
<g id="edge6" class="edge"><title>Node1&#45;&gt;Node7</title>
<path fill="none" stroke="midnightblue" d="M508.997,-157.805C508.997,-148.91 508.997,-138.78 508.997,-131.751"/>
<polygon fill="midnightblue" stroke="midnightblue" points="505.497,-158.083 508.997,-168.083 512.497,-158.083 505.497,-158.083"/>
</g>
<!-- Node8 -->
<g id="node8" class="node"><title>Node8</title>
<g id="a_node8"><a xlink:href="ImplicitSurfChem_8h.html" target="_top" xlink:title="Declarations for the implicit integration of surface site density equations (see Kinetics Managers an...">
<polygon fill="white" stroke="black" points="298.497,-112.5 298.497,-131.5 397.497,-131.5 397.497,-112.5 298.497,-112.5"/>
<text text-anchor="middle" x="347.997" y="-119.5" font-family="FreeSans" font-size="10.00">ImplicitSurfChem.h</text>
</a>
</g>
</g>
<!-- Node1&#45;&gt;Node8 -->
<g id="edge7" class="edge"><title>Node1&#45;&gt;Node8</title>
<path fill="none" stroke="midnightblue" d="M473.732,-165.172C443.416,-155.004 400.427,-140.585 373.389,-131.516"/>
<polygon fill="midnightblue" stroke="midnightblue" points="472.892,-168.582 483.486,-168.444 475.118,-161.945 472.892,-168.582"/>
</g>
<!-- Node13 -->
<g id="node13" class="node"><title>Node13</title>
<g id="a_node13"><a xlink:href="BEulerInt_8h.html" target="_top" xlink:title="BEulerInt.h">
<polygon fill="white" stroke="black" points="682.997,-112.5 682.997,-131.5 746.997,-131.5 746.997,-112.5 682.997,-112.5"/>
<text text-anchor="middle" x="714.997" y="-119.5" font-family="FreeSans" font-size="10.00">BEulerInt.h</text>
</a>
</g>
</g>
<!-- Node1&#45;&gt;Node13 -->
<g id="edge15" class="edge"><title>Node1&#45;&gt;Node13</title>
<path fill="none" stroke="midnightblue" d="M551.643,-165.821C590.662,-155.593 647.534,-140.685 682.848,-131.428"/>
<polygon fill="midnightblue" stroke="midnightblue" points="550.424,-162.522 541.639,-168.444 552.199,-169.293 550.424,-162.522"/>
</g>
<!-- Node15 -->
<g id="node15" class="node"><title>Node15</title>
<g id="a_node15"><a xlink:href="CVodesIntegrator_8h.html" target="_top" xlink:title="CVodesIntegrator.h">
<polygon fill="white" stroke="black" points="561.997,-112.5 561.997,-131.5 659.997,-131.5 659.997,-112.5 561.997,-112.5"/>
<text text-anchor="middle" x="610.997" y="-119.5" font-family="FreeSans" font-size="10.00">CVodesIntegrator.h</text>
</a>
</g>
</g>
<!-- Node1&#45;&gt;Node15 -->
<g id="edge17" class="edge"><title>Node1&#45;&gt;Node15</title>
<path fill="none" stroke="midnightblue" d="M534.328,-163.59C553.188,-153.605 578.382,-140.267 594.65,-131.655"/>
<polygon fill="midnightblue" stroke="midnightblue" points="532.586,-160.552 525.385,-168.324 535.861,-166.738 532.586,-160.552"/>
</g>
<!-- Node17 -->
<g id="node17" class="node"><title>Node17</title>
<g id="a_node17"><a xlink:href="ReactorNet_8h.html" target="_top" xlink:title="ReactorNet.h">
<polygon fill="white" stroke="black" points="904.497,-112.5 904.497,-131.5 977.497,-131.5 977.497,-112.5 904.497,-112.5"/>
<text text-anchor="middle" x="940.997" y="-119.5" font-family="FreeSans" font-size="10.00">ReactorNet.h</text>
</a>
</g>
</g>
<!-- Node1&#45;&gt;Node17 -->
<g id="edge20" class="edge"><title>Node1&#45;&gt;Node17</title>
<path fill="none" stroke="midnightblue" d="M551.887,-171.639C636.748,-161.031 824.732,-137.533 904.291,-127.588"/>
<polygon fill="midnightblue" stroke="midnightblue" points="551.311,-168.183 541.822,-172.897 552.179,-175.129 551.311,-168.183"/>
</g>
<!-- Node4 -->
<g id="node4" class="node"><title>Node4</title>
<g id="a_node4"><a xlink:href="CVodeInt_8cpp.html" target="_top" xlink:title="CVodeInt.cpp">
<polygon fill="white" stroke="black" points="12.9973,-56.5 12.9973,-75.5 86.9973,-75.5 86.9973,-56.5 12.9973,-56.5"/>
<text text-anchor="middle" x="49.9973" y="-63.5" font-family="FreeSans" font-size="10.00">CVodeInt.cpp</text>
</a>
</g>
</g>
<!-- Node3&#45;&gt;Node4 -->
<g id="edge3" class="edge"><title>Node3&#45;&gt;Node4</title>
<path fill="none" stroke="midnightblue" d="M115.759,-106.901C99.4395,-96.9986 78.1321,-84.0705 64.2612,-75.6545"/>
<polygon fill="midnightblue" stroke="midnightblue" points="114.333,-110.129 124.698,-112.324 117.964,-104.144 114.333,-110.129"/>
</g>
<!-- Node8&#45;&gt;Node2 -->
<g id="edge8" class="edge"><title>Node8&#45;&gt;Node2</title>
<path fill="none" stroke="midnightblue" d="M340.633,-102.998C330.814,-78.9968 313.825,-37.4683 306.512,-19.5914"/>
<polygon fill="midnightblue" stroke="midnightblue" points="337.44,-104.438 344.466,-112.368 343.919,-101.788 337.44,-104.438"/>
</g>
<!-- Node9 -->
<g id="node9" class="node"><title>Node9</title>
<g id="a_node9"><a xlink:href="InterfaceKinetics_8cpp.html" target="_top" xlink:title="InterfaceKinetics.cpp">
<polygon fill="white" stroke="black" points="105.497,-56.5 105.497,-75.5 212.497,-75.5 212.497,-56.5 105.497,-56.5"/>
<text text-anchor="middle" x="158.997" y="-63.5" font-family="FreeSans" font-size="10.00">InterfaceKinetics.cpp</text>
</a>
</g>
</g>
<!-- Node8&#45;&gt;Node9 -->
<g id="edge9" class="edge"><title>Node8&#45;&gt;Node9</title>
<path fill="none" stroke="midnightblue" d="M307.984,-109.568C272.331,-99.381 220.959,-84.7034 188.805,-75.5164"/>
<polygon fill="midnightblue" stroke="midnightblue" points="307.473,-113.062 318.05,-112.444 309.396,-106.331 307.473,-113.062"/>
</g>
<!-- Node10 -->
<g id="node10" class="node"><title>Node10</title>
<g id="a_node10"><a xlink:href="Kinetics_8cpp.html" target="_top" xlink:title="Declarations for the base class for kinetics managers (see Kinetics Managers and class Kinetics)...">
<polygon fill="white" stroke="black" points="230.497,-56.5 230.497,-75.5 299.497,-75.5 299.497,-56.5 230.497,-56.5"/>
<text text-anchor="middle" x="264.997" y="-63.5" font-family="FreeSans" font-size="10.00">Kinetics.cpp</text>
</a>
</g>
</g>
<!-- Node8&#45;&gt;Node10 -->
<g id="edge10" class="edge"><title>Node8&#45;&gt;Node10</title>
<path fill="none" stroke="midnightblue" d="M325.898,-106.622C310.736,-96.7574 291.115,-83.9919 278.3,-75.6545"/>
<polygon fill="midnightblue" stroke="midnightblue" points="324.371,-109.804 334.662,-112.324 328.189,-103.937 324.371,-109.804"/>
</g>
<!-- Node11 -->
<g id="node11" class="node"><title>Node11</title>
<g id="a_node11"><a xlink:href="solveSP_8h.html" target="_top" xlink:title="Header file for implicit surface problem solver (see Chemical Kinetics and class solveSP). ">
<polygon fill="white" stroke="black" points="356.497,-56.5 356.497,-75.5 415.497,-75.5 415.497,-56.5 356.497,-56.5"/>
<text text-anchor="middle" x="385.997" y="-63.5" font-family="FreeSans" font-size="10.00">solveSP.h</text>
</a>
</g>
</g>
<!-- Node8&#45;&gt;Node11 -->
<g id="edge11" class="edge"><title>Node8&#45;&gt;Node11</title>
<path fill="none" stroke="midnightblue" d="M354.088,-103.275C359.824,-94.0454 367.894,-83.1703 374.708,-75.7511"/>
<polygon fill="midnightblue" stroke="midnightblue" points="350.983,-101.656 349.106,-112.083 357.076,-105.102 350.983,-101.656"/>
</g>
<!-- Node11&#45;&gt;Node2 -->
<g id="edge12" class="edge"><title>Node11&#45;&gt;Node2</title>
<path fill="none" stroke="midnightblue" d="M363.898,-50.6221C348.736,-40.7574 329.115,-27.9919 316.3,-19.6545"/>
<polygon fill="midnightblue" stroke="midnightblue" points="362.371,-53.8042 372.662,-56.324 366.189,-47.9367 362.371,-53.8042"/>
</g>
<!-- Node11&#45;&gt;Node8 -->
<g id="edge14" class="edge"><title>Node11&#45;&gt;Node8</title>
<path fill="none" stroke="midnightblue" d="M380.034,-84.5199C374.333,-93.7244 366.271,-104.613 359.439,-112.083"/>
<polygon fill="midnightblue" stroke="midnightblue" points="383.115,-86.1822 384.97,-75.7511 377.015,-82.7485 383.115,-86.1822"/>
</g>
<!-- Node12 -->
<g id="node12" class="node"><title>Node12</title>
<g id="a_node12"><a xlink:href="solveSP_8cpp_source.html" target="_top" xlink:title="solveSP.cpp">
<polygon fill="white" stroke="black" points="375.997,-0.5 375.997,-19.5 445.997,-19.5 445.997,-0.5 375.997,-0.5"/>
<text text-anchor="middle" x="410.997" y="-7.5" font-family="FreeSans" font-size="10.00">solveSP.cpp</text>
</a>
</g>
</g>
<!-- Node11&#45;&gt;Node12 -->
<g id="edge13" class="edge"><title>Node11&#45;&gt;Node12</title>
<path fill="none" stroke="midnightblue" d="M394.339,-46.9827C398.582,-37.8168 403.547,-27.0922 406.946,-19.7511"/>
<polygon fill="midnightblue" stroke="midnightblue" points="391.151,-45.5379 390.126,-56.083 397.503,-48.4788 391.151,-45.5379"/>
</g>
<!-- Node14 -->
<g id="node14" class="node"><title>Node14</title>
<g id="a_node14"><a xlink:href="BEulerInt_8cpp.html" target="_top" xlink:title="BEulerInt.cpp">
<polygon fill="white" stroke="black" points="683.997,-56.5 683.997,-75.5 757.997,-75.5 757.997,-56.5 683.997,-56.5"/>
<text text-anchor="middle" x="720.997" y="-63.5" font-family="FreeSans" font-size="10.00">BEulerInt.cpp</text>
</a>
</g>
</g>
<!-- Node13&#45;&gt;Node14 -->
<g id="edge16" class="edge"><title>Node13&#45;&gt;Node14</title>
<path fill="none" stroke="midnightblue" d="M717.097,-102.101C718.093,-93.1357 719.235,-82.8579 720.025,-75.7511"/>
<polygon fill="midnightblue" stroke="midnightblue" points="713.614,-101.758 715.988,-112.083 720.571,-102.531 713.614,-101.758"/>
</g>
<!-- Node15&#45;&gt;Node5 -->
<g id="edge19" class="edge"><title>Node15&#45;&gt;Node5</title>
<path fill="none" stroke="midnightblue" d="M581.756,-108.368C558.347,-98.2553 526.156,-84.3486 505.711,-75.5164"/>
<polygon fill="midnightblue" stroke="midnightblue" points="580.623,-111.691 591.191,-112.444 583.399,-105.265 580.623,-111.691"/>
</g>
<!-- Node16 -->
<g id="node16" class="node"><title>Node16</title>
<g id="a_node16"><a xlink:href="CVodesIntegrator_8cpp.html" target="_top" xlink:title="CVodesIntegrator.cpp">
<polygon fill="white" stroke="black" points="556.497,-56.5 556.497,-75.5 665.497,-75.5 665.497,-56.5 556.497,-56.5"/>
<text text-anchor="middle" x="610.997" y="-63.5" font-family="FreeSans" font-size="10.00">CVodesIntegrator.cpp</text>
</a>
</g>
</g>
<!-- Node15&#45;&gt;Node16 -->
<g id="edge18" class="edge"><title>Node15&#45;&gt;Node16</title>
<path fill="none" stroke="midnightblue" d="M610.997,-101.805C610.997,-92.9102 610.997,-82.7798 610.997,-75.7511"/>
<polygon fill="midnightblue" stroke="midnightblue" points="607.497,-102.083 610.997,-112.083 614.497,-102.083 607.497,-102.083"/>
</g>
<!-- Node17&#45;&gt;Node6 -->
<g id="edge23" class="edge"><title>Node17&#45;&gt;Node6</title>
<path fill="none" stroke="midnightblue" d="M912.224,-108.368C889.19,-98.2553 857.514,-84.3486 837.396,-75.5164"/>
<polygon fill="midnightblue" stroke="midnightblue" points="910.944,-111.628 921.508,-112.444 913.758,-105.219 910.944,-111.628"/>
</g>
<!-- Node18 -->
<g id="node18" class="node"><title>Node18</title>
<g id="a_node18"><a xlink:href="IdealGasReactor_8cpp.html" target="_top" xlink:title="A zero&#45;dimensional reactor. ">
<polygon fill="white" stroke="black" points="1024.5,-56.5 1024.5,-75.5 1131.5,-75.5 1131.5,-56.5 1024.5,-56.5"/>
<text text-anchor="middle" x="1078" y="-63.5" font-family="FreeSans" font-size="10.00">IdealGasReactor.cpp</text>
</a>
</g>
</g>
<!-- Node17&#45;&gt;Node18 -->
<g id="edge21" class="edge"><title>Node17&#45;&gt;Node18</title>
<path fill="none" stroke="midnightblue" d="M972.02,-108.772C997.754,-98.6287 1033.68,-84.4669 1056.39,-75.5164"/>
<polygon fill="midnightblue" stroke="midnightblue" points="970.725,-105.52 962.705,-112.444 973.292,-112.033 970.725,-105.52"/>
</g>
<!-- Node19 -->
<g id="node19" class="node"><title>Node19</title>
<g id="a_node19"><a xlink:href="Reactor_8cpp.html" target="_top" xlink:title="A zero&#45;dimensional reactor. ">
<polygon fill="white" stroke="black" points="1150,-56.5 1150,-75.5 1218,-75.5 1218,-56.5 1150,-56.5"/>
<text text-anchor="middle" x="1184" y="-63.5" font-family="FreeSans" font-size="10.00">Reactor.cpp</text>
</a>
</g>
</g>
<!-- Node17&#45;&gt;Node19 -->
<g id="edge22" class="edge"><title>Node17&#45;&gt;Node19</title>
<path fill="none" stroke="midnightblue" d="M987.657,-110.631C1035.09,-100.09 1107.45,-84.0099 1149.81,-74.5974"/>
<polygon fill="midnightblue" stroke="midnightblue" points="986.643,-107.271 977.64,-112.857 988.161,-114.104 986.643,-107.271"/>
</g>
<!-- Node20 -->
<g id="node20" class="node"><title>Node20</title>
<g id="a_node20"><a xlink:href="Wall_8cpp.html" target="_top" xlink:title="Wall.cpp">
<polygon fill="white" stroke="black" points="877.497,-56.5 877.497,-75.5 930.497,-75.5 930.497,-56.5 877.497,-56.5"/>
<text text-anchor="middle" x="903.997" y="-63.5" font-family="FreeSans" font-size="10.00">Wall.cpp</text>
</a>
</g>
</g>
<!-- Node17&#45;&gt;Node20 -->
<g id="edge24" class="edge"><title>Node17&#45;&gt;Node20</title>
<path fill="none" stroke="midnightblue" d="M929.052,-103.566C922.686,-94.2747 915.131,-83.2484 909.993,-75.7511"/>
<polygon fill="midnightblue" stroke="midnightblue" points="926.348,-105.812 934.888,-112.083 932.122,-101.855 926.348,-105.812"/>
</g>
<!-- Node21 -->
<g id="node21" class="node"><title>Node21</title>
<g id="a_node21"><a xlink:href="zerodim_8h_source.html" target="_top" xlink:title="zerodim.h">
<polygon fill="white" stroke="black" points="948.997,-56.5 948.997,-75.5 1007,-75.5 1007,-56.5 948.997,-56.5"/>
<text text-anchor="middle" x="977.997" y="-63.5" font-family="FreeSans" font-size="10.00">zerodim.h</text>
</a>
</g>
</g>
<!-- Node17&#45;&gt;Node21 -->
<g id="edge25" class="edge"><title>Node17&#45;&gt;Node21</title>
<path fill="none" stroke="midnightblue" d="M952.943,-103.566C959.309,-94.2747 966.864,-83.2484 972.001,-75.7511"/>
<polygon fill="midnightblue" stroke="midnightblue" points="949.872,-101.855 947.107,-112.083 955.647,-105.812 949.872,-101.855"/>
</g>
</g>
</svg>
