<?xml version="1.0" encoding="UTF-8" standalone="no"?>
<!DOCTYPE svg PUBLIC "-//W3C//DTD SVG 1.1//EN"
 "http://www.w3.org/Graphics/SVG/1.1/DTD/svg11.dtd">
<!-- Generated by graphviz version 2.36.0 (20140111.2315)
 -->
<!-- Title: LineBroadener.h Pages: 1 -->
<svg width="258pt" height="84pt"
 viewBox="0.00 0.00 258.00 84.00" xmlns="http://www.w3.org/2000/svg" xmlns:xlink="http://www.w3.org/1999/xlink">
<g id="graph0" class="graph" transform="scale(1 1) rotate(0) translate(4 80)">
<title>LineBroadener.h</title>
<polygon fill="white" stroke="none" points="-4,4 -4,-80 254,-80 254,4 -4,4"/>
<!-- Node1 -->
<g id="node1" class="node"><title>Node1</title>
<polygon fill="#bfbfbf" stroke="black" points="102,-56.5 102,-75.5 188,-75.5 188,-56.5 102,-56.5"/>
<text text-anchor="middle" x="145" y="-63.5" font-family="FreeSans" font-size="10.00">LineBroadener.h</text>
</g>
<!-- Node2 -->
<g id="node2" class="node"><title>Node2</title>
<g id="a_node2"><a xlink:href="LineBroadener_8cpp_source.html" target="_top" xlink:title="LineBroadener.cpp">
<polygon fill="white" stroke="black" points="-0.5,-0.5 -0.5,-19.5 96.5,-19.5 96.5,-0.5 -0.5,-0.5"/>
<text text-anchor="middle" x="48" y="-7.5" font-family="FreeSans" font-size="10.00">LineBroadener.cpp</text>
</a>
</g>
</g>
<!-- Node1&#45;&gt;Node2 -->
<g id="edge1" class="edge"><title>Node1&#45;&gt;Node2</title>
<path fill="none" stroke="midnightblue" d="M120.665,-51.4526C102.757,-41.4835 78.9463,-28.2279 63.5461,-19.6545"/>
<polygon fill="midnightblue" stroke="midnightblue" points="118.975,-54.5179 129.415,-56.324 122.38,-48.4018 118.975,-54.5179"/>
</g>
<!-- Node3 -->
<g id="node3" class="node"><title>Node3</title>
<g id="a_node3"><a xlink:href="radiation_8h_source.html" target="_top" xlink:title="radiation.h">
<polygon fill="white" stroke="black" points="114.5,-0.5 114.5,-19.5 175.5,-19.5 175.5,-0.5 114.5,-0.5"/>
<text text-anchor="middle" x="145" y="-7.5" font-family="FreeSans" font-size="10.00">radiation.h</text>
</a>
</g>
</g>
<!-- Node1&#45;&gt;Node3 -->
<g id="edge2" class="edge"><title>Node1&#45;&gt;Node3</title>
<path fill="none" stroke="midnightblue" d="M145,-45.8045C145,-36.9102 145,-26.7798 145,-19.7511"/>
<polygon fill="midnightblue" stroke="midnightblue" points="141.5,-46.083 145,-56.083 148.5,-46.083 141.5,-46.083"/>
</g>
<!-- Node4 -->
<g id="node4" class="node"><title>Node4</title>
<g id="a_node4"><a xlink:href="spectra_8h_source.html" target="_top" xlink:title="spectra.h">
<polygon fill="white" stroke="black" points="194,-0.5 194,-19.5 250,-19.5 250,-0.5 194,-0.5"/>
<text text-anchor="middle" x="222" y="-7.5" font-family="FreeSans" font-size="10.00">spectra.h</text>
</a>
</g>
</g>
<!-- Node1&#45;&gt;Node4 -->
<g id="edge3" class="edge"><title>Node1&#45;&gt;Node4</title>
<path fill="none" stroke="midnightblue" d="M165.901,-50.3422C179.911,-40.5169 197.883,-27.9132 209.659,-19.6545"/>
<polygon fill="midnightblue" stroke="midnightblue" points="163.549,-47.7166 157.371,-56.324 167.568,-53.4477 163.549,-47.7166"/>
</g>
</g>
</svg>
