<?xml version="1.0" encoding="UTF-8" standalone="no"?>
<!DOCTYPE svg PUBLIC "-//W3C//DTD SVG 1.1//EN"
 "http://www.w3.org/Graphics/SVG/1.1/DTD/svg11.dtd">
<!-- Generated by graphviz version 2.36.0 (20140111.2315)
 -->
<!-- Title: LiquidTransportParams.cpp Pages: 1 -->
<svg width="727pt" height="544pt"
 viewBox="0.00 0.00 727.00 544.00" xmlns="http://www.w3.org/2000/svg" xmlns:xlink="http://www.w3.org/1999/xlink">
<g id="graph0" class="graph" transform="scale(1 1) rotate(0) translate(4 540)">
<title>LiquidTransportParams.cpp</title>
<polygon fill="white" stroke="none" points="-4,4 -4,-540 723,-540 723,4 -4,4"/>
<!-- Node1 -->
<g id="node1" class="node"><title>Node1</title>
<polygon fill="#bfbfbf" stroke="black" points="199,-516.5 199,-535.5 333,-535.5 333,-516.5 199,-516.5"/>
<text text-anchor="middle" x="266" y="-523.5" font-family="FreeSans" font-size="10.00">LiquidTransportParams.cpp</text>
</g>
<!-- Node2 -->
<g id="node2" class="node"><title>Node2</title>
<g id="a_node2"><a xlink:href="LiquidTransportParams_8h.html" target="_top" xlink:title="Header file defining class LiquidTransportParams. ">
<polygon fill="white" stroke="black" points="362,-449 362,-479 480,-479 480,-449 362,-449"/>
<text text-anchor="start" x="370" y="-467" font-family="FreeSans" font-size="10.00">cantera/transport/Liquid</text>
<text text-anchor="middle" x="421" y="-456" font-family="FreeSans" font-size="10.00">TransportParams.h</text>
</a>
</g>
</g>
<!-- Node1&#45;&gt;Node2 -->
<g id="edge1" class="edge"><title>Node1&#45;&gt;Node2</title>
<path fill="none" stroke="midnightblue" d="M288.208,-516.403C310.845,-507.641 346.615,-493.794 375.33,-482.679"/>
<polygon fill="midnightblue" stroke="midnightblue" points="376.706,-485.899 384.768,-479.025 374.179,-479.371 376.706,-485.899"/>
</g>
<!-- Node19 -->
<g id="node19" class="node"><title>Node19</title>
<g id="a_node19"><a xlink:href="IonsFromNeutralVPSSTP_8h.html" target="_top" xlink:title="Header for intermediate ThermoPhase object for phases which consist of ions whose thermodynamics is c...">
<polygon fill="white" stroke="black" points="188,-449 188,-479 344,-479 344,-449 188,-449"/>
<text text-anchor="start" x="196" y="-467" font-family="FreeSans" font-size="10.00">cantera/thermo/IonsFromNeutral</text>
<text text-anchor="middle" x="266" y="-456" font-family="FreeSans" font-size="10.00">VPSSTP.h</text>
</a>
</g>
</g>
<!-- Node1&#45;&gt;Node19 -->
<g id="edge33" class="edge"><title>Node1&#45;&gt;Node19</title>
<path fill="none" stroke="midnightblue" d="M266,-516.403C266,-509.341 266,-498.975 266,-489.399"/>
<polygon fill="midnightblue" stroke="midnightblue" points="269.5,-489.141 266,-479.141 262.5,-489.141 269.5,-489.141"/>
</g>
<!-- Node23 -->
<g id="node23" class="node"><title>Node23</title>
<g id="a_node23"><a xlink:href="MargulesVPSSTP_8h.html" target="_top" xlink:title="Header for intermediate ThermoPhase object for phases which employ gibbs excess free energy based for...">
<polygon fill="white" stroke="black" points="0,-454.5 0,-473.5 170,-473.5 170,-454.5 0,-454.5"/>
<text text-anchor="middle" x="85" y="-461.5" font-family="FreeSans" font-size="10.00">cantera/thermo/MargulesVPSSTP.h</text>
</a>
</g>
</g>
<!-- Node1&#45;&gt;Node23 -->
<g id="edge39" class="edge"><title>Node1&#45;&gt;Node23</title>
<path fill="none" stroke="midnightblue" d="M240.067,-516.403C208.75,-506.022 155.91,-488.506 120.744,-476.849"/>
<polygon fill="midnightblue" stroke="midnightblue" points="121.478,-473.405 110.885,-473.581 119.276,-480.049 121.478,-473.405"/>
</g>
<!-- Node3 -->
<g id="node3" class="node"><title>Node3</title>
<g id="a_node3"><a xlink:href="TransportBase_8h.html" target="_top" xlink:title="Headers for the Transport object, which is the virtual base class for all transport property evaluato...">
<polygon fill="white" stroke="black" points="350,-224.5 350,-243.5 436,-243.5 436,-224.5 350,-224.5"/>
<text text-anchor="middle" x="393" y="-231.5" font-family="FreeSans" font-size="10.00">TransportBase.h</text>
</a>
</g>
</g>
<!-- Node2&#45;&gt;Node3 -->
<g id="edge2" class="edge"><title>Node2&#45;&gt;Node3</title>
<path fill="none" stroke="midnightblue" d="M410.593,-448.681C396.975,-428.971 373.81,-391.834 365,-356 355.986,-319.339 372.4,-276.225 383.676,-252.634"/>
<polygon fill="midnightblue" stroke="midnightblue" points="386.889,-254.035 388.245,-243.528 380.632,-250.896 386.889,-254.035"/>
</g>
<!-- Node12 -->
<g id="node12" class="node"><title>Node12</title>
<g id="a_node12"><a xlink:href="TransportParams_8h.html" target="_top" xlink:title="Class that holds the data that is read in from the xml file, and which is used for processing of the ...">
<polygon fill="white" stroke="black" points="508,-280.5 508,-299.5 606,-299.5 606,-280.5 508,-280.5"/>
<text text-anchor="middle" x="557" y="-287.5" font-family="FreeSans" font-size="10.00">TransportParams.h</text>
</a>
</g>
</g>
<!-- Node2&#45;&gt;Node12 -->
<g id="edge13" class="edge"><title>Node2&#45;&gt;Node12</title>
<path fill="none" stroke="midnightblue" d="M480.282,-449.525C501.193,-441.877 522.969,-430.072 537,-412 560.1,-382.248 560.825,-335.834 559.067,-309.993"/>
<polygon fill="midnightblue" stroke="midnightblue" points="562.525,-309.355 558.157,-299.702 555.552,-309.972 562.525,-309.355"/>
</g>
<!-- Node13 -->
<g id="node13" class="node"><title>Node13</title>
<g id="a_node13"><a xlink:href="LiquidTransportData_8h.html" target="_top" xlink:title="Header file defining class LiquidTransportData. ">
<polygon fill="white" stroke="black" points="208,-336.5 208,-355.5 318,-355.5 318,-336.5 208,-336.5"/>
<text text-anchor="middle" x="263" y="-343.5" font-family="FreeSans" font-size="10.00">LiquidTransportData.h</text>
</a>
</g>
</g>
<!-- Node2&#45;&gt;Node13 -->
<g id="edge16" class="edge"><title>Node2&#45;&gt;Node13</title>
<path fill="none" stroke="midnightblue" d="M392.688,-448.975C374.656,-439.519 351.17,-426.212 332,-412 311.886,-397.088 291.309,-376.943 277.924,-363.052"/>
<polygon fill="midnightblue" stroke="midnightblue" points="280.354,-360.527 270.932,-355.682 275.276,-365.346 280.354,-360.527"/>
</g>
<!-- Node16 -->
<g id="node16" class="node"><title>Node16</title>
<g id="a_node16"><a xlink:href="LiquidTranInteraction_8h.html" target="_top" xlink:title="Header file defining the class LiquidTranInteraction and classes which derive from LiquidTranInteract...">
<polygon fill="white" stroke="black" points="413.5,-392.5 413.5,-411.5 528.5,-411.5 528.5,-392.5 413.5,-392.5"/>
<text text-anchor="middle" x="471" y="-399.5" font-family="FreeSans" font-size="10.00">LiquidTranInteraction.h</text>
</a>
</g>
</g>
<!-- Node2&#45;&gt;Node16 -->
<g id="edge23" class="edge"><title>Node2&#45;&gt;Node16</title>
<path fill="none" stroke="midnightblue" d="M432.849,-448.781C440.19,-439.972 449.645,-428.626 457.306,-419.433"/>
<polygon fill="midnightblue" stroke="midnightblue" points="460.011,-421.653 463.725,-411.731 454.634,-417.172 460.011,-421.653"/>
</g>
<!-- Node17 -->
<g id="node17" class="node"><title>Node17</title>
<g id="a_node17"><a xlink:href="xml_8h.html" target="_top" xlink:title="Classes providing support for XML data files. ">
<polygon fill="white" stroke="red" points="374.5,-336.5 374.5,-355.5 413.5,-355.5 413.5,-336.5 374.5,-336.5"/>
<text text-anchor="middle" x="394" y="-343.5" font-family="FreeSans" font-size="10.00">xml.h</text>
</a>
</g>
</g>
<!-- Node2&#45;&gt;Node17 -->
<g id="edge31" class="edge"><title>Node2&#45;&gt;Node17</title>
<path fill="none" stroke="midnightblue" d="M415.583,-448.899C411.867,-438.763 407.07,-424.7 404,-412 400.265,-396.55 397.635,-378.681 396.013,-365.593"/>
<polygon fill="midnightblue" stroke="midnightblue" points="399.471,-365.034 394.844,-355.503 392.518,-365.839 399.471,-365.034"/>
</g>
<!-- Node18 -->
<g id="node18" class="node"><title>Node18</title>
<g id="a_node18"><a xlink:href="XML__Writer_8h_source.html" target="_top" xlink:title="cantera/base/XML_Writer.h">
<polygon fill="white" stroke="black" points="585,-336.5 585,-355.5 719,-355.5 719,-336.5 585,-336.5"/>
<text text-anchor="middle" x="652" y="-343.5" font-family="FreeSans" font-size="10.00">cantera/base/XML_Writer.h</text>
</a>
</g>
</g>
<!-- Node2&#45;&gt;Node18 -->
<g id="edge32" class="edge"><title>Node2&#45;&gt;Node18</title>
<path fill="none" stroke="midnightblue" d="M477.09,-448.98C506.137,-440.486 541.583,-428.147 571,-412 595.539,-398.531 620.105,-377.493 635.64,-363.02"/>
<polygon fill="midnightblue" stroke="midnightblue" points="638.453,-365.174 643.284,-355.744 633.627,-360.103 638.453,-365.174"/>
</g>
<!-- Node4 -->
<g id="node4" class="node"><title>Node4</title>
<g id="a_node4"><a xlink:href="ThermoPhase_8h.html" target="_top" xlink:title="Header file for class ThermoPhase, the base class for phases with thermodynamic properties, and the text for the Module thermoprops (see Thermodynamic Properties and class ThermoPhase). ">
<polygon fill="white" stroke="black" points="295,-168.5 295,-187.5 447,-187.5 447,-168.5 295,-168.5"/>
<text text-anchor="middle" x="371" y="-175.5" font-family="FreeSans" font-size="10.00">cantera/thermo/ThermoPhase.h</text>
</a>
</g>
</g>
<!-- Node3&#45;&gt;Node4 -->
<g id="edge3" class="edge"><title>Node3&#45;&gt;Node4</title>
<path fill="none" stroke="midnightblue" d="M389.367,-224.083C386.388,-216.77 382.074,-206.181 378.375,-197.103"/>
<polygon fill="midnightblue" stroke="midnightblue" points="381.58,-195.691 374.565,-187.751 375.097,-198.333 381.58,-195.691"/>
</g>
<!-- Node9 -->
<g id="node9" class="node"><title>Node9</title>
<g id="a_node9"><a xlink:href="DenseMatrix_8h.html" target="_top" xlink:title="Headers for the DenseMatrix object, which deals with dense rectangular matrices and description of th...">
<polygon fill="white" stroke="black" points="508.5,-168.5 508.5,-187.5 663.5,-187.5 663.5,-168.5 508.5,-168.5"/>
<text text-anchor="middle" x="586" y="-175.5" font-family="FreeSans" font-size="10.00">cantera/numerics/DenseMatrix.h</text>
</a>
</g>
</g>
<!-- Node3&#45;&gt;Node9 -->
<g id="edge8" class="edge"><title>Node3&#45;&gt;Node9</title>
<path fill="none" stroke="midnightblue" d="M423.581,-224.444C456.615,-215.201 509.388,-200.436 545.766,-190.257"/>
<polygon fill="midnightblue" stroke="midnightblue" points="546.875,-193.582 555.562,-187.516 544.988,-186.84 546.875,-193.582"/>
</g>
<!-- Node5 -->
<g id="node5" class="node"><title>Node5</title>
<g id="a_node5"><a xlink:href="Phase_8h.html" target="_top" xlink:title="Header file for class Phase. ">
<polygon fill="white" stroke="red" points="290.5,-112.5 290.5,-131.5 341.5,-131.5 341.5,-112.5 290.5,-112.5"/>
<text text-anchor="middle" x="316" y="-119.5" font-family="FreeSans" font-size="10.00">Phase.h</text>
</a>
</g>
</g>
<!-- Node4&#45;&gt;Node5 -->
<g id="edge4" class="edge"><title>Node4&#45;&gt;Node5</title>
<path fill="none" stroke="midnightblue" d="M361.918,-168.083C353.829,-160.141 341.805,-148.335 332.09,-138.797"/>
<polygon fill="midnightblue" stroke="midnightblue" points="334.501,-136.26 324.913,-131.751 329.597,-141.254 334.501,-136.26"/>
</g>
<!-- Node6 -->
<g id="node6" class="node"><title>Node6</title>
<g id="a_node6"><a xlink:href="SpeciesThermo_8h.html" target="_top" xlink:title="Virtual base class for the calculation of multiple&#45;species thermodynamic reference&#45;state property man...">
<polygon fill="white" stroke="black" points="360,-112.5 360,-131.5 452,-131.5 452,-112.5 360,-112.5"/>
<text text-anchor="middle" x="406" y="-119.5" font-family="FreeSans" font-size="10.00">SpeciesThermo.h</text>
</a>
</g>
</g>
<!-- Node4&#45;&gt;Node6 -->
<g id="edge5" class="edge"><title>Node4&#45;&gt;Node6</title>
<path fill="none" stroke="midnightblue" d="M376.78,-168.083C381.672,-160.534 388.827,-149.495 394.833,-140.23"/>
<polygon fill="midnightblue" stroke="midnightblue" points="397.826,-142.046 400.328,-131.751 391.952,-138.239 397.826,-142.046"/>
</g>
<!-- Node7 -->
<g id="node7" class="node"><title>Node7</title>
<g id="a_node7"><a xlink:href="ct__defs_8h.html" target="_top" xlink:title="This file contains definitions of terms that are used in internal routines and are unlikely to need m...">
<polygon fill="white" stroke="red" points="415,-56.5 415,-75.5 471,-75.5 471,-56.5 415,-56.5"/>
<text text-anchor="middle" x="443" y="-63.5" font-family="FreeSans" font-size="10.00">ct_defs.h</text>
</a>
</g>
</g>
<!-- Node6&#45;&gt;Node7 -->
<g id="edge6" class="edge"><title>Node6&#45;&gt;Node7</title>
<path fill="none" stroke="midnightblue" d="M412.11,-112.083C417.282,-104.534 424.846,-93.4948 431.194,-84.2298"/>
<polygon fill="midnightblue" stroke="midnightblue" points="434.239,-85.9787 437.004,-75.7511 428.464,-82.0221 434.239,-85.9787"/>
</g>
<!-- Node8 -->
<g id="node8" class="node"><title>Node8</title>
<polygon fill="white" stroke="#bfbfbf" points="330.5,-0.5 330.5,-19.5 373.5,-19.5 373.5,-0.5 330.5,-0.5"/>
<text text-anchor="middle" x="352" y="-7.5" font-family="FreeSans" font-size="10.00">vector</text>
</g>
<!-- Node7&#45;&gt;Node8 -->
<g id="edge7" class="edge"><title>Node7&#45;&gt;Node8</title>
<path fill="none" stroke="midnightblue" d="M428.379,-56.324C414.051,-47.8215 391.987,-34.7288 375.251,-24.7975"/>
<polygon fill="midnightblue" stroke="midnightblue" points="376.97,-21.7478 366.584,-19.6545 373.398,-27.7677 376.97,-21.7478"/>
</g>
<!-- Node9&#45;&gt;Node7 -->
<g id="edge9" class="edge"><title>Node9&#45;&gt;Node7</title>
<path fill="none" stroke="midnightblue" d="M574.779,-168.368C550.449,-149.653 492.596,-105.151 462.282,-81.8324"/>
<polygon fill="midnightblue" stroke="midnightblue" points="464.229,-78.9144 454.169,-75.5914 459.961,-84.4628 464.229,-78.9144"/>
</g>
<!-- Node10 -->
<g id="node10" class="node"><title>Node10</title>
<g id="a_node10"><a xlink:href="Array_8h.html" target="_top" xlink:title="Header file for class Cantera::Array2D. ">
<polygon fill="white" stroke="red" points="562.5,-112.5 562.5,-131.5 609.5,-131.5 609.5,-112.5 562.5,-112.5"/>
<text text-anchor="middle" x="586" y="-119.5" font-family="FreeSans" font-size="10.00">Array.h</text>
</a>
</g>
</g>
<!-- Node9&#45;&gt;Node10 -->
<g id="edge10" class="edge"><title>Node9&#45;&gt;Node10</title>
<path fill="none" stroke="midnightblue" d="M586,-168.083C586,-161.006 586,-150.861 586,-141.986"/>
<polygon fill="midnightblue" stroke="midnightblue" points="589.5,-141.751 586,-131.751 582.5,-141.751 589.5,-141.751"/>
</g>
<!-- Node10&#45;&gt;Node7 -->
<g id="edge11" class="edge"><title>Node10&#45;&gt;Node7</title>
<path fill="none" stroke="midnightblue" d="M563.341,-112.444C539.598,-103.478 502.091,-89.314 475.262,-79.1827"/>
<polygon fill="midnightblue" stroke="midnightblue" points="476.144,-75.7749 465.553,-75.5164 473.671,-82.3235 476.144,-75.7749"/>
</g>
<!-- Node11 -->
<g id="node11" class="node"><title>Node11</title>
<polygon fill="white" stroke="#bfbfbf" points="612.5,-56.5 612.5,-75.5 665.5,-75.5 665.5,-56.5 612.5,-56.5"/>
<text text-anchor="middle" x="639" y="-63.5" font-family="FreeSans" font-size="10.00">iostream</text>
</g>
<!-- Node10&#45;&gt;Node11 -->
<g id="edge12" class="edge"><title>Node10&#45;&gt;Node11</title>
<path fill="none" stroke="midnightblue" d="M594.752,-112.083C602.47,-104.22 613.905,-92.5688 623.217,-83.0813"/>
<polygon fill="midnightblue" stroke="midnightblue" points="625.904,-85.3396 630.411,-75.7511 620.908,-80.4363 625.904,-85.3396"/>
</g>
<!-- Node12&#45;&gt;Node3 -->
<g id="edge15" class="edge"><title>Node12&#45;&gt;Node3</title>
<path fill="none" stroke="midnightblue" d="M531.014,-280.444C503.304,-271.32 459.248,-256.813 428.384,-246.651"/>
<polygon fill="midnightblue" stroke="midnightblue" points="429.458,-243.32 418.865,-243.516 427.268,-249.968 429.458,-243.32"/>
</g>
<!-- Node12&#45;&gt;Node9 -->
<g id="edge14" class="edge"><title>Node12&#45;&gt;Node9</title>
<path fill="none" stroke="midnightblue" d="M559.276,-280.368C563.977,-262.537 574.849,-221.295 581.183,-197.272"/>
<polygon fill="midnightblue" stroke="midnightblue" points="584.57,-198.153 583.735,-187.591 577.801,-196.369 584.57,-198.153"/>
</g>
<!-- Node13&#45;&gt;Node3 -->
<g id="edge17" class="edge"><title>Node13&#45;&gt;Node3</title>
<path fill="none" stroke="midnightblue" d="M273.201,-336.368C295.224,-317.733 347.462,-273.532 375.115,-250.134"/>
<polygon fill="midnightblue" stroke="midnightblue" points="377.473,-252.723 382.847,-243.591 372.952,-247.379 377.473,-252.723"/>
</g>
<!-- Node14 -->
<g id="node14" class="node"><title>Node14</title>
<g id="a_node14"><a xlink:href="FactoryBase_8h.html" target="_top" xlink:title="File contains the FactoryBase class declarations. ">
<polygon fill="white" stroke="black" points="194.5,-224.5 194.5,-243.5 331.5,-243.5 331.5,-224.5 194.5,-224.5"/>
<text text-anchor="middle" x="263" y="-231.5" font-family="FreeSans" font-size="10.00">cantera/base/FactoryBase.h</text>
</a>
</g>
</g>
<!-- Node13&#45;&gt;Node14 -->
<g id="edge18" class="edge"><title>Node13&#45;&gt;Node14</title>
<path fill="none" stroke="midnightblue" d="M249.567,-336.495C232.846,-324.74 207.565,-302.428 217,-280 222.026,-268.053 231.944,-257.692 241.287,-249.934"/>
<polygon fill="midnightblue" stroke="midnightblue" points="243.439,-252.694 249.213,-243.811 239.16,-247.155 243.439,-252.694"/>
</g>
<!-- Node15 -->
<g id="node15" class="node"><title>Node15</title>
<g id="a_node15"><a xlink:href="LTPspecies_8h.html" target="_top" xlink:title="Header file defining class LTPspecies and its child classes. ">
<polygon fill="white" stroke="black" points="226,-280.5 226,-299.5 300,-299.5 300,-280.5 226,-280.5"/>
<text text-anchor="middle" x="263" y="-287.5" font-family="FreeSans" font-size="10.00">LTPspecies.h</text>
</a>
</g>
</g>
<!-- Node13&#45;&gt;Node15 -->
<g id="edge20" class="edge"><title>Node13&#45;&gt;Node15</title>
<path fill="none" stroke="midnightblue" d="M263,-336.083C263,-329.006 263,-318.861 263,-309.986"/>
<polygon fill="midnightblue" stroke="midnightblue" points="266.5,-309.751 263,-299.751 259.5,-309.751 266.5,-309.751"/>
</g>
<!-- Node14&#45;&gt;Node8 -->
<g id="edge19" class="edge"><title>Node14&#45;&gt;Node8</title>
<path fill="none" stroke="midnightblue" d="M262.94,-224.437C263.076,-204.143 265.079,-151.837 281,-112 294.244,-78.8611 320.294,-46.1049 336.89,-27.2516"/>
<polygon fill="midnightblue" stroke="midnightblue" points="339.676,-29.3881 343.77,-19.6161 334.476,-24.7023 339.676,-29.3881"/>
</g>
<!-- Node15&#45;&gt;Node3 -->
<g id="edge21" class="edge"><title>Node15&#45;&gt;Node3</title>
<path fill="none" stroke="midnightblue" d="M283.599,-280.444C304.993,-271.557 338.681,-257.563 363.024,-247.451"/>
<polygon fill="midnightblue" stroke="midnightblue" points="364.605,-250.585 372.497,-243.516 361.92,-244.12 364.605,-250.585"/>
</g>
<!-- Node15&#45;&gt;Node14 -->
<g id="edge22" class="edge"><title>Node15&#45;&gt;Node14</title>
<path fill="none" stroke="midnightblue" d="M263,-280.083C263,-273.006 263,-262.861 263,-253.986"/>
<polygon fill="midnightblue" stroke="midnightblue" points="266.5,-253.751 263,-243.751 259.5,-253.751 266.5,-253.751"/>
</g>
<!-- Node16&#45;&gt;Node3 -->
<g id="edge25" class="edge"><title>Node16&#45;&gt;Node3</title>
<path fill="none" stroke="midnightblue" d="M466.806,-392.075C454.422,-365.719 417.846,-287.878 401.298,-252.661"/>
<polygon fill="midnightblue" stroke="midnightblue" points="404.446,-251.13 397.026,-243.568 398.111,-254.107 404.446,-251.13"/>
</g>
<!-- Node16&#45;&gt;Node7 -->
<g id="edge24" class="edge"><title>Node16&#45;&gt;Node7</title>
<path fill="none" stroke="midnightblue" d="M472.177,-392.462C474.616,-373.994 480,-328.939 480,-291 480,-291 480,-291 480,-177 480,-142.889 463.818,-105.787 452.858,-84.5681"/>
<polygon fill="midnightblue" stroke="midnightblue" points="455.807,-82.662 447.99,-75.5101 449.641,-85.9756 455.807,-82.662"/>
</g>
<!-- Node16&#45;&gt;Node12 -->
<g id="edge26" class="edge"><title>Node16&#45;&gt;Node12</title>
<path fill="none" stroke="midnightblue" d="M477.748,-392.368C492.004,-374.135 525.394,-331.426 543.963,-307.675"/>
<polygon fill="midnightblue" stroke="midnightblue" points="546.881,-309.625 550.283,-299.591 541.366,-305.314 546.881,-309.625"/>
</g>
<!-- Node16&#45;&gt;Node13 -->
<g id="edge27" class="edge"><title>Node16&#45;&gt;Node13</title>
<path fill="none" stroke="midnightblue" d="M438.042,-392.444C402.213,-383.142 344.837,-368.246 305.609,-358.062"/>
<polygon fill="midnightblue" stroke="midnightblue" points="306.363,-354.642 295.804,-355.516 304.604,-361.417 306.363,-354.642"/>
</g>
<!-- Node16&#45;&gt;Node17 -->
<g id="edge28" class="edge"><title>Node16&#45;&gt;Node17</title>
<path fill="none" stroke="midnightblue" d="M458.629,-392.324C446.842,-384.058 428.868,-371.453 414.864,-361.632"/>
<polygon fill="midnightblue" stroke="midnightblue" points="416.538,-358.531 406.341,-355.655 412.518,-364.262 416.538,-358.531"/>
</g>
<!-- Node16&#45;&gt;Node18 -->
<g id="edge29" class="edge"><title>Node16&#45;&gt;Node18</title>
<path fill="none" stroke="midnightblue" d="M499.68,-392.444C530.527,-383.241 579.728,-368.562 613.829,-358.388"/>
<polygon fill="midnightblue" stroke="midnightblue" points="614.872,-361.729 623.454,-355.516 612.871,-355.021 614.872,-361.729"/>
</g>
<!-- Node18&#45;&gt;Node11 -->
<g id="edge30" class="edge"><title>Node18&#45;&gt;Node11</title>
<path fill="none" stroke="midnightblue" d="M657.562,-336.269C668.553,-318.15 692,-274.828 692,-235 692,-235 692,-235 692,-177 692,-140.992 668.666,-104.339 652.963,-83.7501"/>
<polygon fill="midnightblue" stroke="midnightblue" points="655.55,-81.3793 646.594,-75.7193 650.065,-85.7291 655.55,-81.3793"/>
</g>
<!-- Node20 -->
<g id="node20" class="node"><title>Node20</title>
<g id="a_node20"><a xlink:href="GibbsExcessVPSSTP_8h.html" target="_top" xlink:title="Header for intermediate ThermoPhase object for phases which employ gibbs excess free energy based for...">
<polygon fill="white" stroke="black" points="61,-392.5 61,-411.5 179,-411.5 179,-392.5 61,-392.5"/>
<text text-anchor="middle" x="120" y="-399.5" font-family="FreeSans" font-size="10.00">GibbsExcessVPSSTP.h</text>
</a>
</g>
</g>
<!-- Node19&#45;&gt;Node20 -->
<g id="edge34" class="edge"><title>Node19&#45;&gt;Node20</title>
<path fill="none" stroke="midnightblue" d="M231.769,-448.933C207.138,-438.81 174.21,-425.278 150.482,-415.527"/>
<polygon fill="midnightblue" stroke="midnightblue" points="151.507,-412.164 140.927,-411.6 148.846,-418.639 151.507,-412.164"/>
</g>
<!-- Node21 -->
<g id="node21" class="node"><title>Node21</title>
<g id="a_node21"><a xlink:href="VPStandardStateTP_8h.html" target="_top" xlink:title="Header file for a derived class of ThermoPhase that handles variable pressure standard state methods ...">
<polygon fill="white" stroke="black" points="64,-224.5 64,-243.5 176,-243.5 176,-224.5 64,-224.5"/>
<text text-anchor="middle" x="120" y="-231.5" font-family="FreeSans" font-size="10.00">VPStandardStateTP.h</text>
</a>
</g>
</g>
<!-- Node20&#45;&gt;Node21 -->
<g id="edge35" class="edge"><title>Node20&#45;&gt;Node21</title>
<path fill="none" stroke="midnightblue" d="M120,-392.075C120,-365.945 120,-289.211 120,-253.577"/>
<polygon fill="midnightblue" stroke="midnightblue" points="123.5,-253.568 120,-243.568 116.5,-253.568 123.5,-253.568"/>
</g>
<!-- Node21&#45;&gt;Node4 -->
<g id="edge36" class="edge"><title>Node21&#45;&gt;Node4</title>
<path fill="none" stroke="midnightblue" d="M159.772,-224.444C203.558,-215.023 274.014,-199.866 321.38,-189.675"/>
<polygon fill="midnightblue" stroke="midnightblue" points="322.374,-193.041 331.414,-187.516 320.902,-186.198 322.374,-193.041"/>
</g>
<!-- Node22 -->
<g id="node22" class="node"><title>Node22</title>
<g id="a_node22"><a xlink:href="VPSSMgr_8h.html" target="_top" xlink:title="Declaration file for a virtual base class that manages the calculation of standard state properties f...">
<polygon fill="white" stroke="red" points="126.5,-168.5 126.5,-187.5 193.5,-187.5 193.5,-168.5 126.5,-168.5"/>
<text text-anchor="middle" x="160" y="-175.5" font-family="FreeSans" font-size="10.00">VPSSMgr.h</text>
</a>
</g>
</g>
<!-- Node21&#45;&gt;Node22 -->
<g id="edge37" class="edge"><title>Node21&#45;&gt;Node22</title>
<path fill="none" stroke="midnightblue" d="M126.605,-224.083C132.255,-216.455 140.545,-205.264 147.451,-195.941"/>
<polygon fill="midnightblue" stroke="midnightblue" points="150.378,-197.87 153.518,-187.751 144.753,-193.703 150.378,-197.87"/>
</g>
<!-- Node22&#45;&gt;Node7 -->
<g id="edge38" class="edge"><title>Node22&#45;&gt;Node7</title>
<path fill="none" stroke="midnightblue" d="M173.668,-168.348C195.589,-154.778 240.285,-128.354 281,-112 322.239,-95.4352 371.726,-82.657 405.063,-75.0203"/>
<polygon fill="midnightblue" stroke="midnightblue" points="405.875,-78.4252 414.864,-72.8169 404.34,-71.5957 405.875,-78.4252"/>
</g>
<!-- Node23&#45;&gt;Node20 -->
<g id="edge40" class="edge"><title>Node23&#45;&gt;Node20</title>
<path fill="none" stroke="midnightblue" d="M90.0146,-454.403C95.1607,-445.582 103.312,-431.608 109.818,-420.455"/>
<polygon fill="midnightblue" stroke="midnightblue" points="112.979,-421.982 114.995,-411.581 106.933,-418.455 112.979,-421.982"/>
</g>
</g>
</svg>
