<?xml version="1.0" encoding="UTF-8" standalone="no"?>
<!DOCTYPE svg PUBLIC "-//W3C//DTD SVG 1.1//EN"
 "http://www.w3.org/Graphics/SVG/1.1/DTD/svg11.dtd">
<!-- Generated by graphviz version 2.36.0 (20140111.2315)
 -->
<!-- Title: Phase.cpp Pages: 1 -->
<svg width="873pt" height="364pt"
 viewBox="0.00 0.00 873.09 364.00" xmlns="http://www.w3.org/2000/svg" xmlns:xlink="http://www.w3.org/1999/xlink">
<g id="graph0" class="graph" transform="scale(1 1) rotate(0) translate(4 360)">
<title>Phase.cpp</title>
<polygon fill="white" stroke="none" points="-4,4 -4,-360 869.085,-360 869.085,4 -4,4"/>
<!-- Node1 -->
<g id="node1" class="node"><title>Node1</title>
<polygon fill="#bfbfbf" stroke="black" points="293,-336.5 293,-355.5 355,-355.5 355,-336.5 293,-336.5"/>
<text text-anchor="middle" x="324" y="-343.5" font-family="FreeSans" font-size="10.00">Phase.cpp</text>
</g>
<!-- Node2 -->
<g id="node2" class="node"><title>Node2</title>
<g id="a_node2"><a xlink:href="Phase_8h.html" target="_top" xlink:title="Header file for class Phase. ">
<polygon fill="white" stroke="black" points="138.5,-280.5 138.5,-299.5 257.5,-299.5 257.5,-280.5 138.5,-280.5"/>
<text text-anchor="middle" x="198" y="-287.5" font-family="FreeSans" font-size="10.00">cantera/thermo/Phase.h</text>
</a>
</g>
</g>
<!-- Node1&#45;&gt;Node2 -->
<g id="edge1" class="edge"><title>Node1&#45;&gt;Node2</title>
<path fill="none" stroke="midnightblue" d="M304.035,-336.444C283.391,-327.596 250.937,-313.687 227.368,-303.586"/>
<polygon fill="midnightblue" stroke="midnightblue" points="228.442,-300.239 217.872,-299.516 225.684,-306.673 228.442,-300.239"/>
</g>
<!-- Node3 -->
<g id="node3" class="node"><title>Node3</title>
<g id="a_node3"><a xlink:href="vec__functions_8h.html" target="_top" xlink:title="Templates for operations on vector&#45;like objects. ">
<polygon fill="white" stroke="black" points="574,-168.5 574,-187.5 716,-187.5 716,-168.5 574,-168.5"/>
<text text-anchor="middle" x="645" y="-175.5" font-family="FreeSans" font-size="10.00">cantera/base/vec_functions.h</text>
</a>
</g>
</g>
<!-- Node1&#45;&gt;Node3 -->
<g id="edge34" class="edge"><title>Node1&#45;&gt;Node3</title>
<path fill="none" stroke="midnightblue" d="M340.806,-336.309C393.568,-309.024 556.152,-224.947 619.428,-192.224"/>
<polygon fill="midnightblue" stroke="midnightblue" points="621.085,-195.308 628.36,-187.605 617.87,-189.09 621.085,-195.308"/>
</g>
<!-- Node19 -->
<g id="node19" class="node"><title>Node19</title>
<g id="a_node19"><a xlink:href="ctexceptions_8h.html" target="_top" xlink:title="Definitions for the classes that are thrown when Cantera experiences an error condition (also contain...">
<polygon fill="white" stroke="red" points="200,-112.5 200,-131.5 278,-131.5 278,-112.5 200,-112.5"/>
<text text-anchor="middle" x="239" y="-119.5" font-family="FreeSans" font-size="10.00">ctexceptions.h</text>
</a>
</g>
</g>
<!-- Node1&#45;&gt;Node19 -->
<g id="edge35" class="edge"><title>Node1&#45;&gt;Node19</title>
<path fill="none" stroke="midnightblue" d="M320.668,-336.297C308.108,-303.494 263.46,-186.884 246.036,-141.377"/>
<polygon fill="midnightblue" stroke="midnightblue" points="249.246,-139.971 242.401,-131.884 242.709,-142.474 249.246,-139.971"/>
</g>
<!-- Node23 -->
<g id="node23" class="node"><title>Node23</title>
<g id="a_node23"><a xlink:href="stringUtils_8h.html" target="_top" xlink:title="Contains declarations for string manipulation functions within Cantera. ">
<polygon fill="white" stroke="black" points="296.5,-112.5 296.5,-131.5 421.5,-131.5 421.5,-112.5 296.5,-112.5"/>
<text text-anchor="middle" x="359" y="-119.5" font-family="FreeSans" font-size="10.00">cantera/base/stringUtils.h</text>
</a>
</g>
</g>
<!-- Node1&#45;&gt;Node23 -->
<g id="edge36" class="edge"><title>Node1&#45;&gt;Node23</title>
<path fill="none" stroke="midnightblue" d="M325.372,-336.297C330.522,-303.633 348.773,-187.866 356.011,-141.957"/>
<polygon fill="midnightblue" stroke="midnightblue" points="359.499,-142.307 357.599,-131.884 352.585,-141.217 359.499,-142.307"/>
</g>
<!-- Node2&#45;&gt;Node3 -->
<g id="edge2" class="edge"><title>Node2&#45;&gt;Node3</title>
<path fill="none" stroke="midnightblue" d="M232.703,-280.46C312.993,-260.702 511.482,-211.857 600.525,-189.945"/>
<polygon fill="midnightblue" stroke="midnightblue" points="601.445,-193.323 610.319,-187.535 599.772,-186.526 601.445,-193.323"/>
</g>
<!-- Node17 -->
<g id="node17" class="node"><title>Node17</title>
<g id="a_node17"><a xlink:href="ctml_8h.html" target="_top" xlink:title="CTML (&quot;Cantera Markup Language&quot;) is the variant of XML that Cantera uses to store data...">
<polygon fill="white" stroke="black" points="150.5,-224.5 150.5,-243.5 251.5,-243.5 251.5,-224.5 150.5,-224.5"/>
<text text-anchor="middle" x="201" y="-231.5" font-family="FreeSans" font-size="10.00">cantera/base/ctml.h</text>
</a>
</g>
</g>
<!-- Node2&#45;&gt;Node17 -->
<g id="edge19" class="edge"><title>Node2&#45;&gt;Node17</title>
<path fill="none" stroke="midnightblue" d="M198.495,-280.083C198.889,-273.006 199.452,-262.861 199.945,-253.986"/>
<polygon fill="midnightblue" stroke="midnightblue" points="203.454,-253.93 200.514,-243.751 196.464,-253.542 203.454,-253.93"/>
</g>
<!-- Node22 -->
<g id="node22" class="node"><title>Node22</title>
<g id="a_node22"><a xlink:href="Elements_8h.html" target="_top" xlink:title="Contains the LookupWtElements function and the definitions of element constraint types. ">
<polygon fill="white" stroke="black" points="0,-224.5 0,-243.5 132,-243.5 132,-224.5 0,-224.5"/>
<text text-anchor="middle" x="66" y="-231.5" font-family="FreeSans" font-size="10.00">cantera/thermo/Elements.h</text>
</a>
</g>
</g>
<!-- Node2&#45;&gt;Node22 -->
<g id="edge32" class="edge"><title>Node2&#45;&gt;Node22</title>
<path fill="none" stroke="midnightblue" d="M177.084,-280.444C155.264,-271.517 120.85,-257.439 96.1078,-247.317"/>
<polygon fill="midnightblue" stroke="midnightblue" points="97.3987,-244.063 86.8179,-243.516 94.7482,-250.542 97.3987,-244.063"/>
</g>
<!-- Node4 -->
<g id="node4" class="node"><title>Node4</title>
<g id="a_node4"><a xlink:href="ct__defs_8h.html" target="_top" xlink:title="This file contains definitions of terms that are used in internal routines and are unlikely to need m...">
<polygon fill="white" stroke="black" points="280,-56.5 280,-75.5 336,-75.5 336,-56.5 280,-56.5"/>
<text text-anchor="middle" x="308" y="-63.5" font-family="FreeSans" font-size="10.00">ct_defs.h</text>
</a>
</g>
</g>
<!-- Node3&#45;&gt;Node4 -->
<g id="edge3" class="edge"><title>Node3&#45;&gt;Node4</title>
<path fill="none" stroke="midnightblue" d="M655.054,-168.117C669.051,-154.703 691.082,-129.038 676,-112 654.353,-87.545 435.715,-73.5813 346.052,-68.8451"/>
<polygon fill="midnightblue" stroke="midnightblue" points="346.197,-65.348 336.029,-68.3259 345.834,-72.3386 346.197,-65.348"/>
</g>
<!-- Node11 -->
<g id="node11" class="node"><title>Node11</title>
<polygon fill="white" stroke="#bfbfbf" points="549,-0.5 549,-19.5 605,-19.5 605,-0.5 549,-0.5"/>
<text text-anchor="middle" x="577" y="-7.5" font-family="FreeSans" font-size="10.00">algorithm</text>
</g>
<!-- Node3&#45;&gt;Node11 -->
<g id="edge16" class="edge"><title>Node3&#45;&gt;Node11</title>
<path fill="none" stroke="midnightblue" d="M716.108,-171.708C771.833,-165.908 842.875,-154.29 861,-132 866.608,-125.103 866.125,-119.262 861,-112 804.55,-32.0104 678.931,-14.9927 615.39,-11.6271"/>
<polygon fill="midnightblue" stroke="midnightblue" points="615.522,-8.12961 605.377,-11.1834 615.213,-15.1227 615.522,-8.12961"/>
</g>
<!-- Node12 -->
<g id="node12" class="node"><title>Node12</title>
<g id="a_node12"><a xlink:href="utilities_8h.html" target="_top" xlink:title="Various templated functions that carry out common vector operations (see Templated Utility Functions)...">
<polygon fill="white" stroke="black" points="550,-112.5 550,-131.5 604,-131.5 604,-112.5 550,-112.5"/>
<text text-anchor="middle" x="577" y="-119.5" font-family="FreeSans" font-size="10.00">utilities.h</text>
</a>
</g>
</g>
<!-- Node3&#45;&gt;Node12 -->
<g id="edge11" class="edge"><title>Node3&#45;&gt;Node12</title>
<path fill="none" stroke="midnightblue" d="M634.075,-168.324C623.825,-160.185 608.279,-147.839 595.999,-138.087"/>
<polygon fill="midnightblue" stroke="midnightblue" points="598.132,-135.312 588.124,-131.834 593.779,-140.794 598.132,-135.312"/>
</g>
<!-- Node13 -->
<g id="node13" class="node"><title>Node13</title>
<polygon fill="white" stroke="#bfbfbf" points="724.5,-112.5 724.5,-131.5 775.5,-131.5 775.5,-112.5 724.5,-112.5"/>
<text text-anchor="middle" x="750" y="-119.5" font-family="FreeSans" font-size="10.00">numeric</text>
</g>
<!-- Node3&#45;&gt;Node13 -->
<g id="edge14" class="edge"><title>Node3&#45;&gt;Node13</title>
<path fill="none" stroke="midnightblue" d="M661.87,-168.324C678.709,-159.664 704.807,-146.242 724.238,-136.249"/>
<polygon fill="midnightblue" stroke="midnightblue" points="725.88,-139.341 733.172,-131.655 722.678,-133.116 725.88,-139.341"/>
</g>
<!-- Node14 -->
<g id="node14" class="node"><title>Node14</title>
<polygon fill="white" stroke="#bfbfbf" points="793.5,-112.5 793.5,-131.5 852.5,-131.5 852.5,-112.5 793.5,-112.5"/>
<text text-anchor="middle" x="823" y="-119.5" font-family="FreeSans" font-size="10.00">functional</text>
</g>
<!-- Node3&#45;&gt;Node14 -->
<g id="edge15" class="edge"><title>Node3&#45;&gt;Node14</title>
<path fill="none" stroke="midnightblue" d="M673.205,-168.444C703.41,-159.28 751.511,-144.688 785.029,-134.519"/>
<polygon fill="midnightblue" stroke="midnightblue" points="786.374,-137.769 794.927,-131.516 784.342,-131.07 786.374,-137.769"/>
</g>
<!-- Node15 -->
<g id="node15" class="node"><title>Node15</title>
<polygon fill="white" stroke="#bfbfbf" points="478.5,-112.5 478.5,-131.5 531.5,-131.5 531.5,-112.5 478.5,-112.5"/>
<text text-anchor="middle" x="505" y="-119.5" font-family="FreeSans" font-size="10.00">iostream</text>
</g>
<!-- Node3&#45;&gt;Node15 -->
<g id="edge17" class="edge"><title>Node3&#45;&gt;Node15</title>
<path fill="none" stroke="midnightblue" d="M622.817,-168.444C599.572,-159.478 562.851,-145.314 536.585,-135.183"/>
<polygon fill="midnightblue" stroke="midnightblue" points="537.669,-131.85 527.08,-131.516 535.15,-138.381 537.669,-131.85"/>
</g>
<!-- Node16 -->
<g id="node16" class="node"><title>Node16</title>
<polygon fill="white" stroke="#bfbfbf" points="622.5,-112.5 622.5,-131.5 667.5,-131.5 667.5,-112.5 622.5,-112.5"/>
<text text-anchor="middle" x="645" y="-119.5" font-family="FreeSans" font-size="10.00">cstring</text>
</g>
<!-- Node3&#45;&gt;Node16 -->
<g id="edge18" class="edge"><title>Node3&#45;&gt;Node16</title>
<path fill="none" stroke="midnightblue" d="M645,-168.083C645,-161.006 645,-150.861 645,-141.986"/>
<polygon fill="midnightblue" stroke="midnightblue" points="648.5,-141.751 645,-131.751 641.5,-141.751 648.5,-141.751"/>
</g>
<!-- Node5 -->
<g id="node5" class="node"><title>Node5</title>
<g id="a_node5"><a xlink:href="config_8h_source.html" target="_top" xlink:title="config.h">
<polygon fill="white" stroke="black" points="211,-0.5 211,-19.5 261,-19.5 261,-0.5 211,-0.5"/>
<text text-anchor="middle" x="236" y="-7.5" font-family="FreeSans" font-size="10.00">config.h</text>
</a>
</g>
</g>
<!-- Node4&#45;&gt;Node5 -->
<g id="edge4" class="edge"><title>Node4&#45;&gt;Node5</title>
<path fill="none" stroke="midnightblue" d="M296.432,-56.324C285.58,-48.1849 269.119,-35.8395 256.117,-26.0874"/>
<polygon fill="midnightblue" stroke="midnightblue" points="257.879,-23.0339 247.779,-19.8339 253.679,-28.6339 257.879,-23.0339"/>
</g>
<!-- Node6 -->
<g id="node6" class="node"><title>Node6</title>
<polygon fill="white" stroke="#bfbfbf" points="279,-0.5 279,-19.5 323,-19.5 323,-0.5 279,-0.5"/>
<text text-anchor="middle" x="301" y="-7.5" font-family="FreeSans" font-size="10.00">cmath</text>
</g>
<!-- Node4&#45;&gt;Node6 -->
<g id="edge5" class="edge"><title>Node4&#45;&gt;Node6</title>
<path fill="none" stroke="midnightblue" d="M306.844,-56.083C305.916,-48.9272 304.582,-38.6353 303.423,-29.6911"/>
<polygon fill="midnightblue" stroke="midnightblue" points="306.891,-29.2181 302.134,-19.7511 299.949,-30.1181 306.891,-29.2181"/>
</g>
<!-- Node7 -->
<g id="node7" class="node"><title>Node7</title>
<polygon fill="white" stroke="#bfbfbf" points="341,-0.5 341,-19.5 385,-19.5 385,-0.5 341,-0.5"/>
<text text-anchor="middle" x="363" y="-7.5" font-family="FreeSans" font-size="10.00">cstdlib</text>
</g>
<!-- Node4&#45;&gt;Node7 -->
<g id="edge6" class="edge"><title>Node4&#45;&gt;Node7</title>
<path fill="none" stroke="midnightblue" d="M317.082,-56.083C325.171,-48.1409 337.195,-36.3354 346.91,-26.7973"/>
<polygon fill="midnightblue" stroke="midnightblue" points="349.403,-29.2545 354.087,-19.7511 344.499,-24.2595 349.403,-29.2545"/>
</g>
<!-- Node8 -->
<g id="node8" class="node"><title>Node8</title>
<polygon fill="white" stroke="#bfbfbf" points="96.5,-0.5 96.5,-19.5 139.5,-19.5 139.5,-0.5 96.5,-0.5"/>
<text text-anchor="middle" x="118" y="-7.5" font-family="FreeSans" font-size="10.00">vector</text>
</g>
<!-- Node4&#45;&gt;Node8 -->
<g id="edge7" class="edge"><title>Node4&#45;&gt;Node8</title>
<path fill="none" stroke="midnightblue" d="M279.922,-57.2614C249.877,-48.9458 200.571,-35.2013 149.507,-20.4062"/>
<polygon fill="midnightblue" stroke="midnightblue" points="150.196,-16.9617 139.617,-17.5337 148.244,-23.684 150.196,-16.9617"/>
</g>
<!-- Node9 -->
<g id="node9" class="node"><title>Node9</title>
<polygon fill="white" stroke="#bfbfbf" points="157.5,-0.5 157.5,-19.5 192.5,-19.5 192.5,-0.5 157.5,-0.5"/>
<text text-anchor="middle" x="175" y="-7.5" font-family="FreeSans" font-size="10.00">map</text>
</g>
<!-- Node4&#45;&gt;Node9 -->
<g id="edge8" class="edge"><title>Node4&#45;&gt;Node9</title>
<path fill="none" stroke="midnightblue" d="M286.926,-56.4435C263.906,-47.097 226.974,-32.1023 201.883,-21.9151"/>
<polygon fill="midnightblue" stroke="midnightblue" points="203.16,-18.6559 192.578,-18.1368 200.526,-25.1417 203.16,-18.6559"/>
</g>
<!-- Node10 -->
<g id="node10" class="node"><title>Node10</title>
<polygon fill="white" stroke="#bfbfbf" points="403,-0.5 403,-19.5 443,-19.5 443,-0.5 403,-0.5"/>
<text text-anchor="middle" x="423" y="-7.5" font-family="FreeSans" font-size="10.00">string</text>
</g>
<!-- Node4&#45;&gt;Node10 -->
<g id="edge9" class="edge"><title>Node4&#45;&gt;Node10</title>
<path fill="none" stroke="midnightblue" d="M326.222,-56.4435C344.896,-47.6751 374.156,-33.9355 395.617,-23.8579"/>
<polygon fill="midnightblue" stroke="midnightblue" points="397.299,-26.935 404.863,-19.5164 394.324,-20.5988 397.299,-26.935"/>
</g>
<!-- Node4&#45;&gt;Node11 -->
<g id="edge10" class="edge"><title>Node4&#45;&gt;Node11</title>
<path fill="none" stroke="midnightblue" d="M336.026,-59.3739C384.445,-49.6542 483.819,-29.7055 538.618,-18.705"/>
<polygon fill="midnightblue" stroke="midnightblue" points="539.517,-22.0945 548.632,-16.6947 538.139,-15.2314 539.517,-22.0945"/>
</g>
<!-- Node12&#45;&gt;Node4 -->
<g id="edge12" class="edge"><title>Node12&#45;&gt;Node4</title>
<path fill="none" stroke="midnightblue" d="M549.956,-114.266C546.609,-113.479 543.229,-112.706 540,-112 471.992,-97.1418 392.223,-82.212 346.155,-73.8321"/>
<polygon fill="midnightblue" stroke="midnightblue" points="346.765,-70.3856 336.301,-72.046 345.517,-77.2734 346.765,-70.3856"/>
</g>
<!-- Node12&#45;&gt;Node11 -->
<g id="edge13" class="edge"><title>Node12&#45;&gt;Node11</title>
<path fill="none" stroke="midnightblue" d="M577,-112.368C577,-94.617 577,-53.6664 577,-29.5974"/>
<polygon fill="midnightblue" stroke="midnightblue" points="580.5,-29.5914 577,-19.5914 573.5,-29.5915 580.5,-29.5914"/>
</g>
<!-- Node17&#45;&gt;Node4 -->
<g id="edge20" class="edge"><title>Node17&#45;&gt;Node4</title>
<path fill="none" stroke="midnightblue" d="M187.888,-224.418C158.403,-204.083 91.8034,-151.695 123,-112 140.887,-89.2404 220.896,-76.5597 269.649,-70.82"/>
<polygon fill="midnightblue" stroke="midnightblue" points="270.296,-74.2692 279.839,-69.6674 269.509,-67.3136 270.296,-74.2692"/>
</g>
<!-- Node18 -->
<g id="node18" class="node"><title>Node18</title>
<g id="a_node18"><a xlink:href="xml_8h.html" target="_top" xlink:title="Classes providing support for XML data files. ">
<polygon fill="white" stroke="black" points="181.5,-168.5 181.5,-187.5 220.5,-187.5 220.5,-168.5 181.5,-168.5"/>
<text text-anchor="middle" x="201" y="-175.5" font-family="FreeSans" font-size="10.00">xml.h</text>
</a>
</g>
</g>
<!-- Node17&#45;&gt;Node18 -->
<g id="edge21" class="edge"><title>Node17&#45;&gt;Node18</title>
<path fill="none" stroke="midnightblue" d="M201,-224.083C201,-217.006 201,-206.861 201,-197.986"/>
<polygon fill="midnightblue" stroke="midnightblue" points="204.5,-197.751 201,-187.751 197.5,-197.751 204.5,-197.751"/>
</g>
<!-- Node21 -->
<g id="node21" class="node"><title>Node21</title>
<g id="a_node21"><a xlink:href="Array_8h.html" target="_top" xlink:title="Header file for class Cantera::Array2D. ">
<polygon fill="white" stroke="black" points="453.5,-168.5 453.5,-187.5 500.5,-187.5 500.5,-168.5 453.5,-168.5"/>
<text text-anchor="middle" x="477" y="-175.5" font-family="FreeSans" font-size="10.00">Array.h</text>
</a>
</g>
</g>
<!-- Node17&#45;&gt;Node21 -->
<g id="edge26" class="edge"><title>Node17&#45;&gt;Node21</title>
<path fill="none" stroke="midnightblue" d="M244.733,-224.444C299.935,-213.643 393.685,-195.301 443.525,-185.55"/>
<polygon fill="midnightblue" stroke="midnightblue" points="444.322,-188.96 453.464,-183.605 442.978,-182.09 444.322,-188.96"/>
</g>
<!-- Node18&#45;&gt;Node19 -->
<g id="edge22" class="edge"><title>Node18&#45;&gt;Node19</title>
<path fill="none" stroke="midnightblue" d="M207.275,-168.083C212.642,-160.455 220.518,-149.264 227.079,-139.941"/>
<polygon fill="midnightblue" stroke="midnightblue" points="229.949,-141.943 232.842,-131.751 224.225,-137.915 229.949,-141.943"/>
</g>
<!-- Node20 -->
<g id="node20" class="node"><title>Node20</title>
<g id="a_node20"><a xlink:href="global_8h.html" target="_top" xlink:title="This file contains definitions for utility functions and text for modules, inputfiles, logs, textlogs, HTML_logs (see Input File Handling, Diagnostic Output, Writing messages to the screen and Writing HTML Logfiles). ">
<polygon fill="white" stroke="black" points="132,-112.5 132,-131.5 182,-131.5 182,-112.5 132,-112.5"/>
<text text-anchor="middle" x="157" y="-119.5" font-family="FreeSans" font-size="10.00">global.h</text>
</a>
</g>
</g>
<!-- Node18&#45;&gt;Node20 -->
<g id="edge24" class="edge"><title>Node18&#45;&gt;Node20</title>
<path fill="none" stroke="midnightblue" d="M193.734,-168.083C187.455,-160.377 178.212,-149.033 170.569,-139.653"/>
<polygon fill="midnightblue" stroke="midnightblue" points="173.161,-137.293 164.131,-131.751 167.734,-141.714 173.161,-137.293"/>
</g>
<!-- Node19&#45;&gt;Node10 -->
<g id="edge23" class="edge"><title>Node19&#45;&gt;Node10</title>
<path fill="none" stroke="midnightblue" d="M264.591,-112.356C286.483,-104.427 318.417,-91.5685 344,-76 367.555,-61.6654 391.595,-40.8117 406.868,-26.6177"/>
<polygon fill="midnightblue" stroke="midnightblue" points="409.533,-28.9153 414.393,-19.5011 404.723,-23.8296 409.533,-28.9153"/>
</g>
<!-- Node20&#45;&gt;Node4 -->
<g id="edge25" class="edge"><title>Node20&#45;&gt;Node4</title>
<path fill="none" stroke="midnightblue" d="M180.926,-112.444C206.219,-103.399 246.302,-89.064 274.68,-78.9158"/>
<polygon fill="midnightblue" stroke="midnightblue" points="275.948,-82.1794 284.186,-75.5164 273.591,-75.5882 275.948,-82.1794"/>
</g>
<!-- Node21&#45;&gt;Node4 -->
<g id="edge27" class="edge"><title>Node21&#45;&gt;Node4</title>
<path fill="none" stroke="midnightblue" d="M472.782,-168.143C465.763,-154.291 450.413,-127.488 430,-112 405.152,-93.1474 371.59,-81.537 345.958,-74.8428"/>
<polygon fill="midnightblue" stroke="midnightblue" points="346.756,-71.4348 336.208,-72.4314 345.075,-78.2301 346.756,-71.4348"/>
</g>
<!-- Node21&#45;&gt;Node12 -->
<g id="edge29" class="edge"><title>Node21&#45;&gt;Node12</title>
<path fill="none" stroke="midnightblue" d="M493.067,-168.324C508.958,-159.743 533.507,-146.486 551.958,-136.522"/>
<polygon fill="midnightblue" stroke="midnightblue" points="553.837,-139.486 560.973,-131.655 550.511,-133.326 553.837,-139.486"/>
</g>
<!-- Node21&#45;&gt;Node15 -->
<g id="edge30" class="edge"><title>Node21&#45;&gt;Node15</title>
<path fill="none" stroke="midnightblue" d="M481.624,-168.083C485.456,-160.691 491.024,-149.953 495.765,-140.811"/>
<polygon fill="midnightblue" stroke="midnightblue" points="498.966,-142.24 500.462,-131.751 492.752,-139.018 498.966,-142.24"/>
</g>
<!-- Node21&#45;&gt;Node16 -->
<g id="edge31" class="edge"><title>Node21&#45;&gt;Node16</title>
<path fill="none" stroke="midnightblue" d="M500.714,-169.378C530.059,-159.945 580.15,-143.845 612.911,-133.314"/>
<polygon fill="midnightblue" stroke="midnightblue" points="614.031,-136.631 622.48,-130.238 611.889,-129.967 614.031,-136.631"/>
</g>
<!-- Node21&#45;&gt;Node19 -->
<g id="edge28" class="edge"><title>Node21&#45;&gt;Node19</title>
<path fill="none" stroke="midnightblue" d="M453.31,-171.625C414.59,-162.84 337.02,-145.24 286.594,-133.799"/>
<polygon fill="midnightblue" stroke="midnightblue" points="287.107,-130.326 276.58,-131.527 285.558,-137.153 287.107,-130.326"/>
</g>
<!-- Node22&#45;&gt;Node4 -->
<g id="edge33" class="edge"><title>Node22&#45;&gt;Node4</title>
<path fill="none" stroke="midnightblue" d="M66.5838,-224.436C68.5775,-202.228 77.0906,-142.408 112,-112 135.226,-91.7687 219.549,-78.0482 269.712,-71.4746"/>
<polygon fill="midnightblue" stroke="midnightblue" points="270.386,-74.9171 279.863,-70.1806 269.501,-67.9733 270.386,-74.9171"/>
</g>
<!-- Node23&#45;&gt;Node4 -->
<g id="edge37" class="edge"><title>Node23&#45;&gt;Node4</title>
<path fill="none" stroke="midnightblue" d="M350.578,-112.083C343.152,-104.22 332.148,-92.5688 323.188,-83.0813"/>
<polygon fill="midnightblue" stroke="midnightblue" points="325.676,-80.618 316.265,-75.7511 320.587,-85.4244 325.676,-80.618"/>
</g>
<!-- Node23&#45;&gt;Node10 -->
<g id="edge38" class="edge"><title>Node23&#45;&gt;Node10</title>
<path fill="none" stroke="midnightblue" d="M366.086,-112.374C373.143,-103.556 384.045,-89.3042 392,-76 401.113,-60.7592 409.656,-42.422 415.457,-29.1155"/>
<polygon fill="midnightblue" stroke="midnightblue" points="418.778,-30.2494 419.479,-19.6778 412.338,-27.5048 418.778,-30.2494"/>
</g>
</g>
</svg>
