<?xml version="1.0" encoding="UTF-8" standalone="no"?>
<!DOCTYPE svg PUBLIC "-//W3C//DTD SVG 1.1//EN"
 "http://www.w3.org/Graphics/SVG/1.1/DTD/svg11.dtd">
<!-- Generated by graphviz version 2.36.0 (20140111.2315)
 -->
<!-- Title: SolidTransport.h Pages: 1 -->
<svg width="374pt" height="364pt"
 viewBox="0.00 0.00 374.00 364.00" xmlns="http://www.w3.org/2000/svg" xmlns:xlink="http://www.w3.org/1999/xlink">
<g id="graph0" class="graph" transform="scale(1 1) rotate(0) translate(4 360)">
<title>SolidTransport.h</title>
<polygon fill="white" stroke="none" points="-4,4 -4,-360 370,-360 370,4 -4,4"/>
<!-- Node1 -->
<g id="node1" class="node"><title>Node1</title>
<polygon fill="#bfbfbf" stroke="black" points="153,-336.5 153,-355.5 239,-355.5 239,-336.5 153,-336.5"/>
<text text-anchor="middle" x="196" y="-343.5" font-family="FreeSans" font-size="10.00">SolidTransport.h</text>
</g>
<!-- Node2 -->
<g id="node2" class="node"><title>Node2</title>
<g id="a_node2"><a xlink:href="LTPspecies_8h.html" target="_top" xlink:title="Header file defining class LTPspecies and its child classes. ">
<polygon fill="white" stroke="black" points="94,-280.5 94,-299.5 168,-299.5 168,-280.5 94,-280.5"/>
<text text-anchor="middle" x="131" y="-287.5" font-family="FreeSans" font-size="10.00">LTPspecies.h</text>
</a>
</g>
</g>
<!-- Node1&#45;&gt;Node2 -->
<g id="edge1" class="edge"><title>Node1&#45;&gt;Node2</title>
<path fill="none" stroke="midnightblue" d="M185.557,-336.324C175.854,-328.263 161.185,-316.077 149.5,-306.369"/>
<polygon fill="midnightblue" stroke="midnightblue" points="151.562,-303.532 141.633,-299.834 147.089,-308.916 151.562,-303.532"/>
</g>
<!-- Node3 -->
<g id="node3" class="node"><title>Node3</title>
<g id="a_node3"><a xlink:href="TransportBase_8h.html" target="_top" xlink:title="Headers for the Transport object, which is the virtual base class for all transport property evaluato...">
<polygon fill="white" stroke="black" points="112,-224.5 112,-243.5 198,-243.5 198,-224.5 112,-224.5"/>
<text text-anchor="middle" x="155" y="-231.5" font-family="FreeSans" font-size="10.00">TransportBase.h</text>
</a>
</g>
</g>
<!-- Node1&#45;&gt;Node3 -->
<g id="edge14" class="edge"><title>Node1&#45;&gt;Node3</title>
<path fill="none" stroke="midnightblue" d="M193.992,-336.433C190.932,-323.852 184.644,-299.734 177,-280 173.427,-270.776 168.686,-260.864 164.52,-252.698"/>
<polygon fill="midnightblue" stroke="midnightblue" points="167.581,-250.999 159.841,-243.765 161.38,-254.247 167.581,-250.999"/>
</g>
<!-- Node9 -->
<g id="node9" class="node"><title>Node9</title>
<g id="a_node9"><a xlink:href="DenseMatrix_8h.html" target="_top" xlink:title="Headers for the DenseMatrix object, which deals with dense rectangular matrices and description of th...">
<polygon fill="white" stroke="black" points="211.5,-168.5 211.5,-187.5 366.5,-187.5 366.5,-168.5 211.5,-168.5"/>
<text text-anchor="middle" x="289" y="-175.5" font-family="FreeSans" font-size="10.00">cantera/numerics/DenseMatrix.h</text>
</a>
</g>
</g>
<!-- Node1&#45;&gt;Node9 -->
<g id="edge15" class="edge"><title>Node1&#45;&gt;Node9</title>
<path fill="none" stroke="midnightblue" d="M201,-336.075C215.766,-309.719 259.376,-231.878 279.106,-196.661"/>
<polygon fill="midnightblue" stroke="midnightblue" points="282.366,-198.003 284.2,-187.568 276.259,-194.582 282.366,-198.003"/>
</g>
<!-- Node2&#45;&gt;Node3 -->
<g id="edge2" class="edge"><title>Node2&#45;&gt;Node3</title>
<path fill="none" stroke="midnightblue" d="M134.963,-280.083C138.213,-272.77 142.919,-262.181 146.954,-253.103"/>
<polygon fill="midnightblue" stroke="midnightblue" points="150.248,-254.311 151.111,-243.751 143.851,-251.468 150.248,-254.311"/>
</g>
<!-- Node11 -->
<g id="node11" class="node"><title>Node11</title>
<g id="a_node11"><a xlink:href="FactoryBase_8h.html" target="_top" xlink:title="File contains the FactoryBase class declarations. ">
<polygon fill="white" stroke="black" points="-0.5,-56.5 -0.5,-75.5 136.5,-75.5 136.5,-56.5 -0.5,-56.5"/>
<text text-anchor="middle" x="68" y="-63.5" font-family="FreeSans" font-size="10.00">cantera/base/FactoryBase.h</text>
</a>
</g>
</g>
<!-- Node2&#45;&gt;Node11 -->
<g id="edge12" class="edge"><title>Node2&#45;&gt;Node11</title>
<path fill="none" stroke="midnightblue" d="M117.449,-280.453C94.6625,-265.173 49.4515,-230.735 32,-188 26.0854,-173.516 30.2913,-133.292 38,-112 41.6694,-101.865 48.0804,-91.7707 54.0364,-83.7187"/>
<polygon fill="midnightblue" stroke="midnightblue" points="56.9837,-85.632 60.3972,-75.6021 51.474,-81.3142 56.9837,-85.632"/>
</g>
<!-- Node4 -->
<g id="node4" class="node"><title>Node4</title>
<g id="a_node4"><a xlink:href="ThermoPhase_8h.html" target="_top" xlink:title="Header file for class ThermoPhase, the base class for phases with thermodynamic properties, and the text for the Module thermoprops (see Thermodynamic Properties and class ThermoPhase). ">
<polygon fill="white" stroke="black" points="41,-168.5 41,-187.5 193,-187.5 193,-168.5 41,-168.5"/>
<text text-anchor="middle" x="117" y="-175.5" font-family="FreeSans" font-size="10.00">cantera/thermo/ThermoPhase.h</text>
</a>
</g>
</g>
<!-- Node3&#45;&gt;Node4 -->
<g id="edge3" class="edge"><title>Node3&#45;&gt;Node4</title>
<path fill="none" stroke="midnightblue" d="M148.725,-224.083C143.358,-216.455 135.482,-205.264 128.921,-195.941"/>
<polygon fill="midnightblue" stroke="midnightblue" points="131.775,-193.915 123.158,-187.751 126.051,-197.943 131.775,-193.915"/>
</g>
<!-- Node3&#45;&gt;Node9 -->
<g id="edge8" class="edge"><title>Node3&#45;&gt;Node9</title>
<path fill="none" stroke="midnightblue" d="M176.233,-224.444C198.384,-215.517 233.319,-201.439 258.436,-191.317"/>
<polygon fill="midnightblue" stroke="midnightblue" points="259.9,-194.501 267.867,-187.516 257.283,-188.008 259.9,-194.501"/>
</g>
<!-- Node5 -->
<g id="node5" class="node"><title>Node5</title>
<g id="a_node5"><a xlink:href="Phase_8h.html" target="_top" xlink:title="Header file for class Phase. ">
<polygon fill="white" stroke="red" points="47.5,-112.5 47.5,-131.5 98.5,-131.5 98.5,-112.5 47.5,-112.5"/>
<text text-anchor="middle" x="73" y="-119.5" font-family="FreeSans" font-size="10.00">Phase.h</text>
</a>
</g>
</g>
<!-- Node4&#45;&gt;Node5 -->
<g id="edge4" class="edge"><title>Node4&#45;&gt;Node5</title>
<path fill="none" stroke="midnightblue" d="M109.734,-168.083C103.455,-160.377 94.2124,-149.033 86.5692,-139.653"/>
<polygon fill="midnightblue" stroke="midnightblue" points="89.1606,-137.293 80.1305,-131.751 83.7339,-141.714 89.1606,-137.293"/>
</g>
<!-- Node6 -->
<g id="node6" class="node"><title>Node6</title>
<g id="a_node6"><a xlink:href="SpeciesThermo_8h.html" target="_top" xlink:title="Virtual base class for the calculation of multiple&#45;species thermodynamic reference&#45;state property man...">
<polygon fill="white" stroke="black" points="117,-112.5 117,-131.5 209,-131.5 209,-112.5 117,-112.5"/>
<text text-anchor="middle" x="163" y="-119.5" font-family="FreeSans" font-size="10.00">SpeciesThermo.h</text>
</a>
</g>
</g>
<!-- Node4&#45;&gt;Node6 -->
<g id="edge5" class="edge"><title>Node4&#45;&gt;Node6</title>
<path fill="none" stroke="midnightblue" d="M124.596,-168.083C131.227,-160.298 141.021,-148.801 149.058,-139.367"/>
<polygon fill="midnightblue" stroke="midnightblue" points="151.725,-141.633 155.545,-131.751 146.396,-137.094 151.725,-141.633"/>
</g>
<!-- Node7 -->
<g id="node7" class="node"><title>Node7</title>
<g id="a_node7"><a xlink:href="ct__defs_8h.html" target="_top" xlink:title="This file contains definitions of terms that are used in internal routines and are unlikely to need m...">
<polygon fill="white" stroke="red" points="172,-56.5 172,-75.5 228,-75.5 228,-56.5 172,-56.5"/>
<text text-anchor="middle" x="200" y="-63.5" font-family="FreeSans" font-size="10.00">ct_defs.h</text>
</a>
</g>
</g>
<!-- Node6&#45;&gt;Node7 -->
<g id="edge6" class="edge"><title>Node6&#45;&gt;Node7</title>
<path fill="none" stroke="midnightblue" d="M169.11,-112.083C174.282,-104.534 181.846,-93.4948 188.194,-84.2298"/>
<polygon fill="midnightblue" stroke="midnightblue" points="191.239,-85.9787 194.004,-75.7511 185.464,-82.0221 191.239,-85.9787"/>
</g>
<!-- Node8 -->
<g id="node8" class="node"><title>Node8</title>
<polygon fill="white" stroke="#bfbfbf" points="112.5,-0.5 112.5,-19.5 155.5,-19.5 155.5,-0.5 112.5,-0.5"/>
<text text-anchor="middle" x="134" y="-7.5" font-family="FreeSans" font-size="10.00">vector</text>
</g>
<!-- Node7&#45;&gt;Node8 -->
<g id="edge7" class="edge"><title>Node7&#45;&gt;Node8</title>
<path fill="none" stroke="midnightblue" d="M189.396,-56.324C179.544,-48.2631 164.649,-36.0765 152.785,-26.3695"/>
<polygon fill="midnightblue" stroke="midnightblue" points="154.753,-23.4575 144.797,-19.8339 150.32,-28.8752 154.753,-23.4575"/>
</g>
<!-- Node9&#45;&gt;Node7 -->
<g id="edge9" class="edge"><title>Node9&#45;&gt;Node7</title>
<path fill="none" stroke="midnightblue" d="M282.016,-168.368C267.264,-150.135 232.708,-107.426 213.492,-83.6752"/>
<polygon fill="midnightblue" stroke="midnightblue" points="215.962,-81.164 206.951,-75.5914 210.52,-85.567 215.962,-81.164"/>
</g>
<!-- Node10 -->
<g id="node10" class="node"><title>Node10</title>
<g id="a_node10"><a xlink:href="Array_8h.html" target="_top" xlink:title="Header file for class Cantera::Array2D. ">
<polygon fill="white" stroke="red" points="265.5,-112.5 265.5,-131.5 312.5,-131.5 312.5,-112.5 265.5,-112.5"/>
<text text-anchor="middle" x="289" y="-119.5" font-family="FreeSans" font-size="10.00">Array.h</text>
</a>
</g>
</g>
<!-- Node9&#45;&gt;Node10 -->
<g id="edge10" class="edge"><title>Node9&#45;&gt;Node10</title>
<path fill="none" stroke="midnightblue" d="M289,-168.083C289,-161.006 289,-150.861 289,-141.986"/>
<polygon fill="midnightblue" stroke="midnightblue" points="292.5,-141.751 289,-131.751 285.5,-141.751 292.5,-141.751"/>
</g>
<!-- Node10&#45;&gt;Node7 -->
<g id="edge11" class="edge"><title>Node10&#45;&gt;Node7</title>
<path fill="none" stroke="midnightblue" d="M274.701,-112.324C260.817,-103.9 239.508,-90.9709 223.196,-81.0741"/>
<polygon fill="midnightblue" stroke="midnightblue" points="224.629,-77.8495 214.264,-75.6545 220.998,-83.8341 224.629,-77.8495"/>
</g>
<!-- Node11&#45;&gt;Node8 -->
<g id="edge13" class="edge"><title>Node11&#45;&gt;Node8</title>
<path fill="none" stroke="midnightblue" d="M78.604,-56.324C88.4562,-48.2631 103.351,-36.0765 115.215,-26.3695"/>
<polygon fill="midnightblue" stroke="midnightblue" points="117.68,-28.8752 123.203,-19.8339 113.247,-23.4575 117.68,-28.8752"/>
</g>
</g>
</svg>
