<?xml version="1.0" encoding="UTF-8" standalone="no"?>
<!DOCTYPE svg PUBLIC "-//W3C//DTD SVG 1.1//EN"
 "http://www.w3.org/Graphics/SVG/1.1/DTD/svg11.dtd">
<!-- Generated by graphviz version 2.36.0 (20140111.2315)
 -->
<!-- Title: SquareMatrix.h Pages: 1 -->
<svg width="549pt" height="308pt"
 viewBox="0.00 0.00 549.00 308.00" xmlns="http://www.w3.org/2000/svg" xmlns:xlink="http://www.w3.org/1999/xlink">
<g id="graph0" class="graph" transform="scale(1 1) rotate(0) translate(4 304)">
<title>SquareMatrix.h</title>
<polygon fill="white" stroke="none" points="-4,4 -4,-304 545,-304 545,4 -4,4"/>
<!-- Node1 -->
<g id="node1" class="node"><title>Node1</title>
<polygon fill="#bfbfbf" stroke="black" points="344.5,-280.5 344.5,-299.5 425.5,-299.5 425.5,-280.5 344.5,-280.5"/>
<text text-anchor="middle" x="385" y="-287.5" font-family="FreeSans" font-size="10.00">SquareMatrix.h</text>
</g>
<!-- Node2 -->
<g id="node2" class="node"><title>Node2</title>
<g id="a_node2"><a xlink:href="DenseMatrix_8h.html" target="_top" xlink:title="Headers for the DenseMatrix object, which deals with dense rectangular matrices and description of th...">
<polygon fill="white" stroke="black" points="312.5,-224.5 312.5,-243.5 389.5,-243.5 389.5,-224.5 312.5,-224.5"/>
<text text-anchor="middle" x="351" y="-231.5" font-family="FreeSans" font-size="10.00">DenseMatrix.h</text>
</a>
</g>
</g>
<!-- Node1&#45;&gt;Node2 -->
<g id="edge1" class="edge"><title>Node1&#45;&gt;Node2</title>
<path fill="none" stroke="midnightblue" d="M379.386,-280.083C374.633,-272.534 367.682,-261.495 361.848,-252.23"/>
<polygon fill="midnightblue" stroke="midnightblue" points="364.8,-250.349 356.51,-243.751 358.876,-254.078 364.8,-250.349"/>
</g>
<!-- Node17 -->
<g id="node17" class="node"><title>Node17</title>
<g id="a_node17"><a xlink:href="GeneralMatrix_8h.html" target="_top" xlink:title="Declarations for the class GeneralMatrix which is a virtual base class for matrices handled by solver...">
<polygon fill="white" stroke="black" points="379,-168.5 379,-187.5 463,-187.5 463,-168.5 379,-168.5"/>
<text text-anchor="middle" x="421" y="-175.5" font-family="FreeSans" font-size="10.00">GeneralMatrix.h</text>
</a>
</g>
</g>
<!-- Node1&#45;&gt;Node17 -->
<g id="edge20" class="edge"><title>Node1&#45;&gt;Node17</title>
<path fill="none" stroke="midnightblue" d="M387.825,-280.368C393.661,-262.537 407.158,-221.295 415.02,-197.272"/>
<polygon fill="midnightblue" stroke="midnightblue" points="418.404,-198.184 418.188,-187.591 411.751,-196.007 418.404,-198.184"/>
</g>
<!-- Node3 -->
<g id="node3" class="node"><title>Node3</title>
<g id="a_node3"><a xlink:href="ct__defs_8h.html" target="_top" xlink:title="This file contains definitions of terms that are used in internal routines and are unlikely to need m...">
<polygon fill="white" stroke="black" points="275,-56.5 275,-75.5 389,-75.5 389,-56.5 275,-56.5"/>
<text text-anchor="middle" x="332" y="-63.5" font-family="FreeSans" font-size="10.00">cantera/base/ct_defs.h</text>
</a>
</g>
</g>
<!-- Node2&#45;&gt;Node3 -->
<g id="edge2" class="edge"><title>Node2&#45;&gt;Node3</title>
<path fill="none" stroke="midnightblue" d="M349.978,-224.075C346.988,-197.945 338.205,-121.211 334.126,-85.577"/>
<polygon fill="midnightblue" stroke="midnightblue" points="337.595,-85.1052 332.981,-75.5681 330.641,-85.9013 337.595,-85.1052"/>
</g>
<!-- Node11 -->
<g id="node11" class="node"><title>Node11</title>
<g id="a_node11"><a xlink:href="Array_8h.html" target="_top" xlink:title="Header file for class Cantera::Array2D. ">
<polygon fill="white" stroke="black" points="171.5,-168.5 171.5,-187.5 276.5,-187.5 276.5,-168.5 171.5,-168.5"/>
<text text-anchor="middle" x="224" y="-175.5" font-family="FreeSans" font-size="10.00">cantera/base/Array.h</text>
</a>
</g>
</g>
<!-- Node2&#45;&gt;Node11 -->
<g id="edge10" class="edge"><title>Node2&#45;&gt;Node11</title>
<path fill="none" stroke="midnightblue" d="M330.876,-224.444C309.976,-215.557 277.065,-201.563 253.284,-191.451"/>
<polygon fill="midnightblue" stroke="midnightblue" points="254.602,-188.208 244.029,-187.516 251.862,-194.65 254.602,-188.208"/>
</g>
<!-- Node4 -->
<g id="node4" class="node"><title>Node4</title>
<g id="a_node4"><a xlink:href="config_8h_source.html" target="_top" xlink:title="config.h">
<polygon fill="white" stroke="black" points="368,-0.5 368,-19.5 418,-19.5 418,-0.5 368,-0.5"/>
<text text-anchor="middle" x="393" y="-7.5" font-family="FreeSans" font-size="10.00">config.h</text>
</a>
</g>
</g>
<!-- Node3&#45;&gt;Node4 -->
<g id="edge3" class="edge"><title>Node3&#45;&gt;Node4</title>
<path fill="none" stroke="midnightblue" d="M341.801,-56.324C350.818,-48.3414 364.406,-36.3128 375.318,-26.6529"/>
<polygon fill="midnightblue" stroke="midnightblue" points="377.853,-29.083 383.021,-19.8339 373.213,-23.8416 377.853,-29.083"/>
</g>
<!-- Node5 -->
<g id="node5" class="node"><title>Node5</title>
<polygon fill="white" stroke="#bfbfbf" points="436,-0.5 436,-19.5 480,-19.5 480,-0.5 436,-0.5"/>
<text text-anchor="middle" x="458" y="-7.5" font-family="FreeSans" font-size="10.00">cmath</text>
</g>
<!-- Node3&#45;&gt;Node5 -->
<g id="edge4" class="edge"><title>Node3&#45;&gt;Node5</title>
<path fill="none" stroke="midnightblue" d="M351.965,-56.4435C372.609,-47.5961 405.063,-33.6875 428.632,-23.5865"/>
<polygon fill="midnightblue" stroke="midnightblue" points="430.316,-26.6727 438.128,-19.5164 427.558,-20.2387 430.316,-26.6727"/>
</g>
<!-- Node6 -->
<g id="node6" class="node"><title>Node6</title>
<polygon fill="white" stroke="#bfbfbf" points="498,-0.5 498,-19.5 542,-19.5 542,-0.5 498,-0.5"/>
<text text-anchor="middle" x="520" y="-7.5" font-family="FreeSans" font-size="10.00">cstdlib</text>
</g>
<!-- Node3&#45;&gt;Node6 -->
<g id="edge5" class="edge"><title>Node3&#45;&gt;Node6</title>
<path fill="none" stroke="midnightblue" d="M361.789,-56.4435C396.279,-46.5369 452.861,-30.2846 488.188,-20.1375"/>
<polygon fill="midnightblue" stroke="midnightblue" points="489.342,-23.4477 497.987,-17.323 487.409,-16.7198 489.342,-23.4477"/>
</g>
<!-- Node7 -->
<g id="node7" class="node"><title>Node7</title>
<polygon fill="white" stroke="#bfbfbf" points="253.5,-0.5 253.5,-19.5 296.5,-19.5 296.5,-0.5 253.5,-0.5"/>
<text text-anchor="middle" x="275" y="-7.5" font-family="FreeSans" font-size="10.00">vector</text>
</g>
<!-- Node3&#45;&gt;Node7 -->
<g id="edge6" class="edge"><title>Node3&#45;&gt;Node7</title>
<path fill="none" stroke="midnightblue" d="M322.842,-56.324C314.499,-48.4196 301.968,-36.5482 291.823,-26.9377"/>
<polygon fill="midnightblue" stroke="midnightblue" points="293.991,-24.1705 284.325,-19.8339 289.177,-29.2522 293.991,-24.1705"/>
</g>
<!-- Node8 -->
<g id="node8" class="node"><title>Node8</title>
<polygon fill="white" stroke="#bfbfbf" points="314.5,-0.5 314.5,-19.5 349.5,-19.5 349.5,-0.5 314.5,-0.5"/>
<text text-anchor="middle" x="332" y="-7.5" font-family="FreeSans" font-size="10.00">map</text>
</g>
<!-- Node3&#45;&gt;Node8 -->
<g id="edge7" class="edge"><title>Node3&#45;&gt;Node8</title>
<path fill="none" stroke="midnightblue" d="M332,-56.083C332,-49.0059 332,-38.8611 332,-29.9865"/>
<polygon fill="midnightblue" stroke="midnightblue" points="335.5,-29.751 332,-19.7511 328.5,-29.7511 335.5,-29.751"/>
</g>
<!-- Node9 -->
<g id="node9" class="node"><title>Node9</title>
<polygon fill="white" stroke="#bfbfbf" points="110,-0.5 110,-19.5 150,-19.5 150,-0.5 110,-0.5"/>
<text text-anchor="middle" x="130" y="-7.5" font-family="FreeSans" font-size="10.00">string</text>
</g>
<!-- Node3&#45;&gt;Node9 -->
<g id="edge8" class="edge"><title>Node3&#45;&gt;Node9</title>
<path fill="none" stroke="midnightblue" d="M299.992,-56.4435C261.555,-46.1681 197.58,-29.066 160.04,-19.0305"/>
<polygon fill="midnightblue" stroke="midnightblue" points="160.76,-15.6003 150.196,-16.3989 158.953,-22.3628 160.76,-15.6003"/>
</g>
<!-- Node10 -->
<g id="node10" class="node"><title>Node10</title>
<polygon fill="white" stroke="#bfbfbf" points="179,-0.5 179,-19.5 235,-19.5 235,-0.5 179,-0.5"/>
<text text-anchor="middle" x="207" y="-7.5" font-family="FreeSans" font-size="10.00">algorithm</text>
</g>
<!-- Node3&#45;&gt;Node10 -->
<g id="edge9" class="edge"><title>Node3&#45;&gt;Node10</title>
<path fill="none" stroke="midnightblue" d="M312.193,-56.4435C291.713,-47.5961 259.517,-33.6875 236.135,-23.5865"/>
<polygon fill="midnightblue" stroke="midnightblue" points="237.282,-20.2692 226.714,-19.5164 234.506,-26.6953 237.282,-20.2692"/>
</g>
<!-- Node11&#45;&gt;Node3 -->
<g id="edge11" class="edge"><title>Node11&#45;&gt;Node3</title>
<path fill="none" stroke="midnightblue" d="M242.049,-168.447C257.262,-160.575 278.904,-147.749 294,-132 307.119,-118.314 317.57,-99.2731 324.165,-85.3371"/>
<polygon fill="midnightblue" stroke="midnightblue" points="327.523,-86.4039 328.437,-75.8486 321.14,-83.53 327.523,-86.4039"/>
</g>
<!-- Node12 -->
<g id="node12" class="node"><title>Node12</title>
<g id="a_node12"><a xlink:href="ctexceptions_8h.html" target="_top" xlink:title="Definitions for the classes that are thrown when Cantera experiences an error condition (also contain...">
<polygon fill="white" stroke="black" points="0,-112.5 0,-131.5 78,-131.5 78,-112.5 0,-112.5"/>
<text text-anchor="middle" x="39" y="-119.5" font-family="FreeSans" font-size="10.00">ctexceptions.h</text>
</a>
</g>
</g>
<!-- Node11&#45;&gt;Node12 -->
<g id="edge12" class="edge"><title>Node11&#45;&gt;Node12</title>
<path fill="none" stroke="midnightblue" d="M194.686,-168.444C163.158,-159.241 112.869,-144.562 78.0143,-134.388"/>
<polygon fill="midnightblue" stroke="midnightblue" points="78.7568,-130.959 68.1767,-131.516 76.7954,-137.678 78.7568,-130.959"/>
</g>
<!-- Node14 -->
<g id="node14" class="node"><title>Node14</title>
<g id="a_node14"><a xlink:href="utilities_8h.html" target="_top" xlink:title="Various templated functions that carry out common vector operations (see Templated Utility Functions)...">
<polygon fill="white" stroke="black" points="231,-112.5 231,-131.5 285,-131.5 285,-112.5 231,-112.5"/>
<text text-anchor="middle" x="258" y="-119.5" font-family="FreeSans" font-size="10.00">utilities.h</text>
</a>
</g>
</g>
<!-- Node11&#45;&gt;Node14 -->
<g id="edge15" class="edge"><title>Node11&#45;&gt;Node14</title>
<path fill="none" stroke="midnightblue" d="M229.614,-168.083C234.367,-160.534 241.318,-149.495 247.152,-140.23"/>
<polygon fill="midnightblue" stroke="midnightblue" points="250.124,-142.078 252.49,-131.751 244.2,-138.349 250.124,-142.078"/>
</g>
<!-- Node15 -->
<g id="node15" class="node"><title>Node15</title>
<polygon fill="white" stroke="#bfbfbf" points="96.5,-112.5 96.5,-131.5 149.5,-131.5 149.5,-112.5 96.5,-112.5"/>
<text text-anchor="middle" x="123" y="-119.5" font-family="FreeSans" font-size="10.00">iostream</text>
</g>
<!-- Node11&#45;&gt;Node15 -->
<g id="edge18" class="edge"><title>Node11&#45;&gt;Node15</title>
<path fill="none" stroke="midnightblue" d="M207.773,-168.324C191.649,-159.703 166.7,-146.364 148.036,-136.386"/>
<polygon fill="midnightblue" stroke="midnightblue" points="149.656,-133.283 139.187,-131.655 146.356,-139.456 149.656,-133.283"/>
</g>
<!-- Node16 -->
<g id="node16" class="node"><title>Node16</title>
<polygon fill="white" stroke="#bfbfbf" points="167.5,-112.5 167.5,-131.5 212.5,-131.5 212.5,-112.5 167.5,-112.5"/>
<text text-anchor="middle" x="190" y="-119.5" font-family="FreeSans" font-size="10.00">cstring</text>
</g>
<!-- Node11&#45;&gt;Node16 -->
<g id="edge19" class="edge"><title>Node11&#45;&gt;Node16</title>
<path fill="none" stroke="midnightblue" d="M218.386,-168.083C213.633,-160.534 206.682,-149.495 200.848,-140.23"/>
<polygon fill="midnightblue" stroke="midnightblue" points="203.8,-138.349 195.51,-131.751 197.876,-142.078 203.8,-138.349"/>
</g>
<!-- Node12&#45;&gt;Node9 -->
<g id="edge14" class="edge"><title>Node12&#45;&gt;Node9</title>
<path fill="none" stroke="midnightblue" d="M46.1406,-112.368C61.2911,-94.0547 96.8686,-51.0489 116.464,-27.3624"/>
<polygon fill="midnightblue" stroke="midnightblue" points="119.215,-29.5276 122.893,-19.5914 113.821,-25.0656 119.215,-29.5276"/>
</g>
<!-- Node13 -->
<g id="node13" class="node"><title>Node13</title>
<polygon fill="white" stroke="#bfbfbf" points="10,-56.5 10,-75.5 68,-75.5 68,-56.5 10,-56.5"/>
<text text-anchor="middle" x="39" y="-63.5" font-family="FreeSans" font-size="10.00">exception</text>
</g>
<!-- Node12&#45;&gt;Node13 -->
<g id="edge13" class="edge"><title>Node12&#45;&gt;Node13</title>
<path fill="none" stroke="midnightblue" d="M39,-112.083C39,-105.006 39,-94.8611 39,-85.9865"/>
<polygon fill="midnightblue" stroke="midnightblue" points="42.5001,-85.751 39,-75.7511 35.5001,-85.7511 42.5001,-85.751"/>
</g>
<!-- Node14&#45;&gt;Node3 -->
<g id="edge16" class="edge"><title>Node14&#45;&gt;Node3</title>
<path fill="none" stroke="midnightblue" d="M269.889,-112.324C281.15,-104.107 298.287,-91.6017 311.709,-81.8069"/>
<polygon fill="midnightblue" stroke="midnightblue" points="313.88,-84.5559 319.894,-75.8339 309.753,-78.9014 313.88,-84.5559"/>
</g>
<!-- Node14&#45;&gt;Node10 -->
<g id="edge17" class="edge"><title>Node14&#45;&gt;Node10</title>
<path fill="none" stroke="midnightblue" d="M253.998,-112.368C245.693,-94.4563 226.437,-52.9233 215.321,-28.9482"/>
<polygon fill="midnightblue" stroke="midnightblue" points="218.365,-27.1916 210.983,-19.5914 212.014,-30.136 218.365,-27.1916"/>
</g>
<!-- Node17&#45;&gt;Node3 -->
<g id="edge21" class="edge"><title>Node17&#45;&gt;Node3</title>
<path fill="none" stroke="midnightblue" d="M414.016,-168.368C399.264,-150.135 364.708,-107.426 345.492,-83.6752"/>
<polygon fill="midnightblue" stroke="midnightblue" points="347.962,-81.164 338.951,-75.5914 342.52,-85.567 347.962,-81.164"/>
</g>
</g>
</svg>
