<?xml version="1.0" encoding="UTF-8" standalone="no"?>
<!DOCTYPE svg PUBLIC "-//W3C//DTD SVG 1.1//EN"
 "http://www.w3.org/Graphics/SVG/1.1/DTD/svg11.dtd">
<!-- Generated by graphviz version 2.36.0 (20140111.2315)
 -->
<!-- Title: StoichSubstanceSSTP.cpp Pages: 1 -->
<svg width="647pt" height="388pt"
 viewBox="0.00 0.00 647.00 388.00" xmlns="http://www.w3.org/2000/svg" xmlns:xlink="http://www.w3.org/1999/xlink">
<g id="graph0" class="graph" transform="scale(1 1) rotate(0) translate(4 384)">
<title>StoichSubstanceSSTP.cpp</title>
<polygon fill="white" stroke="none" points="-4,4 -4,-384 643,-384 643,4 -4,4"/>
<!-- Node1 -->
<g id="node1" class="node"><title>Node1</title>
<polygon fill="#bfbfbf" stroke="black" points="180,-360.5 180,-379.5 314,-379.5 314,-360.5 180,-360.5"/>
<text text-anchor="middle" x="247" y="-367.5" font-family="FreeSans" font-size="10.00">StoichSubstanceSSTP.cpp</text>
</g>
<!-- Node2 -->
<g id="node2" class="node"><title>Node2</title>
<g id="a_node2"><a xlink:href="ct__defs_8h.html" target="_top" xlink:title="This file contains definitions of terms that are used in internal routines and are unlikely to need m...">
<polygon fill="white" stroke="black" points="112,-56.5 112,-75.5 226,-75.5 226,-56.5 112,-56.5"/>
<text text-anchor="middle" x="169" y="-63.5" font-family="FreeSans" font-size="10.00">cantera/base/ct_defs.h</text>
</a>
</g>
</g>
<!-- Node1&#45;&gt;Node2 -->
<g id="edge1" class="edge"><title>Node1&#45;&gt;Node2</title>
<path fill="none" stroke="midnightblue" d="M213.577,-360.428C191.575,-353.465 163.211,-341.831 143,-324 110.877,-295.659 94,-283.838 94,-241 94,-241 94,-241 94,-177 94,-146.775 97.139,-137.086 114,-112 122.254,-99.7191 134.847,-89.0682 145.9,-81.2155"/>
<polygon fill="midnightblue" stroke="midnightblue" points="147.986,-84.0307 154.323,-75.5401 144.074,-78.2256 147.986,-84.0307"/>
</g>
<!-- Node10 -->
<g id="node10" class="node"><title>Node10</title>
<g id="a_node10"><a xlink:href="mix__defs_8h.html" target="_top" xlink:title="cantera/thermo/mix\l_defs.h">
<polygon fill="white" stroke="black" points="314,-225 314,-255 414,-255 414,-225 314,-225"/>
<text text-anchor="start" x="322" y="-243" font-family="FreeSans" font-size="10.00">cantera/thermo/mix</text>
<text text-anchor="middle" x="364" y="-232" font-family="FreeSans" font-size="10.00">_defs.h</text>
</a>
</g>
</g>
<!-- Node1&#45;&gt;Node10 -->
<g id="edge9" class="edge"><title>Node1&#45;&gt;Node10</title>
<path fill="none" stroke="midnightblue" d="M275.548,-360.375C294.452,-353.339 318.524,-341.64 334,-324 348.545,-307.421 356.218,-283.246 360.148,-265.257"/>
<polygon fill="midnightblue" stroke="midnightblue" points="363.625,-265.717 362.097,-255.233 356.753,-264.382 363.625,-265.717"/>
</g>
<!-- Node11 -->
<g id="node11" class="node"><title>Node11</title>
<g id="a_node11"><a xlink:href="StoichSubstanceSSTP_8h.html" target="_top" xlink:title="Header file for the StoichSubstanceSSTP class, which represents a fixed&#45;composition incompressible su...">
<polygon fill="white" stroke="black" points="168,-293 168,-323 326,-323 326,-293 168,-293"/>
<text text-anchor="start" x="176" y="-311" font-family="FreeSans" font-size="10.00">cantera/thermo/StoichSubstance</text>
<text text-anchor="middle" x="247" y="-300" font-family="FreeSans" font-size="10.00">SSTP.h</text>
</a>
</g>
</g>
<!-- Node1&#45;&gt;Node11 -->
<g id="edge10" class="edge"><title>Node1&#45;&gt;Node11</title>
<path fill="none" stroke="midnightblue" d="M247,-360.403C247,-353.341 247,-342.975 247,-333.399"/>
<polygon fill="midnightblue" stroke="midnightblue" points="250.5,-333.141 247,-323.141 243.5,-333.141 250.5,-333.141"/>
</g>
<!-- Node15 -->
<g id="node15" class="node"><title>Node15</title>
<g id="a_node15"><a xlink:href="SpeciesThermo_8h.html" target="_top" xlink:title="Virtual base class for the calculation of multiple&#45;species thermodynamic reference&#45;state property man...">
<polygon fill="white" stroke="black" points="123,-112.5 123,-131.5 215,-131.5 215,-112.5 123,-112.5"/>
<text text-anchor="middle" x="169" y="-119.5" font-family="FreeSans" font-size="10.00">SpeciesThermo.h</text>
</a>
</g>
</g>
<!-- Node1&#45;&gt;Node15 -->
<g id="edge18" class="edge"><title>Node1&#45;&gt;Node15</title>
<path fill="none" stroke="midnightblue" d="M211.148,-360.397C192.119,-353.81 170.373,-342.589 159,-324 123.319,-265.679 148.029,-179.075 161.654,-141.504"/>
<polygon fill="midnightblue" stroke="midnightblue" points="165.028,-142.476 165.296,-131.885 158.482,-139.997 165.028,-142.476"/>
</g>
<!-- Node16 -->
<g id="node16" class="node"><title>Node16</title>
<g id="a_node16"><a xlink:href="ThermoFactory_8h.html" target="_top" xlink:title="Headers for the factory class that can create known ThermoPhase objects (see Thermodynamic Properties...">
<polygon fill="white" stroke="black" points="432,-230.5 432,-249.5 590,-249.5 590,-230.5 432,-230.5"/>
<text text-anchor="middle" x="511" y="-237.5" font-family="FreeSans" font-size="10.00">cantera/thermo/ThermoFactory.h</text>
</a>
</g>
</g>
<!-- Node1&#45;&gt;Node16 -->
<g id="edge19" class="edge"><title>Node1&#45;&gt;Node16</title>
<path fill="none" stroke="midnightblue" d="M270.059,-360.387C292.53,-351.803 327.523,-337.925 357,-324 404.33,-301.641 457.731,-271.769 487.577,-254.633"/>
<polygon fill="midnightblue" stroke="midnightblue" points="489.488,-257.571 496.402,-249.543 485.991,-251.508 489.488,-257.571"/>
</g>
<!-- Node3 -->
<g id="node3" class="node"><title>Node3</title>
<g id="a_node3"><a xlink:href="config_8h_source.html" target="_top" xlink:title="config.h">
<polygon fill="white" stroke="black" points="425,-0.5 425,-19.5 475,-19.5 475,-0.5 425,-0.5"/>
<text text-anchor="middle" x="450" y="-7.5" font-family="FreeSans" font-size="10.00">config.h</text>
</a>
</g>
</g>
<!-- Node2&#45;&gt;Node3 -->
<g id="edge2" class="edge"><title>Node2&#45;&gt;Node3</title>
<path fill="none" stroke="midnightblue" d="M213.525,-56.4435C269.41,-45.704 364.101,-27.5073 415.056,-17.7152"/>
<polygon fill="midnightblue" stroke="midnightblue" points="415.778,-21.1406 424.938,-15.8162 414.457,-14.2664 415.778,-21.1406"/>
</g>
<!-- Node4 -->
<g id="node4" class="node"><title>Node4</title>
<polygon fill="white" stroke="#bfbfbf" points="185,-0.5 185,-19.5 229,-19.5 229,-0.5 185,-0.5"/>
<text text-anchor="middle" x="207" y="-7.5" font-family="FreeSans" font-size="10.00">cmath</text>
</g>
<!-- Node2&#45;&gt;Node4 -->
<g id="edge3" class="edge"><title>Node2&#45;&gt;Node4</title>
<path fill="none" stroke="midnightblue" d="M175.275,-56.083C180.642,-48.4554 188.518,-37.2645 195.079,-27.9408"/>
<polygon fill="midnightblue" stroke="midnightblue" points="197.949,-29.9434 200.842,-19.7511 192.225,-25.9149 197.949,-29.9434"/>
</g>
<!-- Node5 -->
<g id="node5" class="node"><title>Node5</title>
<polygon fill="white" stroke="#bfbfbf" points="247,-0.5 247,-19.5 291,-19.5 291,-0.5 247,-0.5"/>
<text text-anchor="middle" x="269" y="-7.5" font-family="FreeSans" font-size="10.00">cstdlib</text>
</g>
<!-- Node2&#45;&gt;Node5 -->
<g id="edge4" class="edge"><title>Node2&#45;&gt;Node5</title>
<path fill="none" stroke="midnightblue" d="M185.067,-56.324C200.958,-47.7428 225.507,-34.486 243.958,-24.5224"/>
<polygon fill="midnightblue" stroke="midnightblue" points="245.837,-27.4857 252.973,-19.6545 242.511,-21.3264 245.837,-27.4857"/>
</g>
<!-- Node6 -->
<g id="node6" class="node"><title>Node6</title>
<polygon fill="white" stroke="#bfbfbf" points="309.5,-0.5 309.5,-19.5 352.5,-19.5 352.5,-0.5 309.5,-0.5"/>
<text text-anchor="middle" x="331" y="-7.5" font-family="FreeSans" font-size="10.00">vector</text>
</g>
<!-- Node2&#45;&gt;Node6 -->
<g id="edge5" class="edge"><title>Node2&#45;&gt;Node6</title>
<path fill="none" stroke="midnightblue" d="M194.669,-56.4435C223.125,-46.9583 269.032,-31.656 299.606,-21.4647"/>
<polygon fill="midnightblue" stroke="midnightblue" points="300.959,-24.703 309.339,-18.2203 298.745,-18.0623 300.959,-24.703"/>
</g>
<!-- Node7 -->
<g id="node7" class="node"><title>Node7</title>
<polygon fill="white" stroke="#bfbfbf" points="-0.5,-0.5 -0.5,-19.5 34.5,-19.5 34.5,-0.5 -0.5,-0.5"/>
<text text-anchor="middle" x="17" y="-7.5" font-family="FreeSans" font-size="10.00">map</text>
</g>
<!-- Node2&#45;&gt;Node7 -->
<g id="edge6" class="edge"><title>Node2&#45;&gt;Node7</title>
<path fill="none" stroke="midnightblue" d="M144.915,-56.4435C117.628,-46.7494 73.2378,-30.9792 44.5825,-20.799"/>
<polygon fill="midnightblue" stroke="midnightblue" points="45.3927,-17.3726 34.798,-17.323 43.0493,-23.9687 45.3927,-17.3726"/>
</g>
<!-- Node8 -->
<g id="node8" class="node"><title>Node8</title>
<polygon fill="white" stroke="#bfbfbf" points="53,-0.5 53,-19.5 93,-19.5 93,-0.5 53,-0.5"/>
<text text-anchor="middle" x="73" y="-7.5" font-family="FreeSans" font-size="10.00">string</text>
</g>
<!-- Node2&#45;&gt;Node8 -->
<g id="edge7" class="edge"><title>Node2&#45;&gt;Node8</title>
<path fill="none" stroke="midnightblue" d="M153.576,-56.324C138.46,-47.8215 115.185,-34.7288 97.5288,-24.7975"/>
<polygon fill="midnightblue" stroke="midnightblue" points="98.8175,-21.5066 88.3858,-19.6545 95.3856,-27.6077 98.8175,-21.5066"/>
</g>
<!-- Node9 -->
<g id="node9" class="node"><title>Node9</title>
<polygon fill="white" stroke="#bfbfbf" points="111,-0.5 111,-19.5 167,-19.5 167,-0.5 111,-0.5"/>
<text text-anchor="middle" x="139" y="-7.5" font-family="FreeSans" font-size="10.00">algorithm</text>
</g>
<!-- Node2&#45;&gt;Node9 -->
<g id="edge8" class="edge"><title>Node2&#45;&gt;Node9</title>
<path fill="none" stroke="midnightblue" d="M164.046,-56.083C159.896,-48.6127 153.847,-37.7244 148.733,-28.5199"/>
<polygon fill="midnightblue" stroke="midnightblue" points="151.778,-26.7929 143.862,-19.7511 145.659,-30.1924 151.778,-26.7929"/>
</g>
<!-- Node11&#45;&gt;Node10 -->
<g id="edge11" class="edge"><title>Node11&#45;&gt;Node10</title>
<path fill="none" stroke="midnightblue" d="M272.099,-292.841C289.064,-283.272 311.665,-270.523 330.208,-260.062"/>
<polygon fill="midnightblue" stroke="midnightblue" points="331.952,-263.097 338.942,-255.135 328.513,-257 331.952,-263.097"/>
</g>
<!-- Node12 -->
<g id="node12" class="node"><title>Node12</title>
<g id="a_node12"><a xlink:href="SingleSpeciesTP_8h.html" target="_top" xlink:title="Header for the SingleSpeciesTP class, which is a filter class for ThermoPhase, that eases the constru...">
<polygon fill="white" stroke="black" points="198,-230.5 198,-249.5 296,-249.5 296,-230.5 198,-230.5"/>
<text text-anchor="middle" x="247" y="-237.5" font-family="FreeSans" font-size="10.00">SingleSpeciesTP.h</text>
</a>
</g>
</g>
<!-- Node11&#45;&gt;Node12 -->
<g id="edge12" class="edge"><title>Node11&#45;&gt;Node12</title>
<path fill="none" stroke="midnightblue" d="M247,-292.679C247,-283.101 247,-270.394 247,-259.977"/>
<polygon fill="midnightblue" stroke="midnightblue" points="250.5,-259.828 247,-249.828 243.5,-259.828 250.5,-259.828"/>
</g>
<!-- Node11&#45;&gt;Node15 -->
<g id="edge17" class="edge"><title>Node11&#45;&gt;Node15</title>
<path fill="none" stroke="midnightblue" d="M224.164,-292.8C211.719,-283.817 197.219,-271.067 189,-256 168.942,-219.231 167.174,-168.692 167.912,-141.731"/>
<polygon fill="midnightblue" stroke="midnightblue" points="171.409,-141.868 168.336,-131.729 164.415,-141.572 171.409,-141.868"/>
</g>
<!-- Node13 -->
<g id="node13" class="node"><title>Node13</title>
<g id="a_node13"><a xlink:href="ThermoPhase_8h.html" target="_top" xlink:title="Header file for class ThermoPhase, the base class for phases with thermodynamic properties, and the text for the Module thermoprops (see Thermodynamic Properties and class ThermoPhase). ">
<polygon fill="white" stroke="black" points="212,-168.5 212,-187.5 296,-187.5 296,-168.5 212,-168.5"/>
<text text-anchor="middle" x="254" y="-175.5" font-family="FreeSans" font-size="10.00">ThermoPhase.h</text>
</a>
</g>
</g>
<!-- Node12&#45;&gt;Node13 -->
<g id="edge13" class="edge"><title>Node12&#45;&gt;Node13</title>
<path fill="none" stroke="midnightblue" d="M248.003,-230.403C248.991,-221.938 250.532,-208.728 251.804,-197.82"/>
<polygon fill="midnightblue" stroke="midnightblue" points="255.316,-197.919 252.999,-187.581 248.364,-197.108 255.316,-197.919"/>
</g>
<!-- Node14 -->
<g id="node14" class="node"><title>Node14</title>
<g id="a_node14"><a xlink:href="Phase_8h.html" target="_top" xlink:title="Header file for class Phase. ">
<polygon fill="white" stroke="red" points="233.5,-112.5 233.5,-131.5 284.5,-131.5 284.5,-112.5 233.5,-112.5"/>
<text text-anchor="middle" x="259" y="-119.5" font-family="FreeSans" font-size="10.00">Phase.h</text>
</a>
</g>
</g>
<!-- Node13&#45;&gt;Node14 -->
<g id="edge14" class="edge"><title>Node13&#45;&gt;Node14</title>
<path fill="none" stroke="midnightblue" d="M254.826,-168.083C255.481,-161.006 256.42,-150.861 257.242,-141.986"/>
<polygon fill="midnightblue" stroke="midnightblue" points="260.753,-142.031 258.19,-131.751 253.783,-141.386 260.753,-142.031"/>
</g>
<!-- Node13&#45;&gt;Node15 -->
<g id="edge15" class="edge"><title>Node13&#45;&gt;Node15</title>
<path fill="none" stroke="midnightblue" d="M240.343,-168.324C227.084,-159.9 206.732,-146.971 191.154,-137.074"/>
<polygon fill="midnightblue" stroke="midnightblue" points="192.94,-134.063 182.623,-131.655 189.187,-139.971 192.94,-134.063"/>
</g>
<!-- Node15&#45;&gt;Node2 -->
<g id="edge16" class="edge"><title>Node15&#45;&gt;Node2</title>
<path fill="none" stroke="midnightblue" d="M169,-112.083C169,-105.006 169,-94.8611 169,-85.9865"/>
<polygon fill="midnightblue" stroke="midnightblue" points="172.5,-85.751 169,-75.7511 165.5,-85.7511 172.5,-85.751"/>
</g>
<!-- Node16&#45;&gt;Node13 -->
<g id="edge20" class="edge"><title>Node16&#45;&gt;Node13</title>
<path fill="none" stroke="midnightblue" d="M474.451,-230.467C428.685,-219.783 350.241,-201.469 300.315,-189.813"/>
<polygon fill="midnightblue" stroke="midnightblue" points="300.957,-186.369 290.423,-187.503 299.365,-193.185 300.957,-186.369"/>
</g>
<!-- Node17 -->
<g id="node17" class="node"><title>Node17</title>
<g id="a_node17"><a xlink:href="xml_8h.html" target="_top" xlink:title="Classes providing support for XML data files. ">
<polygon fill="white" stroke="red" points="584.5,-168.5 584.5,-187.5 623.5,-187.5 623.5,-168.5 584.5,-168.5"/>
<text text-anchor="middle" x="604" y="-175.5" font-family="FreeSans" font-size="10.00">xml.h</text>
</a>
</g>
</g>
<!-- Node16&#45;&gt;Node17 -->
<g id="edge21" class="edge"><title>Node16&#45;&gt;Node17</title>
<path fill="none" stroke="midnightblue" d="M524.325,-230.403C539.38,-220.691 564.116,-204.732 582.037,-193.17"/>
<polygon fill="midnightblue" stroke="midnightblue" points="584.195,-195.943 590.7,-187.581 580.4,-190.061 584.195,-195.943"/>
</g>
<!-- Node18 -->
<g id="node18" class="node"><title>Node18</title>
<g id="a_node18"><a xlink:href="ct__thread_8h.html" target="_top" xlink:title="cantera/base/ct_thread.h">
<polygon fill="white" stroke="black" points="443.5,-168.5 443.5,-187.5 566.5,-187.5 566.5,-168.5 443.5,-168.5"/>
<text text-anchor="middle" x="505" y="-175.5" font-family="FreeSans" font-size="10.00">cantera/base/ct_thread.h</text>
</a>
</g>
</g>
<!-- Node16&#45;&gt;Node18 -->
<g id="edge22" class="edge"><title>Node16&#45;&gt;Node18</title>
<path fill="none" stroke="midnightblue" d="M510.14,-230.403C509.294,-221.938 507.973,-208.728 506.882,-197.82"/>
<polygon fill="midnightblue" stroke="midnightblue" points="510.336,-197.183 505.858,-187.581 503.371,-197.879 510.336,-197.183"/>
</g>
<!-- Node21 -->
<g id="node21" class="node"><title>Node21</title>
<g id="a_node21"><a xlink:href="FactoryBase_8h.html" target="_top" xlink:title="File contains the FactoryBase class declarations. ">
<polygon fill="white" stroke="black" points="262.5,-56.5 262.5,-75.5 399.5,-75.5 399.5,-56.5 262.5,-56.5"/>
<text text-anchor="middle" x="331" y="-63.5" font-family="FreeSans" font-size="10.00">cantera/base/FactoryBase.h</text>
</a>
</g>
</g>
<!-- Node16&#45;&gt;Node21 -->
<g id="edge26" class="edge"><title>Node16&#45;&gt;Node21</title>
<path fill="none" stroke="midnightblue" d="M489.2,-230.421C454.469,-215.634 386.759,-182.038 350,-132 340.103,-118.528 335.339,-99.969 333.058,-86.1302"/>
<polygon fill="midnightblue" stroke="midnightblue" points="336.475,-85.2734 331.669,-75.831 329.538,-86.2091 336.475,-85.2734"/>
</g>
<!-- Node18&#45;&gt;Node3 -->
<g id="edge23" class="edge"><title>Node18&#45;&gt;Node3</title>
<path fill="none" stroke="midnightblue" d="M502.381,-168.138C498.65,-155.597 491.532,-131.975 485,-112 475.466,-82.8446 463.652,-49.2325 456.478,-29.0736"/>
<polygon fill="midnightblue" stroke="midnightblue" points="459.758,-27.8526 453.099,-19.6122 453.166,-30.2068 459.758,-27.8526"/>
</g>
<!-- Node19 -->
<g id="node19" class="node"><title>Node19</title>
<polygon fill="white" stroke="#bfbfbf" points="533,-112.5 533,-131.5 639,-131.5 639,-112.5 533,-112.5"/>
<text text-anchor="middle" x="586" y="-119.5" font-family="FreeSans" font-size="10.00">boost/shared_ptr.hpp</text>
</g>
<!-- Node18&#45;&gt;Node19 -->
<g id="edge24" class="edge"><title>Node18&#45;&gt;Node19</title>
<path fill="none" stroke="midnightblue" d="M518.014,-168.324C530.532,-159.979 549.682,-147.212 564.471,-137.352"/>
<polygon fill="midnightblue" stroke="midnightblue" points="566.639,-140.114 573.018,-131.655 562.756,-134.289 566.639,-140.114"/>
</g>
<!-- Node20 -->
<g id="node20" class="node"><title>Node20</title>
<polygon fill="white" stroke="#bfbfbf" points="359.5,-112.5 359.5,-131.5 476.5,-131.5 476.5,-112.5 359.5,-112.5"/>
<text text-anchor="middle" x="418" y="-119.5" font-family="FreeSans" font-size="10.00">boost/thread/mutex.hpp</text>
</g>
<!-- Node18&#45;&gt;Node20 -->
<g id="edge25" class="edge"><title>Node18&#45;&gt;Node20</title>
<path fill="none" stroke="midnightblue" d="M491.022,-168.324C477.45,-159.9 456.62,-146.971 440.675,-137.074"/>
<polygon fill="midnightblue" stroke="midnightblue" points="442.286,-133.954 431.943,-131.655 438.594,-139.902 442.286,-133.954"/>
</g>
<!-- Node21&#45;&gt;Node6 -->
<g id="edge27" class="edge"><title>Node21&#45;&gt;Node6</title>
<path fill="none" stroke="midnightblue" d="M331,-56.083C331,-49.0059 331,-38.8611 331,-29.9865"/>
<polygon fill="midnightblue" stroke="midnightblue" points="334.5,-29.751 331,-19.7511 327.5,-29.7511 334.5,-29.751"/>
</g>
</g>
</svg>
