<?xml version="1.0" encoding="UTF-8" standalone="no"?>
<!DOCTYPE svg PUBLIC "-//W3C//DTD SVG 1.1//EN"
 "http://www.w3.org/Graphics/SVG/1.1/DTD/svg11.dtd">
<!-- Generated by graphviz version 2.36.0 (20140111.2315)
 -->
<!-- Title: SurfPhase.cpp Pages: 1 -->
<svg width="967pt" height="420pt"
 viewBox="0.00 0.00 967.19 420.00" xmlns="http://www.w3.org/2000/svg" xmlns:xlink="http://www.w3.org/1999/xlink">
<g id="graph0" class="graph" transform="scale(1 1) rotate(0) translate(4 416)">
<title>SurfPhase.cpp</title>
<polygon fill="white" stroke="none" points="-4,4 -4,-416 963.193,-416 963.193,4 -4,4"/>
<!-- Node1 -->
<g id="node1" class="node"><title>Node1</title>
<polygon fill="#bfbfbf" stroke="black" points="168,-392.5 168,-411.5 248,-411.5 248,-392.5 168,-392.5"/>
<text text-anchor="middle" x="208" y="-399.5" font-family="FreeSans" font-size="10.00">SurfPhase.cpp</text>
</g>
<!-- Node2 -->
<g id="node2" class="node"><title>Node2</title>
<g id="a_node2"><a xlink:href="SurfPhase_8h.html" target="_top" xlink:title="Header for a simple thermodynamics model of a surface phase derived from ThermoPhase, assuming an ideal solution model (see Thermodynamic Properties and class SurfPhase). ">
<polygon fill="white" stroke="black" points="-0.5,-280.5 -0.5,-299.5 136.5,-299.5 136.5,-280.5 -0.5,-280.5"/>
<text text-anchor="middle" x="68" y="-287.5" font-family="FreeSans" font-size="10.00">cantera/thermo/SurfPhase.h</text>
</a>
</g>
</g>
<!-- Node1&#45;&gt;Node2 -->
<g id="edge1" class="edge"><title>Node1&#45;&gt;Node2</title>
<path fill="none" stroke="midnightblue" d="M167.883,-397.632C138.838,-392.993 100.964,-382.002 79,-356 68.2773,-343.306 66.179,-324.103 66.3716,-309.858"/>
<polygon fill="midnightblue" stroke="midnightblue" points="69.8749,-309.882 66.8961,-299.715 62.8842,-309.521 69.8749,-309.882"/>
</g>
<!-- Node15 -->
<g id="node15" class="node"><title>Node15</title>
<g id="a_node15"><a xlink:href="EdgePhase_8h.html" target="_top" xlink:title="Declarations for the EdgePhase ThermoPhase object, which models the interface between two surfaces (s...">
<polygon fill="white" stroke="black" points="88.5,-336.5 88.5,-355.5 229.5,-355.5 229.5,-336.5 88.5,-336.5"/>
<text text-anchor="middle" x="159" y="-343.5" font-family="FreeSans" font-size="10.00">cantera/thermo/EdgePhase.h</text>
</a>
</g>
</g>
<!-- Node1&#45;&gt;Node15 -->
<g id="edge17" class="edge"><title>Node1&#45;&gt;Node15</title>
<path fill="none" stroke="midnightblue" d="M199.909,-392.083C192.845,-384.298 182.412,-372.801 173.851,-363.367"/>
<polygon fill="midnightblue" stroke="midnightblue" points="176.253,-360.805 166.941,-355.751 171.069,-365.509 176.253,-360.805"/>
</g>
<!-- Node16 -->
<g id="node16" class="node"><title>Node16</title>
<g id="a_node16"><a xlink:href="ThermoFactory_8h.html" target="_top" xlink:title="Headers for the factory class that can create known ThermoPhase objects (see Thermodynamic Properties...">
<polygon fill="white" stroke="black" points="557,-280.5 557,-299.5 715,-299.5 715,-280.5 557,-280.5"/>
<text text-anchor="middle" x="636" y="-287.5" font-family="FreeSans" font-size="10.00">cantera/thermo/ThermoFactory.h</text>
</a>
</g>
</g>
<!-- Node1&#45;&gt;Node16 -->
<g id="edge21" class="edge"><title>Node1&#45;&gt;Node16</title>
<path fill="none" stroke="midnightblue" d="M241.228,-392.46C317.949,-372.742 507.387,-324.055 592.895,-302.078"/>
<polygon fill="midnightblue" stroke="midnightblue" points="593.979,-305.414 602.793,-299.535 592.236,-298.634 593.979,-305.414"/>
</g>
<!-- Node21 -->
<g id="node21" class="node"><title>Node21</title>
<g id="a_node21"><a xlink:href="stringUtils_8h.html" target="_top" xlink:title="Contains declarations for string manipulation functions within Cantera. ">
<polygon fill="white" stroke="black" points="14.5,-112.5 14.5,-131.5 139.5,-131.5 139.5,-112.5 14.5,-112.5"/>
<text text-anchor="middle" x="77" y="-119.5" font-family="FreeSans" font-size="10.00">cantera/base/stringUtils.h</text>
</a>
</g>
</g>
<!-- Node1&#45;&gt;Node21 -->
<g id="edge30" class="edge"><title>Node1&#45;&gt;Node21</title>
<path fill="none" stroke="midnightblue" d="M214.952,-392.481C228.691,-374.753 258,-332.116 258,-291 258,-291 258,-291 258,-233 258,-175.655 190.832,-147.356 138.33,-133.995"/>
<polygon fill="midnightblue" stroke="midnightblue" points="138.925,-130.538 128.383,-131.594 137.283,-137.343 138.925,-130.538"/>
</g>
<!-- Node3 -->
<g id="node3" class="node"><title>Node3</title>
<g id="a_node3"><a xlink:href="mix__defs_8h.html" target="_top" xlink:title="mix_defs.h">
<polygon fill="white" stroke="black" points="85,-224.5 85,-243.5 147,-243.5 147,-224.5 85,-224.5"/>
<text text-anchor="middle" x="116" y="-231.5" font-family="FreeSans" font-size="10.00">mix_defs.h</text>
</a>
</g>
</g>
<!-- Node2&#45;&gt;Node3 -->
<g id="edge2" class="edge"><title>Node2&#45;&gt;Node3</title>
<path fill="none" stroke="midnightblue" d="M75.9262,-280.083C82.8461,-272.298 93.0654,-260.801 101.452,-251.367"/>
<polygon fill="midnightblue" stroke="midnightblue" points="104.194,-253.55 108.221,-243.751 98.9617,-248.9 104.194,-253.55"/>
</g>
<!-- Node4 -->
<g id="node4" class="node"><title>Node4</title>
<g id="a_node4"><a xlink:href="ThermoPhase_8h.html" target="_top" xlink:title="Header file for class ThermoPhase, the base class for phases with thermodynamic properties, and the text for the Module thermoprops (see Thermodynamic Properties and class ThermoPhase). ">
<polygon fill="white" stroke="black" points="290,-224.5 290,-243.5 374,-243.5 374,-224.5 290,-224.5"/>
<text text-anchor="middle" x="332" y="-231.5" font-family="FreeSans" font-size="10.00">ThermoPhase.h</text>
</a>
</g>
</g>
<!-- Node2&#45;&gt;Node4 -->
<g id="edge3" class="edge"><title>Node2&#45;&gt;Node4</title>
<path fill="none" stroke="midnightblue" d="M109.832,-280.444C156.079,-270.984 230.612,-255.738 280.436,-245.547"/>
<polygon fill="midnightblue" stroke="midnightblue" points="281.268,-248.949 290.364,-243.516 279.866,-242.091 281.268,-248.949"/>
</g>
<!-- Node5 -->
<g id="node5" class="node"><title>Node5</title>
<g id="a_node5"><a xlink:href="Phase_8h.html" target="_top" xlink:title="Header file for class Phase. ">
<polygon fill="white" stroke="black" points="396.5,-168.5 396.5,-187.5 447.5,-187.5 447.5,-168.5 396.5,-168.5"/>
<text text-anchor="middle" x="422" y="-175.5" font-family="FreeSans" font-size="10.00">Phase.h</text>
</a>
</g>
</g>
<!-- Node4&#45;&gt;Node5 -->
<g id="edge4" class="edge"><title>Node4&#45;&gt;Node5</title>
<path fill="none" stroke="midnightblue" d="M346.46,-224.324C360.5,-215.9 382.048,-202.971 398.543,-193.074"/>
<polygon fill="midnightblue" stroke="midnightblue" points="400.802,-195.801 407.576,-187.655 397.2,-189.798 400.802,-195.801"/>
</g>
<!-- Node14 -->
<g id="node14" class="node"><title>Node14</title>
<g id="a_node14"><a xlink:href="SpeciesThermo_8h.html" target="_top" xlink:title="Virtual base class for the calculation of multiple&#45;species thermodynamic reference&#45;state property man...">
<polygon fill="white" stroke="black" points="286,-168.5 286,-187.5 378,-187.5 378,-168.5 286,-168.5"/>
<text text-anchor="middle" x="332" y="-175.5" font-family="FreeSans" font-size="10.00">SpeciesThermo.h</text>
</a>
</g>
</g>
<!-- Node4&#45;&gt;Node14 -->
<g id="edge15" class="edge"><title>Node4&#45;&gt;Node14</title>
<path fill="none" stroke="midnightblue" d="M332,-224.083C332,-217.006 332,-206.861 332,-197.986"/>
<polygon fill="midnightblue" stroke="midnightblue" points="335.5,-197.751 332,-187.751 328.5,-197.751 335.5,-197.751"/>
</g>
<!-- Node6 -->
<g id="node6" class="node"><title>Node6</title>
<g id="a_node6"><a xlink:href="vec__functions_8h.html" target="_top" xlink:title="Templates for operations on vector&#45;like objects. ">
<polygon fill="white" stroke="red" points="196,-112.5 196,-131.5 338,-131.5 338,-112.5 196,-112.5"/>
<text text-anchor="middle" x="267" y="-119.5" font-family="FreeSans" font-size="10.00">cantera/base/vec_functions.h</text>
</a>
</g>
</g>
<!-- Node5&#45;&gt;Node6 -->
<g id="edge5" class="edge"><title>Node5&#45;&gt;Node6</title>
<path fill="none" stroke="midnightblue" d="M397.44,-168.444C371.477,-159.399 330.332,-145.064 301.203,-134.916"/>
<polygon fill="midnightblue" stroke="midnightblue" points="302.04,-131.501 291.445,-131.516 299.737,-138.112 302.04,-131.501"/>
</g>
<!-- Node11 -->
<g id="node11" class="node"><title>Node11</title>
<g id="a_node11"><a xlink:href="ctml_8h.html" target="_top" xlink:title="CTML (&quot;Cantera Markup Language&quot;) is the variant of XML that Cantera uses to store data...">
<polygon fill="white" stroke="red" points="506.5,-112.5 506.5,-131.5 607.5,-131.5 607.5,-112.5 506.5,-112.5"/>
<text text-anchor="middle" x="557" y="-119.5" font-family="FreeSans" font-size="10.00">cantera/base/ctml.h</text>
</a>
</g>
</g>
<!-- Node5&#45;&gt;Node11 -->
<g id="edge10" class="edge"><title>Node5&#45;&gt;Node11</title>
<path fill="none" stroke="midnightblue" d="M443.391,-168.444C465.707,-159.517 500.903,-145.439 526.208,-135.317"/>
<polygon fill="midnightblue" stroke="midnightblue" points="527.724,-138.48 535.709,-131.516 525.124,-131.981 527.724,-138.48"/>
</g>
<!-- Node13 -->
<g id="node13" class="node"><title>Node13</title>
<g id="a_node13"><a xlink:href="Elements_8h.html" target="_top" xlink:title="Contains the LookupWtElements function and the definitions of element constraint types. ">
<polygon fill="white" stroke="black" points="356,-112.5 356,-131.5 488,-131.5 488,-112.5 356,-112.5"/>
<text text-anchor="middle" x="422" y="-119.5" font-family="FreeSans" font-size="10.00">cantera/thermo/Elements.h</text>
</a>
</g>
</g>
<!-- Node5&#45;&gt;Node13 -->
<g id="edge13" class="edge"><title>Node5&#45;&gt;Node13</title>
<path fill="none" stroke="midnightblue" d="M422,-168.083C422,-161.006 422,-150.861 422,-141.986"/>
<polygon fill="midnightblue" stroke="midnightblue" points="425.5,-141.751 422,-131.751 418.5,-141.751 425.5,-141.751"/>
</g>
<!-- Node7 -->
<g id="node7" class="node"><title>Node7</title>
<g id="a_node7"><a xlink:href="ct__defs_8h.html" target="_top" xlink:title="This file contains definitions of terms that are used in internal routines and are unlikely to need m...">
<polygon fill="white" stroke="red" points="316,-56.5 316,-75.5 372,-75.5 372,-56.5 316,-56.5"/>
<text text-anchor="middle" x="344" y="-63.5" font-family="FreeSans" font-size="10.00">ct_defs.h</text>
</a>
</g>
</g>
<!-- Node6&#45;&gt;Node7 -->
<g id="edge6" class="edge"><title>Node6&#45;&gt;Node7</title>
<path fill="none" stroke="midnightblue" d="M279.371,-112.324C291.158,-104.058 309.132,-91.4527 323.136,-81.6322"/>
<polygon fill="midnightblue" stroke="midnightblue" points="325.482,-84.2619 331.659,-75.6545 321.462,-78.5307 325.482,-84.2619"/>
</g>
<!-- Node8 -->
<g id="node8" class="node"><title>Node8</title>
<g id="a_node8"><a xlink:href="config_8h_source.html" target="_top" xlink:title="config.h">
<polygon fill="white" stroke="black" points="500,-0.5 500,-19.5 550,-19.5 550,-0.5 500,-0.5"/>
<text text-anchor="middle" x="525" y="-7.5" font-family="FreeSans" font-size="10.00">config.h</text>
</a>
</g>
</g>
<!-- Node7&#45;&gt;Node8 -->
<g id="edge7" class="edge"><title>Node7&#45;&gt;Node8</title>
<path fill="none" stroke="midnightblue" d="M372.281,-56.5625C404.135,-47.0592 455.921,-31.6093 490.222,-21.3758"/>
<polygon fill="midnightblue" stroke="midnightblue" points="491.251,-24.7214 499.833,-18.5085 489.249,-18.0135 491.251,-24.7214"/>
</g>
<!-- Node9 -->
<g id="node9" class="node"><title>Node9</title>
<polygon fill="white" stroke="#bfbfbf" points="708.5,-0.5 708.5,-19.5 751.5,-19.5 751.5,-0.5 708.5,-0.5"/>
<text text-anchor="middle" x="730" y="-7.5" font-family="FreeSans" font-size="10.00">vector</text>
</g>
<!-- Node7&#45;&gt;Node9 -->
<g id="edge8" class="edge"><title>Node7&#45;&gt;Node9</title>
<path fill="none" stroke="midnightblue" d="M372.071,-61.073C442.181,-51.2648 624.606,-25.7442 698.365,-15.4256"/>
<polygon fill="midnightblue" stroke="midnightblue" points="699.014,-18.869 708.433,-14.0172 698.044,-11.9365 699.014,-18.869"/>
</g>
<!-- Node10 -->
<g id="node10" class="node"><title>Node10</title>
<polygon fill="white" stroke="#bfbfbf" points="294,-0.5 294,-19.5 334,-19.5 334,-0.5 294,-0.5"/>
<text text-anchor="middle" x="314" y="-7.5" font-family="FreeSans" font-size="10.00">string</text>
</g>
<!-- Node7&#45;&gt;Node10 -->
<g id="edge9" class="edge"><title>Node7&#45;&gt;Node10</title>
<path fill="none" stroke="midnightblue" d="M339.046,-56.083C334.896,-48.6127 328.847,-37.7244 323.733,-28.5199"/>
<polygon fill="midnightblue" stroke="midnightblue" points="326.778,-26.7929 318.862,-19.7511 320.659,-30.1924 326.778,-26.7929"/>
</g>
<!-- Node11&#45;&gt;Node7 -->
<g id="edge11" class="edge"><title>Node11&#45;&gt;Node7</title>
<path fill="none" stroke="midnightblue" d="M523.25,-112.444C484.833,-102.704 422.225,-86.8317 382.09,-76.6567"/>
<polygon fill="midnightblue" stroke="midnightblue" points="382.704,-73.2017 372.151,-74.1368 380.984,-79.987 382.704,-73.2017"/>
</g>
<!-- Node12 -->
<g id="node12" class="node"><title>Node12</title>
<g id="a_node12"><a xlink:href="xml_8h.html" target="_top" xlink:title="Classes providing support for XML data files. ">
<polygon fill="white" stroke="red" points="571.5,-56.5 571.5,-75.5 610.5,-75.5 610.5,-56.5 571.5,-56.5"/>
<text text-anchor="middle" x="591" y="-63.5" font-family="FreeSans" font-size="10.00">xml.h</text>
</a>
</g>
</g>
<!-- Node11&#45;&gt;Node12 -->
<g id="edge12" class="edge"><title>Node11&#45;&gt;Node12</title>
<path fill="none" stroke="midnightblue" d="M562.614,-112.083C567.367,-104.534 574.318,-93.4948 580.152,-84.2298"/>
<polygon fill="midnightblue" stroke="midnightblue" points="583.124,-86.0783 585.49,-75.7511 577.2,-82.3486 583.124,-86.0783"/>
</g>
<!-- Node13&#45;&gt;Node7 -->
<g id="edge14" class="edge"><title>Node13&#45;&gt;Node7</title>
<path fill="none" stroke="midnightblue" d="M409.468,-112.324C397.414,-103.979 378.973,-91.2122 364.731,-81.3524"/>
<polygon fill="midnightblue" stroke="midnightblue" points="366.715,-78.469 356.501,-75.6545 362.731,-84.2243 366.715,-78.469"/>
</g>
<!-- Node14&#45;&gt;Node7 -->
<g id="edge16" class="edge"><title>Node14&#45;&gt;Node7</title>
<path fill="none" stroke="midnightblue" d="M285.907,-168.816C248.094,-161.053 198.921,-148.181 187,-132 181.728,-124.843 181.65,-119.099 187,-112 194.303,-102.31 262.027,-85.4606 306.111,-75.3574"/>
<polygon fill="midnightblue" stroke="midnightblue" points="306.965,-78.7526 315.942,-73.1258 305.415,-71.9263 306.965,-78.7526"/>
</g>
<!-- Node15&#45;&gt;Node2 -->
<g id="edge20" class="edge"><title>Node15&#45;&gt;Node2</title>
<path fill="none" stroke="midnightblue" d="M144.379,-336.324C130.051,-327.822 107.987,-314.729 91.2513,-304.797"/>
<polygon fill="midnightblue" stroke="midnightblue" points="92.9704,-301.748 82.5844,-299.655 89.3982,-307.768 92.9704,-301.748"/>
</g>
<!-- Node15&#45;&gt;Node3 -->
<g id="edge18" class="edge"><title>Node15&#45;&gt;Node3</title>
<path fill="none" stroke="midnightblue" d="M158.131,-336.292C156.638,-323.535 152.944,-299.2 145,-280 140.921,-270.141 134.669,-260.075 129.012,-251.971"/>
<polygon fill="midnightblue" stroke="midnightblue" points="131.75,-249.784 123.027,-243.769 126.095,-253.91 131.75,-249.784"/>
</g>
<!-- Node15&#45;&gt;Node4 -->
<g id="edge19" class="edge"><title>Node15&#45;&gt;Node4</title>
<path fill="none" stroke="midnightblue" d="M172.575,-336.368C202.262,-317.492 273.204,-272.385 309.61,-249.237"/>
<polygon fill="midnightblue" stroke="midnightblue" points="311.927,-251.911 318.488,-243.591 308.171,-246.004 311.927,-251.911"/>
</g>
<!-- Node16&#45;&gt;Node4 -->
<g id="edge22" class="edge"><title>Node16&#45;&gt;Node4</title>
<path fill="none" stroke="midnightblue" d="M587.83,-280.444C532.236,-270.568 441.144,-254.387 383.984,-244.234"/>
<polygon fill="midnightblue" stroke="midnightblue" points="384.528,-240.776 374.07,-242.473 383.304,-247.668 384.528,-240.776"/>
</g>
<!-- Node16&#45;&gt;Node12 -->
<g id="edge23" class="edge"><title>Node16&#45;&gt;Node12</title>
<path fill="none" stroke="midnightblue" d="M636.207,-280.276C636.581,-254.09 635.893,-174.145 616,-112 612.906,-102.334 607.637,-92.3883 602.732,-84.3134"/>
<polygon fill="midnightblue" stroke="midnightblue" points="605.634,-82.3551 597.293,-75.8222 599.74,-86.1307 605.634,-82.3551"/>
</g>
<!-- Node17 -->
<g id="node17" class="node"><title>Node17</title>
<g id="a_node17"><a xlink:href="ct__thread_8h.html" target="_top" xlink:title="cantera/base/ct_thread.h">
<polygon fill="white" stroke="black" points="682.5,-224.5 682.5,-243.5 805.5,-243.5 805.5,-224.5 682.5,-224.5"/>
<text text-anchor="middle" x="744" y="-231.5" font-family="FreeSans" font-size="10.00">cantera/base/ct_thread.h</text>
</a>
</g>
</g>
<!-- Node16&#45;&gt;Node17 -->
<g id="edge24" class="edge"><title>Node16&#45;&gt;Node17</title>
<path fill="none" stroke="midnightblue" d="M653.352,-280.324C670.672,-271.664 697.515,-258.242 717.502,-248.249"/>
<polygon fill="midnightblue" stroke="midnightblue" points="719.312,-251.257 726.691,-243.655 716.181,-244.996 719.312,-251.257"/>
</g>
<!-- Node20 -->
<g id="node20" class="node"><title>Node20</title>
<g id="a_node20"><a xlink:href="FactoryBase_8h.html" target="_top" xlink:title="File contains the FactoryBase class declarations. ">
<polygon fill="white" stroke="black" points="802.5,-56.5 802.5,-75.5 939.5,-75.5 939.5,-56.5 802.5,-56.5"/>
<text text-anchor="middle" x="871" y="-63.5" font-family="FreeSans" font-size="10.00">cantera/base/FactoryBase.h</text>
</a>
</g>
</g>
<!-- Node16&#45;&gt;Node20 -->
<g id="edge28" class="edge"><title>Node16&#45;&gt;Node20</title>
<path fill="none" stroke="midnightblue" d="M687.248,-280.441C768.824,-265.614 922.081,-232.429 952,-188 977.942,-149.476 924.928,-103.925 892.926,-81.2754"/>
<polygon fill="midnightblue" stroke="midnightblue" points="894.765,-78.2929 884.54,-75.5193 890.804,-84.0641 894.765,-78.2929"/>
</g>
<!-- Node17&#45;&gt;Node8 -->
<g id="edge25" class="edge"><title>Node17&#45;&gt;Node8</title>
<path fill="none" stroke="midnightblue" d="M732.299,-224.264C721.487,-215.801 705.418,-202.197 694,-188 651.712,-135.42 668.357,-102.008 619,-56 602.207,-40.3467 578.969,-29.1556 559.8,-21.8488"/>
<polygon fill="midnightblue" stroke="midnightblue" points="560.797,-18.4874 550.202,-18.3788 558.416,-25.0704 560.797,-18.4874"/>
</g>
<!-- Node18 -->
<g id="node18" class="node"><title>Node18</title>
<polygon fill="white" stroke="#bfbfbf" points="838,-168.5 838,-187.5 944,-187.5 944,-168.5 838,-168.5"/>
<text text-anchor="middle" x="891" y="-175.5" font-family="FreeSans" font-size="10.00">boost/shared_ptr.hpp</text>
</g>
<!-- Node17&#45;&gt;Node18 -->
<g id="edge26" class="edge"><title>Node17&#45;&gt;Node18</title>
<path fill="none" stroke="midnightblue" d="M767.293,-224.444C791.807,-215.438 830.596,-201.189 858.2,-191.049"/>
<polygon fill="midnightblue" stroke="midnightblue" points="859.637,-194.25 867.816,-187.516 857.223,-187.679 859.637,-194.25"/>
</g>
<!-- Node19 -->
<g id="node19" class="node"><title>Node19</title>
<polygon fill="white" stroke="#bfbfbf" points="702.5,-168.5 702.5,-187.5 819.5,-187.5 819.5,-168.5 702.5,-168.5"/>
<text text-anchor="middle" x="761" y="-175.5" font-family="FreeSans" font-size="10.00">boost/thread/mutex.hpp</text>
</g>
<!-- Node17&#45;&gt;Node19 -->
<g id="edge27" class="edge"><title>Node17&#45;&gt;Node19</title>
<path fill="none" stroke="midnightblue" d="M746.807,-224.083C749.085,-216.849 752.371,-206.409 755.208,-197.397"/>
<polygon fill="midnightblue" stroke="midnightblue" points="758.581,-198.341 758.245,-187.751 751.904,-196.239 758.581,-198.341"/>
</g>
<!-- Node20&#45;&gt;Node9 -->
<g id="edge29" class="edge"><title>Node20&#45;&gt;Node9</title>
<path fill="none" stroke="midnightblue" d="M848.658,-56.4435C825.109,-47.4249 787.829,-33.1472 761.345,-23.0043"/>
<polygon fill="midnightblue" stroke="midnightblue" points="762.364,-19.647 751.774,-19.339 759.861,-26.184 762.364,-19.647"/>
</g>
<!-- Node21&#45;&gt;Node7 -->
<g id="edge31" class="edge"><title>Node21&#45;&gt;Node7</title>
<path fill="none" stroke="midnightblue" d="M119.307,-112.444C170.65,-102.06 256.463,-84.7041 305.854,-74.7149"/>
<polygon fill="midnightblue" stroke="midnightblue" points="306.707,-78.1133 315.815,-72.7003 305.32,-71.2522 306.707,-78.1133"/>
</g>
<!-- Node21&#45;&gt;Node10 -->
<g id="edge32" class="edge"><title>Node21&#45;&gt;Node10</title>
<path fill="none" stroke="midnightblue" d="M95.597,-112.368C137.045,-93.131 237.195,-46.6478 286.139,-23.9314"/>
<polygon fill="midnightblue" stroke="midnightblue" points="287.892,-26.9762 295.489,-19.5914 284.945,-20.6267 287.892,-26.9762"/>
</g>
</g>
</svg>
