<?xml version="1.0" encoding="UTF-8" standalone="no"?>
<!DOCTYPE svg PUBLIC "-//W3C//DTD SVG 1.1//EN"
 "http://www.w3.org/Graphics/SVG/1.1/DTD/svg11.dtd">
<!-- Generated by graphviz version 2.36.0 (20140111.2315)
 -->
<!-- Title: ThermoPhase.cpp Pages: 1 -->
<svg width="990pt" height="476pt"
 viewBox="0.00 0.00 989.91 476.00" xmlns="http://www.w3.org/2000/svg" xmlns:xlink="http://www.w3.org/1999/xlink">
<g id="graph0" class="graph" transform="scale(1 1) rotate(0) translate(4 472)">
<title>ThermoPhase.cpp</title>
<polygon fill="white" stroke="none" points="-4,4 -4,-472 985.906,-472 985.906,4 -4,4"/>
<!-- Node1 -->
<g id="node1" class="node"><title>Node1</title>
<polygon fill="#bfbfbf" stroke="black" points="667.406,-448.5 667.406,-467.5 762.406,-467.5 762.406,-448.5 667.406,-448.5"/>
<text text-anchor="middle" x="714.906" y="-455.5" font-family="FreeSans" font-size="10.00">ThermoPhase.cpp</text>
</g>
<!-- Node2 -->
<g id="node2" class="node"><title>Node2</title>
<g id="a_node2"><a xlink:href="ThermoPhase_8h.html" target="_top" xlink:title="Header file for class ThermoPhase, the base class for phases with thermodynamic properties, and the text for the Module thermoprops (see Thermodynamic Properties and class ThermoPhase). ">
<polygon fill="white" stroke="black" points="427.906,-336.5 427.906,-355.5 579.906,-355.5 579.906,-336.5 427.906,-336.5"/>
<text text-anchor="middle" x="503.906" y="-343.5" font-family="FreeSans" font-size="10.00">cantera/thermo/ThermoPhase.h</text>
</a>
</g>
</g>
<!-- Node1&#45;&gt;Node2 -->
<g id="edge1" class="edge"><title>Node1&#45;&gt;Node2</title>
<path fill="none" stroke="midnightblue" d="M685.352,-448.471C660.246,-440.656 623.656,-427.898 593.906,-412 567.271,-397.767 539.525,-376.606 522.006,-362.331"/>
<polygon fill="midnightblue" stroke="midnightblue" points="523.771,-359.248 513.837,-355.566 519.307,-364.64 523.771,-359.248"/>
</g>
<!-- Node20 -->
<g id="node20" class="node"><title>Node20</title>
<g id="a_node20"><a xlink:href="stringUtils_8h.html" target="_top" xlink:title="Contains declarations for string manipulation functions within Cantera. ">
<polygon fill="white" stroke="black" points="530.406,-112.5 530.406,-131.5 655.406,-131.5 655.406,-112.5 530.406,-112.5"/>
<text text-anchor="middle" x="592.906" y="-119.5" font-family="FreeSans" font-size="10.00">cantera/base/stringUtils.h</text>
</a>
</g>
</g>
<!-- Node1&#45;&gt;Node20 -->
<g id="edge29" class="edge"><title>Node1&#45;&gt;Node20</title>
<path fill="none" stroke="midnightblue" d="M684.833,-448.459C665.69,-441.556 641.784,-429.98 626.906,-412 607.719,-388.811 607.906,-377.098 607.906,-347 607.906,-347 607.906,-347 607.906,-233 607.906,-200.502 601.4,-163.095 596.957,-141.343"/>
<polygon fill="midnightblue" stroke="midnightblue" points="600.369,-140.559 594.867,-131.504 593.521,-142.013 600.369,-140.559"/>
</g>
<!-- Node21 -->
<g id="node21" class="node"><title>Node21</title>
<g id="a_node21"><a xlink:href="ThermoFactory_8h.html" target="_top" xlink:title="Headers for the factory class that can create known ThermoPhase objects (see Thermodynamic Properties...">
<polygon fill="white" stroke="black" points="635.906,-392.5 635.906,-411.5 793.906,-411.5 793.906,-392.5 635.906,-392.5"/>
<text text-anchor="middle" x="714.906" y="-399.5" font-family="FreeSans" font-size="10.00">cantera/thermo/ThermoFactory.h</text>
</a>
</g>
</g>
<!-- Node1&#45;&gt;Node21 -->
<g id="edge32" class="edge"><title>Node1&#45;&gt;Node21</title>
<path fill="none" stroke="midnightblue" d="M714.906,-448.083C714.906,-441.006 714.906,-430.861 714.906,-421.986"/>
<polygon fill="midnightblue" stroke="midnightblue" points="718.407,-421.751 714.906,-411.751 711.407,-421.751 718.407,-421.751"/>
</g>
<!-- Node26 -->
<g id="node26" class="node"><title>Node26</title>
<polygon fill="white" stroke="#bfbfbf" points="811.906,-392.5 811.906,-411.5 861.906,-411.5 861.906,-392.5 811.906,-392.5"/>
<text text-anchor="middle" x="836.906" y="-399.5" font-family="FreeSans" font-size="10.00">iomanip</text>
</g>
<!-- Node1&#45;&gt;Node26 -->
<g id="edge41" class="edge"><title>Node1&#45;&gt;Node26</title>
<path fill="none" stroke="midnightblue" d="M734.238,-448.444C754.226,-439.596 785.65,-425.687 808.47,-415.586"/>
<polygon fill="midnightblue" stroke="midnightblue" points="809.938,-418.764 817.666,-411.516 807.105,-412.363 809.938,-418.764"/>
</g>
<!-- Node27 -->
<g id="node27" class="node"><title>Node27</title>
<polygon fill="white" stroke="#bfbfbf" points="880.406,-392.5 880.406,-411.5 929.406,-411.5 929.406,-392.5 880.406,-392.5"/>
<text text-anchor="middle" x="904.906" y="-399.5" font-family="FreeSans" font-size="10.00">fstream</text>
</g>
<!-- Node1&#45;&gt;Node27 -->
<g id="edge42" class="edge"><title>Node1&#45;&gt;Node27</title>
<path fill="none" stroke="midnightblue" d="M745.013,-448.444C779.107,-438.753 834.564,-422.992 870.385,-412.811"/>
<polygon fill="midnightblue" stroke="midnightblue" points="871.717,-416.072 880.379,-409.971 869.803,-409.338 871.717,-416.072"/>
</g>
<!-- Node3 -->
<g id="node3" class="node"><title>Node3</title>
<g id="a_node3"><a xlink:href="Phase_8h.html" target="_top" xlink:title="Header file for class Phase. ">
<polygon fill="white" stroke="black" points="310.406,-280.5 310.406,-299.5 361.406,-299.5 361.406,-280.5 310.406,-280.5"/>
<text text-anchor="middle" x="335.906" y="-287.5" font-family="FreeSans" font-size="10.00">Phase.h</text>
</a>
</g>
</g>
<!-- Node2&#45;&gt;Node3 -->
<g id="edge2" class="edge"><title>Node2&#45;&gt;Node3</title>
<path fill="none" stroke="midnightblue" d="M477.286,-336.444C448.65,-327.239 402.972,-312.557 371.32,-302.383"/>
<polygon fill="midnightblue" stroke="midnightblue" points="372.167,-298.979 361.576,-299.251 370.025,-305.643 372.167,-298.979"/>
</g>
<!-- Node19 -->
<g id="node19" class="node"><title>Node19</title>
<g id="a_node19"><a xlink:href="SpeciesThermo_8h.html" target="_top" xlink:title="Virtual base class for the calculation of multiple&#45;species thermodynamic reference&#45;state property man...">
<polygon fill="white" stroke="black" points="487.906,-224.5 487.906,-243.5 579.906,-243.5 579.906,-224.5 487.906,-224.5"/>
<text text-anchor="middle" x="533.906" y="-231.5" font-family="FreeSans" font-size="10.00">SpeciesThermo.h</text>
</a>
</g>
</g>
<!-- Node2&#45;&gt;Node19 -->
<g id="edge27" class="edge"><title>Node2&#45;&gt;Node19</title>
<path fill="none" stroke="midnightblue" d="M506.261,-336.368C511.124,-318.537 522.371,-277.295 528.923,-253.272"/>
<polygon fill="midnightblue" stroke="midnightblue" points="532.309,-254.16 531.563,-243.591 525.555,-252.318 532.309,-254.16"/>
</g>
<!-- Node4 -->
<g id="node4" class="node"><title>Node4</title>
<g id="a_node4"><a xlink:href="vec__functions_8h.html" target="_top" xlink:title="Templates for operations on vector&#45;like objects. ">
<polygon fill="white" stroke="black" points="68.9065,-168.5 68.9065,-187.5 210.906,-187.5 210.906,-168.5 68.9065,-168.5"/>
<text text-anchor="middle" x="139.906" y="-175.5" font-family="FreeSans" font-size="10.00">cantera/base/vec_functions.h</text>
</a>
</g>
</g>
<!-- Node3&#45;&gt;Node4 -->
<g id="edge3" class="edge"><title>Node3&#45;&gt;Node4</title>
<path fill="none" stroke="midnightblue" d="M310.195,-283.24C283.517,-276.52 241.251,-263.744 208.906,-244 187.3,-230.811 166.749,-210.006 153.784,-195.498"/>
<polygon fill="midnightblue" stroke="midnightblue" points="156.281,-193.036 147.077,-187.789 151,-197.63 156.281,-193.036"/>
</g>
<!-- Node15 -->
<g id="node15" class="node"><title>Node15</title>
<g id="a_node15"><a xlink:href="ctml_8h.html" target="_top" xlink:title="CTML (&quot;Cantera Markup Language&quot;) is the variant of XML that Cantera uses to store data...">
<polygon fill="white" stroke="black" points="218.406,-224.5 218.406,-243.5 319.406,-243.5 319.406,-224.5 218.406,-224.5"/>
<text text-anchor="middle" x="268.906" y="-231.5" font-family="FreeSans" font-size="10.00">cantera/base/ctml.h</text>
</a>
</g>
</g>
<!-- Node3&#45;&gt;Node15 -->
<g id="edge17" class="edge"><title>Node3&#45;&gt;Node15</title>
<path fill="none" stroke="midnightblue" d="M325.142,-280.324C315.14,-272.263 300.02,-260.077 287.976,-250.369"/>
<polygon fill="midnightblue" stroke="midnightblue" points="289.849,-247.384 279.867,-243.834 285.457,-252.834 289.849,-247.384"/>
</g>
<!-- Node18 -->
<g id="node18" class="node"><title>Node18</title>
<g id="a_node18"><a xlink:href="Elements_8h.html" target="_top" xlink:title="Contains the LookupWtElements function and the definitions of element constraint types. ">
<polygon fill="white" stroke="black" points="337.906,-224.5 337.906,-243.5 469.906,-243.5 469.906,-224.5 337.906,-224.5"/>
<text text-anchor="middle" x="403.906" y="-231.5" font-family="FreeSans" font-size="10.00">cantera/thermo/Elements.h</text>
</a>
</g>
</g>
<!-- Node3&#45;&gt;Node18 -->
<g id="edge25" class="edge"><title>Node3&#45;&gt;Node18</title>
<path fill="none" stroke="midnightblue" d="M346.832,-280.324C357.081,-272.185 372.627,-259.839 384.907,-250.087"/>
<polygon fill="midnightblue" stroke="midnightblue" points="387.128,-252.794 392.782,-243.834 382.775,-247.312 387.128,-252.794"/>
</g>
<!-- Node5 -->
<g id="node5" class="node"><title>Node5</title>
<g id="a_node5"><a xlink:href="ct__defs_8h.html" target="_top" xlink:title="This file contains definitions of terms that are used in internal routines and are unlikely to need m...">
<polygon fill="white" stroke="red" points="435.906,-56.5 435.906,-75.5 491.906,-75.5 491.906,-56.5 435.906,-56.5"/>
<text text-anchor="middle" x="463.906" y="-63.5" font-family="FreeSans" font-size="10.00">ct_defs.h</text>
</a>
</g>
</g>
<!-- Node4&#45;&gt;Node5 -->
<g id="edge4" class="edge"><title>Node4&#45;&gt;Node5</title>
<path fill="none" stroke="midnightblue" d="M88.429,-168.497C43.3524,-158.929 -11.1868,-140.839 14.9065,-112 42.2837,-81.7418 322.493,-70.9291 425.868,-67.952"/>
<polygon fill="midnightblue" stroke="midnightblue" points="425.977,-71.4504 435.875,-67.6725 425.781,-64.4531 425.977,-71.4504"/>
</g>
<!-- Node9 -->
<g id="node9" class="node"><title>Node9</title>
<polygon fill="white" stroke="#bfbfbf" points="169.906,-0.5 169.906,-19.5 225.906,-19.5 225.906,-0.5 169.906,-0.5"/>
<text text-anchor="middle" x="197.906" y="-7.5" font-family="FreeSans" font-size="10.00">algorithm</text>
</g>
<!-- Node4&#45;&gt;Node9 -->
<g id="edge14" class="edge"><title>Node4&#45;&gt;Node9</title>
<path fill="none" stroke="midnightblue" d="M71.1557,-168.43C28.7955,-159.909 -14.0872,-143.377 4.90648,-112 38.4982,-56.5075 113.72,-30.0353 159.705,-18.6073"/>
<polygon fill="midnightblue" stroke="midnightblue" points="160.68,-21.9734 169.606,-16.2665 159.069,-15.1612 160.68,-21.9734"/>
</g>
<!-- Node10 -->
<g id="node10" class="node"><title>Node10</title>
<g id="a_node10"><a xlink:href="utilities_8h.html" target="_top" xlink:title="Various templated functions that carry out common vector operations (see Templated Utility Functions)...">
<polygon fill="white" stroke="black" points="170.906,-112.5 170.906,-131.5 224.906,-131.5 224.906,-112.5 170.906,-112.5"/>
<text text-anchor="middle" x="197.906" y="-119.5" font-family="FreeSans" font-size="10.00">utilities.h</text>
</a>
</g>
</g>
<!-- Node4&#45;&gt;Node10 -->
<g id="edge9" class="edge"><title>Node4&#45;&gt;Node10</title>
<path fill="none" stroke="midnightblue" d="M149.225,-168.324C157.799,-160.341 170.719,-148.313 181.094,-138.653"/>
<polygon fill="midnightblue" stroke="midnightblue" points="183.484,-141.21 188.418,-131.834 178.714,-136.086 183.484,-141.21"/>
</g>
<!-- Node11 -->
<g id="node11" class="node"><title>Node11</title>
<polygon fill="white" stroke="#bfbfbf" points="24.4065,-112.5 24.4065,-131.5 75.4065,-131.5 75.4065,-112.5 24.4065,-112.5"/>
<text text-anchor="middle" x="49.9065" y="-119.5" font-family="FreeSans" font-size="10.00">numeric</text>
</g>
<!-- Node4&#45;&gt;Node11 -->
<g id="edge12" class="edge"><title>Node4&#45;&gt;Node11</title>
<path fill="none" stroke="midnightblue" d="M125.446,-168.324C111.407,-159.9 89.858,-146.971 73.3634,-137.074"/>
<polygon fill="midnightblue" stroke="midnightblue" points="74.7063,-133.798 64.3307,-131.655 71.1048,-139.801 74.7063,-133.798"/>
</g>
<!-- Node12 -->
<g id="node12" class="node"><title>Node12</title>
<polygon fill="white" stroke="#bfbfbf" points="93.4065,-112.5 93.4065,-131.5 152.406,-131.5 152.406,-112.5 93.4065,-112.5"/>
<text text-anchor="middle" x="122.906" y="-119.5" font-family="FreeSans" font-size="10.00">functional</text>
</g>
<!-- Node4&#45;&gt;Node12 -->
<g id="edge13" class="edge"><title>Node4&#45;&gt;Node12</title>
<path fill="none" stroke="midnightblue" d="M137.099,-168.083C134.822,-160.849 131.535,-150.409 128.698,-141.397"/>
<polygon fill="midnightblue" stroke="midnightblue" points="132.003,-140.239 125.661,-131.751 125.326,-142.341 132.003,-140.239"/>
</g>
<!-- Node13 -->
<g id="node13" class="node"><title>Node13</title>
<polygon fill="white" stroke="#bfbfbf" points="243.406,-112.5 243.406,-131.5 296.406,-131.5 296.406,-112.5 243.406,-112.5"/>
<text text-anchor="middle" x="269.906" y="-119.5" font-family="FreeSans" font-size="10.00">iostream</text>
</g>
<!-- Node4&#45;&gt;Node13 -->
<g id="edge15" class="edge"><title>Node4&#45;&gt;Node13</title>
<path fill="none" stroke="midnightblue" d="M160.505,-168.444C181.9,-159.557 215.588,-145.563 239.931,-135.451"/>
<polygon fill="midnightblue" stroke="midnightblue" points="241.512,-138.585 249.404,-131.516 238.826,-132.12 241.512,-138.585"/>
</g>
<!-- Node14 -->
<g id="node14" class="node"><title>Node14</title>
<polygon fill="white" stroke="#bfbfbf" points="314.406,-112.5 314.406,-131.5 359.406,-131.5 359.406,-112.5 314.406,-112.5"/>
<text text-anchor="middle" x="336.906" y="-119.5" font-family="FreeSans" font-size="10.00">cstring</text>
</g>
<!-- Node4&#45;&gt;Node14 -->
<g id="edge16" class="edge"><title>Node4&#45;&gt;Node14</title>
<path fill="none" stroke="midnightblue" d="M171.558,-168.447C202.842,-159.977 252.321,-146.533 304.43,-132.116"/>
<polygon fill="midnightblue" stroke="midnightblue" points="305.484,-135.456 314.187,-129.414 303.616,-128.71 305.484,-135.456"/>
</g>
<!-- Node6 -->
<g id="node6" class="node"><title>Node6</title>
<g id="a_node6"><a xlink:href="config_8h_source.html" target="_top" xlink:title="config.h">
<polygon fill="white" stroke="black" points="618.906,-0.5 618.906,-19.5 668.906,-19.5 668.906,-0.5 618.906,-0.5"/>
<text text-anchor="middle" x="643.906" y="-7.5" font-family="FreeSans" font-size="10.00">config.h</text>
</a>
</g>
</g>
<!-- Node5&#45;&gt;Node6 -->
<g id="edge5" class="edge"><title>Node5&#45;&gt;Node6</title>
<path fill="none" stroke="midnightblue" d="M492.031,-56.5625C523.573,-47.1 574.767,-31.7419 608.88,-21.5078"/>
<polygon fill="midnightblue" stroke="midnightblue" points="610.306,-24.7344 618.878,-18.5085 608.294,-18.0296 610.306,-24.7344"/>
</g>
<!-- Node7 -->
<g id="node7" class="node"><title>Node7</title>
<polygon fill="white" stroke="#bfbfbf" points="792.406,-0.5 792.406,-19.5 835.406,-19.5 835.406,-0.5 792.406,-0.5"/>
<text text-anchor="middle" x="813.906" y="-7.5" font-family="FreeSans" font-size="10.00">vector</text>
</g>
<!-- Node5&#45;&gt;Node7 -->
<g id="edge6" class="edge"><title>Node5&#45;&gt;Node7</title>
<path fill="none" stroke="midnightblue" d="M491.957,-60.6722C556.319,-50.7421 714.272,-26.3722 782.107,-15.9062"/>
<polygon fill="midnightblue" stroke="midnightblue" points="782.843,-19.3342 792.192,-14.3502 781.775,-12.416 782.843,-19.3342"/>
</g>
<!-- Node8 -->
<g id="node8" class="node"><title>Node8</title>
<polygon fill="white" stroke="#bfbfbf" points="482.906,-0.5 482.906,-19.5 522.906,-19.5 522.906,-0.5 482.906,-0.5"/>
<text text-anchor="middle" x="502.906" y="-7.5" font-family="FreeSans" font-size="10.00">string</text>
</g>
<!-- Node5&#45;&gt;Node8 -->
<g id="edge7" class="edge"><title>Node5&#45;&gt;Node8</title>
<path fill="none" stroke="midnightblue" d="M470.347,-56.083C475.855,-48.4554 483.938,-37.2645 490.671,-27.9408"/>
<polygon fill="midnightblue" stroke="midnightblue" points="493.569,-29.9071 496.586,-19.7511 487.894,-25.8087 493.569,-29.9071"/>
</g>
<!-- Node5&#45;&gt;Node9 -->
<g id="edge8" class="edge"><title>Node5&#45;&gt;Node9</title>
<path fill="none" stroke="midnightblue" d="M435.44,-59.2211C387.342,-49.4569 289.972,-29.69 236.032,-18.7397"/>
<polygon fill="midnightblue" stroke="midnightblue" points="236.665,-15.2969 226.168,-16.7374 235.272,-22.157 236.665,-15.2969"/>
</g>
<!-- Node10&#45;&gt;Node5 -->
<g id="edge10" class="edge"><title>Node10&#45;&gt;Node5</title>
<path fill="none" stroke="midnightblue" d="M224.998,-114.068C227.998,-113.347 231.014,-112.644 233.906,-112 301.149,-97.0273 380.052,-82.176 425.779,-73.8348"/>
<polygon fill="midnightblue" stroke="midnightblue" points="426.626,-77.2383 435.839,-72.0072 425.375,-70.351 426.626,-77.2383"/>
</g>
<!-- Node10&#45;&gt;Node9 -->
<g id="edge11" class="edge"><title>Node10&#45;&gt;Node9</title>
<path fill="none" stroke="midnightblue" d="M197.906,-112.368C197.906,-94.617 197.906,-53.6664 197.906,-29.5974"/>
<polygon fill="midnightblue" stroke="midnightblue" points="201.407,-29.5914 197.906,-19.5914 194.407,-29.5915 201.407,-29.5914"/>
</g>
<!-- Node15&#45;&gt;Node5 -->
<g id="edge18" class="edge"><title>Node15&#45;&gt;Node5</title>
<path fill="none" stroke="midnightblue" d="M281.136,-224.291C304.66,-207.368 357.544,-168.494 398.906,-132 416.745,-116.261 435.847,-96.8131 448.694,-83.3116"/>
<polygon fill="midnightblue" stroke="midnightblue" points="451.502,-85.4359 455.817,-75.7597 446.409,-80.6327 451.502,-85.4359"/>
</g>
<!-- Node16 -->
<g id="node16" class="node"><title>Node16</title>
<g id="a_node16"><a xlink:href="xml_8h.html" target="_top" xlink:title="Classes providing support for XML data files. ">
<polygon fill="white" stroke="red" points="396.406,-168.5 396.406,-187.5 435.406,-187.5 435.406,-168.5 396.406,-168.5"/>
<text text-anchor="middle" x="415.906" y="-175.5" font-family="FreeSans" font-size="10.00">xml.h</text>
</a>
</g>
</g>
<!-- Node15&#45;&gt;Node16 -->
<g id="edge19" class="edge"><title>Node15&#45;&gt;Node16</title>
<path fill="none" stroke="midnightblue" d="M292.199,-224.444C317.723,-215.067 358.721,-200.007 386.458,-189.818"/>
<polygon fill="midnightblue" stroke="midnightblue" points="387.843,-193.038 396.023,-186.304 385.429,-186.467 387.843,-193.038"/>
</g>
<!-- Node17 -->
<g id="node17" class="node"><title>Node17</title>
<g id="a_node17"><a xlink:href="Array_8h.html" target="_top" xlink:title="Header file for class Cantera::Array2D. ">
<polygon fill="white" stroke="red" points="246.406,-168.5 246.406,-187.5 293.406,-187.5 293.406,-168.5 246.406,-168.5"/>
<text text-anchor="middle" x="269.906" y="-175.5" font-family="FreeSans" font-size="10.00">Array.h</text>
</a>
</g>
</g>
<!-- Node15&#45;&gt;Node17 -->
<g id="edge20" class="edge"><title>Node15&#45;&gt;Node17</title>
<path fill="none" stroke="midnightblue" d="M269.072,-224.083C269.203,-217.006 269.391,-206.861 269.555,-197.986"/>
<polygon fill="midnightblue" stroke="midnightblue" points="273.059,-197.814 269.744,-187.751 266.06,-197.685 273.059,-197.814"/>
</g>
<!-- Node17&#45;&gt;Node5 -->
<g id="edge21" class="edge"><title>Node17&#45;&gt;Node5</title>
<path fill="none" stroke="midnightblue" d="M291.048,-168.486C311.238,-160.079 342.294,-146.421 367.906,-132 395.462,-116.484 425.355,-95.5297 444.336,-81.6569"/>
<polygon fill="midnightblue" stroke="midnightblue" points="446.512,-84.4015 452.481,-75.6483 442.356,-78.7685 446.512,-84.4015"/>
</g>
<!-- Node17&#45;&gt;Node10 -->
<g id="edge22" class="edge"><title>Node17&#45;&gt;Node10</title>
<path fill="none" stroke="midnightblue" d="M258.338,-168.324C247.486,-160.185 231.026,-147.839 218.023,-138.087"/>
<polygon fill="midnightblue" stroke="midnightblue" points="219.785,-135.034 209.685,-131.834 215.585,-140.634 219.785,-135.034"/>
</g>
<!-- Node17&#45;&gt;Node13 -->
<g id="edge23" class="edge"><title>Node17&#45;&gt;Node13</title>
<path fill="none" stroke="midnightblue" d="M269.906,-168.083C269.906,-161.006 269.906,-150.861 269.906,-141.986"/>
<polygon fill="midnightblue" stroke="midnightblue" points="273.407,-141.751 269.906,-131.751 266.407,-141.751 273.407,-141.751"/>
</g>
<!-- Node17&#45;&gt;Node14 -->
<g id="edge24" class="edge"><title>Node17&#45;&gt;Node14</title>
<path fill="none" stroke="midnightblue" d="M280.671,-168.324C290.673,-160.263 305.793,-148.077 317.837,-138.369"/>
<polygon fill="midnightblue" stroke="midnightblue" points="320.356,-140.834 325.946,-131.834 315.964,-135.384 320.356,-140.834"/>
</g>
<!-- Node18&#45;&gt;Node5 -->
<g id="edge26" class="edge"><title>Node18&#45;&gt;Node5</title>
<path fill="none" stroke="midnightblue" d="M414.595,-224.18C423.907,-215.861 436.974,-202.528 443.906,-188 459.897,-154.49 463.383,-110.488 463.98,-85.8364"/>
<polygon fill="midnightblue" stroke="midnightblue" points="467.481,-85.7344 464.085,-75.6988 460.482,-85.6621 467.481,-85.7344"/>
</g>
<!-- Node19&#45;&gt;Node5 -->
<g id="edge28" class="edge"><title>Node19&#45;&gt;Node5</title>
<path fill="none" stroke="midnightblue" d="M530.143,-224.075C519.077,-197.832 486.486,-120.545 471.546,-85.1165"/>
<polygon fill="midnightblue" stroke="midnightblue" points="474.63,-83.4224 467.52,-75.5681 468.18,-86.1423 474.63,-83.4224"/>
</g>
<!-- Node20&#45;&gt;Node5 -->
<g id="edge30" class="edge"><title>Node20&#45;&gt;Node5</title>
<path fill="none" stroke="midnightblue" d="M572.466,-112.444C551.236,-103.557 517.807,-89.5632 493.652,-79.4514"/>
<polygon fill="midnightblue" stroke="midnightblue" points="494.827,-76.1493 484.251,-75.5164 492.124,-82.6064 494.827,-76.1493"/>
</g>
<!-- Node20&#45;&gt;Node8 -->
<g id="edge31" class="edge"><title>Node20&#45;&gt;Node8</title>
<path fill="none" stroke="midnightblue" d="M585.844,-112.368C570.86,-94.0547 535.674,-51.0489 516.294,-27.3624"/>
<polygon fill="midnightblue" stroke="midnightblue" points="518.977,-25.1147 509.936,-19.5914 513.559,-29.5474 518.977,-25.1147"/>
</g>
<!-- Node21&#45;&gt;Node2 -->
<g id="edge33" class="edge"><title>Node21&#45;&gt;Node2</title>
<path fill="none" stroke="midnightblue" d="M681.473,-392.444C645.05,-383.122 586.676,-368.183 546.877,-357.997"/>
<polygon fill="midnightblue" stroke="midnightblue" points="547.739,-354.605 537.184,-355.516 546.004,-361.387 547.739,-354.605"/>
</g>
<!-- Node21&#45;&gt;Node16 -->
<g id="edge34" class="edge"><title>Node21&#45;&gt;Node16</title>
<path fill="none" stroke="midnightblue" d="M708.048,-392.485C700.881,-383.519 689.383,-368.934 679.906,-356 637.793,-298.52 647.277,-264.87 588.906,-224 545.291,-193.461 482.436,-183.644 445.717,-180.49"/>
<polygon fill="midnightblue" stroke="midnightblue" points="445.885,-176.993 435.652,-179.738 445.363,-183.974 445.885,-176.993"/>
</g>
<!-- Node22 -->
<g id="node22" class="node"><title>Node22</title>
<g id="a_node22"><a xlink:href="ct__thread_8h.html" target="_top" xlink:title="cantera/base/ct_thread.h">
<polygon fill="white" stroke="black" points="689.406,-336.5 689.406,-355.5 812.406,-355.5 812.406,-336.5 689.406,-336.5"/>
<text text-anchor="middle" x="750.906" y="-343.5" font-family="FreeSans" font-size="10.00">cantera/base/ct_thread.h</text>
</a>
</g>
</g>
<!-- Node21&#45;&gt;Node22 -->
<g id="edge35" class="edge"><title>Node21&#45;&gt;Node22</title>
<path fill="none" stroke="midnightblue" d="M720.851,-392.083C725.884,-384.534 733.243,-373.495 739.42,-364.23"/>
<polygon fill="midnightblue" stroke="midnightblue" points="742.438,-366.013 745.072,-355.751 736.613,-362.13 742.438,-366.013"/>
</g>
<!-- Node25 -->
<g id="node25" class="node"><title>Node25</title>
<g id="a_node25"><a xlink:href="FactoryBase_8h.html" target="_top" xlink:title="File contains the FactoryBase class declarations. ">
<polygon fill="white" stroke="black" points="812.406,-56.5 812.406,-75.5 949.406,-75.5 949.406,-56.5 812.406,-56.5"/>
<text text-anchor="middle" x="880.906" y="-63.5" font-family="FreeSans" font-size="10.00">cantera/base/FactoryBase.h</text>
</a>
</g>
</g>
<!-- Node21&#45;&gt;Node25 -->
<g id="edge39" class="edge"><title>Node21&#45;&gt;Node25</title>
<path fill="none" stroke="midnightblue" d="M758.399,-392.46C834.056,-376.348 981.906,-338.753 981.906,-291 981.906,-291 981.906,-291 981.906,-177 981.906,-132.593 936.694,-98.3671 906.769,-80.5772"/>
<polygon fill="midnightblue" stroke="midnightblue" points="908.459,-77.5119 898.04,-75.5909 904.987,-83.5901 908.459,-77.5119"/>
</g>
<!-- Node22&#45;&gt;Node6 -->
<g id="edge36" class="edge"><title>Node22&#45;&gt;Node6</title>
<path fill="none" stroke="midnightblue" d="M738.505,-336.399C727.616,-328.228 712.116,-314.987 702.906,-300 687.149,-274.357 683.906,-265.098 683.906,-235 683.906,-235 683.906,-235 683.906,-121 683.906,-86.6168 666.432,-49.6307 654.583,-28.503"/>
<polygon fill="midnightblue" stroke="midnightblue" points="657.529,-26.6071 649.468,-19.7315 651.482,-30.1332 657.529,-26.6071"/>
</g>
<!-- Node23 -->
<g id="node23" class="node"><title>Node23</title>
<polygon fill="white" stroke="#bfbfbf" points="711.906,-280.5 711.906,-299.5 817.906,-299.5 817.906,-280.5 711.906,-280.5"/>
<text text-anchor="middle" x="764.906" y="-287.5" font-family="FreeSans" font-size="10.00">boost/shared_ptr.hpp</text>
</g>
<!-- Node22&#45;&gt;Node23 -->
<g id="edge37" class="edge"><title>Node22&#45;&gt;Node23</title>
<path fill="none" stroke="midnightblue" d="M753.218,-336.083C755.073,-328.927 757.742,-318.635 760.061,-309.691"/>
<polygon fill="midnightblue" stroke="midnightblue" points="763.516,-310.309 762.638,-299.751 756.74,-308.553 763.516,-310.309"/>
</g>
<!-- Node24 -->
<g id="node24" class="node"><title>Node24</title>
<polygon fill="white" stroke="#bfbfbf" points="836.406,-280.5 836.406,-299.5 953.406,-299.5 953.406,-280.5 836.406,-280.5"/>
<text text-anchor="middle" x="894.906" y="-287.5" font-family="FreeSans" font-size="10.00">boost/thread/mutex.hpp</text>
</g>
<!-- Node22&#45;&gt;Node24 -->
<g id="edge38" class="edge"><title>Node22&#45;&gt;Node24</title>
<path fill="none" stroke="midnightblue" d="M773.724,-336.444C797.738,-327.438 835.735,-313.189 862.776,-303.049"/>
<polygon fill="midnightblue" stroke="midnightblue" points="864.062,-306.305 872.196,-299.516 861.604,-299.751 864.062,-306.305"/>
</g>
<!-- Node25&#45;&gt;Node7 -->
<g id="edge40" class="edge"><title>Node25&#45;&gt;Node7</title>
<path fill="none" stroke="midnightblue" d="M870.142,-56.324C860.14,-48.2631 845.02,-36.0765 832.976,-26.3695"/>
<polygon fill="midnightblue" stroke="midnightblue" points="834.849,-23.3841 824.867,-19.8339 830.457,-28.8343 834.849,-23.3841"/>
</g>
</g>
</svg>
