<?xml version="1.0" encoding="UTF-8" standalone="no"?>
<!DOCTYPE svg PUBLIC "-//W3C//DTD SVG 1.1//EN"
 "http://www.w3.org/Graphics/SVG/1.1/DTD/svg11.dtd">
<!-- Generated by graphviz version 2.36.0 (20140111.2315)
 -->
<!-- Title: ThirdBodyMgr.h Pages: 1 -->
<svg width="620pt" height="196pt"
 viewBox="0.00 0.00 620.00 196.00" xmlns="http://www.w3.org/2000/svg" xmlns:xlink="http://www.w3.org/1999/xlink">
<g id="graph0" class="graph" transform="scale(1 1) rotate(0) translate(4 192)">
<title>ThirdBodyMgr.h</title>
<polygon fill="white" stroke="none" points="-4,4 -4,-192 616,-192 616,4 -4,4"/>
<!-- Node1 -->
<g id="node1" class="node"><title>Node1</title>
<polygon fill="#bfbfbf" stroke="black" points="184,-168.5 184,-187.5 268,-187.5 268,-168.5 184,-168.5"/>
<text text-anchor="middle" x="226" y="-175.5" font-family="FreeSans" font-size="10.00">ThirdBodyMgr.h</text>
</g>
<!-- Node2 -->
<g id="node2" class="node"><title>Node2</title>
<g id="a_node2"><a xlink:href="GasKinetics_8cpp.html" target="_top" xlink:title="Homogeneous kinetics in ideal gases. ">
<polygon fill="white" stroke="black" points="0,-56.5 0,-75.5 86,-75.5 86,-56.5 0,-56.5"/>
<text text-anchor="middle" x="43" y="-63.5" font-family="FreeSans" font-size="10.00">GasKinetics.cpp</text>
</a>
</g>
</g>
<!-- Node1&#45;&gt;Node2 -->
<g id="edge1" class="edge"><title>Node1&#45;&gt;Node2</title>
<path fill="none" stroke="midnightblue" d="M202.724,-163.009C164.311,-139.919 88.7673,-94.5104 57.293,-75.5914"/>
<polygon fill="midnightblue" stroke="midnightblue" points="201.266,-166.216 211.64,-168.368 204.873,-160.217 201.266,-166.216"/>
</g>
<!-- Node3 -->
<g id="node3" class="node"><title>Node3</title>
<g id="a_node3"><a xlink:href="GRI__30__Kinetics_8cpp.html" target="_top" xlink:title="GRI_30_Kinetics.cpp">
<polygon fill="white" stroke="black" points="183.5,-0.5 183.5,-19.5 290.5,-19.5 290.5,-0.5 183.5,-0.5"/>
<text text-anchor="middle" x="237" y="-7.5" font-family="FreeSans" font-size="10.00">GRI_30_Kinetics.cpp</text>
</a>
</g>
</g>
<!-- Node1&#45;&gt;Node3 -->
<g id="edge2" class="edge"><title>Node1&#45;&gt;Node3</title>
<path fill="none" stroke="midnightblue" d="M218.808,-158.759C210.398,-134.786 198.842,-91.553 209,-56 212.994,-42.0212 222.724,-28.156 229.588,-19.5891"/>
<polygon fill="midnightblue" stroke="midnightblue" points="215.597,-160.167 222.361,-168.322 222.159,-157.729 215.597,-160.167"/>
</g>
<!-- Node4 -->
<g id="node4" class="node"><title>Node4</title>
<g id="a_node4"><a xlink:href="GasKinetics_8h.html" target="_top" xlink:title="GasKinetics.h">
<polygon fill="white" stroke="black" points="224,-112.5 224,-131.5 300,-131.5 300,-112.5 224,-112.5"/>
<text text-anchor="middle" x="262" y="-119.5" font-family="FreeSans" font-size="10.00">GasKinetics.h</text>
</a>
</g>
</g>
<!-- Node1&#45;&gt;Node4 -->
<g id="edge3" class="edge"><title>Node1&#45;&gt;Node4</title>
<path fill="none" stroke="midnightblue" d="M237.623,-159.566C243.817,-150.275 251.168,-139.248 256.166,-131.751"/>
<polygon fill="midnightblue" stroke="midnightblue" points="234.58,-157.821 231.945,-168.083 240.404,-161.704 234.58,-157.821"/>
</g>
<!-- Node12 -->
<g id="node12" class="node"><title>Node12</title>
<g id="a_node12"><a xlink:href="AqueousKinetics_8h.html" target="_top" xlink:title="AqueousKinetics.h">
<polygon fill="white" stroke="black" points="429,-112.5 429,-131.5 525,-131.5 525,-112.5 429,-112.5"/>
<text text-anchor="middle" x="477" y="-119.5" font-family="FreeSans" font-size="10.00">AqueousKinetics.h</text>
</a>
</g>
</g>
<!-- Node1&#45;&gt;Node12 -->
<g id="edge14" class="edge"><title>Node1&#45;&gt;Node12</title>
<path fill="none" stroke="midnightblue" d="M275.821,-166.281C323.253,-156.077 393.704,-140.92 437.414,-131.516"/>
<polygon fill="midnightblue" stroke="midnightblue" points="274.812,-162.918 265.772,-168.444 276.284,-169.762 274.812,-162.918"/>
</g>
<!-- Node4&#45;&gt;Node2 -->
<g id="edge4" class="edge"><title>Node4&#45;&gt;Node2</title>
<path fill="none" stroke="midnightblue" d="M217.485,-110.024C176.116,-99.8232 115.357,-84.8414 77.5388,-75.5164"/>
<polygon fill="midnightblue" stroke="midnightblue" points="216.752,-113.448 227.299,-112.444 218.428,-106.651 216.752,-113.448"/>
</g>
<!-- Node5 -->
<g id="node5" class="node"><title>Node5</title>
<g id="a_node5"><a xlink:href="KineticsFactory_8cpp.html" target="_top" xlink:title="KineticsFactory.cpp">
<polygon fill="white" stroke="black" points="388.5,-0.5 388.5,-19.5 489.5,-19.5 489.5,-0.5 388.5,-0.5"/>
<text text-anchor="middle" x="439" y="-7.5" font-family="FreeSans" font-size="10.00">KineticsFactory.cpp</text>
</a>
</g>
</g>
<!-- Node4&#45;&gt;Node5 -->
<g id="edge5" class="edge"><title>Node4&#45;&gt;Node5</title>
<path fill="none" stroke="midnightblue" d="M310.367,-118.973C344.915,-114.998 390.198,-104.249 419,-76 434.51,-60.7878 438.056,-33.864 438.824,-19.9227"/>
<polygon fill="midnightblue" stroke="midnightblue" points="309.625,-115.529 300.02,-120.001 310.317,-122.495 309.625,-115.529"/>
</g>
<!-- Node6 -->
<g id="node6" class="node"><title>Node6</title>
<g id="a_node6"><a xlink:href="GRI__30__Kinetics_8h.html" target="_top" xlink:title="GRI_30_Kinetics.h">
<polygon fill="white" stroke="black" points="218.5,-56.5 218.5,-75.5 315.5,-75.5 315.5,-56.5 218.5,-56.5"/>
<text text-anchor="middle" x="267" y="-63.5" font-family="FreeSans" font-size="10.00">GRI_30_Kinetics.h</text>
</a>
</g>
</g>
<!-- Node4&#45;&gt;Node6 -->
<g id="edge6" class="edge"><title>Node4&#45;&gt;Node6</title>
<path fill="none" stroke="midnightblue" d="M263.75,-102.101C264.58,-93.1357 265.532,-82.8579 266.19,-75.7511"/>
<polygon fill="midnightblue" stroke="midnightblue" points="260.263,-101.803 262.826,-112.083 267.233,-102.448 260.263,-101.803"/>
</g>
<!-- Node8 -->
<g id="node8" class="node"><title>Node8</title>
<g id="a_node8"><a xlink:href="IdealGasMix_8h.html" target="_top" xlink:title="IdealGasMix.h">
<polygon fill="white" stroke="black" points="333.5,-56.5 333.5,-75.5 410.5,-75.5 410.5,-56.5 333.5,-56.5"/>
<text text-anchor="middle" x="372" y="-63.5" font-family="FreeSans" font-size="10.00">IdealGasMix.h</text>
</a>
</g>
</g>
<!-- Node4&#45;&gt;Node8 -->
<g id="edge10" class="edge"><title>Node4&#45;&gt;Node8</title>
<path fill="none" stroke="midnightblue" d="M288.762,-107.862C309.159,-97.8492 336.666,-84.3458 354.37,-75.6545"/>
<polygon fill="midnightblue" stroke="midnightblue" points="287.108,-104.775 279.673,-112.324 290.192,-111.059 287.108,-104.775"/>
</g>
<!-- Node9 -->
<g id="node9" class="node"><title>Node9</title>
<g id="a_node9"><a xlink:href="kinetics_8h_source.html" target="_top" xlink:title="kinetics.h">
<polygon fill="white" stroke="black" points="104.5,-56.5 104.5,-75.5 161.5,-75.5 161.5,-56.5 104.5,-56.5"/>
<text text-anchor="middle" x="133" y="-63.5" font-family="FreeSans" font-size="10.00">kinetics.h</text>
</a>
</g>
</g>
<!-- Node4&#45;&gt;Node9 -->
<g id="edge11" class="edge"><title>Node4&#45;&gt;Node9</title>
<path fill="none" stroke="midnightblue" d="M232.146,-108.503C207.962,-98.3795 174.538,-84.388 153.345,-75.5164"/>
<polygon fill="midnightblue" stroke="midnightblue" points="230.984,-111.811 241.56,-112.444 233.687,-105.354 230.984,-111.811"/>
</g>
<!-- Node6&#45;&gt;Node3 -->
<g id="edge7" class="edge"><title>Node6&#45;&gt;Node3</title>
<path fill="none" stroke="midnightblue" d="M257.153,-47.2747C252.025,-38.0454 245.984,-27.1703 241.862,-19.7511"/>
<polygon fill="midnightblue" stroke="midnightblue" points="254.13,-49.0412 262.046,-56.083 260.249,-45.6416 254.13,-49.0412"/>
</g>
<!-- Node6&#45;&gt;Node5 -->
<g id="edge8" class="edge"><title>Node6&#45;&gt;Node5</title>
<path fill="none" stroke="midnightblue" d="M303.832,-53.4363C336.262,-43.2551 382.737,-28.664 411.874,-19.5164"/>
<polygon fill="midnightblue" stroke="midnightblue" points="302.746,-50.1088 294.254,-56.4435 304.843,-56.7874 302.746,-50.1088"/>
</g>
<!-- Node7 -->
<g id="node7" class="node"><title>Node7</title>
<g id="a_node7"><a xlink:href="GRI30_8h.html" target="_top" xlink:title="GRI30.h">
<polygon fill="white" stroke="black" points="309,-0.5 309,-19.5 361,-19.5 361,-0.5 309,-0.5"/>
<text text-anchor="middle" x="335" y="-7.5" font-family="FreeSans" font-size="10.00">GRI30.h</text>
</a>
</g>
</g>
<!-- Node6&#45;&gt;Node7 -->
<g id="edge9" class="edge"><title>Node6&#45;&gt;Node7</title>
<path fill="none" stroke="midnightblue" d="M285.762,-50.1008C298,-40.3824 313.559,-28.0269 323.876,-19.8339"/>
<polygon fill="midnightblue" stroke="midnightblue" points="283.58,-47.3642 277.925,-56.324 287.933,-52.846 283.58,-47.3642"/>
</g>
<!-- Node10 -->
<g id="node10" class="node"><title>Node10</title>
<g id="a_node10"><a xlink:href="Interface_8h.html" target="_top" xlink:title="Declaration and Definition for the class Interface. ">
<polygon fill="white" stroke="black" points="20,-0.5 20,-19.5 82,-19.5 82,-0.5 20,-0.5"/>
<text text-anchor="middle" x="51" y="-7.5" font-family="FreeSans" font-size="10.00">Interface.h</text>
</a>
</g>
</g>
<!-- Node9&#45;&gt;Node10 -->
<g id="edge12" class="edge"><title>Node9&#45;&gt;Node10</title>
<path fill="none" stroke="midnightblue" d="M111.167,-50.6221C96.1871,-40.7574 76.8025,-27.9919 64.142,-19.6545"/>
<polygon fill="midnightblue" stroke="midnightblue" points="109.549,-53.7471 119.825,-56.324 113.399,-47.9009 109.549,-53.7471"/>
</g>
<!-- Node11 -->
<g id="node11" class="node"><title>Node11</title>
<g id="a_node11"><a xlink:href="PureFluid_8h.html" target="_top" xlink:title="PureFluid.h">
<polygon fill="white" stroke="black" points="100.5,-0.5 100.5,-19.5 165.5,-19.5 165.5,-0.5 100.5,-0.5"/>
<text text-anchor="middle" x="133" y="-7.5" font-family="FreeSans" font-size="10.00">PureFluid.h</text>
</a>
</g>
</g>
<!-- Node9&#45;&gt;Node11 -->
<g id="edge13" class="edge"><title>Node9&#45;&gt;Node11</title>
<path fill="none" stroke="midnightblue" d="M133,-45.8045C133,-36.9102 133,-26.7798 133,-19.7511"/>
<polygon fill="midnightblue" stroke="midnightblue" points="129.5,-46.083 133,-56.083 136.5,-46.083 129.5,-46.083"/>
</g>
<!-- Node12&#45;&gt;Node5 -->
<g id="edge16" class="edge"><title>Node12&#45;&gt;Node5</title>
<path fill="none" stroke="midnightblue" d="M470.669,-102.674C462.361,-78.6248 448.116,-37.3881 441.968,-19.5914"/>
<polygon fill="midnightblue" stroke="midnightblue" points="467.445,-104.059 474.018,-112.368 474.061,-101.774 467.445,-104.059"/>
</g>
<!-- Node13 -->
<g id="node13" class="node"><title>Node13</title>
<g id="a_node13"><a xlink:href="AqueousKinetics_8cpp.html" target="_top" xlink:title="Homogeneous kinetics in an aqueous phase, either condensed or dilute in salts. ">
<polygon fill="white" stroke="black" points="505.5,-56.5 505.5,-75.5 612.5,-75.5 612.5,-56.5 505.5,-56.5"/>
<text text-anchor="middle" x="559" y="-63.5" font-family="FreeSans" font-size="10.00">AqueousKinetics.cpp</text>
</a>
</g>
</g>
<!-- Node12&#45;&gt;Node13 -->
<g id="edge15" class="edge"><title>Node12&#45;&gt;Node13</title>
<path fill="none" stroke="midnightblue" d="M498.833,-106.622C513.813,-96.7574 533.197,-83.9919 545.858,-75.6545"/>
<polygon fill="midnightblue" stroke="midnightblue" points="496.601,-103.901 490.175,-112.324 500.451,-109.747 496.601,-103.901"/>
</g>
</g>
</svg>
