<?xml version="1.0" encoding="UTF-8" standalone="no"?>
<!DOCTYPE svg PUBLIC "-//W3C//DTD SVG 1.1//EN"
 "http://www.w3.org/Graphics/SVG/1.1/DTD/svg11.dtd">
<!-- Generated by graphviz version 2.36.0 (20140111.2315)
 -->
<!-- Title: TransportBase.h Pages: 1 -->
<svg width="554pt" height="420pt"
 viewBox="0.00 0.00 553.69 420.00" xmlns="http://www.w3.org/2000/svg" xmlns:xlink="http://www.w3.org/1999/xlink">
<g id="graph0" class="graph" transform="scale(1 1) rotate(0) translate(4 416)">
<title>TransportBase.h</title>
<polygon fill="white" stroke="none" points="-4,4 -4,-416 549.687,-416 549.687,4 -4,4"/>
<!-- Node1 -->
<g id="node1" class="node"><title>Node1</title>
<polygon fill="#bfbfbf" stroke="black" points="218.121,-392.5 218.121,-411.5 304.121,-411.5 304.121,-392.5 218.121,-392.5"/>
<text text-anchor="middle" x="261.121" y="-399.5" font-family="FreeSans" font-size="10.00">TransportBase.h</text>
</g>
<!-- Node2 -->
<g id="node2" class="node"><title>Node2</title>
<g id="a_node2"><a xlink:href="ThermoPhase_8h.html" target="_top" xlink:title="Header file for class ThermoPhase, the base class for phases with thermodynamic properties, and the text for the Module thermoprops (see Thermodynamic Properties and class ThermoPhase). ">
<polygon fill="white" stroke="black" points="257.121,-336.5 257.121,-355.5 409.121,-355.5 409.121,-336.5 257.121,-336.5"/>
<text text-anchor="middle" x="333.121" y="-343.5" font-family="FreeSans" font-size="10.00">cantera/thermo/ThermoPhase.h</text>
</a>
</g>
</g>
<!-- Node1&#45;&gt;Node2 -->
<g id="edge1" class="edge"><title>Node1&#45;&gt;Node2</title>
<path fill="none" stroke="midnightblue" d="M272.689,-392.324C283.541,-384.185 300.001,-371.839 313.004,-362.087"/>
<polygon fill="midnightblue" stroke="midnightblue" points="315.442,-364.634 321.342,-355.834 311.242,-359.034 315.442,-364.634"/>
</g>
<!-- Node17 -->
<g id="node17" class="node"><title>Node17</title>
<g id="a_node17"><a xlink:href="DenseMatrix_8h.html" target="_top" xlink:title="Headers for the DenseMatrix object, which deals with dense rectangular matrices and description of th...">
<polygon fill="white" stroke="black" points="70.6205,-224.5 70.6205,-243.5 225.621,-243.5 225.621,-224.5 70.6205,-224.5"/>
<text text-anchor="middle" x="148.121" y="-231.5" font-family="FreeSans" font-size="10.00">cantera/numerics/DenseMatrix.h</text>
</a>
</g>
</g>
<!-- Node1&#45;&gt;Node17 -->
<g id="edge26" class="edge"><title>Node1&#45;&gt;Node17</title>
<path fill="none" stroke="midnightblue" d="M255.045,-392.075C237.027,-365.606 183.66,-287.209 159.836,-252.21"/>
<polygon fill="midnightblue" stroke="midnightblue" points="162.474,-249.865 153.953,-243.568 156.687,-253.804 162.474,-249.865"/>
</g>
<!-- Node3 -->
<g id="node3" class="node"><title>Node3</title>
<g id="a_node3"><a xlink:href="Phase_8h.html" target="_top" xlink:title="Header file for class Phase. ">
<polygon fill="white" stroke="black" points="307.621,-280.5 307.621,-299.5 358.621,-299.5 358.621,-280.5 307.621,-280.5"/>
<text text-anchor="middle" x="333.121" y="-287.5" font-family="FreeSans" font-size="10.00">Phase.h</text>
</a>
</g>
</g>
<!-- Node2&#45;&gt;Node3 -->
<g id="edge2" class="edge"><title>Node2&#45;&gt;Node3</title>
<path fill="none" stroke="midnightblue" d="M333.121,-336.083C333.121,-329.006 333.121,-318.861 333.121,-309.986"/>
<polygon fill="midnightblue" stroke="midnightblue" points="336.621,-309.751 333.121,-299.751 329.621,-309.751 336.621,-309.751"/>
</g>
<!-- Node16 -->
<g id="node16" class="node"><title>Node16</title>
<g id="a_node16"><a xlink:href="SpeciesThermo_8h.html" target="_top" xlink:title="Virtual base class for the calculation of multiple&#45;species thermodynamic reference&#45;state property man...">
<polygon fill="white" stroke="black" points="446.121,-280.5 446.121,-299.5 538.121,-299.5 538.121,-280.5 446.121,-280.5"/>
<text text-anchor="middle" x="492.121" y="-287.5" font-family="FreeSans" font-size="10.00">SpeciesThermo.h</text>
</a>
</g>
</g>
<!-- Node2&#45;&gt;Node16 -->
<g id="edge24" class="edge"><title>Node2&#45;&gt;Node16</title>
<path fill="none" stroke="midnightblue" d="M358.315,-336.444C385.063,-327.359 427.523,-312.939 457.426,-302.783"/>
<polygon fill="midnightblue" stroke="midnightblue" points="458.701,-306.046 467.044,-299.516 456.45,-299.418 458.701,-306.046"/>
</g>
<!-- Node4 -->
<g id="node4" class="node"><title>Node4</title>
<g id="a_node4"><a xlink:href="vec__functions_8h.html" target="_top" xlink:title="Templates for operations on vector&#45;like objects. ">
<polygon fill="white" stroke="black" points="110.121,-168.5 110.121,-187.5 252.121,-187.5 252.121,-168.5 110.121,-168.5"/>
<text text-anchor="middle" x="181.121" y="-175.5" font-family="FreeSans" font-size="10.00">cantera/base/vec_functions.h</text>
</a>
</g>
</g>
<!-- Node3&#45;&gt;Node4 -->
<g id="edge3" class="edge"><title>Node3&#45;&gt;Node4</title>
<path fill="none" stroke="midnightblue" d="M321.193,-280.368C295.221,-261.573 233.31,-216.768 201.203,-193.533"/>
<polygon fill="midnightblue" stroke="midnightblue" points="203.145,-190.619 192.992,-187.591 199.042,-196.29 203.145,-190.619"/>
</g>
<!-- Node12 -->
<g id="node12" class="node"><title>Node12</title>
<g id="a_node12"><a xlink:href="ctml_8h.html" target="_top" xlink:title="CTML (&quot;Cantera Markup Language&quot;) is the variant of XML that Cantera uses to store data...">
<polygon fill="white" stroke="black" points="282.621,-224.5 282.621,-243.5 383.621,-243.5 383.621,-224.5 282.621,-224.5"/>
<text text-anchor="middle" x="333.121" y="-231.5" font-family="FreeSans" font-size="10.00">cantera/base/ctml.h</text>
</a>
</g>
</g>
<!-- Node3&#45;&gt;Node12 -->
<g id="edge14" class="edge"><title>Node3&#45;&gt;Node12</title>
<path fill="none" stroke="midnightblue" d="M333.121,-280.083C333.121,-273.006 333.121,-262.861 333.121,-253.986"/>
<polygon fill="midnightblue" stroke="midnightblue" points="336.621,-253.751 333.121,-243.751 329.621,-253.751 336.621,-253.751"/>
</g>
<!-- Node15 -->
<g id="node15" class="node"><title>Node15</title>
<g id="a_node15"><a xlink:href="Elements_8h.html" target="_top" xlink:title="Contains the LookupWtElements function and the definitions of element constraint types. ">
<polygon fill="white" stroke="black" points="402.121,-224.5 402.121,-243.5 534.121,-243.5 534.121,-224.5 402.121,-224.5"/>
<text text-anchor="middle" x="468.121" y="-231.5" font-family="FreeSans" font-size="10.00">cantera/thermo/Elements.h</text>
</a>
</g>
</g>
<!-- Node3&#45;&gt;Node15 -->
<g id="edge22" class="edge"><title>Node3&#45;&gt;Node15</title>
<path fill="none" stroke="midnightblue" d="M354.512,-280.444C376.828,-271.517 412.024,-257.439 437.328,-247.317"/>
<polygon fill="midnightblue" stroke="midnightblue" points="438.845,-250.48 446.829,-243.516 436.245,-243.981 438.845,-250.48"/>
</g>
<!-- Node5 -->
<g id="node5" class="node"><title>Node5</title>
<g id="a_node5"><a xlink:href="ct__defs_8h.html" target="_top" xlink:title="This file contains definitions of terms that are used in internal routines and are unlikely to need m...">
<polygon fill="white" stroke="red" points="326.121,-56.5 326.121,-75.5 382.121,-75.5 382.121,-56.5 326.121,-56.5"/>
<text text-anchor="middle" x="354.121" y="-63.5" font-family="FreeSans" font-size="10.00">ct_defs.h</text>
</a>
</g>
</g>
<!-- Node4&#45;&gt;Node5 -->
<g id="edge4" class="edge"><title>Node4&#45;&gt;Node5</title>
<path fill="none" stroke="midnightblue" d="M180.371,-168.143C179.713,-154.292 180.587,-127.489 195.121,-112 226.119,-78.963 279.374,-69.561 315.633,-67.2063"/>
<polygon fill="midnightblue" stroke="midnightblue" points="316.022,-70.6913 325.836,-66.699 315.675,-63.7 316.022,-70.6913"/>
</g>
<!-- Node6 -->
<g id="node6" class="node"><title>Node6</title>
<polygon fill="white" stroke="#bfbfbf" points="203.121,-0.5 203.121,-19.5 259.121,-19.5 259.121,-0.5 203.121,-0.5"/>
<text text-anchor="middle" x="231.121" y="-7.5" font-family="FreeSans" font-size="10.00">algorithm</text>
</g>
<!-- Node4&#45;&gt;Node6 -->
<g id="edge11" class="edge"><title>Node4&#45;&gt;Node6</title>
<path fill="none" stroke="midnightblue" d="M109.847,-173.971C51.8117,-168.509 -16.4884,-153.417 10.1205,-112 50.5455,-49.0787 140.969,-24.8679 192.754,-15.9281"/>
<polygon fill="midnightblue" stroke="midnightblue" points="193.565,-19.3424 202.877,-14.2902 192.447,-12.4323 193.565,-19.3424"/>
</g>
<!-- Node7 -->
<g id="node7" class="node"><title>Node7</title>
<g id="a_node7"><a xlink:href="utilities_8h.html" target="_top" xlink:title="Various templated functions that carry out common vector operations (see Templated Utility Functions)...">
<polygon fill="white" stroke="black" points="204.121,-112.5 204.121,-131.5 258.121,-131.5 258.121,-112.5 204.121,-112.5"/>
<text text-anchor="middle" x="231.121" y="-119.5" font-family="FreeSans" font-size="10.00">utilities.h</text>
</a>
</g>
</g>
<!-- Node4&#45;&gt;Node7 -->
<g id="edge6" class="edge"><title>Node4&#45;&gt;Node7</title>
<path fill="none" stroke="midnightblue" d="M189.377,-168.083C196.585,-160.298 207.23,-148.801 215.966,-139.367"/>
<polygon fill="midnightblue" stroke="midnightblue" points="218.792,-141.467 223.018,-131.751 213.655,-136.711 218.792,-141.467"/>
</g>
<!-- Node8 -->
<g id="node8" class="node"><title>Node8</title>
<polygon fill="white" stroke="#bfbfbf" points="96.6205,-112.5 96.6205,-131.5 147.621,-131.5 147.621,-112.5 96.6205,-112.5"/>
<text text-anchor="middle" x="122.121" y="-119.5" font-family="FreeSans" font-size="10.00">numeric</text>
</g>
<!-- Node4&#45;&gt;Node8 -->
<g id="edge9" class="edge"><title>Node4&#45;&gt;Node8</title>
<path fill="none" stroke="midnightblue" d="M171.641,-168.324C162.919,-160.341 149.777,-148.313 139.223,-138.653"/>
<polygon fill="midnightblue" stroke="midnightblue" points="141.512,-136.004 131.772,-131.834 136.786,-141.167 141.512,-136.004"/>
</g>
<!-- Node9 -->
<g id="node9" class="node"><title>Node9</title>
<polygon fill="white" stroke="#bfbfbf" points="19.6205,-112.5 19.6205,-131.5 78.6205,-131.5 78.6205,-112.5 19.6205,-112.5"/>
<text text-anchor="middle" x="49.1205" y="-119.5" font-family="FreeSans" font-size="10.00">functional</text>
</g>
<!-- Node4&#45;&gt;Node9 -->
<g id="edge10" class="edge"><title>Node4&#45;&gt;Node9</title>
<path fill="none" stroke="midnightblue" d="M160.205,-168.444C138.385,-159.517 103.971,-145.439 79.2283,-135.317"/>
<polygon fill="midnightblue" stroke="midnightblue" points="80.5192,-132.063 69.9385,-131.516 77.8687,-138.542 80.5192,-132.063"/>
</g>
<!-- Node10 -->
<g id="node10" class="node"><title>Node10</title>
<polygon fill="white" stroke="#bfbfbf" points="339.621,-112.5 339.621,-131.5 392.621,-131.5 392.621,-112.5 339.621,-112.5"/>
<text text-anchor="middle" x="366.121" y="-119.5" font-family="FreeSans" font-size="10.00">iostream</text>
</g>
<!-- Node4&#45;&gt;Node10 -->
<g id="edge12" class="edge"><title>Node4&#45;&gt;Node10</title>
<path fill="none" stroke="midnightblue" d="M210.434,-168.444C242.705,-159.024 294.629,-143.868 329.541,-133.677"/>
<polygon fill="midnightblue" stroke="midnightblue" points="330.728,-136.977 339.347,-130.815 328.766,-130.257 330.728,-136.977"/>
</g>
<!-- Node11 -->
<g id="node11" class="node"><title>Node11</title>
<polygon fill="white" stroke="#bfbfbf" points="276.621,-112.5 276.621,-131.5 321.621,-131.5 321.621,-112.5 276.621,-112.5"/>
<text text-anchor="middle" x="299.121" y="-119.5" font-family="FreeSans" font-size="10.00">cstring</text>
</g>
<!-- Node4&#45;&gt;Node11 -->
<g id="edge13" class="edge"><title>Node4&#45;&gt;Node11</title>
<path fill="none" stroke="midnightblue" d="M199.818,-168.444C219.065,-159.636 249.273,-145.812 271.321,-135.722"/>
<polygon fill="midnightblue" stroke="midnightblue" points="272.874,-138.86 280.511,-131.516 269.961,-132.495 272.874,-138.86"/>
</g>
<!-- Node5&#45;&gt;Node6 -->
<g id="edge5" class="edge"><title>Node5&#45;&gt;Node6</title>
<path fill="none" stroke="midnightblue" d="M334.631,-56.4435C314.478,-47.5961 282.798,-33.6875 259.79,-23.5865"/>
<polygon fill="midnightblue" stroke="midnightblue" points="261.083,-20.3316 250.519,-19.5164 258.269,-26.7411 261.083,-20.3316"/>
</g>
<!-- Node7&#45;&gt;Node5 -->
<g id="edge7" class="edge"><title>Node7&#45;&gt;Node5</title>
<path fill="none" stroke="midnightblue" d="M250.61,-112.444C270.763,-103.596 302.443,-89.6875 325.451,-79.5865"/>
<polygon fill="midnightblue" stroke="midnightblue" points="326.973,-82.7411 334.722,-75.5164 324.159,-76.3316 326.973,-82.7411"/>
</g>
<!-- Node7&#45;&gt;Node6 -->
<g id="edge8" class="edge"><title>Node7&#45;&gt;Node6</title>
<path fill="none" stroke="midnightblue" d="M231.121,-112.368C231.121,-94.617 231.121,-53.6664 231.121,-29.5974"/>
<polygon fill="midnightblue" stroke="midnightblue" points="234.621,-29.5914 231.121,-19.5914 227.621,-29.5915 234.621,-29.5914"/>
</g>
<!-- Node12&#45;&gt;Node5 -->
<g id="edge15" class="edge"><title>Node12&#45;&gt;Node5</title>
<path fill="none" stroke="midnightblue" d="M346.657,-224.289C358.68,-216.043 376.152,-202.756 388.121,-188 405.776,-166.232 410.488,-159.232 417.121,-132 419.224,-123.364 421.188,-119.904 417.121,-112 410.043,-98.2475 396.6,-87.7663 383.943,-80.3942"/>
<polygon fill="midnightblue" stroke="midnightblue" points="385.434,-77.2221 374.968,-75.5733 382.121,-83.3888 385.434,-77.2221"/>
</g>
<!-- Node13 -->
<g id="node13" class="node"><title>Node13</title>
<g id="a_node13"><a xlink:href="xml_8h.html" target="_top" xlink:title="Classes providing support for XML data files. ">
<polygon fill="white" stroke="red" points="340.621,-168.5 340.621,-187.5 379.621,-187.5 379.621,-168.5 340.621,-168.5"/>
<text text-anchor="middle" x="360.121" y="-175.5" font-family="FreeSans" font-size="10.00">xml.h</text>
</a>
</g>
</g>
<!-- Node12&#45;&gt;Node13 -->
<g id="edge16" class="edge"><title>Node12&#45;&gt;Node13</title>
<path fill="none" stroke="midnightblue" d="M337.579,-224.083C341.275,-216.691 346.644,-205.953 351.215,-196.811"/>
<polygon fill="midnightblue" stroke="midnightblue" points="354.403,-198.261 355.745,-187.751 348.142,-195.13 354.403,-198.261"/>
</g>
<!-- Node14 -->
<g id="node14" class="node"><title>Node14</title>
<g id="a_node14"><a xlink:href="Array_8h.html" target="_top" xlink:title="Header file for class Cantera::Array2D. ">
<polygon fill="white" stroke="red" points="275.621,-168.5 275.621,-187.5 322.621,-187.5 322.621,-168.5 275.621,-168.5"/>
<text text-anchor="middle" x="299.121" y="-175.5" font-family="FreeSans" font-size="10.00">Array.h</text>
</a>
</g>
</g>
<!-- Node12&#45;&gt;Node14 -->
<g id="edge17" class="edge"><title>Node12&#45;&gt;Node14</title>
<path fill="none" stroke="midnightblue" d="M327.506,-224.083C322.753,-216.534 315.802,-205.495 309.969,-196.23"/>
<polygon fill="midnightblue" stroke="midnightblue" points="312.92,-194.349 304.63,-187.751 306.997,-198.078 312.92,-194.349"/>
</g>
<!-- Node14&#45;&gt;Node5 -->
<g id="edge18" class="edge"><title>Node14&#45;&gt;Node5</title>
<path fill="none" stroke="midnightblue" d="M322.878,-169.843C350.105,-161.104 392.137,-145.782 401.121,-132 412.753,-114.154 393.702,-94.4274 376.484,-81.4392"/>
<polygon fill="midnightblue" stroke="midnightblue" points="378.501,-78.5786 368.321,-75.6422 374.448,-84.2859 378.501,-78.5786"/>
</g>
<!-- Node14&#45;&gt;Node7 -->
<g id="edge19" class="edge"><title>Node14&#45;&gt;Node7</title>
<path fill="none" stroke="midnightblue" d="M288.195,-168.324C277.946,-160.185 262.4,-147.839 250.12,-138.087"/>
<polygon fill="midnightblue" stroke="midnightblue" points="252.252,-135.312 242.245,-131.834 247.899,-140.794 252.252,-135.312"/>
</g>
<!-- Node14&#45;&gt;Node10 -->
<g id="edge20" class="edge"><title>Node14&#45;&gt;Node10</title>
<path fill="none" stroke="midnightblue" d="M309.885,-168.324C319.887,-160.263 335.007,-148.077 347.051,-138.369"/>
<polygon fill="midnightblue" stroke="midnightblue" points="349.57,-140.834 355.16,-131.834 345.178,-135.384 349.57,-140.834"/>
</g>
<!-- Node14&#45;&gt;Node11 -->
<g id="edge21" class="edge"><title>Node14&#45;&gt;Node11</title>
<path fill="none" stroke="midnightblue" d="M299.121,-168.083C299.121,-161.006 299.121,-150.861 299.121,-141.986"/>
<polygon fill="midnightblue" stroke="midnightblue" points="302.621,-141.751 299.121,-131.751 295.621,-141.751 302.621,-141.751"/>
</g>
<!-- Node15&#45;&gt;Node5 -->
<g id="edge23" class="edge"><title>Node15&#45;&gt;Node5</title>
<path fill="none" stroke="midnightblue" d="M467.792,-224.388C466.562,-203.072 460.729,-147.042 433.121,-112 421.715,-97.5227 404.278,-86.8902 388.685,-79.607"/>
<polygon fill="midnightblue" stroke="midnightblue" points="389.85,-76.2965 379.285,-75.5006 387.048,-82.7112 389.85,-76.2965"/>
</g>
<!-- Node16&#45;&gt;Node5 -->
<g id="edge25" class="edge"><title>Node16&#45;&gt;Node5</title>
<path fill="none" stroke="midnightblue" d="M507.855,-280.236C520.01,-272.481 535.932,-259.929 543.121,-244 546.777,-235.898 546.072,-232.385 543.121,-224 521.918,-163.765 503.558,-151.165 453.121,-112 434.623,-97.6367 410.808,-86.6275 391.171,-79.0942"/>
<polygon fill="midnightblue" stroke="midnightblue" points="392.215,-75.7489 381.622,-75.5742 389.794,-82.3169 392.215,-75.7489"/>
</g>
<!-- Node17&#45;&gt;Node5 -->
<g id="edge27" class="edge"><title>Node17&#45;&gt;Node5</title>
<path fill="none" stroke="midnightblue" d="M123.671,-224.483C73.8149,-205.868 -31.4972,-159.416 10.1205,-112 30.073,-89.2675 230.509,-74.5036 315.91,-69.1991"/>
<polygon fill="midnightblue" stroke="midnightblue" points="316.206,-72.6876 325.974,-68.5848 315.779,-65.7006 316.206,-72.6876"/>
</g>
<!-- Node17&#45;&gt;Node14 -->
<g id="edge28" class="edge"><title>Node17&#45;&gt;Node14</title>
<path fill="none" stroke="midnightblue" d="M172.047,-224.444C197.339,-215.399 237.423,-201.064 265.8,-190.916"/>
<polygon fill="midnightblue" stroke="midnightblue" points="267.069,-194.179 275.306,-187.516 264.711,-187.588 267.069,-194.179"/>
</g>
</g>
</svg>
