<?xml version="1.0" encoding="UTF-8" standalone="no"?>
<!DOCTYPE svg PUBLIC "-//W3C//DTD SVG 1.1//EN"
 "http://www.w3.org/Graphics/SVG/1.1/DTD/svg11.dtd">
<!-- Generated by graphviz version 2.36.0 (20140111.2315)
 -->
<!-- Title: vcs_solve.cpp Pages: 1 -->
<svg width="1096pt" height="332pt"
 viewBox="0.00 0.00 1096.00 332.00" xmlns="http://www.w3.org/2000/svg" xmlns:xlink="http://www.w3.org/1999/xlink">
<g id="graph0" class="graph" transform="scale(1 1) rotate(0) translate(4 328)">
<title>vcs_solve.cpp</title>
<polygon fill="white" stroke="none" points="-4,4 -4,-328 1092,-328 1092,4 -4,4"/>
<!-- Node1 -->
<g id="node1" class="node"><title>Node1</title>
<polygon fill="#bfbfbf" stroke="black" points="540,-304.5 540,-323.5 616,-323.5 616,-304.5 540,-304.5"/>
<text text-anchor="middle" x="578" y="-311.5" font-family="FreeSans" font-size="10.00">vcs_solve.cpp</text>
</g>
<!-- Node2 -->
<g id="node2" class="node"><title>Node2</title>
<g id="a_node2"><a xlink:href="vcs__solve_8h.html" target="_top" xlink:title="Header file for the internal object that holds the vcs equilibrium problem (see Class VCS_SOLVE and E...">
<polygon fill="white" stroke="black" points="303,-248.5 303,-267.5 427,-267.5 427,-248.5 303,-248.5"/>
<text text-anchor="middle" x="365" y="-255.5" font-family="FreeSans" font-size="10.00">cantera/equil/vcs_solve.h</text>
</a>
</g>
</g>
<!-- Node1&#45;&gt;Node2 -->
<g id="edge1" class="edge"><title>Node1&#45;&gt;Node2</title>
<path fill="none" stroke="midnightblue" d="M544.25,-304.444C507.482,-295.122 448.554,-280.183 408.378,-269.997"/>
<polygon fill="midnightblue" stroke="midnightblue" points="409.146,-266.581 398.593,-267.516 407.426,-273.367 409.146,-266.581"/>
</g>
<!-- Node14 -->
<g id="node14" class="node"><title>Node14</title>
<g id="a_node14"><a xlink:href="vcs__internal_8h.html" target="_top" xlink:title="Internal declarations for the VCSnonideal package. ">
<polygon fill="white" stroke="black" points="91,-192.5 91,-211.5 225,-211.5 225,-192.5 91,-192.5"/>
<text text-anchor="middle" x="158" y="-199.5" font-family="FreeSans" font-size="10.00">cantera/equil/vcs_internal.h</text>
</a>
</g>
</g>
<!-- Node1&#45;&gt;Node14 -->
<g id="edge23" class="edge"><title>Node1&#45;&gt;Node14</title>
<path fill="none" stroke="midnightblue" d="M539.997,-310.475C484.765,-306.027 379.566,-294.609 294,-268 252.604,-255.127 207.835,-231.697 181.392,-216.762"/>
<polygon fill="midnightblue" stroke="midnightblue" points="182.936,-213.613 172.519,-211.68 179.457,-219.687 182.936,-213.613"/>
</g>
<!-- Node17 -->
<g id="node17" class="node"><title>Node17</title>
<g id="a_node17"><a xlink:href="ctexceptions_8h.html" target="_top" xlink:title="Definitions for the classes that are thrown when Cantera experiences an error condition (also contain...">
<polygon fill="white" stroke="black" points="810.5,-248.5 810.5,-267.5 947.5,-267.5 947.5,-248.5 810.5,-248.5"/>
<text text-anchor="middle" x="879" y="-255.5" font-family="FreeSans" font-size="10.00">cantera/base/ctexceptions.h</text>
</a>
</g>
</g>
<!-- Node1&#45;&gt;Node17 -->
<g id="edge20" class="edge"><title>Node1&#45;&gt;Node17</title>
<path fill="none" stroke="midnightblue" d="M616.122,-306.161C667.938,-296.865 761.046,-280.161 821.405,-269.333"/>
<polygon fill="midnightblue" stroke="midnightblue" points="822.313,-272.726 831.538,-267.515 821.077,-265.836 822.313,-272.726"/>
</g>
<!-- Node19 -->
<g id="node19" class="node"><title>Node19</title>
<g id="a_node19"><a xlink:href="vcs__prob_8h.html" target="_top" xlink:title="Header for the Interface class for the vcs thermo equilibrium solver package,. ">
<polygon fill="white" stroke="black" points="423.5,-192.5 423.5,-211.5 544.5,-211.5 544.5,-192.5 423.5,-192.5"/>
<text text-anchor="middle" x="484" y="-199.5" font-family="FreeSans" font-size="10.00">cantera/equil/vcs_prob.h</text>
</a>
</g>
</g>
<!-- Node1&#45;&gt;Node19 -->
<g id="edge24" class="edge"><title>Node1&#45;&gt;Node19</title>
<path fill="none" stroke="midnightblue" d="M570.624,-304.368C554.974,-286.055 518.224,-243.049 497.982,-219.362"/>
<polygon fill="midnightblue" stroke="midnightblue" points="500.499,-216.92 491.342,-211.591 495.177,-221.468 500.499,-216.92"/>
</g>
<!-- Node20 -->
<g id="node20" class="node"><title>Node20</title>
<g id="a_node20"><a xlink:href="vcs__VolPhase_8h.html" target="_top" xlink:title="Header for the object representing each phase within vcs. ">
<polygon fill="white" stroke="black" points="601.5,-192.5 601.5,-211.5 744.5,-211.5 744.5,-192.5 601.5,-192.5"/>
<text text-anchor="middle" x="673" y="-199.5" font-family="FreeSans" font-size="10.00">cantera/equil/vcs_VolPhase.h</text>
</a>
</g>
</g>
<!-- Node1&#45;&gt;Node20 -->
<g id="edge29" class="edge"><title>Node1&#45;&gt;Node20</title>
<path fill="none" stroke="midnightblue" d="M585.454,-304.368C601.271,-286.055 638.412,-243.049 658.869,-219.362"/>
<polygon fill="midnightblue" stroke="midnightblue" points="661.693,-221.447 665.58,-211.591 656.395,-216.872 661.693,-221.447"/>
</g>
<!-- Node21 -->
<g id="node21" class="node"><title>Node21</title>
<g id="a_node21"><a xlink:href="vcs__SpeciesProperties_8h.html" target="_top" xlink:title="cantera/equil/vcs_Species\lProperties.h">
<polygon fill="white" stroke="black" points="628.5,-57 628.5,-87 757.5,-87 757.5,-57 628.5,-57"/>
<text text-anchor="start" x="636.5" y="-75" font-family="FreeSans" font-size="10.00">cantera/equil/vcs_Species</text>
<text text-anchor="middle" x="693" y="-64" font-family="FreeSans" font-size="10.00">Properties.h</text>
</a>
</g>
</g>
<!-- Node1&#45;&gt;Node21 -->
<g id="edge34" class="edge"><title>Node1&#45;&gt;Node21</title>
<path fill="none" stroke="midnightblue" d="M612.051,-304.499C653.803,-292.042 722.74,-264.402 753,-212 763.111,-194.491 760.737,-161.544 742,-124 736.402,-112.783 727.476,-102.402 718.767,-93.9736"/>
<polygon fill="midnightblue" stroke="midnightblue" points="720.997,-91.2698 711.258,-87.0976 716.269,-96.4323 720.997,-91.2698"/>
</g>
<!-- Node22 -->
<g id="node22" class="node"><title>Node22</title>
<g id="a_node22"><a xlink:href="vcs__species__thermo_8h.html" target="_top" xlink:title="cantera/equil/vcs_species\l_thermo.h">
<polygon fill="white" stroke="black" points="-0.5,-57 -0.5,-87 126.5,-87 126.5,-57 -0.5,-57"/>
<text text-anchor="start" x="7.5" y="-75" font-family="FreeSans" font-size="10.00">cantera/equil/vcs_species</text>
<text text-anchor="middle" x="63" y="-64" font-family="FreeSans" font-size="10.00">_thermo.h</text>
</a>
</g>
</g>
<!-- Node1&#45;&gt;Node22 -->
<g id="edge35" class="edge"><title>Node1&#45;&gt;Node22</title>
<path fill="none" stroke="midnightblue" d="M539.761,-310.514C476.618,-305.831 346.9,-293.763 240,-268 167.571,-250.545 142.755,-255.122 82,-212 55.9628,-193.52 47.6014,-186.118 37,-156 29.9588,-135.997 38.4675,-112.962 47.5843,-96.2418"/>
<polygon fill="midnightblue" stroke="midnightblue" points="50.8518,-97.5905 52.9095,-87.1974 44.8197,-94.0389 50.8518,-97.5905"/>
</g>
<!-- Node23 -->
<g id="node23" class="node"><title>Node23</title>
<g id="a_node23"><a xlink:href="clockWC_8h.html" target="_top" xlink:title="Declarations for a simple class that implements an Ansi C wall clock timer (see Cantera::clockWC). ">
<polygon fill="white" stroke="black" points="966,-248.5 966,-267.5 1088,-267.5 1088,-248.5 966,-248.5"/>
<text text-anchor="middle" x="1027" y="-255.5" font-family="FreeSans" font-size="10.00">cantera/base/clockWC.h</text>
</a>
</g>
</g>
<!-- Node1&#45;&gt;Node23 -->
<g id="edge37" class="edge"><title>Node1&#45;&gt;Node23</title>
<path fill="none" stroke="midnightblue" d="M616.106,-308.561C682.566,-300.797 824.264,-284.15 955.573,-268.044"/>
<polygon fill="midnightblue" stroke="midnightblue" points="956.314,-271.479 965.813,-266.786 955.461,-264.531 956.314,-271.479"/>
</g>
<!-- Node3 -->
<g id="node3" class="node"><title>Node3</title>
<g id="a_node3"><a xlink:href="ct__defs_8h.html" target="_top" xlink:title="This file contains definitions of terms that are used in internal routines and are unlikely to need m...">
<polygon fill="white" stroke="black" points="189,-62.5 189,-81.5 303,-81.5 303,-62.5 189,-62.5"/>
<text text-anchor="middle" x="246" y="-69.5" font-family="FreeSans" font-size="10.00">cantera/base/ct_defs.h</text>
</a>
</g>
</g>
<!-- Node2&#45;&gt;Node3 -->
<g id="edge2" class="edge"><title>Node2&#45;&gt;Node3</title>
<path fill="none" stroke="midnightblue" d="M352.654,-248.264C331.268,-232.442 287.47,-196.866 265,-156 253.841,-135.705 249.224,-109.162 247.321,-91.621"/>
<polygon fill="midnightblue" stroke="midnightblue" points="250.798,-91.1992 246.422,-81.5503 243.825,-91.8222 250.798,-91.1992"/>
</g>
<!-- Node11 -->
<g id="node11" class="node"><title>Node11</title>
<g id="a_node11"><a xlink:href="vcs__defs_8h.html" target="_top" xlink:title="Defines and definitions within the vcs package. ">
<polygon fill="white" stroke="black" points="274,-130.5 274,-149.5 394,-149.5 394,-130.5 274,-130.5"/>
<text text-anchor="middle" x="334" y="-137.5" font-family="FreeSans" font-size="10.00">cantera/equil/vcs_defs.h</text>
</a>
</g>
</g>
<!-- Node2&#45;&gt;Node11 -->
<g id="edge10" class="edge"><title>Node2&#45;&gt;Node11</title>
<path fill="none" stroke="midnightblue" d="M362.67,-248.281C357.641,-229.463 345.678,-184.697 338.901,-159.34"/>
<polygon fill="midnightblue" stroke="midnightblue" points="342.236,-158.262 336.273,-149.505 335.473,-160.069 342.236,-158.262"/>
</g>
<!-- Node12 -->
<g id="node12" class="node"><title>Node12</title>
<g id="a_node12"><a xlink:href="vcs__DoubleStarStar_8h.html" target="_top" xlink:title="Header file for class DoubleStarStar. ">
<polygon fill="white" stroke="black" points="592.5,-125 592.5,-155 717.5,-155 717.5,-125 592.5,-125"/>
<text text-anchor="start" x="600.5" y="-143" font-family="FreeSans" font-size="10.00">cantera/equil/vcs_Double</text>
<text text-anchor="middle" x="655" y="-132" font-family="FreeSans" font-size="10.00">StarStar.h</text>
</a>
</g>
</g>
<!-- Node2&#45;&gt;Node12 -->
<g id="edge11" class="edge"><title>Node2&#45;&gt;Node12</title>
<path fill="none" stroke="midnightblue" d="M425.288,-248.465C463.118,-241.695 512.271,-230.263 553,-212 581.941,-199.023 611.277,-177.539 631.012,-161.596"/>
<polygon fill="midnightblue" stroke="midnightblue" points="633.355,-164.201 638.853,-155.144 628.907,-158.795 633.355,-164.201"/>
</g>
<!-- Node13 -->
<g id="node13" class="node"><title>Node13</title>
<g id="a_node13"><a xlink:href="vcs__IntStarStar_8h.html" target="_top" xlink:title="Header file for class IntStarStar. ">
<polygon fill="white" stroke="black" points="412,-125 412,-155 536,-155 536,-125 412,-125"/>
<text text-anchor="start" x="420" y="-143" font-family="FreeSans" font-size="10.00">cantera/equil/vcs_IntStar</text>
<text text-anchor="middle" x="474" y="-132" font-family="FreeSans" font-size="10.00">Star.h</text>
</a>
</g>
</g>
<!-- Node2&#45;&gt;Node13 -->
<g id="edge13" class="edge"><title>Node2&#45;&gt;Node13</title>
<path fill="none" stroke="midnightblue" d="M370.777,-248.108C379.412,-235.123 396.547,-210.506 414,-192 424.166,-181.221 436.477,-170.429 447.296,-161.566"/>
<polygon fill="midnightblue" stroke="midnightblue" points="449.618,-164.19 455.218,-155.196 445.231,-158.735 449.618,-164.19"/>
</g>
<!-- Node2&#45;&gt;Node14 -->
<g id="edge15" class="edge"><title>Node2&#45;&gt;Node14</title>
<path fill="none" stroke="midnightblue" d="M332.2,-248.444C296.62,-239.162 239.686,-224.309 200.653,-214.127"/>
<polygon fill="midnightblue" stroke="midnightblue" points="201.206,-210.654 190.646,-211.516 199.439,-217.427 201.206,-210.654"/>
</g>
<!-- Node4 -->
<g id="node4" class="node"><title>Node4</title>
<g id="a_node4"><a xlink:href="config_8h_source.html" target="_top" xlink:title="config.h">
<polygon fill="white" stroke="black" points="325,-0.5 325,-19.5 375,-19.5 375,-0.5 325,-0.5"/>
<text text-anchor="middle" x="350" y="-7.5" font-family="FreeSans" font-size="10.00">config.h</text>
</a>
</g>
</g>
<!-- Node3&#45;&gt;Node4 -->
<g id="edge3" class="edge"><title>Node3&#45;&gt;Node4</title>
<path fill="none" stroke="midnightblue" d="M260.901,-62.4035C277.968,-52.5569 306.161,-36.2915 326.262,-24.6949"/>
<polygon fill="midnightblue" stroke="midnightblue" points="328.214,-27.6095 335.127,-19.5806 324.716,-21.5462 328.214,-27.6095"/>
</g>
<!-- Node5 -->
<g id="node5" class="node"><title>Node5</title>
<polygon fill="white" stroke="#bfbfbf" points="135,-0.5 135,-19.5 179,-19.5 179,-0.5 135,-0.5"/>
<text text-anchor="middle" x="157" y="-7.5" font-family="FreeSans" font-size="10.00">cmath</text>
</g>
<!-- Node3&#45;&gt;Node5 -->
<g id="edge4" class="edge"><title>Node3&#45;&gt;Node5</title>
<path fill="none" stroke="midnightblue" d="M233.248,-62.4035C218.973,-52.7797 195.603,-37.0242 178.492,-25.4891"/>
<polygon fill="midnightblue" stroke="midnightblue" points="179.976,-22.2684 169.728,-19.5806 176.063,-28.0727 179.976,-22.2684"/>
</g>
<!-- Node6 -->
<g id="node6" class="node"><title>Node6</title>
<polygon fill="white" stroke="#bfbfbf" points="57,-0.5 57,-19.5 101,-19.5 101,-0.5 57,-0.5"/>
<text text-anchor="middle" x="79" y="-7.5" font-family="FreeSans" font-size="10.00">cstdlib</text>
</g>
<!-- Node3&#45;&gt;Node6 -->
<g id="edge5" class="edge"><title>Node3&#45;&gt;Node6</title>
<path fill="none" stroke="midnightblue" d="M222.073,-62.4035C192.73,-51.8612 142.909,-33.9611 110.482,-22.3109"/>
<polygon fill="midnightblue" stroke="midnightblue" points="111.613,-18.9984 101.019,-18.911 109.246,-25.5861 111.613,-18.9984"/>
</g>
<!-- Node7 -->
<g id="node7" class="node"><title>Node7</title>
<polygon fill="white" stroke="#bfbfbf" points="472.5,-0.5 472.5,-19.5 515.5,-19.5 515.5,-0.5 472.5,-0.5"/>
<text text-anchor="middle" x="494" y="-7.5" font-family="FreeSans" font-size="10.00">vector</text>
</g>
<!-- Node3&#45;&gt;Node7 -->
<g id="edge6" class="edge"><title>Node3&#45;&gt;Node7</title>
<path fill="none" stroke="midnightblue" d="M281.269,-62.4672C329.756,-50.7366 416.252,-29.8099 462.609,-18.5946"/>
<polygon fill="midnightblue" stroke="midnightblue" points="463.508,-21.9782 472.404,-16.2248 461.862,-15.1745 463.508,-21.9782"/>
</g>
<!-- Node8 -->
<g id="node8" class="node"><title>Node8</title>
<polygon fill="white" stroke="#bfbfbf" points="197.5,-0.5 197.5,-19.5 232.5,-19.5 232.5,-0.5 197.5,-0.5"/>
<text text-anchor="middle" x="215" y="-7.5" font-family="FreeSans" font-size="10.00">map</text>
</g>
<!-- Node3&#45;&gt;Node8 -->
<g id="edge7" class="edge"><title>Node3&#45;&gt;Node8</title>
<path fill="none" stroke="midnightblue" d="M241.558,-62.4035C237.047,-53.6707 229.926,-39.8893 224.193,-28.7936"/>
<polygon fill="midnightblue" stroke="midnightblue" points="227.133,-26.8583 219.433,-19.5806 220.914,-30.0714 227.133,-26.8583"/>
</g>
<!-- Node9 -->
<g id="node9" class="node"><title>Node9</title>
<polygon fill="white" stroke="#bfbfbf" points="551,-0.5 551,-19.5 591,-19.5 591,-0.5 551,-0.5"/>
<text text-anchor="middle" x="571" y="-7.5" font-family="FreeSans" font-size="10.00">string</text>
</g>
<!-- Node3&#45;&gt;Node9 -->
<g id="edge8" class="edge"><title>Node3&#45;&gt;Node9</title>
<path fill="none" stroke="midnightblue" d="M293.242,-62.4486C348.571,-52.4067 442.975,-35.1896 524,-20 529.512,-18.9667 535.385,-17.8526 541.045,-16.7721"/>
<polygon fill="midnightblue" stroke="midnightblue" points="541.717,-20.2072 550.88,-14.8884 540.4,-13.3322 541.717,-20.2072"/>
</g>
<!-- Node10 -->
<g id="node10" class="node"><title>Node10</title>
<polygon fill="white" stroke="#bfbfbf" points="251,-0.5 251,-19.5 307,-19.5 307,-0.5 251,-0.5"/>
<text text-anchor="middle" x="279" y="-7.5" font-family="FreeSans" font-size="10.00">algorithm</text>
</g>
<!-- Node3&#45;&gt;Node10 -->
<g id="edge9" class="edge"><title>Node3&#45;&gt;Node10</title>
<path fill="none" stroke="midnightblue" d="M250.728,-62.4035C255.58,-53.5816 263.266,-39.6075 269.4,-28.4548"/>
<polygon fill="midnightblue" stroke="midnightblue" points="272.528,-30.0295 274.281,-19.5806 266.395,-26.656 272.528,-30.0295"/>
</g>
<!-- Node12&#45;&gt;Node7 -->
<g id="edge12" class="edge"><title>Node12&#45;&gt;Node7</title>
<path fill="none" stroke="midnightblue" d="M637.155,-124.813C606.472,-100.419 544.009,-50.7583 512.728,-25.8892"/>
<polygon fill="midnightblue" stroke="midnightblue" points="514.79,-23.0574 504.784,-19.5738 510.434,-28.5367 514.79,-23.0574"/>
</g>
<!-- Node13&#45;&gt;Node7 -->
<g id="edge14" class="edge"><title>Node13&#45;&gt;Node7</title>
<path fill="none" stroke="midnightblue" d="M476.217,-124.813C479.849,-101.566 487.067,-55.3714 491.101,-29.5555"/>
<polygon fill="midnightblue" stroke="midnightblue" points="494.575,-29.9943 492.66,-19.5738 487.658,-28.9136 494.575,-29.9943"/>
</g>
<!-- Node14&#45;&gt;Node11 -->
<g id="edge17" class="edge"><title>Node14&#45;&gt;Node11</title>
<path fill="none" stroke="midnightblue" d="M183.217,-192.403C213.668,-182.022 265.049,-164.506 299.243,-152.849"/>
<polygon fill="midnightblue" stroke="midnightblue" points="300.495,-156.12 308.83,-149.581 298.236,-149.495 300.495,-156.12"/>
</g>
<!-- Node15 -->
<g id="node15" class="node"><title>Node15</title>
<polygon fill="white" stroke="#bfbfbf" points="46.5,-130.5 46.5,-149.5 91.5,-149.5 91.5,-130.5 46.5,-130.5"/>
<text text-anchor="middle" x="69" y="-137.5" font-family="FreeSans" font-size="10.00">cstring</text>
</g>
<!-- Node14&#45;&gt;Node15 -->
<g id="edge16" class="edge"><title>Node14&#45;&gt;Node15</title>
<path fill="none" stroke="midnightblue" d="M145.248,-192.403C130.973,-182.78 107.603,-167.024 90.4921,-155.489"/>
<polygon fill="midnightblue" stroke="midnightblue" points="91.9761,-152.268 81.7279,-149.581 88.0631,-158.073 91.9761,-152.268"/>
</g>
<!-- Node16 -->
<g id="node16" class="node"><title>Node16</title>
<g id="a_node16"><a xlink:href="global_8h.html" target="_top" xlink:title="This file contains definitions for utility functions and text for modules, inputfiles, logs, textlogs, HTML_logs (see Input File Handling, Diagnostic Output, Writing messages to the screen and Writing HTML Logfiles). ">
<polygon fill="white" stroke="black" points="110,-130.5 110,-149.5 218,-149.5 218,-130.5 110,-130.5"/>
<text text-anchor="middle" x="164" y="-137.5" font-family="FreeSans" font-size="10.00">cantera/base/global.h</text>
</a>
</g>
</g>
<!-- Node14&#45;&gt;Node16 -->
<g id="edge18" class="edge"><title>Node14&#45;&gt;Node16</title>
<path fill="none" stroke="midnightblue" d="M158.86,-192.403C159.706,-183.938 161.027,-170.728 162.118,-159.82"/>
<polygon fill="midnightblue" stroke="midnightblue" points="165.629,-159.879 163.142,-149.581 158.664,-159.183 165.629,-159.879"/>
</g>
<!-- Node16&#45;&gt;Node3 -->
<g id="edge19" class="edge"><title>Node16&#45;&gt;Node3</title>
<path fill="none" stroke="midnightblue" d="M174.72,-130.372C188.103,-119.6 211.209,-101.002 227.48,-87.9065"/>
<polygon fill="midnightblue" stroke="midnightblue" points="229.682,-90.6271 235.277,-81.6305 225.293,-85.174 229.682,-90.6271"/>
</g>
<!-- Node17&#45;&gt;Node9 -->
<g id="edge22" class="edge"><title>Node17&#45;&gt;Node9</title>
<path fill="none" stroke="midnightblue" d="M870.418,-248.227C862.199,-239.524 849.782,-225.561 841,-212 799.182,-147.429 826.073,-104.057 766,-56 717.831,-17.4658 642.682,-10.7366 601.146,-10.2313"/>
<polygon fill="midnightblue" stroke="midnightblue" points="601.105,-6.73137 591.103,-10.2239 601.1,-13.7314 601.105,-6.73137"/>
</g>
<!-- Node18 -->
<g id="node18" class="node"><title>Node18</title>
<polygon fill="white" stroke="#bfbfbf" points="850,-192.5 850,-211.5 908,-211.5 908,-192.5 850,-192.5"/>
<text text-anchor="middle" x="879" y="-199.5" font-family="FreeSans" font-size="10.00">exception</text>
</g>
<!-- Node17&#45;&gt;Node18 -->
<g id="edge21" class="edge"><title>Node17&#45;&gt;Node18</title>
<path fill="none" stroke="midnightblue" d="M879,-248.083C879,-241.006 879,-230.861 879,-221.986"/>
<polygon fill="midnightblue" stroke="midnightblue" points="882.5,-221.751 879,-211.751 875.5,-221.751 882.5,-221.751"/>
</g>
<!-- Node19&#45;&gt;Node9 -->
<g id="edge28" class="edge"><title>Node19&#45;&gt;Node9</title>
<path fill="none" stroke="midnightblue" d="M501.598,-192.472C515.369,-184.853 533.834,-172.371 544,-156 568.805,-116.055 571.917,-58.8119 571.694,-29.6374"/>
<polygon fill="midnightblue" stroke="midnightblue" points="575.192,-29.5292 571.472,-19.6092 568.194,-29.6843 575.192,-29.5292"/>
</g>
<!-- Node19&#45;&gt;Node11 -->
<g id="edge27" class="edge"><title>Node19&#45;&gt;Node11</title>
<path fill="none" stroke="midnightblue" d="M462.509,-192.403C436.89,-182.156 393.89,-164.956 364.755,-153.302"/>
<polygon fill="midnightblue" stroke="midnightblue" points="366.036,-150.045 355.451,-149.581 363.436,-156.544 366.036,-150.045"/>
</g>
<!-- Node19&#45;&gt;Node12 -->
<g id="edge25" class="edge"><title>Node19&#45;&gt;Node12</title>
<path fill="none" stroke="midnightblue" d="M508.5,-192.403C533.691,-183.564 573.624,-169.553 605.44,-158.39"/>
<polygon fill="midnightblue" stroke="midnightblue" points="606.751,-161.639 615.028,-155.025 604.433,-155.034 606.751,-161.639"/>
</g>
<!-- Node19&#45;&gt;Node13 -->
<g id="edge26" class="edge"><title>Node19&#45;&gt;Node13</title>
<path fill="none" stroke="midnightblue" d="M482.567,-192.403C481.377,-185.265 479.625,-174.752 478.015,-165.09"/>
<polygon fill="midnightblue" stroke="midnightblue" points="481.453,-164.429 476.357,-155.141 474.548,-165.58 481.453,-164.429"/>
</g>
<!-- Node20&#45;&gt;Node12 -->
<g id="edge30" class="edge"><title>Node20&#45;&gt;Node12</title>
<path fill="none" stroke="midnightblue" d="M670.421,-192.403C668.257,-185.189 665.058,-174.528 662.135,-164.782"/>
<polygon fill="midnightblue" stroke="midnightblue" points="665.468,-163.713 659.242,-155.141 658.763,-165.725 665.468,-163.713"/>
</g>
<!-- Node20&#45;&gt;Node21 -->
<g id="edge31" class="edge"><title>Node20&#45;&gt;Node21</title>
<path fill="none" stroke="midnightblue" d="M689.334,-192.387C701.955,-184.72 718.497,-172.213 726,-156 735.373,-135.747 723.778,-112.035 711.829,-95.1529"/>
<polygon fill="midnightblue" stroke="midnightblue" points="714.484,-92.8614 705.657,-87.002 708.903,-97.0872 714.484,-92.8614"/>
</g>
<!-- Node21&#45;&gt;Node7 -->
<g id="edge32" class="edge"><title>Node21&#45;&gt;Node7</title>
<path fill="none" stroke="midnightblue" d="M646.343,-56.9327C609.129,-45.7123 558.021,-30.303 525.498,-20.497"/>
<polygon fill="midnightblue" stroke="midnightblue" points="526.218,-17.0583 515.633,-17.5225 524.197,-23.7603 526.218,-17.0583"/>
</g>
<!-- Node21&#45;&gt;Node9 -->
<g id="edge33" class="edge"><title>Node21&#45;&gt;Node9</title>
<path fill="none" stroke="midnightblue" d="M664.396,-56.9327C644.181,-46.9907 617.279,-33.7601 597.54,-24.0526"/>
<polygon fill="midnightblue" stroke="midnightblue" points="599.005,-20.8726 588.487,-19.6 595.916,-27.154 599.005,-20.8726"/>
</g>
<!-- Node22&#45;&gt;Node6 -->
<g id="edge36" class="edge"><title>Node22&#45;&gt;Node6</title>
<path fill="none" stroke="midnightblue" d="M66.7918,-56.7808C68.973,-48.6014 71.7376,-38.2341 74.0842,-29.4344"/>
<polygon fill="midnightblue" stroke="midnightblue" points="77.477,-30.2947 76.6719,-19.7305 70.7133,-28.491 77.477,-30.2947"/>
</g>
<!-- Node24 -->
<g id="node24" class="node"><title>Node24</title>
<polygon fill="white" stroke="#bfbfbf" points="1005.5,-192.5 1005.5,-211.5 1048.5,-211.5 1048.5,-192.5 1005.5,-192.5"/>
<text text-anchor="middle" x="1027" y="-199.5" font-family="FreeSans" font-size="10.00">time.h</text>
</g>
<!-- Node23&#45;&gt;Node24 -->
<g id="edge38" class="edge"><title>Node23&#45;&gt;Node24</title>
<path fill="none" stroke="midnightblue" d="M1027,-248.083C1027,-241.006 1027,-230.861 1027,-221.986"/>
<polygon fill="midnightblue" stroke="midnightblue" points="1030.5,-221.751 1027,-211.751 1023.5,-221.751 1030.5,-221.751"/>
</g>
</g>
</svg>
