<?xml version="1.0" encoding="UTF-8" standalone="no"?>
<!DOCTYPE svg PUBLIC "-//W3C//DTD SVG 1.1//EN"
 "http://www.w3.org/Graphics/SVG/1.1/DTD/svg11.dtd">
<!-- Generated by graphviz version 2.36.0 (20140111.2315)
 -->
<!-- Title: vcs_IntStarStar.cpp Pages: 1 -->
<svg width="130pt" height="152pt"
 viewBox="0.00 0.00 130.00 152.00" xmlns="http://www.w3.org/2000/svg" xmlns:xlink="http://www.w3.org/1999/xlink">
<g id="graph0" class="graph" transform="scale(1 1) rotate(0) translate(4 148)">
<title>vcs_IntStarStar.cpp</title>
<polygon fill="white" stroke="none" points="-4,4 -4,-148 126,-148 126,4 -4,4"/>
<!-- Node1 -->
<g id="node1" class="node"><title>Node1</title>
<polygon fill="#bfbfbf" stroke="black" points="10.5,-124.5 10.5,-143.5 111.5,-143.5 111.5,-124.5 10.5,-124.5"/>
<text text-anchor="middle" x="61" y="-131.5" font-family="FreeSans" font-size="10.00">vcs_IntStarStar.cpp</text>
</g>
<!-- Node2 -->
<g id="node2" class="node"><title>Node2</title>
<g id="a_node2"><a xlink:href="vcs__IntStarStar_8h.html" target="_top" xlink:title="Header file for class IntStarStar. ">
<polygon fill="white" stroke="black" points="-1,-57 -1,-87 123,-87 123,-57 -1,-57"/>
<text text-anchor="start" x="7" y="-75" font-family="FreeSans" font-size="10.00">cantera/equil/vcs_IntStar</text>
<text text-anchor="middle" x="61" y="-64" font-family="FreeSans" font-size="10.00">Star.h</text>
</a>
</g>
</g>
<!-- Node1&#45;&gt;Node2 -->
<g id="edge1" class="edge"><title>Node1&#45;&gt;Node2</title>
<path fill="none" stroke="midnightblue" d="M61,-124.403C61,-117.341 61,-106.975 61,-97.399"/>
<polygon fill="midnightblue" stroke="midnightblue" points="64.5001,-97.1408 61,-87.1408 57.5001,-97.1408 64.5001,-97.1408"/>
</g>
<!-- Node3 -->
<g id="node3" class="node"><title>Node3</title>
<polygon fill="white" stroke="#bfbfbf" points="39.5,-0.5 39.5,-19.5 82.5,-19.5 82.5,-0.5 39.5,-0.5"/>
<text text-anchor="middle" x="61" y="-7.5" font-family="FreeSans" font-size="10.00">vector</text>
</g>
<!-- Node2&#45;&gt;Node3 -->
<g id="edge2" class="edge"><title>Node2&#45;&gt;Node3</title>
<path fill="none" stroke="midnightblue" d="M61,-56.7808C61,-48.7812 61,-38.6887 61,-30.0168"/>
<polygon fill="midnightblue" stroke="midnightblue" points="64.5001,-29.7305 61,-19.7305 57.5001,-29.7306 64.5001,-29.7305"/>
</g>
</g>
</svg>
