<?xml version="1.0" encoding="UTF-8" standalone="no"?>
<!DOCTYPE svg PUBLIC "-//W3C//DTD SVG 1.1//EN"
 "http://www.w3.org/Graphics/SVG/1.1/DTD/svg11.dtd">
<!-- Generated by graphviz version 2.36.0 (20140111.2315)
 -->
<!-- Title: vcs_solve.h Pages: 1 -->
<svg width="2243pt" height="84pt"
 viewBox="0.00 0.00 2243.00 84.00" xmlns="http://www.w3.org/2000/svg" xmlns:xlink="http://www.w3.org/1999/xlink">
<g id="graph0" class="graph" transform="scale(1 1) rotate(0) translate(4 80)">
<title>vcs_solve.h</title>
<polygon fill="white" stroke="none" points="-4,4 -4,-80 2239,-80 2239,4 -4,4"/>
<!-- Node1 -->
<g id="node1" class="node"><title>Node1</title>
<polygon fill="#bfbfbf" stroke="black" points="1060.5,-56.5 1060.5,-75.5 1125.5,-75.5 1125.5,-56.5 1060.5,-56.5"/>
<text text-anchor="middle" x="1093" y="-63.5" font-family="FreeSans" font-size="10.00">vcs_solve.h</text>
</g>
<!-- Node2 -->
<g id="node2" class="node"><title>Node2</title>
<g id="a_node2"><a xlink:href="vcs__elem_8cpp.html" target="_top" xlink:title="This file contains the algorithm for checking the satisfaction of the element abundances constraints ...">
<polygon fill="white" stroke="black" points="-0.5,-0.5 -0.5,-19.5 74.5,-19.5 74.5,-0.5 -0.5,-0.5"/>
<text text-anchor="middle" x="37" y="-7.5" font-family="FreeSans" font-size="10.00">vcs_elem.cpp</text>
</a>
</g>
</g>
<!-- Node1&#45;&gt;Node2 -->
<g id="edge1" class="edge"><title>Node1&#45;&gt;Node2</title>
<path fill="none" stroke="midnightblue" d="M1049.86,-65.3637C909.811,-66.0569 455.412,-64.4777 83,-20 80.2528,-19.6719 77.4239,-19.2722 74.5834,-18.8257"/>
<polygon fill="midnightblue" stroke="midnightblue" points="1050.18,-68.862 1060.16,-65.3056 1050.14,-61.8622 1050.18,-68.862"/>
</g>
<!-- Node3 -->
<g id="node3" class="node"><title>Node3</title>
<g id="a_node3"><a xlink:href="vcs__elem__rearrange_8cpp.html" target="_top" xlink:title="Contains implementations for rearranging the element columns, and it contains the algorithm for choos...">
<polygon fill="white" stroke="black" points="92.5,-0.5 92.5,-19.5 213.5,-19.5 213.5,-0.5 92.5,-0.5"/>
<text text-anchor="middle" x="153" y="-7.5" font-family="FreeSans" font-size="10.00">vcs_elem_rearrange.cpp</text>
</a>
</g>
</g>
<!-- Node1&#45;&gt;Node3 -->
<g id="edge2" class="edge"><title>Node1&#45;&gt;Node3</title>
<path fill="none" stroke="midnightblue" d="M1050.02,-63.9678C923.14,-60.6648 539.178,-48.8346 222,-20 219.233,-19.7484 216.406,-19.4694 213.552,-19.1699"/>
<polygon fill="midnightblue" stroke="midnightblue" points="1050.02,-67.4688 1060.11,-64.2263 1050.2,-60.4711 1050.02,-67.4688"/>
</g>
<!-- Node4 -->
<g id="node4" class="node"><title>Node4</title>
<g id="a_node4"><a xlink:href="vcs__equilibrate_8cpp.html" target="_top" xlink:title="Driver routines for equilibrium solvers. ">
<polygon fill="white" stroke="black" points="231,-0.5 231,-19.5 329,-19.5 329,-0.5 231,-0.5"/>
<text text-anchor="middle" x="280" y="-7.5" font-family="FreeSans" font-size="10.00">vcs_equilibrate.cpp</text>
</a>
</g>
</g>
<!-- Node1&#45;&gt;Node4 -->
<g id="edge3" class="edge"><title>Node1&#45;&gt;Node4</title>
<path fill="none" stroke="midnightblue" d="M1050.31,-63.9122C934.989,-60.6596 607.63,-49.3498 337,-20 334.41,-19.7192 331.759,-19.4025 329.085,-19.0603"/>
<polygon fill="midnightblue" stroke="midnightblue" points="1050.39,-67.4156 1060.48,-64.1935 1050.59,-60.4183 1050.39,-67.4156"/>
</g>
<!-- Node5 -->
<g id="node5" class="node"><title>Node5</title>
<g id="a_node5"><a xlink:href="vcs__Gibbs_8cpp.html" target="_top" xlink:title="Functions which calculate the extrinsic Gibbs Free energies. ">
<polygon fill="white" stroke="black" points="346.5,-0.5 346.5,-19.5 425.5,-19.5 425.5,-0.5 346.5,-0.5"/>
<text text-anchor="middle" x="386" y="-7.5" font-family="FreeSans" font-size="10.00">vcs_Gibbs.cpp</text>
</a>
</g>
</g>
<!-- Node1&#45;&gt;Node5 -->
<g id="edge4" class="edge"><title>Node1&#45;&gt;Node5</title>
<path fill="none" stroke="midnightblue" d="M1050.14,-63.7513C944.983,-60.322 665.934,-49.01 435,-20 431.911,-19.6119 428.721,-19.155 425.521,-18.6563"/>
<polygon fill="midnightblue" stroke="midnightblue" points="1050.25,-67.2563 1060.35,-64.0771 1050.47,-60.2598 1050.25,-67.2563"/>
</g>
<!-- Node6 -->
<g id="node6" class="node"><title>Node6</title>
<g id="a_node6"><a xlink:href="vcs__inest_8cpp.html" target="_top" xlink:title="Implementation methods for obtaining a good initial guess. ">
<polygon fill="white" stroke="black" points="444,-0.5 444,-19.5 518,-19.5 518,-0.5 444,-0.5"/>
<text text-anchor="middle" x="481" y="-7.5" font-family="FreeSans" font-size="10.00">vcs_inest.cpp</text>
</a>
</g>
</g>
<!-- Node1&#45;&gt;Node6 -->
<g id="edge5" class="edge"><title>Node1&#45;&gt;Node6</title>
<path fill="none" stroke="midnightblue" d="M1050.27,-63.2666C955.647,-59.0639 721.381,-46.6545 527,-20 524.098,-19.602 521.102,-19.138 518.096,-18.6344"/>
<polygon fill="midnightblue" stroke="midnightblue" points="1050.18,-66.7656 1060.32,-63.705 1050.48,-59.7722 1050.18,-66.7656"/>
</g>
<!-- Node7 -->
<g id="node7" class="node"><title>Node7</title>
<g id="a_node7"><a xlink:href="vcs__MultiPhaseEquil_8cpp.html" target="_top" xlink:title="Driver routine for the VCSnonideal equilibrium solver package. ">
<polygon fill="white" stroke="black" points="536.5,-0.5 536.5,-19.5 659.5,-19.5 659.5,-0.5 536.5,-0.5"/>
<text text-anchor="middle" x="598" y="-7.5" font-family="FreeSans" font-size="10.00">vcs_MultiPhaseEquil.cpp</text>
</a>
</g>
</g>
<!-- Node1&#45;&gt;Node7 -->
<g id="edge6" class="edge"><title>Node1&#45;&gt;Node7</title>
<path fill="none" stroke="midnightblue" d="M1050.05,-60.7333C973.447,-53.0584 808.221,-36.21 669,-20 665.915,-19.6408 662.755,-19.2658 659.564,-18.8817"/>
<polygon fill="midnightblue" stroke="midnightblue" points="1049.96,-64.2417 1060.26,-61.7543 1050.66,-57.2764 1049.96,-64.2417"/>
</g>
<!-- Node8 -->
<g id="node8" class="node"><title>Node8</title>
<g id="a_node8"><a xlink:href="vcs__nondim_8cpp.html" target="_top" xlink:title="Nondimensionalization routines within VCSnonideal. ">
<polygon fill="white" stroke="black" points="678,-0.5 678,-19.5 764,-19.5 764,-0.5 678,-0.5"/>
<text text-anchor="middle" x="721" y="-7.5" font-family="FreeSans" font-size="10.00">vcs_nondim.cpp</text>
</a>
</g>
</g>
<!-- Node1&#45;&gt;Node8 -->
<g id="edge7" class="edge"><title>Node1&#45;&gt;Node8</title>
<path fill="none" stroke="midnightblue" d="M1050.15,-59.4124C988.693,-51.3002 872.024,-35.5281 773,-20 770.104,-19.5458 767.119,-19.0645 764.113,-18.5701"/>
<polygon fill="midnightblue" stroke="midnightblue" points="1049.87,-62.9063 1060.24,-60.7418 1050.78,-55.9662 1049.87,-62.9063"/>
</g>
<!-- Node9 -->
<g id="node9" class="node"><title>Node9</title>
<g id="a_node9"><a xlink:href="vcs__phaseStability_8cpp.html" target="_top" xlink:title="Implementation class for functions associated with determining the stability of a phase (see Class VC...">
<polygon fill="white" stroke="black" points="782,-0.5 782,-19.5 896,-19.5 896,-0.5 782,-0.5"/>
<text text-anchor="middle" x="839" y="-7.5" font-family="FreeSans" font-size="10.00">vcs_phaseStability.cpp</text>
</a>
</g>
</g>
<!-- Node1&#45;&gt;Node9 -->
<g id="edge8" class="edge"><title>Node1&#45;&gt;Node9</title>
<path fill="none" stroke="midnightblue" d="M1050.29,-55.9202C1002.53,-45.7655 925.758,-29.4447 879.087,-19.5225"/>
<polygon fill="midnightblue" stroke="midnightblue" points="1049.8,-59.3949 1060.31,-58.051 1051.26,-52.5479 1049.8,-59.3949"/>
</g>
<!-- Node10 -->
<g id="node10" class="node"><title>Node10</title>
<g id="a_node10"><a xlink:href="vcs__prep_8cpp.html" target="_top" xlink:title="This file contains some prepatory functions. ">
<polygon fill="white" stroke="black" points="914.5,-0.5 914.5,-19.5 987.5,-19.5 987.5,-0.5 914.5,-0.5"/>
<text text-anchor="middle" x="951" y="-7.5" font-family="FreeSans" font-size="10.00">vcs_prep.cpp</text>
</a>
</g>
</g>
<!-- Node1&#45;&gt;Node10 -->
<g id="edge9" class="edge"><title>Node1&#45;&gt;Node10</title>
<path fill="none" stroke="midnightblue" d="M1060.84,-52.772C1034.17,-42.6287 996.931,-28.4669 973.395,-19.5164"/>
<polygon fill="midnightblue" stroke="midnightblue" points="1059.91,-56.1604 1070.5,-56.4435 1062.4,-49.6176 1059.91,-56.1604"/>
</g>
<!-- Node11 -->
<g id="node11" class="node"><title>Node11</title>
<g id="a_node11"><a xlink:href="vcs__rank_8cpp.html" target="_top" xlink:title="vcs_rank.cpp">
<polygon fill="white" stroke="black" points="1005.5,-0.5 1005.5,-19.5 1078.5,-19.5 1078.5,-0.5 1005.5,-0.5"/>
<text text-anchor="middle" x="1042" y="-7.5" font-family="FreeSans" font-size="10.00">vcs_rank.cpp</text>
</a>
</g>
</g>
<!-- Node1&#45;&gt;Node11 -->
<g id="edge10" class="edge"><title>Node1&#45;&gt;Node11</title>
<path fill="none" stroke="midnightblue" d="M1077.62,-48.7175C1068.63,-39.1997 1057.64,-27.5608 1050.26,-19.7511"/>
<polygon fill="midnightblue" stroke="midnightblue" points="1075.17,-51.216 1084.58,-56.083 1080.26,-46.4096 1075.17,-51.216"/>
</g>
<!-- Node12 -->
<g id="node12" class="node"><title>Node12</title>
<g id="a_node12"><a xlink:href="vcs__rearrange_8cpp.html" target="_top" xlink:title="implementation file for rearranging species. ">
<polygon fill="white" stroke="black" points="1096.5,-0.5 1096.5,-19.5 1191.5,-19.5 1191.5,-0.5 1096.5,-0.5"/>
<text text-anchor="middle" x="1144" y="-7.5" font-family="FreeSans" font-size="10.00">vcs_rearrange.cpp</text>
</a>
</g>
</g>
<!-- Node1&#45;&gt;Node12 -->
<g id="edge11" class="edge"><title>Node1&#45;&gt;Node12</title>
<path fill="none" stroke="midnightblue" d="M1108.38,-48.7175C1117.37,-39.1997 1128.36,-27.5608 1135.74,-19.7511"/>
<polygon fill="midnightblue" stroke="midnightblue" points="1105.74,-46.4096 1101.42,-56.083 1110.83,-51.216 1105.74,-46.4096"/>
</g>
<!-- Node13 -->
<g id="node13" class="node"><title>Node13</title>
<g id="a_node13"><a xlink:href="vcs__report_8cpp.html" target="_top" xlink:title="vcs_report.cpp">
<polygon fill="white" stroke="black" points="1209.5,-0.5 1209.5,-19.5 1288.5,-19.5 1288.5,-0.5 1209.5,-0.5"/>
<text text-anchor="middle" x="1249" y="-7.5" font-family="FreeSans" font-size="10.00">vcs_report.cpp</text>
</a>
</g>
</g>
<!-- Node1&#45;&gt;Node13 -->
<g id="edge12" class="edge"><title>Node1&#45;&gt;Node13</title>
<path fill="none" stroke="midnightblue" d="M1127.17,-53.172C1156.54,-43.0039 1198.2,-28.5852 1224.4,-19.5164"/>
<polygon fill="midnightblue" stroke="midnightblue" points="1126.02,-49.8649 1117.72,-56.4435 1128.31,-56.4798 1126.02,-49.8649"/>
</g>
<!-- Node14 -->
<g id="node14" class="node"><title>Node14</title>
<g id="a_node14"><a xlink:href="vcs__rxnadj_8cpp.html" target="_top" xlink:title="Routines for carrying out various adjustments to the reaction steps. ">
<polygon fill="white" stroke="black" points="1307,-0.5 1307,-19.5 1387,-19.5 1387,-0.5 1307,-0.5"/>
<text text-anchor="middle" x="1347" y="-7.5" font-family="FreeSans" font-size="10.00">vcs_rxnadj.cpp</text>
</a>
</g>
</g>
<!-- Node1&#45;&gt;Node14 -->
<g id="edge13" class="edge"><title>Node1&#45;&gt;Node14</title>
<path fill="none" stroke="midnightblue" d="M1135.71,-55.9202C1183.47,-45.7655 1260.24,-29.4447 1306.91,-19.5225"/>
<polygon fill="midnightblue" stroke="midnightblue" points="1134.74,-52.5479 1125.69,-58.051 1136.2,-59.3949 1134.74,-52.5479"/>
</g>
<!-- Node15 -->
<g id="node15" class="node"><title>Node15</title>
<g id="a_node15"><a xlink:href="vcs__setMolesLinProg_8cpp.html" target="_top" xlink:title="vcs_setMolesLinProg.cpp">
<polygon fill="white" stroke="black" points="1405.5,-0.5 1405.5,-19.5 1530.5,-19.5 1530.5,-0.5 1405.5,-0.5"/>
<text text-anchor="middle" x="1468" y="-7.5" font-family="FreeSans" font-size="10.00">vcs_setMolesLinProg.cpp</text>
</a>
</g>
</g>
<!-- Node1&#45;&gt;Node15 -->
<g id="edge14" class="edge"><title>Node1&#45;&gt;Node15</title>
<path fill="none" stroke="midnightblue" d="M1135.82,-58.8337C1202.84,-49.1831 1332.69,-30.4853 1408.67,-19.5435"/>
<polygon fill="midnightblue" stroke="midnightblue" points="1135.02,-55.4127 1125.62,-60.3023 1136.02,-62.3412 1135.02,-55.4127"/>
</g>
<!-- Node16 -->
<g id="node16" class="node"><title>Node16</title>
<g id="a_node16"><a xlink:href="vcs__solve_8cpp.html" target="_top" xlink:title="vcs_solve.cpp">
<polygon fill="white" stroke="black" points="1549,-0.5 1549,-19.5 1625,-19.5 1625,-0.5 1549,-0.5"/>
<text text-anchor="middle" x="1587" y="-7.5" font-family="FreeSans" font-size="10.00">vcs_solve.cpp</text>
</a>
</g>
</g>
<!-- Node1&#45;&gt;Node16 -->
<g id="edge15" class="edge"><title>Node1&#45;&gt;Node16</title>
<path fill="none" stroke="midnightblue" d="M1135.69,-61.9042C1215.27,-55.8654 1391.56,-41.2216 1539,-20 1542.19,-19.541 1545.49,-19.02 1548.8,-18.4654"/>
<polygon fill="midnightblue" stroke="midnightblue" points="1135.28,-58.4253 1125.57,-62.6654 1135.81,-65.4056 1135.28,-58.4253"/>
</g>
<!-- Node17 -->
<g id="node17" class="node"><title>Node17</title>
<g id="a_node17"><a xlink:href="vcs__solve__phaseStability_8cpp.html" target="_top" xlink:title="vcs_solve_phaseStability.cpp">
<polygon fill="white" stroke="black" points="1643.5,-0.5 1643.5,-19.5 1784.5,-19.5 1784.5,-0.5 1643.5,-0.5"/>
<text text-anchor="middle" x="1714" y="-7.5" font-family="FreeSans" font-size="10.00">vcs_solve_phaseStability.cpp</text>
</a>
</g>
</g>
<!-- Node1&#45;&gt;Node17 -->
<g id="edge16" class="edge"><title>Node1&#45;&gt;Node17</title>
<path fill="none" stroke="midnightblue" d="M1135.63,-61.877C1227.04,-55.0884 1448.62,-38.1337 1634,-20 1637.06,-19.7007 1640.19,-19.3863 1643.34,-19.0617"/>
<polygon fill="midnightblue" stroke="midnightblue" points="1135.37,-58.3869 1125.66,-62.616 1135.89,-65.3677 1135.37,-58.3869"/>
</g>
<!-- Node18 -->
<g id="node18" class="node"><title>Node18</title>
<g id="a_node18"><a xlink:href="vcs__solve__TP_8cpp.html" target="_top" xlink:title="Implementation file that contains the main algorithm for finding an equilibrium. ">
<polygon fill="white" stroke="black" points="1803,-0.5 1803,-19.5 1897,-19.5 1897,-0.5 1803,-0.5"/>
<text text-anchor="middle" x="1850" y="-7.5" font-family="FreeSans" font-size="10.00">vcs_solve_TP.cpp</text>
</a>
</g>
</g>
<!-- Node1&#45;&gt;Node18 -->
<g id="edge17" class="edge"><title>Node1&#45;&gt;Node18</title>
<path fill="none" stroke="midnightblue" d="M1135.85,-63.6244C1245.48,-59.8064 1544.96,-47.495 1793,-20 1796.19,-19.6468 1799.47,-19.2413 1802.77,-18.802"/>
<polygon fill="midnightblue" stroke="midnightblue" points="1135.41,-60.1372 1125.54,-63.9778 1135.65,-67.1331 1135.41,-60.1372"/>
</g>
<!-- Node19 -->
<g id="node19" class="node"><title>Node19</title>
<g id="a_node19"><a xlink:href="vcs__species__thermo_8cpp.html" target="_top" xlink:title="Implementation for the VCS_SPECIES_THERMO object. ">
<polygon fill="white" stroke="black" points="1915,-0.5 1915,-19.5 2037,-19.5 2037,-0.5 1915,-0.5"/>
<text text-anchor="middle" x="1976" y="-7.5" font-family="FreeSans" font-size="10.00">vcs_species_thermo.cpp</text>
</a>
</g>
</g>
<!-- Node1&#45;&gt;Node19 -->
<g id="edge18" class="edge"><title>Node1&#45;&gt;Node19</title>
<path fill="none" stroke="midnightblue" d="M1135.92,-63.7223C1257.11,-59.8778 1612.21,-46.9811 1906,-20 1908.93,-19.7311 1911.92,-19.4335 1914.95,-19.1149"/>
<polygon fill="midnightblue" stroke="midnightblue" points="1135.48,-60.2343 1125.59,-64.0458 1135.7,-67.2309 1135.48,-60.2343"/>
</g>
<!-- Node20 -->
<g id="node20" class="node"><title>Node20</title>
<g id="a_node20"><a xlink:href="vcs__TP_8cpp.html" target="_top" xlink:title="vcs_TP.cpp">
<polygon fill="white" stroke="black" points="2055.5,-0.5 2055.5,-19.5 2122.5,-19.5 2122.5,-0.5 2055.5,-0.5"/>
<text text-anchor="middle" x="2089" y="-7.5" font-family="FreeSans" font-size="10.00">vcs_TP.cpp</text>
</a>
</g>
</g>
<!-- Node1&#45;&gt;Node20 -->
<g id="edge19" class="edge"><title>Node1&#45;&gt;Node20</title>
<path fill="none" stroke="midnightblue" d="M1135.96,-65.3979C1270.72,-66.1276 1696.86,-64.494 2046,-20 2049.03,-19.6143 2052.16,-19.1295 2055.28,-18.5858"/>
<polygon fill="midnightblue" stroke="midnightblue" points="1135.69,-61.8962 1125.66,-65.3342 1135.64,-68.896 1135.69,-61.8962"/>
</g>
<!-- Node21 -->
<g id="node21" class="node"><title>Node21</title>
<g id="a_node21"><a xlink:href="vcs__VolPhase_8cpp.html" target="_top" xlink:title="vcs_VolPhase.cpp">
<polygon fill="white" stroke="black" points="2140.5,-0.5 2140.5,-19.5 2235.5,-19.5 2235.5,-0.5 2140.5,-0.5"/>
<text text-anchor="middle" x="2188" y="-7.5" font-family="FreeSans" font-size="10.00">vcs_VolPhase.cpp</text>
</a>
</g>
</g>
<!-- Node1&#45;&gt;Node21 -->
<g id="edge20" class="edge"><title>Node1&#45;&gt;Node21</title>
<path fill="none" stroke="midnightblue" d="M1135.87,-64.8786C1277.95,-64.1057 1746.23,-58.5919 2131,-20 2134.09,-19.6901 2137.27,-19.3232 2140.47,-18.9178"/>
<polygon fill="midnightblue" stroke="midnightblue" points="1135.8,-61.3788 1125.82,-64.9282 1135.84,-68.3787 1135.8,-61.3788"/>
</g>
</g>
</svg>
