<?xml version="1.0" encoding="UTF-8" standalone="no"?>
<!DOCTYPE svg PUBLIC "-//W3C//DTD SVG 1.1//EN"
 "http://www.w3.org/Graphics/SVG/1.1/DTD/svg11.dtd">
<!-- Generated by graphviz version 2.36.0 (20140111.2315)
 -->
<!-- Title: vcs_IntStarStar.h Pages: 1 -->
<svg width="2335pt" height="140pt"
 viewBox="0.00 0.00 2335.00 140.00" xmlns="http://www.w3.org/2000/svg" xmlns:xlink="http://www.w3.org/1999/xlink">
<g id="graph0" class="graph" transform="scale(1 1) rotate(0) translate(4 136)">
<title>vcs_IntStarStar.h</title>
<polygon fill="white" stroke="none" points="-4,4 -4,-136 2331,-136 2331,4 -4,4"/>
<!-- Node1 -->
<g id="node1" class="node"><title>Node1</title>
<polygon fill="#bfbfbf" stroke="black" points="370.5,-112.5 370.5,-131.5 461.5,-131.5 461.5,-112.5 370.5,-112.5"/>
<text text-anchor="middle" x="416" y="-119.5" font-family="FreeSans" font-size="10.00">vcs_IntStarStar.h</text>
</g>
<!-- Node2 -->
<g id="node2" class="node"><title>Node2</title>
<g id="a_node2"><a xlink:href="vcs__IntStarStar_8cpp.html" target="_top" xlink:title="Implementation of class IntStarStar. ">
<polygon fill="white" stroke="black" points="265.5,-56.5 265.5,-75.5 366.5,-75.5 366.5,-56.5 265.5,-56.5"/>
<text text-anchor="middle" x="316" y="-63.5" font-family="FreeSans" font-size="10.00">vcs_IntStarStar.cpp</text>
</a>
</g>
</g>
<!-- Node1&#45;&gt;Node2 -->
<g id="edge1" class="edge"><title>Node1&#45;&gt;Node2</title>
<path fill="none" stroke="midnightblue" d="M390.912,-107.453C372.451,-97.4835 347.903,-84.2279 332.027,-75.6545"/>
<polygon fill="midnightblue" stroke="midnightblue" points="389.471,-110.652 399.933,-112.324 392.797,-104.493 389.471,-110.652"/>
</g>
<!-- Node3 -->
<g id="node3" class="node"><title>Node3</title>
<g id="a_node3"><a xlink:href="vcs__prob_8h.html" target="_top" xlink:title="Header for the Interface class for the vcs thermo equilibrium solver package,. ">
<polygon fill="white" stroke="black" points="385,-56.5 385,-75.5 447,-75.5 447,-56.5 385,-56.5"/>
<text text-anchor="middle" x="416" y="-63.5" font-family="FreeSans" font-size="10.00">vcs_prob.h</text>
</a>
</g>
</g>
<!-- Node1&#45;&gt;Node3 -->
<g id="edge2" class="edge"><title>Node1&#45;&gt;Node3</title>
<path fill="none" stroke="midnightblue" d="M416,-101.805C416,-92.9102 416,-82.7798 416,-75.7511"/>
<polygon fill="midnightblue" stroke="midnightblue" points="412.5,-102.083 416,-112.083 419.5,-102.083 412.5,-102.083"/>
</g>
<!-- Node11 -->
<g id="node11" class="node"><title>Node11</title>
<g id="a_node11"><a xlink:href="vcs__solve_8h.html" target="_top" xlink:title="Header file for the internal object that holds the vcs equilibrium problem (see Class VCS_SOLVE and E...">
<polygon fill="white" stroke="black" points="1138.5,-56.5 1138.5,-75.5 1203.5,-75.5 1203.5,-56.5 1138.5,-56.5"/>
<text text-anchor="middle" x="1171" y="-63.5" font-family="FreeSans" font-size="10.00">vcs_solve.h</text>
</a>
</g>
</g>
<!-- Node1&#45;&gt;Node11 -->
<g id="edge10" class="edge"><title>Node1&#45;&gt;Node11</title>
<path fill="none" stroke="midnightblue" d="M471.765,-117.012C620.099,-106.402 1021.05,-77.7252 1138.35,-69.3355"/>
<polygon fill="midnightblue" stroke="midnightblue" points="471.253,-113.539 461.528,-117.744 471.753,-120.521 471.253,-113.539"/>
</g>
<!-- Node4 -->
<g id="node4" class="node"><title>Node4</title>
<g id="a_node4"><a xlink:href="vcs__equilibrate_8cpp.html" target="_top" xlink:title="Driver routines for equilibrium solvers. ">
<polygon fill="white" stroke="black" points="436,-0.5 436,-19.5 534,-19.5 534,-0.5 436,-0.5"/>
<text text-anchor="middle" x="485" y="-7.5" font-family="FreeSans" font-size="10.00">vcs_equilibrate.cpp</text>
</a>
</g>
</g>
<!-- Node3&#45;&gt;Node4 -->
<g id="edge3" class="edge"><title>Node3&#45;&gt;Node4</title>
<path fill="none" stroke="midnightblue" d="M435.038,-50.1008C447.456,-40.3824 463.243,-28.0269 473.712,-19.8339"/>
<polygon fill="midnightblue" stroke="midnightblue" points="432.804,-47.4046 427.086,-56.324 437.118,-52.9171 432.804,-47.4046"/>
</g>
<!-- Node5 -->
<g id="node5" class="node"><title>Node5</title>
<g id="a_node5"><a xlink:href="vcs__MultiPhaseEquil_8cpp.html" target="_top" xlink:title="Driver routine for the VCSnonideal equilibrium solver package. ">
<polygon fill="white" stroke="black" points="552.5,-0.5 552.5,-19.5 675.5,-19.5 675.5,-0.5 552.5,-0.5"/>
<text text-anchor="middle" x="614" y="-7.5" font-family="FreeSans" font-size="10.00">vcs_MultiPhaseEquil.cpp</text>
</a>
</g>
</g>
<!-- Node3&#45;&gt;Node5 -->
<g id="edge4" class="edge"><title>Node3&#45;&gt;Node5</title>
<path fill="none" stroke="midnightblue" d="M457.438,-53.6986C494.807,-43.507 548.943,-28.7429 582.773,-19.5164"/>
<polygon fill="midnightblue" stroke="midnightblue" points="456.1,-50.4356 447.374,-56.4435 457.942,-57.189 456.1,-50.4356"/>
</g>
<!-- Node6 -->
<g id="node6" class="node"><title>Node6</title>
<g id="a_node6"><a xlink:href="vcs__prep_8cpp.html" target="_top" xlink:title="This file contains some prepatory functions. ">
<polygon fill="white" stroke="black" points="693.5,-0.5 693.5,-19.5 766.5,-19.5 766.5,-0.5 693.5,-0.5"/>
<text text-anchor="middle" x="730" y="-7.5" font-family="FreeSans" font-size="10.00">vcs_prep.cpp</text>
</a>
</g>
</g>
<!-- Node3&#45;&gt;Node6 -->
<g id="edge5" class="edge"><title>Node3&#45;&gt;Node6</title>
<path fill="none" stroke="midnightblue" d="M457.38,-58.4055C510.081,-49.9255 603.928,-34.5529 684,-20 687.042,-19.447 690.195,-18.86 693.358,-18.261"/>
<polygon fill="midnightblue" stroke="midnightblue" points="456.723,-54.966 447.405,-60.0073 457.833,-61.8775 456.723,-54.966"/>
</g>
<!-- Node7 -->
<g id="node7" class="node"><title>Node7</title>
<g id="a_node7"><a xlink:href="vcs__prob_8cpp.html" target="_top" xlink:title="Implementation for the Interface class for the vcs thermo equilibrium solver package,. ">
<polygon fill="white" stroke="black" points="-0.5,-0.5 -0.5,-19.5 72.5,-19.5 72.5,-0.5 -0.5,-0.5"/>
<text text-anchor="middle" x="36" y="-7.5" font-family="FreeSans" font-size="10.00">vcs_prob.cpp</text>
</a>
</g>
</g>
<!-- Node3&#45;&gt;Node7 -->
<g id="edge6" class="edge"><title>Node3&#45;&gt;Node7</title>
<path fill="none" stroke="midnightblue" d="M374.689,-56.1158C243.502,-34.1909 207.796,-40.4127 81,-20 78.3256,-19.5694 75.5678,-19.0945 72.796,-18.5946"/>
<polygon fill="midnightblue" stroke="midnightblue" points="374.276,-59.5956 384.72,-57.8156 375.446,-52.694 374.276,-59.5956"/>
</g>
<!-- Node8 -->
<g id="node8" class="node"><title>Node8</title>
<g id="a_node8"><a xlink:href="vcs__rank_8cpp.html" target="_top" xlink:title="vcs_rank.cpp">
<polygon fill="white" stroke="black" points="90.5,-0.5 90.5,-19.5 163.5,-19.5 163.5,-0.5 90.5,-0.5"/>
<text text-anchor="middle" x="127" y="-7.5" font-family="FreeSans" font-size="10.00">vcs_rank.cpp</text>
</a>
</g>
</g>
<!-- Node3&#45;&gt;Node8 -->
<g id="edge7" class="edge"><title>Node3&#45;&gt;Node8</title>
<path fill="none" stroke="midnightblue" d="M374.784,-56.0278C283.913,-38.1023 259.576,-36.1829 173,-20 169.96,-19.4318 166.81,-18.834 163.648,-18.2279"/>
<polygon fill="midnightblue" stroke="midnightblue" points="374.198,-59.4796 384.688,-57.9924 375.56,-52.6134 374.198,-59.4796"/>
</g>
<!-- Node9 -->
<g id="node9" class="node"><title>Node9</title>
<g id="a_node9"><a xlink:href="vcs__solve_8cpp.html" target="_top" xlink:title="vcs_solve.cpp">
<polygon fill="white" stroke="black" points="182,-0.5 182,-19.5 258,-19.5 258,-0.5 182,-0.5"/>
<text text-anchor="middle" x="220" y="-7.5" font-family="FreeSans" font-size="10.00">vcs_solve.cpp</text>
</a>
</g>
</g>
<!-- Node3&#45;&gt;Node9 -->
<g id="edge8" class="edge"><title>Node3&#45;&gt;Node9</title>
<path fill="none" stroke="midnightblue" d="M374.98,-53.6986C337.989,-43.507 284.4,-28.7429 250.911,-19.5164"/>
<polygon fill="midnightblue" stroke="midnightblue" points="374.373,-57.1616 384.943,-56.4435 376.232,-50.4131 374.373,-57.1616"/>
</g>
<!-- Node10 -->
<g id="node10" class="node"><title>Node10</title>
<g id="a_node10"><a xlink:href="vcs__solve__phaseStability_8cpp.html" target="_top" xlink:title="vcs_solve_phaseStability.cpp">
<polygon fill="white" stroke="black" points="276.5,-0.5 276.5,-19.5 417.5,-19.5 417.5,-0.5 276.5,-0.5"/>
<text text-anchor="middle" x="347" y="-7.5" font-family="FreeSans" font-size="10.00">vcs_solve_phaseStability.cpp</text>
</a>
</g>
</g>
<!-- Node3&#45;&gt;Node10 -->
<g id="edge9" class="edge"><title>Node3&#45;&gt;Node10</title>
<path fill="none" stroke="midnightblue" d="M396.962,-50.1008C384.544,-40.3824 368.757,-28.0269 358.288,-19.8339"/>
<polygon fill="midnightblue" stroke="midnightblue" points="394.882,-52.9171 404.914,-56.324 399.196,-47.4046 394.882,-52.9171"/>
</g>
<!-- Node11&#45;&gt;Node4 -->
<g id="edge13" class="edge"><title>Node11&#45;&gt;Node4</title>
<path fill="none" stroke="midnightblue" d="M1128.03,-63.1438C1026.19,-58.4779 762.243,-44.8226 543,-20 540.064,-19.6676 537.048,-19.2949 534.01,-18.8955"/>
<polygon fill="midnightblue" stroke="midnightblue" points="1128.08,-66.6493 1138.22,-63.6054 1128.39,-59.6565 1128.08,-66.6493"/>
</g>
<!-- Node11&#45;&gt;Node5 -->
<g id="edge16" class="edge"><title>Node11&#45;&gt;Node5</title>
<path fill="none" stroke="midnightblue" d="M1128.47,-61.5842C1043.77,-54.6687 848.058,-38.1204 684,-20 681.321,-19.7041 678.585,-19.3925 675.822,-19.0703"/>
<polygon fill="midnightblue" stroke="midnightblue" points="1128.22,-65.0759 1138.47,-62.3986 1128.79,-58.099 1128.22,-65.0759"/>
</g>
<!-- Node11&#45;&gt;Node6 -->
<g id="edge19" class="edge"><title>Node11&#45;&gt;Node6</title>
<path fill="none" stroke="midnightblue" d="M1128.12,-61.3213C1055.29,-54.8061 902.868,-40.0156 775,-20 772.324,-19.5811 769.565,-19.1147 766.792,-18.6208"/>
<polygon fill="midnightblue" stroke="midnightblue" points="1128.01,-64.8247 1138.28,-62.2221 1128.63,-57.8521 1128.01,-64.8247"/>
</g>
<!-- Node11&#45;&gt;Node8 -->
<g id="edge20" class="edge"><title>Node11&#45;&gt;Node8</title>
<path fill="none" stroke="midnightblue" d="M1127.9,-65.3305C988.962,-65.9108 540.565,-63.9985 173,-20 169.93,-19.6325 166.757,-19.1758 163.581,-18.6644"/>
<polygon fill="midnightblue" stroke="midnightblue" points="1128.14,-68.8295 1138.12,-65.2808 1128.1,-61.8296 1128.14,-68.8295"/>
</g>
<!-- Node11&#45;&gt;Node9 -->
<g id="edge25" class="edge"><title>Node11&#45;&gt;Node9</title>
<path fill="none" stroke="midnightblue" d="M1128.11,-64.9828C998.03,-64.4773 596.682,-59.5751 267,-20 264.113,-19.6534 261.137,-19.2334 258.15,-18.7665"/>
<polygon fill="midnightblue" stroke="midnightblue" points="1128.42,-68.4837 1138.43,-65.0157 1128.44,-61.4838 1128.42,-68.4837"/>
</g>
<!-- Node11&#45;&gt;Node10 -->
<g id="edge26" class="edge"><title>Node11&#45;&gt;Node10</title>
<path fill="none" stroke="midnightblue" d="M1128.25,-63.188C1014.21,-58.1864 693.291,-43.0165 427,-20 423.937,-19.7352 420.809,-19.4495 417.651,-19.1483"/>
<polygon fill="midnightblue" stroke="midnightblue" points="1128.18,-66.688 1138.32,-63.6266 1128.48,-59.6946 1128.18,-66.688"/>
</g>
<!-- Node12 -->
<g id="node12" class="node"><title>Node12</title>
<g id="a_node12"><a xlink:href="vcs__elem_8cpp.html" target="_top" xlink:title="This file contains the algorithm for checking the satisfaction of the element abundances constraints ...">
<polygon fill="white" stroke="black" points="1574.5,-0.5 1574.5,-19.5 1649.5,-19.5 1649.5,-0.5 1574.5,-0.5"/>
<text text-anchor="middle" x="1612" y="-7.5" font-family="FreeSans" font-size="10.00">vcs_elem.cpp</text>
</a>
</g>
</g>
<!-- Node11&#45;&gt;Node12 -->
<g id="edge11" class="edge"><title>Node11&#45;&gt;Node12</title>
<path fill="none" stroke="midnightblue" d="M1213.64,-61.1939C1286.08,-54.4909 1437.69,-39.4305 1565,-20 1568.04,-19.5362 1571.18,-19.0185 1574.33,-18.4721"/>
<polygon fill="midnightblue" stroke="midnightblue" points="1213.18,-57.7216 1203.54,-62.1218 1213.82,-64.6922 1213.18,-57.7216"/>
</g>
<!-- Node13 -->
<g id="node13" class="node"><title>Node13</title>
<g id="a_node13"><a xlink:href="vcs__elem__rearrange_8cpp.html" target="_top" xlink:title="Contains implementations for rearranging the element columns, and it contains the algorithm for choos...">
<polygon fill="white" stroke="black" points="1667.5,-0.5 1667.5,-19.5 1788.5,-19.5 1788.5,-0.5 1667.5,-0.5"/>
<text text-anchor="middle" x="1728" y="-7.5" font-family="FreeSans" font-size="10.00">vcs_elem_rearrange.cpp</text>
</a>
</g>
</g>
<!-- Node11&#45;&gt;Node13 -->
<g id="edge12" class="edge"><title>Node11&#45;&gt;Node13</title>
<path fill="none" stroke="midnightblue" d="M1213.53,-61.5842C1298.23,-54.6687 1493.94,-38.1204 1658,-20 1661.04,-19.6637 1664.16,-19.3073 1667.31,-18.9378"/>
<polygon fill="midnightblue" stroke="midnightblue" points="1213.21,-58.099 1203.53,-62.3986 1213.78,-65.0759 1213.21,-58.099"/>
</g>
<!-- Node14 -->
<g id="node14" class="node"><title>Node14</title>
<g id="a_node14"><a xlink:href="vcs__Gibbs_8cpp.html" target="_top" xlink:title="Functions which calculate the extrinsic Gibbs Free energies. ">
<polygon fill="white" stroke="black" points="1806.5,-0.5 1806.5,-19.5 1885.5,-19.5 1885.5,-0.5 1806.5,-0.5"/>
<text text-anchor="middle" x="1846" y="-7.5" font-family="FreeSans" font-size="10.00">vcs_Gibbs.cpp</text>
</a>
</g>
</g>
<!-- Node11&#45;&gt;Node14 -->
<g id="edge14" class="edge"><title>Node11&#45;&gt;Node14</title>
<path fill="none" stroke="midnightblue" d="M1213.88,-63.5425C1315.5,-59.7347 1578.82,-47.7936 1797,-20 1800.09,-19.6065 1803.28,-19.1457 1806.48,-18.6444"/>
<polygon fill="midnightblue" stroke="midnightblue" points="1213.57,-60.0513 1203.71,-63.9165 1213.83,-67.0466 1213.57,-60.0513"/>
</g>
<!-- Node15 -->
<g id="node15" class="node"><title>Node15</title>
<g id="a_node15"><a xlink:href="vcs__inest_8cpp.html" target="_top" xlink:title="Implementation methods for obtaining a good initial guess. ">
<polygon fill="white" stroke="black" points="1904,-0.5 1904,-19.5 1978,-19.5 1978,-0.5 1904,-0.5"/>
<text text-anchor="middle" x="1941" y="-7.5" font-family="FreeSans" font-size="10.00">vcs_inest.cpp</text>
</a>
</g>
</g>
<!-- Node11&#45;&gt;Node15 -->
<g id="edge15" class="edge"><title>Node11&#45;&gt;Node15</title>
<path fill="none" stroke="midnightblue" d="M1213.78,-64.2322C1325.86,-61.8111 1637.15,-52.4524 1894,-20 1897.21,-19.5939 1900.54,-19.1026 1903.87,-18.5615"/>
<polygon fill="midnightblue" stroke="midnightblue" points="1213.49,-60.7374 1203.57,-64.4454 1213.64,-67.7359 1213.49,-60.7374"/>
</g>
<!-- Node16 -->
<g id="node16" class="node"><title>Node16</title>
<g id="a_node16"><a xlink:href="vcs__nondim_8cpp.html" target="_top" xlink:title="Nondimensionalization routines within VCSnonideal. ">
<polygon fill="white" stroke="black" points="1996,-0.5 1996,-19.5 2082,-19.5 2082,-0.5 1996,-0.5"/>
<text text-anchor="middle" x="2039" y="-7.5" font-family="FreeSans" font-size="10.00">vcs_nondim.cpp</text>
</a>
</g>
</g>
<!-- Node11&#45;&gt;Node16 -->
<g id="edge17" class="edge"><title>Node11&#45;&gt;Node16</title>
<path fill="none" stroke="midnightblue" d="M1213.78,-64.392C1335.24,-62.289 1692.49,-53.492 1987,-20 1989.91,-19.6687 1992.91,-19.2796 1995.93,-18.8524"/>
<polygon fill="midnightblue" stroke="midnightblue" points="1213.7,-60.8926 1203.76,-64.5593 1213.82,-67.8917 1213.7,-60.8926"/>
</g>
<!-- Node17 -->
<g id="node17" class="node"><title>Node17</title>
<g id="a_node17"><a xlink:href="vcs__phaseStability_8cpp.html" target="_top" xlink:title="Implementation class for functions associated with determining the stability of a phase (see Class VC...">
<polygon fill="white" stroke="black" points="2100,-0.5 2100,-19.5 2214,-19.5 2214,-0.5 2100,-0.5"/>
<text text-anchor="middle" x="2157" y="-7.5" font-family="FreeSans" font-size="10.00">vcs_phaseStability.cpp</text>
</a>
</g>
</g>
<!-- Node11&#45;&gt;Node17 -->
<g id="edge18" class="edge"><title>Node11&#45;&gt;Node17</title>
<path fill="none" stroke="midnightblue" d="M1213.71,-64.2263C1344.94,-61.5672 1753.8,-51.1787 2091,-20 2093.88,-19.7338 2096.82,-19.4338 2099.8,-19.1091"/>
<polygon fill="midnightblue" stroke="midnightblue" points="1213.59,-60.7278 1203.67,-64.4256 1213.73,-67.7264 1213.59,-60.7278"/>
</g>
<!-- Node18 -->
<g id="node18" class="node"><title>Node18</title>
<g id="a_node18"><a xlink:href="vcs__rearrange_8cpp.html" target="_top" xlink:title="implementation file for rearranging species. ">
<polygon fill="white" stroke="black" points="2232.5,-0.5 2232.5,-19.5 2327.5,-19.5 2327.5,-0.5 2232.5,-0.5"/>
<text text-anchor="middle" x="2280" y="-7.5" font-family="FreeSans" font-size="10.00">vcs_rearrange.cpp</text>
</a>
</g>
</g>
<!-- Node11&#45;&gt;Node18 -->
<g id="edge21" class="edge"><title>Node11&#45;&gt;Node18</title>
<path fill="none" stroke="midnightblue" d="M1213.96,-64.9132C1357.36,-64.25 1832.59,-59.0435 2223,-20 2226.09,-19.6909 2229.27,-19.3248 2232.47,-18.9198"/>
<polygon fill="midnightblue" stroke="midnightblue" points="1213.8,-61.4137 1203.82,-64.9549 1213.83,-68.4136 1213.8,-61.4137"/>
</g>
<!-- Node19 -->
<g id="node19" class="node"><title>Node19</title>
<g id="a_node19"><a xlink:href="vcs__report_8cpp.html" target="_top" xlink:title="vcs_report.cpp">
<polygon fill="white" stroke="black" points="784.5,-0.5 784.5,-19.5 863.5,-19.5 863.5,-0.5 784.5,-0.5"/>
<text text-anchor="middle" x="824" y="-7.5" font-family="FreeSans" font-size="10.00">vcs_report.cpp</text>
</a>
</g>
</g>
<!-- Node11&#45;&gt;Node19 -->
<g id="edge22" class="edge"><title>Node11&#45;&gt;Node19</title>
<path fill="none" stroke="midnightblue" d="M1128.07,-58.9543C1070.1,-50.6906 963.605,-35.1579 873,-20 869.929,-19.4862 866.753,-18.939 863.561,-18.3778"/>
<polygon fill="midnightblue" stroke="midnightblue" points="1127.92,-62.4684 1138.32,-60.411 1128.91,-55.5381 1127.92,-62.4684"/>
</g>
<!-- Node20 -->
<g id="node20" class="node"><title>Node20</title>
<g id="a_node20"><a xlink:href="vcs__rxnadj_8cpp.html" target="_top" xlink:title="Routines for carrying out various adjustments to the reaction steps. ">
<polygon fill="white" stroke="black" points="882,-0.5 882,-19.5 962,-19.5 962,-0.5 882,-0.5"/>
<text text-anchor="middle" x="922" y="-7.5" font-family="FreeSans" font-size="10.00">vcs_rxnadj.cpp</text>
</a>
</g>
</g>
<!-- Node11&#45;&gt;Node20 -->
<g id="edge23" class="edge"><title>Node11&#45;&gt;Node20</title>
<path fill="none" stroke="midnightblue" d="M1128.62,-55.8102C1081.85,-45.6663 1007.16,-29.4675 961.545,-19.576"/>
<polygon fill="midnightblue" stroke="midnightblue" points="1127.93,-59.2414 1138.45,-57.9404 1129.42,-52.4005 1127.93,-59.2414"/>
</g>
<!-- Node21 -->
<g id="node21" class="node"><title>Node21</title>
<g id="a_node21"><a xlink:href="vcs__setMolesLinProg_8cpp.html" target="_top" xlink:title="vcs_setMolesLinProg.cpp">
<polygon fill="white" stroke="black" points="980.5,-0.5 980.5,-19.5 1105.5,-19.5 1105.5,-0.5 980.5,-0.5"/>
<text text-anchor="middle" x="1043" y="-7.5" font-family="FreeSans" font-size="10.00">vcs_setMolesLinProg.cpp</text>
</a>
</g>
</g>
<!-- Node11&#45;&gt;Node21 -->
<g id="edge24" class="edge"><title>Node11&#45;&gt;Node21</title>
<path fill="none" stroke="midnightblue" d="M1141.38,-52.503C1117.38,-42.3795 1084.22,-28.388 1063.19,-19.5164"/>
<polygon fill="midnightblue" stroke="midnightblue" points="1140.14,-55.7813 1150.72,-56.4435 1142.86,-49.3317 1140.14,-55.7813"/>
</g>
<!-- Node22 -->
<g id="node22" class="node"><title>Node22</title>
<g id="a_node22"><a xlink:href="vcs__solve__TP_8cpp.html" target="_top" xlink:title="Implementation file that contains the main algorithm for finding an equilibrium. ">
<polygon fill="white" stroke="black" points="1124,-0.5 1124,-19.5 1218,-19.5 1218,-0.5 1124,-0.5"/>
<text text-anchor="middle" x="1171" y="-7.5" font-family="FreeSans" font-size="10.00">vcs_solve_TP.cpp</text>
</a>
</g>
</g>
<!-- Node11&#45;&gt;Node22 -->
<g id="edge27" class="edge"><title>Node11&#45;&gt;Node22</title>
<path fill="none" stroke="midnightblue" d="M1171,-45.8045C1171,-36.9102 1171,-26.7798 1171,-19.7511"/>
<polygon fill="midnightblue" stroke="midnightblue" points="1167.5,-46.083 1171,-56.083 1174.5,-46.083 1167.5,-46.083"/>
</g>
<!-- Node23 -->
<g id="node23" class="node"><title>Node23</title>
<g id="a_node23"><a xlink:href="vcs__species__thermo_8cpp.html" target="_top" xlink:title="Implementation for the VCS_SPECIES_THERMO object. ">
<polygon fill="white" stroke="black" points="1236,-0.5 1236,-19.5 1358,-19.5 1358,-0.5 1236,-0.5"/>
<text text-anchor="middle" x="1297" y="-7.5" font-family="FreeSans" font-size="10.00">vcs_species_thermo.cpp</text>
</a>
</g>
</g>
<!-- Node11&#45;&gt;Node23 -->
<g id="edge28" class="edge"><title>Node11&#45;&gt;Node23</title>
<path fill="none" stroke="midnightblue" d="M1200.16,-52.503C1223.78,-42.3795 1256.43,-28.388 1277.13,-19.5164"/>
<polygon fill="midnightblue" stroke="midnightblue" points="1198.78,-49.2873 1190.97,-56.4435 1201.54,-55.7213 1198.78,-49.2873"/>
</g>
<!-- Node24 -->
<g id="node24" class="node"><title>Node24</title>
<g id="a_node24"><a xlink:href="vcs__TP_8cpp.html" target="_top" xlink:title="vcs_TP.cpp">
<polygon fill="white" stroke="black" points="1376.5,-0.5 1376.5,-19.5 1443.5,-19.5 1443.5,-0.5 1376.5,-0.5"/>
<text text-anchor="middle" x="1410" y="-7.5" font-family="FreeSans" font-size="10.00">vcs_TP.cpp</text>
</a>
</g>
</g>
<!-- Node11&#45;&gt;Node24 -->
<g id="edge29" class="edge"><title>Node11&#45;&gt;Node24</title>
<path fill="none" stroke="midnightblue" d="M1213.49,-55.3988C1259.93,-44.906 1333.4,-28.3065 1376.12,-18.6541"/>
<polygon fill="midnightblue" stroke="midnightblue" points="1212.71,-51.9869 1203.73,-57.6048 1214.26,-58.8148 1212.71,-51.9869"/>
</g>
<!-- Node25 -->
<g id="node25" class="node"><title>Node25</title>
<g id="a_node25"><a xlink:href="vcs__VolPhase_8cpp.html" target="_top" xlink:title="vcs_VolPhase.cpp">
<polygon fill="white" stroke="black" points="1461.5,-0.5 1461.5,-19.5 1556.5,-19.5 1556.5,-0.5 1461.5,-0.5"/>
<text text-anchor="middle" x="1509" y="-7.5" font-family="FreeSans" font-size="10.00">vcs_VolPhase.cpp</text>
</a>
</g>
</g>
<!-- Node11&#45;&gt;Node25 -->
<g id="edge30" class="edge"><title>Node11&#45;&gt;Node25</title>
<path fill="none" stroke="midnightblue" d="M1213.77,-58.1676C1277.12,-48.0467 1395.49,-29.1343 1461.48,-18.5925"/>
<polygon fill="midnightblue" stroke="midnightblue" points="1213.04,-54.7393 1203.72,-59.7732 1214.14,-61.6516 1213.04,-54.7393"/>
</g>
</g>
</svg>
