<?xml version="1.0" encoding="UTF-8" standalone="no"?>
<!DOCTYPE svg PUBLIC "-//W3C//DTD SVG 1.1//EN"
 "http://www.w3.org/Graphics/SVG/1.1/DTD/svg11.dtd">
<!-- Generated by graphviz version 2.36.0 (20140111.2315)
 -->
<!-- Title: vcs_nondim.cpp Pages: 1 -->
<svg width="837pt" height="332pt"
 viewBox="0.00 0.00 837.00 332.00" xmlns="http://www.w3.org/2000/svg" xmlns:xlink="http://www.w3.org/1999/xlink">
<g id="graph0" class="graph" transform="scale(1 1) rotate(0) translate(4 328)">
<title>vcs_nondim.cpp</title>
<polygon fill="white" stroke="none" points="-4,4 -4,-328 833,-328 833,4 -4,4"/>
<!-- Node1 -->
<g id="node1" class="node"><title>Node1</title>
<polygon fill="#bfbfbf" stroke="black" points="538,-304.5 538,-323.5 624,-323.5 624,-304.5 538,-304.5"/>
<text text-anchor="middle" x="581" y="-311.5" font-family="FreeSans" font-size="10.00">vcs_nondim.cpp</text>
</g>
<!-- Node2 -->
<g id="node2" class="node"><title>Node2</title>
<g id="a_node2"><a xlink:href="vcs__solve_8h.html" target="_top" xlink:title="Header file for the internal object that holds the vcs equilibrium problem (see Class VCS_SOLVE and E...">
<polygon fill="white" stroke="black" points="331,-248.5 331,-267.5 455,-267.5 455,-248.5 331,-248.5"/>
<text text-anchor="middle" x="393" y="-255.5" font-family="FreeSans" font-size="10.00">cantera/equil/vcs_solve.h</text>
</a>
</g>
</g>
<!-- Node1&#45;&gt;Node2 -->
<g id="edge1" class="edge"><title>Node1&#45;&gt;Node2</title>
<path fill="none" stroke="midnightblue" d="M551.211,-304.444C519.171,-295.241 468.067,-280.562 432.647,-270.388"/>
<polygon fill="midnightblue" stroke="midnightblue" points="433.227,-266.913 422.65,-267.516 431.295,-273.641 433.227,-266.913"/>
</g>
<!-- Node14 -->
<g id="node14" class="node"><title>Node14</title>
<g id="a_node14"><a xlink:href="vcs__internal_8h.html" target="_top" xlink:title="Internal declarations for the VCSnonideal package. ">
<polygon fill="white" stroke="black" points="136,-186.5 136,-205.5 270,-205.5 270,-186.5 136,-186.5"/>
<text text-anchor="middle" x="203" y="-193.5" font-family="FreeSans" font-size="10.00">cantera/equil/vcs_internal.h</text>
</a>
</g>
</g>
<!-- Node1&#45;&gt;Node14 -->
<g id="edge20" class="edge"><title>Node1&#45;&gt;Node14</title>
<path fill="none" stroke="midnightblue" d="M537.581,-310.307C485.092,-305.963 394.749,-294.967 322,-268 284.163,-253.974 244.822,-227.848 222.191,-211.499"/>
<polygon fill="midnightblue" stroke="midnightblue" points="224.235,-208.658 214.104,-205.556 220.09,-214.298 224.235,-208.658"/>
</g>
<!-- Node17 -->
<g id="node17" class="node"><title>Node17</title>
<g id="a_node17"><a xlink:href="vcs__VolPhase_8h.html" target="_top" xlink:title="Header for the object representing each phase within vcs. ">
<polygon fill="white" stroke="black" points="661.5,-124.5 661.5,-143.5 804.5,-143.5 804.5,-124.5 661.5,-124.5"/>
<text text-anchor="middle" x="733" y="-131.5" font-family="FreeSans" font-size="10.00">cantera/equil/vcs_VolPhase.h</text>
</a>
</g>
</g>
<!-- Node1&#45;&gt;Node17 -->
<g id="edge21" class="edge"><title>Node1&#45;&gt;Node17</title>
<path fill="none" stroke="midnightblue" d="M588.331,-304.415C612.048,-276.641 686.984,-188.887 718.651,-151.803"/>
<polygon fill="midnightblue" stroke="midnightblue" points="721.552,-153.796 725.384,-143.918 716.229,-149.25 721.552,-153.796"/>
</g>
<!-- Node19 -->
<g id="node19" class="node"><title>Node19</title>
<g id="a_node19"><a xlink:href="stringUtils_8h.html" target="_top" xlink:title="Contains declarations for string manipulation functions within Cantera. ">
<polygon fill="white" stroke="black" points="518.5,-124.5 518.5,-143.5 643.5,-143.5 643.5,-124.5 518.5,-124.5"/>
<text text-anchor="middle" x="581" y="-131.5" font-family="FreeSans" font-size="10.00">cantera/base/stringUtils.h</text>
</a>
</g>
</g>
<!-- Node1&#45;&gt;Node19 -->
<g id="edge26" class="edge"><title>Node1&#45;&gt;Node19</title>
<path fill="none" stroke="midnightblue" d="M581,-304.415C581,-277.227 581,-192.563 581,-154.217"/>
<polygon fill="midnightblue" stroke="midnightblue" points="584.5,-153.918 581,-143.918 577.5,-153.919 584.5,-153.918"/>
</g>
<!-- Node20 -->
<g id="node20" class="node"><title>Node20</title>
<g id="a_node20"><a xlink:href="ctexceptions_8h.html" target="_top" xlink:title="Definitions for the classes that are thrown when Cantera experiences an error condition (also contain...">
<polygon fill="white" stroke="black" points="692.5,-248.5 692.5,-267.5 829.5,-267.5 829.5,-248.5 692.5,-248.5"/>
<text text-anchor="middle" x="761" y="-255.5" font-family="FreeSans" font-size="10.00">cantera/base/ctexceptions.h</text>
</a>
</g>
</g>
<!-- Node1&#45;&gt;Node20 -->
<g id="edge29" class="edge"><title>Node1&#45;&gt;Node20</title>
<path fill="none" stroke="midnightblue" d="M609.522,-304.444C640.066,-295.28 688.708,-280.688 722.603,-270.519"/>
<polygon fill="midnightblue" stroke="midnightblue" points="724.039,-273.742 732.612,-267.516 722.028,-267.038 724.039,-273.742"/>
</g>
<!-- Node3 -->
<g id="node3" class="node"><title>Node3</title>
<g id="a_node3"><a xlink:href="ct__defs_8h.html" target="_top" xlink:title="This file contains definitions of terms that are used in internal routines and are unlikely to need m...">
<polygon fill="white" stroke="black" points="282,-62.5 282,-81.5 396,-81.5 396,-62.5 282,-62.5"/>
<text text-anchor="middle" x="339" y="-69.5" font-family="FreeSans" font-size="10.00">cantera/base/ct_defs.h</text>
</a>
</g>
</g>
<!-- Node2&#45;&gt;Node3 -->
<g id="edge2" class="edge"><title>Node2&#45;&gt;Node3</title>
<path fill="none" stroke="midnightblue" d="M383.032,-248.468C374.055,-240.15 361.328,-226.643 355,-212 337.63,-171.808 336.788,-119.304 337.811,-91.7513"/>
<polygon fill="midnightblue" stroke="midnightblue" points="341.316,-91.742 338.321,-81.5793 334.325,-91.3916 341.316,-91.742"/>
</g>
<!-- Node11 -->
<g id="node11" class="node"><title>Node11</title>
<g id="a_node11"><a xlink:href="vcs__defs_8h.html" target="_top" xlink:title="Defines and definitions within the vcs package. ">
<polygon fill="white" stroke="black" points="189,-124.5 189,-143.5 309,-143.5 309,-124.5 189,-124.5"/>
<text text-anchor="middle" x="249" y="-131.5" font-family="FreeSans" font-size="10.00">cantera/equil/vcs_defs.h</text>
</a>
</g>
</g>
<!-- Node2&#45;&gt;Node11 -->
<g id="edge10" class="edge"><title>Node2&#45;&gt;Node11</title>
<path fill="none" stroke="midnightblue" d="M377.01,-248.387C362.1,-240.011 339.58,-226.465 322,-212 299.227,-193.263 276.388,-167.847 262.471,-151.434"/>
<polygon fill="midnightblue" stroke="midnightblue" points="265.153,-149.185 256.055,-143.755 259.781,-153.673 265.153,-149.185"/>
</g>
<!-- Node12 -->
<g id="node12" class="node"><title>Node12</title>
<g id="a_node12"><a xlink:href="vcs__DoubleStarStar_8h.html" target="_top" xlink:title="Header file for class DoubleStarStar. ">
<polygon fill="white" stroke="black" points="454.5,-57 454.5,-87 579.5,-87 579.5,-57 454.5,-57"/>
<text text-anchor="start" x="462.5" y="-75" font-family="FreeSans" font-size="10.00">cantera/equil/vcs_Double</text>
<text text-anchor="middle" x="517" y="-64" font-family="FreeSans" font-size="10.00">StarStar.h</text>
</a>
</g>
</g>
<!-- Node2&#45;&gt;Node12 -->
<g id="edge11" class="edge"><title>Node2&#45;&gt;Node12</title>
<path fill="none" stroke="midnightblue" d="M436.233,-248.464C457.469,-242.019 481.54,-230.912 496,-212 520.014,-180.593 503.048,-163.085 509,-124 510.328,-115.278 511.818,-105.723 513.148,-97.2652"/>
<polygon fill="midnightblue" stroke="midnightblue" points="516.622,-97.7074 514.724,-87.2839 509.708,-96.6156 516.622,-97.7074"/>
</g>
<!-- Node13 -->
<g id="node13" class="node"><title>Node13</title>
<g id="a_node13"><a xlink:href="vcs__IntStarStar_8h.html" target="_top" xlink:title="Header file for class IntStarStar. ">
<polygon fill="white" stroke="black" points="364,-181 364,-211 488,-211 488,-181 364,-181"/>
<text text-anchor="start" x="372" y="-199" font-family="FreeSans" font-size="10.00">cantera/equil/vcs_IntStar</text>
<text text-anchor="middle" x="426" y="-188" font-family="FreeSans" font-size="10.00">Star.h</text>
</a>
</g>
</g>
<!-- Node2&#45;&gt;Node13 -->
<g id="edge13" class="edge"><title>Node2&#45;&gt;Node13</title>
<path fill="none" stroke="midnightblue" d="M397.728,-248.403C401.78,-241.037 407.808,-230.077 413.258,-220.168"/>
<polygon fill="midnightblue" stroke="midnightblue" points="416.47,-221.59 418.223,-211.141 410.337,-218.216 416.47,-221.59"/>
</g>
<!-- Node2&#45;&gt;Node14 -->
<g id="edge15" class="edge"><title>Node2&#45;&gt;Node14</title>
<path fill="none" stroke="midnightblue" d="M365.778,-248.403C332.763,-237.978 276.96,-220.356 240.047,-208.699"/>
<polygon fill="midnightblue" stroke="midnightblue" points="240.762,-205.254 230.172,-205.581 238.654,-211.93 240.762,-205.254"/>
</g>
<!-- Node4 -->
<g id="node4" class="node"><title>Node4</title>
<g id="a_node4"><a xlink:href="config_8h_source.html" target="_top" xlink:title="config.h">
<polygon fill="white" stroke="black" points="427,-0.5 427,-19.5 477,-19.5 477,-0.5 427,-0.5"/>
<text text-anchor="middle" x="452" y="-7.5" font-family="FreeSans" font-size="10.00">config.h</text>
</a>
</g>
</g>
<!-- Node3&#45;&gt;Node4 -->
<g id="edge3" class="edge"><title>Node3&#45;&gt;Node4</title>
<path fill="none" stroke="midnightblue" d="M355.19,-62.4035C373.902,-52.4678 404.923,-35.9966 426.799,-24.3812"/>
<polygon fill="midnightblue" stroke="midnightblue" points="428.649,-27.3616 435.84,-19.5806 425.366,-21.179 428.649,-27.3616"/>
</g>
<!-- Node5 -->
<g id="node5" class="node"><title>Node5</title>
<polygon fill="white" stroke="#bfbfbf" points="175,-0.5 175,-19.5 219,-19.5 219,-0.5 175,-0.5"/>
<text text-anchor="middle" x="197" y="-7.5" font-family="FreeSans" font-size="10.00">cmath</text>
</g>
<!-- Node3&#45;&gt;Node5 -->
<g id="edge4" class="edge"><title>Node3&#45;&gt;Node5</title>
<path fill="none" stroke="midnightblue" d="M318.655,-62.4035C294.613,-52.245 254.403,-35.2547 226.837,-23.6074"/>
<polygon fill="midnightblue" stroke="midnightblue" points="227.881,-20.2488 217.307,-19.5806 225.157,-26.6968 227.881,-20.2488"/>
</g>
<!-- Node6 -->
<g id="node6" class="node"><title>Node6</title>
<polygon fill="white" stroke="#bfbfbf" points="237,-0.5 237,-19.5 281,-19.5 281,-0.5 237,-0.5"/>
<text text-anchor="middle" x="259" y="-7.5" font-family="FreeSans" font-size="10.00">cstdlib</text>
</g>
<!-- Node3&#45;&gt;Node6 -->
<g id="edge5" class="edge"><title>Node3&#45;&gt;Node6</title>
<path fill="none" stroke="midnightblue" d="M327.538,-62.4035C314.825,-52.8688 294.087,-37.3154 278.747,-25.8106"/>
<polygon fill="midnightblue" stroke="midnightblue" points="280.541,-22.7806 270.441,-19.5806 276.341,-28.3806 280.541,-22.7806"/>
</g>
<!-- Node7 -->
<g id="node7" class="node"><title>Node7</title>
<polygon fill="white" stroke="#bfbfbf" points="495.5,-0.5 495.5,-19.5 538.5,-19.5 538.5,-0.5 495.5,-0.5"/>
<text text-anchor="middle" x="517" y="-7.5" font-family="FreeSans" font-size="10.00">vector</text>
</g>
<!-- Node3&#45;&gt;Node7 -->
<g id="edge6" class="edge"><title>Node3&#45;&gt;Node7</title>
<path fill="none" stroke="midnightblue" d="M364.503,-62.4035C396.526,-51.6093 451.432,-33.1016 485.89,-21.4867"/>
<polygon fill="midnightblue" stroke="midnightblue" points="487.096,-24.7735 495.454,-18.2626 484.86,-18.1402 487.096,-24.7735"/>
</g>
<!-- Node8 -->
<g id="node8" class="node"><title>Node8</title>
<polygon fill="white" stroke="#bfbfbf" points="299.5,-0.5 299.5,-19.5 334.5,-19.5 334.5,-0.5 299.5,-0.5"/>
<text text-anchor="middle" x="317" y="-7.5" font-family="FreeSans" font-size="10.00">map</text>
</g>
<!-- Node3&#45;&gt;Node8 -->
<g id="edge7" class="edge"><title>Node3&#45;&gt;Node8</title>
<path fill="none" stroke="midnightblue" d="M335.848,-62.4035C332.679,-53.7599 327.696,-40.17 323.649,-29.1341"/>
<polygon fill="midnightblue" stroke="midnightblue" points="326.875,-27.7644 320.146,-19.5806 320.303,-30.1743 326.875,-27.7644"/>
</g>
<!-- Node9 -->
<g id="node9" class="node"><title>Node9</title>
<polygon fill="white" stroke="#bfbfbf" points="634,-0.5 634,-19.5 674,-19.5 674,-0.5 634,-0.5"/>
<text text-anchor="middle" x="654" y="-7.5" font-family="FreeSans" font-size="10.00">string</text>
</g>
<!-- Node3&#45;&gt;Node9 -->
<g id="edge8" class="edge"><title>Node3&#45;&gt;Node9</title>
<path fill="none" stroke="midnightblue" d="M383.797,-62.4672C448.902,-50.0662 567.962,-27.3883 623.704,-16.7706"/>
<polygon fill="midnightblue" stroke="midnightblue" points="624.493,-20.1834 633.662,-14.874 623.183,-13.307 624.493,-20.1834"/>
</g>
<!-- Node10 -->
<g id="node10" class="node"><title>Node10</title>
<polygon fill="white" stroke="#bfbfbf" points="353,-0.5 353,-19.5 409,-19.5 409,-0.5 353,-0.5"/>
<text text-anchor="middle" x="381" y="-7.5" font-family="FreeSans" font-size="10.00">algorithm</text>
</g>
<!-- Node3&#45;&gt;Node10 -->
<g id="edge9" class="edge"><title>Node3&#45;&gt;Node10</title>
<path fill="none" stroke="midnightblue" d="M345.018,-62.4035C351.318,-53.4034 361.371,-39.0408 369.252,-27.7824"/>
<polygon fill="midnightblue" stroke="midnightblue" points="372.126,-29.7801 374.994,-19.5806 366.392,-25.7658 372.126,-29.7801"/>
</g>
<!-- Node12&#45;&gt;Node7 -->
<g id="edge12" class="edge"><title>Node12&#45;&gt;Node7</title>
<path fill="none" stroke="midnightblue" d="M517,-56.7808C517,-48.7812 517,-38.6887 517,-30.0168"/>
<polygon fill="midnightblue" stroke="midnightblue" points="520.5,-29.7305 517,-19.7305 513.5,-29.7306 520.5,-29.7305"/>
</g>
<!-- Node13&#45;&gt;Node7 -->
<g id="edge14" class="edge"><title>Node13&#45;&gt;Node7</title>
<path fill="none" stroke="midnightblue" d="M424.207,-180.644C421.616,-153.822 419.606,-95.269 445,-56 454.652,-41.0738 471.186,-30.2248 485.978,-22.9237"/>
<polygon fill="midnightblue" stroke="midnightblue" points="487.72,-25.9754 495.356,-18.631 484.807,-19.6105 487.72,-25.9754"/>
</g>
<!-- Node14&#45;&gt;Node11 -->
<g id="edge17" class="edge"><title>Node14&#45;&gt;Node11</title>
<path fill="none" stroke="midnightblue" d="M209.591,-186.403C216.491,-177.403 227.502,-163.041 236.134,-151.782"/>
<polygon fill="midnightblue" stroke="midnightblue" points="239.115,-153.646 242.422,-143.581 233.56,-149.387 239.115,-153.646"/>
</g>
<!-- Node15 -->
<g id="node15" class="node"><title>Node15</title>
<polygon fill="white" stroke="#bfbfbf" points="-0.5,-124.5 -0.5,-143.5 44.5,-143.5 44.5,-124.5 -0.5,-124.5"/>
<text text-anchor="middle" x="22" y="-131.5" font-family="FreeSans" font-size="10.00">cstring</text>
</g>
<!-- Node14&#45;&gt;Node15 -->
<g id="edge16" class="edge"><title>Node14&#45;&gt;Node15</title>
<path fill="none" stroke="midnightblue" d="M177.067,-186.403C144.772,-175.698 89.5868,-157.404 54.5005,-145.774"/>
<polygon fill="midnightblue" stroke="midnightblue" points="55.3325,-142.362 44.7391,-142.538 53.1298,-149.007 55.3325,-142.362"/>
</g>
<!-- Node16 -->
<g id="node16" class="node"><title>Node16</title>
<g id="a_node16"><a xlink:href="global_8h.html" target="_top" xlink:title="This file contains definitions for utility functions and text for modules, inputfiles, logs, textlogs, HTML_logs (see Input File Handling, Diagnostic Output, Writing messages to the screen and Writing HTML Logfiles). ">
<polygon fill="white" stroke="black" points="63,-124.5 63,-143.5 171,-143.5 171,-124.5 63,-124.5"/>
<text text-anchor="middle" x="117" y="-131.5" font-family="FreeSans" font-size="10.00">cantera/base/global.h</text>
</a>
</g>
</g>
<!-- Node14&#45;&gt;Node16 -->
<g id="edge18" class="edge"><title>Node14&#45;&gt;Node16</title>
<path fill="none" stroke="midnightblue" d="M190.678,-186.403C176.884,-176.78 154.301,-161.024 137.768,-149.489"/>
<polygon fill="midnightblue" stroke="midnightblue" points="139.503,-146.432 129.299,-143.581 135.497,-152.173 139.503,-146.432"/>
</g>
<!-- Node16&#45;&gt;Node3 -->
<g id="edge19" class="edge"><title>Node16&#45;&gt;Node3</title>
<path fill="none" stroke="midnightblue" d="M148.807,-124.403C187.877,-113.844 254.26,-95.9027 297.361,-84.2538"/>
<polygon fill="midnightblue" stroke="midnightblue" points="298.511,-87.5685 307.252,-81.5806 296.685,-80.811 298.511,-87.5685"/>
</g>
<!-- Node17&#45;&gt;Node12 -->
<g id="edge22" class="edge"><title>Node17&#45;&gt;Node12</title>
<path fill="none" stroke="midnightblue" d="M702.052,-124.403C669.615,-115.393 617.827,-101.007 577.276,-89.7432"/>
<polygon fill="midnightblue" stroke="midnightblue" points="578.063,-86.3295 567.491,-87.0253 576.19,-93.0741 578.063,-86.3295"/>
</g>
<!-- Node18 -->
<g id="node18" class="node"><title>Node18</title>
<g id="a_node18"><a xlink:href="vcs__SpeciesProperties_8h.html" target="_top" xlink:title="cantera/equil/vcs_Species\lProperties.h">
<polygon fill="white" stroke="black" points="636.5,-57 636.5,-87 765.5,-87 765.5,-57 636.5,-57"/>
<text text-anchor="start" x="644.5" y="-75" font-family="FreeSans" font-size="10.00">cantera/equil/vcs_Species</text>
<text text-anchor="middle" x="701" y="-64" font-family="FreeSans" font-size="10.00">Properties.h</text>
</a>
</g>
</g>
<!-- Node17&#45;&gt;Node18 -->
<g id="edge23" class="edge"><title>Node17&#45;&gt;Node18</title>
<path fill="none" stroke="midnightblue" d="M728.415,-124.403C724.486,-117.037 718.641,-106.077 713.356,-96.168"/>
<polygon fill="midnightblue" stroke="midnightblue" points="716.336,-94.3173 708.542,-87.1408 710.159,-97.6114 716.336,-94.3173"/>
</g>
<!-- Node18&#45;&gt;Node7 -->
<g id="edge24" class="edge"><title>Node18&#45;&gt;Node7</title>
<path fill="none" stroke="midnightblue" d="M657.86,-56.9327C624.268,-45.9787 578.432,-31.0323 548.295,-21.2048"/>
<polygon fill="midnightblue" stroke="midnightblue" points="549.309,-17.8541 538.716,-18.0814 547.138,-24.5092 549.309,-17.8541"/>
</g>
<!-- Node18&#45;&gt;Node9 -->
<g id="edge25" class="edge"><title>Node18&#45;&gt;Node9</title>
<path fill="none" stroke="midnightblue" d="M689.862,-56.7808C683.032,-48.0621 674.255,-36.8574 667.094,-27.7153"/>
<polygon fill="midnightblue" stroke="midnightblue" points="669.761,-25.4445 660.839,-19.7305 664.25,-29.7612 669.761,-25.4445"/>
</g>
<!-- Node19&#45;&gt;Node3 -->
<g id="edge27" class="edge"><title>Node19&#45;&gt;Node3</title>
<path fill="none" stroke="midnightblue" d="M546.584,-124.467C503.67,-113.827 430.24,-95.6215 383.202,-83.9593"/>
<polygon fill="midnightblue" stroke="midnightblue" points="383.845,-80.5128 373.297,-81.5034 382.161,-87.3071 383.845,-80.5128"/>
</g>
<!-- Node19&#45;&gt;Node9 -->
<g id="edge28" class="edge"><title>Node19&#45;&gt;Node9</title>
<path fill="none" stroke="midnightblue" d="M586.1,-124.451C594.581,-110.238 612.122,-80.8504 627,-56 632.449,-46.8981 638.527,-36.7666 643.534,-28.425"/>
<polygon fill="midnightblue" stroke="midnightblue" points="646.672,-29.9989 648.819,-19.6239 640.671,-26.3954 646.672,-29.9989"/>
</g>
<!-- Node20&#45;&gt;Node9 -->
<g id="edge31" class="edge"><title>Node20&#45;&gt;Node9</title>
<path fill="none" stroke="midnightblue" d="M770.368,-248.26C778.87,-239.796 791.1,-226.189 798,-212 815.351,-176.32 823.214,-162.338 813,-124 804.031,-90.3342 800.548,-78.5621 774,-56 748.221,-34.0911 710.732,-22.3329 684.537,-16.3962"/>
<polygon fill="midnightblue" stroke="midnightblue" points="684.92,-12.9002 674.413,-14.2627 683.477,-19.7497 684.92,-12.9002"/>
</g>
<!-- Node21 -->
<g id="node21" class="node"><title>Node21</title>
<polygon fill="white" stroke="#bfbfbf" points="732,-186.5 732,-205.5 790,-205.5 790,-186.5 732,-186.5"/>
<text text-anchor="middle" x="761" y="-193.5" font-family="FreeSans" font-size="10.00">exception</text>
</g>
<!-- Node20&#45;&gt;Node21 -->
<g id="edge30" class="edge"><title>Node20&#45;&gt;Node21</title>
<path fill="none" stroke="midnightblue" d="M761,-248.403C761,-239.938 761,-226.728 761,-215.82"/>
<polygon fill="midnightblue" stroke="midnightblue" points="764.5,-215.581 761,-205.581 757.5,-215.581 764.5,-215.581"/>
</g>
</g>
</svg>
