<?xml version="1.0" encoding="UTF-8" standalone="no"?>
<!DOCTYPE svg PUBLIC "-//W3C//DTD SVG 1.1//EN"
 "http://www.w3.org/Graphics/SVG/1.1/DTD/svg11.dtd">
<!-- Generated by graphviz version 2.36.0 (20140111.2315)
 -->
<!-- Title: vcs_internal.h Pages: 1 -->
<svg width="2243pt" height="140pt"
 viewBox="0.00 0.00 2243.00 140.00" xmlns="http://www.w3.org/2000/svg" xmlns:xlink="http://www.w3.org/1999/xlink">
<g id="graph0" class="graph" transform="scale(1 1) rotate(0) translate(4 136)">
<title>vcs_internal.h</title>
<polygon fill="white" stroke="none" points="-4,4 -4,-136 2239,-136 2239,4 -4,4"/>
<!-- Node1 -->
<g id="node1" class="node"><title>Node1</title>
<polygon fill="#bfbfbf" stroke="black" points="1154.5,-112.5 1154.5,-131.5 1229.5,-131.5 1229.5,-112.5 1154.5,-112.5"/>
<text text-anchor="middle" x="1192" y="-119.5" font-family="FreeSans" font-size="10.00">vcs_internal.h</text>
</g>
<!-- Node2 -->
<g id="node2" class="node"><title>Node2</title>
<g id="a_node2"><a xlink:href="vcs__elem_8cpp.html" target="_top" xlink:title="This file contains the algorithm for checking the satisfaction of the element abundances constraints ...">
<polygon fill="white" stroke="black" points="-0.5,-0.5 -0.5,-19.5 74.5,-19.5 74.5,-0.5 -0.5,-0.5"/>
<text text-anchor="middle" x="37" y="-7.5" font-family="FreeSans" font-size="10.00">vcs_elem.cpp</text>
</a>
</g>
</g>
<!-- Node1&#45;&gt;Node2 -->
<g id="edge1" class="edge"><title>Node1&#45;&gt;Node2</title>
<path fill="none" stroke="midnightblue" d="M1143.88,-121.046C1014.25,-120.607 647.128,-115.663 345,-76 243.403,-62.6624 125.406,-33.9936 69.5328,-19.6062"/>
<polygon fill="midnightblue" stroke="midnightblue" points="1144.23,-124.546 1154.24,-121.072 1144.25,-117.546 1144.23,-124.546"/>
</g>
<!-- Node3 -->
<g id="node3" class="node"><title>Node3</title>
<g id="a_node3"><a xlink:href="vcs__elem__rearrange_8cpp.html" target="_top" xlink:title="Contains implementations for rearranging the element columns, and it contains the algorithm for choos...">
<polygon fill="white" stroke="black" points="92.5,-0.5 92.5,-19.5 213.5,-19.5 213.5,-0.5 92.5,-0.5"/>
<text text-anchor="middle" x="153" y="-7.5" font-family="FreeSans" font-size="10.00">vcs_elem_rearrange.cpp</text>
</a>
</g>
</g>
<!-- Node1&#45;&gt;Node3 -->
<g id="edge2" class="edge"><title>Node1&#45;&gt;Node3</title>
<path fill="none" stroke="midnightblue" d="M1144.36,-120.511C1027.21,-118.78 715.91,-110.976 459,-76 358.099,-62.263 240.851,-33.7799 185.329,-19.5205"/>
<polygon fill="midnightblue" stroke="midnightblue" points="1144.38,-124.012 1154.43,-120.652 1144.48,-117.012 1144.38,-124.012"/>
</g>
<!-- Node4 -->
<g id="node4" class="node"><title>Node4</title>
<g id="a_node4"><a xlink:href="vcs__equilibrate_8cpp.html" target="_top" xlink:title="Driver routines for equilibrium solvers. ">
<polygon fill="white" stroke="black" points="231,-0.5 231,-19.5 329,-19.5 329,-0.5 231,-0.5"/>
<text text-anchor="middle" x="280" y="-7.5" font-family="FreeSans" font-size="10.00">vcs_equilibrate.cpp</text>
</a>
</g>
</g>
<!-- Node1&#45;&gt;Node4 -->
<g id="edge3" class="edge"><title>Node1&#45;&gt;Node4</title>
<path fill="none" stroke="midnightblue" d="M1144.1,-120.031C1038.93,-117.363 780.126,-107.841 566,-76 471.817,-61.9949 362.624,-33.7674 310.605,-19.5684"/>
<polygon fill="midnightblue" stroke="midnightblue" points="1144.3,-123.537 1154.39,-120.282 1144.48,-116.539 1144.3,-123.537"/>
</g>
<!-- Node5 -->
<g id="node5" class="node"><title>Node5</title>
<g id="a_node5"><a xlink:href="vcs__Gibbs_8cpp.html" target="_top" xlink:title="Functions which calculate the extrinsic Gibbs Free energies. ">
<polygon fill="white" stroke="black" points="346.5,-0.5 346.5,-19.5 425.5,-19.5 425.5,-0.5 346.5,-0.5"/>
<text text-anchor="middle" x="386" y="-7.5" font-family="FreeSans" font-size="10.00">vcs_Gibbs.cpp</text>
</a>
</g>
</g>
<!-- Node1&#45;&gt;Node5 -->
<g id="edge4" class="edge"><title>Node1&#45;&gt;Node5</title>
<path fill="none" stroke="midnightblue" d="M1144.25,-119.037C1052.49,-114.784 845.31,-102.854 673,-76 578.857,-61.3278 469.562,-33.5357 417.157,-19.5268"/>
<polygon fill="midnightblue" stroke="midnightblue" points="1144.19,-122.538 1154.34,-119.495 1144.51,-115.545 1144.19,-122.538"/>
</g>
<!-- Node6 -->
<g id="node6" class="node"><title>Node6</title>
<g id="a_node6"><a xlink:href="vcs__inest_8cpp.html" target="_top" xlink:title="Implementation methods for obtaining a good initial guess. ">
<polygon fill="white" stroke="black" points="444,-0.5 444,-19.5 518,-19.5 518,-0.5 444,-0.5"/>
<text text-anchor="middle" x="481" y="-7.5" font-family="FreeSans" font-size="10.00">vcs_inest.cpp</text>
</a>
</g>
</g>
<!-- Node1&#45;&gt;Node6 -->
<g id="edge5" class="edge"><title>Node1&#45;&gt;Node6</title>
<path fill="none" stroke="midnightblue" d="M1144.36,-117.603C1066.52,-111.666 907.378,-97.9044 774,-76 678.623,-60.3365 567.626,-33.244 513.724,-19.5099"/>
<polygon fill="midnightblue" stroke="midnightblue" points="1144.11,-121.094 1154.34,-118.356 1144.63,-114.114 1144.11,-121.094"/>
</g>
<!-- Node7 -->
<g id="node7" class="node"><title>Node7</title>
<g id="a_node7"><a xlink:href="vcs__MultiPhaseEquil_8cpp.html" target="_top" xlink:title="Driver routine for the VCSnonideal equilibrium solver package. ">
<polygon fill="white" stroke="black" points="536.5,-0.5 536.5,-19.5 659.5,-19.5 659.5,-0.5 536.5,-0.5"/>
<text text-anchor="middle" x="598" y="-7.5" font-family="FreeSans" font-size="10.00">vcs_MultiPhaseEquil.cpp</text>
</a>
</g>
</g>
<!-- Node1&#45;&gt;Node7 -->
<g id="edge6" class="edge"><title>Node1&#45;&gt;Node7</title>
<path fill="none" stroke="midnightblue" d="M1144.14,-115.883C1080.55,-108.74 964.811,-94.5412 867,-76 779.907,-59.4905 678.628,-33.0161 628.849,-19.5154"/>
<polygon fill="midnightblue" stroke="midnightblue" points="1143.94,-119.383 1154.27,-117.01 1144.72,-112.426 1143.94,-119.383"/>
</g>
<!-- Node8 -->
<g id="node8" class="node"><title>Node8</title>
<g id="a_node8"><a xlink:href="vcs__nondim_8cpp.html" target="_top" xlink:title="Nondimensionalization routines within VCSnonideal. ">
<polygon fill="white" stroke="black" points="678,-0.5 678,-19.5 764,-19.5 764,-0.5 678,-0.5"/>
<text text-anchor="middle" x="721" y="-7.5" font-family="FreeSans" font-size="10.00">vcs_nondim.cpp</text>
</a>
</g>
</g>
<!-- Node1&#45;&gt;Node8 -->
<g id="edge7" class="edge"><title>Node1&#45;&gt;Node8</title>
<path fill="none" stroke="midnightblue" d="M1143.9,-113.73C1093.9,-105.826 1013.52,-92.1397 945,-76 872.674,-58.965 788.944,-32.9544 747.319,-19.5881"/>
<polygon fill="midnightblue" stroke="midnightblue" points="1143.67,-117.237 1154.09,-115.328 1144.75,-110.322 1143.67,-117.237"/>
</g>
<!-- Node9 -->
<g id="node9" class="node"><title>Node9</title>
<g id="a_node9"><a xlink:href="vcs__phaseStability_8cpp.html" target="_top" xlink:title="Implementation class for functions associated with determining the stability of a phase (see Class VC...">
<polygon fill="white" stroke="black" points="782,-0.5 782,-19.5 896,-19.5 896,-0.5 782,-0.5"/>
<text text-anchor="middle" x="839" y="-7.5" font-family="FreeSans" font-size="10.00">vcs_phaseStability.cpp</text>
</a>
</g>
</g>
<!-- Node1&#45;&gt;Node9 -->
<g id="edge8" class="edge"><title>Node1&#45;&gt;Node9</title>
<path fill="none" stroke="midnightblue" d="M1144.63,-111.588C1106.31,-103.515 1051.16,-90.8535 1004,-76 950.112,-59.0287 888.701,-32.9905 858.239,-19.6035"/>
<polygon fill="midnightblue" stroke="midnightblue" points="1143.98,-115.027 1154.48,-113.641 1145.41,-108.174 1143.98,-115.027"/>
</g>
<!-- Node10 -->
<g id="node10" class="node"><title>Node10</title>
<g id="a_node10"><a xlink:href="vcs__prep_8cpp.html" target="_top" xlink:title="This file contains some prepatory functions. ">
<polygon fill="white" stroke="black" points="914.5,-0.5 914.5,-19.5 987.5,-19.5 987.5,-0.5 914.5,-0.5"/>
<text text-anchor="middle" x="951" y="-7.5" font-family="FreeSans" font-size="10.00">vcs_prep.cpp</text>
</a>
</g>
</g>
<!-- Node1&#45;&gt;Node10 -->
<g id="edge9" class="edge"><title>Node1&#45;&gt;Node10</title>
<path fill="none" stroke="midnightblue" d="M1144.42,-111.728C1113.12,-104.527 1071.84,-92.8939 1038,-76 1006.96,-60.5062 975.596,-33.7057 960.409,-19.8559"/>
<polygon fill="midnightblue" stroke="midnightblue" points="1143.68,-115.15 1154.2,-113.911 1145.21,-108.318 1143.68,-115.15"/>
</g>
<!-- Node11 -->
<g id="node11" class="node"><title>Node11</title>
<g id="a_node11"><a xlink:href="vcs__prob_8cpp.html" target="_top" xlink:title="Implementation for the Interface class for the vcs thermo equilibrium solver package,. ">
<polygon fill="white" stroke="black" points="1524.5,-56.5 1524.5,-75.5 1597.5,-75.5 1597.5,-56.5 1524.5,-56.5"/>
<text text-anchor="middle" x="1561" y="-63.5" font-family="FreeSans" font-size="10.00">vcs_prob.cpp</text>
</a>
</g>
</g>
<!-- Node1&#45;&gt;Node11 -->
<g id="edge10" class="edge"><title>Node1&#45;&gt;Node11</title>
<path fill="none" stroke="midnightblue" d="M1239.68,-114.769C1301.94,-106.514 1414.28,-91.2139 1510,-76 1514.62,-75.2661 1519.46,-74.459 1524.25,-73.6388"/>
<polygon fill="midnightblue" stroke="midnightblue" points="1239.21,-111.3 1229.76,-116.081 1240.13,-118.24 1239.21,-111.3"/>
</g>
<!-- Node12 -->
<g id="node12" class="node"><title>Node12</title>
<g id="a_node12"><a xlink:href="vcs__rank_8cpp.html" target="_top" xlink:title="vcs_rank.cpp">
<polygon fill="white" stroke="black" points="1005.5,-0.5 1005.5,-19.5 1078.5,-19.5 1078.5,-0.5 1005.5,-0.5"/>
<text text-anchor="middle" x="1042" y="-7.5" font-family="FreeSans" font-size="10.00">vcs_rank.cpp</text>
</a>
</g>
</g>
<!-- Node1&#45;&gt;Node12 -->
<g id="edge11" class="edge"><title>Node1&#45;&gt;Node12</title>
<path fill="none" stroke="midnightblue" d="M1143.93,-118.371C1112.72,-113.999 1073.75,-103.022 1051,-76 1037.5,-59.9637 1038.76,-33.4005 1040.53,-19.7272"/>
<polygon fill="midnightblue" stroke="midnightblue" points="1143.84,-121.885 1154.19,-119.614 1144.68,-114.936 1143.84,-121.885"/>
</g>
<!-- Node13 -->
<g id="node13" class="node"><title>Node13</title>
<g id="a_node13"><a xlink:href="vcs__rearrange_8cpp.html" target="_top" xlink:title="implementation file for rearranging species. ">
<polygon fill="white" stroke="black" points="1096.5,-0.5 1096.5,-19.5 1191.5,-19.5 1191.5,-0.5 1096.5,-0.5"/>
<text text-anchor="middle" x="1144" y="-7.5" font-family="FreeSans" font-size="10.00">vcs_rearrange.cpp</text>
</a>
</g>
</g>
<!-- Node1&#45;&gt;Node13 -->
<g id="edge12" class="edge"><title>Node1&#45;&gt;Node13</title>
<path fill="none" stroke="midnightblue" d="M1184.14,-102.998C1173.67,-78.9968 1155.55,-37.4683 1147.75,-19.5914"/>
<polygon fill="midnightblue" stroke="midnightblue" points="1181.03,-104.603 1188.23,-112.368 1187.44,-101.803 1181.03,-104.603"/>
</g>
<!-- Node14 -->
<g id="node14" class="node"><title>Node14</title>
<g id="a_node14"><a xlink:href="vcs__report_8cpp.html" target="_top" xlink:title="vcs_report.cpp">
<polygon fill="white" stroke="black" points="1209.5,-0.5 1209.5,-19.5 1288.5,-19.5 1288.5,-0.5 1209.5,-0.5"/>
<text text-anchor="middle" x="1249" y="-7.5" font-family="FreeSans" font-size="10.00">vcs_report.cpp</text>
</a>
</g>
</g>
<!-- Node1&#45;&gt;Node14 -->
<g id="edge13" class="edge"><title>Node1&#45;&gt;Node14</title>
<path fill="none" stroke="midnightblue" d="M1197.35,-102.372C1201.54,-89.0441 1207.99,-70.9001 1216,-56 1223.25,-42.5173 1234.12,-28.5359 1241.38,-19.8072"/>
<polygon fill="midnightblue" stroke="midnightblue" points="1193.91,-101.674 1194.38,-112.258 1200.61,-103.688 1193.91,-101.674"/>
</g>
<!-- Node15 -->
<g id="node15" class="node"><title>Node15</title>
<g id="a_node15"><a xlink:href="vcs__root1d_8cpp.html" target="_top" xlink:title="Code for a one dimensional root finder program. ">
<polygon fill="white" stroke="black" points="1615.5,-56.5 1615.5,-75.5 1696.5,-75.5 1696.5,-56.5 1615.5,-56.5"/>
<text text-anchor="middle" x="1656" y="-63.5" font-family="FreeSans" font-size="10.00">vcs_root1d.cpp</text>
</a>
</g>
</g>
<!-- Node1&#45;&gt;Node15 -->
<g id="edge14" class="edge"><title>Node1&#45;&gt;Node15</title>
<path fill="none" stroke="midnightblue" d="M1239.86,-116.892C1317.1,-110.017 1473.93,-95.041 1606,-76 1609.06,-75.5595 1612.21,-75.0712 1615.38,-74.5565"/>
<polygon fill="midnightblue" stroke="midnightblue" points="1239.16,-113.441 1229.5,-117.808 1239.77,-120.413 1239.16,-113.441"/>
</g>
<!-- Node16 -->
<g id="node16" class="node"><title>Node16</title>
<g id="a_node16"><a xlink:href="vcs__rxnadj_8cpp.html" target="_top" xlink:title="Routines for carrying out various adjustments to the reaction steps. ">
<polygon fill="white" stroke="black" points="1307,-0.5 1307,-19.5 1387,-19.5 1387,-0.5 1307,-0.5"/>
<text text-anchor="middle" x="1347" y="-7.5" font-family="FreeSans" font-size="10.00">vcs_rxnadj.cpp</text>
</a>
</g>
</g>
<!-- Node1&#45;&gt;Node16 -->
<g id="edge15" class="edge"><title>Node1&#45;&gt;Node16</title>
<path fill="none" stroke="midnightblue" d="M1204.81,-104.551C1216.49,-90.3596 1234.8,-69.9967 1254,-56 1275.74,-40.1526 1303.93,-27.4268 1323.55,-19.6053"/>
<polygon fill="midnightblue" stroke="midnightblue" points="1201.98,-102.488 1198.45,-112.478 1207.44,-106.87 1201.98,-102.488"/>
</g>
<!-- Node17 -->
<g id="node17" class="node"><title>Node17</title>
<g id="a_node17"><a xlink:href="vcs__setMolesLinProg_8cpp.html" target="_top" xlink:title="vcs_setMolesLinProg.cpp">
<polygon fill="white" stroke="black" points="1405.5,-0.5 1405.5,-19.5 1530.5,-19.5 1530.5,-0.5 1405.5,-0.5"/>
<text text-anchor="middle" x="1468" y="-7.5" font-family="FreeSans" font-size="10.00">vcs_setMolesLinProg.cpp</text>
</a>
</g>
</g>
<!-- Node1&#45;&gt;Node17 -->
<g id="edge16" class="edge"><title>Node1&#45;&gt;Node17</title>
<path fill="none" stroke="midnightblue" d="M1210.69,-106.166C1230.01,-91.4899 1261.58,-69.3434 1292,-56 1332.15,-38.3911 1380.58,-26.6377 1416.47,-19.5724"/>
<polygon fill="midnightblue" stroke="midnightblue" points="1208.49,-103.441 1202.71,-112.325 1212.77,-108.98 1208.49,-103.441"/>
</g>
<!-- Node18 -->
<g id="node18" class="node"><title>Node18</title>
<g id="a_node18"><a xlink:href="vcs__solve_8cpp.html" target="_top" xlink:title="vcs_solve.cpp">
<polygon fill="white" stroke="black" points="1549,-0.5 1549,-19.5 1625,-19.5 1625,-0.5 1549,-0.5"/>
<text text-anchor="middle" x="1587" y="-7.5" font-family="FreeSans" font-size="10.00">vcs_solve.cpp</text>
</a>
</g>
</g>
<!-- Node1&#45;&gt;Node18 -->
<g id="edge17" class="edge"><title>Node1&#45;&gt;Node18</title>
<path fill="none" stroke="midnightblue" d="M1219.5,-108.162C1238.71,-99.1838 1264.94,-86.8972 1288,-76 1306.69,-67.1679 1310.29,-62.2578 1330,-56 1419.84,-27.4709 1446.23,-36.6857 1539,-20 1542.17,-19.4297 1545.46,-18.8303 1548.76,-18.2232"/>
<polygon fill="midnightblue" stroke="midnightblue" points="1218,-105.002 1210.42,-112.406 1220.96,-111.344 1218,-105.002"/>
</g>
<!-- Node19 -->
<g id="node19" class="node"><title>Node19</title>
<g id="a_node19"><a xlink:href="vcs__solve__phaseStability_8cpp.html" target="_top" xlink:title="vcs_solve_phaseStability.cpp">
<polygon fill="white" stroke="black" points="1643.5,-0.5 1643.5,-19.5 1784.5,-19.5 1784.5,-0.5 1643.5,-0.5"/>
<text text-anchor="middle" x="1714" y="-7.5" font-family="FreeSans" font-size="10.00">vcs_solve_phaseStability.cpp</text>
</a>
</g>
</g>
<!-- Node1&#45;&gt;Node19 -->
<g id="edge18" class="edge"><title>Node1&#45;&gt;Node19</title>
<path fill="none" stroke="midnightblue" d="M1228.71,-109.342C1255.14,-100.716 1291.55,-88.3651 1323,-76 1343.37,-67.9927 1346.93,-61.9174 1368,-56 1393.84,-48.7426 1549.77,-29.9623 1643.26,-19.0947"/>
<polygon fill="midnightblue" stroke="midnightblue" points="1227.53,-106.045 1219.1,-112.458 1229.69,-112.704 1227.53,-106.045"/>
</g>
<!-- Node20 -->
<g id="node20" class="node"><title>Node20</title>
<g id="a_node20"><a xlink:href="vcs__solve__TP_8cpp.html" target="_top" xlink:title="Implementation file that contains the main algorithm for finding an equilibrium. ">
<polygon fill="white" stroke="black" points="1803,-0.5 1803,-19.5 1897,-19.5 1897,-0.5 1803,-0.5"/>
<text text-anchor="middle" x="1850" y="-7.5" font-family="FreeSans" font-size="10.00">vcs_solve_TP.cpp</text>
</a>
</g>
</g>
<!-- Node1&#45;&gt;Node20 -->
<g id="edge19" class="edge"><title>Node1&#45;&gt;Node20</title>
<path fill="none" stroke="midnightblue" d="M1239.63,-110.241C1273.58,-102.089 1320.09,-89.9363 1360,-76 1381.05,-68.6513 1384.41,-61.5466 1406,-56 1573.31,-13.0215 1621.6,-41.4816 1793,-20 1796.18,-19.6013 1799.46,-19.1617 1802.76,-18.6976"/>
<polygon fill="midnightblue" stroke="midnightblue" points="1238.44,-106.926 1229.52,-112.64 1240.05,-113.737 1238.44,-106.926"/>
</g>
<!-- Node21 -->
<g id="node21" class="node"><title>Node21</title>
<g id="a_node21"><a xlink:href="vcs__species__thermo_8cpp.html" target="_top" xlink:title="Implementation for the VCS_SPECIES_THERMO object. ">
<polygon fill="white" stroke="black" points="1915,-0.5 1915,-19.5 2037,-19.5 2037,-0.5 1915,-0.5"/>
<text text-anchor="middle" x="1976" y="-7.5" font-family="FreeSans" font-size="10.00">vcs_species_thermo.cpp</text>
</a>
</g>
</g>
<!-- Node1&#45;&gt;Node21 -->
<g id="edge20" class="edge"><title>Node1&#45;&gt;Node21</title>
<path fill="none" stroke="midnightblue" d="M1239.53,-113.163C1281.51,-105.63 1344.09,-92.9016 1397,-76 1418.62,-69.0919 1421.95,-61.3972 1444,-56 1644.05,-7.03517 1701.13,-41.1386 1906,-20 1908.93,-19.6982 1911.92,-19.3738 1914.94,-19.0339"/>
<polygon fill="midnightblue" stroke="midnightblue" points="1238.82,-109.733 1229.58,-114.919 1240.04,-116.627 1238.82,-109.733"/>
</g>
<!-- Node22 -->
<g id="node22" class="node"><title>Node22</title>
<g id="a_node22"><a xlink:href="vcs__SpeciesProperties_8cpp.html" target="_top" xlink:title="vcs_SpeciesProperties.cpp">
<polygon fill="white" stroke="black" points="1715,-56.5 1715,-75.5 1847,-75.5 1847,-56.5 1715,-56.5"/>
<text text-anchor="middle" x="1781" y="-63.5" font-family="FreeSans" font-size="10.00">vcs_SpeciesProperties.cpp</text>
</a>
</g>
</g>
<!-- Node1&#45;&gt;Node22 -->
<g id="edge21" class="edge"><title>Node1&#45;&gt;Node22</title>
<path fill="none" stroke="midnightblue" d="M1239.66,-117.306C1330.35,-110.168 1533.95,-93.6263 1705,-76 1708.17,-75.6731 1711.42,-75.3285 1714.69,-74.9722"/>
<polygon fill="midnightblue" stroke="midnightblue" points="1239.38,-113.816 1229.69,-118.088 1239.93,-120.795 1239.38,-113.816"/>
</g>
<!-- Node23 -->
<g id="node23" class="node"><title>Node23</title>
<g id="a_node23"><a xlink:href="vcs__TP_8cpp.html" target="_top" xlink:title="vcs_TP.cpp">
<polygon fill="white" stroke="black" points="2055.5,-0.5 2055.5,-19.5 2122.5,-19.5 2122.5,-0.5 2055.5,-0.5"/>
<text text-anchor="middle" x="2089" y="-7.5" font-family="FreeSans" font-size="10.00">vcs_TP.cpp</text>
</a>
</g>
</g>
<!-- Node1&#45;&gt;Node23 -->
<g id="edge22" class="edge"><title>Node1&#45;&gt;Node23</title>
<path fill="none" stroke="midnightblue" d="M1239.76,-115.306C1289.3,-108.672 1368.65,-95.9957 1435,-76 1456.74,-69.4494 1459.91,-61.2424 1482,-56 1726.39,2.00396 1797.11,-53.8143 2046,-20 2049.02,-19.5893 2052.15,-19.0872 2055.28,-18.5323"/>
<polygon fill="midnightblue" stroke="midnightblue" points="1239.12,-111.861 1229.66,-116.631 1240.03,-118.801 1239.12,-111.861"/>
</g>
<!-- Node24 -->
<g id="node24" class="node"><title>Node24</title>
<g id="a_node24"><a xlink:href="vcs__util_8cpp.html" target="_top" xlink:title="Internal definitions for utility functions for the VCSnonideal package. ">
<polygon fill="white" stroke="black" points="1865.5,-56.5 1865.5,-75.5 1932.5,-75.5 1932.5,-56.5 1865.5,-56.5"/>
<text text-anchor="middle" x="1899" y="-63.5" font-family="FreeSans" font-size="10.00">vcs_util.cpp</text>
</a>
</g>
</g>
<!-- Node1&#45;&gt;Node24 -->
<g id="edge23" class="edge"><title>Node1&#45;&gt;Node24</title>
<path fill="none" stroke="midnightblue" d="M1239.68,-120.034C1349.11,-117.324 1626.47,-107.642 1856,-76 1859.02,-75.5834 1862.15,-75.0772 1865.28,-74.5196"/>
<polygon fill="midnightblue" stroke="midnightblue" points="1239.54,-116.537 1229.63,-120.275 1239.71,-123.535 1239.54,-116.537"/>
</g>
<!-- Node25 -->
<g id="node25" class="node"><title>Node25</title>
<g id="a_node25"><a xlink:href="vcs__VolPhase_8cpp.html" target="_top" xlink:title="vcs_VolPhase.cpp">
<polygon fill="white" stroke="black" points="2140.5,-0.5 2140.5,-19.5 2235.5,-19.5 2235.5,-0.5 2140.5,-0.5"/>
<text text-anchor="middle" x="2188" y="-7.5" font-family="FreeSans" font-size="10.00">vcs_VolPhase.cpp</text>
</a>
</g>
</g>
<!-- Node1&#45;&gt;Node25 -->
<g id="edge24" class="edge"><title>Node1&#45;&gt;Node25</title>
<path fill="none" stroke="midnightblue" d="M1239.66,-117.408C1296.29,-112.221 1393.17,-100.439 1473,-76 1493.15,-69.8302 1495.56,-61.1515 1516,-56 1781.5,10.9199 1858.78,-49.3867 2131,-20 2134.09,-19.6667 2137.26,-19.2821 2140.46,-18.8636"/>
<polygon fill="midnightblue" stroke="midnightblue" points="1239.22,-113.933 1229.56,-118.301 1239.83,-120.906 1239.22,-113.933"/>
</g>
<!-- Node26 -->
<g id="node26" class="node"><title>Node26</title>
<g id="a_node26"><a xlink:href="vcs__solve_8h.html" target="_top" xlink:title="Header file for the internal object that holds the vcs equilibrium problem (see Class VCS_SOLVE and E...">
<polygon fill="white" stroke="black" points="1060.5,-56.5 1060.5,-75.5 1125.5,-75.5 1125.5,-56.5 1060.5,-56.5"/>
<text text-anchor="middle" x="1093" y="-63.5" font-family="FreeSans" font-size="10.00">vcs_solve.h</text>
</a>
</g>
</g>
<!-- Node1&#45;&gt;Node26 -->
<g id="edge25" class="edge"><title>Node1&#45;&gt;Node26</title>
<path fill="none" stroke="midnightblue" d="M1167.16,-107.453C1148.89,-97.4835 1124.58,-84.2279 1108.87,-75.6545"/>
<polygon fill="midnightblue" stroke="midnightblue" points="1165.64,-110.608 1176.09,-112.324 1168.99,-104.463 1165.64,-110.608"/>
</g>
<!-- Node26&#45;&gt;Node2 -->
<g id="edge26" class="edge"><title>Node26&#45;&gt;Node2</title>
<path fill="none" stroke="midnightblue" d="M1049.86,-65.3637C909.811,-66.0569 455.412,-64.4777 83,-20 80.2528,-19.6719 77.4239,-19.2722 74.5834,-18.8257"/>
<polygon fill="midnightblue" stroke="midnightblue" points="1050.18,-68.862 1060.16,-65.3056 1050.14,-61.8622 1050.18,-68.862"/>
</g>
<!-- Node26&#45;&gt;Node3 -->
<g id="edge27" class="edge"><title>Node26&#45;&gt;Node3</title>
<path fill="none" stroke="midnightblue" d="M1050.02,-63.9678C923.14,-60.6648 539.178,-48.8346 222,-20 219.233,-19.7484 216.406,-19.4694 213.552,-19.1699"/>
<polygon fill="midnightblue" stroke="midnightblue" points="1050.02,-67.4688 1060.11,-64.2263 1050.2,-60.4711 1050.02,-67.4688"/>
</g>
<!-- Node26&#45;&gt;Node4 -->
<g id="edge28" class="edge"><title>Node26&#45;&gt;Node4</title>
<path fill="none" stroke="midnightblue" d="M1050.31,-63.9122C934.989,-60.6596 607.63,-49.3498 337,-20 334.41,-19.7192 331.759,-19.4025 329.085,-19.0603"/>
<polygon fill="midnightblue" stroke="midnightblue" points="1050.39,-67.4156 1060.48,-64.1935 1050.59,-60.4183 1050.39,-67.4156"/>
</g>
<!-- Node26&#45;&gt;Node5 -->
<g id="edge29" class="edge"><title>Node26&#45;&gt;Node5</title>
<path fill="none" stroke="midnightblue" d="M1050.14,-63.7513C944.983,-60.322 665.934,-49.01 435,-20 431.911,-19.6119 428.721,-19.155 425.521,-18.6563"/>
<polygon fill="midnightblue" stroke="midnightblue" points="1050.25,-67.2563 1060.35,-64.0771 1050.47,-60.2598 1050.25,-67.2563"/>
</g>
<!-- Node26&#45;&gt;Node6 -->
<g id="edge30" class="edge"><title>Node26&#45;&gt;Node6</title>
<path fill="none" stroke="midnightblue" d="M1050.27,-63.2666C955.647,-59.0639 721.381,-46.6545 527,-20 524.098,-19.602 521.102,-19.138 518.096,-18.6344"/>
<polygon fill="midnightblue" stroke="midnightblue" points="1050.18,-66.7656 1060.32,-63.705 1050.48,-59.7722 1050.18,-66.7656"/>
</g>
<!-- Node26&#45;&gt;Node7 -->
<g id="edge31" class="edge"><title>Node26&#45;&gt;Node7</title>
<path fill="none" stroke="midnightblue" d="M1050.05,-60.7333C973.447,-53.0584 808.221,-36.21 669,-20 665.915,-19.6408 662.755,-19.2658 659.564,-18.8817"/>
<polygon fill="midnightblue" stroke="midnightblue" points="1049.96,-64.2417 1060.26,-61.7543 1050.66,-57.2764 1049.96,-64.2417"/>
</g>
<!-- Node26&#45;&gt;Node8 -->
<g id="edge32" class="edge"><title>Node26&#45;&gt;Node8</title>
<path fill="none" stroke="midnightblue" d="M1050.15,-59.4124C988.693,-51.3002 872.024,-35.5281 773,-20 770.104,-19.5458 767.119,-19.0645 764.113,-18.5701"/>
<polygon fill="midnightblue" stroke="midnightblue" points="1049.87,-62.9063 1060.24,-60.7418 1050.78,-55.9662 1049.87,-62.9063"/>
</g>
<!-- Node26&#45;&gt;Node9 -->
<g id="edge33" class="edge"><title>Node26&#45;&gt;Node9</title>
<path fill="none" stroke="midnightblue" d="M1050.29,-55.9202C1002.53,-45.7655 925.758,-29.4447 879.087,-19.5225"/>
<polygon fill="midnightblue" stroke="midnightblue" points="1049.8,-59.3949 1060.31,-58.051 1051.26,-52.5479 1049.8,-59.3949"/>
</g>
<!-- Node26&#45;&gt;Node10 -->
<g id="edge34" class="edge"><title>Node26&#45;&gt;Node10</title>
<path fill="none" stroke="midnightblue" d="M1060.84,-52.772C1034.17,-42.6287 996.931,-28.4669 973.395,-19.5164"/>
<polygon fill="midnightblue" stroke="midnightblue" points="1059.91,-56.1604 1070.5,-56.4435 1062.4,-49.6176 1059.91,-56.1604"/>
</g>
<!-- Node26&#45;&gt;Node12 -->
<g id="edge35" class="edge"><title>Node26&#45;&gt;Node12</title>
<path fill="none" stroke="midnightblue" d="M1077.62,-48.7175C1068.63,-39.1997 1057.64,-27.5608 1050.26,-19.7511"/>
<polygon fill="midnightblue" stroke="midnightblue" points="1075.17,-51.216 1084.58,-56.083 1080.26,-46.4096 1075.17,-51.216"/>
</g>
<!-- Node26&#45;&gt;Node13 -->
<g id="edge36" class="edge"><title>Node26&#45;&gt;Node13</title>
<path fill="none" stroke="midnightblue" d="M1108.38,-48.7175C1117.37,-39.1997 1128.36,-27.5608 1135.74,-19.7511"/>
<polygon fill="midnightblue" stroke="midnightblue" points="1105.74,-46.4096 1101.42,-56.083 1110.83,-51.216 1105.74,-46.4096"/>
</g>
<!-- Node26&#45;&gt;Node14 -->
<g id="edge37" class="edge"><title>Node26&#45;&gt;Node14</title>
<path fill="none" stroke="midnightblue" d="M1127.17,-53.172C1156.54,-43.0039 1198.2,-28.5852 1224.4,-19.5164"/>
<polygon fill="midnightblue" stroke="midnightblue" points="1126.02,-49.8649 1117.72,-56.4435 1128.31,-56.4798 1126.02,-49.8649"/>
</g>
<!-- Node26&#45;&gt;Node16 -->
<g id="edge38" class="edge"><title>Node26&#45;&gt;Node16</title>
<path fill="none" stroke="midnightblue" d="M1135.71,-55.9202C1183.47,-45.7655 1260.24,-29.4447 1306.91,-19.5225"/>
<polygon fill="midnightblue" stroke="midnightblue" points="1134.74,-52.5479 1125.69,-58.051 1136.2,-59.3949 1134.74,-52.5479"/>
</g>
<!-- Node26&#45;&gt;Node17 -->
<g id="edge39" class="edge"><title>Node26&#45;&gt;Node17</title>
<path fill="none" stroke="midnightblue" d="M1135.82,-58.8337C1202.84,-49.1831 1332.69,-30.4853 1408.67,-19.5435"/>
<polygon fill="midnightblue" stroke="midnightblue" points="1135.02,-55.4127 1125.62,-60.3023 1136.02,-62.3412 1135.02,-55.4127"/>
</g>
<!-- Node26&#45;&gt;Node18 -->
<g id="edge40" class="edge"><title>Node26&#45;&gt;Node18</title>
<path fill="none" stroke="midnightblue" d="M1135.69,-61.9042C1215.27,-55.8654 1391.56,-41.2216 1539,-20 1542.19,-19.541 1545.49,-19.02 1548.8,-18.4654"/>
<polygon fill="midnightblue" stroke="midnightblue" points="1135.28,-58.4253 1125.57,-62.6654 1135.81,-65.4056 1135.28,-58.4253"/>
</g>
<!-- Node26&#45;&gt;Node19 -->
<g id="edge41" class="edge"><title>Node26&#45;&gt;Node19</title>
<path fill="none" stroke="midnightblue" d="M1135.63,-61.877C1227.04,-55.0884 1448.62,-38.1337 1634,-20 1637.06,-19.7007 1640.19,-19.3863 1643.34,-19.0617"/>
<polygon fill="midnightblue" stroke="midnightblue" points="1135.37,-58.3869 1125.66,-62.616 1135.89,-65.3677 1135.37,-58.3869"/>
</g>
<!-- Node26&#45;&gt;Node20 -->
<g id="edge42" class="edge"><title>Node26&#45;&gt;Node20</title>
<path fill="none" stroke="midnightblue" d="M1135.85,-63.6244C1245.48,-59.8064 1544.96,-47.495 1793,-20 1796.19,-19.6468 1799.47,-19.2413 1802.77,-18.802"/>
<polygon fill="midnightblue" stroke="midnightblue" points="1135.41,-60.1372 1125.54,-63.9778 1135.65,-67.1331 1135.41,-60.1372"/>
</g>
<!-- Node26&#45;&gt;Node21 -->
<g id="edge43" class="edge"><title>Node26&#45;&gt;Node21</title>
<path fill="none" stroke="midnightblue" d="M1135.92,-63.7223C1257.11,-59.8778 1612.21,-46.9811 1906,-20 1908.93,-19.7311 1911.92,-19.4335 1914.95,-19.1149"/>
<polygon fill="midnightblue" stroke="midnightblue" points="1135.48,-60.2343 1125.59,-64.0458 1135.7,-67.2309 1135.48,-60.2343"/>
</g>
<!-- Node26&#45;&gt;Node23 -->
<g id="edge44" class="edge"><title>Node26&#45;&gt;Node23</title>
<path fill="none" stroke="midnightblue" d="M1135.82,-63.8851C1296.86,-59.5512 1866.13,-42.922 2046,-20 2049.03,-19.6143 2052.16,-19.1295 2055.28,-18.5858"/>
<polygon fill="midnightblue" stroke="midnightblue" points="1135.71,-60.3866 1125.81,-64.1528 1135.9,-67.3841 1135.71,-60.3866"/>
</g>
<!-- Node26&#45;&gt;Node25 -->
<g id="edge45" class="edge"><title>Node26&#45;&gt;Node25</title>
<path fill="none" stroke="midnightblue" d="M1135.63,-63.7976C1305.3,-58.9117 1933.01,-39.8581 2131,-20 2134.09,-19.6901 2137.27,-19.3232 2140.47,-18.9178"/>
<polygon fill="midnightblue" stroke="midnightblue" points="1135.48,-60.3004 1125.58,-64.0857 1135.68,-67.2975 1135.48,-60.3004"/>
</g>
</g>
</svg>
