<?xml version="1.0" encoding="UTF-8" standalone="no"?>
<!DOCTYPE svg PUBLIC "-//W3C//DTD SVG 1.1//EN"
 "http://www.w3.org/Graphics/SVG/1.1/DTD/svg11.dtd">
<!-- Generated by graphviz version 2.36.0 (20140111.2315)
 -->
<!-- Title: vcs_util.cpp Pages: 1 -->
<svg width="470pt" height="252pt"
 viewBox="0.00 0.00 470.00 252.00" xmlns="http://www.w3.org/2000/svg" xmlns:xlink="http://www.w3.org/1999/xlink">
<g id="graph0" class="graph" transform="scale(1 1) rotate(0) translate(4 248)">
<title>vcs_util.cpp</title>
<polygon fill="white" stroke="none" points="-4,4 -4,-248 466,-248 466,4 -4,4"/>
<!-- Node1 -->
<g id="node1" class="node"><title>Node1</title>
<polygon fill="#bfbfbf" stroke="black" points="143.5,-224.5 143.5,-243.5 210.5,-243.5 210.5,-224.5 143.5,-224.5"/>
<text text-anchor="middle" x="177" y="-231.5" font-family="FreeSans" font-size="10.00">vcs_util.cpp</text>
</g>
<!-- Node2 -->
<g id="node2" class="node"><title>Node2</title>
<g id="a_node2"><a xlink:href="vcs__internal_8h.html" target="_top" xlink:title="Internal declarations for the VCSnonideal package. ">
<polygon fill="white" stroke="black" points="56,-168.5 56,-187.5 190,-187.5 190,-168.5 56,-168.5"/>
<text text-anchor="middle" x="123" y="-175.5" font-family="FreeSans" font-size="10.00">cantera/equil/vcs_internal.h</text>
</a>
</g>
</g>
<!-- Node1&#45;&gt;Node2 -->
<g id="edge1" class="edge"><title>Node1&#45;&gt;Node2</title>
<path fill="none" stroke="midnightblue" d="M168.083,-224.083C160.22,-216.22 148.569,-204.569 139.081,-195.081"/>
<polygon fill="midnightblue" stroke="midnightblue" points="141.297,-192.347 131.751,-187.751 136.347,-197.297 141.297,-192.347"/>
</g>
<!-- Node14 -->
<g id="node14" class="node"><title>Node14</title>
<polygon fill="white" stroke="#bfbfbf" points="208.5,-168.5 208.5,-187.5 255.5,-187.5 255.5,-168.5 208.5,-168.5"/>
<text text-anchor="middle" x="232" y="-175.5" font-family="FreeSans" font-size="10.00">cassert</text>
</g>
<!-- Node1&#45;&gt;Node14 -->
<g id="edge13" class="edge"><title>Node1&#45;&gt;Node14</title>
<path fill="none" stroke="midnightblue" d="M186.082,-224.083C194.171,-216.141 206.195,-204.335 215.91,-194.797"/>
<polygon fill="midnightblue" stroke="midnightblue" points="218.403,-197.254 223.087,-187.751 213.499,-192.26 218.403,-197.254"/>
</g>
<!-- Node3 -->
<g id="node3" class="node"><title>Node3</title>
<polygon fill="white" stroke="#bfbfbf" points="-0.5,-112.5 -0.5,-131.5 44.5,-131.5 44.5,-112.5 -0.5,-112.5"/>
<text text-anchor="middle" x="22" y="-119.5" font-family="FreeSans" font-size="10.00">cstring</text>
</g>
<!-- Node2&#45;&gt;Node3 -->
<g id="edge2" class="edge"><title>Node2&#45;&gt;Node3</title>
<path fill="none" stroke="midnightblue" d="M106.773,-168.324C90.649,-159.703 65.6998,-146.364 47.0359,-136.386"/>
<polygon fill="midnightblue" stroke="midnightblue" points="48.6561,-133.283 38.1871,-131.655 45.3556,-139.456 48.6561,-133.283"/>
</g>
<!-- Node4 -->
<g id="node4" class="node"><title>Node4</title>
<g id="a_node4"><a xlink:href="vcs__defs_8h.html" target="_top" xlink:title="Defines and definitions within the vcs package. ">
<polygon fill="white" stroke="black" points="63,-112.5 63,-131.5 183,-131.5 183,-112.5 63,-112.5"/>
<text text-anchor="middle" x="123" y="-119.5" font-family="FreeSans" font-size="10.00">cantera/equil/vcs_defs.h</text>
</a>
</g>
</g>
<!-- Node2&#45;&gt;Node4 -->
<g id="edge3" class="edge"><title>Node2&#45;&gt;Node4</title>
<path fill="none" stroke="midnightblue" d="M123,-168.083C123,-161.006 123,-150.861 123,-141.986"/>
<polygon fill="midnightblue" stroke="midnightblue" points="126.5,-141.751 123,-131.751 119.5,-141.751 126.5,-141.751"/>
</g>
<!-- Node5 -->
<g id="node5" class="node"><title>Node5</title>
<g id="a_node5"><a xlink:href="global_8h.html" target="_top" xlink:title="This file contains definitions for utility functions and text for modules, inputfiles, logs, textlogs, HTML_logs (see Input File Handling, Diagnostic Output, Writing messages to the screen and Writing HTML Logfiles). ">
<polygon fill="white" stroke="black" points="201,-112.5 201,-131.5 309,-131.5 309,-112.5 201,-112.5"/>
<text text-anchor="middle" x="255" y="-119.5" font-family="FreeSans" font-size="10.00">cantera/base/global.h</text>
</a>
</g>
</g>
<!-- Node2&#45;&gt;Node5 -->
<g id="edge4" class="edge"><title>Node2&#45;&gt;Node5</title>
<path fill="none" stroke="midnightblue" d="M143.916,-168.444C165.736,-159.517 200.15,-145.439 224.892,-135.317"/>
<polygon fill="midnightblue" stroke="midnightblue" points="226.252,-138.542 234.182,-131.516 223.601,-132.063 226.252,-138.542"/>
</g>
<!-- Node6 -->
<g id="node6" class="node"><title>Node6</title>
<g id="a_node6"><a xlink:href="ct__defs_8h.html" target="_top" xlink:title="This file contains definitions of terms that are used in internal routines and are unlikely to need m...">
<polygon fill="white" stroke="black" points="227,-56.5 227,-75.5 283,-75.5 283,-56.5 227,-56.5"/>
<text text-anchor="middle" x="255" y="-63.5" font-family="FreeSans" font-size="10.00">ct_defs.h</text>
</a>
</g>
</g>
<!-- Node5&#45;&gt;Node6 -->
<g id="edge5" class="edge"><title>Node5&#45;&gt;Node6</title>
<path fill="none" stroke="midnightblue" d="M255,-112.083C255,-105.006 255,-94.8611 255,-85.9865"/>
<polygon fill="midnightblue" stroke="midnightblue" points="258.5,-85.751 255,-75.7511 251.5,-85.7511 258.5,-85.751"/>
</g>
<!-- Node7 -->
<g id="node7" class="node"><title>Node7</title>
<g id="a_node7"><a xlink:href="config_8h_source.html" target="_top" xlink:title="config.h">
<polygon fill="white" stroke="black" points="41,-0.5 41,-19.5 91,-19.5 91,-0.5 41,-0.5"/>
<text text-anchor="middle" x="66" y="-7.5" font-family="FreeSans" font-size="10.00">config.h</text>
</a>
</g>
</g>
<!-- Node6&#45;&gt;Node7 -->
<g id="edge6" class="edge"><title>Node6&#45;&gt;Node7</title>
<path fill="none" stroke="midnightblue" d="M226.705,-56.9157C193.101,-47.3146 137.052,-31.3006 100.819,-20.9482"/>
<polygon fill="midnightblue" stroke="midnightblue" points="101.736,-17.5704 91.1595,-18.1884 99.8132,-24.3011 101.736,-17.5704"/>
</g>
<!-- Node8 -->
<g id="node8" class="node"><title>Node8</title>
<polygon fill="white" stroke="#bfbfbf" points="109,-0.5 109,-19.5 153,-19.5 153,-0.5 109,-0.5"/>
<text text-anchor="middle" x="131" y="-7.5" font-family="FreeSans" font-size="10.00">cmath</text>
</g>
<!-- Node6&#45;&gt;Node8 -->
<g id="edge7" class="edge"><title>Node6&#45;&gt;Node8</title>
<path fill="none" stroke="midnightblue" d="M235.352,-56.4435C215.035,-47.5961 183.097,-33.6875 159.902,-23.5865"/>
<polygon fill="midnightblue" stroke="midnightblue" points="161.122,-20.3002 150.556,-19.5164 158.327,-26.7181 161.122,-20.3002"/>
</g>
<!-- Node9 -->
<g id="node9" class="node"><title>Node9</title>
<polygon fill="white" stroke="#bfbfbf" points="171,-0.5 171,-19.5 215,-19.5 215,-0.5 171,-0.5"/>
<text text-anchor="middle" x="193" y="-7.5" font-family="FreeSans" font-size="10.00">cstdlib</text>
</g>
<!-- Node6&#45;&gt;Node9 -->
<g id="edge8" class="edge"><title>Node6&#45;&gt;Node9</title>
<path fill="none" stroke="midnightblue" d="M245.039,-56.324C235.873,-48.3414 222.063,-36.3128 210.972,-26.6529"/>
<polygon fill="midnightblue" stroke="midnightblue" points="212.982,-23.7624 203.143,-19.8339 208.385,-29.041 212.982,-23.7624"/>
</g>
<!-- Node10 -->
<g id="node10" class="node"><title>Node10</title>
<polygon fill="white" stroke="#bfbfbf" points="233.5,-0.5 233.5,-19.5 276.5,-19.5 276.5,-0.5 233.5,-0.5"/>
<text text-anchor="middle" x="255" y="-7.5" font-family="FreeSans" font-size="10.00">vector</text>
</g>
<!-- Node6&#45;&gt;Node10 -->
<g id="edge9" class="edge"><title>Node6&#45;&gt;Node10</title>
<path fill="none" stroke="midnightblue" d="M255,-56.083C255,-49.0059 255,-38.8611 255,-29.9865"/>
<polygon fill="midnightblue" stroke="midnightblue" points="258.5,-29.751 255,-19.7511 251.5,-29.7511 258.5,-29.751"/>
</g>
<!-- Node11 -->
<g id="node11" class="node"><title>Node11</title>
<polygon fill="white" stroke="#bfbfbf" points="294.5,-0.5 294.5,-19.5 329.5,-19.5 329.5,-0.5 294.5,-0.5"/>
<text text-anchor="middle" x="312" y="-7.5" font-family="FreeSans" font-size="10.00">map</text>
</g>
<!-- Node6&#45;&gt;Node11 -->
<g id="edge10" class="edge"><title>Node6&#45;&gt;Node11</title>
<path fill="none" stroke="midnightblue" d="M264.158,-56.324C272.501,-48.4196 285.032,-36.5482 295.177,-26.9377"/>
<polygon fill="midnightblue" stroke="midnightblue" points="297.823,-29.2522 302.675,-19.8339 293.009,-24.1705 297.823,-29.2522"/>
</g>
<!-- Node12 -->
<g id="node12" class="node"><title>Node12</title>
<polygon fill="white" stroke="#bfbfbf" points="348,-0.5 348,-19.5 388,-19.5 388,-0.5 348,-0.5"/>
<text text-anchor="middle" x="368" y="-7.5" font-family="FreeSans" font-size="10.00">string</text>
</g>
<!-- Node6&#45;&gt;Node12 -->
<g id="edge11" class="edge"><title>Node6&#45;&gt;Node12</title>
<path fill="none" stroke="midnightblue" d="M272.905,-56.4435C291.254,-47.6751 320.005,-33.9355 341.094,-23.8579"/>
<polygon fill="midnightblue" stroke="midnightblue" points="342.665,-26.9862 350.179,-19.5164 339.647,-20.6703 342.665,-26.9862"/>
</g>
<!-- Node13 -->
<g id="node13" class="node"><title>Node13</title>
<polygon fill="white" stroke="#bfbfbf" points="406,-0.5 406,-19.5 462,-19.5 462,-0.5 406,-0.5"/>
<text text-anchor="middle" x="434" y="-7.5" font-family="FreeSans" font-size="10.00">algorithm</text>
</g>
<!-- Node6&#45;&gt;Node13 -->
<g id="edge12" class="edge"><title>Node6&#45;&gt;Node13</title>
<path fill="none" stroke="midnightblue" d="M283.363,-56.4435C313.738,-47.2801 362.11,-32.6876 395.816,-22.5192"/>
<polygon fill="midnightblue" stroke="midnightblue" points="397.207,-25.7555 405.77,-19.5164 395.185,-19.0538 397.207,-25.7555"/>
</g>
</g>
</svg>
