<?xml version="1.0" encoding="UTF-8" standalone="no"?>
<!DOCTYPE svg PUBLIC "-//W3C//DTD SVG 1.1//EN"
 "http://www.w3.org/Graphics/SVG/1.1/DTD/svg11.dtd">
<!-- Generated by graphviz version 2.40.1 (20161225.0304)
 -->
<!-- Title: IonsFromNeutralVPSSTP.h Pages: 1 -->
<svg width="729pt" height="84pt"
 viewBox="0.00 0.00 729.00 84.00" xmlns="http://www.w3.org/2000/svg" xmlns:xlink="http://www.w3.org/1999/xlink">
<g id="graph0" class="graph" transform="scale(1 1) rotate(0) translate(4 80)">
<title>IonsFromNeutralVPSSTP.h</title>
<polygon fill="#ffffff" stroke="transparent" points="-4,4 -4,-80 725,-80 725,4 -4,4"/>
<!-- Node39 -->
<g id="node1" class="node">
<title>Node39</title>
<polygon fill="#bfbfbf" stroke="#000000" points="310,-56.5 310,-75.5 449,-75.5 449,-56.5 310,-56.5"/>
<text text-anchor="middle" x="379.5" y="-63.5" font-family="Helvetica,sans-Serif" font-size="10.00" fill="#000000">IonsFromNeutralVPSSTP.h</text>
</g>
<!-- Node40 -->
<g id="node2" class="node">
<title>Node40</title>
<g id="a_node2"><a xlink:href="../../db/dcc/IonsFromNeutralVPSSTP_8cpp.html" target="_top" xlink:title="Definitions for the object which treats ionic liquids as made of ions as species even though the ther...">
<polygon fill="#ffffff" stroke="#000000" points="0,-.5 0,-19.5 149,-19.5 149,-.5 0,-.5"/>
<text text-anchor="middle" x="74.5" y="-7.5" font-family="Helvetica,sans-Serif" font-size="10.00" fill="#000000">IonsFromNeutralVPSSTP.cpp</text>
</a>
</g>
</g>
<!-- Node39&#45;&gt;Node40 -->
<g id="edge1" class="edge">
<title>Node39&#45;&gt;Node40</title>
<path fill="none" stroke="#191970" d="M317.572,-54.6296C261.3107,-44.2997 179.2572,-29.2341 126.37,-19.5237"/>
<polygon fill="#191970" stroke="#191970" points="316.9475,-58.0734 327.4152,-56.4369 318.2117,-51.1885 316.9475,-58.0734"/>
</g>
<!-- Node41 -->
<g id="node3" class="node">
<title>Node41</title>
<g id="a_node3"><a xlink:href="../../dc/dc2/PDSS__IonsFromNeutral_8cpp.html" target="_top" xlink:title="Implementation of a pressure dependent standard state virtual function. ">
<polygon fill="#ffffff" stroke="#000000" points="167,-.5 167,-19.5 310,-19.5 310,-.5 167,-.5"/>
<text text-anchor="middle" x="238.5" y="-7.5" font-family="Helvetica,sans-Serif" font-size="10.00" fill="#000000">PDSS_IonsFromNeutral.cpp</text>
</a>
</g>
</g>
<!-- Node39&#45;&gt;Node41 -->
<g id="edge2" class="edge">
<title>Node39&#45;&gt;Node41</title>
<path fill="none" stroke="#191970" d="M345.8968,-52.6541C320.1841,-42.4419 285.3539,-28.6086 262.4225,-19.5011"/>
<polygon fill="#191970" stroke="#191970" points="344.6755,-55.9349 355.2612,-56.3733 347.2593,-49.4292 344.6755,-55.9349"/>
</g>
<!-- Node42 -->
<g id="node4" class="node">
<title>Node42</title>
<g id="a_node4"><a xlink:href="../../d2/d3a/ThermoFactory_8cpp.html" target="_top" xlink:title="Definitions for the factory class that can create known ThermoPhase objects (see Thermodynamic Proper...">
<polygon fill="#ffffff" stroke="#000000" points="328,-.5 328,-19.5 431,-19.5 431,-.5 328,-.5"/>
<text text-anchor="middle" x="379.5" y="-7.5" font-family="Helvetica,sans-Serif" font-size="10.00" fill="#000000">ThermoFactory.cpp</text>
</a>
</g>
</g>
<!-- Node39&#45;&gt;Node42 -->
<g id="edge3" class="edge">
<title>Node39&#45;&gt;Node42</title>
<path fill="none" stroke="#191970" d="M379.5,-46.1575C379.5,-37.155 379.5,-26.9199 379.5,-19.6427"/>
<polygon fill="#191970" stroke="#191970" points="376.0001,-46.2455 379.5,-56.2455 383.0001,-46.2456 376.0001,-46.2455"/>
</g>
<!-- Node43 -->
<g id="node5" class="node">
<title>Node43</title>
<g id="a_node5"><a xlink:href="../../d9/da4/VPStandardStateTP_8cpp.html" target="_top" xlink:title="Definition file for a derived class of ThermoPhase that handles variable pressure standard state meth...">
<polygon fill="#ffffff" stroke="#000000" points="449,-.5 449,-19.5 574,-19.5 574,-.5 449,-.5"/>
<text text-anchor="middle" x="511.5" y="-7.5" font-family="Helvetica,sans-Serif" font-size="10.00" fill="#000000">VPStandardStateTP.cpp</text>
</a>
</g>
</g>
<!-- Node39&#45;&gt;Node43 -->
<g id="edge4" class="edge">
<title>Node39&#45;&gt;Node43</title>
<path fill="none" stroke="#191970" d="M411.5965,-52.3833C435.6035,-42.1985 467.8259,-28.5284 489.1045,-19.5011"/>
<polygon fill="#191970" stroke="#191970" points="410.0305,-49.2457 402.1916,-56.3733 412.7644,-55.6897 410.0305,-49.2457"/>
</g>
<!-- Node44 -->
<g id="node6" class="node">
<title>Node44</title>
<g id="a_node6"><a xlink:href="../../da/de5/LiquidTranInteraction_8cpp.html" target="_top" xlink:title="Source code for liquid mixture transport property evaluations. ">
<polygon fill="#ffffff" stroke="#000000" points="592,-.5 592,-19.5 721,-19.5 721,-.5 592,-.5"/>
<text text-anchor="middle" x="656.5" y="-7.5" font-family="Helvetica,sans-Serif" font-size="10.00" fill="#000000">LiquidTranInteraction.cpp</text>
</a>
</g>
</g>
<!-- Node39&#45;&gt;Node44 -->
<g id="edge5" class="edge">
<title>Node39&#45;&gt;Node44</title>
<path fill="none" stroke="#191970" d="M436.6976,-54.4366C487.7639,-44.1127 561.6582,-29.1738 609.3918,-19.5237"/>
<polygon fill="#191970" stroke="#191970" points="435.9114,-51.0246 426.8033,-56.4369 437.2985,-57.8858 435.9114,-51.0246"/>
</g>
</g>
</svg>
