<?xml version="1.0" encoding="UTF-8" standalone="no"?>
<!DOCTYPE svg PUBLIC "-//W3C//DTD SVG 1.1//EN"
 "http://www.w3.org/Graphics/SVG/1.1/DTD/svg11.dtd">
<!-- Generated by graphviz version 2.43.0 (0)
 -->
<!-- Title: DebyeHuckel.h Pages: 1 -->
<svg width="236pt" height="84pt"
 viewBox="0.00 0.00 235.50 84.00" xmlns="http://www.w3.org/2000/svg" xmlns:xlink="http://www.w3.org/1999/xlink">
<g id="graph0" class="graph" transform="scale(1 1) rotate(0) translate(4 80)">
<title>DebyeHuckel.h</title>
<polygon fill="white" stroke="transparent" points="-4,4 -4,-80 231.5,-80 231.5,4 -4,4"/>
<!-- Node1 -->
<g id="node1" class="node">
<title>Node1</title>
<g id="a_node1"><a xlink:title="Headers for the DebyeHuckel ThermoPhase object, which models dilute electrolyte solutions (see Thermo...">
<polygon fill="#bfbfbf" stroke="black" points="66.5,-56.5 66.5,-75.5 156.5,-75.5 156.5,-56.5 66.5,-56.5"/>
<text text-anchor="middle" x="111.5" y="-63.5" font-family="Helvetica,sans-Serif" font-size="10.00">DebyeHuckel.h</text>
</a>
</g>
</g>
<!-- Node2 -->
<g id="node2" class="node">
<title>Node2</title>
<g id="a_node2"><a xlink:href="../../dc/ddc/DebyeHuckel_8cpp.html" target="_top" xlink:title="Declarations for the DebyeHuckel ThermoPhase object, which models dilute electrolyte solutions (see T...">
<polygon fill="white" stroke="black" points="0,-0.5 0,-19.5 101,-19.5 101,-0.5 0,-0.5"/>
<text text-anchor="middle" x="50.5" y="-7.5" font-family="Helvetica,sans-Serif" font-size="10.00">DebyeHuckel.cpp</text>
</a>
</g>
</g>
<!-- Node1&#45;&gt;Node2 -->
<g id="edge1" class="edge">
<title>Node1&#45;&gt;Node2</title>
<path fill="none" stroke="midnightblue" d="M94.03,-49.54C83.16,-39.91 69.56,-27.87 60.48,-19.83"/>
<polygon fill="midnightblue" stroke="midnightblue" points="91.89,-52.32 101.7,-56.32 96.53,-47.07 91.89,-52.32"/>
</g>
<!-- Node3 -->
<g id="node3" class="node">
<title>Node3</title>
<g id="a_node3"><a xlink:href="../../d2/d3a/ThermoFactory_8cpp.html" target="_top" xlink:title="Definitions for the factory class that can create known ThermoPhase objects (see Thermodynamic Proper...">
<polygon fill="white" stroke="black" points="119.5,-0.5 119.5,-19.5 227.5,-19.5 227.5,-0.5 119.5,-0.5"/>
<text text-anchor="middle" x="173.5" y="-7.5" font-family="Helvetica,sans-Serif" font-size="10.00">ThermoFactory.cpp</text>
</a>
</g>
</g>
<!-- Node1&#45;&gt;Node3 -->
<g id="edge2" class="edge">
<title>Node1&#45;&gt;Node3</title>
<path fill="none" stroke="midnightblue" d="M129.25,-49.54C140.31,-39.91 154.13,-27.87 163.36,-19.83"/>
<polygon fill="midnightblue" stroke="midnightblue" points="126.7,-47.12 121.46,-56.32 131.3,-52.4 126.7,-47.12"/>
</g>
</g>
</svg>
