<?xml version="1.0" encoding="UTF-8" standalone="no"?>
<!DOCTYPE svg PUBLIC "-//W3C//DTD SVG 1.1//EN"
 "http://www.w3.org/Graphics/SVG/1.1/DTD/svg11.dtd">
<!-- Generated by graphviz version 2.40.1 (20161225.0304)
 -->
<!-- Title: DebyeHuckel.cpp Pages: 1 -->
<svg width="1249pt" height="498pt"
 viewBox="0.00 0.00 1249.00 498.00" xmlns="http://www.w3.org/2000/svg" xmlns:xlink="http://www.w3.org/1999/xlink">
<g id="graph0" class="graph" transform="scale(1 1) rotate(0) translate(4 494)">
<title>DebyeHuckel.cpp</title>
<polygon fill="#ffffff" stroke="transparent" points="-4,4 -4,-494 1245,-494 1245,4 -4,4"/>
<!-- Node0 -->
<g id="node1" class="node">
<title>Node0</title>
<polygon fill="#bfbfbf" stroke="#000000" points="812,-470.5 812,-489.5 907,-489.5 907,-470.5 812,-470.5"/>
<text text-anchor="middle" x="859.5" y="-477.5" font-family="Helvetica,sans-Serif" font-size="10.00" fill="#000000">DebyeHuckel.cpp</text>
</g>
<!-- Node1 -->
<g id="node2" class="node">
<title>Node1</title>
<g id="a_node2"><a xlink:href="../../de/dd9/DebyeHuckel_8h.html" target="_top" xlink:title="Headers for the DebyeHuckel ThermoPhase object, which models dilute electrolyte solutions (see Thermo...">
<polygon fill="#ffffff" stroke="#000000" points="720.5,-414.5 720.5,-433.5 874.5,-433.5 874.5,-414.5 720.5,-414.5"/>
<text text-anchor="middle" x="797.5" y="-421.5" font-family="Helvetica,sans-Serif" font-size="10.00" fill="#000000">cantera/thermo/DebyeHuckel.h</text>
</a>
</g>
</g>
<!-- Node0&#45;&gt;Node1 -->
<g id="edge1" class="edge">
<title>Node0&#45;&gt;Node1</title>
<path fill="none" stroke="#191970" d="M848.7004,-470.2455C839.6322,-462.0549 826.4794,-450.1749 815.7755,-440.5069"/>
<polygon fill="#191970" stroke="#191970" points="817.9429,-437.7482 808.1758,-433.6427 813.2509,-442.9429 817.9429,-437.7482"/>
</g>
<!-- Node40 -->
<g id="node19" class="node">
<title>Node40</title>
<g id="a_node19"><a xlink:href="../../dc/d8e/ThermoFactory_8h.html" target="_top" xlink:title="Headers for the factory class that can create known ThermoPhase objects (see Thermodynamic Properties...">
<polygon fill="#ffffff" stroke="#000000" points="485,-286 485,-305 648,-305 648,-286 485,-286"/>
<text text-anchor="middle" x="566.5" y="-293" font-family="Helvetica,sans-Serif" font-size="10.00" fill="#000000">cantera/thermo/ThermoFactory.h</text>
</a>
</g>
</g>
<!-- Node0&#45;&gt;Node40 -->
<g id="edge22" class="edge">
<title>Node0&#45;&gt;Node40</title>
<path fill="none" stroke="#191970" d="M811.871,-471.0753C781.6673,-464.0327 742.5739,-452.2865 711.5,-434 655.4892,-401.0385 604.0586,-342.4965 580.3146,-313.2121"/>
<polygon fill="#191970" stroke="#191970" points="582.8334,-310.7572 573.8602,-305.1239 577.3619,-315.1233 582.8334,-310.7572"/>
</g>
<!-- Node45 -->
<g id="node26" class="node">
<title>Node45</title>
<g id="a_node26"><a xlink:href="../../d8/d6d/PDSS__Water_8h.html" target="_top" xlink:title="Implementation of a pressure dependent standard state virtual function for a Pure Water Phase (see Sp...">
<polygon fill="#ffffff" stroke="#000000" points="964.5,-280.5 964.5,-310.5 1078.5,-310.5 1078.5,-280.5 964.5,-280.5"/>
<text text-anchor="start" x="972.5" y="-298.5" font-family="Helvetica,sans-Serif" font-size="10.00" fill="#000000">cantera/thermo/PDSS</text>
<text text-anchor="middle" x="1021.5" y="-287.5" font-family="Helvetica,sans-Serif" font-size="10.00" fill="#000000">_Water.h</text>
</a>
</g>
</g>
<!-- Node0&#45;&gt;Node45 -->
<g id="edge35" class="edge">
<title>Node0&#45;&gt;Node45</title>
<path fill="none" stroke="#191970" d="M876.7261,-470.2521C903.7073,-454.2044 956.0907,-419.7975 987.5,-378 1000.4477,-360.77 1009.3641,-337.9015 1014.8069,-320.6119"/>
<polygon fill="#191970" stroke="#191970" points="1018.2681,-321.2502 1017.7518,-310.6679 1011.5562,-319.2624 1018.2681,-321.2502"/>
</g>
<!-- Node49 -->
<g id="node30" class="node">
<title>Node49</title>
<g id="a_node30"><a xlink:href="../../d1/d0f/PDSS__ConstVol_8h.html" target="_top" xlink:title="Declarations for the class PDSS_ConstVol (pressure dependent standard state) which handles calculatio...">
<polygon fill="#ffffff" stroke="#000000" points="864.5,-347.5 864.5,-377.5 978.5,-377.5 978.5,-347.5 864.5,-347.5"/>
<text text-anchor="start" x="872.5" y="-365.5" font-family="Helvetica,sans-Serif" font-size="10.00" fill="#000000">cantera/thermo/PDSS</text>
<text text-anchor="middle" x="921.5" y="-354.5" font-family="Helvetica,sans-Serif" font-size="10.00" fill="#000000">_ConstVol.h</text>
</a>
</g>
</g>
<!-- Node0&#45;&gt;Node49 -->
<g id="edge42" class="edge">
<title>Node0&#45;&gt;Node49</title>
<path fill="none" stroke="#191970" d="M864.5737,-470.3845C874.1135,-452.3051 894.9893,-412.742 908.6349,-386.8814"/>
<polygon fill="#191970" stroke="#191970" points="911.9007,-388.192 913.472,-377.7143 905.7097,-384.9252 911.9007,-388.192"/>
</g>
<!-- Node50 -->
<g id="node31" class="node">
<title>Node50</title>
<g id="a_node31"><a xlink:href="../../de/d07/electrolytes_8h.html" target="_top" xlink:title="Header file for a common definitions used in electrolytes thermodynamics. ">
<polygon fill="#ffffff" stroke="#000000" points="1035,-414.5 1035,-433.5 1180,-433.5 1180,-414.5 1035,-414.5"/>
<text text-anchor="middle" x="1107.5" y="-421.5" font-family="Helvetica,sans-Serif" font-size="10.00" fill="#000000">cantera/thermo/electrolytes.h</text>
</a>
</g>
</g>
<!-- Node0&#45;&gt;Node50 -->
<g id="edge44" class="edge">
<title>Node0&#45;&gt;Node50</title>
<path fill="none" stroke="#191970" d="M901.8509,-470.4369C944.2942,-460.8529 1009.7119,-446.0812 1055.3313,-435.78"/>
<polygon fill="#191970" stroke="#191970" points="1056.3403,-439.1404 1065.3237,-433.5237 1054.7984,-432.3123 1056.3403,-439.1404"/>
</g>
<!-- Node51 -->
<g id="node32" class="node">
<title>Node51</title>
<g id="a_node32"><a xlink:href="../../dd/dc3/stringUtils_8h.html" target="_top" xlink:title="Contains declarations for string manipulation functions within Cantera. ">
<polygon fill="#ffffff" stroke="#000000" points="0,-168.5 0,-187.5 129,-187.5 129,-168.5 0,-168.5"/>
<text text-anchor="middle" x="64.5" y="-175.5" font-family="Helvetica,sans-Serif" font-size="10.00" fill="#000000">cantera/base/stringUtils.h</text>
</a>
</g>
</g>
<!-- Node0&#45;&gt;Node51 -->
<g id="edge45" class="edge">
<title>Node0&#45;&gt;Node51</title>
<path fill="none" stroke="#191970" d="M811.8105,-477.753C644.2408,-469.2321 92.5,-435.624 92.5,-362.5 92.5,-362.5 92.5,-362.5 92.5,-295.5 92.5,-260.0173 80.2681,-220.1087 71.9736,-197.1256"/>
<polygon fill="#191970" stroke="#191970" points="75.1779,-195.702 68.3933,-187.5644 68.6224,-198.1568 75.1779,-195.702"/>
</g>
<!-- Node52 -->
<g id="node33" class="node">
<title>Node52</title>
<g id="a_node33"><a xlink:href="../../dc/deb/ctml_8h.html" target="_top" xlink:title="CTML (&quot;Cantera Markup Language&quot;) is the variant of XML that Cantera uses to store data...">
<polygon fill="#ffffff" stroke="#000000" points="362.5,-286 362.5,-305 466.5,-305 466.5,-286 362.5,-286"/>
<text text-anchor="middle" x="414.5" y="-293" font-family="Helvetica,sans-Serif" font-size="10.00" fill="#000000">cantera/base/ctml.h</text>
</a>
</g>
</g>
<!-- Node0&#45;&gt;Node52 -->
<g id="edge49" class="edge">
<title>Node0&#45;&gt;Node52</title>
<path fill="none" stroke="#191970" d="M811.6826,-471.0449C774.6361,-463.3485 722.3987,-450.8256 678.5,-434 585.7783,-398.4614 483.7596,-338.4026 438.4551,-310.5358"/>
<polygon fill="#191970" stroke="#191970" points="440.017,-307.3864 429.6722,-305.0984 436.3323,-313.3381 440.017,-307.3864"/>
</g>
<!-- Node53 -->
<g id="node34" class="node">
<title>Node53</title>
<polygon fill="#ffffff" stroke="#bfbfbf" points="1198,-414.5 1198,-433.5 1241,-433.5 1241,-414.5 1198,-414.5"/>
<text text-anchor="middle" x="1219.5" y="-421.5" font-family="Helvetica,sans-Serif" font-size="10.00" fill="#000000">cstdio</text>
</g>
<!-- Node0&#45;&gt;Node53 -->
<g id="edge52" class="edge">
<title>Node0&#45;&gt;Node53</title>
<path fill="none" stroke="#191970" d="M907.2732,-476.1094C969.9515,-470.3975 1083.3846,-457.9719 1187.9159,-434.0614"/>
<polygon fill="#191970" stroke="#191970" points="1188.7323,-437.465 1197.678,-431.7883 1187.1448,-430.6473 1188.7323,-437.465"/>
</g>
<!-- Node2 -->
<g id="node3" class="node">
<title>Node2</title>
<g id="a_node3"><a xlink:href="../../d1/d24/MolalityVPSSTP_8h.html" target="_top" xlink:title="Header for intermediate ThermoPhase object for phases which employ molality based activity coefficien...">
<polygon fill="#ffffff" stroke="#000000" points="748.5,-353 748.5,-372 846.5,-372 846.5,-353 748.5,-353"/>
<text text-anchor="middle" x="797.5" y="-360" font-family="Helvetica,sans-Serif" font-size="10.00" fill="#000000">MolalityVPSSTP.h</text>
</a>
</g>
</g>
<!-- Node1&#45;&gt;Node2 -->
<g id="edge2" class="edge">
<title>Node1&#45;&gt;Node2</title>
<path fill="none" stroke="#191970" d="M797.5,-414.3906C797.5,-405.8657 797.5,-393.1392 797.5,-382.4235"/>
<polygon fill="#191970" stroke="#191970" points="801.0001,-382.2448 797.5,-372.2449 794.0001,-382.2449 801.0001,-382.2448"/>
</g>
<!-- Node34 -->
<g id="node13" class="node">
<title>Node34</title>
<g id="a_node13"><a xlink:href="../../df/dd0/Array_8h.html" target="_top" xlink:title="Header file for class Cantera::Array2D. ">
<polygon fill="#ffffff" stroke="#000000" points="666,-286 666,-305 775,-305 775,-286 666,-286"/>
<text text-anchor="middle" x="720.5" y="-293" font-family="Helvetica,sans-Serif" font-size="10.00" fill="#000000">cantera/base/Array.h</text>
</a>
</g>
</g>
<!-- Node1&#45;&gt;Node34 -->
<g id="edge14" class="edge">
<title>Node1&#45;&gt;Node34</title>
<path fill="none" stroke="#191970" d="M779.8559,-414.4416C766.7368,-406.4209 749.4511,-393.7559 739.5,-378 727.4031,-358.8466 722.9853,-332.8515 721.3849,-315.1959"/>
<polygon fill="#191970" stroke="#191970" points="724.8744,-314.9218 720.6981,-305.1848 717.8908,-315.4009 724.8744,-314.9218"/>
</g>
<!-- Node3 -->
<g id="node4" class="node">
<title>Node3</title>
<g id="a_node4"><a xlink:href="../../df/dfd/VPStandardStateTP_8h.html" target="_top" xlink:title="Header file for a derived class of ThermoPhase that handles variable pressure standard state methods ...">
<polygon fill="#ffffff" stroke="#000000" points="793,-286 793,-305 908,-305 908,-286 793,-286"/>
<text text-anchor="middle" x="850.5" y="-293" font-family="Helvetica,sans-Serif" font-size="10.00" fill="#000000">VPStandardStateTP.h</text>
</a>
</g>
</g>
<!-- Node2&#45;&gt;Node3 -->
<g id="edge3" class="edge">
<title>Node2&#45;&gt;Node3</title>
<path fill="none" stroke="#191970" d="M805.0936,-352.9005C813.2798,-342.552 826.4885,-325.8542 836.5543,-313.1295"/>
<polygon fill="#191970" stroke="#191970" points="839.4614,-315.0959 842.9205,-305.0817 833.9714,-310.7531 839.4614,-315.0959"/>
</g>
<!-- Node4 -->
<g id="node5" class="node">
<title>Node4</title>
<g id="a_node5"><a xlink:href="../../d7/d01/ThermoPhase_8h.html" target="_top" xlink:title="Header file for class ThermoPhase, the base class for phases with thermodynamic properties, and the text for the Module thermoprops (see Thermodynamic Properties and class ThermoPhase). ">
<polygon fill="#ffffff" stroke="#ff0000" points="664.5,-224.5 664.5,-243.5 752.5,-243.5 752.5,-224.5 664.5,-224.5"/>
<text text-anchor="middle" x="708.5" y="-231.5" font-family="Helvetica,sans-Serif" font-size="10.00" fill="#000000">ThermoPhase.h</text>
</a>
</g>
</g>
<!-- Node3&#45;&gt;Node4 -->
<g id="edge4" class="edge">
<title>Node3&#45;&gt;Node4</title>
<path fill="none" stroke="#191970" d="M828.3125,-285.8906C804.5533,-275.6005 766.6595,-259.1888 739.8575,-247.5809"/>
<polygon fill="#191970" stroke="#191970" points="741.0991,-244.3045 730.5317,-243.5419 738.317,-250.7279 741.0991,-244.3045"/>
</g>
<!-- Node33 -->
<g id="node12" class="node">
<title>Node33</title>
<g id="a_node12"><a xlink:href="../../d7/dfa/PDSS_8h.html" target="_top" xlink:title="Declarations for the virtual base class PDSS (pressure dependent standard state) which handles calcul...">
<polygon fill="#ffffff" stroke="#000000" points="919.5,-224.5 919.5,-243.5 971.5,-243.5 971.5,-224.5 919.5,-224.5"/>
<text text-anchor="middle" x="945.5" y="-231.5" font-family="Helvetica,sans-Serif" font-size="10.00" fill="#000000">PDSS.h</text>
</a>
</g>
</g>
<!-- Node3&#45;&gt;Node33 -->
<g id="edge12" class="edge">
<title>Node3&#45;&gt;Node33</title>
<path fill="none" stroke="#191970" d="M865.3438,-285.8906C880.5418,-276.0519 904.3848,-260.6167 922.1206,-249.1351"/>
<polygon fill="#191970" stroke="#191970" points="924.268,-251.9144 930.7605,-243.5419 920.4639,-246.0382 924.268,-251.9144"/>
</g>
<!-- Node23 -->
<g id="node6" class="node">
<title>Node23</title>
<g id="a_node6"><a xlink:href="../../d2/d49/global_8h.html" target="_top" xlink:title="This file contains definitions for utility functions and text for modules, inputfiles, logs, textlogs, (see Input File Handling, Diagnostic Output, and Writing messages to the screen). ">
<polygon fill="#ffffff" stroke="#000000" points="628.5,-168.5 628.5,-187.5 740.5,-187.5 740.5,-168.5 628.5,-168.5"/>
<text text-anchor="middle" x="684.5" y="-175.5" font-family="Helvetica,sans-Serif" font-size="10.00" fill="#000000">cantera/base/global.h</text>
</a>
</g>
</g>
<!-- Node4&#45;&gt;Node23 -->
<g id="edge5" class="edge">
<title>Node4&#45;&gt;Node23</title>
<path fill="none" stroke="#191970" d="M704.3195,-224.2455C701.119,-216.7776 696.604,-206.2427 692.6916,-197.1137"/>
<polygon fill="#191970" stroke="#191970" points="695.7888,-195.4554 688.6326,-187.6427 689.3548,-198.2129 695.7888,-195.4554"/>
</g>
<!-- Node8 -->
<g id="node7" class="node">
<title>Node8</title>
<g id="a_node7"><a xlink:href="../../d9/ddc/ct__defs_8h.html" target="_top" xlink:title="This file contains definitions of terms that are used in internal routines and are unlikely to need m...">
<polygon fill="#ffffff" stroke="#ff0000" points="575,-56.5 575,-75.5 632,-75.5 632,-56.5 575,-56.5"/>
<text text-anchor="middle" x="603.5" y="-63.5" font-family="Helvetica,sans-Serif" font-size="10.00" fill="#000000">ct_defs.h</text>
</a>
</g>
</g>
<!-- Node23&#45;&gt;Node8 -->
<g id="edge6" class="edge">
<title>Node23&#45;&gt;Node8</title>
<path fill="none" stroke="#191970" d="M677.594,-168.4509C664.0244,-149.688 633.6976,-107.7548 616.3428,-83.758"/>
<polygon fill="#191970" stroke="#191970" points="619.0848,-81.5768 610.3885,-75.5249 613.4127,-85.679 619.0848,-81.5768"/>
</g>
<!-- Node7 -->
<g id="node11" class="node">
<title>Node7</title>
<g id="a_node11"><a xlink:href="../../db/def/fmt_8h.html" target="_top" xlink:title="Wrapper for either system&#45;installed or local headers for fmt. ">
<polygon fill="#ffffff" stroke="#ff0000" points="507,-112.5 507,-131.5 606,-131.5 606,-112.5 507,-112.5"/>
<text text-anchor="middle" x="556.5" y="-119.5" font-family="Helvetica,sans-Serif" font-size="10.00" fill="#000000">cantera/base/fmt.h</text>
</a>
</g>
</g>
<!-- Node23&#45;&gt;Node7 -->
<g id="edge10" class="edge">
<title>Node23&#45;&gt;Node7</title>
<path fill="none" stroke="#191970" d="M662.496,-168.3733C641.8565,-159.3435 610.7842,-145.7494 587.6111,-135.6111"/>
<polygon fill="#191970" stroke="#191970" points="588.7813,-132.3028 578.2169,-131.5011 585.9755,-138.7159 588.7813,-132.3028"/>
</g>
<!-- Node9 -->
<g id="node8" class="node">
<title>Node9</title>
<g id="a_node8"><a xlink:href="../../db/d16/config_8h_source.html" target="_top" xlink:title="config.h">
<polygon fill="#ffffff" stroke="#000000" points="605.5,-.5 605.5,-19.5 657.5,-19.5 657.5,-.5 605.5,-.5"/>
<text text-anchor="middle" x="631.5" y="-7.5" font-family="Helvetica,sans-Serif" font-size="10.00" fill="#000000">config.h</text>
</a>
</g>
</g>
<!-- Node8&#45;&gt;Node9 -->
<g id="edge7" class="edge">
<title>Node8&#45;&gt;Node9</title>
<path fill="none" stroke="#191970" d="M608.3772,-56.2455C612.1513,-48.6973 617.4921,-38.0158 622.0901,-28.8197"/>
<polygon fill="#191970" stroke="#191970" points="625.337,-30.1522 626.6787,-19.6427 619.076,-27.0217 625.337,-30.1522"/>
</g>
<!-- Node12 -->
<g id="node9" class="node">
<title>Node12</title>
<polygon fill="#ffffff" stroke="#bfbfbf" points="326.5,-.5 326.5,-19.5 370.5,-19.5 370.5,-.5 326.5,-.5"/>
<text text-anchor="middle" x="348.5" y="-7.5" font-family="Helvetica,sans-Serif" font-size="10.00" fill="#000000">vector</text>
</g>
<!-- Node8&#45;&gt;Node12 -->
<g id="edge8" class="edge">
<title>Node8&#45;&gt;Node12</title>
<path fill="none" stroke="#191970" d="M574.7439,-59.6849C526.8326,-49.1632 430.9893,-28.1153 380.8146,-17.0965"/>
<polygon fill="#191970" stroke="#191970" points="381.3527,-13.6314 370.8347,-14.9049 379.8512,-20.4684 381.3527,-13.6314"/>
</g>
<!-- Node14 -->
<g id="node10" class="node">
<title>Node14</title>
<polygon fill="#ffffff" stroke="#bfbfbf" points="260,-.5 260,-19.5 301,-19.5 301,-.5 260,-.5"/>
<text text-anchor="middle" x="280.5" y="-7.5" font-family="Helvetica,sans-Serif" font-size="10.00" fill="#000000">string</text>
</g>
<!-- Node8&#45;&gt;Node14 -->
<g id="edge9" class="edge">
<title>Node8&#45;&gt;Node14</title>
<path fill="none" stroke="#191970" d="M574.9009,-62.4079C523.2102,-55.6922 410.9192,-40.0795 317.5,-20 315.3329,-19.5342 313.1032,-19.0203 310.864,-18.4787"/>
<polygon fill="#191970" stroke="#191970" points="311.7059,-15.0814 301.1501,-15.9902 309.9687,-21.8624 311.7059,-15.0814"/>
</g>
<!-- Node7&#45;&gt;Node8 -->
<g id="edge11" class="edge">
<title>Node7&#45;&gt;Node8</title>
<path fill="none" stroke="#191970" d="M564.6868,-112.2455C571.3589,-104.2958 580.9479,-92.8706 588.9253,-83.3656"/>
<polygon fill="#191970" stroke="#191970" points="591.6592,-85.5525 595.407,-75.6427 586.2974,-81.0524 591.6592,-85.5525"/>
</g>
<!-- Node33&#45;&gt;Node8 -->
<g id="edge13" class="edge">
<title>Node33&#45;&gt;Node8</title>
<path fill="none" stroke="#191970" d="M942.6887,-224.1306C938.3895,-210.3631 929.1088,-185.1565 914.5,-168 885.8885,-134.3989 873.1707,-129.1333 832.5,-112 768.9206,-85.216 688.7065,-73.7156 642.049,-69.014"/>
<polygon fill="#191970" stroke="#191970" points="642.3478,-65.5267 632.0603,-68.0602 641.6823,-72.495 642.3478,-65.5267"/>
</g>
<!-- Node35 -->
<g id="node14" class="node">
<title>Node35</title>
<g id="a_node14"><a xlink:href="../../de/df0/utilities_8h.html" target="_top" xlink:title="Various templated functions that carry out common vector operations (see Templated Utility Functions)...">
<polygon fill="#ffffff" stroke="#000000" points="835,-224.5 835,-243.5 890,-243.5 890,-224.5 835,-224.5"/>
<text text-anchor="middle" x="862.5" y="-231.5" font-family="Helvetica,sans-Serif" font-size="10.00" fill="#000000">utilities.h</text>
</a>
</g>
</g>
<!-- Node34&#45;&gt;Node35 -->
<g id="edge15" class="edge">
<title>Node34&#45;&gt;Node35</title>
<path fill="none" stroke="#191970" d="M742.6875,-285.8906C766.4467,-275.6005 804.3405,-259.1888 831.1425,-247.5809"/>
<polygon fill="#191970" stroke="#191970" points="832.683,-250.7279 840.4683,-243.5419 829.9009,-244.3045 832.683,-250.7279"/>
</g>
<!-- Node38 -->
<g id="node17" class="node">
<title>Node38</title>
<polygon fill="#ffffff" stroke="#bfbfbf" points="591,-224.5 591,-243.5 646,-243.5 646,-224.5 591,-224.5"/>
<text text-anchor="middle" x="618.5" y="-231.5" font-family="Helvetica,sans-Serif" font-size="10.00" fill="#000000">iostream</text>
</g>
<!-- Node34&#45;&gt;Node38 -->
<g id="edge20" class="edge">
<title>Node34&#45;&gt;Node38</title>
<path fill="none" stroke="#191970" d="M704.5625,-285.8906C688.0949,-275.9616 662.1742,-260.333 643.0796,-248.8201"/>
<polygon fill="#191970" stroke="#191970" points="644.6966,-245.7081 634.3256,-243.5419 641.0822,-251.7027 644.6966,-245.7081"/>
</g>
<!-- Node39 -->
<g id="node18" class="node">
<title>Node39</title>
<polygon fill="#ffffff" stroke="#bfbfbf" points="770.5,-224.5 770.5,-243.5 816.5,-243.5 816.5,-224.5 770.5,-224.5"/>
<text text-anchor="middle" x="793.5" y="-231.5" font-family="Helvetica,sans-Serif" font-size="10.00" fill="#000000">cstring</text>
</g>
<!-- Node34&#45;&gt;Node39 -->
<g id="edge21" class="edge">
<title>Node34&#45;&gt;Node39</title>
<path fill="none" stroke="#191970" d="M731.9063,-285.8906C743.1969,-276.3786 760.6967,-261.6357 774.1619,-250.2917"/>
<polygon fill="#191970" stroke="#191970" points="776.5402,-252.8646 781.9329,-243.7449 772.0301,-247.5111 776.5402,-252.8646"/>
</g>
<!-- Node35&#45;&gt;Node23 -->
<g id="edge17" class="edge">
<title>Node35&#45;&gt;Node23</title>
<path fill="none" stroke="#191970" d="M834.6875,-225.25C805.1798,-215.9667 758.2799,-201.2116 724.7415,-190.6603"/>
<polygon fill="#191970" stroke="#191970" points="725.3856,-187.1938 714.7961,-187.5314 723.2848,-193.8711 725.3856,-187.1938"/>
</g>
<!-- Node35&#45;&gt;Node8 -->
<g id="edge16" class="edge">
<title>Node35&#45;&gt;Node8</title>
<path fill="none" stroke="#191970" d="M874.4948,-224.1414C889.2282,-210.8198 910.7339,-186.5991 897.5,-168 867.2358,-125.4664 715.134,-89.0251 642.3824,-73.7151"/>
<polygon fill="#191970" stroke="#191970" points="642.7509,-70.217 632.2482,-71.6113 641.3281,-77.0709 642.7509,-70.217"/>
</g>
<!-- Node36 -->
<g id="node15" class="node">
<title>Node36</title>
<polygon fill="#ffffff" stroke="#bfbfbf" points="759,-168.5 759,-187.5 818,-187.5 818,-168.5 759,-168.5"/>
<text text-anchor="middle" x="788.5" y="-175.5" font-family="Helvetica,sans-Serif" font-size="10.00" fill="#000000">stdexcept</text>
</g>
<!-- Node35&#45;&gt;Node36 -->
<g id="edge18" class="edge">
<title>Node35&#45;&gt;Node36</title>
<path fill="none" stroke="#191970" d="M849.6102,-224.2455C838.5746,-215.8943 822.4708,-203.7076 809.5647,-193.9408"/>
<polygon fill="#191970" stroke="#191970" points="811.3283,-190.8862 801.2421,-187.6427 807.1041,-196.4681 811.3283,-190.8862"/>
</g>
<!-- Node37 -->
<g id="node16" class="node">
<title>Node37</title>
<polygon fill="#ffffff" stroke="#bfbfbf" points="836.5,-168.5 836.5,-187.5 888.5,-187.5 888.5,-168.5 836.5,-168.5"/>
<text text-anchor="middle" x="862.5" y="-175.5" font-family="Helvetica,sans-Serif" font-size="10.00" fill="#000000">numeric</text>
</g>
<!-- Node35&#45;&gt;Node37 -->
<g id="edge19" class="edge">
<title>Node35&#45;&gt;Node37</title>
<path fill="none" stroke="#191970" d="M862.5,-224.2455C862.5,-216.9382 862.5,-206.6944 862.5,-197.7046"/>
<polygon fill="#191970" stroke="#191970" points="866.0001,-197.6426 862.5,-187.6427 859.0001,-197.6427 866.0001,-197.6426"/>
</g>
<!-- Node40&#45;&gt;Node4 -->
<g id="edge23" class="edge">
<title>Node40&#45;&gt;Node4</title>
<path fill="none" stroke="#191970" d="M588.6875,-285.8906C612.4467,-275.6005 650.3405,-259.1888 677.1425,-247.5809"/>
<polygon fill="#191970" stroke="#191970" points="678.683,-250.7279 686.4683,-243.5419 675.9009,-244.3045 678.683,-250.7279"/>
</g>
<!-- Node41 -->
<g id="node20" class="node">
<title>Node41</title>
<g id="a_node20"><a xlink:href="../../d0/d62/xml_8h.html" target="_top" xlink:title="Classes providing support for XML data files. ">
<polygon fill="#ffffff" stroke="#000000" points="472,-224.5 472,-243.5 573,-243.5 573,-224.5 472,-224.5"/>
<text text-anchor="middle" x="522.5" y="-231.5" font-family="Helvetica,sans-Serif" font-size="10.00" fill="#000000">cantera/base/xml.h</text>
</a>
</g>
</g>
<!-- Node40&#45;&gt;Node41 -->
<g id="edge24" class="edge">
<title>Node40&#45;&gt;Node41</title>
<path fill="none" stroke="#191970" d="M559.625,-285.8906C553.1407,-276.8273 543.2586,-263.0149 535.3199,-251.9188"/>
<polygon fill="#191970" stroke="#191970" points="538.1371,-249.8412 529.4719,-243.7449 532.4441,-253.9143 538.1371,-249.8412"/>
</g>
<!-- Node42 -->
<g id="node22" class="node">
<title>Node42</title>
<g id="a_node22"><a xlink:href="../../d6/dd5/FactoryBase_8h.html" target="_top" xlink:title="File contains the FactoryBase class declarations. ">
<polygon fill="#ffffff" stroke="#000000" points="311.5,-224.5 311.5,-243.5 453.5,-243.5 453.5,-224.5 311.5,-224.5"/>
<text text-anchor="middle" x="382.5" y="-231.5" font-family="Helvetica,sans-Serif" font-size="10.00" fill="#000000">cantera/base/FactoryBase.h</text>
</a>
</g>
</g>
<!-- Node40&#45;&gt;Node42 -->
<g id="edge28" class="edge">
<title>Node40&#45;&gt;Node42</title>
<path fill="none" stroke="#191970" d="M537.75,-285.8906C506.2883,-275.3749 455.6992,-258.466 420.8686,-246.8243"/>
<polygon fill="#191970" stroke="#191970" points="421.6419,-243.3925 411.0481,-243.5419 419.4228,-250.0315 421.6419,-243.3925"/>
</g>
<!-- Node41&#45;&gt;Node23 -->
<g id="edge27" class="edge">
<title>Node41&#45;&gt;Node23</title>
<path fill="none" stroke="#191970" d="M550.3488,-224.3733C577.1703,-215.1016 617.9127,-201.0178 647.4598,-190.804"/>
<polygon fill="#191970" stroke="#191970" points="648.7069,-194.0762 657.0146,-187.5011 646.4198,-187.4603 648.7069,-194.0762"/>
</g>
<!-- Node6 -->
<g id="node21" class="node">
<title>Node6</title>
<g id="a_node21"><a xlink:href="../../db/d98/ctexceptions_8h.html" target="_top" xlink:title="Definitions for the classes that are thrown when Cantera experiences an error condition (also contain...">
<polygon fill="#ffffff" stroke="#ff0000" points="469,-168.5 469,-187.5 610,-187.5 610,-168.5 469,-168.5"/>
<text text-anchor="middle" x="539.5" y="-175.5" font-family="Helvetica,sans-Serif" font-size="10.00" fill="#000000">cantera/base/ctexceptions.h</text>
</a>
</g>
</g>
<!-- Node41&#45;&gt;Node6 -->
<g id="edge25" class="edge">
<title>Node41&#45;&gt;Node6</title>
<path fill="none" stroke="#191970" d="M525.4612,-224.2455C527.7038,-216.8579 530.8577,-206.4689 533.6081,-197.4087"/>
<polygon fill="#191970" stroke="#191970" points="537.017,-198.2282 536.5728,-187.6427 530.3188,-196.1948 537.017,-198.2282"/>
</g>
<!-- Node6&#45;&gt;Node7 -->
<g id="edge26" class="edge">
<title>Node6&#45;&gt;Node7</title>
<path fill="none" stroke="#191970" d="M542.4612,-168.2455C544.7038,-160.8579 547.8577,-150.4689 550.6081,-141.4087"/>
<polygon fill="#191970" stroke="#191970" points="554.017,-142.2282 553.5728,-131.6427 547.3188,-140.1948 554.017,-142.2282"/>
</g>
<!-- Node42&#45;&gt;Node23 -->
<g id="edge34" class="edge">
<title>Node42&#45;&gt;Node23</title>
<path fill="none" stroke="#191970" d="M434.0725,-224.4369C486.409,-214.7321 567.432,-199.708 623.0612,-189.3926"/>
<polygon fill="#191970" stroke="#191970" points="623.946,-192.7883 633.1402,-187.5237 622.6697,-185.9056 623.946,-192.7883"/>
</g>
<!-- Node42&#45;&gt;Node12 -->
<g id="edge29" class="edge">
<title>Node42&#45;&gt;Node12</title>
<path fill="none" stroke="#191970" d="M317.2903,-224.4278C275.6821,-216.8343 227.2488,-204.7087 214.5,-188 168.5557,-127.7846 271.2944,-55.545 322.1433,-24.9053"/>
<polygon fill="#191970" stroke="#191970" points="324.1572,-27.7808 330.9865,-19.6806 320.5965,-21.754 324.1572,-27.7808"/>
</g>
<!-- Node42&#45;&gt;Node6 -->
<g id="edge33" class="edge">
<title>Node42&#45;&gt;Node6</title>
<path fill="none" stroke="#191970" d="M409.4893,-224.3733C435.3699,-215.1419 474.6248,-201.1402 503.2289,-190.9375"/>
<polygon fill="#191970" stroke="#191970" points="504.62,-194.1573 512.8629,-187.5011 502.2683,-187.5642 504.62,-194.1573"/>
</g>
<!-- Node43 -->
<g id="node23" class="node">
<title>Node43</title>
<polygon fill="#ffffff" stroke="#bfbfbf" points="301.5,-168.5 301.5,-187.5 345.5,-187.5 345.5,-168.5 301.5,-168.5"/>
<text text-anchor="middle" x="323.5" y="-175.5" font-family="Helvetica,sans-Serif" font-size="10.00" fill="#000000">mutex</text>
</g>
<!-- Node42&#45;&gt;Node43 -->
<g id="edge30" class="edge">
<title>Node42&#45;&gt;Node43</title>
<path fill="none" stroke="#191970" d="M372.223,-224.2455C363.6782,-216.1352 351.3222,-204.4075 341.1915,-194.7919"/>
<polygon fill="#191970" stroke="#191970" points="343.3218,-191.9884 333.6592,-187.6427 338.5028,-197.0655 343.3218,-191.9884"/>
</g>
<!-- Node24 -->
<g id="node24" class="node">
<title>Node24</title>
<polygon fill="#ffffff" stroke="#bfbfbf" points="364,-168.5 364,-187.5 451,-187.5 451,-168.5 364,-168.5"/>
<text text-anchor="middle" x="407.5" y="-175.5" font-family="Helvetica,sans-Serif" font-size="10.00" fill="#000000">unordered_map</text>
</g>
<!-- Node42&#45;&gt;Node24 -->
<g id="edge31" class="edge">
<title>Node42&#45;&gt;Node24</title>
<path fill="none" stroke="#191970" d="M386.8547,-224.2455C390.2244,-216.6973 394.993,-206.0158 399.0983,-196.8197"/>
<polygon fill="#191970" stroke="#191970" points="402.3147,-198.2009 403.1952,-187.6427 395.9227,-195.3473 402.3147,-198.2009"/>
</g>
<!-- Node44 -->
<g id="node25" class="node">
<title>Node44</title>
<polygon fill="#ffffff" stroke="#bfbfbf" points="224,-168.5 224,-187.5 283,-187.5 283,-168.5 224,-168.5"/>
<text text-anchor="middle" x="253.5" y="-175.5" font-family="Helvetica,sans-Serif" font-size="10.00" fill="#000000">functional</text>
</g>
<!-- Node42&#45;&gt;Node44 -->
<g id="edge32" class="edge">
<title>Node42&#45;&gt;Node44</title>
<path fill="none" stroke="#191970" d="M360.3241,-224.3733C339.5234,-215.3435 308.2083,-201.7494 284.8542,-191.6111"/>
<polygon fill="#191970" stroke="#191970" points="285.9532,-188.2727 275.3865,-187.5011 283.1657,-194.6938 285.9532,-188.2727"/>
</g>
<!-- Node45&#45;&gt;Node33 -->
<g id="edge36" class="edge">
<title>Node45&#45;&gt;Node33</title>
<path fill="none" stroke="#191970" d="M1002.7135,-280.2977C991.3947,-271.1384 976.9895,-259.4816 965.4654,-250.1562"/>
<polygon fill="#191970" stroke="#191970" points="967.6439,-247.4167 957.6686,-243.8469 963.2405,-252.8583 967.6439,-247.4167"/>
</g>
<!-- Node46 -->
<g id="node27" class="node">
<title>Node46</title>
<g id="a_node27"><a xlink:href="../../d2/d86/WaterPropsIAPWS_8h.html" target="_top" xlink:title="Headers for a class for calculating the equation of state of water from the IAPWS 1995 Formulation ba...">
<polygon fill="#ffffff" stroke="#000000" points="1067.5,-168.5 1067.5,-187.5 1177.5,-187.5 1177.5,-168.5 1067.5,-168.5"/>
<text text-anchor="middle" x="1122.5" y="-175.5" font-family="Helvetica,sans-Serif" font-size="10.00" fill="#000000">WaterPropsIAPWS.h</text>
</a>
</g>
</g>
<!-- Node45&#45;&gt;Node46 -->
<g id="edge37" class="edge">
<title>Node45&#45;&gt;Node46</title>
<path fill="none" stroke="#191970" d="M1034.704,-280.1389C1053.4799,-258.2957 1087.7969,-218.3724 1107.5069,-195.4424"/>
<polygon fill="#191970" stroke="#191970" points="1110.4186,-197.4244 1114.2829,-187.5595 1105.1101,-192.8614 1110.4186,-197.4244"/>
</g>
<!-- Node48 -->
<g id="node29" class="node">
<title>Node48</title>
<g id="a_node29"><a xlink:href="../../db/d4b/WaterProps_8h.html" target="_top" xlink:title="Header for a class used to house several approximation routines for properties of water...">
<polygon fill="#ffffff" stroke="#000000" points="982.5,-112.5 982.5,-131.5 1060.5,-131.5 1060.5,-112.5 982.5,-112.5"/>
<text text-anchor="middle" x="1021.5" y="-119.5" font-family="Helvetica,sans-Serif" font-size="10.00" fill="#000000">WaterProps.h</text>
</a>
</g>
</g>
<!-- Node45&#45;&gt;Node48 -->
<g id="edge40" class="edge">
<title>Node45&#45;&gt;Node48</title>
<path fill="none" stroke="#191970" d="M1021.5,-280.4065C1021.5,-249.1485 1021.5,-177.3214 1021.5,-142.1492"/>
<polygon fill="#191970" stroke="#191970" points="1025.0001,-141.738 1021.5,-131.738 1018.0001,-141.738 1025.0001,-141.738"/>
</g>
<!-- Node47 -->
<g id="node28" class="node">
<title>Node47</title>
<g id="a_node28"><a xlink:href="../../da/d59/WaterPropsIAPWSphi_8h.html" target="_top" xlink:title="Header for Lowest level of the classes which support a real water model (see class WaterPropsIAPWS an...">
<polygon fill="#ffffff" stroke="#000000" points="1079,-112.5 1079,-131.5 1202,-131.5 1202,-112.5 1079,-112.5"/>
<text text-anchor="middle" x="1140.5" y="-119.5" font-family="Helvetica,sans-Serif" font-size="10.00" fill="#000000">WaterPropsIAPWSphi.h</text>
</a>
</g>
</g>
<!-- Node46&#45;&gt;Node47 -->
<g id="edge38" class="edge">
<title>Node46&#45;&gt;Node47</title>
<path fill="none" stroke="#191970" d="M1125.6354,-168.2455C1128.01,-160.8579 1131.3493,-150.4689 1134.2615,-141.4087"/>
<polygon fill="#191970" stroke="#191970" points="1137.6725,-142.234 1137.4006,-131.6427 1131.0083,-140.0919 1137.6725,-142.234"/>
</g>
<!-- Node47&#45;&gt;Node9 -->
<g id="edge39" class="edge">
<title>Node47&#45;&gt;Node9</title>
<path fill="none" stroke="#191970" d="M1097.1029,-112.4509C998.3727,-90.7264 758.4757,-37.9396 667.3891,-17.897"/>
<polygon fill="#191970" stroke="#191970" points="668.056,-14.4601 657.5375,-15.7293 666.5517,-21.2966 668.056,-14.4601"/>
</g>
<!-- Node48&#45;&gt;Node8 -->
<g id="edge41" class="edge">
<title>Node48&#45;&gt;Node8</title>
<path fill="none" stroke="#191970" d="M982.4724,-114.3565C977.7717,-113.5187 973.0326,-112.7125 968.5,-112 850.2164,-93.4055 709.4326,-77.3762 642.5352,-70.1268"/>
<polygon fill="#191970" stroke="#191970" points="642.7653,-66.6314 632.4478,-69.0396 642.0151,-73.5911 642.7653,-66.6314"/>
</g>
<!-- Node49&#45;&gt;Node33 -->
<g id="edge43" class="edge">
<title>Node49&#45;&gt;Node33</title>
<path fill="none" stroke="#191970" d="M924.3474,-347.2548C928.6954,-323.9744 936.9906,-279.5607 941.7998,-253.8117"/>
<polygon fill="#191970" stroke="#191970" points="945.2861,-254.2084 943.6816,-243.7358 938.4051,-252.9232 945.2861,-254.2084"/>
</g>
<!-- Node51&#45;&gt;Node8 -->
<g id="edge46" class="edge">
<title>Node51&#45;&gt;Node8</title>
<path fill="none" stroke="#191970" d="M82.5082,-168.3283C110.8027,-153.5997 167.7879,-125.8057 219.5,-112 342.5989,-79.1359 494.1915,-69.7181 564.4002,-67.0446"/>
<polygon fill="#191970" stroke="#191970" points="564.6849,-70.5368 574.5544,-66.684 564.4364,-63.5412 564.6849,-70.5368"/>
</g>
<!-- Node51&#45;&gt;Node14 -->
<g id="edge48" class="edge">
<title>Node51&#45;&gt;Node14</title>
<path fill="none" stroke="#191970" d="M71.7361,-168.2761C88.7541,-145.9493 133.5143,-90.3039 181.5,-56 202.8319,-40.7503 230.0238,-28.5477 250.5102,-20.553"/>
<polygon fill="#191970" stroke="#191970" points="251.8598,-23.7846 259.9735,-16.9715 249.382,-17.2378 251.8598,-23.7846"/>
</g>
<!-- Node51&#45;&gt;Node7 -->
<g id="edge47" class="edge">
<title>Node51&#45;&gt;Node7</title>
<path fill="none" stroke="#191970" d="M129.0732,-170.6502C224.9386,-159.7387 403.5719,-139.4064 496.6387,-128.8135"/>
<polygon fill="#191970" stroke="#191970" points="497.1956,-132.2728 506.7356,-127.6642 496.4039,-125.3177 497.1956,-132.2728"/>
</g>
<!-- Node52&#45;&gt;Node8 -->
<g id="edge50" class="edge">
<title>Node52&#45;&gt;Node8</title>
<path fill="none" stroke="#191970" d="M368.4921,-285.9922C295.8596,-268.8956 167.4603,-228.9643 214.5,-168 257.6289,-112.1042 475.3941,-80.8651 564.9495,-70.21"/>
<polygon fill="#191970" stroke="#191970" points="565.4385,-73.6768 574.9652,-69.041 564.6269,-66.724 565.4385,-73.6768"/>
</g>
<!-- Node52&#45;&gt;Node41 -->
<g id="edge51" class="edge">
<title>Node52&#45;&gt;Node41</title>
<path fill="none" stroke="#191970" d="M431.375,-285.8906C448.9698,-275.8713 476.7566,-260.0483 497.0241,-248.5071"/>
<polygon fill="#191970" stroke="#191970" points="498.7856,-251.5318 505.7435,-243.5419 495.3217,-245.4489 498.7856,-251.5318"/>
</g>
</g>
</svg>
