<?xml version="1.0" encoding="UTF-8" standalone="no"?>
<!DOCTYPE svg PUBLIC "-//W3C//DTD SVG 1.1//EN"
 "http://www.w3.org/Graphics/SVG/1.1/DTD/svg11.dtd">
<!-- Generated by graphviz version 2.40.1 (20161225.0304)
 -->
<!-- Title: Transport Pages: 1 -->
<svg width="496pt" height="237pt"
 viewBox="0.00 0.00 496.00 237.00" xmlns="http://www.w3.org/2000/svg" xmlns:xlink="http://www.w3.org/1999/xlink">
<g id="graph0" class="graph" transform="scale(1 1) rotate(0) translate(4 233)">
<title>Transport</title>
<polygon fill="#ffffff" stroke="transparent" points="-4,4 -4,-233 492,-233 492,4 -4,4"/>
<!-- Node0 -->
<g id="node1" class="node">
<title>Node0</title>
<polygon fill="#bfbfbf" stroke="#000000" points="0,-95.5 0,-114.5 59,-114.5 59,-95.5 0,-95.5"/>
<text text-anchor="middle" x="29.5" y="-102.5" font-family="Helvetica,sans-Serif" font-size="10.00" fill="#000000">Transport</text>
</g>
<!-- Node1 -->
<g id="node2" class="node">
<title>Node1</title>
<g id="a_node2"><a xlink:href="../../dc/de6/classCantera_1_1DustyGasTransport.html" target="_top" xlink:title="Class DustyGasTransport implements the Dusty Gas model for transport in porous media. ">
<polygon fill="#ffffff" stroke="#000000" points="95,-190.5 95,-209.5 198,-209.5 198,-190.5 95,-190.5"/>
<text text-anchor="middle" x="146.5" y="-197.5" font-family="Helvetica,sans-Serif" font-size="10.00" fill="#000000">DustyGasTransport</text>
</a>
</g>
</g>
<!-- Node0&#45;&gt;Node1 -->
<g id="edge1" class="edge">
<title>Node0&#45;&gt;Node1</title>
<path fill="none" stroke="#191970" d="M41.0542,-123.06C52.7907,-140.1105 72.4178,-165.3358 95,-181 100.4031,-184.7479 106.6349,-187.8557 112.8562,-190.3963"/>
<polygon fill="#191970" stroke="#191970" points="43.8352,-120.9217 35.3771,-114.5412 38.0102,-124.8036 43.8352,-120.9217"/>
</g>
<!-- Node2 -->
<g id="node3" class="node">
<title>Node2</title>
<g id="a_node3"><a xlink:href="../../d8/d58/classCantera_1_1GasTransport.html" target="_top" xlink:title="Class GasTransport implements some functions and properties that are shared by the MixTransport and M...">
<polygon fill="#ffffff" stroke="#000000" points="107.5,-152.5 107.5,-171.5 185.5,-171.5 185.5,-152.5 107.5,-152.5"/>
<text text-anchor="middle" x="146.5" y="-159.5" font-family="Helvetica,sans-Serif" font-size="10.00" fill="#000000">GasTransport</text>
</a>
</g>
</g>
<!-- Node0&#45;&gt;Node2 -->
<g id="edge2" class="edge">
<title>Node0&#45;&gt;Node2</title>
<path fill="none" stroke="#191970" d="M52.8863,-119.8864C65.1527,-127.3527 80.5899,-136.2236 95,-143 102.2442,-146.4066 110.2792,-149.6233 117.8061,-152.4079"/>
<polygon fill="#191970" stroke="#191970" points="54.5392,-116.7933 44.1937,-114.5085 50.8563,-122.7462 54.5392,-116.7933"/>
</g>
<!-- Node8 -->
<g id="node9" class="node">
<title>Node8</title>
<g id="a_node9"><a xlink:href="../../d0/dd1/classCantera_1_1LiquidTransport.html" target="_top" xlink:title="Class LiquidTransport implements models for transport properties for liquid phases. ">
<polygon fill="#ffffff" stroke="#000000" points="103.5,-114.5 103.5,-133.5 189.5,-133.5 189.5,-114.5 103.5,-114.5"/>
<text text-anchor="middle" x="146.5" y="-121.5" font-family="Helvetica,sans-Serif" font-size="10.00" fill="#000000">LiquidTransport</text>
</a>
</g>
</g>
<!-- Node0&#45;&gt;Node8 -->
<g id="edge8" class="edge">
<title>Node0&#45;&gt;Node8</title>
<path fill="none" stroke="#191970" d="M69.1822,-111.4441C80.1539,-113.2259 92.1141,-115.1681 103.2763,-116.9808"/>
<polygon fill="#191970" stroke="#191970" points="69.4558,-107.9428 59.024,-109.7945 68.3337,-114.8523 69.4558,-107.9428"/>
</g>
<!-- Node9 -->
<g id="node10" class="node">
<title>Node9</title>
<g id="a_node10"><a xlink:href="../../df/ded/classCantera_1_1SimpleTransport.html" target="_top" xlink:title="Class SimpleTransport implements mixture&#45;averaged transport properties for liquid phases...">
<polygon fill="#ffffff" stroke="#000000" points="101.5,-76.5 101.5,-95.5 191.5,-95.5 191.5,-76.5 101.5,-76.5"/>
<text text-anchor="middle" x="146.5" y="-83.5" font-family="Helvetica,sans-Serif" font-size="10.00" fill="#000000">SimpleTransport</text>
</a>
</g>
</g>
<!-- Node0&#45;&gt;Node9 -->
<g id="edge9" class="edge">
<title>Node0&#45;&gt;Node9</title>
<path fill="none" stroke="#191970" d="M69.0828,-98.572C79.497,-96.8808 90.8076,-95.0441 101.4844,-93.3102"/>
<polygon fill="#191970" stroke="#191970" points="68.3337,-95.1477 59.024,-100.2055 69.4558,-102.0572 68.3337,-95.1477"/>
</g>
<!-- Node10 -->
<g id="node11" class="node">
<title>Node10</title>
<g id="a_node11"><a xlink:href="../../dd/db6/classCantera_1_1SolidTransport.html" target="_top" xlink:title="Class SolidTransport implements transport properties for solids. ">
<polygon fill="#ffffff" stroke="#000000" points="105.5,-38.5 105.5,-57.5 187.5,-57.5 187.5,-38.5 105.5,-38.5"/>
<text text-anchor="middle" x="146.5" y="-45.5" font-family="Helvetica,sans-Serif" font-size="10.00" fill="#000000">SolidTransport</text>
</a>
</g>
</g>
<!-- Node0&#45;&gt;Node10 -->
<g id="edge10" class="edge">
<title>Node0&#45;&gt;Node10</title>
<path fill="none" stroke="#191970" d="M52.8863,-90.1136C65.1527,-82.6473 80.5899,-73.7764 95,-67 102.2442,-63.5934 110.2792,-60.3767 117.8061,-57.5921"/>
<polygon fill="#191970" stroke="#191970" points="50.8563,-87.2538 44.1937,-95.4915 54.5392,-93.2067 50.8563,-87.2538"/>
</g>
<!-- Node11 -->
<g id="node12" class="node">
<title>Node11</title>
<g id="a_node12"><a xlink:href="../../df/d1f/classCantera_1_1WaterTransport.html" target="_top" xlink:title="Transport Parameters for pure water. ">
<polygon fill="#ffffff" stroke="#000000" points="103.5,-.5 103.5,-19.5 189.5,-19.5 189.5,-.5 103.5,-.5"/>
<text text-anchor="middle" x="146.5" y="-7.5" font-family="Helvetica,sans-Serif" font-size="10.00" fill="#000000">WaterTransport</text>
</a>
</g>
</g>
<!-- Node0&#45;&gt;Node11 -->
<g id="edge11" class="edge">
<title>Node0&#45;&gt;Node11</title>
<path fill="none" stroke="#191970" d="M41.0542,-86.94C52.7907,-69.8895 72.4178,-44.6642 95,-29 100.4031,-25.2521 106.6349,-22.1443 112.8562,-19.6037"/>
<polygon fill="#191970" stroke="#191970" points="38.0102,-85.1964 35.3771,-95.4588 43.8352,-89.0783 38.0102,-85.1964"/>
</g>
<!-- Node3 -->
<g id="node4" class="node">
<title>Node3</title>
<g id="a_node4"><a xlink:href="../../d9/d17/classCantera_1_1MixTransport.html" target="_top" xlink:title="Class MixTransport implements mixture&#45;averaged transport properties for ideal gas mixtures...">
<polygon fill="#ffffff" stroke="#000000" points="236.5,-171.5 236.5,-190.5 311.5,-190.5 311.5,-171.5 236.5,-171.5"/>
<text text-anchor="middle" x="274" y="-178.5" font-family="Helvetica,sans-Serif" font-size="10.00" fill="#000000">MixTransport</text>
</a>
</g>
</g>
<!-- Node2&#45;&gt;Node3 -->
<g id="edge3" class="edge">
<title>Node2&#45;&gt;Node3</title>
<path fill="none" stroke="#191970" d="M195.8647,-169.3563C209.3189,-171.3613 223.675,-173.5006 236.3628,-175.3913"/>
<polygon fill="#191970" stroke="#191970" points="196.2012,-165.8679 185.7946,-167.8557 195.1694,-172.7914 196.2012,-165.8679"/>
</g>
<!-- Node6 -->
<g id="node7" class="node">
<title>Node6</title>
<g id="a_node7"><a xlink:href="../../df/d7c/classCantera_1_1MultiTransport.html" target="_top" xlink:title="Class MultiTransport implements multicomponent transport properties for ideal gas mixtures...">
<polygon fill="#ffffff" stroke="#000000" points="234,-133.5 234,-152.5 314,-152.5 314,-133.5 234,-133.5"/>
<text text-anchor="middle" x="274" y="-140.5" font-family="Helvetica,sans-Serif" font-size="10.00" fill="#000000">MultiTransport</text>
</a>
</g>
</g>
<!-- Node2&#45;&gt;Node6 -->
<g id="edge6" class="edge">
<title>Node2&#45;&gt;Node6</title>
<path fill="none" stroke="#191970" d="M196.0518,-154.6158C208.5305,-152.7562 221.7737,-150.7827 233.7348,-149.0003"/>
<polygon fill="#191970" stroke="#191970" points="195.1694,-151.2086 185.7946,-156.1443 196.2012,-158.1321 195.1694,-151.2086"/>
</g>
<!-- Node4 -->
<g id="node5" class="node">
<title>Node4</title>
<g id="a_node5"><a xlink:href="../../d4/d65/classCantera_1_1IonGasTransport.html" target="_top" xlink:title="Class IonGasTransport implements Stockmayer&#45;(n,6,4) model for transport of ions. ">
<polygon fill="#ffffff" stroke="#000000" points="373,-209.5 373,-228.5 465,-228.5 465,-209.5 373,-209.5"/>
<text text-anchor="middle" x="419" y="-216.5" font-family="Helvetica,sans-Serif" font-size="10.00" fill="#000000">IonGasTransport</text>
</a>
</g>
</g>
<!-- Node3&#45;&gt;Node4 -->
<g id="edge4" class="edge">
<title>Node3&#45;&gt;Node4</title>
<path fill="none" stroke="#191970" d="M320.4928,-193.1843C340.6237,-198.46 363.8383,-204.5438 382.6735,-209.4799"/>
<polygon fill="#191970" stroke="#191970" points="321.1503,-189.7385 310.5896,-190.589 319.3757,-196.5098 321.1503,-189.7385"/>
</g>
<!-- Node5 -->
<g id="node6" class="node">
<title>Node5</title>
<g id="a_node6"><a xlink:href="../../d3/dd6/classCantera_1_1UnityLewisTransport.html" target="_top" xlink:title="Class UnityLewisTransport implements the unity Lewis number approximation for the mixture&#45;averaged sp...">
<polygon fill="#ffffff" stroke="#000000" points="365,-171.5 365,-190.5 473,-190.5 473,-171.5 365,-171.5"/>
<text text-anchor="middle" x="419" y="-178.5" font-family="Helvetica,sans-Serif" font-size="10.00" fill="#000000">UnityLewisTransport</text>
</a>
</g>
</g>
<!-- Node3&#45;&gt;Node5 -->
<g id="edge5" class="edge">
<title>Node3&#45;&gt;Node5</title>
<path fill="none" stroke="#191970" d="M321.9245,-181C335.6613,-181 350.7332,-181 364.8181,-181"/>
<polygon fill="#191970" stroke="#191970" points="321.7186,-177.5001 311.7185,-181 321.7185,-184.5001 321.7186,-177.5001"/>
</g>
<!-- Node7 -->
<g id="node8" class="node">
<title>Node7</title>
<g id="a_node8"><a xlink:href="../../d9/d63/classCantera_1_1HighPressureGasTransport.html" target="_top" xlink:title="Class MultiTransport implements transport properties for high pressure gas mixtures. ">
<polygon fill="#ffffff" stroke="#000000" points="350,-133.5 350,-152.5 488,-152.5 488,-133.5 350,-133.5"/>
<text text-anchor="middle" x="419" y="-140.5" font-family="Helvetica,sans-Serif" font-size="10.00" fill="#000000">HighPressureGasTransport</text>
</a>
</g>
</g>
<!-- Node6&#45;&gt;Node7 -->
<g id="edge7" class="edge">
<title>Node6&#45;&gt;Node7</title>
<path fill="none" stroke="#191970" d="M324.2397,-143C332.5302,-143 341.2508,-143 349.9064,-143"/>
<polygon fill="#191970" stroke="#191970" points="324.0058,-139.5001 314.0057,-143 324.0057,-146.5001 324.0058,-139.5001"/>
</g>
</g>
</svg>
