<?xml version="1.0" encoding="UTF-8" standalone="no"?>
<!DOCTYPE svg PUBLIC "-//W3C//DTD SVG 1.1//EN"
 "http://www.w3.org/Graphics/SVG/1.1/DTD/svg11.dtd">
<!-- Generated by graphviz version 2.43.0 (0)
 -->
<!-- Title: StFlow.h Pages: 1 -->
<svg width="574pt" height="140pt"
 viewBox="0.00 0.00 574.00 140.00" xmlns="http://www.w3.org/2000/svg" xmlns:xlink="http://www.w3.org/1999/xlink">
<g id="graph0" class="graph" transform="scale(1 1) rotate(0) translate(4 136)">
<title>StFlow.h</title>
<polygon fill="white" stroke="transparent" points="-4,4 -4,-136 570,-136 570,4 -4,4"/>
<!-- Node1 -->
<g id="node1" class="node">
<title>Node1</title>
<g id="a_node1"><a xlink:title=" ">
<polygon fill="#bfbfbf" stroke="black" points="248,-112.5 248,-131.5 306,-131.5 306,-112.5 248,-112.5"/>
<text text-anchor="middle" x="277" y="-119.5" font-family="Helvetica,sans-Serif" font-size="10.00">StFlow.h</text>
</a>
</g>
</g>
<!-- Node2 -->
<g id="node2" class="node">
<title>Node2</title>
<g id="a_node2"><a xlink:href="../../de/d16/Boundary1D_8cpp.html" target="_top" xlink:title=" ">
<polygon fill="white" stroke="black" points="309.5,-0.5 309.5,-19.5 406.5,-19.5 406.5,-0.5 309.5,-0.5"/>
<text text-anchor="middle" x="358" y="-7.5" font-family="Helvetica,sans-Serif" font-size="10.00">Boundary1D.cpp</text>
</a>
</g>
</g>
<!-- Node1&#45;&gt;Node2 -->
<g id="edge1" class="edge">
<title>Node1&#45;&gt;Node2</title>
<path fill="none" stroke="midnightblue" d="M315.85,-111.33C334.12,-104.62 354.22,-93.62 365,-76 375.78,-58.38 367.69,-32.96 362.12,-19.74"/>
<polygon fill="midnightblue" stroke="midnightblue" points="314.62,-108.05 306.25,-114.54 316.84,-114.69 314.62,-108.05"/>
</g>
<!-- Node3 -->
<g id="node3" class="node">
<title>Node3</title>
<g id="a_node3"><a xlink:href="../../d4/d57/IonFlow_8cpp.html" target="_top" xlink:title=" ">
<polygon fill="white" stroke="black" points="0,-0.5 0,-19.5 74,-19.5 74,-0.5 0,-0.5"/>
<text text-anchor="middle" x="37" y="-7.5" font-family="Helvetica,sans-Serif" font-size="10.00">IonFlow.cpp</text>
</a>
</g>
</g>
<!-- Node1&#45;&gt;Node3 -->
<g id="edge2" class="edge">
<title>Node1&#45;&gt;Node3</title>
<path fill="none" stroke="midnightblue" d="M237.52,-119.86C173.74,-117.09 52.51,-107.68 26,-76 12.49,-59.85 24.08,-33.34 31.67,-19.7"/>
<polygon fill="midnightblue" stroke="midnightblue" points="237.48,-123.36 247.61,-120.26 237.76,-116.36 237.48,-123.36"/>
</g>
<!-- Node4 -->
<g id="node4" class="node">
<title>Node4</title>
<g id="a_node4"><a xlink:href="../../dd/d3c/refine_8cpp.html" target="_top" xlink:title=" ">
<polygon fill="white" stroke="black" points="116.5,-56.5 116.5,-75.5 181.5,-75.5 181.5,-56.5 116.5,-56.5"/>
<text text-anchor="middle" x="149" y="-63.5" font-family="Helvetica,sans-Serif" font-size="10.00">refine.cpp</text>
</a>
</g>
</g>
<!-- Node1&#45;&gt;Node4 -->
<g id="edge3" class="edge">
<title>Node1&#45;&gt;Node4</title>
<path fill="none" stroke="midnightblue" d="M247.38,-108.5C223.38,-98.38 190.22,-84.39 169.19,-75.52"/>
<polygon fill="midnightblue" stroke="midnightblue" points="246.14,-111.78 256.72,-112.44 248.86,-105.33 246.14,-111.78"/>
</g>
<!-- Node5 -->
<g id="node5" class="node">
<title>Node5</title>
<g id="a_node5"><a xlink:href="../../d0/de8/Sim1D_8cpp.html" target="_top" xlink:title=" ">
<polygon fill="white" stroke="black" points="199.5,-56.5 199.5,-75.5 268.5,-75.5 268.5,-56.5 199.5,-56.5"/>
<text text-anchor="middle" x="234" y="-63.5" font-family="Helvetica,sans-Serif" font-size="10.00">Sim1D.cpp</text>
</a>
</g>
</g>
<!-- Node1&#45;&gt;Node5 -->
<g id="edge4" class="edge">
<title>Node1&#45;&gt;Node5</title>
<path fill="none" stroke="midnightblue" d="M263.58,-104.14C256.09,-94.74 247.06,-83.4 240.97,-75.75"/>
<polygon fill="midnightblue" stroke="midnightblue" points="260.93,-106.44 269.9,-112.08 266.41,-102.08 260.93,-106.44"/>
</g>
<!-- Node6 -->
<g id="node6" class="node">
<title>Node6</title>
<g id="a_node6"><a xlink:href="../../d4/d8d/StFlow_8cpp.html" target="_top" xlink:title=" ">
<polygon fill="white" stroke="black" points="286.5,-56.5 286.5,-75.5 355.5,-75.5 355.5,-56.5 286.5,-56.5"/>
<text text-anchor="middle" x="321" y="-63.5" font-family="Helvetica,sans-Serif" font-size="10.00">StFlow.cpp</text>
</a>
</g>
</g>
<!-- Node1&#45;&gt;Node6 -->
<g id="edge5" class="edge">
<title>Node1&#45;&gt;Node6</title>
<path fill="none" stroke="midnightblue" d="M290.73,-104.14C298.4,-94.74 307.63,-83.4 313.87,-75.75"/>
<polygon fill="midnightblue" stroke="midnightblue" points="287.87,-102.12 284.27,-112.08 293.3,-106.54 287.87,-102.12"/>
</g>
<!-- Node7 -->
<g id="node7" class="node">
<title>Node7</title>
<g id="a_node7"><a xlink:href="../../dc/d7c/Boundary1D_8h.html" target="_top" xlink:title="Boundary objects for one&#45;dimensional simulations.">
<polygon fill="white" stroke="black" points="412,-56.5 412,-75.5 498,-75.5 498,-56.5 412,-56.5"/>
<text text-anchor="middle" x="455" y="-63.5" font-family="Helvetica,sans-Serif" font-size="10.00">Boundary1D.h</text>
</a>
</g>
</g>
<!-- Node1&#45;&gt;Node7 -->
<g id="edge6" class="edge">
<title>Node1&#45;&gt;Node7</title>
<path fill="none" stroke="midnightblue" d="M315.12,-109.44C348.68,-99.26 396.77,-84.66 426.93,-75.52"/>
<polygon fill="midnightblue" stroke="midnightblue" points="313.76,-106.19 305.2,-112.44 315.79,-112.89 313.76,-106.19"/>
</g>
<!-- Node9 -->
<g id="node9" class="node">
<title>Node9</title>
<g id="a_node9"><a xlink:href="../../d4/d07/onedim_8h.html" target="_top" xlink:title=" ">
<polygon fill="white" stroke="black" points="504,-0.5 504,-19.5 566,-19.5 566,-0.5 504,-0.5"/>
<text text-anchor="middle" x="535" y="-7.5" font-family="Helvetica,sans-Serif" font-size="10.00">onedim.h</text>
</a>
</g>
</g>
<!-- Node1&#45;&gt;Node9 -->
<g id="edge12" class="edge">
<title>Node1&#45;&gt;Node9</title>
<path fill="none" stroke="midnightblue" d="M316.61,-117.69C374.44,-112.14 478.23,-99.2 507,-76 524.79,-61.65 531.51,-33.84 533.85,-19.7"/>
<polygon fill="midnightblue" stroke="midnightblue" points="316.01,-114.23 306.38,-118.64 316.66,-121.2 316.01,-114.23"/>
</g>
<!-- Node10 -->
<g id="node10" class="node">
<title>Node10</title>
<g id="a_node10"><a xlink:href="../../d7/d4b/IonFlow_8h.html" target="_top" xlink:title=" ">
<polygon fill="white" stroke="black" points="35.5,-56.5 35.5,-75.5 98.5,-75.5 98.5,-56.5 35.5,-56.5"/>
<text text-anchor="middle" x="67" y="-63.5" font-family="Helvetica,sans-Serif" font-size="10.00">IonFlow.h</text>
</a>
</g>
</g>
<!-- Node1&#45;&gt;Node10 -->
<g id="edge10" class="edge">
<title>Node1&#45;&gt;Node10</title>
<path fill="none" stroke="midnightblue" d="M238.08,-110.99C197.91,-100.66 135.99,-84.74 98.69,-75.15"/>
<polygon fill="midnightblue" stroke="midnightblue" points="237.24,-114.39 247.8,-113.49 238.99,-107.61 237.24,-114.39"/>
</g>
<!-- Node7&#45;&gt;Node2 -->
<g id="edge7" class="edge">
<title>Node7&#45;&gt;Node2</title>
<path fill="none" stroke="midnightblue" d="M430.66,-51.45C412.76,-41.48 388.95,-28.23 373.55,-19.65"/>
<polygon fill="midnightblue" stroke="midnightblue" points="428.98,-54.52 439.42,-56.32 432.38,-48.4 428.98,-54.52"/>
</g>
<!-- Node8 -->
<g id="node8" class="node">
<title>Node8</title>
<g id="a_node8"><a xlink:href="../../d0/de5/Inlet1D_8h.html" target="_top" xlink:title="Boundary objects for one&#45;dimensional simulations.">
<polygon fill="white" stroke="black" points="424.5,-0.5 424.5,-19.5 485.5,-19.5 485.5,-0.5 424.5,-0.5"/>
<text text-anchor="middle" x="455" y="-7.5" font-family="Helvetica,sans-Serif" font-size="10.00">Inlet1D.h</text>
</a>
</g>
</g>
<!-- Node7&#45;&gt;Node8 -->
<g id="edge8" class="edge">
<title>Node7&#45;&gt;Node8</title>
<path fill="none" stroke="midnightblue" d="M455,-45.8C455,-36.91 455,-26.78 455,-19.75"/>
<polygon fill="midnightblue" stroke="midnightblue" points="451.5,-46.08 455,-56.08 458.5,-46.08 451.5,-46.08"/>
</g>
<!-- Node7&#45;&gt;Node9 -->
<g id="edge9" class="edge">
<title>Node7&#45;&gt;Node9</title>
<path fill="none" stroke="midnightblue" d="M476.3,-50.62C490.92,-40.76 509.83,-27.99 522.18,-19.65"/>
<polygon fill="midnightblue" stroke="midnightblue" points="474.18,-47.83 467.85,-56.32 478.1,-53.63 474.18,-47.83"/>
</g>
<!-- Node10&#45;&gt;Node3 -->
<g id="edge11" class="edge">
<title>Node10&#45;&gt;Node3</title>
<path fill="none" stroke="midnightblue" d="M57.15,-47.27C52.03,-38.05 45.98,-27.17 41.86,-19.75"/>
<polygon fill="midnightblue" stroke="midnightblue" points="54.13,-49.04 62.05,-56.08 60.25,-45.64 54.13,-49.04"/>
</g>
</g>
</svg>
