<?xml version="1.0" encoding="UTF-8" standalone="no"?>
<!DOCTYPE svg PUBLIC "-//W3C//DTD SVG 1.1//EN"
 "http://www.w3.org/Graphics/SVG/1.1/DTD/svg11.dtd">
<!-- Generated by graphviz version 2.40.1 (20161225.0304)
 -->
<!-- Title: LiquidTransportData Pages: 1 -->
<svg width="265pt" height="353pt"
 viewBox="0.00 0.00 264.50 353.00" xmlns="http://www.w3.org/2000/svg" xmlns:xlink="http://www.w3.org/1999/xlink">
<g id="graph0" class="graph" transform="scale(1 1) rotate(0) translate(4 349)">
<title>LiquidTransportData</title>
<polygon fill="#ffffff" stroke="transparent" points="-4,4 -4,-349 260.5,-349 260.5,4 -4,4"/>
<!-- Node2 -->
<g id="node1" class="node">
<title>Node2</title>
<polygon fill="#bfbfbf" stroke="#000000" points="24,-.5 24,-19.5 131,-19.5 131,-.5 24,-.5"/>
<text text-anchor="middle" x="77.5" y="-7.5" font-family="Helvetica,sans-Serif" font-size="10.00" fill="#000000">LiquidTransportData</text>
</g>
<!-- Node3 -->
<g id="node2" class="node">
<title>Node3</title>
<g id="a_node2"><a xlink:href="../../d5/d11/classCantera_1_1TransportData.html" target="_top" xlink:title="Base class for transport data for a single species. ">
<polygon fill="#ffffff" stroke="#000000" points="21.5,-122.5 21.5,-141.5 101.5,-141.5 101.5,-122.5 21.5,-122.5"/>
<text text-anchor="middle" x="61.5" y="-129.5" font-family="Helvetica,sans-Serif" font-size="10.00" fill="#000000">TransportData</text>
</a>
</g>
</g>
<!-- Node3&#45;&gt;Node2 -->
<g id="edge1" class="edge">
<title>Node3&#45;&gt;Node2</title>
<path fill="none" stroke="#191970" d="M64.0716,-112.3912C67.5553,-85.8282 73.6384,-39.4446 76.2503,-19.5287"/>
<polygon fill="#191970" stroke="#191970" points="60.5856,-112.0566 62.7555,-122.4269 67.5262,-112.9669 60.5856,-112.0566"/>
</g>
<!-- Node4 -->
<g id="node3" class="node">
<title>Node4</title>
<g id="a_node3"><a xlink:href="../../db/db7/classCantera_1_1LTPspecies.html" target="_top" xlink:title="Class LTPspecies holds transport parameterizations for a specific liquid&#45; phase species. ">
<polygon fill="#ffffff" stroke="#000000" points="120,-122.5 120,-141.5 189,-141.5 189,-122.5 120,-122.5"/>
<text text-anchor="middle" x="154.5" y="-129.5" font-family="Helvetica,sans-Serif" font-size="10.00" fill="#000000">LTPspecies</text>
</a>
</g>
</g>
<!-- Node4&#45;&gt;Node2 -->
<g id="edge2" class="edge">
<title>Node4&#45;&gt;Node2</title>
<path fill="none" stroke="#9a32cd" stroke-dasharray="5,2" d="M143.0099,-113.795C126.4096,-87.4932 96.3084,-39.8003 83.514,-19.5287"/>
<polygon fill="#9a32cd" stroke="#9a32cd" points="140.1608,-115.8384 148.4579,-122.4269 146.0804,-112.1022 140.1608,-115.8384"/>
<text text-anchor="middle" x="175" y="-96" font-family="Helvetica,sans-Serif" font-size="10.00" fill="#000000"> electCond</text>
<text text-anchor="middle" x="175" y="-85" font-family="Helvetica,sans-Serif" font-size="10.00" fill="#000000">viscosity</text>
<text text-anchor="middle" x="175" y="-74" font-family="Helvetica,sans-Serif" font-size="10.00" fill="#000000">hydroRadius</text>
<text text-anchor="middle" x="175" y="-63" font-family="Helvetica,sans-Serif" font-size="10.00" fill="#000000">thermalCond</text>
<text text-anchor="middle" x="175" y="-52" font-family="Helvetica,sans-Serif" font-size="10.00" fill="#000000">speciesDiffusivity</text>
<text text-anchor="middle" x="175" y="-41" font-family="Helvetica,sans-Serif" font-size="10.00" fill="#000000">ionConductivity</text>
</g>
<!-- Node5 -->
<g id="node4" class="node">
<title>Node5</title>
<g id="a_node4"><a xlink:href="../../dc/d38/classCantera_1_1ThermoPhase.html" target="_top" xlink:title="Base class for a phase with thermodynamic properties. ">
<polygon fill="#ffffff" stroke="#000000" points="115,-189.5 115,-208.5 194,-208.5 194,-189.5 115,-189.5"/>
<text text-anchor="middle" x="154.5" y="-196.5" font-family="Helvetica,sans-Serif" font-size="10.00" fill="#000000">ThermoPhase</text>
</a>
</g>
</g>
<!-- Node5&#45;&gt;Node4 -->
<g id="edge3" class="edge">
<title>Node5&#45;&gt;Node4</title>
<path fill="none" stroke="#9a32cd" stroke-dasharray="5,2" d="M154.5,-179.1079C154.5,-166.714 154.5,-151.3263 154.5,-141.5817"/>
<polygon fill="#9a32cd" stroke="#9a32cd" points="151.0001,-179.4005 154.5,-189.4005 158.0001,-179.4006 151.0001,-179.4005"/>
<text text-anchor="middle" x="178.5" y="-163" font-family="Helvetica,sans-Serif" font-size="10.00" fill="#000000"> m_thermo</text>
</g>
<!-- Node6 -->
<g id="node5" class="node">
<title>Node6</title>
<g id="a_node5"><a xlink:href="../../d6/d0e/classCantera_1_1Phase.html" target="_top" xlink:title="Class Phase is the base class for phases of matter, managing the species and elements in a phase...">
<polygon fill="#ffffff" stroke="#000000" points="85,-256.5 85,-275.5 130,-275.5 130,-256.5 85,-256.5"/>
<text text-anchor="middle" x="107.5" y="-263.5" font-family="Helvetica,sans-Serif" font-size="10.00" fill="#000000">Phase</text>
</a>
</g>
</g>
<!-- Node6&#45;&gt;Node5 -->
<g id="edge4" class="edge">
<title>Node6&#45;&gt;Node5</title>
<path fill="none" stroke="#191970" d="M120.1407,-247.9803C129.0366,-235.2989 140.594,-218.8235 147.7785,-208.5817"/>
<polygon fill="#191970" stroke="#191970" points="117.1115,-246.2039 114.234,-256.4005 122.8421,-250.2239 117.1115,-246.2039"/>
</g>
<!-- Node7 -->
<g id="node6" class="node">
<title>Node7</title>
<g id="a_node6"><a xlink:href="../../d1/d98/classCantera_1_1XML__Node.html" target="_top" xlink:title="Class XML_Node is a tree&#45;based representation of the contents of an XML file. ">
<polygon fill="#ffffff" stroke="#000000" points="0,-324.5 0,-343.5 67,-343.5 67,-324.5 0,-324.5"/>
<text text-anchor="middle" x="33.5" y="-331.5" font-family="Helvetica,sans-Serif" font-size="10.00" fill="#000000">XML_Node</text>
</a>
</g>
</g>
<!-- Node7&#45;&gt;Node6 -->
<g id="edge5" class="edge">
<title>Node7&#45;&gt;Node6</title>
<path fill="none" stroke="#9a32cd" stroke-dasharray="5,2" d="M51.7901,-317.1929C65.985,-304.1489 85.1661,-286.523 96.9173,-275.7247"/>
<polygon fill="#9a32cd" stroke="#9a32cd" points="49.0975,-314.9138 44.1024,-324.2573 53.8339,-320.0681 49.0975,-314.9138"/>
<text text-anchor="middle" x="92" y="-297" font-family="Helvetica,sans-Serif" font-size="10.00" fill="#000000"> m_xml</text>
</g>
<!-- Node7&#45;&gt;Node7 -->
<g id="edge6" class="edge">
<title>Node7&#45;&gt;Node7</title>
<path fill="none" stroke="#9a32cd" stroke-dasharray="5,2" d="M77.2231,-339.333C81.9541,-338.3094 85,-336.5317 85,-334 85,-329.9492 77.2025,-327.8289 67.1815,-327.639"/>
<polygon fill="#9a32cd" stroke="#9a32cd" points="76.773,-335.8607 67.1815,-340.361 77.486,-342.8243 76.773,-335.8607"/>
<text text-anchor="middle" x="106.5" y="-337" font-family="Helvetica,sans-Serif" font-size="10.00" fill="#000000"> m_root</text>
<text text-anchor="middle" x="106.5" y="-326" font-family="Helvetica,sans-Serif" font-size="10.00" fill="#000000">m_parent</text>
</g>
<!-- Node8 -->
<g id="node7" class="node">
<title>Node8</title>
<g id="a_node7"><a xlink:href="../../d8/d89/classCantera_1_1ValueCache.html" target="_top" xlink:title="ValueCache">
<polygon fill="#ffffff" stroke="#000000" points="146,-324.5 146,-343.5 217,-343.5 217,-324.5 146,-324.5"/>
<text text-anchor="middle" x="181.5" y="-331.5" font-family="Helvetica,sans-Serif" font-size="10.00" fill="#000000">ValueCache</text>
</a>
</g>
</g>
<!-- Node8&#45;&gt;Node6 -->
<g id="edge7" class="edge">
<title>Node8&#45;&gt;Node6</title>
<path fill="none" stroke="#9a32cd" stroke-dasharray="5,2" d="M163.2099,-317.1929C149.015,-304.1489 129.8339,-286.523 118.0827,-275.7247"/>
<polygon fill="#9a32cd" stroke="#9a32cd" points="161.1661,-320.0681 170.8976,-324.2573 165.9025,-314.9138 161.1661,-320.0681"/>
<text text-anchor="middle" x="171.5" y="-297" font-family="Helvetica,sans-Serif" font-size="10.00" fill="#000000"> m_cache</text>
</g>
<!-- Node9 -->
<g id="node8" class="node">
<title>Node9</title>
<g id="a_node8"><a xlink:href="../../d5/dda/classCantera_1_1MultiSpeciesThermo.html" target="_top" xlink:title="A species thermodynamic property manager for a phase. ">
<polygon fill="#ffffff" stroke="#000000" points="148.5,-256.5 148.5,-275.5 256.5,-275.5 256.5,-256.5 148.5,-256.5"/>
<text text-anchor="middle" x="202.5" y="-263.5" font-family="Helvetica,sans-Serif" font-size="10.00" fill="#000000">MultiSpeciesThermo</text>
</a>
</g>
</g>
<!-- Node9&#45;&gt;Node5 -->
<g id="edge8" class="edge">
<title>Node9&#45;&gt;Node5</title>
<path fill="none" stroke="#9a32cd" stroke-dasharray="5,2" d="M189.5904,-247.9803C180.5052,-235.2989 168.7019,-218.8235 161.3645,-208.5817"/>
<polygon fill="#9a32cd" stroke="#9a32cd" points="186.9537,-250.3097 195.6228,-256.4005 192.6441,-246.233 186.9537,-250.3097"/>
<text text-anchor="middle" x="210" y="-230" font-family="Helvetica,sans-Serif" font-size="10.00" fill="#000000"> m_spthermo</text>
</g>
</g>
</svg>
