<?xml version="1.0" encoding="UTF-8" standalone="no"?>
<!DOCTYPE svg PUBLIC "-//W3C//DTD SVG 1.1//EN"
 "http://www.w3.org/Graphics/SVG/1.1/DTD/svg11.dtd">
<!-- Generated by graphviz version 2.40.1 (20161225.0304)
 -->
<!-- Title: IonGasTransport.cpp Pages: 1 -->
<svg width="634pt" height="375pt"
 viewBox="0.00 0.00 634.14 375.00" xmlns="http://www.w3.org/2000/svg" xmlns:xlink="http://www.w3.org/1999/xlink">
<g id="graph0" class="graph" transform="scale(1 1) rotate(0) translate(4 371)">
<title>IonGasTransport.cpp</title>
<polygon fill="#ffffff" stroke="transparent" points="-4,4 -4,-371 630.1372,-371 630.1372,4 -4,4"/>
<!-- Node0 -->
<g id="node1" class="node">
<title>Node0</title>
<polygon fill="#bfbfbf" stroke="#000000" points="349.1372,-347.5 349.1372,-366.5 459.1372,-366.5 459.1372,-347.5 349.1372,-347.5"/>
<text text-anchor="middle" x="404.1372" y="-354.5" font-family="Helvetica,sans-Serif" font-size="10.00" fill="#000000">IonGasTransport.cpp</text>
</g>
<!-- Node1 -->
<g id="node2" class="node">
<title>Node1</title>
<g id="a_node2"><a xlink:href="../../d8/d57/IonGasTransport_8h.html" target="_top" xlink:title="cantera/transport/IonGas\lTransport.h">
<polygon fill="#ffffff" stroke="#000000" points="277.6372,-280.5 277.6372,-310.5 404.6372,-310.5 404.6372,-280.5 277.6372,-280.5"/>
<text text-anchor="start" x="285.6372" y="-298.5" font-family="Helvetica,sans-Serif" font-size="10.00" fill="#000000">cantera/transport/IonGas</text>
<text text-anchor="middle" x="341.1372" y="-287.5" font-family="Helvetica,sans-Serif" font-size="10.00" fill="#000000">Transport.h</text>
</a>
</g>
</g>
<!-- Node0&#45;&gt;Node1 -->
<g id="edge1" class="edge">
<title>Node0&#45;&gt;Node1</title>
<path fill="none" stroke="#191970" d="M394.2935,-347.3906C386.1619,-339.4527 374.2986,-327.8718 363.8413,-317.6635"/>
<polygon fill="#191970" stroke="#191970" points="366.1494,-315.0255 356.5487,-310.5446 361.2596,-320.0345 366.1494,-315.0255"/>
</g>
<!-- Node41 -->
<g id="node9" class="node">
<title>Node41</title>
<g id="a_node9"><a xlink:href="../../d7/dcd/polyfit_8h.html" target="_top" xlink:title="cantera/numerics/polyfit.h">
<polygon fill="#ffffff" stroke="#000000" points="496.1372,-224.5 496.1372,-243.5 626.1372,-243.5 626.1372,-224.5 496.1372,-224.5"/>
<text text-anchor="middle" x="561.1372" y="-231.5" font-family="Helvetica,sans-Serif" font-size="10.00" fill="#000000">cantera/numerics/polyfit.h</text>
</a>
</g>
</g>
<!-- Node0&#45;&gt;Node41 -->
<g id="edge9" class="edge">
<title>Node0&#45;&gt;Node41</title>
<path fill="none" stroke="#191970" d="M450.085,-347.4517C473.8572,-340.5938 502.0264,-329.2467 522.1372,-311 539.3232,-295.407 549.9881,-270.5026 555.7325,-253.258"/>
<polygon fill="#191970" stroke="#191970" points="559.0893,-254.2496 558.6877,-243.6624 552.3994,-252.1892 559.0893,-254.2496"/>
</g>
<!-- Node42 -->
<g id="node10" class="node">
<title>Node42</title>
<g id="a_node10"><a xlink:href="../../dd/dc3/stringUtils_8h.html" target="_top" xlink:title="Contains declarations for string manipulation functions within Cantera. ">
<polygon fill="#ffffff" stroke="#000000" points="40.6372,-168.5 40.6372,-187.5 169.6372,-187.5 169.6372,-168.5 40.6372,-168.5"/>
<text text-anchor="middle" x="105.1372" y="-175.5" font-family="Helvetica,sans-Serif" font-size="10.00" fill="#000000">cantera/base/stringUtils.h</text>
</a>
</g>
</g>
<!-- Node0&#45;&gt;Node42 -->
<g id="edge11" class="edge">
<title>Node0&#45;&gt;Node42</title>
<path fill="none" stroke="#191970" d="M363.8787,-347.4663C335.9434,-339.8906 298.4539,-327.7703 268.1372,-311 208.7971,-278.1748 149.7902,-223.0023 121.848,-195.1657"/>
<polygon fill="#191970" stroke="#191970" points="124.0383,-192.4039 114.5109,-187.7692 119.0686,-197.3336 124.0383,-192.4039"/>
</g>
<!-- Node43 -->
<g id="node12" class="node">
<title>Node43</title>
<g id="a_node12"><a xlink:href="../../df/df6/MMCollisionInt_8h.html" target="_top" xlink:title="Monk and Monchick collision integrals. ">
<polygon fill="#ffffff" stroke="#000000" points="423.1372,-286 423.1372,-305 513.1372,-305 513.1372,-286 423.1372,-286"/>
<text text-anchor="middle" x="468.1372" y="-293" font-family="Helvetica,sans-Serif" font-size="10.00" fill="#000000">MMCollisionInt.h</text>
</a>
</g>
</g>
<!-- Node0&#45;&gt;Node43 -->
<g id="edge16" class="edge">
<title>Node0&#45;&gt;Node43</title>
<path fill="none" stroke="#191970" d="M414.1372,-347.3906C423.8491,-338.0581 438.8011,-323.6902 450.5113,-312.4374"/>
<polygon fill="#191970" stroke="#191970" points="453.2108,-314.6974 457.9962,-305.2449 448.3606,-309.65 453.2108,-314.6974"/>
</g>
<!-- Node2 -->
<g id="node3" class="node">
<title>Node2</title>
<g id="a_node3"><a xlink:href="../../d5/d57/MixTransport_8h.html" target="_top" xlink:title="Headers for the MixTransport object, which models transport properties in ideal gas solutions using a...">
<polygon fill="#ffffff" stroke="#000000" points="299.6372,-224.5 299.6372,-243.5 382.6372,-243.5 382.6372,-224.5 299.6372,-224.5"/>
<text text-anchor="middle" x="341.1372" y="-231.5" font-family="Helvetica,sans-Serif" font-size="10.00" fill="#000000">MixTransport.h</text>
</a>
</g>
</g>
<!-- Node1&#45;&gt;Node2 -->
<g id="edge2" class="edge">
<title>Node1&#45;&gt;Node2</title>
<path fill="none" stroke="#191970" d="M341.1372,-280.2977C341.1372,-272.3834 341.1372,-262.6043 341.1372,-254.0759"/>
<polygon fill="#191970" stroke="#191970" points="344.6373,-253.8469 341.1372,-243.8469 337.6373,-253.847 344.6373,-253.8469"/>
</g>
<!-- Node3 -->
<g id="node4" class="node">
<title>Node3</title>
<g id="a_node4"><a xlink:href="../../d1/d2e/GasTransport_8h.html" target="_top" xlink:title="GasTransport.h">
<polygon fill="#ffffff" stroke="#000000" points="246.1372,-168.5 246.1372,-187.5 332.1372,-187.5 332.1372,-168.5 246.1372,-168.5"/>
<text text-anchor="middle" x="289.1372" y="-175.5" font-family="Helvetica,sans-Serif" font-size="10.00" fill="#000000">GasTransport.h</text>
</a>
</g>
</g>
<!-- Node2&#45;&gt;Node3 -->
<g id="edge3" class="edge">
<title>Node2&#45;&gt;Node3</title>
<path fill="none" stroke="#191970" d="M332.0795,-224.2455C324.623,-216.2155 313.8738,-204.6394 304.9955,-195.0781"/>
<polygon fill="#191970" stroke="#191970" points="307.4604,-192.589 298.0911,-187.6427 302.3309,-197.3522 307.4604,-192.589"/>
</g>
<!-- Node34 -->
<g id="node6" class="node">
<title>Node34</title>
<g id="a_node6"><a xlink:href="../../d1/df7/DenseMatrix_8h.html" target="_top" xlink:title="Headers for the DenseMatrix object, which deals with dense rectangular matrices and description of th...">
<polygon fill="#ffffff" stroke="#ff0000" points="280.1372,-112.5 280.1372,-131.5 440.1372,-131.5 440.1372,-112.5 280.1372,-112.5"/>
<text text-anchor="middle" x="360.1372" y="-119.5" font-family="Helvetica,sans-Serif" font-size="10.00" fill="#000000">cantera/numerics/DenseMatrix.h</text>
</a>
</g>
</g>
<!-- Node2&#45;&gt;Node34 -->
<g id="edge8" class="edge">
<title>Node2&#45;&gt;Node34</title>
<path fill="none" stroke="#191970" d="M342.7571,-224.4509C345.856,-206.184 352.6805,-165.9553 356.7956,-141.6976"/>
<polygon fill="#191970" stroke="#191970" points="360.2995,-141.9694 358.5214,-131.5249 353.3981,-140.7986 360.2995,-141.9694"/>
</g>
<!-- Node4 -->
<g id="node5" class="node">
<title>Node4</title>
<g id="a_node5"><a xlink:href="../../da/dbb/TransportBase_8h.html" target="_top" xlink:title="Headers for the Transport object, which is the virtual base class for all transport property evaluato...">
<polygon fill="#ffffff" stroke="#ff0000" points="172.1372,-112.5 172.1372,-131.5 262.1372,-131.5 262.1372,-112.5 172.1372,-112.5"/>
<text text-anchor="middle" x="217.1372" y="-119.5" font-family="Helvetica,sans-Serif" font-size="10.00" fill="#000000">TransportBase.h</text>
</a>
</g>
</g>
<!-- Node3&#45;&gt;Node4 -->
<g id="edge4" class="edge">
<title>Node3&#45;&gt;Node4</title>
<path fill="none" stroke="#191970" d="M276.5958,-168.2455C265.8585,-159.8943 250.1899,-147.7076 237.6325,-137.9408"/>
<polygon fill="#191970" stroke="#191970" points="239.5773,-135.0194 229.5349,-131.6427 235.2797,-140.5449 239.5773,-135.0194"/>
</g>
<!-- Node3&#45;&gt;Node34 -->
<g id="edge5" class="edge">
<title>Node3&#45;&gt;Node34</title>
<path fill="none" stroke="#191970" d="M301.5045,-168.2455C312.0926,-159.8943 327.5436,-147.7076 339.9265,-137.9408"/>
<polygon fill="#191970" stroke="#191970" points="342.2275,-140.5837 347.9117,-131.6427 337.8925,-135.0875 342.2275,-140.5837"/>
</g>
<!-- Node9 -->
<g id="node7" class="node">
<title>Node9</title>
<g id="a_node7"><a xlink:href="../../d9/ddc/ct__defs_8h.html" target="_top" xlink:title="This file contains definitions of terms that are used in internal routines and are unlikely to need m...">
<polygon fill="#ffffff" stroke="#ff0000" points="223.6372,-56.5 223.6372,-75.5 280.6372,-75.5 280.6372,-56.5 223.6372,-56.5"/>
<text text-anchor="middle" x="252.1372" y="-63.5" font-family="Helvetica,sans-Serif" font-size="10.00" fill="#000000">ct_defs.h</text>
</a>
</g>
</g>
<!-- Node34&#45;&gt;Node9 -->
<g id="edge6" class="edge">
<title>Node34&#45;&gt;Node9</title>
<path fill="none" stroke="#191970" d="M341.325,-112.2455C324.2899,-103.4125 298.9797,-90.2887 279.6691,-80.2758"/>
<polygon fill="#191970" stroke="#191970" points="281.2225,-77.1388 270.7338,-75.6427 278.0002,-83.353 281.2225,-77.1388"/>
</g>
<!-- Node15 -->
<g id="node8" class="node">
<title>Node15</title>
<polygon fill="#ffffff" stroke="#bfbfbf" points="45.6372,-.5 45.6372,-19.5 86.6372,-19.5 86.6372,-.5 45.6372,-.5"/>
<text text-anchor="middle" x="66.1372" y="-7.5" font-family="Helvetica,sans-Serif" font-size="10.00" fill="#000000">string</text>
</g>
<!-- Node9&#45;&gt;Node15 -->
<g id="edge7" class="edge">
<title>Node9&#45;&gt;Node15</title>
<path fill="none" stroke="#191970" d="M223.4823,-57.3727C189.0728,-47.0129 131.6127,-29.713 96.4724,-19.1332"/>
<polygon fill="#191970" stroke="#191970" points="97.3467,-15.7413 86.7622,-16.2097 95.3286,-22.4441 97.3467,-15.7413"/>
</g>
<!-- Node41&#45;&gt;Node9 -->
<g id="edge10" class="edge">
<title>Node41&#45;&gt;Node9</title>
<path fill="none" stroke="#191970" d="M557.8291,-224.1793C549.3562,-200.633 524.5071,-140.7866 482.1372,-112 451.4586,-91.1566 347.9834,-76.685 290.8451,-70.0709"/>
<polygon fill="#191970" stroke="#191970" points="291.0735,-66.5745 280.7433,-68.9276 290.2862,-73.5301 291.0735,-66.5745"/>
</g>
<!-- Node42&#45;&gt;Node9 -->
<g id="edge12" class="edge">
<title>Node42&#45;&gt;Node9</title>
<path fill="none" stroke="#191970" d="M111.7176,-168.4739C121.6182,-154.6691 141.504,-128.9089 163.1372,-112 180.0186,-98.8052 201.2616,-87.6576 218.7597,-79.6423"/>
<polygon fill="#191970" stroke="#191970" points="220.3258,-82.7764 228.0441,-75.5185 217.4843,-76.3791 220.3258,-82.7764"/>
</g>
<!-- Node42&#45;&gt;Node15 -->
<g id="edge15" class="edge">
<title>Node42&#45;&gt;Node15</title>
<path fill="none" stroke="#191970" d="M60.2656,-168.4588C40.4124,-161.7646 18.929,-150.5612 7.1372,-132 -15.5172,-96.3404 22.6378,-50.6816 47.441,-26.5958"/>
<polygon fill="#191970" stroke="#191970" points="50.0294,-28.9668 54.9308,-19.5738 45.2417,-23.8601 50.0294,-28.9668"/>
</g>
<!-- Node8 -->
<g id="node11" class="node">
<title>Node8</title>
<g id="a_node11"><a xlink:href="../../db/def/fmt_8h.html" target="_top" xlink:title="Wrapper for either system&#45;installed or local headers for fmt. ">
<polygon fill="#ffffff" stroke="#ff0000" points="16.6372,-112.5 16.6372,-131.5 115.6372,-131.5 115.6372,-112.5 16.6372,-112.5"/>
<text text-anchor="middle" x="66.1372" y="-119.5" font-family="Helvetica,sans-Serif" font-size="10.00" fill="#000000">cantera/base/fmt.h</text>
</a>
</g>
</g>
<!-- Node42&#45;&gt;Node8 -->
<g id="edge13" class="edge">
<title>Node42&#45;&gt;Node8</title>
<path fill="none" stroke="#191970" d="M98.3439,-168.2455C92.9194,-160.4564 85.1711,-149.3308 78.6339,-139.9439"/>
<polygon fill="#191970" stroke="#191970" points="81.4397,-137.8485 72.8526,-131.6427 75.6955,-141.849 81.4397,-137.8485"/>
</g>
<!-- Node8&#45;&gt;Node9 -->
<g id="edge14" class="edge">
<title>Node8&#45;&gt;Node9</title>
<path fill="none" stroke="#191970" d="M98.1117,-112.3733C130.2539,-102.6961 179.8081,-87.7765 213.9851,-77.4867"/>
<polygon fill="#191970" stroke="#191970" points="215.0587,-80.8187 223.6251,-74.5843 213.0406,-74.1159 215.0587,-80.8187"/>
</g>
<!-- Node43&#45;&gt;Node9 -->
<g id="edge17" class="edge">
<title>Node43&#45;&gt;Node9</title>
<path fill="none" stroke="#191970" d="M470.6245,-285.6159C477.5976,-255.3548 494.0257,-162.9444 449.1372,-112 428.5553,-88.6413 342.0012,-75.5744 290.7204,-69.7473"/>
<polygon fill="#191970" stroke="#191970" points="290.9787,-66.2547 280.657,-68.645 290.2165,-73.2131 290.9787,-66.2547"/>
</g>
</g>
</svg>
