<?xml version="1.0" encoding="UTF-8" standalone="no"?>
<!DOCTYPE svg PUBLIC "-//W3C//DTD SVG 1.1//EN"
 "http://www.w3.org/Graphics/SVG/1.1/DTD/svg11.dtd">
<!-- Generated by graphviz version 2.40.1 (20161225.0304)
 -->
<!-- Title: ImplicitSurfChem.cpp Pages: 1 -->
<svg width="847pt" height="498pt"
 viewBox="0.00 0.00 846.50 498.00" xmlns="http://www.w3.org/2000/svg" xmlns:xlink="http://www.w3.org/1999/xlink">
<g id="graph0" class="graph" transform="scale(1 1) rotate(0) translate(4 494)">
<title>ImplicitSurfChem.cpp</title>
<polygon fill="#ffffff" stroke="transparent" points="-4,4 -4,-494 842.5,-494 842.5,4 -4,4"/>
<!-- Node0 -->
<g id="node1" class="node">
<title>Node0</title>
<polygon fill="#bfbfbf" stroke="#000000" points="316.5,-470.5 316.5,-489.5 428.5,-489.5 428.5,-470.5 316.5,-470.5"/>
<text text-anchor="middle" x="372.5" y="-477.5" font-family="Helvetica,sans-Serif" font-size="10.00" fill="#000000">ImplicitSurfChem.cpp</text>
</g>
<!-- Node1 -->
<g id="node2" class="node">
<title>Node1</title>
<g id="a_node2"><a xlink:href="../../da/d1f/ImplicitSurfChem_8h.html" target="_top" xlink:title="Declarations for the implicit integration of surface site density equations (see Kinetics Managers an...">
<polygon fill="#ffffff" stroke="#000000" points="312.5,-403.5 312.5,-433.5 432.5,-433.5 432.5,-403.5 312.5,-403.5"/>
<text text-anchor="start" x="320.5" y="-421.5" font-family="Helvetica,sans-Serif" font-size="10.00" fill="#000000">cantera/kinetics/Implicit</text>
<text text-anchor="middle" x="372.5" y="-410.5" font-family="Helvetica,sans-Serif" font-size="10.00" fill="#000000">SurfChem.h</text>
</a>
</g>
</g>
<!-- Node0&#45;&gt;Node1 -->
<g id="edge1" class="edge">
<title>Node0&#45;&gt;Node1</title>
<path fill="none" stroke="#191970" d="M372.5,-470.3906C372.5,-463.2234 372.5,-453.0862 372.5,-443.671"/>
<polygon fill="#191970" stroke="#191970" points="376.0001,-443.5446 372.5,-433.5446 369.0001,-443.5446 376.0001,-443.5446"/>
</g>
<!-- Node46 -->
<g id="node16" class="node">
<title>Node46</title>
<g id="a_node16"><a xlink:href="../../d2/d25/solveSP_8h.html" target="_top" xlink:title="Header file for implicit surface problem solver (see Chemical Kinetics and class solveSP). ">
<polygon fill="#ffffff" stroke="#000000" points="400.5,-347.5 400.5,-366.5 534.5,-366.5 534.5,-347.5 400.5,-347.5"/>
<text text-anchor="middle" x="467.5" y="-354.5" font-family="Helvetica,sans-Serif" font-size="10.00" fill="#000000">cantera/kinetics/solveSP.h</text>
</a>
</g>
</g>
<!-- Node0&#45;&gt;Node46 -->
<g id="edge33" class="edge">
<title>Node0&#45;&gt;Node46</title>
<path fill="none" stroke="#191970" d="M393.9612,-470.4095C409.19,-462.6016 429.0591,-450.2228 441.5,-434 454.3364,-417.2615 461.0473,-393.8132 464.4093,-377.2003"/>
<polygon fill="#191970" stroke="#191970" points="467.9259,-377.4168 466.236,-366.9576 461.0346,-376.1878 467.9259,-377.4168"/>
</g>
<!-- Node50 -->
<g id="node19" class="node">
<title>Node50</title>
<g id="a_node19"><a xlink:href="../../d2/de5/SurfPhase_8h.html" target="_top" xlink:title="Header for a simple thermodynamics model of a surface phase derived from ThermoPhase, assuming an ideal solution model (see Thermodynamic Properties and class SurfPhase). ">
<polygon fill="#ffffff" stroke="#000000" points="147.5,-347.5 147.5,-366.5 289.5,-366.5 289.5,-347.5 147.5,-347.5"/>
<text text-anchor="middle" x="218.5" y="-354.5" font-family="Helvetica,sans-Serif" font-size="10.00" fill="#000000">cantera/thermo/SurfPhase.h</text>
</a>
</g>
</g>
<!-- Node0&#45;&gt;Node50 -->
<g id="edge34" class="edge">
<title>Node0&#45;&gt;Node50</title>
<path fill="none" stroke="#191970" d="M356.6958,-470.4025C342.4051,-461.5072 320.9878,-447.6293 303.5,-434 278.6661,-414.6454 252.0813,-389.8233 235.3833,-373.6721"/>
<polygon fill="#191970" stroke="#191970" points="237.6341,-370.9783 228.0313,-366.5019 232.7466,-375.9896 237.6341,-370.9783"/>
</g>
<!-- Node2 -->
<g id="node3" class="node">
<title>Node2</title>
<g id="a_node3"><a xlink:href="../../d8/d97/Integrator_8h.html" target="_top" xlink:title="cantera/numerics/Integrator.h">
<polygon fill="#ffffff" stroke="#000000" points="0,-168.5 0,-187.5 147,-187.5 147,-168.5 0,-168.5"/>
<text text-anchor="middle" x="73.5" y="-175.5" font-family="Helvetica,sans-Serif" font-size="10.00" fill="#000000">cantera/numerics/Integrator.h</text>
</a>
</g>
</g>
<!-- Node1&#45;&gt;Node2 -->
<g id="edge2" class="edge">
<title>Node1&#45;&gt;Node2</title>
<path fill="none" stroke="#191970" d="M357.9866,-403.4228C343.423,-388.5507 320.1108,-365.4333 298.5,-347 227.3383,-286.3014 136.7733,-221.8701 95.6273,-193.2376"/>
<polygon fill="#191970" stroke="#191970" points="97.6073,-190.3515 87.3954,-187.5287 93.6181,-196.1036 97.6073,-190.3515"/>
</g>
<!-- Node19 -->
<g id="node8" class="node">
<title>Node19</title>
<g id="a_node8"><a xlink:href="../../d7/d0d/InterfaceKinetics_8h.html" target="_top" xlink:title="cantera/kinetics/Interface\lKinetics.h">
<polygon fill="#ffffff" stroke="#000000" points="403.5,-280.5 403.5,-310.5 531.5,-310.5 531.5,-280.5 403.5,-280.5"/>
<text text-anchor="start" x="411.5" y="-298.5" font-family="Helvetica,sans-Serif" font-size="10.00" fill="#000000">cantera/kinetics/Interface</text>
<text text-anchor="middle" x="467.5" y="-287.5" font-family="Helvetica,sans-Serif" font-size="10.00" fill="#000000">Kinetics.h</text>
</a>
</g>
</g>
<!-- Node1&#45;&gt;Node19 -->
<g id="edge9" class="edge">
<title>Node1&#45;&gt;Node19</title>
<path fill="none" stroke="#191970" d="M373.4612,-403.2344C375.099,-387.7933 379.5272,-363.8602 391.5,-347 400.4225,-334.4353 413.4463,-324.0153 426.2007,-315.9123"/>
<polygon fill="#191970" stroke="#191970" points="428.158,-318.8196 434.9339,-310.6748 424.5577,-312.8164 428.158,-318.8196"/>
</g>
<!-- Node1&#45;&gt;Node46 -->
<g id="edge26" class="edge">
<title>Node1&#45;&gt;Node46</title>
<path fill="none" stroke="#191970" d="M395.9832,-403.2977C410.6348,-393.8127 429.4236,-381.6495 444.0659,-372.1705"/>
<polygon fill="#191970" stroke="#191970" points="446.0805,-375.0357 452.573,-366.6633 442.2764,-369.1596 446.0805,-375.0357"/>
</g>
<!-- Node3 -->
<g id="node4" class="node">
<title>Node3</title>
<g id="a_node4"><a xlink:href="../../da/d37/FuncEval_8h.html" target="_top" xlink:title="FuncEval.h">
<polygon fill="#ffffff" stroke="#000000" points="144,-112.5 144,-131.5 211,-131.5 211,-112.5 144,-112.5"/>
<text text-anchor="middle" x="177.5" y="-119.5" font-family="Helvetica,sans-Serif" font-size="10.00" fill="#000000">FuncEval.h</text>
</a>
</g>
</g>
<!-- Node2&#45;&gt;Node3 -->
<g id="edge3" class="edge">
<title>Node2&#45;&gt;Node3</title>
<path fill="none" stroke="#191970" d="M91.6154,-168.2455C107.945,-159.4527 132.171,-146.4079 150.7339,-136.4125"/>
<polygon fill="#191970" stroke="#191970" points="152.4468,-139.4654 159.5922,-131.6427 149.1281,-133.3021 152.4468,-139.4654"/>
</g>
<!-- Node18 -->
<g id="node7" class="node">
<title>Node18</title>
<g id="a_node7"><a xlink:href="../../d2/d49/global_8h.html" target="_top" xlink:title="This file contains definitions for utility functions and text for modules, inputfiles, logs, textlogs, (see Input File Handling, Diagnostic Output, and Writing messages to the screen). ">
<polygon fill="#ffffff" stroke="#ff0000" points="240.5,-56.5 240.5,-75.5 352.5,-75.5 352.5,-56.5 240.5,-56.5"/>
<text text-anchor="middle" x="296.5" y="-63.5" font-family="Helvetica,sans-Serif" font-size="10.00" fill="#000000">cantera/base/global.h</text>
</a>
</g>
</g>
<!-- Node2&#45;&gt;Node18 -->
<g id="edge8" class="edge">
<title>Node2&#45;&gt;Node18</title>
<path fill="none" stroke="#191970" d="M119.8273,-168.4772C149.5367,-161.1698 188.251,-149.3534 219.5,-132 242.8775,-119.0178 265.6179,-98.21 280.2492,-83.431"/>
<polygon fill="#191970" stroke="#191970" points="283.0659,-85.5529 287.496,-75.9287 278.0311,-80.6896 283.0659,-85.5529"/>
</g>
<!-- Node4 -->
<g id="node5" class="node">
<title>Node4</title>
<g id="a_node5"><a xlink:href="../../d9/ddc/ct__defs_8h.html" target="_top" xlink:title="This file contains definitions of terms that are used in internal routines and are unlikely to need m...">
<polygon fill="#ffffff" stroke="#ff0000" points="409.5,-.5 409.5,-19.5 527.5,-19.5 527.5,-.5 409.5,-.5"/>
<text text-anchor="middle" x="468.5" y="-7.5" font-family="Helvetica,sans-Serif" font-size="10.00" fill="#000000">cantera/base/ct_defs.h</text>
</a>
</g>
</g>
<!-- Node3&#45;&gt;Node4 -->
<g id="edge4" class="edge">
<title>Node3&#45;&gt;Node4</title>
<path fill="none" stroke="#191970" d="M182.6289,-112.1072C190.8328,-97.3459 208.3669,-69.816 231.5,-56 259.266,-39.417 339.6804,-26.1111 399.1781,-18.1574"/>
<polygon fill="#191970" stroke="#191970" points="399.8206,-21.6032 409.2798,-16.8311 398.9093,-14.6627 399.8206,-21.6032"/>
</g>
<!-- Node13 -->
<g id="node6" class="node">
<title>Node13</title>
<g id="a_node6"><a xlink:href="../../db/d98/ctexceptions_8h.html" target="_top" xlink:title="Definitions for the classes that are thrown when Cantera experiences an error condition (also contain...">
<polygon fill="#ffffff" stroke="#ff0000" points="403,-56.5 403,-75.5 544,-75.5 544,-56.5 403,-56.5"/>
<text text-anchor="middle" x="473.5" y="-63.5" font-family="Helvetica,sans-Serif" font-size="10.00" fill="#000000">cantera/base/ctexceptions.h</text>
</a>
</g>
</g>
<!-- Node3&#45;&gt;Node13 -->
<g id="edge5" class="edge">
<title>Node3&#45;&gt;Node13</title>
<path fill="none" stroke="#191970" d="M211.1668,-115.6306C260.2559,-106.3435 352.2523,-88.9387 413.2038,-77.4074"/>
<polygon fill="#191970" stroke="#191970" points="413.9069,-80.8365 423.082,-75.5385 412.6056,-73.9585 413.9069,-80.8365"/>
</g>
<!-- Node3&#45;&gt;Node18 -->
<g id="edge6" class="edge">
<title>Node3&#45;&gt;Node18</title>
<path fill="none" stroke="#191970" d="M197.9568,-112.3733C216.9738,-103.4241 245.5175,-89.9917 266.9976,-79.8835"/>
<polygon fill="#191970" stroke="#191970" points="268.7522,-82.926 276.3101,-75.5011 265.7716,-76.5923 268.7522,-82.926"/>
</g>
<!-- Node18&#45;&gt;Node4 -->
<g id="edge7" class="edge">
<title>Node18&#45;&gt;Node4</title>
<path fill="none" stroke="#191970" d="M326.0679,-56.3733C354.6688,-47.0613 398.1788,-32.8953 429.5819,-22.671"/>
<polygon fill="#191970" stroke="#191970" points="430.8928,-25.9251 439.318,-19.5011 428.7257,-19.269 430.8928,-25.9251"/>
</g>
<!-- Node20 -->
<g id="node9" class="node">
<title>Node20</title>
<g id="a_node9"><a xlink:href="../../d5/db4/Kinetics_8h.html" target="_top" xlink:title="Base class for kinetics managers and also contains the kineticsmgr module documentation (see Kinetics...">
<polygon fill="#ffffff" stroke="#000000" points="345.5,-224.5 345.5,-243.5 405.5,-243.5 405.5,-224.5 345.5,-224.5"/>
<text text-anchor="middle" x="375.5" y="-231.5" font-family="Helvetica,sans-Serif" font-size="10.00" fill="#000000">Kinetics.h</text>
</a>
</g>
</g>
<!-- Node19&#45;&gt;Node20 -->
<g id="edge10" class="edge">
<title>Node19&#45;&gt;Node20</title>
<path fill="none" stroke="#191970" d="M444.7584,-280.2977C430.7033,-270.9022 412.717,-258.8787 398.5964,-249.4395"/>
<polygon fill="#191970" stroke="#191970" points="400.2143,-246.311 389.9556,-243.6633 396.3241,-252.1305 400.2143,-246.311"/>
</g>
<!-- Node37 -->
<g id="node12" class="node">
<title>Node37</title>
<g id="a_node12"><a xlink:href="../../d8/d5d/Reaction_8h.html" target="_top" xlink:title="cantera/kinetics/Reaction.h">
<polygon fill="#ffffff" stroke="#ff0000" points="456,-168.5 456,-187.5 593,-187.5 593,-168.5 456,-168.5"/>
<text text-anchor="middle" x="524.5" y="-175.5" font-family="Helvetica,sans-Serif" font-size="10.00" fill="#000000">cantera/kinetics/Reaction.h</text>
</a>
</g>
</g>
<!-- Node19&#45;&gt;Node37 -->
<g id="edge22" class="edge">
<title>Node19&#45;&gt;Node37</title>
<path fill="none" stroke="#191970" d="M488.9134,-280.3892C500.0817,-271.2354 512.7836,-258.5326 519.5,-244 526.1286,-229.6573 527.0791,-211.6817 526.5387,-198.1134"/>
<polygon fill="#191970" stroke="#191970" points="530.0157,-197.6604 525.8261,-187.9291 523.0327,-198.1491 530.0157,-197.6604"/>
</g>
<!-- Node38 -->
<g id="node13" class="node">
<title>Node38</title>
<g id="a_node13"><a xlink:href="../../de/df0/utilities_8h.html" target="_top" xlink:title="Various templated functions that carry out common vector operations (see Templated Utility Functions)...">
<polygon fill="#ffffff" stroke="#ff0000" points="613.5,-112.5 613.5,-131.5 729.5,-131.5 729.5,-112.5 613.5,-112.5"/>
<text text-anchor="middle" x="671.5" y="-119.5" font-family="Helvetica,sans-Serif" font-size="10.00" fill="#000000">cantera/base/utilities.h</text>
</a>
</g>
</g>
<!-- Node19&#45;&gt;Node38 -->
<g id="edge23" class="edge">
<title>Node19&#45;&gt;Node38</title>
<path fill="none" stroke="#191970" d="M488.6238,-280.3241C502.4327,-270.2597 520.7603,-256.6286 536.5,-244 580.7443,-208.501 629.3407,-162.7775 654.4154,-138.6388"/>
<polygon fill="#191970" stroke="#191970" points="656.9386,-141.0677 661.6947,-131.6003 652.0727,-136.0354 656.9386,-141.0677"/>
</g>
<!-- Node45 -->
<g id="node15" class="node">
<title>Node45</title>
<g id="a_node15"><a xlink:href="../../d4/d81/RateCoeffMgr_8h.html" target="_top" xlink:title="RateCoeffMgr.h">
<polygon fill="#ffffff" stroke="#000000" points="424,-224.5 424,-243.5 511,-243.5 511,-224.5 424,-224.5"/>
<text text-anchor="middle" x="467.5" y="-231.5" font-family="Helvetica,sans-Serif" font-size="10.00" fill="#000000">RateCoeffMgr.h</text>
</a>
</g>
</g>
<!-- Node19&#45;&gt;Node45 -->
<g id="edge24" class="edge">
<title>Node19&#45;&gt;Node45</title>
<path fill="none" stroke="#191970" d="M467.5,-280.2977C467.5,-272.3834 467.5,-262.6043 467.5,-254.0759"/>
<polygon fill="#191970" stroke="#191970" points="471.0001,-253.8469 467.5,-243.8469 464.0001,-253.847 471.0001,-253.8469"/>
</g>
<!-- Node20&#45;&gt;Node18 -->
<g id="edge21" class="edge">
<title>Node20&#45;&gt;Node18</title>
<path fill="none" stroke="#191970" d="M371.0263,-224.4862C358.4301,-197.6994 322.4837,-121.2565 305.5422,-85.2289"/>
<polygon fill="#191970" stroke="#191970" points="308.5442,-83.3879 301.1214,-75.8279 302.2096,-86.3667 308.5442,-83.3879"/>
</g>
<!-- Node21 -->
<g id="node10" class="node">
<title>Node21</title>
<g id="a_node10"><a xlink:href="../../d7/d01/ThermoPhase_8h.html" target="_top" xlink:title="Header file for class ThermoPhase, the base class for phases with thermodynamic properties, and the text for the Module thermoprops (see Thermodynamic Properties and class ThermoPhase). ">
<polygon fill="#ffffff" stroke="#ff0000" points="165.5,-168.5 165.5,-187.5 323.5,-187.5 323.5,-168.5 165.5,-168.5"/>
<text text-anchor="middle" x="244.5" y="-175.5" font-family="Helvetica,sans-Serif" font-size="10.00" fill="#000000">cantera/thermo/ThermoPhase.h</text>
</a>
</g>
</g>
<!-- Node20&#45;&gt;Node21 -->
<g id="edge11" class="edge">
<title>Node20&#45;&gt;Node21</title>
<path fill="none" stroke="#191970" d="M352.9803,-224.3733C331.7628,-215.3032 299.7724,-201.6279 276.0231,-191.4755"/>
<polygon fill="#191970" stroke="#191970" points="277.2967,-188.2136 266.7258,-187.5011 274.5452,-194.6502 277.2967,-188.2136"/>
</g>
<!-- Node35 -->
<g id="node11" class="node">
<title>Node35</title>
<g id="a_node11"><a xlink:href="../../dd/dfd/StoichManager_8h.html" target="_top" xlink:title="StoichManager.h">
<polygon fill="#ffffff" stroke="#ff0000" points="343.5,-112.5 343.5,-131.5 435.5,-131.5 435.5,-112.5 343.5,-112.5"/>
<text text-anchor="middle" x="389.5" y="-119.5" font-family="Helvetica,sans-Serif" font-size="10.00" fill="#000000">StoichManager.h</text>
</a>
</g>
</g>
<!-- Node20&#45;&gt;Node35 -->
<g id="edge13" class="edge">
<title>Node20&#45;&gt;Node35</title>
<path fill="none" stroke="#191970" d="M376.6936,-224.4509C378.977,-206.184 384.0056,-165.9553 387.0378,-141.6976"/>
<polygon fill="#191970" stroke="#191970" points="390.5419,-141.8818 388.3094,-131.5249 383.596,-141.0135 390.5419,-141.8818"/>
</g>
<!-- Node20&#45;&gt;Node37 -->
<g id="edge15" class="edge">
<title>Node20&#45;&gt;Node37</title>
<path fill="none" stroke="#191970" d="M401.114,-224.3733C425.5687,-215.1822 462.6054,-201.2624 489.7209,-191.0713"/>
<polygon fill="#191970" stroke="#191970" points="491.0909,-194.2956 499.2202,-187.5011 488.6281,-187.7431 491.0909,-194.2956"/>
</g>
<!-- Node21&#45;&gt;Node18 -->
<g id="edge12" class="edge">
<title>Node21&#45;&gt;Node18</title>
<path fill="none" stroke="#191970" d="M248.9335,-168.4509C257.5297,-149.936 276.6011,-108.8591 287.8092,-84.7187"/>
<polygon fill="#191970" stroke="#191970" points="291.0411,-86.0689 292.0777,-75.5249 284.692,-83.1211 291.0411,-86.0689"/>
</g>
<!-- Node35&#45;&gt;Node13 -->
<g id="edge14" class="edge">
<title>Node35&#45;&gt;Node13</title>
<path fill="none" stroke="#191970" d="M404.1317,-112.2455C416.8994,-103.7337 435.6438,-91.2375 450.4299,-81.3801"/>
<polygon fill="#191970" stroke="#191970" points="452.6569,-84.1019 459.036,-75.6427 448.774,-78.2775 452.6569,-84.1019"/>
</g>
<!-- Node37&#45;&gt;Node38 -->
<g id="edge16" class="edge">
<title>Node37&#45;&gt;Node38</title>
<path fill="none" stroke="#191970" d="M549.7702,-168.3733C573.8966,-159.1822 610.4362,-145.2624 637.1877,-135.0713"/>
<polygon fill="#191970" stroke="#191970" points="638.4607,-138.3318 646.5596,-131.5011 635.9687,-131.7904 638.4607,-138.3318"/>
</g>
<!-- Node41 -->
<g id="node14" class="node">
<title>Node41</title>
<g id="a_node14"><a xlink:href="../../da/d70/RxnRates_8h.html" target="_top" xlink:title="cantera/kinetics/RxnRates.h">
<polygon fill="#ffffff" stroke="#ff0000" points="454,-112.5 454,-131.5 595,-131.5 595,-112.5 454,-112.5"/>
<text text-anchor="middle" x="524.5" y="-119.5" font-family="Helvetica,sans-Serif" font-size="10.00" fill="#000000">cantera/kinetics/RxnRates.h</text>
</a>
</g>
</g>
<!-- Node37&#45;&gt;Node41 -->
<g id="edge19" class="edge">
<title>Node37&#45;&gt;Node41</title>
<path fill="none" stroke="#191970" d="M524.5,-168.2455C524.5,-160.9382 524.5,-150.6944 524.5,-141.7046"/>
<polygon fill="#191970" stroke="#191970" points="528.0001,-141.6426 524.5,-131.6427 521.0001,-141.6427 528.0001,-141.6426"/>
</g>
<!-- Node38&#45;&gt;Node4 -->
<g id="edge17" class="edge">
<title>Node38&#45;&gt;Node4</title>
<path fill="none" stroke="#191970" d="M654.1734,-112.3522C631.0218,-99.4695 588.7082,-75.9549 552.5,-56 533.3887,-45.4675 511.7955,-33.6443 495.2881,-24.622"/>
<polygon fill="#191970" stroke="#191970" points="496.6674,-21.3874 486.2136,-19.6645 493.3113,-27.5304 496.6674,-21.3874"/>
</g>
<!-- Node38&#45;&gt;Node18 -->
<g id="edge18" class="edge">
<title>Node38&#45;&gt;Node18</title>
<path fill="none" stroke="#191970" d="M613.3177,-113.3114C545.5719,-103.1947 433.9121,-86.5202 362.8515,-75.9085"/>
<polygon fill="#191970" stroke="#191970" points="363.0791,-72.4037 352.6718,-74.3883 362.0451,-79.327 363.0791,-72.4037"/>
</g>
<!-- Node41&#45;&gt;Node13 -->
<g id="edge20" class="edge">
<title>Node41&#45;&gt;Node13</title>
<path fill="none" stroke="#191970" d="M515.6165,-112.2455C508.3034,-104.2155 497.7609,-92.6394 489.0533,-83.0781"/>
<polygon fill="#191970" stroke="#191970" points="491.6028,-80.6795 482.2817,-75.6427 486.4273,-85.3928 491.6028,-80.6795"/>
</g>
<!-- Node45&#45;&gt;Node41 -->
<g id="edge25" class="edge">
<title>Node45&#45;&gt;Node41</title>
<path fill="none" stroke="#191970" d="M459.5542,-224.0761C449.8654,-210.6805 436.0034,-186.3763 446.5,-168 454.8154,-153.4424 469.738,-143.0309 484.3203,-135.8375"/>
<polygon fill="#191970" stroke="#191970" points="486.1085,-138.8703 493.7809,-131.5638 483.2267,-132.491 486.1085,-138.8703"/>
</g>
<!-- Node46&#45;&gt;Node19 -->
<g id="edge27" class="edge">
<title>Node46&#45;&gt;Node19</title>
<path fill="none" stroke="#191970" d="M467.5,-347.3906C467.5,-340.2234 467.5,-330.0862 467.5,-320.671"/>
<polygon fill="#191970" stroke="#191970" points="471.0001,-320.5446 467.5,-310.5446 464.0001,-320.5446 471.0001,-320.5446"/>
</g>
<!-- Node47 -->
<g id="node17" class="node">
<title>Node47</title>
<g id="a_node17"><a xlink:href="../../d1/df7/DenseMatrix_8h.html" target="_top" xlink:title="Headers for the DenseMatrix object, which deals with dense rectangular matrices and description of th...">
<polygon fill="#ffffff" stroke="#000000" points="678.5,-224.5 678.5,-243.5 838.5,-243.5 838.5,-224.5 678.5,-224.5"/>
<text text-anchor="middle" x="758.5" y="-231.5" font-family="Helvetica,sans-Serif" font-size="10.00" fill="#000000">cantera/numerics/DenseMatrix.h</text>
</a>
</g>
</g>
<!-- Node46&#45;&gt;Node47 -->
<g id="edge28" class="edge">
<title>Node46&#45;&gt;Node47</title>
<path fill="none" stroke="#191970" d="M490.3343,-347.3484C541.8637,-325.5679 667.2872,-272.5538 726.5191,-247.5177"/>
<polygon fill="#191970" stroke="#191970" points="727.9235,-250.724 735.7718,-243.6068 725.1981,-244.2763 727.9235,-250.724"/>
</g>
<!-- Node47&#45;&gt;Node4 -->
<g id="edge29" class="edge">
<title>Node47&#45;&gt;Node4</title>
<path fill="none" stroke="#191970" d="M765.3208,-224.328C771.1826,-215.3825 779.1966,-201.4728 782.5,-188 790.7912,-154.1843 788.0481,-136.6908 763.5,-112 702.8096,-50.9568 603.8572,-26.3962 537.4916,-16.5461"/>
<polygon fill="#191970" stroke="#191970" points="537.9291,-13.0733 527.5383,-15.1425 536.9516,-20.0047 537.9291,-13.0733"/>
</g>
<!-- Node47&#45;&gt;Node13 -->
<g id="edge30" class="edge">
<title>Node47&#45;&gt;Node13</title>
<path fill="none" stroke="#191970" d="M760.9865,-224.2105C763.2014,-214.9529 766.2755,-200.6354 767.5,-188 770.9872,-152.0153 767.6613,-133.3701 738.5,-112 709.7504,-90.9315 621.0501,-78.6324 554.1252,-72.136"/>
<polygon fill="#191970" stroke="#191970" points="554.2862,-68.6358 544.0017,-71.181 553.6287,-75.6048 554.2862,-68.6358"/>
</g>
<!-- Node48 -->
<g id="node18" class="node">
<title>Node48</title>
<g id="a_node18"><a xlink:href="../../df/dd0/Array_8h.html" target="_top" xlink:title="Header file for class Cantera::Array2D. ">
<polygon fill="#ffffff" stroke="#ff0000" points="650,-168.5 650,-187.5 759,-187.5 759,-168.5 650,-168.5"/>
<text text-anchor="middle" x="704.5" y="-175.5" font-family="Helvetica,sans-Serif" font-size="10.00" fill="#000000">cantera/base/Array.h</text>
</a>
</g>
</g>
<!-- Node47&#45;&gt;Node48 -->
<g id="edge31" class="edge">
<title>Node47&#45;&gt;Node48</title>
<path fill="none" stroke="#191970" d="M749.0939,-224.2455C741.3507,-216.2155 730.188,-204.6394 720.9682,-195.0781"/>
<polygon fill="#191970" stroke="#191970" points="723.2591,-192.4117 713.7983,-187.6427 718.2202,-197.2706 723.2591,-192.4117"/>
</g>
<!-- Node48&#45;&gt;Node38 -->
<g id="edge32" class="edge">
<title>Node48&#45;&gt;Node38</title>
<path fill="none" stroke="#191970" d="M698.7518,-168.2455C694.2565,-160.617 687.8752,-149.7881 682.4175,-140.5267"/>
<polygon fill="#191970" stroke="#191970" points="685.2747,-138.4811 677.1823,-131.6427 679.2439,-142.035 685.2747,-138.4811"/>
</g>
<!-- Node50&#45;&gt;Node21 -->
<g id="edge35" class="edge">
<title>Node50&#45;&gt;Node21</title>
<path fill="none" stroke="#191970" d="M219.8979,-347.3762C224.0067,-319.0883 236.1047,-235.7987 241.6565,-197.5767"/>
<polygon fill="#191970" stroke="#191970" points="245.1214,-198.0707 243.0952,-187.6714 238.194,-197.0644 245.1214,-198.0707"/>
</g>
</g>
</svg>
