<?xml version="1.0" encoding="UTF-8" standalone="no"?>
<!DOCTYPE svg PUBLIC "-//W3C//DTD SVG 1.1//EN"
 "http://www.w3.org/Graphics/SVG/1.1/DTD/svg11.dtd">
<!-- Generated by graphviz version 2.40.1 (20161225.0304)
 -->
<!-- Title: vcs_species_thermo.h Pages: 1 -->
<svg width="590pt" height="84pt"
 viewBox="0.00 0.00 589.50 84.00" xmlns="http://www.w3.org/2000/svg" xmlns:xlink="http://www.w3.org/1999/xlink">
<g id="graph0" class="graph" transform="scale(1 1) rotate(0) translate(4 80)">
<title>vcs_species_thermo.h</title>
<polygon fill="#ffffff" stroke="transparent" points="-4,4 -4,-80 585.5,-80 585.5,4 -4,4"/>
<!-- Node2 -->
<g id="node1" class="node">
<title>Node2</title>
<polygon fill="#bfbfbf" stroke="#000000" points="222,-56.5 222,-75.5 338,-75.5 338,-56.5 222,-56.5"/>
<text text-anchor="middle" x="280" y="-63.5" font-family="Helvetica,sans-Serif" font-size="10.00" fill="#000000">vcs_species_thermo.h</text>
</g>
<!-- Node3 -->
<g id="node2" class="node">
<title>Node3</title>
<g id="a_node2"><a xlink:href="../../dc/d00/vcs__MultiPhaseEquil_8cpp.html" target="_top" xlink:title="Driver routine for the VCSnonideal equilibrium solver package. ">
<polygon fill="#ffffff" stroke="#000000" points="0,-.5 0,-19.5 128,-19.5 128,-.5 0,-.5"/>
<text text-anchor="middle" x="64" y="-7.5" font-family="Helvetica,sans-Serif" font-size="10.00" fill="#000000">vcs_MultiPhaseEquil.cpp</text>
</a>
</g>
</g>
<!-- Node2&#45;&gt;Node3 -->
<g id="edge1" class="edge">
<title>Node2&#45;&gt;Node3</title>
<path fill="none" stroke="#191970" d="M233.14,-53.8511C193.3927,-43.5462 137.169,-28.9697 100.6472,-19.5011"/>
<polygon fill="#191970" stroke="#191970" points="232.3099,-57.2516 242.8683,-56.3733 234.0667,-50.4756 232.3099,-57.2516"/>
</g>
<!-- Node4 -->
<g id="node3" class="node">
<title>Node4</title>
<g id="a_node3"><a xlink:href="../../dc/d5b/vcs__prob_8cpp.html" target="_top" xlink:title="Implementation for the Interface class for the vcs thermo equilibrium solver package,. ">
<polygon fill="#ffffff" stroke="#000000" points="146,-.5 146,-19.5 222,-19.5 222,-.5 146,-.5"/>
<text text-anchor="middle" x="184" y="-7.5" font-family="Helvetica,sans-Serif" font-size="10.00" fill="#000000">vcs_prob.cpp</text>
</a>
</g>
</g>
<!-- Node2&#45;&gt;Node4 -->
<g id="edge2" class="edge">
<title>Node2&#45;&gt;Node4</title>
<path fill="none" stroke="#191970" d="M254.3654,-51.0465C237.2841,-41.0824 215.336,-28.2794 200.5303,-19.6427"/>
<polygon fill="#191970" stroke="#191970" points="252.8767,-54.23 263.2781,-56.2455 256.4038,-48.1836 252.8767,-54.23"/>
</g>
<!-- Node5 -->
<g id="node4" class="node">
<title>Node5</title>
<g id="a_node4"><a xlink:href="../../dc/d88/vcs__solve_8cpp.html" target="_top" xlink:title="vcs_solve.cpp">
<polygon fill="#ffffff" stroke="#000000" points="240.5,-.5 240.5,-19.5 319.5,-19.5 319.5,-.5 240.5,-.5"/>
<text text-anchor="middle" x="280" y="-7.5" font-family="Helvetica,sans-Serif" font-size="10.00" fill="#000000">vcs_solve.cpp</text>
</a>
</g>
</g>
<!-- Node2&#45;&gt;Node5 -->
<g id="edge3" class="edge">
<title>Node2&#45;&gt;Node5</title>
<path fill="none" stroke="#191970" d="M280,-46.1575C280,-37.155 280,-26.9199 280,-19.6427"/>
<polygon fill="#191970" stroke="#191970" points="276.5001,-46.2455 280,-56.2455 283.5001,-46.2456 276.5001,-46.2455"/>
</g>
<!-- Node6 -->
<g id="node5" class="node">
<title>Node6</title>
<g id="a_node5"><a xlink:href="../../d6/dfb/vcs__species__thermo_8cpp.html" target="_top" xlink:title="Implementation for the VCS_SPECIES_THERMO object. ">
<polygon fill="#ffffff" stroke="#000000" points="337.5,-.5 337.5,-19.5 464.5,-19.5 464.5,-.5 337.5,-.5"/>
<text text-anchor="middle" x="401" y="-7.5" font-family="Helvetica,sans-Serif" font-size="10.00" fill="#000000">vcs_species_thermo.cpp</text>
</a>
</g>
</g>
<!-- Node2&#45;&gt;Node6 -->
<g id="edge4" class="edge">
<title>Node2&#45;&gt;Node6</title>
<path fill="none" stroke="#191970" d="M310.0104,-52.1109C331.9525,-41.9559 361.1388,-28.4482 380.4708,-19.5011"/>
<polygon fill="#191970" stroke="#191970" points="308.4058,-48.9968 300.8006,-56.3733 311.3459,-55.3494 308.4058,-48.9968"/>
</g>
<!-- Node7 -->
<g id="node6" class="node">
<title>Node7</title>
<g id="a_node6"><a xlink:href="../../dc/d27/vcs__VolPhase_8cpp.html" target="_top" xlink:title="vcs_VolPhase.cpp">
<polygon fill="#ffffff" stroke="#000000" points="482.5,-.5 482.5,-19.5 581.5,-19.5 581.5,-.5 482.5,-.5"/>
<text text-anchor="middle" x="532" y="-7.5" font-family="Helvetica,sans-Serif" font-size="10.00" fill="#000000">vcs_VolPhase.cpp</text>
</a>
</g>
</g>
<!-- Node2&#45;&gt;Node7 -->
<g id="edge5" class="edge">
<title>Node2&#45;&gt;Node7</title>
<path fill="none" stroke="#191970" d="M332.9089,-54.2425C379.3322,-43.9262 445.9893,-29.1135 489.1435,-19.5237"/>
<polygon fill="#191970" stroke="#191970" points="332.0366,-50.8508 323.034,-56.4369 333.5552,-57.6842 332.0366,-50.8508"/>
</g>
</g>
</svg>
