<?xml version="1.0" encoding="UTF-8" standalone="no"?>
<!DOCTYPE svg PUBLIC "-//W3C//DTD SVG 1.1//EN"
 "http://www.w3.org/Graphics/SVG/1.1/DTD/svg11.dtd">
<!-- Generated by graphviz version 2.43.0 (0)
 -->
<!-- Title: Array.h Pages: 1 -->
<svg width="2990pt" height="252pt"
 viewBox="0.00 0.00 2989.60 252.00" xmlns="http://www.w3.org/2000/svg" xmlns:xlink="http://www.w3.org/1999/xlink">
<g id="graph0" class="graph" transform="scale(1 1) rotate(0) translate(4 248)">
<title>Array.h</title>
<polygon fill="white" stroke="transparent" points="-4,4 -4,-248 2985.6,-248 2985.6,4 -4,4"/>
<!-- Node1 -->
<g id="node1" class="node">
<title>Node1</title>
<g id="a_node1"><a xlink:title="Header file for class Cantera::Array2D.">
<polygon fill="#bfbfbf" stroke="black" points="1855.6,-224.5 1855.6,-243.5 1905.6,-243.5 1905.6,-224.5 1855.6,-224.5"/>
<text text-anchor="middle" x="1880.6" y="-231.5" font-family="Helvetica,sans-Serif" font-size="10.00">Array.h</text>
</a>
</g>
</g>
<!-- Node2 -->
<g id="node2" class="node">
<title>Node2</title>
<g id="a_node2"><a xlink:href="../../dd/de5/ctml_8cpp.html" target="_top" xlink:title="Definitions for functions to read and write CTML.">
<polygon fill="white" stroke="black" points="1415.1,-168.5 1415.1,-187.5 1474.1,-187.5 1474.1,-168.5 1415.1,-168.5"/>
<text text-anchor="middle" x="1444.6" y="-175.5" font-family="Helvetica,sans-Serif" font-size="10.00">ctml.cpp</text>
</a>
</g>
</g>
<!-- Node1&#45;&gt;Node2 -->
<g id="edge1" class="edge">
<title>Node1&#45;&gt;Node2</title>
<path fill="none" stroke="midnightblue" d="M1845.41,-230.37C1775.9,-224.87 1616.26,-210.75 1483.6,-188 1480.59,-187.48 1477.46,-186.88 1474.34,-186.23"/>
<polygon fill="midnightblue" stroke="midnightblue" points="1845.14,-233.86 1855.38,-231.14 1845.68,-226.88 1845.14,-233.86"/>
</g>
<!-- Node3 -->
<g id="node3" class="node">
<title>Node3</title>
<g id="a_node3"><a xlink:href="../../d1/d9f/Reaction_8cpp.html" target="_top" xlink:title=" ">
<polygon fill="white" stroke="black" points="1492.6,-168.5 1492.6,-187.5 1572.6,-187.5 1572.6,-168.5 1492.6,-168.5"/>
<text text-anchor="middle" x="1532.6" y="-175.5" font-family="Helvetica,sans-Serif" font-size="10.00">Reaction.cpp</text>
</a>
</g>
</g>
<!-- Node1&#45;&gt;Node3 -->
<g id="edge2" class="edge">
<title>Node1&#45;&gt;Node3</title>
<path fill="none" stroke="midnightblue" d="M1845.25,-228.06C1789.24,-220.14 1676.7,-203.88 1581.6,-188 1578.7,-187.52 1575.71,-187 1572.7,-186.47"/>
<polygon fill="midnightblue" stroke="midnightblue" points="1844.97,-231.55 1855.36,-229.48 1845.95,-224.62 1844.97,-231.55"/>
</g>
<!-- Node4 -->
<g id="node4" class="node">
<title>Node4</title>
<g id="a_node4"><a xlink:href="../../d5/dc6/RxnRates_8cpp.html" target="_top" xlink:title=" ">
<polygon fill="white" stroke="black" points="1591.1,-168.5 1591.1,-187.5 1674.1,-187.5 1674.1,-168.5 1591.1,-168.5"/>
<text text-anchor="middle" x="1632.6" y="-175.5" font-family="Helvetica,sans-Serif" font-size="10.00">RxnRates.cpp</text>
</a>
</g>
</g>
<!-- Node1&#45;&gt;Node4 -->
<g id="edge3" class="edge">
<title>Node1&#45;&gt;Node4</title>
<path fill="none" stroke="midnightblue" d="M1845.41,-225.34C1799.61,-215.36 1719.82,-197.99 1672.03,-187.59"/>
<polygon fill="midnightblue" stroke="midnightblue" points="1844.94,-228.82 1855.46,-227.53 1846.43,-221.98 1844.94,-228.82"/>
</g>
<!-- Node5 -->
<g id="node5" class="node">
<title>Node5</title>
<g id="a_node5"><a xlink:href="../../d7/dab/plots_8h.html" target="_top" xlink:title="Contains declarations for utility functions for outputing to plotting programs.">
<polygon fill="white" stroke="black" points="1692.6,-168.5 1692.6,-187.5 1742.6,-187.5 1742.6,-168.5 1692.6,-168.5"/>
<text text-anchor="middle" x="1717.6" y="-175.5" font-family="Helvetica,sans-Serif" font-size="10.00">plots.h</text>
</a>
</g>
</g>
<!-- Node1&#45;&gt;Node5 -->
<g id="edge4" class="edge">
<title>Node1&#45;&gt;Node5</title>
<path fill="none" stroke="midnightblue" d="M1845.96,-221.52C1815.01,-211.27 1770.39,-196.49 1742.74,-187.33"/>
<polygon fill="midnightblue" stroke="midnightblue" points="1844.9,-224.86 1855.49,-224.68 1847.1,-218.21 1844.9,-224.86"/>
</g>
<!-- Node7 -->
<g id="node7" class="node">
<title>Node7</title>
<g id="a_node7"><a xlink:href="../../d4/d51/vcs__solve_8h.html" target="_top" xlink:title="Header file for the internal object that holds the vcs equilibrium problem (see Class VCS_SOLVE and E...">
<polygon fill="white" stroke="black" points="1023.6,-112.5 1023.6,-131.5 1097.6,-131.5 1097.6,-112.5 1023.6,-112.5"/>
<text text-anchor="middle" x="1060.6" y="-119.5" font-family="Helvetica,sans-Serif" font-size="10.00">vcs_solve.h</text>
</a>
</g>
</g>
<!-- Node1&#45;&gt;Node7 -->
<g id="edge6" class="edge">
<title>Node1&#45;&gt;Node7</title>
<path fill="none" stroke="midnightblue" d="M1863.9,-217.52C1845.87,-201.88 1815.55,-178.55 1784.6,-168 1768.2,-162.4 1244.11,-133.13 1098.06,-125.06"/>
<polygon fill="midnightblue" stroke="midnightblue" points="1861.93,-220.45 1871.72,-224.5 1866.59,-215.23 1861.93,-220.45"/>
</g>
<!-- Node25 -->
<g id="node24" class="node">
<title>Node25</title>
<g id="a_node24"><a xlink:href="../../d7/dfb/vcs__VolPhase_8h.html" target="_top" xlink:title="Header for the object representing each phase within vcs.">
<polygon fill="white" stroke="black" points="845.6,-112.5 845.6,-131.5 937.6,-131.5 937.6,-112.5 845.6,-112.5"/>
<text text-anchor="middle" x="891.6" y="-119.5" font-family="Helvetica,sans-Serif" font-size="10.00">vcs_VolPhase.h</text>
</a>
</g>
</g>
<!-- Node1&#45;&gt;Node25 -->
<g id="edge23" class="edge">
<title>Node1&#45;&gt;Node25</title>
<path fill="none" stroke="midnightblue" d="M1851.65,-220.4C1832.39,-211.78 1806.68,-199.82 1784.6,-188 1769.48,-179.9 1768,-173.02 1751.6,-168 1594.8,-120.04 1178.27,-141.98 1014.6,-132 989.17,-130.45 960.81,-128.39 937.73,-126.64"/>
<polygon fill="midnightblue" stroke="midnightblue" points="1850.25,-223.61 1860.81,-224.46 1853.09,-217.21 1850.25,-223.61"/>
</g>
<!-- Node27 -->
<g id="node26" class="node">
<title>Node27</title>
<g id="a_node26"><a xlink:href="../../d1/df7/DenseMatrix_8h.html" target="_top" xlink:title="Headers for the DenseMatrix object, which deals with dense rectangular matrices and description of th...">
<polygon fill="white" stroke="black" points="1836.6,-168.5 1836.6,-187.5 1924.6,-187.5 1924.6,-168.5 1836.6,-168.5"/>
<text text-anchor="middle" x="1880.6" y="-175.5" font-family="Helvetica,sans-Serif" font-size="10.00">DenseMatrix.h</text>
</a>
</g>
</g>
<!-- Node1&#45;&gt;Node27 -->
<g id="edge38" class="edge">
<title>Node1&#45;&gt;Node27</title>
<path fill="none" stroke="midnightblue" d="M1880.6,-213.8C1880.6,-204.91 1880.6,-194.78 1880.6,-187.75"/>
<polygon fill="midnightblue" stroke="midnightblue" points="1877.1,-214.08 1880.6,-224.08 1884.1,-214.08 1877.1,-214.08"/>
</g>
<!-- Node65 -->
<g id="node37" class="node">
<title>Node65</title>
<g id="a_node37"><a xlink:href="../../d7/d7c/StFlow_8h.html" target="_top" xlink:title=" ">
<polygon fill="white" stroke="black" points="2348.6,-168.5 2348.6,-187.5 2406.6,-187.5 2406.6,-168.5 2348.6,-168.5"/>
<text text-anchor="middle" x="2377.6" y="-175.5" font-family="Helvetica,sans-Serif" font-size="10.00">StFlow.h</text>
</a>
</g>
</g>
<!-- Node1&#45;&gt;Node65 -->
<g id="edge57" class="edge">
<title>Node1&#45;&gt;Node65</title>
<path fill="none" stroke="midnightblue" d="M1916.03,-229.15C2009.62,-218.98 2262.18,-191.54 2348.34,-182.18"/>
<polygon fill="midnightblue" stroke="midnightblue" points="1915.5,-225.69 1905.93,-230.25 1916.25,-232.65 1915.5,-225.69"/>
</g>
<!-- Node75 -->
<g id="node46" class="node">
<title>Node75</title>
<g id="a_node46"><a xlink:href="../../de/dd9/DebyeHuckel_8h.html" target="_top" xlink:title="Headers for the DebyeHuckel ThermoPhase object, which models dilute electrolyte solutions (see Thermo...">
<polygon fill="white" stroke="red" points="2424.6,-168.5 2424.6,-187.5 2514.6,-187.5 2514.6,-168.5 2424.6,-168.5"/>
<text text-anchor="middle" x="2469.6" y="-175.5" font-family="Helvetica,sans-Serif" font-size="10.00">DebyeHuckel.h</text>
</a>
</g>
</g>
<!-- Node1&#45;&gt;Node75 -->
<g id="edge69" class="edge">
<title>Node1&#45;&gt;Node75</title>
<path fill="none" stroke="midnightblue" d="M1915.98,-231.02C2001.84,-226 2228.01,-211.48 2415.6,-188 2418.53,-187.63 2421.53,-187.22 2424.56,-186.79"/>
<polygon fill="midnightblue" stroke="midnightblue" points="1915.53,-227.54 1905.75,-231.61 1915.93,-234.53 1915.53,-227.54"/>
</g>
<!-- Node78 -->
<g id="node47" class="node">
<title>Node78</title>
<g id="a_node47"><a xlink:href="../../d6/d88/GibbsExcessVPSSTP_8h.html" target="_top" xlink:title="Header for intermediate ThermoPhase object for phases which employ Gibbs excess free energy based for...">
<polygon fill="white" stroke="red" points="2532.6,-168.5 2532.6,-187.5 2654.6,-187.5 2654.6,-168.5 2532.6,-168.5"/>
<text text-anchor="middle" x="2593.6" y="-175.5" font-family="Helvetica,sans-Serif" font-size="10.00">GibbsExcessVPSSTP.h</text>
</a>
</g>
</g>
<!-- Node1&#45;&gt;Node78 -->
<g id="edge70" class="edge">
<title>Node1&#45;&gt;Node78</title>
<path fill="none" stroke="midnightblue" d="M1915.91,-231.25C2013.03,-226.28 2292.3,-210.94 2523.6,-188 2526.53,-187.71 2529.52,-187.39 2532.54,-187.06"/>
<polygon fill="midnightblue" stroke="midnightblue" points="1915.58,-227.76 1905.77,-231.76 1915.94,-234.75 1915.58,-227.76"/>
</g>
<!-- Node88 -->
<g id="node48" class="node">
<title>Node88</title>
<g id="a_node48"><a xlink:href="../../d0/d16/HMWSoln_8h.html" target="_top" xlink:title="Headers for the HMWSoln ThermoPhase object, which models concentrated electrolyte solutions (see Ther...">
<polygon fill="white" stroke="red" points="2673.1,-168.5 2673.1,-187.5 2746.1,-187.5 2746.1,-168.5 2673.1,-168.5"/>
<text text-anchor="middle" x="2709.6" y="-175.5" font-family="Helvetica,sans-Serif" font-size="10.00">HMWSoln.h</text>
</a>
</g>
</g>
<!-- Node1&#45;&gt;Node88 -->
<g id="edge71" class="edge">
<title>Node1&#45;&gt;Node88</title>
<path fill="none" stroke="midnightblue" d="M1915.99,-232.67C2026.78,-231.29 2376.63,-224.15 2663.6,-188 2666.67,-187.61 2669.84,-187.14 2673.02,-186.62"/>
<polygon fill="midnightblue" stroke="midnightblue" points="1915.69,-229.18 1905.73,-232.79 1915.77,-236.18 1915.69,-229.18"/>
</g>
<!-- Node90 -->
<g id="node49" class="node">
<title>Node90</title>
<g id="a_node49"><a xlink:href="../../d6/d45/RedlichKwongMFTP_8h.html" target="_top" xlink:title=" ">
<polygon fill="white" stroke="red" points="2764.1,-168.5 2764.1,-187.5 2883.1,-187.5 2883.1,-168.5 2764.1,-168.5"/>
<text text-anchor="middle" x="2823.6" y="-175.5" font-family="Helvetica,sans-Serif" font-size="10.00">RedlichKwongMFTP.h</text>
</a>
</g>
</g>
<!-- Node1&#45;&gt;Node90 -->
<g id="edge72" class="edge">
<title>Node1&#45;&gt;Node90</title>
<path fill="none" stroke="midnightblue" d="M1915.98,-232.17C2034.69,-229.18 2429.59,-217.52 2754.6,-188 2757.61,-187.73 2760.69,-187.42 2763.8,-187.09"/>
<polygon fill="midnightblue" stroke="midnightblue" points="1915.59,-228.68 1905.68,-232.43 1915.77,-235.68 1915.59,-228.68"/>
</g>
<!-- Node92 -->
<g id="node50" class="node">
<title>Node92</title>
<g id="a_node50"><a xlink:href="../../d8/d69/ReactorNet_8h.html" target="_top" xlink:title=" ">
<polygon fill="white" stroke="red" points="2901.6,-168.5 2901.6,-187.5 2981.6,-187.5 2981.6,-168.5 2901.6,-168.5"/>
<text text-anchor="middle" x="2941.6" y="-175.5" font-family="Helvetica,sans-Serif" font-size="10.00">ReactorNet.h</text>
</a>
</g>
</g>
<!-- Node1&#45;&gt;Node92 -->
<g id="edge73" class="edge">
<title>Node1&#45;&gt;Node92</title>
<path fill="none" stroke="midnightblue" d="M1915.92,-233.18C2046.18,-233.47 2511.88,-231.22 2892.6,-188 2895.53,-187.67 2898.54,-187.27 2901.56,-186.82"/>
<polygon fill="midnightblue" stroke="midnightblue" points="1915.75,-229.68 1905.74,-233.15 1915.73,-236.68 1915.75,-229.68"/>
</g>
<!-- Node6 -->
<g id="node6" class="node">
<title>Node6</title>
<g id="a_node6"><a xlink:href="../../df/da4/plots_8cpp.html" target="_top" xlink:title=" ">
<polygon fill="white" stroke="black" points="766.1,-112.5 766.1,-131.5 827.1,-131.5 827.1,-112.5 766.1,-112.5"/>
<text text-anchor="middle" x="796.6" y="-119.5" font-family="Helvetica,sans-Serif" font-size="10.00">plots.cpp</text>
</a>
</g>
</g>
<!-- Node5&#45;&gt;Node6 -->
<g id="edge5" class="edge">
<title>Node5&#45;&gt;Node6</title>
<path fill="none" stroke="midnightblue" d="M1682.91,-168.05C1682.81,-168.03 1682.7,-168.01 1682.6,-168 1310.33,-112.84 1209.67,-181.5 836.6,-132 833.64,-131.61 830.57,-131.1 827.51,-130.53"/>
<polygon fill="midnightblue" stroke="midnightblue" points="1682.02,-171.44 1692.5,-169.87 1683.33,-164.56 1682.02,-171.44"/>
</g>
<!-- Node8 -->
<g id="node8" class="node">
<title>Node8</title>
<g id="a_node8"><a xlink:href="../../d3/da6/vcs__elem_8cpp.html" target="_top" xlink:title="This file contains the algorithm for checking the satisfaction of the element abundances constraints ...">
<polygon fill="white" stroke="black" points="1813.1,-56.5 1813.1,-75.5 1896.1,-75.5 1896.1,-56.5 1813.1,-56.5"/>
<text text-anchor="middle" x="1854.6" y="-63.5" font-family="Helvetica,sans-Serif" font-size="10.00">vcs_elem.cpp</text>
</a>
</g>
</g>
<!-- Node7&#45;&gt;Node8 -->
<g id="edge7" class="edge">
<title>Node7&#45;&gt;Node8</title>
<path fill="none" stroke="midnightblue" d="M1107.93,-118.84C1249.44,-112.28 1667.91,-92.03 1803.6,-76 1806.64,-75.64 1809.77,-75.22 1812.91,-74.76"/>
<polygon fill="midnightblue" stroke="midnightblue" points="1107.66,-115.35 1097.84,-119.31 1107.99,-122.34 1107.66,-115.35"/>
</g>
<!-- Node9 -->
<g id="node9" class="node">
<title>Node9</title>
<g id="a_node9"><a xlink:href="../../d3/d0a/vcs__elem__rearrange_8cpp.html" target="_top" xlink:title="Contains implementations for rearranging the element columns, and it contains the algorithm for choos...">
<polygon fill="white" stroke="black" points="289.6,-56.5 289.6,-75.5 425.6,-75.5 425.6,-56.5 289.6,-56.5"/>
<text text-anchor="middle" x="357.6" y="-63.5" font-family="Helvetica,sans-Serif" font-size="10.00">vcs_elem_rearrange.cpp</text>
</a>
</g>
</g>
<!-- Node7&#45;&gt;Node9 -->
<g id="edge8" class="edge">
<title>Node7&#45;&gt;Node9</title>
<path fill="none" stroke="midnightblue" d="M1013.35,-117.18C992.84,-115.54 968.54,-113.64 946.6,-112 719.12,-95.02 661.73,-97.25 434.6,-76 431.66,-75.72 428.65,-75.43 425.61,-75.12"/>
<polygon fill="midnightblue" stroke="midnightblue" points="1013.14,-120.67 1023.39,-117.98 1013.7,-113.69 1013.14,-120.67"/>
</g>
<!-- Node10 -->
<g id="node10" class="node">
<title>Node10</title>
<g id="a_node10"><a xlink:href="../../d3/db0/vcs__Gibbs_8cpp.html" target="_top" xlink:title="Functions which calculate the extrinsic Gibbs Free energies.">
<polygon fill="white" stroke="black" points="443.6,-56.5 443.6,-75.5 529.6,-75.5 529.6,-56.5 443.6,-56.5"/>
<text text-anchor="middle" x="486.6" y="-63.5" font-family="Helvetica,sans-Serif" font-size="10.00">vcs_Gibbs.cpp</text>
</a>
</g>
</g>
<!-- Node7&#45;&gt;Node10 -->
<g id="edge9" class="edge">
<title>Node7&#45;&gt;Node10</title>
<path fill="none" stroke="midnightblue" d="M1013.17,-117.14C893.39,-107.37 584.96,-82 538.6,-76 535.7,-75.62 532.7,-75.2 529.69,-74.75"/>
<polygon fill="midnightblue" stroke="midnightblue" points="1013.24,-120.66 1023.49,-117.99 1013.8,-113.68 1013.24,-120.66"/>
</g>
<!-- Node11 -->
<g id="node11" class="node">
<title>Node11</title>
<g id="a_node11"><a xlink:href="../../d7/dfd/vcs__inest_8cpp.html" target="_top" xlink:title="Implementation methods for obtaining a good initial guess.">
<polygon fill="white" stroke="black" points="548.1,-56.5 548.1,-75.5 631.1,-75.5 631.1,-56.5 548.1,-56.5"/>
<text text-anchor="middle" x="589.6" y="-63.5" font-family="Helvetica,sans-Serif" font-size="10.00">vcs_inest.cpp</text>
</a>
</g>
</g>
<!-- Node7&#45;&gt;Node11 -->
<g id="edge10" class="edge">
<title>Node7&#45;&gt;Node11</title>
<path fill="none" stroke="midnightblue" d="M1013.32,-117.06C935.28,-110.3 774.7,-95.35 639.6,-76 636.9,-75.61 634.11,-75.19 631.31,-74.74"/>
<polygon fill="midnightblue" stroke="midnightblue" points="1013.06,-120.55 1023.32,-117.92 1013.66,-113.57 1013.06,-120.55"/>
</g>
<!-- Node12 -->
<g id="node12" class="node">
<title>Node12</title>
<g id="a_node12"><a xlink:href="../../dd/d86/vcs__phaseStability_8cpp.html" target="_top" xlink:title="Implementation class for functions associated with determining the stability of a phase (see Class VC...">
<polygon fill="white" stroke="black" points="649.1,-56.5 649.1,-75.5 776.1,-75.5 776.1,-56.5 649.1,-56.5"/>
<text text-anchor="middle" x="712.6" y="-63.5" font-family="Helvetica,sans-Serif" font-size="10.00">vcs_phaseStability.cpp</text>
</a>
</g>
</g>
<!-- Node7&#45;&gt;Node12 -->
<g id="edge11" class="edge">
<title>Node7&#45;&gt;Node12</title>
<path fill="none" stroke="midnightblue" d="M1013.14,-113.64C949.08,-103.69 835.19,-86.02 767.51,-75.52"/>
<polygon fill="midnightblue" stroke="midnightblue" points="1012.94,-117.15 1023.36,-115.22 1014.02,-110.23 1012.94,-117.15"/>
</g>
<!-- Node13 -->
<g id="node13" class="node">
<title>Node13</title>
<g id="a_node13"><a xlink:href="../../d8/dc4/vcs__prep_8cpp.html" target="_top" xlink:title="This file contains some prepatory functions.">
<polygon fill="white" stroke="black" points="1213.6,-56.5 1213.6,-75.5 1293.6,-75.5 1293.6,-56.5 1213.6,-56.5"/>
<text text-anchor="middle" x="1253.6" y="-63.5" font-family="Helvetica,sans-Serif" font-size="10.00">vcs_prep.cpp</text>
</a>
</g>
</g>
<!-- Node7&#45;&gt;Node13 -->
<g id="edge12" class="edge">
<title>Node7&#45;&gt;Node13</title>
<path fill="none" stroke="midnightblue" d="M1101,-109.7C1137.42,-99.51 1190.19,-84.74 1223.17,-75.52"/>
<polygon fill="midnightblue" stroke="midnightblue" points="1099.87,-106.38 1091.18,-112.44 1101.76,-113.12 1099.87,-106.38"/>
</g>
<!-- Node14 -->
<g id="node14" class="node">
<title>Node14</title>
<g id="a_node14"><a xlink:href="../../dc/d5b/vcs__prob_8cpp.html" target="_top" xlink:title="Implementation for the Interface class for the vcs thermo equilibrium solver package,...">
<polygon fill="white" stroke="black" points="1311.6,-56.5 1311.6,-75.5 1391.6,-75.5 1391.6,-56.5 1311.6,-56.5"/>
<text text-anchor="middle" x="1351.6" y="-63.5" font-family="Helvetica,sans-Serif" font-size="10.00">vcs_prob.cpp</text>
</a>
</g>
</g>
<!-- Node7&#45;&gt;Node14 -->
<g id="edge13" class="edge">
<title>Node7&#45;&gt;Node14</title>
<path fill="none" stroke="midnightblue" d="M1107.87,-112.23C1164.43,-101.73 1258.17,-84.34 1311.41,-74.46"/>
<polygon fill="midnightblue" stroke="midnightblue" points="1106.95,-108.84 1097.75,-114.11 1108.23,-115.72 1106.95,-108.84"/>
</g>
<!-- Node15 -->
<g id="node15" class="node">
<title>Node15</title>
<g id="a_node15"><a xlink:href="../../d3/dc9/vcs__report_8cpp.html" target="_top" xlink:title=" ">
<polygon fill="white" stroke="black" points="794.6,-56.5 794.6,-75.5 882.6,-75.5 882.6,-56.5 794.6,-56.5"/>
<text text-anchor="middle" x="838.6" y="-63.5" font-family="Helvetica,sans-Serif" font-size="10.00">vcs_report.cpp</text>
</a>
</g>
</g>
<!-- Node7&#45;&gt;Node15 -->
<g id="edge14" class="edge">
<title>Node7&#45;&gt;Node15</title>
<path fill="none" stroke="midnightblue" d="M1015.48,-110.02C973.54,-99.82 911.95,-84.84 873.62,-75.52"/>
<polygon fill="midnightblue" stroke="midnightblue" points="1014.88,-113.48 1025.43,-112.44 1016.54,-106.68 1014.88,-113.48"/>
</g>
<!-- Node16 -->
<g id="node16" class="node">
<title>Node16</title>
<g id="a_node16"><a xlink:href="../../da/dd4/vcs__rxnadj_8cpp.html" target="_top" xlink:title="Routines for carrying out various adjustments to the reaction steps.">
<polygon fill="white" stroke="black" points="900.1,-56.5 900.1,-75.5 989.1,-75.5 989.1,-56.5 900.1,-56.5"/>
<text text-anchor="middle" x="944.6" y="-63.5" font-family="Helvetica,sans-Serif" font-size="10.00">vcs_rxnadj.cpp</text>
</a>
</g>
</g>
<!-- Node7&#45;&gt;Node16 -->
<g id="edge15" class="edge">
<title>Node7&#45;&gt;Node16</title>
<path fill="none" stroke="midnightblue" d="M1032.88,-108.1C1011.21,-98.01 981.7,-84.27 962.9,-75.52"/>
<polygon fill="midnightblue" stroke="midnightblue" points="1031.68,-111.4 1042.22,-112.44 1034.63,-105.05 1031.68,-111.4"/>
</g>
<!-- Node17 -->
<g id="node17" class="node">
<title>Node17</title>
<g id="a_node17"><a xlink:href="../../d0/db6/vcs__setMolesLinProg_8cpp.html" target="_top" xlink:title=" ">
<polygon fill="white" stroke="black" points="1410.1,-56.5 1410.1,-75.5 1549.1,-75.5 1549.1,-56.5 1410.1,-56.5"/>
<text text-anchor="middle" x="1479.6" y="-63.5" font-family="Helvetica,sans-Serif" font-size="10.00">vcs_setMolesLinProg.cpp</text>
</a>
</g>
</g>
<!-- Node7&#45;&gt;Node17 -->
<g id="edge16" class="edge">
<title>Node7&#45;&gt;Node17</title>
<path fill="none" stroke="midnightblue" d="M1107.85,-114.91C1182.64,-105.27 1328.51,-86.47 1413.6,-75.51"/>
<polygon fill="midnightblue" stroke="midnightblue" points="1107.26,-111.46 1097.79,-116.21 1108.15,-118.4 1107.26,-111.46"/>
</g>
<!-- Node18 -->
<g id="node18" class="node">
<title>Node18</title>
<g id="a_node18"><a xlink:href="../../dc/d88/vcs__solve_8cpp.html" target="_top" xlink:title=" ">
<polygon fill="white" stroke="black" points="1567.1,-56.5 1567.1,-75.5 1652.1,-75.5 1652.1,-56.5 1567.1,-56.5"/>
<text text-anchor="middle" x="1609.6" y="-63.5" font-family="Helvetica,sans-Serif" font-size="10.00">vcs_solve.cpp</text>
</a>
</g>
</g>
<!-- Node7&#45;&gt;Node18 -->
<g id="edge17" class="edge">
<title>Node7&#45;&gt;Node18</title>
<path fill="none" stroke="midnightblue" d="M1107.8,-118.01C1196.27,-112.11 1392.97,-97.66 1557.6,-76 1560.69,-75.59 1563.88,-75.14 1567.08,-74.65"/>
<polygon fill="midnightblue" stroke="midnightblue" points="1107.56,-114.52 1097.81,-118.67 1108.02,-121.5 1107.56,-114.52"/>
</g>
<!-- Node19 -->
<g id="node19" class="node">
<title>Node19</title>
<g id="a_node19"><a xlink:href="../../d7/dec/vcs__solve__TP_8cpp.html" target="_top" xlink:title="Implementation file that contains the main algorithm for finding an equilibrium.">
<polygon fill="white" stroke="black" points="1094.1,-56.5 1094.1,-75.5 1195.1,-75.5 1195.1,-56.5 1094.1,-56.5"/>
<text text-anchor="middle" x="1144.6" y="-63.5" font-family="Helvetica,sans-Serif" font-size="10.00">vcs_solve_TP.cpp</text>
</a>
</g>
</g>
<!-- Node7&#45;&gt;Node19 -->
<g id="edge18" class="edge">
<title>Node7&#45;&gt;Node19</title>
<path fill="none" stroke="midnightblue" d="M1082.54,-106.9C1097.94,-97 1118.05,-84.07 1131.14,-75.65"/>
<polygon fill="midnightblue" stroke="midnightblue" points="1080.62,-103.97 1074.1,-112.32 1084.4,-109.86 1080.62,-103.97"/>
</g>
<!-- Node20 -->
<g id="node20" class="node">
<title>Node20</title>
<g id="a_node20"><a xlink:href="../../d3/d9f/vcs__TP_8cpp.html" target="_top" xlink:title=" ">
<polygon fill="white" stroke="black" points="1007.1,-56.5 1007.1,-75.5 1076.1,-75.5 1076.1,-56.5 1007.1,-56.5"/>
<text text-anchor="middle" x="1041.6" y="-63.5" font-family="Helvetica,sans-Serif" font-size="10.00">vcs_TP.cpp</text>
</a>
</g>
</g>
<!-- Node7&#45;&gt;Node20 -->
<g id="edge19" class="edge">
<title>Node7&#45;&gt;Node20</title>
<path fill="none" stroke="midnightblue" d="M1054.06,-102.4C1050.88,-93.36 1047.21,-82.94 1044.68,-75.75"/>
<polygon fill="midnightblue" stroke="midnightblue" points="1050.85,-103.81 1057.47,-112.08 1057.45,-101.49 1050.85,-103.81"/>
</g>
<!-- Node21 -->
<g id="node21" class="node">
<title>Node21</title>
<g id="a_node21"><a xlink:href="../../dc/d27/vcs__VolPhase_8cpp.html" target="_top" xlink:title=" ">
<polygon fill="white" stroke="black" points="168.1,-56.5 168.1,-75.5 271.1,-75.5 271.1,-56.5 168.1,-56.5"/>
<text text-anchor="middle" x="219.6" y="-63.5" font-family="Helvetica,sans-Serif" font-size="10.00">vcs_VolPhase.cpp</text>
</a>
</g>
</g>
<!-- Node7&#45;&gt;Node21 -->
<g id="edge20" class="edge">
<title>Node7&#45;&gt;Node21</title>
<path fill="none" stroke="midnightblue" d="M1013.36,-117.01C992.85,-115.34 968.55,-113.46 946.6,-112 650.82,-92.33 575.55,-105.67 280.6,-76 277.51,-75.69 274.34,-75.33 271.15,-74.95"/>
<polygon fill="midnightblue" stroke="midnightblue" points="1013.14,-120.5 1023.4,-117.83 1013.72,-113.52 1013.14,-120.5"/>
</g>
<!-- Node22 -->
<g id="node22" class="node">
<title>Node22</title>
<g id="a_node22"><a xlink:href="../../d1/dc3/vcs__MultiPhaseEquil_8h.html" target="_top" xlink:title="Interface class for the vcsnonlinear solver.">
<polygon fill="white" stroke="red" points="1670.1,-56.5 1670.1,-75.5 1795.1,-75.5 1795.1,-56.5 1670.1,-56.5"/>
<text text-anchor="middle" x="1732.6" y="-63.5" font-family="Helvetica,sans-Serif" font-size="10.00">vcs_MultiPhaseEquil.h</text>
</a>
</g>
</g>
<!-- Node7&#45;&gt;Node22 -->
<g id="edge21" class="edge">
<title>Node7&#45;&gt;Node22</title>
<path fill="none" stroke="midnightblue" d="M1108.1,-118.24C1209.64,-112.16 1455.31,-96.52 1660.6,-76 1663.61,-75.7 1666.69,-75.38 1669.8,-75.04"/>
<polygon fill="midnightblue" stroke="midnightblue" points="1107.65,-114.76 1097.87,-118.85 1108.06,-121.75 1107.65,-114.76"/>
</g>
<!-- Node24 -->
<g id="node23" class="node">
<title>Node24</title>
<g id="a_node23"><a xlink:href="../../dc/d00/vcs__MultiPhaseEquil_8cpp.html" target="_top" xlink:title="Driver routine for the VCSnonideal equilibrium solver package.">
<polygon fill="white" stroke="black" points="790.1,-0.5 790.1,-19.5 927.1,-19.5 927.1,-0.5 790.1,-0.5"/>
<text text-anchor="middle" x="858.6" y="-7.5" font-family="Helvetica,sans-Serif" font-size="10.00">vcs_MultiPhaseEquil.cpp</text>
</a>
</g>
</g>
<!-- Node22&#45;&gt;Node24 -->
<g id="edge22" class="edge">
<title>Node22&#45;&gt;Node24</title>
<path fill="none" stroke="midnightblue" d="M1659.52,-55.97C1381.72,-31.16 1064.09,-18.14 927.11,-13.27"/>
<polygon fill="midnightblue" stroke="midnightblue" points="1659.53,-59.48 1669.8,-56.89 1660.16,-52.51 1659.53,-59.48"/>
</g>
<!-- Node25&#45;&gt;Node9 -->
<g id="edge24" class="edge">
<title>Node25&#45;&gt;Node9</title>
<path fill="none" stroke="midnightblue" d="M835.47,-112.08C656.36,-89.95 609.38,-94.06 434.6,-76 431.66,-75.7 428.65,-75.38 425.61,-75.05"/>
<polygon fill="midnightblue" stroke="midnightblue" points="835.14,-115.57 845.5,-113.33 836,-108.62 835.14,-115.57"/>
</g>
<!-- Node25&#45;&gt;Node10 -->
<g id="edge25" class="edge">
<title>Node25&#45;&gt;Node10</title>
<path fill="none" stroke="midnightblue" d="M835.3,-112.02C702.23,-93.53 666.94,-94.87 538.6,-76 535.7,-75.57 532.71,-75.11 529.71,-74.63"/>
<polygon fill="midnightblue" stroke="midnightblue" points="835.09,-115.52 845.48,-113.44 836.06,-108.59 835.09,-115.52"/>
</g>
<!-- Node25&#45;&gt;Node11 -->
<g id="edge26" class="edge">
<title>Node25&#45;&gt;Node11</title>
<path fill="none" stroke="midnightblue" d="M835.3,-110.97C784.23,-101.86 706.86,-88.06 639.6,-76 636.91,-75.52 634.14,-75.02 631.34,-74.52"/>
<polygon fill="midnightblue" stroke="midnightblue" points="834.7,-114.42 845.15,-112.73 835.92,-107.52 834.7,-114.42"/>
</g>
<!-- Node25&#45;&gt;Node12 -->
<g id="edge28" class="edge">
<title>Node25&#45;&gt;Node12</title>
<path fill="none" stroke="midnightblue" d="M853.27,-109.44C819.52,-99.26 771.16,-84.66 740.83,-75.52"/>
<polygon fill="midnightblue" stroke="midnightblue" points="852.66,-112.91 863.24,-112.44 854.68,-106.2 852.66,-112.91"/>
</g>
<!-- Node25&#45;&gt;Node13 -->
<g id="edge29" class="edge">
<title>Node25&#45;&gt;Node13</title>
<path fill="none" stroke="midnightblue" d="M947.72,-113.51C1010.25,-105.02 1114.31,-90.47 1203.6,-76 1206.82,-75.48 1210.16,-74.92 1213.51,-74.34"/>
<polygon fill="midnightblue" stroke="midnightblue" points="947.11,-110.06 937.67,-114.87 948.05,-116.99 947.11,-110.06"/>
</g>
<!-- Node25&#45;&gt;Node14 -->
<g id="edge30" class="edge">
<title>Node25&#45;&gt;Node14</title>
<path fill="none" stroke="midnightblue" d="M947.92,-116.14C1027.25,-109 1176.35,-94.48 1302.6,-76 1305.51,-75.57 1308.51,-75.1 1311.53,-74.6"/>
<polygon fill="midnightblue" stroke="midnightblue" points="947.31,-112.68 937.66,-117.06 947.93,-119.65 947.31,-112.68"/>
</g>
<!-- Node25&#45;&gt;Node15 -->
<g id="edge31" class="edge">
<title>Node25&#45;&gt;Node15</title>
<path fill="none" stroke="midnightblue" d="M875.62,-104.72C866.28,-95.2 854.86,-83.56 847.19,-75.75"/>
<polygon fill="midnightblue" stroke="midnightblue" points="873.35,-107.4 882.85,-112.08 878.34,-102.49 873.35,-107.4"/>
</g>
<!-- Node25&#45;&gt;Node16 -->
<g id="edge32" class="edge">
<title>Node25&#45;&gt;Node16</title>
<path fill="none" stroke="midnightblue" d="M907.58,-104.72C916.93,-95.2 928.35,-83.56 936.01,-75.75"/>
<polygon fill="midnightblue" stroke="midnightblue" points="904.86,-102.49 900.36,-112.08 909.86,-107.4 904.86,-102.49"/>
</g>
<!-- Node25&#45;&gt;Node18 -->
<g id="edge33" class="edge">
<title>Node25&#45;&gt;Node18</title>
<path fill="none" stroke="midnightblue" d="M947.77,-116.81C968.74,-115.27 992.76,-113.52 1014.6,-112 1255.88,-95.17 1317.44,-104.66 1557.6,-76 1560.7,-75.63 1563.89,-75.2 1567.09,-74.73"/>
<polygon fill="midnightblue" stroke="midnightblue" points="947.46,-113.32 937.74,-117.55 947.97,-120.3 947.46,-113.32"/>
</g>
<!-- Node25&#45;&gt;Node19 -->
<g id="edge34" class="edge">
<title>Node25&#45;&gt;Node19</title>
<path fill="none" stroke="midnightblue" d="M941.52,-110.35C989.33,-100.14 1060.55,-84.94 1104.7,-75.52"/>
<polygon fill="midnightblue" stroke="midnightblue" points="940.74,-106.93 931.69,-112.44 942.2,-113.78 940.74,-106.93"/>
</g>
<!-- Node25&#45;&gt;Node20 -->
<g id="edge36" class="edge">
<title>Node25&#45;&gt;Node20</title>
<path fill="none" stroke="midnightblue" d="M924.83,-109.04C953.05,-98.88 992.87,-84.55 1017.95,-75.52"/>
<polygon fill="midnightblue" stroke="midnightblue" points="923.59,-105.76 915.37,-112.44 925.97,-112.35 923.59,-105.76"/>
</g>
<!-- Node25&#45;&gt;Node21 -->
<g id="edge37" class="edge">
<title>Node25&#45;&gt;Node21</title>
<path fill="none" stroke="midnightblue" d="M835.5,-112.12C588.26,-84.82 523.17,-101.72 280.6,-76 277.52,-75.67 274.35,-75.3 271.15,-74.91"/>
<polygon fill="midnightblue" stroke="midnightblue" points="835.18,-115.61 845.51,-113.24 835.96,-108.65 835.18,-115.61"/>
</g>
<!-- Node25&#45;&gt;Node24 -->
<g id="edge27" class="edge">
<title>Node25&#45;&gt;Node24</title>
<path fill="none" stroke="midnightblue" d="M835.22,-112.48C729.07,-107.43 35.25,-108.01 4.6,-76 -1.54,-69.58 -1.51,-62.45 4.6,-56 31.49,-27.66 591.57,-15.5 789.81,-12.07"/>
<polygon fill="midnightblue" stroke="midnightblue" points="835.31,-115.99 845.51,-113.16 835.77,-109.01 835.31,-115.99"/>
</g>
<!-- Node26 -->
<g id="node25" class="node">
<title>Node26</title>
<g id="a_node25"><a xlink:href="../../d6/dfb/vcs__species__thermo_8cpp.html" target="_top" xlink:title="Implementation for the VCS_SPECIES_THERMO object.">
<polygon fill="white" stroke="black" points="13.6,-56.5 13.6,-75.5 149.6,-75.5 149.6,-56.5 13.6,-56.5"/>
<text text-anchor="middle" x="81.6" y="-63.5" font-family="Helvetica,sans-Serif" font-size="10.00">vcs_species_thermo.cpp</text>
</a>
</g>
</g>
<!-- Node25&#45;&gt;Node26 -->
<g id="edge35" class="edge">
<title>Node25&#45;&gt;Node26</title>
<path fill="none" stroke="midnightblue" d="M835.17,-112.1C534.23,-80.52 455.46,-101.22 158.6,-76 155.79,-75.76 152.91,-75.5 150.01,-75.22"/>
<polygon fill="midnightblue" stroke="midnightblue" points="835.2,-115.62 845.51,-113.19 835.94,-108.66 835.2,-115.62"/>
</g>
<!-- Node27&#45;&gt;Node8 -->
<g id="edge39" class="edge">
<title>Node27&#45;&gt;Node8</title>
<path fill="none" stroke="midnightblue" d="M1826.47,-168.58C1825.17,-168.38 1823.88,-168.19 1822.6,-168 1766.43,-159.65 1606.82,-174.89 1569.6,-132 1519.43,-74.19 1370.11,-147.59 1803.6,-76 1806.62,-75.5 1809.73,-74.98 1812.87,-74.44"/>
<polygon fill="midnightblue" stroke="midnightblue" points="1826.18,-172.07 1836.59,-170.11 1827.23,-165.15 1826.18,-172.07"/>
</g>
<!-- Node27&#45;&gt;Node19 -->
<g id="edge40" class="edge">
<title>Node27&#45;&gt;Node19</title>
<path fill="none" stroke="midnightblue" d="M1826.4,-168.44C1825.12,-168.29 1823.86,-168.14 1822.6,-168 1592.38,-142.22 1528.18,-184.75 1302.6,-132 1248.31,-119.3 1188.55,-90.2 1160.63,-75.63"/>
<polygon fill="midnightblue" stroke="midnightblue" points="1825.95,-171.91 1836.32,-169.73 1826.86,-164.97 1825.95,-171.91"/>
</g>
<!-- Node28 -->
<g id="node27" class="node">
<title>Node28</title>
<g id="a_node27"><a xlink:href="../../d8/db7/DenseMatrix_8cpp.html" target="_top" xlink:title=" ">
<polygon fill="white" stroke="black" points="1719.1,-112.5 1719.1,-131.5 1818.1,-131.5 1818.1,-112.5 1719.1,-112.5"/>
<text text-anchor="middle" x="1768.6" y="-119.5" font-family="Helvetica,sans-Serif" font-size="10.00">DenseMatrix.cpp</text>
</a>
</g>
</g>
<!-- Node27&#45;&gt;Node28 -->
<g id="edge41" class="edge">
<title>Node27&#45;&gt;Node28</title>
<path fill="none" stroke="midnightblue" d="M1853.35,-163.86C1832.59,-153.85 1804.58,-140.35 1786.55,-131.65"/>
<polygon fill="midnightblue" stroke="midnightblue" points="1852.08,-167.13 1862.61,-168.32 1855.12,-160.83 1852.08,-167.13"/>
</g>
<!-- Node29 -->
<g id="node28" class="node">
<title>Node29</title>
<g id="a_node28"><a xlink:href="../../d4/d71/MultiPhase_8h.html" target="_top" xlink:title="Headers for the MultiPhase object that is used to set up multiphase equilibrium problems (see Equilfu...">
<polygon fill="white" stroke="red" points="1311.6,-112.5 1311.6,-131.5 1391.6,-131.5 1391.6,-112.5 1311.6,-112.5"/>
<text text-anchor="middle" x="1351.6" y="-119.5" font-family="Helvetica,sans-Serif" font-size="10.00">MultiPhase.h</text>
</a>
</g>
</g>
<!-- Node27&#45;&gt;Node29 -->
<g id="edge42" class="edge">
<title>Node27&#45;&gt;Node29</title>
<path fill="none" stroke="midnightblue" d="M1826.4,-168.47C1825.12,-168.31 1823.86,-168.15 1822.6,-168 1635.71,-145.55 1587.17,-157.03 1400.6,-132 1397.69,-131.61 1394.68,-131.16 1391.66,-130.68"/>
<polygon fill="midnightblue" stroke="midnightblue" points="1825.94,-171.94 1836.31,-169.81 1826.87,-165 1825.94,-171.94"/>
</g>
<!-- Node35 -->
<g id="node29" class="node">
<title>Node35</title>
<g id="a_node29"><a xlink:href="../../d2/df0/ReactionPath_8h.html" target="_top" xlink:title="Classes for reaction path analysis.">
<polygon fill="white" stroke="red" points="1836.1,-112.5 1836.1,-131.5 1925.1,-131.5 1925.1,-112.5 1836.1,-112.5"/>
<text text-anchor="middle" x="1880.6" y="-119.5" font-family="Helvetica,sans-Serif" font-size="10.00">ReactionPath.h</text>
</a>
</g>
</g>
<!-- Node27&#45;&gt;Node35 -->
<g id="edge47" class="edge">
<title>Node27&#45;&gt;Node35</title>
<path fill="none" stroke="midnightblue" d="M1880.6,-157.8C1880.6,-148.91 1880.6,-138.78 1880.6,-131.75"/>
<polygon fill="midnightblue" stroke="midnightblue" points="1877.1,-158.08 1880.6,-168.08 1884.1,-158.08 1877.1,-158.08"/>
</g>
<!-- Node38 -->
<g id="node30" class="node">
<title>Node38</title>
<g id="a_node30"><a xlink:href="../../d2/d25/solveSP_8h.html" target="_top" xlink:title="Header file for implicit surface problem solver (see Chemical Kinetics and class solveSP).">
<polygon fill="white" stroke="red" points="1942.6,-112.5 1942.6,-131.5 2004.6,-131.5 2004.6,-112.5 1942.6,-112.5"/>
<text text-anchor="middle" x="1973.6" y="-119.5" font-family="Helvetica,sans-Serif" font-size="10.00">solveSP.h</text>
</a>
</g>
</g>
<!-- Node27&#45;&gt;Node38 -->
<g id="edge48" class="edge">
<title>Node27&#45;&gt;Node38</title>
<path fill="none" stroke="midnightblue" d="M1904.41,-163.18C1921.52,-153.24 1944.07,-140.15 1958.7,-131.65"/>
<polygon fill="midnightblue" stroke="midnightblue" points="1902.44,-160.28 1895.55,-168.32 1905.95,-166.33 1902.44,-160.28"/>
</g>
<!-- Node43 -->
<g id="node31" class="node">
<title>Node43</title>
<g id="a_node31"><a xlink:href="../../d8/d05/ResidJacEval_8h.html" target="_top" xlink:title="Dense, Square (not sparse) matrices.">
<polygon fill="white" stroke="red" points="2022.6,-112.5 2022.6,-131.5 2110.6,-131.5 2110.6,-112.5 2022.6,-112.5"/>
<text text-anchor="middle" x="2066.6" y="-119.5" font-family="Helvetica,sans-Serif" font-size="10.00">ResidJacEval.h</text>
</a>
</g>
</g>
<!-- Node27&#45;&gt;Node43 -->
<g id="edge49" class="edge">
<title>Node27&#45;&gt;Node43</title>
<path fill="none" stroke="midnightblue" d="M1919.98,-165.57C1955.07,-155.38 2005.62,-140.7 2037.27,-131.52"/>
<polygon fill="midnightblue" stroke="midnightblue" points="1918.7,-162.29 1910.08,-168.44 1920.65,-169.02 1918.7,-162.29"/>
</g>
<!-- Node49 -->
<g id="node32" class="node">
<title>Node49</title>
<g id="a_node32"><a xlink:href="../../d7/dca/DustyGasTransport_8h.html" target="_top" xlink:title="Headers for the DustyGasTransport object, which models transport properties in porous media using the...">
<polygon fill="white" stroke="red" points="2128.6,-112.5 2128.6,-131.5 2246.6,-131.5 2246.6,-112.5 2128.6,-112.5"/>
<text text-anchor="middle" x="2187.6" y="-119.5" font-family="Helvetica,sans-Serif" font-size="10.00">DustyGasTransport.h</text>
</a>
</g>
</g>
<!-- Node27&#45;&gt;Node49 -->
<g id="edge50" class="edge">
<title>Node27&#45;&gt;Node49</title>
<path fill="none" stroke="midnightblue" d="M1934.98,-167.44C1992.91,-157.25 2083.74,-141.27 2139.25,-131.5"/>
<polygon fill="midnightblue" stroke="midnightblue" points="1934.16,-164.03 1924.92,-169.21 1935.37,-170.92 1934.16,-164.03"/>
</g>
<!-- Node52 -->
<g id="node33" class="node">
<title>Node52</title>
<g id="a_node33"><a xlink:href="../../d1/d2e/GasTransport_8h.html" target="_top" xlink:title=" ">
<polygon fill="white" stroke="red" points="1612.1,-112.5 1612.1,-131.5 1701.1,-131.5 1701.1,-112.5 1612.1,-112.5"/>
<text text-anchor="middle" x="1656.6" y="-119.5" font-family="Helvetica,sans-Serif" font-size="10.00">GasTransport.h</text>
</a>
</g>
</g>
<!-- Node27&#45;&gt;Node52 -->
<g id="edge51" class="edge">
<title>Node27&#45;&gt;Node52</title>
<path fill="none" stroke="midnightblue" d="M1835.34,-166.09C1793.02,-155.89 1730.69,-140.86 1691.93,-131.52"/>
<polygon fill="midnightblue" stroke="midnightblue" points="1834.57,-169.5 1845.11,-168.44 1836.21,-162.7 1834.57,-169.5"/>
</g>
<!-- Node54 -->
<g id="node34" class="node">
<title>Node54</title>
<g id="a_node34"><a xlink:href="../../d0/de4/HighPressureGasTransport_8h.html" target="_top" xlink:title="Interface for class HighPressureGasTransport.">
<polygon fill="white" stroke="red" points="1914.6,-56.5 1914.6,-75.5 2068.6,-75.5 2068.6,-56.5 1914.6,-56.5"/>
<text text-anchor="middle" x="1991.6" y="-63.5" font-family="Helvetica,sans-Serif" font-size="10.00">HighPressureGasTransport.h</text>
</a>
</g>
</g>
<!-- Node27&#45;&gt;Node54 -->
<g id="edge54" class="edge">
<title>Node27&#45;&gt;Node54</title>
<path fill="none" stroke="midnightblue" d="M1826.44,-168.45C1745.81,-155.7 1603.51,-133.07 1602.6,-132 1596.84,-125.23 1596.69,-118.64 1602.6,-112 1605.18,-109.11 1801.78,-87.47 1914.46,-75.28"/>
<polygon fill="midnightblue" stroke="midnightblue" points="1826,-171.93 1836.43,-170.03 1827.1,-165.01 1826,-171.93"/>
</g>
<!-- Node56 -->
<g id="node35" class="node">
<title>Node56</title>
<g id="a_node35"><a xlink:href="../../d5/d57/MixTransport_8h.html" target="_top" xlink:title="Headers for the MixTransport object, which models transport properties in ideal gas solutions using a...">
<polygon fill="white" stroke="red" points="2159.1,-56.5 2159.1,-75.5 2248.1,-75.5 2248.1,-56.5 2159.1,-56.5"/>
<text text-anchor="middle" x="2203.6" y="-63.5" font-family="Helvetica,sans-Serif" font-size="10.00">MixTransport.h</text>
</a>
</g>
</g>
<!-- Node27&#45;&gt;Node56 -->
<g id="edge55" class="edge">
<title>Node27&#45;&gt;Node56</title>
<path fill="none" stroke="midnightblue" d="M1934.97,-174.4C2033.81,-169.11 2234.69,-155.57 2255.6,-132 2272.87,-112.54 2240.15,-88.31 2219.2,-75.64"/>
<polygon fill="midnightblue" stroke="midnightblue" points="1934.68,-170.91 1924.88,-174.93 1935.05,-177.9 1934.68,-170.91"/>
</g>
<!-- Node63 -->
<g id="node36" class="node">
<title>Node63</title>
<g id="a_node36"><a xlink:href="../../d7/d96/TransportParams_8h.html" target="_top" xlink:title="Class that holds the data that is read in from the input file, and which is used for processing of th...">
<polygon fill="white" stroke="red" points="1410.1,-112.5 1410.1,-131.5 1517.1,-131.5 1517.1,-112.5 1410.1,-112.5"/>
<text text-anchor="middle" x="1463.6" y="-119.5" font-family="Helvetica,sans-Serif" font-size="10.00">TransportParams.h</text>
</a>
</g>
</g>
<!-- Node27&#45;&gt;Node63 -->
<g id="edge56" class="edge">
<title>Node27&#45;&gt;Node63</title>
<path fill="none" stroke="midnightblue" d="M1826.39,-168.53C1825.12,-168.35 1823.85,-168.17 1822.6,-168 1693.53,-150.01 1660.87,-148.55 1531.6,-132 1527,-131.41 1522.22,-130.79 1517.42,-130.17"/>
<polygon fill="midnightblue" stroke="midnightblue" points="1825.89,-172 1836.29,-169.98 1826.9,-165.07 1825.89,-172"/>
</g>
<!-- Node29&#45;&gt;Node13 -->
<g id="edge43" class="edge">
<title>Node29&#45;&gt;Node13</title>
<path fill="none" stroke="midnightblue" d="M1327.02,-107.45C1308.93,-97.48 1284.87,-84.23 1269.31,-75.65"/>
<polygon fill="midnightblue" stroke="midnightblue" points="1325.41,-110.56 1335.86,-112.32 1328.79,-104.43 1325.41,-110.56"/>
</g>
<!-- Node29&#45;&gt;Node14 -->
<g id="edge44" class="edge">
<title>Node29&#45;&gt;Node14</title>
<path fill="none" stroke="midnightblue" d="M1351.6,-101.8C1351.6,-92.91 1351.6,-82.78 1351.6,-75.75"/>
<polygon fill="midnightblue" stroke="midnightblue" points="1348.1,-102.08 1351.6,-112.08 1355.1,-102.08 1348.1,-102.08"/>
</g>
<!-- Node29&#45;&gt;Node18 -->
<g id="edge45" class="edge">
<title>Node29&#45;&gt;Node18</title>
<path fill="none" stroke="midnightblue" d="M1401.63,-110.53C1450.28,-100.35 1523.31,-85.06 1568.63,-75.58"/>
<polygon fill="midnightblue" stroke="midnightblue" points="1400.7,-107.15 1391.63,-112.62 1402.14,-114 1400.7,-107.15"/>
</g>
<!-- Node29&#45;&gt;Node22 -->
<g id="edge46" class="edge">
<title>Node29&#45;&gt;Node22</title>
<path fill="none" stroke="midnightblue" d="M1401.72,-111.9C1465.44,-102.05 1593.01,-85.18 1670.06,-75.12"/>
<polygon fill="midnightblue" stroke="midnightblue" points="1401.02,-108.47 1391.69,-113.48 1402.11,-115.38 1401.02,-108.47"/>
</g>
<!-- Node52&#45;&gt;Node54 -->
<g id="edge52" class="edge">
<title>Node52&#45;&gt;Node54</title>
<path fill="none" stroke="midnightblue" d="M1711.16,-111.76C1795.67,-97.87 1882.61,-84.1 1937.25,-75.51"/>
<polygon fill="midnightblue" stroke="midnightblue" points="1710.43,-108.33 1701.13,-113.41 1711.57,-115.24 1710.43,-108.33"/>
</g>
<!-- Node52&#45;&gt;Node56 -->
<g id="edge53" class="edge">
<title>Node52&#45;&gt;Node56</title>
<path fill="none" stroke="midnightblue" d="M1711.34,-111.88C1812.94,-99.33 2057.68,-78.91 2158.84,-70.63"/>
<polygon fill="midnightblue" stroke="midnightblue" points="1710.87,-108.41 1701.39,-113.14 1711.75,-115.36 1710.87,-108.41"/>
</g>
<!-- Node66 -->
<g id="node38" class="node">
<title>Node66</title>
<g id="a_node38"><a xlink:href="../../de/d16/Boundary1D_8cpp.html" target="_top" xlink:title=" ">
<polygon fill="white" stroke="black" points="2533.1,-56.5 2533.1,-75.5 2630.1,-75.5 2630.1,-56.5 2533.1,-56.5"/>
<text text-anchor="middle" x="2581.6" y="-63.5" font-family="Helvetica,sans-Serif" font-size="10.00">Boundary1D.cpp</text>
</a>
</g>
</g>
<!-- Node65&#45;&gt;Node66 -->
<g id="edge58" class="edge">
<title>Node65&#45;&gt;Node66</title>
<path fill="none" stroke="midnightblue" d="M2416.68,-167.72C2466.07,-155.86 2545.36,-136.33 2550.6,-132 2568.54,-117.2 2576.78,-89.59 2579.94,-75.6"/>
<polygon fill="midnightblue" stroke="midnightblue" points="2415.84,-164.32 2406.93,-170.05 2417.47,-171.13 2415.84,-164.32"/>
</g>
<!-- Node67 -->
<g id="node39" class="node">
<title>Node67</title>
<g id="a_node39"><a xlink:href="../../d4/d57/IonFlow_8cpp.html" target="_top" xlink:title=" ">
<polygon fill="white" stroke="black" points="2773.6,-56.5 2773.6,-75.5 2847.6,-75.5 2847.6,-56.5 2773.6,-56.5"/>
<text text-anchor="middle" x="2810.6" y="-63.5" font-family="Helvetica,sans-Serif" font-size="10.00">IonFlow.cpp</text>
</a>
</g>
</g>
<!-- Node65&#45;&gt;Node67 -->
<g id="edge59" class="edge">
<title>Node65&#45;&gt;Node67</title>
<path fill="none" stroke="midnightblue" d="M2416.98,-168.37C2491.41,-161.17 2784.25,-163.04 2812.6,-132 2826.61,-116.66 2819.45,-89.79 2814.31,-75.89"/>
<polygon fill="midnightblue" stroke="midnightblue" points="2416.47,-164.9 2406.98,-169.61 2417.33,-171.85 2416.47,-164.9"/>
</g>
<!-- Node68 -->
<g id="node40" class="node">
<title>Node68</title>
<g id="a_node40"><a xlink:href="../../dd/d3c/refine_8cpp.html" target="_top" xlink:title=" ">
<polygon fill="white" stroke="black" points="2303.1,-112.5 2303.1,-131.5 2368.1,-131.5 2368.1,-112.5 2303.1,-112.5"/>
<text text-anchor="middle" x="2335.6" y="-119.5" font-family="Helvetica,sans-Serif" font-size="10.00">refine.cpp</text>
</a>
</g>
</g>
<!-- Node65&#45;&gt;Node68 -->
<g id="edge60" class="edge">
<title>Node65&#45;&gt;Node68</title>
<path fill="none" stroke="midnightblue" d="M2364.49,-160.14C2357.18,-150.74 2348.36,-139.4 2342.41,-131.75"/>
<polygon fill="midnightblue" stroke="midnightblue" points="2361.77,-162.34 2370.67,-168.08 2367.29,-158.04 2361.77,-162.34"/>
</g>
<!-- Node69 -->
<g id="node41" class="node">
<title>Node69</title>
<g id="a_node41"><a xlink:href="../../d0/de8/Sim1D_8cpp.html" target="_top" xlink:title=" ">
<polygon fill="white" stroke="black" points="2386.1,-112.5 2386.1,-131.5 2455.1,-131.5 2455.1,-112.5 2386.1,-112.5"/>
<text text-anchor="middle" x="2420.6" y="-119.5" font-family="Helvetica,sans-Serif" font-size="10.00">Sim1D.cpp</text>
</a>
</g>
</g>
<!-- Node65&#45;&gt;Node69 -->
<g id="edge61" class="edge">
<title>Node65&#45;&gt;Node69</title>
<path fill="none" stroke="midnightblue" d="M2391.03,-160.14C2398.52,-150.74 2407.54,-139.4 2413.63,-131.75"/>
<polygon fill="midnightblue" stroke="midnightblue" points="2388.2,-158.08 2384.7,-168.08 2393.67,-162.44 2388.2,-158.08"/>
</g>
<!-- Node70 -->
<g id="node42" class="node">
<title>Node70</title>
<g id="a_node42"><a xlink:href="../../d4/d8d/StFlow_8cpp.html" target="_top" xlink:title=" ">
<polygon fill="white" stroke="black" points="2473.1,-112.5 2473.1,-131.5 2542.1,-131.5 2542.1,-112.5 2473.1,-112.5"/>
<text text-anchor="middle" x="2507.6" y="-119.5" font-family="Helvetica,sans-Serif" font-size="10.00">StFlow.cpp</text>
</a>
</g>
</g>
<!-- Node65&#45;&gt;Node70 -->
<g id="edge62" class="edge">
<title>Node65&#45;&gt;Node70</title>
<path fill="none" stroke="midnightblue" d="M2407.69,-164.5C2432.06,-154.38 2465.74,-140.39 2487.1,-131.52"/>
<polygon fill="midnightblue" stroke="midnightblue" points="2406.09,-161.38 2398.2,-168.44 2408.78,-167.84 2406.09,-161.38"/>
</g>
<!-- Node71 -->
<g id="node43" class="node">
<title>Node71</title>
<g id="a_node43"><a xlink:href="../../dc/d7c/Boundary1D_8h.html" target="_top" xlink:title="Boundary objects for one&#45;dimensional simulations.">
<polygon fill="white" stroke="red" points="2598.6,-112.5 2598.6,-131.5 2684.6,-131.5 2684.6,-112.5 2598.6,-112.5"/>
<text text-anchor="middle" x="2641.6" y="-119.5" font-family="Helvetica,sans-Serif" font-size="10.00">Boundary1D.h</text>
</a>
</g>
</g>
<!-- Node65&#45;&gt;Node71 -->
<g id="edge63" class="edge">
<title>Node65&#45;&gt;Node71</title>
<path fill="none" stroke="midnightblue" d="M2416.4,-167.89C2485.71,-152.88 2555.11,-139.37 2598.6,-131.08"/>
<polygon fill="midnightblue" stroke="midnightblue" points="2415.65,-164.47 2406.62,-170.01 2417.14,-171.31 2415.65,-164.47"/>
</g>
<!-- Node73 -->
<g id="node44" class="node">
<title>Node73</title>
<g id="a_node44"><a xlink:href="../../d4/d07/onedim_8h.html" target="_top" xlink:title=" ">
<polygon fill="white" stroke="black" points="2670.6,-56.5 2670.6,-75.5 2732.6,-75.5 2732.6,-56.5 2670.6,-56.5"/>
<text text-anchor="middle" x="2701.6" y="-63.5" font-family="Helvetica,sans-Serif" font-size="10.00">onedim.h</text>
</a>
</g>
</g>
<!-- Node65&#45;&gt;Node73 -->
<g id="edge68" class="edge">
<title>Node65&#45;&gt;Node73</title>
<path fill="none" stroke="midnightblue" d="M2417.02,-168.17C2492.15,-158.42 2651.67,-174.2 2693.6,-132 2708.51,-117 2705.98,-89.48 2703.48,-75.56"/>
<polygon fill="midnightblue" stroke="midnightblue" points="2416.34,-164.73 2407,-169.72 2417.42,-171.65 2416.34,-164.73"/>
</g>
<!-- Node74 -->
<g id="node45" class="node">
<title>Node74</title>
<g id="a_node45"><a xlink:href="../../d7/d4b/IonFlow_8h.html" target="_top" xlink:title=" ">
<polygon fill="white" stroke="black" points="2741.1,-112.5 2741.1,-131.5 2804.1,-131.5 2804.1,-112.5 2741.1,-112.5"/>
<text text-anchor="middle" x="2772.6" y="-119.5" font-family="Helvetica,sans-Serif" font-size="10.00">IonFlow.h</text>
</a>
</g>
</g>
<!-- Node65&#45;&gt;Node74 -->
<g id="edge66" class="edge">
<title>Node65&#45;&gt;Node74</title>
<path fill="none" stroke="midnightblue" d="M2417.06,-167.93C2554.41,-144.35 2592.33,-152.87 2726.6,-132 2731.27,-131.27 2736.18,-130.42 2740.99,-129.52"/>
<polygon fill="midnightblue" stroke="midnightblue" points="2416.24,-164.52 2406.99,-169.68 2417.44,-171.41 2416.24,-164.52"/>
</g>
<!-- Node71&#45;&gt;Node66 -->
<g id="edge64" class="edge">
<title>Node71&#45;&gt;Node66</title>
<path fill="none" stroke="midnightblue" d="M2624.42,-105.54C2613.72,-95.91 2600.35,-83.87 2591.42,-75.83"/>
<polygon fill="midnightblue" stroke="midnightblue" points="2622.19,-108.24 2631.96,-112.32 2626.87,-103.03 2622.19,-108.24"/>
</g>
<!-- Node71&#45;&gt;Node73 -->
<g id="edge65" class="edge">
<title>Node71&#45;&gt;Node73</title>
<path fill="none" stroke="midnightblue" d="M2658.78,-105.54C2669.48,-95.91 2682.86,-83.87 2691.79,-75.83"/>
<polygon fill="midnightblue" stroke="midnightblue" points="2656.33,-103.03 2651.24,-112.32 2661.02,-108.24 2656.33,-103.03"/>
</g>
<!-- Node74&#45;&gt;Node67 -->
<g id="edge67" class="edge">
<title>Node74&#45;&gt;Node67</title>
<path fill="none" stroke="midnightblue" d="M2784.67,-103.86C2791.25,-94.5 2799.11,-83.33 2804.45,-75.75"/>
<polygon fill="midnightblue" stroke="midnightblue" points="2781.77,-101.89 2778.88,-112.08 2787.5,-105.92 2781.77,-101.89"/>
</g>
</g>
</svg>
