<?xml version="1.0" encoding="UTF-8" standalone="no"?>
<!DOCTYPE svg PUBLIC "-//W3C//DTD SVG 1.1//EN"
 "http://www.w3.org/Graphics/SVG/1.1/DTD/svg11.dtd">
<!-- Generated by graphviz version 2.40.1 (20161225.0304)
 -->
<!-- Title: ReactionPath.h Pages: 1 -->
<svg width="206pt" height="84pt"
 viewBox="0.00 0.00 206.00 84.00" xmlns="http://www.w3.org/2000/svg" xmlns:xlink="http://www.w3.org/1999/xlink">
<g id="graph0" class="graph" transform="scale(1 1) rotate(0) translate(4 80)">
<title>ReactionPath.h</title>
<polygon fill="#ffffff" stroke="transparent" points="-4,4 -4,-80 202,-80 202,4 -4,4"/>
<!-- Node45 -->
<g id="node1" class="node">
<title>Node45</title>
<polygon fill="#bfbfbf" stroke="#000000" points="59,-56.5 59,-75.5 144,-75.5 144,-56.5 59,-56.5"/>
<text text-anchor="middle" x="101.5" y="-63.5" font-family="Helvetica,sans-Serif" font-size="10.00" fill="#000000">ReactionPath.h</text>
</g>
<!-- Node46 -->
<g id="node2" class="node">
<title>Node46</title>
<g id="a_node2"><a xlink:href="../../da/d26/ReactionPath_8cpp.html" target="_top" xlink:title="Implementation file for classes used in reaction path analysis. ">
<polygon fill="#ffffff" stroke="#000000" points="0,-.5 0,-19.5 95,-19.5 95,-.5 0,-.5"/>
<text text-anchor="middle" x="47.5" y="-7.5" font-family="Helvetica,sans-Serif" font-size="10.00" fill="#000000">ReactionPath.cpp</text>
</a>
</g>
</g>
<!-- Node45&#45;&gt;Node46 -->
<g id="edge1" class="edge">
<title>Node45&#45;&gt;Node46</title>
<path fill="none" stroke="#191970" d="M84.9031,-48.7884C75.6653,-39.2085 64.5096,-27.6396 56.7983,-19.6427"/>
<polygon fill="#191970" stroke="#191970" points="82.6331,-51.4766 92.0939,-56.2455 87.672,-46.6176 82.6331,-51.4766"/>
</g>
<!-- Node47 -->
<g id="node3" class="node">
<title>Node47</title>
<g id="a_node3"><a xlink:href="../../d8/df8/reactionpaths_8h_source.html" target="_top" xlink:title="reactionpaths.h">
<polygon fill="#ffffff" stroke="#000000" points="113,-.5 113,-19.5 198,-19.5 198,-.5 113,-.5"/>
<text text-anchor="middle" x="155.5" y="-7.5" font-family="Helvetica,sans-Serif" font-size="10.00" fill="#000000">reactionpaths.h</text>
</a>
</g>
</g>
<!-- Node45&#45;&gt;Node47 -->
<g id="edge2" class="edge">
<title>Node45&#45;&gt;Node47</title>
<path fill="none" stroke="#191970" d="M118.0969,-48.7884C127.3347,-39.2085 138.4904,-27.6396 146.2017,-19.6427"/>
<polygon fill="#191970" stroke="#191970" points="115.328,-46.6176 110.9061,-56.2455 120.3669,-51.4766 115.328,-46.6176"/>
</g>
</g>
</svg>
