<?xml version="1.0" encoding="UTF-8" standalone="no"?>
<!DOCTYPE svg PUBLIC "-//W3C//DTD SVG 1.1//EN"
 "http://www.w3.org/Graphics/SVG/1.1/DTD/svg11.dtd">
<!-- Generated by graphviz version 2.40.1 (20161225.0304)
 -->
<!-- Title: IDA_Solver Pages: 1 -->
<svg width="86pt" height="209pt"
 viewBox="0.00 0.00 85.50 209.00" xmlns="http://www.w3.org/2000/svg" xmlns:xlink="http://www.w3.org/1999/xlink">
<g id="graph0" class="graph" transform="scale(1 1) rotate(0) translate(4 205)">
<title>IDA_Solver</title>
<polygon fill="#ffffff" stroke="transparent" points="-4,4 -4,-205 81.5,-205 81.5,4 -4,4"/>
<!-- Node2 -->
<g id="node1" class="node">
<title>Node2</title>
<polygon fill="#bfbfbf" stroke="#000000" points="5,-.5 5,-19.5 72,-19.5 72,-.5 5,-.5"/>
<text text-anchor="middle" x="38.5" y="-7.5" font-family="Helvetica,sans-Serif" font-size="10.00" fill="#000000">IDA_Solver</text>
</g>
<!-- Node3 -->
<g id="node2" class="node">
<title>Node3</title>
<g id="a_node2"><a xlink:href="../../d8/db5/classCantera_1_1DAE__Solver.html" target="_top" xlink:title="Wrapper for DAE solvers. ">
<polygon fill="#ffffff" stroke="#000000" points="3,-57.5 3,-76.5 74,-76.5 74,-57.5 3,-57.5"/>
<text text-anchor="middle" x="38.5" y="-64.5" font-family="Helvetica,sans-Serif" font-size="10.00" fill="#000000">DAE_Solver</text>
</a>
</g>
</g>
<!-- Node3&#45;&gt;Node2 -->
<g id="edge1" class="edge">
<title>Node3&#45;&gt;Node2</title>
<path fill="none" stroke="#191970" d="M38.5,-47.2342C38.5,-37.8491 38.5,-27.0651 38.5,-19.5265"/>
<polygon fill="#191970" stroke="#191970" points="35.0001,-47.3307 38.5,-57.3307 42.0001,-47.3308 35.0001,-47.3307"/>
</g>
<!-- Node4 -->
<g id="node3" class="node">
<title>Node4</title>
<g id="a_node3"><a xlink:href="../../d2/d8d/classCantera_1_1ResidJacEval.html" target="_top" xlink:title="Wrappers for the function evaluators for Nonlinear solvers and Time steppers. ">
<polygon fill="#ffffff" stroke="#000000" points="0,-124.5 0,-143.5 77,-143.5 77,-124.5 0,-124.5"/>
<text text-anchor="middle" x="38.5" y="-131.5" font-family="Helvetica,sans-Serif" font-size="10.00" fill="#000000">ResidJacEval</text>
</a>
</g>
</g>
<!-- Node4&#45;&gt;Node3 -->
<g id="edge2" class="edge">
<title>Node4&#45;&gt;Node3</title>
<path fill="none" stroke="#9a32cd" stroke-dasharray="5,2" d="M38.5,-114.1079C38.5,-101.714 38.5,-86.3263 38.5,-76.5817"/>
<polygon fill="#9a32cd" stroke="#9a32cd" points="35.0001,-114.4005 38.5,-124.4005 42.0001,-114.4006 35.0001,-114.4005"/>
<text text-anchor="middle" x="58" y="-98" font-family="Helvetica,sans-Serif" font-size="10.00" fill="#000000"> m_resid</text>
</g>
<!-- Node5 -->
<g id="node4" class="node">
<title>Node5</title>
<g id="a_node4"><a xlink:href="../../d3/d1f/classCantera_1_1ResidEval.html" target="_top" xlink:title="Virtual base class for DAE residual function evaluators. ">
<polygon fill="#ffffff" stroke="#000000" points="7.5,-181.5 7.5,-200.5 69.5,-200.5 69.5,-181.5 7.5,-181.5"/>
<text text-anchor="middle" x="38.5" y="-188.5" font-family="Helvetica,sans-Serif" font-size="10.00" fill="#000000">ResidEval</text>
</a>
</g>
</g>
<!-- Node5&#45;&gt;Node4 -->
<g id="edge3" class="edge">
<title>Node5&#45;&gt;Node4</title>
<path fill="none" stroke="#191970" d="M38.5,-171.2342C38.5,-161.8491 38.5,-151.0651 38.5,-143.5265"/>
<polygon fill="#191970" stroke="#191970" points="35.0001,-171.3307 38.5,-181.3307 42.0001,-171.3308 35.0001,-171.3307"/>
</g>
</g>
</svg>
