<?xml version="1.0" encoding="UTF-8" standalone="no"?>
<!DOCTYPE svg PUBLIC "-//W3C//DTD SVG 1.1//EN"
 "http://www.w3.org/Graphics/SVG/1.1/DTD/svg11.dtd">
<!-- Generated by graphviz version 2.43.0 (0)
 -->
<!-- Title: application.cpp Pages: 1 -->
<!--zoomable 375 -->
<svg id="main" version="1.1" xmlns="http://www.w3.org/2000/svg" xmlns:xlink="http://www.w3.org/1999/xlink" xml:space="preserve" onload="init(evt)">
<style type="text/css"><![CDATA[
.edge:hover path { stroke: red; }
.edge:hover polygon { stroke: red; fill: red; }
]]></style>
<script type="text/javascript"><![CDATA[
var edges = document.getElementsByTagName('g');
if (edges && edges.length) {
  for (var i=0;i<edges.length;i++) {
    if (edges[i].id.substr(0,4)=='edge') {
      edges[i].setAttribute('class','edge');
    }
  }
}
]]></script>
        <defs>
                <circle id="rim" cx="0" cy="0" r="7"/>
                <circle id="rim2" cx="0" cy="0" r="3.5"/>
                <g id="zoomPlus">
                        <use xlink:href="#rim" fill="#404040">
                                <set attributeName="fill" to="#808080" begin="zoomplus.mouseover" end="zoomplus.mouseout"/>
                        </use>
                        <path d="M-4,0h8M0,-4v8" fill="none" stroke="white" stroke-width="1.5" pointer-events="none"/>
                </g>
                <g id="zoomMin">
                        <use xlink:href="#rim" fill="#404040">
                                <set attributeName="fill" to="#808080" begin="zoomminus.mouseover" end="zoomminus.mouseout"/>
                        </use>
                        <path d="M-4,0h8" fill="none" stroke="white" stroke-width="1.5" pointer-events="none"/>
                </g>
                <g id="dirArrow">
                        <path fill="none" stroke="white" stroke-width="1.5" d="M0,-3.0v7 M-2.5,-0.5L0,-3.0L2.5,-0.5"/>
                </g>
               <g id="resetDef">
                       <use xlink:href="#rim2" fill="#404040">
                               <set attributeName="fill" to="#808080" begin="reset.mouseover" end="reset.mouseout"/>
                       </use>
               </g>
        </defs>

<script type="text/javascript">
var viewWidth = 1058;
var viewHeight = 375;
var sectionId = 'dynsection-0';
</script>
<script xlink:href="../../svgpan.js"/>
<svg id="graph" class="graph">
<g id="viewport">
<title>application.cpp</title>
<polygon fill="white" stroke="transparent" points="-4,4 -4,-371 1054.13,-371 1054.13,4 -4,4"/>
<!-- Node1 -->
<g id="node1" class="node">
<title>Node1</title>
<g id="a_node1"><a xlink:title=" ">
<polygon fill="#bfbfbf" stroke="black" points="737.63,-347.5 737.63,-366.5 828.63,-366.5 828.63,-347.5 737.63,-347.5"/>
<text text-anchor="middle" x="783.13" y="-354.5" font-family="Helvetica,sans-Serif" font-size="10.00">application.cpp</text>
</a>
</g>
</g>
<!-- Node2 -->
<g id="node2" class="node">
<title>Node2</title>
<g id="a_node2"><a xlink:href="../../db/d32/application_8h.html" target="_top" xlink:title=" ">
<polygon fill="white" stroke="black" points="227.13,-179.5 227.13,-198.5 307.13,-198.5 307.13,-179.5 227.13,-179.5"/>
<text text-anchor="middle" x="267.13" y="-186.5" font-family="Helvetica,sans-Serif" font-size="10.00">application.h</text>
</a>
</g>
</g>
<!-- Node1&#45;&gt;Node2 -->
<g id="edge1" class="edge">
<title>Node1&#45;&gt;Node2</title>
<path fill="none" stroke="midnightblue" d="M737.5,-352.86C656.26,-346.81 490.04,-332.23 436.13,-311 372.87,-286.09 311.19,-232.31 283.02,-205.64"/>
<polygon fill="midnightblue" stroke="midnightblue" points="285.33,-203 275.69,-198.59 280.47,-208.05 285.33,-203"/>
</g>
<!-- Node17 -->
<g id="node17" class="node">
<title>Node17</title>
<g id="a_node17"><a xlink:href="../../dc/deb/ctml_8h.html" target="_top" xlink:title="CTML (&quot;Cantera Markup Language&quot;) is the variant of XML that Cantera uses to store data.">
<polygon fill="white" stroke="black" points="444.63,-291.5 444.63,-310.5 557.63,-310.5 557.63,-291.5 444.63,-291.5"/>
<text text-anchor="middle" x="501.13" y="-298.5" font-family="Helvetica,sans-Serif" font-size="10.00">cantera/base/ctml.h</text>
</a>
</g>
</g>
<!-- Node1&#45;&gt;Node17 -->
<g id="edge17" class="edge">
<title>Node1&#45;&gt;Node17</title>
<path fill="none" stroke="midnightblue" d="M738.44,-347.44C688.84,-337.94 608.76,-322.61 555.54,-312.42"/>
<polygon fill="midnightblue" stroke="midnightblue" points="556.08,-308.96 545.6,-310.52 554.77,-315.83 556.08,-308.96"/>
</g>
<!-- Node25 -->
<g id="node23" class="node">
<title>Node25</title>
<g id="a_node23"><a xlink:href="../../dd/dc3/stringUtils_8h.html" target="_top" xlink:title="Contains declarations for string manipulation functions within Cantera.">
<polygon fill="white" stroke="black" points="633.13,-179.5 633.13,-198.5 775.13,-198.5 775.13,-179.5 633.13,-179.5"/>
<text text-anchor="middle" x="704.13" y="-186.5" font-family="Helvetica,sans-Serif" font-size="10.00">cantera/base/stringUtils.h</text>
</a>
</g>
</g>
<!-- Node1&#45;&gt;Node25 -->
<g id="edge27" class="edge">
<title>Node1&#45;&gt;Node25</title>
<path fill="none" stroke="midnightblue" d="M765.12,-347.39C751.31,-339.81 732.99,-327.4 723.13,-311 703.83,-278.92 702.09,-233.74 702.88,-208.65"/>
<polygon fill="midnightblue" stroke="midnightblue" points="706.38,-208.81 703.37,-198.65 699.39,-208.47 706.38,-208.81"/>
</g>
<!-- Node26 -->
<g id="node24" class="node">
<title>Node26</title>
<g id="a_node24"><a xlink:href="../../d3/dfa/units_8h.html" target="_top" xlink:title="Header for units conversion utilities, which are used to translate user input from input files (See I...">
<polygon fill="white" stroke="black" points="732.13,-291.5 732.13,-310.5 782.13,-310.5 782.13,-291.5 732.13,-291.5"/>
<text text-anchor="middle" x="757.13" y="-298.5" font-family="Helvetica,sans-Serif" font-size="10.00">units.h</text>
</a>
</g>
</g>
<!-- Node1&#45;&gt;Node26 -->
<g id="edge31" class="edge">
<title>Node1&#45;&gt;Node26</title>
<path fill="none" stroke="midnightblue" d="M778.83,-347.08C775.27,-339.69 770.1,-328.95 765.7,-319.81"/>
<polygon fill="midnightblue" stroke="midnightblue" points="768.83,-318.24 761.34,-310.75 762.53,-321.28 768.83,-318.24"/>
</g>
<!-- Node27 -->
<g id="node25" class="node">
<title>Node27</title>
<g id="a_node25"><a xlink:title=" ">
<polygon fill="white" stroke="#bfbfbf" points="831.13,-235.5 831.13,-254.5 879.13,-254.5 879.13,-235.5 831.13,-235.5"/>
<text text-anchor="middle" x="855.13" y="-242.5" font-family="Helvetica,sans-Serif" font-size="10.00">mutex</text>
</a>
</g>
</g>
<!-- Node1&#45;&gt;Node27 -->
<g id="edge37" class="edge">
<title>Node1&#45;&gt;Node27</title>
<path fill="none" stroke="midnightblue" d="M788.78,-347.37C800.66,-329.22 828.42,-286.8 844.01,-262.99"/>
<polygon fill="midnightblue" stroke="midnightblue" points="846.96,-264.88 849.5,-254.59 841.1,-261.04 846.96,-264.88"/>
</g>
<!-- Node28 -->
<g id="node26" class="node">
<title>Node28</title>
<g id="a_node26"><a xlink:title=" ">
<polygon fill="white" stroke="#bfbfbf" points="838.63,-291.5 838.63,-310.5 893.63,-310.5 893.63,-291.5 838.63,-291.5"/>
<text text-anchor="middle" x="866.13" y="-298.5" font-family="Helvetica,sans-Serif" font-size="10.00">fstream</text>
</a>
</g>
</g>
<!-- Node1&#45;&gt;Node28 -->
<g id="edge35" class="edge">
<title>Node1&#45;&gt;Node28</title>
<path fill="none" stroke="midnightblue" d="M796.46,-347.32C809.29,-338.98 828.91,-326.21 844.07,-316.35"/>
<polygon fill="midnightblue" stroke="midnightblue" points="846.35,-319.04 852.82,-310.65 842.53,-313.17 846.35,-319.04"/>
</g>
<!-- Node29 -->
<g id="node27" class="node">
<title>Node29</title>
<g id="a_node27"><a xlink:title=" ">
<polygon fill="white" stroke="#bfbfbf" points="912.13,-291.5 912.13,-310.5 968.13,-310.5 968.13,-291.5 912.13,-291.5"/>
<text text-anchor="middle" x="940.13" y="-298.5" font-family="Helvetica,sans-Serif" font-size="10.00">sstream</text>
</a>
</g>
</g>
<!-- Node1&#45;&gt;Node29 -->
<g id="edge36" class="edge">
<title>Node1&#45;&gt;Node29</title>
<path fill="none" stroke="midnightblue" d="M808,-347.44C834.42,-338.36 876.34,-323.94 905.87,-313.78"/>
<polygon fill="midnightblue" stroke="midnightblue" points="907.05,-317.08 915.37,-310.52 904.77,-310.46 907.05,-317.08"/>
</g>
<!-- Node30 -->
<g id="node28" class="node">
<title>Node30</title>
<g id="a_node28"><a xlink:title=" ">
<polygon fill="white" stroke="#bfbfbf" points="986.13,-291.5 986.13,-310.5 1050.13,-310.5 1050.13,-291.5 986.13,-291.5"/>
<text text-anchor="middle" x="1018.13" y="-298.5" font-family="Helvetica,sans-Serif" font-size="10.00">sys/stat.h</text>
</a>
</g>
</g>
<!-- Node1&#45;&gt;Node30 -->
<g id="edge38" class="edge">
<title>Node1&#45;&gt;Node30</title>
<path fill="none" stroke="midnightblue" d="M820.36,-347.44C862.75,-337.7 931.82,-321.83 976.1,-311.66"/>
<polygon fill="midnightblue" stroke="midnightblue" points="977.01,-315.04 985.97,-309.39 975.44,-308.22 977.01,-315.04"/>
</g>
<!-- Node3 -->
<g id="node3" class="node">
<title>Node3</title>
<g id="a_node3"><a xlink:href="../../db/d16/config_8h_source.html" target="_top" xlink:title=" ">
<polygon fill="white" stroke="black" points="80.63,-0.5 80.63,-19.5 201.63,-19.5 201.63,-0.5 80.63,-0.5"/>
<text text-anchor="middle" x="141.13" y="-7.5" font-family="Helvetica,sans-Serif" font-size="10.00">cantera/base/config.h</text>
</a>
</g>
</g>
<!-- Node2&#45;&gt;Node3 -->
<g id="edge2" class="edge">
<title>Node2&#45;&gt;Node3</title>
<path fill="none" stroke="midnightblue" d="M227.03,-187.14C161,-184.78 33.9,-175.97 6.13,-143 -17.21,-115.3 36.95,-56.16 37.13,-56 54.16,-40.55 77.31,-29.83 97.45,-22.74"/>
<polygon fill="midnightblue" stroke="midnightblue" points="98.67,-26.02 107.06,-19.54 96.46,-19.38 98.67,-26.02"/>
</g>
<!-- Node4 -->
<g id="node4" class="node">
<title>Node4</title>
<g id="a_node4"><a xlink:href="../../d1/d8c/logger_8h.html" target="_top" xlink:title="Header for Base class for &#39;loggers&#39; that write text messages to log files (see Writing messages to th...">
<polygon fill="white" stroke="black" points="15.13,-118 15.13,-137 137.13,-137 137.13,-118 15.13,-118"/>
<text text-anchor="middle" x="76.13" y="-125" font-family="Helvetica,sans-Serif" font-size="10.00">cantera/base/logger.h</text>
</a>
</g>
</g>
<!-- Node2&#45;&gt;Node4 -->
<g id="edge3" class="edge">
<title>Node2&#45;&gt;Node4</title>
<path fill="none" stroke="midnightblue" d="M239.76,-179.48C206.57,-169.14 150.48,-151.66 113.37,-140.1"/>
<polygon fill="midnightblue" stroke="midnightblue" points="114.03,-136.64 103.44,-137.01 111.95,-143.32 114.03,-136.64"/>
</g>
<!-- Node14 -->
<g id="node14" class="node">
<title>Node14</title>
<g id="a_node14"><a xlink:title=" ">
<polygon fill="white" stroke="#bfbfbf" points="155.63,-112.5 155.63,-142.5 280.63,-142.5 280.63,-112.5 155.63,-112.5"/>
<text text-anchor="start" x="163.63" y="-130.5" font-family="Helvetica,sans-Serif" font-size="10.00">boost/algorithm/string</text>
<text text-anchor="middle" x="218.13" y="-119.5" font-family="Helvetica,sans-Serif" font-size="10.00">/join.hpp</text>
</a>
</g>
</g>
<!-- Node2&#45;&gt;Node14 -->
<g id="edge14" class="edge">
<title>Node2&#45;&gt;Node14</title>
<path fill="none" stroke="midnightblue" d="M260.11,-179.48C253.84,-171.87 244.4,-160.4 236.05,-150.26"/>
<polygon fill="midnightblue" stroke="midnightblue" points="238.73,-148.02 229.68,-142.52 233.33,-152.47 238.73,-148.02"/>
</g>
<!-- Node15 -->
<g id="node15" class="node">
<title>Node15</title>
<g id="a_node15"><a xlink:title=" ">
<polygon fill="white" stroke="#bfbfbf" points="299.13,-118 299.13,-137 331.13,-137 331.13,-118 299.13,-118"/>
<text text-anchor="middle" x="315.13" y="-125" font-family="Helvetica,sans-Serif" font-size="10.00">set</text>
</a>
</g>
</g>
<!-- Node2&#45;&gt;Node15 -->
<g id="edge15" class="edge">
<title>Node2&#45;&gt;Node15</title>
<path fill="none" stroke="midnightblue" d="M274,-179.48C281.28,-170.46 292.92,-156.02 301.97,-144.81"/>
<polygon fill="midnightblue" stroke="midnightblue" points="304.71,-146.99 308.26,-137.01 299.26,-142.59 304.71,-146.99"/>
</g>
<!-- Node16 -->
<g id="node16" class="node">
<title>Node16</title>
<g id="a_node16"><a xlink:title=" ">
<polygon fill="white" stroke="#bfbfbf" points="349.13,-118 349.13,-137 397.13,-137 397.13,-118 349.13,-118"/>
<text text-anchor="middle" x="373.13" y="-125" font-family="Helvetica,sans-Serif" font-size="10.00">thread</text>
</a>
</g>
</g>
<!-- Node2&#45;&gt;Node16 -->
<g id="edge16" class="edge">
<title>Node2&#45;&gt;Node16</title>
<path fill="none" stroke="midnightblue" d="M282.31,-179.48C299.79,-169.67 328.71,-153.43 349.21,-141.92"/>
<polygon fill="midnightblue" stroke="midnightblue" points="350.96,-144.96 357.97,-137.01 347.53,-138.85 350.96,-144.96"/>
</g>
<!-- Node5 -->
<g id="node5" class="node">
<title>Node5</title>
<g id="a_node5"><a xlink:href="../../d9/ddc/ct__defs_8h.html" target="_top" xlink:title="This file contains definitions of terms that are used in internal routines and are unlikely to need m...">
<polygon fill="white" stroke="black" points="465.63,-56.5 465.63,-75.5 526.63,-75.5 526.63,-56.5 465.63,-56.5"/>
<text text-anchor="middle" x="496.13" y="-63.5" font-family="Helvetica,sans-Serif" font-size="10.00">ct_defs.h</text>
</a>
</g>
</g>
<!-- Node4&#45;&gt;Node5 -->
<g id="edge4" class="edge">
<title>Node4&#45;&gt;Node5</title>
<path fill="none" stroke="midnightblue" d="M115.46,-117.93C125.74,-115.84 136.83,-113.71 147.13,-112 257.87,-93.58 389.46,-78.42 454.9,-71.33"/>
<polygon fill="midnightblue" stroke="midnightblue" points="455.64,-74.77 465.2,-70.22 454.89,-67.81 455.64,-74.77"/>
</g>
<!-- Node13 -->
<g id="node13" class="node">
<title>Node13</title>
<g id="a_node13"><a xlink:title=" ">
<polygon fill="white" stroke="#bfbfbf" points="46.13,-56.5 46.13,-75.5 106.13,-75.5 106.13,-56.5 46.13,-56.5"/>
<text text-anchor="middle" x="76.13" y="-63.5" font-family="Helvetica,sans-Serif" font-size="10.00">iostream</text>
</a>
</g>
</g>
<!-- Node4&#45;&gt;Node13 -->
<g id="edge13" class="edge">
<title>Node4&#45;&gt;Node13</title>
<path fill="none" stroke="midnightblue" d="M76.13,-117.98C76.13,-109.58 76.13,-96.48 76.13,-85.66"/>
<polygon fill="midnightblue" stroke="midnightblue" points="79.63,-85.51 76.13,-75.51 72.63,-85.51 79.63,-85.51"/>
</g>
<!-- Node5&#45;&gt;Node3 -->
<g id="edge5" class="edge">
<title>Node5&#45;&gt;Node3</title>
<path fill="none" stroke="midnightblue" d="M465.55,-60.35C408.41,-51.66 284.25,-32.77 207.18,-21.05"/>
<polygon fill="midnightblue" stroke="midnightblue" points="207.51,-17.56 197.09,-19.51 206.45,-24.48 207.51,-17.56"/>
</g>
<!-- Node6 -->
<g id="node6" class="node">
<title>Node6</title>
<g id="a_node6"><a xlink:title=" ">
<polygon fill="white" stroke="#bfbfbf" points="309.63,-0.5 309.63,-19.5 356.63,-19.5 356.63,-0.5 309.63,-0.5"/>
<text text-anchor="middle" x="333.13" y="-7.5" font-family="Helvetica,sans-Serif" font-size="10.00">cmath</text>
</a>
</g>
</g>
<!-- Node5&#45;&gt;Node6 -->
<g id="edge6" class="edge">
<title>Node5&#45;&gt;Node6</title>
<path fill="none" stroke="midnightblue" d="M470.3,-56.44C442.23,-47.15 397.29,-32.26 366.55,-22.07"/>
<polygon fill="midnightblue" stroke="midnightblue" points="367.31,-18.64 356.72,-18.82 365.11,-25.28 367.31,-18.64"/>
</g>
<!-- Node7 -->
<g id="node7" class="node">
<title>Node7</title>
<g id="a_node7"><a xlink:title=" ">
<polygon fill="white" stroke="#bfbfbf" points="374.63,-0.5 374.63,-19.5 423.63,-19.5 423.63,-0.5 374.63,-0.5"/>
<text text-anchor="middle" x="399.13" y="-7.5" font-family="Helvetica,sans-Serif" font-size="10.00">cstdlib</text>
</a>
</g>
</g>
<!-- Node5&#45;&gt;Node7 -->
<g id="edge7" class="edge">
<title>Node5&#45;&gt;Node7</title>
<path fill="none" stroke="midnightblue" d="M480.54,-56.32C465.13,-47.74 441.31,-34.49 423.42,-24.52"/>
<polygon fill="midnightblue" stroke="midnightblue" points="425.11,-21.46 414.67,-19.65 421.71,-27.58 425.11,-21.46"/>
</g>
<!-- Node8 -->
<g id="node8" class="node">
<title>Node8</title>
<g id="a_node8"><a xlink:title=" ">
<polygon fill="white" stroke="#bfbfbf" points="441.63,-0.5 441.63,-19.5 488.63,-19.5 488.63,-0.5 441.63,-0.5"/>
<text text-anchor="middle" x="465.13" y="-7.5" font-family="Helvetica,sans-Serif" font-size="10.00">vector</text>
</a>
</g>
</g>
<!-- Node5&#45;&gt;Node8 -->
<g id="edge8" class="edge">
<title>Node5&#45;&gt;Node8</title>
<path fill="none" stroke="midnightblue" d="M491.01,-56.08C486.72,-48.61 480.47,-37.72 475.18,-28.52"/>
<polygon fill="midnightblue" stroke="midnightblue" points="478.17,-26.68 470.15,-19.75 472.09,-30.17 478.17,-26.68"/>
</g>
<!-- Node9 -->
<g id="node9" class="node">
<title>Node9</title>
<g id="a_node9"><a xlink:title=" ">
<polygon fill="white" stroke="#bfbfbf" points="507.13,-0.5 507.13,-19.5 545.13,-19.5 545.13,-0.5 507.13,-0.5"/>
<text text-anchor="middle" x="526.13" y="-7.5" font-family="Helvetica,sans-Serif" font-size="10.00">map</text>
</a>
</g>
</g>
<!-- Node5&#45;&gt;Node9 -->
<g id="edge9" class="edge">
<title>Node5&#45;&gt;Node9</title>
<path fill="none" stroke="midnightblue" d="M501.08,-56.08C505.23,-48.61 511.28,-37.72 516.39,-28.52"/>
<polygon fill="midnightblue" stroke="midnightblue" points="519.47,-30.19 521.27,-19.75 513.35,-26.79 519.47,-30.19"/>
</g>
<!-- Node10 -->
<g id="node10" class="node">
<title>Node10</title>
<g id="a_node10"><a xlink:title=" ">
<polygon fill="white" stroke="#bfbfbf" points="754.13,-0.5 754.13,-19.5 798.13,-19.5 798.13,-0.5 754.13,-0.5"/>
<text text-anchor="middle" x="776.13" y="-7.5" font-family="Helvetica,sans-Serif" font-size="10.00">string</text>
</a>
</g>
</g>
<!-- Node5&#45;&gt;Node10 -->
<g id="edge10" class="edge">
<title>Node5&#45;&gt;Node10</title>
<path fill="none" stroke="midnightblue" d="M526.89,-59.07C580.3,-48.77 689.65,-27.68 743.99,-17.2"/>
<polygon fill="midnightblue" stroke="midnightblue" points="744.94,-20.58 754.1,-15.25 743.61,-13.71 744.94,-20.58"/>
</g>
<!-- Node11 -->
<g id="node11" class="node">
<title>Node11</title>
<g id="a_node11"><a xlink:title=" ">
<polygon fill="white" stroke="#bfbfbf" points="563.13,-0.5 563.13,-19.5 627.13,-19.5 627.13,-0.5 563.13,-0.5"/>
<text text-anchor="middle" x="595.13" y="-7.5" font-family="Helvetica,sans-Serif" font-size="10.00">algorithm</text>
</a>
</g>
</g>
<!-- Node5&#45;&gt;Node11 -->
<g id="edge11" class="edge">
<title>Node5&#45;&gt;Node11</title>
<path fill="none" stroke="midnightblue" d="M512.03,-56.32C527.77,-47.74 552.07,-34.49 570.34,-24.52"/>
<polygon fill="midnightblue" stroke="midnightblue" points="572.16,-27.52 579.26,-19.65 568.81,-21.37 572.16,-27.52"/>
</g>
<!-- Node12 -->
<g id="node12" class="node">
<title>Node12</title>
<g id="a_node12"><a xlink:title=" ">
<polygon fill="white" stroke="#bfbfbf" points="645.13,-0.5 645.13,-19.5 703.13,-19.5 703.13,-0.5 645.13,-0.5"/>
<text text-anchor="middle" x="674.13" y="-7.5" font-family="Helvetica,sans-Serif" font-size="10.00">memory</text>
</a>
</g>
</g>
<!-- Node5&#45;&gt;Node12 -->
<g id="edge12" class="edge">
<title>Node5&#45;&gt;Node12</title>
<path fill="none" stroke="midnightblue" d="M524.33,-56.44C554.54,-47.28 602.64,-32.69 636.16,-22.52"/>
<polygon fill="midnightblue" stroke="midnightblue" points="637.5,-25.77 646.05,-19.52 635.47,-19.07 637.5,-25.77"/>
</g>
<!-- Node17&#45;&gt;Node5 -->
<g id="edge18" class="edge">
<title>Node17&#45;&gt;Node5</title>
<path fill="none" stroke="midnightblue" d="M493.78,-291.3C480.36,-274.69 452.46,-236.75 444.13,-199 434.57,-155.73 464.13,-108.09 482.54,-83.59"/>
<polygon fill="midnightblue" stroke="midnightblue" points="485.34,-85.69 488.73,-75.66 479.82,-81.39 485.34,-85.69"/>
</g>
<!-- Node18 -->
<g id="node18" class="node">
<title>Node18</title>
<g id="a_node18"><a xlink:href="../../d0/d62/xml_8h.html" target="_top" xlink:title="Classes providing support for XML data files.">
<polygon fill="white" stroke="black" points="479.13,-235.5 479.13,-254.5 523.13,-254.5 523.13,-235.5 479.13,-235.5"/>
<text text-anchor="middle" x="501.13" y="-242.5" font-family="Helvetica,sans-Serif" font-size="10.00">xml.h</text>
</a>
</g>
</g>
<!-- Node17&#45;&gt;Node18 -->
<g id="edge19" class="edge">
<title>Node17&#45;&gt;Node18</title>
<path fill="none" stroke="midnightblue" d="M501.13,-291.08C501.13,-284.01 501.13,-273.86 501.13,-264.99"/>
<polygon fill="midnightblue" stroke="midnightblue" points="504.63,-264.75 501.13,-254.75 497.63,-264.75 504.63,-264.75"/>
</g>
<!-- Node19 -->
<g id="node19" class="node">
<title>Node19</title>
<g id="a_node19"><a xlink:href="../../db/d98/ctexceptions_8h.html" target="_top" xlink:title="Definitions for the classes that are thrown when Cantera experiences an error condition (also contain...">
<polygon fill="white" stroke="black" points="527.13,-179.5 527.13,-198.5 615.13,-198.5 615.13,-179.5 527.13,-179.5"/>
<text text-anchor="middle" x="571.13" y="-186.5" font-family="Helvetica,sans-Serif" font-size="10.00">ctexceptions.h</text>
</a>
</g>
</g>
<!-- Node18&#45;&gt;Node19 -->
<g id="edge20" class="edge">
<title>Node18&#45;&gt;Node19</title>
<path fill="none" stroke="midnightblue" d="M512.37,-235.32C522.92,-227.18 538.93,-214.84 551.57,-205.09"/>
<polygon fill="midnightblue" stroke="midnightblue" points="553.9,-207.71 559.68,-198.83 549.62,-202.17 553.9,-207.71"/>
</g>
<!-- Node24 -->
<g id="node22" class="node">
<title>Node24</title>
<g id="a_node22"><a xlink:href="../../d2/d49/global_8h.html" target="_top" xlink:title="This file contains definitions for utility functions and text for modules, inputfiles,...">
<polygon fill="white" stroke="black" points="453.13,-179.5 453.13,-198.5 509.13,-198.5 509.13,-179.5 453.13,-179.5"/>
<text text-anchor="middle" x="481.13" y="-186.5" font-family="Helvetica,sans-Serif" font-size="10.00">global.h</text>
</a>
</g>
</g>
<!-- Node18&#45;&gt;Node24 -->
<g id="edge24" class="edge">
<title>Node18&#45;&gt;Node24</title>
<path fill="none" stroke="midnightblue" d="M497.82,-235.08C495.15,-227.85 491.28,-217.41 487.94,-208.4"/>
<polygon fill="midnightblue" stroke="midnightblue" points="491.12,-206.91 484.37,-198.75 484.56,-209.34 491.12,-206.91"/>
</g>
<!-- Node20 -->
<g id="node20" class="node">
<title>Node20</title>
<g id="a_node20"><a xlink:href="../../db/def/fmt_8h.html" target="_top" xlink:title="Wrapper for either system&#45;installed or local headers for fmt.">
<polygon fill="white" stroke="red" points="491.63,-118 491.63,-137 600.63,-137 600.63,-118 491.63,-118"/>
<text text-anchor="middle" x="546.13" y="-125" font-family="Helvetica,sans-Serif" font-size="10.00">cantera/base/fmt.h</text>
</a>
</g>
</g>
<!-- Node19&#45;&gt;Node20 -->
<g id="edge21" class="edge">
<title>Node19&#45;&gt;Node20</title>
<path fill="none" stroke="midnightblue" d="M567.55,-179.48C563.94,-170.9 558.28,-157.43 553.68,-146.48"/>
<polygon fill="midnightblue" stroke="midnightblue" points="556.8,-144.87 549.7,-137.01 550.35,-147.58 556.8,-144.87"/>
</g>
<!-- Node23 -->
<g id="node21" class="node">
<title>Node23</title>
<g id="a_node21"><a xlink:title=" ">
<polygon fill="white" stroke="#bfbfbf" points="618.63,-118 618.63,-137 683.63,-137 683.63,-118 618.63,-118"/>
<text text-anchor="middle" x="651.13" y="-125" font-family="Helvetica,sans-Serif" font-size="10.00">exception</text>
</a>
</g>
</g>
<!-- Node19&#45;&gt;Node23 -->
<g id="edge23" class="edge">
<title>Node19&#45;&gt;Node23</title>
<path fill="none" stroke="midnightblue" d="M582.59,-179.48C595.3,-170.02 616.04,-154.6 631.38,-143.19"/>
<polygon fill="midnightblue" stroke="midnightblue" points="633.75,-145.79 639.69,-137.01 629.57,-140.17 633.75,-145.79"/>
</g>
<!-- Node20&#45;&gt;Node5 -->
<g id="edge22" class="edge">
<title>Node20&#45;&gt;Node5</title>
<path fill="none" stroke="midnightblue" d="M538.96,-117.98C531.39,-108.96 519.26,-94.52 509.83,-83.31"/>
<polygon fill="midnightblue" stroke="midnightblue" points="512.39,-80.91 503.28,-75.51 507.03,-85.42 512.39,-80.91"/>
</g>
<!-- Node24&#45;&gt;Node5 -->
<g id="edge25" class="edge">
<title>Node24&#45;&gt;Node5</title>
<path fill="none" stroke="midnightblue" d="M480.63,-179.04C480,-164.76 479.41,-136 483.13,-112 484.51,-103.06 487.15,-93.39 489.69,-85.32"/>
<polygon fill="midnightblue" stroke="midnightblue" points="493.01,-86.41 492.85,-75.81 486.37,-84.19 493.01,-86.41"/>
</g>
<!-- Node24&#45;&gt;Node20 -->
<g id="edge26" class="edge">
<title>Node24&#45;&gt;Node20</title>
<path fill="none" stroke="midnightblue" d="M490.44,-179.48C500.58,-170.2 516.99,-155.17 529.38,-143.83"/>
<polygon fill="midnightblue" stroke="midnightblue" points="531.82,-146.34 536.83,-137.01 527.09,-141.18 531.82,-146.34"/>
</g>
<!-- Node25&#45;&gt;Node5 -->
<g id="edge28" class="edge">
<title>Node25&#45;&gt;Node5</title>
<path fill="none" stroke="midnightblue" d="M705.7,-179.41C708.02,-163.81 710.39,-130.72 693.13,-112 672.38,-89.5 588.4,-76.77 537.02,-70.94"/>
<polygon fill="midnightblue" stroke="midnightblue" points="537.22,-67.44 526.9,-69.83 536.46,-74.4 537.22,-67.44"/>
</g>
<!-- Node25&#45;&gt;Node10 -->
<g id="edge30" class="edge">
<title>Node25&#45;&gt;Node10</title>
<path fill="none" stroke="midnightblue" d="M707.6,-179.46C718.69,-152.19 753.44,-66.78 768.75,-29.13"/>
<polygon fill="midnightblue" stroke="midnightblue" points="771.99,-30.45 772.52,-19.87 765.51,-27.81 771.99,-30.45"/>
</g>
<!-- Node25&#45;&gt;Node20 -->
<g id="edge29" class="edge">
<title>Node25&#45;&gt;Node20</title>
<path fill="none" stroke="midnightblue" d="M681.49,-179.48C654.39,-169.27 608.82,-152.11 578.12,-140.55"/>
<polygon fill="midnightblue" stroke="midnightblue" points="579.31,-137.26 568.72,-137.01 576.85,-143.81 579.31,-137.26"/>
</g>
<!-- Node26&#45;&gt;Node5 -->
<g id="edge32" class="edge">
<title>Node26&#45;&gt;Node5</title>
<path fill="none" stroke="midnightblue" d="M762.52,-291.45C774.58,-271.18 801.35,-218.92 784.13,-179 766.94,-139.16 751.6,-132.05 713.13,-112 656.47,-82.47 582,-72.32 536.68,-68.83"/>
<polygon fill="midnightblue" stroke="midnightblue" points="536.86,-65.33 526.64,-68.13 536.37,-72.31 536.86,-65.33"/>
</g>
<!-- Node26&#45;&gt;Node19 -->
<g id="edge33" class="edge">
<title>Node26&#45;&gt;Node19</title>
<path fill="none" stroke="midnightblue" d="M742.53,-291.37C710.48,-272.41 633.69,-227 594.7,-203.94"/>
<polygon fill="midnightblue" stroke="midnightblue" points="596.04,-200.67 585.65,-198.59 592.48,-206.69 596.04,-200.67"/>
</g>
<!-- Node26&#45;&gt;Node27 -->
<g id="edge34" class="edge">
<title>Node26&#45;&gt;Node27</title>
<path fill="none" stroke="midnightblue" d="M772.87,-291.32C788.45,-282.74 812.5,-269.49 830.59,-259.52"/>
<polygon fill="midnightblue" stroke="midnightblue" points="832.35,-262.55 839.42,-254.65 828.97,-256.42 832.35,-262.55"/>
</g>
</g>
</svg>
        <g id="navigator" transform="translate(0 0)" fill="#404254">
                <rect fill="#f2f5e9" fill-opacity="0.5" stroke="#606060" stroke-width=".5" x="0" y="0" width="60" height="60"/>
                <use id="zoomplus" xlink:href="#zoomPlus" x="17" y="9" onmousedown="handleZoom(evt,'in')"/>
                <use id="zoomminus" xlink:href="#zoomMin" x="42" y="9" onmousedown="handleZoom(evt,'out')"/>
                <use id="reset" xlink:href="#resetDef" x="30" y="36" onmousedown="handleReset()"/>
                <g id="arrowUp" xlink:href="#dirArrow" transform="translate(30 24)" onmousedown="handlePan(0,-1)">
                  <use xlink:href="#rim" fill="#404040">
                        <set attributeName="fill" to="#808080" begin="arrowUp.mouseover" end="arrowUp.mouseout"/>
                  </use>
                  <path fill="none" stroke="white" stroke-width="1.5" d="M0,-3.0v7 M-2.5,-0.5L0,-3.0L2.5,-0.5"/>
                </g>
                <g id="arrowRight" xlink:href="#dirArrow" transform="rotate(90) translate(36 -43)" onmousedown="handlePan(1,0)">
                  <use xlink:href="#rim" fill="#404040">
                        <set attributeName="fill" to="#808080" begin="arrowRight.mouseover" end="arrowRight.mouseout"/>
                  </use>
                  <path fill="none" stroke="white" stroke-width="1.5" d="M0,-3.0v7 M-2.5,-0.5L0,-3.0L2.5,-0.5"/>
                </g>
                <g id="arrowDown" xlink:href="#dirArrow" transform="rotate(180) translate(-30 -48)" onmousedown="handlePan(0,1)">
                  <use xlink:href="#rim" fill="#404040">
                        <set attributeName="fill" to="#808080" begin="arrowDown.mouseover" end="arrowDown.mouseout"/>
                  </use>
                  <path fill="none" stroke="white" stroke-width="1.5" d="M0,-3.0v7 M-2.5,-0.5L0,-3.0L2.5,-0.5"/>
                </g>
                <g id="arrowLeft" xlink:href="#dirArrow" transform="rotate(270) translate(-36 17)" onmousedown="handlePan(-1,0)">
                  <use xlink:href="#rim" fill="#404040">
                        <set attributeName="fill" to="#808080" begin="arrowLeft.mouseover" end="arrowLeft.mouseout"/>
                  </use>
                  <path fill="none" stroke="white" stroke-width="1.5" d="M0,-3.0v7 M-2.5,-0.5L0,-3.0L2.5,-0.5"/>
                </g>
        </g>
        <svg viewBox="0 0 15 15" width="100%" height="30px" preserveAspectRatio="xMaxYMin meet">
         <g id="arrow_out" transform="scale(0.3 0.3)">
          <a xlink:href="application_8cpp__incl_org.svg" target="_base">
           <rect id="button" ry="5" rx="5" y="6" x="6" height="38" width="38"
                fill="#f2f5e9" fill-opacity="0.5" stroke="#606060" stroke-width="1.0"/>
           <path id="arrow"
             d="M 11.500037,31.436501 C 11.940474,20.09759 22.043105,11.32322 32.158766,21.979434 L 37.068811,17.246167 C 37.068811,17.246167 37.088388,32 37.088388,32 L 22.160133,31.978069 C 22.160133,31.978069 26.997745,27.140456 26.997745,27.140456 C 18.528582,18.264221 13.291696,25.230495 11.500037,31.436501 z"
             style="fill:#404040;"/>
          </a>
         </g>
        </svg>
</svg>
