<?xml version="1.0" encoding="UTF-8" standalone="no"?>
<!DOCTYPE svg PUBLIC "-//W3C//DTD SVG 1.1//EN"
 "http://www.w3.org/Graphics/SVG/1.1/DTD/svg11.dtd">
<!-- Generated by graphviz version 2.43.0 (0)
 -->
<!-- Title: Nasa9PolyMultiTempRegion.h Pages: 1 -->
<!--zoomable 364 -->
<svg id="main" version="1.1" xmlns="http://www.w3.org/2000/svg" xmlns:xlink="http://www.w3.org/1999/xlink" xml:space="preserve" onload="init(evt)">
<style type="text/css"><![CDATA[
.edge:hover path { stroke: red; }
.edge:hover polygon { stroke: red; fill: red; }
]]></style>
<script type="text/javascript"><![CDATA[
var edges = document.getElementsByTagName('g');
if (edges && edges.length) {
  for (var i=0;i<edges.length;i++) {
    if (edges[i].id.substr(0,4)=='edge') {
      edges[i].setAttribute('class','edge');
    }
  }
}
]]></script>
        <defs>
                <circle id="rim" cx="0" cy="0" r="7"/>
                <circle id="rim2" cx="0" cy="0" r="3.5"/>
                <g id="zoomPlus">
                        <use xlink:href="#rim" fill="#404040">
                                <set attributeName="fill" to="#808080" begin="zoomplus.mouseover" end="zoomplus.mouseout"/>
                        </use>
                        <path d="M-4,0h8M0,-4v8" fill="none" stroke="white" stroke-width="1.5" pointer-events="none"/>
                </g>
                <g id="zoomMin">
                        <use xlink:href="#rim" fill="#404040">
                                <set attributeName="fill" to="#808080" begin="zoomminus.mouseover" end="zoomminus.mouseout"/>
                        </use>
                        <path d="M-4,0h8" fill="none" stroke="white" stroke-width="1.5" pointer-events="none"/>
                </g>
                <g id="dirArrow">
                        <path fill="none" stroke="white" stroke-width="1.5" d="M0,-3.0v7 M-2.5,-0.5L0,-3.0L2.5,-0.5"/>
                </g>
               <g id="resetDef">
                       <use xlink:href="#rim2" fill="#404040">
                               <set attributeName="fill" to="#808080" begin="reset.mouseover" end="reset.mouseout"/>
                       </use>
               </g>
        </defs>

<script type="text/javascript">
var viewWidth = 589;
var viewHeight = 364;
var sectionId = 'dynsection-0';
</script>
<script xlink:href="../../svgpan.js"/>
<svg id="graph" class="graph">
<g id="viewport">
<title>Nasa9PolyMultiTempRegion.h</title>
<polygon fill="white" stroke="transparent" points="-4,4 -4,-360 585.37,-360 585.37,4 -4,4"/>
<!-- Node1 -->
<g id="node1" class="node">
<title>Node1</title>
<g id="a_node1"><a xlink:title="Header for a single&#45;species standard state object derived from SpeciesThermoInterpType based on the N...">
<polygon fill="#bfbfbf" stroke="black" points="77.37,-336.5 77.37,-355.5 239.37,-355.5 239.37,-336.5 77.37,-336.5"/>
<text text-anchor="middle" x="158.37" y="-343.5" font-family="Helvetica,sans-Serif" font-size="10.00">Nasa9PolyMultiTempRegion.h</text>
</a>
</g>
</g>
<!-- Node2 -->
<g id="node2" class="node">
<title>Node2</title>
<g id="a_node2"><a xlink:href="../../df/df1/Nasa9Poly1_8h.html" target="_top" xlink:title="Header for a single&#45;species standard state object derived from SpeciesThermoInterpType based on the N...">
<polygon fill="white" stroke="black" points="77.87,-280.5 77.87,-299.5 238.87,-299.5 238.87,-280.5 77.87,-280.5"/>
<text text-anchor="middle" x="158.37" y="-287.5" font-family="Helvetica,sans-Serif" font-size="10.00">cantera/thermo/Nasa9Poly1.h</text>
</a>
</g>
</g>
<!-- Node1&#45;&gt;Node2 -->
<g id="edge1" class="edge">
<title>Node1&#45;&gt;Node2</title>
<path fill="none" stroke="midnightblue" d="M158.37,-336.08C158.37,-329.01 158.37,-318.86 158.37,-309.99"/>
<polygon fill="midnightblue" stroke="midnightblue" points="161.87,-309.75 158.37,-299.75 154.87,-309.75 161.87,-309.75"/>
</g>
<!-- Node3 -->
<g id="node3" class="node">
<title>Node3</title>
<g id="a_node3"><a xlink:href="../../d4/d87/SpeciesThermoInterpType_8h.html" target="_top" xlink:title="Pure Virtual Base class for individual species reference state thermodynamic managers and text for th...">
<polygon fill="white" stroke="black" points="82.37,-224.5 82.37,-243.5 234.37,-243.5 234.37,-224.5 82.37,-224.5"/>
<text text-anchor="middle" x="158.37" y="-231.5" font-family="Helvetica,sans-Serif" font-size="10.00">SpeciesThermoInterpType.h</text>
</a>
</g>
</g>
<!-- Node2&#45;&gt;Node3 -->
<g id="edge2" class="edge">
<title>Node2&#45;&gt;Node3</title>
<path fill="none" stroke="midnightblue" d="M158.37,-280.08C158.37,-273.01 158.37,-262.86 158.37,-253.99"/>
<polygon fill="midnightblue" stroke="midnightblue" points="161.87,-253.75 158.37,-243.75 154.87,-253.75 161.87,-253.75"/>
</g>
<!-- Node4 -->
<g id="node4" class="node">
<title>Node4</title>
<g id="a_node4"><a xlink:href="../../d9/ddc/ct__defs_8h.html" target="_top" xlink:title="This file contains definitions of terms that are used in internal routines and are unlikely to need m...">
<polygon fill="white" stroke="black" points="247.87,-56.5 247.87,-75.5 374.87,-75.5 374.87,-56.5 247.87,-56.5"/>
<text text-anchor="middle" x="311.37" y="-63.5" font-family="Helvetica,sans-Serif" font-size="10.00">cantera/base/ct_defs.h</text>
</a>
</g>
</g>
<!-- Node3&#45;&gt;Node4 -->
<g id="edge3" class="edge">
<title>Node3&#45;&gt;Node4</title>
<path fill="none" stroke="midnightblue" d="M82.34,-225.86C33.24,-217.99 -17.4,-201.64 6.37,-168 58.16,-94.69 165.37,-73.63 237.85,-68.11"/>
<polygon fill="midnightblue" stroke="midnightblue" points="238.1,-71.6 247.84,-67.43 237.62,-64.62 238.1,-71.6"/>
</g>
<!-- Node13 -->
<g id="node13" class="node">
<title>Node13</title>
<g id="a_node13"><a xlink:href="../../d4/d0c/speciesThermoTypes_8h.html" target="_top" xlink:title="Contains const definitions for types of species reference&#45;state thermodynamics managers (see Species ...">
<polygon fill="white" stroke="black" points="15.37,-168.5 15.37,-187.5 143.37,-187.5 143.37,-168.5 15.37,-168.5"/>
<text text-anchor="middle" x="79.37" y="-175.5" font-family="Helvetica,sans-Serif" font-size="10.00">speciesThermoTypes.h</text>
</a>
</g>
</g>
<!-- Node3&#45;&gt;Node13 -->
<g id="edge12" class="edge">
<title>Node3&#45;&gt;Node13</title>
<path fill="none" stroke="midnightblue" d="M145.67,-224.32C133.47,-215.98 114.79,-203.21 100.36,-193.35"/>
<polygon fill="midnightblue" stroke="midnightblue" points="102.26,-190.41 92.03,-187.65 98.31,-196.19 102.26,-190.41"/>
</g>
<!-- Node14 -->
<g id="node14" class="node">
<title>Node14</title>
<g id="a_node14"><a xlink:href="../../db/d98/ctexceptions_8h.html" target="_top" xlink:title="Definitions for the classes that are thrown when Cantera experiences an error condition (also contain...">
<polygon fill="white" stroke="black" points="161.37,-168.5 161.37,-187.5 315.37,-187.5 315.37,-168.5 161.37,-168.5"/>
<text text-anchor="middle" x="238.37" y="-175.5" font-family="Helvetica,sans-Serif" font-size="10.00">cantera/base/ctexceptions.h</text>
</a>
</g>
</g>
<!-- Node3&#45;&gt;Node14 -->
<g id="edge13" class="edge">
<title>Node3&#45;&gt;Node14</title>
<path fill="none" stroke="midnightblue" d="M171.22,-224.32C183.58,-215.98 202.5,-203.21 217.1,-193.35"/>
<polygon fill="midnightblue" stroke="midnightblue" points="219.21,-196.15 225.55,-187.65 215.3,-190.35 219.21,-196.15"/>
</g>
<!-- Node19 -->
<g id="node17" class="node">
<title>Node19</title>
<g id="a_node17"><a xlink:href="../../d2/d49/global_8h.html" target="_top" xlink:title="This file contains definitions for utility functions and text for modules, inputfiles,...">
<polygon fill="white" stroke="black" points="333.37,-168.5 333.37,-187.5 455.37,-187.5 455.37,-168.5 333.37,-168.5"/>
<text text-anchor="middle" x="394.37" y="-175.5" font-family="Helvetica,sans-Serif" font-size="10.00">cantera/base/global.h</text>
</a>
</g>
</g>
<!-- Node3&#45;&gt;Node19 -->
<g id="edge17" class="edge">
<title>Node3&#45;&gt;Node19</title>
<path fill="none" stroke="midnightblue" d="M195.76,-224.44C236.76,-215.06 302.62,-199.99 347.15,-189.8"/>
<polygon fill="midnightblue" stroke="midnightblue" points="348.18,-193.16 357.15,-187.52 346.62,-186.34 348.18,-193.16"/>
</g>
<!-- Node5 -->
<g id="node5" class="node">
<title>Node5</title>
<g id="a_node5"><a xlink:href="../../db/d16/config_8h_source.html" target="_top" xlink:title=" ">
<polygon fill="white" stroke="black" points="52.87,-0.5 52.87,-19.5 107.87,-19.5 107.87,-0.5 52.87,-0.5"/>
<text text-anchor="middle" x="80.37" y="-7.5" font-family="Helvetica,sans-Serif" font-size="10.00">config.h</text>
</a>
</g>
</g>
<!-- Node4&#45;&gt;Node5 -->
<g id="edge4" class="edge">
<title>Node4&#45;&gt;Node5</title>
<path fill="none" stroke="midnightblue" d="M273.57,-56.49C236.33,-48.06 177.54,-34.63 117.85,-20.33"/>
<polygon fill="midnightblue" stroke="midnightblue" points="118.41,-16.86 107.87,-17.93 116.78,-23.67 118.41,-16.86"/>
</g>
<!-- Node6 -->
<g id="node6" class="node">
<title>Node6</title>
<g id="a_node6"><a xlink:title=" ">
<polygon fill="white" stroke="#bfbfbf" points="125.87,-0.5 125.87,-19.5 172.87,-19.5 172.87,-0.5 125.87,-0.5"/>
<text text-anchor="middle" x="149.37" y="-7.5" font-family="Helvetica,sans-Serif" font-size="10.00">cmath</text>
</a>
</g>
</g>
<!-- Node4&#45;&gt;Node6 -->
<g id="edge5" class="edge">
<title>Node4&#45;&gt;Node6</title>
<path fill="none" stroke="midnightblue" d="M285.7,-56.44C257.88,-47.17 213.39,-32.34 182.85,-22.16"/>
<polygon fill="midnightblue" stroke="midnightblue" points="183.66,-18.74 173.07,-18.9 181.45,-25.38 183.66,-18.74"/>
</g>
<!-- Node7 -->
<g id="node7" class="node">
<title>Node7</title>
<g id="a_node7"><a xlink:title=" ">
<polygon fill="white" stroke="#bfbfbf" points="190.87,-0.5 190.87,-19.5 239.87,-19.5 239.87,-0.5 190.87,-0.5"/>
<text text-anchor="middle" x="215.37" y="-7.5" font-family="Helvetica,sans-Serif" font-size="10.00">cstdlib</text>
</a>
</g>
</g>
<!-- Node4&#45;&gt;Node7 -->
<g id="edge6" class="edge">
<title>Node4&#45;&gt;Node7</title>
<path fill="none" stroke="midnightblue" d="M295.94,-56.32C280.83,-47.82 257.55,-34.73 239.9,-24.8"/>
<polygon fill="midnightblue" stroke="midnightblue" points="241.18,-21.51 230.75,-19.65 237.75,-27.61 241.18,-21.51"/>
</g>
<!-- Node8 -->
<g id="node8" class="node">
<title>Node8</title>
<g id="a_node8"><a xlink:title=" ">
<polygon fill="white" stroke="#bfbfbf" points="257.87,-0.5 257.87,-19.5 304.87,-19.5 304.87,-0.5 257.87,-0.5"/>
<text text-anchor="middle" x="281.37" y="-7.5" font-family="Helvetica,sans-Serif" font-size="10.00">vector</text>
</a>
</g>
</g>
<!-- Node4&#45;&gt;Node8 -->
<g id="edge7" class="edge">
<title>Node4&#45;&gt;Node8</title>
<path fill="none" stroke="midnightblue" d="M306.41,-56.08C302.26,-48.61 296.21,-37.72 291.1,-28.52"/>
<polygon fill="midnightblue" stroke="midnightblue" points="294.14,-26.79 286.23,-19.75 288.03,-30.19 294.14,-26.79"/>
</g>
<!-- Node9 -->
<g id="node9" class="node">
<title>Node9</title>
<g id="a_node9"><a xlink:title=" ">
<polygon fill="white" stroke="#bfbfbf" points="323.37,-0.5 323.37,-19.5 361.37,-19.5 361.37,-0.5 323.37,-0.5"/>
<text text-anchor="middle" x="342.37" y="-7.5" font-family="Helvetica,sans-Serif" font-size="10.00">map</text>
</a>
</g>
</g>
<!-- Node4&#45;&gt;Node9 -->
<g id="edge8" class="edge">
<title>Node4&#45;&gt;Node9</title>
<path fill="none" stroke="midnightblue" d="M316.49,-56.08C320.77,-48.61 327.02,-37.72 332.31,-28.52"/>
<polygon fill="midnightblue" stroke="midnightblue" points="335.4,-30.17 337.34,-19.75 329.33,-26.68 335.4,-30.17"/>
</g>
<!-- Node10 -->
<g id="node10" class="node">
<title>Node10</title>
<g id="a_node10"><a xlink:title=" ">
<polygon fill="white" stroke="#bfbfbf" points="379.37,-0.5 379.37,-19.5 423.37,-19.5 423.37,-0.5 379.37,-0.5"/>
<text text-anchor="middle" x="401.37" y="-7.5" font-family="Helvetica,sans-Serif" font-size="10.00">string</text>
</a>
</g>
</g>
<!-- Node4&#45;&gt;Node10 -->
<g id="edge9" class="edge">
<title>Node4&#45;&gt;Node10</title>
<path fill="none" stroke="midnightblue" d="M325.83,-56.32C339.87,-47.9 361.41,-34.97 377.91,-25.07"/>
<polygon fill="midnightblue" stroke="midnightblue" points="380.17,-27.8 386.94,-19.65 376.57,-21.8 380.17,-27.8"/>
</g>
<!-- Node11 -->
<g id="node11" class="node">
<title>Node11</title>
<g id="a_node11"><a xlink:title=" ">
<polygon fill="white" stroke="#bfbfbf" points="441.37,-0.5 441.37,-19.5 505.37,-19.5 505.37,-0.5 441.37,-0.5"/>
<text text-anchor="middle" x="473.37" y="-7.5" font-family="Helvetica,sans-Serif" font-size="10.00">algorithm</text>
</a>
</g>
</g>
<!-- Node4&#45;&gt;Node11 -->
<g id="edge10" class="edge">
<title>Node4&#45;&gt;Node11</title>
<path fill="none" stroke="midnightblue" d="M337.04,-56.44C364.29,-47.36 407.55,-32.94 438.02,-22.78"/>
<polygon fill="midnightblue" stroke="midnightblue" points="439.44,-26 447.82,-19.52 437.22,-19.36 439.44,-26"/>
</g>
<!-- Node12 -->
<g id="node12" class="node">
<title>Node12</title>
<g id="a_node12"><a xlink:title=" ">
<polygon fill="white" stroke="#bfbfbf" points="523.37,-0.5 523.37,-19.5 581.37,-19.5 581.37,-0.5 523.37,-0.5"/>
<text text-anchor="middle" x="552.37" y="-7.5" font-family="Helvetica,sans-Serif" font-size="10.00">memory</text>
</a>
</g>
</g>
<!-- Node4&#45;&gt;Node12 -->
<g id="edge11" class="edge">
<title>Node4&#45;&gt;Node12</title>
<path fill="none" stroke="midnightblue" d="M350.7,-56.46C389.54,-47.98 450.91,-34.49 513.31,-20.22"/>
<polygon fill="midnightblue" stroke="midnightblue" points="514.36,-23.57 523.33,-17.92 512.8,-16.74 514.36,-23.57"/>
</g>
<!-- Node15 -->
<g id="node15" class="node">
<title>Node15</title>
<g id="a_node15"><a xlink:href="../../db/def/fmt_8h.html" target="_top" xlink:title="Wrapper for either system&#45;installed or local headers for fmt.">
<polygon fill="white" stroke="red" points="256.87,-112.5 256.87,-131.5 365.87,-131.5 365.87,-112.5 256.87,-112.5"/>
<text text-anchor="middle" x="311.37" y="-119.5" font-family="Helvetica,sans-Serif" font-size="10.00">cantera/base/fmt.h</text>
</a>
</g>
</g>
<!-- Node14&#45;&gt;Node15 -->
<g id="edge14" class="edge">
<title>Node14&#45;&gt;Node15</title>
<path fill="none" stroke="midnightblue" d="M250.1,-168.32C261.2,-160.11 278.11,-147.6 291.35,-137.81"/>
<polygon fill="midnightblue" stroke="midnightblue" points="293.47,-140.59 299.42,-131.83 289.3,-134.97 293.47,-140.59"/>
</g>
<!-- Node18 -->
<g id="node16" class="node">
<title>Node18</title>
<g id="a_node16"><a xlink:title=" ">
<polygon fill="white" stroke="#bfbfbf" points="173.87,-112.5 173.87,-131.5 238.87,-131.5 238.87,-112.5 173.87,-112.5"/>
<text text-anchor="middle" x="206.37" y="-119.5" font-family="Helvetica,sans-Serif" font-size="10.00">exception</text>
</a>
</g>
</g>
<!-- Node14&#45;&gt;Node18 -->
<g id="edge16" class="edge">
<title>Node14&#45;&gt;Node18</title>
<path fill="none" stroke="midnightblue" d="M233.08,-168.08C228.66,-160.61 222.2,-149.72 216.75,-140.52"/>
<polygon fill="midnightblue" stroke="midnightblue" points="219.66,-138.57 211.55,-131.75 213.64,-142.14 219.66,-138.57"/>
</g>
<!-- Node15&#45;&gt;Node4 -->
<g id="edge15" class="edge">
<title>Node15&#45;&gt;Node4</title>
<path fill="none" stroke="midnightblue" d="M311.37,-112.08C311.37,-105.01 311.37,-94.86 311.37,-85.99"/>
<polygon fill="midnightblue" stroke="midnightblue" points="314.87,-85.75 311.37,-75.75 307.87,-85.75 314.87,-85.75"/>
</g>
<!-- Node19&#45;&gt;Node4 -->
<g id="edge18" class="edge">
<title>Node19&#45;&gt;Node4</title>
<path fill="none" stroke="midnightblue" d="M393.47,-168.22C391.74,-154.93 386.93,-129.43 374.37,-112 365.01,-99.01 350.72,-88.37 338.12,-80.7"/>
<polygon fill="midnightblue" stroke="midnightblue" points="339.75,-77.6 329.33,-75.65 336.26,-83.67 339.75,-77.6"/>
</g>
<!-- Node19&#45;&gt;Node15 -->
<g id="edge19" class="edge">
<title>Node19&#45;&gt;Node15</title>
<path fill="none" stroke="midnightblue" d="M381.03,-168.32C368.2,-159.98 348.58,-147.21 333.43,-137.35"/>
<polygon fill="midnightblue" stroke="midnightblue" points="334.96,-134.17 324.67,-131.65 331.14,-140.04 334.96,-134.17"/>
</g>
</g>
</svg>
        <g id="navigator" transform="translate(0 0)" fill="#404254">
                <rect fill="#f2f5e9" fill-opacity="0.5" stroke="#606060" stroke-width=".5" x="0" y="0" width="60" height="60"/>
                <use id="zoomplus" xlink:href="#zoomPlus" x="17" y="9" onmousedown="handleZoom(evt,'in')"/>
                <use id="zoomminus" xlink:href="#zoomMin" x="42" y="9" onmousedown="handleZoom(evt,'out')"/>
                <use id="reset" xlink:href="#resetDef" x="30" y="36" onmousedown="handleReset()"/>
                <g id="arrowUp" xlink:href="#dirArrow" transform="translate(30 24)" onmousedown="handlePan(0,-1)">
                  <use xlink:href="#rim" fill="#404040">
                        <set attributeName="fill" to="#808080" begin="arrowUp.mouseover" end="arrowUp.mouseout"/>
                  </use>
                  <path fill="none" stroke="white" stroke-width="1.5" d="M0,-3.0v7 M-2.5,-0.5L0,-3.0L2.5,-0.5"/>
                </g>
                <g id="arrowRight" xlink:href="#dirArrow" transform="rotate(90) translate(36 -43)" onmousedown="handlePan(1,0)">
                  <use xlink:href="#rim" fill="#404040">
                        <set attributeName="fill" to="#808080" begin="arrowRight.mouseover" end="arrowRight.mouseout"/>
                  </use>
                  <path fill="none" stroke="white" stroke-width="1.5" d="M0,-3.0v7 M-2.5,-0.5L0,-3.0L2.5,-0.5"/>
                </g>
                <g id="arrowDown" xlink:href="#dirArrow" transform="rotate(180) translate(-30 -48)" onmousedown="handlePan(0,1)">
                  <use xlink:href="#rim" fill="#404040">
                        <set attributeName="fill" to="#808080" begin="arrowDown.mouseover" end="arrowDown.mouseout"/>
                  </use>
                  <path fill="none" stroke="white" stroke-width="1.5" d="M0,-3.0v7 M-2.5,-0.5L0,-3.0L2.5,-0.5"/>
                </g>
                <g id="arrowLeft" xlink:href="#dirArrow" transform="rotate(270) translate(-36 17)" onmousedown="handlePan(-1,0)">
                  <use xlink:href="#rim" fill="#404040">
                        <set attributeName="fill" to="#808080" begin="arrowLeft.mouseover" end="arrowLeft.mouseout"/>
                  </use>
                  <path fill="none" stroke="white" stroke-width="1.5" d="M0,-3.0v7 M-2.5,-0.5L0,-3.0L2.5,-0.5"/>
                </g>
        </g>
        <svg viewBox="0 0 15 15" width="100%" height="30px" preserveAspectRatio="xMaxYMin meet">
         <g id="arrow_out" transform="scale(0.3 0.3)">
          <a xlink:href="Nasa9PolyMultiTempRegion_8h__incl_org.svg" target="_base">
           <rect id="button" ry="5" rx="5" y="6" x="6" height="38" width="38"
                fill="#f2f5e9" fill-opacity="0.5" stroke="#606060" stroke-width="1.0"/>
           <path id="arrow"
             d="M 11.500037,31.436501 C 11.940474,20.09759 22.043105,11.32322 32.158766,21.979434 L 37.068811,17.246167 C 37.068811,17.246167 37.088388,32 37.088388,32 L 22.160133,31.978069 C 22.160133,31.978069 26.997745,27.140456 26.997745,27.140456 C 18.528582,18.264221 13.291696,25.230495 11.500037,31.436501 z"
             style="fill:#404040;"/>
          </a>
         </g>
        </svg>
</svg>
