<?xml version="1.0" encoding="UTF-8" standalone="no"?>
<!DOCTYPE svg PUBLIC "-//W3C//DTD SVG 1.1//EN"
 "http://www.w3.org/Graphics/SVG/1.1/DTD/svg11.dtd">
<!-- Generated by graphviz version 2.40.1 (20161225.0304)
 -->
<!-- Title: AnyMap.h Pages: 1 -->
<svg width="2413pt" height="308pt"
 viewBox="0.00 0.00 2413.00 308.00" xmlns="http://www.w3.org/2000/svg" xmlns:xlink="http://www.w3.org/1999/xlink">
<g id="graph0" class="graph" transform="scale(1 1) rotate(0) translate(4 304)">
<title>AnyMap.h</title>
<polygon fill="#ffffff" stroke="transparent" points="-4,4 -4,-304 2409,-304 2409,4 -4,4"/>
<!-- Node20 -->
<g id="node1" class="node">
<title>Node20</title>
<polygon fill="#bfbfbf" stroke="#000000" points="1709.5,-280.5 1709.5,-299.5 1771.5,-299.5 1771.5,-280.5 1709.5,-280.5"/>
<text text-anchor="middle" x="1740.5" y="-287.5" font-family="Helvetica,sans-Serif" font-size="10.00" fill="#000000">AnyMap.h</text>
</g>
<!-- Node21 -->
<g id="node2" class="node">
<title>Node21</title>
<g id="a_node2"><a xlink:href="../../de/dfc/AnyMap_8cpp.html" target="_top" xlink:title="AnyMap.cpp">
<polygon fill="#ffffff" stroke="#000000" points="1613.5,-224.5 1613.5,-243.5 1685.5,-243.5 1685.5,-224.5 1613.5,-224.5"/>
<text text-anchor="middle" x="1649.5" y="-231.5" font-family="Helvetica,sans-Serif" font-size="10.00" fill="#000000">AnyMap.cpp</text>
</a>
</g>
</g>
<!-- Node20&#45;&gt;Node21 -->
<g id="edge1" class="edge">
<title>Node20&#45;&gt;Node21</title>
<path fill="none" stroke="#191970" d="M1715.7496,-274.769C1699.6242,-264.8456 1679.074,-252.1994 1665.1693,-243.6427"/>
<polygon fill="#191970" stroke="#191970" points="1714.2981,-277.9853 1724.649,-280.2455 1717.9668,-272.0237 1714.2981,-277.9853"/>
</g>
<!-- Node22 -->
<g id="node3" class="node">
<title>Node22</title>
<g id="a_node3"><a xlink:href="../../da/d4c/AnyMap_8inl_8h.html" target="_top" xlink:title="AnyMap.inl.h">
<polygon fill="#ffffff" stroke="#000000" points="1703.5,-224.5 1703.5,-243.5 1777.5,-243.5 1777.5,-224.5 1703.5,-224.5"/>
<text text-anchor="middle" x="1740.5" y="-231.5" font-family="Helvetica,sans-Serif" font-size="10.00" fill="#000000">AnyMap.inl.h</text>
</a>
</g>
</g>
<!-- Node20&#45;&gt;Node22 -->
<g id="edge2" class="edge">
<title>Node20&#45;&gt;Node22</title>
<path fill="none" stroke="#191970" d="M1734.0113,-270.1575C1733.419,-261.155 1733.8335,-250.9199 1735.2549,-243.6427"/>
<polygon fill="#191970" stroke="#191970" points="1730.5561,-270.739 1735.2332,-280.2455 1737.5053,-269.8972 1730.5561,-270.739"/>
</g>
<!-- Node23 -->
<g id="node4" class="node">
<title>Node23</title>
<g id="a_node4"><a xlink:href="../../d7/dd9/Species_8h.html" target="_top" xlink:title="Declaration for class Cantera::Species. ">
<polygon fill="#ffffff" stroke="#000000" points="1795.5,-224.5 1795.5,-243.5 1855.5,-243.5 1855.5,-224.5 1795.5,-224.5"/>
<text text-anchor="middle" x="1825.5" y="-231.5" font-family="Helvetica,sans-Serif" font-size="10.00" fill="#000000">Species.h</text>
</a>
</g>
</g>
<!-- Node20&#45;&gt;Node23 -->
<g id="edge4" class="edge">
<title>Node20&#45;&gt;Node23</title>
<path fill="none" stroke="#191970" d="M1764.0419,-274.49C1779.039,-264.6096 1797.9973,-252.1194 1810.8638,-243.6427"/>
<polygon fill="#191970" stroke="#191970" points="1761.7309,-271.8212 1755.3059,-280.2455 1765.5821,-277.6666 1761.7309,-271.8212"/>
</g>
<!-- Node22&#45;&gt;Node20 -->
<g id="edge3" class="edge">
<title>Node22&#45;&gt;Node20</title>
<path fill="none" stroke="#191970" d="M1746.9795,-253.7046C1747.5821,-262.6944 1747.1779,-272.9382 1745.7668,-280.2455"/>
<polygon fill="#191970" stroke="#191970" points="1750.4368,-253.1421 1745.7451,-243.6427 1743.4889,-253.9945 1750.4368,-253.1421"/>
</g>
<!-- Node24 -->
<g id="node5" class="node">
<title>Node24</title>
<g id="a_node5"><a xlink:href="../../d7/d17/Species_8cpp_source.html" target="_top" xlink:title="Species.cpp">
<polygon fill="#ffffff" stroke="#000000" points="0,-168.5 0,-187.5 71,-187.5 71,-168.5 0,-168.5"/>
<text text-anchor="middle" x="35.5" y="-175.5" font-family="Helvetica,sans-Serif" font-size="10.00" fill="#000000">Species.cpp</text>
</a>
</g>
</g>
<!-- Node23&#45;&gt;Node24 -->
<g id="edge5" class="edge">
<title>Node23&#45;&gt;Node24</title>
<path fill="none" stroke="#191970" d="M1785.4481,-224.2232C1395.7074,-173.6671 458.118,-228.8819 85.5,-188 80.8362,-187.4883 75.9604,-186.7599 71.1603,-185.9264"/>
<polygon fill="#191970" stroke="#191970" points="1785.0267,-227.698 1795.4023,-225.5541 1785.9544,-220.7597 1785.0267,-227.698"/>
</g>
<!-- Node25 -->
<g id="node6" class="node">
<title>Node25</title>
<g id="a_node6"><a xlink:href="../../d2/d3a/ThermoFactory_8cpp.html" target="_top" xlink:title="Definitions for the factory class that can create known ThermoPhase objects (see Thermodynamic Proper...">
<polygon fill="#ffffff" stroke="#000000" points="1034,-.5 1034,-19.5 1137,-19.5 1137,-.5 1034,-.5"/>
<text text-anchor="middle" x="1085.5" y="-7.5" font-family="Helvetica,sans-Serif" font-size="10.00" fill="#000000">ThermoFactory.cpp</text>
</a>
</g>
</g>
<!-- Node23&#45;&gt;Node25 -->
<g id="edge6" class="edge">
<title>Node23&#45;&gt;Node25</title>
<path fill="none" stroke="#191970" d="M1785.1783,-224.1955C1559.6373,-193.1933 242.0928,-211.0446 118.5,-76 112.4988,-69.4427 112.3658,-62.433 118.5,-56 150.3058,-22.6453 837.7028,-12.6767 1033.7386,-10.5071"/>
<polygon fill="#191970" stroke="#191970" points="1784.9557,-227.7022 1795.3707,-225.7589 1786.017,-220.7831 1784.9557,-227.7022"/>
</g>
<!-- Node26 -->
<g id="node7" class="node">
<title>Node26</title>
<g id="a_node7"><a xlink:href="../../da/dc7/TransportData_8cpp.html" target="_top" xlink:title="TransportData.cpp">
<polygon fill="#ffffff" stroke="#000000" points="2306,-168.5 2306,-187.5 2405,-187.5 2405,-168.5 2306,-168.5"/>
<text text-anchor="middle" x="2355.5" y="-175.5" font-family="Helvetica,sans-Serif" font-size="10.00" fill="#000000">TransportData.cpp</text>
</a>
</g>
</g>
<!-- Node23&#45;&gt;Node26 -->
<g id="edge7" class="edge">
<title>Node23&#45;&gt;Node26</title>
<path fill="none" stroke="#191970" d="M1865.7839,-230.7965C1946.6479,-224.1953 2134.4403,-208.0059 2291.5,-188 2296.1854,-187.4032 2301.0561,-186.733 2305.9251,-186.0297"/>
<polygon fill="#191970" stroke="#191970" points="1865.2352,-227.3294 1855.5511,-231.6271 1865.8016,-234.3065 1865.2352,-227.3294"/>
</g>
<!-- Node27 -->
<g id="node8" class="node">
<title>Node27</title>
<g id="a_node8"><a xlink:href="../../da/d84/Phase_8h.html" target="_top" xlink:title="Header file for class Phase. ">
<polygon fill="#ffffff" stroke="#000000" points="1799,-168.5 1799,-187.5 1852,-187.5 1852,-168.5 1799,-168.5"/>
<text text-anchor="middle" x="1825.5" y="-175.5" font-family="Helvetica,sans-Serif" font-size="10.00" fill="#000000">Phase.h</text>
</a>
</g>
</g>
<!-- Node23&#45;&gt;Node27 -->
<g id="edge8" class="edge">
<title>Node23&#45;&gt;Node27</title>
<path fill="none" stroke="#191970" d="M1825.5,-214.1575C1825.5,-205.155 1825.5,-194.9199 1825.5,-187.6427"/>
<polygon fill="#191970" stroke="#191970" points="1822.0001,-214.2455 1825.5,-224.2455 1829.0001,-214.2456 1822.0001,-214.2455"/>
</g>
<!-- Node57 -->
<g id="node15" class="node">
<title>Node57</title>
<g id="a_node15"><a xlink:href="../../df/d32/thermo_8h.html" target="_top" xlink:title="Support for thermo property calculation from C++ application programs. ">
<polygon fill="#ffffff" stroke="#ff0000" points="2211.5,-.5 2211.5,-19.5 2267.5,-19.5 2267.5,-.5 2211.5,-.5"/>
<text text-anchor="middle" x="2239.5" y="-7.5" font-family="Helvetica,sans-Serif" font-size="10.00" fill="#000000">thermo.h</text>
</a>
</g>
</g>
<!-- Node23&#45;&gt;Node57 -->
<g id="edge48" class="edge">
<title>Node23&#45;&gt;Node57</title>
<path fill="none" stroke="#191970" d="M1865.996,-228.542C1943.5434,-215.9701 2113.7048,-177.8148 2208.5,-76 2224.0275,-59.3227 2233.0454,-33.4684 2237.0312,-19.5873"/>
<polygon fill="#191970" stroke="#191970" points="1865.027,-225.1507 1855.6859,-230.1501 1866.1058,-232.0671 1865.027,-225.1507"/>
</g>
<!-- Node28 -->
<g id="node9" class="node">
<title>Node28</title>
<g id="a_node9"><a xlink:href="../../de/dd9/Phase_8cpp.html" target="_top" xlink:title="Definition file for class Phase. ">
<polygon fill="#ffffff" stroke="#000000" points="1836.5,-.5 1836.5,-19.5 1900.5,-19.5 1900.5,-.5 1836.5,-.5"/>
<text text-anchor="middle" x="1868.5" y="-7.5" font-family="Helvetica,sans-Serif" font-size="10.00" fill="#000000">Phase.cpp</text>
</a>
</g>
</g>
<!-- Node27&#45;&gt;Node28 -->
<g id="edge9" class="edge">
<title>Node27&#45;&gt;Node28</title>
<path fill="none" stroke="#191970" d="M1862.2702,-173.0865C1945.3681,-161.1515 2143.4603,-127.7561 2182.5,-76 2187.8528,-68.9036 2188.312,-62.7255 2182.5,-56 2164.195,-34.818 1977.0267,-18.2746 1900.6701,-12.3563"/>
<polygon fill="#191970" stroke="#191970" points="1861.6728,-169.6361 1852.2604,-174.4999 1862.6515,-176.5673 1861.6728,-169.6361"/>
</g>
<!-- Node29 -->
<g id="node10" class="node">
<title>Node29</title>
<g id="a_node10"><a xlink:href="../../d7/d01/ThermoPhase_8h.html" target="_top" xlink:title="Header file for class ThermoPhase, the base class for phases with thermodynamic properties, and the text for the Module thermoprops (see Thermodynamic Properties and class ThermoPhase). ">
<polygon fill="#ffffff" stroke="#000000" points="1350.5,-112.5 1350.5,-131.5 1438.5,-131.5 1438.5,-112.5 1350.5,-112.5"/>
<text text-anchor="middle" x="1394.5" y="-119.5" font-family="Helvetica,sans-Serif" font-size="10.00" fill="#000000">ThermoPhase.h</text>
</a>
</g>
</g>
<!-- Node27&#45;&gt;Node29 -->
<g id="edge10" class="edge">
<title>Node27&#45;&gt;Node29</title>
<path fill="none" stroke="#191970" d="M1788.8927,-173.2436C1709.9109,-162.9815 1523.7748,-138.7967 1438.5282,-127.7206"/>
<polygon fill="#191970" stroke="#191970" points="1788.4966,-176.7215 1798.8643,-174.5392 1789.3986,-169.7798 1788.4966,-176.7215"/>
</g>
<!-- Node30 -->
<g id="node11" class="node">
<title>Node30</title>
<g id="a_node11"><a xlink:href="../../dc/d27/vcs__VolPhase_8cpp.html" target="_top" xlink:title="vcs_VolPhase.cpp">
<polygon fill="#ffffff" stroke="#000000" points="1850,-56.5 1850,-75.5 1949,-75.5 1949,-56.5 1850,-56.5"/>
<text text-anchor="middle" x="1899.5" y="-63.5" font-family="Helvetica,sans-Serif" font-size="10.00" fill="#000000">vcs_VolPhase.cpp</text>
</a>
</g>
</g>
<!-- Node29&#45;&gt;Node30 -->
<g id="edge11" class="edge">
<title>Node29&#45;&gt;Node30</title>
<path fill="none" stroke="#191970" d="M1448.8185,-117.6132C1533.0933,-110.5361 1700.3491,-95.408 1841.5,-76 1844.2331,-75.6242 1847.0349,-75.2164 1849.8605,-74.7876"/>
<polygon fill="#191970" stroke="#191970" points="1448.3887,-114.1368 1438.7144,-118.4565 1448.9709,-121.1126 1448.3887,-114.1368"/>
</g>
<!-- Node31 -->
<g id="node12" class="node">
<title>Node31</title>
<g id="a_node12"><a xlink:href="../../df/d7e/ThermoPhase_8cpp.html" target="_top" xlink:title="Definition file for class ThermoPhase, the base class for phases with thermodynamic properties (see c...">
<polygon fill="#ffffff" stroke="#000000" points="1588.5,-.5 1588.5,-19.5 1686.5,-19.5 1686.5,-.5 1588.5,-.5"/>
<text text-anchor="middle" x="1637.5" y="-7.5" font-family="Helvetica,sans-Serif" font-size="10.00" fill="#000000">ThermoPhase.cpp</text>
</a>
</g>
</g>
<!-- Node29&#45;&gt;Node31 -->
<g id="edge12" class="edge">
<title>Node29&#45;&gt;Node31</title>
<path fill="none" stroke="#191970" d="M1429.4225,-108.8038C1451.9466,-100.0434 1481.7383,-87.9879 1507.5,-76 1524.8035,-67.948 1528.5194,-64.7125 1545.5,-56 1570.4444,-43.2013 1599.3954,-28.7998 1618.0568,-19.5752"/>
<polygon fill="#191970" stroke="#191970" points="1428.0056,-105.599 1419.9371,-112.4656 1430.5266,-112.1293 1428.0056,-105.599"/>
</g>
<!-- Node32 -->
<g id="node13" class="node">
<title>Node32</title>
<g id="a_node13"><a xlink:href="../../dd/d6c/wrappers_8h_source.html" target="_top" xlink:title="wrappers.h">
<polygon fill="#ffffff" stroke="#000000" points="2002.5,-.5 2002.5,-19.5 2068.5,-19.5 2068.5,-.5 2002.5,-.5"/>
<text text-anchor="middle" x="2035.5" y="-7.5" font-family="Helvetica,sans-Serif" font-size="10.00" fill="#000000">wrappers.h</text>
</a>
</g>
</g>
<!-- Node29&#45;&gt;Node32 -->
<g id="edge13" class="edge">
<title>Node29&#45;&gt;Node32</title>
<path fill="none" stroke="#191970" d="M1449.1803,-119.4614C1581.645,-113.0389 1912.2603,-95.2781 1958.5,-76 1988.4018,-63.5335 2015.0981,-34.8919 2027.7495,-19.7671"/>
<polygon fill="#191970" stroke="#191970" points="1448.684,-115.9812 1438.8639,-119.9581 1449.0207,-122.9731 1448.684,-115.9812"/>
</g>
<!-- Node33 -->
<g id="node14" class="node">
<title>Node33</title>
<g id="a_node14"><a xlink:href="../../dc/d8e/ThermoFactory_8h.html" target="_top" xlink:title="Headers for the factory class that can create known ThermoPhase objects (see Thermodynamic Properties...">
<polygon fill="#ffffff" stroke="#ff0000" points="1739,-56.5 1739,-75.5 1832,-75.5 1832,-56.5 1739,-56.5"/>
<text text-anchor="middle" x="1785.5" y="-63.5" font-family="Helvetica,sans-Serif" font-size="10.00" fill="#000000">ThermoFactory.h</text>
</a>
</g>
</g>
<!-- Node29&#45;&gt;Node33 -->
<g id="edge14" class="edge">
<title>Node29&#45;&gt;Node33</title>
<path fill="none" stroke="#191970" d="M1448.9698,-115.2051C1515.3396,-106.7679 1630.8362,-91.5767 1729.5,-76 1732.5241,-75.5226 1735.637,-75.0141 1738.7728,-74.4892"/>
<polygon fill="#191970" stroke="#191970" points="1448.2303,-111.7707 1438.7497,-116.5003 1449.1104,-118.7152 1448.2303,-111.7707"/>
</g>
<!-- Node29&#45;&gt;Node57 -->
<g id="edge29" class="edge">
<title>Node29&#45;&gt;Node57</title>
<path fill="none" stroke="#191970" d="M1448.6725,-121.2681C1615.9702,-118.672 2117.1229,-108.2587 2182.5,-76 2207.482,-63.6732 2225.9987,-34.9705 2234.4382,-19.8003"/>
<polygon fill="#191970" stroke="#191970" points="1448.556,-117.7693 1438.6104,-121.421 1448.6625,-124.7685 1448.556,-117.7693"/>
</g>
<!-- Node59 -->
<g id="node16" class="node">
<title>Node59</title>
<g id="a_node16"><a xlink:href="../../d5/db4/Kinetics_8h.html" target="_top" xlink:title="Base class for kinetics managers and also contains the kineticsmgr module documentation (see Kinetics...">
<polygon fill="#ffffff" stroke="#ff0000" points="2005.5,-56.5 2005.5,-75.5 2065.5,-75.5 2065.5,-56.5 2005.5,-56.5"/>
<text text-anchor="middle" x="2035.5" y="-63.5" font-family="Helvetica,sans-Serif" font-size="10.00" fill="#000000">Kinetics.h</text>
</a>
</g>
</g>
<!-- Node29&#45;&gt;Node59 -->
<g id="edge19" class="edge">
<title>Node29&#45;&gt;Node59</title>
<path fill="none" stroke="#191970" d="M1448.6188,-120.4848C1553.7713,-116.9555 1792.8077,-106.0677 1991.5,-76 1995.9924,-75.3202 2000.7077,-74.4351 2005.3144,-73.4727"/>
<polygon fill="#191970" stroke="#191970" points="1448.4462,-116.9885 1438.5659,-120.8134 1448.6749,-123.9848 1448.4462,-116.9885"/>
</g>
<!-- Node111 -->
<g id="node17" class="node">
<title>Node111</title>
<g id="a_node17"><a xlink:href="../../d4/dd4/ChemEquil_8h.html" target="_top" xlink:title="Chemical equilibrium. ">
<polygon fill="#ffffff" stroke="#ff0000" points="1554.5,-56.5 1554.5,-75.5 1628.5,-75.5 1628.5,-56.5 1554.5,-56.5"/>
<text text-anchor="middle" x="1591.5" y="-63.5" font-family="Helvetica,sans-Serif" font-size="10.00" fill="#000000">ChemEquil.h</text>
</a>
</g>
</g>
<!-- Node29&#45;&gt;Node111 -->
<g id="edge21" class="edge">
<title>Node29&#45;&gt;Node111</title>
<path fill="none" stroke="#191970" d="M1438.1629,-109.5882C1474.3569,-99.2996 1525.0494,-84.8895 1558.0764,-75.5011"/>
<polygon fill="#191970" stroke="#191970" points="1437.0274,-106.2723 1428.3655,-112.3733 1438.9415,-113.0055 1437.0274,-106.2723"/>
</g>
<!-- Node114 -->
<g id="node18" class="node">
<title>Node114</title>
<g id="a_node18"><a xlink:href="../../d4/d71/MultiPhase_8h.html" target="_top" xlink:title="Headers for the MultiPhase object that is used to set up multiphase equilibrium problems (see Equilfu...">
<polygon fill="#ffffff" stroke="#ff0000" points="1646.5,-56.5 1646.5,-75.5 1720.5,-75.5 1720.5,-56.5 1646.5,-56.5"/>
<text text-anchor="middle" x="1683.5" y="-63.5" font-family="Helvetica,sans-Serif" font-size="10.00" fill="#000000">MultiPhase.h</text>
</a>
</g>
</g>
<!-- Node29&#45;&gt;Node114 -->
<g id="edge23" class="edge">
<title>Node29&#45;&gt;Node114</title>
<path fill="none" stroke="#191970" d="M1449.0372,-112.1107C1498.3402,-103.0673 1572.8814,-89.1374 1637.5,-76 1640.3832,-75.4138 1643.3651,-74.7948 1646.361,-74.1637"/>
<polygon fill="#191970" stroke="#191970" points="1448.1184,-108.7207 1438.9122,-113.9643 1449.379,-115.6063 1448.1184,-108.7207"/>
</g>
<!-- Node123 -->
<g id="node19" class="node">
<title>Node123</title>
<g id="a_node19"><a xlink:href="../../de/dbd/IdealGasPhase_8h.html" target="_top" xlink:title="ThermoPhase object for the ideal gas equation of state &#45; workhorse for Cantera (see Thermodynamic Pro...">
<polygon fill="#ffffff" stroke="#ff0000" points="1405,-56.5 1405,-75.5 1498,-75.5 1498,-56.5 1405,-56.5"/>
<text text-anchor="middle" x="1451.5" y="-63.5" font-family="Helvetica,sans-Serif" font-size="10.00" fill="#000000">IdealGasPhase.h</text>
</a>
</g>
</g>
<!-- Node29&#45;&gt;Node123 -->
<g id="edge25" class="edge">
<title>Node29&#45;&gt;Node123</title>
<path fill="none" stroke="#191970" d="M1411.7271,-105.0751C1421.5341,-95.4402 1433.464,-83.7196 1441.6851,-75.6427"/>
<polygon fill="#191970" stroke="#191970" points="1409.1091,-102.7406 1404.4286,-112.2455 1414.0149,-107.734 1409.1091,-102.7406"/>
</g>
<!-- Node126 -->
<g id="node20" class="node">
<title>Node126</title>
<g id="a_node20"><a xlink:href="../../df/d15/ConstDensityThermo_8h.html" target="_top" xlink:title="Header for a Thermo manager for incompressible ThermoPhases (see Thermodynamic Properties and ConstDe...">
<polygon fill="#ffffff" stroke="#ff0000" points="967,-56.5 967,-75.5 1086,-75.5 1086,-56.5 967,-56.5"/>
<text text-anchor="middle" x="1026.5" y="-63.5" font-family="Helvetica,sans-Serif" font-size="10.00" fill="#000000">ConstDensityThermo.h</text>
</a>
</g>
</g>
<!-- Node29&#45;&gt;Node126 -->
<g id="edge27" class="edge">
<title>Node29&#45;&gt;Node126</title>
<path fill="none" stroke="#191970" d="M1340.4145,-113.7696C1272.5258,-103.4387 1156.467,-85.7776 1086.0886,-75.0678"/>
<polygon fill="#191970" stroke="#191970" points="1340.0634,-117.2564 1350.4761,-115.3007 1341.1165,-110.336 1340.0634,-117.2564"/>
</g>
<!-- Node128 -->
<g id="node21" class="node">
<title>Node128</title>
<g id="a_node21"><a xlink:href="../../db/df0/MetalPhase_8h.html" target="_top" xlink:title="MetalPhase.h">
<polygon fill="#ffffff" stroke="#ff0000" points="1104.5,-56.5 1104.5,-75.5 1182.5,-75.5 1182.5,-56.5 1104.5,-56.5"/>
<text text-anchor="middle" x="1143.5" y="-63.5" font-family="Helvetica,sans-Serif" font-size="10.00" fill="#000000">MetalPhase.h</text>
</a>
</g>
</g>
<!-- Node29&#45;&gt;Node128 -->
<g id="edge30" class="edge">
<title>Node29&#45;&gt;Node128</title>
<path fill="none" stroke="#191970" d="M1341.8522,-110.2539C1294.4081,-99.6687 1225.7158,-84.343 1182.8794,-74.7858"/>
<polygon fill="#191970" stroke="#191970" points="1341.1146,-113.6753 1351.6368,-112.4369 1342.6389,-106.8433 1341.1146,-113.6753"/>
</g>
<!-- Node129 -->
<g id="node22" class="node">
<title>Node129</title>
<g id="a_node22"><a xlink:href="../../dd/d2d/PureFluidPhase_8h.html" target="_top" xlink:title="Header for a ThermoPhase class for a pure fluid phase consisting of gas, liquid, mixed&#45;gas&#45;liquid and...">
<polygon fill="#ffffff" stroke="#ff0000" points="1290.5,-56.5 1290.5,-75.5 1386.5,-75.5 1386.5,-56.5 1290.5,-56.5"/>
<text text-anchor="middle" x="1338.5" y="-63.5" font-family="Helvetica,sans-Serif" font-size="10.00" fill="#000000">PureFluidPhase.h</text>
</a>
</g>
</g>
<!-- Node29&#45;&gt;Node129 -->
<g id="edge32" class="edge">
<title>Node29&#45;&gt;Node129</title>
<path fill="none" stroke="#191970" d="M1377.5751,-105.0751C1367.9402,-95.4402 1356.2196,-83.7196 1348.1427,-75.6427"/>
<polygon fill="#191970" stroke="#191970" points="1375.1996,-107.6493 1384.7455,-112.2455 1380.1493,-102.6996 1375.1996,-107.6493"/>
</g>
<!-- Node131 -->
<g id="node23" class="node">
<title>Node131</title>
<g id="a_node23"><a xlink:href="../../df/dfd/VPStandardStateTP_8h.html" target="_top" xlink:title="Header file for a derived class of ThermoPhase that handles variable pressure standard state methods ...">
<polygon fill="#ffffff" stroke="#ff0000" points="364,-56.5 364,-75.5 479,-75.5 479,-56.5 364,-56.5"/>
<text text-anchor="middle" x="421.5" y="-63.5" font-family="Helvetica,sans-Serif" font-size="10.00" fill="#000000">VPStandardStateTP.h</text>
</a>
</g>
</g>
<!-- Node29&#45;&gt;Node131 -->
<g id="edge34" class="edge">
<title>Node29&#45;&gt;Node131</title>
<path fill="none" stroke="#191970" d="M1340.3901,-121.136C1199.5373,-118.48 810.0357,-108.5317 487.5,-76 484.7327,-75.7209 481.9041,-75.4062 479.0502,-75.0651"/>
<polygon fill="#191970" stroke="#191970" points="1340.4298,-124.6373 1350.4925,-121.322 1340.5587,-117.6385 1340.4298,-124.6373"/>
</g>
<!-- Node160 -->
<g id="node24" class="node">
<title>Node160</title>
<g id="a_node24"><a xlink:href="../../d2/de5/SurfPhase_8h.html" target="_top" xlink:title="Header for a simple thermodynamics model of a surface phase derived from ThermoPhase, assuming an ideal solution model (see Thermodynamic Properties and class SurfPhase). ">
<polygon fill="#ffffff" stroke="#ff0000" points="1200.5,-56.5 1200.5,-75.5 1272.5,-75.5 1272.5,-56.5 1200.5,-56.5"/>
<text text-anchor="middle" x="1236.5" y="-63.5" font-family="Helvetica,sans-Serif" font-size="10.00" fill="#000000">SurfPhase.h</text>
</a>
</g>
</g>
<!-- Node29&#45;&gt;Node160 -->
<g id="edge35" class="edge">
<title>Node29&#45;&gt;Node160</title>
<path fill="none" stroke="#191970" d="M1357.6045,-108.9231C1328.7213,-98.686 1289.2294,-84.6889 1263.3067,-75.5011"/>
<polygon fill="#191970" stroke="#191970" points="1356.7441,-112.3314 1367.3388,-112.3733 1359.0826,-105.7336 1356.7441,-112.3314"/>
</g>
<!-- Node162 -->
<g id="node25" class="node">
<title>Node162</title>
<g id="a_node25"><a xlink:href="../../de/d38/SingleSpeciesTP_8h.html" target="_top" xlink:title="Header for the SingleSpeciesTP class, which is a filter class for ThermoPhase, that eases the constru...">
<polygon fill="#ffffff" stroke="#ff0000" points="497,-56.5 497,-75.5 598,-75.5 598,-56.5 497,-56.5"/>
<text text-anchor="middle" x="547.5" y="-63.5" font-family="Helvetica,sans-Serif" font-size="10.00" fill="#000000">SingleSpeciesTP.h</text>
</a>
</g>
</g>
<!-- Node29&#45;&gt;Node162 -->
<g id="edge37" class="edge">
<title>Node29&#45;&gt;Node162</title>
<path fill="none" stroke="#191970" d="M1340.1027,-120.8194C1212.0417,-117.6045 881.6755,-106.7717 607.5,-76 604.4566,-75.6584 601.3328,-75.2659 598.1858,-74.8384"/>
<polygon fill="#191970" stroke="#191970" points="1340.3347,-124.326 1350.4176,-121.0727 1340.5066,-117.3282 1340.3347,-124.326"/>
</g>
<!-- Node169 -->
<g id="node26" class="node">
<title>Node169</title>
<g id="a_node26"><a xlink:href="../../d9/d28/IdealSolidSolnPhase_8h.html" target="_top" xlink:title="Header file for an ideal solid solution model with incompressible thermodynamics (see Thermodynamic P...">
<polygon fill="#ffffff" stroke="#ff0000" points="128,-56.5 128,-75.5 245,-75.5 245,-56.5 128,-56.5"/>
<text text-anchor="middle" x="186.5" y="-63.5" font-family="Helvetica,sans-Serif" font-size="10.00" fill="#000000">IdealSolidSolnPhase.h</text>
</a>
</g>
</g>
<!-- Node29&#45;&gt;Node169 -->
<g id="edge38" class="edge">
<title>Node29&#45;&gt;Node169</title>
<path fill="none" stroke="#191970" d="M1340.3632,-120.5936C1143.8568,-115.3674 468.4892,-96.3179 253.5,-76 250.807,-75.7455 248.0571,-75.456 245.2823,-75.1399"/>
<polygon fill="#191970" stroke="#191970" points="1340.3567,-124.0945 1350.446,-120.8607 1340.5422,-117.097 1340.3567,-124.0945"/>
</g>
<!-- Node170 -->
<g id="node27" class="node">
<title>Node170</title>
<g id="a_node27"><a xlink:href="../../d4/d0d/LatticePhase_8h.html" target="_top" xlink:title="Header for a simple thermodynamics model of a bulk phase derived from ThermoPhase, assuming a lattice of solid atoms (see Thermodynamic Properties and class LatticePhase). ">
<polygon fill="#ffffff" stroke="#ff0000" points="263,-56.5 263,-75.5 346,-75.5 346,-56.5 263,-56.5"/>
<text text-anchor="middle" x="304.5" y="-63.5" font-family="Helvetica,sans-Serif" font-size="10.00" fill="#000000">LatticePhase.h</text>
</a>
</g>
</g>
<!-- Node29&#45;&gt;Node170 -->
<g id="edge40" class="edge">
<title>Node29&#45;&gt;Node170</title>
<path fill="none" stroke="#191970" d="M1340.2437,-120.6993C1154.9821,-116.0859 548.1947,-99.5126 354.5,-76 351.7757,-75.6693 348.9781,-75.2721 346.1647,-74.8292"/>
<polygon fill="#191970" stroke="#191970" points="1340.2099,-124.1995 1350.2935,-120.9481 1340.3832,-117.2016 1340.2099,-124.1995"/>
</g>
<!-- Node171 -->
<g id="node28" class="node">
<title>Node171</title>
<g id="a_node28"><a xlink:href="../../da/dd3/LatticeSolidPhase_8h.html" target="_top" xlink:title="Header for a simple thermodynamics model of a bulk solid phase derived from ThermoPhase, assuming an ideal solution model based on a lattice of solid atoms (see Thermodynamic Properties and class LatticeSolidPhase). ">
<polygon fill="#ffffff" stroke="#ff0000" points="844,-56.5 844,-75.5 949,-75.5 949,-56.5 844,-56.5"/>
<text text-anchor="middle" x="896.5" y="-63.5" font-family="Helvetica,sans-Serif" font-size="10.00" fill="#000000">LatticeSolidPhase.h</text>
</a>
</g>
</g>
<!-- Node29&#45;&gt;Node171 -->
<g id="edge42" class="edge">
<title>Node29&#45;&gt;Node171</title>
<path fill="none" stroke="#191970" d="M1340.1882,-117.2969C1257.4387,-109.9022 1094.8979,-94.478 957.5,-76 954.7347,-75.6281 951.9018,-75.2286 949.0437,-74.8109"/>
<polygon fill="#191970" stroke="#191970" points="1340.089,-120.8018 1350.3597,-118.2012 1340.709,-113.8293 1340.089,-120.8018"/>
</g>
<!-- Node172 -->
<g id="node29" class="node">
<title>Node172</title>
<g id="a_node29"><a xlink:href="../../d1/da4/MixtureFugacityTP_8h.html" target="_top" xlink:title="Header file for a derived class of ThermoPhase that handles non&#45;ideal mixtures based on the fugacity ...">
<polygon fill="#ffffff" stroke="#ff0000" points="616.5,-56.5 616.5,-75.5 724.5,-75.5 724.5,-56.5 616.5,-56.5"/>
<text text-anchor="middle" x="670.5" y="-63.5" font-family="Helvetica,sans-Serif" font-size="10.00" fill="#000000">MixtureFugacityTP.h</text>
</a>
</g>
</g>
<!-- Node29&#45;&gt;Node172 -->
<g id="edge44" class="edge">
<title>Node29&#45;&gt;Node172</title>
<path fill="none" stroke="#191970" d="M1340.1485,-119.8377C1226.9873,-114.9793 957.9407,-101.5722 733.5,-76 730.6392,-75.674 727.7096,-75.3111 724.7547,-74.9222"/>
<polygon fill="#191970" stroke="#191970" points="1340.1454,-123.3406 1350.2848,-120.2678 1340.4422,-116.3469 1340.1454,-123.3406"/>
</g>
<!-- Node175 -->
<g id="node30" class="node">
<title>Node175</title>
<g id="a_node30"><a xlink:href="../../da/dbb/TransportBase_8h.html" target="_top" xlink:title="Headers for the Transport object, which is the virtual base class for all transport property evaluato...">
<polygon fill="#ffffff" stroke="#ff0000" points="2083.5,-56.5 2083.5,-75.5 2173.5,-75.5 2173.5,-56.5 2083.5,-56.5"/>
<text text-anchor="middle" x="2128.5" y="-63.5" font-family="Helvetica,sans-Serif" font-size="10.00" fill="#000000">TransportBase.h</text>
</a>
</g>
</g>
<!-- Node29&#45;&gt;Node175 -->
<g id="edge45" class="edge">
<title>Node29&#45;&gt;Node175</title>
<path fill="none" stroke="#191970" d="M1448.835,-120.4561C1564.3826,-116.7053 1842.8805,-105.1812 2074.5,-76 2077.4325,-75.6305 2080.4466,-75.2039 2083.4796,-74.7394"/>
<polygon fill="#191970" stroke="#191970" points="1448.7075,-116.9583 1438.824,-120.7748 1448.9303,-123.9548 1448.7075,-116.9583"/>
</g>
<!-- Node209 -->
<g id="node31" class="node">
<title>Node209</title>
<g id="a_node31"><a xlink:href="../../d6/df1/ReactorBase_8h.html" target="_top" xlink:title="ReactorBase.h">
<polygon fill="#ffffff" stroke="#ff0000" points="743,-56.5 743,-75.5 826,-75.5 826,-56.5 743,-56.5"/>
<text text-anchor="middle" x="784.5" y="-63.5" font-family="Helvetica,sans-Serif" font-size="10.00" fill="#000000">ReactorBase.h</text>
</a>
</g>
</g>
<!-- Node29&#45;&gt;Node209 -->
<g id="edge47" class="edge">
<title>Node29&#45;&gt;Node209</title>
<path fill="none" stroke="#191970" d="M1340.1964,-119.6256C1239.9005,-114.7777 1018.9966,-101.9389 834.5,-76 831.7825,-75.6179 828.9899,-75.1818 826.1803,-74.7102"/>
<polygon fill="#191970" stroke="#191970" points="1340.2293,-123.131 1350.3844,-120.1105 1340.5622,-116.1389 1340.2293,-123.131"/>
</g>
<!-- Node33&#45;&gt;Node25 -->
<g id="edge16" class="edge">
<title>Node33&#45;&gt;Node25</title>
<path fill="none" stroke="#191970" d="M1728.7327,-56.0342C1502.409,-28.2874 1244.864,-16.0754 1137.0192,-11.8351"/>
<polygon fill="#191970" stroke="#191970" points="1728.4506,-59.5259 1738.8051,-57.282 1729.3113,-52.579 1728.4506,-59.5259"/>
</g>
<!-- Node33&#45;&gt;Node28 -->
<g id="edge15" class="edge">
<title>Node33&#45;&gt;Node28</title>
<path fill="none" stroke="#191970" d="M1808.488,-50.49C1823.1322,-40.6096 1841.6444,-28.1194 1854.2082,-19.6427"/>
<polygon fill="#191970" stroke="#191970" points="1806.2896,-47.7511 1799.9575,-56.2455 1810.2047,-53.5539 1806.2896,-47.7511"/>
</g>
<!-- Node33&#45;&gt;Node31 -->
<g id="edge17" class="edge">
<title>Node33&#45;&gt;Node31</title>
<path fill="none" stroke="#191970" d="M1750.5847,-52.7888C1723.5617,-42.5639 1686.786,-28.6488 1662.6101,-19.5011"/>
<polygon fill="#191970" stroke="#191970" points="1749.4664,-56.1078 1760.0579,-56.3733 1751.9437,-49.5608 1749.4664,-56.1078"/>
</g>
<!-- Node33&#45;&gt;Node57 -->
<g id="edge18" class="edge">
<title>Node33&#45;&gt;Node57</title>
<path fill="none" stroke="#191970" d="M1842.1893,-55.9772C1987.2517,-34.9278 2147.7548,-18.7685 2211.4356,-12.6431"/>
<polygon fill="#191970" stroke="#191970" points="1841.604,-52.5254 1832.2158,-57.4358 1842.617,-59.4518 1841.604,-52.5254"/>
</g>
<!-- Node59&#45;&gt;Node32 -->
<g id="edge20" class="edge">
<title>Node59&#45;&gt;Node32</title>
<path fill="none" stroke="#191970" d="M2035.5,-46.1575C2035.5,-37.155 2035.5,-26.9199 2035.5,-19.6427"/>
<polygon fill="#191970" stroke="#191970" points="2032.0001,-46.2455 2035.5,-56.2455 2039.0001,-46.2456 2032.0001,-46.2455"/>
</g>
<!-- Node111&#45;&gt;Node31 -->
<g id="edge22" class="edge">
<title>Node111&#45;&gt;Node31</title>
<path fill="none" stroke="#191970" d="M1605.8747,-48.5004C1613.6971,-38.9775 1623.076,-27.5596 1629.5792,-19.6427"/>
<polygon fill="#191970" stroke="#191970" points="1603.1555,-46.2967 1599.5126,-56.2455 1608.5646,-50.7399 1603.1555,-46.2967"/>
</g>
<!-- Node114&#45;&gt;Node31 -->
<g id="edge24" class="edge">
<title>Node114&#45;&gt;Node31</title>
<path fill="none" stroke="#191970" d="M1669.1253,-48.5004C1661.3029,-38.9775 1651.924,-27.5596 1645.4208,-19.6427"/>
<polygon fill="#191970" stroke="#191970" points="1666.4354,-50.7399 1675.4874,-56.2455 1671.8445,-46.2967 1666.4354,-50.7399"/>
</g>
<!-- Node123&#45;&gt;Node25 -->
<g id="edge26" class="edge">
<title>Node123&#45;&gt;Node25</title>
<path fill="none" stroke="#191970" d="M1394.7863,-55.9209C1297.7611,-40.1596 1196.6758,-25.5835 1137.1323,-17.1882"/>
<polygon fill="#191970" stroke="#191970" points="1394.3336,-59.3933 1404.7667,-57.5488 1395.4606,-52.4846 1394.3336,-59.3933"/>
</g>
<!-- Node126&#45;&gt;Node25 -->
<g id="edge28" class="edge">
<title>Node126&#45;&gt;Node25</title>
<path fill="none" stroke="#191970" d="M1044.0307,-49.3607C1054.2377,-39.6727 1066.7469,-27.7995 1075.3408,-19.6427"/>
<polygon fill="#191970" stroke="#191970" points="1041.6206,-46.8227 1036.777,-56.2455 1046.4396,-51.8998 1041.6206,-46.8227"/>
</g>
<!-- Node128&#45;&gt;Node25 -->
<g id="edge31" class="edge">
<title>Node128&#45;&gt;Node25</title>
<path fill="none" stroke="#191970" d="M1125.9707,-49.0751C1115.9917,-39.4402 1103.8524,-27.7196 1095.4871,-19.6427"/>
<polygon fill="#191970" stroke="#191970" points="1123.772,-51.8175 1133.3972,-56.2455 1128.6342,-46.7817 1123.772,-51.8175"/>
</g>
<!-- Node129&#45;&gt;Node25 -->
<g id="edge33" class="edge">
<title>Node129&#45;&gt;Node25</title>
<path fill="none" stroke="#191970" d="M1285.3812,-54.2425C1238.7737,-43.9262 1171.852,-29.1135 1128.5266,-19.5237"/>
<polygon fill="#191970" stroke="#191970" points="1284.7751,-57.693 1295.2952,-56.4369 1286.288,-50.8584 1284.7751,-57.693"/>
</g>
<!-- Node160&#45;&gt;Node25 -->
<g id="edge36" class="edge">
<title>Node160&#45;&gt;Node25</title>
<path fill="none" stroke="#191970" d="M1200.877,-52.7888C1173.3062,-42.5639 1135.7851,-28.6488 1111.1191,-19.5011"/>
<polygon fill="#191970" stroke="#191970" points="1199.9491,-56.1776 1210.5422,-56.3733 1202.3832,-49.6144 1199.9491,-56.1776"/>
</g>
<!-- Node169&#45;&gt;Node25 -->
<g id="edge39" class="edge">
<title>Node169&#45;&gt;Node25</title>
<path fill="none" stroke="#191970" d="M255.4991,-55.8749C555.7574,-25.7109 904.306,-14.5243 1033.7664,-11.1894"/>
<polygon fill="#191970" stroke="#191970" points="254.8832,-52.4193 245.2872,-56.9101 255.5892,-59.3837 254.8832,-52.4193"/>
</g>
<!-- Node170&#45;&gt;Node25 -->
<g id="edge41" class="edge">
<title>Node170&#45;&gt;Node25</title>
<path fill="none" stroke="#191970" d="M356.1625,-55.9317C615.6746,-22.5973 915.5578,-13.3601 1033.8678,-10.8651"/>
<polygon fill="#191970" stroke="#191970" points="355.6379,-52.4703 346.1721,-57.2296 356.5397,-59.412 355.6379,-52.4703"/>
</g>
<!-- Node171&#45;&gt;Node25 -->
<g id="edge43" class="edge">
<title>Node171&#45;&gt;Node25</title>
<path fill="none" stroke="#191970" d="M938.8357,-53.4561C973.5294,-43.1765 1021.8834,-28.8494 1053.4337,-19.5011"/>
<polygon fill="#191970" stroke="#191970" points="937.5839,-50.1765 928.9903,-56.3733 939.5726,-56.8881 937.5839,-50.1765"/>
</g>
<!-- Node175&#45;&gt;Node32 -->
<g id="edge46" class="edge">
<title>Node175&#45;&gt;Node32</title>
<path fill="none" stroke="#191970" d="M2103.6665,-51.0465C2087.1189,-41.0824 2065.8568,-28.2794 2051.5137,-19.6427"/>
<polygon fill="#191970" stroke="#191970" points="2101.9283,-54.0854 2112.3006,-56.2455 2105.5393,-48.0886 2101.9283,-54.0854"/>
</g>
</g>
</svg>
