<?xml version="1.0" encoding="UTF-8" standalone="no"?>
<!DOCTYPE svg PUBLIC "-//W3C//DTD SVG 1.1//EN"
 "http://www.w3.org/Graphics/SVG/1.1/DTD/svg11.dtd">
<!-- Generated by graphviz version 2.43.0 (0)
 -->
<!-- Title: Group.h Pages: 1 -->
<svg width="240pt" height="140pt"
 viewBox="0.00 0.00 240.00 140.00" xmlns="http://www.w3.org/2000/svg" xmlns:xlink="http://www.w3.org/1999/xlink">
<g id="graph0" class="graph" transform="scale(1 1) rotate(0) translate(4 136)">
<title>Group.h</title>
<polygon fill="white" stroke="transparent" points="-4,4 -4,-136 236,-136 236,4 -4,4"/>
<!-- Node1 -->
<g id="node1" class="node">
<title>Node1</title>
<g id="a_node1"><a xlink:title=" ">
<polygon fill="#bfbfbf" stroke="black" points="53.5,-112.5 53.5,-131.5 108.5,-131.5 108.5,-112.5 53.5,-112.5"/>
<text text-anchor="middle" x="81" y="-119.5" font-family="Helvetica,sans-Serif" font-size="10.00">Group.h</text>
</a>
</g>
</g>
<!-- Node2 -->
<g id="node2" class="node">
<title>Node2</title>
<g id="a_node2"><a xlink:href="../../de/d74/Group_8cpp.html" target="_top" xlink:title="Implementation file for the Group class used in reaction path analysis.">
<polygon fill="white" stroke="black" points="0,-56.5 0,-75.5 66,-75.5 66,-56.5 0,-56.5"/>
<text text-anchor="middle" x="33" y="-63.5" font-family="Helvetica,sans-Serif" font-size="10.00">Group.cpp</text>
</a>
</g>
</g>
<!-- Node1&#45;&gt;Node2 -->
<g id="edge1" class="edge">
<title>Node1&#45;&gt;Node2</title>
<path fill="none" stroke="midnightblue" d="M66.27,-104.43C57.86,-94.97 47.65,-83.48 40.78,-75.75"/>
<polygon fill="midnightblue" stroke="midnightblue" points="63.81,-106.93 73.07,-112.08 69.05,-102.28 63.81,-106.93"/>
</g>
<!-- Node3 -->
<g id="node3" class="node">
<title>Node3</title>
<g id="a_node3"><a xlink:href="../../d2/df0/ReactionPath_8h.html" target="_top" xlink:title="Classes for reaction path analysis.">
<polygon fill="white" stroke="black" points="84.5,-56.5 84.5,-75.5 173.5,-75.5 173.5,-56.5 84.5,-56.5"/>
<text text-anchor="middle" x="129" y="-63.5" font-family="Helvetica,sans-Serif" font-size="10.00">ReactionPath.h</text>
</a>
</g>
</g>
<!-- Node1&#45;&gt;Node3 -->
<g id="edge2" class="edge">
<title>Node1&#45;&gt;Node3</title>
<path fill="none" stroke="midnightblue" d="M95.73,-104.43C104.14,-94.97 114.35,-83.48 121.22,-75.75"/>
<polygon fill="midnightblue" stroke="midnightblue" points="92.95,-102.28 88.93,-112.08 98.19,-106.93 92.95,-102.28"/>
</g>
<!-- Node4 -->
<g id="node4" class="node">
<title>Node4</title>
<g id="a_node4"><a xlink:href="../../da/d26/ReactionPath_8cpp.html" target="_top" xlink:title="Implementation file for classes used in reaction path analysis.">
<polygon fill="white" stroke="black" points="20.5,-0.5 20.5,-19.5 121.5,-19.5 121.5,-0.5 20.5,-0.5"/>
<text text-anchor="middle" x="71" y="-7.5" font-family="Helvetica,sans-Serif" font-size="10.00">ReactionPath.cpp</text>
</a>
</g>
</g>
<!-- Node3&#45;&gt;Node4 -->
<g id="edge3" class="edge">
<title>Node3&#45;&gt;Node4</title>
<path fill="none" stroke="midnightblue" d="M112.09,-49.25C101.8,-39.67 89.03,-27.79 80.49,-19.83"/>
<polygon fill="midnightblue" stroke="midnightblue" points="109.98,-52.07 119.68,-56.32 114.75,-46.95 109.98,-52.07"/>
</g>
<!-- Node5 -->
<g id="node5" class="node">
<title>Node5</title>
<g id="a_node5"><a xlink:href="../../d8/df8/reactionpaths_8h_source.html" target="_top" xlink:title=" ">
<polygon fill="white" stroke="black" points="140,-0.5 140,-19.5 232,-19.5 232,-0.5 140,-0.5"/>
<text text-anchor="middle" x="186" y="-7.5" font-family="Helvetica,sans-Serif" font-size="10.00">reactionpaths.h</text>
</a>
</g>
</g>
<!-- Node3&#45;&gt;Node5 -->
<g id="edge4" class="edge">
<title>Node3&#45;&gt;Node5</title>
<path fill="none" stroke="midnightblue" d="M145.62,-49.25C155.73,-39.67 168.28,-27.79 176.68,-19.83"/>
<polygon fill="midnightblue" stroke="midnightblue" points="143.01,-46.91 138.16,-56.32 147.82,-51.99 143.01,-46.91"/>
</g>
</g>
</svg>
