<?xml version="1.0" encoding="UTF-8" standalone="no"?>
<!DOCTYPE svg PUBLIC "-//W3C//DTD SVG 1.1//EN"
 "http://www.w3.org/Graphics/SVG/1.1/DTD/svg11.dtd">
<!-- Generated by graphviz version 2.40.1 (20161225.0304)
 -->
<!-- Title: clockWC.h Pages: 1 -->
<svg width="539pt" height="84pt"
 viewBox="0.00 0.00 538.50 84.00" xmlns="http://www.w3.org/2000/svg" xmlns:xlink="http://www.w3.org/1999/xlink">
<g id="graph0" class="graph" transform="scale(1 1) rotate(0) translate(4 80)">
<title>clockWC.h</title>
<polygon fill="#ffffff" stroke="transparent" points="-4,4 -4,-80 534.5,-80 534.5,4 -4,4"/>
<!-- Node2 -->
<g id="node1" class="node">
<title>Node2</title>
<polygon fill="#bfbfbf" stroke="#000000" points="220.5,-56.5 220.5,-75.5 284.5,-75.5 284.5,-56.5 220.5,-56.5"/>
<text text-anchor="middle" x="252.5" y="-63.5" font-family="Helvetica,sans-Serif" font-size="10.00" fill="#000000">clockWC.h</text>
</g>
<!-- Node3 -->
<g id="node2" class="node">
<title>Node3</title>
<g id="a_node2"><a xlink:href="../../d1/d60/clockWC_8cpp.html" target="_top" xlink:title="Definitions for a simple class that implements an Ansi C wall clock timer (see Cantera::clockWC). ">
<polygon fill="#ffffff" stroke="#000000" points="0,-.5 0,-19.5 75,-19.5 75,-.5 0,-.5"/>
<text text-anchor="middle" x="37.5" y="-7.5" font-family="Helvetica,sans-Serif" font-size="10.00" fill="#000000">clockWC.cpp</text>
</a>
</g>
</g>
<!-- Node2&#45;&gt;Node3 -->
<g id="edge1" class="edge">
<title>Node2&#45;&gt;Node3</title>
<path fill="none" stroke="#191970" d="M210.4248,-55.0409C170.7949,-44.7187 112.022,-29.4104 74.2365,-19.5686"/>
<polygon fill="#191970" stroke="#191970" points="209.753,-58.4826 220.3123,-57.6162 211.5174,-51.7086 209.753,-58.4826"/>
</g>
<!-- Node4 -->
<g id="node3" class="node">
<title>Node4</title>
<g id="a_node3"><a xlink:href="../../d7/dfd/vcs__inest_8cpp.html" target="_top" xlink:title="Implementation methods for obtaining a good initial guess. ">
<polygon fill="#ffffff" stroke="#000000" points="93,-.5 93,-19.5 170,-19.5 170,-.5 93,-.5"/>
<text text-anchor="middle" x="131.5" y="-7.5" font-family="Helvetica,sans-Serif" font-size="10.00" fill="#000000">vcs_inest.cpp</text>
</a>
</g>
</g>
<!-- Node2&#45;&gt;Node4 -->
<g id="edge2" class="edge">
<title>Node2&#45;&gt;Node4</title>
<path fill="none" stroke="#191970" d="M222.4896,-52.1109C200.5475,-41.9559 171.3612,-28.4482 152.0292,-19.5011"/>
<polygon fill="#191970" stroke="#191970" points="221.1541,-55.3494 231.6994,-56.3733 224.0942,-48.9968 221.1541,-55.3494"/>
</g>
<!-- Node5 -->
<g id="node4" class="node">
<title>Node5</title>
<g id="a_node4"><a xlink:href="../../dc/d00/vcs__MultiPhaseEquil_8cpp.html" target="_top" xlink:title="Driver routine for the VCSnonideal equilibrium solver package. ">
<polygon fill="#ffffff" stroke="#000000" points="188.5,-.5 188.5,-19.5 316.5,-19.5 316.5,-.5 188.5,-.5"/>
<text text-anchor="middle" x="252.5" y="-7.5" font-family="Helvetica,sans-Serif" font-size="10.00" fill="#000000">vcs_MultiPhaseEquil.cpp</text>
</a>
</g>
</g>
<!-- Node2&#45;&gt;Node5 -->
<g id="edge3" class="edge">
<title>Node2&#45;&gt;Node5</title>
<path fill="none" stroke="#191970" d="M252.5,-46.1575C252.5,-37.155 252.5,-26.9199 252.5,-19.6427"/>
<polygon fill="#191970" stroke="#191970" points="249.0001,-46.2455 252.5,-56.2455 256.0001,-46.2456 249.0001,-46.2455"/>
</g>
<!-- Node6 -->
<g id="node5" class="node">
<title>Node6</title>
<g id="a_node5"><a xlink:href="../../dc/d88/vcs__solve_8cpp.html" target="_top" xlink:title="vcs_solve.cpp">
<polygon fill="#ffffff" stroke="#000000" points="335,-.5 335,-19.5 414,-19.5 414,-.5 335,-.5"/>
<text text-anchor="middle" x="374.5" y="-7.5" font-family="Helvetica,sans-Serif" font-size="10.00" fill="#000000">vcs_solve.cpp</text>
</a>
</g>
</g>
<!-- Node2&#45;&gt;Node6 -->
<g id="edge4" class="edge">
<title>Node2&#45;&gt;Node6</title>
<path fill="none" stroke="#191970" d="M282.7584,-52.1109C304.8819,-41.9559 334.3094,-28.4482 353.8011,-19.5011"/>
<polygon fill="#191970" stroke="#191970" points="281.1007,-49.0206 273.4725,-56.3733 284.021,-55.3824 281.1007,-49.0206"/>
</g>
<!-- Node7 -->
<g id="node6" class="node">
<title>Node7</title>
<g id="a_node6"><a xlink:href="../../d7/dec/vcs__solve__TP_8cpp.html" target="_top" xlink:title="Implementation file that contains the main algorithm for finding an equilibrium. ">
<polygon fill="#ffffff" stroke="#000000" points="432.5,-.5 432.5,-19.5 530.5,-19.5 530.5,-.5 432.5,-.5"/>
<text text-anchor="middle" x="481.5" y="-7.5" font-family="Helvetica,sans-Serif" font-size="10.00" fill="#000000">vcs_solve_TP.cpp</text>
</a>
</g>
</g>
<!-- Node2&#45;&gt;Node7 -->
<g id="edge5" class="edge">
<title>Node2&#45;&gt;Node7</title>
<path fill="none" stroke="#191970" d="M294.7932,-55.6576C337.0226,-45.3307 401.3901,-29.5902 442.4424,-19.5512"/>
<polygon fill="#191970" stroke="#191970" points="293.7068,-52.32 284.8244,-58.0953 295.3696,-59.1197 293.7068,-52.32"/>
</g>
</g>
</svg>
