<?xml version="1.0" encoding="UTF-8" standalone="no"?>
<!DOCTYPE svg PUBLIC "-//W3C//DTD SVG 1.1//EN"
 "http://www.w3.org/Graphics/SVG/1.1/DTD/svg11.dtd">
<!-- Generated by graphviz version 2.40.1 (20161225.0304)
 -->
<!-- Title: EdgeKinetics Pages: 1 -->
<svg width="438pt" height="352pt"
 viewBox="0.00 0.00 437.50 352.00" xmlns="http://www.w3.org/2000/svg" xmlns:xlink="http://www.w3.org/1999/xlink">
<g id="graph0" class="graph" transform="scale(1 1) rotate(0) translate(4 348)">
<title>EdgeKinetics</title>
<polygon fill="#ffffff" stroke="transparent" points="-4,4 -4,-348 433.5,-348 433.5,4 -4,4"/>
<!-- Node4 -->
<g id="node1" class="node">
<title>Node4</title>
<polygon fill="#bfbfbf" stroke="#000000" points="156.5,-.5 156.5,-19.5 231.5,-19.5 231.5,-.5 156.5,-.5"/>
<text text-anchor="middle" x="194" y="-7.5" font-family="Helvetica,sans-Serif" font-size="10.00" fill="#000000">EdgeKinetics</text>
</g>
<!-- Node5 -->
<g id="node2" class="node">
<title>Node5</title>
<g id="a_node2"><a xlink:href="../../d1/d72/classCantera_1_1InterfaceKinetics.html" target="_top" xlink:title="A kinetics manager for heterogeneous reaction mechanisms. ">
<polygon fill="#ffffff" stroke="#000000" points="149,-57.5 149,-76.5 239,-76.5 239,-57.5 149,-57.5"/>
<text text-anchor="middle" x="194" y="-64.5" font-family="Helvetica,sans-Serif" font-size="10.00" fill="#000000">InterfaceKinetics</text>
</a>
</g>
</g>
<!-- Node5&#45;&gt;Node4 -->
<g id="edge1" class="edge">
<title>Node5&#45;&gt;Node4</title>
<path fill="none" stroke="#191970" d="M194,-47.2342C194,-37.8491 194,-27.0651 194,-19.5265"/>
<polygon fill="#191970" stroke="#191970" points="190.5001,-47.3307 194,-57.3307 197.5001,-47.3308 190.5001,-47.3307"/>
</g>
<!-- Node6 -->
<g id="node3" class="node">
<title>Node6</title>
<g id="a_node3"><a xlink:href="../../d4/dc4/classCantera_1_1Kinetics.html" target="_top" xlink:title="Public interface for kinetics managers. ">
<polygon fill="#ffffff" stroke="#000000" points="0,-219.5 0,-238.5 52,-238.5 52,-219.5 0,-219.5"/>
<text text-anchor="middle" x="26" y="-226.5" font-family="Helvetica,sans-Serif" font-size="10.00" fill="#000000">Kinetics</text>
</a>
</g>
</g>
<!-- Node6&#45;&gt;Node5 -->
<g id="edge2" class="edge">
<title>Node6&#45;&gt;Node5</title>
<path fill="none" stroke="#191970" d="M25.0746,-209.2992C25.0578,-186.2061 28.5038,-148.0423 49,-124 74.0937,-94.5647 116.3969,-80.2286 148.8535,-73.3077"/>
<polygon fill="#191970" stroke="#191970" points="21.5754,-209.3792 25.3014,-219.2972 28.5736,-209.2204 21.5754,-209.3792"/>
</g>
<!-- Node7 -->
<g id="node4" class="node">
<title>Node7</title>
<g id="a_node4"><a xlink:href="../../d8/d89/classCantera_1_1ValueCache.html" target="_top" xlink:title="ValueCache">
<polygon fill="#ffffff" stroke="#000000" points="23.5,-324.5 23.5,-343.5 94.5,-343.5 94.5,-324.5 23.5,-324.5"/>
<text text-anchor="middle" x="59" y="-331.5" font-family="Helvetica,sans-Serif" font-size="10.00" fill="#000000">ValueCache</text>
</a>
</g>
</g>
<!-- Node7&#45;&gt;Node6 -->
<g id="edge3" class="edge">
<title>Node7&#45;&gt;Node6</title>
<path fill="none" stroke="#9a32cd" stroke-dasharray="5,2" d="M34.4994,-317.6731C31.054,-314.2456 28.0075,-310.336 26,-306 15.6659,-283.6789 20.1871,-253.6661 23.5477,-238.5495"/>
<polygon fill="#9a32cd" stroke="#9a32cd" points="32.5361,-320.5968 42.4307,-324.3847 37.058,-315.2532 32.5361,-320.5968"/>
<text text-anchor="middle" x="48" y="-298" font-family="Helvetica,sans-Serif" font-size="10.00" fill="#000000"> m_cache</text>
</g>
<!-- Node10 -->
<g id="node7" class="node">
<title>Node10</title>
<g id="a_node7"><a xlink:href="../../d6/d0e/classCantera_1_1Phase.html" target="_top" xlink:title="Class Phase is the base class for phases of matter, managing the species and elements in a phase...">
<polygon fill="#ffffff" stroke="#ff0000" points="70.5,-257.5 70.5,-276.5 115.5,-276.5 115.5,-257.5 70.5,-257.5"/>
<text text-anchor="middle" x="93" y="-264.5" font-family="Helvetica,sans-Serif" font-size="10.00" fill="#000000">Phase</text>
</a>
</g>
</g>
<!-- Node7&#45;&gt;Node10 -->
<g id="edge7" class="edge">
<title>Node7&#45;&gt;Node10</title>
<path fill="none" stroke="#9a32cd" stroke-dasharray="5,2" d="M68.5213,-315.2374C74.9032,-302.6614 83.0412,-286.6246 88.1377,-276.5817"/>
<polygon fill="#9a32cd" stroke="#9a32cd" points="65.2756,-313.8992 63.8714,-324.4005 71.5178,-317.0669 65.2756,-313.8992"/>
<text text-anchor="middle" x="101" y="-298" font-family="Helvetica,sans-Serif" font-size="10.00" fill="#000000"> m_cache</text>
</g>
<!-- Node8 -->
<g id="node5" class="node">
<title>Node8</title>
<g id="a_node5"><a xlink:href="../../d2/d95/classCantera_1_1SurfPhase.html" target="_top" xlink:title="A simple thermodynamic model for a surface phase, assuming an ideal solution model. ">
<polygon fill="#ffffff" stroke="#000000" points="58.5,-124.5 58.5,-143.5 121.5,-143.5 121.5,-124.5 58.5,-124.5"/>
<text text-anchor="middle" x="90" y="-131.5" font-family="Helvetica,sans-Serif" font-size="10.00" fill="#000000">SurfPhase</text>
</a>
</g>
</g>
<!-- Node8&#45;&gt;Node5 -->
<g id="edge4" class="edge">
<title>Node8&#45;&gt;Node5</title>
<path fill="none" stroke="#9a32cd" stroke-dasharray="5,2" d="M113.498,-118.8619C133.6245,-105.8957 161.9944,-87.619 179.127,-76.5817"/>
<polygon fill="#9a32cd" stroke="#9a32cd" points="111.4117,-116.0425 104.9007,-124.4005 115.2027,-121.927 111.4117,-116.0425"/>
<text text-anchor="middle" x="166" y="-98" font-family="Helvetica,sans-Serif" font-size="10.00" fill="#000000"> m_surf</text>
</g>
<!-- Node9 -->
<g id="node6" class="node">
<title>Node9</title>
<g id="a_node6"><a xlink:href="../../dc/d38/classCantera_1_1ThermoPhase.html" target="_top" xlink:title="Base class for a phase with thermodynamic properties. ">
<polygon fill="#ffffff" stroke="#000000" points="54.5,-181.5 54.5,-200.5 133.5,-200.5 133.5,-181.5 54.5,-181.5"/>
<text text-anchor="middle" x="94" y="-188.5" font-family="Helvetica,sans-Serif" font-size="10.00" fill="#000000">ThermoPhase</text>
</a>
</g>
</g>
<!-- Node9&#45;&gt;Node8 -->
<g id="edge5" class="edge">
<title>Node9&#45;&gt;Node8</title>
<path fill="none" stroke="#191970" d="M92.6129,-171.2342C91.9543,-161.8491 91.1976,-151.0651 90.6685,-143.5265"/>
<polygon fill="#191970" stroke="#191970" points="89.1299,-171.6003 93.3215,-181.3307 96.1127,-171.1102 89.1299,-171.6003"/>
</g>
<!-- Node10&#45;&gt;Node9 -->
<g id="edge6" class="edge">
<title>Node10&#45;&gt;Node9</title>
<path fill="none" stroke="#191970" d="M93.2614,-247.1362C93.4576,-232.2258 93.7178,-212.4488 93.8712,-200.7874"/>
<polygon fill="#191970" stroke="#191970" points="89.7586,-247.3293 93.1267,-257.3745 96.758,-247.4215 89.7586,-247.3293"/>
</g>
<!-- Node12 -->
<g id="node8" class="node">
<title>Node12</title>
<g id="a_node8"><a xlink:href="../../d5/dda/classCantera_1_1MultiSpeciesThermo.html" target="_top" xlink:title="A species thermodynamic property manager for a phase. ">
<polygon fill="#ffffff" stroke="#000000" points="134,-257.5 134,-276.5 242,-276.5 242,-257.5 134,-257.5"/>
<text text-anchor="middle" x="188" y="-264.5" font-family="Helvetica,sans-Serif" font-size="10.00" fill="#000000">MultiSpeciesThermo</text>
</a>
</g>
</g>
<!-- Node12&#45;&gt;Node9 -->
<g id="edge8" class="edge">
<title>Node12&#45;&gt;Node9</title>
<path fill="none" stroke="#9a32cd" stroke-dasharray="5,2" d="M168.1142,-250.9221C149.2191,-235.6452 121.4385,-213.1843 105.8085,-200.5473"/>
<polygon fill="#9a32cd" stroke="#9a32cd" points="166.118,-253.809 176.0948,-257.3745 170.5191,-248.3656 166.118,-253.809"/>
<text text-anchor="middle" x="182.5" y="-226.5" font-family="Helvetica,sans-Serif" font-size="10.00" fill="#000000"> m_spthermo</text>
</g>
<!-- Node13 -->
<g id="node9" class="node">
<title>Node13</title>
<g id="a_node9"><a xlink:href="../../d5/d4e/classCantera_1_1Rate1.html" target="_top" xlink:title="Rate1\&lt; Cantera::SurfaceArrhenius \&gt;">
<polygon fill="#ffffff" stroke="#000000" points="139.5,-124.5 139.5,-143.5 318.5,-143.5 318.5,-124.5 139.5,-124.5"/>
<text text-anchor="middle" x="229" y="-131.5" font-family="Helvetica,sans-Serif" font-size="10.00" fill="#000000">Rate1&lt; Cantera::SurfaceArrhenius &gt;</text>
</a>
</g>
</g>
<!-- Node13&#45;&gt;Node5 -->
<g id="edge9" class="edge">
<title>Node13&#45;&gt;Node5</title>
<path fill="none" stroke="#9a32cd" stroke-dasharray="5,2" d="M219.1986,-115.2374C212.6291,-102.6614 204.2517,-86.6246 199.0053,-76.5817"/>
<polygon fill="#9a32cd" stroke="#9a32cd" points="216.2529,-117.1576 223.9854,-124.4005 222.4573,-113.9165 216.2529,-117.1576"/>
<text text-anchor="middle" x="233.5" y="-98" font-family="Helvetica,sans-Serif" font-size="10.00" fill="#000000"> m_rates</text>
</g>
<!-- Node14 -->
<g id="node10" class="node">
<title>Node14</title>
<g id="a_node10"><a xlink:href="../../d6/d12/classCantera_1_1ImplicitSurfChem.html" target="_top" xlink:title="Advances the surface coverages of the associated set of SurfacePhase objects in time. ">
<polygon fill="#ffffff" stroke="#000000" points="336.5,-124.5 336.5,-143.5 429.5,-143.5 429.5,-124.5 336.5,-124.5"/>
<text text-anchor="middle" x="383" y="-131.5" font-family="Helvetica,sans-Serif" font-size="10.00" fill="#000000">ImplicitSurfChem</text>
</a>
</g>
</g>
<!-- Node14&#45;&gt;Node5 -->
<g id="edge10" class="edge">
<title>Node14&#45;&gt;Node5</title>
<path fill="none" stroke="#9a32cd" stroke-dasharray="5,2" d="M346.0913,-120.916C309.3542,-107.8928 253.847,-88.2156 221.0289,-76.5817"/>
<polygon fill="#9a32cd" stroke="#9a32cd" points="345.3262,-124.3581 355.9209,-124.4005 347.6651,-117.7604 345.3262,-124.3581"/>
<text text-anchor="middle" x="329.5" y="-98" font-family="Helvetica,sans-Serif" font-size="10.00" fill="#000000"> m_integrator</text>
</g>
<!-- Node15 -->
<g id="node11" class="node">
<title>Node15</title>
<g id="a_node11"><a xlink:href="../../d1/dd1/classCantera_1_1FuncEval.html" target="_top" xlink:title="Virtual base class for ODE right&#45;hand&#45;side function evaluators. ">
<polygon fill="#ffffff" stroke="#000000" points="354,-181.5 354,-200.5 412,-200.5 412,-181.5 354,-181.5"/>
<text text-anchor="middle" x="383" y="-188.5" font-family="Helvetica,sans-Serif" font-size="10.00" fill="#000000">FuncEval</text>
</a>
</g>
</g>
<!-- Node15&#45;&gt;Node14 -->
<g id="edge11" class="edge">
<title>Node15&#45;&gt;Node14</title>
<path fill="none" stroke="#191970" d="M383,-171.2342C383,-161.8491 383,-151.0651 383,-143.5265"/>
<polygon fill="#191970" stroke="#191970" points="379.5001,-171.3307 383,-181.3307 386.5001,-171.3308 379.5001,-171.3307"/>
</g>
</g>
</svg>
