<?xml version="1.0" encoding="UTF-8" standalone="no"?>
<!DOCTYPE svg PUBLIC "-//W3C//DTD SVG 1.1//EN"
 "http://www.w3.org/Graphics/SVG/1.1/DTD/svg11.dtd">
<!-- Generated by graphviz version 2.43.0 (0)
 -->
<!-- Title: Kinetics Pages: 1 -->
<svg width="265pt" height="196pt"
 viewBox="0.00 0.00 264.50 196.00" xmlns="http://www.w3.org/2000/svg" xmlns:xlink="http://www.w3.org/1999/xlink">
<g id="graph0" class="graph" transform="scale(1 1) rotate(0) translate(4 192)">
<title>Kinetics</title>
<polygon fill="white" stroke="transparent" points="-4,4 -4,-192 260.5,-192 260.5,4 -4,4"/>
<!-- Node1 -->
<g id="node1" class="node">
<title>Node1</title>
<g id="a_node1"><a xlink:title="Public interface for kinetics managers.">
<polygon fill="#bfbfbf" stroke="black" points="63.5,-168.5 63.5,-187.5 119.5,-187.5 119.5,-168.5 63.5,-168.5"/>
<text text-anchor="middle" x="91.5" y="-175.5" font-family="Helvetica,sans-Serif" font-size="10.00">Kinetics</text>
</a>
</g>
</g>
<!-- Node2 -->
<g id="node2" class="node">
<title>Node2</title>
<g id="a_node2"><a xlink:href="../../d5/d0f/classCantera_1_1BulkKinetics.html" target="_top" xlink:title="Partial specialization of Kinetics for chemistry in a single bulk phase.">
<polygon fill="white" stroke="black" points="0,-112.5 0,-131.5 77,-131.5 77,-112.5 0,-112.5"/>
<text text-anchor="middle" x="38.5" y="-119.5" font-family="Helvetica,sans-Serif" font-size="10.00">BulkKinetics</text>
</a>
</g>
</g>
<!-- Node1&#45;&gt;Node2 -->
<g id="edge1" class="edge">
<title>Node1&#45;&gt;Node2</title>
<path fill="none" stroke="midnightblue" d="M75.52,-160.72C66.18,-151.2 54.75,-139.56 47.09,-131.75"/>
<polygon fill="midnightblue" stroke="midnightblue" points="73.25,-163.4 82.75,-168.08 78.24,-158.49 73.25,-163.4"/>
</g>
<!-- Node5 -->
<g id="node5" class="node">
<title>Node5</title>
<g id="a_node5"><a xlink:href="../../d1/d72/classCantera_1_1InterfaceKinetics.html" target="_top" xlink:title="A kinetics manager for heterogeneous reaction mechanisms.">
<polygon fill="white" stroke="black" points="95,-112.5 95,-131.5 194,-131.5 194,-112.5 95,-112.5"/>
<text text-anchor="middle" x="144.5" y="-119.5" font-family="Helvetica,sans-Serif" font-size="10.00">InterfaceKinetics</text>
</a>
</g>
</g>
<!-- Node1&#45;&gt;Node5 -->
<g id="edge4" class="edge">
<title>Node1&#45;&gt;Node5</title>
<path fill="none" stroke="midnightblue" d="M107.48,-160.72C116.82,-151.2 128.25,-139.56 135.91,-131.75"/>
<polygon fill="midnightblue" stroke="midnightblue" points="104.76,-158.49 100.25,-168.08 109.75,-163.4 104.76,-158.49"/>
</g>
<!-- Node3 -->
<g id="node3" class="node">
<title>Node3</title>
<g id="a_node3"><a xlink:href="../../de/dae/classCantera_1_1GasKinetics.html" target="_top" xlink:title="Kinetics manager for elementary gas&#45;phase chemistry.">
<polygon fill="white" stroke="black" points="1.5,-56.5 1.5,-75.5 75.5,-75.5 75.5,-56.5 1.5,-56.5"/>
<text text-anchor="middle" x="38.5" y="-63.5" font-family="Helvetica,sans-Serif" font-size="10.00">GasKinetics</text>
</a>
</g>
</g>
<!-- Node2&#45;&gt;Node3 -->
<g id="edge2" class="edge">
<title>Node2&#45;&gt;Node3</title>
<path fill="none" stroke="midnightblue" d="M38.5,-101.8C38.5,-92.91 38.5,-82.78 38.5,-75.75"/>
<polygon fill="midnightblue" stroke="midnightblue" points="35,-102.08 38.5,-112.08 42,-102.08 35,-102.08"/>
</g>
<!-- Node4 -->
<g id="node4" class="node">
<title>Node4</title>
<g id="a_node4"><a xlink:href="../../db/d19/classCantera_1_1IdealGasMix.html" target="_top" xlink:title="Convenience class which inherits from both IdealGasPhase and GasKinetics.">
<polygon fill="white" stroke="black" points="0,-0.5 0,-19.5 77,-19.5 77,-0.5 0,-0.5"/>
<text text-anchor="middle" x="38.5" y="-7.5" font-family="Helvetica,sans-Serif" font-size="10.00">IdealGasMix</text>
</a>
</g>
</g>
<!-- Node3&#45;&gt;Node4 -->
<g id="edge3" class="edge">
<title>Node3&#45;&gt;Node4</title>
<path fill="none" stroke="midnightblue" d="M38.5,-45.8C38.5,-36.91 38.5,-26.78 38.5,-19.75"/>
<polygon fill="midnightblue" stroke="midnightblue" points="35,-46.08 38.5,-56.08 42,-46.08 35,-46.08"/>
</g>
<!-- Node6 -->
<g id="node6" class="node">
<title>Node6</title>
<g id="a_node6"><a xlink:href="../../d0/df0/classCantera_1_1EdgeKinetics.html" target="_top" xlink:title="Heterogeneous reactions at one&#45;dimensional interfaces between multiple adjacent two&#45;dimensional surfa...">
<polygon fill="white" stroke="black" points="98.5,-56.5 98.5,-75.5 178.5,-75.5 178.5,-56.5 98.5,-56.5"/>
<text text-anchor="middle" x="138.5" y="-63.5" font-family="Helvetica,sans-Serif" font-size="10.00">EdgeKinetics</text>
</a>
</g>
</g>
<!-- Node5&#45;&gt;Node6 -->
<g id="edge5" class="edge">
<title>Node5&#45;&gt;Node6</title>
<path fill="none" stroke="midnightblue" d="M142.4,-102.1C141.4,-93.14 140.26,-82.86 139.47,-75.75"/>
<polygon fill="midnightblue" stroke="midnightblue" points="138.93,-102.53 143.51,-112.08 145.88,-101.76 138.93,-102.53"/>
</g>
<!-- Node8 -->
<g id="node8" class="node">
<title>Node8</title>
<g id="a_node8"><a xlink:href="../../db/dc7/classCantera_1_1Interface.html" target="_top" xlink:title="An interface between multiple bulk phases.">
<polygon fill="white" stroke="black" points="196.5,-56.5 196.5,-75.5 256.5,-75.5 256.5,-56.5 196.5,-56.5"/>
<text text-anchor="middle" x="226.5" y="-63.5" font-family="Helvetica,sans-Serif" font-size="10.00">Interface</text>
</a>
</g>
</g>
<!-- Node5&#45;&gt;Node8 -->
<g id="edge7" class="edge">
<title>Node5&#45;&gt;Node8</title>
<path fill="none" stroke="midnightblue" d="M166.33,-106.62C181.31,-96.76 200.7,-83.99 213.36,-75.65"/>
<polygon fill="midnightblue" stroke="midnightblue" points="164.1,-103.9 157.67,-112.32 167.95,-109.75 164.1,-103.9"/>
</g>
<!-- Node7 -->
<g id="node7" class="node">
<title>Node7</title>
<g id="a_node7"><a xlink:href="../../de/dea/classCantera_1_1Edge.html" target="_top" xlink:title="Convenience class which inherits from both EdgePhase and EdgeKinetics.">
<polygon fill="white" stroke="black" points="118,-0.5 118,-19.5 159,-19.5 159,-0.5 118,-0.5"/>
<text text-anchor="middle" x="138.5" y="-7.5" font-family="Helvetica,sans-Serif" font-size="10.00">Edge</text>
</a>
</g>
</g>
<!-- Node6&#45;&gt;Node7 -->
<g id="edge6" class="edge">
<title>Node6&#45;&gt;Node7</title>
<path fill="none" stroke="midnightblue" d="M138.5,-45.8C138.5,-36.91 138.5,-26.78 138.5,-19.75"/>
<polygon fill="midnightblue" stroke="midnightblue" points="135,-46.08 138.5,-56.08 142,-46.08 135,-46.08"/>
</g>
</g>
</svg>
