<?xml version="1.0" encoding="UTF-8" standalone="no"?>
<!DOCTYPE svg PUBLIC "-//W3C//DTD SVG 1.1//EN"
 "http://www.w3.org/Graphics/SVG/1.1/DTD/svg11.dtd">
<!-- Generated by graphviz version 2.40.1 (20161225.0304)
 -->
<!-- Title: Inlet1D.h Pages: 1 -->
<svg width="182pt" height="84pt"
 viewBox="0.00 0.00 182.00 84.00" xmlns="http://www.w3.org/2000/svg" xmlns:xlink="http://www.w3.org/1999/xlink">
<g id="graph0" class="graph" transform="scale(1 1) rotate(0) translate(4 80)">
<title>Inlet1D.h</title>
<polygon fill="#ffffff" stroke="transparent" points="-4,4 -4,-80 178,-80 178,4 -4,4"/>
<!-- Node50 -->
<g id="node1" class="node">
<title>Node50</title>
<polygon fill="#bfbfbf" stroke="#000000" points="68.5,-56.5 68.5,-75.5 125.5,-75.5 125.5,-56.5 68.5,-56.5"/>
<text text-anchor="middle" x="97" y="-63.5" font-family="Helvetica,sans-Serif" font-size="10.00" fill="#000000">Inlet1D.h</text>
</g>
<!-- Node51 -->
<g id="node2" class="node">
<title>Node51</title>
<g id="a_node2"><a xlink:href="../../d6/d01/boundaries1D_8cpp.html" target="_top" xlink:title="boundaries1D.cpp">
<polygon fill="#ffffff" stroke="#000000" points="0,-.5 0,-19.5 98,-19.5 98,-.5 0,-.5"/>
<text text-anchor="middle" x="49" y="-7.5" font-family="Helvetica,sans-Serif" font-size="10.00" fill="#000000">boundaries1D.cpp</text>
</a>
</g>
</g>
<!-- Node50&#45;&gt;Node51 -->
<g id="edge1" class="edge">
<title>Node50&#45;&gt;Node51</title>
<path fill="none" stroke="#191970" d="M82.0003,-48.5004C73.8378,-38.9775 64.0511,-27.5596 57.2651,-19.6427"/>
<polygon fill="#191970" stroke="#191970" points="79.4737,-50.9307 88.639,-56.2455 84.7885,-46.3752 79.4737,-50.9307"/>
</g>
<!-- Node52 -->
<g id="node3" class="node">
<title>Node52</title>
<g id="a_node3"><a xlink:href="../../d4/d07/onedim_8h.html" target="_top" xlink:title="onedim.h">
<polygon fill="#ffffff" stroke="#000000" points="116,-.5 116,-19.5 174,-19.5 174,-.5 116,-.5"/>
<text text-anchor="middle" x="145" y="-7.5" font-family="Helvetica,sans-Serif" font-size="10.00" fill="#000000">onedim.h</text>
</a>
</g>
</g>
<!-- Node50&#45;&gt;Node52 -->
<g id="edge2" class="edge">
<title>Node50&#45;&gt;Node52</title>
<path fill="none" stroke="#191970" d="M111.9997,-48.5004C120.1622,-38.9775 129.9489,-27.5596 136.7349,-19.6427"/>
<polygon fill="#191970" stroke="#191970" points="109.2115,-46.3752 105.361,-56.2455 114.5263,-50.9307 109.2115,-46.3752"/>
</g>
</g>
</svg>
