<?xml version="1.0" encoding="UTF-8" standalone="no"?>
<!DOCTYPE svg PUBLIC "-//W3C//DTD SVG 1.1//EN"
 "http://www.w3.org/Graphics/SVG/1.1/DTD/svg11.dtd">
<!-- Generated by graphviz version 2.43.0 (0)
 -->
<!-- Title: DAE_Solver.h Pages: 1 -->
<svg width="214pt" height="140pt"
 viewBox="0.00 0.00 213.50 140.00" xmlns="http://www.w3.org/2000/svg" xmlns:xlink="http://www.w3.org/1999/xlink">
<g id="graph0" class="graph" transform="scale(1 1) rotate(0) translate(4 136)">
<title>DAE_Solver.h</title>
<polygon fill="white" stroke="transparent" points="-4,4 -4,-136 209.5,-136 209.5,4 -4,4"/>
<!-- Node1 -->
<g id="node1" class="node">
<title>Node1</title>
<g id="a_node1"><a xlink:title="Header file for class DAE_Solver.">
<polygon fill="#bfbfbf" stroke="black" points="41.5,-112.5 41.5,-131.5 122.5,-131.5 122.5,-112.5 41.5,-112.5"/>
<text text-anchor="middle" x="82" y="-119.5" font-family="Helvetica,sans-Serif" font-size="10.00">DAE_Solver.h</text>
</a>
</g>
</g>
<!-- Node2 -->
<g id="node2" class="node">
<title>Node2</title>
<g id="a_node2"><a xlink:href="../../d2/d0b/DAE__solvers_8cpp.html" target="_top" xlink:title="Factory routine for picking the DAE solver package.">
<polygon fill="white" stroke="black" points="0,-0.5 0,-19.5 98,-19.5 98,-0.5 0,-0.5"/>
<text text-anchor="middle" x="49" y="-7.5" font-family="Helvetica,sans-Serif" font-size="10.00">DAE_solvers.cpp</text>
</a>
</g>
</g>
<!-- Node1&#45;&gt;Node2 -->
<g id="edge1" class="edge">
<title>Node1&#45;&gt;Node2</title>
<path fill="none" stroke="midnightblue" d="M76.25,-102.77C73.69,-94.59 70.66,-84.82 68,-76 61.96,-55.96 55.13,-32.37 51.53,-19.85"/>
<polygon fill="midnightblue" stroke="midnightblue" points="72.94,-103.9 79.27,-112.39 79.61,-101.8 72.94,-103.9"/>
</g>
<!-- Node3 -->
<g id="node3" class="node">
<title>Node3</title>
<g id="a_node3"><a xlink:href="../../da/df0/IDA__Solver_8h.html" target="_top" xlink:title="Header file for class IDA_Solver.">
<polygon fill="white" stroke="black" points="77,-56.5 77,-75.5 155,-75.5 155,-56.5 77,-56.5"/>
<text text-anchor="middle" x="116" y="-63.5" font-family="Helvetica,sans-Serif" font-size="10.00">IDA_Solver.h</text>
</a>
</g>
</g>
<!-- Node1&#45;&gt;Node3 -->
<g id="edge2" class="edge">
<title>Node1&#45;&gt;Node3</title>
<path fill="none" stroke="midnightblue" d="M92.98,-103.57C98.83,-94.27 105.77,-83.25 110.49,-75.75"/>
<polygon fill="midnightblue" stroke="midnightblue" points="89.98,-101.76 87.61,-112.08 95.9,-105.49 89.98,-101.76"/>
</g>
<!-- Node3&#45;&gt;Node2 -->
<g id="edge3" class="edge">
<title>Node3&#45;&gt;Node2</title>
<path fill="none" stroke="midnightblue" d="M97.17,-49.82C85.16,-40.15 70.03,-27.95 59.96,-19.83"/>
<polygon fill="midnightblue" stroke="midnightblue" points="95.25,-52.77 105.24,-56.32 99.65,-47.32 95.25,-52.77"/>
</g>
<!-- Node4 -->
<g id="node4" class="node">
<title>Node4</title>
<g id="a_node4"><a xlink:href="../../db/d95/IDA__Solver_8cpp.html" target="_top" xlink:title=" ">
<polygon fill="white" stroke="black" points="116.5,-0.5 116.5,-19.5 205.5,-19.5 205.5,-0.5 116.5,-0.5"/>
<text text-anchor="middle" x="161" y="-7.5" font-family="Helvetica,sans-Serif" font-size="10.00">IDA_Solver.cpp</text>
</a>
</g>
</g>
<!-- Node3&#45;&gt;Node4 -->
<g id="edge4" class="edge">
<title>Node3&#45;&gt;Node4</title>
<path fill="none" stroke="midnightblue" d="M130.05,-48.14C137.89,-38.74 147.33,-27.4 153.71,-19.75"/>
<polygon fill="midnightblue" stroke="midnightblue" points="127.14,-46.16 123.43,-56.08 132.52,-50.64 127.14,-46.16"/>
</g>
</g>
</svg>
