<?xml version="1.0" encoding="UTF-8" standalone="no"?>
<!DOCTYPE svg PUBLIC "-//W3C//DTD SVG 1.1//EN"
 "http://www.w3.org/Graphics/SVG/1.1/DTD/svg11.dtd">
<!-- Generated by graphviz version 2.40.1 (20161225.0304)
 -->
<!-- Title: MultiTransport.cpp Pages: 1 -->
<svg width="651pt" height="420pt"
 viewBox="0.00 0.00 650.50 420.00" xmlns="http://www.w3.org/2000/svg" xmlns:xlink="http://www.w3.org/1999/xlink">
<g id="graph0" class="graph" transform="scale(1 1) rotate(0) translate(4 416)">
<title>MultiTransport.cpp</title>
<polygon fill="#ffffff" stroke="transparent" points="-4,4 -4,-416 646.5,-416 646.5,4 -4,4"/>
<!-- Node0 -->
<g id="node1" class="node">
<title>Node0</title>
<polygon fill="#bfbfbf" stroke="#000000" points="322,-392.5 322,-411.5 421,-411.5 421,-392.5 322,-392.5"/>
<text text-anchor="middle" x="371.5" y="-399.5" font-family="Helvetica,sans-Serif" font-size="10.00" fill="#000000">MultiTransport.cpp</text>
</g>
<!-- Node1 -->
<g id="node2" class="node">
<title>Node1</title>
<g id="a_node2"><a xlink:href="../../da/dd1/MultiTransport_8h.html" target="_top" xlink:title="Interface for class MultiTransport. ">
<polygon fill="#ffffff" stroke="#000000" points="288,-336.5 288,-355.5 455,-355.5 455,-336.5 288,-336.5"/>
<text text-anchor="middle" x="371.5" y="-343.5" font-family="Helvetica,sans-Serif" font-size="10.00" fill="#000000">cantera/transport/MultiTransport.h</text>
</a>
</g>
</g>
<!-- Node0&#45;&gt;Node1 -->
<g id="edge1" class="edge">
<title>Node0&#45;&gt;Node1</title>
<path fill="none" stroke="#191970" d="M371.5,-392.2455C371.5,-384.9382 371.5,-374.6944 371.5,-365.7046"/>
<polygon fill="#191970" stroke="#191970" points="375.0001,-365.6426 371.5,-355.6427 368.0001,-365.6427 375.0001,-365.6426"/>
</g>
<!-- Node40 -->
<g id="node12" class="node">
<title>Node40</title>
<g id="a_node12"><a xlink:href="../../de/dbd/IdealGasPhase_8h.html" target="_top" xlink:title="ThermoPhase object for the ideal gas equation of state &#45; workhorse for Cantera (see Thermodynamic Pro...">
<polygon fill="#ffffff" stroke="#000000" points="469,-280.5 469,-299.5 632,-299.5 632,-280.5 469,-280.5"/>
<text text-anchor="middle" x="550.5" y="-287.5" font-family="Helvetica,sans-Serif" font-size="10.00" fill="#000000">cantera/thermo/IdealGasPhase.h</text>
</a>
</g>
</g>
<!-- Node0&#45;&gt;Node40 -->
<g id="edge12" class="edge">
<title>Node0&#45;&gt;Node40</title>
<path fill="none" stroke="#191970" d="M393.9491,-392.3887C413.2038,-383.7984 441.4112,-370.3778 464.5,-356 488.7165,-340.9201 514.406,-320.5592 531.3342,-306.458"/>
<polygon fill="#191970" stroke="#191970" points="533.9431,-308.8366 539.3338,-299.7156 529.4318,-303.4841 533.9431,-308.8366"/>
</g>
<!-- Node41 -->
<g id="node13" class="node">
<title>Node41</title>
<g id="a_node13"><a xlink:href="../../dd/dc3/stringUtils_8h.html" target="_top" xlink:title="Contains declarations for string manipulation functions within Cantera. ">
<polygon fill="#ffffff" stroke="#000000" points="0,-168.5 0,-187.5 129,-187.5 129,-168.5 0,-168.5"/>
<text text-anchor="middle" x="64.5" y="-175.5" font-family="Helvetica,sans-Serif" font-size="10.00" fill="#000000">cantera/base/stringUtils.h</text>
</a>
</g>
</g>
<!-- Node0&#45;&gt;Node41 -->
<g id="edge14" class="edge">
<title>Node0&#45;&gt;Node41</title>
<path fill="none" stroke="#191970" d="M348.5208,-392.4475C329.1871,-383.991 301.1513,-370.7299 278.5,-356 199.738,-304.782 117.1834,-228.6983 82.0213,-195.0556"/>
<polygon fill="#191970" stroke="#191970" points="84.1357,-192.2327 74.5048,-187.8173 79.2802,-197.275 84.1357,-192.2327"/>
</g>
<!-- Node2 -->
<g id="node3" class="node">
<title>Node2</title>
<g id="a_node3"><a xlink:href="../../d1/d2e/GasTransport_8h.html" target="_top" xlink:title="GasTransport.h">
<polygon fill="#ffffff" stroke="#000000" points="328.5,-280.5 328.5,-299.5 414.5,-299.5 414.5,-280.5 328.5,-280.5"/>
<text text-anchor="middle" x="371.5" y="-287.5" font-family="Helvetica,sans-Serif" font-size="10.00" fill="#000000">GasTransport.h</text>
</a>
</g>
</g>
<!-- Node1&#45;&gt;Node2 -->
<g id="edge2" class="edge">
<title>Node1&#45;&gt;Node2</title>
<path fill="none" stroke="#191970" d="M371.5,-336.2455C371.5,-328.9382 371.5,-318.6944 371.5,-309.7046"/>
<polygon fill="#191970" stroke="#191970" points="375.0001,-309.6426 371.5,-299.6427 368.0001,-309.6427 375.0001,-309.6426"/>
</g>
<!-- Node3 -->
<g id="node4" class="node">
<title>Node3</title>
<g id="a_node4"><a xlink:href="../../da/dbb/TransportBase_8h.html" target="_top" xlink:title="Headers for the Transport object, which is the virtual base class for all transport property evaluato...">
<polygon fill="#ffffff" stroke="#000000" points="451.5,-224.5 451.5,-243.5 541.5,-243.5 541.5,-224.5 451.5,-224.5"/>
<text text-anchor="middle" x="496.5" y="-231.5" font-family="Helvetica,sans-Serif" font-size="10.00" fill="#000000">TransportBase.h</text>
</a>
</g>
</g>
<!-- Node2&#45;&gt;Node3 -->
<g id="edge3" class="edge">
<title>Node2&#45;&gt;Node3</title>
<path fill="none" stroke="#191970" d="M392.9883,-280.3733C413.144,-271.3435 443.488,-257.7494 466.118,-247.6111"/>
<polygon fill="#191970" stroke="#191970" points="467.5971,-250.7838 475.2921,-243.5011 464.7351,-244.3955 467.5971,-250.7838"/>
</g>
<!-- Node33 -->
<g id="node6" class="node">
<title>Node33</title>
<g id="a_node6"><a xlink:href="../../d1/df7/DenseMatrix_8h.html" target="_top" xlink:title="Headers for the DenseMatrix object, which deals with dense rectangular matrices and description of th...">
<polygon fill="#ffffff" stroke="#000000" points="273.5,-224.5 273.5,-243.5 433.5,-243.5 433.5,-224.5 273.5,-224.5"/>
<text text-anchor="middle" x="353.5" y="-231.5" font-family="Helvetica,sans-Serif" font-size="10.00" fill="#000000">cantera/numerics/DenseMatrix.h</text>
</a>
</g>
</g>
<!-- Node2&#45;&gt;Node33 -->
<g id="edge5" class="edge">
<title>Node2&#45;&gt;Node33</title>
<path fill="none" stroke="#191970" d="M368.3646,-280.2455C365.99,-272.8579 362.6507,-262.4689 359.7385,-253.4087"/>
<polygon fill="#191970" stroke="#191970" points="362.9917,-252.0919 356.5994,-243.6427 356.3275,-254.234 362.9917,-252.0919"/>
</g>
<!-- Node4 -->
<g id="node5" class="node">
<title>Node4</title>
<g id="a_node5"><a xlink:href="../../d7/d01/ThermoPhase_8h.html" target="_top" xlink:title="Header file for class ThermoPhase, the base class for phases with thermodynamic properties, and the text for the Module thermoprops (see Thermodynamic Properties and class ThermoPhase). ">
<polygon fill="#ffffff" stroke="#ff0000" points="484.5,-168.5 484.5,-187.5 642.5,-187.5 642.5,-168.5 484.5,-168.5"/>
<text text-anchor="middle" x="563.5" y="-175.5" font-family="Helvetica,sans-Serif" font-size="10.00" fill="#000000">cantera/thermo/ThermoPhase.h</text>
</a>
</g>
</g>
<!-- Node3&#45;&gt;Node4 -->
<g id="edge4" class="edge">
<title>Node3&#45;&gt;Node4</title>
<path fill="none" stroke="#191970" d="M508.1705,-224.2455C518.0661,-215.9746 532.4627,-203.9416 544.0901,-194.2232"/>
<polygon fill="#191970" stroke="#191970" points="546.535,-196.7413 551.9632,-187.6427 542.0458,-191.3703 546.535,-196.7413"/>
</g>
<!-- Node8 -->
<g id="node7" class="node">
<title>Node8</title>
<g id="a_node7"><a xlink:href="../../d9/ddc/ct__defs_8h.html" target="_top" xlink:title="This file contains definitions of terms that are used in internal routines and are unlikely to need m...">
<polygon fill="#ffffff" stroke="#ff0000" points="122,-56.5 122,-75.5 179,-75.5 179,-56.5 122,-56.5"/>
<text text-anchor="middle" x="150.5" y="-63.5" font-family="Helvetica,sans-Serif" font-size="10.00" fill="#000000">ct_defs.h</text>
</a>
</g>
</g>
<!-- Node33&#45;&gt;Node8 -->
<g id="edge6" class="edge">
<title>Node33&#45;&gt;Node8</title>
<path fill="none" stroke="#191970" d="M378.1495,-224.4062C404.588,-212.6391 440.7284,-191.3577 424.5,-168 396.8834,-128.2512 258.3525,-91.1184 189.4872,-74.7632"/>
<polygon fill="#191970" stroke="#191970" points="189.9919,-71.2867 179.4569,-72.4112 188.3937,-78.1018 189.9919,-71.2867"/>
</g>
<!-- Node6 -->
<g id="node9" class="node">
<title>Node6</title>
<g id="a_node9"><a xlink:href="../../db/d98/ctexceptions_8h.html" target="_top" xlink:title="Definitions for the classes that are thrown when Cantera experiences an error condition (also contain...">
<polygon fill="#ffffff" stroke="#ff0000" points="147,-168.5 147,-187.5 288,-187.5 288,-168.5 147,-168.5"/>
<text text-anchor="middle" x="217.5" y="-175.5" font-family="Helvetica,sans-Serif" font-size="10.00" fill="#000000">cantera/base/ctexceptions.h</text>
</a>
</g>
</g>
<!-- Node33&#45;&gt;Node6 -->
<g id="edge8" class="edge">
<title>Node33&#45;&gt;Node6</title>
<path fill="none" stroke="#191970" d="M330.1208,-224.3733C307.9955,-215.2629 274.5866,-201.5062 249.8981,-191.3404"/>
<polygon fill="#191970" stroke="#191970" points="251.1536,-188.0723 240.5742,-187.5011 248.4883,-194.5451 251.1536,-188.0723"/>
</g>
<!-- Node34 -->
<g id="node11" class="node">
<title>Node34</title>
<g id="a_node11"><a xlink:href="../../df/dd0/Array_8h.html" target="_top" xlink:title="Header file for class Cantera::Array2D. ">
<polygon fill="#ffffff" stroke="#ff0000" points="306,-168.5 306,-187.5 415,-187.5 415,-168.5 306,-168.5"/>
<text text-anchor="middle" x="360.5" y="-175.5" font-family="Helvetica,sans-Serif" font-size="10.00" fill="#000000">cantera/base/Array.h</text>
</a>
</g>
</g>
<!-- Node33&#45;&gt;Node34 -->
<g id="edge11" class="edge">
<title>Node33&#45;&gt;Node34</title>
<path fill="none" stroke="#191970" d="M354.7193,-224.2455C355.6327,-216.9382 356.9132,-206.6944 358.0369,-197.7046"/>
<polygon fill="#191970" stroke="#191970" points="361.5272,-197.9996 359.2947,-187.6427 354.5813,-197.1313 361.5272,-197.9996"/>
</g>
<!-- Node14 -->
<g id="node8" class="node">
<title>Node14</title>
<polygon fill="#ffffff" stroke="#bfbfbf" points="72,-.5 72,-19.5 113,-19.5 113,-.5 72,-.5"/>
<text text-anchor="middle" x="92.5" y="-7.5" font-family="Helvetica,sans-Serif" font-size="10.00" fill="#000000">string</text>
</g>
<!-- Node8&#45;&gt;Node14 -->
<g id="edge7" class="edge">
<title>Node8&#45;&gt;Node14</title>
<path fill="none" stroke="#191970" d="M140.3972,-56.2455C131.9972,-48.1352 119.8506,-36.4075 109.8916,-26.7919"/>
<polygon fill="#191970" stroke="#191970" points="112.1122,-24.0707 102.4871,-19.6427 107.25,-29.1066 112.1122,-24.0707"/>
</g>
<!-- Node7 -->
<g id="node10" class="node">
<title>Node7</title>
<g id="a_node10"><a xlink:href="../../db/def/fmt_8h.html" target="_top" xlink:title="Wrapper for either system&#45;installed or local headers for fmt. ">
<polygon fill="#ffffff" stroke="#ff0000" points="131,-112.5 131,-131.5 230,-131.5 230,-112.5 131,-112.5"/>
<text text-anchor="middle" x="180.5" y="-119.5" font-family="Helvetica,sans-Serif" font-size="10.00" fill="#000000">cantera/base/fmt.h</text>
</a>
</g>
</g>
<!-- Node6&#45;&gt;Node7 -->
<g id="edge9" class="edge">
<title>Node6&#45;&gt;Node7</title>
<path fill="none" stroke="#191970" d="M211.0551,-168.2455C205.9618,-160.5367 198.7092,-149.5598 192.548,-140.2348"/>
<polygon fill="#191970" stroke="#191970" points="195.3038,-138.0566 186.8711,-131.6427 189.4635,-141.9155 195.3038,-138.0566"/>
</g>
<!-- Node7&#45;&gt;Node8 -->
<g id="edge10" class="edge">
<title>Node7&#45;&gt;Node8</title>
<path fill="none" stroke="#191970" d="M175.2744,-112.2455C171.1877,-104.617 165.3865,-93.7881 160.425,-84.5267"/>
<polygon fill="#191970" stroke="#191970" points="163.4732,-82.8047 155.6657,-75.6427 157.3028,-86.1103 163.4732,-82.8047"/>
</g>
<!-- Node40&#45;&gt;Node4 -->
<g id="edge13" class="edge">
<title>Node40&#45;&gt;Node4</title>
<path fill="none" stroke="#191970" d="M551.6084,-280.4509C553.7286,-262.184 558.398,-221.9553 561.2137,-197.6976"/>
<polygon fill="#191970" stroke="#191970" points="564.718,-197.8618 562.3944,-187.5249 557.7647,-197.0546 564.718,-197.8618"/>
</g>
<!-- Node41&#45;&gt;Node8 -->
<g id="edge15" class="edge">
<title>Node41&#45;&gt;Node8</title>
<path fill="none" stroke="#191970" d="M71.8323,-168.4509C86.2396,-149.688 118.4383,-107.7548 136.8644,-83.758"/>
<polygon fill="#191970" stroke="#191970" points="139.872,-85.588 143.1862,-75.5249 134.3199,-81.3248 139.872,-85.588"/>
</g>
<!-- Node41&#45;&gt;Node14 -->
<g id="edge17" class="edge">
<title>Node41&#45;&gt;Node14</title>
<path fill="none" stroke="#191970" d="M66.0856,-168.4862C70.5309,-141.8144 83.1814,-65.9117 89.2175,-29.695"/>
<polygon fill="#191970" stroke="#191970" points="92.6703,-30.2672 90.862,-19.8279 85.7656,-29.1164 92.6703,-30.2672"/>
</g>
<!-- Node41&#45;&gt;Node7 -->
<g id="edge16" class="edge">
<title>Node41&#45;&gt;Node7</title>
<path fill="none" stroke="#191970" d="M84.4411,-168.3733C102.9786,-159.4241 130.8028,-145.9917 151.7413,-135.8835"/>
<polygon fill="#191970" stroke="#191970" points="153.3352,-139.0006 160.8191,-131.5011 150.2919,-132.6967 153.3352,-139.0006"/>
</g>
</g>
</svg>
