<?xml version="1.0" encoding="UTF-8" standalone="no"?>
<!DOCTYPE svg PUBLIC "-//W3C//DTD SVG 1.1//EN"
 "http://www.w3.org/Graphics/SVG/1.1/DTD/svg11.dtd">
<!-- Generated by graphviz version 2.40.1 (20161225.0304)
 -->
<!-- Title: AqueousKinetics.h Pages: 1 -->
<svg width="793pt" height="308pt"
 viewBox="0.00 0.00 793.40 308.00" xmlns="http://www.w3.org/2000/svg" xmlns:xlink="http://www.w3.org/1999/xlink">
<g id="graph0" class="graph" transform="scale(1 1) rotate(0) translate(4 304)">
<title>AqueousKinetics.h</title>
<polygon fill="#ffffff" stroke="transparent" points="-4,4 -4,-304 789.3985,-304 789.3985,4 -4,4"/>
<!-- Node0 -->
<g id="node1" class="node">
<title>Node0</title>
<polygon fill="#bfbfbf" stroke="#000000" points="450.3985,-280.5 450.3985,-299.5 549.3985,-299.5 549.3985,-280.5 450.3985,-280.5"/>
<text text-anchor="middle" x="499.8985" y="-287.5" font-family="Helvetica,sans-Serif" font-size="10.00" fill="#000000">AqueousKinetics.h</text>
</g>
<!-- Node1 -->
<g id="node2" class="node">
<title>Node1</title>
<g id="a_node2"><a xlink:href="../../d2/d78/BulkKinetics_8h.html" target="_top" xlink:title="BulkKinetics.h">
<polygon fill="#ffffff" stroke="#000000" points="460.3985,-224.5 460.3985,-243.5 539.3985,-243.5 539.3985,-224.5 460.3985,-224.5"/>
<text text-anchor="middle" x="499.8985" y="-231.5" font-family="Helvetica,sans-Serif" font-size="10.00" fill="#000000">BulkKinetics.h</text>
</a>
</g>
</g>
<!-- Node0&#45;&gt;Node1 -->
<g id="edge1" class="edge">
<title>Node0&#45;&gt;Node1</title>
<path fill="none" stroke="#191970" d="M499.8985,-280.2455C499.8985,-272.9382 499.8985,-262.6944 499.8985,-253.7046"/>
<polygon fill="#191970" stroke="#191970" points="503.3986,-253.6426 499.8985,-243.6427 496.3986,-253.6427 503.3986,-253.6426"/>
</g>
<!-- Node2 -->
<g id="node3" class="node">
<title>Node2</title>
<g id="a_node3"><a xlink:href="../../d5/db4/Kinetics_8h.html" target="_top" xlink:title="Base class for kinetics managers and also contains the kineticsmgr module documentation (see Kinetics...">
<polygon fill="#ffffff" stroke="#000000" points="423.8985,-168.5 423.8985,-187.5 483.8985,-187.5 483.8985,-168.5 423.8985,-168.5"/>
<text text-anchor="middle" x="453.8985" y="-175.5" font-family="Helvetica,sans-Serif" font-size="10.00" fill="#000000">Kinetics.h</text>
</a>
</g>
</g>
<!-- Node1&#45;&gt;Node2 -->
<g id="edge2" class="edge">
<title>Node1&#45;&gt;Node2</title>
<path fill="none" stroke="#191970" d="M491.8859,-224.2455C485.4218,-216.3761 476.1601,-205.101 468.4002,-195.6542"/>
<polygon fill="#191970" stroke="#191970" points="470.8713,-193.1484 461.8193,-187.6427 465.4622,-197.5916 470.8713,-193.1484"/>
</g>
<!-- Node42 -->
<g id="node15" class="node">
<title>Node42</title>
<g id="a_node15"><a xlink:href="../../d4/d81/RateCoeffMgr_8h.html" target="_top" xlink:title="RateCoeffMgr.h">
<polygon fill="#ffffff" stroke="#000000" points="523.3985,-168.5 523.3985,-187.5 610.3985,-187.5 610.3985,-168.5 523.3985,-168.5"/>
<text text-anchor="middle" x="566.8985" y="-175.5" font-family="Helvetica,sans-Serif" font-size="10.00" fill="#000000">RateCoeffMgr.h</text>
</a>
</g>
</g>
<!-- Node1&#45;&gt;Node42 -->
<g id="edge19" class="edge">
<title>Node1&#45;&gt;Node42</title>
<path fill="none" stroke="#191970" d="M511.569,-224.2455C521.4646,-215.9746 535.8612,-203.9416 547.4886,-194.2232"/>
<polygon fill="#191970" stroke="#191970" points="549.9335,-196.7413 555.3618,-187.6427 545.4443,-191.3703 549.9335,-196.7413"/>
</g>
<!-- Node3 -->
<g id="node4" class="node">
<title>Node3</title>
<g id="a_node4"><a xlink:href="../../d7/d01/ThermoPhase_8h.html" target="_top" xlink:title="Header file for class ThermoPhase, the base class for phases with thermodynamic properties, and the text for the Module thermoprops (see Thermodynamic Properties and class ThermoPhase). ">
<polygon fill="#ffffff" stroke="#000000" points="105.8985,-112.5 105.8985,-131.5 263.8985,-131.5 263.8985,-112.5 105.8985,-112.5"/>
<text text-anchor="middle" x="184.8985" y="-119.5" font-family="Helvetica,sans-Serif" font-size="10.00" fill="#000000">cantera/thermo/ThermoPhase.h</text>
</a>
</g>
</g>
<!-- Node2&#45;&gt;Node3 -->
<g id="edge3" class="edge">
<title>Node2&#45;&gt;Node3</title>
<path fill="none" stroke="#191970" d="M423.8238,-171.7391C379.6833,-162.55 296.579,-145.2495 240.9685,-133.6726"/>
<polygon fill="#191970" stroke="#191970" points="241.4238,-130.1924 230.9203,-131.5807 239.9971,-137.0455 241.4238,-130.1924"/>
</g>
<!-- Node22 -->
<g id="node8" class="node">
<title>Node22</title>
<g id="a_node8"><a xlink:href="../../d2/d49/global_8h.html" target="_top" xlink:title="This file contains definitions for utility functions and text for modules, inputfiles, logs, textlogs, (see Input File Handling, Diagnostic Output, and Writing messages to the screen). ">
<polygon fill="#ffffff" stroke="#ff0000" points="101.8985,-.5 101.8985,-19.5 213.8985,-19.5 213.8985,-.5 101.8985,-.5"/>
<text text-anchor="middle" x="157.8985" y="-7.5" font-family="Helvetica,sans-Serif" font-size="10.00" fill="#000000">cantera/base/global.h</text>
</a>
</g>
</g>
<!-- Node2&#45;&gt;Node22 -->
<g id="edge18" class="edge">
<title>Node2&#45;&gt;Node22</title>
<path fill="none" stroke="#191970" d="M423.6883,-175.7327C348.9684,-169.866 157.1921,-153.1564 96.8985,-132 51.7303,-116.1509 28.3503,-117.7297 4.8985,-76 -16.6264,-37.6988 41.2383,-21.6136 91.8709,-14.865"/>
<polygon fill="#191970" stroke="#191970" points="92.3767,-18.3293 101.8753,-13.6359 91.5231,-11.3815 92.3767,-18.3293"/>
</g>
<!-- Node32 -->
<g id="node9" class="node">
<title>Node32</title>
<g id="a_node9"><a xlink:href="../../dd/dfd/StoichManager_8h.html" target="_top" xlink:title="StoichManager.h">
<polygon fill="#ffffff" stroke="#000000" points="533.8985,-56.5 533.8985,-75.5 625.8985,-75.5 625.8985,-56.5 533.8985,-56.5"/>
<text text-anchor="middle" x="579.8985" y="-63.5" font-family="Helvetica,sans-Serif" font-size="10.00" fill="#000000">StoichManager.h</text>
</a>
</g>
</g>
<!-- Node2&#45;&gt;Node32 -->
<g id="edge8" class="edge">
<title>Node2&#45;&gt;Node32</title>
<path fill="none" stroke="#191970" d="M475.3156,-168.3679C491.9279,-160.2246 514.9087,-147.4331 531.8985,-132 547.0659,-118.2224 560.4155,-98.9474 569.1605,-84.7836"/>
<polygon fill="#191970" stroke="#191970" points="572.3277,-86.3061 574.4447,-75.9249 566.316,-82.7201 572.3277,-86.3061"/>
</g>
<!-- Node34 -->
<g id="node11" class="node">
<title>Node34</title>
<g id="a_node11"><a xlink:href="../../d8/d5d/Reaction_8h.html" target="_top" xlink:title="cantera/kinetics/Reaction.h">
<polygon fill="#ffffff" stroke="#000000" points="385.3985,-112.5 385.3985,-131.5 522.3985,-131.5 522.3985,-112.5 385.3985,-112.5"/>
<text text-anchor="middle" x="453.8985" y="-119.5" font-family="Helvetica,sans-Serif" font-size="10.00" fill="#000000">cantera/kinetics/Reaction.h</text>
</a>
</g>
</g>
<!-- Node2&#45;&gt;Node34 -->
<g id="edge11" class="edge">
<title>Node2&#45;&gt;Node34</title>
<path fill="none" stroke="#191970" d="M453.8985,-168.2455C453.8985,-160.9382 453.8985,-150.6944 453.8985,-141.7046"/>
<polygon fill="#191970" stroke="#191970" points="457.3986,-141.6426 453.8985,-131.6427 450.3986,-141.6427 457.3986,-141.6426"/>
</g>
<!-- Node4 -->
<g id="node5" class="node">
<title>Node4</title>
<g id="a_node5"><a xlink:href="../../da/d84/Phase_8h.html" target="_top" xlink:title="Header file for class Phase. ">
<polygon fill="#ffffff" stroke="#ff0000" points="186.3985,-56.5 186.3985,-75.5 239.3985,-75.5 239.3985,-56.5 186.3985,-56.5"/>
<text text-anchor="middle" x="212.8985" y="-63.5" font-family="Helvetica,sans-Serif" font-size="10.00" fill="#000000">Phase.h</text>
</a>
</g>
</g>
<!-- Node3&#45;&gt;Node4 -->
<g id="edge4" class="edge">
<title>Node3&#45;&gt;Node4</title>
<path fill="none" stroke="#191970" d="M189.7758,-112.2455C193.5499,-104.6973 198.8906,-94.0158 203.4887,-84.8197"/>
<polygon fill="#191970" stroke="#191970" points="206.7355,-86.1522 208.0772,-75.6427 200.4745,-83.0217 206.7355,-86.1522"/>
</g>
<!-- Node29 -->
<g id="node7" class="node">
<title>Node29</title>
<g id="a_node7"><a xlink:href="../../d6/d7a/MultiSpeciesThermo_8h.html" target="_top" xlink:title="Header for a general species thermodynamic property manager for a phase (see MultiSpeciesThermo). ">
<polygon fill="#ffffff" stroke="#ff0000" points="13.8985,-56.5 13.8985,-75.5 129.8985,-75.5 129.8985,-56.5 13.8985,-56.5"/>
<text text-anchor="middle" x="71.8985" y="-63.5" font-family="Helvetica,sans-Serif" font-size="10.00" fill="#000000">MultiSpeciesThermo.h</text>
</a>
</g>
</g>
<!-- Node3&#45;&gt;Node29 -->
<g id="edge6" class="edge">
<title>Node3&#45;&gt;Node29</title>
<path fill="none" stroke="#191970" d="M165.4731,-112.3733C147.4964,-103.4644 120.5544,-90.1127 100.1895,-80.0203"/>
<polygon fill="#191970" stroke="#191970" points="101.5847,-76.8055 91.0704,-75.5011 98.4764,-83.0776 101.5847,-76.8055"/>
</g>
<!-- Node3&#45;&gt;Node22 -->
<g id="edge7" class="edge">
<title>Node3&#45;&gt;Node22</title>
<path fill="none" stroke="#191970" d="M182.5965,-112.4509C178.1729,-94.1013 168.407,-53.5908 162.5679,-29.3693"/>
<polygon fill="#191970" stroke="#191970" points="165.9409,-28.4261 160.1947,-19.5249 159.1358,-30.0667 165.9409,-28.4261"/>
</g>
<!-- Node5 -->
<g id="node6" class="node">
<title>Node5</title>
<g id="a_node6"><a xlink:href="../../db/d98/ctexceptions_8h.html" target="_top" xlink:title="Definitions for the classes that are thrown when Cantera experiences an error condition (also contain...">
<polygon fill="#ffffff" stroke="#ff0000" points="491.3985,-.5 491.3985,-19.5 632.3985,-19.5 632.3985,-.5 491.3985,-.5"/>
<text text-anchor="middle" x="561.8985" y="-7.5" font-family="Helvetica,sans-Serif" font-size="10.00" fill="#000000">cantera/base/ctexceptions.h</text>
</a>
</g>
</g>
<!-- Node4&#45;&gt;Node5 -->
<g id="edge5" class="edge">
<title>Node4&#45;&gt;Node5</title>
<path fill="none" stroke="#191970" d="M239.5434,-58.1988C242.6828,-57.3985 245.8523,-56.6443 248.8985,-56 327.1935,-39.4402 417.758,-26.8294 481.2622,-19.0367"/>
<polygon fill="#191970" stroke="#191970" points="481.711,-22.508 491.2159,-17.8276 480.8668,-15.5591 481.711,-22.508"/>
</g>
<!-- Node32&#45;&gt;Node5 -->
<g id="edge10" class="edge">
<title>Node32&#45;&gt;Node5</title>
<path fill="none" stroke="#191970" d="M576.7632,-56.2455C574.3886,-48.8579 571.0492,-38.4689 568.137,-29.4087"/>
<polygon fill="#191970" stroke="#191970" points="571.3902,-28.0919 564.998,-19.6427 564.726,-30.234 571.3902,-28.0919"/>
</g>
<!-- Node33 -->
<g id="node10" class="node">
<title>Node33</title>
<g id="a_node10"><a xlink:href="../../dd/dc3/stringUtils_8h.html" target="_top" xlink:title="Contains declarations for string manipulation functions within Cantera. ">
<polygon fill="#ffffff" stroke="#ff0000" points="650.3985,-.5 650.3985,-19.5 779.3985,-19.5 779.3985,-.5 650.3985,-.5"/>
<text text-anchor="middle" x="714.8985" y="-7.5" font-family="Helvetica,sans-Serif" font-size="10.00" fill="#000000">cantera/base/stringUtils.h</text>
</a>
</g>
</g>
<!-- Node32&#45;&gt;Node33 -->
<g id="edge9" class="edge">
<title>Node32&#45;&gt;Node33</title>
<path fill="none" stroke="#191970" d="M603.1059,-56.3733C625.0684,-47.2629 658.2317,-33.5062 682.7387,-23.3404"/>
<polygon fill="#191970" stroke="#191970" points="684.0983,-26.5657 691.994,-19.5011 681.4161,-20.0999 684.0983,-26.5657"/>
</g>
<!-- Node35 -->
<g id="node12" class="node">
<title>Node35</title>
<g id="a_node12"><a xlink:href="../../de/df0/utilities_8h.html" target="_top" xlink:title="Various templated functions that carry out common vector operations (see Templated Utility Functions)...">
<polygon fill="#ffffff" stroke="#ff0000" points="257.8985,-56.5 257.8985,-75.5 373.8985,-75.5 373.8985,-56.5 257.8985,-56.5"/>
<text text-anchor="middle" x="315.8985" y="-63.5" font-family="Helvetica,sans-Serif" font-size="10.00" fill="#000000">cantera/base/utilities.h</text>
</a>
</g>
</g>
<!-- Node34&#45;&gt;Node35 -->
<g id="edge12" class="edge">
<title>Node34&#45;&gt;Node35</title>
<path fill="none" stroke="#191970" d="M430.1755,-112.3733C407.7249,-103.2629 373.8246,-89.5062 348.7731,-79.3404"/>
<polygon fill="#191970" stroke="#191970" points="349.8942,-76.0182 339.312,-75.5011 347.2621,-82.5045 349.8942,-76.0182"/>
</g>
<!-- Node38 -->
<g id="node13" class="node">
<title>Node38</title>
<g id="a_node13"><a xlink:href="../../da/d70/RxnRates_8h.html" target="_top" xlink:title="cantera/kinetics/RxnRates.h">
<polygon fill="#ffffff" stroke="#ff0000" points="644.3985,-56.5 644.3985,-75.5 785.3985,-75.5 785.3985,-56.5 644.3985,-56.5"/>
<text text-anchor="middle" x="714.8985" y="-63.5" font-family="Helvetica,sans-Serif" font-size="10.00" fill="#000000">cantera/kinetics/RxnRates.h</text>
</a>
</g>
</g>
<!-- Node34&#45;&gt;Node38 -->
<g id="edge14" class="edge">
<title>Node34&#45;&gt;Node38</title>
<path fill="none" stroke="#191970" d="M498.4695,-112.4369C543.3253,-102.8127 612.5634,-87.957 660.5993,-77.6504"/>
<polygon fill="#191970" stroke="#191970" points="661.4682,-81.0437 670.5114,-75.5237 659.9997,-74.1995 661.4682,-81.0437"/>
</g>
<!-- Node41 -->
<g id="node14" class="node">
<title>Node41</title>
<g id="a_node14"><a xlink:href="../../de/d72/Falloff_8h_source.html" target="_top" xlink:title="cantera/kinetics/Falloff.h">
<polygon fill="#ffffff" stroke="#ff0000" points="391.8985,-56.5 391.8985,-75.5 515.8985,-75.5 515.8985,-56.5 391.8985,-56.5"/>
<text text-anchor="middle" x="453.8985" y="-63.5" font-family="Helvetica,sans-Serif" font-size="10.00" fill="#000000">cantera/kinetics/Falloff.h</text>
</a>
</g>
</g>
<!-- Node34&#45;&gt;Node41 -->
<g id="edge17" class="edge">
<title>Node34&#45;&gt;Node41</title>
<path fill="none" stroke="#191970" d="M453.8985,-112.2455C453.8985,-104.9382 453.8985,-94.6944 453.8985,-85.7046"/>
<polygon fill="#191970" stroke="#191970" points="457.3986,-85.6426 453.8985,-75.6427 450.3986,-85.6427 457.3986,-85.6426"/>
</g>
<!-- Node35&#45;&gt;Node22 -->
<g id="edge13" class="edge">
<title>Node35&#45;&gt;Node22</title>
<path fill="none" stroke="#191970" d="M288.7374,-56.3733C262.6918,-47.1419 223.1869,-33.1402 194.4007,-22.9375"/>
<polygon fill="#191970" stroke="#191970" points="195.3,-19.5429 184.7053,-19.5011 192.9615,-26.1408 195.3,-19.5429"/>
</g>
<!-- Node38&#45;&gt;Node5 -->
<g id="edge15" class="edge">
<title>Node38&#45;&gt;Node5</title>
<path fill="none" stroke="#191970" d="M688.5969,-56.3733C663.4857,-47.1822 625.4547,-33.2624 597.6113,-23.0713"/>
<polygon fill="#191970" stroke="#191970" points="598.4507,-19.6516 587.857,-19.5011 596.0447,-26.2251 598.4507,-19.6516"/>
</g>
<!-- Node38&#45;&gt;Node33 -->
<g id="edge16" class="edge">
<title>Node38&#45;&gt;Node33</title>
<path fill="none" stroke="#191970" d="M714.8985,-56.2455C714.8985,-48.9382 714.8985,-38.6944 714.8985,-29.7046"/>
<polygon fill="#191970" stroke="#191970" points="718.3986,-29.6426 714.8985,-19.6427 711.3986,-29.6427 718.3986,-29.6426"/>
</g>
<!-- Node42&#45;&gt;Node38 -->
<g id="edge20" class="edge">
<title>Node42&#45;&gt;Node38</title>
<path fill="none" stroke="#191970" d="M579.5169,-168.4509C605.0754,-149.1094 663.1692,-105.1465 694.297,-81.5904"/>
<polygon fill="#191970" stroke="#191970" points="696.45,-84.3503 702.3121,-75.5249 692.2259,-78.7684 696.45,-84.3503"/>
</g>
</g>
</svg>
