<?xml version="1.0" encoding="UTF-8" standalone="no"?>
<!DOCTYPE svg PUBLIC "-//W3C//DTD SVG 1.1//EN"
 "http://www.w3.org/Graphics/SVG/1.1/DTD/svg11.dtd">
<!-- Generated by graphviz version 2.40.1 (20161225.0304)
 -->
<!-- Title: vcs_report.cpp Pages: 1 -->
<svg width="608pt" height="431pt"
 viewBox="0.00 0.00 607.50 431.00" xmlns="http://www.w3.org/2000/svg" xmlns:xlink="http://www.w3.org/1999/xlink">
<g id="graph0" class="graph" transform="scale(1 1) rotate(0) translate(4 427)">
<title>vcs_report.cpp</title>
<polygon fill="#ffffff" stroke="transparent" points="-4,4 -4,-427 603.5,-427 603.5,4 -4,4"/>
<!-- Node0 -->
<g id="node1" class="node">
<title>Node0</title>
<polygon fill="#bfbfbf" stroke="#000000" points="325,-403.5 325,-422.5 407,-422.5 407,-403.5 325,-403.5"/>
<text text-anchor="middle" x="366" y="-410.5" font-family="Helvetica,sans-Serif" font-size="10.00" fill="#000000">vcs_report.cpp</text>
</g>
<!-- Node1 -->
<g id="node2" class="node">
<title>Node1</title>
<g id="a_node2"><a xlink:href="../../d4/d51/vcs__solve_8h.html" target="_top" xlink:title="Header file for the internal object that holds the vcs equilibrium problem (see Class VCS_SOLVE and E...">
<polygon fill="#ffffff" stroke="#000000" points="144.5,-347.5 144.5,-366.5 273.5,-366.5 273.5,-347.5 144.5,-347.5"/>
<text text-anchor="middle" x="209" y="-354.5" font-family="Helvetica,sans-Serif" font-size="10.00" fill="#000000">cantera/equil/vcs_solve.h</text>
</a>
</g>
</g>
<!-- Node0&#45;&gt;Node1 -->
<g id="edge1" class="edge">
<title>Node0&#45;&gt;Node1</title>
<path fill="none" stroke="#191970" d="M339.0107,-403.3733C313.1301,-394.1419 273.8752,-380.1402 245.2711,-369.9375"/>
<polygon fill="#191970" stroke="#191970" points="246.2317,-366.5642 235.6371,-366.5011 243.88,-373.1573 246.2317,-366.5642"/>
</g>
<!-- Node23 -->
<g id="node22" class="node">
<title>Node23</title>
<g id="a_node22"><a xlink:href="../../d7/dfb/vcs__VolPhase_8h.html" target="_top" xlink:title="Header for the object representing each phase within vcs. ">
<polygon fill="#ffffff" stroke="#000000" points="292,-347.5 292,-366.5 440,-366.5 440,-347.5 292,-347.5"/>
<text text-anchor="middle" x="366" y="-354.5" font-family="Helvetica,sans-Serif" font-size="10.00" fill="#000000">cantera/equil/vcs_VolPhase.h</text>
</a>
</g>
</g>
<!-- Node0&#45;&gt;Node23 -->
<g id="edge25" class="edge">
<title>Node0&#45;&gt;Node23</title>
<path fill="none" stroke="#191970" d="M366,-403.2455C366,-395.9382 366,-385.6944 366,-376.7046"/>
<polygon fill="#191970" stroke="#191970" points="369.5001,-376.6426 366,-366.6427 362.5001,-376.6427 369.5001,-376.6426"/>
</g>
<!-- Node25 -->
<g id="node24" class="node">
<title>Node25</title>
<g id="a_node24"><a xlink:href="../../db/d98/ctexceptions_8h.html" target="_top" xlink:title="Definitions for the classes that are thrown when Cantera experiences an error condition (also contain...">
<polygon fill="#ffffff" stroke="#000000" points="458.5,-347.5 458.5,-366.5 599.5,-366.5 599.5,-347.5 458.5,-347.5"/>
<text text-anchor="middle" x="529" y="-354.5" font-family="Helvetica,sans-Serif" font-size="10.00" fill="#000000">cantera/base/ctexceptions.h</text>
</a>
</g>
</g>
<!-- Node0&#45;&gt;Node25 -->
<g id="edge29" class="edge">
<title>Node0&#45;&gt;Node25</title>
<path fill="none" stroke="#191970" d="M394.0207,-403.3733C421.0078,-394.1016 462.0017,-380.0178 491.7311,-369.804"/>
<polygon fill="#191970" stroke="#191970" points="493.0248,-373.0605 501.3449,-366.5011 490.7503,-366.4403 493.0248,-373.0605"/>
</g>
<!-- Node2 -->
<g id="node3" class="node">
<title>Node2</title>
<g id="a_node3"><a xlink:href="../../d9/ddc/ct__defs_8h.html" target="_top" xlink:title="This file contains definitions of terms that are used in internal routines and are unlikely to need m...">
<polygon fill="#ffffff" stroke="#000000" points="188,-56.5 188,-75.5 306,-75.5 306,-56.5 188,-56.5"/>
<text text-anchor="middle" x="247" y="-63.5" font-family="Helvetica,sans-Serif" font-size="10.00" fill="#000000">cantera/base/ct_defs.h</text>
</a>
</g>
</g>
<!-- Node1&#45;&gt;Node2 -->
<g id="edge2" class="edge">
<title>Node1&#45;&gt;Node2</title>
<path fill="none" stroke="#191970" d="M162.9042,-347.4667C125.6083,-338.8755 77.0563,-325.411 63,-311 41.6865,-289.1485 44,-275.5246 44,-245 44,-245 44,-245 44,-189 44,-124.3361 120.2752,-92.7311 179.3158,-77.9531"/>
<polygon fill="#191970" stroke="#191970" points="180.4566,-81.2793 189.3713,-75.5542 178.8321,-74.4704 180.4566,-81.2793"/>
</g>
<!-- Node11 -->
<g id="node12" class="node">
<title>Node11</title>
<g id="a_node12"><a xlink:href="../../da/d80/vcs__defs_8h.html" target="_top" xlink:title="Defines and definitions within the vcs package. ">
<polygon fill="#ffffff" stroke="#000000" points="72,-291.5 72,-310.5 196,-310.5 196,-291.5 72,-291.5"/>
<text text-anchor="middle" x="134" y="-298.5" font-family="Helvetica,sans-Serif" font-size="10.00" fill="#000000">cantera/equil/vcs_defs.h</text>
</a>
</g>
</g>
<!-- Node1&#45;&gt;Node11 -->
<g id="edge11" class="edge">
<title>Node1&#45;&gt;Node11</title>
<path fill="none" stroke="#191970" d="M195.936,-347.2455C184.6438,-338.814 168.1155,-326.4729 154.9729,-316.6598"/>
<polygon fill="#191970" stroke="#191970" points="157.0211,-313.8211 146.9143,-310.6427 152.8331,-319.4301 157.0211,-313.8211"/>
</g>
<!-- Node12 -->
<g id="node13" class="node">
<title>Node12</title>
<g id="a_node13"><a xlink:href="../../df/da3/vcs__internal_8h.html" target="_top" xlink:title="Internal declarations for the VCSnonideal package. ">
<polygon fill="#ffffff" stroke="#000000" points="296,-235.5 296,-254.5 434,-254.5 434,-235.5 296,-235.5"/>
<text text-anchor="middle" x="365" y="-242.5" font-family="Helvetica,sans-Serif" font-size="10.00" fill="#000000">cantera/equil/vcs_internal.h</text>
</a>
</g>
</g>
<!-- Node1&#45;&gt;Node12 -->
<g id="edge12" class="edge">
<title>Node1&#45;&gt;Node12</title>
<path fill="none" stroke="#191970" d="M258.7321,-347.4218C283.1255,-340.6402 311.5744,-329.3719 332,-311 345.796,-298.5911 354.5447,-279.0957 359.5411,-264.5053"/>
<polygon fill="#191970" stroke="#191970" points="362.8946,-265.5083 362.5347,-254.9196 356.2128,-263.4216 362.8946,-265.5083"/>
</g>
<!-- Node17 -->
<g id="node16" class="node">
<title>Node17</title>
<g id="a_node16"><a xlink:href="../../df/dd0/Array_8h.html" target="_top" xlink:title="Header file for class Cantera::Array2D. ">
<polygon fill="#ffffff" stroke="#000000" points="214.5,-291.5 214.5,-310.5 323.5,-310.5 323.5,-291.5 214.5,-291.5"/>
<text text-anchor="middle" x="269" y="-298.5" font-family="Helvetica,sans-Serif" font-size="10.00" fill="#000000">cantera/base/Array.h</text>
</a>
</g>
</g>
<!-- Node1&#45;&gt;Node17 -->
<g id="edge17" class="edge">
<title>Node1&#45;&gt;Node17</title>
<path fill="none" stroke="#191970" d="M219.4512,-347.2455C228.2269,-339.0549 240.9554,-327.1749 251.314,-317.5069"/>
<polygon fill="#191970" stroke="#191970" points="253.7461,-320.0246 258.6686,-310.6427 248.9699,-314.9072 253.7461,-320.0246"/>
</g>
<!-- Node3 -->
<g id="node4" class="node">
<title>Node3</title>
<g id="a_node4"><a xlink:href="../../db/d16/config_8h_source.html" target="_top" xlink:title="config.h">
<polygon fill="#ffffff" stroke="#000000" points="0,-.5 0,-19.5 52,-19.5 52,-.5 0,-.5"/>
<text text-anchor="middle" x="26" y="-7.5" font-family="Helvetica,sans-Serif" font-size="10.00" fill="#000000">config.h</text>
</a>
</g>
</g>
<!-- Node2&#45;&gt;Node3 -->
<g id="edge3" class="edge">
<title>Node2&#45;&gt;Node3</title>
<path fill="none" stroke="#191970" d="M206.6193,-56.455C171.0092,-47.9391 117.4759,-34.8987 62.2983,-20.2852"/>
<polygon fill="#191970" stroke="#191970" points="62.9091,-16.826 52.3453,-17.6366 61.1089,-23.5906 62.9091,-16.826"/>
</g>
<!-- Node4 -->
<g id="node5" class="node">
<title>Node4</title>
<polygon fill="#ffffff" stroke="#bfbfbf" points="70,-.5 70,-19.5 114,-19.5 114,-.5 70,-.5"/>
<text text-anchor="middle" x="92" y="-7.5" font-family="Helvetica,sans-Serif" font-size="10.00" fill="#000000">cmath</text>
</g>
<!-- Node2&#45;&gt;Node4 -->
<g id="edge4" class="edge">
<title>Node2&#45;&gt;Node4</title>
<path fill="none" stroke="#191970" d="M220.3546,-56.3733C193.5647,-46.6944 152.2597,-31.7712 123.7783,-21.4812"/>
<polygon fill="#191970" stroke="#191970" points="124.8781,-18.1572 114.2838,-18.0509 122.4995,-24.7407 124.8781,-18.1572"/>
</g>
<!-- Node5 -->
<g id="node6" class="node">
<title>Node5</title>
<polygon fill="#ffffff" stroke="#bfbfbf" points="132.5,-.5 132.5,-19.5 177.5,-19.5 177.5,-.5 132.5,-.5"/>
<text text-anchor="middle" x="155" y="-7.5" font-family="Helvetica,sans-Serif" font-size="10.00" fill="#000000">cstdlib</text>
</g>
<!-- Node2&#45;&gt;Node5 -->
<g id="edge5" class="edge">
<title>Node2&#45;&gt;Node5</title>
<path fill="none" stroke="#191970" d="M230.9748,-56.2455C216.8592,-47.6534 196.0737,-35.0014 179.8101,-25.1018"/>
<polygon fill="#191970" stroke="#191970" points="181.2034,-21.8525 170.8415,-19.6427 177.5637,-27.8319 181.2034,-21.8525"/>
</g>
<!-- Node6 -->
<g id="node7" class="node">
<title>Node6</title>
<polygon fill="#ffffff" stroke="#bfbfbf" points="196,-.5 196,-19.5 240,-19.5 240,-.5 196,-.5"/>
<text text-anchor="middle" x="218" y="-7.5" font-family="Helvetica,sans-Serif" font-size="10.00" fill="#000000">vector</text>
</g>
<!-- Node2&#45;&gt;Node6 -->
<g id="edge6" class="edge">
<title>Node2&#45;&gt;Node6</title>
<path fill="none" stroke="#191970" d="M241.9486,-56.2455C237.9981,-48.617 232.3903,-37.7881 227.5942,-28.5267"/>
<polygon fill="#191970" stroke="#191970" points="230.7001,-26.9131 222.9935,-19.6427 224.4841,-30.1321 230.7001,-26.9131"/>
</g>
<!-- Node7 -->
<g id="node8" class="node">
<title>Node7</title>
<polygon fill="#ffffff" stroke="#bfbfbf" points="258,-.5 258,-19.5 294,-19.5 294,-.5 258,-.5"/>
<text text-anchor="middle" x="276" y="-7.5" font-family="Helvetica,sans-Serif" font-size="10.00" fill="#000000">map</text>
</g>
<!-- Node2&#45;&gt;Node7 -->
<g id="edge7" class="edge">
<title>Node2&#45;&gt;Node7</title>
<path fill="none" stroke="#191970" d="M252.0514,-56.2455C256.0019,-48.617 261.6097,-37.7881 266.4058,-28.5267"/>
<polygon fill="#191970" stroke="#191970" points="269.5159,-30.1321 271.0065,-19.6427 263.2999,-26.9131 269.5159,-30.1321"/>
</g>
<!-- Node8 -->
<g id="node9" class="node">
<title>Node8</title>
<polygon fill="#ffffff" stroke="#bfbfbf" points="312.5,-.5 312.5,-19.5 353.5,-19.5 353.5,-.5 312.5,-.5"/>
<text text-anchor="middle" x="333" y="-7.5" font-family="Helvetica,sans-Serif" font-size="10.00" fill="#000000">string</text>
</g>
<!-- Node2&#45;&gt;Node8 -->
<g id="edge8" class="edge">
<title>Node2&#45;&gt;Node8</title>
<path fill="none" stroke="#191970" d="M261.9801,-56.2455C275.1751,-47.6534 294.6051,-35.0014 309.8079,-25.1018"/>
<polygon fill="#191970" stroke="#191970" points="311.7215,-28.0325 318.1916,-19.6427 307.9017,-22.1665 311.7215,-28.0325"/>
</g>
<!-- Node9 -->
<g id="node10" class="node">
<title>Node9</title>
<polygon fill="#ffffff" stroke="#bfbfbf" points="372,-.5 372,-19.5 430,-19.5 430,-.5 372,-.5"/>
<text text-anchor="middle" x="401" y="-7.5" font-family="Helvetica,sans-Serif" font-size="10.00" fill="#000000">algorithm</text>
</g>
<!-- Node2&#45;&gt;Node9 -->
<g id="edge9" class="edge">
<title>Node2&#45;&gt;Node9</title>
<path fill="none" stroke="#191970" d="M273.4735,-56.3733C298.8597,-47.1419 337.3645,-33.1402 365.422,-22.9375"/>
<polygon fill="#191970" stroke="#191970" points="366.6701,-26.2079 374.8719,-19.5011 364.2778,-19.6293 366.6701,-26.2079"/>
</g>
<!-- Node10 -->
<g id="node11" class="node">
<title>Node10</title>
<polygon fill="#ffffff" stroke="#bfbfbf" points="448.5,-.5 448.5,-19.5 501.5,-19.5 501.5,-.5 448.5,-.5"/>
<text text-anchor="middle" x="475" y="-7.5" font-family="Helvetica,sans-Serif" font-size="10.00" fill="#000000">memory</text>
</g>
<!-- Node2&#45;&gt;Node10 -->
<g id="edge10" class="edge">
<title>Node2&#45;&gt;Node10</title>
<path fill="none" stroke="#191970" d="M288.6798,-56.4677C325.5124,-47.9426 380.9238,-34.8716 438.3151,-20.1114"/>
<polygon fill="#191970" stroke="#191970" points="439.4859,-23.4239 448.2923,-17.5334 437.7346,-16.6466 439.4859,-23.4239"/>
</g>
<!-- Node13 -->
<g id="node14" class="node">
<title>Node13</title>
<g id="a_node14"><a xlink:href="../../d2/d49/global_8h.html" target="_top" xlink:title="This file contains definitions for utility functions and text for modules, inputfiles, logs, textlogs, (see Input File Handling, Diagnostic Output, and Writing messages to the screen). ">
<polygon fill="#ffffff" stroke="#000000" points="268,-179.5 268,-198.5 380,-198.5 380,-179.5 268,-179.5"/>
<text text-anchor="middle" x="324" y="-186.5" font-family="Helvetica,sans-Serif" font-size="10.00" fill="#000000">cantera/base/global.h</text>
</a>
</g>
</g>
<!-- Node12&#45;&gt;Node13 -->
<g id="edge13" class="edge">
<title>Node12&#45;&gt;Node13</title>
<path fill="none" stroke="#191970" d="M357.8583,-235.2455C352.1556,-227.4564 344.01,-216.3308 337.1375,-206.9439"/>
<polygon fill="#191970" stroke="#191970" points="339.7913,-204.6437 331.0598,-198.6427 334.1432,-208.7789 339.7913,-204.6437"/>
</g>
<!-- Node13&#45;&gt;Node2 -->
<g id="edge14" class="edge">
<title>Node13&#45;&gt;Node2</title>
<path fill="none" stroke="#191970" d="M306.4249,-179.3977C293.3429,-171.3533 276.0734,-158.678 266,-143 254.8728,-125.6819 250.2621,-102.3309 248.3517,-85.8994"/>
<polygon fill="#191970" stroke="#191970" points="251.8225,-85.4222 247.4135,-75.7883 244.8524,-86.069 251.8225,-85.4222"/>
</g>
<!-- Node14 -->
<g id="node15" class="node">
<title>Node14</title>
<g id="a_node15"><a xlink:href="../../db/def/fmt_8h.html" target="_top" xlink:title="Wrapper for either system&#45;installed or local headers for fmt. ">
<polygon fill="#ffffff" stroke="#ff0000" points="275.5,-118 275.5,-137 374.5,-137 374.5,-118 275.5,-118"/>
<text text-anchor="middle" x="325" y="-125" font-family="Helvetica,sans-Serif" font-size="10.00" fill="#000000">cantera/base/fmt.h</text>
</a>
</g>
</g>
<!-- Node13&#45;&gt;Node14 -->
<g id="edge15" class="edge">
<title>Node13&#45;&gt;Node14</title>
<path fill="none" stroke="#191970" d="M324.1563,-179.3906C324.2949,-170.8657 324.5018,-158.1392 324.676,-147.4235"/>
<polygon fill="#191970" stroke="#191970" points="328.1784,-147.3005 324.8415,-137.2449 321.1793,-147.1866 328.1784,-147.3005"/>
</g>
<!-- Node14&#45;&gt;Node2 -->
<g id="edge16" class="edge">
<title>Node14&#45;&gt;Node2</title>
<path fill="none" stroke="#191970" d="M312.8125,-117.8906C300.563,-108.2324 281.4737,-93.1812 267.0023,-81.771"/>
<polygon fill="#191970" stroke="#191970" points="269.1217,-78.985 259.1019,-75.5419 264.7876,-84.4819 269.1217,-78.985"/>
</g>
<!-- Node18 -->
<g id="node17" class="node">
<title>Node18</title>
<g id="a_node17"><a xlink:href="../../de/df0/utilities_8h.html" target="_top" xlink:title="Various templated functions that carry out common vector operations (see Templated Utility Functions)...">
<polygon fill="#ffffff" stroke="#000000" points="85.5,-235.5 85.5,-254.5 140.5,-254.5 140.5,-235.5 85.5,-235.5"/>
<text text-anchor="middle" x="113" y="-242.5" font-family="Helvetica,sans-Serif" font-size="10.00" fill="#000000">utilities.h</text>
</a>
</g>
</g>
<!-- Node17&#45;&gt;Node18 -->
<g id="edge18" class="edge">
<title>Node17&#45;&gt;Node18</title>
<path fill="none" stroke="#191970" d="M242.1826,-291.3733C216.4668,-282.1419 177.462,-268.1402 149.0401,-257.9375"/>
<polygon fill="#191970" stroke="#191970" points="150.0619,-254.5857 139.4674,-254.5011 147.6968,-261.174 150.0619,-254.5857"/>
</g>
<!-- Node21 -->
<g id="node20" class="node">
<title>Node21</title>
<polygon fill="#ffffff" stroke="#bfbfbf" points="158.5,-235.5 158.5,-254.5 213.5,-254.5 213.5,-235.5 158.5,-235.5"/>
<text text-anchor="middle" x="186" y="-242.5" font-family="Helvetica,sans-Serif" font-size="10.00" fill="#000000">iostream</text>
</g>
<!-- Node17&#45;&gt;Node21 -->
<g id="edge23" class="edge">
<title>Node17&#45;&gt;Node21</title>
<path fill="none" stroke="#191970" d="M254.5425,-291.2455C241.9268,-282.7337 223.4056,-270.2375 208.7955,-260.3801"/>
<polygon fill="#191970" stroke="#191970" points="210.5391,-257.3343 200.2918,-254.6427 206.6239,-263.1371 210.5391,-257.3343"/>
</g>
<!-- Node22 -->
<g id="node21" class="node">
<title>Node22</title>
<polygon fill="#ffffff" stroke="#bfbfbf" points="232,-235.5 232,-254.5 278,-254.5 278,-235.5 232,-235.5"/>
<text text-anchor="middle" x="255" y="-242.5" font-family="Helvetica,sans-Serif" font-size="10.00" fill="#000000">cstring</text>
</g>
<!-- Node17&#45;&gt;Node22 -->
<g id="edge24" class="edge">
<title>Node17&#45;&gt;Node22</title>
<path fill="none" stroke="#191970" d="M266.5614,-291.2455C264.7145,-283.8579 262.1172,-273.4689 259.8522,-264.4087"/>
<polygon fill="#191970" stroke="#191970" points="263.2316,-263.4952 257.4107,-254.6427 256.4406,-265.193 263.2316,-263.4952"/>
</g>
<!-- Node18&#45;&gt;Node2 -->
<g id="edge19" class="edge">
<title>Node18&#45;&gt;Node2</title>
<path fill="none" stroke="#191970" d="M109.4428,-235.4965C105.062,-222.1636 99.2118,-197.4701 108,-179 130.4735,-131.7674 183.4136,-97.8231 217.0881,-80.0935"/>
<polygon fill="#191970" stroke="#191970" points="218.7197,-83.1903 226.0339,-75.5252 215.5361,-76.9561 218.7197,-83.1903"/>
</g>
<!-- Node18&#45;&gt;Node13 -->
<g id="edge20" class="edge">
<title>Node18&#45;&gt;Node13</title>
<path fill="none" stroke="#191970" d="M140.5066,-237.3169C143.3732,-236.5289 146.2448,-235.7448 149,-235 192.3338,-223.2867 241.8155,-210.3177 277.0805,-201.1442"/>
<polygon fill="#191970" stroke="#191970" points="278.2904,-204.4461 287.0886,-198.5434 276.5297,-197.6711 278.2904,-204.4461"/>
</g>
<!-- Node19 -->
<g id="node18" class="node">
<title>Node19</title>
<polygon fill="#ffffff" stroke="#bfbfbf" points="117.5,-179.5 117.5,-198.5 176.5,-198.5 176.5,-179.5 117.5,-179.5"/>
<text text-anchor="middle" x="147" y="-186.5" font-family="Helvetica,sans-Serif" font-size="10.00" fill="#000000">stdexcept</text>
</g>
<!-- Node18&#45;&gt;Node19 -->
<g id="edge21" class="edge">
<title>Node18&#45;&gt;Node19</title>
<path fill="none" stroke="#191970" d="M118.9223,-235.2455C123.6027,-227.5367 130.2673,-216.5598 135.9289,-207.2348"/>
<polygon fill="#191970" stroke="#191970" points="138.9475,-209.007 141.1455,-198.6427 132.9639,-205.3741 138.9475,-209.007"/>
</g>
<!-- Node20 -->
<g id="node19" class="node">
<title>Node20</title>
<polygon fill="#ffffff" stroke="#bfbfbf" points="195,-179.5 195,-198.5 247,-198.5 247,-179.5 195,-179.5"/>
<text text-anchor="middle" x="221" y="-186.5" font-family="Helvetica,sans-Serif" font-size="10.00" fill="#000000">numeric</text>
</g>
<!-- Node18&#45;&gt;Node20 -->
<g id="edge22" class="edge">
<title>Node18&#45;&gt;Node20</title>
<path fill="none" stroke="#191970" d="M131.8122,-235.2455C148.8473,-226.4125 174.1575,-213.2887 193.4681,-203.2758"/>
<polygon fill="#191970" stroke="#191970" points="195.137,-206.353 202.4034,-198.6427 191.9147,-200.1388 195.137,-206.353"/>
</g>
<!-- Node23&#45;&gt;Node17 -->
<g id="edge28" class="edge">
<title>Node23&#45;&gt;Node17</title>
<path fill="none" stroke="#191970" d="M349.1039,-347.2455C334.082,-338.5731 311.8957,-325.7645 294.679,-315.825"/>
<polygon fill="#191970" stroke="#191970" points="296.1128,-312.6114 285.7025,-310.6427 292.6129,-318.6737 296.1128,-312.6114"/>
</g>
<!-- Node24 -->
<g id="node23" class="node">
<title>Node24</title>
<g id="a_node23"><a xlink:href="../../d0/d2e/vcs__SpeciesProperties_8h.html" target="_top" xlink:title="cantera/equil/vcs_Species\lProperties.h">
<polygon fill="#ffffff" stroke="#000000" points="394.5,-112.5 394.5,-142.5 527.5,-142.5 527.5,-112.5 394.5,-112.5"/>
<text text-anchor="start" x="402.5" y="-130.5" font-family="Helvetica,sans-Serif" font-size="10.00" fill="#000000">cantera/equil/vcs_Species</text>
<text text-anchor="middle" x="461" y="-119.5" font-family="Helvetica,sans-Serif" font-size="10.00" fill="#000000">Properties.h</text>
</a>
</g>
</g>
<!-- Node23&#45;&gt;Node24 -->
<g id="edge26" class="edge">
<title>Node23&#45;&gt;Node24</title>
<path fill="none" stroke="#191970" d="M376.0275,-347.3877C392.978,-330.476 427.0087,-293.5257 443,-255 456.873,-221.5778 460.3985,-179.4441 461.1156,-152.9792"/>
<polygon fill="#191970" stroke="#191970" points="464.6199,-152.7198 461.273,-142.6675 457.6207,-152.6129 464.6199,-152.7198"/>
</g>
<!-- Node24&#45;&gt;Node2 -->
<g id="edge27" class="edge">
<title>Node24&#45;&gt;Node2</title>
<path fill="none" stroke="#191970" d="M408.6497,-112.4554C372.1602,-101.9689 324.0799,-88.1515 289.8649,-78.3187"/>
<polygon fill="#191970" stroke="#191970" points="290.7401,-74.9286 280.1624,-75.5303 288.8067,-81.6563 290.7401,-74.9286"/>
</g>
<!-- Node25&#45;&gt;Node14 -->
<g id="edge30" class="edge">
<title>Node25&#45;&gt;Node14</title>
<path fill="none" stroke="#191970" d="M522.9938,-347.4608C509.5952,-326.4222 475.8501,-274.752 443,-235 420.975,-208.3475 414.5192,-202.3287 389,-179 375.3159,-166.4905 359.0258,-153.4055 346.3052,-143.5553"/>
<polygon fill="#191970" stroke="#191970" points="348.2106,-140.6059 338.1448,-137.2996 343.9518,-146.1613 348.2106,-140.6059"/>
</g>
<!-- Node26 -->
<g id="node25" class="node">
<title>Node26</title>
<polygon fill="#ffffff" stroke="#bfbfbf" points="528.5,-291.5 528.5,-310.5 587.5,-310.5 587.5,-291.5 528.5,-291.5"/>
<text text-anchor="middle" x="558" y="-298.5" font-family="Helvetica,sans-Serif" font-size="10.00" fill="#000000">exception</text>
</g>
<!-- Node25&#45;&gt;Node26 -->
<g id="edge31" class="edge">
<title>Node25&#45;&gt;Node26</title>
<path fill="none" stroke="#191970" d="M534.0514,-347.2455C538.0019,-339.617 543.6097,-328.7881 548.4058,-319.5267"/>
<polygon fill="#191970" stroke="#191970" points="551.5159,-321.1321 553.0065,-310.6427 545.2999,-317.9131 551.5159,-321.1321"/>
</g>
</g>
</svg>
