<?xml version="1.0" encoding="UTF-8" standalone="no"?>
<!DOCTYPE svg PUBLIC "-//W3C//DTD SVG 1.1//EN"
 "http://www.w3.org/Graphics/SVG/1.1/DTD/svg11.dtd">
<!-- Generated by graphviz version 2.43.0 (0)
 -->
<!-- Title: vcs_solve.h Pages: 1 -->
<svg width="1807pt" height="140pt"
 viewBox="0.00 0.00 1807.00 140.00" xmlns="http://www.w3.org/2000/svg" xmlns:xlink="http://www.w3.org/1999/xlink">
<g id="graph0" class="graph" transform="scale(1 1) rotate(0) translate(4 136)">
<title>vcs_solve.h</title>
<polygon fill="white" stroke="transparent" points="-4,4 -4,-136 1803,-136 1803,4 -4,4"/>
<!-- Node1 -->
<g id="node1" class="node">
<title>Node1</title>
<g id="a_node1"><a xlink:title="Header file for the internal object that holds the vcs equilibrium problem (see Class VCS_SOLVE and E...">
<polygon fill="#bfbfbf" stroke="black" points="809.5,-112.5 809.5,-131.5 883.5,-131.5 883.5,-112.5 809.5,-112.5"/>
<text text-anchor="middle" x="846.5" y="-119.5" font-family="Helvetica,sans-Serif" font-size="10.00">vcs_solve.h</text>
</a>
</g>
</g>
<!-- Node2 -->
<g id="node2" class="node">
<title>Node2</title>
<g id="a_node2"><a xlink:href="../../d3/da6/vcs__elem_8cpp.html" target="_top" xlink:title="This file contains the algorithm for checking the satisfaction of the element abundances constraints ...">
<polygon fill="white" stroke="black" points="0,-56.5 0,-75.5 83,-75.5 83,-56.5 0,-56.5"/>
<text text-anchor="middle" x="41.5" y="-63.5" font-family="Helvetica,sans-Serif" font-size="10.00">vcs_elem.cpp</text>
</a>
</g>
</g>
<!-- Node1&#45;&gt;Node2 -->
<g id="edge1" class="edge">
<title>Node1&#45;&gt;Node2</title>
<path fill="none" stroke="midnightblue" d="M799.28,-120.07C680.28,-117.31 358.62,-107.32 92.5,-76 89.46,-75.64 86.33,-75.22 83.19,-74.76"/>
<polygon fill="midnightblue" stroke="midnightblue" points="799.42,-123.57 809.49,-120.3 799.57,-116.57 799.42,-123.57"/>
</g>
<!-- Node3 -->
<g id="node3" class="node">
<title>Node3</title>
<g id="a_node3"><a xlink:href="../../d3/d0a/vcs__elem__rearrange_8cpp.html" target="_top" xlink:title="Contains implementations for rearranging the element columns, and it contains the algorithm for choos...">
<polygon fill="white" stroke="black" points="101.5,-56.5 101.5,-75.5 237.5,-75.5 237.5,-56.5 101.5,-56.5"/>
<text text-anchor="middle" x="169.5" y="-63.5" font-family="Helvetica,sans-Serif" font-size="10.00">vcs_elem_rearrange.cpp</text>
</a>
</g>
</g>
<!-- Node1&#45;&gt;Node3 -->
<g id="edge2" class="edge">
<title>Node1&#45;&gt;Node3</title>
<path fill="none" stroke="midnightblue" d="M799.01,-118.11C697.5,-111.79 451.88,-95.7 246.5,-76 243.55,-75.72 240.54,-75.42 237.5,-75.1"/>
<polygon fill="midnightblue" stroke="midnightblue" points="799.04,-121.62 809.24,-118.75 799.48,-114.63 799.04,-121.62"/>
</g>
<!-- Node4 -->
<g id="node4" class="node">
<title>Node4</title>
<g id="a_node4"><a xlink:href="../../d3/db0/vcs__Gibbs_8cpp.html" target="_top" xlink:title="Functions which calculate the extrinsic Gibbs Free energies.">
<polygon fill="white" stroke="black" points="255.5,-56.5 255.5,-75.5 341.5,-75.5 341.5,-56.5 255.5,-56.5"/>
<text text-anchor="middle" x="298.5" y="-63.5" font-family="Helvetica,sans-Serif" font-size="10.00">vcs_Gibbs.cpp</text>
</a>
</g>
</g>
<!-- Node1&#45;&gt;Node4 -->
<g id="edge3" class="edge">
<title>Node1&#45;&gt;Node4</title>
<path fill="none" stroke="midnightblue" d="M799.12,-117.98C710.7,-112.07 514.63,-97.61 350.5,-76 347.59,-75.62 344.6,-75.19 341.59,-74.73"/>
<polygon fill="midnightblue" stroke="midnightblue" points="799.16,-121.49 809.36,-118.66 799.62,-114.51 799.16,-121.49"/>
</g>
<!-- Node5 -->
<g id="node5" class="node">
<title>Node5</title>
<g id="a_node5"><a xlink:href="../../d7/dfd/vcs__inest_8cpp.html" target="_top" xlink:title="Implementation methods for obtaining a good initial guess.">
<polygon fill="white" stroke="black" points="360,-56.5 360,-75.5 443,-75.5 443,-56.5 360,-56.5"/>
<text text-anchor="middle" x="401.5" y="-63.5" font-family="Helvetica,sans-Serif" font-size="10.00">vcs_inest.cpp</text>
</a>
</g>
</g>
<!-- Node1&#45;&gt;Node5 -->
<g id="edge4" class="edge">
<title>Node1&#45;&gt;Node5</title>
<path fill="none" stroke="midnightblue" d="M799.4,-116.63C725.22,-109.52 576.72,-94.38 451.5,-76 448.79,-75.6 446.01,-75.17 443.21,-74.72"/>
<polygon fill="midnightblue" stroke="midnightblue" points="799.08,-120.11 809.36,-117.58 799.74,-113.14 799.08,-120.11"/>
</g>
<!-- Node6 -->
<g id="node6" class="node">
<title>Node6</title>
<g id="a_node6"><a xlink:href="../../dd/d86/vcs__phaseStability_8cpp.html" target="_top" xlink:title="Implementation class for functions associated with determining the stability of a phase (see Class VC...">
<polygon fill="white" stroke="black" points="461,-56.5 461,-75.5 588,-75.5 588,-56.5 461,-56.5"/>
<text text-anchor="middle" x="524.5" y="-63.5" font-family="Helvetica,sans-Serif" font-size="10.00">vcs_phaseStability.cpp</text>
</a>
</g>
</g>
<!-- Node1&#45;&gt;Node6 -->
<g id="edge5" class="edge">
<title>Node1&#45;&gt;Node6</title>
<path fill="none" stroke="midnightblue" d="M799.32,-113.09C739.54,-103.06 636.92,-85.85 575.42,-75.54"/>
<polygon fill="midnightblue" stroke="midnightblue" points="798.81,-116.55 809.25,-114.75 799.96,-109.65 798.81,-116.55"/>
</g>
<!-- Node7 -->
<g id="node7" class="node">
<title>Node7</title>
<g id="a_node7"><a xlink:href="../../d8/dc4/vcs__prep_8cpp.html" target="_top" xlink:title="This file contains some prepatory functions.">
<polygon fill="white" stroke="black" points="606.5,-56.5 606.5,-75.5 686.5,-75.5 686.5,-56.5 606.5,-56.5"/>
<text text-anchor="middle" x="646.5" y="-63.5" font-family="Helvetica,sans-Serif" font-size="10.00">vcs_prep.cpp</text>
</a>
</g>
</g>
<!-- Node1&#45;&gt;Node7 -->
<g id="edge6" class="edge">
<title>Node1&#45;&gt;Node7</title>
<path fill="none" stroke="midnightblue" d="M805.13,-109.83C767.36,-99.63 712.36,-84.78 678.04,-75.52"/>
<polygon fill="midnightblue" stroke="midnightblue" points="804.24,-113.22 814.81,-112.44 806.07,-106.46 804.24,-113.22"/>
</g>
<!-- Node8 -->
<g id="node8" class="node">
<title>Node8</title>
<g id="a_node8"><a xlink:href="../../dc/d5b/vcs__prob_8cpp.html" target="_top" xlink:title="Implementation for the Interface class for the vcs thermo equilibrium solver package,...">
<polygon fill="white" stroke="black" points="704.5,-56.5 704.5,-75.5 784.5,-75.5 784.5,-56.5 704.5,-56.5"/>
<text text-anchor="middle" x="744.5" y="-63.5" font-family="Helvetica,sans-Serif" font-size="10.00">vcs_prob.cpp</text>
</a>
</g>
</g>
<!-- Node1&#45;&gt;Node8 -->
<g id="edge7" class="edge">
<title>Node1&#45;&gt;Node8</title>
<path fill="none" stroke="midnightblue" d="M821.17,-107.59C802.31,-97.61 777.12,-84.27 760.85,-75.65"/>
<polygon fill="midnightblue" stroke="midnightblue" points="819.64,-110.74 830.11,-112.32 822.91,-104.55 819.64,-110.74"/>
</g>
<!-- Node9 -->
<g id="node9" class="node">
<title>Node9</title>
<g id="a_node9"><a xlink:href="../../d3/dc9/vcs__report_8cpp.html" target="_top" xlink:title=" ">
<polygon fill="white" stroke="black" points="802.5,-56.5 802.5,-75.5 890.5,-75.5 890.5,-56.5 802.5,-56.5"/>
<text text-anchor="middle" x="846.5" y="-63.5" font-family="Helvetica,sans-Serif" font-size="10.00">vcs_report.cpp</text>
</a>
</g>
</g>
<!-- Node1&#45;&gt;Node9 -->
<g id="edge8" class="edge">
<title>Node1&#45;&gt;Node9</title>
<path fill="none" stroke="midnightblue" d="M846.5,-101.8C846.5,-92.91 846.5,-82.78 846.5,-75.75"/>
<polygon fill="midnightblue" stroke="midnightblue" points="843,-102.08 846.5,-112.08 850,-102.08 843,-102.08"/>
</g>
<!-- Node10 -->
<g id="node10" class="node">
<title>Node10</title>
<g id="a_node10"><a xlink:href="../../da/dd4/vcs__rxnadj_8cpp.html" target="_top" xlink:title="Routines for carrying out various adjustments to the reaction steps.">
<polygon fill="white" stroke="black" points="908,-56.5 908,-75.5 997,-75.5 997,-56.5 908,-56.5"/>
<text text-anchor="middle" x="952.5" y="-63.5" font-family="Helvetica,sans-Serif" font-size="10.00">vcs_rxnadj.cpp</text>
</a>
</g>
</g>
<!-- Node1&#45;&gt;Node10 -->
<g id="edge9" class="edge">
<title>Node1&#45;&gt;Node10</title>
<path fill="none" stroke="midnightblue" d="M872.56,-107.73C892.18,-97.73 918.53,-84.31 935.51,-75.65"/>
<polygon fill="midnightblue" stroke="midnightblue" points="870.85,-104.67 863.53,-112.32 874.03,-110.9 870.85,-104.67"/>
</g>
<!-- Node11 -->
<g id="node11" class="node">
<title>Node11</title>
<g id="a_node11"><a xlink:href="../../d0/db6/vcs__setMolesLinProg_8cpp.html" target="_top" xlink:title=" ">
<polygon fill="white" stroke="black" points="1015,-56.5 1015,-75.5 1154,-75.5 1154,-56.5 1015,-56.5"/>
<text text-anchor="middle" x="1084.5" y="-63.5" font-family="Helvetica,sans-Serif" font-size="10.00">vcs_setMolesLinProg.cpp</text>
</a>
</g>
</g>
<!-- Node1&#45;&gt;Node11 -->
<g id="edge10" class="edge">
<title>Node1&#45;&gt;Node11</title>
<path fill="none" stroke="midnightblue" d="M893.48,-110.34C938.4,-100.15 1005.25,-84.98 1046.79,-75.56"/>
<polygon fill="midnightblue" stroke="midnightblue" points="892.67,-106.94 883.69,-112.56 894.21,-113.76 892.67,-106.94"/>
</g>
<!-- Node12 -->
<g id="node12" class="node">
<title>Node12</title>
<g id="a_node12"><a xlink:href="../../dc/d88/vcs__solve_8cpp.html" target="_top" xlink:title=" ">
<polygon fill="white" stroke="black" points="1172,-56.5 1172,-75.5 1257,-75.5 1257,-56.5 1172,-56.5"/>
<text text-anchor="middle" x="1214.5" y="-63.5" font-family="Helvetica,sans-Serif" font-size="10.00">vcs_solve.cpp</text>
</a>
</g>
</g>
<!-- Node1&#45;&gt;Node12 -->
<g id="edge11" class="edge">
<title>Node1&#45;&gt;Node12</title>
<path fill="none" stroke="midnightblue" d="M893.75,-114.72C955.58,-106.4 1067.29,-91.02 1162.5,-76 1165.58,-75.51 1168.75,-75 1171.95,-74.47"/>
<polygon fill="midnightblue" stroke="midnightblue" points="892.97,-111.29 883.53,-116.09 893.9,-118.23 892.97,-111.29"/>
</g>
<!-- Node13 -->
<g id="node13" class="node">
<title>Node13</title>
<g id="a_node13"><a xlink:href="../../d7/dec/vcs__solve__TP_8cpp.html" target="_top" xlink:title="Implementation file that contains the main algorithm for finding an equilibrium.">
<polygon fill="white" stroke="black" points="1275,-56.5 1275,-75.5 1376,-75.5 1376,-56.5 1275,-56.5"/>
<text text-anchor="middle" x="1325.5" y="-63.5" font-family="Helvetica,sans-Serif" font-size="10.00">vcs_solve_TP.cpp</text>
</a>
</g>
</g>
<!-- Node1&#45;&gt;Node13 -->
<g id="edge12" class="edge">
<title>Node1&#45;&gt;Node13</title>
<path fill="none" stroke="midnightblue" d="M893.97,-116.56C971.73,-109.13 1131.05,-93.3 1265.5,-76 1268.53,-75.61 1271.64,-75.19 1274.78,-74.76"/>
<polygon fill="midnightblue" stroke="midnightblue" points="893.18,-113.12 883.55,-117.55 893.84,-120.08 893.18,-113.12"/>
</g>
<!-- Node14 -->
<g id="node14" class="node">
<title>Node14</title>
<g id="a_node14"><a xlink:href="../../d3/d9f/vcs__TP_8cpp.html" target="_top" xlink:title=" ">
<polygon fill="white" stroke="black" points="1394,-56.5 1394,-75.5 1463,-75.5 1463,-56.5 1394,-56.5"/>
<text text-anchor="middle" x="1428.5" y="-63.5" font-family="Helvetica,sans-Serif" font-size="10.00">vcs_TP.cpp</text>
</a>
</g>
</g>
<!-- Node1&#45;&gt;Node14 -->
<g id="edge13" class="edge">
<title>Node1&#45;&gt;Node14</title>
<path fill="none" stroke="midnightblue" d="M893.54,-118.94C987.33,-114.42 1204.08,-101.9 1384.5,-76 1387.59,-75.56 1390.78,-75.03 1393.98,-74.46"/>
<polygon fill="midnightblue" stroke="midnightblue" points="893.35,-115.45 883.52,-119.41 893.68,-122.44 893.35,-115.45"/>
</g>
<!-- Node15 -->
<g id="node15" class="node">
<title>Node15</title>
<g id="a_node15"><a xlink:href="../../dc/d27/vcs__VolPhase_8cpp.html" target="_top" xlink:title=" ">
<polygon fill="white" stroke="black" points="1481,-56.5 1481,-75.5 1584,-75.5 1584,-56.5 1481,-56.5"/>
<text text-anchor="middle" x="1532.5" y="-63.5" font-family="Helvetica,sans-Serif" font-size="10.00">vcs_VolPhase.cpp</text>
</a>
</g>
</g>
<!-- Node1&#45;&gt;Node15 -->
<g id="edge14" class="edge">
<title>Node1&#45;&gt;Node15</title>
<path fill="none" stroke="midnightblue" d="M893.78,-118.8C998.22,-113.68 1256.39,-99.58 1471.5,-76 1474.59,-75.66 1477.76,-75.28 1480.95,-74.88"/>
<polygon fill="midnightblue" stroke="midnightblue" points="893.39,-115.32 883.57,-119.3 893.73,-122.31 893.39,-115.32"/>
</g>
<!-- Node16 -->
<g id="node16" class="node">
<title>Node16</title>
<g id="a_node16"><a xlink:href="../../d1/dc3/vcs__MultiPhaseEquil_8h.html" target="_top" xlink:title="Interface class for the vcsnonlinear solver.">
<polygon fill="white" stroke="black" points="1602,-56.5 1602,-75.5 1727,-75.5 1727,-56.5 1602,-56.5"/>
<text text-anchor="middle" x="1664.5" y="-63.5" font-family="Helvetica,sans-Serif" font-size="10.00">vcs_MultiPhaseEquil.h</text>
</a>
</g>
</g>
<!-- Node1&#45;&gt;Node16 -->
<g id="edge15" class="edge">
<title>Node1&#45;&gt;Node16</title>
<path fill="none" stroke="midnightblue" d="M894.04,-119.22C1012.42,-114.57 1329.8,-100.63 1593.5,-76 1596.22,-75.75 1599,-75.47 1601.8,-75.17"/>
<polygon fill="midnightblue" stroke="midnightblue" points="893.73,-115.73 883.88,-119.62 894,-122.73 893.73,-115.73"/>
</g>
<!-- Node17 -->
<g id="node17" class="node">
<title>Node17</title>
<g id="a_node17"><a xlink:href="../../df/d2b/MultiPhase_8cpp.html" target="_top" xlink:title="Definitions for the MultiPhase object that is used to set up multiphase equilibrium problems (see Equ...">
<polygon fill="white" stroke="black" points="1553,-0.5 1553,-19.5 1644,-19.5 1644,-0.5 1553,-0.5"/>
<text text-anchor="middle" x="1598.5" y="-7.5" font-family="Helvetica,sans-Serif" font-size="10.00">MultiPhase.cpp</text>
</a>
</g>
</g>
<!-- Node16&#45;&gt;Node17 -->
<g id="edge16" class="edge">
<title>Node16&#45;&gt;Node17</title>
<path fill="none" stroke="midnightblue" d="M1645.95,-49.82C1634.12,-40.15 1619.21,-27.95 1609.3,-19.83"/>
<polygon fill="midnightblue" stroke="midnightblue" points="1643.94,-52.7 1653.9,-56.32 1648.37,-47.28 1643.94,-52.7"/>
</g>
<!-- Node18 -->
<g id="node18" class="node">
<title>Node18</title>
<g id="a_node18"><a xlink:href="../../dc/d00/vcs__MultiPhaseEquil_8cpp.html" target="_top" xlink:title="Driver routine for the VCSnonideal equilibrium solver package.">
<polygon fill="white" stroke="black" points="1662,-0.5 1662,-19.5 1799,-19.5 1799,-0.5 1662,-0.5"/>
<text text-anchor="middle" x="1730.5" y="-7.5" font-family="Helvetica,sans-Serif" font-size="10.00">vcs_MultiPhaseEquil.cpp</text>
</a>
</g>
</g>
<!-- Node16&#45;&gt;Node18 -->
<g id="edge17" class="edge">
<title>Node16&#45;&gt;Node18</title>
<path fill="none" stroke="midnightblue" d="M1683.05,-49.82C1694.88,-40.15 1709.79,-27.95 1719.7,-19.83"/>
<polygon fill="midnightblue" stroke="midnightblue" points="1680.63,-47.28 1675.1,-56.32 1685.06,-52.7 1680.63,-47.28"/>
</g>
</g>
</svg>
