<?xml version="1.0" encoding="UTF-8" standalone="no"?>
<!DOCTYPE svg PUBLIC "-//W3C//DTD SVG 1.1//EN"
 "http://www.w3.org/Graphics/SVG/1.1/DTD/svg11.dtd">
<!-- Generated by graphviz version 2.40.1 (20161225.0304)
 -->
<!-- Title: IdealGasMix.h Pages: 1 -->
<svg width="1424pt" height="431pt"
 viewBox="0.00 0.00 1423.81 431.00" xmlns="http://www.w3.org/2000/svg" xmlns:xlink="http://www.w3.org/1999/xlink">
<g id="graph0" class="graph" transform="scale(1 1) rotate(0) translate(4 427)">
<title>IdealGasMix.h</title>
<polygon fill="#ffffff" stroke="transparent" points="-4,4 -4,-427 1419.8081,-427 1419.8081,4 -4,4"/>
<!-- Node0 -->
<g id="node1" class="node">
<title>Node0</title>
<polygon fill="#bfbfbf" stroke="#000000" points="810.5,-403.5 810.5,-422.5 890.5,-422.5 890.5,-403.5 810.5,-403.5"/>
<text text-anchor="middle" x="850.5" y="-410.5" font-family="Helvetica,sans-Serif" font-size="10.00" fill="#000000">IdealGasMix.h</text>
</g>
<!-- Node1 -->
<g id="node2" class="node">
<title>Node1</title>
<g id="a_node2"><a xlink:href="../../de/dbd/IdealGasPhase_8h.html" target="_top" xlink:title="ThermoPhase object for the ideal gas equation of state &#45; workhorse for Cantera (see Thermodynamic Pro...">
<polygon fill="#ffffff" stroke="#000000" points="646,-291.5 646,-310.5 773,-310.5 773,-291.5 646,-291.5"/>
<text text-anchor="middle" x="709.5" y="-298.5" font-family="Helvetica,sans-Serif" font-size="10.00" fill="#000000">thermo/IdealGasPhase.h</text>
</a>
</g>
</g>
<!-- Node0&#45;&gt;Node1 -->
<g id="edge1" class="edge">
<title>Node0&#45;&gt;Node1</title>
<path fill="none" stroke="#191970" d="M837.7956,-403.186C825.8169,-393.911 807.3822,-379.5817 791.5,-367 770.1532,-350.0892 745.8722,-330.5015 729.3069,-317.084"/>
<polygon fill="#191970" stroke="#191970" points="731.3761,-314.2558 721.404,-310.6768 726.9677,-319.6933 731.3761,-314.2558"/>
</g>
<!-- Node31 -->
<g id="node12" class="node">
<title>Node31</title>
<g id="a_node12"><a xlink:href="../../db/dac/GasKinetics_8h.html" target="_top" xlink:title="kinetics/GasKinetics.h">
<polygon fill="#ffffff" stroke="#000000" points="1026.5,-347.5 1026.5,-366.5 1140.5,-366.5 1140.5,-347.5 1026.5,-347.5"/>
<text text-anchor="middle" x="1083.5" y="-354.5" font-family="Helvetica,sans-Serif" font-size="10.00" fill="#000000">kinetics/GasKinetics.h</text>
</a>
</g>
</g>
<!-- Node0&#45;&gt;Node31 -->
<g id="edge13" class="edge">
<title>Node0&#45;&gt;Node31</title>
<path fill="none" stroke="#191970" d="M890.2894,-403.4369C929.998,-393.8932 991.1104,-379.2052 1033.9455,-368.9101"/>
<polygon fill="#191970" stroke="#191970" points="1034.9695,-372.2637 1043.8747,-366.5237 1033.3337,-365.4575 1034.9695,-372.2637"/>
</g>
<!-- Node35 -->
<g id="node16" class="node">
<title>Node35</title>
<g id="a_node16"><a xlink:href="../../dd/dc3/stringUtils_8h.html" target="_top" xlink:title="Contains declarations for string manipulation functions within Cantera. ">
<polygon fill="#ffffff" stroke="#ff0000" points="738,-62 738,-81 867,-81 867,-62 738,-62"/>
<text text-anchor="middle" x="802.5" y="-69" font-family="Helvetica,sans-Serif" font-size="10.00" fill="#000000">cantera/base/stringUtils.h</text>
</a>
</g>
</g>
<!-- Node0&#45;&gt;Node35 -->
<g id="edge46" class="edge">
<title>Node0&#45;&gt;Node35</title>
<path fill="none" stroke="#191970" d="M843.6655,-403.3377C831.0769,-384.5638 805.5,-341.4436 805.5,-301 805.5,-301 805.5,-301 805.5,-245 805.5,-190.1242 835.5021,-176.7616 824.5,-123 822.1852,-111.6888 817.2841,-99.79 812.6942,-90.2826"/>
<polygon fill="#191970" stroke="#191970" points="815.8072,-88.6827 808.1452,-81.3654 809.5718,-91.8638 815.8072,-88.6827"/>
</g>
<!-- Node52 -->
<g id="node28" class="node">
<title>Node52</title>
<g id="a_node28"><a xlink:href="../../d9/d1b/importKinetics_8h.html" target="_top" xlink:title="Definitions of global routines for the importing of data from XML files (see Input File Handling)...">
<polygon fill="#ffffff" stroke="#000000" points="833.5,-347.5 833.5,-366.5 957.5,-366.5 957.5,-347.5 833.5,-347.5"/>
<text text-anchor="middle" x="895.5" y="-354.5" font-family="Helvetica,sans-Serif" font-size="10.00" fill="#000000">kinetics/importKinetics.h</text>
</a>
</g>
</g>
<!-- Node0&#45;&gt;Node52 -->
<g id="edge44" class="edge">
<title>Node0&#45;&gt;Node52</title>
<path fill="none" stroke="#191970" d="M858.3384,-403.2455C864.662,-395.3761 873.7224,-384.101 881.3136,-374.6542"/>
<polygon fill="#191970" stroke="#191970" points="884.2158,-376.6302 887.7514,-366.6427 878.7592,-372.2454 884.2158,-376.6302"/>
</g>
<!-- Node2 -->
<g id="node3" class="node">
<title>Node2</title>
<g id="a_node3"><a xlink:href="../../d7/d01/ThermoPhase_8h.html" target="_top" xlink:title="Header file for class ThermoPhase, the base class for phases with thermodynamic properties, and the text for the Module thermoprops (see Thermodynamic Properties and class ThermoPhase). ">
<polygon fill="#ffffff" stroke="#000000" points="651.5,-179.5 651.5,-198.5 739.5,-198.5 739.5,-179.5 651.5,-179.5"/>
<text text-anchor="middle" x="695.5" y="-186.5" font-family="Helvetica,sans-Serif" font-size="10.00" fill="#000000">ThermoPhase.h</text>
</a>
</g>
</g>
<!-- Node1&#45;&gt;Node2 -->
<g id="edge2" class="edge">
<title>Node1&#45;&gt;Node2</title>
<path fill="none" stroke="#191970" d="M708.3064,-291.4509C706.023,-273.184 700.9944,-232.9553 697.9622,-208.6976"/>
<polygon fill="#191970" stroke="#191970" points="701.404,-208.0135 696.6906,-198.5249 694.4581,-208.8818 701.404,-208.0135"/>
</g>
<!-- Node3 -->
<g id="node4" class="node">
<title>Node3</title>
<g id="a_node4"><a xlink:href="../../da/d84/Phase_8h.html" target="_top" xlink:title="Header file for class Phase. ">
<polygon fill="#ffffff" stroke="#000000" points="347,-123.5 347,-142.5 400,-142.5 400,-123.5 347,-123.5"/>
<text text-anchor="middle" x="373.5" y="-130.5" font-family="Helvetica,sans-Serif" font-size="10.00" fill="#000000">Phase.h</text>
</a>
</g>
</g>
<!-- Node2&#45;&gt;Node3 -->
<g id="edge3" class="edge">
<title>Node2&#45;&gt;Node3</title>
<path fill="none" stroke="#191970" d="M651.4024,-181.3309C587.3831,-170.1971 469.8594,-149.7582 410.2517,-139.3916"/>
<polygon fill="#191970" stroke="#191970" points="410.6172,-135.9027 400.1653,-137.6374 409.4177,-142.7992 410.6172,-135.9027"/>
</g>
<!-- Node28 -->
<g id="node9" class="node">
<title>Node28</title>
<g id="a_node9"><a xlink:href="../../d6/d7a/MultiSpeciesThermo_8h.html" target="_top" xlink:title="Header for a general species thermodynamic property manager for a phase (see MultiSpeciesThermo). ">
<polygon fill="#ffffff" stroke="#000000" points="551.5,-123.5 551.5,-142.5 667.5,-142.5 667.5,-123.5 551.5,-123.5"/>
<text text-anchor="middle" x="609.5" y="-130.5" font-family="Helvetica,sans-Serif" font-size="10.00" fill="#000000">MultiSpeciesThermo.h</text>
</a>
</g>
</g>
<!-- Node2&#45;&gt;Node28 -->
<g id="edge8" class="edge">
<title>Node2&#45;&gt;Node28</title>
<path fill="none" stroke="#191970" d="M680.5199,-179.2455C667.3249,-170.6534 647.8949,-158.0014 632.6921,-148.1018"/>
<polygon fill="#191970" stroke="#191970" points="634.5983,-145.1665 624.3084,-142.6427 630.7785,-151.0325 634.5983,-145.1665"/>
</g>
<!-- Node21 -->
<g id="node11" class="node">
<title>Node21</title>
<g id="a_node11"><a xlink:href="../../d2/d49/global_8h.html" target="_top" xlink:title="This file contains definitions for utility functions and text for modules, inputfiles, logs, textlogs, (see Input File Handling, Diagnostic Output, and Writing messages to the screen). ">
<polygon fill="#ffffff" stroke="#ff0000" points="1008.5,-.5 1008.5,-19.5 1120.5,-19.5 1120.5,-.5 1008.5,-.5"/>
<text text-anchor="middle" x="1064.5" y="-7.5" font-family="Helvetica,sans-Serif" font-size="10.00" fill="#000000">cantera/base/global.h</text>
</a>
</g>
</g>
<!-- Node2&#45;&gt;Node21 -->
<g id="edge12" class="edge">
<title>Node2&#45;&gt;Node21</title>
<path fill="none" stroke="#191970" d="M694.6699,-179.1403C693.1719,-154.2461 693.0436,-88.5264 729.5,-56 749.1861,-38.4361 906.4051,-22.8573 998.3013,-15.136"/>
<polygon fill="#191970" stroke="#191970" points="998.6742,-18.6172 1008.35,-14.3011 998.0945,-11.6412 998.6742,-18.6172"/>
</g>
<!-- Node4 -->
<g id="node5" class="node">
<title>Node4</title>
<g id="a_node5"><a xlink:href="../../db/d98/ctexceptions_8h.html" target="_top" xlink:title="Definitions for the classes that are thrown when Cantera experiences an error condition (also contain...">
<polygon fill="#ffffff" stroke="#ff0000" points="539,-.5 539,-19.5 680,-19.5 680,-.5 539,-.5"/>
<text text-anchor="middle" x="609.5" y="-7.5" font-family="Helvetica,sans-Serif" font-size="10.00" fill="#000000">cantera/base/ctexceptions.h</text>
</a>
</g>
</g>
<!-- Node3&#45;&gt;Node4 -->
<g id="edge4" class="edge">
<title>Node3&#45;&gt;Node4</title>
<path fill="none" stroke="#191970" d="M391.4424,-123.4424C418.9472,-108.8126 473.213,-80.0335 519.5,-56 540.13,-45.2884 563.5082,-33.3453 581.2666,-24.3135"/>
<polygon fill="#191970" stroke="#191970" points="583.1712,-27.2717 590.501,-19.6215 580.0004,-21.031 583.1712,-27.2717"/>
</g>
<!-- Node18 -->
<g id="node6" class="node">
<title>Node18</title>
<g id="a_node6"><a xlink:href="../../d9/dda/Elements_8h.html" target="_top" xlink:title="Contains the getElementWeight function and the definitions of element constraint types. ">
<polygon fill="#ffffff" stroke="#ff0000" points="0,-62 0,-81 137,-81 137,-62 0,-62"/>
<text text-anchor="middle" x="68.5" y="-69" font-family="Helvetica,sans-Serif" font-size="10.00" fill="#000000">cantera/thermo/Elements.h</text>
</a>
</g>
</g>
<!-- Node3&#45;&gt;Node18 -->
<g id="edge5" class="edge">
<title>Node3&#45;&gt;Node18</title>
<path fill="none" stroke="#191970" d="M346.9668,-127.6499C297.8218,-117.7403 191.6298,-96.3278 125.5106,-82.9956"/>
<polygon fill="#191970" stroke="#191970" points="126.1524,-79.5546 115.6579,-81.0089 124.7687,-86.4165 126.1524,-79.5546"/>
</g>
<!-- Node19 -->
<g id="node7" class="node">
<title>Node19</title>
<g id="a_node7"><a xlink:href="../../d7/dd9/Species_8h.html" target="_top" xlink:title="Declaration for class Cantera::Species. ">
<polygon fill="#ffffff" stroke="#ff0000" points="155.5,-62 155.5,-81 285.5,-81 285.5,-62 155.5,-62"/>
<text text-anchor="middle" x="220.5" y="-69" font-family="Helvetica,sans-Serif" font-size="10.00" fill="#000000">cantera/thermo/Species.h</text>
</a>
</g>
</g>
<!-- Node3&#45;&gt;Node19 -->
<g id="edge6" class="edge">
<title>Node3&#45;&gt;Node19</title>
<path fill="none" stroke="#191970" d="M349.5938,-123.3906C323.7695,-113.0103 282.4473,-96.4004 253.5295,-84.7766"/>
<polygon fill="#191970" stroke="#191970" points="254.8222,-81.5241 244.2384,-81.0419 252.2115,-88.019 254.8222,-81.5241"/>
</g>
<!-- Node26 -->
<g id="node8" class="node">
<title>Node26</title>
<g id="a_node8"><a xlink:href="../../d6/df6/ValueCache_8h.html" target="_top" xlink:title="cantera/base/ValueCache.h">
<polygon fill="#ffffff" stroke="#ff0000" points="303.5,-62 303.5,-81 443.5,-81 443.5,-62 303.5,-62"/>
<text text-anchor="middle" x="373.5" y="-69" font-family="Helvetica,sans-Serif" font-size="10.00" fill="#000000">cantera/base/ValueCache.h</text>
</a>
</g>
</g>
<!-- Node3&#45;&gt;Node26 -->
<g id="edge7" class="edge">
<title>Node3&#45;&gt;Node26</title>
<path fill="none" stroke="#191970" d="M373.5,-123.3906C373.5,-114.8657 373.5,-102.1392 373.5,-91.4235"/>
<polygon fill="#191970" stroke="#191970" points="377.0001,-91.2448 373.5,-81.2449 370.0001,-91.2449 377.0001,-91.2448"/>
</g>
<!-- Node29 -->
<g id="node10" class="node">
<title>Node29</title>
<g id="a_node10"><a xlink:href="../../d4/d87/SpeciesThermoInterpType_8h.html" target="_top" xlink:title="Pure Virtual Base class for individual species reference state thermodynamic managers and text for th...">
<polygon fill="#ffffff" stroke="#ff0000" points="538,-62 538,-81 681,-81 681,-62 538,-62"/>
<text text-anchor="middle" x="609.5" y="-69" font-family="Helvetica,sans-Serif" font-size="10.00" fill="#000000">SpeciesThermoInterpType.h</text>
</a>
</g>
</g>
<!-- Node28&#45;&gt;Node29 -->
<g id="edge9" class="edge">
<title>Node28&#45;&gt;Node29</title>
<path fill="none" stroke="#191970" d="M609.5,-123.3906C609.5,-114.8657 609.5,-102.1392 609.5,-91.4235"/>
<polygon fill="#191970" stroke="#191970" points="613.0001,-91.2448 609.5,-81.2449 606.0001,-91.2449 613.0001,-91.2448"/>
</g>
<!-- Node29&#45;&gt;Node4 -->
<g id="edge10" class="edge">
<title>Node29&#45;&gt;Node4</title>
<path fill="none" stroke="#191970" d="M609.5,-61.8906C609.5,-53.3657 609.5,-40.6392 609.5,-29.9235"/>
<polygon fill="#191970" stroke="#191970" points="613.0001,-29.7448 609.5,-19.7449 606.0001,-29.7449 613.0001,-29.7448"/>
</g>
<!-- Node29&#45;&gt;Node21 -->
<g id="edge11" class="edge">
<title>Node29&#45;&gt;Node21</title>
<path fill="none" stroke="#191970" d="M659.9008,-61.9435C671.5697,-59.8624 683.9515,-57.7592 695.5,-56 801.1047,-39.913 924.3525,-25.4042 998.3167,-17.1541"/>
<polygon fill="#191970" stroke="#191970" points="998.8668,-20.6146 1008.4193,-16.032 998.094,-13.6574 998.8668,-20.6146"/>
</g>
<!-- Node32 -->
<g id="node13" class="node">
<title>Node32</title>
<g id="a_node13"><a xlink:href="../../d2/d78/BulkKinetics_8h.html" target="_top" xlink:title="BulkKinetics.h">
<polygon fill="#ffffff" stroke="#000000" points="914,-291.5 914,-310.5 993,-310.5 993,-291.5 914,-291.5"/>
<text text-anchor="middle" x="953.5" y="-298.5" font-family="Helvetica,sans-Serif" font-size="10.00" fill="#000000">BulkKinetics.h</text>
</a>
</g>
</g>
<!-- Node31&#45;&gt;Node32 -->
<g id="edge14" class="edge">
<title>Node31&#45;&gt;Node32</title>
<path fill="none" stroke="#191970" d="M1061.1522,-347.3733C1040.0967,-338.3032 1008.3505,-324.6279 984.7825,-314.4755"/>
<polygon fill="#191970" stroke="#191970" points="986.125,-311.243 975.5562,-310.5011 983.3556,-317.6719 986.125,-311.243"/>
</g>
<!-- Node36 -->
<g id="node17" class="node">
<title>Node36</title>
<g id="a_node17"><a xlink:href="../../d8/d5d/Reaction_8h.html" target="_top" xlink:title="cantera/kinetics/Reaction.h">
<polygon fill="#ffffff" stroke="#000000" points="1015,-179.5 1015,-198.5 1152,-198.5 1152,-179.5 1015,-179.5"/>
<text text-anchor="middle" x="1083.5" y="-186.5" font-family="Helvetica,sans-Serif" font-size="10.00" fill="#000000">cantera/kinetics/Reaction.h</text>
</a>
</g>
</g>
<!-- Node31&#45;&gt;Node36 -->
<g id="edge43" class="edge">
<title>Node31&#45;&gt;Node36</title>
<path fill="none" stroke="#191970" d="M1083.5,-347.4862C1083.5,-320.9293 1083.5,-245.5651 1083.5,-209.1655"/>
<polygon fill="#191970" stroke="#191970" points="1087.0001,-208.8278 1083.5,-198.8279 1080.0001,-208.8279 1087.0001,-208.8278"/>
</g>
<!-- Node45 -->
<g id="node23" class="node">
<title>Node45</title>
<g id="a_node23"><a xlink:href="../../d9/d77/ThirdBodyCalc_8h.html" target="_top" xlink:title="ThirdBodyCalc.h">
<polygon fill="#ffffff" stroke="#000000" points="1245.5,-291.5 1245.5,-310.5 1335.5,-310.5 1335.5,-291.5 1245.5,-291.5"/>
<text text-anchor="middle" x="1290.5" y="-298.5" font-family="Helvetica,sans-Serif" font-size="10.00" fill="#000000">ThirdBodyCalc.h</text>
</a>
</g>
</g>
<!-- Node31&#45;&gt;Node45 -->
<g id="edge32" class="edge">
<title>Node31&#45;&gt;Node45</title>
<path fill="none" stroke="#191970" d="M1119.0846,-347.3733C1154.1016,-337.9001 1207.6881,-323.4032 1245.6125,-313.1435"/>
<polygon fill="#191970" stroke="#191970" points="1246.6408,-316.4912 1255.3798,-310.5011 1244.8127,-309.7341 1246.6408,-316.4912"/>
</g>
<!-- Node47 -->
<g id="node25" class="node">
<title>Node47</title>
<g id="a_node25"><a xlink:href="../../dc/d02/FalloffMgr_8h.html" target="_top" xlink:title="FalloffMgr.h">
<polygon fill="#ffffff" stroke="#000000" points="1178,-235.5 1178,-254.5 1247,-254.5 1247,-235.5 1178,-235.5"/>
<text text-anchor="middle" x="1212.5" y="-242.5" font-family="Helvetica,sans-Serif" font-size="10.00" fill="#000000">FalloffMgr.h</text>
</a>
</g>
</g>
<!-- Node31&#45;&gt;Node47 -->
<g id="edge35" class="edge">
<title>Node31&#45;&gt;Node47</title>
<path fill="none" stroke="#191970" d="M1094.4985,-347.4509C1116.5853,-328.2747 1166.5481,-284.8962 1193.8424,-261.1988"/>
<polygon fill="#191970" stroke="#191970" points="1196.2729,-263.7238 1201.5294,-254.5249 1191.6836,-258.438 1196.2729,-263.7238"/>
</g>
<!-- Node33 -->
<g id="node14" class="node">
<title>Node33</title>
<g id="a_node14"><a xlink:href="../../d5/db4/Kinetics_8h.html" target="_top" xlink:title="Base class for kinetics managers and also contains the kineticsmgr module documentation (see Kinetics...">
<polygon fill="#ffffff" stroke="#000000" points="852.5,-235.5 852.5,-254.5 912.5,-254.5 912.5,-235.5 852.5,-235.5"/>
<text text-anchor="middle" x="882.5" y="-242.5" font-family="Helvetica,sans-Serif" font-size="10.00" fill="#000000">Kinetics.h</text>
</a>
</g>
</g>
<!-- Node32&#45;&gt;Node33 -->
<g id="edge15" class="edge">
<title>Node32&#45;&gt;Node33</title>
<path fill="none" stroke="#191970" d="M941.1327,-291.2455C930.5446,-282.8943 915.0936,-270.7076 902.7107,-260.9408"/>
<polygon fill="#191970" stroke="#191970" points="904.7447,-258.0875 894.7255,-254.6427 900.4097,-263.5837 904.7447,-258.0875"/>
</g>
<!-- Node44 -->
<g id="node22" class="node">
<title>Node44</title>
<g id="a_node22"><a xlink:href="../../d4/d81/RateCoeffMgr_8h.html" target="_top" xlink:title="RateCoeffMgr.h">
<polygon fill="#ffffff" stroke="#000000" points="910,-179.5 910,-198.5 997,-198.5 997,-179.5 910,-179.5"/>
<text text-anchor="middle" x="953.5" y="-186.5" font-family="Helvetica,sans-Serif" font-size="10.00" fill="#000000">RateCoeffMgr.h</text>
</a>
</g>
</g>
<!-- Node32&#45;&gt;Node44 -->
<g id="edge30" class="edge">
<title>Node32&#45;&gt;Node44</title>
<path fill="none" stroke="#191970" d="M953.5,-291.4509C953.5,-273.184 953.5,-232.9553 953.5,-208.6976"/>
<polygon fill="#191970" stroke="#191970" points="957.0001,-208.5249 953.5,-198.5249 950.0001,-208.5249 957.0001,-208.5249"/>
</g>
<!-- Node33&#45;&gt;Node2 -->
<g id="edge16" class="edge">
<title>Node33&#45;&gt;Node2</title>
<path fill="none" stroke="#191970" d="M852.4552,-236.0026C821.258,-226.6601 772.2153,-211.9736 737.2576,-201.505"/>
<polygon fill="#191970" stroke="#191970" points="737.9316,-198.0533 727.3478,-198.5373 735.9234,-204.759 737.9316,-198.0533"/>
</g>
<!-- Node33&#45;&gt;Node21 -->
<g id="edge29" class="edge">
<title>Node33&#45;&gt;Node21</title>
<path fill="none" stroke="#191970" d="M881.6103,-235.2856C880.0917,-213.4483 879.0735,-159.5382 901.5,-123 931.6386,-73.897 992.0117,-40.7089 1030.2223,-23.608"/>
<polygon fill="#191970" stroke="#191970" points="1031.6515,-26.8032 1039.4274,-19.6071 1028.8611,-20.3834 1031.6515,-26.8032"/>
</g>
<!-- Node34 -->
<g id="node15" class="node">
<title>Node34</title>
<g id="a_node15"><a xlink:href="../../dd/dfd/StoichManager_8h.html" target="_top" xlink:title="StoichManager.h">
<polygon fill="#ffffff" stroke="#000000" points="723.5,-123.5 723.5,-142.5 815.5,-142.5 815.5,-123.5 723.5,-123.5"/>
<text text-anchor="middle" x="769.5" y="-130.5" font-family="Helvetica,sans-Serif" font-size="10.00" fill="#000000">StoichManager.h</text>
</a>
</g>
</g>
<!-- Node33&#45;&gt;Node34 -->
<g id="edge17" class="edge">
<title>Node33&#45;&gt;Node34</title>
<path fill="none" stroke="#191970" d="M872.8657,-235.4509C853.6851,-216.4401 810.5052,-173.6423 786.4662,-149.816"/>
<polygon fill="#191970" stroke="#191970" points="788.6762,-147.0786 779.1099,-142.5249 783.7485,-152.0503 788.6762,-147.0786"/>
</g>
<!-- Node33&#45;&gt;Node36 -->
<g id="edge20" class="edge">
<title>Node33&#45;&gt;Node36</title>
<path fill="none" stroke="#191970" d="M912.5917,-236.6162C946.1696,-227.2612 1000.82,-212.0352 1039.2642,-201.3244"/>
<polygon fill="#191970" stroke="#191970" points="1040.4619,-204.6241 1049.1556,-198.5686 1038.5832,-197.8809 1040.4619,-204.6241"/>
</g>
<!-- Node34&#45;&gt;Node4 -->
<g id="edge19" class="edge">
<title>Node34&#45;&gt;Node4</title>
<path fill="none" stroke="#191970" d="M723.2784,-127.3641C656.8109,-118.7905 540.8192,-101.893 528.5,-87 519.7183,-76.3836 521.5687,-67.9073 528.5,-56 537.1239,-41.185 552.4934,-30.752 567.5438,-23.6123"/>
<polygon fill="#191970" stroke="#191970" points="569.0356,-26.7802 576.8103,-19.5826 566.2441,-20.3609 569.0356,-26.7802"/>
</g>
<!-- Node34&#45;&gt;Node35 -->
<g id="edge18" class="edge">
<title>Node34&#45;&gt;Node35</title>
<path fill="none" stroke="#191970" d="M774.6563,-123.3906C779.4232,-114.5068 786.6385,-101.0601 792.5297,-90.0811"/>
<polygon fill="#191970" stroke="#191970" points="795.6269,-91.7114 797.2711,-81.2449 789.4588,-88.4016 795.6269,-91.7114"/>
</g>
<!-- Node37 -->
<g id="node18" class="node">
<title>Node37</title>
<g id="a_node18"><a xlink:href="../../de/df0/utilities_8h.html" target="_top" xlink:title="Various templated functions that carry out common vector operations (see Templated Utility Functions)...">
<polygon fill="#ffffff" stroke="#ff0000" points="1287.5,-123.5 1287.5,-142.5 1403.5,-142.5 1403.5,-123.5 1287.5,-123.5"/>
<text text-anchor="middle" x="1345.5" y="-130.5" font-family="Helvetica,sans-Serif" font-size="10.00" fill="#000000">cantera/base/utilities.h</text>
</a>
</g>
</g>
<!-- Node36&#45;&gt;Node37 -->
<g id="edge21" class="edge">
<title>Node36&#45;&gt;Node37</title>
<path fill="none" stroke="#191970" d="M1128.2417,-179.4369C1173.2694,-169.8127 1242.7728,-154.957 1290.9927,-144.6504"/>
<polygon fill="#191970" stroke="#191970" points="1291.8953,-148.0366 1300.9428,-142.5237 1290.4321,-141.1912 1291.8953,-148.0366"/>
</g>
<!-- Node40 -->
<g id="node19" class="node">
<title>Node40</title>
<g id="a_node19"><a xlink:href="../../da/d70/RxnRates_8h.html" target="_top" xlink:title="cantera/kinetics/RxnRates.h">
<polygon fill="#ffffff" stroke="#ff0000" points="910,-123.5 910,-142.5 1051,-142.5 1051,-123.5 910,-123.5"/>
<text text-anchor="middle" x="980.5" y="-130.5" font-family="Helvetica,sans-Serif" font-size="10.00" fill="#000000">cantera/kinetics/RxnRates.h</text>
</a>
</g>
</g>
<!-- Node36&#45;&gt;Node40 -->
<g id="edge23" class="edge">
<title>Node36&#45;&gt;Node40</title>
<path fill="none" stroke="#191970" d="M1065.5588,-179.2455C1049.46,-170.4928 1025.6121,-157.527 1007.2609,-147.5496"/>
<polygon fill="#191970" stroke="#191970" points="1008.6929,-144.3444 998.2356,-142.6427 1005.3493,-150.4942 1008.6929,-144.3444"/>
</g>
<!-- Node43 -->
<g id="node21" class="node">
<title>Node43</title>
<g id="a_node21"><a xlink:href="../../de/d72/Falloff_8h_source.html" target="_top" xlink:title="cantera/kinetics/Falloff.h">
<polygon fill="#ffffff" stroke="#000000" points="1069.5,-123.5 1069.5,-142.5 1193.5,-142.5 1193.5,-123.5 1069.5,-123.5"/>
<text text-anchor="middle" x="1131.5" y="-130.5" font-family="Helvetica,sans-Serif" font-size="10.00" fill="#000000">cantera/kinetics/Falloff.h</text>
</a>
</g>
</g>
<!-- Node36&#45;&gt;Node43 -->
<g id="edge27" class="edge">
<title>Node36&#45;&gt;Node43</title>
<path fill="none" stroke="#191970" d="M1091.861,-179.2455C1098.675,-171.2958 1108.4681,-159.8706 1116.6152,-150.3656"/>
<polygon fill="#191970" stroke="#191970" points="1119.3843,-152.513 1123.2349,-142.6427 1114.0695,-147.9575 1119.3843,-152.513"/>
</g>
<!-- Node37&#45;&gt;Node21 -->
<g id="edge22" class="edge">
<title>Node37&#45;&gt;Node21</title>
<path fill="none" stroke="#191970" d="M1342.2672,-123.4123C1336.1465,-106.8195 1321.2185,-72.9073 1296.5,-56 1270.0281,-37.8934 1189.4772,-24.7561 1130.7028,-17.2656"/>
<polygon fill="#191970" stroke="#191970" points="1131.092,-13.7871 1120.7357,-16.0224 1130.2256,-20.7333 1131.092,-13.7871"/>
</g>
<!-- Node40&#45;&gt;Node4 -->
<g id="edge25" class="edge">
<title>Node40&#45;&gt;Node4</title>
<path fill="none" stroke="#191970" d="M970.8807,-123.3676C953.6225,-106.7056 915.5426,-72.6897 876.5,-56 843.6915,-41.9752 755.9978,-28.4179 689.994,-19.6996"/>
<polygon fill="#191970" stroke="#191970" points="690.3801,-16.2204 680.011,-18.3958 689.4735,-23.1614 690.3801,-16.2204"/>
</g>
<!-- Node40&#45;&gt;Node35 -->
<g id="edge26" class="edge">
<title>Node40&#45;&gt;Node35</title>
<path fill="none" stroke="#191970" d="M952.6875,-123.3906C922.2517,-112.8749 873.3123,-95.966 839.6174,-84.3243"/>
<polygon fill="#191970" stroke="#191970" points="840.712,-80.9995 830.1172,-81.0419 838.426,-87.6157 840.712,-80.9995"/>
</g>
<!-- Node41 -->
<g id="node20" class="node">
<title>Node41</title>
<g id="a_node20"><a xlink:href="../../df/de6/reaction__defs_8h.html" target="_top" xlink:title="This file defines some constants used to specify reaction types. ">
<polygon fill="#ffffff" stroke="#ff0000" points="1003.5,-56.5 1003.5,-86.5 1127.5,-86.5 1127.5,-56.5 1003.5,-56.5"/>
<text text-anchor="start" x="1011.5" y="-74.5" font-family="Helvetica,sans-Serif" font-size="10.00" fill="#000000">cantera/kinetics/reaction</text>
<text text-anchor="middle" x="1065.5" y="-63.5" font-family="Helvetica,sans-Serif" font-size="10.00" fill="#000000">_defs.h</text>
</a>
</g>
</g>
<!-- Node40&#45;&gt;Node41 -->
<g id="edge24" class="edge">
<title>Node40&#45;&gt;Node41</title>
<path fill="none" stroke="#191970" d="M993.7813,-123.3906C1005.1784,-115.1444 1022.0092,-102.9669 1036.5023,-92.4807"/>
<polygon fill="#191970" stroke="#191970" points="1038.6565,-95.2421 1044.7067,-86.5446 1034.5532,-89.5709 1038.6565,-95.2421"/>
</g>
<!-- Node43&#45;&gt;Node41 -->
<g id="edge28" class="edge">
<title>Node43&#45;&gt;Node41</title>
<path fill="none" stroke="#191970" d="M1121.1875,-123.3906C1112.586,-115.3756 1099.9988,-103.6466 1088.9666,-93.3666"/>
<polygon fill="#191970" stroke="#191970" points="1091.3476,-90.8012 1081.6454,-86.5446 1086.5755,-95.9225 1091.3476,-90.8012"/>
</g>
<!-- Node44&#45;&gt;Node40 -->
<g id="edge31" class="edge">
<title>Node44&#45;&gt;Node40</title>
<path fill="none" stroke="#191970" d="M958.203,-179.2455C961.8424,-171.6973 966.9924,-161.0158 971.4262,-151.8197"/>
<polygon fill="#191970" stroke="#191970" points="974.6605,-153.1704 975.8509,-142.6427 968.3551,-150.1303 974.6605,-153.1704"/>
</g>
<!-- Node45&#45;&gt;Node37 -->
<g id="edge33" class="edge">
<title>Node45&#45;&gt;Node37</title>
<path fill="none" stroke="#191970" d="M1299.8404,-291.2665C1307.6983,-282.4965 1318.5734,-268.8827 1324.5,-255 1338.9964,-221.0431 1343.4937,-177.7206 1344.8838,-152.8942"/>
<polygon fill="#191970" stroke="#191970" points="1348.3936,-152.7458 1345.3378,-142.6012 1341.4004,-152.4372 1348.3936,-152.7458"/>
</g>
<!-- Node46 -->
<g id="node24" class="node">
<title>Node46</title>
<polygon fill="#ffffff" stroke="#bfbfbf" points="1266,-235.5 1266,-254.5 1315,-254.5 1315,-235.5 1266,-235.5"/>
<text text-anchor="middle" x="1290.5" y="-242.5" font-family="Helvetica,sans-Serif" font-size="10.00" fill="#000000">cassert</text>
</g>
<!-- Node45&#45;&gt;Node46 -->
<g id="edge34" class="edge">
<title>Node45&#45;&gt;Node46</title>
<path fill="none" stroke="#191970" d="M1290.5,-291.2455C1290.5,-283.9382 1290.5,-273.6944 1290.5,-264.7046"/>
<polygon fill="#191970" stroke="#191970" points="1294.0001,-264.6426 1290.5,-254.6427 1287.0001,-264.6427 1294.0001,-264.6426"/>
</g>
<!-- Node47&#45;&gt;Node21 -->
<g id="edge42" class="edge">
<title>Node47&#45;&gt;Node21</title>
<path fill="none" stroke="#191970" d="M1238.9198,-235.4797C1288.6174,-216.9767 1392.8024,-175.1571 1412.5,-143 1417.143,-135.4201 1416.4465,-130.9648 1412.5,-123 1390.6755,-78.9536 1369.5253,-75.7261 1324.5,-56 1290.6233,-41.1582 1196.1487,-26.7501 1130.931,-18.1259"/>
<polygon fill="#191970" stroke="#191970" points="1131.0983,-14.6181 1120.729,-16.7923 1130.1909,-21.559 1131.0983,-14.6181"/>
</g>
<!-- Node47&#45;&gt;Node41 -->
<g id="edge36" class="edge">
<title>Node47&#45;&gt;Node41</title>
<path fill="none" stroke="#191970" d="M1229.5713,-235.332C1248.3341,-223.331 1274.5689,-201.6626 1264.5,-179 1249.4236,-145.0667 1234.2122,-142.3158 1202.5,-123 1179.8983,-109.2333 1153.0112,-98.1441 1129.0666,-89.8324"/>
<polygon fill="#191970" stroke="#191970" points="1129.9502,-86.4367 1119.356,-86.5554 1127.7119,-93.0692 1129.9502,-86.4367"/>
</g>
<!-- Node48 -->
<g id="node26" class="node">
<title>Node48</title>
<g id="a_node26"><a xlink:href="../../d1/dbb/FalloffFactory_8h.html" target="_top" xlink:title="Parameterizations for reaction falloff functions. ">
<polygon fill="#ffffff" stroke="#000000" points="1170,-179.5 1170,-198.5 1255,-198.5 1255,-179.5 1170,-179.5"/>
<text text-anchor="middle" x="1212.5" y="-186.5" font-family="Helvetica,sans-Serif" font-size="10.00" fill="#000000">FalloffFactory.h</text>
</a>
</g>
</g>
<!-- Node47&#45;&gt;Node48 -->
<g id="edge37" class="edge">
<title>Node47&#45;&gt;Node48</title>
<path fill="none" stroke="#191970" d="M1212.5,-235.2455C1212.5,-227.9382 1212.5,-217.6944 1212.5,-208.7046"/>
<polygon fill="#191970" stroke="#191970" points="1216.0001,-208.6426 1212.5,-198.6427 1209.0001,-208.6427 1216.0001,-208.6426"/>
</g>
<!-- Node48&#45;&gt;Node43 -->
<g id="edge41" class="edge">
<title>Node48&#45;&gt;Node43</title>
<path fill="none" stroke="#191970" d="M1198.3909,-179.2455C1186.0791,-170.7337 1168.0042,-158.2375 1153.7462,-148.3801"/>
<polygon fill="#191970" stroke="#191970" points="1155.6634,-145.4506 1145.4474,-142.6427 1151.6826,-151.2085 1155.6634,-145.4506"/>
</g>
<!-- Node49 -->
<g id="node27" class="node">
<title>Node49</title>
<g id="a_node27"><a xlink:href="../../d6/dd5/FactoryBase_8h.html" target="_top" xlink:title="File contains the FactoryBase class declarations. ">
<polygon fill="#ffffff" stroke="#ff0000" points="1145.5,-62 1145.5,-81 1287.5,-81 1287.5,-62 1145.5,-62"/>
<text text-anchor="middle" x="1216.5" y="-69" font-family="Helvetica,sans-Serif" font-size="10.00" fill="#000000">cantera/base/FactoryBase.h</text>
</a>
</g>
</g>
<!-- Node48&#45;&gt;Node49 -->
<g id="edge38" class="edge">
<title>Node48&#45;&gt;Node49</title>
<path fill="none" stroke="#191970" d="M1212.8273,-179.3845C1213.4807,-160.1913 1214.9583,-116.786 1215.8271,-91.2663"/>
<polygon fill="#191970" stroke="#191970" points="1219.3258,-91.3617 1216.1681,-81.2484 1212.3298,-91.1235 1219.3258,-91.3617"/>
</g>
<!-- Node49&#45;&gt;Node4 -->
<g id="edge39" class="edge">
<title>Node49&#45;&gt;Node4</title>
<path fill="none" stroke="#191970" d="M1171.7879,-61.9833C1160.3251,-59.7787 1147.9884,-57.6099 1136.5,-56 979.1621,-33.9524 793.822,-20.697 690.1685,-14.4187"/>
<polygon fill="#191970" stroke="#191970" points="690.2809,-10.9193 680.0894,-13.8147 689.8621,-17.9067 690.2809,-10.9193"/>
</g>
<!-- Node49&#45;&gt;Node21 -->
<g id="edge40" class="edge">
<title>Node49&#45;&gt;Node21</title>
<path fill="none" stroke="#191970" d="M1192.75,-61.8906C1167.2061,-51.5554 1126.3991,-35.0447 1097.689,-23.4284"/>
<polygon fill="#191970" stroke="#191970" points="1098.666,-20.0481 1088.0832,-19.5419 1096.0404,-26.5371 1098.666,-20.0481"/>
</g>
<!-- Node52&#45;&gt;Node33 -->
<g id="edge45" class="edge">
<title>Node52&#45;&gt;Node33</title>
<path fill="none" stroke="#191970" d="M894.3916,-347.4509C892.2714,-329.184 887.602,-288.9553 884.7863,-264.6976"/>
<polygon fill="#191970" stroke="#191970" points="888.2353,-264.0546 883.6056,-254.5249 881.282,-264.8618 888.2353,-264.0546"/>
</g>
</g>
</svg>
