<?xml version="1.0" encoding="UTF-8" standalone="no"?>
<!DOCTYPE svg PUBLIC "-//W3C//DTD SVG 1.1//EN"
 "http://www.w3.org/Graphics/SVG/1.1/DTD/svg11.dtd">
<!-- Generated by graphviz version 2.43.0 (0)
 -->
<!-- Title: FalloffMgr Pages: 1 -->
<svg width="168pt" height="209pt"
 viewBox="0.00 0.00 167.50 209.00" xmlns="http://www.w3.org/2000/svg" xmlns:xlink="http://www.w3.org/1999/xlink">
<g id="graph0" class="graph" transform="scale(1 1) rotate(0) translate(4 205)">
<title>FalloffMgr</title>
<polygon fill="white" stroke="transparent" points="-4,4 -4,-205 163.5,-205 163.5,4 -4,4"/>
<!-- Node1 -->
<g id="node1" class="node">
<title>Node1</title>
<g id="a_node1"><a xlink:title="A falloff manager that implements any set of falloff functions.">
<polygon fill="#bfbfbf" stroke="black" points="19.5,-0.5 19.5,-19.5 84.5,-19.5 84.5,-0.5 19.5,-0.5"/>
<text text-anchor="middle" x="52" y="-7.5" font-family="Helvetica,sans-Serif" font-size="10.00">FalloffMgr</text>
</a>
</g>
</g>
<!-- Node2 -->
<g id="node2" class="node">
<title>Node2</title>
<g id="a_node2"><a xlink:href="../../d1/d00/classCantera_1_1FalloffFactory.html" target="_top" xlink:title="Factory class to construct falloff function calculators.">
<polygon fill="white" stroke="black" points="11.5,-67.5 11.5,-86.5 92.5,-86.5 92.5,-67.5 11.5,-67.5"/>
<text text-anchor="middle" x="52" y="-74.5" font-family="Helvetica,sans-Serif" font-size="10.00">FalloffFactory</text>
</a>
</g>
</g>
<!-- Node2&#45;&gt;Node1 -->
<g id="edge1" class="edge">
<title>Node2&#45;&gt;Node1</title>
<path fill="none" stroke="#9a32cd" stroke-dasharray="5,2" d="M52,-57.04C52,-44.67 52,-29.12 52,-19.63"/>
<polygon fill="#9a32cd" stroke="#9a32cd" points="48.5,-57.23 52,-67.23 55.5,-57.23 48.5,-57.23"/>
<text text-anchor="middle" x="78.5" y="-41" font-family="Helvetica,sans-Serif" font-size="10.00"> m_factory</text>
</g>
<!-- Node2&#45;&gt;Node2 -->
<g id="edge4" class="edge">
<title>Node2&#45;&gt;Node2</title>
<path fill="none" stroke="#9a32cd" stroke-dasharray="5,2" d="M102.82,-81.2C107.53,-80.33 110.5,-78.93 110.5,-77 110.5,-73.91 102.9,-72.18 92.73,-71.82"/>
<polygon fill="#9a32cd" stroke="#9a32cd" points="102.35,-77.72 92.73,-82.18 103.03,-84.69 102.35,-77.72"/>
<text text-anchor="middle" x="135" y="-74.5" font-family="Helvetica,sans-Serif" font-size="10.00"> s_factory</text>
</g>
<!-- Node3 -->
<g id="node3" class="node">
<title>Node3</title>
<g id="a_node3"><a xlink:href="../../dc/dd4/classCantera_1_1Factory.html" target="_top" xlink:title=" ">
<polygon fill="white" stroke="black" points="0,-124.5 0,-143.5 104,-143.5 104,-124.5 0,-124.5"/>
<text text-anchor="middle" x="52" y="-131.5" font-family="Helvetica,sans-Serif" font-size="10.00">Factory&lt; Falloff &gt;</text>
</a>
</g>
</g>
<!-- Node3&#45;&gt;Node2 -->
<g id="edge2" class="edge">
<title>Node3&#45;&gt;Node2</title>
<path fill="none" stroke="midnightblue" d="M52,-114.12C52,-104.82 52,-94.06 52,-86.71"/>
<polygon fill="midnightblue" stroke="midnightblue" points="48.5,-114.41 52,-124.41 55.5,-114.41 48.5,-114.41"/>
</g>
<!-- Node4 -->
<g id="node4" class="node">
<title>Node4</title>
<g id="a_node4"><a xlink:href="../../da/dac/classCantera_1_1FactoryBase.html" target="_top" xlink:title="Base class for factories.">
<polygon fill="white" stroke="black" points="14,-181.5 14,-200.5 90,-200.5 90,-181.5 14,-181.5"/>
<text text-anchor="middle" x="52" y="-188.5" font-family="Helvetica,sans-Serif" font-size="10.00">FactoryBase</text>
</a>
</g>
</g>
<!-- Node4&#45;&gt;Node3 -->
<g id="edge3" class="edge">
<title>Node4&#45;&gt;Node3</title>
<path fill="none" stroke="midnightblue" d="M52,-171.12C52,-161.82 52,-151.06 52,-143.71"/>
<polygon fill="midnightblue" stroke="midnightblue" points="48.5,-171.41 52,-181.41 55.5,-171.41 48.5,-171.41"/>
</g>
</g>
</svg>
