<?xml version="1.0" encoding="UTF-8" standalone="no"?>
<!DOCTYPE svg PUBLIC "-//W3C//DTD SVG 1.1//EN"
 "http://www.w3.org/Graphics/SVG/1.1/DTD/svg11.dtd">
<!-- Generated by graphviz version 2.43.0 (0)
 -->
<!-- Title: InterfaceReaction Pages: 1 -->
<svg width="145pt" height="196pt"
 viewBox="0.00 0.00 145.00 196.00" xmlns="http://www.w3.org/2000/svg" xmlns:xlink="http://www.w3.org/1999/xlink">
<g id="graph0" class="graph" transform="scale(1 1) rotate(0) translate(4 192)">
<title>InterfaceReaction</title>
<polygon fill="white" stroke="transparent" points="-4,4 -4,-192 141,-192 141,4 -4,4"/>
<!-- Node1 -->
<g id="node1" class="node">
<title>Node1</title>
<g id="a_node1"><a xlink:title="A reaction occurring on an interface (i.e. a SurfPhase or an EdgePhase)">
<polygon fill="#bfbfbf" stroke="black" points="17,-56.5 17,-75.5 120,-75.5 120,-56.5 17,-56.5"/>
<text text-anchor="middle" x="68.5" y="-63.5" font-family="Helvetica,sans-Serif" font-size="10.00">InterfaceReaction</text>
</a>
</g>
</g>
<!-- Node4 -->
<g id="node4" class="node">
<title>Node4</title>
<g id="a_node4"><a xlink:href="../../d6/ddd/classCantera_1_1ElectrochemicalReaction.html" target="_top" xlink:title="An interface reaction which involves charged species.">
<polygon fill="white" stroke="black" points="0,-0.5 0,-19.5 137,-19.5 137,-0.5 0,-0.5"/>
<text text-anchor="middle" x="68.5" y="-7.5" font-family="Helvetica,sans-Serif" font-size="10.00">ElectrochemicalReaction</text>
</a>
</g>
</g>
<!-- Node1&#45;&gt;Node4 -->
<g id="edge3" class="edge">
<title>Node1&#45;&gt;Node4</title>
<path fill="none" stroke="midnightblue" d="M68.5,-45.8C68.5,-36.91 68.5,-26.78 68.5,-19.75"/>
<polygon fill="midnightblue" stroke="midnightblue" points="65,-46.08 68.5,-56.08 72,-46.08 65,-46.08"/>
</g>
<!-- Node2 -->
<g id="node2" class="node">
<title>Node2</title>
<g id="a_node2"><a xlink:href="../../da/de7/classCantera_1_1ElementaryReaction.html" target="_top" xlink:title="A reaction which follows mass&#45;action kinetics with a modified Arrhenius reaction rate.">
<polygon fill="white" stroke="black" points="10.5,-112.5 10.5,-131.5 126.5,-131.5 126.5,-112.5 10.5,-112.5"/>
<text text-anchor="middle" x="68.5" y="-119.5" font-family="Helvetica,sans-Serif" font-size="10.00">ElementaryReaction</text>
</a>
</g>
</g>
<!-- Node2&#45;&gt;Node1 -->
<g id="edge1" class="edge">
<title>Node2&#45;&gt;Node1</title>
<path fill="none" stroke="midnightblue" d="M68.5,-101.8C68.5,-92.91 68.5,-82.78 68.5,-75.75"/>
<polygon fill="midnightblue" stroke="midnightblue" points="65,-102.08 68.5,-112.08 72,-102.08 65,-102.08"/>
</g>
<!-- Node3 -->
<g id="node3" class="node">
<title>Node3</title>
<g id="a_node3"><a xlink:href="../../d5/d66/classCantera_1_1Reaction.html" target="_top" xlink:title="Intermediate class which stores data about a reaction and its rate parameterization so that it can be...">
<polygon fill="white" stroke="black" points="39,-168.5 39,-187.5 98,-187.5 98,-168.5 39,-168.5"/>
<text text-anchor="middle" x="68.5" y="-175.5" font-family="Helvetica,sans-Serif" font-size="10.00">Reaction</text>
</a>
</g>
</g>
<!-- Node3&#45;&gt;Node2 -->
<g id="edge2" class="edge">
<title>Node3&#45;&gt;Node2</title>
<path fill="none" stroke="midnightblue" d="M68.5,-157.8C68.5,-148.91 68.5,-138.78 68.5,-131.75"/>
<polygon fill="midnightblue" stroke="midnightblue" points="65,-158.08 68.5,-168.08 72,-158.08 65,-158.08"/>
</g>
</g>
</svg>
