<?xml version="1.0" encoding="UTF-8" standalone="no"?>
<!DOCTYPE svg PUBLIC "-//W3C//DTD SVG 1.1//EN"
 "http://www.w3.org/Graphics/SVG/1.1/DTD/svg11.dtd">
<!-- Generated by graphviz version 2.40.1 (20161225.0304)
 -->
<!-- Title: ImplicitSurfChem.h Pages: 1 -->
<svg width="1186pt" height="543pt"
 viewBox="0.00 0.00 1186.00 543.00" xmlns="http://www.w3.org/2000/svg" xmlns:xlink="http://www.w3.org/1999/xlink">
<g id="graph0" class="graph" transform="scale(1 1) rotate(0) translate(4 539)">
<title>ImplicitSurfChem.h</title>
<polygon fill="#ffffff" stroke="transparent" points="-4,4 -4,-539 1182,-539 1182,4 -4,4"/>
<!-- Node0 -->
<g id="node1" class="node">
<title>Node0</title>
<polygon fill="#bfbfbf" stroke="#000000" points="633,-515.5 633,-534.5 734,-534.5 734,-515.5 633,-515.5"/>
<text text-anchor="middle" x="683.5" y="-522.5" font-family="Helvetica,sans-Serif" font-size="10.00" fill="#000000">ImplicitSurfChem.h</text>
</g>
<!-- Node1 -->
<g id="node2" class="node">
<title>Node1</title>
<g id="a_node2"><a xlink:href="../../d8/d97/Integrator_8h.html" target="_top" xlink:title="cantera/numerics/Integrator.h">
<polygon fill="#ffffff" stroke="#000000" points="0,-280.5 0,-299.5 147,-299.5 147,-280.5 0,-280.5"/>
<text text-anchor="middle" x="73.5" y="-287.5" font-family="Helvetica,sans-Serif" font-size="10.00" fill="#000000">cantera/numerics/Integrator.h</text>
</a>
</g>
</g>
<!-- Node0&#45;&gt;Node1 -->
<g id="edge1" class="edge">
<title>Node0&#45;&gt;Node1</title>
<path fill="none" stroke="#191970" d="M658.8318,-515.4967C563.4157,-478.738 218.3753,-345.8126 107.8302,-303.2256"/>
<polygon fill="#191970" stroke="#191970" points="109.0649,-299.9505 98.4752,-299.6216 106.5484,-306.4826 109.0649,-299.9505"/>
</g>
<!-- Node18 -->
<g id="node17" class="node">
<title>Node18</title>
<g id="a_node17"><a xlink:href="../../d7/d0d/InterfaceKinetics_8h.html" target="_top" xlink:title="cantera/kinetics/Interface\lKinetics.h">
<polygon fill="#ffffff" stroke="#000000" points="667.5,-392.5 667.5,-422.5 795.5,-422.5 795.5,-392.5 667.5,-392.5"/>
<text text-anchor="start" x="675.5" y="-410.5" font-family="Helvetica,sans-Serif" font-size="10.00" fill="#000000">cantera/kinetics/Interface</text>
<text text-anchor="middle" x="731.5" y="-399.5" font-family="Helvetica,sans-Serif" font-size="10.00" fill="#000000">Kinetics.h</text>
</a>
</g>
</g>
<!-- Node0&#45;&gt;Node18 -->
<g id="edge20" class="edge">
<title>Node0&#45;&gt;Node18</title>
<path fill="none" stroke="#191970" d="M685.5319,-515.3634C688.4533,-502.2934 694.394,-478.357 702.5,-459 706.4003,-449.6861 711.5872,-439.923 716.4952,-431.4322"/>
<polygon fill="#191970" stroke="#191970" points="719.5267,-433.1821 721.6374,-422.7996 713.5128,-429.5997 719.5267,-433.1821"/>
</g>
<!-- Node45 -->
<g id="node30" class="node">
<title>Node45</title>
<g id="a_node30"><a xlink:href="../../d2/d25/solveSP_8h.html" target="_top" xlink:title="Header file for implicit surface problem solver (see Chemical Kinetics and class solveSP). ">
<polygon fill="#ffffff" stroke="#000000" points="711.5,-459.5 711.5,-478.5 845.5,-478.5 845.5,-459.5 711.5,-459.5"/>
<text text-anchor="middle" x="778.5" y="-466.5" font-family="Helvetica,sans-Serif" font-size="10.00" fill="#000000">cantera/kinetics/solveSP.h</text>
</a>
</g>
</g>
<!-- Node0&#45;&gt;Node45 -->
<g id="edge47" class="edge">
<title>Node0&#45;&gt;Node45</title>
<path fill="none" stroke="#191970" d="M700.0477,-515.2455C714.7599,-506.5731 736.4888,-493.7645 753.3505,-483.825"/>
<polygon fill="#191970" stroke="#191970" points="755.3046,-486.736 762.1419,-478.6427 751.7498,-480.7057 755.3046,-486.736"/>
</g>
<!-- Node2 -->
<g id="node3" class="node">
<title>Node2</title>
<g id="a_node3"><a xlink:href="../../da/d37/FuncEval_8h.html" target="_top" xlink:title="FuncEval.h">
<polygon fill="#ffffff" stroke="#000000" points="41,-224.5 41,-243.5 108,-243.5 108,-224.5 41,-224.5"/>
<text text-anchor="middle" x="74.5" y="-231.5" font-family="Helvetica,sans-Serif" font-size="10.00" fill="#000000">FuncEval.h</text>
</a>
</g>
</g>
<!-- Node1&#45;&gt;Node2 -->
<g id="edge2" class="edge">
<title>Node1&#45;&gt;Node2</title>
<path fill="none" stroke="#191970" d="M73.6742,-280.2455C73.8047,-272.9382 73.9876,-262.6944 74.1481,-253.7046"/>
<polygon fill="#191970" stroke="#191970" points="77.6486,-253.7036 74.3278,-243.6427 70.6497,-253.5786 77.6486,-253.7036"/>
</g>
<!-- Node17 -->
<g id="node16" class="node">
<title>Node17</title>
<g id="a_node16"><a xlink:href="../../d2/d49/global_8h.html" target="_top" xlink:title="This file contains definitions for utility functions and text for modules, inputfiles, logs, textlogs, (see Input File Handling, Diagnostic Output, and Writing messages to the screen). ">
<polygon fill="#ffffff" stroke="#000000" points="156.5,-168.5 156.5,-187.5 268.5,-187.5 268.5,-168.5 156.5,-168.5"/>
<text text-anchor="middle" x="212.5" y="-175.5" font-family="Helvetica,sans-Serif" font-size="10.00" fill="#000000">cantera/base/global.h</text>
</a>
</g>
</g>
<!-- Node1&#45;&gt;Node17 -->
<g id="edge19" class="edge">
<title>Node1&#45;&gt;Node17</title>
<path fill="none" stroke="#191970" d="M85.3511,-280.4509C109.2527,-261.1921 163.4506,-217.5218 192.775,-193.8935"/>
<polygon fill="#191970" stroke="#191970" points="195.0881,-196.5245 200.6789,-187.5249 190.6961,-191.0738 195.0881,-196.5245"/>
</g>
<!-- Node3 -->
<g id="node4" class="node">
<title>Node3</title>
<g id="a_node4"><a xlink:href="../../d9/ddc/ct__defs_8h.html" target="_top" xlink:title="This file contains definitions of terms that are used in internal routines and are unlikely to need m...">
<polygon fill="#ffffff" stroke="#000000" points="337.5,-56.5 337.5,-75.5 455.5,-75.5 455.5,-56.5 337.5,-56.5"/>
<text text-anchor="middle" x="396.5" y="-63.5" font-family="Helvetica,sans-Serif" font-size="10.00" fill="#000000">cantera/base/ct_defs.h</text>
</a>
</g>
</g>
<!-- Node2&#45;&gt;Node3 -->
<g id="edge3" class="edge">
<title>Node2&#45;&gt;Node3</title>
<path fill="none" stroke="#191970" d="M83.1004,-224.3357C95.9577,-210.3588 121.4753,-184.3864 147.5,-168 214.5808,-125.7628 302.1341,-94.7041 353.5473,-78.5621"/>
<polygon fill="#191970" stroke="#191970" points="354.8134,-81.8341 363.3313,-75.5337 352.7435,-75.1471 354.8134,-81.8341"/>
</g>
<!-- Node12 -->
<g id="node13" class="node">
<title>Node12</title>
<g id="a_node13"><a xlink:href="../../db/d98/ctexceptions_8h.html" target="_top" xlink:title="Definitions for the classes that are thrown when Cantera experiences an error condition (also contain...">
<polygon fill="#ffffff" stroke="#000000" points="354,-168.5 354,-187.5 495,-187.5 495,-168.5 354,-168.5"/>
<text text-anchor="middle" x="424.5" y="-175.5" font-family="Helvetica,sans-Serif" font-size="10.00" fill="#000000">cantera/base/ctexceptions.h</text>
</a>
</g>
</g>
<!-- Node2&#45;&gt;Node12 -->
<g id="edge12" class="edge">
<title>Node2&#45;&gt;Node12</title>
<path fill="none" stroke="#191970" d="M108.0595,-228.6305C164.6,-219.584 279.9756,-201.1239 354.6859,-189.1703"/>
<polygon fill="#191970" stroke="#191970" points="355.6262,-192.5644 364.9476,-187.5284 354.5202,-185.6523 355.6262,-192.5644"/>
</g>
<!-- Node2&#45;&gt;Node17 -->
<g id="edge16" class="edge">
<title>Node2&#45;&gt;Node17</title>
<path fill="none" stroke="#191970" d="M98.223,-224.3733C120.6737,-215.2629 154.5739,-201.5062 179.6255,-191.3404"/>
<polygon fill="#191970" stroke="#191970" points="181.1365,-194.5045 189.0865,-187.5011 178.5043,-188.0182 181.1365,-194.5045"/>
</g>
<!-- Node4 -->
<g id="node5" class="node">
<title>Node4</title>
<g id="a_node5"><a xlink:href="../../db/d16/config_8h_source.html" target="_top" xlink:title="config.h">
<polygon fill="#ffffff" stroke="#000000" points="120.5,-.5 120.5,-19.5 172.5,-19.5 172.5,-.5 120.5,-.5"/>
<text text-anchor="middle" x="146.5" y="-7.5" font-family="Helvetica,sans-Serif" font-size="10.00" fill="#000000">config.h</text>
</a>
</g>
</g>
<!-- Node3&#45;&gt;Node4 -->
<g id="edge4" class="edge">
<title>Node3&#45;&gt;Node4</title>
<path fill="none" stroke="#191970" d="M347.1829,-56.4338C305.6842,-48.162 244.5739,-35.4646 182.748,-20.1985"/>
<polygon fill="#191970" stroke="#191970" points="183.3715,-16.7469 172.8221,-17.7266 181.6799,-23.5395 183.3715,-16.7469"/>
</g>
<!-- Node5 -->
<g id="node6" class="node">
<title>Node5</title>
<polygon fill="#ffffff" stroke="#bfbfbf" points="190.5,-.5 190.5,-19.5 234.5,-19.5 234.5,-.5 190.5,-.5"/>
<text text-anchor="middle" x="212.5" y="-7.5" font-family="Helvetica,sans-Serif" font-size="10.00" fill="#000000">cmath</text>
</g>
<!-- Node3&#45;&gt;Node5 -->
<g id="edge5" class="edge">
<title>Node3&#45;&gt;Node5</title>
<path fill="none" stroke="#191970" d="M364.2064,-56.4947C335.2,-47.9119 291.2084,-34.7846 244.5184,-20.2798"/>
<polygon fill="#191970" stroke="#191970" points="245.4226,-16.8956 234.8341,-17.2634 243.3408,-23.5789 245.4226,-16.8956"/>
</g>
<!-- Node6 -->
<g id="node7" class="node">
<title>Node6</title>
<polygon fill="#ffffff" stroke="#bfbfbf" points="253,-.5 253,-19.5 298,-19.5 298,-.5 253,-.5"/>
<text text-anchor="middle" x="275.5" y="-7.5" font-family="Helvetica,sans-Serif" font-size="10.00" fill="#000000">cstdlib</text>
</g>
<!-- Node3&#45;&gt;Node6 -->
<g id="edge6" class="edge">
<title>Node3&#45;&gt;Node6</title>
<path fill="none" stroke="#191970" d="M375.6994,-56.3733C356.2757,-47.3838 327.0776,-33.8706 305.2036,-23.7471"/>
<polygon fill="#191970" stroke="#191970" points="306.5745,-20.5249 296.0292,-19.5011 303.6344,-26.8776 306.5745,-20.5249"/>
</g>
<!-- Node7 -->
<g id="node8" class="node">
<title>Node7</title>
<polygon fill="#ffffff" stroke="#bfbfbf" points="316.5,-.5 316.5,-19.5 360.5,-19.5 360.5,-.5 316.5,-.5"/>
<text text-anchor="middle" x="338.5" y="-7.5" font-family="Helvetica,sans-Serif" font-size="10.00" fill="#000000">vector</text>
</g>
<!-- Node3&#45;&gt;Node7 -->
<g id="edge7" class="edge">
<title>Node3&#45;&gt;Node7</title>
<path fill="none" stroke="#191970" d="M386.3972,-56.2455C377.9972,-48.1352 365.8506,-36.4075 355.8916,-26.7919"/>
<polygon fill="#191970" stroke="#191970" points="358.1122,-24.0707 348.4871,-19.6427 353.25,-29.1066 358.1122,-24.0707"/>
</g>
<!-- Node8 -->
<g id="node9" class="node">
<title>Node8</title>
<polygon fill="#ffffff" stroke="#bfbfbf" points="378.5,-.5 378.5,-19.5 414.5,-19.5 414.5,-.5 378.5,-.5"/>
<text text-anchor="middle" x="396.5" y="-7.5" font-family="Helvetica,sans-Serif" font-size="10.00" fill="#000000">map</text>
</g>
<!-- Node3&#45;&gt;Node8 -->
<g id="edge8" class="edge">
<title>Node3&#45;&gt;Node8</title>
<path fill="none" stroke="#191970" d="M396.5,-56.2455C396.5,-48.9382 396.5,-38.6944 396.5,-29.7046"/>
<polygon fill="#191970" stroke="#191970" points="400.0001,-29.6426 396.5,-19.6427 393.0001,-29.6427 400.0001,-29.6426"/>
</g>
<!-- Node9 -->
<g id="node10" class="node">
<title>Node9</title>
<polygon fill="#ffffff" stroke="#bfbfbf" points="580,-.5 580,-19.5 621,-19.5 621,-.5 580,-.5"/>
<text text-anchor="middle" x="600.5" y="-7.5" font-family="Helvetica,sans-Serif" font-size="10.00" fill="#000000">string</text>
</g>
<!-- Node3&#45;&gt;Node9 -->
<g id="edge9" class="edge">
<title>Node3&#45;&gt;Node9</title>
<path fill="none" stroke="#191970" d="M435.3973,-56.4669C468.7169,-48.1336 518.1728,-35.3704 570.1637,-19.9649"/>
<polygon fill="#191970" stroke="#191970" points="571.3173,-23.2732 579.8977,-17.058 569.3143,-16.5659 571.3173,-23.2732"/>
</g>
<!-- Node10 -->
<g id="node11" class="node">
<title>Node10</title>
<polygon fill="#ffffff" stroke="#bfbfbf" points="432.5,-.5 432.5,-19.5 490.5,-19.5 490.5,-.5 432.5,-.5"/>
<text text-anchor="middle" x="461.5" y="-7.5" font-family="Helvetica,sans-Serif" font-size="10.00" fill="#000000">algorithm</text>
</g>
<!-- Node3&#45;&gt;Node10 -->
<g id="edge10" class="edge">
<title>Node3&#45;&gt;Node10</title>
<path fill="none" stroke="#191970" d="M407.8221,-56.2455C417.4223,-47.9746 431.3892,-35.9416 442.6695,-26.2232"/>
<polygon fill="#191970" stroke="#191970" points="445.016,-28.8214 450.3076,-19.6427 440.447,-23.5182 445.016,-28.8214"/>
</g>
<!-- Node11 -->
<g id="node12" class="node">
<title>Node11</title>
<polygon fill="#ffffff" stroke="#bfbfbf" points="509,-.5 509,-19.5 562,-19.5 562,-.5 509,-.5"/>
<text text-anchor="middle" x="535.5" y="-7.5" font-family="Helvetica,sans-Serif" font-size="10.00" fill="#000000">memory</text>
</g>
<!-- Node3&#45;&gt;Node11 -->
<g id="edge11" class="edge">
<title>Node3&#45;&gt;Node11</title>
<path fill="none" stroke="#191970" d="M420.395,-56.3733C443.0082,-47.2629 477.1542,-33.5062 502.3873,-23.3404"/>
<polygon fill="#191970" stroke="#191970" points="503.9493,-26.4845 511.9169,-19.5011 501.3334,-19.9917 503.9493,-26.4845"/>
</g>
<!-- Node13 -->
<g id="node14" class="node">
<title>Node13</title>
<g id="a_node14"><a xlink:href="../../db/def/fmt_8h.html" target="_top" xlink:title="Wrapper for either system&#45;installed or local headers for fmt. ">
<polygon fill="#ffffff" stroke="#ff0000" points="347,-112.5 347,-131.5 446,-131.5 446,-112.5 347,-112.5"/>
<text text-anchor="middle" x="396.5" y="-119.5" font-family="Helvetica,sans-Serif" font-size="10.00" fill="#000000">cantera/base/fmt.h</text>
</a>
</g>
</g>
<!-- Node12&#45;&gt;Node13 -->
<g id="edge13" class="edge">
<title>Node12&#45;&gt;Node13</title>
<path fill="none" stroke="#191970" d="M419.6228,-168.2455C415.8487,-160.6973 410.5079,-150.0158 405.9099,-140.8197"/>
<polygon fill="#191970" stroke="#191970" points="408.924,-139.0217 401.3213,-131.6427 402.663,-142.1522 408.924,-139.0217"/>
</g>
<!-- Node16 -->
<g id="node15" class="node">
<title>Node16</title>
<polygon fill="#ffffff" stroke="#bfbfbf" points="464,-112.5 464,-131.5 523,-131.5 523,-112.5 464,-112.5"/>
<text text-anchor="middle" x="493.5" y="-119.5" font-family="Helvetica,sans-Serif" font-size="10.00" fill="#000000">exception</text>
</g>
<!-- Node12&#45;&gt;Node16 -->
<g id="edge15" class="edge">
<title>Node12&#45;&gt;Node16</title>
<path fill="none" stroke="#191970" d="M436.5189,-168.2455C446.7098,-159.9746 461.5362,-147.9416 473.5107,-138.2232"/>
<polygon fill="#191970" stroke="#191970" points="476.0598,-140.662 481.6188,-131.6427 471.6486,-135.2268 476.0598,-140.662"/>
</g>
<!-- Node13&#45;&gt;Node3 -->
<g id="edge14" class="edge">
<title>Node13&#45;&gt;Node3</title>
<path fill="none" stroke="#191970" d="M396.5,-112.2455C396.5,-104.9382 396.5,-94.6944 396.5,-85.7046"/>
<polygon fill="#191970" stroke="#191970" points="400.0001,-85.6426 396.5,-75.6427 393.0001,-85.6427 400.0001,-85.6426"/>
</g>
<!-- Node17&#45;&gt;Node3 -->
<g id="edge17" class="edge">
<title>Node17&#45;&gt;Node3</title>
<path fill="none" stroke="#191970" d="M228.1877,-168.4509C260.2347,-148.9441 333.4254,-104.3932 371.8721,-80.9909"/>
<polygon fill="#191970" stroke="#191970" points="374.1298,-83.7141 380.852,-75.5249 370.4901,-77.7347 374.1298,-83.7141"/>
</g>
<!-- Node17&#45;&gt;Node13 -->
<g id="edge18" class="edge">
<title>Node17&#45;&gt;Node13</title>
<path fill="none" stroke="#191970" d="M244.1307,-168.3733C274.8596,-159.021 321.676,-144.7725 355.3022,-134.5385"/>
<polygon fill="#191970" stroke="#191970" points="356.7344,-137.7612 365.282,-131.5011 354.6962,-131.0644 356.7344,-137.7612"/>
</g>
<!-- Node19 -->
<g id="node18" class="node">
<title>Node19</title>
<g id="a_node18"><a xlink:href="../../d5/db4/Kinetics_8h.html" target="_top" xlink:title="Base class for kinetics managers and also contains the kineticsmgr module documentation (see Kinetics...">
<polygon fill="#ffffff" stroke="#000000" points="462.5,-336.5 462.5,-355.5 522.5,-355.5 522.5,-336.5 462.5,-336.5"/>
<text text-anchor="middle" x="492.5" y="-343.5" font-family="Helvetica,sans-Serif" font-size="10.00" fill="#000000">Kinetics.h</text>
</a>
</g>
</g>
<!-- Node18&#45;&gt;Node19 -->
<g id="edge21" class="edge">
<title>Node18&#45;&gt;Node19</title>
<path fill="none" stroke="#191970" d="M673.034,-392.4554C629.3948,-381.2261 570.9115,-366.177 532.4947,-356.2915"/>
<polygon fill="#191970" stroke="#191970" points="533.2581,-352.874 522.7014,-353.7715 531.5136,-359.6532 533.2581,-352.874"/>
</g>
<!-- Node36 -->
<g id="node24" class="node">
<title>Node36</title>
<g id="a_node24"><a xlink:href="../../d8/d5d/Reaction_8h.html" target="_top" xlink:title="cantera/kinetics/Reaction.h">
<polygon fill="#ffffff" stroke="#000000" points="591,-280.5 591,-299.5 728,-299.5 728,-280.5 591,-280.5"/>
<text text-anchor="middle" x="659.5" y="-287.5" font-family="Helvetica,sans-Serif" font-size="10.00" fill="#000000">cantera/kinetics/Reaction.h</text>
</a>
</g>
</g>
<!-- Node18&#45;&gt;Node36 -->
<g id="edge43" class="edge">
<title>Node18&#45;&gt;Node36</title>
<path fill="none" stroke="#191970" d="M722.0873,-392.1389C708.8793,-370.5843 684.8835,-331.4245 670.7506,-308.3604"/>
<polygon fill="#191970" stroke="#191970" points="673.5668,-306.2573 665.3577,-299.5595 667.5982,-309.9147 673.5668,-306.2573"/>
</g>
<!-- Node37 -->
<g id="node25" class="node">
<title>Node37</title>
<g id="a_node25"><a xlink:href="../../de/df0/utilities_8h.html" target="_top" xlink:title="Various templated functions that carry out common vector operations (see Templated Utility Functions)...">
<polygon fill="#ffffff" stroke="#ff0000" points="698.5,-224.5 698.5,-243.5 814.5,-243.5 814.5,-224.5 698.5,-224.5"/>
<text text-anchor="middle" x="756.5" y="-231.5" font-family="Helvetica,sans-Serif" font-size="10.00" fill="#000000">cantera/base/utilities.h</text>
</a>
</g>
</g>
<!-- Node18&#45;&gt;Node37 -->
<g id="edge44" class="edge">
<title>Node18&#45;&gt;Node37</title>
<path fill="none" stroke="#191970" d="M733.6749,-392.4065C738.1985,-361.0126 748.6187,-288.6961 753.6625,-253.6925"/>
<polygon fill="#191970" stroke="#191970" points="757.1348,-254.135 755.0968,-243.738 750.2063,-253.1366 757.1348,-254.135"/>
</g>
<!-- Node44 -->
<g id="node29" class="node">
<title>Node44</title>
<g id="a_node29"><a xlink:href="../../d4/d81/RateCoeffMgr_8h.html" target="_top" xlink:title="RateCoeffMgr.h">
<polygon fill="#ffffff" stroke="#000000" points="820,-336.5 820,-355.5 907,-355.5 907,-336.5 820,-336.5"/>
<text text-anchor="middle" x="863.5" y="-343.5" font-family="Helvetica,sans-Serif" font-size="10.00" fill="#000000">RateCoeffMgr.h</text>
</a>
</g>
</g>
<!-- Node18&#45;&gt;Node44 -->
<g id="edge45" class="edge">
<title>Node18&#45;&gt;Node44</title>
<path fill="none" stroke="#191970" d="M763.7908,-392.4554C785.1392,-382.509 812.9196,-369.5659 833.7333,-359.8686"/>
<polygon fill="#191970" stroke="#191970" points="835.4584,-362.9262 843.0447,-355.5303 832.5021,-356.581 835.4584,-362.9262"/>
</g>
<!-- Node19&#45;&gt;Node17 -->
<g id="edge42" class="edge">
<title>Node19&#45;&gt;Node17</title>
<path fill="none" stroke="#191970" d="M462.2813,-344.2106C402.5264,-340.0957 272.1289,-328.0728 238.5,-300 208.6921,-275.1169 207.884,-225.2443 210.0758,-197.5923"/>
<polygon fill="#191970" stroke="#191970" points="213.5672,-197.8516 211.0845,-187.5518 206.6023,-197.1518 213.5672,-197.8516"/>
</g>
<!-- Node20 -->
<g id="node19" class="node">
<title>Node20</title>
<g id="a_node19"><a xlink:href="../../d7/d01/ThermoPhase_8h.html" target="_top" xlink:title="Header file for class ThermoPhase, the base class for phases with thermodynamic properties, and the text for the Module thermoprops (see Thermodynamic Properties and class ThermoPhase). ">
<polygon fill="#ffffff" stroke="#000000" points="247.5,-280.5 247.5,-299.5 405.5,-299.5 405.5,-280.5 247.5,-280.5"/>
<text text-anchor="middle" x="326.5" y="-287.5" font-family="Helvetica,sans-Serif" font-size="10.00" fill="#000000">cantera/thermo/ThermoPhase.h</text>
</a>
</g>
</g>
<!-- Node19&#45;&gt;Node20 -->
<g id="edge22" class="edge">
<title>Node19&#45;&gt;Node20</title>
<path fill="none" stroke="#191970" d="M463.9636,-336.3733C436.4798,-327.1016 394.7314,-313.0178 364.4548,-302.804"/>
<polygon fill="#191970" stroke="#191970" points="365.2582,-299.3813 354.664,-299.5011 363.0206,-306.0141 365.2582,-299.3813"/>
</g>
<!-- Node34 -->
<g id="node22" class="node">
<title>Node34</title>
<g id="a_node22"><a xlink:href="../../dd/dfd/StoichManager_8h.html" target="_top" xlink:title="StoichManager.h">
<polygon fill="#ffffff" stroke="#000000" points="446.5,-224.5 446.5,-243.5 538.5,-243.5 538.5,-224.5 446.5,-224.5"/>
<text text-anchor="middle" x="492.5" y="-231.5" font-family="Helvetica,sans-Serif" font-size="10.00" fill="#000000">StoichManager.h</text>
</a>
</g>
</g>
<!-- Node19&#45;&gt;Node34 -->
<g id="edge27" class="edge">
<title>Node19&#45;&gt;Node34</title>
<path fill="none" stroke="#191970" d="M492.5,-336.4509C492.5,-318.184 492.5,-277.9553 492.5,-253.6976"/>
<polygon fill="#191970" stroke="#191970" points="496.0001,-253.5249 492.5,-243.5249 489.0001,-253.5249 496.0001,-253.5249"/>
</g>
<!-- Node19&#45;&gt;Node36 -->
<g id="edge33" class="edge">
<title>Node19&#45;&gt;Node36</title>
<path fill="none" stroke="#191970" d="M521.2083,-336.3733C548.8577,-327.1016 590.8576,-313.0178 621.3166,-302.804"/>
<polygon fill="#191970" stroke="#191970" points="622.7979,-305.9989 631.1663,-299.5011 620.5724,-299.3621 622.7979,-305.9989"/>
</g>
<!-- Node20&#45;&gt;Node17 -->
<g id="edge26" class="edge">
<title>Node20&#45;&gt;Node17</title>
<path fill="none" stroke="#191970" d="M290.334,-280.4541C270.362,-273.4388 246.612,-261.9388 231.5,-244 220.5889,-231.048 215.9365,-212.1521 213.9566,-197.8945"/>
<polygon fill="#191970" stroke="#191970" points="217.4063,-197.233 212.8733,-187.6569 210.4451,-197.9697 217.4063,-197.233"/>
</g>
<!-- Node21 -->
<g id="node20" class="node">
<title>Node21</title>
<g id="a_node20"><a xlink:href="../../da/d84/Phase_8h.html" target="_top" xlink:title="Header file for class Phase. ">
<polygon fill="#ffffff" stroke="#ff0000" points="241,-224.5 241,-243.5 294,-243.5 294,-224.5 241,-224.5"/>
<text text-anchor="middle" x="267.5" y="-231.5" font-family="Helvetica,sans-Serif" font-size="10.00" fill="#000000">Phase.h</text>
</a>
</g>
</g>
<!-- Node20&#45;&gt;Node21 -->
<g id="edge23" class="edge">
<title>Node20&#45;&gt;Node21</title>
<path fill="none" stroke="#191970" d="M316.223,-280.2455C307.6782,-272.1352 295.3222,-260.4075 285.1915,-250.7919"/>
<polygon fill="#191970" stroke="#191970" points="287.3218,-247.9884 277.6592,-243.6427 282.5028,-253.0655 287.3218,-247.9884"/>
</g>
<!-- Node31 -->
<g id="node21" class="node">
<title>Node31</title>
<g id="a_node21"><a xlink:href="../../d6/d7a/MultiSpeciesThermo_8h.html" target="_top" xlink:title="Header for a general species thermodynamic property manager for a phase (see MultiSpeciesThermo). ">
<polygon fill="#ffffff" stroke="#ff0000" points="312.5,-224.5 312.5,-243.5 428.5,-243.5 428.5,-224.5 312.5,-224.5"/>
<text text-anchor="middle" x="370.5" y="-231.5" font-family="Helvetica,sans-Serif" font-size="10.00" fill="#000000">MultiSpeciesThermo.h</text>
</a>
</g>
</g>
<!-- Node20&#45;&gt;Node31 -->
<g id="edge25" class="edge">
<title>Node20&#45;&gt;Node31</title>
<path fill="none" stroke="#191970" d="M334.1642,-280.2455C340.3473,-272.3761 349.2063,-261.101 356.6289,-251.6542"/>
<polygon fill="#191970" stroke="#191970" points="359.4975,-253.6683 362.9236,-243.6427 353.9932,-249.3435 359.4975,-253.6683"/>
</g>
<!-- Node21&#45;&gt;Node12 -->
<g id="edge24" class="edge">
<title>Node21&#45;&gt;Node12</title>
<path fill="none" stroke="#191970" d="M294.1329,-224.5004C319.9583,-215.2887 359.3401,-201.2417 388.0616,-190.9971"/>
<polygon fill="#191970" stroke="#191970" points="389.4935,-194.2024 397.7364,-187.5462 387.1418,-187.6093 389.4935,-194.2024"/>
</g>
<!-- Node34&#45;&gt;Node12 -->
<g id="edge32" class="edge">
<title>Node34&#45;&gt;Node12</title>
<path fill="none" stroke="#191970" d="M480.6553,-224.2455C470.612,-215.9746 456.0005,-203.9416 444.1996,-194.2232"/>
<polygon fill="#191970" stroke="#191970" points="446.1533,-191.298 436.209,-187.6427 441.7033,-196.7015 446.1533,-191.298"/>
</g>
<!-- Node35 -->
<g id="node23" class="node">
<title>Node35</title>
<g id="a_node23"><a xlink:href="../../dd/dc3/stringUtils_8h.html" target="_top" xlink:title="Contains declarations for string manipulation functions within Cantera. ">
<polygon fill="#ffffff" stroke="#000000" points="513,-168.5 513,-187.5 642,-187.5 642,-168.5 513,-168.5"/>
<text text-anchor="middle" x="577.5" y="-175.5" font-family="Helvetica,sans-Serif" font-size="10.00" fill="#000000">cantera/base/stringUtils.h</text>
</a>
</g>
</g>
<!-- Node34&#45;&gt;Node35 -->
<g id="edge28" class="edge">
<title>Node34&#45;&gt;Node35</title>
<path fill="none" stroke="#191970" d="M507.3059,-224.2455C520.2256,-215.7337 539.1931,-203.2375 554.1552,-193.3801"/>
<polygon fill="#191970" stroke="#191970" points="556.4387,-196.067 562.8638,-187.6427 552.5876,-190.2216 556.4387,-196.067"/>
</g>
<!-- Node35&#45;&gt;Node3 -->
<g id="edge29" class="edge">
<title>Node35&#45;&gt;Node3</title>
<path fill="none" stroke="#191970" d="M573.2821,-168.476C566.4909,-154.1965 551.8089,-127.2874 531.5,-112 510.114,-95.9018 482.716,-85.1968 458.1973,-78.2006"/>
<polygon fill="#191970" stroke="#191970" points="458.8167,-74.7426 448.2501,-75.5157 456.9925,-81.5008 458.8167,-74.7426"/>
</g>
<!-- Node35&#45;&gt;Node9 -->
<g id="edge31" class="edge">
<title>Node35&#45;&gt;Node9</title>
<path fill="none" stroke="#191970" d="M578.8025,-168.4862C582.4382,-141.9293 592.756,-66.5651 597.7392,-30.1655"/>
<polygon fill="#191970" stroke="#191970" points="601.2657,-30.2102 599.1545,-19.8279 594.3304,-29.2607 601.2657,-30.2102"/>
</g>
<!-- Node35&#45;&gt;Node13 -->
<g id="edge30" class="edge">
<title>Node35&#45;&gt;Node13</title>
<path fill="none" stroke="#191970" d="M546.385,-168.3733C516.1571,-159.021 470.104,-144.7725 437.0261,-134.5385"/>
<polygon fill="#191970" stroke="#191970" points="437.7967,-131.1133 427.209,-131.5011 435.7277,-137.8005 437.7967,-131.1133"/>
</g>
<!-- Node36&#45;&gt;Node37 -->
<g id="edge34" class="edge">
<title>Node36&#45;&gt;Node37</title>
<path fill="none" stroke="#191970" d="M676.3961,-280.2455C691.418,-271.5731 713.6043,-258.7645 730.821,-248.825"/>
<polygon fill="#191970" stroke="#191970" points="732.8871,-251.6737 739.7975,-243.6427 729.3872,-245.6114 732.8871,-251.6737"/>
</g>
<!-- Node40 -->
<g id="node26" class="node">
<title>Node40</title>
<g id="a_node26"><a xlink:href="../../da/d70/RxnRates_8h.html" target="_top" xlink:title="cantera/kinetics/RxnRates.h">
<polygon fill="#ffffff" stroke="#ff0000" points="833,-224.5 833,-243.5 974,-243.5 974,-224.5 833,-224.5"/>
<text text-anchor="middle" x="903.5" y="-231.5" font-family="Helvetica,sans-Serif" font-size="10.00" fill="#000000">cantera/kinetics/RxnRates.h</text>
</a>
</g>
</g>
<!-- Node36&#45;&gt;Node40 -->
<g id="edge37" class="edge">
<title>Node36&#45;&gt;Node40</title>
<path fill="none" stroke="#191970" d="M701.1679,-280.4369C742.9266,-270.8529 807.2891,-256.0812 852.1728,-245.78"/>
<polygon fill="#191970" stroke="#191970" points="853.0404,-249.172 862.004,-243.5237 851.4745,-242.3494 853.0404,-249.172"/>
</g>
<!-- Node43 -->
<g id="node28" class="node">
<title>Node43</title>
<g id="a_node28"><a xlink:href="../../de/d72/Falloff_8h_source.html" target="_top" xlink:title="cantera/kinetics/Falloff.h">
<polygon fill="#ffffff" stroke="#ff0000" points="556.5,-224.5 556.5,-243.5 680.5,-243.5 680.5,-224.5 556.5,-224.5"/>
<text text-anchor="middle" x="618.5" y="-231.5" font-family="Helvetica,sans-Serif" font-size="10.00" fill="#000000">cantera/kinetics/Falloff.h</text>
</a>
</g>
</g>
<!-- Node36&#45;&gt;Node43 -->
<g id="edge41" class="edge">
<title>Node36&#45;&gt;Node43</title>
<path fill="none" stroke="#191970" d="M652.3583,-280.2455C646.6556,-272.4564 638.51,-261.3308 631.6375,-251.9439"/>
<polygon fill="#191970" stroke="#191970" points="634.2913,-249.6437 625.5598,-243.6427 628.6432,-253.7789 634.2913,-249.6437"/>
</g>
<!-- Node37&#45;&gt;Node3 -->
<g id="edge35" class="edge">
<title>Node37&#45;&gt;Node3</title>
<path fill="none" stroke="#191970" d="M741.4749,-224.4851C720.996,-211.553 683.1311,-187.7723 650.5,-168 608.5828,-142.6008 600.5058,-131.4076 555.5,-112 521.5702,-97.3686 481.6114,-85.8302 450.2402,-77.969"/>
<polygon fill="#191970" stroke="#191970" points="450.9212,-74.5323 440.3751,-75.5466 449.2519,-81.3303 450.9212,-74.5323"/>
</g>
<!-- Node37&#45;&gt;Node17 -->
<g id="edge36" class="edge">
<title>Node37&#45;&gt;Node17</title>
<path fill="none" stroke="#191970" d="M698.4205,-225.1426C695.4056,-224.7419 692.4183,-224.3583 689.5,-224 543.2478,-206.046 371.0499,-190.9171 278.809,-183.2977"/>
<polygon fill="#191970" stroke="#191970" points="279.0314,-179.8043 268.7781,-182.4728 278.4575,-186.7808 279.0314,-179.8043"/>
</g>
<!-- Node40&#45;&gt;Node12 -->
<g id="edge38" class="edge">
<title>Node40&#45;&gt;Node12</title>
<path fill="none" stroke="#191970" d="M832.8355,-225.119C829.681,-224.7377 826.5579,-224.3631 823.5,-224 684.5713,-207.5028 647.2683,-205.0903 505.0978,-188.1788"/>
<polygon fill="#191970" stroke="#191970" points="505.4734,-184.6989 495.1292,-186.9897 504.6443,-191.6496 505.4734,-184.6989"/>
</g>
<!-- Node40&#45;&gt;Node35 -->
<g id="edge39" class="edge">
<title>Node40&#45;&gt;Node35</title>
<path fill="none" stroke="#191970" d="M847.829,-224.4369C791.0989,-214.6918 703.145,-199.5832 643.0753,-189.2645"/>
<polygon fill="#191970" stroke="#191970" points="643.3896,-185.7673 632.9414,-187.5237 642.2044,-192.6662 643.3896,-185.7673"/>
</g>
<!-- Node42 -->
<g id="node27" class="node">
<title>Node42</title>
<polygon fill="#ffffff" stroke="#bfbfbf" points="897,-168.5 897,-187.5 952,-187.5 952,-168.5 897,-168.5"/>
<text text-anchor="middle" x="924.5" y="-175.5" font-family="Helvetica,sans-Serif" font-size="10.00" fill="#000000">iostream</text>
</g>
<!-- Node40&#45;&gt;Node42 -->
<g id="edge40" class="edge">
<title>Node40&#45;&gt;Node42</title>
<path fill="none" stroke="#191970" d="M907.1579,-224.2455C909.9584,-216.7776 913.909,-206.2427 917.3324,-197.1137"/>
<polygon fill="#191970" stroke="#191970" points="920.6499,-198.2349 920.884,-187.6427 914.0955,-195.777 920.6499,-198.2349"/>
</g>
<!-- Node44&#45;&gt;Node40 -->
<g id="edge46" class="edge">
<title>Node44&#45;&gt;Node40</title>
<path fill="none" stroke="#191970" d="M866.9104,-336.4509C873.4933,-318.0186 888.0624,-277.2254 896.6989,-253.043"/>
<polygon fill="#191970" stroke="#191970" points="900.0309,-254.1195 900.0983,-243.5249 893.4387,-251.7651 900.0309,-254.1195"/>
</g>
<!-- Node45&#45;&gt;Node18 -->
<g id="edge48" class="edge">
<title>Node45&#45;&gt;Node18</title>
<path fill="none" stroke="#191970" d="M771.1563,-459.3906C765.2665,-451.6839 756.7527,-440.5434 749.1222,-430.5589"/>
<polygon fill="#191970" stroke="#191970" points="751.8505,-428.3648 742.9975,-422.5446 746.2887,-432.6153 751.8505,-428.3648"/>
</g>
<!-- Node46 -->
<g id="node31" class="node">
<title>Node46</title>
<g id="a_node31"><a xlink:href="../../d1/df7/DenseMatrix_8h.html" target="_top" xlink:title="Headers for the DenseMatrix object, which deals with dense rectangular matrices and description of th...">
<polygon fill="#ffffff" stroke="#000000" points="941.5,-336.5 941.5,-355.5 1101.5,-355.5 1101.5,-336.5 941.5,-336.5"/>
<text text-anchor="middle" x="1021.5" y="-343.5" font-family="Helvetica,sans-Serif" font-size="10.00" fill="#000000">cantera/numerics/DenseMatrix.h</text>
</a>
</g>
</g>
<!-- Node45&#45;&gt;Node46 -->
<g id="edge49" class="edge">
<title>Node45&#45;&gt;Node46</title>
<path fill="none" stroke="#191970" d="M797.5678,-459.3484C840.2426,-437.7475 943.6093,-385.4262 993.5593,-360.1428"/>
<polygon fill="#191970" stroke="#191970" points="995.1793,-363.2457 1002.5208,-355.6068 992.018,-357.0002 995.1793,-363.2457"/>
</g>
<!-- Node46&#45;&gt;Node3 -->
<g id="edge50" class="edge">
<title>Node46&#45;&gt;Node3</title>
<path fill="none" stroke="#191970" d="M1018.6965,-336.2066C1013.4113,-316.8521 1002.5,-272.2612 1002.5,-234 1002.5,-234 1002.5,-234 1002.5,-178 1002.5,-123.953 624.9553,-85.4485 465.8659,-71.6227"/>
<polygon fill="#191970" stroke="#191970" points="465.9727,-68.119 455.7092,-70.7478 465.3719,-75.0932 465.9727,-68.119"/>
</g>
<!-- Node46&#45;&gt;Node12 -->
<g id="edge51" class="edge">
<title>Node46&#45;&gt;Node12</title>
<path fill="none" stroke="#191970" d="M1021.8176,-336.4306C1022.0199,-312.9148 1018.9203,-252.1689 983.5,-224 943.5208,-192.2056 590.6048,-193.1944 505.3133,-187.9111"/>
<polygon fill="#191970" stroke="#191970" points="505.3557,-184.404 495.1149,-187.12 504.8142,-191.383 505.3557,-184.404"/>
</g>
<!-- Node47 -->
<g id="node32" class="node">
<title>Node47</title>
<g id="a_node32"><a xlink:href="../../df/dd0/Array_8h.html" target="_top" xlink:title="Header file for class Cantera::Array2D. ">
<polygon fill="#ffffff" stroke="#000000" points="1069,-280.5 1069,-299.5 1178,-299.5 1178,-280.5 1069,-280.5"/>
<text text-anchor="middle" x="1123.5" y="-287.5" font-family="Helvetica,sans-Serif" font-size="10.00" fill="#000000">cantera/base/Array.h</text>
</a>
</g>
</g>
<!-- Node46&#45;&gt;Node47 -->
<g id="edge52" class="edge">
<title>Node46&#45;&gt;Node47</title>
<path fill="none" stroke="#191970" d="M1039.267,-336.2455C1055.2095,-327.4928 1078.8259,-314.527 1096.9989,-304.5496"/>
<polygon fill="#191970" stroke="#191970" points="1098.8552,-307.5233 1105.9366,-299.6427 1095.4863,-301.3873 1098.8552,-307.5233"/>
</g>
<!-- Node47&#45;&gt;Node37 -->
<g id="edge53" class="edge">
<title>Node47&#45;&gt;Node37</title>
<path fill="none" stroke="#191970" d="M1068.9527,-281.6767C1003.9592,-271.7594 895.3246,-255.183 824.8036,-244.4223"/>
<polygon fill="#191970" stroke="#191970" points="825.0987,-240.9269 814.6851,-242.8784 824.0427,-247.8468 825.0987,-240.9269"/>
</g>
<!-- Node47&#45;&gt;Node42 -->
<g id="edge54" class="edge">
<title>Node47&#45;&gt;Node42</title>
<path fill="none" stroke="#191970" d="M1115.586,-280.1378C1103.7012,-265.9144 1079.9124,-239.6378 1054.5,-224 1025.6628,-206.2547 989.0102,-194.0766 961.9794,-186.7306"/>
<polygon fill="#191970" stroke="#191970" points="962.6875,-183.2981 952.127,-184.1503 960.914,-190.0697 962.6875,-183.2981"/>
</g>
<!-- Node48 -->
<g id="node33" class="node">
<title>Node48</title>
<polygon fill="#ffffff" stroke="#bfbfbf" points="1106.5,-224.5 1106.5,-243.5 1152.5,-243.5 1152.5,-224.5 1106.5,-224.5"/>
<text text-anchor="middle" x="1129.5" y="-231.5" font-family="Helvetica,sans-Serif" font-size="10.00" fill="#000000">cstring</text>
</g>
<!-- Node47&#45;&gt;Node48 -->
<g id="edge55" class="edge">
<title>Node47&#45;&gt;Node48</title>
<path fill="none" stroke="#191970" d="M1124.5451,-280.2455C1125.328,-272.9382 1126.4256,-262.6944 1127.3888,-253.7046"/>
<polygon fill="#191970" stroke="#191970" points="1130.8815,-253.9587 1128.4669,-243.6427 1123.9214,-253.2129 1130.8815,-253.9587"/>
</g>
</g>
</svg>
