<?xml version="1.0" encoding="UTF-8" standalone="no"?>
<!DOCTYPE svg PUBLIC "-//W3C//DTD SVG 1.1//EN"
 "http://www.w3.org/Graphics/SVG/1.1/DTD/svg11.dtd">
<!-- Generated by graphviz version 2.43.0 (0)
 -->
<!-- Title: StFlow.cpp Pages: 1 -->
<!--zoomable 487 -->
<svg id="main" version="1.1" xmlns="http://www.w3.org/2000/svg" xmlns:xlink="http://www.w3.org/1999/xlink" xml:space="preserve" onload="init(evt)">
<style type="text/css"><![CDATA[
.edge:hover path { stroke: red; }
.edge:hover polygon { stroke: red; fill: red; }
]]></style>
<script type="text/javascript"><![CDATA[
var edges = document.getElementsByTagName('g');
if (edges && edges.length) {
  for (var i=0;i<edges.length;i++) {
    if (edges[i].id.substr(0,4)=='edge') {
      edges[i].setAttribute('class','edge');
    }
  }
}
]]></script>
        <defs>
                <circle id="rim" cx="0" cy="0" r="7"/>
                <circle id="rim2" cx="0" cy="0" r="3.5"/>
                <g id="zoomPlus">
                        <use xlink:href="#rim" fill="#404040">
                                <set attributeName="fill" to="#808080" begin="zoomplus.mouseover" end="zoomplus.mouseout"/>
                        </use>
                        <path d="M-4,0h8M0,-4v8" fill="none" stroke="white" stroke-width="1.5" pointer-events="none"/>
                </g>
                <g id="zoomMin">
                        <use xlink:href="#rim" fill="#404040">
                                <set attributeName="fill" to="#808080" begin="zoomminus.mouseover" end="zoomminus.mouseout"/>
                        </use>
                        <path d="M-4,0h8" fill="none" stroke="white" stroke-width="1.5" pointer-events="none"/>
                </g>
                <g id="dirArrow">
                        <path fill="none" stroke="white" stroke-width="1.5" d="M0,-3.0v7 M-2.5,-0.5L0,-3.0L2.5,-0.5"/>
                </g>
               <g id="resetDef">
                       <use xlink:href="#rim2" fill="#404040">
                               <set attributeName="fill" to="#808080" begin="reset.mouseover" end="reset.mouseout"/>
                       </use>
               </g>
        </defs>

<script type="text/javascript">
var viewWidth = 1355;
var viewHeight = 487;
var sectionId = 'dynsection-0';
</script>
<script xlink:href="../../svgpan.js"/>
<svg id="graph" class="graph">
<g id="viewport">
<title>StFlow.cpp</title>
<polygon fill="white" stroke="transparent" points="-4,4 -4,-483 1351,-483 1351,4 -4,4"/>
<!-- Node1 -->
<g id="node1" class="node">
<title>Node1</title>
<g id="a_node1"><a xlink:title=" ">
<polygon fill="#bfbfbf" stroke="black" points="1118.5,-459.5 1118.5,-478.5 1187.5,-478.5 1187.5,-459.5 1118.5,-459.5"/>
<text text-anchor="middle" x="1153" y="-466.5" font-family="Helvetica,sans-Serif" font-size="10.00">StFlow.cpp</text>
</a>
</g>
</g>
<!-- Node2 -->
<g id="node2" class="node">
<title>Node2</title>
<g id="a_node2"><a xlink:href="../../d7/d7c/StFlow_8h.html" target="_top" xlink:title=" ">
<polygon fill="white" stroke="black" points="796,-403.5 796,-422.5 922,-422.5 922,-403.5 796,-403.5"/>
<text text-anchor="middle" x="859" y="-410.5" font-family="Helvetica,sans-Serif" font-size="10.00">cantera/oneD/StFlow.h</text>
</a>
</g>
</g>
<!-- Node1&#45;&gt;Node2 -->
<g id="edge1" class="edge">
<title>Node1&#45;&gt;Node2</title>
<path fill="none" stroke="midnightblue" d="M1118.41,-461.65C1068.4,-452.46 975.35,-435.37 915.35,-424.35"/>
<polygon fill="midnightblue" stroke="midnightblue" points="915.75,-420.86 905.28,-422.5 914.49,-427.75 915.75,-420.86"/>
</g>
<!-- Node51 -->
<g id="node28" class="node">
<title>Node51</title>
<g id="a_node28"><a xlink:href="../../dc/deb/ctml_8h.html" target="_top" xlink:title="CTML (&quot;Cantera Markup Language&quot;) is the variant of XML that Cantera uses to store data.">
<polygon fill="white" stroke="black" points="1122.5,-280.5 1122.5,-299.5 1235.5,-299.5 1235.5,-280.5 1122.5,-280.5"/>
<text text-anchor="middle" x="1179" y="-287.5" font-family="Helvetica,sans-Serif" font-size="10.00">cantera/base/ctml.h</text>
</a>
</g>
</g>
<!-- Node1&#45;&gt;Node51 -->
<g id="edge51" class="edge">
<title>Node1&#45;&gt;Node51</title>
<path fill="none" stroke="midnightblue" d="M1154.25,-459.46C1158.23,-432.43 1170.59,-348.24 1176.19,-310.11"/>
<polygon fill="midnightblue" stroke="midnightblue" points="1179.71,-310.27 1177.7,-299.87 1172.78,-309.25 1179.71,-310.27"/>
</g>
<!-- Node53 -->
<g id="node30" class="node">
<title>Node53</title>
<g id="a_node30"><a xlink:href="../../da/dbb/TransportBase_8h.html" target="_top" xlink:title="Headers for the Transport object, which is the virtual base class for all transport property evaluato...">
<polygon fill="white" stroke="black" points="1002.5,-336.5 1002.5,-366.5 1151.5,-366.5 1151.5,-336.5 1002.5,-336.5"/>
<text text-anchor="start" x="1010.5" y="-354.5" font-family="Helvetica,sans-Serif" font-size="10.00">cantera/transport/Transport</text>
<text text-anchor="middle" x="1077" y="-343.5" font-family="Helvetica,sans-Serif" font-size="10.00">Base.h</text>
</a>
</g>
</g>
<!-- Node1&#45;&gt;Node53 -->
<g id="edge56" class="edge">
<title>Node1&#45;&gt;Node53</title>
<path fill="none" stroke="midnightblue" d="M1147.29,-459.32C1135.62,-441.58 1108.7,-400.68 1091.77,-374.95"/>
<polygon fill="midnightblue" stroke="midnightblue" points="1094.66,-372.98 1086.24,-366.55 1088.81,-376.82 1094.66,-372.98"/>
</g>
<!-- Node54 -->
<g id="node31" class="node">
<title>Node54</title>
<g id="a_node31"><a xlink:href="../../d1/d96/funcs_8h.html" target="_top" xlink:title="Header for a file containing miscellaneous numerical functions.">
<polygon fill="white" stroke="black" points="1207,-403.5 1207,-422.5 1347,-422.5 1347,-403.5 1207,-403.5"/>
<text text-anchor="middle" x="1277" y="-410.5" font-family="Helvetica,sans-Serif" font-size="10.00">cantera/numerics/funcs.h</text>
</a>
</g>
</g>
<!-- Node1&#45;&gt;Node54 -->
<g id="edge58" class="edge">
<title>Node1&#45;&gt;Node54</title>
<path fill="none" stroke="midnightblue" d="M1172.65,-459.44C1192.96,-450.6 1224.9,-436.69 1248.1,-426.59"/>
<polygon fill="midnightblue" stroke="midnightblue" points="1249.67,-429.72 1257.44,-422.52 1246.88,-423.3 1249.67,-429.72"/>
</g>
<!-- Node3 -->
<g id="node3" class="node">
<title>Node3</title>
<g id="a_node3"><a xlink:href="../../db/dce/Domain1D_8h.html" target="_top" xlink:title=" ">
<polygon fill="white" stroke="black" points="1133.5,-224.5 1133.5,-243.5 1210.5,-243.5 1210.5,-224.5 1133.5,-224.5"/>
<text text-anchor="middle" x="1172" y="-231.5" font-family="Helvetica,sans-Serif" font-size="10.00">Domain1D.h</text>
</a>
</g>
</g>
<!-- Node2&#45;&gt;Node3 -->
<g id="edge2" class="edge">
<title>Node2&#45;&gt;Node3</title>
<path fill="none" stroke="midnightblue" d="M881.83,-403.4C902.06,-395.33 932.02,-382.23 956,-367 974.11,-355.5 975.36,-348.21 993,-336 1044.35,-300.45 1109.17,-266.29 1145.03,-248.25"/>
<polygon fill="midnightblue" stroke="midnightblue" points="1146.95,-251.2 1154.34,-243.6 1143.83,-244.93 1146.95,-251.2"/>
</g>
<!-- Node21 -->
<g id="node12" class="node">
<title>Node21</title>
<g id="a_node12"><a xlink:href="../../df/dd0/Array_8h.html" target="_top" xlink:title="Header file for class Cantera::Array2D.">
<polygon fill="white" stroke="black" points="71,-280.5 71,-299.5 187,-299.5 187,-280.5 71,-280.5"/>
<text text-anchor="middle" x="129" y="-287.5" font-family="Helvetica,sans-Serif" font-size="10.00">cantera/base/Array.h</text>
</a>
</g>
</g>
<!-- Node2&#45;&gt;Node21 -->
<g id="edge17" class="edge">
<title>Node2&#45;&gt;Node21</title>
<path fill="none" stroke="midnightblue" d="M807.67,-403.49C677.06,-381.84 332.5,-324.73 191,-301.28"/>
<polygon fill="midnightblue" stroke="midnightblue" points="191.2,-297.76 180.76,-299.58 190.06,-304.67 191.2,-297.76"/>
</g>
<!-- Node27 -->
<g id="node18" class="node">
<title>Node27</title>
<g id="a_node18"><a xlink:href="../../de/dbd/IdealGasPhase_8h.html" target="_top" xlink:title="ThermoPhase object for the ideal gas equation of state &#45; workhorse for Cantera (see Thermodynamic Pro...">
<polygon fill="white" stroke="black" points="771,-342 771,-361 947,-361 947,-342 771,-342"/>
<text text-anchor="middle" x="859" y="-349" font-family="Helvetica,sans-Serif" font-size="10.00">cantera/thermo/IdealGasPhase.h</text>
</a>
</g>
</g>
<!-- Node2&#45;&gt;Node27 -->
<g id="edge25" class="edge">
<title>Node2&#45;&gt;Node27</title>
<path fill="none" stroke="midnightblue" d="M859,-403.48C859,-395.08 859,-381.98 859,-371.16"/>
<polygon fill="midnightblue" stroke="midnightblue" points="862.5,-371.01 859,-361.01 855.5,-371.01 862.5,-371.01"/>
</g>
<!-- Node45 -->
<g id="node22" class="node">
<title>Node45</title>
<g id="a_node22"><a xlink:href="../../d5/db4/Kinetics_8h.html" target="_top" xlink:title="Base class for kinetics managers and also contains the kineticsmgr module documentation (see Kinetics...">
<polygon fill="white" stroke="black" points="607,-342 607,-361 753,-361 753,-342 607,-342"/>
<text text-anchor="middle" x="680" y="-349" font-family="Helvetica,sans-Serif" font-size="10.00">cantera/kinetics/Kinetics.h</text>
</a>
</g>
</g>
<!-- Node2&#45;&gt;Node45 -->
<g id="edge31" class="edge">
<title>Node2&#45;&gt;Node45</title>
<path fill="none" stroke="midnightblue" d="M833.35,-403.48C802.38,-393.18 750.13,-375.81 715.35,-364.25"/>
<polygon fill="midnightblue" stroke="midnightblue" points="716.19,-360.84 705.6,-361.01 713.98,-367.48 716.19,-360.84"/>
</g>
<!-- Node4 -->
<g id="node4" class="node">
<title>Node4</title>
<g id="a_node4"><a xlink:href="../../dd/dc3/stringUtils_8h.html" target="_top" xlink:title="Contains declarations for string manipulation functions within Cantera.">
<polygon fill="white" stroke="black" points="716,-168.5 716,-187.5 858,-187.5 858,-168.5 716,-168.5"/>
<text text-anchor="middle" x="787" y="-175.5" font-family="Helvetica,sans-Serif" font-size="10.00">cantera/base/stringUtils.h</text>
</a>
</g>
</g>
<!-- Node3&#45;&gt;Node4 -->
<g id="edge3" class="edge">
<title>Node3&#45;&gt;Node4</title>
<path fill="none" stroke="midnightblue" d="M1133.26,-225.55C1130.13,-225.01 1127.01,-224.48 1124,-224 1036.97,-210.04 936.8,-197.05 868.43,-188.66"/>
<polygon fill="midnightblue" stroke="midnightblue" points="868.51,-185.14 858.16,-187.4 867.66,-192.09 868.51,-185.14"/>
</g>
<!-- Node17 -->
<g id="node8" class="node">
<title>Node17</title>
<g id="a_node8"><a xlink:href="../../db/d98/ctexceptions_8h.html" target="_top" xlink:title="Definitions for the classes that are thrown when Cantera experiences an error condition (also contain...">
<polygon fill="white" stroke="black" points="876,-168.5 876,-187.5 1030,-187.5 1030,-168.5 876,-168.5"/>
<text text-anchor="middle" x="953" y="-175.5" font-family="Helvetica,sans-Serif" font-size="10.00">cantera/base/ctexceptions.h</text>
</a>
</g>
</g>
<!-- Node3&#45;&gt;Node17 -->
<g id="edge9" class="edge">
<title>Node3&#45;&gt;Node17</title>
<path fill="none" stroke="midnightblue" d="M1137.3,-224.44C1099.42,-215.1 1038.65,-200.12 997.34,-189.93"/>
<polygon fill="midnightblue" stroke="midnightblue" points="998.09,-186.51 987.54,-187.52 996.41,-193.31 998.09,-186.51"/>
</g>
<!-- Node19 -->
<g id="node10" class="node">
<title>Node19</title>
<g id="a_node10"><a xlink:href="../../d2/d49/global_8h.html" target="_top" xlink:title="This file contains definitions for utility functions and text for modules, inputfiles,...">
<polygon fill="white" stroke="black" points="576,-168.5 576,-187.5 698,-187.5 698,-168.5 576,-168.5"/>
<text text-anchor="middle" x="637" y="-175.5" font-family="Helvetica,sans-Serif" font-size="10.00">cantera/base/global.h</text>
</a>
</g>
</g>
<!-- Node3&#45;&gt;Node19 -->
<g id="edge12" class="edge">
<title>Node3&#45;&gt;Node19</title>
<path fill="none" stroke="midnightblue" d="M1133.28,-225.4C1130.15,-224.89 1127.02,-224.41 1124,-224 942.93,-199.27 893.68,-207.56 708.16,-188.08"/>
<polygon fill="midnightblue" stroke="midnightblue" points="708.38,-184.58 698.07,-187 707.64,-191.54 708.38,-184.58"/>
</g>
<!-- Node20 -->
<g id="node11" class="node">
<title>Node20</title>
<g id="a_node11"><a xlink:href="../../da/dbc/refine_8h_source.html" target="_top" xlink:title=" ">
<polygon fill="white" stroke="black" points="1046.5,-112.5 1046.5,-131.5 1099.5,-131.5 1099.5,-112.5 1046.5,-112.5"/>
<text text-anchor="middle" x="1073" y="-119.5" font-family="Helvetica,sans-Serif" font-size="10.00">refine.h</text>
</a>
</g>
</g>
<!-- Node3&#45;&gt;Node20 -->
<g id="edge15" class="edge">
<title>Node3&#45;&gt;Node20</title>
<path fill="none" stroke="midnightblue" d="M1164.23,-224.37C1147.68,-205.97 1108.7,-162.67 1087.45,-139.05"/>
<polygon fill="midnightblue" stroke="midnightblue" points="1090.02,-136.68 1080.73,-131.59 1084.82,-141.37 1090.02,-136.68"/>
</g>
<!-- Node5 -->
<g id="node5" class="node">
<title>Node5</title>
<g id="a_node5"><a xlink:href="../../d9/ddc/ct__defs_8h.html" target="_top" xlink:title="This file contains definitions of terms that are used in internal routines and are unlikely to need m...">
<polygon fill="white" stroke="red" points="703.5,-56.5 703.5,-75.5 764.5,-75.5 764.5,-56.5 703.5,-56.5"/>
<text text-anchor="middle" x="734" y="-63.5" font-family="Helvetica,sans-Serif" font-size="10.00">ct_defs.h</text>
</a>
</g>
</g>
<!-- Node4&#45;&gt;Node5 -->
<g id="edge4" class="edge">
<title>Node4&#45;&gt;Node5</title>
<path fill="none" stroke="midnightblue" d="M778.92,-168.34C771.27,-159.72 759.95,-145.82 753,-132 745.58,-117.23 740.57,-99.07 737.57,-85.71"/>
<polygon fill="midnightblue" stroke="midnightblue" points="740.98,-84.87 735.52,-75.79 734.12,-86.29 740.98,-84.87"/>
</g>
<!-- Node11 -->
<g id="node6" class="node">
<title>Node11</title>
<g id="a_node6"><a xlink:title=" ">
<polygon fill="white" stroke="#bfbfbf" points="636,-0.5 636,-19.5 680,-19.5 680,-0.5 636,-0.5"/>
<text text-anchor="middle" x="658" y="-7.5" font-family="Helvetica,sans-Serif" font-size="10.00">string</text>
</a>
</g>
</g>
<!-- Node4&#45;&gt;Node11 -->
<g id="edge8" class="edge">
<title>Node4&#45;&gt;Node11</title>
<path fill="none" stroke="midnightblue" d="M777.83,-168.23C768.59,-159.31 754.01,-144.97 742,-132 719.73,-107.95 712.7,-102.92 694,-76 683.44,-60.8 673.41,-42.23 666.64,-28.84"/>
<polygon fill="midnightblue" stroke="midnightblue" points="669.71,-27.15 662.13,-19.74 663.43,-30.26 669.71,-27.15"/>
</g>
<!-- Node14 -->
<g id="node7" class="node">
<title>Node14</title>
<g id="a_node7"><a xlink:href="../../db/def/fmt_8h.html" target="_top" xlink:title="Wrapper for either system&#45;installed or local headers for fmt.">
<polygon fill="white" stroke="red" points="762.5,-112.5 762.5,-131.5 871.5,-131.5 871.5,-112.5 762.5,-112.5"/>
<text text-anchor="middle" x="817" y="-119.5" font-family="Helvetica,sans-Serif" font-size="10.00">cantera/base/fmt.h</text>
</a>
</g>
</g>
<!-- Node4&#45;&gt;Node14 -->
<g id="edge6" class="edge">
<title>Node4&#45;&gt;Node14</title>
<path fill="none" stroke="midnightblue" d="M791.95,-168.08C796.1,-160.61 802.15,-149.72 807.27,-140.52"/>
<polygon fill="midnightblue" stroke="midnightblue" points="810.34,-142.19 812.14,-131.75 804.22,-138.79 810.34,-142.19"/>
</g>
<!-- Node5&#45;&gt;Node11 -->
<g id="edge5" class="edge">
<title>Node5&#45;&gt;Node11</title>
<path fill="none" stroke="midnightblue" d="M721.79,-56.32C710.22,-48.11 692.62,-35.6 678.84,-25.81"/>
<polygon fill="midnightblue" stroke="midnightblue" points="680.61,-22.77 670.43,-19.83 676.56,-28.48 680.61,-22.77"/>
</g>
<!-- Node14&#45;&gt;Node5 -->
<g id="edge7" class="edge">
<title>Node14&#45;&gt;Node5</title>
<path fill="none" stroke="midnightblue" d="M803.66,-112.32C790.84,-103.98 771.22,-91.21 756.06,-81.35"/>
<polygon fill="midnightblue" stroke="midnightblue" points="757.59,-78.17 747.3,-75.65 753.78,-84.04 757.59,-78.17"/>
</g>
<!-- Node17&#45;&gt;Node14 -->
<g id="edge10" class="edge">
<title>Node17&#45;&gt;Node14</title>
<path fill="none" stroke="midnightblue" d="M931.45,-168.44C908.97,-159.52 873.51,-145.44 848.02,-135.32"/>
<polygon fill="midnightblue" stroke="midnightblue" points="849.03,-131.95 838.45,-131.52 846.45,-138.46 849.03,-131.95"/>
</g>
<!-- Node18 -->
<g id="node9" class="node">
<title>Node18</title>
<g id="a_node9"><a xlink:title=" ">
<polygon fill="white" stroke="#bfbfbf" points="920.5,-112.5 920.5,-131.5 985.5,-131.5 985.5,-112.5 920.5,-112.5"/>
<text text-anchor="middle" x="953" y="-119.5" font-family="Helvetica,sans-Serif" font-size="10.00">exception</text>
</a>
</g>
</g>
<!-- Node17&#45;&gt;Node18 -->
<g id="edge11" class="edge">
<title>Node17&#45;&gt;Node18</title>
<path fill="none" stroke="midnightblue" d="M953,-168.08C953,-161.01 953,-150.86 953,-141.99"/>
<polygon fill="midnightblue" stroke="midnightblue" points="956.5,-141.75 953,-131.75 949.5,-141.75 956.5,-141.75"/>
</g>
<!-- Node19&#45;&gt;Node5 -->
<g id="edge13" class="edge">
<title>Node19&#45;&gt;Node5</title>
<path fill="none" stroke="midnightblue" d="M644.61,-168.37C660.76,-150.05 698.68,-107.05 719.57,-83.36"/>
<polygon fill="midnightblue" stroke="midnightblue" points="722.44,-85.41 726.42,-75.59 717.18,-80.78 722.44,-85.41"/>
</g>
<!-- Node19&#45;&gt;Node14 -->
<g id="edge14" class="edge">
<title>Node19&#45;&gt;Node14</title>
<path fill="none" stroke="midnightblue" d="M665.52,-168.44C696.07,-159.28 744.71,-144.69 778.6,-134.52"/>
<polygon fill="midnightblue" stroke="midnightblue" points="780.04,-137.74 788.61,-131.52 778.03,-131.04 780.04,-137.74"/>
</g>
<!-- Node20&#45;&gt;Node5 -->
<g id="edge16" class="edge">
<title>Node20&#45;&gt;Node5</title>
<path fill="none" stroke="midnightblue" d="M1046.4,-116.76C987.46,-107.37 845.53,-84.77 775.09,-73.54"/>
<polygon fill="midnightblue" stroke="midnightblue" points="775.25,-70.03 764.82,-71.91 774.15,-76.94 775.25,-70.03"/>
</g>
<!-- Node22 -->
<g id="node13" class="node">
<title>Node22</title>
<g id="a_node13"><a xlink:href="../../de/df0/utilities_8h.html" target="_top" xlink:title="Various templated functions that carry out common vector operations (see Templated Utility Functions)...">
<polygon fill="white" stroke="black" points="68,-224.5 68,-243.5 130,-243.5 130,-224.5 68,-224.5"/>
<text text-anchor="middle" x="99" y="-231.5" font-family="Helvetica,sans-Serif" font-size="10.00">utilities.h</text>
</a>
</g>
</g>
<!-- Node21&#45;&gt;Node22 -->
<g id="edge18" class="edge">
<title>Node21&#45;&gt;Node22</title>
<path fill="none" stroke="midnightblue" d="M124.05,-280.08C119.9,-272.61 113.85,-261.72 108.73,-252.52"/>
<polygon fill="midnightblue" stroke="midnightblue" points="111.78,-250.79 103.86,-243.75 105.66,-254.19 111.78,-250.79"/>
</g>
<!-- Node25 -->
<g id="node16" class="node">
<title>Node25</title>
<g id="a_node16"><a xlink:title=" ">
<polygon fill="white" stroke="#bfbfbf" points="478,-168.5 478,-187.5 538,-187.5 538,-168.5 478,-168.5"/>
<text text-anchor="middle" x="508" y="-175.5" font-family="Helvetica,sans-Serif" font-size="10.00">iostream</text>
</a>
</g>
</g>
<!-- Node21&#45;&gt;Node25 -->
<g id="edge23" class="edge">
<title>Node21&#45;&gt;Node25</title>
<path fill="none" stroke="midnightblue" d="M132.77,-280.06C139.39,-265.59 154.55,-237.3 177,-224 225.37,-195.34 390.33,-184.28 467.53,-180.6"/>
<polygon fill="midnightblue" stroke="midnightblue" points="467.99,-184.08 477.82,-180.13 467.67,-177.09 467.99,-184.08"/>
</g>
<!-- Node26 -->
<g id="node17" class="node">
<title>Node26</title>
<g id="a_node17"><a xlink:title=" ">
<polygon fill="white" stroke="#bfbfbf" points="0,-224.5 0,-243.5 50,-243.5 50,-224.5 0,-224.5"/>
<text text-anchor="middle" x="25" y="-231.5" font-family="Helvetica,sans-Serif" font-size="10.00">cstring</text>
</a>
</g>
</g>
<!-- Node21&#45;&gt;Node26 -->
<g id="edge24" class="edge">
<title>Node21&#45;&gt;Node26</title>
<path fill="none" stroke="midnightblue" d="M112.29,-280.32C95.69,-271.7 70,-258.36 50.78,-248.39"/>
<polygon fill="midnightblue" stroke="midnightblue" points="52.16,-245.16 41.67,-243.65 48.93,-251.37 52.16,-245.16"/>
</g>
<!-- Node22&#45;&gt;Node5 -->
<g id="edge19" class="edge">
<title>Node22&#45;&gt;Node5</title>
<path fill="none" stroke="midnightblue" d="M129.91,-224.49C202.99,-204.43 392.26,-152.76 551,-112 599.81,-99.47 656.13,-85.73 693.25,-76.77"/>
<polygon fill="midnightblue" stroke="midnightblue" points="694.29,-80.12 703.19,-74.37 692.65,-73.31 694.29,-80.12"/>
</g>
<!-- Node22&#45;&gt;Node19 -->
<g id="edge20" class="edge">
<title>Node22&#45;&gt;Node19</title>
<path fill="none" stroke="midnightblue" d="M130.11,-229.28C144.39,-227.61 161.55,-225.64 177,-224 341.29,-206.53 382.58,-204.22 547,-188 552.91,-187.42 559.03,-186.81 565.18,-186.2"/>
<polygon fill="midnightblue" stroke="midnightblue" points="565.91,-189.64 575.52,-185.17 565.22,-182.68 565.91,-189.64"/>
</g>
<!-- Node23 -->
<g id="node14" class="node">
<title>Node23</title>
<g id="a_node14"><a xlink:title=" ">
<polygon fill="white" stroke="#bfbfbf" points="27.5,-168.5 27.5,-187.5 92.5,-187.5 92.5,-168.5 27.5,-168.5"/>
<text text-anchor="middle" x="60" y="-175.5" font-family="Helvetica,sans-Serif" font-size="10.00">stdexcept</text>
</a>
</g>
</g>
<!-- Node22&#45;&gt;Node23 -->
<g id="edge21" class="edge">
<title>Node22&#45;&gt;Node23</title>
<path fill="none" stroke="midnightblue" d="M92.56,-224.08C87.05,-216.46 78.97,-205.26 72.24,-195.94"/>
<polygon fill="midnightblue" stroke="midnightblue" points="75.01,-193.81 66.32,-187.75 69.34,-197.91 75.01,-193.81"/>
</g>
<!-- Node24 -->
<g id="node15" class="node">
<title>Node24</title>
<g id="a_node15"><a xlink:title=" ">
<polygon fill="white" stroke="#bfbfbf" points="111,-168.5 111,-187.5 167,-187.5 167,-168.5 111,-168.5"/>
<text text-anchor="middle" x="139" y="-175.5" font-family="Helvetica,sans-Serif" font-size="10.00">numeric</text>
</a>
</g>
</g>
<!-- Node22&#45;&gt;Node24 -->
<g id="edge22" class="edge">
<title>Node22&#45;&gt;Node24</title>
<path fill="none" stroke="midnightblue" d="M105.61,-224.08C111.26,-216.46 119.54,-205.26 126.45,-195.94"/>
<polygon fill="midnightblue" stroke="midnightblue" points="129.38,-197.87 132.52,-187.75 123.75,-193.7 129.38,-197.87"/>
</g>
<!-- Node28 -->
<g id="node19" class="node">
<title>Node28</title>
<g id="a_node19"><a xlink:href="../../d7/d01/ThermoPhase_8h.html" target="_top" xlink:title="Header file for class ThermoPhase, the base class for phases with thermodynamic properties,...">
<polygon fill="white" stroke="black" points="834,-280.5 834,-299.5 926,-299.5 926,-280.5 834,-280.5"/>
<text text-anchor="middle" x="880" y="-287.5" font-family="Helvetica,sans-Serif" font-size="10.00">ThermoPhase.h</text>
</a>
</g>
</g>
<!-- Node27&#45;&gt;Node28 -->
<g id="edge26" class="edge">
<title>Node27&#45;&gt;Node28</title>
<path fill="none" stroke="midnightblue" d="M862.01,-341.98C865.03,-333.4 869.79,-319.93 873.65,-308.98"/>
<polygon fill="midnightblue" stroke="midnightblue" points="876.97,-310.1 877,-299.51 870.37,-307.77 876.97,-310.1"/>
</g>
<!-- Node28&#45;&gt;Node19 -->
<g id="edge30" class="edge">
<title>Node28&#45;&gt;Node19</title>
<path fill="none" stroke="midnightblue" d="M838.28,-280.43C807.18,-273.14 764.18,-261.1 729,-244 701.04,-230.41 672.32,-208.63 654.58,-194.07"/>
<polygon fill="midnightblue" stroke="midnightblue" points="656.71,-191.3 646.8,-187.58 652.23,-196.67 656.71,-191.3"/>
</g>
<!-- Node29 -->
<g id="node20" class="node">
<title>Node29</title>
<g id="a_node20"><a xlink:href="../../da/d84/Phase_8h.html" target="_top" xlink:title="Header file for class Phase.">
<polygon fill="white" stroke="red" points="997.5,-224.5 997.5,-243.5 1052.5,-243.5 1052.5,-224.5 997.5,-224.5"/>
<text text-anchor="middle" x="1025" y="-231.5" font-family="Helvetica,sans-Serif" font-size="10.00">Phase.h</text>
</a>
</g>
</g>
<!-- Node28&#45;&gt;Node29 -->
<g id="edge27" class="edge">
<title>Node28&#45;&gt;Node29</title>
<path fill="none" stroke="midnightblue" d="M902.98,-280.44C927.16,-271.44 965.42,-257.19 992.65,-247.05"/>
<polygon fill="midnightblue" stroke="midnightblue" points="993.98,-250.29 1002.13,-243.52 991.54,-243.73 993.98,-250.29"/>
</g>
<!-- Node42 -->
<g id="node21" class="node">
<title>Node42</title>
<g id="a_node21"><a xlink:href="../../d6/d7a/MultiSpeciesThermo_8h.html" target="_top" xlink:title="Header for a general species thermodynamic property manager for a phase (see MultiSpeciesThermo).">
<polygon fill="white" stroke="red" points="854.5,-224.5 854.5,-243.5 979.5,-243.5 979.5,-224.5 854.5,-224.5"/>
<text text-anchor="middle" x="917" y="-231.5" font-family="Helvetica,sans-Serif" font-size="10.00">MultiSpeciesThermo.h</text>
</a>
</g>
</g>
<!-- Node28&#45;&gt;Node42 -->
<g id="edge29" class="edge">
<title>Node28&#45;&gt;Node42</title>
<path fill="none" stroke="midnightblue" d="M886.11,-280.08C891.28,-272.53 898.85,-261.49 905.19,-252.23"/>
<polygon fill="midnightblue" stroke="midnightblue" points="908.24,-253.98 911,-243.75 902.46,-250.02 908.24,-253.98"/>
</g>
<!-- Node29&#45;&gt;Node17 -->
<g id="edge28" class="edge">
<title>Node29&#45;&gt;Node17</title>
<path fill="none" stroke="midnightblue" d="M1013.43,-224.32C1002.58,-216.18 986.12,-203.84 973.12,-194.09"/>
<polygon fill="midnightblue" stroke="midnightblue" points="974.88,-191.03 964.78,-187.83 970.68,-196.63 974.88,-191.03"/>
</g>
<!-- Node45&#45;&gt;Node19 -->
<g id="edge50" class="edge">
<title>Node45&#45;&gt;Node19</title>
<path fill="none" stroke="midnightblue" d="M678.4,-341.83C674.54,-321.24 664.11,-267.79 652,-224 649.53,-215.06 646.33,-205.27 643.52,-197.12"/>
<polygon fill="midnightblue" stroke="midnightblue" points="646.77,-195.81 640.14,-187.55 640.17,-198.14 646.77,-195.81"/>
</g>
<!-- Node45&#45;&gt;Node28 -->
<g id="edge32" class="edge">
<title>Node45&#45;&gt;Node28</title>
<path fill="none" stroke="midnightblue" d="M708.66,-341.98C743.56,-331.59 802.65,-314.01 841.5,-302.45"/>
<polygon fill="midnightblue" stroke="midnightblue" points="842.81,-305.72 851.4,-299.51 840.82,-299.01 842.81,-305.72"/>
</g>
<!-- Node46 -->
<g id="node23" class="node">
<title>Node46</title>
<g id="a_node23"><a xlink:href="../../dd/dfd/StoichManager_8h.html" target="_top" xlink:title=" ">
<polygon fill="white" stroke="black" points="738,-224.5 738,-243.5 836,-243.5 836,-224.5 738,-224.5"/>
<text text-anchor="middle" x="787" y="-231.5" font-family="Helvetica,sans-Serif" font-size="10.00">StoichManager.h</text>
</a>
</g>
</g>
<!-- Node45&#45;&gt;Node46 -->
<g id="edge33" class="edge">
<title>Node45&#45;&gt;Node46</title>
<path fill="none" stroke="midnightblue" d="M688.04,-341.82C705.86,-322.59 748.89,-276.14 771.89,-251.31"/>
<polygon fill="midnightblue" stroke="midnightblue" points="774.64,-253.5 778.86,-243.78 769.5,-248.74 774.64,-253.5"/>
</g>
<!-- Node47 -->
<g id="node24" class="node">
<title>Node47</title>
<g id="a_node24"><a xlink:href="../../d8/d5d/Reaction_8h.html" target="_top" xlink:title=" ">
<polygon fill="white" stroke="black" points="329.5,-280.5 329.5,-299.5 478.5,-299.5 478.5,-280.5 329.5,-280.5"/>
<text text-anchor="middle" x="404" y="-287.5" font-family="Helvetica,sans-Serif" font-size="10.00">cantera/kinetics/Reaction.h</text>
</a>
</g>
</g>
<!-- Node45&#45;&gt;Node47 -->
<g id="edge36" class="edge">
<title>Node45&#45;&gt;Node47</title>
<path fill="none" stroke="midnightblue" d="M640.46,-341.98C591.17,-331.35 506.91,-313.18 453.41,-301.65"/>
<polygon fill="midnightblue" stroke="midnightblue" points="453.98,-298.2 443.47,-299.51 452.51,-305.04 453.98,-298.2"/>
</g>
<!-- Node46&#45;&gt;Node4 -->
<g id="edge34" class="edge">
<title>Node46&#45;&gt;Node4</title>
<path fill="none" stroke="midnightblue" d="M787,-224.08C787,-217.01 787,-206.86 787,-197.99"/>
<polygon fill="midnightblue" stroke="midnightblue" points="790.5,-197.75 787,-187.75 783.5,-197.75 790.5,-197.75"/>
</g>
<!-- Node46&#45;&gt;Node17 -->
<g id="edge35" class="edge">
<title>Node46&#45;&gt;Node17</title>
<path fill="none" stroke="midnightblue" d="M813.3,-224.44C841.35,-215.32 885.94,-200.81 917.18,-190.65"/>
<polygon fill="midnightblue" stroke="midnightblue" points="918.39,-193.94 926.82,-187.52 916.23,-187.28 918.39,-193.94"/>
</g>
<!-- Node47&#45;&gt;Node22 -->
<g id="edge37" class="edge">
<title>Node47&#45;&gt;Node22</title>
<path fill="none" stroke="midnightblue" d="M355.67,-280.44C296.21,-269.92 196.29,-252.23 140.27,-242.31"/>
<polygon fill="midnightblue" stroke="midnightblue" points="140.8,-238.85 130.34,-240.55 139.58,-245.74 140.8,-238.85"/>
</g>
<!-- Node33 -->
<g id="node25" class="node">
<title>Node33</title>
<g id="a_node25"><a xlink:href="../../dd/d2a/AnyMap_8h.html" target="_top" xlink:title=" ">
<polygon fill="white" stroke="red" points="186.5,-224.5 186.5,-243.5 317.5,-243.5 317.5,-224.5 186.5,-224.5"/>
<text text-anchor="middle" x="252" y="-231.5" font-family="Helvetica,sans-Serif" font-size="10.00">cantera/base/AnyMap.h</text>
</a>
</g>
</g>
<!-- Node47&#45;&gt;Node33 -->
<g id="edge38" class="edge">
<title>Node47&#45;&gt;Node33</title>
<path fill="none" stroke="midnightblue" d="M379.92,-280.44C354.46,-271.4 314.11,-257.06 285.54,-246.92"/>
<polygon fill="midnightblue" stroke="midnightblue" points="286.57,-243.57 275.97,-243.52 284.22,-250.16 286.57,-243.57"/>
</g>
<!-- Node48 -->
<g id="node26" class="node">
<title>Node48</title>
<g id="a_node26"><a xlink:href="../../da/d70/RxnRates_8h.html" target="_top" xlink:title=" ">
<polygon fill="white" stroke="red" points="490.5,-224.5 490.5,-243.5 643.5,-243.5 643.5,-224.5 490.5,-224.5"/>
<text text-anchor="middle" x="567" y="-231.5" font-family="Helvetica,sans-Serif" font-size="10.00">cantera/kinetics/RxnRates.h</text>
</a>
</g>
</g>
<!-- Node47&#45;&gt;Node48 -->
<g id="edge43" class="edge">
<title>Node47&#45;&gt;Node48</title>
<path fill="none" stroke="midnightblue" d="M429.83,-280.44C457.25,-271.36 500.78,-256.94 531.43,-246.78"/>
<polygon fill="midnightblue" stroke="midnightblue" points="532.9,-249.98 541.29,-243.52 530.7,-243.34 532.9,-249.98"/>
</g>
<!-- Node50 -->
<g id="node27" class="node">
<title>Node50</title>
<g id="a_node27"><a xlink:href="../../de/d72/Falloff_8h_source.html" target="_top" xlink:title=" ">
<polygon fill="white" stroke="red" points="336,-224.5 336,-243.5 472,-243.5 472,-224.5 336,-224.5"/>
<text text-anchor="middle" x="404" y="-231.5" font-family="Helvetica,sans-Serif" font-size="10.00">cantera/kinetics/Falloff.h</text>
</a>
</g>
</g>
<!-- Node47&#45;&gt;Node50 -->
<g id="edge48" class="edge">
<title>Node47&#45;&gt;Node50</title>
<path fill="none" stroke="midnightblue" d="M404,-280.08C404,-273.01 404,-262.86 404,-253.99"/>
<polygon fill="midnightblue" stroke="midnightblue" points="407.5,-253.75 404,-243.75 400.5,-253.75 407.5,-253.75"/>
</g>
<!-- Node33&#45;&gt;Node5 -->
<g id="edge39" class="edge">
<title>Node33&#45;&gt;Node5</title>
<path fill="none" stroke="midnightblue" d="M276.9,-224.42C356.89,-196.88 607.45,-110.58 699.57,-78.86"/>
<polygon fill="midnightblue" stroke="midnightblue" points="700.93,-82.09 709.25,-75.52 698.65,-75.47 700.93,-82.09"/>
</g>
<!-- Node33&#45;&gt;Node11 -->
<g id="edge42" class="edge">
<title>Node33&#45;&gt;Node11</title>
<path fill="none" stroke="midnightblue" d="M267.67,-224.43C329.58,-190.58 557.48,-65.96 633.29,-24.51"/>
<polygon fill="midnightblue" stroke="midnightblue" points="635.07,-27.53 642.16,-19.66 631.71,-21.39 635.07,-27.53"/>
</g>
<!-- Node33&#45;&gt;Node17 -->
<g id="edge41" class="edge">
<title>Node33&#45;&gt;Node17</title>
<path fill="none" stroke="midnightblue" d="M317.83,-224.9C320.93,-224.58 324,-224.28 327,-224 563.22,-201.97 625.65,-208.34 865.58,-188.09"/>
<polygon fill="midnightblue" stroke="midnightblue" points="865.99,-191.57 875.66,-187.23 865.4,-184.59 865.99,-191.57"/>
</g>
<!-- Node33&#45;&gt;Node19 -->
<g id="edge40" class="edge">
<title>Node33&#45;&gt;Node19</title>
<path fill="none" stroke="midnightblue" d="M313,-224.44C381.86,-214.79 493.7,-199.1 566.3,-188.92"/>
<polygon fill="midnightblue" stroke="midnightblue" points="566.86,-192.37 576.28,-187.52 565.89,-185.44 566.86,-192.37"/>
</g>
<!-- Node48&#45;&gt;Node4 -->
<g id="edge45" class="edge">
<title>Node48&#45;&gt;Node4</title>
<path fill="none" stroke="midnightblue" d="M601.86,-224.44C639.92,-215.1 700.96,-200.12 742.46,-189.93"/>
<polygon fill="midnightblue" stroke="midnightblue" points="743.43,-193.3 752.3,-187.52 741.76,-186.5 743.43,-193.3"/>
</g>
<!-- Node48&#45;&gt;Node17 -->
<g id="edge44" class="edge">
<title>Node48&#45;&gt;Node17</title>
<path fill="none" stroke="midnightblue" d="M628.16,-224.44C697.19,-214.79 809.33,-199.1 882.12,-188.92"/>
<polygon fill="midnightblue" stroke="midnightblue" points="882.7,-192.37 892.12,-187.52 881.73,-185.44 882.7,-192.37"/>
</g>
<!-- Node48&#45;&gt;Node19 -->
<g id="edge46" class="edge">
<title>Node48&#45;&gt;Node19</title>
<path fill="none" stroke="midnightblue" d="M578.25,-224.32C588.8,-216.18 604.8,-203.84 617.44,-194.09"/>
<polygon fill="midnightblue" stroke="midnightblue" points="619.77,-196.71 625.55,-187.83 615.49,-191.17 619.77,-196.71"/>
</g>
<!-- Node48&#45;&gt;Node25 -->
<g id="edge47" class="edge">
<title>Node48&#45;&gt;Node25</title>
<path fill="none" stroke="midnightblue" d="M557.52,-224.32C548.8,-216.34 535.66,-204.31 525.1,-194.65"/>
<polygon fill="midnightblue" stroke="midnightblue" points="527.39,-192 517.65,-187.83 522.67,-197.17 527.39,-192"/>
</g>
<!-- Node50&#45;&gt;Node19 -->
<g id="edge49" class="edge">
<title>Node50&#45;&gt;Node19</title>
<path fill="none" stroke="midnightblue" d="M440.92,-224.44C481.4,-215.06 546.42,-199.99 590.38,-189.8"/>
<polygon fill="midnightblue" stroke="midnightblue" points="591.3,-193.18 600.25,-187.52 589.72,-186.36 591.3,-193.18"/>
</g>
<!-- Node51&#45;&gt;Node5 -->
<g id="edge52" class="edge">
<title>Node51&#45;&gt;Node5</title>
<path fill="none" stroke="midnightblue" d="M1190.88,-280.24C1205.64,-268.2 1227.88,-245.57 1219,-224 1192.33,-159.19 1170.96,-142.79 1108,-112 1050.04,-83.66 859.25,-72.27 774.82,-68.54"/>
<polygon fill="midnightblue" stroke="midnightblue" points="774.73,-65.03 764.59,-68.1 774.43,-72.03 774.73,-65.03"/>
</g>
<!-- Node52 -->
<g id="node29" class="node">
<title>Node52</title>
<g id="a_node29"><a xlink:href="../../d0/d62/xml_8h.html" target="_top" xlink:title="Classes providing support for XML data files.">
<polygon fill="white" stroke="black" points="1071,-224.5 1071,-243.5 1115,-243.5 1115,-224.5 1071,-224.5"/>
<text text-anchor="middle" x="1093" y="-231.5" font-family="Helvetica,sans-Serif" font-size="10.00">xml.h</text>
</a>
</g>
</g>
<!-- Node51&#45;&gt;Node52 -->
<g id="edge53" class="edge">
<title>Node51&#45;&gt;Node52</title>
<path fill="none" stroke="midnightblue" d="M1165.18,-280.32C1151.77,-271.9 1131.18,-258.97 1115.41,-249.07"/>
<polygon fill="midnightblue" stroke="midnightblue" points="1117.11,-246.01 1106.78,-243.65 1113.39,-251.94 1117.11,-246.01"/>
</g>
<!-- Node52&#45;&gt;Node17 -->
<g id="edge54" class="edge">
<title>Node52&#45;&gt;Node17</title>
<path fill="none" stroke="midnightblue" d="M1070.82,-224.44C1047.57,-215.48 1010.85,-201.31 984.58,-191.18"/>
<polygon fill="midnightblue" stroke="midnightblue" points="985.67,-187.85 975.08,-187.52 983.15,-194.38 985.67,-187.85"/>
</g>
<!-- Node52&#45;&gt;Node19 -->
<g id="edge55" class="edge">
<title>Node52&#45;&gt;Node19</title>
<path fill="none" stroke="midnightblue" d="M1070.74,-226.21C1067.49,-225.37 1064.18,-224.6 1061,-224 908.82,-195.09 865.86,-205.63 708.13,-188.09"/>
<polygon fill="midnightblue" stroke="midnightblue" points="708.4,-184.6 698.07,-186.95 707.61,-191.55 708.4,-184.6"/>
</g>
<!-- Node53&#45;&gt;Node28 -->
<g id="edge57" class="edge">
<title>Node53&#45;&gt;Node28</title>
<path fill="none" stroke="midnightblue" d="M1030.31,-336.4C996.12,-326.07 950.29,-312.23 918.26,-302.56"/>
<polygon fill="midnightblue" stroke="midnightblue" points="918.96,-299.11 908.38,-299.57 916.94,-305.81 918.96,-299.11"/>
</g>
<!-- Node54&#45;&gt;Node5 -->
<g id="edge59" class="edge">
<title>Node54&#45;&gt;Node5</title>
<path fill="none" stroke="midnightblue" d="M1277,-403.49C1277,-383.74 1277,-333.22 1277,-291 1277,-291 1277,-291 1277,-177 1277,-74.56 901.05,-66.44 774.79,-66.6"/>
<polygon fill="midnightblue" stroke="midnightblue" points="774.74,-63.1 764.75,-66.63 774.76,-70.1 774.74,-63.1"/>
</g>
</g>
</svg>
        <g id="navigator" transform="translate(0 0)" fill="#404254">
                <rect fill="#f2f5e9" fill-opacity="0.5" stroke="#606060" stroke-width=".5" x="0" y="0" width="60" height="60"/>
                <use id="zoomplus" xlink:href="#zoomPlus" x="17" y="9" onmousedown="handleZoom(evt,'in')"/>
                <use id="zoomminus" xlink:href="#zoomMin" x="42" y="9" onmousedown="handleZoom(evt,'out')"/>
                <use id="reset" xlink:href="#resetDef" x="30" y="36" onmousedown="handleReset()"/>
                <g id="arrowUp" xlink:href="#dirArrow" transform="translate(30 24)" onmousedown="handlePan(0,-1)">
                  <use xlink:href="#rim" fill="#404040">
                        <set attributeName="fill" to="#808080" begin="arrowUp.mouseover" end="arrowUp.mouseout"/>
                  </use>
                  <path fill="none" stroke="white" stroke-width="1.5" d="M0,-3.0v7 M-2.5,-0.5L0,-3.0L2.5,-0.5"/>
                </g>
                <g id="arrowRight" xlink:href="#dirArrow" transform="rotate(90) translate(36 -43)" onmousedown="handlePan(1,0)">
                  <use xlink:href="#rim" fill="#404040">
                        <set attributeName="fill" to="#808080" begin="arrowRight.mouseover" end="arrowRight.mouseout"/>
                  </use>
                  <path fill="none" stroke="white" stroke-width="1.5" d="M0,-3.0v7 M-2.5,-0.5L0,-3.0L2.5,-0.5"/>
                </g>
                <g id="arrowDown" xlink:href="#dirArrow" transform="rotate(180) translate(-30 -48)" onmousedown="handlePan(0,1)">
                  <use xlink:href="#rim" fill="#404040">
                        <set attributeName="fill" to="#808080" begin="arrowDown.mouseover" end="arrowDown.mouseout"/>
                  </use>
                  <path fill="none" stroke="white" stroke-width="1.5" d="M0,-3.0v7 M-2.5,-0.5L0,-3.0L2.5,-0.5"/>
                </g>
                <g id="arrowLeft" xlink:href="#dirArrow" transform="rotate(270) translate(-36 17)" onmousedown="handlePan(-1,0)">
                  <use xlink:href="#rim" fill="#404040">
                        <set attributeName="fill" to="#808080" begin="arrowLeft.mouseover" end="arrowLeft.mouseout"/>
                  </use>
                  <path fill="none" stroke="white" stroke-width="1.5" d="M0,-3.0v7 M-2.5,-0.5L0,-3.0L2.5,-0.5"/>
                </g>
        </g>
        <svg viewBox="0 0 15 15" width="100%" height="30px" preserveAspectRatio="xMaxYMin meet">
         <g id="arrow_out" transform="scale(0.3 0.3)">
          <a xlink:href="StFlow_8cpp__incl_org.svg" target="_base">
           <rect id="button" ry="5" rx="5" y="6" x="6" height="38" width="38"
                fill="#f2f5e9" fill-opacity="0.5" stroke="#606060" stroke-width="1.0"/>
           <path id="arrow"
             d="M 11.500037,31.436501 C 11.940474,20.09759 22.043105,11.32322 32.158766,21.979434 L 37.068811,17.246167 C 37.068811,17.246167 37.088388,32 37.088388,32 L 22.160133,31.978069 C 22.160133,31.978069 26.997745,27.140456 26.997745,27.140456 C 18.528582,18.264221 13.291696,25.230495 11.500037,31.436501 z"
             style="fill:#404040;"/>
          </a>
         </g>
        </svg>
</svg>
