<?xml version="1.0" encoding="UTF-8" standalone="no"?>
<!DOCTYPE svg PUBLIC "-//W3C//DTD SVG 1.1//EN"
 "http://www.w3.org/Graphics/SVG/1.1/DTD/svg11.dtd">
<!-- Generated by graphviz version 2.43.0 (0)
 -->
<!-- Title: MixTransport.cpp Pages: 1 -->
<svg width="682pt" height="420pt"
 viewBox="0.00 0.00 682.00 420.00" xmlns="http://www.w3.org/2000/svg" xmlns:xlink="http://www.w3.org/1999/xlink">
<g id="graph0" class="graph" transform="scale(1 1) rotate(0) translate(4 416)">
<title>MixTransport.cpp</title>
<polygon fill="white" stroke="transparent" points="-4,4 -4,-416 678,-416 678,4 -4,4"/>
<!-- Node1 -->
<g id="node1" class="node">
<title>Node1</title>
<g id="a_node1"><a xlink:title="Mixture&#45;averaged transport properties for ideal gas mixtures.">
<polygon fill="#bfbfbf" stroke="black" points="347,-392.5 347,-411.5 447,-411.5 447,-392.5 347,-392.5"/>
<text text-anchor="middle" x="397" y="-399.5" font-family="Helvetica,sans-Serif" font-size="10.00">MixTransport.cpp</text>
</a>
</g>
</g>
<!-- Node2 -->
<g id="node2" class="node">
<title>Node2</title>
<g id="a_node2"><a xlink:href="../../d5/d57/MixTransport_8h.html" target="_top" xlink:title="Headers for the MixTransport object, which models transport properties in ideal gas solutions using a...">
<polygon fill="white" stroke="black" points="251,-336.5 251,-355.5 427,-355.5 427,-336.5 251,-336.5"/>
<text text-anchor="middle" x="339" y="-343.5" font-family="Helvetica,sans-Serif" font-size="10.00">cantera/transport/MixTransport.h</text>
</a>
</g>
</g>
<!-- Node1&#45;&gt;Node2 -->
<g id="edge1" class="edge">
<title>Node1&#45;&gt;Node2</title>
<path fill="none" stroke="midnightblue" d="M387.68,-392.32C379.11,-384.34 366.19,-372.31 355.81,-362.65"/>
<polygon fill="midnightblue" stroke="midnightblue" points="358.19,-360.09 348.49,-355.83 353.42,-365.21 358.19,-360.09"/>
</g>
<!-- Node44 -->
<g id="node12" class="node">
<title>Node44</title>
<g id="a_node12"><a xlink:href="../../dd/dc3/stringUtils_8h.html" target="_top" xlink:title="Contains declarations for string manipulation functions within Cantera.">
<polygon fill="white" stroke="black" points="532,-168.5 532,-187.5 674,-187.5 674,-168.5 532,-168.5"/>
<text text-anchor="middle" x="603" y="-175.5" font-family="Helvetica,sans-Serif" font-size="10.00">cantera/base/stringUtils.h</text>
</a>
</g>
</g>
<!-- Node1&#45;&gt;Node44 -->
<g id="edge13" class="edge">
<title>Node1&#45;&gt;Node44</title>
<path fill="none" stroke="midnightblue" d="M405.08,-392.3C435.96,-359.01 546.93,-239.42 587.77,-195.41"/>
<polygon fill="midnightblue" stroke="midnightblue" points="590.52,-197.59 594.76,-187.88 585.39,-192.83 590.52,-197.59"/>
</g>
<!-- Node3 -->
<g id="node3" class="node">
<title>Node3</title>
<g id="a_node3"><a xlink:href="../../d1/d2e/GasTransport_8h.html" target="_top" xlink:title=" ">
<polygon fill="white" stroke="black" points="221.5,-280.5 221.5,-299.5 310.5,-299.5 310.5,-280.5 221.5,-280.5"/>
<text text-anchor="middle" x="266" y="-287.5" font-family="Helvetica,sans-Serif" font-size="10.00">GasTransport.h</text>
</a>
</g>
</g>
<!-- Node2&#45;&gt;Node3 -->
<g id="edge2" class="edge">
<title>Node2&#45;&gt;Node3</title>
<path fill="none" stroke="midnightblue" d="M327.27,-336.32C316.16,-328.11 299.26,-315.6 286.02,-305.81"/>
<polygon fill="midnightblue" stroke="midnightblue" points="288.06,-302.97 277.94,-299.83 283.9,-308.59 288.06,-302.97"/>
</g>
<!-- Node37 -->
<g id="node6" class="node">
<title>Node37</title>
<g id="a_node6"><a xlink:href="../../d1/df7/DenseMatrix_8h.html" target="_top" xlink:title="Headers for the DenseMatrix object, which deals with dense rectangular matrices and description of th...">
<polygon fill="white" stroke="black" points="215,-224.5 215,-243.5 391,-243.5 391,-224.5 215,-224.5"/>
<text text-anchor="middle" x="303" y="-231.5" font-family="Helvetica,sans-Serif" font-size="10.00">cantera/numerics/DenseMatrix.h</text>
</a>
</g>
</g>
<!-- Node2&#45;&gt;Node37 -->
<g id="edge12" class="edge">
<title>Node2&#45;&gt;Node37</title>
<path fill="none" stroke="midnightblue" d="M336.4,-336.13C332.7,-323.58 325.61,-299.95 319,-280 316.06,-271.13 312.61,-261.36 309.67,-253.19"/>
<polygon fill="midnightblue" stroke="midnightblue" points="312.88,-251.79 306.18,-243.59 306.31,-254.18 312.88,-251.79"/>
</g>
<!-- Node4 -->
<g id="node4" class="node">
<title>Node4</title>
<g id="a_node4"><a xlink:href="../../da/dbb/TransportBase_8h.html" target="_top" xlink:title="Headers for the Transport object, which is the virtual base class for all transport property evaluato...">
<polygon fill="white" stroke="black" points="69.5,-224.5 69.5,-243.5 164.5,-243.5 164.5,-224.5 69.5,-224.5"/>
<text text-anchor="middle" x="117" y="-231.5" font-family="Helvetica,sans-Serif" font-size="10.00">TransportBase.h</text>
</a>
</g>
</g>
<!-- Node3&#45;&gt;Node4 -->
<g id="edge3" class="edge">
<title>Node3&#45;&gt;Node4</title>
<path fill="none" stroke="midnightblue" d="M242.39,-280.44C217.54,-271.44 178.23,-257.19 150.25,-247.05"/>
<polygon fill="midnightblue" stroke="midnightblue" points="151.09,-243.63 140.5,-243.52 148.71,-250.21 151.09,-243.63"/>
</g>
<!-- Node3&#45;&gt;Node37 -->
<g id="edge5" class="edge">
<title>Node3&#45;&gt;Node37</title>
<path fill="none" stroke="midnightblue" d="M272.11,-280.08C277.28,-272.53 284.85,-261.49 291.19,-252.23"/>
<polygon fill="midnightblue" stroke="midnightblue" points="294.24,-253.98 297,-243.75 288.46,-250.02 294.24,-253.98"/>
</g>
<!-- Node5 -->
<g id="node5" class="node">
<title>Node5</title>
<g id="a_node5"><a xlink:href="../../d7/d01/ThermoPhase_8h.html" target="_top" xlink:title="Header file for class ThermoPhase, the base class for phases with thermodynamic properties,...">
<polygon fill="white" stroke="red" points="0,-168.5 0,-187.5 170,-187.5 170,-168.5 0,-168.5"/>
<text text-anchor="middle" x="85" y="-175.5" font-family="Helvetica,sans-Serif" font-size="10.00">cantera/thermo/ThermoPhase.h</text>
</a>
</g>
</g>
<!-- Node4&#45;&gt;Node5 -->
<g id="edge4" class="edge">
<title>Node4&#45;&gt;Node5</title>
<path fill="none" stroke="midnightblue" d="M111.72,-224.08C107.29,-216.61 100.84,-205.72 95.38,-196.52"/>
<polygon fill="midnightblue" stroke="midnightblue" points="98.29,-194.57 90.19,-187.75 92.27,-198.14 98.29,-194.57"/>
</g>
<!-- Node9 -->
<g id="node7" class="node">
<title>Node9</title>
<g id="a_node7"><a xlink:href="../../d9/ddc/ct__defs_8h.html" target="_top" xlink:title="This file contains definitions of terms that are used in internal routines and are unlikely to need m...">
<polygon fill="white" stroke="red" points="482.5,-56.5 482.5,-75.5 543.5,-75.5 543.5,-56.5 482.5,-56.5"/>
<text text-anchor="middle" x="513" y="-63.5" font-family="Helvetica,sans-Serif" font-size="10.00">ct_defs.h</text>
</a>
</g>
</g>
<!-- Node37&#45;&gt;Node9 -->
<g id="edge6" class="edge">
<title>Node37&#45;&gt;Node9</title>
<path fill="none" stroke="midnightblue" d="M273.58,-224.49C241.97,-213.81 198.6,-193.72 217,-168 275.78,-85.84 405.46,-69.75 471.94,-67.1"/>
<polygon fill="midnightblue" stroke="midnightblue" points="472.16,-70.59 482.05,-66.78 471.94,-63.6 472.16,-70.59"/>
</g>
<!-- Node7 -->
<g id="node9" class="node">
<title>Node7</title>
<g id="a_node9"><a xlink:href="../../db/d98/ctexceptions_8h.html" target="_top" xlink:title="Definitions for the classes that are thrown when Cantera experiences an error condition (also contain...">
<polygon fill="white" stroke="red" points="226,-168.5 226,-187.5 380,-187.5 380,-168.5 226,-168.5"/>
<text text-anchor="middle" x="303" y="-175.5" font-family="Helvetica,sans-Serif" font-size="10.00">cantera/base/ctexceptions.h</text>
</a>
</g>
</g>
<!-- Node37&#45;&gt;Node7 -->
<g id="edge8" class="edge">
<title>Node37&#45;&gt;Node7</title>
<path fill="none" stroke="midnightblue" d="M303,-224.08C303,-217.01 303,-206.86 303,-197.99"/>
<polygon fill="midnightblue" stroke="midnightblue" points="306.5,-197.75 303,-187.75 299.5,-197.75 306.5,-197.75"/>
</g>
<!-- Node38 -->
<g id="node11" class="node">
<title>Node38</title>
<g id="a_node11"><a xlink:href="../../df/dd0/Array_8h.html" target="_top" xlink:title="Header file for class Cantera::Array2D.">
<polygon fill="white" stroke="red" points="398,-168.5 398,-187.5 514,-187.5 514,-168.5 398,-168.5"/>
<text text-anchor="middle" x="456" y="-175.5" font-family="Helvetica,sans-Serif" font-size="10.00">cantera/base/Array.h</text>
</a>
</g>
</g>
<!-- Node37&#45;&gt;Node38 -->
<g id="edge11" class="edge">
<title>Node37&#45;&gt;Node38</title>
<path fill="none" stroke="midnightblue" d="M327.24,-224.44C352.87,-215.4 393.49,-201.06 422.24,-190.92"/>
<polygon fill="midnightblue" stroke="midnightblue" points="423.61,-194.15 431.87,-187.52 421.28,-187.54 423.61,-194.15"/>
</g>
<!-- Node15 -->
<g id="node8" class="node">
<title>Node15</title>
<g id="a_node8"><a xlink:title=" ">
<polygon fill="white" stroke="#bfbfbf" points="520,-0.5 520,-19.5 564,-19.5 564,-0.5 520,-0.5"/>
<text text-anchor="middle" x="542" y="-7.5" font-family="Helvetica,sans-Serif" font-size="10.00">string</text>
</a>
</g>
</g>
<!-- Node9&#45;&gt;Node15 -->
<g id="edge7" class="edge">
<title>Node9&#45;&gt;Node15</title>
<path fill="none" stroke="midnightblue" d="M517.79,-56.08C521.76,-48.69 527.53,-37.95 532.43,-28.81"/>
<polygon fill="midnightblue" stroke="midnightblue" points="535.65,-30.22 537.3,-19.75 529.49,-26.91 535.65,-30.22"/>
</g>
<!-- Node8 -->
<g id="node10" class="node">
<title>Node8</title>
<g id="a_node10"><a xlink:href="../../db/def/fmt_8h.html" target="_top" xlink:title="Wrapper for either system&#45;installed or local headers for fmt.">
<polygon fill="white" stroke="red" points="427.5,-112.5 427.5,-131.5 536.5,-131.5 536.5,-112.5 427.5,-112.5"/>
<text text-anchor="middle" x="482" y="-119.5" font-family="Helvetica,sans-Serif" font-size="10.00">cantera/base/fmt.h</text>
</a>
</g>
</g>
<!-- Node7&#45;&gt;Node8 -->
<g id="edge9" class="edge">
<title>Node7&#45;&gt;Node8</title>
<path fill="none" stroke="midnightblue" d="M331.36,-168.44C361.74,-159.28 410.11,-144.69 443.82,-134.52"/>
<polygon fill="midnightblue" stroke="midnightblue" points="445.21,-137.76 453.77,-131.52 443.18,-131.05 445.21,-137.76"/>
</g>
<!-- Node8&#45;&gt;Node9 -->
<g id="edge10" class="edge">
<title>Node8&#45;&gt;Node9</title>
<path fill="none" stroke="midnightblue" d="M487.12,-112.08C491.41,-104.61 497.66,-93.72 502.94,-84.52"/>
<polygon fill="midnightblue" stroke="midnightblue" points="506.03,-86.17 507.98,-75.75 499.96,-82.68 506.03,-86.17"/>
</g>
<!-- Node44&#45;&gt;Node9 -->
<g id="edge14" class="edge">
<title>Node44&#45;&gt;Node9</title>
<path fill="none" stroke="midnightblue" d="M595.94,-168.37C580.95,-150.05 545.77,-107.05 526.39,-83.36"/>
<polygon fill="midnightblue" stroke="midnightblue" points="529.07,-81.11 520.03,-75.59 523.65,-85.55 529.07,-81.11"/>
</g>
<!-- Node44&#45;&gt;Node15 -->
<g id="edge16" class="edge">
<title>Node44&#45;&gt;Node15</title>
<path fill="none" stroke="midnightblue" d="M599.72,-168.08C590.08,-141.83 561.68,-64.55 548.66,-29.12"/>
<polygon fill="midnightblue" stroke="midnightblue" points="551.88,-27.75 545.15,-19.57 545.31,-30.16 551.88,-27.75"/>
</g>
<!-- Node44&#45;&gt;Node8 -->
<g id="edge15" class="edge">
<title>Node44&#45;&gt;Node8</title>
<path fill="none" stroke="midnightblue" d="M583.83,-168.44C564.09,-159.64 533.11,-145.81 510.51,-135.72"/>
<polygon fill="midnightblue" stroke="midnightblue" points="511.64,-132.4 501.08,-131.52 508.79,-138.79 511.64,-132.4"/>
</g>
</g>
</svg>
