<?xml version="1.0" encoding="UTF-8" standalone="no"?>
<!DOCTYPE svg PUBLIC "-//W3C//DTD SVG 1.1//EN"
 "http://www.w3.org/Graphics/SVG/1.1/DTD/svg11.dtd">
<!-- Generated by graphviz version 2.40.1 (20161225.0304)
 -->
<!-- Title: MultiTransport.h Pages: 1 -->
<svg width="496pt" height="364pt"
 viewBox="0.00 0.00 495.94 364.00" xmlns="http://www.w3.org/2000/svg" xmlns:xlink="http://www.w3.org/1999/xlink">
<g id="graph0" class="graph" transform="scale(1 1) rotate(0) translate(4 360)">
<title>MultiTransport.h</title>
<polygon fill="#ffffff" stroke="transparent" points="-4,4 -4,-360 491.9362,-360 491.9362,4 -4,4"/>
<!-- Node0 -->
<g id="node1" class="node">
<title>Node0</title>
<polygon fill="#bfbfbf" stroke="#000000" points="207,-336.5 207,-355.5 296,-355.5 296,-336.5 207,-336.5"/>
<text text-anchor="middle" x="251.5" y="-343.5" font-family="Helvetica,sans-Serif" font-size="10.00" fill="#000000">MultiTransport.h</text>
</g>
<!-- Node1 -->
<g id="node2" class="node">
<title>Node1</title>
<g id="a_node2"><a xlink:href="../../d1/d2e/GasTransport_8h.html" target="_top" xlink:title="GasTransport.h">
<polygon fill="#ffffff" stroke="#000000" points="208.5,-280.5 208.5,-299.5 294.5,-299.5 294.5,-280.5 208.5,-280.5"/>
<text text-anchor="middle" x="251.5" y="-287.5" font-family="Helvetica,sans-Serif" font-size="10.00" fill="#000000">GasTransport.h</text>
</a>
</g>
</g>
<!-- Node0&#45;&gt;Node1 -->
<g id="edge1" class="edge">
<title>Node0&#45;&gt;Node1</title>
<path fill="none" stroke="#191970" d="M251.5,-336.2455C251.5,-328.9382 251.5,-318.6944 251.5,-309.7046"/>
<polygon fill="#191970" stroke="#191970" points="255.0001,-309.6426 251.5,-299.6427 248.0001,-309.6427 255.0001,-309.6426"/>
</g>
<!-- Node2 -->
<g id="node3" class="node">
<title>Node2</title>
<g id="a_node3"><a xlink:href="../../da/dbb/TransportBase_8h.html" target="_top" xlink:title="Headers for the Transport object, which is the virtual base class for all transport property evaluato...">
<polygon fill="#ffffff" stroke="#000000" points="135.5,-224.5 135.5,-243.5 225.5,-243.5 225.5,-224.5 135.5,-224.5"/>
<text text-anchor="middle" x="180.5" y="-231.5" font-family="Helvetica,sans-Serif" font-size="10.00" fill="#000000">TransportBase.h</text>
</a>
</g>
</g>
<!-- Node1&#45;&gt;Node2 -->
<g id="edge2" class="edge">
<title>Node1&#45;&gt;Node2</title>
<path fill="none" stroke="#191970" d="M239.1327,-280.2455C228.5446,-271.8943 213.0936,-259.7076 200.7107,-249.9408"/>
<polygon fill="#191970" stroke="#191970" points="202.7447,-247.0875 192.7255,-243.6427 198.4097,-252.5837 202.7447,-247.0875"/>
</g>
<!-- Node32 -->
<g id="node10" class="node">
<title>Node32</title>
<g id="a_node10"><a xlink:href="../../d1/df7/DenseMatrix_8h.html" target="_top" xlink:title="Headers for the DenseMatrix object, which deals with dense rectangular matrices and description of th...">
<polygon fill="#ffffff" stroke="#000000" points="264.5,-224.5 264.5,-243.5 424.5,-243.5 424.5,-224.5 264.5,-224.5"/>
<text text-anchor="middle" x="344.5" y="-231.5" font-family="Helvetica,sans-Serif" font-size="10.00" fill="#000000">cantera/numerics/DenseMatrix.h</text>
</a>
</g>
</g>
<!-- Node1&#45;&gt;Node32 -->
<g id="edge9" class="edge">
<title>Node1&#45;&gt;Node32</title>
<path fill="none" stroke="#191970" d="M267.6994,-280.2455C282.1018,-271.5731 303.3732,-258.7645 319.8799,-248.825"/>
<polygon fill="#191970" stroke="#191970" points="321.725,-251.7996 328.4863,-243.6427 318.114,-245.8028 321.725,-251.7996"/>
</g>
<!-- Node3 -->
<g id="node4" class="node">
<title>Node3</title>
<g id="a_node4"><a xlink:href="../../d7/d01/ThermoPhase_8h.html" target="_top" xlink:title="Header file for class ThermoPhase, the base class for phases with thermodynamic properties, and the text for the Module thermoprops (see Thermodynamic Properties and class ThermoPhase). ">
<polygon fill="#ffffff" stroke="#000000" points="59.5,-168.5 59.5,-187.5 217.5,-187.5 217.5,-168.5 59.5,-168.5"/>
<text text-anchor="middle" x="138.5" y="-175.5" font-family="Helvetica,sans-Serif" font-size="10.00" fill="#000000">cantera/thermo/ThermoPhase.h</text>
</a>
</g>
</g>
<!-- Node2&#45;&gt;Node3 -->
<g id="edge3" class="edge">
<title>Node2&#45;&gt;Node3</title>
<path fill="none" stroke="#191970" d="M173.1842,-224.2455C167.2821,-216.3761 158.8258,-205.101 151.7406,-195.6542"/>
<polygon fill="#191970" stroke="#191970" points="154.5321,-193.5427 145.732,-187.6427 148.932,-197.7427 154.5321,-193.5427"/>
</g>
<!-- Node4 -->
<g id="node5" class="node">
<title>Node4</title>
<g id="a_node5"><a xlink:href="../../da/d84/Phase_8h.html" target="_top" xlink:title="Header file for class Phase. ">
<polygon fill="#ffffff" stroke="#ff0000" points="0,-112.5 0,-131.5 53,-131.5 53,-112.5 0,-112.5"/>
<text text-anchor="middle" x="26.5" y="-119.5" font-family="Helvetica,sans-Serif" font-size="10.00" fill="#000000">Phase.h</text>
</a>
</g>
</g>
<!-- Node3&#45;&gt;Node4 -->
<g id="edge4" class="edge">
<title>Node3&#45;&gt;Node4</title>
<path fill="none" stroke="#191970" d="M119.2465,-168.3733C101.4288,-159.4644 74.7253,-146.1127 54.5406,-136.0203"/>
<polygon fill="#191970" stroke="#191970" points="56.0118,-132.8428 45.5022,-131.5011 52.8813,-139.1038 56.0118,-132.8428"/>
</g>
<!-- Node29 -->
<g id="node7" class="node">
<title>Node29</title>
<g id="a_node7"><a xlink:href="../../d6/d7a/MultiSpeciesThermo_8h.html" target="_top" xlink:title="Header for a general species thermodynamic property manager for a phase (see MultiSpeciesThermo). ">
<polygon fill="#ffffff" stroke="#ff0000" points="71.5,-112.5 71.5,-131.5 187.5,-131.5 187.5,-112.5 71.5,-112.5"/>
<text text-anchor="middle" x="129.5" y="-119.5" font-family="Helvetica,sans-Serif" font-size="10.00" fill="#000000">MultiSpeciesThermo.h</text>
</a>
</g>
</g>
<!-- Node3&#45;&gt;Node29 -->
<g id="edge6" class="edge">
<title>Node3&#45;&gt;Node29</title>
<path fill="none" stroke="#191970" d="M136.9323,-168.2455C135.7579,-160.9382 134.1116,-150.6944 132.6668,-141.7046"/>
<polygon fill="#191970" stroke="#191970" points="136.0922,-140.9606 131.0497,-131.6427 129.1809,-142.0714 136.0922,-140.9606"/>
</g>
<!-- Node22 -->
<g id="node8" class="node">
<title>Node22</title>
<g id="a_node8"><a xlink:href="../../d2/d49/global_8h.html" target="_top" xlink:title="This file contains definitions for utility functions and text for modules, inputfiles, logs, textlogs, (see Input File Handling, Diagnostic Output, and Writing messages to the screen). ">
<polygon fill="#ffffff" stroke="#ff0000" points="275.5,-56.5 275.5,-75.5 387.5,-75.5 387.5,-56.5 275.5,-56.5"/>
<text text-anchor="middle" x="331.5" y="-63.5" font-family="Helvetica,sans-Serif" font-size="10.00" fill="#000000">cantera/base/global.h</text>
</a>
</g>
</g>
<!-- Node3&#45;&gt;Node22 -->
<g id="edge7" class="edge">
<title>Node3&#45;&gt;Node22</title>
<path fill="none" stroke="#191970" d="M154.9551,-168.4509C188.7832,-148.8201 266.3179,-103.8259 306.432,-80.5472"/>
<polygon fill="#191970" stroke="#191970" points="308.1942,-83.5713 315.0866,-75.5249 304.6807,-77.5169 308.1942,-83.5713"/>
</g>
<!-- Node5 -->
<g id="node6" class="node">
<title>Node5</title>
<g id="a_node6"><a xlink:href="../../db/d98/ctexceptions_8h.html" target="_top" xlink:title="Definitions for the classes that are thrown when Cantera experiences an error condition (also contain...">
<polygon fill="#ffffff" stroke="#ff0000" points="57,-56.5 57,-75.5 198,-75.5 198,-56.5 57,-56.5"/>
<text text-anchor="middle" x="127.5" y="-63.5" font-family="Helvetica,sans-Serif" font-size="10.00" fill="#000000">cantera/base/ctexceptions.h</text>
</a>
</g>
</g>
<!-- Node4&#45;&gt;Node5 -->
<g id="edge5" class="edge">
<title>Node4&#45;&gt;Node5</title>
<path fill="none" stroke="#191970" d="M44.0929,-112.2455C59.879,-103.4928 83.2639,-90.527 101.2587,-80.5496"/>
<polygon fill="#191970" stroke="#191970" points="103.0603,-83.5528 110.1087,-75.6427 99.6659,-77.4308 103.0603,-83.5528"/>
</g>
<!-- Node7 -->
<g id="node9" class="node">
<title>Node7</title>
<g id="a_node9"><a xlink:href="../../d9/ddc/ct__defs_8h.html" target="_top" xlink:title="This file contains definitions of terms that are used in internal routines and are unlikely to need m...">
<polygon fill="#ffffff" stroke="#ff0000" points="387,-.5 387,-19.5 444,-19.5 444,-.5 387,-.5"/>
<text text-anchor="middle" x="415.5" y="-7.5" font-family="Helvetica,sans-Serif" font-size="10.00" fill="#000000">ct_defs.h</text>
</a>
</g>
</g>
<!-- Node22&#45;&gt;Node7 -->
<g id="edge8" class="edge">
<title>Node22&#45;&gt;Node7</title>
<path fill="none" stroke="#191970" d="M346.1317,-56.2455C358.8994,-47.7337 377.6438,-35.2375 392.4299,-25.3801"/>
<polygon fill="#191970" stroke="#191970" points="394.6569,-28.1019 401.036,-19.6427 390.774,-22.2775 394.6569,-28.1019"/>
</g>
<!-- Node32&#45;&gt;Node5 -->
<g id="edge11" class="edge">
<title>Node32&#45;&gt;Node5</title>
<path fill="none" stroke="#191970" d="M333.6683,-224.4239C309.6226,-203.3117 249.7022,-151.504 196.5,-112 181.9428,-101.1909 165.0097,-89.8844 151.5612,-81.1857"/>
<polygon fill="#191970" stroke="#191970" points="153.1867,-78.0703 142.8795,-75.6183 149.408,-83.9628 153.1867,-78.0703"/>
</g>
<!-- Node32&#45;&gt;Node7 -->
<g id="edge10" class="edge">
<title>Node32&#45;&gt;Node7</title>
<path fill="none" stroke="#191970" d="M370.5877,-224.4978C404.6784,-210.4084 462.5042,-180.3159 483.5,-132 500.592,-92.6675 461.6125,-49.4527 435.8785,-26.4926"/>
<polygon fill="#191970" stroke="#191970" points="437.9399,-23.649 428.0766,-19.7803 433.3746,-28.9554 437.9399,-23.649"/>
</g>
<!-- Node33 -->
<g id="node11" class="node">
<title>Node33</title>
<g id="a_node11"><a xlink:href="../../df/dd0/Array_8h.html" target="_top" xlink:title="Header file for class Cantera::Array2D. ">
<polygon fill="#ffffff" stroke="#000000" points="305,-168.5 305,-187.5 414,-187.5 414,-168.5 305,-168.5"/>
<text text-anchor="middle" x="359.5" y="-175.5" font-family="Helvetica,sans-Serif" font-size="10.00" fill="#000000">cantera/base/Array.h</text>
</a>
</g>
</g>
<!-- Node32&#45;&gt;Node33 -->
<g id="edge12" class="edge">
<title>Node32&#45;&gt;Node33</title>
<path fill="none" stroke="#191970" d="M347.1128,-224.2455C349.0916,-216.8579 351.8744,-206.4689 354.3012,-197.4087"/>
<polygon fill="#191970" stroke="#191970" points="357.7105,-198.2078 356.9171,-187.6427 350.9489,-196.3966 357.7105,-198.2078"/>
</g>
<!-- Node34 -->
<g id="node12" class="node">
<title>Node34</title>
<g id="a_node12"><a xlink:href="../../de/df0/utilities_8h.html" target="_top" xlink:title="Various templated functions that carry out common vector operations (see Templated Utility Functions)...">
<polygon fill="#ffffff" stroke="#ff0000" points="346,-112.5 346,-131.5 401,-131.5 401,-112.5 346,-112.5"/>
<text text-anchor="middle" x="373.5" y="-119.5" font-family="Helvetica,sans-Serif" font-size="10.00" fill="#000000">utilities.h</text>
</a>
</g>
</g>
<!-- Node33&#45;&gt;Node34 -->
<g id="edge13" class="edge">
<title>Node33&#45;&gt;Node34</title>
<path fill="none" stroke="#191970" d="M361.9386,-168.2455C363.7855,-160.8579 366.3828,-150.4689 368.6478,-141.4087"/>
<polygon fill="#191970" stroke="#191970" points="372.0594,-142.193 371.0893,-131.6427 365.2684,-140.4952 372.0594,-142.193"/>
</g>
<!-- Node37 -->
<g id="node13" class="node">
<title>Node37</title>
<polygon fill="#ffffff" stroke="#bfbfbf" points="419,-112.5 419,-131.5 474,-131.5 474,-112.5 419,-112.5"/>
<text text-anchor="middle" x="446.5" y="-119.5" font-family="Helvetica,sans-Serif" font-size="10.00" fill="#000000">iostream</text>
</g>
<!-- Node33&#45;&gt;Node37 -->
<g id="edge16" class="edge">
<title>Node33&#45;&gt;Node37</title>
<path fill="none" stroke="#191970" d="M374.6542,-168.2455C388.0027,-159.6534 407.6586,-147.0014 423.0383,-137.1018"/>
<polygon fill="#191970" stroke="#191970" points="425.0051,-139.9982 431.5194,-131.6427 421.2164,-134.1121 425.0051,-139.9982"/>
</g>
<!-- Node38 -->
<g id="node14" class="node">
<title>Node38</title>
<polygon fill="#ffffff" stroke="#bfbfbf" points="281.5,-112.5 281.5,-131.5 327.5,-131.5 327.5,-112.5 281.5,-112.5"/>
<text text-anchor="middle" x="304.5" y="-119.5" font-family="Helvetica,sans-Serif" font-size="10.00" fill="#000000">cstring</text>
</g>
<!-- Node33&#45;&gt;Node38 -->
<g id="edge17" class="edge">
<title>Node33&#45;&gt;Node38</title>
<path fill="none" stroke="#191970" d="M349.9197,-168.2455C341.9542,-160.1352 330.4359,-148.4075 320.9921,-138.7919"/>
<polygon fill="#191970" stroke="#191970" points="323.4747,-136.3247 313.9705,-131.6427 318.4805,-141.2297 323.4747,-136.3247"/>
</g>
<!-- Node34&#45;&gt;Node22 -->
<g id="edge15" class="edge">
<title>Node34&#45;&gt;Node22</title>
<path fill="none" stroke="#191970" d="M366.1842,-112.2455C360.2821,-104.3761 351.8258,-93.101 344.7406,-83.6542"/>
<polygon fill="#191970" stroke="#191970" points="347.5321,-81.5427 338.732,-75.6427 341.932,-85.7427 347.5321,-81.5427"/>
</g>
<!-- Node34&#45;&gt;Node7 -->
<g id="edge14" class="edge">
<title>Node34&#45;&gt;Node7</title>
<path fill="none" stroke="#191970" d="M378.9693,-112.3666C384.0041,-103.2193 391.4375,-88.9763 396.5,-76 402.4589,-60.7262 407.4978,-42.8197 410.8861,-29.5148"/>
<polygon fill="#191970" stroke="#191970" points="414.3399,-30.1263 413.3278,-19.5799 407.5422,-28.4555 414.3399,-30.1263"/>
</g>
</g>
</svg>
