<?xml version="1.0" encoding="UTF-8" standalone="no"?>
<!DOCTYPE svg PUBLIC "-//W3C//DTD SVG 1.1//EN"
 "http://www.w3.org/Graphics/SVG/1.1/DTD/svg11.dtd">
<!-- Generated by graphviz version 2.43.0 (0)
 -->
<!-- Title: InterfaceKinetics.h Pages: 1 -->
<svg width="723pt" height="196pt"
 viewBox="0.00 0.00 722.50 196.00" xmlns="http://www.w3.org/2000/svg" xmlns:xlink="http://www.w3.org/1999/xlink">
<g id="graph0" class="graph" transform="scale(1 1) rotate(0) translate(4 192)">
<title>InterfaceKinetics.h</title>
<polygon fill="white" stroke="transparent" points="-4,4 -4,-192 718.5,-192 718.5,4 -4,4"/>
<!-- Node1 -->
<g id="node1" class="node">
<title>Node1</title>
<g id="a_node1"><a xlink:title=" ">
<polygon fill="#bfbfbf" stroke="black" points="297.5,-168.5 297.5,-187.5 405.5,-187.5 405.5,-168.5 297.5,-168.5"/>
<text text-anchor="middle" x="351.5" y="-175.5" font-family="Helvetica,sans-Serif" font-size="10.00">InterfaceKinetics.h</text>
</a>
</g>
</g>
<!-- Node2 -->
<g id="node2" class="node">
<title>Node2</title>
<g id="a_node2"><a xlink:href="../../d3/db3/InterfaceKinetics_8cpp.html" target="_top" xlink:title=" ">
<polygon fill="white" stroke="black" points="0,-0.5 0,-19.5 119,-19.5 119,-0.5 0,-0.5"/>
<text text-anchor="middle" x="59.5" y="-7.5" font-family="Helvetica,sans-Serif" font-size="10.00">InterfaceKinetics.cpp</text>
</a>
</g>
</g>
<!-- Node1&#45;&gt;Node2 -->
<g id="edge1" class="edge">
<title>Node1&#45;&gt;Node2</title>
<path fill="none" stroke="midnightblue" d="M298.28,-166.12C267.61,-158.75 228.86,-147.5 196.5,-132 157.36,-113.25 148.82,-104.97 116.5,-76 96.16,-57.77 75.93,-32.61 65.94,-19.58"/>
<polygon fill="midnightblue" stroke="midnightblue" points="297.82,-169.61 308.35,-168.48 299.41,-162.79 297.82,-169.61"/>
</g>
<!-- Node3 -->
<g id="node3" class="node">
<title>Node3</title>
<g id="a_node3"><a xlink:href="../../d3/df8/KineticsFactory_8cpp.html" target="_top" xlink:title=" ">
<polygon fill="white" stroke="black" points="329.5,-56.5 329.5,-75.5 439.5,-75.5 439.5,-56.5 329.5,-56.5"/>
<text text-anchor="middle" x="384.5" y="-63.5" font-family="Helvetica,sans-Serif" font-size="10.00">KineticsFactory.cpp</text>
</a>
</g>
</g>
<!-- Node1&#45;&gt;Node3 -->
<g id="edge2" class="edge">
<title>Node1&#45;&gt;Node3</title>
<path fill="none" stroke="midnightblue" d="M376.22,-162.9C387.03,-155.28 398.58,-144.79 404.5,-132 413.43,-112.71 399.91,-88.41 391.1,-75.69"/>
<polygon fill="midnightblue" stroke="midnightblue" points="374.29,-159.98 367.83,-168.39 378.12,-165.84 374.29,-159.98"/>
</g>
<!-- Node4 -->
<g id="node4" class="node">
<title>Node4</title>
<g id="a_node4"><a xlink:href="../../d7/d91/Interface_8h.html" target="_top" xlink:title="Declaration and Definition for the class Interface.">
<polygon fill="white" stroke="black" points="453,-112.5 453,-131.5 522,-131.5 522,-112.5 453,-112.5"/>
<text text-anchor="middle" x="487.5" y="-119.5" font-family="Helvetica,sans-Serif" font-size="10.00">Interface.h</text>
</a>
</g>
</g>
<!-- Node1&#45;&gt;Node4 -->
<g id="edge3" class="edge">
<title>Node1&#45;&gt;Node4</title>
<path fill="none" stroke="midnightblue" d="M382.63,-164.64C408.16,-154.5 443.61,-140.43 466.05,-131.52"/>
<polygon fill="midnightblue" stroke="midnightblue" points="381.05,-161.5 373.05,-168.44 383.64,-168.01 381.05,-161.5"/>
</g>
<!-- Node5 -->
<g id="node5" class="node">
<title>Node5</title>
<g id="a_node5"><a xlink:href="../../d9/d4b/EdgeKinetics_8h.html" target="_top" xlink:title=" ">
<polygon fill="white" stroke="black" points="307,-112.5 307,-131.5 396,-131.5 396,-112.5 307,-112.5"/>
<text text-anchor="middle" x="351.5" y="-119.5" font-family="Helvetica,sans-Serif" font-size="10.00">EdgeKinetics.h</text>
</a>
</g>
</g>
<!-- Node1&#45;&gt;Node5 -->
<g id="edge4" class="edge">
<title>Node1&#45;&gt;Node5</title>
<path fill="none" stroke="midnightblue" d="M351.5,-157.8C351.5,-148.91 351.5,-138.78 351.5,-131.75"/>
<polygon fill="midnightblue" stroke="midnightblue" points="348,-158.08 351.5,-168.08 355,-158.08 348,-158.08"/>
</g>
<!-- Node6 -->
<g id="node6" class="node">
<title>Node6</title>
<g id="a_node6"><a xlink:href="../../da/d1f/ImplicitSurfChem_8h.html" target="_top" xlink:title="Declarations for the implicit integration of surface site density equations (see Kinetics Managers an...">
<polygon fill="white" stroke="black" points="125.5,-56.5 125.5,-75.5 235.5,-75.5 235.5,-56.5 125.5,-56.5"/>
<text text-anchor="middle" x="180.5" y="-63.5" font-family="Helvetica,sans-Serif" font-size="10.00">ImplicitSurfChem.h</text>
</a>
</g>
</g>
<!-- Node1&#45;&gt;Node6 -->
<g id="edge6" class="edge">
<title>Node1&#45;&gt;Node6</title>
<path fill="none" stroke="midnightblue" d="M288.62,-165.93C264.4,-159.24 237.73,-148.65 217.5,-132 199.05,-116.82 188.01,-89.88 183.26,-75.93"/>
<polygon fill="midnightblue" stroke="midnightblue" points="287.91,-169.36 298.47,-168.48 289.66,-162.59 287.91,-169.36"/>
</g>
<!-- Node9 -->
<g id="node9" class="node">
<title>Node9</title>
<g id="a_node9"><a xlink:href="../../d2/d25/solveSP_8h.html" target="_top" xlink:title="Header file for implicit surface problem solver (see Chemical Kinetics and class solveSP).">
<polygon fill="white" stroke="black" points="226.5,-112.5 226.5,-131.5 288.5,-131.5 288.5,-112.5 226.5,-112.5"/>
<text text-anchor="middle" x="257.5" y="-119.5" font-family="Helvetica,sans-Serif" font-size="10.00">solveSP.h</text>
</a>
</g>
</g>
<!-- Node1&#45;&gt;Node9 -->
<g id="edge10" class="edge">
<title>Node1&#45;&gt;Node9</title>
<path fill="none" stroke="midnightblue" d="M327.44,-163.18C310.14,-153.24 287.35,-140.15 272.57,-131.65"/>
<polygon fill="midnightblue" stroke="midnightblue" points="325.98,-166.38 336.4,-168.32 329.47,-160.31 325.98,-166.38"/>
</g>
<!-- Node10 -->
<g id="node10" class="node">
<title>Node10</title>
<g id="a_node10"><a xlink:href="../../dc/d7c/Boundary1D_8h.html" target="_top" xlink:title="Boundary objects for one&#45;dimensional simulations.">
<polygon fill="white" stroke="black" points="553.5,-112.5 553.5,-131.5 639.5,-131.5 639.5,-112.5 553.5,-112.5"/>
<text text-anchor="middle" x="596.5" y="-119.5" font-family="Helvetica,sans-Serif" font-size="10.00">Boundary1D.h</text>
</a>
</g>
</g>
<!-- Node1&#45;&gt;Node10 -->
<g id="edge14" class="edge">
<title>Node1&#45;&gt;Node10</title>
<path fill="none" stroke="midnightblue" d="M400.13,-166.28C446.43,-156.08 515.19,-140.92 557.86,-131.52"/>
<polygon fill="midnightblue" stroke="midnightblue" points="399.33,-162.87 390.32,-168.44 400.84,-169.71 399.33,-162.87"/>
</g>
<!-- Node5&#45;&gt;Node3 -->
<g id="edge5" class="edge">
<title>Node5&#45;&gt;Node3</title>
<path fill="none" stroke="midnightblue" d="M362.33,-103.27C367.97,-94.05 374.62,-83.17 379.15,-75.75"/>
<polygon fill="midnightblue" stroke="midnightblue" points="359.18,-101.73 356.95,-112.08 365.15,-105.38 359.18,-101.73"/>
</g>
<!-- Node6&#45;&gt;Node2 -->
<g id="edge8" class="edge">
<title>Node6&#45;&gt;Node2</title>
<path fill="none" stroke="midnightblue" d="M152.19,-52.37C129.53,-42.26 98.37,-28.35 78.58,-19.52"/>
<polygon fill="midnightblue" stroke="midnightblue" points="150.77,-55.56 161.33,-56.44 153.62,-49.17 150.77,-55.56"/>
</g>
<!-- Node7 -->
<g id="node7" class="node">
<title>Node7</title>
<g id="a_node7"><a xlink:href="../../d7/d3f/ImplicitSurfChem_8cpp.html" target="_top" xlink:title="Definitions for the implicit integration of surface site density equations (see Kinetics Managers and...">
<polygon fill="white" stroke="black" points="137.5,-0.5 137.5,-19.5 259.5,-19.5 259.5,-0.5 137.5,-0.5"/>
<text text-anchor="middle" x="198.5" y="-7.5" font-family="Helvetica,sans-Serif" font-size="10.00">ImplicitSurfChem.cpp</text>
</a>
</g>
</g>
<!-- Node6&#45;&gt;Node7 -->
<g id="edge7" class="edge">
<title>Node6&#45;&gt;Node7</title>
<path fill="none" stroke="midnightblue" d="M186.7,-46.4C189.71,-37.36 193.19,-26.94 195.58,-19.75"/>
<polygon fill="midnightblue" stroke="midnightblue" points="183.31,-45.49 183.47,-56.08 189.96,-47.7 183.31,-45.49"/>
</g>
<!-- Node8 -->
<g id="node8" class="node">
<title>Node8</title>
<g id="a_node8"><a xlink:href="../../d3/dc9/solveSP_8cpp_source.html" target="_top" xlink:title=" ">
<polygon fill="white" stroke="black" points="277.5,-0.5 277.5,-19.5 351.5,-19.5 351.5,-0.5 277.5,-0.5"/>
<text text-anchor="middle" x="314.5" y="-7.5" font-family="Helvetica,sans-Serif" font-size="10.00">solveSP.cpp</text>
</a>
</g>
</g>
<!-- Node6&#45;&gt;Node8 -->
<g id="edge9" class="edge">
<title>Node6&#45;&gt;Node8</title>
<path fill="none" stroke="midnightblue" d="M211.18,-52.64C236.32,-42.5 271.25,-28.43 293.37,-19.52"/>
<polygon fill="midnightblue" stroke="midnightblue" points="209.7,-49.46 201.73,-56.44 212.32,-55.95 209.7,-49.46"/>
</g>
<!-- Node9&#45;&gt;Node6 -->
<g id="edge13" class="edge">
<title>Node9&#45;&gt;Node6</title>
<path fill="none" stroke="midnightblue" d="M236.6,-106.34C222.59,-96.52 204.62,-83.91 192.84,-75.65"/>
<polygon fill="midnightblue" stroke="midnightblue" points="234.93,-109.45 245.13,-112.32 238.95,-103.72 234.93,-109.45"/>
</g>
<!-- Node9&#45;&gt;Node7 -->
<g id="edge11" class="edge">
<title>Node9&#45;&gt;Node7</title>
<path fill="none" stroke="midnightblue" d="M256.7,-102.41C255.45,-88.84 252.3,-70.38 244.5,-56 236.3,-40.88 221.32,-27.66 210.68,-19.54"/>
<polygon fill="midnightblue" stroke="midnightblue" points="253.21,-102.72 257.37,-112.46 260.2,-102.25 253.21,-102.72"/>
</g>
<!-- Node9&#45;&gt;Node8 -->
<g id="edge12" class="edge">
<title>Node9&#45;&gt;Node8</title>
<path fill="none" stroke="midnightblue" d="M266.66,-103.32C279.07,-79.37 300.74,-37.55 310.05,-19.59"/>
<polygon fill="midnightblue" stroke="midnightblue" points="263.47,-101.88 261.97,-112.37 269.68,-105.1 263.47,-101.88"/>
</g>
<!-- Node11 -->
<g id="node11" class="node">
<title>Node11</title>
<g id="a_node11"><a xlink:href="../../de/d16/Boundary1D_8cpp.html" target="_top" xlink:title=" ">
<polygon fill="white" stroke="black" points="458,-56.5 458,-75.5 555,-75.5 555,-56.5 458,-56.5"/>
<text text-anchor="middle" x="506.5" y="-63.5" font-family="Helvetica,sans-Serif" font-size="10.00">Boundary1D.cpp</text>
</a>
</g>
</g>
<!-- Node10&#45;&gt;Node11 -->
<g id="edge15" class="edge">
<title>Node10&#45;&gt;Node11</title>
<path fill="none" stroke="midnightblue" d="M573.46,-107.18C556.9,-97.24 535.08,-84.15 520.92,-75.65"/>
<polygon fill="midnightblue" stroke="midnightblue" points="571.66,-110.18 582.04,-112.32 575.27,-104.18 571.66,-110.18"/>
</g>
<!-- Node12 -->
<g id="node12" class="node">
<title>Node12</title>
<g id="a_node12"><a xlink:href="../../d0/de5/Inlet1D_8h.html" target="_top" xlink:title="Boundary objects for one&#45;dimensional simulations.">
<polygon fill="white" stroke="black" points="573,-56.5 573,-75.5 634,-75.5 634,-56.5 573,-56.5"/>
<text text-anchor="middle" x="603.5" y="-63.5" font-family="Helvetica,sans-Serif" font-size="10.00">Inlet1D.h</text>
</a>
</g>
</g>
<!-- Node10&#45;&gt;Node12 -->
<g id="edge16" class="edge">
<title>Node10&#45;&gt;Node12</title>
<path fill="none" stroke="midnightblue" d="M598.95,-102.1C600.11,-93.14 601.44,-82.86 602.37,-75.75"/>
<polygon fill="midnightblue" stroke="midnightblue" points="595.47,-101.72 597.66,-112.08 602.41,-102.62 595.47,-101.72"/>
</g>
<!-- Node13 -->
<g id="node13" class="node">
<title>Node13</title>
<g id="a_node13"><a xlink:href="../../d4/d07/onedim_8h.html" target="_top" xlink:title=" ">
<polygon fill="white" stroke="black" points="652.5,-56.5 652.5,-75.5 714.5,-75.5 714.5,-56.5 652.5,-56.5"/>
<text text-anchor="middle" x="683.5" y="-63.5" font-family="Helvetica,sans-Serif" font-size="10.00">onedim.h</text>
</a>
</g>
</g>
<!-- Node10&#45;&gt;Node13 -->
<g id="edge17" class="edge">
<title>Node10&#45;&gt;Node13</title>
<path fill="none" stroke="midnightblue" d="M619.22,-106.9C635.17,-97 656,-84.07 669.56,-75.65"/>
<polygon fill="midnightblue" stroke="midnightblue" points="617.13,-104.08 610.48,-112.32 620.82,-110.02 617.13,-104.08"/>
</g>
</g>
</svg>
