<?xml version="1.0" encoding="UTF-8" standalone="no"?>
<!DOCTYPE svg PUBLIC "-//W3C//DTD SVG 1.1//EN"
 "http://www.w3.org/Graphics/SVG/1.1/DTD/svg11.dtd">
<!-- Generated by graphviz version 2.40.1 (20161225.0304)
 -->
<!-- Title: MolarityIonicVPSSTP Pages: 1 -->
<svg width="131pt" height="308pt"
 viewBox="0.00 0.00 131.00 308.00" xmlns="http://www.w3.org/2000/svg" xmlns:xlink="http://www.w3.org/1999/xlink">
<g id="graph0" class="graph" transform="scale(1 1) rotate(0) translate(4 304)">
<title>MolarityIonicVPSSTP</title>
<polygon fill="#ffffff" stroke="transparent" points="-4,4 -4,-304 127,-304 127,4 -4,4"/>
<!-- Node0 -->
<g id="node1" class="node">
<title>Node0</title>
<polygon fill="#bfbfbf" stroke="#000000" points="5.5,-56.5 5.5,-75.5 117.5,-75.5 117.5,-56.5 5.5,-56.5"/>
<text text-anchor="middle" x="61.5" y="-63.5" font-family="Helvetica,sans-Serif" font-size="10.00" fill="#000000">MolarityIonicVPSSTP</text>
</g>
<!-- Node5 -->
<g id="node6" class="node">
<title>Node5</title>
<g id="a_node6"><a xlink:href="../../d0/db7/classCantera_1_1MixedSolventElectrolyte.html" target="_top" xlink:title="MixedSolventElectrolyte is a derived class of GibbsExcessVPSSTP that employs the DH and local Margule...">
<polygon fill="#ffffff" stroke="#000000" points="0,-.5 0,-19.5 123,-19.5 123,-.5 0,-.5"/>
<text text-anchor="middle" x="61.5" y="-7.5" font-family="Helvetica,sans-Serif" font-size="10.00" fill="#000000">MixedSolventElectrolyte</text>
</a>
</g>
</g>
<!-- Node0&#45;&gt;Node5 -->
<g id="edge5" class="edge">
<title>Node0&#45;&gt;Node5</title>
<path fill="none" stroke="#191970" d="M61.5,-46.1575C61.5,-37.155 61.5,-26.9199 61.5,-19.6427"/>
<polygon fill="#191970" stroke="#191970" points="58.0001,-46.2455 61.5,-56.2455 65.0001,-46.2456 58.0001,-46.2455"/>
</g>
<!-- Node1 -->
<g id="node2" class="node">
<title>Node1</title>
<g id="a_node2"><a xlink:href="../../d8/d1a/classCantera_1_1GibbsExcessVPSSTP.html" target="_top" xlink:title="GibbsExcessVPSSTP">
<polygon fill="#ffffff" stroke="#000000" points="4.5,-112.5 4.5,-131.5 118.5,-131.5 118.5,-112.5 4.5,-112.5"/>
<text text-anchor="middle" x="61.5" y="-119.5" font-family="Helvetica,sans-Serif" font-size="10.00" fill="#000000">GibbsExcessVPSSTP</text>
</a>
</g>
</g>
<!-- Node1&#45;&gt;Node0 -->
<g id="edge1" class="edge">
<title>Node1&#45;&gt;Node0</title>
<path fill="none" stroke="#191970" d="M61.5,-102.1575C61.5,-93.155 61.5,-82.9199 61.5,-75.6427"/>
<polygon fill="#191970" stroke="#191970" points="58.0001,-102.2455 61.5,-112.2455 65.0001,-102.2456 58.0001,-102.2455"/>
</g>
<!-- Node2 -->
<g id="node3" class="node">
<title>Node2</title>
<g id="a_node3"><a xlink:href="../../d8/deb/classCantera_1_1VPStandardStateTP.html" target="_top" xlink:title="This is a filter class for ThermoPhase that implements some prepatory steps for efficiently handling ...">
<polygon fill="#ffffff" stroke="#000000" points="8,-168.5 8,-187.5 115,-187.5 115,-168.5 8,-168.5"/>
<text text-anchor="middle" x="61.5" y="-175.5" font-family="Helvetica,sans-Serif" font-size="10.00" fill="#000000">VPStandardStateTP</text>
</a>
</g>
</g>
<!-- Node2&#45;&gt;Node1 -->
<g id="edge2" class="edge">
<title>Node2&#45;&gt;Node1</title>
<path fill="none" stroke="#191970" d="M61.5,-158.1575C61.5,-149.155 61.5,-138.9199 61.5,-131.6427"/>
<polygon fill="#191970" stroke="#191970" points="58.0001,-158.2455 61.5,-168.2455 65.0001,-158.2456 58.0001,-158.2455"/>
</g>
<!-- Node3 -->
<g id="node4" class="node">
<title>Node3</title>
<g id="a_node4"><a xlink:href="../../dc/d38/classCantera_1_1ThermoPhase.html" target="_top" xlink:title="Base class for a phase with thermodynamic properties. ">
<polygon fill="#ffffff" stroke="#000000" points="22,-224.5 22,-243.5 101,-243.5 101,-224.5 22,-224.5"/>
<text text-anchor="middle" x="61.5" y="-231.5" font-family="Helvetica,sans-Serif" font-size="10.00" fill="#000000">ThermoPhase</text>
</a>
</g>
</g>
<!-- Node3&#45;&gt;Node2 -->
<g id="edge3" class="edge">
<title>Node3&#45;&gt;Node2</title>
<path fill="none" stroke="#191970" d="M61.5,-214.1575C61.5,-205.155 61.5,-194.9199 61.5,-187.6427"/>
<polygon fill="#191970" stroke="#191970" points="58.0001,-214.2455 61.5,-224.2455 65.0001,-214.2456 58.0001,-214.2455"/>
</g>
<!-- Node4 -->
<g id="node5" class="node">
<title>Node4</title>
<g id="a_node5"><a xlink:href="../../d6/d0e/classCantera_1_1Phase.html" target="_top" xlink:title="Class Phase is the base class for phases of matter, managing the species and elements in a phase...">
<polygon fill="#ffffff" stroke="#000000" points="39,-280.5 39,-299.5 84,-299.5 84,-280.5 39,-280.5"/>
<text text-anchor="middle" x="61.5" y="-287.5" font-family="Helvetica,sans-Serif" font-size="10.00" fill="#000000">Phase</text>
</a>
</g>
</g>
<!-- Node4&#45;&gt;Node3 -->
<g id="edge4" class="edge">
<title>Node4&#45;&gt;Node3</title>
<path fill="none" stroke="#191970" d="M61.5,-270.1575C61.5,-261.155 61.5,-250.9199 61.5,-243.6427"/>
<polygon fill="#191970" stroke="#191970" points="58.0001,-270.2455 61.5,-280.2455 65.0001,-270.2456 58.0001,-270.2455"/>
</g>
</g>
</svg>
