<?xml version="1.0" encoding="UTF-8" standalone="no"?>
<!DOCTYPE svg PUBLIC "-//W3C//DTD SVG 1.1//EN"
 "http://www.w3.org/Graphics/SVG/1.1/DTD/svg11.dtd">
<!-- Generated by graphviz version 2.43.0 (0)
 -->
<!-- Title: RedlichKisterVPSSTP Pages: 1 -->
<svg width="299pt" height="276pt"
 viewBox="0.00 0.00 299.00 276.00" xmlns="http://www.w3.org/2000/svg" xmlns:xlink="http://www.w3.org/1999/xlink">
<g id="graph0" class="graph" transform="scale(1 1) rotate(0) translate(4 272)">
<title>RedlichKisterVPSSTP</title>
<polygon fill="white" stroke="transparent" points="-4,4 -4,-272 295,-272 295,4 -4,4"/>
<!-- Node1 -->
<g id="node1" class="node">
<title>Node1</title>
<g id="a_node1"><a xlink:title="RedlichKisterVPSSTP is a derived class of GibbsExcessVPSSTP that employs the Redlich&#45;Kister approxima...">
<polygon fill="#bfbfbf" stroke="black" points="117,-0.5 117,-19.5 235,-19.5 235,-0.5 117,-0.5"/>
<text text-anchor="middle" x="176" y="-7.5" font-family="Helvetica,sans-Serif" font-size="10.00">RedlichKisterVPSSTP</text>
</a>
</g>
</g>
<!-- Node2 -->
<g id="node2" class="node">
<title>Node2</title>
<g id="a_node2"><a xlink:href="../../d8/d1a/classCantera_1_1GibbsExcessVPSSTP.html" target="_top" xlink:title=" ">
<polygon fill="white" stroke="black" points="67.5,-57.5 67.5,-76.5 182.5,-76.5 182.5,-57.5 67.5,-57.5"/>
<text text-anchor="middle" x="125" y="-64.5" font-family="Helvetica,sans-Serif" font-size="10.00">GibbsExcessVPSSTP</text>
</a>
</g>
</g>
<!-- Node2&#45;&gt;Node1 -->
<g id="edge1" class="edge">
<title>Node2&#45;&gt;Node1</title>
<path fill="none" stroke="midnightblue" d="M140,-49.83C149.13,-39.98 160.44,-27.78 167.92,-19.71"/>
<polygon fill="midnightblue" stroke="midnightblue" points="137.2,-47.69 132.97,-57.41 142.33,-52.45 137.2,-47.69"/>
</g>
<!-- Node3 -->
<g id="node3" class="node">
<title>Node3</title>
<g id="a_node3"><a xlink:href="../../d8/deb/classCantera_1_1VPStandardStateTP.html" target="_top" xlink:title="This is a filter class for ThermoPhase that implements some preparatory steps for efficiently handlin...">
<polygon fill="white" stroke="black" points="37,-124.5 37,-143.5 147,-143.5 147,-124.5 37,-124.5"/>
<text text-anchor="middle" x="92" y="-131.5" font-family="Helvetica,sans-Serif" font-size="10.00">VPStandardStateTP</text>
</a>
</g>
</g>
<!-- Node3&#45;&gt;Node2 -->
<g id="edge2" class="edge">
<title>Node3&#45;&gt;Node2</title>
<path fill="none" stroke="midnightblue" d="M97.71,-114.54C99.96,-108.19 102.78,-101.14 106,-95 109.41,-88.5 114.16,-81.75 118.06,-76.63"/>
<polygon fill="midnightblue" stroke="midnightblue" points="94.31,-113.68 94.5,-124.28 100.96,-115.88 94.31,-113.68"/>
</g>
<!-- Node4 -->
<g id="node4" class="node">
<title>Node4</title>
<g id="a_node4"><a xlink:href="../../dc/d38/classCantera_1_1ThermoPhase.html" target="_top" xlink:title="Base class for a phase with thermodynamic properties.">
<polygon fill="white" stroke="black" points="50.5,-181.5 50.5,-200.5 133.5,-200.5 133.5,-181.5 50.5,-181.5"/>
<text text-anchor="middle" x="92" y="-188.5" font-family="Helvetica,sans-Serif" font-size="10.00">ThermoPhase</text>
</a>
</g>
</g>
<!-- Node4&#45;&gt;Node3 -->
<g id="edge3" class="edge">
<title>Node4&#45;&gt;Node3</title>
<path fill="none" stroke="midnightblue" d="M92,-171.12C92,-161.82 92,-151.06 92,-143.71"/>
<polygon fill="midnightblue" stroke="midnightblue" points="88.5,-171.41 92,-181.41 95.5,-171.41 88.5,-171.41"/>
</g>
<!-- Node5 -->
<g id="node5" class="node">
<title>Node5</title>
<g id="a_node5"><a xlink:href="../../d6/d0e/classCantera_1_1Phase.html" target="_top" xlink:title="Class Phase is the base class for phases of matter, managing the species and elements in a phase,...">
<polygon fill="white" stroke="red" points="0,-248.5 0,-267.5 46,-267.5 46,-248.5 0,-248.5"/>
<text text-anchor="middle" x="23" y="-255.5" font-family="Helvetica,sans-Serif" font-size="10.00">Phase</text>
</a>
</g>
</g>
<!-- Node5&#45;&gt;Node4 -->
<g id="edge4" class="edge">
<title>Node5&#45;&gt;Node4</title>
<path fill="none" stroke="midnightblue" d="M39.61,-241.36C53.17,-228.58 71.84,-210.99 82.84,-200.63"/>
<polygon fill="midnightblue" stroke="midnightblue" points="37.18,-238.83 32.31,-248.23 41.98,-243.92 37.18,-238.83"/>
</g>
<!-- Node8 -->
<g id="node6" class="node">
<title>Node8</title>
<g id="a_node6"><a xlink:href="../../db/d74/classCantera_1_1AnyMap.html" target="_top" xlink:title="A map of string keys to values whose type can vary at runtime.">
<polygon fill="white" stroke="red" points="64,-248.5 64,-267.5 120,-267.5 120,-248.5 64,-248.5"/>
<text text-anchor="middle" x="92" y="-255.5" font-family="Helvetica,sans-Serif" font-size="10.00">AnyMap</text>
</a>
</g>
</g>
<!-- Node8&#45;&gt;Node4 -->
<g id="edge5" class="edge">
<title>Node8&#45;&gt;Node4</title>
<path fill="none" stroke="#9a32cd" stroke-dasharray="5,2" d="M92,-238.04C92,-225.67 92,-210.12 92,-200.63"/>
<polygon fill="#9a32cd" stroke="#9a32cd" points="88.5,-238.23 92,-248.23 95.5,-238.23 88.5,-238.23"/>
<text text-anchor="middle" x="113.5" y="-222" font-family="Helvetica,sans-Serif" font-size="10.00"> m_input</text>
</g>
<!-- Node11 -->
<g id="node7" class="node">
<title>Node11</title>
<g id="a_node7"><a xlink:href="../../d5/dda/classCantera_1_1MultiSpeciesThermo.html" target="_top" xlink:title="A species thermodynamic property manager for a phase.">
<polygon fill="white" stroke="black" points="138,-248.5 138,-267.5 254,-267.5 254,-248.5 138,-248.5"/>
<text text-anchor="middle" x="196" y="-255.5" font-family="Helvetica,sans-Serif" font-size="10.00">MultiSpeciesThermo</text>
</a>
</g>
</g>
<!-- Node11&#45;&gt;Node4 -->
<g id="edge6" class="edge">
<title>Node11&#45;&gt;Node4</title>
<path fill="none" stroke="#9a32cd" stroke-dasharray="5,2" d="M175.19,-242.64C164.48,-235.38 151.16,-226.54 139,-219 128.6,-212.56 116.64,-205.69 107.39,-200.5"/>
<polygon fill="#9a32cd" stroke="#9a32cd" points="173.25,-245.56 183.48,-248.3 177.19,-239.77 173.25,-245.56"/>
<text text-anchor="middle" x="187.5" y="-222" font-family="Helvetica,sans-Serif" font-size="10.00"> m_spthermo</text>
</g>
<!-- Node12 -->
<g id="node8" class="node">
<title>Node12</title>
<g id="a_node8"><a xlink:href="../../d1/dcf/classCantera_1_1Array2D.html" target="_top" xlink:title="A class for 2D arrays stored in column&#45;major (Fortran&#45;compatible) form.">
<polygon fill="white" stroke="black" points="182,-124.5 182,-143.5 238,-143.5 238,-124.5 182,-124.5"/>
<text text-anchor="middle" x="210" y="-131.5" font-family="Helvetica,sans-Serif" font-size="10.00">Array2D</text>
</a>
</g>
</g>
<!-- Node12&#45;&gt;Node1 -->
<g id="edge8" class="edge">
<title>Node12&#45;&gt;Node1</title>
<path fill="none" stroke="#9a32cd" stroke-dasharray="5,2" d="M214.3,-114.37C215.11,-108.16 215.35,-101.24 214,-95 207.72,-65.9 190.51,-34.74 181.56,-19.88"/>
<polygon fill="#9a32cd" stroke="#9a32cd" points="210.81,-113.99 212.42,-124.47 217.69,-115.27 210.81,-113.99"/>
<text text-anchor="middle" x="249.5" y="-64.5" font-family="Helvetica,sans-Serif" font-size="10.00"> dlnActCoeff_dX_</text>
</g>
<!-- Node12&#45;&gt;Node2 -->
<g id="edge7" class="edge">
<title>Node12&#45;&gt;Node2</title>
<path fill="none" stroke="#9a32cd" stroke-dasharray="5,2" d="M171.9,-125.26C152.51,-120.48 131.83,-113.78 126,-106 119.75,-97.66 120.83,-85.14 122.58,-76.77"/>
<polygon fill="#9a32cd" stroke="#9a32cd" points="171.3,-128.71 181.83,-127.58 172.89,-121.9 171.3,-128.71"/>
<text text-anchor="middle" x="170" y="-98" font-family="Helvetica,sans-Serif" font-size="10.00"> dlnActCoeffdlnN_</text>
</g>
</g>
</svg>
