<?xml version="1.0" encoding="UTF-8" standalone="no"?>
<!DOCTYPE svg PUBLIC "-//W3C//DTD SVG 1.1//EN"
 "http://www.w3.org/Graphics/SVG/1.1/DTD/svg11.dtd">
<!-- Generated by graphviz version 2.40.1 (20161225.0304)
 -->
<!-- Title: Bdry1D Pages: 1 -->
<svg width="546pt" height="140pt"
 viewBox="0.00 0.00 546.00 140.00" xmlns="http://www.w3.org/2000/svg" xmlns:xlink="http://www.w3.org/1999/xlink">
<g id="graph0" class="graph" transform="scale(1 1) rotate(0) translate(4 136)">
<title>Bdry1D</title>
<polygon fill="#ffffff" stroke="transparent" points="-4,4 -4,-136 542,-136 542,4 -4,4"/>
<!-- Node0 -->
<g id="node1" class="node">
<title>Node0</title>
<polygon fill="#bfbfbf" stroke="#000000" points="228,-56.5 228,-75.5 278,-75.5 278,-56.5 228,-56.5"/>
<text text-anchor="middle" x="253" y="-63.5" font-family="Helvetica,sans-Serif" font-size="10.00" fill="#000000">Bdry1D</text>
</g>
<!-- Node2 -->
<g id="node3" class="node">
<title>Node2</title>
<g id="a_node3"><a xlink:href="../../dc/d14/classCantera_1_1Empty1D.html" target="_top" xlink:title="A terminator that does nothing. ">
<polygon fill="#ffffff" stroke="#000000" points="0,-.5 0,-19.5 58,-19.5 58,-.5 0,-.5"/>
<text text-anchor="middle" x="29" y="-7.5" font-family="Helvetica,sans-Serif" font-size="10.00" fill="#000000">Empty1D</text>
</a>
</g>
</g>
<!-- Node0&#45;&gt;Node2 -->
<g id="edge2" class="edge">
<title>Node0&#45;&gt;Node2</title>
<path fill="none" stroke="#191970" d="M218.1046,-57.534C180.6979,-48.4205 119.5888,-33.4217 67,-20 64.0916,-19.2577 61.0604,-18.4752 58.0346,-17.6882"/>
<polygon fill="#191970" stroke="#191970" points="217.4558,-60.9782 227.9999,-59.9423 219.1112,-54.1768 217.4558,-60.9782"/>
</g>
<!-- Node3 -->
<g id="node4" class="node">
<title>Node3</title>
<g id="a_node4"><a xlink:href="../../de/dd2/classCantera_1_1Inlet1D.html" target="_top" xlink:title="An inlet. ">
<polygon fill="#ffffff" stroke="#000000" points="76,-.5 76,-19.5 124,-19.5 124,-.5 76,-.5"/>
<text text-anchor="middle" x="100" y="-7.5" font-family="Helvetica,sans-Serif" font-size="10.00" fill="#000000">Inlet1D</text>
</a>
</g>
</g>
<!-- Node0&#45;&gt;Node3 -->
<g id="edge3" class="edge">
<title>Node0&#45;&gt;Node3</title>
<path fill="none" stroke="#191970" d="M218.0767,-53.2176C189.323,-42.6934 149.3136,-28.0494 124.0403,-18.7991"/>
<polygon fill="#191970" stroke="#191970" points="217.1414,-56.6023 227.7352,-56.7527 219.5474,-50.0288 217.1414,-56.6023"/>
</g>
<!-- Node4 -->
<g id="node5" class="node">
<title>Node4</title>
<g id="a_node5"><a xlink:href="../../d5/d5e/classCantera_1_1Outlet1D.html" target="_top" xlink:title="An outlet. ">
<polygon fill="#ffffff" stroke="#000000" points="142,-.5 142,-19.5 198,-19.5 198,-.5 142,-.5"/>
<text text-anchor="middle" x="170" y="-7.5" font-family="Helvetica,sans-Serif" font-size="10.00" fill="#000000">Outlet1D</text>
</a>
</g>
</g>
<!-- Node0&#45;&gt;Node4 -->
<g id="edge4" class="edge">
<title>Node0&#45;&gt;Node4</title>
<path fill="none" stroke="#191970" d="M230.012,-50.49C215.3678,-40.6096 196.8556,-28.1194 184.2918,-19.6427"/>
<polygon fill="#191970" stroke="#191970" points="228.2953,-53.5539 238.5425,-56.2455 232.2104,-47.7511 228.2953,-53.5539"/>
</g>
<!-- Node5 -->
<g id="node6" class="node">
<title>Node5</title>
<g id="a_node6"><a xlink:href="../../db/de7/classCantera_1_1OutletRes1D.html" target="_top" xlink:title="An outlet with specified composition. ">
<polygon fill="#ffffff" stroke="#000000" points="216,-.5 216,-19.5 290,-19.5 290,-.5 216,-.5"/>
<text text-anchor="middle" x="253" y="-7.5" font-family="Helvetica,sans-Serif" font-size="10.00" fill="#000000">OutletRes1D</text>
</a>
</g>
</g>
<!-- Node0&#45;&gt;Node5 -->
<g id="edge5" class="edge">
<title>Node0&#45;&gt;Node5</title>
<path fill="none" stroke="#191970" d="M253,-46.1575C253,-37.155 253,-26.9199 253,-19.6427"/>
<polygon fill="#191970" stroke="#191970" points="249.5001,-46.2455 253,-56.2455 256.5001,-46.2456 249.5001,-46.2455"/>
</g>
<!-- Node6 -->
<g id="node7" class="node">
<title>Node6</title>
<g id="a_node7"><a xlink:href="../../d9/d19/classCantera_1_1ReactingSurf1D.html" target="_top" xlink:title="A reacting surface. ">
<polygon fill="#ffffff" stroke="#000000" points="308.5,-.5 308.5,-19.5 395.5,-19.5 395.5,-.5 308.5,-.5"/>
<text text-anchor="middle" x="352" y="-7.5" font-family="Helvetica,sans-Serif" font-size="10.00" fill="#000000">ReactingSurf1D</text>
</a>
</g>
</g>
<!-- Node0&#45;&gt;Node6 -->
<g id="edge6" class="edge">
<title>Node0&#45;&gt;Node6</title>
<path fill="none" stroke="#191970" d="M279.4357,-51.0465C297.0508,-41.0824 319.6847,-28.2794 334.9531,-19.6427"/>
<polygon fill="#191970" stroke="#191970" points="277.2253,-48.2756 270.2445,-56.2455 280.6717,-54.3684 277.2253,-48.2756"/>
</g>
<!-- Node7 -->
<g id="node8" class="node">
<title>Node7</title>
<g id="a_node8"><a xlink:href="../../d4/d0e/classCantera_1_1Surf1D.html" target="_top" xlink:title="A non&#45;reacting surface. ">
<polygon fill="#ffffff" stroke="#000000" points="414,-.5 414,-19.5 462,-19.5 462,-.5 414,-.5"/>
<text text-anchor="middle" x="438" y="-7.5" font-family="Helvetica,sans-Serif" font-size="10.00" fill="#000000">Surf1D</text>
</a>
</g>
</g>
<!-- Node0&#45;&gt;Node7 -->
<g id="edge7" class="edge">
<title>Node0&#45;&gt;Node7</title>
<path fill="none" stroke="#191970" d="M287.8437,-55.4592C318.6527,-46.1379 364.8159,-32.169 405,-20 407.8647,-19.1325 410.8693,-18.2223 413.8498,-17.3194"/>
<polygon fill="#191970" stroke="#191970" points="286.5728,-52.1869 278.0148,-58.4328 288.5999,-58.887 286.5728,-52.1869"/>
</g>
<!-- Node8 -->
<g id="node9" class="node">
<title>Node8</title>
<g id="a_node9"><a xlink:href="../../d0/db5/classCantera_1_1Symm1D.html" target="_top" xlink:title="A symmetry plane. ">
<polygon fill="#ffffff" stroke="#000000" points="480,-.5 480,-19.5 538,-19.5 538,-.5 480,-.5"/>
<text text-anchor="middle" x="509" y="-7.5" font-family="Helvetica,sans-Serif" font-size="10.00" fill="#000000">Symm1D</text>
</a>
</g>
</g>
<!-- Node0&#45;&gt;Node8 -->
<g id="edge8" class="edge">
<title>Node0&#45;&gt;Node8</title>
<path fill="none" stroke="#191970" d="M288.2738,-59.1141C331.4817,-50.5512 406.8464,-35.2 471,-20 473.9207,-19.308 476.96,-18.5584 479.9909,-17.7916"/>
<polygon fill="#191970" stroke="#191970" points="287.3988,-55.7192 278.2661,-61.0899 288.7547,-62.5866 287.3988,-55.7192"/>
</g>
<!-- Node1 -->
<g id="node2" class="node">
<title>Node1</title>
<g id="a_node2"><a xlink:href="../../d9/dfd/classCantera_1_1Domain1D.html" target="_top" xlink:title="Base class for one&#45;dimensional domains. ">
<polygon fill="#ffffff" stroke="#000000" points="221,-112.5 221,-131.5 285,-131.5 285,-112.5 221,-112.5"/>
<text text-anchor="middle" x="253" y="-119.5" font-family="Helvetica,sans-Serif" font-size="10.00" fill="#000000">Domain1D</text>
</a>
</g>
</g>
<!-- Node1&#45;&gt;Node0 -->
<g id="edge1" class="edge">
<title>Node1&#45;&gt;Node0</title>
<path fill="none" stroke="#191970" d="M253,-102.1575C253,-93.155 253,-82.9199 253,-75.6427"/>
<polygon fill="#191970" stroke="#191970" points="249.5001,-102.2455 253,-112.2455 256.5001,-102.2456 249.5001,-102.2455"/>
</g>
</g>
</svg>
