<?xml version="1.0" encoding="UTF-8" standalone="no"?>
<!DOCTYPE svg PUBLIC "-//W3C//DTD SVG 1.1//EN"
 "http://www.w3.org/Graphics/SVG/1.1/DTD/svg11.dtd">
<!-- Generated by graphviz version 2.43.0 (0)
 -->
<!-- Title: ctml.h Pages: 1 -->
<!--zoomable 140 -->
<svg id="main" version="1.1" xmlns="http://www.w3.org/2000/svg" xmlns:xlink="http://www.w3.org/1999/xlink" xml:space="preserve" onload="init(evt)">
<style type="text/css"><![CDATA[
.edge:hover path { stroke: red; }
.edge:hover polygon { stroke: red; fill: red; }
]]></style>
<script type="text/javascript"><![CDATA[
var edges = document.getElementsByTagName('g');
if (edges && edges.length) {
  for (var i=0;i<edges.length;i++) {
    if (edges[i].id.substr(0,4)=='edge') {
      edges[i].setAttribute('class','edge');
    }
  }
}
]]></script>
        <defs>
                <circle id="rim" cx="0" cy="0" r="7"/>
                <circle id="rim2" cx="0" cy="0" r="3.5"/>
                <g id="zoomPlus">
                        <use xlink:href="#rim" fill="#404040">
                                <set attributeName="fill" to="#808080" begin="zoomplus.mouseover" end="zoomplus.mouseout"/>
                        </use>
                        <path d="M-4,0h8M0,-4v8" fill="none" stroke="white" stroke-width="1.5" pointer-events="none"/>
                </g>
                <g id="zoomMin">
                        <use xlink:href="#rim" fill="#404040">
                                <set attributeName="fill" to="#808080" begin="zoomminus.mouseover" end="zoomminus.mouseout"/>
                        </use>
                        <path d="M-4,0h8" fill="none" stroke="white" stroke-width="1.5" pointer-events="none"/>
                </g>
                <g id="dirArrow">
                        <path fill="none" stroke="white" stroke-width="1.5" d="M0,-3.0v7 M-2.5,-0.5L0,-3.0L2.5,-0.5"/>
                </g>
               <g id="resetDef">
                       <use xlink:href="#rim2" fill="#404040">
                               <set attributeName="fill" to="#808080" begin="reset.mouseover" end="reset.mouseout"/>
                       </use>
               </g>
        </defs>

<script type="text/javascript">
var viewWidth = 5478;
var viewHeight = 140;
var sectionId = 'dynsection-1';
</script>
<script xlink:href="../../svgpan.js"/>
<svg id="graph" class="graph">
<g id="viewport">
<title>ctml.h</title>
<polygon fill="white" stroke="transparent" points="-4,4 -4,-136 5474,-136 5474,4 -4,4"/>
<!-- Node1 -->
<g id="node1" class="node">
<title>Node1</title>
<g id="a_node1"><a xlink:title="CTML (&quot;Cantera Markup Language&quot;) is the variant of XML that Cantera uses to store data.">
<polygon fill="#bfbfbf" stroke="black" points="2659,-112.5 2659,-131.5 2706,-131.5 2706,-112.5 2659,-112.5"/>
<text text-anchor="middle" x="2682.5" y="-119.5" font-family="Helvetica,sans-Serif" font-size="10.00">ctml.h</text>
</a>
</g>
</g>
<!-- Node2 -->
<g id="node2" class="node">
<title>Node2</title>
<g id="a_node2"><a xlink:href="../../df/d7b/application_8cpp.html" target="_top" xlink:title=" ">
<polygon fill="white" stroke="black" points="0,-56.5 0,-75.5 91,-75.5 91,-56.5 0,-56.5"/>
<text text-anchor="middle" x="45.5" y="-63.5" font-family="Helvetica,sans-Serif" font-size="10.00">application.cpp</text>
</a>
</g>
</g>
<!-- Node1&#45;&gt;Node2 -->
<g id="edge1" class="edge">
<title>Node1&#45;&gt;Node2</title>
<path fill="none" stroke="midnightblue" d="M2648.52,-121.09C2382.33,-121.65 628.18,-123.52 100.5,-76 97.42,-75.72 94.24,-75.37 91.05,-74.98"/>
<polygon fill="midnightblue" stroke="midnightblue" points="2648.73,-124.58 2658.73,-121.06 2648.72,-117.58 2648.73,-124.58"/>
</g>
<!-- Node3 -->
<g id="node3" class="node">
<title>Node3</title>
<g id="a_node3"><a xlink:href="../../dd/da7/ct2ctml_8cpp.html" target="_top" xlink:title="Driver for the system call to the python executable that converts cti files to ctml files (see Input ...">
<polygon fill="white" stroke="black" points="109.5,-56.5 109.5,-75.5 183.5,-75.5 183.5,-56.5 109.5,-56.5"/>
<text text-anchor="middle" x="146.5" y="-63.5" font-family="Helvetica,sans-Serif" font-size="10.00">ct2ctml.cpp</text>
</a>
</g>
</g>
<!-- Node1&#45;&gt;Node3 -->
<g id="edge2" class="edge">
<title>Node1&#45;&gt;Node3</title>
<path fill="none" stroke="midnightblue" d="M2648.33,-120.75C2367.75,-118.6 447.47,-103.04 192.5,-76 189.59,-75.69 186.58,-75.29 183.57,-74.83"/>
<polygon fill="midnightblue" stroke="midnightblue" points="2648.67,-124.25 2658.69,-120.82 2648.72,-117.25 2648.67,-124.25"/>
</g>
<!-- Node4 -->
<g id="node4" class="node">
<title>Node4</title>
<g id="a_node4"><a xlink:href="../../dd/de5/ctml_8cpp.html" target="_top" xlink:title="Definitions for functions to read and write CTML.">
<polygon fill="white" stroke="black" points="202,-56.5 202,-75.5 261,-75.5 261,-56.5 202,-56.5"/>
<text text-anchor="middle" x="231.5" y="-63.5" font-family="Helvetica,sans-Serif" font-size="10.00">ctml.cpp</text>
</a>
</g>
</g>
<!-- Node1&#45;&gt;Node4 -->
<g id="edge3" class="edge">
<title>Node1&#45;&gt;Node4</title>
<path fill="none" stroke="midnightblue" d="M2648.53,-120.81C2373.53,-119.18 515.76,-107.09 269.5,-76 266.81,-75.66 264.03,-75.21 261.26,-74.68"/>
<polygon fill="midnightblue" stroke="midnightblue" points="2648.67,-124.31 2658.69,-120.87 2648.71,-117.31 2648.67,-124.31"/>
</g>
<!-- Node5 -->
<g id="node5" class="node">
<title>Node5</title>
<g id="a_node5"><a xlink:href="../../d5/d22/stringUtils_8cpp.html" target="_top" xlink:title="Contains definitions for string manipulation functions within Cantera.">
<polygon fill="white" stroke="black" points="279,-56.5 279,-75.5 366,-75.5 366,-56.5 279,-56.5"/>
<text text-anchor="middle" x="322.5" y="-63.5" font-family="Helvetica,sans-Serif" font-size="10.00">stringUtils.cpp</text>
</a>
</g>
</g>
<!-- Node1&#45;&gt;Node5 -->
<g id="edge4" class="edge">
<title>Node1&#45;&gt;Node5</title>
<path fill="none" stroke="midnightblue" d="M2648.74,-121.03C2399.76,-121.16 844.63,-120.16 375.5,-76 372.43,-75.71 369.28,-75.35 366.1,-74.93"/>
<polygon fill="midnightblue" stroke="midnightblue" points="2648.97,-124.53 2658.97,-121.03 2648.97,-117.53 2648.97,-124.53"/>
</g>
<!-- Node6 -->
<g id="node6" class="node">
<title>Node6</title>
<g id="a_node6"><a xlink:href="../../d8/d22/importKinetics_8cpp.html" target="_top" xlink:title="Declarations of global routines for the importing of kinetics data from XML files (see Input File Han...">
<polygon fill="white" stroke="black" points="384.5,-56.5 384.5,-75.5 492.5,-75.5 492.5,-56.5 384.5,-56.5"/>
<text text-anchor="middle" x="438.5" y="-63.5" font-family="Helvetica,sans-Serif" font-size="10.00">importKinetics.cpp</text>
</a>
</g>
</g>
<!-- Node1&#45;&gt;Node6 -->
<g id="edge5" class="edge">
<title>Node1&#45;&gt;Node6</title>
<path fill="none" stroke="midnightblue" d="M2648.74,-120.87C2407.68,-119.82 944.36,-112.07 501.5,-76 498.64,-75.77 495.71,-75.49 492.75,-75.18"/>
<polygon fill="midnightblue" stroke="midnightblue" points="2648.97,-124.37 2658.98,-120.91 2649,-117.37 2648.97,-124.37"/>
</g>
<!-- Node7 -->
<g id="node7" class="node">
<title>Node7</title>
<g id="a_node7"><a xlink:href="../../d1/d9f/Reaction_8cpp.html" target="_top" xlink:title=" ">
<polygon fill="white" stroke="black" points="510.5,-56.5 510.5,-75.5 590.5,-75.5 590.5,-56.5 510.5,-56.5"/>
<text text-anchor="middle" x="550.5" y="-63.5" font-family="Helvetica,sans-Serif" font-size="10.00">Reaction.cpp</text>
</a>
</g>
</g>
<!-- Node1&#45;&gt;Node7 -->
<g id="edge6" class="edge">
<title>Node1&#45;&gt;Node7</title>
<path fill="none" stroke="midnightblue" d="M2648.43,-121.01C2412.65,-120.98 1020.59,-118.94 599.5,-76 596.57,-75.7 593.56,-75.32 590.54,-74.89"/>
<polygon fill="midnightblue" stroke="midnightblue" points="2648.77,-124.51 2658.77,-121.01 2648.77,-117.51 2648.77,-124.51"/>
</g>
<!-- Node8 -->
<g id="node8" class="node">
<title>Node8</title>
<g id="a_node8"><a xlink:href="../../de/d16/Boundary1D_8cpp.html" target="_top" xlink:title=" ">
<polygon fill="white" stroke="black" points="609,-56.5 609,-75.5 706,-75.5 706,-56.5 609,-56.5"/>
<text text-anchor="middle" x="657.5" y="-63.5" font-family="Helvetica,sans-Serif" font-size="10.00">Boundary1D.cpp</text>
</a>
</g>
</g>
<!-- Node1&#45;&gt;Node8 -->
<g id="edge7" class="edge">
<title>Node1&#45;&gt;Node8</title>
<path fill="none" stroke="midnightblue" d="M2648.56,-120.85C2420.8,-119.72 1111.77,-111.74 714.5,-76 711.81,-75.76 709.05,-75.47 706.26,-75.14"/>
<polygon fill="midnightblue" stroke="midnightblue" points="2648.86,-124.35 2658.87,-120.9 2648.89,-117.35 2648.86,-124.35"/>
</g>
<!-- Node9 -->
<g id="node9" class="node">
<title>Node9</title>
<g id="a_node9"><a xlink:href="../../dc/d9c/Domain1D_8cpp.html" target="_top" xlink:title=" ">
<polygon fill="white" stroke="black" points="724,-56.5 724,-75.5 813,-75.5 813,-56.5 724,-56.5"/>
<text text-anchor="middle" x="768.5" y="-63.5" font-family="Helvetica,sans-Serif" font-size="10.00">Domain1D.cpp</text>
</a>
</g>
</g>
<!-- Node1&#45;&gt;Node9 -->
<g id="edge8" class="edge">
<title>Node1&#45;&gt;Node9</title>
<path fill="none" stroke="midnightblue" d="M2648.72,-120.83C2428.7,-119.66 1196.83,-111.54 822.5,-76 819.47,-75.71 816.36,-75.36 813.23,-74.95"/>
<polygon fill="midnightblue" stroke="midnightblue" points="2648.97,-124.34 2658.99,-120.89 2649.01,-117.34 2648.97,-124.34"/>
</g>
<!-- Node10 -->
<g id="node10" class="node">
<title>Node10</title>
<g id="a_node10"><a xlink:href="../../d4/d57/IonFlow_8cpp.html" target="_top" xlink:title=" ">
<polygon fill="white" stroke="black" points="831.5,-56.5 831.5,-75.5 905.5,-75.5 905.5,-56.5 831.5,-56.5"/>
<text text-anchor="middle" x="868.5" y="-63.5" font-family="Helvetica,sans-Serif" font-size="10.00">IonFlow.cpp</text>
</a>
</g>
</g>
<!-- Node1&#45;&gt;Node10 -->
<g id="edge9" class="edge">
<title>Node1&#45;&gt;Node10</title>
<path fill="none" stroke="midnightblue" d="M2648.72,-120.91C2435.06,-120.25 1268.87,-114.9 914.5,-76 911.59,-75.68 908.59,-75.27 905.58,-74.81"/>
<polygon fill="midnightblue" stroke="midnightblue" points="2648.98,-124.41 2658.99,-120.94 2649,-117.41 2648.98,-124.41"/>
</g>
<!-- Node11 -->
<g id="node11" class="node">
<title>Node11</title>
<g id="a_node11"><a xlink:href="../../dc/dcd/OneDim_8cpp.html" target="_top" xlink:title=" ">
<polygon fill="white" stroke="black" points="924,-56.5 924,-75.5 1001,-75.5 1001,-56.5 924,-56.5"/>
<text text-anchor="middle" x="962.5" y="-63.5" font-family="Helvetica,sans-Serif" font-size="10.00">OneDim.cpp</text>
</a>
</g>
</g>
<!-- Node1&#45;&gt;Node11 -->
<g id="edge10" class="edge">
<title>Node1&#45;&gt;Node11</title>
<path fill="none" stroke="midnightblue" d="M2648.61,-120.84C2441.44,-119.74 1343.83,-112.26 1009.5,-76 1006.77,-75.7 1003.97,-75.34 1001.15,-74.92"/>
<polygon fill="midnightblue" stroke="midnightblue" points="2648.84,-124.34 2658.86,-120.89 2648.88,-117.34 2648.84,-124.34"/>
</g>
<!-- Node12 -->
<g id="node12" class="node">
<title>Node12</title>
<g id="a_node12"><a xlink:href="../../d4/d8d/StFlow_8cpp.html" target="_top" xlink:title=" ">
<polygon fill="white" stroke="black" points="1019,-56.5 1019,-75.5 1088,-75.5 1088,-56.5 1019,-56.5"/>
<text text-anchor="middle" x="1053.5" y="-63.5" font-family="Helvetica,sans-Serif" font-size="10.00">StFlow.cpp</text>
</a>
</g>
</g>
<!-- Node1&#45;&gt;Node12 -->
<g id="edge11" class="edge">
<title>Node1&#45;&gt;Node12</title>
<path fill="none" stroke="midnightblue" d="M2648.8,-120.86C2448.47,-119.91 1412.3,-113.23 1096.5,-76 1093.77,-75.68 1090.96,-75.27 1088.15,-74.8"/>
<polygon fill="midnightblue" stroke="midnightblue" points="2648.98,-124.36 2659,-120.91 2649.01,-117.36 2648.98,-124.36"/>
</g>
<!-- Node13 -->
<g id="node13" class="node">
<title>Node13</title>
<g id="a_node13"><a xlink:href="../../d4/d20/BinarySolutionTabulatedThermo_8cpp.html" target="_top" xlink:title="Implementation file for an binary solution model with tabulated standard state thermodynamic data (se...">
<polygon fill="white" stroke="black" points="1106,-56.5 1106,-75.5 1299,-75.5 1299,-56.5 1106,-56.5"/>
<text text-anchor="middle" x="1202.5" y="-63.5" font-family="Helvetica,sans-Serif" font-size="10.00">BinarySolutionTabulatedThermo.cpp</text>
</a>
</g>
</g>
<!-- Node1&#45;&gt;Node13 -->
<g id="edge12" class="edge">
<title>Node1&#45;&gt;Node13</title>
<path fill="none" stroke="midnightblue" d="M2648.73,-120.54C2494.6,-118.31 1842.49,-107.39 1308.5,-76 1305.46,-75.82 1302.37,-75.63 1299.25,-75.42"/>
<polygon fill="midnightblue" stroke="midnightblue" points="2648.91,-124.04 2658.96,-120.69 2649.01,-117.04 2648.91,-124.04"/>
</g>
<!-- Node14 -->
<g id="node14" class="node">
<title>Node14</title>
<g id="a_node14"><a xlink:href="../../da/d6e/ConstDensityThermo_8cpp_source.html" target="_top" xlink:title=" ">
<polygon fill="white" stroke="black" points="1317.5,-56.5 1317.5,-75.5 1457.5,-75.5 1457.5,-56.5 1317.5,-56.5"/>
<text text-anchor="middle" x="1387.5" y="-63.5" font-family="Helvetica,sans-Serif" font-size="10.00">ConstDensityThermo.cpp</text>
</a>
</g>
</g>
<!-- Node1&#45;&gt;Node14 -->
<g id="edge13" class="edge">
<title>Node1&#45;&gt;Node14</title>
<path fill="none" stroke="midnightblue" d="M2648.53,-120.69C2505,-119.2 1934.09,-111.24 1466.5,-76 1463.61,-75.78 1460.66,-75.54 1457.68,-75.28"/>
<polygon fill="midnightblue" stroke="midnightblue" points="2648.84,-124.2 2658.87,-120.8 2648.91,-117.2 2648.84,-124.2"/>
</g>
<!-- Node15 -->
<g id="node15" class="node">
<title>Node15</title>
<g id="a_node15"><a xlink:href="../../dc/ddc/DebyeHuckel_8cpp.html" target="_top" xlink:title="Declarations for the DebyeHuckel ThermoPhase object, which models dilute electrolyte solutions (see T...">
<polygon fill="white" stroke="black" points="1476,-56.5 1476,-75.5 1577,-75.5 1577,-56.5 1476,-56.5"/>
<text text-anchor="middle" x="1526.5" y="-63.5" font-family="Helvetica,sans-Serif" font-size="10.00">DebyeHuckel.cpp</text>
</a>
</g>
</g>
<!-- Node1&#45;&gt;Node15 -->
<g id="edge14" class="edge">
<title>Node1&#45;&gt;Node15</title>
<path fill="none" stroke="midnightblue" d="M2648.81,-120.97C2514.38,-120.57 2003.45,-116.33 1585.5,-76 1582.82,-75.74 1580.07,-75.44 1577.3,-75.11"/>
<polygon fill="midnightblue" stroke="midnightblue" points="2648.88,-124.47 2658.89,-121 2648.9,-117.47 2648.88,-124.47"/>
</g>
<!-- Node16 -->
<g id="node16" class="node">
<title>Node16</title>
<g id="a_node16"><a xlink:href="../../de/dfb/Elements_8cpp.html" target="_top" xlink:title="This file contains a database of atomic weights.">
<polygon fill="white" stroke="black" points="1595,-56.5 1595,-75.5 1678,-75.5 1678,-56.5 1595,-56.5"/>
<text text-anchor="middle" x="1636.5" y="-63.5" font-family="Helvetica,sans-Serif" font-size="10.00">Elements.cpp</text>
</a>
</g>
</g>
<!-- Node1&#45;&gt;Node16 -->
<g id="edge15" class="edge">
<title>Node1&#45;&gt;Node16</title>
<path fill="none" stroke="midnightblue" d="M2648.64,-121.1C2521.7,-121.12 2062.16,-118.11 1686.5,-76 1683.78,-75.7 1680.99,-75.33 1678.18,-74.93"/>
<polygon fill="midnightblue" stroke="midnightblue" points="2648.88,-124.6 2658.88,-121.09 2648.88,-117.6 2648.88,-124.6"/>
</g>
<!-- Node17 -->
<g id="node17" class="node">
<title>Node17</title>
<g id="a_node17"><a xlink:href="../../d0/d74/FixedChemPotSSTP_8cpp.html" target="_top" xlink:title="Definition file for the FixedChemPotSSTP class, which represents a fixed&#45;composition incompressible s...">
<polygon fill="white" stroke="black" points="1696,-56.5 1696,-75.5 1825,-75.5 1825,-56.5 1696,-56.5"/>
<text text-anchor="middle" x="1760.5" y="-63.5" font-family="Helvetica,sans-Serif" font-size="10.00">FixedChemPotSSTP.cpp</text>
</a>
</g>
</g>
<!-- Node1&#45;&gt;Node17 -->
<g id="edge16" class="edge">
<title>Node1&#45;&gt;Node17</title>
<path fill="none" stroke="midnightblue" d="M2648.61,-120.03C2534,-116.57 2150.37,-103.56 1834.5,-76 1831.41,-75.73 1828.24,-75.43 1825.05,-75.11"/>
<polygon fill="midnightblue" stroke="midnightblue" points="2648.75,-123.54 2658.85,-120.33 2648.96,-116.54 2648.75,-123.54"/>
</g>
<!-- Node18 -->
<g id="node18" class="node">
<title>Node18</title>
<g id="a_node18"><a xlink:href="../../d0/d0e/HMWSoln_8cpp.html" target="_top" xlink:title="Definitions for the HMWSoln ThermoPhase object, which models concentrated electrolyte solutions (see ...">
<polygon fill="white" stroke="black" points="1843.5,-56.5 1843.5,-75.5 1927.5,-75.5 1927.5,-56.5 1843.5,-56.5"/>
<text text-anchor="middle" x="1885.5" y="-63.5" font-family="Helvetica,sans-Serif" font-size="10.00">HMWSoln.cpp</text>
</a>
</g>
</g>
<!-- Node1&#45;&gt;Node18 -->
<g id="edge17" class="edge">
<title>Node1&#45;&gt;Node18</title>
<path fill="none" stroke="midnightblue" d="M2648.85,-120.34C2543.43,-117.98 2210.26,-108.3 1936.5,-76 1933.64,-75.66 1930.7,-75.27 1927.75,-74.84"/>
<polygon fill="midnightblue" stroke="midnightblue" points="2648.82,-123.84 2658.89,-120.56 2648.97,-116.84 2648.82,-123.84"/>
</g>
<!-- Node19 -->
<g id="node19" class="node">
<title>Node19</title>
<g id="a_node19"><a xlink:href="../../d3/d32/IdealMolalSoln_8cpp.html" target="_top" xlink:title="ThermoPhase object for the ideal molal equation of state (see Thermodynamic Properties and class Idea...">
<polygon fill="white" stroke="black" points="1946,-56.5 1946,-75.5 2055,-75.5 2055,-56.5 1946,-56.5"/>
<text text-anchor="middle" x="2000.5" y="-63.5" font-family="Helvetica,sans-Serif" font-size="10.00">IdealMolalSoln.cpp</text>
</a>
</g>
</g>
<!-- Node1&#45;&gt;Node19 -->
<g id="edge18" class="edge">
<title>Node1&#45;&gt;Node19</title>
<path fill="none" stroke="midnightblue" d="M2648.57,-119.36C2555.11,-114.67 2286.09,-99.96 2063.5,-76 2060.75,-75.7 2057.94,-75.38 2055.11,-75.04"/>
<polygon fill="midnightblue" stroke="midnightblue" points="2648.67,-122.87 2658.83,-119.87 2649.02,-115.88 2648.67,-122.87"/>
</g>
<!-- Node20 -->
<g id="node20" class="node">
<title>Node20</title>
<g id="a_node20"><a xlink:href="../../de/d05/IdealSolidSolnPhase_8cpp.html" target="_top" xlink:title="Implementation file for an ideal solid solution model with incompressible thermodynamics (see Thermod...">
<polygon fill="white" stroke="black" points="2073,-56.5 2073,-75.5 2208,-75.5 2208,-56.5 2073,-56.5"/>
<text text-anchor="middle" x="2140.5" y="-63.5" font-family="Helvetica,sans-Serif" font-size="10.00">IdealSolidSolnPhase.cpp</text>
</a>
</g>
</g>
<!-- Node1&#45;&gt;Node20 -->
<g id="edge19" class="edge">
<title>Node1&#45;&gt;Node20</title>
<path fill="none" stroke="midnightblue" d="M2648.66,-117.99C2571.81,-111.08 2378.2,-93.38 2216.5,-76 2213.73,-75.7 2210.9,-75.39 2208.04,-75.07"/>
<polygon fill="midnightblue" stroke="midnightblue" points="2648.45,-121.48 2658.72,-118.89 2649.07,-114.51 2648.45,-121.48"/>
</g>
<!-- Node21 -->
<g id="node21" class="node">
<title>Node21</title>
<g id="a_node21"><a xlink:href="../../da/d5f/LatticePhase_8cpp.html" target="_top" xlink:title="Definitions for a simple thermodynamics model of a bulk phase derived from ThermoPhase,...">
<polygon fill="white" stroke="black" points="2226,-56.5 2226,-75.5 2325,-75.5 2325,-56.5 2226,-56.5"/>
<text text-anchor="middle" x="2275.5" y="-63.5" font-family="Helvetica,sans-Serif" font-size="10.00">LatticePhase.cpp</text>
</a>
</g>
</g>
<!-- Node1&#45;&gt;Node21 -->
<g id="edge20" class="edge">
<title>Node1&#45;&gt;Node21</title>
<path fill="none" stroke="midnightblue" d="M2648.72,-116.94C2586.37,-109.37 2449,-92.4 2333.5,-76 2330.78,-75.61 2327.98,-75.21 2325.16,-74.79"/>
<polygon fill="midnightblue" stroke="midnightblue" points="2648.43,-120.43 2658.77,-118.15 2649.27,-113.48 2648.43,-120.43"/>
</g>
<!-- Node22 -->
<g id="node22" class="node">
<title>Node22</title>
<g id="a_node22"><a xlink:href="../../df/dde/LatticeSolidPhase_8cpp.html" target="_top" xlink:title="Definitions for a simple thermodynamics model of a bulk solid phase derived from ThermoPhase,...">
<polygon fill="white" stroke="black" points="2343,-56.5 2343,-75.5 2466,-75.5 2466,-56.5 2343,-56.5"/>
<text text-anchor="middle" x="2404.5" y="-63.5" font-family="Helvetica,sans-Serif" font-size="10.00">LatticeSolidPhase.cpp</text>
</a>
</g>
</g>
<!-- Node1&#45;&gt;Node22 -->
<g id="edge21" class="edge">
<title>Node1&#45;&gt;Node22</title>
<path fill="none" stroke="midnightblue" d="M2648.78,-114.45C2598.54,-104.69 2504,-86.33 2448.42,-75.53"/>
<polygon fill="midnightblue" stroke="midnightblue" points="2648.31,-117.92 2658.8,-116.4 2649.65,-111.05 2648.31,-117.92"/>
</g>
<!-- Node23 -->
<g id="node23" class="node">
<title>Node23</title>
<g id="a_node23"><a xlink:href="../../dd/d35/MargulesVPSSTP_8cpp.html" target="_top" xlink:title="Definitions for ThermoPhase object for phases which employ excess Gibbs free energy formulations rela...">
<polygon fill="white" stroke="black" points="2484,-56.5 2484,-75.5 2601,-75.5 2601,-56.5 2484,-56.5"/>
<text text-anchor="middle" x="2542.5" y="-63.5" font-family="Helvetica,sans-Serif" font-size="10.00">MargulesVPSSTP.cpp</text>
</a>
</g>
</g>
<!-- Node1&#45;&gt;Node23 -->
<g id="edge22" class="edge">
<title>Node1&#45;&gt;Node23</title>
<path fill="none" stroke="midnightblue" d="M2650.8,-108.77C2624.5,-98.63 2587.78,-84.47 2564.58,-75.52"/>
<polygon fill="midnightblue" stroke="midnightblue" points="2649.73,-112.11 2660.32,-112.44 2652.25,-105.58 2649.73,-112.11"/>
</g>
<!-- Node24 -->
<g id="node24" class="node">
<title>Node24</title>
<g id="a_node24"><a xlink:href="../../db/d86/MixtureFugacityTP_8cpp.html" target="_top" xlink:title="Methods file for a derived class of ThermoPhase that handles non&#45;ideal mixtures based on the fugacity...">
<polygon fill="white" stroke="black" points="2619.5,-56.5 2619.5,-75.5 2745.5,-75.5 2745.5,-56.5 2619.5,-56.5"/>
<text text-anchor="middle" x="2682.5" y="-63.5" font-family="Helvetica,sans-Serif" font-size="10.00">MixtureFugacityTP.cpp</text>
</a>
</g>
</g>
<!-- Node1&#45;&gt;Node24 -->
<g id="edge23" class="edge">
<title>Node1&#45;&gt;Node24</title>
<path fill="none" stroke="midnightblue" d="M2682.5,-101.8C2682.5,-92.91 2682.5,-82.78 2682.5,-75.75"/>
<polygon fill="midnightblue" stroke="midnightblue" points="2679,-102.08 2682.5,-112.08 2686,-102.08 2679,-102.08"/>
</g>
<!-- Node25 -->
<g id="node25" class="node">
<title>Node25</title>
<g id="a_node25"><a xlink:href="../../db/dd7/MolalityVPSSTP_8cpp.html" target="_top" xlink:title="Definitions for intermediate ThermoPhase object for phases which employ molality based activity coeff...">
<polygon fill="white" stroke="black" points="2763.5,-56.5 2763.5,-75.5 2875.5,-75.5 2875.5,-56.5 2763.5,-56.5"/>
<text text-anchor="middle" x="2819.5" y="-63.5" font-family="Helvetica,sans-Serif" font-size="10.00">MolalityVPSSTP.cpp</text>
</a>
</g>
</g>
<!-- Node1&#45;&gt;Node25 -->
<g id="edge24" class="edge">
<title>Node1&#45;&gt;Node25</title>
<path fill="none" stroke="midnightblue" d="M2713.52,-108.77C2739.26,-98.63 2775.19,-84.47 2797.89,-75.52"/>
<polygon fill="midnightblue" stroke="midnightblue" points="2712.23,-105.52 2704.21,-112.44 2714.79,-112.03 2712.23,-105.52"/>
</g>
<!-- Node26 -->
<g id="node26" class="node">
<title>Node26</title>
<g id="a_node26"><a xlink:href="../../df/d58/Mu0Poly_8cpp.html" target="_top" xlink:title="Definitions for a single&#45;species standard state object derived from SpeciesThermoInterpType based on ...">
<polygon fill="white" stroke="black" points="2894,-56.5 2894,-75.5 2971,-75.5 2971,-56.5 2894,-56.5"/>
<text text-anchor="middle" x="2932.5" y="-63.5" font-family="Helvetica,sans-Serif" font-size="10.00">Mu0Poly.cpp</text>
</a>
</g>
</g>
<!-- Node1&#45;&gt;Node26 -->
<g id="edge25" class="edge">
<title>Node1&#45;&gt;Node26</title>
<path fill="none" stroke="midnightblue" d="M2715.82,-113.8C2761.94,-103.84 2845.05,-85.89 2893.85,-75.35"/>
<polygon fill="midnightblue" stroke="midnightblue" points="2715.05,-110.39 2706.02,-115.92 2716.53,-117.23 2715.05,-110.39"/>
</g>
<!-- Node27 -->
<g id="node27" class="node">
<title>Node27</title>
<g id="a_node27"><a xlink:href="../../d3/d3c/PDSS_8cpp.html" target="_top" xlink:title="Implementation of a pressure dependent standard state virtual function (see class PDSS).">
<polygon fill="white" stroke="black" points="2989.5,-56.5 2989.5,-75.5 3051.5,-75.5 3051.5,-56.5 2989.5,-56.5"/>
<text text-anchor="middle" x="3020.5" y="-63.5" font-family="Helvetica,sans-Serif" font-size="10.00">PDSS.cpp</text>
</a>
</g>
</g>
<!-- Node1&#45;&gt;Node27 -->
<g id="edge26" class="edge">
<title>Node1&#45;&gt;Node27</title>
<path fill="none" stroke="midnightblue" d="M2715.99,-116.66C2771.12,-109.34 2884.36,-93.63 2979.5,-76 2982.65,-75.42 2985.93,-74.77 2989.2,-74.09"/>
<polygon fill="midnightblue" stroke="midnightblue" points="2715.53,-113.19 2706.07,-117.96 2716.45,-120.13 2715.53,-113.19"/>
</g>
<!-- Node28 -->
<g id="node28" class="node">
<title>Node28</title>
<g id="a_node28"><a xlink:href="../../da/d94/PDSS__ConstVol_8cpp.html" target="_top" xlink:title="Implementation of a pressure dependent standard state virtual function.">
<polygon fill="white" stroke="black" points="3069.5,-56.5 3069.5,-75.5 3179.5,-75.5 3179.5,-56.5 3069.5,-56.5"/>
<text text-anchor="middle" x="3124.5" y="-63.5" font-family="Helvetica,sans-Serif" font-size="10.00">PDSS_ConstVol.cpp</text>
</a>
</g>
</g>
<!-- Node1&#45;&gt;Node28 -->
<g id="edge27" class="edge">
<title>Node1&#45;&gt;Node28</title>
<path fill="none" stroke="midnightblue" d="M2716.68,-117.18C2783.02,-109.7 2933.85,-92.44 3060.5,-76 3063.39,-75.62 3066.36,-75.23 3069.35,-74.83"/>
<polygon fill="midnightblue" stroke="midnightblue" points="2715.95,-113.74 2706.4,-118.33 2716.73,-120.69 2715.95,-113.74"/>
</g>
<!-- Node29 -->
<g id="node29" class="node">
<title>Node29</title>
<g id="a_node29"><a xlink:href="../../d1/d3f/PDSS__HKFT_8cpp.html" target="_top" xlink:title="Definitions for the class PDSS_HKFT (pressure dependent standard state) which handles calculations fo...">
<polygon fill="white" stroke="black" points="3197.5,-56.5 3197.5,-75.5 3289.5,-75.5 3289.5,-56.5 3197.5,-56.5"/>
<text text-anchor="middle" x="3243.5" y="-63.5" font-family="Helvetica,sans-Serif" font-size="10.00">PDSS_HKFT.cpp</text>
</a>
</g>
</g>
<!-- Node1&#45;&gt;Node29 -->
<g id="edge28" class="edge">
<title>Node1&#45;&gt;Node29</title>
<path fill="none" stroke="midnightblue" d="M2716.16,-118.87C2797.51,-113.52 3011.18,-98.36 3188.5,-76 3191.38,-75.64 3194.34,-75.24 3197.32,-74.81"/>
<polygon fill="midnightblue" stroke="midnightblue" points="2715.77,-115.38 2706.02,-119.53 2716.23,-122.37 2715.77,-115.38"/>
</g>
<!-- Node30 -->
<g id="node30" class="node">
<title>Node30</title>
<g id="a_node30"><a xlink:href="../../d3/d44/PDSS__IdealGas_8cpp.html" target="_top" xlink:title="Implementation of a pressure dependent standard state virtual function.">
<polygon fill="white" stroke="black" points="3307.5,-56.5 3307.5,-75.5 3417.5,-75.5 3417.5,-56.5 3307.5,-56.5"/>
<text text-anchor="middle" x="3362.5" y="-63.5" font-family="Helvetica,sans-Serif" font-size="10.00">PDSS_IdealGas.cpp</text>
</a>
</g>
</g>
<!-- Node1&#45;&gt;Node30 -->
<g id="edge29" class="edge">
<title>Node1&#45;&gt;Node30</title>
<path fill="none" stroke="midnightblue" d="M2716.26,-119.33C2809.26,-114.55 3076.96,-99.64 3298.5,-76 3301.4,-75.69 3304.37,-75.35 3307.37,-74.99"/>
<polygon fill="midnightblue" stroke="midnightblue" points="2715.86,-115.84 2706.05,-119.85 2716.21,-122.83 2715.86,-115.84"/>
</g>
<!-- Node31 -->
<g id="node31" class="node">
<title>Node31</title>
<g id="a_node31"><a xlink:href="../../dc/dc2/PDSS__IonsFromNeutral_8cpp.html" target="_top" xlink:title="Implementation of a pressure dependent standard state virtual function.">
<polygon fill="white" stroke="black" points="3436,-56.5 3436,-75.5 3585,-75.5 3585,-56.5 3436,-56.5"/>
<text text-anchor="middle" x="3510.5" y="-63.5" font-family="Helvetica,sans-Serif" font-size="10.00">PDSS_IonsFromNeutral.cpp</text>
</a>
</g>
</g>
<!-- Node1&#45;&gt;Node31 -->
<g id="edge30" class="edge">
<title>Node1&#45;&gt;Node31</title>
<path fill="none" stroke="midnightblue" d="M2716.34,-119.51C2821.64,-114.76 3152.85,-98.92 3426.5,-76 3429.57,-75.74 3432.7,-75.47 3435.86,-75.18"/>
<polygon fill="midnightblue" stroke="midnightblue" points="2716.13,-116.02 2706.3,-119.96 2716.45,-123.01 2716.13,-116.02"/>
</g>
<!-- Node32 -->
<g id="node32" class="node">
<title>Node32</title>
<g id="a_node32"><a xlink:href="../../d2/d42/PDSS__SSVol_8cpp.html" target="_top" xlink:title="Implementation of a pressure dependent standard state virtual function.">
<polygon fill="white" stroke="black" points="3603,-56.5 3603,-75.5 3698,-75.5 3698,-56.5 3603,-56.5"/>
<text text-anchor="middle" x="3650.5" y="-63.5" font-family="Helvetica,sans-Serif" font-size="10.00">PDSS_SSVol.cpp</text>
</a>
</g>
</g>
<!-- Node1&#45;&gt;Node32 -->
<g id="edge31" class="edge">
<title>Node1&#45;&gt;Node32</title>
<path fill="none" stroke="midnightblue" d="M2716.17,-120.64C2835.9,-119.08 3252.15,-111.28 3593.5,-76 3596.59,-75.68 3599.77,-75.31 3602.96,-74.9"/>
<polygon fill="midnightblue" stroke="midnightblue" points="2716.1,-117.14 2706.15,-120.76 2716.19,-124.14 2716.1,-117.14"/>
</g>
<!-- Node33 -->
<g id="node33" class="node">
<title>Node33</title>
<g id="a_node33"><a xlink:href="../../d2/db8/PDSS__Water_8cpp.html" target="_top" xlink:title=" ">
<polygon fill="white" stroke="black" points="3716,-56.5 3716,-75.5 3811,-75.5 3811,-56.5 3716,-56.5"/>
<text text-anchor="middle" x="3763.5" y="-63.5" font-family="Helvetica,sans-Serif" font-size="10.00">PDSS_Water.cpp</text>
</a>
</g>
</g>
<!-- Node1&#45;&gt;Node33 -->
<g id="edge32" class="edge">
<title>Node1&#45;&gt;Node33</title>
<path fill="none" stroke="midnightblue" d="M2716.03,-120.9C2844.63,-120.21 3318.59,-115.02 3706.5,-76 3709.59,-75.69 3712.77,-75.32 3715.97,-74.92"/>
<polygon fill="midnightblue" stroke="midnightblue" points="2715.99,-117.4 2706.01,-120.94 2716.03,-124.4 2715.99,-117.4"/>
</g>
<!-- Node34 -->
<g id="node34" class="node">
<title>Node34</title>
<g id="a_node34"><a xlink:href="../../de/dd9/Phase_8cpp.html" target="_top" xlink:title="Definition file for class Phase.">
<polygon fill="white" stroke="black" points="3829.5,-56.5 3829.5,-75.5 3895.5,-75.5 3895.5,-56.5 3829.5,-56.5"/>
<text text-anchor="middle" x="3862.5" y="-63.5" font-family="Helvetica,sans-Serif" font-size="10.00">Phase.cpp</text>
</a>
</g>
</g>
<!-- Node1&#45;&gt;Node34 -->
<g id="edge33" class="edge">
<title>Node1&#45;&gt;Node34</title>
<path fill="none" stroke="midnightblue" d="M2716.47,-120.42C2881.21,-117.49 3597.92,-103.38 3819.5,-76 3822.68,-75.61 3825.97,-75.1 3829.26,-74.53"/>
<polygon fill="midnightblue" stroke="midnightblue" points="2716.37,-116.92 2706.43,-120.6 2716.49,-123.92 2716.37,-116.92"/>
</g>
<!-- Node35 -->
<g id="node35" class="node">
<title>Node35</title>
<g id="a_node35"><a xlink:href="../../d1/dec/RedlichKisterVPSSTP_8cpp.html" target="_top" xlink:title="Definitions for ThermoPhase object for phases which employ excess Gibbs free energy formulations rela...">
<polygon fill="white" stroke="black" points="3914,-56.5 3914,-75.5 4051,-75.5 4051,-56.5 3914,-56.5"/>
<text text-anchor="middle" x="3982.5" y="-63.5" font-family="Helvetica,sans-Serif" font-size="10.00">RedlichKisterVPSSTP.cpp</text>
</a>
</g>
</g>
<!-- Node1&#45;&gt;Node35 -->
<g id="edge34" class="edge">
<title>Node1&#45;&gt;Node35</title>
<path fill="none" stroke="midnightblue" d="M2716.64,-120.72C2860.88,-119.32 3434.63,-111.7 3904.5,-76 3907.49,-75.77 3910.54,-75.52 3913.62,-75.24"/>
<polygon fill="midnightblue" stroke="midnightblue" points="2716.21,-117.22 2706.25,-120.82 2716.28,-124.22 2716.21,-117.22"/>
</g>
<!-- Node36 -->
<g id="node36" class="node">
<title>Node36</title>
<g id="a_node36"><a xlink:href="../../dd/d0d/RedlichKwongMFTP_8cpp.html" target="_top" xlink:title=" ">
<polygon fill="white" stroke="black" points="4069,-56.5 4069,-75.5 4200,-75.5 4200,-56.5 4069,-56.5"/>
<text text-anchor="middle" x="4134.5" y="-63.5" font-family="Helvetica,sans-Serif" font-size="10.00">RedlichKwongMFTP.cpp</text>
</a>
</g>
</g>
<!-- Node1&#45;&gt;Node36 -->
<g id="edge35" class="edge">
<title>Node1&#45;&gt;Node36</title>
<path fill="none" stroke="midnightblue" d="M2716.37,-120.98C2870.97,-120.63 3524.97,-116.73 4059.5,-76 4062.51,-75.77 4065.58,-75.51 4068.68,-75.23"/>
<polygon fill="midnightblue" stroke="midnightblue" points="2716.11,-117.48 2706.12,-120.99 2716.12,-124.48 2716.11,-117.48"/>
</g>
<!-- Node37 -->
<g id="node37" class="node">
<title>Node37</title>
<g id="a_node37"><a xlink:href="../../d7/d17/Species_8cpp_source.html" target="_top" xlink:title=" ">
<polygon fill="white" stroke="black" points="4218.5,-56.5 4218.5,-75.5 4292.5,-75.5 4292.5,-56.5 4218.5,-56.5"/>
<text text-anchor="middle" x="4255.5" y="-63.5" font-family="Helvetica,sans-Serif" font-size="10.00">Species.cpp</text>
</a>
</g>
</g>
<!-- Node1&#45;&gt;Node37 -->
<g id="edge36" class="edge">
<title>Node1&#45;&gt;Node37</title>
<path fill="none" stroke="midnightblue" d="M2716.45,-120.74C2912.84,-119.1 3905.16,-109.3 4208.5,-76 4211.72,-75.65 4215.05,-75.19 4218.38,-74.67"/>
<polygon fill="midnightblue" stroke="midnightblue" points="2716.15,-117.24 2706.18,-120.82 2716.2,-124.24 2716.15,-117.24"/>
</g>
<!-- Node38 -->
<g id="node38" class="node">
<title>Node38</title>
<g id="a_node38"><a xlink:href="../../da/d47/SpeciesThermoFactory_8cpp.html" target="_top" xlink:title="Definitions for factory functions to build instances of classes that manage the standard&#45;state thermo...">
<polygon fill="white" stroke="black" points="4310.5,-56.5 4310.5,-75.5 4456.5,-75.5 4456.5,-56.5 4310.5,-56.5"/>
<text text-anchor="middle" x="4383.5" y="-63.5" font-family="Helvetica,sans-Serif" font-size="10.00">SpeciesThermoFactory.cpp</text>
</a>
</g>
</g>
<!-- Node1&#45;&gt;Node38 -->
<g id="edge37" class="edge">
<title>Node1&#45;&gt;Node38</title>
<path fill="none" stroke="midnightblue" d="M2716.41,-121.08C2886.73,-121.28 3665.72,-119.65 4301.5,-76 4304.36,-75.8 4307.27,-75.58 4310.21,-75.34"/>
<polygon fill="midnightblue" stroke="midnightblue" points="2716.31,-117.58 2706.3,-121.07 2716.3,-124.58 2716.31,-117.58"/>
</g>
<!-- Node39 -->
<g id="node39" class="node">
<title>Node39</title>
<g id="a_node39"><a xlink:href="../../d1/ddb/StoichSubstance_8cpp.html" target="_top" xlink:title="Definition file for the StoichSubstance class, which represents a fixed&#45;composition incompressible su...">
<polygon fill="white" stroke="black" points="4475,-56.5 4475,-75.5 4592,-75.5 4592,-56.5 4475,-56.5"/>
<text text-anchor="middle" x="4533.5" y="-63.5" font-family="Helvetica,sans-Serif" font-size="10.00">StoichSubstance.cpp</text>
</a>
</g>
</g>
<!-- Node1&#45;&gt;Node39 -->
<g id="edge38" class="edge">
<title>Node1&#45;&gt;Node39</title>
<path fill="none" stroke="midnightblue" d="M2716.22,-120.64C2930.68,-118.27 4106.91,-104.18 4465.5,-76 4468.59,-75.76 4471.75,-75.47 4474.94,-75.15"/>
<polygon fill="midnightblue" stroke="midnightblue" points="2716.15,-117.14 2706.19,-120.75 2716.23,-124.14 2716.15,-117.14"/>
</g>
<!-- Node40 -->
<g id="node40" class="node">
<title>Node40</title>
<g id="a_node40"><a xlink:href="../../d4/d7e/SurfPhase_8cpp.html" target="_top" xlink:title="Definitions for a simple thermodynamic model of a surface phase derived from ThermoPhase,...">
<polygon fill="white" stroke="black" points="4610.5,-56.5 4610.5,-75.5 4696.5,-75.5 4696.5,-56.5 4610.5,-56.5"/>
<text text-anchor="middle" x="4653.5" y="-63.5" font-family="Helvetica,sans-Serif" font-size="10.00">SurfPhase.cpp</text>
</a>
</g>
</g>
<!-- Node1&#45;&gt;Node40 -->
<g id="edge39" class="edge">
<title>Node1&#45;&gt;Node40</title>
<path fill="none" stroke="midnightblue" d="M2716.29,-120.88C2940.28,-119.96 4213.94,-113.16 4600.5,-76 4603.75,-75.69 4607.1,-75.29 4610.47,-74.84"/>
<polygon fill="midnightblue" stroke="midnightblue" points="2716.12,-117.38 2706.13,-120.92 2716.15,-124.38 2716.12,-117.38"/>
</g>
<!-- Node41 -->
<g id="node41" class="node">
<title>Node41</title>
<g id="a_node41"><a xlink:href="../../df/d7e/ThermoPhase_8cpp.html" target="_top" xlink:title="Definition file for class ThermoPhase, the base class for phases with thermodynamic properties (see c...">
<polygon fill="white" stroke="black" points="4714.5,-56.5 4714.5,-75.5 4818.5,-75.5 4818.5,-56.5 4714.5,-56.5"/>
<text text-anchor="middle" x="4766.5" y="-63.5" font-family="Helvetica,sans-Serif" font-size="10.00">ThermoPhase.cpp</text>
</a>
</g>
</g>
<!-- Node1&#45;&gt;Node41 -->
<g id="edge40" class="edge">
<title>Node1&#45;&gt;Node41</title>
<path fill="none" stroke="midnightblue" d="M2716.3,-120.82C2947.3,-119.53 4296.31,-110.6 4705.5,-76 4708.38,-75.76 4711.33,-75.46 4714.31,-75.14"/>
<polygon fill="midnightblue" stroke="midnightblue" points="2716.14,-117.32 2706.15,-120.88 2716.17,-124.32 2716.14,-117.32"/>
</g>
<!-- Node42 -->
<g id="node42" class="node">
<title>Node42</title>
<g id="a_node42"><a xlink:href="../../d9/da4/VPStandardStateTP_8cpp.html" target="_top" xlink:title="Definition file for a derived class of ThermoPhase that handles variable pressure standard state meth...">
<polygon fill="white" stroke="black" points="4837,-56.5 4837,-75.5 4966,-75.5 4966,-56.5 4837,-56.5"/>
<text text-anchor="middle" x="4901.5" y="-63.5" font-family="Helvetica,sans-Serif" font-size="10.00">VPStandardStateTP.cpp</text>
</a>
</g>
</g>
<!-- Node1&#45;&gt;Node42 -->
<g id="edge41" class="edge">
<title>Node1&#45;&gt;Node42</title>
<path fill="none" stroke="midnightblue" d="M2716.44,-120.75C2955.75,-118.95 4392.06,-106.97 4827.5,-76 4830.6,-75.78 4833.77,-75.52 4836.96,-75.23"/>
<polygon fill="midnightblue" stroke="midnightblue" points="2716.24,-117.26 2706.26,-120.83 2716.29,-124.26 2716.24,-117.26"/>
</g>
<!-- Node43 -->
<g id="node43" class="node">
<title>Node43</title>
<g id="a_node43"><a xlink:href="../../d4/d61/WaterProps_8cpp.html" target="_top" xlink:title=" ">
<polygon fill="white" stroke="black" points="4984.5,-56.5 4984.5,-75.5 5076.5,-75.5 5076.5,-56.5 4984.5,-56.5"/>
<text text-anchor="middle" x="5030.5" y="-63.5" font-family="Helvetica,sans-Serif" font-size="10.00">WaterProps.cpp</text>
</a>
</g>
</g>
<!-- Node1&#45;&gt;Node43 -->
<g id="edge42" class="edge">
<title>Node1&#45;&gt;Node43</title>
<path fill="none" stroke="midnightblue" d="M2716.42,-120.99C2964.99,-120.78 4508.47,-117.82 4974.5,-76 4977.74,-75.71 4981.07,-75.34 4984.42,-74.93"/>
<polygon fill="midnightblue" stroke="midnightblue" points="2716.2,-117.49 2706.21,-120.99 2716.21,-124.49 2716.2,-117.49"/>
</g>
<!-- Node44 -->
<g id="node44" class="node">
<title>Node44</title>
<g id="a_node44"><a xlink:href="../../da/dc7/TransportData_8cpp.html" target="_top" xlink:title=" ">
<polygon fill="white" stroke="black" points="5095,-56.5 5095,-75.5 5200,-75.5 5200,-56.5 5095,-56.5"/>
<text text-anchor="middle" x="5147.5" y="-63.5" font-family="Helvetica,sans-Serif" font-size="10.00">TransportData.cpp</text>
</a>
</g>
</g>
<!-- Node1&#45;&gt;Node44 -->
<g id="edge43" class="edge">
<title>Node1&#45;&gt;Node44</title>
<path fill="none" stroke="midnightblue" d="M2716.46,-120.95C2971.92,-120.49 4595.56,-115.99 5085.5,-76 5088.54,-75.75 5091.65,-75.45 5094.79,-75.11"/>
<polygon fill="midnightblue" stroke="midnightblue" points="2716.3,-117.45 2706.31,-120.97 2716.31,-124.45 2716.3,-117.45"/>
</g>
<!-- Node45 -->
<g id="node45" class="node">
<title>Node45</title>
<g id="a_node45"><a xlink:href="../../d2/d33/TransportFactory_8cpp.html" target="_top" xlink:title="Implementation file for class TransportFactory.">
<polygon fill="white" stroke="black" points="5218.5,-56.5 5218.5,-75.5 5334.5,-75.5 5334.5,-56.5 5218.5,-56.5"/>
<text text-anchor="middle" x="5276.5" y="-63.5" font-family="Helvetica,sans-Serif" font-size="10.00">TransportFactory.cpp</text>
</a>
</g>
</g>
<!-- Node1&#45;&gt;Node45 -->
<g id="edge44" class="edge">
<title>Node1&#45;&gt;Node45</title>
<path fill="none" stroke="midnightblue" d="M2716.14,-120.93C2977.85,-120.29 4691.89,-114.66 5208.5,-76 5211.71,-75.76 5214.99,-75.47 5218.31,-75.14"/>
<polygon fill="midnightblue" stroke="midnightblue" points="2716.09,-117.43 2706.1,-120.95 2716.11,-124.43 2716.09,-117.43"/>
</g>
<!-- Node46 -->
<g id="node46" class="node">
<title>Node46</title>
<g id="a_node46"><a xlink:href="../../db/df0/MetalPhase_8h.html" target="_top" xlink:title=" ">
<polygon fill="white" stroke="black" points="5353,-56.5 5353,-75.5 5436,-75.5 5436,-56.5 5353,-56.5"/>
<text text-anchor="middle" x="5394.5" y="-63.5" font-family="Helvetica,sans-Serif" font-size="10.00">MetalPhase.h</text>
</a>
</g>
</g>
<!-- Node1&#45;&gt;Node46 -->
<g id="edge45" class="edge">
<title>Node1&#45;&gt;Node46</title>
<path fill="none" stroke="midnightblue" d="M2716.67,-121.16C2988.13,-122.36 4799.42,-128.28 5343.5,-76 5346.54,-75.71 5349.68,-75.33 5352.82,-74.91"/>
<polygon fill="midnightblue" stroke="midnightblue" points="2716.29,-117.66 2706.28,-121.12 2716.26,-124.66 2716.29,-117.66"/>
</g>
<!-- Node47 -->
<g id="node47" class="node">
<title>Node47</title>
<g id="a_node47"><a xlink:href="../../d2/d3a/ThermoFactory_8cpp.html" target="_top" xlink:title="Definitions for the factory class that can create known ThermoPhase objects (see Thermodynamic Proper...">
<polygon fill="white" stroke="black" points="5290.5,-0.5 5290.5,-19.5 5398.5,-19.5 5398.5,-0.5 5290.5,-0.5"/>
<text text-anchor="middle" x="5344.5" y="-7.5" font-family="Helvetica,sans-Serif" font-size="10.00">ThermoFactory.cpp</text>
</a>
</g>
</g>
<!-- Node46&#45;&gt;Node47 -->
<g id="edge46" class="edge">
<title>Node46&#45;&gt;Node47</title>
<path fill="none" stroke="midnightblue" d="M5379.42,-48.72C5370.61,-39.2 5359.83,-27.56 5352.6,-19.75"/>
<polygon fill="midnightblue" stroke="midnightblue" points="5376.88,-51.12 5386.24,-56.08 5382.02,-46.37 5376.88,-51.12"/>
</g>
<!-- Node48 -->
<g id="node48" class="node">
<title>Node48</title>
<g id="a_node48"><a xlink:href="../../de/d62/Metal_8h.html" target="_top" xlink:title=" ">
<polygon fill="white" stroke="black" points="5417,-0.5 5417,-19.5 5470,-19.5 5470,-0.5 5417,-0.5"/>
<text text-anchor="middle" x="5443.5" y="-7.5" font-family="Helvetica,sans-Serif" font-size="10.00">Metal.h</text>
</a>
</g>
</g>
<!-- Node46&#45;&gt;Node48 -->
<g id="edge47" class="edge">
<title>Node46&#45;&gt;Node48</title>
<path fill="none" stroke="midnightblue" d="M5409.53,-48.43C5418.12,-38.97 5428.54,-27.48 5435.56,-19.75"/>
<polygon fill="midnightblue" stroke="midnightblue" points="5406.72,-46.33 5402.59,-56.08 5411.9,-51.03 5406.72,-46.33"/>
</g>
</g>
</svg>
        <g id="navigator" transform="translate(0 0)" fill="#404254">
                <rect fill="#f2f5e9" fill-opacity="0.5" stroke="#606060" stroke-width=".5" x="0" y="0" width="60" height="60"/>
                <use id="zoomplus" xlink:href="#zoomPlus" x="17" y="9" onmousedown="handleZoom(evt,'in')"/>
                <use id="zoomminus" xlink:href="#zoomMin" x="42" y="9" onmousedown="handleZoom(evt,'out')"/>
                <use id="reset" xlink:href="#resetDef" x="30" y="36" onmousedown="handleReset()"/>
                <g id="arrowUp" xlink:href="#dirArrow" transform="translate(30 24)" onmousedown="handlePan(0,-1)">
                  <use xlink:href="#rim" fill="#404040">
                        <set attributeName="fill" to="#808080" begin="arrowUp.mouseover" end="arrowUp.mouseout"/>
                  </use>
                  <path fill="none" stroke="white" stroke-width="1.5" d="M0,-3.0v7 M-2.5,-0.5L0,-3.0L2.5,-0.5"/>
                </g>
                <g id="arrowRight" xlink:href="#dirArrow" transform="rotate(90) translate(36 -43)" onmousedown="handlePan(1,0)">
                  <use xlink:href="#rim" fill="#404040">
                        <set attributeName="fill" to="#808080" begin="arrowRight.mouseover" end="arrowRight.mouseout"/>
                  </use>
                  <path fill="none" stroke="white" stroke-width="1.5" d="M0,-3.0v7 M-2.5,-0.5L0,-3.0L2.5,-0.5"/>
                </g>
                <g id="arrowDown" xlink:href="#dirArrow" transform="rotate(180) translate(-30 -48)" onmousedown="handlePan(0,1)">
                  <use xlink:href="#rim" fill="#404040">
                        <set attributeName="fill" to="#808080" begin="arrowDown.mouseover" end="arrowDown.mouseout"/>
                  </use>
                  <path fill="none" stroke="white" stroke-width="1.5" d="M0,-3.0v7 M-2.5,-0.5L0,-3.0L2.5,-0.5"/>
                </g>
                <g id="arrowLeft" xlink:href="#dirArrow" transform="rotate(270) translate(-36 17)" onmousedown="handlePan(-1,0)">
                  <use xlink:href="#rim" fill="#404040">
                        <set attributeName="fill" to="#808080" begin="arrowLeft.mouseover" end="arrowLeft.mouseout"/>
                  </use>
                  <path fill="none" stroke="white" stroke-width="1.5" d="M0,-3.0v7 M-2.5,-0.5L0,-3.0L2.5,-0.5"/>
                </g>
        </g>
        <svg viewBox="0 0 15 15" width="100%" height="30px" preserveAspectRatio="xMaxYMin meet">
         <g id="arrow_out" transform="scale(0.3 0.3)">
          <a xlink:href="ctml_8h__dep__incl_org.svg" target="_base">
           <rect id="button" ry="5" rx="5" y="6" x="6" height="38" width="38"
                fill="#f2f5e9" fill-opacity="0.5" stroke="#606060" stroke-width="1.0"/>
           <path id="arrow"
             d="M 11.500037,31.436501 C 11.940474,20.09759 22.043105,11.32322 32.158766,21.979434 L 37.068811,17.246167 C 37.068811,17.246167 37.088388,32 37.088388,32 L 22.160133,31.978069 C 22.160133,31.978069 26.997745,27.140456 26.997745,27.140456 C 18.528582,18.264221 13.291696,25.230495 11.500037,31.436501 z"
             style="fill:#404040;"/>
          </a>
         </g>
        </svg>
</svg>
