<?xml version="1.0" encoding="UTF-8" standalone="no"?>
<!DOCTYPE svg PUBLIC "-//W3C//DTD SVG 1.1//EN"
 "http://www.w3.org/Graphics/SVG/1.1/DTD/svg11.dtd">
<!-- Generated by graphviz version 2.43.0 (0)
 -->
<!-- Title: GibbsExcessVPSSTP.h Pages: 1 -->
<!--zoomable 140 -->
<svg id="main" version="1.1" xmlns="http://www.w3.org/2000/svg" xmlns:xlink="http://www.w3.org/1999/xlink" xml:space="preserve" onload="init(evt)">
<style type="text/css"><![CDATA[
.edge:hover path { stroke: red; }
.edge:hover polygon { stroke: red; fill: red; }
]]></style>
<script type="text/javascript"><![CDATA[
var edges = document.getElementsByTagName('g');
if (edges && edges.length) {
  for (var i=0;i<edges.length;i++) {
    if (edges[i].id.substr(0,4)=='edge') {
      edges[i].setAttribute('class','edge');
    }
  }
}
]]></script>
        <defs>
                <circle id="rim" cx="0" cy="0" r="7"/>
                <circle id="rim2" cx="0" cy="0" r="3.5"/>
                <g id="zoomPlus">
                        <use xlink:href="#rim" fill="#404040">
                                <set attributeName="fill" to="#808080" begin="zoomplus.mouseover" end="zoomplus.mouseout"/>
                        </use>
                        <path d="M-4,0h8M0,-4v8" fill="none" stroke="white" stroke-width="1.5" pointer-events="none"/>
                </g>
                <g id="zoomMin">
                        <use xlink:href="#rim" fill="#404040">
                                <set attributeName="fill" to="#808080" begin="zoomminus.mouseover" end="zoomminus.mouseout"/>
                        </use>
                        <path d="M-4,0h8" fill="none" stroke="white" stroke-width="1.5" pointer-events="none"/>
                </g>
                <g id="dirArrow">
                        <path fill="none" stroke="white" stroke-width="1.5" d="M0,-3.0v7 M-2.5,-0.5L0,-3.0L2.5,-0.5"/>
                </g>
               <g id="resetDef">
                       <use xlink:href="#rim2" fill="#404040">
                               <set attributeName="fill" to="#808080" begin="reset.mouseover" end="reset.mouseout"/>
                       </use>
               </g>
        </defs>

<script type="text/javascript">
var viewWidth = 892;
var viewHeight = 140;
var sectionId = 'dynsection-1';
</script>
<script xlink:href="../../svgpan.js"/>
<svg id="graph" class="graph">
<g id="viewport">
<title>GibbsExcessVPSSTP.h</title>
<polygon fill="white" stroke="transparent" points="-4,4 -4,-136 888,-136 888,4 -4,4"/>
<!-- Node1 -->
<g id="node1" class="node">
<title>Node1</title>
<g id="a_node1"><a xlink:title="Header for intermediate ThermoPhase object for phases which employ Gibbs excess free energy based for...">
<polygon fill="#bfbfbf" stroke="black" points="409.5,-112.5 409.5,-131.5 531.5,-131.5 531.5,-112.5 409.5,-112.5"/>
<text text-anchor="middle" x="470.5" y="-119.5" font-family="Helvetica,sans-Serif" font-size="10.00">GibbsExcessVPSSTP.h</text>
</a>
</g>
</g>
<!-- Node2 -->
<g id="node2" class="node">
<title>Node2</title>
<g id="a_node2"><a xlink:href="../../d1/d54/GibbsExcessVPSSTP_8cpp.html" target="_top" xlink:title="Definitions for intermediate ThermoPhase object for phases which employ excess Gibbs free energy form...">
<polygon fill="white" stroke="black" points="176.5,-56.5 176.5,-75.5 310.5,-75.5 310.5,-56.5 176.5,-56.5"/>
<text text-anchor="middle" x="243.5" y="-63.5" font-family="Helvetica,sans-Serif" font-size="10.00">GibbsExcessVPSSTP.cpp</text>
</a>
</g>
</g>
<!-- Node1&#45;&gt;Node2 -->
<g id="edge1" class="edge">
<title>Node1&#45;&gt;Node2</title>
<path fill="none" stroke="midnightblue" d="M424.63,-110.09C381.75,-99.89 318.58,-84.86 279.3,-75.52"/>
<polygon fill="midnightblue" stroke="midnightblue" points="423.99,-113.53 434.53,-112.44 425.61,-106.72 423.99,-113.53"/>
</g>
<!-- Node3 -->
<g id="node3" class="node">
<title>Node3</title>
<g id="a_node3"><a xlink:href="../../de/dd7/IonsFromNeutralVPSSTP_8h.html" target="_top" xlink:title="Header for intermediate ThermoPhase object for phases which consist of ions whose thermodynamics is c...">
<polygon fill="white" stroke="black" points="328.5,-56.5 328.5,-75.5 470.5,-75.5 470.5,-56.5 328.5,-56.5"/>
<text text-anchor="middle" x="399.5" y="-63.5" font-family="Helvetica,sans-Serif" font-size="10.00">IonsFromNeutralVPSSTP.h</text>
</a>
</g>
</g>
<!-- Node1&#45;&gt;Node3 -->
<g id="edge2" class="edge">
<title>Node1&#45;&gt;Node3</title>
<path fill="none" stroke="midnightblue" d="M450.91,-106.1C438.13,-96.38 421.89,-84.03 411.11,-75.83"/>
<polygon fill="midnightblue" stroke="midnightblue" points="449.01,-109.06 459.09,-112.32 453.25,-103.48 449.01,-109.06"/>
</g>
<!-- Node8 -->
<g id="node8" class="node">
<title>Node8</title>
<g id="a_node8"><a xlink:href="../../d9/db4/MargulesVPSSTP_8h.html" target="_top" xlink:title="(see Thermodynamic Properties and class MargulesVPSSTP).">
<polygon fill="white" stroke="black" points="488.5,-56.5 488.5,-75.5 594.5,-75.5 594.5,-56.5 488.5,-56.5"/>
<text text-anchor="middle" x="541.5" y="-63.5" font-family="Helvetica,sans-Serif" font-size="10.00">MargulesVPSSTP.h</text>
</a>
</g>
</g>
<!-- Node1&#45;&gt;Node8 -->
<g id="edge7" class="edge">
<title>Node1&#45;&gt;Node8</title>
<path fill="none" stroke="midnightblue" d="M490.09,-106.1C502.87,-96.38 519.11,-84.03 529.89,-75.83"/>
<polygon fill="midnightblue" stroke="midnightblue" points="487.75,-103.48 481.91,-112.32 491.99,-109.06 487.75,-103.48"/>
</g>
<!-- Node10 -->
<g id="node10" class="node">
<title>Node10</title>
<g id="a_node10"><a xlink:href="../../d6/d63/RedlichKisterVPSSTP_8h.html" target="_top" xlink:title="(see Thermodynamic Properties and class RedlichKisterVPSSTP).">
<polygon fill="white" stroke="black" points="613,-56.5 613,-75.5 738,-75.5 738,-56.5 613,-56.5"/>
<text text-anchor="middle" x="675.5" y="-63.5" font-family="Helvetica,sans-Serif" font-size="10.00">RedlichKisterVPSSTP.h</text>
</a>
</g>
</g>
<!-- Node1&#45;&gt;Node10 -->
<g id="edge10" class="edge">
<title>Node1&#45;&gt;Node10</title>
<path fill="none" stroke="midnightblue" d="M512.91,-109.83C551.61,-99.63 607.99,-84.78 643.17,-75.52"/>
<polygon fill="midnightblue" stroke="midnightblue" points="511.76,-106.51 502.98,-112.44 513.54,-113.28 511.76,-106.51"/>
</g>
<!-- Node4 -->
<g id="node4" class="node">
<title>Node4</title>
<g id="a_node4"><a xlink:href="../../db/dcc/IonsFromNeutralVPSSTP_8cpp.html" target="_top" xlink:title="Definitions for the object which treats ionic liquids as made of ions as species even though the ther...">
<polygon fill="white" stroke="black" points="0,-0.5 0,-19.5 153,-19.5 153,-0.5 0,-0.5"/>
<text text-anchor="middle" x="76.5" y="-7.5" font-family="Helvetica,sans-Serif" font-size="10.00">IonsFromNeutralVPSSTP.cpp</text>
</a>
</g>
</g>
<!-- Node3&#45;&gt;Node4 -->
<g id="edge3" class="edge">
<title>Node3&#45;&gt;Node4</title>
<path fill="none" stroke="midnightblue" d="M338.43,-54.79C277.4,-44.59 184.63,-29.08 127.44,-19.52"/>
<polygon fill="midnightblue" stroke="midnightblue" points="337.88,-58.25 348.32,-56.44 339.03,-51.34 337.88,-58.25"/>
</g>
<!-- Node5 -->
<g id="node5" class="node">
<title>Node5</title>
<g id="a_node5"><a xlink:href="../../dc/dc2/PDSS__IonsFromNeutral_8cpp.html" target="_top" xlink:title="Implementation of a pressure dependent standard state virtual function.">
<polygon fill="white" stroke="black" points="171,-0.5 171,-19.5 320,-19.5 320,-0.5 171,-0.5"/>
<text text-anchor="middle" x="245.5" y="-7.5" font-family="Helvetica,sans-Serif" font-size="10.00">PDSS_IonsFromNeutral.cpp</text>
</a>
</g>
</g>
<!-- Node3&#45;&gt;Node5 -->
<g id="edge4" class="edge">
<title>Node3&#45;&gt;Node5</title>
<path fill="none" stroke="midnightblue" d="M365.39,-53.04C336.41,-42.88 295.54,-28.55 269.79,-19.52"/>
<polygon fill="midnightblue" stroke="midnightblue" points="364.5,-56.44 375.1,-56.44 366.82,-49.83 364.5,-56.44"/>
</g>
<!-- Node6 -->
<g id="node6" class="node">
<title>Node6</title>
<g id="a_node6"><a xlink:href="../../d2/d3a/ThermoFactory_8cpp.html" target="_top" xlink:title="Definitions for the factory class that can create known ThermoPhase objects (see Thermodynamic Proper...">
<polygon fill="white" stroke="black" points="485.5,-0.5 485.5,-19.5 593.5,-19.5 593.5,-0.5 485.5,-0.5"/>
<text text-anchor="middle" x="539.5" y="-7.5" font-family="Helvetica,sans-Serif" font-size="10.00">ThermoFactory.cpp</text>
</a>
</g>
</g>
<!-- Node3&#45;&gt;Node6 -->
<g id="edge5" class="edge">
<title>Node3&#45;&gt;Node6</title>
<path fill="none" stroke="midnightblue" d="M431.2,-52.77C457.5,-42.63 494.22,-28.47 517.42,-19.52"/>
<polygon fill="midnightblue" stroke="midnightblue" points="429.75,-49.58 421.68,-56.44 432.27,-56.11 429.75,-49.58"/>
</g>
<!-- Node7 -->
<g id="node7" class="node">
<title>Node7</title>
<g id="a_node7"><a xlink:href="../../d9/da4/VPStandardStateTP_8cpp.html" target="_top" xlink:title="Definition file for a derived class of ThermoPhase that handles variable pressure standard state meth...">
<polygon fill="white" stroke="black" points="338,-0.5 338,-19.5 467,-19.5 467,-0.5 338,-0.5"/>
<text text-anchor="middle" x="402.5" y="-7.5" font-family="Helvetica,sans-Serif" font-size="10.00">VPStandardStateTP.cpp</text>
</a>
</g>
</g>
<!-- Node3&#45;&gt;Node7 -->
<g id="edge6" class="edge">
<title>Node3&#45;&gt;Node7</title>
<path fill="none" stroke="midnightblue" d="M400.57,-45.8C401.06,-36.91 401.62,-26.78 402.01,-19.75"/>
<polygon fill="midnightblue" stroke="midnightblue" points="397.06,-45.9 400,-56.08 404.04,-46.29 397.06,-45.9"/>
</g>
<!-- Node8&#45;&gt;Node6 -->
<g id="edge9" class="edge">
<title>Node8&#45;&gt;Node6</title>
<path fill="none" stroke="midnightblue" d="M540.79,-45.8C540.46,-36.91 540.08,-26.78 539.82,-19.75"/>
<polygon fill="midnightblue" stroke="midnightblue" points="537.3,-46.22 541.17,-56.08 544.3,-45.96 537.3,-46.22"/>
</g>
<!-- Node9 -->
<g id="node9" class="node">
<title>Node9</title>
<g id="a_node9"><a xlink:href="../../dd/d35/MargulesVPSSTP_8cpp.html" target="_top" xlink:title="Definitions for ThermoPhase object for phases which employ excess Gibbs free energy formulations rela...">
<polygon fill="white" stroke="black" points="612,-0.5 612,-19.5 729,-19.5 729,-0.5 612,-0.5"/>
<text text-anchor="middle" x="670.5" y="-7.5" font-family="Helvetica,sans-Serif" font-size="10.00">MargulesVPSSTP.cpp</text>
</a>
</g>
</g>
<!-- Node8&#45;&gt;Node9 -->
<g id="edge8" class="edge">
<title>Node8&#45;&gt;Node9</title>
<path fill="none" stroke="midnightblue" d="M571.35,-52.5C595.54,-42.38 628.96,-28.39 650.16,-19.52"/>
<polygon fill="midnightblue" stroke="midnightblue" points="569.81,-49.35 561.94,-56.44 572.52,-55.81 569.81,-49.35"/>
</g>
<!-- Node10&#45;&gt;Node6 -->
<g id="edge12" class="edge">
<title>Node10&#45;&gt;Node6</title>
<path fill="none" stroke="midnightblue" d="M644.37,-52.64C618.84,-42.5 583.39,-28.43 560.95,-19.52"/>
<polygon fill="midnightblue" stroke="midnightblue" points="643.36,-56.01 653.95,-56.44 645.95,-49.5 643.36,-56.01"/>
</g>
<!-- Node11 -->
<g id="node11" class="node">
<title>Node11</title>
<g id="a_node11"><a xlink:href="../../d1/dec/RedlichKisterVPSSTP_8cpp.html" target="_top" xlink:title="Definitions for ThermoPhase object for phases which employ excess Gibbs free energy formulations rela...">
<polygon fill="white" stroke="black" points="747,-0.5 747,-19.5 884,-19.5 884,-0.5 747,-0.5"/>
<text text-anchor="middle" x="815.5" y="-7.5" font-family="Helvetica,sans-Serif" font-size="10.00">RedlichKisterVPSSTP.cpp</text>
</a>
</g>
</g>
<!-- Node10&#45;&gt;Node11 -->
<g id="edge11" class="edge">
<title>Node10&#45;&gt;Node11</title>
<path fill="none" stroke="midnightblue" d="M707.2,-52.77C733.5,-42.63 770.22,-28.47 793.42,-19.52"/>
<polygon fill="midnightblue" stroke="midnightblue" points="705.75,-49.58 697.68,-56.44 708.27,-56.11 705.75,-49.58"/>
</g>
</g>
</svg>
        <g id="navigator" transform="translate(0 0)" fill="#404254">
                <rect fill="#f2f5e9" fill-opacity="0.5" stroke="#606060" stroke-width=".5" x="0" y="0" width="60" height="60"/>
                <use id="zoomplus" xlink:href="#zoomPlus" x="17" y="9" onmousedown="handleZoom(evt,'in')"/>
                <use id="zoomminus" xlink:href="#zoomMin" x="42" y="9" onmousedown="handleZoom(evt,'out')"/>
                <use id="reset" xlink:href="#resetDef" x="30" y="36" onmousedown="handleReset()"/>
                <g id="arrowUp" xlink:href="#dirArrow" transform="translate(30 24)" onmousedown="handlePan(0,-1)">
                  <use xlink:href="#rim" fill="#404040">
                        <set attributeName="fill" to="#808080" begin="arrowUp.mouseover" end="arrowUp.mouseout"/>
                  </use>
                  <path fill="none" stroke="white" stroke-width="1.5" d="M0,-3.0v7 M-2.5,-0.5L0,-3.0L2.5,-0.5"/>
                </g>
                <g id="arrowRight" xlink:href="#dirArrow" transform="rotate(90) translate(36 -43)" onmousedown="handlePan(1,0)">
                  <use xlink:href="#rim" fill="#404040">
                        <set attributeName="fill" to="#808080" begin="arrowRight.mouseover" end="arrowRight.mouseout"/>
                  </use>
                  <path fill="none" stroke="white" stroke-width="1.5" d="M0,-3.0v7 M-2.5,-0.5L0,-3.0L2.5,-0.5"/>
                </g>
                <g id="arrowDown" xlink:href="#dirArrow" transform="rotate(180) translate(-30 -48)" onmousedown="handlePan(0,1)">
                  <use xlink:href="#rim" fill="#404040">
                        <set attributeName="fill" to="#808080" begin="arrowDown.mouseover" end="arrowDown.mouseout"/>
                  </use>
                  <path fill="none" stroke="white" stroke-width="1.5" d="M0,-3.0v7 M-2.5,-0.5L0,-3.0L2.5,-0.5"/>
                </g>
                <g id="arrowLeft" xlink:href="#dirArrow" transform="rotate(270) translate(-36 17)" onmousedown="handlePan(-1,0)">
                  <use xlink:href="#rim" fill="#404040">
                        <set attributeName="fill" to="#808080" begin="arrowLeft.mouseover" end="arrowLeft.mouseout"/>
                  </use>
                  <path fill="none" stroke="white" stroke-width="1.5" d="M0,-3.0v7 M-2.5,-0.5L0,-3.0L2.5,-0.5"/>
                </g>
        </g>
        <svg viewBox="0 0 15 15" width="100%" height="30px" preserveAspectRatio="xMaxYMin meet">
         <g id="arrow_out" transform="scale(0.3 0.3)">
          <a xlink:href="GibbsExcessVPSSTP_8h__dep__incl_org.svg" target="_base">
           <rect id="button" ry="5" rx="5" y="6" x="6" height="38" width="38"
                fill="#f2f5e9" fill-opacity="0.5" stroke="#606060" stroke-width="1.0"/>
           <path id="arrow"
             d="M 11.500037,31.436501 C 11.940474,20.09759 22.043105,11.32322 32.158766,21.979434 L 37.068811,17.246167 C 37.068811,17.246167 37.088388,32 37.088388,32 L 22.160133,31.978069 C 22.160133,31.978069 26.997745,27.140456 26.997745,27.140456 C 18.528582,18.264221 13.291696,25.230495 11.500037,31.436501 z"
             style="fill:#404040;"/>
          </a>
         </g>
        </svg>
</svg>
