<?xml version="1.0" encoding="UTF-8" standalone="no"?>
<!DOCTYPE svg PUBLIC "-//W3C//DTD SVG 1.1//EN"
 "http://www.w3.org/Graphics/SVG/1.1/DTD/svg11.dtd">
<!-- Generated by graphviz version 2.43.0 (0)
 -->
<!-- Title: TransportParams.h Pages: 1 -->
<!--zoomable 476 -->
<svg id="main" version="1.1" xmlns="http://www.w3.org/2000/svg" xmlns:xlink="http://www.w3.org/1999/xlink" xml:space="preserve" onload="init(evt)">
<style type="text/css"><![CDATA[
.edge:hover path { stroke: red; }
.edge:hover polygon { stroke: red; fill: red; }
]]></style>
<script type="text/javascript"><![CDATA[
var edges = document.getElementsByTagName('g');
if (edges && edges.length) {
  for (var i=0;i<edges.length;i++) {
    if (edges[i].id.substr(0,4)=='edge') {
      edges[i].setAttribute('class','edge');
    }
  }
}
]]></script>
        <defs>
                <circle id="rim" cx="0" cy="0" r="7"/>
                <circle id="rim2" cx="0" cy="0" r="3.5"/>
                <g id="zoomPlus">
                        <use xlink:href="#rim" fill="#404040">
                                <set attributeName="fill" to="#808080" begin="zoomplus.mouseover" end="zoomplus.mouseout"/>
                        </use>
                        <path d="M-4,0h8M0,-4v8" fill="none" stroke="white" stroke-width="1.5" pointer-events="none"/>
                </g>
                <g id="zoomMin">
                        <use xlink:href="#rim" fill="#404040">
                                <set attributeName="fill" to="#808080" begin="zoomminus.mouseover" end="zoomminus.mouseout"/>
                        </use>
                        <path d="M-4,0h8" fill="none" stroke="white" stroke-width="1.5" pointer-events="none"/>
                </g>
                <g id="dirArrow">
                        <path fill="none" stroke="white" stroke-width="1.5" d="M0,-3.0v7 M-2.5,-0.5L0,-3.0L2.5,-0.5"/>
                </g>
               <g id="resetDef">
                       <use xlink:href="#rim2" fill="#404040">
                               <set attributeName="fill" to="#808080" begin="reset.mouseover" end="reset.mouseout"/>
                       </use>
               </g>
        </defs>

<script type="text/javascript">
var viewWidth = 983;
var viewHeight = 476;
var sectionId = 'dynsection-0';
</script>
<script xlink:href="../../svgpan.js"/>
<svg id="graph" class="graph">
<g id="viewport">
<title>TransportParams.h</title>
<polygon fill="white" stroke="transparent" points="-4,4 -4,-472 978.5,-472 978.5,4 -4,4"/>
<!-- Node1 -->
<g id="node1" class="node">
<title>Node1</title>
<g id="a_node1"><a xlink:title="Class that holds the data that is read in from the input file, and which is used for processing of th...">
<polygon fill="#bfbfbf" stroke="black" points="592,-448.5 592,-467.5 699,-467.5 699,-448.5 592,-448.5"/>
<text text-anchor="middle" x="645.5" y="-455.5" font-family="Helvetica,sans-Serif" font-size="10.00">TransportParams.h</text>
</a>
</g>
</g>
<!-- Node2 -->
<g id="node2" class="node">
<title>Node2</title>
<g id="a_node2"><a xlink:href="../../d1/df7/DenseMatrix_8h.html" target="_top" xlink:title="Headers for the DenseMatrix object, which deals with dense rectangular matrices and description of th...">
<polygon fill="white" stroke="black" points="653.5,-336.5 653.5,-355.5 829.5,-355.5 829.5,-336.5 653.5,-336.5"/>
<text text-anchor="middle" x="741.5" y="-343.5" font-family="Helvetica,sans-Serif" font-size="10.00">cantera/numerics/DenseMatrix.h</text>
</a>
</g>
</g>
<!-- Node1&#45;&gt;Node2 -->
<g id="edge1" class="edge">
<title>Node1&#45;&gt;Node2</title>
<path fill="none" stroke="midnightblue" d="M653.03,-448.37C669.02,-430.05 706.55,-387.05 727.22,-363.36"/>
<polygon fill="midnightblue" stroke="midnightblue" points="730.06,-365.43 734,-355.59 724.79,-360.82 730.06,-365.43"/>
</g>
<!-- Node24 -->
<g id="node24" class="node">
<title>Node24</title>
<g id="a_node24"><a xlink:href="../../da/dbb/TransportBase_8h.html" target="_top" xlink:title="Headers for the Transport object, which is the virtual base class for all transport property evaluato...">
<polygon fill="white" stroke="black" points="560,-392.5 560,-411.5 655,-411.5 655,-392.5 560,-392.5"/>
<text text-anchor="middle" x="607.5" y="-399.5" font-family="Helvetica,sans-Serif" font-size="10.00">TransportBase.h</text>
</a>
</g>
</g>
<!-- Node1&#45;&gt;Node24 -->
<g id="edge27" class="edge">
<title>Node1&#45;&gt;Node24</title>
<path fill="none" stroke="midnightblue" d="M639.23,-448.08C633.86,-440.46 625.98,-429.26 619.42,-419.94"/>
<polygon fill="midnightblue" stroke="midnightblue" points="622.28,-417.91 613.66,-411.75 616.55,-421.94 622.28,-417.91"/>
</g>
<!-- Node3 -->
<g id="node3" class="node">
<title>Node3</title>
<g id="a_node3"><a xlink:href="../../d9/ddc/ct__defs_8h.html" target="_top" xlink:title="This file contains definitions of terms that are used in internal routines and are unlikely to need m...">
<polygon fill="white" stroke="black" points="556,-56.5 556,-75.5 683,-75.5 683,-56.5 556,-56.5"/>
<text text-anchor="middle" x="619.5" y="-63.5" font-family="Helvetica,sans-Serif" font-size="10.00">cantera/base/ct_defs.h</text>
</a>
</g>
</g>
<!-- Node2&#45;&gt;Node3 -->
<g id="edge2" class="edge">
<title>Node2&#45;&gt;Node3</title>
<path fill="none" stroke="midnightblue" d="M741.11,-336.44C740.29,-317.94 738.5,-272.83 738.5,-235 738.5,-235 738.5,-235 738.5,-177 738.5,-129.3 686.3,-96.53 651.04,-79.84"/>
<polygon fill="midnightblue" stroke="midnightblue" points="652.16,-76.5 641.6,-75.56 649.27,-82.88 652.16,-76.5"/>
</g>
<!-- Node12 -->
<g id="node12" class="node">
<title>Node12</title>
<g id="a_node12"><a xlink:href="../../db/d98/ctexceptions_8h.html" target="_top" xlink:title="Definitions for the classes that are thrown when Cantera experiences an error condition (also contain...">
<polygon fill="white" stroke="black" points="269.5,-168.5 269.5,-187.5 423.5,-187.5 423.5,-168.5 269.5,-168.5"/>
<text text-anchor="middle" x="346.5" y="-175.5" font-family="Helvetica,sans-Serif" font-size="10.00">cantera/base/ctexceptions.h</text>
</a>
</g>
</g>
<!-- Node2&#45;&gt;Node12 -->
<g id="edge11" class="edge">
<title>Node2&#45;&gt;Node12</title>
<path fill="none" stroke="midnightblue" d="M728.27,-336.46C707.06,-323.03 663.81,-296.81 624.5,-280 574.86,-258.78 559.37,-262.07 508.5,-244 461.4,-227.27 407.74,-205.12 375.53,-191.47"/>
<polygon fill="midnightblue" stroke="midnightblue" points="376.83,-188.22 366.25,-187.53 374.09,-194.66 376.83,-188.22"/>
</g>
<!-- Node17 -->
<g id="node17" class="node">
<title>Node17</title>
<g id="a_node17"><a xlink:href="../../df/dd0/Array_8h.html" target="_top" xlink:title="Header file for class Cantera::Array2D.">
<polygon fill="white" stroke="black" points="792.5,-280.5 792.5,-299.5 908.5,-299.5 908.5,-280.5 792.5,-280.5"/>
<text text-anchor="middle" x="850.5" y="-287.5" font-family="Helvetica,sans-Serif" font-size="10.00">cantera/base/Array.h</text>
</a>
</g>
</g>
<!-- Node2&#45;&gt;Node17 -->
<g id="edge17" class="edge">
<title>Node2&#45;&gt;Node17</title>
<path fill="none" stroke="midnightblue" d="M759.01,-336.32C776.57,-327.62 803.83,-314.12 824.03,-304.11"/>
<polygon fill="midnightblue" stroke="midnightblue" points="825.62,-307.23 833.03,-299.65 822.52,-300.96 825.62,-307.23"/>
</g>
<!-- Node4 -->
<g id="node4" class="node">
<title>Node4</title>
<g id="a_node4"><a xlink:href="../../db/d16/config_8h_source.html" target="_top" xlink:title=" ">
<polygon fill="white" stroke="black" points="360,-0.5 360,-19.5 415,-19.5 415,-0.5 360,-0.5"/>
<text text-anchor="middle" x="387.5" y="-7.5" font-family="Helvetica,sans-Serif" font-size="10.00">config.h</text>
</a>
</g>
</g>
<!-- Node3&#45;&gt;Node4 -->
<g id="edge3" class="edge">
<title>Node3&#45;&gt;Node4</title>
<path fill="none" stroke="midnightblue" d="M581.14,-56.42C543.68,-47.99 484.78,-34.61 424.99,-20.33"/>
<polygon fill="midnightblue" stroke="midnightblue" points="425.54,-16.86 415,-17.93 423.91,-23.67 425.54,-16.86"/>
</g>
<!-- Node5 -->
<g id="node5" class="node">
<title>Node5</title>
<g id="a_node5"><a xlink:title=" ">
<polygon fill="white" stroke="#bfbfbf" points="433,-0.5 433,-19.5 480,-19.5 480,-0.5 433,-0.5"/>
<text text-anchor="middle" x="456.5" y="-7.5" font-family="Helvetica,sans-Serif" font-size="10.00">cmath</text>
</a>
</g>
</g>
<!-- Node3&#45;&gt;Node5 -->
<g id="edge4" class="edge">
<title>Node3&#45;&gt;Node5</title>
<path fill="none" stroke="midnightblue" d="M593.67,-56.44C565.61,-47.15 520.67,-32.26 489.93,-22.07"/>
<polygon fill="midnightblue" stroke="midnightblue" points="490.68,-18.64 480.09,-18.82 488.48,-25.28 490.68,-18.64"/>
</g>
<!-- Node6 -->
<g id="node6" class="node">
<title>Node6</title>
<g id="a_node6"><a xlink:title=" ">
<polygon fill="white" stroke="#bfbfbf" points="498,-0.5 498,-19.5 547,-19.5 547,-0.5 498,-0.5"/>
<text text-anchor="middle" x="522.5" y="-7.5" font-family="Helvetica,sans-Serif" font-size="10.00">cstdlib</text>
</a>
</g>
</g>
<!-- Node3&#45;&gt;Node6 -->
<g id="edge5" class="edge">
<title>Node3&#45;&gt;Node6</title>
<path fill="none" stroke="midnightblue" d="M603.92,-56.32C588.5,-47.74 564.69,-34.49 546.79,-24.52"/>
<polygon fill="midnightblue" stroke="midnightblue" points="548.49,-21.46 538.05,-19.65 545.08,-27.58 548.49,-21.46"/>
</g>
<!-- Node7 -->
<g id="node7" class="node">
<title>Node7</title>
<g id="a_node7"><a xlink:title=" ">
<polygon fill="white" stroke="#bfbfbf" points="565,-0.5 565,-19.5 612,-19.5 612,-0.5 565,-0.5"/>
<text text-anchor="middle" x="588.5" y="-7.5" font-family="Helvetica,sans-Serif" font-size="10.00">vector</text>
</a>
</g>
</g>
<!-- Node3&#45;&gt;Node7 -->
<g id="edge6" class="edge">
<title>Node3&#45;&gt;Node7</title>
<path fill="none" stroke="midnightblue" d="M614.38,-56.08C610.09,-48.61 603.84,-37.72 598.56,-28.52"/>
<polygon fill="midnightblue" stroke="midnightblue" points="601.54,-26.68 593.52,-19.75 595.47,-30.17 601.54,-26.68"/>
</g>
<!-- Node8 -->
<g id="node8" class="node">
<title>Node8</title>
<g id="a_node8"><a xlink:title=" ">
<polygon fill="white" stroke="#bfbfbf" points="630.5,-0.5 630.5,-19.5 668.5,-19.5 668.5,-0.5 630.5,-0.5"/>
<text text-anchor="middle" x="649.5" y="-7.5" font-family="Helvetica,sans-Serif" font-size="10.00">map</text>
</a>
</g>
</g>
<!-- Node3&#45;&gt;Node8 -->
<g id="edge7" class="edge">
<title>Node3&#45;&gt;Node8</title>
<path fill="none" stroke="midnightblue" d="M624.45,-56.08C628.6,-48.61 634.65,-37.72 639.77,-28.52"/>
<polygon fill="midnightblue" stroke="midnightblue" points="642.84,-30.19 644.64,-19.75 636.72,-26.79 642.84,-30.19"/>
</g>
<!-- Node9 -->
<g id="node9" class="node">
<title>Node9</title>
<g id="a_node9"><a xlink:title=" ">
<polygon fill="white" stroke="#bfbfbf" points="686.5,-0.5 686.5,-19.5 730.5,-19.5 730.5,-0.5 686.5,-0.5"/>
<text text-anchor="middle" x="708.5" y="-7.5" font-family="Helvetica,sans-Serif" font-size="10.00">string</text>
</a>
</g>
</g>
<!-- Node3&#45;&gt;Node9 -->
<g id="edge8" class="edge">
<title>Node3&#45;&gt;Node9</title>
<path fill="none" stroke="midnightblue" d="M633.8,-56.32C647.68,-47.9 668.99,-34.97 685.3,-25.07"/>
<polygon fill="midnightblue" stroke="midnightblue" points="687.5,-27.83 694.24,-19.65 683.87,-21.85 687.5,-27.83"/>
</g>
<!-- Node10 -->
<g id="node10" class="node">
<title>Node10</title>
<g id="a_node10"><a xlink:title=" ">
<polygon fill="white" stroke="#bfbfbf" points="748.5,-0.5 748.5,-19.5 812.5,-19.5 812.5,-0.5 748.5,-0.5"/>
<text text-anchor="middle" x="780.5" y="-7.5" font-family="Helvetica,sans-Serif" font-size="10.00">algorithm</text>
</a>
</g>
</g>
<!-- Node3&#45;&gt;Node10 -->
<g id="edge9" class="edge">
<title>Node3&#45;&gt;Node10</title>
<path fill="none" stroke="midnightblue" d="M645.01,-56.44C672.1,-47.36 715.09,-32.94 745.37,-22.78"/>
<polygon fill="midnightblue" stroke="midnightblue" points="746.74,-26.01 755.11,-19.52 744.51,-19.38 746.74,-26.01"/>
</g>
<!-- Node11 -->
<g id="node11" class="node">
<title>Node11</title>
<g id="a_node11"><a xlink:title=" ">
<polygon fill="white" stroke="#bfbfbf" points="830.5,-0.5 830.5,-19.5 888.5,-19.5 888.5,-0.5 830.5,-0.5"/>
<text text-anchor="middle" x="859.5" y="-7.5" font-family="Helvetica,sans-Serif" font-size="10.00">memory</text>
</a>
</g>
</g>
<!-- Node3&#45;&gt;Node11 -->
<g id="edge10" class="edge">
<title>Node3&#45;&gt;Node11</title>
<path fill="none" stroke="midnightblue" d="M658.64,-56.44C697.29,-47.96 758.35,-34.45 820.49,-20.21"/>
<polygon fill="midnightblue" stroke="midnightblue" points="821.5,-23.57 830.46,-17.92 819.93,-16.75 821.5,-23.57"/>
</g>
<!-- Node13 -->
<g id="node13" class="node">
<title>Node13</title>
<g id="a_node13"><a xlink:href="../../db/def/fmt_8h.html" target="_top" xlink:title="Wrapper for either system&#45;installed or local headers for fmt.">
<polygon fill="white" stroke="black" points="341,-112.5 341,-131.5 450,-131.5 450,-112.5 341,-112.5"/>
<text text-anchor="middle" x="395.5" y="-119.5" font-family="Helvetica,sans-Serif" font-size="10.00">cantera/base/fmt.h</text>
</a>
</g>
</g>
<!-- Node12&#45;&gt;Node13 -->
<g id="edge12" class="edge">
<title>Node12&#45;&gt;Node13</title>
<path fill="none" stroke="midnightblue" d="M354.59,-168.08C361.66,-160.3 372.09,-148.8 380.65,-139.37"/>
<polygon fill="midnightblue" stroke="midnightblue" points="383.43,-141.51 387.56,-131.75 378.25,-136.8 383.43,-141.51"/>
</g>
<!-- Node16 -->
<g id="node16" class="node">
<title>Node16</title>
<g id="a_node16"><a xlink:title=" ">
<polygon fill="white" stroke="#bfbfbf" points="258,-112.5 258,-131.5 323,-131.5 323,-112.5 258,-112.5"/>
<text text-anchor="middle" x="290.5" y="-119.5" font-family="Helvetica,sans-Serif" font-size="10.00">exception</text>
</a>
</g>
</g>
<!-- Node12&#45;&gt;Node16 -->
<g id="edge16" class="edge">
<title>Node12&#45;&gt;Node16</title>
<path fill="none" stroke="midnightblue" d="M337.5,-168.32C329.31,-160.42 316.99,-148.55 307.03,-138.94"/>
<polygon fill="midnightblue" stroke="midnightblue" points="309.29,-136.26 299.66,-131.83 304.43,-141.29 309.29,-136.26"/>
</g>
<!-- Node13&#45;&gt;Node3 -->
<g id="edge13" class="edge">
<title>Node13&#45;&gt;Node3</title>
<path fill="none" stroke="midnightblue" d="M430.99,-112.44C469.82,-103.08 532.16,-88.06 574.42,-77.87"/>
<polygon fill="midnightblue" stroke="midnightblue" points="575.27,-81.26 584.17,-75.52 573.63,-74.46 575.27,-81.26"/>
</g>
<!-- Node14 -->
<g id="node14" class="node">
<title>Node14</title>
<g id="a_node14"><a xlink:title=" ">
<polygon fill="white" stroke="#bfbfbf" points="352,-56.5 352,-75.5 489,-75.5 489,-56.5 352,-56.5"/>
<text text-anchor="middle" x="420.5" y="-63.5" font-family="Helvetica,sans-Serif" font-size="10.00">cantera/ext/fmt/format.h</text>
</a>
</g>
</g>
<!-- Node13&#45;&gt;Node14 -->
<g id="edge14" class="edge">
<title>Node13&#45;&gt;Node14</title>
<path fill="none" stroke="midnightblue" d="M399.63,-112.08C403.01,-104.77 407.92,-94.18 412.12,-85.1"/>
<polygon fill="midnightblue" stroke="midnightblue" points="415.42,-86.3 416.45,-75.75 409.07,-83.36 415.42,-86.3"/>
</g>
<!-- Node15 -->
<g id="node15" class="node">
<title>Node15</title>
<g id="a_node15"><a xlink:title=" ">
<polygon fill="white" stroke="#bfbfbf" points="189,-56.5 189,-75.5 334,-75.5 334,-56.5 189,-56.5"/>
<text text-anchor="middle" x="261.5" y="-63.5" font-family="Helvetica,sans-Serif" font-size="10.00">cantera/ext/fmt/ostream.h</text>
</a>
</g>
</g>
<!-- Node13&#45;&gt;Node15 -->
<g id="edge15" class="edge">
<title>Node13&#45;&gt;Node15</title>
<path fill="none" stroke="midnightblue" d="M374.27,-112.44C352.12,-103.52 317.18,-89.44 292.06,-79.32"/>
<polygon fill="midnightblue" stroke="midnightblue" points="293.22,-76.01 282.63,-75.52 290.6,-82.5 293.22,-76.01"/>
</g>
<!-- Node18 -->
<g id="node18" class="node">
<title>Node18</title>
<g id="a_node18"><a xlink:href="../../de/df0/utilities_8h.html" target="_top" xlink:title="Various templated functions that carry out common vector operations (see Templated Utility Functions)...">
<polygon fill="white" stroke="black" points="766.5,-224.5 766.5,-243.5 828.5,-243.5 828.5,-224.5 766.5,-224.5"/>
<text text-anchor="middle" x="797.5" y="-231.5" font-family="Helvetica,sans-Serif" font-size="10.00">utilities.h</text>
</a>
</g>
</g>
<!-- Node17&#45;&gt;Node18 -->
<g id="edge18" class="edge">
<title>Node17&#45;&gt;Node18</title>
<path fill="none" stroke="midnightblue" d="M841.75,-280.08C834.03,-272.22 822.6,-260.57 813.28,-251.08"/>
<polygon fill="midnightblue" stroke="midnightblue" points="815.59,-248.44 806.09,-243.75 810.6,-253.34 815.59,-248.44"/>
</g>
<!-- Node22 -->
<g id="node22" class="node">
<title>Node22</title>
<g id="a_node22"><a xlink:title=" ">
<polygon fill="white" stroke="#bfbfbf" points="846.5,-224.5 846.5,-243.5 906.5,-243.5 906.5,-224.5 846.5,-224.5"/>
<text text-anchor="middle" x="876.5" y="-231.5" font-family="Helvetica,sans-Serif" font-size="10.00">iostream</text>
</a>
</g>
</g>
<!-- Node17&#45;&gt;Node22 -->
<g id="edge25" class="edge">
<title>Node17&#45;&gt;Node22</title>
<path fill="none" stroke="midnightblue" d="M854.79,-280.08C858.35,-272.69 863.52,-261.95 867.92,-252.81"/>
<polygon fill="midnightblue" stroke="midnightblue" points="871.1,-254.28 872.29,-243.75 864.79,-251.24 871.1,-254.28"/>
</g>
<!-- Node23 -->
<g id="node23" class="node">
<title>Node23</title>
<g id="a_node23"><a xlink:title=" ">
<polygon fill="white" stroke="#bfbfbf" points="924.5,-224.5 924.5,-243.5 974.5,-243.5 974.5,-224.5 924.5,-224.5"/>
<text text-anchor="middle" x="949.5" y="-231.5" font-family="Helvetica,sans-Serif" font-size="10.00">cstring</text>
</a>
</g>
</g>
<!-- Node17&#45;&gt;Node23 -->
<g id="edge26" class="edge">
<title>Node17&#45;&gt;Node23</title>
<path fill="none" stroke="midnightblue" d="M866.41,-280.32C882.14,-271.74 906.44,-258.49 924.71,-248.52"/>
<polygon fill="midnightblue" stroke="midnightblue" points="926.53,-251.52 933.63,-243.65 923.18,-245.37 926.53,-251.52"/>
</g>
<!-- Node18&#45;&gt;Node3 -->
<g id="edge19" class="edge">
<title>Node18&#45;&gt;Node3</title>
<path fill="none" stroke="midnightblue" d="M796.78,-224.32C794.49,-202.34 785.47,-144 752.5,-112 735.36,-95.36 711.85,-84.87 689.36,-78.25"/>
<polygon fill="midnightblue" stroke="midnightblue" points="690.04,-74.81 679.47,-75.56 688.2,-81.56 690.04,-74.81"/>
</g>
<!-- Node19 -->
<g id="node19" class="node">
<title>Node19</title>
<g id="a_node19"><a xlink:href="../../d2/d49/global_8h.html" target="_top" xlink:title="This file contains definitions for utility functions and text for modules, inputfiles,...">
<polygon fill="white" stroke="black" points="654.5,-168.5 654.5,-187.5 710.5,-187.5 710.5,-168.5 654.5,-168.5"/>
<text text-anchor="middle" x="682.5" y="-175.5" font-family="Helvetica,sans-Serif" font-size="10.00">global.h</text>
</a>
</g>
</g>
<!-- Node18&#45;&gt;Node19 -->
<g id="edge20" class="edge">
<title>Node18&#45;&gt;Node19</title>
<path fill="none" stroke="midnightblue" d="M779.28,-224.44C760.6,-215.68 731.34,-201.94 709.88,-191.86"/>
<polygon fill="midnightblue" stroke="midnightblue" points="711.18,-188.6 700.64,-187.52 708.2,-194.93 711.18,-188.6"/>
</g>
<!-- Node20 -->
<g id="node20" class="node">
<title>Node20</title>
<g id="a_node20"><a xlink:title=" ">
<polygon fill="white" stroke="#bfbfbf" points="879,-168.5 879,-187.5 944,-187.5 944,-168.5 879,-168.5"/>
<text text-anchor="middle" x="911.5" y="-175.5" font-family="Helvetica,sans-Serif" font-size="10.00">stdexcept</text>
</a>
</g>
</g>
<!-- Node18&#45;&gt;Node20 -->
<g id="edge23" class="edge">
<title>Node18&#45;&gt;Node20</title>
<path fill="none" stroke="midnightblue" d="M815.56,-224.44C834.07,-215.68 863.08,-201.94 884.36,-191.86"/>
<polygon fill="midnightblue" stroke="midnightblue" points="885.98,-194.96 893.52,-187.52 882.99,-188.63 885.98,-194.96"/>
</g>
<!-- Node21 -->
<g id="node21" class="node">
<title>Node21</title>
<g id="a_node21"><a xlink:title=" ">
<polygon fill="white" stroke="#bfbfbf" points="804.5,-168.5 804.5,-187.5 860.5,-187.5 860.5,-168.5 804.5,-168.5"/>
<text text-anchor="middle" x="832.5" y="-175.5" font-family="Helvetica,sans-Serif" font-size="10.00">numeric</text>
</a>
</g>
</g>
<!-- Node18&#45;&gt;Node21 -->
<g id="edge24" class="edge">
<title>Node18&#45;&gt;Node21</title>
<path fill="none" stroke="midnightblue" d="M803.28,-224.08C808.17,-216.53 815.33,-205.49 821.33,-196.23"/>
<polygon fill="midnightblue" stroke="midnightblue" points="824.33,-198.05 826.83,-187.75 818.45,-194.24 824.33,-198.05"/>
</g>
<!-- Node19&#45;&gt;Node3 -->
<g id="edge21" class="edge">
<title>Node19&#45;&gt;Node3</title>
<path fill="none" stroke="midnightblue" d="M680.32,-168.14C676.91,-155.2 669.52,-130.64 658.5,-112 652.27,-101.45 643.45,-91.03 635.77,-82.87"/>
<polygon fill="midnightblue" stroke="midnightblue" points="638.11,-80.26 628.62,-75.55 633.1,-85.15 638.11,-80.26"/>
</g>
<!-- Node19&#45;&gt;Node13 -->
<g id="edge22" class="edge">
<title>Node19&#45;&gt;Node13</title>
<path fill="none" stroke="midnightblue" d="M654.46,-171.72C607.36,-162.86 511.55,-144.84 450.6,-133.37"/>
<polygon fill="midnightblue" stroke="midnightblue" points="451.23,-129.93 440.76,-131.52 449.94,-136.8 451.23,-129.93"/>
</g>
<!-- Node25 -->
<g id="node25" class="node">
<title>Node25</title>
<g id="a_node25"><a xlink:href="../../d7/d01/ThermoPhase_8h.html" target="_top" xlink:title="Header file for class ThermoPhase, the base class for phases with thermodynamic properties,...">
<polygon fill="white" stroke="black" points="465.5,-336.5 465.5,-355.5 635.5,-355.5 635.5,-336.5 465.5,-336.5"/>
<text text-anchor="middle" x="550.5" y="-343.5" font-family="Helvetica,sans-Serif" font-size="10.00">cantera/thermo/ThermoPhase.h</text>
</a>
</g>
</g>
<!-- Node24&#45;&gt;Node25 -->
<g id="edge28" class="edge">
<title>Node24&#45;&gt;Node25</title>
<path fill="none" stroke="midnightblue" d="M598.34,-392.32C590,-384.42 577.47,-372.55 567.32,-362.94"/>
<polygon fill="midnightblue" stroke="midnightblue" points="569.49,-360.17 559.82,-355.83 564.68,-365.25 569.49,-360.17"/>
</g>
<!-- Node25&#45;&gt;Node19 -->
<g id="edge44" class="edge">
<title>Node25&#45;&gt;Node19</title>
<path fill="none" stroke="midnightblue" d="M570.95,-336.5C601.51,-322.48 657.7,-291.29 678.5,-244 684.9,-229.45 685.48,-211.27 684.7,-197.84"/>
<polygon fill="midnightblue" stroke="midnightblue" points="688.18,-197.51 683.82,-187.86 681.21,-198.13 688.18,-197.51"/>
</g>
<!-- Node26 -->
<g id="node26" class="node">
<title>Node26</title>
<g id="a_node26"><a xlink:href="../../da/d84/Phase_8h.html" target="_top" xlink:title="Header file for class Phase.">
<polygon fill="white" stroke="black" points="311,-280.5 311,-299.5 366,-299.5 366,-280.5 311,-280.5"/>
<text text-anchor="middle" x="338.5" y="-287.5" font-family="Helvetica,sans-Serif" font-size="10.00">Phase.h</text>
</a>
</g>
</g>
<!-- Node25&#45;&gt;Node26 -->
<g id="edge29" class="edge">
<title>Node25&#45;&gt;Node26</title>
<path fill="none" stroke="midnightblue" d="M516.91,-336.44C478.56,-326.68 416.01,-310.74 376.08,-300.57"/>
<polygon fill="midnightblue" stroke="midnightblue" points="376.75,-297.13 366.19,-298.05 375.02,-303.91 376.75,-297.13"/>
</g>
<!-- Node39 -->
<g id="node31" class="node">
<title>Node39</title>
<g id="a_node31"><a xlink:href="../../d6/d7a/MultiSpeciesThermo_8h.html" target="_top" xlink:title="Header for a general species thermodynamic property manager for a phase (see MultiSpeciesThermo).">
<polygon fill="white" stroke="black" points="491,-280.5 491,-299.5 616,-299.5 616,-280.5 491,-280.5"/>
<text text-anchor="middle" x="553.5" y="-287.5" font-family="Helvetica,sans-Serif" font-size="10.00">MultiSpeciesThermo.h</text>
</a>
</g>
</g>
<!-- Node25&#45;&gt;Node39 -->
<g id="edge39" class="edge">
<title>Node25&#45;&gt;Node39</title>
<path fill="none" stroke="midnightblue" d="M551,-336.08C551.39,-329.01 551.95,-318.86 552.45,-309.99"/>
<polygon fill="midnightblue" stroke="midnightblue" points="555.95,-309.93 553.01,-299.75 548.96,-309.54 555.95,-309.93"/>
</g>
<!-- Node26&#45;&gt;Node12 -->
<g id="edge30" class="edge">
<title>Node26&#45;&gt;Node12</title>
<path fill="none" stroke="midnightblue" d="M345.65,-280.36C352.27,-271.76 361.66,-257.87 365.5,-244 369.95,-227.93 363.64,-209.71 357.12,-196.66"/>
<polygon fill="midnightblue" stroke="midnightblue" points="360.15,-194.9 352.27,-187.81 354.01,-198.26 360.15,-194.9"/>
</g>
<!-- Node27 -->
<g id="node27" class="node">
<title>Node27</title>
<g id="a_node27"><a xlink:href="../../d4/dfa/Solution_8h.html" target="_top" xlink:title=" ">
<polygon fill="white" stroke="black" points="226,-224.5 226,-243.5 357,-243.5 357,-224.5 226,-224.5"/>
<text text-anchor="middle" x="291.5" y="-231.5" font-family="Helvetica,sans-Serif" font-size="10.00">cantera/base/Solution.h</text>
</a>
</g>
</g>
<!-- Node26&#45;&gt;Node27 -->
<g id="edge31" class="edge">
<title>Node26&#45;&gt;Node27</title>
<path fill="none" stroke="midnightblue" d="M330.74,-280.08C323.96,-272.3 313.96,-260.8 305.74,-251.37"/>
<polygon fill="midnightblue" stroke="midnightblue" points="308.32,-249 299.12,-243.75 303.04,-253.59 308.32,-249"/>
</g>
<!-- Node28 -->
<g id="node28" class="node">
<title>Node28</title>
<g id="a_node28"><a xlink:href="../../d9/dda/Elements_8h.html" target="_top" xlink:title="Contains the getElementWeight function and the definitions of element constraint types.">
<polygon fill="white" stroke="black" points="468,-112.5 468,-131.5 617,-131.5 617,-112.5 468,-112.5"/>
<text text-anchor="middle" x="542.5" y="-119.5" font-family="Helvetica,sans-Serif" font-size="10.00">cantera/thermo/Elements.h</text>
</a>
</g>
</g>
<!-- Node26&#45;&gt;Node28 -->
<g id="edge33" class="edge">
<title>Node26&#45;&gt;Node28</title>
<path fill="none" stroke="midnightblue" d="M349.18,-280.31C382.09,-253.53 482.24,-172.03 523.96,-138.09"/>
<polygon fill="midnightblue" stroke="midnightblue" points="526.38,-140.63 531.93,-131.61 521.96,-135.2 526.38,-140.63"/>
</g>
<!-- Node29 -->
<g id="node29" class="node">
<title>Node29</title>
<g id="a_node29"><a xlink:href="../../d7/dd9/Species_8h.html" target="_top" xlink:title="Declaration for class Cantera::Species.">
<polygon fill="white" stroke="red" points="99,-112.5 99,-131.5 240,-131.5 240,-112.5 99,-112.5"/>
<text text-anchor="middle" x="169.5" y="-119.5" font-family="Helvetica,sans-Serif" font-size="10.00">cantera/thermo/Species.h</text>
</a>
</g>
</g>
<!-- Node26&#45;&gt;Node29 -->
<g id="edge35" class="edge">
<title>Node26&#45;&gt;Node29</title>
<path fill="none" stroke="midnightblue" d="M310.77,-285.44C283.48,-280.57 242.26,-269.32 216.5,-244 187.8,-215.79 176.27,-168.06 171.92,-141.77"/>
<polygon fill="midnightblue" stroke="midnightblue" points="175.35,-141.02 170.43,-131.64 168.42,-142.04 175.35,-141.02"/>
</g>
<!-- Node37 -->
<g id="node30" class="node">
<title>Node37</title>
<g id="a_node30"><a xlink:href="../../d6/df6/ValueCache_8h.html" target="_top" xlink:title=" ">
<polygon fill="white" stroke="red" points="0,-168.5 0,-187.5 149,-187.5 149,-168.5 0,-168.5"/>
<text text-anchor="middle" x="74.5" y="-175.5" font-family="Helvetica,sans-Serif" font-size="10.00">cantera/base/ValueCache.h</text>
</a>
</g>
</g>
<!-- Node26&#45;&gt;Node37 -->
<g id="edge37" class="edge">
<title>Node26&#45;&gt;Node37</title>
<path fill="none" stroke="midnightblue" d="M310.99,-283.96C278.06,-277.34 221.69,-264.14 176.5,-244 145.73,-230.29 113.47,-208.24 93.67,-193.68"/>
<polygon fill="midnightblue" stroke="midnightblue" points="95.6,-190.76 85.5,-187.58 91.41,-196.37 95.6,-190.76"/>
</g>
<!-- Node27&#45;&gt;Node12 -->
<g id="edge32" class="edge">
<title>Node27&#45;&gt;Node12</title>
<path fill="none" stroke="midnightblue" d="M300.58,-224.08C308.67,-216.14 320.7,-204.34 330.41,-194.8"/>
<polygon fill="midnightblue" stroke="midnightblue" points="332.9,-197.25 337.59,-187.75 328,-192.26 332.9,-197.25"/>
</g>
<!-- Node28&#45;&gt;Node3 -->
<g id="edge34" class="edge">
<title>Node28&#45;&gt;Node3</title>
<path fill="none" stroke="midnightblue" d="M554.87,-112.32C566.66,-104.06 584.63,-91.45 598.64,-81.63"/>
<polygon fill="midnightblue" stroke="midnightblue" points="600.98,-84.26 607.16,-75.65 596.96,-78.53 600.98,-84.26"/>
</g>
<!-- Node29&#45;&gt;Node3 -->
<g id="edge36" class="edge">
<title>Node29&#45;&gt;Node3</title>
<path fill="none" stroke="midnightblue" d="M240.31,-112.5C323.55,-102.51 461.06,-86.01 545.61,-75.87"/>
<polygon fill="midnightblue" stroke="midnightblue" points="546.14,-79.33 555.65,-74.66 545.31,-72.38 546.14,-79.33"/>
</g>
<!-- Node37&#45;&gt;Node3 -->
<g id="edge38" class="edge">
<title>Node37&#45;&gt;Node3</title>
<path fill="none" stroke="midnightblue" d="M73.6,-168.24C72.68,-154.03 73.23,-126.11 89.5,-112 93.77,-108.3 401.17,-83.96 545.8,-72.7"/>
<polygon fill="midnightblue" stroke="midnightblue" points="546.23,-76.18 555.92,-71.91 545.68,-69.2 546.23,-76.18"/>
</g>
<!-- Node40 -->
<g id="node32" class="node">
<title>Node40</title>
<g id="a_node32"><a xlink:href="../../d4/d87/SpeciesThermoInterpType_8h.html" target="_top" xlink:title="Pure Virtual Base class for individual species reference state thermodynamic managers and text for th...">
<polygon fill="white" stroke="red" points="517.5,-224.5 517.5,-243.5 669.5,-243.5 669.5,-224.5 517.5,-224.5"/>
<text text-anchor="middle" x="593.5" y="-231.5" font-family="Helvetica,sans-Serif" font-size="10.00">SpeciesThermoInterpType.h</text>
</a>
</g>
</g>
<!-- Node39&#45;&gt;Node40 -->
<g id="edge40" class="edge">
<title>Node39&#45;&gt;Node40</title>
<path fill="none" stroke="midnightblue" d="M560.11,-280.08C565.76,-272.46 574.04,-261.26 580.95,-251.94"/>
<polygon fill="midnightblue" stroke="midnightblue" points="583.88,-253.87 587.02,-243.75 578.25,-249.7 583.88,-253.87"/>
</g>
<!-- Node40&#45;&gt;Node3 -->
<g id="edge41" class="edge">
<title>Node40&#45;&gt;Node3</title>
<path fill="none" stroke="midnightblue" d="M597.26,-224.3C604.48,-207.08 620.05,-167.26 625.5,-132 626.86,-123.22 626.09,-120.87 625.5,-112 624.93,-103.34 623.73,-93.81 622.56,-85.75"/>
<polygon fill="midnightblue" stroke="midnightblue" points="625.98,-84.94 620.99,-75.59 619.06,-86.01 625.98,-84.94"/>
</g>
<!-- Node40&#45;&gt;Node12 -->
<g id="edge42" class="edge">
<title>Node40&#45;&gt;Node12</title>
<path fill="none" stroke="midnightblue" d="M554.36,-224.44C511.27,-215.02 441.94,-199.87 395.33,-189.68"/>
<polygon fill="midnightblue" stroke="midnightblue" points="395.97,-186.23 385.45,-187.52 394.48,-193.07 395.97,-186.23"/>
</g>
<!-- Node40&#45;&gt;Node19 -->
<g id="edge43" class="edge">
<title>Node40&#45;&gt;Node19</title>
<path fill="none" stroke="midnightblue" d="M607.8,-224.32C621.68,-215.9 642.99,-202.97 659.3,-193.07"/>
<polygon fill="midnightblue" stroke="midnightblue" points="661.5,-195.83 668.24,-187.65 657.87,-189.85 661.5,-195.83"/>
</g>
</g>
</svg>
        <g id="navigator" transform="translate(0 0)" fill="#404254">
                <rect fill="#f2f5e9" fill-opacity="0.5" stroke="#606060" stroke-width=".5" x="0" y="0" width="60" height="60"/>
                <use id="zoomplus" xlink:href="#zoomPlus" x="17" y="9" onmousedown="handleZoom(evt,'in')"/>
                <use id="zoomminus" xlink:href="#zoomMin" x="42" y="9" onmousedown="handleZoom(evt,'out')"/>
                <use id="reset" xlink:href="#resetDef" x="30" y="36" onmousedown="handleReset()"/>
                <g id="arrowUp" xlink:href="#dirArrow" transform="translate(30 24)" onmousedown="handlePan(0,-1)">
                  <use xlink:href="#rim" fill="#404040">
                        <set attributeName="fill" to="#808080" begin="arrowUp.mouseover" end="arrowUp.mouseout"/>
                  </use>
                  <path fill="none" stroke="white" stroke-width="1.5" d="M0,-3.0v7 M-2.5,-0.5L0,-3.0L2.5,-0.5"/>
                </g>
                <g id="arrowRight" xlink:href="#dirArrow" transform="rotate(90) translate(36 -43)" onmousedown="handlePan(1,0)">
                  <use xlink:href="#rim" fill="#404040">
                        <set attributeName="fill" to="#808080" begin="arrowRight.mouseover" end="arrowRight.mouseout"/>
                  </use>
                  <path fill="none" stroke="white" stroke-width="1.5" d="M0,-3.0v7 M-2.5,-0.5L0,-3.0L2.5,-0.5"/>
                </g>
                <g id="arrowDown" xlink:href="#dirArrow" transform="rotate(180) translate(-30 -48)" onmousedown="handlePan(0,1)">
                  <use xlink:href="#rim" fill="#404040">
                        <set attributeName="fill" to="#808080" begin="arrowDown.mouseover" end="arrowDown.mouseout"/>
                  </use>
                  <path fill="none" stroke="white" stroke-width="1.5" d="M0,-3.0v7 M-2.5,-0.5L0,-3.0L2.5,-0.5"/>
                </g>
                <g id="arrowLeft" xlink:href="#dirArrow" transform="rotate(270) translate(-36 17)" onmousedown="handlePan(-1,0)">
                  <use xlink:href="#rim" fill="#404040">
                        <set attributeName="fill" to="#808080" begin="arrowLeft.mouseover" end="arrowLeft.mouseout"/>
                  </use>
                  <path fill="none" stroke="white" stroke-width="1.5" d="M0,-3.0v7 M-2.5,-0.5L0,-3.0L2.5,-0.5"/>
                </g>
        </g>
        <svg viewBox="0 0 15 15" width="100%" height="30px" preserveAspectRatio="xMaxYMin meet">
         <g id="arrow_out" transform="scale(0.3 0.3)">
          <a xlink:href="TransportParams_8h__incl_org.svg" target="_base">
           <rect id="button" ry="5" rx="5" y="6" x="6" height="38" width="38"
                fill="#f2f5e9" fill-opacity="0.5" stroke="#606060" stroke-width="1.0"/>
           <path id="arrow"
             d="M 11.500037,31.436501 C 11.940474,20.09759 22.043105,11.32322 32.158766,21.979434 L 37.068811,17.246167 C 37.068811,17.246167 37.088388,32 37.088388,32 L 22.160133,31.978069 C 22.160133,31.978069 26.997745,27.140456 26.997745,27.140456 C 18.528582,18.264221 13.291696,25.230495 11.500037,31.436501 z"
             style="fill:#404040;"/>
          </a>
         </g>
        </svg>
</svg>
