<?xml version="1.0" encoding="UTF-8" standalone="no"?>
<!DOCTYPE svg PUBLIC "-//W3C//DTD SVG 1.1//EN"
 "http://www.w3.org/Graphics/SVG/1.1/DTD/svg11.dtd">
<!-- Generated by graphviz version 2.43.0 (0)
 -->
<!-- Title: Arrhenius1 Pages: 1 -->
<svg width="130pt" height="98pt"
 viewBox="0.00 0.00 130.00 98.00" xmlns="http://www.w3.org/2000/svg" xmlns:xlink="http://www.w3.org/1999/xlink">
<g id="graph0" class="graph" transform="scale(1 1) rotate(0) translate(4 94)">
<title>Arrhenius1</title>
<polygon fill="white" stroke="transparent" points="-4,4 -4,-94 126,-94 126,4 -4,4"/>
<!-- Node1 -->
<g id="node1" class="node">
<title>Node1</title>
<g id="a_node1"><a xlink:title="Sum of Arrhenius terms.">
<polygon fill="#bfbfbf" stroke="black" points="0,-0.5 0,-19.5 69,-19.5 69,-0.5 0,-0.5"/>
<text text-anchor="middle" x="34.5" y="-7.5" font-family="Helvetica,sans-Serif" font-size="10.00">Arrhenius1</text>
</a>
</g>
</g>
<!-- Node2 -->
<g id="node2" class="node">
<title>Node2</title>
<g id="a_node2"><a xlink:href="../../d2/d3f/classCantera_1_1Func1.html" target="_top" xlink:title="Base class for &#39;functor&#39; classes that evaluate a function of one variable.">
<polygon fill="white" stroke="black" points="12,-64 12,-83 57,-83 57,-64 12,-64"/>
<text text-anchor="middle" x="34.5" y="-71" font-family="Helvetica,sans-Serif" font-size="10.00">Func1</text>
</a>
</g>
</g>
<!-- Node2&#45;&gt;Node1 -->
<g id="edge1" class="edge">
<title>Node2&#45;&gt;Node1</title>
<path fill="none" stroke="midnightblue" d="M34.5,-53.82C34.5,-42.55 34.5,-28.72 34.5,-19.88"/>
<polygon fill="midnightblue" stroke="midnightblue" points="31,-53.95 34.5,-63.95 38,-53.95 31,-53.95"/>
</g>
<!-- Node2&#45;&gt;Node2 -->
<g id="edge2" class="edge">
<title>Node2&#45;&gt;Node2</title>
<path fill="none" stroke="#9a32cd" stroke-dasharray="5,2" d="M67.5,-79.17C72,-78.22 75,-76.33 75,-73.5 75,-68.85 66.93,-66.75 57.4,-67.18"/>
<polygon fill="#9a32cd" stroke="#9a32cd" points="67.15,-75.68 57.4,-79.82 67.6,-82.67 67.15,-75.68"/>
<text text-anchor="middle" x="98.5" y="-82" font-family="Helvetica,sans-Serif" font-size="10.00"> m_f1</text>
<text text-anchor="middle" x="98.5" y="-71" font-family="Helvetica,sans-Serif" font-size="10.00">m_f2</text>
<text text-anchor="middle" x="98.5" y="-60" font-family="Helvetica,sans-Serif" font-size="10.00">m_parent</text>
</g>
</g>
</svg>
